<svg width="189" height="194" viewBox="0 0 189 194" fill="none" xmlns="http://www.w3.org/2000/svg"><path d="M129.175 182.194L152.239 188.295L137.876 167.788L149.101 161.622L118.61 140.335L160.967 138.888L151.516 126.739L174.453 107.456L144.492 107.811L143.726 92.44L110.687 118.985L119.9 82.957L107.371 85.609L104.874 60.698L91.3779 80.369L82.2004 73.367L78.4999 111.737L62.9804 108.972L78.2588 139.074C78.2588 139.074 79.4162 140.572 76.5645 141.631C73.7128 142.69 48.452 149.78 48.452 149.78L51.3584 157.607C51.3584 157.607 75.128 146.495 77.9773 145.437C80.8291 144.378 80.9295 146.266 80.9295 146.266L88.9955 179.047L98.9513 166.824L126.793 193.487L129.179 182.19L129.175 182.194Z" fill="#CCC292"/><path d="M142.922 174.711L165.984 180.81L151.622 160.303L162.846 154.137L132.355 132.85L174.712 131.403L165.262 119.254L188.196 99.972L158.235 100.327L157.469 84.956L124.43 111.5L133.643 75.472L121.114 78.124L118.616 53.211L105.12 72.882L95.9423 65.88L92.2421 104.251L76.7226 101.485L92.001 131.588C92.001 131.588 93.1576 133.083 90.3059 134.142C87.4542 135.201 62.1933 142.291 62.1933 142.291L65.0997 150.118C65.0997 150.118 88.8693 139.006 91.7219 137.949C94.5733 136.89 94.6743 138.778 94.6743 138.778L102.737 171.56L112.693 159.337L140.535 186L142.922 174.706V174.711Z" fill="#FFF3B6"/><path d="M99.5713 123.227C93.4003 106.604 82.0444 102.632 78.1121 101.739L76.7251 101.492L92.0035 131.595C92.0035 131.595 93.1601 133.09 90.3084 134.149C87.4567 135.209 62.1959 142.298 62.1959 142.298L65.1023 150.125C65.1023 150.125 88.8719 139.014 91.7245 137.957C94.5763 136.897 94.6763 138.785 94.6763 138.785L102.74 171.567L112.696 159.344L140.538 186.007L142.925 174.713L165.987 180.812L151.625 160.304L162.849 154.138C115.515 171.709 107.119 143.556 99.5753 123.228L99.5713 123.227Z" fill="#E6DBA4"/><path d="M83.9338 43.866L89.4538 29.362L75.2375 37.243L72.0291 29.554L56.2003 47.817L58.1799 20.307L49.6916 25.585L38.8276 9.41501L36.9979 28.826L27.0267 28.262L41.883 51.47L19.2726 43.024L20.1231 51.315L3.87851 51.213L15.6418 61.303L10.4929 66.76L34.995 71.801L32.1448 81.652L52.6154 73.843C52.6154 73.843 53.6599 73.196 54.1464 75.117C54.6335 77.035 57.4718 93.868 57.4718 93.868L62.721 92.527C62.721 92.527 57.1871 76.38 56.7 74.462C56.2129 72.544 57.4386 72.611 57.4386 72.611L79.1414 69.652L71.9392 62.365L91.0531 46.189L83.9313 43.865L83.9338 43.866Z" fill="#CCC292"/><path d="M80.0528 34.453L85.5728 19.949L71.3571 27.828L68.1487 20.139L52.3199 38.402L54.299 10.894L45.8131 16.173L34.9496 0L33.1194 19.413L23.1488 18.847L38.0045 42.058L15.3942 33.612L16.2446 41.903L0 41.801L11.7633 51.89L6.61502 57.345L31.117 62.386L28.2669 72.238L48.7381 64.425C48.7381 64.425 49.782 63.781 50.2691 65.699C50.7562 67.617 53.5939 84.453 53.5939 84.453L58.8431 83.112C58.8431 83.112 53.3092 66.966 52.8221 65.048C52.335 63.13 53.5612 63.193 53.5612 63.193L75.264 60.235L68.0618 52.948L87.1762 36.769L80.0539 34.448L80.0528 34.453Z" fill="#FFF3B6"/><path d="M43.8588 58.954C32.7095 61.801 29.3692 68.875 28.5194 71.358L28.2637 72.24L48.7348 64.428C48.7348 64.428 49.7788 63.783 50.2659 65.701C50.7529 67.619 53.5907 84.456 53.5907 84.456L58.8399 83.115C58.8399 83.115 53.3059 66.968 52.8188 65.05C52.3318 63.132 53.558 63.195 53.558 63.195L75.2608 60.237L68.0586 52.95L87.173 36.772L80.0507 34.45L85.5707 19.947L71.355 27.825L68.1466 20.136C76.2317 51.978 57.4909 55.469 43.8575 58.949L43.8588 58.954Z" fill="#E6DBA4"/></svg>
