<svg width="196" height="211" viewBox="0 0 196 211" fill="none" xmlns="http://www.w3.org/2000/svg">
<path d="M96.8414 119.063C111.133 123.256 123.802 127.937 132.728 132.111C137.195 134.199 140.704 136.151 143.008 137.841C144.163 138.688 144.991 139.451 145.487 140.113C145.991 140.787 146.084 141.26 145.99 141.58C145.896 141.901 145.562 142.249 144.773 142.543C143.998 142.833 142.89 143.028 141.461 143.116C138.608 143.294 134.601 143.04 129.714 142.385C119.948 141.074 106.759 138.168 92.4667 133.975C78.1746 129.782 65.5059 125.102 56.5796 120.929C52.1132 118.84 48.6041 116.889 46.2994 115.198C45.1446 114.352 44.3172 113.589 43.8212 112.926C43.3164 112.253 43.2236 111.779 43.3176 111.459C43.4116 111.138 43.7455 110.79 44.5343 110.496C45.3093 110.207 46.4178 110.012 47.8472 109.923C50.6997 109.746 54.707 109.999 59.5938 110.655C69.3599 111.965 82.5493 114.87 96.8414 119.063Z" stroke="white"/>
<path d="M102.24 109.315C112.034 112.305 120.64 115.818 126.636 119.073C129.637 120.703 131.961 122.255 133.451 123.631C134.196 124.319 134.712 124.944 135.005 125.492C135.297 126.038 135.344 126.461 135.244 126.791C135.143 127.121 134.867 127.446 134.32 127.736C133.771 128.027 132.994 128.257 131.991 128.412C129.987 128.721 127.192 128.711 123.793 128.386C117.001 127.738 107.901 125.845 98.1065 122.855C88.312 119.865 79.7053 116.352 73.7101 113.097C70.7088 111.467 68.3852 109.915 66.8952 108.539C66.1496 107.851 65.6345 107.226 65.3416 106.678C65.0495 106.132 65.0017 105.708 65.1024 105.378C65.2032 105.048 65.4796 104.724 66.0268 104.434C66.5757 104.143 67.3519 103.913 68.3549 103.758C70.359 103.449 73.1535 103.459 76.5532 103.784C83.3444 104.432 92.4457 106.325 102.24 109.315Z" stroke="white"/>
<path d="M100.761 113.964C113.115 117.735 124.033 121.98 131.697 125.789C135.533 127.696 138.532 129.483 140.486 131.035C141.465 131.813 142.157 132.513 142.565 133.12C142.977 133.733 143.047 134.17 142.953 134.476C142.86 134.782 142.558 135.105 141.873 135.384C141.197 135.659 140.232 135.853 138.985 135.952C136.497 136.148 133.011 135.955 128.765 135.395C120.28 134.274 108.852 131.697 96.4987 127.925C84.1451 124.154 73.2265 119.909 65.5625 116.1C61.727 114.193 58.728 112.406 56.7737 110.854C55.7946 110.076 55.1026 109.376 54.6951 108.769C54.2832 108.156 54.2133 107.719 54.3066 107.413C54.3999 107.107 54.702 106.784 55.3863 106.505C56.063 106.23 57.028 106.036 58.2747 105.937C60.7628 105.741 64.2486 105.934 68.4949 106.494C76.9796 107.615 88.4074 110.192 100.761 113.964Z" stroke="white"/>
<path d="M101.785 106.179C109.288 108.469 115.9 111.094 120.522 113.48C122.836 114.675 124.629 115.799 125.784 116.778C126.364 117.269 126.759 117.704 126.984 118.073C127.21 118.445 127.227 118.685 127.181 118.837C127.134 118.988 126.986 119.179 126.591 119.36C126.198 119.541 125.627 119.681 124.873 119.765C123.368 119.932 121.253 119.862 118.666 119.561C113.499 118.959 106.548 117.443 99.045 115.153C91.5418 112.862 84.9304 110.237 80.3087 107.851C77.9942 106.656 76.2012 105.533 75.0461 104.554C74.467 104.063 74.0715 103.627 73.8467 103.258C73.6205 102.887 73.6036 102.646 73.6499 102.495C73.6962 102.343 73.8446 102.153 74.2396 101.971C74.6323 101.79 75.2034 101.65 75.958 101.567C77.4629 101.4 79.5778 101.469 82.165 101.771C87.3313 102.373 94.2814 103.888 101.785 106.179Z" stroke="white"/>
<path d="M122.723 114.268L83.9973 99.6798C46.972 94.9003 21.9389 127.496 17.3946 146.209C12.8504 164.922 131.376 222.876 147.636 185.3C163.896 147.724 133.889 115.554 122.723 114.268Z" fill="#7500FF" fill-opacity="0.15"/>
<path d="M114.022 72.059C129.477 75.4814 142.965 80.5764 152.273 86.0066C156.934 88.7262 160.472 91.4868 162.693 94.1004C164.933 96.7368 165.648 98.9894 165.243 100.818C164.839 102.646 163.24 104.386 160.096 105.83C156.979 107.261 152.607 108.269 147.233 108.767C136.502 109.76 122.125 108.684 106.67 105.262C91.215 101.839 77.7271 96.7441 68.4192 91.3139C63.7577 88.5944 60.2205 85.8348 57.9996 83.2213C55.7592 80.5849 55.0445 78.3323 55.4492 76.5042C55.854 74.676 57.4531 72.9359 60.5971 71.4918C63.7137 70.0603 68.0854 69.051 73.4593 68.5538C84.1896 67.561 98.5675 68.6367 114.022 72.059Z" fill="white" stroke="#7500FF" stroke-width="3"/>
<path d="M114.022 72.059C129.489 75.484 143.035 80.3828 152.428 85.4989C157.134 88.062 160.72 90.6381 162.987 93.0513C165.296 95.508 165.978 97.5 165.644 99.0078C165.31 100.516 163.851 102.034 160.721 103.287C157.646 104.517 153.308 105.338 147.96 105.675C137.285 106.347 122.937 105.069 107.471 101.644C92.0044 98.2191 78.4578 93.3203 69.0649 88.2042C64.3593 85.6412 60.7744 83.0651 58.5066 80.652C56.1976 78.195 55.516 76.2024 55.8499 74.6945C56.184 73.1867 57.643 71.6689 60.7732 70.4165C63.8478 69.1864 68.1851 68.3647 73.5328 68.0279C84.2075 67.3557 98.5559 68.6341 114.022 72.059Z" fill="white" stroke="#7500FF" stroke-width="3"/>
<ellipse cx="111.707" cy="82.5166" rx="48.2716" ry="16.6508" transform="rotate(12.4863 111.707 82.5166)" fill="#6D4998"/>
<mask id="path-9-inside-1_455_1448" fill="white">
<ellipse cx="1.59091" cy="0.746357" rx="1.59091" ry="0.746357" transform="matrix(0.559784 0.828639 -0.518023 0.855367 56.3291 74.8011)"/>
</mask>
<ellipse cx="1.59091" cy="0.746357" rx="1.59091" ry="0.746357" transform="matrix(0.559784 0.828639 -0.518023 0.855367 56.3291 74.8011)" fill="#B4B4B4"/>
<path d="M57.7236 78.076L57.1638 77.2474C57.2696 77.0728 57.3887 77.0376 57.4342 77.0327C57.4736 77.0286 57.4722 77.0425 57.4206 77.015C57.3182 76.9605 57.147 76.8111 56.9644 76.5408L56.4464 77.3962L55.9284 78.2515C56.2376 78.7093 56.5983 79.0761 56.9581 79.2677C57.2543 79.4253 57.8573 79.6083 58.2834 78.9047L57.7236 78.076ZM56.4464 77.3962L56.9644 76.5408C56.7818 76.2705 56.677 76.0114 56.6367 75.8546C56.6163 75.7755 56.6251 75.7725 56.6246 75.8342C56.624 75.9056 56.608 76.0935 56.5023 76.2681L55.9425 75.4395L55.3827 74.6108C54.9566 75.3145 55.1064 76.2458 55.2232 76.6994C55.3652 77.2508 55.6191 77.7938 55.9284 78.2515L56.4464 77.3962ZM55.9425 75.4395L56.5023 76.2681C56.3965 76.4427 56.2774 76.4779 56.2318 76.4828C56.1924 76.4869 56.1939 76.473 56.2455 76.5005C56.3479 76.555 56.519 76.7044 56.7016 76.9747L57.2197 76.1193L57.7377 75.264C57.4285 74.8062 57.0678 74.4394 56.7079 74.2478C56.4118 74.0902 55.8088 73.9072 55.3827 74.6108L55.9425 75.4395ZM57.2197 76.1193L56.7016 76.9747C56.8843 77.245 56.989 77.5041 57.0294 77.6609C57.0498 77.74 57.041 77.743 57.0415 77.6813C57.0421 77.6099 57.0581 77.422 57.1638 77.2474L57.7236 78.076L58.2834 78.9047C58.7095 78.2011 58.5597 77.2697 58.4429 76.8161C58.3009 76.2647 58.0469 75.7217 57.7377 75.264L57.2197 76.1193Z" fill="#7500FF" mask="url(#path-9-inside-1_455_1448)"/>
<mask id="path-11-inside-2_455_1448" fill="white">
<ellipse cx="1.49476" cy="0.772521" rx="1.49476" ry="0.772521" transform="matrix(0.675279 0.737562 -0.447001 0.894533 59.0615 79.7834)"/>
</mask>
<ellipse cx="1.49476" cy="0.772521" rx="1.49476" ry="0.772521" transform="matrix(0.675279 0.737562 -0.447001 0.894533 59.0615 79.7834)" fill="#B4B4B4"/>
<path d="M60.735 82.6795L60.0597 81.9419C60.1358 81.7897 60.2346 81.7382 60.2818 81.7245C60.3224 81.7127 60.3276 81.7257 60.2822 81.7119C60.1902 81.6839 60.0207 81.5848 59.8273 81.3735L59.3803 82.268L58.9333 83.1626C59.2973 83.5601 59.7098 83.8575 60.1081 83.9785C60.4603 84.0855 61.0621 84.1137 61.4103 83.417L60.735 82.6795ZM59.3803 82.268L59.8273 81.3735C59.6338 81.1622 59.5199 80.9518 59.4748 80.83C59.4525 80.7699 59.4625 80.7735 59.4668 80.8344C59.4718 80.905 59.4675 81.0598 59.3915 81.2121L58.7162 80.4745L58.0409 79.7369C57.6928 80.4336 57.8879 81.2757 58.0605 81.7421C58.2558 82.2694 58.5693 82.765 58.9333 83.1626L59.3803 82.268ZM58.7162 80.4745L59.3915 81.2121C59.3154 81.3643 59.2166 81.4158 59.1694 81.4295C59.1288 81.4413 59.1235 81.4283 59.169 81.4421C59.261 81.47 59.4304 81.5692 59.6239 81.7805L60.0709 80.8859L60.5179 79.9914C60.1539 79.5938 59.7414 79.2964 59.3431 79.1754C58.9908 79.0685 58.3891 79.0403 58.0409 79.7369L58.7162 80.4745ZM60.0709 80.8859L59.6239 81.7805C59.8174 81.9918 59.9313 82.2021 59.9764 82.3239C59.9986 82.3841 59.9887 82.3805 59.9844 82.3196C59.9794 82.249 59.9836 82.0941 60.0597 81.9419L60.735 82.6795L61.4103 83.417C61.7584 82.7204 61.5633 81.8782 61.3906 81.4119C61.1954 80.8846 60.8819 80.389 60.5179 79.9914L60.0709 80.8859Z" fill="#7500FF" mask="url(#path-11-inside-2_455_1448)"/>
<mask id="path-13-inside-3_455_1448" fill="white">
<ellipse cx="1.3581" cy="0.805614" rx="1.3581" ry="0.805614" transform="matrix(0.884001 0.467485 -0.310698 0.950509 62.8174 83.7856)"/>
</mask>
<ellipse cx="1.3581" cy="0.805614" rx="1.3581" ry="0.805614" transform="matrix(0.884001 0.467485 -0.310698 0.950509 62.8174 83.7856)" fill="#B4B4B4"/>
<path d="M64.9682 85.8212L64.0842 85.3537C64.1237 85.2327 64.1932 85.1656 64.237 85.1369C64.2755 85.1116 64.2893 85.1176 64.2558 85.1207C64.1849 85.1271 64.0286 85.1076 63.828 85.0015L63.5173 85.952L63.2066 86.9025C63.6691 87.1471 64.1692 87.2736 64.6234 87.2327C65.0543 87.1938 65.6293 86.9706 65.8522 86.2887L64.9682 85.8212ZM63.5173 85.952L63.828 85.0015C63.6274 84.8954 63.5064 84.7683 63.4599 84.6998C63.438 84.6674 63.4511 84.6756 63.4641 84.7281C63.479 84.7879 63.4906 84.8979 63.4511 85.0189L62.5671 84.5514L61.6831 84.0839C61.4602 84.7658 61.7412 85.4417 62.0235 85.8578C62.321 86.2963 62.7442 86.658 63.2066 86.9025L63.5173 85.952ZM62.5671 84.5514L63.4511 85.0189C63.4115 85.1398 63.3421 85.2069 63.2982 85.2357C63.2598 85.2609 63.2459 85.2549 63.2795 85.2519C63.3504 85.2455 63.5066 85.265 63.7072 85.371L64.0179 84.4205L64.3286 83.47C63.8662 83.2255 63.3661 83.0989 62.9119 83.1399C62.4809 83.1787 61.906 83.402 61.6831 84.0839L62.5671 84.5514ZM64.0179 84.4205L63.7072 85.371C63.9079 85.4771 64.0289 85.6043 64.0753 85.6727C64.0973 85.7051 64.0842 85.6969 64.0711 85.6444C64.0563 85.5846 64.0447 85.4746 64.0842 85.3537L64.9682 85.8212L65.8522 86.2887C66.0751 85.6068 65.7941 84.9308 65.5118 84.5148C65.2143 84.0763 64.7911 83.7146 64.3286 83.47L64.0179 84.4205Z" fill="#7500FF" mask="url(#path-13-inside-3_455_1448)"/>
<mask id="path-15-inside-4_455_1448" fill="white">
<ellipse cx="1.3581" cy="0.805614" rx="1.3581" ry="0.805614" transform="matrix(0.884001 0.467485 -0.310698 0.950509 67.4863 86.9089)"/>
</mask>
<ellipse cx="1.3581" cy="0.805614" rx="1.3581" ry="0.805614" transform="matrix(0.884001 0.467485 -0.310698 0.950509 67.4863 86.9089)" fill="#B4B4B4"/>
<path d="M69.6371 88.9444L68.7531 88.4769C68.7927 88.356 68.8622 88.2889 68.906 88.2601C68.9445 88.2349 68.9583 88.2409 68.9247 88.2439C68.8538 88.2503 68.6976 88.2309 68.497 88.1248L68.1863 89.0753L67.8756 90.0258C68.338 90.2703 68.8381 90.3969 69.2923 90.3559C69.7233 90.3171 70.2983 90.0938 70.5211 89.4119L69.6371 88.9444ZM68.1863 89.0753L68.497 88.1248C68.2964 88.0187 68.1753 87.8915 68.1289 87.8231C68.1069 87.7907 68.12 87.7989 68.1331 87.8514C68.148 87.9112 68.1596 88.0212 68.12 88.1421L67.236 87.6746L66.352 87.2072C66.1291 87.8891 66.4102 88.565 66.6924 88.9811C66.9899 89.4195 67.4131 89.7812 67.8756 90.0258L68.1863 89.0753ZM67.236 87.6746L68.12 88.1421C68.0805 88.2631 68.011 88.3302 67.9672 88.3589C67.9287 88.3842 67.9149 88.3782 67.9484 88.3751C68.0193 88.3687 68.1756 88.3882 68.3762 88.4943L68.6869 87.5438L68.9976 86.5933C68.5351 86.3487 68.0351 86.2222 67.5809 86.2631C67.1499 86.302 66.5749 86.5253 66.352 87.2072L67.236 87.6746ZM68.6869 87.5438L68.3762 88.4943C68.5768 88.6004 68.6978 88.7276 68.7443 88.796C68.7663 88.8284 68.7532 88.8202 68.7401 88.7677C68.7252 88.7079 68.7136 88.5979 68.7531 88.4769L69.6371 88.9444L70.5211 89.4119C70.744 88.73 70.463 88.0541 70.1807 87.638C69.8832 87.1995 69.46 86.8378 68.9976 86.5933L68.6869 87.5438Z" fill="#7500FF" mask="url(#path-15-inside-4_455_1448)"/>
<mask id="path-17-inside-5_455_1448" fill="white">
<ellipse cx="1.34423" cy="0.808724" rx="1.34423" ry="0.808724" transform="matrix(0.913828 0.406101 -0.286263 0.958151 72.6904 89.8303)"/>
</mask>
<ellipse cx="1.34423" cy="0.808724" rx="1.34423" ry="0.808724" transform="matrix(0.913828 0.406101 -0.286263 0.958151 72.6904 89.8303)" fill="#B4B4B4"/>
<path d="M74.9157 91.697L74.0019 91.2909C74.0372 91.1728 74.1032 91.1035 74.1461 91.0724C74.184 91.045 74.1986 91.0496 74.1664 91.0547C74.098 91.0654 73.9437 91.0574 73.7421 90.9678L73.4558 91.926L73.1695 92.8841C73.6463 93.096 74.158 93.1875 74.618 93.1154C75.0569 93.0466 75.6259 92.7846 75.8295 92.1031L74.9157 91.697ZM73.4558 91.926L73.7421 90.9678C73.5404 90.8782 73.4181 90.7632 73.3714 90.7013C73.3494 90.6722 73.363 90.6802 73.3775 90.7309C73.394 90.7884 73.408 90.8932 73.3727 91.0113L72.4589 90.6052L71.5451 90.1991C71.3415 90.8806 71.639 91.5277 71.9386 91.9247C72.2527 92.3408 72.6928 92.6722 73.1695 92.8841L73.4558 91.926ZM72.4589 90.6052L73.3727 91.0113C73.3375 91.1294 73.2715 91.1986 73.2285 91.2298C73.1907 91.2572 73.176 91.2526 73.2082 91.2475C73.2766 91.2368 73.4309 91.2448 73.6326 91.3344L73.9188 90.3762L74.2051 89.4181C73.7283 89.2062 73.2166 89.1146 72.7566 89.1868C72.3178 89.2556 71.7487 89.5176 71.5451 90.1991L72.4589 90.6052ZM73.9188 90.3762L73.6326 91.3344C73.8342 91.424 73.9565 91.539 74.0032 91.6008C74.0252 91.63 74.0116 91.622 73.9971 91.5713C73.9806 91.5138 73.9666 91.4089 74.0019 91.2909L74.9157 91.697L75.8295 92.1031C76.0331 91.4216 75.7357 90.7745 75.436 90.3775C75.1219 89.9613 74.6819 89.63 74.2051 89.4181L73.9188 90.3762Z" fill="#7500FF" mask="url(#path-17-inside-5_455_1448)"/>
<mask id="path-19-inside-6_455_1448" fill="white">
<ellipse cx="1.34106" cy="0.809427" rx="1.34106" ry="0.809427" transform="matrix(0.921482 0.388421 -0.279447 0.960161 78.4268 92.2263)"/>
</mask>
<ellipse cx="1.34106" cy="0.809427" rx="1.34106" ry="0.809427" transform="matrix(0.921482 0.388421 -0.279447 0.960161 78.4268 92.2263)" fill="#B4B4B4"/>
<path d="M80.6721 94.0453L79.7506 93.6568C79.7848 93.5394 79.85 93.4695 79.8927 93.4377C79.9303 93.4097 79.9451 93.4139 79.9133 93.4195C79.8455 93.4314 79.6916 93.4265 79.4896 93.3414L79.2101 94.3015L78.9307 95.2617C79.4112 95.4643 79.9258 95.5459 80.3871 95.465C80.8278 95.3878 81.3952 95.1152 81.5936 94.4337L80.6721 94.0453ZM79.2101 94.3015L79.4896 93.3414C79.2876 93.2562 79.1648 93.1445 79.118 93.0843C79.096 93.056 79.1097 93.0638 79.1246 93.114C79.1416 93.1709 79.1562 93.2745 79.122 93.3919L78.2006 93.0035L77.2791 92.615C77.0807 93.2966 77.3829 93.9357 77.6872 94.3269C78.0057 94.7365 78.4502 95.0592 78.9307 95.2617L79.2101 94.3015ZM78.2006 93.0035L79.122 93.3919C79.0879 93.5093 79.0227 93.5792 78.98 93.611C78.9423 93.639 78.9275 93.6348 78.9594 93.6292C79.0272 93.6173 79.1811 93.6222 79.3831 93.7073L79.6625 92.7472L79.942 91.787C79.4615 91.5845 78.9469 91.5029 78.4855 91.5837C78.0449 91.661 77.4774 91.9335 77.2791 92.615L78.2006 93.0035ZM79.6625 92.7472L79.3831 93.7073C79.5851 93.7925 79.7079 93.9043 79.7547 93.9645C79.7767 93.9928 79.7629 93.9849 79.748 93.9347C79.7311 93.8778 79.7164 93.7743 79.7506 93.6568L80.6721 94.0453L81.5936 94.4337C81.7919 93.7521 81.4898 93.1131 81.1855 92.7218C80.8669 92.3122 80.4225 91.9896 79.942 91.787L79.6625 92.7472Z" fill="#7500FF" mask="url(#path-19-inside-6_455_1448)"/>
<mask id="path-21-inside-7_455_1448" fill="white">
<ellipse cx="1.33271" cy="0.811274" rx="1.33271" ry="0.811274" transform="matrix(0.944988 0.327106 -0.256393 0.966573 84.167 94.561)"/>
</mask>
<ellipse cx="1.33271" cy="0.811274" rx="1.33271" ry="0.811274" transform="matrix(0.944988 0.327106 -0.256393 0.966573 84.167 94.561)" fill="#B4B4B4"/>
<path d="M86.4778 96.217L85.5328 95.8899C85.5635 95.774 85.6261 95.7018 85.6681 95.6678C85.7051 95.6378 85.7205 95.6407 85.6895 95.6481C85.6232 95.6638 85.4703 95.6691 85.2668 95.5986L85.0104 96.5652L84.754 97.5318C85.246 97.7021 85.7693 97.7498 86.2342 97.6395C86.6795 97.5338 87.2417 97.2266 87.4228 96.5441L86.4778 96.217ZM85.0104 96.5652L85.2668 95.5986C85.0632 95.5282 84.9386 95.4268 84.8911 95.3718C84.8689 95.346 84.8831 95.3533 84.8993 95.4017C84.9177 95.4566 84.9347 95.5564 84.904 95.6722L83.959 95.3451L83.014 95.018C82.833 95.7006 83.1513 96.3125 83.4704 96.6828C83.8035 97.0694 84.262 97.3615 84.754 97.5318L85.0104 96.5652ZM83.959 95.3451L84.904 95.6722C84.8732 95.7881 84.8106 95.8603 84.7687 95.8943C84.7316 95.9243 84.7163 95.9214 84.7473 95.914C84.8135 95.8983 84.9665 95.893 85.17 95.9635L85.4264 94.9969L85.6828 94.0303C85.1908 93.86 84.6674 93.8123 84.2026 93.9226C83.7572 94.0283 83.195 94.3355 83.014 95.018L83.959 95.3451ZM85.4264 94.9969L85.17 95.9635C85.3735 96.0339 85.4982 96.1353 85.5456 96.1904C85.5678 96.2162 85.5537 96.2088 85.5374 96.1604C85.519 96.1055 85.502 96.0058 85.5328 95.8899L86.4778 96.217L87.4228 96.5441C87.6038 95.8616 87.2855 95.2496 86.9664 94.8793C86.6333 94.4928 86.1748 94.2006 85.6828 94.0303L85.4264 94.9969Z" fill="#7500FF" mask="url(#path-21-inside-7_455_1448)"/>
<mask id="path-23-inside-8_455_1448" fill="white">
<ellipse cx="1.33179" cy="0.811477" rx="1.33179" ry="0.811477" transform="matrix(0.948137 0.317861 -0.252982 0.967471 89.9766 96.7129)"/>
</mask>
<ellipse cx="1.33179" cy="0.811477" rx="1.33179" ry="0.811477" transform="matrix(0.948137 0.317861 -0.252982 0.967471 89.9766 96.7129)" fill="#B4B4B4"/>
<path d="M92.2967 98.3446L91.3486 98.0268C91.3788 97.911 91.4411 97.8384 91.483 97.8041C91.5199 97.7738 91.5353 97.7766 91.5044 97.7842C91.4383 97.8005 91.2855 97.8072 91.0817 97.7389L90.8287 98.7064L90.5757 99.6738C91.0693 99.8393 91.5937 99.882 92.059 99.7673C92.5049 99.6575 93.0663 99.3452 93.2448 98.6625L92.2967 98.3446ZM90.8287 98.7064L91.0817 97.7389C90.8779 97.6706 90.7529 97.5707 90.7053 97.5163C90.6831 97.4908 90.6973 97.4981 90.7137 97.5463C90.7323 97.6008 90.7497 97.7001 90.7194 97.8158L89.7713 97.498L88.8231 97.1801C88.6446 97.8629 88.9654 98.4709 89.2866 98.8379C89.6217 99.2209 90.0821 99.5084 90.5757 99.6738L90.8287 98.7064ZM89.7713 97.498L90.7194 97.8158C90.6891 97.9316 90.6269 98.0041 90.585 98.0385C90.5481 98.0687 90.5327 98.066 90.5636 98.0584C90.6296 98.0421 90.7825 98.0354 90.9863 98.1037L91.2393 97.1362L91.4923 96.1687C90.9987 96.0033 90.4742 95.9606 90.009 96.0752C89.5631 96.1851 89.0017 96.4973 88.8231 97.1801L89.7713 97.498ZM91.2393 97.1362L90.9863 98.1037C91.1901 98.172 91.3151 98.2719 91.3626 98.3263C91.3849 98.3517 91.3707 98.3445 91.3542 98.2963C91.3356 98.2418 91.3183 98.1425 91.3486 98.0268L92.2967 98.3446L93.2448 98.6625C93.4234 97.9797 93.1026 97.3717 92.7814 97.0047C92.4463 96.6217 91.9858 96.3342 91.4923 96.1687L91.2393 97.1362Z" fill="#7500FF" mask="url(#path-23-inside-8_455_1448)"/>
<mask id="path-25-inside-9_455_1448" fill="white">
<ellipse cx="1.32875" cy="0.812143" rx="1.32875" ry="0.812143" transform="matrix(0.960646 0.277777 -0.238345 0.971181 94.6377 98.0213)"/>
</mask>
<ellipse cx="1.32875" cy="0.812143" rx="1.32875" ry="0.812143" transform="matrix(0.960646 0.277777 -0.238345 0.971181 94.6377 98.0213)" fill="#B4B4B4"/>
<path d="M96.997 99.5483L96.0364 99.2705C96.0647 99.1552 96.1257 99.0809 96.1671 99.0452C96.2036 99.0137 96.2193 99.0156 96.1887 99.0244C96.1232 99.043 95.9705 99.056 95.7654 98.9967L95.527 99.9679L95.2887 100.939C95.7885 101.084 96.3174 101.105 96.7839 100.971C97.2315 100.844 97.7898 100.51 97.9577 99.826L96.997 99.5483ZM95.527 99.9679L95.7654 98.9967C95.5602 98.9374 95.4337 98.8437 95.3855 98.7921C95.3629 98.768 95.3774 98.7747 95.3947 98.8219C95.4142 98.8752 95.4331 98.9725 95.4048 99.0878L94.4441 98.8101L93.4835 98.5323C93.3156 99.2164 93.647 99.8071 93.9768 100.16C94.3205 100.527 94.7889 100.795 95.2887 100.939L95.527 99.9679ZM94.4441 98.8101L95.4048 99.0878C95.3765 99.2032 95.3155 99.2774 95.2741 99.3131C95.2375 99.3447 95.2219 99.3427 95.2525 99.334C95.318 99.3153 95.4707 99.3023 95.6758 99.3616L95.9142 98.3904L96.1525 97.4192C95.6527 97.2747 95.1238 97.2537 94.6572 97.3869C94.2096 97.5147 93.6514 97.8482 93.4835 98.5323L94.4441 98.8101ZM95.9142 98.3904L95.6758 99.3616C95.881 99.4209 96.0075 99.5147 96.0557 99.5662C96.0783 99.5903 96.0638 99.5836 96.0465 99.5365C96.0269 99.4831 96.0081 99.3858 96.0364 99.2705L96.997 99.5483L97.9577 99.826C98.1256 99.142 97.7941 98.5512 97.4644 98.1986C97.1207 97.8312 96.6523 97.5638 96.1525 97.4192L95.9142 98.3904Z" fill="#7500FF" mask="url(#path-25-inside-9_455_1448)"/>
<mask id="path-27-inside-10_455_1448" fill="white">
<ellipse cx="1.32722" cy="0.812478" rx="1.32722" ry="0.812478" transform="matrix(0.971494 0.237063 -0.223671 0.974665 99.3457 99.1313)"/>
</mask>
<ellipse cx="1.32722" cy="0.812478" rx="1.32722" ry="0.812478" transform="matrix(0.971494 0.237063 -0.223671 0.974665 99.3457 99.1313)" fill="#B4B4B4"/>
<path d="M101.743 100.552L100.771 100.315C100.798 100.2 100.858 100.124 100.899 100.087C100.935 100.054 100.951 100.055 100.92 100.065C100.855 100.086 100.702 100.106 100.495 100.055L100.272 101.03L100.048 102.004C100.553 102.128 101.086 102.127 101.553 101.975C102.002 101.83 102.557 101.475 102.714 100.79L101.743 100.552ZM100.272 101.03L100.495 100.055C100.289 100.005 100.16 99.9168 100.111 99.8678C100.088 99.8449 100.103 99.8511 100.121 99.8972C100.141 99.9493 100.162 100.045 100.135 100.16L99.164 99.9232L98.1925 99.6861C98.0351 100.372 98.3774 100.945 98.7151 101.283C99.067 101.634 99.5426 101.881 100.048 102.004L100.272 101.03ZM99.164 99.9232L100.135 100.16C100.109 100.276 100.049 100.352 100.008 100.389C99.9719 100.422 99.9561 100.42 99.9866 100.41C100.052 100.389 100.205 100.37 100.411 100.421L100.635 99.446L100.859 98.4713C100.353 98.348 99.8209 98.3488 99.3537 98.5004C98.9052 98.6459 98.3499 99.0003 98.1925 99.6861L99.164 99.9232ZM100.635 99.446L100.411 100.421C100.618 100.471 100.747 100.559 100.796 100.608C100.819 100.631 100.804 100.625 100.786 100.579C100.765 100.526 100.745 100.431 100.771 100.315L101.743 100.552L102.714 100.79C102.872 100.104 102.529 99.5302 102.192 99.1929C101.84 98.8414 101.364 98.5946 100.859 98.4713L100.635 99.446Z" fill="#7500FF" mask="url(#path-27-inside-10_455_1448)"/>
<mask id="path-29-inside-11_455_1448" fill="white">
<ellipse cx="1.32721" cy="0.81248" rx="1.32721" ry="0.81248" transform="matrix(0.980628 0.19588 -0.208953 0.977926 104 100.323)"/>
</mask>
<ellipse cx="1.32721" cy="0.81248" rx="1.32721" ry="0.81248" transform="matrix(0.980628 0.19588 -0.208953 0.977926 104 100.323)" fill="#B4B4B4"/>
<path d="M106.433 101.637L105.453 101.441C105.477 101.326 105.536 101.248 105.577 101.209C105.613 101.175 105.629 101.176 105.598 101.187C105.533 101.21 105.38 101.236 105.171 101.194L104.962 102.172L104.753 103.15C105.263 103.252 105.798 103.229 106.266 103.059C106.714 102.896 107.267 102.521 107.414 101.833L106.433 101.637ZM104.962 102.172L105.171 101.194C104.962 101.152 104.832 101.07 104.782 101.023C104.758 101.002 104.773 101.007 104.792 101.052C104.813 101.103 104.836 101.197 104.811 101.313L103.83 101.117L102.85 100.921C102.703 101.61 103.056 102.166 103.401 102.487C103.761 102.822 104.243 103.048 104.753 103.15L104.962 102.172ZM103.83 101.117L104.811 101.313C104.786 101.429 104.727 101.507 104.687 101.545C104.651 101.58 104.635 101.579 104.665 101.568C104.73 101.544 104.884 101.519 105.093 101.561L105.302 100.583L105.51 99.6048C105 99.5029 104.465 99.5255 103.998 99.6953C103.549 99.8582 102.997 100.233 102.85 100.921L103.83 101.117ZM105.302 100.583L105.093 101.561C105.301 101.602 105.432 101.684 105.482 101.731C105.505 101.753 105.49 101.747 105.471 101.702C105.45 101.651 105.428 101.557 105.453 101.441L106.433 101.637L107.414 101.833C107.561 101.145 107.207 100.589 106.862 100.267C106.503 99.9325 106.021 99.7067 105.51 99.6048L105.302 100.583Z" fill="#7500FF" mask="url(#path-29-inside-11_455_1448)"/>
<mask id="path-31-inside-12_455_1448" fill="white">
<ellipse cx="1.32872" cy="0.812151" rx="1.32872" ry="0.812151" transform="matrix(0.988009 0.154395 -0.194182 0.980966 108.703 101.319)"/>
</mask>
<ellipse cx="1.32872" cy="0.812151" rx="1.32872" ry="0.812151" transform="matrix(0.988009 0.154395 -0.194182 0.980966 108.703 101.319)" fill="#B4B4B4"/>
<path d="M111.171 102.526L110.183 102.371C110.206 102.255 110.264 102.175 110.304 102.135C110.34 102.099 110.356 102.099 110.325 102.111C110.26 102.138 110.106 102.169 109.895 102.136L109.7 103.117L109.506 104.098C110.02 104.179 110.558 104.134 111.025 103.947C111.472 103.766 112.022 103.371 112.159 102.68L111.171 102.526ZM109.7 103.117L109.895 102.136C109.684 102.103 109.551 102.027 109.499 101.982C109.475 101.962 109.49 101.966 109.51 102.01C109.533 102.06 109.556 102.153 109.533 102.27L108.545 102.115L107.557 101.961C107.421 102.652 107.786 103.19 108.137 103.495C108.504 103.813 108.992 104.018 109.506 104.098L109.7 103.117ZM108.545 102.115L109.533 102.27C109.51 102.386 109.452 102.467 109.412 102.507C109.376 102.542 109.36 102.542 109.391 102.53C109.457 102.503 109.611 102.472 109.822 102.505L110.016 101.524L110.21 100.543C109.696 100.463 109.159 100.507 108.692 100.695C108.244 100.875 107.694 101.27 107.557 101.961L108.545 102.115ZM110.016 101.524L109.822 102.505C110.033 102.538 110.166 102.614 110.217 102.659C110.241 102.68 110.226 102.675 110.206 102.631C110.184 102.581 110.16 102.488 110.183 102.371L111.171 102.526L112.159 102.68C112.296 101.989 111.931 101.451 111.579 101.146C111.212 100.828 110.724 100.623 110.21 100.543L110.016 101.524Z" fill="#7500FF" mask="url(#path-31-inside-12_455_1448)"/>
<mask id="path-33-inside-13_455_1448" fill="white">
<ellipse cx="1.32782" cy="0.812348" rx="1.32782" ry="0.812348" transform="matrix(0.984741 0.174027 -0.20117 0.979556 113.794 102.275)"/>
</mask>
<ellipse cx="1.32782" cy="0.812348" rx="1.32782" ry="0.812348" transform="matrix(0.984741 0.174027 -0.20117 0.979556 113.794 102.275)" fill="#B4B4B4"/>
<path d="M116.246 103.533L115.261 103.359C115.285 103.243 115.343 103.164 115.384 103.124C115.419 103.09 115.435 103.09 115.405 103.102C115.339 103.127 115.186 103.155 114.976 103.118L114.775 104.098L114.573 105.077C115.086 105.168 115.622 105.134 116.089 104.954C116.538 104.782 117.089 104.397 117.23 103.707L116.246 103.533ZM114.775 104.098L114.976 103.118C114.766 103.081 114.634 103.002 114.583 102.956C114.56 102.935 114.575 102.94 114.594 102.985C114.616 103.035 114.639 103.129 114.615 103.245L113.631 103.071L112.646 102.897C112.504 103.586 112.864 104.133 113.212 104.446C113.576 104.772 114.061 104.987 114.573 105.077L114.775 104.098ZM113.631 103.071L114.615 103.245C114.591 103.361 114.533 103.44 114.492 103.479C114.457 103.514 114.441 103.514 114.471 103.502C114.537 103.477 114.69 103.449 114.9 103.486L115.101 102.506L115.303 101.527C114.79 101.436 114.254 101.47 113.787 101.649C113.339 101.821 112.787 102.207 112.646 102.897L113.631 103.071ZM115.101 102.506L114.9 103.486C115.11 103.523 115.242 103.602 115.293 103.647C115.316 103.669 115.301 103.663 115.282 103.619C115.26 103.569 115.237 103.475 115.261 103.359L116.246 103.533L117.23 103.707C117.372 103.017 117.012 102.471 116.664 102.158C116.3 101.832 115.815 101.617 115.303 101.527L115.101 102.506Z" fill="#7500FF" mask="url(#path-33-inside-13_455_1448)"/>
<mask id="path-35-inside-14_455_1448" fill="white">
<ellipse cx="1.33988" cy="0.80969" rx="1.33988" ry="0.80969" transform="matrix(0.999001 0.0446775 -0.15486 0.987936 118.873 103.238)"/>
</mask>
<ellipse cx="1.33988" cy="0.80969" rx="1.33988" ry="0.80969" transform="matrix(0.999001 0.0446775 -0.15486 0.987936 118.873 103.238)" fill="#B4B4B4"/>
<path d="M121.425 104.158L120.426 104.113C120.445 103.993 120.502 103.905 120.541 103.861C120.576 103.822 120.592 103.821 120.56 103.837C120.492 103.871 120.334 103.92 120.116 103.91L119.961 104.898L119.806 105.886C120.327 105.909 120.866 105.808 121.328 105.575C121.77 105.351 122.314 104.903 122.424 104.202L121.425 104.158ZM119.961 104.898L120.116 103.91C119.897 103.9 119.756 103.838 119.7 103.799C119.674 103.78 119.689 103.783 119.711 103.824C119.736 103.871 119.766 103.962 119.747 104.083L118.748 104.038L117.749 103.993C117.639 104.694 118.036 105.184 118.402 105.444C118.785 105.715 119.285 105.862 119.806 105.886L119.961 104.898ZM118.748 104.038L119.747 104.083C119.728 104.203 119.671 104.29 119.631 104.334C119.597 104.373 119.581 104.375 119.613 104.359C119.68 104.324 119.838 104.276 120.057 104.286L120.212 103.298L120.366 102.31C119.846 102.287 119.306 102.388 118.844 102.621C118.403 102.845 117.859 103.293 117.749 103.993L118.748 104.038ZM120.212 103.298L120.057 104.286C120.275 104.296 120.416 104.357 120.472 104.397C120.498 104.416 120.483 104.413 120.461 104.372C120.436 104.325 120.407 104.234 120.426 104.113L121.425 104.158L122.424 104.202C122.534 103.502 122.137 103.012 121.771 102.752C121.388 102.481 120.887 102.333 120.366 102.31L120.212 103.298Z" fill="#7500FF" mask="url(#path-35-inside-14_455_1448)"/>
<mask id="path-37-inside-15_455_1448" fill="white">
<ellipse cx="1.33059" cy="0.81174" rx="1.33059" ry="0.81174" transform="matrix(0.991998 0.126254 -0.184157 0.982897 124.119 103.738)"/>
</mask>
<ellipse cx="1.33059" cy="0.81174" rx="1.33059" ry="0.81174" transform="matrix(0.991998 0.126254 -0.184157 0.982897 124.119 103.738)" fill="#B4B4B4"/>
<path d="M126.61 104.872L125.618 104.745C125.64 104.628 125.697 104.546 125.737 104.505C125.773 104.469 125.789 104.469 125.758 104.482C125.692 104.51 125.537 104.546 125.324 104.519L125.14 105.501L124.956 106.484C125.472 106.55 126.011 106.491 126.477 106.291C126.923 106.1 127.472 105.691 127.602 104.998L126.61 104.872ZM125.14 105.501L125.324 104.519C125.112 104.492 124.977 104.419 124.924 104.376C124.9 104.355 124.915 104.36 124.935 104.403C124.958 104.452 124.984 104.545 124.962 104.662L123.97 104.536L122.978 104.409C122.848 105.103 123.221 105.629 123.577 105.922C123.948 106.229 124.44 106.419 124.956 106.484L125.14 105.501ZM123.97 104.536L124.962 104.662C124.94 104.779 124.882 104.861 124.842 104.902C124.807 104.938 124.791 104.939 124.821 104.926C124.887 104.897 125.042 104.862 125.255 104.889L125.439 103.906L125.623 102.923C125.107 102.857 124.569 102.916 124.103 103.116C123.656 103.307 123.108 103.716 122.978 104.409L123.97 104.536ZM125.439 103.906L125.255 104.889C125.468 104.916 125.602 104.988 125.655 105.032C125.679 105.052 125.664 105.048 125.644 105.004C125.621 104.955 125.596 104.863 125.618 104.745L126.61 104.872L127.602 104.998C127.731 104.305 127.358 103.779 127.002 103.485C126.631 103.179 126.14 102.989 125.623 102.923L125.439 103.906Z" fill="#7500FF" mask="url(#path-37-inside-15_455_1448)"/>
<mask id="path-39-inside-16_455_1448" fill="white">
<ellipse cx="1.33226" cy="0.811373" rx="1.33226" ry="0.811373" transform="matrix(0.99425 0.107082 -0.177313 0.984155 128.936 104.397)"/>
</mask>
<ellipse cx="1.33226" cy="0.811373" rx="1.33226" ry="0.811373" transform="matrix(0.99425 0.107082 -0.177313 0.984155 128.936 104.397)" fill="#B4B4B4"/>
<path d="M131.441 105.48L130.447 105.373C130.468 105.256 130.525 105.173 130.565 105.131C130.6 105.094 130.616 105.093 130.585 105.107C130.519 105.137 130.364 105.175 130.15 105.152L129.972 106.136L129.795 107.12C130.313 107.176 130.852 107.107 131.317 106.9C131.763 106.7 132.31 106.282 132.435 105.588L131.441 105.48ZM129.972 106.136L130.15 105.152C129.936 105.129 129.8 105.059 129.747 105.017C129.722 104.997 129.737 105.001 129.758 105.044C129.781 105.092 129.807 105.184 129.786 105.302L128.792 105.195L127.797 105.088C127.672 105.783 128.051 106.301 128.409 106.586C128.783 106.885 129.277 107.065 129.795 107.12L129.972 106.136ZM128.792 105.195L129.786 105.302C129.765 105.42 129.707 105.503 129.667 105.545C129.632 105.582 129.616 105.582 129.647 105.569C129.713 105.539 129.869 105.5 130.083 105.523L130.26 104.539L130.437 103.555C129.92 103.499 129.381 103.568 128.916 103.776C128.47 103.975 127.923 104.393 127.797 105.088L128.792 105.195ZM130.26 104.539L130.083 105.523C130.297 105.546 130.433 105.616 130.486 105.659C130.511 105.679 130.496 105.675 130.475 105.632C130.451 105.583 130.425 105.491 130.447 105.373L131.441 105.48L132.435 105.588C132.56 104.893 132.182 104.375 131.823 104.089C131.449 103.791 130.955 103.611 130.437 103.555L130.26 104.539Z" fill="#7500FF" mask="url(#path-39-inside-16_455_1448)"/>
<mask id="path-41-inside-17_455_1448" fill="white">
<ellipse cx="1.33424" cy="0.810937" rx="1.33424" ry="0.810937" transform="matrix(0.996127 0.0879232 -0.170453 0.985366 134.813 104.99)"/>
</mask>
<ellipse cx="1.33424" cy="0.810937" rx="1.33424" ry="0.810937" transform="matrix(0.996127 0.0879232 -0.170453 0.985366 134.813 104.99)" fill="#B4B4B4"/>
<path d="M137.333 106.023L136.337 105.936C136.358 105.817 136.415 105.733 136.455 105.69C136.49 105.653 136.506 105.652 136.475 105.666C136.408 105.697 136.252 105.739 136.037 105.72L135.866 106.705L135.696 107.691C136.214 107.736 136.754 107.658 137.218 107.442C137.663 107.235 138.209 106.808 138.33 106.111L137.333 106.023ZM135.866 106.705L136.037 105.72C135.821 105.701 135.684 105.633 135.63 105.592C135.604 105.572 135.62 105.576 135.641 105.618C135.665 105.667 135.692 105.758 135.671 105.877L134.675 105.789L133.679 105.701C133.559 106.397 133.943 106.907 134.304 107.185C134.681 107.475 135.177 107.645 135.696 107.691L135.866 106.705ZM134.675 105.789L135.671 105.877C135.651 105.995 135.593 106.08 135.554 106.122C135.519 106.16 135.503 106.16 135.534 106.146C135.601 106.115 135.757 106.073 135.972 106.092L136.143 105.107L136.313 104.122C135.794 104.076 135.255 104.155 134.791 104.371C134.346 104.577 133.8 105.004 133.679 105.701L134.675 105.789ZM136.143 105.107L135.972 106.092C136.187 106.111 136.325 106.179 136.379 106.22C136.404 106.24 136.389 106.236 136.368 106.194C136.344 106.146 136.317 106.054 136.337 105.936L137.333 106.023L138.33 106.111C138.45 105.415 138.066 104.906 137.705 104.628C137.328 104.338 136.832 104.168 136.313 104.122L136.143 105.107Z" fill="#7500FF" mask="url(#path-41-inside-17_455_1448)"/>
<mask id="path-43-inside-18_455_1448" fill="white">
<ellipse cx="1.36774" cy="0.803426" rx="1.36774" ry="0.803426" transform="matrix(0.996047 -0.0888266 -0.104993 0.994473 140.016 105.159)"/>
</mask>
<ellipse cx="1.36774" cy="0.803426" rx="1.36774" ry="0.803426" transform="matrix(0.996047 -0.0888266 -0.104993 0.994473 140.016 105.159)" fill="#B4B4B4"/>
<path d="M142.656 105.715L141.66 105.804C141.674 105.674 141.731 105.576 141.769 105.527C141.803 105.483 141.818 105.481 141.783 105.503C141.711 105.549 141.545 105.62 141.314 105.641L141.209 106.635L141.104 107.63C141.626 107.583 142.16 107.415 142.611 107.128C143.037 106.857 143.576 106.344 143.652 105.626L142.656 105.715ZM141.209 106.635L141.314 105.641C141.084 105.662 140.93 105.619 140.866 105.585C140.835 105.569 140.85 105.568 140.875 105.606C140.904 105.65 140.941 105.74 140.927 105.869L139.931 105.958L138.935 106.047C138.859 106.765 139.299 107.19 139.676 107.39C140.074 107.601 140.582 107.677 141.104 107.63L141.209 106.635ZM139.931 105.958L140.927 105.869C140.914 105.999 140.857 106.097 140.818 106.146C140.784 106.19 140.769 106.192 140.804 106.17C140.877 106.124 141.043 106.053 141.273 106.032L141.378 105.038L141.483 104.043C140.961 104.09 140.427 104.258 139.976 104.545C139.55 104.816 139.011 105.329 138.935 106.047L139.931 105.958ZM141.378 105.038L141.273 106.032C141.503 106.011 141.657 106.054 141.722 106.088C141.752 106.104 141.737 106.105 141.712 106.067C141.683 106.023 141.646 105.933 141.66 105.804L142.656 105.715L143.652 105.626C143.728 104.908 143.288 104.483 142.912 104.283C142.513 104.072 142.005 103.996 141.483 104.043L141.378 105.038Z" fill="#7500FF" mask="url(#path-43-inside-18_455_1448)"/>
<mask id="path-45-inside-19_455_1448" fill="white">
<ellipse cx="1.36774" cy="0.803426" rx="1.36774" ry="0.803426" transform="matrix(0.996047 -0.0888266 -0.104993 0.994473 145.098 105.044)"/>
</mask>
<ellipse cx="1.36774" cy="0.803426" rx="1.36774" ry="0.803426" transform="matrix(0.996047 -0.0888266 -0.104993 0.994473 145.098 105.044)" fill="#B4B4B4"/>
<path d="M147.738 105.6L146.742 105.688C146.756 105.559 146.813 105.461 146.851 105.411C146.885 105.368 146.9 105.366 146.865 105.388C146.793 105.434 146.627 105.505 146.396 105.526L146.291 106.52L146.186 107.515C146.708 107.468 147.242 107.3 147.693 107.013C148.119 106.742 148.658 106.228 148.734 105.511L147.738 105.6ZM146.291 106.52L146.396 105.526C146.166 105.546 146.012 105.504 145.948 105.47C145.917 105.453 145.932 105.453 145.957 105.491C145.986 105.534 146.023 105.624 146.009 105.754L145.013 105.843L144.017 105.931C143.941 106.649 144.381 107.075 144.758 107.274C145.156 107.486 145.664 107.561 146.186 107.515L146.291 106.52ZM145.013 105.843L146.009 105.754C145.996 105.883 145.939 105.982 145.9 106.031C145.866 106.074 145.851 106.077 145.886 106.055C145.959 106.008 146.125 105.937 146.355 105.917L146.46 104.922L146.565 103.928C146.043 103.974 145.509 104.143 145.058 104.43C144.632 104.701 144.093 105.214 144.017 105.931L145.013 105.843ZM146.46 104.922L146.355 105.917C146.585 105.896 146.739 105.939 146.804 105.973C146.834 105.989 146.819 105.989 146.794 105.951C146.765 105.908 146.728 105.818 146.742 105.688L147.738 105.6L148.734 105.511C148.81 104.793 148.37 104.367 147.994 104.168C147.595 103.957 147.087 103.881 146.565 103.928L146.46 104.922Z" fill="#7500FF" mask="url(#path-45-inside-19_455_1448)"/>
<mask id="path-47-inside-20_455_1448" fill="white">
<ellipse cx="1.3365" cy="0.810437" rx="1.3365" ry="0.810437" transform="matrix(0.997614 0.0690382 -0.163665 0.986516 150.274 104.361)"/>
</mask>
<ellipse cx="1.3365" cy="0.810437" rx="1.3365" ry="0.810437" transform="matrix(0.997614 0.0690382 -0.163665 0.986516 150.274 104.361)" fill="#B4B4B4"/>
<path d="M152.808 105.345L151.811 105.276C151.831 105.157 151.888 105.071 151.927 105.028C151.962 104.99 151.978 104.989 151.947 105.004C151.88 105.036 151.723 105.081 151.506 105.066L151.342 106.052L151.179 107.039C151.699 107.075 152.238 106.986 152.701 106.763C153.145 106.549 153.69 106.112 153.806 105.414L152.808 105.345ZM151.342 106.052L151.506 105.066C151.29 105.051 151.151 104.986 151.096 104.945C151.07 104.926 151.085 104.929 151.107 104.971C151.131 105.019 151.159 105.11 151.139 105.229L150.142 105.16L149.144 105.091C149.028 105.79 149.418 106.291 149.781 106.56C150.161 106.843 150.659 107.003 151.179 107.039L151.342 106.052ZM150.142 105.16L151.139 105.229C151.12 105.349 151.062 105.434 151.023 105.477C150.988 105.516 150.972 105.517 151.003 105.501C151.07 105.469 151.227 105.425 151.444 105.44L151.608 104.453L151.771 103.467C151.252 103.431 150.712 103.519 150.249 103.743C149.805 103.957 149.26 104.393 149.144 105.091L150.142 105.16ZM151.608 104.453L151.444 105.44C151.661 105.455 151.8 105.52 151.854 105.56C151.88 105.579 151.865 105.576 151.843 105.534C151.819 105.487 151.791 105.395 151.811 105.276L152.808 105.345L153.806 105.414C153.922 104.716 153.532 104.215 153.169 103.945C152.789 103.663 152.291 103.503 151.771 103.467L151.608 104.453Z" fill="#7500FF" mask="url(#path-47-inside-20_455_1448)"/>
<mask id="path-49-inside-21_455_1448" fill="white">
<ellipse cx="1.37048" cy="0.8028" rx="1.37048" ry="0.8028" transform="matrix(0.995107 -0.098802 -0.101113 0.994875 154.578 103.903)"/>
</mask>
<ellipse cx="1.37048" cy="0.8028" rx="1.37048" ry="0.8028" transform="matrix(0.995107 -0.098802 -0.101113 0.994875 154.578 103.903)" fill="#B4B4B4"/>
<path d="M157.225 104.431L156.229 104.53C156.243 104.399 156.3 104.3 156.338 104.25C156.372 104.206 156.387 104.204 156.352 104.227C156.279 104.274 156.112 104.347 155.881 104.37L155.78 105.365L155.678 106.36C156.2 106.308 156.734 106.134 157.183 105.844C157.608 105.569 158.147 105.051 158.22 104.332L157.225 104.431ZM155.78 105.365L155.881 104.37C155.649 104.393 155.494 104.352 155.429 104.318C155.398 104.302 155.413 104.301 155.438 104.339C155.467 104.382 155.505 104.472 155.492 104.603L154.497 104.702L153.502 104.8C153.429 105.52 153.872 105.94 154.249 106.135C154.648 106.341 155.157 106.411 155.678 106.36L155.78 105.365ZM154.497 104.702L155.492 104.603C155.479 104.733 155.422 104.832 155.383 104.882C155.35 104.926 155.335 104.928 155.37 104.906C155.443 104.858 155.609 104.785 155.841 104.762L155.942 103.767L156.043 102.773C155.521 102.824 154.988 102.998 154.538 103.289C154.113 103.563 153.575 104.081 153.502 104.8L154.497 104.702ZM155.942 103.767L155.841 104.762C156.072 104.739 156.227 104.78 156.292 104.814C156.323 104.83 156.308 104.831 156.283 104.793C156.254 104.75 156.216 104.66 156.229 104.53L157.225 104.431L158.22 104.332C158.293 103.613 157.85 103.192 157.473 102.997C157.073 102.791 156.565 102.721 156.043 102.773L155.942 103.767Z" fill="#7500FF" mask="url(#path-49-inside-21_455_1448)"/>
<mask id="path-51-inside-22_455_1448" fill="white">
<ellipse cx="1.50484" cy="0.769897" rx="1.50484" ry="0.769897" transform="matrix(0.916764 -0.39943 0.0363087 0.999341 159.726 103.129)"/>
</mask>
<ellipse cx="1.50484" cy="0.769897" rx="1.50484" ry="0.769897" transform="matrix(0.916764 -0.39943 0.0363087 0.999341 159.726 103.129)" fill="#B4B4B4"/>
<path d="M162.513 102.696L161.596 103.096C161.59 102.922 161.652 102.777 161.685 102.714C161.715 102.66 161.725 102.662 161.679 102.709C161.585 102.804 161.391 102.951 161.125 103.068L161.161 104.067L161.197 105.066C161.693 104.85 162.183 104.525 162.578 104.124C162.926 103.772 163.458 103.08 163.429 102.297L162.513 102.696ZM161.161 104.067L161.125 103.068C160.858 103.184 160.66 103.207 160.563 103.195C160.514 103.189 160.524 103.179 160.556 103.206C160.594 103.238 160.664 103.326 160.67 103.499L159.754 103.899L158.837 104.298C158.865 105.081 159.43 105.295 159.792 105.338C160.204 105.387 160.702 105.282 161.197 105.066L161.161 104.067ZM159.754 103.899L160.67 103.499C160.677 103.673 160.615 103.818 160.581 103.881C160.552 103.935 160.541 103.933 160.588 103.886C160.681 103.791 160.875 103.644 161.141 103.527L161.105 102.528L161.069 101.529C160.573 101.745 160.084 102.07 159.688 102.471C159.34 102.823 158.808 103.515 158.837 104.298L159.754 103.899ZM161.105 102.528L161.141 103.527C161.408 103.411 161.606 103.388 161.704 103.4C161.752 103.406 161.742 103.416 161.71 103.389C161.673 103.357 161.602 103.269 161.596 103.096L162.513 102.696L163.429 102.297C163.401 101.514 162.836 101.3 162.474 101.257C162.062 101.208 161.564 101.313 161.069 101.529L161.105 102.528Z" fill="#7500FF" mask="url(#path-51-inside-22_455_1448)"/>
<mask id="path-53-inside-23_455_1448" fill="white">
<ellipse cx="1.68828" cy="0.717133" rx="1.68828" ry="0.717133" transform="matrix(0.78835 -0.615227 0.189332 0.981913 163.854 100.3)"/>
</mask>
<ellipse cx="1.68828" cy="0.717133" rx="1.68828" ry="0.717133" transform="matrix(0.78835 -0.615227 0.189332 0.981913 163.854 100.3)" fill="#B4B4B4"/>
<path d="M166.652 98.927L165.864 99.5422C165.818 99.3042 165.885 99.088 165.908 99.0258C165.929 98.9701 165.932 98.9841 165.876 99.0659C165.766 99.2255 165.555 99.4633 165.268 99.6879L165.457 100.67L165.646 101.652C166.094 101.303 166.518 100.864 166.841 100.392C167.001 100.159 167.17 99.8689 167.293 99.5396C167.418 99.2038 167.524 98.7442 167.441 98.3118L166.652 98.927ZM165.457 100.67L165.268 99.6879C164.98 99.9125 164.744 100.023 164.61 100.054C164.541 100.069 164.539 100.055 164.573 100.068C164.611 100.082 164.733 100.151 164.779 100.389L163.99 101.004L163.202 101.62C163.285 102.052 163.517 102.248 163.723 102.326C163.924 102.402 164.146 102.387 164.342 102.342C164.739 102.252 165.199 102.001 165.646 101.652L165.457 100.67ZM163.99 101.004L164.779 100.389C164.825 100.627 164.757 100.843 164.734 100.905C164.713 100.961 164.71 100.947 164.767 100.865C164.876 100.706 165.087 100.468 165.375 100.243L165.185 99.2615L164.996 98.2796C164.549 98.6287 164.125 99.0678 163.802 99.539C163.641 99.7726 163.473 100.062 163.35 100.392C163.224 100.728 163.119 101.187 163.202 101.62L163.99 101.004ZM165.185 99.2615L165.375 100.243C165.663 100.019 165.898 99.9082 166.032 99.8776C166.101 99.8619 166.104 99.8762 166.07 99.8633C166.032 99.8489 165.91 99.7802 165.864 99.5422L166.652 98.927L167.441 98.3118C167.357 97.8793 167.125 97.6835 166.92 97.6057C166.719 97.5294 166.497 97.5442 166.3 97.589C165.904 97.6794 165.443 97.9305 164.996 98.2796L165.185 99.2615Z" fill="#7500FF" mask="url(#path-53-inside-23_455_1448)"/>
<mask id="mask0_455_1448" style="mask-type:alpha" maskUnits="userSpaceOnUse" x="61" y="19" width="114" height="79">
<ellipse cx="117.91" cy="62.8738" rx="57.7269" ry="33.5084" transform="rotate(12.4863 117.91 62.8738)" fill="#5C5A5A"/>
<ellipse cx="119.841" cy="54.1498" rx="48.2716" ry="33.5084" transform="rotate(12.4863 119.841 54.1498)" fill="#2F2B2B"/>
</mask>
<g mask="url(#mask0_455_1448)">
<g filter="url(#filter0_d_455_1448)">
<path d="M93.377 61.5216C93.2467 61.4529 93.0849 61.3986 92.9234 61.379L92.9215 61.3784C92.5667 61.3348 92.0932 61.4493 91.435 61.7615C88.9587 62.9361 86.9759 65.1703 85.351 67.7531L85.3507 67.754C85.2854 67.8576 85.1255 68.123 84.9035 68.3618L84.9022 68.3624C84.812 68.4593 84.7252 68.5382 84.6672 68.5896C84.5853 68.6622 84.585 68.6607 84.5443 68.6978L84.5424 68.7002C84.2179 68.9943 84.0359 69.4779 84.0699 69.9184L84.0982 70.1037C84.1058 70.1368 84.1153 70.1725 84.1322 70.2373C84.1471 70.2942 84.1685 70.3782 84.1884 70.4672C84.228 70.6449 84.2775 70.9142 84.2611 71.2293C84.2459 71.5244 84.1778 71.7747 84.1193 71.9532C84.0797 72.0742 84.0278 72.2044 83.9942 72.2897C84.0151 72.3272 84.0385 72.368 84.0587 72.407C84.1158 72.5167 84.1882 72.6706 84.2464 72.8559L84.2474 72.8562C84.4424 73.4777 84.3401 74.0834 84.3121 74.2946C84.3012 74.3773 84.2963 74.4371 84.2922 74.4786C84.3019 74.4911 84.3114 74.5067 84.3243 74.5228C84.3652 74.5734 84.4761 74.7066 84.5601 74.817C84.6557 74.9427 84.7757 75.1131 84.8816 75.3215L84.8822 75.3228C84.9486 75.4537 84.9966 75.5754 85.0309 75.6673C85.0586 75.7419 85.0955 75.8446 85.1083 75.881C85.1378 75.901 85.1708 75.9232 85.2184 75.9542C85.71 76.2728 86.202 76.5913 86.6946 76.9101L88.1751 77.8686C88.4245 78.0293 88.4996 78.0698 88.552 78.0879C88.5884 78.1005 88.6921 78.1237 88.9383 78.0648C89.1972 78.0029 89.4922 77.882 89.8797 77.7055L89.8801 77.7046L90.3874 77.4634C90.5349 77.3873 90.6622 77.3128 90.775 77.2353C90.9865 77.0901 91.0678 76.9823 91.1031 76.9114C91.1399 76.8352 91.1095 76.8935 91.1858 76.7285C91.2312 76.6303 91.3093 76.4687 91.4287 76.2986L91.43 76.298C91.727 75.8757 92.1073 75.6391 92.3135 75.5183C92.3897 75.4736 92.5482 75.3859 92.5719 75.3724C92.6017 75.3554 92.6225 75.3426 92.6374 75.3332C92.6448 75.3286 92.6501 75.3254 92.6534 75.3232C92.655 75.322 92.6725 75.3089 92.7105 75.2697C92.7512 75.2278 92.7961 75.1777 92.8683 75.0943L92.869 75.0924L94.5212 73.1897C95.084 72.5404 95.311 72.2081 95.3624 71.9103C95.3727 71.8492 95.3803 71.7613 95.3852 71.6116C95.3888 71.5002 95.3922 71.2569 95.4031 71.0698C95.4266 70.6652 95.4982 69.9893 95.9488 69.365L95.9497 69.3653C96.0081 69.2842 96.0646 69.2157 96.1079 69.1652C95.9958 67.9164 96.1897 67.1879 96.3324 66.6474C96.3974 66.401 96.4135 66.3164 96.4172 66.234C96.42 66.1692 96.4169 66.0423 96.3402 65.7883L96.339 65.7858C96.245 65.4728 96.2317 65.1716 96.227 64.9999C96.2244 64.9054 96.2246 64.8083 96.2242 64.7357C96.2238 64.6563 96.2235 64.5932 96.2215 64.5335C96.2171 64.4054 96.2064 64.3424 96.2013 64.3191C95.5168 63.3247 95.2789 62.918 94.8038 62.6865L94.801 62.6856C94.2435 62.4125 93.8151 62.0107 93.4968 61.5817L93.4953 61.5832C93.5265 61.6254 93.5385 61.6298 93.5098 61.6068C93.4843 61.5865 93.4402 61.555 93.377 61.5216Z" fill="white" stroke="#7500FF" stroke-width="3"/>
<path d="M136.204 75.8383L136.204 75.838C135.647 75.6409 135.176 75.4955 134.759 75.4451C134.713 75.4396 134.669 75.4356 134.628 75.4326L134.442 77.3695L133.056 76.1105C132.993 76.1643 132.926 76.2194 132.858 76.2781L132.858 76.279C132.694 76.4198 132.598 76.5051 132.525 76.5847C132.458 76.6569 132.451 76.6809 132.458 76.6658L132.455 76.672C132.454 76.673 132.453 76.6758 132.452 76.6803C132.449 76.6882 132.445 76.6983 132.438 76.7149C132.428 76.7412 132.406 76.8006 132.381 76.8602C132.331 76.9805 132.232 77.2001 132.051 77.4218C131.837 77.6837 131.598 77.8418 131.443 77.9317C131.365 77.9773 131.293 78.014 131.245 78.0377L131.145 78.0875C130.974 78.1752 130.798 78.3189 130.467 78.6101C130.405 78.6642 130.288 78.8091 130.119 79.1141C129.941 79.4365 129.836 79.6804 129.639 80.0697C129.636 80.0889 129.624 80.1588 129.622 80.3166C129.621 80.3772 129.621 80.4424 129.621 80.5197C129.622 80.5923 129.623 80.6818 129.623 80.7699C129.622 80.9455 129.616 81.1736 129.583 81.4147L129.584 81.415C129.451 82.4025 129.22 83.2757 129.046 84.0099C128.866 84.7653 128.73 85.4321 128.7 86.1844C128.697 86.2503 128.695 86.2978 128.695 86.3406C128.695 86.3581 128.696 86.3729 128.696 86.3853C128.703 86.3973 128.712 86.4117 128.722 86.4285C128.774 86.5127 128.912 86.7295 129.012 86.9952C129.151 87.3661 129.177 87.7136 129.175 87.9784C129.172 88.2291 129.141 88.4734 129.125 88.6052C129.115 88.6855 129.113 88.7414 129.11 88.7816C129.124 88.8003 129.143 88.8276 129.174 88.8708C129.286 89.0272 129.566 89.4196 129.639 89.9701L129.64 89.9723C129.682 90.2922 129.642 90.5667 129.603 90.7511C129.602 90.7536 129.602 90.7564 129.601 90.7588C129.631 90.7881 129.661 90.8194 129.691 90.8518C129.832 91.0054 129.999 91.2286 130.113 91.5283L130.158 91.6574C130.216 91.849 130.237 92.0249 130.244 92.166C130.3 92.1951 130.36 92.2272 130.432 92.259C130.589 92.3295 130.851 92.4361 131.152 92.5943L131.466 92.7699C131.561 92.8275 131.645 92.8924 131.676 92.9159C131.722 92.9516 131.772 92.9908 131.818 93.0281C131.91 93.1028 132.018 93.1932 132.115 93.2744C132.217 93.3595 132.308 93.4361 132.381 93.4956C132.41 93.519 132.432 93.5356 132.447 93.5473C132.531 93.5989 132.6 93.6423 132.657 93.6797C132.737 93.7323 132.755 93.7454 132.788 93.7665L132.958 93.8491C133.218 93.9575 133.514 94.0372 133.877 94.1086L133.878 94.1089C133.939 94.1199 134.038 94.1069 134.135 94.0256L134.136 94.0247L134.517 93.6974C134.642 93.5855 134.766 93.4715 134.889 93.3545C134.942 93.3036 134.981 93.2639 135.013 93.2295C135.027 93.2148 135.038 93.202 135.047 93.1917C135.054 93.1518 135.063 93.0976 135.074 93.0441C135.107 92.8916 135.182 92.5906 135.395 92.2852L135.495 92.1546C135.745 91.8565 136.039 91.6971 136.226 91.6142C136.264 91.5005 136.329 91.3062 136.409 91.1284C136.513 90.896 136.686 90.5766 136.991 90.2919L136.995 90.2891C137.18 90.1174 137.374 89.9993 137.44 89.958L137.442 89.9568C137.449 89.9458 137.456 89.9333 137.465 89.9192L137.466 89.9186L137.713 89.5076C138.274 88.5396 138.725 87.5077 139.055 86.4377L139.055 86.4358C139.07 86.3894 139.08 86.3546 139.088 86.3244C139.093 86.3082 139.096 86.2952 139.099 86.2848C139.095 86.2644 139.086 86.2363 139.078 86.197C139.055 86.0868 138.995 85.818 138.999 85.5113L139 85.5103C139.003 85.2317 139.056 84.9927 139.106 84.8156C139.154 84.6487 139.214 84.4877 139.243 84.4087C139.246 84.3983 139.25 84.3884 139.253 84.3793C139.249 84.37 139.245 84.36 139.241 84.3492C139.185 84.2124 138.994 83.784 138.989 83.2711L138.989 83.2641C138.987 82.9389 139.057 82.6647 139.115 82.478C139.141 82.3971 139.175 82.3125 139.203 82.2391C139.095 82.0468 138.947 81.7246 138.924 81.324L138.925 81.3234C138.904 80.95 138.996 80.6496 139.044 80.5059C139.051 80.4846 139.06 80.4622 139.068 80.4408C139.041 80.3854 138.992 80.2949 138.909 80.1587C138.806 79.9908 138.605 79.6797 138.454 79.3695C138.298 79.0516 138.136 78.6201 138.112 78.1048C138.105 78.0992 138.098 78.0937 138.09 78.0879C137.984 78.0024 137.823 77.8666 137.669 77.6828L137.667 77.68C137.317 77.2612 137.176 76.7973 137.108 76.5691C137.06 76.4087 137.052 76.372 137.023 76.2796C137.011 76.2421 137.003 76.2206 136.998 76.2102C136.987 76.1981 136.953 76.1673 136.875 76.1211C136.724 76.0322 136.519 75.9493 136.204 75.8383Z" fill="white" stroke="#7500FF" stroke-width="3"/>
<path d="M122.716 53.8325C118.495 51.7603 113.399 51.5976 108.578 52.9981C103.754 54.3996 99.2203 57.2858 95.2501 60.9364L95.2491 60.9361C94.6941 61.446 94.4583 61.7478 94.3817 61.998C94.4728 61.9921 94.5646 61.9887 94.6573 61.9892C94.8486 61.7334 95.1907 61.3011 95.6919 60.882L95.6931 60.8814L95.8177 60.7862C95.9401 60.7009 96.0542 60.643 96.1381 60.6051C96.2554 60.5522 96.3653 60.5147 96.4493 60.4889C96.605 60.4411 96.7802 60.4015 96.8619 60.382C97.0548 60.2027 97.2492 60.058 97.41 59.9474L97.6143 59.8108C97.9516 59.5866 98.2891 59.3629 98.6258 59.1393C98.9635 58.915 99.3013 58.6906 99.6388 58.4663L101.184 57.4513C101.71 57.1133 102.247 56.7796 102.794 56.4627L103.363 56.1408C104.508 55.5092 105.687 54.9531 106.891 54.4779L107.495 54.2474C107.909 54.0941 108.539 53.8647 109.239 53.8358L109.24 53.8361C109.7 53.8176 110.115 53.8883 110.407 53.9429C110.745 54.0062 110.905 54.0427 111.087 54.0588L111.09 54.0588C111.338 54.0813 111.623 54.0581 112.056 54.0062C112.44 53.9601 112.995 53.8826 113.554 53.8944L113.555 53.8947C114.422 53.9126 115.229 54.1381 115.823 54.2993C116.889 54.5886 117.716 54.758 118.588 54.9368C119.245 55.0715 119.925 55.2113 120.722 55.4094L121.561 55.6288C122.121 55.7822 122.692 56.0766 123.165 56.3771C123.644 56.682 124.13 57.0618 124.499 57.4582L124.5 57.4586C124.564 57.5279 124.682 57.6307 124.894 57.8109C124.985 57.8882 125.095 57.9812 125.196 58.0724C125.293 58.1591 125.418 58.2776 125.533 58.4098C126.415 59.4258 126.37 59.4441 126.978 59.9971L127.002 60.0196C127.305 60.3071 127.608 60.5941 127.91 60.8811C128.212 61.1683 128.514 61.4554 128.816 61.7416L128.831 61.7563L128.847 61.7722C129.41 62.3382 130.405 63.1857 131.09 64.1589C131.702 65.0274 132.101 66.0086 132.427 66.8077C133.291 68.9251 134.18 71.1876 134.675 73.6214L134.675 73.6226C134.961 75.029 135.058 76.0077 135.47 76.9164C135.652 77.3169 135.871 77.5983 136.085 77.7856C136.54 76.7698 136.704 75.5407 136.59 74.3176C136.44 72.6969 135.864 71.1393 135.165 69.474C132.352 62.7856 128.478 56.6615 122.716 53.8325ZM93.1307 62.2707C93.1203 62.2737 93.1147 62.2754 93.1146 62.2755L93.1155 62.2758C93.1212 62.2736 93.1272 62.2726 93.1329 62.2705L93.1307 62.2707Z" fill="white" stroke="#7500FF" stroke-width="3"/>
<path d="M128.57 97.8267C129.42 101.53 127.599 104.623 127.319 105.341C126.44 107.592 126.042 107.568 125.07 109.856C123.164 114.338 123.676 116.52 122.566 119.382C120.294 125.239 106.081 130.732 102.631 127.192C100.841 125.357 104.398 123.753 101.86 121.565C100.903 120.74 101.58 120.124 97.6921 119.576C93.9232 119.045 91.2099 120.679 90.8161 119.901C88.6989 115.725 97.024 95.8944 103.264 93.2015C108.648 90.8789 110.083 95.1791 115.554 93.7185C117.152 93.2913 120.108 91.0165 122.356 91.12C126.714 91.3186 127.738 94.2044 128.571 97.8273L128.57 97.8267Z" fill="#EDD7D7"/>
<path d="M82.6878 88.7662C80.303 91.8219 80.6242 95.3454 80.5682 96.1064C80.3924 98.4995 80.7675 98.629 80.6618 101.092C80.4572 105.914 79.0418 107.711 78.8131 110.749C78.3445 116.968 88.9392 127.423 93.6268 125.512C96.0575 124.521 93.5056 121.694 96.7725 120.667C98.0053 120.28 97.6554 119.46 101.442 120.447C105.114 121.404 106.883 123.934 107.58 123.376C111.326 120.373 112.334 99.0782 107.803 94.2309C103.896 90.0489 100.718 93.4264 96.3552 89.9986C95.0804 88.9973 93.3692 85.789 91.2731 85.0213C87.2075 83.5341 85.0193 85.7778 82.686 88.7668L82.6878 88.7662Z" fill="#EDD7D7"/>
<path d="M124.151 113.834C121.978 113.47 117.308 113.924 112.33 113.173C101.759 111.579 91.0231 108.258 80.8184 103.425" stroke="#B7A293" stroke-width="12" stroke-miterlimit="10"/>
<path d="M116.757 91.0715C115.151 91.9142 113.366 92.3281 111.574 92.4173C109.602 92.516 107.637 92.2218 105.735 91.7576C104.591 91.4775 103.463 91.1359 102.342 90.7772C102.101 90.6996 102.193 90.3093 102.436 90.3875C106.057 91.5452 109.936 92.5749 113.778 91.7307C114.74 91.5188 115.677 91.1938 116.553 90.7339C116.781 90.6141 116.986 90.9523 116.757 91.0727L116.757 91.0715Z" fill="#EDD7D7"/>
<path d="M116.042 91.307C115.121 92.2036 113.782 92.3288 112.574 92.2956C111.098 92.2545 109.625 92.0812 108.177 91.8222C105.226 91.2945 102.365 90.3889 99.5619 89.3626C97.9836 88.7843 96.4195 88.1664 94.8579 87.5468L95.051 87.1939C97.8411 88.7155 100.813 89.9023 103.893 90.7201C104.769 90.9523 105.654 91.1543 106.544 91.3272C106.795 91.3765 106.701 91.7656 106.451 91.717C103.285 91.1015 100.2 90.108 97.2805 88.7633C96.4589 88.3853 95.6517 87.9784 94.8579 87.5468C94.6287 87.4224 94.8204 87.1023 95.051 87.1939C97.7639 88.2694 100.482 89.3432 103.279 90.2003C106.075 91.0574 108.888 91.6861 111.79 91.8619C113.1 91.9403 114.724 92.0396 115.757 91.0343C115.943 90.8539 116.228 91.1267 116.041 91.3082L116.042 91.307Z" fill="#EDD7D7"/>
<path d="M110.448 92.994C107.862 92.3377 105.276 91.6803 102.688 91.0234C100.101 90.3665 97.5371 89.7149 94.9613 89.0612C93.5036 88.6906 92.0454 88.3211 90.5866 87.9498L90.6797 87.5601C92.7736 88.2551 94.8686 88.9507 96.9618 89.6468C97.5554 89.8433 98.1495 90.0416 98.7431 90.2381C98.9831 90.3181 98.8912 90.7085 98.65 90.6279C96.5561 89.9329 94.4611 89.2373 92.3678 88.5411C91.7743 88.3446 91.1802 88.1463 90.5866 87.9498C90.3489 87.8711 90.4283 87.4954 90.6797 87.5601C93.2661 88.2164 95.8519 88.8739 98.4395 89.5308C101.015 90.1844 103.591 90.8393 106.167 91.4929C107.624 91.8636 109.082 92.233 110.541 92.6043C110.789 92.6672 110.696 93.0569 110.448 92.994Z" fill="#EDD7D7"/>
<path d="M115.793 91.82C114.374 91.5628 112.905 91.7094 111.469 91.7872C109.926 91.8696 108.384 91.9526 106.841 92.035C105.959 92.0826 105.078 92.129 104.196 92.1766L104.187 91.7779C107.433 92.0135 110.685 92.1777 113.94 92.2705C114.867 92.2972 115.795 92.3167 116.722 92.3333C116.978 92.338 116.988 92.7361 116.731 92.7319C113.474 92.679 110.219 92.5558 106.97 92.3613C106.044 92.3061 105.12 92.2443 104.195 92.1777C103.945 92.1595 103.924 91.7933 104.187 91.7791C105.752 91.6949 107.317 91.6118 108.881 91.5269C110.414 91.4448 111.947 91.3342 113.48 91.2891C114.286 91.2648 115.094 91.287 115.886 91.4303C116.138 91.4754 116.043 91.8656 115.793 91.82Z" fill="#EDD7D7"/>
<path d="M119.712 93.221C116.584 91.7786 113.299 90.728 109.906 90.0699L110.383 88.832C113.151 90.6502 116.109 92.1476 119.067 93.6343L118.423 94.8106C114.532 92.7188 110.437 91.0421 106.182 89.8108L106.659 88.5729C110.047 90.5335 113.51 92.3593 117.045 94.0457L116.401 95.222C112.95 93.3446 109.35 91.7526 105.624 90.4793L106.244 89.3454C108.136 90.8796 110.027 92.4138 111.919 93.948C112.51 94.4279 111.775 95.3448 111.132 95.0203C107.168 93.0197 103.349 90.7521 99.6995 88.2299C99.0098 87.7536 99.6458 86.5718 100.343 87.0536C103.992 89.5758 107.811 91.8434 111.776 93.844L110.99 94.9164C109.098 93.3822 107.207 91.848 105.315 90.3138C104.826 89.916 105.324 88.9704 105.936 89.1798C109.773 90.4914 113.488 92.1117 117.043 94.0463C117.79 94.453 117.162 95.5873 116.399 95.2226C112.865 93.535 109.402 91.7103 106.014 89.7498C105.396 89.3925 105.749 88.2965 106.492 88.5119C110.857 89.7749 115.072 91.4883 119.065 93.6349C119.814 94.0362 119.179 95.1913 118.421 94.8112C115.464 93.3245 112.507 91.8277 109.738 90.0088C109.134 89.612 109.45 88.6223 110.216 88.7709C113.722 89.4502 117.122 90.5546 120.353 92.0452C121.124 92.4006 120.478 93.5757 119.71 93.2215L119.712 93.221Z" fill="#EDD7D7"/>
<path d="M98.7901 87.7103C101.663 89.4571 104.537 91.2045 107.409 92.9513L106.623 94.0237C104.164 91.7212 101.488 89.68 98.6119 87.9236C98.9095 87.6101 99.2066 87.2977 99.5042 86.9841C100.817 88.8743 102.19 90.7211 103.632 92.5148C104.146 93.1537 103.333 94.0903 102.703 93.4832C99.9943 90.8796 97.4843 88.0859 95.164 85.1291L96.3726 84.5828C97.0526 86.998 98.1909 89.2557 99.7586 91.2005C99.4138 91.4797 99.0684 91.757 98.7235 92.0361C97.5962 90.0794 96.4682 88.1238 95.3408 86.1671L96.4824 85.4662C97.5985 87.5477 98.8892 89.5297 100.363 91.3711C99.9875 91.5423 99.6116 91.7135 99.2352 91.8829C99.1216 90.4057 98.5076 89.0528 97.4855 88.0013C97.8303 87.7222 98.1757 87.4449 98.5206 87.1658C99.6875 89.0007 101.157 90.5901 102.633 92.1726L101.598 93.0081C99.8368 90.4347 97.8667 88.0262 95.6969 85.7905C96.0645 85.5632 96.4315 85.337 96.7991 85.1096C97.0785 86.7776 97.4991 88.4072 98.0597 89.9977L96.784 90.3894C96.2074 88.7431 95.6308 87.0969 95.0554 85.4512L96.3386 85.3997C96.0725 86.8027 96.0253 88.2089 96.172 89.6202L94.8452 89.6772C94.8636 88.3483 94.882 87.0195 94.8997 85.6918C94.9098 84.9214 95.9476 84.7642 96.201 85.4674C96.9221 87.4696 97.8026 89.3974 98.8358 91.252C99.2467 91.991 98.126 92.6894 97.6942 91.9529C96.4712 89.8718 95.4944 87.6535 94.7787 85.3394L96.08 85.1151C96.1158 86.7757 96.2762 88.4225 96.5794 90.05L95.2962 90.1015C95.7467 88.6605 95.8605 87.1682 95.5763 85.6955L96.8595 85.644C96.5132 86.6997 96.1674 87.7542 95.8211 88.8099C95.5545 89.6238 94.3695 89.375 94.5309 88.5229C94.8128 87.028 94.9335 85.5258 94.9004 84.0112L96.1444 84.2947C95.4837 85.8208 94.9319 87.3809 94.4801 88.9779C94.0502 88.8829 93.6198 88.786 93.1899 88.6909C93.6655 87.2178 94.1401 85.744 94.6157 84.2708L95.8412 84.7254C95.1956 85.8535 94.5506 86.9803 93.9061 88.1089C93.5362 88.7549 92.4887 88.4002 92.6806 87.6543C93.0148 86.3547 93.504 85.1064 94.1455 83.9229L95.3063 84.5452C94.6786 85.4896 94.0104 86.4062 93.3037 87.2946C92.8385 87.8789 91.8146 87.149 92.2494 86.5271C92.9401 85.5389 93.5561 84.5091 94.1015 83.4353L95.1558 84.2029C94.4224 85.1758 93.6249 86.0901 92.7609 86.9504C92.2434 87.4655 91.2896 86.8462 91.7066 86.1829C92.247 85.324 92.7863 84.4645 93.3267 83.6057L94.381 84.3732C93.5982 85.1401 92.8153 85.907 92.0324 86.674C91.4174 87.2768 90.4646 86.3675 91.0846 85.7612C91.8674 84.9943 92.6503 84.2274 93.4332 83.4604C93.9516 82.9519 94.9058 83.5622 94.4875 84.228C93.9471 85.0868 93.4078 85.9463 92.8674 86.8051L91.8131 86.0376C92.6771 85.1773 93.4739 84.2642 94.2079 83.2901C94.6778 82.6672 95.5907 83.4107 95.2623 84.0576C94.7169 85.1313 94.0998 86.1605 93.4102 87.1494L92.3559 86.3818C92.9874 85.587 93.5836 84.7688 94.1455 83.9229C94.6154 83.2149 95.7237 83.774 95.3063 84.5452C94.7196 85.6287 94.2766 86.7512 93.9708 87.9413L92.7453 87.4866C93.3909 86.3586 94.0359 85.2318 94.6804 84.1032C95.0426 83.4713 96.1452 83.8159 95.9059 84.5578C95.4303 86.031 94.9558 87.5048 94.4801 88.9779C94.2184 89.7884 92.9538 89.5258 93.1899 88.6909C93.6738 86.9803 94.2755 85.307 94.9836 83.6724C95.2567 83.0415 96.2137 83.3339 96.2277 83.956C96.2625 85.5826 96.1248 87.2065 95.8216 88.8117L94.5314 88.5247C94.8777 87.469 95.2234 86.4145 95.5698 85.3588C95.7572 84.7884 96.7158 84.5949 96.853 85.3074C97.1799 87.0039 97.1075 88.7251 96.5868 90.3932C96.4068 90.9691 95.4344 91.1522 95.3036 90.4447C94.9802 88.7059 94.7911 86.9495 94.7531 85.1751C94.7366 84.4147 95.8324 84.2339 96.0543 84.9507C96.7381 87.1611 97.6675 89.2657 98.8363 91.2538L97.6947 91.9546C96.6081 90.003 95.6847 87.967 94.9258 85.8609L96.227 85.6366C96.2086 86.9654 96.1902 88.2943 96.1725 89.622C96.1607 90.4888 94.9329 90.5213 94.8457 89.679C94.6872 88.1549 94.7626 86.6284 95.05 85.1152C95.1822 84.4208 96.1284 84.4778 96.3332 85.0637C96.9098 86.71 97.4864 88.3563 98.0619 90.0019C98.3435 90.8071 97.0675 91.194 96.7862 90.3936C96.2268 88.8037 95.8068 87.173 95.5256 85.5055C95.4251 84.907 96.1267 84.308 96.6277 84.8245C98.8737 87.1405 100.917 89.6448 102.74 92.309C103.159 92.9214 102.216 93.6905 101.705 93.1446C100.152 91.48 98.6077 89.8001 97.38 87.8702C96.9833 87.2453 97.8912 86.4968 98.4151 87.0347C99.6824 88.3378 100.423 90.0003 100.563 91.8295C100.604 92.367 99.7984 92.7964 99.4348 92.3413C97.8868 90.4071 96.5147 88.3571 95.3425 86.1695C94.9431 85.426 96.0578 84.7275 96.4841 85.4686C97.6114 87.4253 98.7394 89.3809 99.8668 91.3376C100.223 91.9563 99.3167 92.774 98.8317 92.1732C97.1157 90.0439 95.844 87.6264 95.098 84.9781C94.8803 84.2043 95.8691 83.8733 96.3066 84.4318C98.5547 87.2982 101.009 89.9954 103.633 92.5184L102.704 93.4868C101.192 91.6052 99.7427 89.6738 98.3636 87.6886C97.9945 87.156 98.708 86.4143 99.2559 86.7491C102.231 88.5644 105.011 90.6753 107.553 93.0559C108.084 93.5535 107.412 94.5212 106.767 94.1282C103.894 92.3814 101.02 90.634 98.1478 88.8873C97.4267 88.449 98.0656 87.2702 98.7913 87.711L98.7901 87.7103Z" fill="#EDD7D7"/>
<path d="M111.713 93.4943C109.026 93.2193 106.379 92.6777 103.815 91.8528C102.61 91.4654 101.451 90.9277 100.239 90.5716C99.1796 90.2608 97.7403 90.186 97.1488 91.3521C96.8793 91.8831 96.0935 91.7692 95.9296 91.2371C95.7658 90.7051 95.665 90.1567 95.6128 89.5962C96.0492 89.6355 96.4852 89.6729 96.9216 89.7121C96.5921 90.9153 96.3917 92.3656 97.2954 93.3536C98.1736 94.3142 99.3391 93.8604 100.27 93.2095C101.911 92.0627 103.827 90.0533 105.954 91.2755C106.687 91.6974 106.057 92.8585 105.31 92.4518C104.824 92.1881 104.371 92.105 103.816 92.159L104.266 91.0098C106.757 93.0842 110.32 92.8494 113.387 92.6282L113.245 93.9429C112.63 93.7715 112.014 93.5995 111.4 93.4282L111.877 92.1903C113.737 93.2068 115.823 93.5633 117.942 93.2584L117.492 94.4075C116.046 93.1867 114.392 92.2422 112.595 91.6303L113.072 90.3924C114.588 91.083 115.996 91.9367 117.327 92.9304C117.878 93.3415 117.292 94.182 116.707 94.0643C114.644 93.6535 112.623 93.0889 110.65 92.3723L111.128 91.1344C112.362 91.9954 113.596 92.8564 114.831 93.7174L114.045 94.7897C111.987 93.1784 109.75 91.8215 107.38 90.7134L108.34 89.9291C108.654 91.0042 109.401 91.7497 110.439 92.1387L109.478 92.923C109.221 92.1738 108.737 91.5945 108.053 91.2024C107.44 90.8506 107.798 89.7148 108.531 89.9645C109.752 90.3803 110.974 90.795 112.195 91.2108L111.469 92.2118C110.906 91.5009 110.229 90.8886 109.473 90.3906C108.766 89.9246 109.333 88.8776 110.117 89.2143C111.262 89.7052 112.407 90.1973 113.552 90.6875L112.766 91.7599C112.161 91.3142 111.557 90.8685 110.954 90.4235C110.32 89.9563 111.106 89.0768 111.74 89.3511C114.763 90.6612 117.786 91.9714 120.809 93.2815L120.022 94.3538C118.186 92.6774 116.197 91.1975 114.06 89.9226C113.326 89.4847 113.931 88.4093 114.704 88.7464C117.088 89.7839 119.472 90.8214 121.857 91.8596L121.213 93.0359C119.338 92.0732 117.503 91.0393 115.709 89.9362C114.99 89.4944 115.629 88.3156 116.353 88.7599C118.147 89.8631 119.981 90.8969 121.857 91.8596C122.62 92.2518 121.981 93.3698 121.213 93.0359C118.829 91.9984 116.446 90.9608 114.06 89.9226L114.704 88.7464C116.939 90.08 119.03 91.6313 120.952 93.3854C121.527 93.9114 120.818 94.7408 120.165 94.4578C117.142 93.1476 114.119 91.8375 111.096 90.5274L111.883 89.455C112.487 89.9007 113.092 90.3464 113.695 90.7915C114.33 91.2599 113.54 92.1357 112.908 91.8638C111.763 91.3729 110.618 90.8808 109.473 90.3906L110.117 89.2143C111.084 89.8529 111.893 90.6029 112.611 91.511C112.953 91.9423 112.4 92.6865 111.884 92.512C110.663 92.0962 109.441 91.6816 108.22 91.2658L108.697 90.0279C109.691 90.5987 110.382 91.4466 110.754 92.5331C110.962 93.1388 110.28 93.4989 109.794 93.3173C108.45 92.8147 107.466 91.6969 107.063 90.3232C106.895 89.7494 107.519 89.3034 108.024 89.5389C110.503 90.6978 112.823 92.1388 114.974 93.8231C115.551 94.2753 114.797 95.321 114.188 94.8955C112.953 94.0345 111.719 93.1735 110.485 92.3125C109.939 91.9319 110.198 90.7973 110.962 91.0746C112.935 91.7912 114.956 92.3558 117.019 92.7666L116.399 93.9006C115.166 92.9795 113.832 92.2085 112.43 91.5693C111.764 91.2658 112.199 90.09 112.908 90.3315C114.942 91.0233 116.784 92.0567 118.421 93.4391C118.896 93.8395 118.489 94.5145 117.971 94.5883C115.637 94.9252 113.279 94.4856 111.234 93.3666C110.598 93.0184 110.977 91.9236 111.711 92.1287C112.326 92.3001 112.942 92.4721 113.557 92.6434C114.272 92.8427 114.183 93.9026 113.416 93.9582C109.936 94.2092 106.139 94.3141 103.335 91.9787C102.872 91.5935 103.256 90.8805 103.785 90.8296C104.556 90.7544 105.28 90.9098 105.953 91.2767L105.309 92.453C104.174 91.8003 102.864 92.8172 101.991 93.5296C101.058 94.2919 100.043 95.1112 98.8086 95.2418C97.5736 95.3724 96.3784 94.6373 95.7975 93.5395C95.1232 92.2667 95.2572 90.7869 95.6302 89.4245C95.8359 88.6753 96.8702 88.7962 96.939 89.5404C96.9798 89.9898 97.0728 90.4154 97.2042 90.8448L95.985 90.7298C96.5317 89.6537 97.6829 89.0751 98.8507 89.0288C100.302 88.9717 101.646 89.6857 102.969 90.1592C105.885 91.2055 108.931 91.8765 112.024 92.1931C112.872 92.2793 112.55 93.5779 111.713 93.4925L111.713 93.4943Z" fill="#EDD7D7"/>
<path d="M126.055 94.1674C123.09 92.225 119.872 90.7103 116.466 89.6861L117.087 88.5522C119.527 90.6195 122.967 90.8857 125.84 92.0977L125.054 93.1701C122.354 91.1021 119.222 89.6709 115.888 88.9367C115.056 88.7538 115.37 87.4537 116.2 87.6372C119.778 88.4247 123.09 89.9857 125.983 92.2016C126.613 92.6836 125.83 93.5417 125.197 93.274C122.17 91.9965 118.738 91.7073 116.158 89.5206C115.671 89.1092 116.16 88.1997 116.778 88.3866C120.296 89.4449 123.634 90.9833 126.697 92.9905C127.4 93.451 126.763 94.6322 126.054 94.1668L126.055 94.1674Z" fill="#EDD7D7"/>
<path d="M93.1129 86.3422C91.787 85.8763 90.398 85.7753 89.0127 86.1067C88.1623 86.311 87.8675 85.1733 88.647 84.8351C90.3827 84.08 92.2254 83.8264 94.0853 84.005L93.465 85.1389C93.1417 84.7557 92.492 84.9581 92.0469 85.0116C91.6018 85.0651 91.1206 85.1296 90.6565 85.1958C89.6604 85.3372 88.6681 85.499 87.678 85.6787C86.8393 85.8315 86.5057 84.7399 87.3123 84.4071C88.9479 83.7307 90.661 83.327 92.4143 83.1792L92.4452 84.5086C90.849 84.5338 89.3076 84.8515 87.8165 85.4502C87.0175 85.7719 86.6567 84.4968 87.4508 84.1786C89.0385 83.5404 90.7159 83.2074 92.4155 83.1798C93.2726 83.1662 93.2976 84.4377 92.4463 84.5092C90.8021 84.6471 89.2121 85.0452 87.6792 85.6793L87.3134 84.4077C88.5823 84.1767 89.8549 83.969 91.132 83.7971C92.1726 83.6566 93.6181 83.251 94.3941 84.1705C94.831 84.6892 94.4359 85.3674 93.7737 85.3045C92.1443 85.149 90.5228 85.4512 89.0139 86.1073L88.6482 84.8357C90.2494 84.4527 91.8856 84.5023 93.4268 85.044C94.2199 85.3231 93.9148 86.6245 93.1153 86.3434L93.1129 86.3422Z" fill="#EDD7D7"/>
<path d="M125.608 93.8975C125.659 93.231 124.839 92.7762 124.388 92.4222C123.661 91.851 122.924 91.2933 122.173 90.7525C120.715 89.7017 119.216 88.7107 117.684 87.7708C116.965 87.329 117.604 86.1503 118.327 86.5945C120.129 87.7003 121.881 88.8799 123.581 90.1334C124.381 90.7235 125.2 91.3129 125.954 91.961C126.51 92.4401 126.997 93.0581 126.936 93.8411C126.871 94.69 125.543 94.7524 125.609 93.8981L125.608 93.8975Z" fill="#EDD7D7"/>
<path d="M103.467 90.1585C103.707 89.5905 103.792 88.988 103.766 88.3794C103.729 87.5227 105.056 87.4687 105.093 88.3224C105.13 89.176 104.961 89.9904 104.628 90.7808C104.487 91.1146 104.016 91.2134 103.726 91.0578C103.384 90.8749 103.326 90.4935 103.467 90.1585Z" fill="#EDD7D7"/>
<path d="M101.782 89.9139C102.286 89.4598 102.598 88.8863 102.624 88.205C102.657 87.3511 103.984 87.2912 103.951 88.148C103.912 89.172 103.504 90.1292 102.731 90.8255C102.094 91.3998 101.139 90.4923 101.783 89.9127L101.782 89.9139Z" fill="#EDD7D7"/>
<path d="M108.266 89.6379C108.324 94.487 105.024 98.3846 103.65 102.863C102.907 105.287 102.559 107.8 102.238 110.301C101.91 112.86 101.551 115.407 101.018 117.937C100.396 120.886 99.6209 123.803 98.8472 126.719C98.4056 128.382 95.8234 127.809 96.2656 126.144C97.6015 121.114 98.8406 116.1 99.5028 110.943C99.8252 108.439 100.114 105.919 100.742 103.461C101.371 101.004 102.346 98.9358 103.416 96.7622C104.503 94.5533 105.643 92.2527 105.613 89.7507C105.593 88.0363 108.247 87.9241 108.267 89.6385L108.266 89.6379Z" fill="#B7A293"/>
<path d="M103.584 92.0021C103.956 90.6183 104.331 89.234 104.704 87.8501C104.928 87.0197 106.219 87.3056 105.994 88.1371L104.874 92.2891C104.649 93.1195 103.358 92.8337 103.584 92.0021Z" fill="#EDD7D7"/>
<path d="M125.219 91.6992C126.499 92.1694 127.836 92.6653 128.786 93.6829C129.737 94.7006 129.573 95.9183 129.352 97.2294C128.836 100.269 128.015 103.254 126.922 106.145C126.622 106.941 125.328 106.661 125.632 105.858C126.545 103.441 127.27 100.96 127.784 98.435C127.91 97.815 128.023 97.1928 128.123 96.568C128.207 96.0512 128.347 95.4619 128.096 94.9802C127.529 93.8928 125.982 93.3921 124.907 92.9987C124.121 92.7096 124.424 91.407 125.219 91.6992Z" fill="#EDD7D7"/>
<path d="M124.188 91.3599C125.193 91.6945 126.268 91.2958 127.303 91.4488C128.338 91.6019 129.289 92.1985 129.958 92.9923C131.405 94.7098 131.438 97.1035 130.769 99.191C130.507 100.007 129.215 99.724 129.479 98.904C130.042 97.1494 130.134 95.0415 128.761 93.6633C128.108 93.0074 127.303 92.6977 126.374 92.7412C125.526 92.7813 124.699 92.9325 123.877 92.6593C123.055 92.3861 123.383 91.0924 124.188 91.3599Z" fill="#EDD7D7"/>
<path d="M128.036 93.7341C126.087 92.9037 124.116 92.124 122.122 91.4033C121.333 91.119 121.637 89.8158 122.433 90.1039C124.539 90.8646 126.621 91.6808 128.68 92.5578C129.46 92.8908 128.811 94.0646 128.036 93.7341Z" fill="#EDD7D7"/>
<path d="M128.091 93.1066C125.788 92.5747 123.552 91.8157 121.402 90.8473C120.628 90.4996 121.274 89.3245 122.046 89.671C124.09 90.5906 126.214 91.2999 128.403 91.8059C129.232 91.9977 128.921 93.2972 128.092 93.1054L128.091 93.1066Z" fill="#EDD7D7"/>
<path d="M128.173 93.2735C125.937 92.2423 123.415 92.0782 121.404 90.5621C120.73 90.0535 121.662 89.0881 122.333 89.5937C124.196 91.0004 126.728 91.1343 128.816 92.0972C129.587 92.4526 128.941 93.6277 128.173 93.2735Z" fill="#EDD7D7"/>
<path d="M128.985 94.4546C127.75 93.2934 126.356 92.409 124.812 91.7107C123.295 91.0242 121.729 90.451 120.316 89.5626C119.603 89.1132 120.242 87.9345 120.96 88.3863C122.445 89.321 124.1 89.9041 125.688 90.641C127.276 91.3779 128.664 92.3109 129.914 93.4861C130.531 94.0661 129.604 95.0358 128.985 94.4546Z" fill="#EDD7D7"/>
<path d="M92.1199 85.0551C91.2484 84.8343 90.3762 84.6147 89.5034 84.3934C88.6795 84.1844 88.9899 82.8843 89.815 83.0939C90.6866 83.3147 91.5588 83.5342 92.4315 83.7556C93.2555 83.9646 92.9451 85.2647 92.1199 85.0551Z" fill="#EDD7D7"/>
<path d="M127.73 93.5217C125.717 91.6804 123.41 90.2384 120.879 89.21C120.094 88.8912 120.742 87.7174 121.522 88.0337C124.159 89.1033 126.565 90.6362 128.66 92.5521C129.285 93.1227 128.357 94.0936 127.731 93.5205L127.73 93.5217Z" fill="#EDD7D7"/>
<path d="M124.881 92.8933C124.557 94.0352 123.624 94.7778 123.113 95.8214C122.541 96.9904 122.26 98.3412 121.888 99.5827C121.527 100.789 121.143 101.99 120.81 103.203C120.541 104.18 120.351 105.166 120.712 106.134C121.009 106.932 119.732 107.32 119.436 106.526C118.642 104.393 119.83 101.863 120.446 99.8032C120.842 98.4789 121.181 97.1181 121.685 95.8272C121.911 95.2458 122.193 94.7151 122.567 94.2127C122.94 93.7104 123.414 93.2353 123.592 92.6051C123.826 91.7785 125.118 92.0632 124.882 92.8921L124.881 92.8933Z" fill="#EDD7D7"/>
<path d="M92.4105 85.6281C91.2314 85.5361 90.201 85.1115 89.3502 84.2903C88.9276 83.8828 89.2407 83.1926 89.8003 83.1411C90.5232 83.0738 91.151 83.3039 91.6948 83.7642C92.2386 84.2246 91.5212 85.267 90.9084 84.8366C90.2109 84.3471 89.2173 82.8484 88.2621 83.4089C87.2113 84.0261 86.2908 85.2258 85.5461 86.1699C84.7211 87.2169 84.0195 88.3621 83.441 89.5595C82.9458 90.5826 82.3015 91.8482 82.5755 93.0021C82.7724 93.8303 81.4978 94.2256 81.2998 93.3938C80.9598 91.9626 81.5246 90.5707 82.1224 89.2695C82.8137 87.7644 83.7082 86.3545 84.7512 85.0653C85.2668 84.4274 85.8226 83.8232 86.4159 83.2574C86.8972 82.7974 87.4213 82.2675 88.0618 82.0434C89.6176 81.4992 90.4619 82.8949 91.5508 83.6597L90.7645 84.732C90.4831 84.4945 90.1905 84.4365 89.83 84.4699C89.9798 84.0863 90.129 83.7038 90.28 83.3207C90.8577 83.8784 91.5668 84.2342 92.3803 84.2975C93.1939 84.3609 93.259 85.6935 92.4112 85.6269L92.4105 85.6281Z" fill="#EDD7D7"/>
<path d="M92.0252 88.2694C91.6162 90.9435 89.5654 92.8974 87.4823 94.4383L86.8055 93.3073C87.9001 92.7911 88.7683 92.0137 89.3636 90.953C89.7855 90.201 90.9476 90.8209 90.5244 91.5753C89.8225 92.8253 88.7804 93.8274 87.483 94.4372C86.7089 94.8011 86.1008 93.8271 86.8061 93.3061C88.614 91.969 90.3809 90.2981 90.7357 87.9812C90.8661 87.1308 92.1548 87.4261 92.0259 88.2682L92.0252 88.2694Z" fill="#EDD7D7"/>
<path d="M126.165 92.5077C124.394 94.094 123.036 96.0316 121.705 97.9829C121.284 98.5974 120.338 98.2999 120.479 97.5283C120.812 95.7017 121.689 94.0329 122.998 92.7022L123.811 93.7238C123.478 93.9847 123.157 94.2602 122.851 94.5539C122.597 94.7964 122.356 95.1619 122.079 95.3694L122.009 95.5065L121.866 95.2352C121.873 95.2104 122.228 95.0172 122.283 94.9798C122.58 94.7812 122.877 94.5909 123.19 94.4194C124.393 93.7604 125.681 93.3541 127.027 93.1534C127.875 93.0271 127.896 94.3586 127.057 94.4828C126.055 94.6331 125.06 94.9395 124.151 95.3998C123.405 95.7775 122.53 96.6685 121.647 96.5797C120.763 96.4908 120.496 95.5431 120.877 94.8224C121.348 93.9321 122.358 93.199 123.132 92.5933C123.737 92.1201 124.469 93.0833 123.946 93.6149C122.795 94.7855 122.062 96.2093 121.769 97.8153L120.544 97.3607C121.941 95.3138 123.359 93.2578 125.217 91.5949C125.856 91.023 126.811 91.9306 126.165 92.5077Z" fill="#EDD7D7"/>
<path d="M126.071 92.8785C125.196 92.4933 124.057 94.1644 123.572 94.7184C122.791 95.611 122.068 96.5496 121.399 97.5282C120.916 98.2342 119.75 97.6195 120.238 96.9059C121.162 95.5545 122.173 94.2651 123.292 93.0664C124.215 92.0782 125.32 91.0882 126.715 91.7022C127.491 92.0441 126.844 93.2185 126.071 92.8785Z" fill="#EDD7D7"/>
<path d="M124.166 93.345C122.838 94.5729 121.737 95.9757 120.873 97.5632C120.46 98.3213 119.299 97.6991 119.713 96.9409C120.63 95.2558 121.808 93.7362 123.218 92.4323C123.849 91.8501 124.803 92.757 124.166 93.345Z" fill="#EDD7D7"/>
<path d="M127.748 94.3571C124.68 93.5051 122.239 91.2453 121.133 88.26C120.889 87.5981 121.775 87.1861 122.236 87.5791C124.191 89.2481 125.893 91.1812 127.32 93.3241L126.169 93.3643C126.251 93.1804 125.458 92.3444 125.336 92.1832C124.94 91.6589 124.536 91.141 124.123 90.6295C123.359 89.681 122.568 88.7552 121.758 87.8462L122.687 86.8778C124.454 88.9445 126.22 91.0112 127.987 93.078L126.885 93.7589C125.952 91.3892 124.321 89.3315 122.231 87.8928L123.017 86.8204C125.035 88.357 126.905 90.067 128.616 91.9395C129.181 92.5587 128.284 93.5202 127.687 92.9079C126.034 91.2124 124.381 89.5187 122.728 87.8233C122.139 87.2183 123.064 86.2462 123.657 86.8548C125.31 88.5503 126.963 90.244 128.616 91.9395L127.687 92.9079C125.976 91.0354 124.106 89.3254 122.088 87.7889C121.504 87.3448 122.262 86.2957 122.874 86.7165C125.277 88.3697 127.087 90.6423 128.161 93.3672C128.399 93.9695 127.479 94.5397 127.059 94.0482C125.292 91.9815 123.525 89.9147 121.758 87.848C121.216 87.2137 122.118 86.2411 122.687 86.8796C123.76 88.081 124.792 89.3162 125.786 90.5849C126.485 91.4789 127.901 92.7217 127.33 93.9883C127.109 94.4782 126.435 94.412 126.179 94.0286C124.813 91.9776 123.179 90.1491 121.308 88.5511L122.41 87.8701C123.343 90.3935 125.472 92.34 128.06 93.0594C128.878 93.2861 128.568 94.5868 127.749 94.3589L127.748 94.3571Z" fill="#EDD7D7"/>
<path d="M93.4538 83.6695C92.4468 84.0668 91.5946 84.6915 90.8792 85.5052C90.3097 86.1538 89.36 85.2416 89.9313 84.5925C90.8014 83.6031 91.8698 82.8767 93.0887 82.3967C93.8904 82.0811 94.2508 83.3543 93.4545 83.6683L93.4538 83.6695Z" fill="#EDD7D7"/>
<path d="M93.0876 83.5874C91.9534 83.6822 90.8428 83.8901 89.7452 84.2114C88.9211 84.4527 88.5536 83.1817 89.3795 82.9398C90.5822 82.5882 91.8129 82.361 93.0568 82.258C93.9122 82.1872 93.9383 83.5171 93.0876 83.5874Z" fill="#EDD7D7"/>
<path d="M93.593 83.3152C92.1646 83.2645 90.7751 83.4689 89.4131 83.936C88.5981 84.2157 88.2342 82.9435 89.0474 82.6645C90.5064 82.1627 92.0306 81.9315 93.5622 81.9858C94.4115 82.0167 94.4453 83.3462 93.593 83.3152Z" fill="#EDD7D7"/>
<path d="M94.7574 91.3374C95.2093 90.2425 96.2131 89.5986 97.1595 88.9665C98.2855 88.2116 99.4121 87.4586 100.538 86.7037L100.413 87.7532C99.9821 87.3168 99.432 87.1726 98.8371 87.3572L98.9757 86.1323C100.244 86.7922 101.567 87.2842 102.963 87.6124L102.485 88.8502C100.218 87.5712 97.9508 86.2934 95.6829 85.0137C94.9211 84.5841 95.5556 83.5505 96.3264 83.8374C96.9698 84.0774 97.6132 84.3173 98.2554 84.5566L97.6119 85.7329C96.3462 85.1046 95.1616 84.3585 94.0334 83.5119C93.3586 83.0056 94.2912 82.0391 94.9625 82.5435C95.9952 83.3176 97.0985 83.9821 98.2554 84.5566C99.0367 84.945 98.3804 86.0186 97.6119 85.7329C96.9685 85.493 96.3251 85.253 95.6829 85.0137L96.3264 83.8374C98.5932 85.1165 100.861 86.3943 103.129 87.6739C103.765 88.0334 103.392 89.0867 102.651 88.9118C101.145 88.5579 99.6993 88.0202 98.3322 87.3086C97.8228 87.0432 97.9239 86.2546 98.4708 86.0838C99.5066 85.7628 100.588 86.02 101.342 86.783C101.648 87.0931 101.581 87.5883 101.216 87.8324C100.236 88.4888 99.2544 89.1463 98.2738 89.8027C97.3922 90.3934 96.3425 90.9291 95.9195 91.9574C95.5908 92.7532 94.4338 92.1239 94.7587 91.3351L94.7574 91.3374Z" fill="#EDD7D7"/>
<path d="M96.1251 84.1873C95.781 83.7077 95.3293 83.356 94.8012 83.1003C94.0368 82.7301 94.6827 81.5551 95.4447 81.924C96.2067 82.2929 96.7887 82.8179 97.2673 83.4852C97.746 84.1525 96.6178 84.8728 96.1258 84.1861L96.1251 84.1873Z" fill="#EDD7D7"/>
<path d="M95.2982 83.9478C94.6131 83.7677 94.0435 83.3544 93.6799 82.7457C93.2448 82.018 94.3853 81.3135 94.8215 82.0448C95.0033 82.3491 95.2639 82.5588 95.6109 82.649C96.4328 82.8644 96.1224 84.1645 95.2993 83.9484L95.2982 83.9478Z" fill="#EDD7D7"/>
<path d="M89.1536 84.0904C88.461 84.3109 87.9998 84.4622 87.5159 85.0395C87.0838 85.5548 86.7513 86.1296 86.4708 86.7384C86.1099 87.5215 84.951 86.8957 85.31 86.1161C85.669 85.3364 86.144 84.5916 86.7265 83.944C87.309 83.2963 87.9712 83.0793 88.7878 82.8188C89.6044 82.5583 89.9731 83.8299 89.1536 84.0904Z" fill="#EDD7D7"/>
<path d="M90.1379 83.6367C89.7607 83.4041 89.3779 83.2476 88.9455 83.1405C88.6718 83.0729 88.0857 82.8545 87.7981 82.9301C87.537 82.9985 87.274 83.3778 87.0961 83.5685C86.8312 83.8524 86.5857 84.1529 86.3661 84.4748C85.5217 85.7107 85.0279 87.1513 84.9489 88.6348C84.9033 89.4866 83.5757 89.5478 83.6221 88.6918C83.7309 86.6736 84.44 84.7627 85.7098 83.1661C86.2008 82.5485 86.9132 81.6388 87.7696 81.602C88.7568 81.5592 89.9611 81.9538 90.7837 82.4616C91.5004 82.9052 90.8627 84.0846 90.1402 83.6379L90.1379 83.6367Z" fill="#EDD7D7"/>
<path d="M86.8152 85.1872C86.4381 85.3304 86.1059 85.8993 85.8611 86.1986C85.5543 86.5727 85.2585 86.9541 84.9691 87.3405C84.5809 87.8581 83.6225 87.3459 83.85 86.7407C84.1124 86.0416 84.4218 85.3799 84.8197 84.7459L85.8741 85.5134C84.9818 86.4803 84.4208 87.6156 84.1745 88.8999C84.0122 89.7454 82.7228 89.4543 82.8843 88.6129C83.1734 87.1021 83.879 85.7355 84.9256 84.6018C85.4295 84.0566 86.3887 84.7183 85.9799 85.3693C85.647 85.8982 85.3585 86.4449 85.1396 87.0288L84.0206 86.429C84.666 85.5701 85.405 84.3127 86.4488 83.9168C87.2542 83.6108 87.6157 84.8847 86.8145 85.1884L86.8152 85.1872Z" fill="#EDD7D7"/>
<path d="M89.7937 83.3507C89.2517 82.7087 88.4143 82.4393 87.5841 82.6834C86.5664 82.9822 86.1306 84.1055 85.6692 84.9626C84.5455 87.0468 83.5001 89.1745 83.1544 91.5296C83.0298 92.3802 81.7394 92.0855 81.8642 91.2427C82.0778 89.7903 82.5504 88.4022 83.1458 87.0586C83.7412 85.7151 84.4254 84.3218 85.2165 83.0679C85.8389 82.0811 86.7033 81.4066 87.8761 81.2853C88.9374 81.1757 90.0372 81.572 90.7222 82.3835C91.2638 83.0236 90.342 84.0006 89.7931 83.3519L89.7937 83.3507Z" fill="#EDD7D7"/>
<path d="M84.8735 87.4342C84.3587 88.1668 83.9707 88.9445 83.7259 89.8037C83.4908 90.6284 82.2268 90.354 82.4356 89.5167C82.663 88.6071 82.9711 87.7257 83.3489 86.8649L84.4033 87.6324C83.8713 88.2919 83.5471 89.0354 83.3834 89.8589C83.2196 90.6824 81.9257 90.4132 82.0932 89.5719C82.3058 88.5054 82.7706 87.568 83.4554 86.7196C83.9623 86.0923 84.7936 86.8421 84.5098 87.4871C84.1793 88.2395 83.9246 89.0096 83.7259 89.8037L82.4356 89.5167C82.7131 88.5458 83.1296 87.6418 83.7139 86.8125C84.2053 86.1145 85.3707 86.7286 84.8747 87.4348L84.8735 87.4342Z" fill="#EDD7D7"/>
<path d="M87.7416 83.3838C87.0163 83.9001 86.1906 84.3748 85.6021 85.0527C85.0528 85.6862 84.6883 86.4842 84.3026 87.2221C83.5151 88.7274 82.7557 90.2995 82.6279 92.0094C82.564 92.8589 81.2364 92.9201 81.3011 92.0664C81.449 90.1056 82.2354 88.3335 83.1429 86.6005C83.5862 85.7519 84.0196 84.8692 84.6547 84.1417C85.3217 83.3781 86.2458 82.836 87.0642 82.2539C87.7668 81.7543 88.443 82.8866 87.741 83.385L87.7416 83.3838Z" fill="#EDD7D7"/>
<path d="M87.5634 83.5864C85.5221 84.4226 84.1341 86.3012 83.3241 88.2949C82.8746 89.4018 82.5905 90.5715 82.3612 91.7371C82.1428 92.8416 81.8375 94.0637 82.0339 95.1837C82.1802 96.0167 80.906 96.4168 80.7582 95.5754C80.5374 94.3161 80.7672 93.0701 80.9995 91.8195C81.2625 90.4057 81.6138 89.0089 82.1632 87.6726C83.1277 85.3251 84.8181 83.2891 87.1977 82.3148C87.9945 81.9889 88.3548 83.2622 87.5634 83.5864Z" fill="#EDD7D7"/>
<path d="M82.8266 86.4372C83.7421 85.2576 84.7138 84.1264 85.7416 83.0435L86.5549 84.0652C85.8895 84.4828 85.35 85.2083 84.8061 85.7717C84.2956 86.3013 83.3351 85.6586 83.7517 85.0042C84.3718 84.0298 85.0938 83.1466 85.9444 82.3627C86.5752 81.7805 87.5304 82.6881 86.8923 83.2755C86.13 83.9774 85.4679 84.7512 84.9126 85.6264L83.8582 84.8589C84.4921 84.2023 85.0986 83.423 85.878 82.9341C86.5226 82.5297 87.2157 83.4033 86.6913 83.9558C85.6623 85.038 84.6907 86.1692 83.7763 87.3494C83.2476 88.0305 82.3028 87.1148 82.8284 86.4366L82.8266 86.4372Z" fill="#EDD7D7"/>
<path d="M86.8919 83.0818C86.6118 83.7364 86.0912 84.1556 85.5752 84.6214C84.9616 85.1748 84.5109 85.8094 84.1686 86.5585C83.8028 87.3588 82.7058 86.716 83.0078 85.9362C83.6002 84.4115 84.6416 83.1473 85.9863 82.2206C86.6969 81.7314 87.3737 82.8624 86.6631 83.3517C85.5037 84.151 84.6746 85.2522 84.1675 86.5579L83.0066 85.9356C83.324 85.2401 83.7444 84.5953 84.2766 84.0424C84.7777 83.5215 85.4367 83.143 85.7299 82.4589C86.0686 81.6669 87.228 82.2945 86.8907 83.0812L86.8919 83.0818Z" fill="#EDD7D7"/>
<path d="M90.6714 83.7401C90.1941 83.644 89.7611 83.4119 89.4189 83.0687C88.9594 82.6079 89.3961 81.8014 90.0392 81.9347C90.4923 82.0286 90.9307 82.2042 91.3115 82.4631C91.6064 82.6623 91.7568 83.0213 91.5701 83.3624C91.4099 83.6553 90.964 83.8392 90.668 83.6394C90.3719 83.4396 90.0795 83.3072 89.7276 83.2342L90.348 82.1003C90.5416 82.2953 90.714 82.3862 90.983 82.4407C91.3332 82.5112 91.5558 82.8892 91.4723 83.2339C91.3888 83.5786 91.0228 83.8113 90.6714 83.7401Z" fill="#EDD7D7"/>
<path d="M88.0863 82.6086C84.0654 82.7853 83.1735 87.7031 82.7332 90.8047C82.6128 91.6559 81.3229 91.36 81.443 90.5177C81.7618 88.2637 82.124 85.8839 83.493 83.9769C84.5731 82.4718 86.1862 81.3619 88.0554 81.2793C88.9107 81.2418 88.9397 82.5717 88.0863 82.6086Z" fill="#EDD7D7"/>
<path d="M83.6057 86.9124C83.2762 87.4325 83.3293 88.3205 83.2578 88.915C83.1704 89.6455 83.0825 90.3742 82.9951 91.1048C82.8925 91.9564 81.6033 91.6593 81.7049 90.8178C81.8065 89.9762 81.9012 89.1857 81.9987 88.3709C82.0812 87.6849 82.0613 86.8953 82.4454 86.2919C82.9054 85.5664 84.0706 86.1835 83.6062 86.9142L83.6057 86.9124Z" fill="#EDD7D7"/>
<path d="M136.618 83.7045C137.124 77.4842 135.202 61.453 123.976 55.0258C111.584 47.9316 92.2829 55.0687 92.5367 61.4267C93.0028 73.1209 135.717 94.8056 136.618 83.7045Z" fill="white"/>
<path d="M97.7154 61.7513C100.073 59.7116 109.056 52.7312 119.354 56.3309C131.821 60.6894 132.269 75.5424 132.317 76.4349C132.453 79.0122 133.883 84.1693 130.095 87.0449C127.047 89.3576 123.695 92.306 118.561 92.0946C116.973 92.0295 115.807 92.136 114.74 92.2398C113.488 92.1028 112.278 91.7303 111.061 91.4309C108.516 90.8035 105.969 90.3124 103.573 89.2518C101.551 87.9649 99.2949 87.65 95.0034 83.7712C91.5552 80.6551 91.7634 78.5782 91.4018 75.9866C90.4689 69.2934 96.6303 62.691 97.715 61.7526L97.7154 61.7513Z" fill="#AE794E"/>
<path d="M104.66 72.3096C103.82 71.8273 103.921 70.0669 104.885 68.3778C105.85 66.6886 107.313 65.7103 108.153 66.1926C108.994 66.6749 108.893 68.4353 107.929 70.1245C106.964 71.8136 105.501 72.7919 104.66 72.3096Z" fill="#201614"/>
<path d="M119.985 74.3068C120.285 72.3877 121.307 70.9463 122.267 71.0874C123.227 71.2285 123.762 72.8987 123.462 74.8179C123.161 76.737 122.14 78.1784 121.18 78.0373C120.22 77.8962 119.685 76.226 119.985 74.3068Z" fill="#201614"/>
<path d="M102.411 82.1916C102.891 84.9932 106.505 86.4728 108.341 87.1767C110.078 87.8418 114.027 89.1553 116.56 87.2642C118.353 85.9262 118.585 84.1482 118.547 83.5409C118.372 80.8185 116.264 77.7694 112.807 76.5638C108.637 75.1085 105.295 77.3093 104.81 77.6417C104.179 78.0739 101.988 79.7275 102.411 82.1933L102.411 82.1916Z" fill="#746155"/>
<path d="M114.661 79.6454C114.496 78.5776 113.014 78.0131 112.341 77.7573C111.704 77.5157 110.117 76.9108 109.175 77.6521C108.509 78.177 108.555 79.0687 108.567 79.3011C108.62 80.3415 109.383 81.493 110.651 81.9292C112.18 82.456 113.419 81.5909 113.6 81.4609C113.835 81.2911 114.807 80.5859 114.661 79.6466L114.661 79.6454Z" fill="#201614"/>
<path d="M110.632 78.3211C110.355 78.2251 110.162 78.055 110.202 77.9412C110.242 77.8274 110.499 77.813 110.776 77.909C111.054 78.005 111.246 78.1751 111.206 78.2889C111.166 78.4027 110.909 78.4171 110.632 78.3211Z" fill="white"/>
<path d="M106.313 67.9478C105.928 67.8144 105.684 67.511 105.768 67.2701C105.853 67.0293 106.233 66.9422 106.619 67.0756C107.004 67.209 107.248 67.5124 107.164 67.7533C107.079 67.9941 106.698 68.0812 106.313 67.9478Z" fill="white"/>
<path d="M121.138 73.0814C120.753 72.9479 120.509 72.6445 120.593 72.4037C120.678 72.1628 121.059 72.0757 121.444 72.2092C121.829 72.3426 122.073 72.646 121.989 72.8869C121.904 73.1277 121.524 73.2148 121.138 73.0814Z" fill="white"/>
<path d="M105.214 79.8538C104.974 79.7705 105.107 79.3913 105.347 79.4745C105.587 79.5578 105.455 79.937 105.214 79.8538Z" fill="#201614"/>
<path d="M103.694 80.6033C103.453 80.52 103.586 80.1408 103.827 80.2241C104.067 80.3073 103.934 80.6866 103.694 80.6033Z" fill="#201614"/>
<path d="M105.181 81.5434C104.94 81.4601 105.073 81.0809 105.314 81.1641C105.554 81.2474 105.421 81.6266 105.181 81.5434Z" fill="#201614"/>
<path d="M116.435 83.3142C116.194 83.2309 116.327 82.8517 116.568 82.935C116.808 83.0182 116.675 83.3974 116.435 83.3142Z" fill="#201614"/>
<path d="M115.405 84.6585C115.164 84.5753 115.297 84.1961 115.537 84.2793C115.778 84.3626 115.645 84.7418 115.405 84.6585Z" fill="#201614"/>
<path d="M117.032 84.7968C116.792 84.7136 116.925 84.3343 117.165 84.4176C117.406 84.5009 117.273 84.8801 117.032 84.7968Z" fill="#201614"/>
<path opacity="0.67" d="M117.916 83.6031C118.939 83.3947 126.809 83.7074 128.601 86.284" stroke="#201614" stroke-miterlimit="10"/>
<path opacity="0.67" d="M117.938 84.2272C118.979 84.1866 129.107 86.2027 130.46 89.0427" stroke="#201614" stroke-miterlimit="10"/>
<path opacity="0.67" d="M117.494 84.6646C118.533 84.7393 130.315 88.7058 132.027 91.0465" stroke="#201614" stroke-miterlimit="10"/>
<path opacity="0.67" d="M103.904 78.6916C103.225 77.9036 96.8157 73.3539 93.8097 74.2975" stroke="#201614" stroke-miterlimit="10"/>
<path opacity="0.67" d="M103.547 79.7091C102.751 79.0267 93.4593 74.2611 90.5562 75.6245" stroke="#201614" stroke-miterlimit="10"/>
<path opacity="0.67" d="M103.457 80.1286C102.621 79.6178 91.4285 76.2313 88.8437 77.101" stroke="#201614" stroke-miterlimit="10"/>
<g filter="url(#filter1_d_455_1448)">
<path d="M108.377 50.9687C111.794 48.5402 114.866 49.7666 115.577 49.9817C115.735 50.0295 116.006 50.2306 115.826 50.6527C115.602 51.1804 112.102 53.7699 111.77 54.6745C111.438 55.579 112.001 57.9828 111.831 58.1919C111.661 58.401 111.878 58.5412 111.19 58.631C110.609 58.7069 108.145 57.0968 107.288 55.2608C108.02 57.3271 109.898 61.4606 110.022 62.0744C109.82 61.7526 107.97 60.1139 107.665 60.0218C107.423 60.0974 106.226 61.7084 105.741 62.1199C105.94 61.7334 106.173 56.6223 106.264 54.1151C106.02 54.0587 105.75 53.9816 105.485 53.8794C103.851 56.7614 102.622 60.5442 102.456 61.1266C102.476 60.7978 102.004 58.7193 101.642 58.0518C101.155 57.9043 100.416 58.0531 100.107 58.1458C100.171 57.5516 102.711 55.3688 104.366 54.0307C102.122 55.6647 99.9801 55.2764 99.1395 54.8383C98.9687 54.7494 98.6737 54.5113 98.8604 54.27C98.6564 54.4689 100.669 52.0624 100.759 51.2335C100.849 50.4045 99.4079 46.6933 99.381 46.0151C99.3595 45.4726 99.7611 45.2863 99.9646 45.261C101.537 45.7241 104.839 47.3603 105.469 50.2011C107.09 49.887 108.064 50.6505 108.348 51.0715L108.377 50.9687Z" fill="white"/>
<path d="M107.001 54.2376C107.178 56.45 110.502 58.7208 111.19 58.631C111.878 58.5412 111.661 58.401 111.831 58.1919C112.001 57.9828 111.438 55.579 111.77 54.6745C112.102 53.7699 115.602 51.1804 115.826 50.6527C116.006 50.2306 115.735 50.0295 115.577 49.9817C114.866 49.7666 111.794 48.5402 108.377 50.9687L108.348 51.0715M107.001 54.2376C106.836 54.224 106.571 54.1859 106.264 54.1151M107.001 54.2376C107.075 55.265 109.869 61.321 110.022 62.0744C109.82 61.7526 107.97 60.1139 107.665 60.0218C107.423 60.0974 106.226 61.7084 105.741 62.1199C105.94 61.7334 106.173 56.6223 106.264 54.1151M107.001 54.2376C107.288 54.0454 107.703 53.6489 108.005 53.0896M108.348 51.0715C108.064 50.6505 107.09 49.887 105.469 50.2011M108.348 51.0715C108.414 51.4722 108.4 51.8446 108.334 52.1838M105.469 50.2011C104.839 47.3603 101.537 45.7241 99.9646 45.261C99.7611 45.2863 99.3595 45.4726 99.381 46.0151C99.4079 46.6933 100.849 50.4045 100.759 51.2335C100.669 52.0624 98.6564 54.4689 98.8604 54.27C98.6737 54.5113 98.9687 54.7494 99.1395 54.8383C100.047 55.3111 102.469 55.726 104.901 53.6027M105.469 50.2011C105.138 50.5567 104.924 50.9311 104.793 51.2994M104.901 53.6027C103.333 54.8408 100.179 57.4827 100.107 58.1458C100.416 58.0531 101.155 57.9043 101.642 58.0518C102.004 58.7193 102.476 60.7978 102.456 61.1266C102.622 60.5442 103.851 56.7614 105.485 53.8794M104.901 53.6027C105.085 53.7105 105.284 53.8021 105.485 53.8794M104.901 53.6027C104.68 53.1687 104.454 52.2549 104.793 51.2994M105.485 53.8794C105.75 53.9816 106.02 54.0587 106.264 54.1151M108.334 52.1838C109.116 51.9241 110.794 51.4464 111.247 51.613C111.7 51.7797 110.614 52.1537 110.015 52.3199M108.334 52.1838C108.268 52.5197 108.149 52.8231 108.005 53.0896M104.793 51.2994C104.233 50.4227 103.06 48.7952 102.857 49.2996C102.654 49.8039 103.074 50.1716 103.309 50.2924M104.624 52.1723C104.241 52.2599 103.443 52.547 103.316 52.9938C103.329 53.0541 103.433 53.164 103.739 53.122M108.005 53.0896C108.411 53.5845 109.025 54.3656 108.773 54.4755C108.742 54.5406 108.617 54.6072 108.366 54.3526" stroke="#7500FF"/>
</g>
</g>
<path d="M124.632 27.292C147.491 32.354 161.104 59.4536 154.782 88.0033C148.459 116.553 124.678 135.372 101.819 130.31C78.9605 125.248 65.3478 98.1484 71.67 69.5987C77.9922 41.0491 101.773 22.2301 124.632 27.292Z" fill="#8194CB" fill-opacity="0.5" stroke="#7500FF"/>
</g>
<defs>
<filter id="filter0_d_455_1448" x="67.3799" y="40.7508" width="81.4072" height="111.369" filterUnits="userSpaceOnUse" color-interpolation-filters="sRGB">
<feFlood flood-opacity="0" result="BackgroundImageFix"/>
<feColorMatrix in="SourceAlpha" type="matrix" values="0 0 0 0 0 0 0 0 0 0 0 0 0 0 0 0 0 0 127 0" result="hardAlpha"/>
<feOffset dy="4"/>
<feGaussianBlur stdDeviation="4"/>
<feComposite in2="hardAlpha" operator="out"/>
<feColorMatrix type="matrix" values="0 0 0 0 0 0 0 0 0 0 0 0 0 0 0 0 0 0 0.5 0"/>
<feBlend mode="normal" in2="BackgroundImageFix" result="effect1_dropShadow_455_1448"/>
<feBlend mode="normal" in="SourceGraphic" in2="effect1_dropShadow_455_1448" result="shape"/>
</filter>
<filter id="filter1_d_455_1448" x="94.3018" y="44.7508" width="26.082" height="25.7544" filterUnits="userSpaceOnUse" color-interpolation-filters="sRGB">
<feFlood flood-opacity="0" result="BackgroundImageFix"/>
<feColorMatrix in="SourceAlpha" type="matrix" values="0 0 0 0 0 0 0 0 0 0 0 0 0 0 0 0 0 0 127 0" result="hardAlpha"/>
<feOffset dy="4"/>
<feGaussianBlur stdDeviation="2"/>
<feComposite in2="hardAlpha" operator="out"/>
<feColorMatrix type="matrix" values="0 0 0 0 0 0 0 0 0 0 0 0 0 0 0 0 0 0 0.25 0"/>
<feBlend mode="normal" in2="BackgroundImageFix" result="effect1_dropShadow_455_1448"/>
<feBlend mode="normal" in="SourceGraphic" in2="effect1_dropShadow_455_1448" result="shape"/>
</filter>
</defs>
</svg>
