<svg width="210" height="567" viewBox="0 0 210 567" fill="none" xmlns="http://www.w3.org/2000/svg"><path d="M166.51 540.133C166.065 540.523 165.72 540.972 165.253 541.318C162.513 543.527 159.46 545.399 156.43 547.315C154.642 548.438 152.853 549.562 151.087 550.729C150.711 550.974 150.48 551.366 150.205 551.67C150.148 551.698 150.069 551.683 149.99 551.668C149.399 551.912 148.786 552.111 148.195 552.355C147.98 552.354 147.787 552.396 147.573 552.395C146.615 553.043 145.702 553.78 144.621 554.326C139.353 557.042 133.94 559.612 128.397 561.642C122.968 563.615 117.397 565.165 111.8 565.958C105.818 566.836 100.015 566.798 94.5064 565.786C92.3731 565.38 90.3662 564.799 88.394 564.146C86.839 563.611 85.2841 563.077 83.9471 562.268C81.2162 560.678 78.4853 559.089 75.9946 557.268C73.9305 555.726 72.1984 553.852 70.3745 552.079C70.207 551.888 70.1311 551.597 69.9984 551.334C69.6 550.546 69.0309 549.843 68.6894 549.026C68.2689 548.194 67.7821 547.23 67.883 546.299C68.104 544.758 67.0579 545.231 66.0941 545.443C66.0372 545.472 65.9582 545.457 65.8223 545.471C65.6516 545.557 65.538 545.614 65.3894 545.744C65.2188 545.831 65.1049 545.888 64.9343 545.974C64.6499 546.118 64.3086 546.29 64.002 546.39C63.8883 546.448 63.8094 546.433 63.6735 546.446C62.3557 546.947 61.06 547.492 59.7422 547.992C57.4922 548.909 55.1854 549.855 52.9354 550.771C52.9354 550.771 52.8784 550.8 52.8215 550.829C50.7898 552.46 48.2016 553.273 46.271 554.963C45.8254 555.353 45.3452 555.816 44.7732 556.379L40.6007 552.219C42.7022 551.432 44.8384 550.573 46.9399 549.786C48.6211 549.157 50.2802 548.484 52.0183 547.825C53.2792 547.353 54.5779 546.532 55.8231 546.453C56.8534 546.373 57.2104 545.807 57.893 545.462C57.9499 545.434 58.0857 545.42 58.1647 545.435C58.7209 545.264 59.2771 545.093 59.7985 544.995C60.026 544.88 60.2535 544.765 60.4811 544.65C63.4959 544.116 66.3275 542.796 69.2886 542.015C69.9806 541.83 70.6378 541.718 71.352 541.577C71.4658 541.52 71.5228 541.491 71.6587 541.477C73.1219 541.123 74.563 540.725 76.0261 540.371C76.083 540.342 76.162 540.357 76.241 540.372C76.241 540.372 76.1967 540.284 76.1746 540.241C75.8586 540.18 75.5204 540.076 75.2044 540.016C74.9894 540.015 74.7744 540.013 74.6164 539.983C74.1076 539.965 73.5988 539.947 73.09 539.929C72.8751 539.928 72.6601 539.927 72.5021 539.897C71.9933 539.879 71.5414 539.832 70.8177 539.813C72.309 537.959 73.4053 536.031 75.826 535.028C75.8038 534.984 75.8386 534.912 75.8512 534.795C76.1923 533.633 77.3519 533.102 78.4327 532.556C78.6033 532.47 78.774 532.384 78.8878 532.326C79.6177 531.793 80.2687 531.244 81.0429 530.798C83.3434 529.416 85.7323 528.209 88.2762 527.309C91.7397 526.109 95.2318 525.389 98.7207 524.946C106.514 523.979 113.837 524.623 120.73 526.255C126.235 527.542 131.555 529.309 136.76 531.133C142.844 533.283 148.998 535.288 155.925 535.858C161.124 536.255 166.421 535.999 171.803 534.215C173.279 533.744 174.757 532.997 176.246 532.41C176.473 532.295 176.767 532.312 177.128 532.46L167.667 539.879C167.667 539.879 167.088 540.006 166.839 540.077L166.51 540.133ZM77.5113 540.06C77.5113 540.06 77.5683 540.031 77.6252 540.003C77.6252 540.003 77.5682 540.031 77.4891 540.016C77.4891 540.016 77.4323 540.045 77.3754 540.074C77.3754 540.074 77.4323 540.045 77.4891 540.016L77.5113 540.06Z" fill="#EA885F"/><path d="M148.467 283.829C147.544 283.676 146.659 283.693 145.764 283.474C140.306 282.359 134.908 280.574 129.482 278.855C126.288 277.834 123.094 276.813 119.873 275.858C119.192 275.651 118.494 275.746 117.851 275.71C117.758 275.671 117.692 275.566 117.626 275.462C116.718 275.007 115.838 274.487 114.931 274.032C114.705 273.784 114.452 273.602 114.226 273.354C112.462 272.85 110.643 272.479 108.867 271.74C100.146 268.187 91.4422 264.334 83.2256 259.835C75.1959 255.414 67.5057 250.442 60.6655 244.744C53.3192 238.681 47.2242 231.984 42.5674 224.729C40.7817 221.905 39.3312 219.067 38.0014 216.202C36.9749 213.925 35.9486 211.649 35.4715 209.37C34.4238 204.773 33.3762 200.176 32.8505 195.642C32.4528 191.855 32.7915 188.143 32.9157 184.419C32.9589 184.052 33.2164 183.697 33.3804 183.303C33.8724 182.121 34.0839 180.822 34.6693 179.678C35.1887 178.43 35.7902 176.986 36.9754 176.246C38.9946 175.083 37.3395 174.317 36.0741 173.405C35.9806 173.366 35.9144 173.262 35.7548 173.118C35.4744 173.001 35.2875 172.924 34.9798 172.873C34.6994 172.756 34.5123 172.678 34.2319 172.561C33.7645 172.367 33.2037 172.133 32.7637 171.873C32.5767 171.795 32.5107 171.691 32.3511 171.547C30.3767 170.495 28.3751 169.507 26.4007 168.454C22.9582 166.713 19.4222 164.934 15.9797 163.193C15.9797 163.193 15.886 163.154 15.7925 163.115C11.753 162.281 8.07338 160.056 4.07268 159.393C3.14944 159.24 2.10543 159.113 0.847116 158.975L1.25248 150.36C4.38728 152.05 7.6429 153.713 10.7777 155.403C13.2855 156.755 15.8207 158.041 18.422 159.432C20.3029 160.446 22.6282 161.182 24.0373 162.539C25.2207 163.648 26.2535 163.539 27.3752 164.005C27.4686 164.044 27.628 164.188 27.6941 164.293C28.4807 164.774 29.2674 165.255 29.9332 165.764C30.307 165.919 30.6809 166.075 31.0548 166.23C34.8624 169.202 39.3878 171.24 43.4256 173.922C44.3718 174.547 45.197 175.198 46.1158 175.889C46.3027 175.967 46.3964 176.006 46.556 176.149C48.5145 177.504 50.5003 178.793 52.4587 180.147C52.5522 180.186 52.6184 180.291 52.6845 180.395C52.6845 180.395 52.7392 180.264 52.7665 180.198C52.502 179.78 52.2648 179.296 52.0003 178.878C51.7745 178.629 51.5486 178.381 51.4163 178.172C50.8987 177.571 50.3812 176.971 49.8635 176.37C49.6378 176.122 49.4119 175.874 49.2796 175.665C48.762 175.064 48.3381 174.502 47.5947 173.654C51.3194 173.663 54.7135 173.149 58.4364 175.007C58.4638 174.941 58.5844 174.914 58.7325 174.822C60.4397 174.145 62.2817 174.989 64.0576 175.728C64.338 175.845 64.6186 175.961 64.8056 176.039C66.1961 176.387 67.5206 176.63 68.8565 177.109C72.8916 178.48 76.8172 180.114 80.5516 182.207C85.6061 185.082 90.1342 188.43 94.3386 192.029C103.705 200.088 110.706 209.089 116.109 218.504C120.442 226.009 124.023 233.741 127.417 241.395C131.363 250.358 135.551 259.267 142.221 267.745C147.261 274.08 153.162 279.927 160.923 284.466C163.029 285.728 165.459 286.74 167.714 287.909C168.088 288.065 168.38 288.418 168.59 288.967L149.986 284.923C149.986 284.923 149.226 284.376 148.88 284.155L148.467 283.829ZM54.3897 181.567C54.3897 181.567 54.4834 181.606 54.5769 181.645C54.5769 181.645 54.4832 181.606 54.4171 181.501C54.4171 181.501 54.3237 181.463 54.2303 181.424C54.2303 181.424 54.3236 181.463 54.4171 181.501L54.3897 181.567Z" fill="#DD484D"/><path d="M204.825 71.4102L209.122 81.6011C209.122 81.6011 208.232 81.4579 208.117 81.2259C206.933 80.0749 205.914 78.8439 204.565 77.7732C200.023 73.8412 194.078 71.0713 187.867 69.0061C179.499 66.1673 170.748 64.7614 161.815 63.5399C154.217 62.5328 146.653 61.3177 139.304 59.7101C130.043 57.6886 121.082 54.7543 112.981 50.2505C109.342 48.2782 106.049 46.0414 103.12 43.436C100.998 41.4938 99.338 39.5193 98.0074 37.3841C97.5144 36.6644 97.3342 35.8882 96.8413 35.1685C96.858 35.0644 96.5785 34.9128 96.4469 34.7849C95.6907 33.8095 94.9175 32.9379 95.5463 31.8647C95.5463 31.8647 95.563 31.7608 95.5797 31.6567C93.6057 29.7384 94.0888 27.6809 94.1265 25.552C94.983 25.9031 95.5588 26.1024 96.1354 26.3018C96.432 26.3495 96.5644 26.4774 96.8443 26.6291C97.4209 26.8284 97.9973 27.0279 98.5572 27.3313C98.8538 27.379 98.9852 27.507 99.2651 27.6588C99.7101 27.7302 100.155 27.8016 100.6 27.8731C100.6 27.8731 100.6 27.8731 100.748 27.897C100.748 27.897 100.6 27.8732 100.452 27.8494C99.0858 26.8827 97.8674 25.9395 96.5012 24.9728C96.5012 24.9728 96.3535 24.9493 96.2219 24.8214C95.5304 24.3901 94.8388 23.9585 94.2957 23.551C91.7283 21.5373 89.5244 19.1551 86.627 17.3019C86.5122 17.0699 86.3801 16.9421 86.2652 16.7102C85.7221 16.3027 85.3275 15.9192 84.7676 15.6157C84.7676 15.6157 84.619 15.5919 84.4707 15.568C83.961 14.9524 84.0614 14.3279 82.925 13.8251C81.657 13.1944 80.7862 11.9871 79.8817 10.9878C78.5657 9.70888 77.2497 8.43003 75.8021 7.02325C74.0912 5.3607 72.3802 3.69806 70.6527 2.13957L79.0637 0.928991C79.26 1.60101 79.3246 2.14516 79.5376 2.71312C80.2415 4.96113 82.529 6.82306 83.398 8.99084C85.2404 10.7813 86.9341 12.5476 88.7766 14.3381C89.8294 15.3612 90.882 16.3845 91.9349 17.4076C91.9349 17.4076 92.0835 17.4313 92.2151 17.5592C92.4783 17.8149 92.7415 18.0707 93.0047 18.3265C92.988 18.4305 93.2683 18.5826 93.3999 18.7105C93.3832 18.8146 93.5142 18.9421 93.6291 19.1741C93.6291 19.1741 93.7777 19.1979 93.926 19.2218C94.8974 19.8048 95.6703 20.6763 96.7775 19.4665C97.5045 18.7293 98.9399 18.3195 100.095 17.7579C101.234 17.3003 102.503 16.9705 103.625 16.617C103.955 16.4565 104.286 16.2959 104.747 16.2633C108.474 15.7946 112.07 15.1982 115.763 14.9376C120.215 14.692 124.765 14.7823 129.166 14.8489C131.441 14.8941 133.682 15.1476 135.907 15.505C138.725 15.9577 141.543 16.4105 144.311 17.1754C151.462 19.0714 158.182 21.7521 164.159 25.2742C169.872 28.5404 174.892 32.3358 179.251 36.4521C183.742 40.6962 187.738 45.1808 191.256 49.8023C192.029 50.6737 192.324 51.6818 192.915 52.7375C193.211 52.7851 193.343 52.9132 193.623 53.0649C194.149 53.5765 194.545 53.9601 195.071 54.4716C195.071 54.4716 195.219 54.4954 195.367 54.5192C195.3 54.9354 195.251 55.2477 195.645 55.6314C196.581 57.3829 197.682 59.0543 198.766 60.8297C200.59 63.6845 202.396 66.6434 203.593 69.6111C203.823 70.075 203.887 70.6192 203.952 71.1634C204.232 71.3151 204.495 71.5706 204.775 71.7223L204.825 71.4102ZM102.33 28.4714C102.33 28.4714 102.329 28.4712 102.478 28.4951C102.478 28.4951 102.478 28.4952 102.33 28.4714Z" fill="#C12127"/></svg>
