<svg width="124" height="287" viewBox="0 0 124 287" fill="none" xmlns="http://www.w3.org/2000/svg">
<g filter="url(#filter0_d_264_35)">
<path fill-rule="evenodd" clip-rule="evenodd" d="M18.0002 169.5L18.0002 259C17.8335 265.167 21.0002 277.6 35.0002 278C49.0002 278.4 77.5002 277.5 90.0002 277C95.0002 277.5 105.2 274.5 106 258.5C106.8 242.5 106.334 192.5 106 169.5L106 163.5L106 121C106 114.833 102.3 102.1 87.5002 100.5C69.0002 98.5001 69.0002 96.5001 38.5002 100.5C32.0002 100.833 18.8002 105 18.0002 119C17.2002 133 17.6668 154.167 18.0002 163.5L18.0002 169.5ZM26.0002 162.5L33.0002 183.5C53.8002 174.7 80.0002 179.833 90.5002 183.5L97.0002 162.5C99.4002 149.7 88.0002 144.833 82.0002 144L41.5002 144C28.3002 144 25.6668 156.333 26.0002 162.5ZM88.5002 222C70.1002 229.2 45.1668 225 35.0002 222C34.3335 224.167 32.7002 231 31.5002 241C31.1002 250.6 39.0002 254.667 43.0002 255.5L79.5002 255.5C91.1002 252.7 92.6668 244.667 92.0002 241L88.5002 222ZM102 239L102.467 207L102.5 204.75L103 170.5C102.667 169 101.5 166.7 99.5002 169.5C97.0002 173 94.0002 197 93.5002 205C93.4552 205.72 93.4183 206.561 93.3909 207.5C93.1144 216.994 93.8151 236.45 97.0002 241C99.8002 245 101.5 241.333 102 239ZM21.5002 240L21.2502 207L21.2502 204.75L21.0002 169.5C21.3335 168.667 22.4002 167.4 24.0002 169C25.6427 172.696 28.9714 193.928 30.1089 205C30.202 205.907 30.2804 206.745 30.342 207.5C30.4442 208.752 30.5002 209.775 30.5002 210.5C30.5002 217 28.5002 235.5 27.0002 241C24.6002 244.6 22.3335 241.833 21.5002 240Z" fill="url(#paint0_linear_264_35)"/>
<path d="M106 169.5L115 171.5C115.333 168.667 114 163.5 106 163.5L106 169.5Z" fill="url(#paint1_linear_264_35)"/>
<path d="M18.0002 163.5C11 164 9.00001 167 9.00001 171.5L18.0002 169.5L18.0002 163.5Z" fill="url(#paint2_linear_264_35)"/>
<path d="M33.0002 183.5L26.0002 162.5C25.6668 156.333 28.3002 144 41.5002 144L82.0002 144C88.0002 144.833 99.4002 149.7 97.0002 162.5L90.5002 183.5C80.0002 179.833 53.8002 174.7 33.0002 183.5Z" fill="#C0C0C0"/>
<path d="M35.0002 222C45.1668 225 70.1002 229.2 88.5002 222L92.0002 241C92.6668 244.667 91.1002 252.7 79.5002 255.5L43.0002 255.5C39.0002 254.667 31.1002 250.6 31.5002 241C32.7002 231 34.3335 224.167 35.0002 222Z" fill="#C0C0C0"/>
<path fill-rule="evenodd" clip-rule="evenodd" d="M102.5 204.75L103 170.5C102.667 169 101.5 166.7 99.5002 169.5C97.0002 173 94.0002 197 93.5002 205L102.5 204.75ZM102.467 207L93.3909 207.5C93.1144 216.994 93.8151 236.45 97.0002 241C99.8002 245 101.5 241.333 102 239L102.467 207Z" fill="#C0C0C0"/>
<path d="M102.5 204.75L93.5002 205C93.4552 205.72 93.4183 206.561 93.3909 207.5L102.467 207L102.5 204.75Z" fill="url(#paint3_linear_264_35)"/>
<path fill-rule="evenodd" clip-rule="evenodd" d="M21.2502 204.75L21.0002 169.5C21.3335 168.667 22.4002 167.4 24.0002 169C25.6427 172.696 28.9714 193.928 30.1089 205L21.2502 204.75ZM30.342 207.5L21.2502 207L21.5002 240C22.3335 241.833 24.6002 244.6 27.0002 241C28.5002 235.5 30.5002 217 30.5002 210.5C30.5002 209.775 30.4442 208.752 30.342 207.5Z" fill="#C0C0C0"/>
<path d="M21.2502 207L30.342 207.5C30.2804 206.745 30.202 205.907 30.1089 205L21.2502 204.75L21.2502 207Z" fill="url(#paint4_linear_264_35)"/>
</g>
<path d="M80 173.1C73.3333 168.933 57 159.6 45 155.6M73 165.1C70 163.433 62.7 159.5 57.5 157.1M89 158.1C87.3333 156.766 83 153.7 79 152.1M45 175.6C42.8333 174.266 37.7 171.3 34.5 170.1M42.5 177.1C41.6667 176.433 39.1 174.7 35.5 173.1" stroke="#777777" stroke-width="0.3" stroke-linecap="round"/>
<path d="M46.5 230.5C51.8333 234.062 64.6 241.749 73 244M63 234.5C65.3333 236.607 72 241.356 80 243.5M36 242.5C36.1667 243.167 38 245.2 44 248" stroke="#777777" stroke-width="0.3" stroke-linecap="round"/>
<path d="M31.5 275.5L41.5 275.5M81 275.5L90 275.5" stroke="#D10000"/>
<path d="M95 109C94.1667 107.333 90 104 82 104" stroke="white"/>
<path d="M29 109C29.8333 107.333 34 104 42 104" stroke="white"/>
<g filter="url(#filter1_f_264_35)">
<path d="M63 7.56617L82.369 102.978C91.666 103.782 95.466 106.661 96.2039 108L120 7.56616C93.4369 1.10749 70.932 4.87505 63 7.56617Z" fill="url(#paint5_linear_264_35)" fill-opacity="0.5"/>
</g>
<g filter="url(#filter2_f_264_35)">
<path d="M62 7.56623L42.2913 102.978C32.8311 103.782 28.9644 106.661 28.2136 108L4 7.56624C31.0291 1.10756 53.9288 4.87512 62 7.56623Z" fill="url(#paint6_linear_264_35)" fill-opacity="0.5"/>
</g>
<defs>
<filter id="filter0_d_264_35" x="5" y="98.1907" width="114.046" height="187.909" filterUnits="userSpaceOnUse" color-interpolation-filters="sRGB">
<feFlood flood-opacity="0" result="BackgroundImageFix"/>
<feColorMatrix in="SourceAlpha" type="matrix" values="0 0 0 0 0 0 0 0 0 0 0 0 0 0 0 0 0 0 127 0" result="hardAlpha"/>
<feOffset dy="4"/>
<feGaussianBlur stdDeviation="2"/>
<feComposite in2="hardAlpha" operator="out"/>
<feColorMatrix type="matrix" values="0 0 0 0 0 0 0 0 0 0 0 0 0 0 0 0 0 0 0.25 0"/>
<feBlend mode="normal" in2="BackgroundImageFix" result="effect1_dropShadow_264_35"/>
<feBlend mode="normal" in="SourceGraphic" in2="effect1_dropShadow_264_35" result="shape"/>
</filter>
<filter id="filter1_f_264_35" x="59" y="0" width="65" height="112" filterUnits="userSpaceOnUse" color-interpolation-filters="sRGB">
<feFlood flood-opacity="0" result="BackgroundImageFix"/>
<feBlend mode="normal" in="SourceGraphic" in2="BackgroundImageFix" result="shape"/>
<feGaussianBlur stdDeviation="2" result="effect1_foregroundBlur_264_35"/>
</filter>
<filter id="filter2_f_264_35" x="0" y="6.10352e-05" width="66" height="112" filterUnits="userSpaceOnUse" color-interpolation-filters="sRGB">
<feFlood flood-opacity="0" result="BackgroundImageFix"/>
<feBlend mode="normal" in="SourceGraphic" in2="BackgroundImageFix" result="shape"/>
<feGaussianBlur stdDeviation="2" result="effect1_foregroundBlur_264_35"/>
</filter>
<linearGradient id="paint0_linear_264_35" x1="62.0229" y1="98.1907" x2="62.023" y2="278.1" gradientUnits="userSpaceOnUse">
<stop offset="0.0384615" stop-color="#7500FF"/>
<stop offset="0.230769" stop-color="#470199"/>
<stop offset="0.975962" stop-color="#440292"/>
</linearGradient>
<linearGradient id="paint1_linear_264_35" x1="62.0229" y1="98.1907" x2="62.023" y2="278.1" gradientUnits="userSpaceOnUse">
<stop offset="0.0384615" stop-color="#7500FF"/>
<stop offset="0.230769" stop-color="#470199"/>
<stop offset="0.975962" stop-color="#440292"/>
</linearGradient>
<linearGradient id="paint2_linear_264_35" x1="62.0229" y1="98.1907" x2="62.023" y2="278.1" gradientUnits="userSpaceOnUse">
<stop offset="0.0384615" stop-color="#7500FF"/>
<stop offset="0.230769" stop-color="#470199"/>
<stop offset="0.975962" stop-color="#440292"/>
</linearGradient>
<linearGradient id="paint3_linear_264_35" x1="62.0229" y1="98.1907" x2="62.023" y2="278.1" gradientUnits="userSpaceOnUse">
<stop offset="0.0384615" stop-color="#7500FF"/>
<stop offset="0.230769" stop-color="#470199"/>
<stop offset="0.975962" stop-color="#440292"/>
</linearGradient>
<linearGradient id="paint4_linear_264_35" x1="62.0229" y1="98.1907" x2="62.023" y2="278.1" gradientUnits="userSpaceOnUse">
<stop offset="0.0384615" stop-color="#7500FF"/>
<stop offset="0.230769" stop-color="#470199"/>
<stop offset="0.975962" stop-color="#440292"/>
</linearGradient>
<linearGradient id="paint5_linear_264_35" x1="91.5" y1="4" x2="91.5" y2="108" gradientUnits="userSpaceOnUse">
<stop stop-color="#737373"/>
<stop offset="1" stop-color="#D9D9D9"/>
</linearGradient>
<linearGradient id="paint6_linear_264_35" x1="33" y1="4.00007" x2="33" y2="108" gradientUnits="userSpaceOnUse">
<stop stop-color="#737373"/>
<stop offset="1" stop-color="#D9D9D9"/>
</linearGradient>
</defs>
</svg>
