<svg width="12" height="5" viewBox="0 0 12 5" fill="none" xmlns="http://www.w3.org/2000/svg">
<path d="M1.69624 1.56295C1.69624 1.56295 1.76802 1.50929 1.80391 1.47354C2.0372 1.33054 2.28839 1.2233 2.53963 1.09817C2.68319 1.02667 2.82675 0.973015 2.98826 0.901513C3.02415 0.901513 3.04217 0.847926 3.06012 0.83005C3.06012 0.83005 3.06013 0.83005 3.07808 0.83005C3.13192 0.83005 3.16773 0.830033 3.22156 0.812157C3.22156 0.812157 3.25751 0.812157 3.27545 0.812157C3.34723 0.776406 3.43697 0.722766 3.50875 0.687015C3.93944 0.544011 4.3701 0.418878 4.81874 0.347376C5.24943 0.275873 5.69805 0.258018 6.14669 0.311644C6.61327 0.365271 7.07985 0.490402 7.4926 0.704908C7.65411 0.794286 7.81564 0.88367 7.9592 0.990923C8.08482 1.0803 8.1925 1.15179 8.30017 1.25905C8.49757 1.47355 8.71295 1.67016 8.8924 1.90254C9.03596 2.09917 9.16155 2.31372 9.30511 2.51035C9.30511 2.52823 9.30515 2.56394 9.34104 2.58182C9.37693 2.6712 9.4128 2.74272 9.43074 2.8321C9.44869 2.92148 9.48452 3.01085 9.48452 3.10022C9.46658 3.24323 9.53839 3.22537 9.62812 3.22537C9.62812 3.22537 9.62813 3.22537 9.64608 3.22537C9.64608 3.22537 9.66406 3.22537 9.68201 3.22537C9.68201 3.22537 9.69988 3.22537 9.71782 3.22537C9.73577 3.22537 9.77173 3.22537 9.78967 3.22537C9.78967 3.22537 9.78969 3.22537 9.80764 3.22537C9.91531 3.20749 10.023 3.18962 10.1306 3.17174C10.3101 3.13599 10.4895 3.10024 10.6869 3.06449C10.8485 2.95724 11.0638 2.93934 11.2253 2.81421C11.2612 2.77846 11.2971 2.7606 11.3509 2.72485L11.656 3.20747C11.4945 3.24322 11.3151 3.26113 11.1536 3.29688C11.01 3.31476 10.8843 3.35047 10.7407 3.36835C10.6331 3.38622 10.5254 3.43985 10.4357 3.42197C10.3639 3.42197 10.328 3.45772 10.2741 3.47559C10.2741 3.47559 10.2742 3.47559 10.2563 3.47559C10.2204 3.47559 10.1665 3.47559 10.1306 3.47559C10.1127 3.47559 10.0947 3.47561 10.0768 3.49349C9.84346 3.47561 9.61015 3.52924 9.37685 3.54711C9.32302 3.54711 9.26924 3.54711 9.21541 3.54711C9.21541 3.54711 9.21539 3.54711 9.19744 3.54711C9.08977 3.54711 8.96415 3.54711 8.85647 3.54711C8.85647 3.54711 8.85646 3.54711 8.83851 3.54711C8.85646 3.54711 8.89242 3.58284 8.91036 3.58284C8.91036 3.58284 8.9462 3.58284 8.96414 3.58284C9.00003 3.58284 9.03592 3.60075 9.07181 3.61863C9.07181 3.61863 9.10775 3.61863 9.1257 3.61863C9.16159 3.61863 9.1975 3.63649 9.25133 3.65436C9.12571 3.79736 9.01795 3.95825 8.82055 3.994C8.82055 3.994 8.82055 3.99402 8.82055 4.01189C8.78466 4.11915 8.69494 4.13702 8.60521 4.17277C8.60521 4.17277 8.58734 4.17277 8.56939 4.17277C8.51556 4.20852 8.46166 4.24425 8.38987 4.26212C8.21042 4.33362 8.01299 4.40512 7.79764 4.423C7.52846 4.45875 7.2414 4.44087 6.97222 4.423C6.36207 4.35149 5.7878 4.11912 5.26738 3.81523C4.83668 3.56498 4.4419 3.29688 4.0471 3.01087C3.58051 2.67123 3.11392 2.34945 2.57555 2.15282C2.18075 1.99194 1.76798 1.90259 1.31935 1.95622C1.19373 1.95622 1.08603 2.0098 0.960414 2.02768C0.942469 2.02768 0.924563 2.02772 0.888672 2.00984L1.67828 1.52717C1.67828 1.52717 1.71413 1.52717 1.75002 1.52717L1.69624 1.56295Z" fill="#EA885E"/>
</svg>
