<svg width="15" height="9" viewBox="0 0 15 9" fill="none" xmlns="http://www.w3.org/2000/svg">
<path d="M13.3257 2.09511C13.3257 2.09511 13.2899 2.2202 13.272 2.27382C13.1104 2.63133 12.913 2.971 12.7156 3.31064C12.59 3.50727 12.4823 3.70389 12.3567 3.9184C12.3388 3.95415 12.3387 4.00775 12.3208 4.06138C12.3208 4.06138 12.3208 4.06138 12.3028 4.06138C12.249 4.115 12.1952 4.15079 12.1414 4.20441C12.1234 4.20441 12.1054 4.22227 12.0695 4.24014C12.0157 4.3474 11.9619 4.47253 11.8722 4.57978C11.4774 5.09817 11.0646 5.5987 10.598 6.04559C10.1314 6.4746 9.62897 6.86787 9.07266 7.17176C8.48046 7.49352 7.83443 7.70803 7.17044 7.79741C6.91921 7.83316 6.65002 7.83314 6.38084 7.83314C6.18344 7.83314 5.96815 7.83315 5.77075 7.77952C5.358 7.69014 4.94516 7.61863 4.55036 7.4935C4.2094 7.38625 3.90436 7.24324 3.58134 7.10024C3.54545 7.10024 3.52753 7.0466 3.49164 7.02872C3.38397 6.95722 3.27632 6.88573 3.1866 6.81422C3.07892 6.72485 2.97121 6.63546 2.91737 6.52821C2.82764 6.33158 2.75583 6.43885 2.66611 6.49248C2.66611 6.49248 2.66609 6.49248 2.64814 6.49248C2.64814 6.49248 2.64824 6.52823 2.63029 6.5461C2.63029 6.5461 2.61231 6.58183 2.59436 6.58183C2.57642 6.61759 2.54046 6.63549 2.52251 6.67124C2.52251 6.67124 2.50464 6.67124 2.4867 6.67124C2.37902 6.7785 2.27136 6.88574 2.16369 6.99299C1.98423 7.18962 1.78684 7.38627 1.60738 7.56502C1.49971 7.83315 1.26633 8.01192 1.1766 8.29792C1.15865 8.36943 1.14075 8.42305 1.10486 8.51242L0.369141 8.19068C0.548596 8.01192 0.728029 7.85103 0.907483 7.67227C1.05105 7.52927 1.19459 7.38624 1.33816 7.26111C1.44583 7.15386 1.53554 7.01089 1.66116 6.95726C1.76884 6.90363 1.76888 6.8321 1.82272 6.7606C1.82272 6.7606 1.84059 6.7606 1.85854 6.7606C1.91237 6.72485 1.96624 6.6891 2.00213 6.65335C2.00213 6.63548 2.03808 6.59971 2.05602 6.58183C2.34315 6.40308 2.57644 6.15285 2.84563 5.93834C2.89946 5.88471 2.97122 5.84895 3.043 5.8132C3.043 5.8132 3.06098 5.81318 3.07893 5.79531C3.20455 5.70593 3.34806 5.59872 3.47368 5.50935C3.47368 5.50935 3.47369 5.50935 3.49164 5.50935C3.45575 5.50935 3.41984 5.50935 3.36601 5.50935C3.34806 5.50935 3.31221 5.50931 3.29426 5.52718C3.24043 5.52718 3.18654 5.56293 3.13271 5.58081C3.11476 5.58081 3.07891 5.58083 3.06096 5.5987C3.00713 5.5987 2.95321 5.63445 2.86348 5.65233C2.89937 5.38419 2.88143 5.11604 3.09678 4.90153C3.09678 4.90153 3.09678 4.88367 3.09678 4.8658C3.06089 4.72279 3.15063 4.61552 3.22241 4.50827L3.25834 4.47253C3.29423 4.38316 3.34808 4.29381 3.38397 4.22231C3.54548 3.97205 3.72493 3.73966 3.94028 3.54303C4.24535 3.27489 4.56835 3.0604 4.92726 2.88164C5.71686 2.4705 6.56034 2.27386 7.43967 2.20236C8.13954 2.14873 8.83939 2.1487 9.53926 2.16657C10.3648 2.18445 11.1723 2.18449 11.9619 1.98786C12.5541 1.84486 13.1284 1.61247 13.595 1.20134C13.7206 1.09408 13.8283 0.951038 13.9539 0.82591C13.9718 0.808034 14.0077 0.790196 14.0436 0.808071L13.5053 2.02359C13.5053 2.02359 13.4513 2.05934 13.4334 2.07722L13.3257 2.09511Z" fill="#EA885E"/>
</svg>
