<svg width="19" height="11" viewBox="0 0 19 11" fill="none" xmlns="http://www.w3.org/2000/svg">
<path d="M1.4665 2.14167L0.766602 0.55072C0.766602 0.55072 0.874288 0.550755 0.892233 0.586506C1.05374 0.747386 1.19723 0.926122 1.37669 1.06913C1.98683 1.60539 2.74055 1.90929 3.5122 2.08804C4.55304 2.3383 5.61186 2.33829 6.68859 2.30254C7.60381 2.26679 8.51907 2.26677 9.41634 2.33827C10.5469 2.42765 11.6594 2.67795 12.7003 3.21421C13.1669 3.44659 13.5976 3.73259 13.9924 4.0901C14.2795 4.35823 14.5128 4.64422 14.7102 4.96598C14.782 5.07323 14.8179 5.19837 14.8897 5.30562C14.8897 5.32349 14.9255 5.34137 14.9435 5.35924C15.0511 5.50225 15.1589 5.62739 15.105 5.82403C15.105 5.82403 15.105 5.84188 15.105 5.85976C15.3742 6.12789 15.3562 6.48543 15.3921 6.84294C15.2844 6.80719 15.2127 6.7893 15.141 6.77143C15.1051 6.77143 15.087 6.75357 15.0511 6.7357C14.9794 6.71782 14.9076 6.69993 14.8358 6.66418C14.7999 6.66418 14.782 6.64627 14.7461 6.62839C14.6923 6.62839 14.6385 6.62839 14.5847 6.62839C14.5847 6.62839 14.5846 6.62839 14.5667 6.62839C14.5667 6.62839 14.5846 6.62839 14.6025 6.62839C14.782 6.75352 14.9435 6.87869 15.123 7.00382C15.123 7.00382 15.1409 7.00378 15.1588 7.02166C15.2485 7.07528 15.3383 7.12896 15.4101 7.18258C15.751 7.45072 16.0561 7.79035 16.433 8.02274C16.4509 8.05849 16.4689 8.07634 16.4869 8.11209C16.5587 8.16572 16.6125 8.21932 16.6842 8.25507C16.6842 8.25507 16.7022 8.25507 16.7202 8.25507C16.792 8.34445 16.7919 8.45173 16.9355 8.50536C17.097 8.57686 17.2226 8.75562 17.3482 8.89862C17.5277 9.07738 17.7071 9.25613 17.9045 9.45276C18.1378 9.68514 18.3711 9.91753 18.6044 10.132L17.6353 10.561C17.5994 10.4538 17.5815 10.3644 17.5456 10.275C17.42 9.91751 17.1149 9.66725 16.9713 9.32762C16.7201 9.07736 16.4868 8.82713 16.2356 8.57687C16.092 8.43387 15.9485 8.29083 15.8049 8.14782C15.8049 8.14782 15.787 8.14786 15.769 8.12998C15.7331 8.09423 15.6972 8.05849 15.6613 8.02274C15.6613 8.00486 15.6254 7.98693 15.6074 7.96906C15.6074 7.95118 15.5896 7.93335 15.5716 7.89759C15.5716 7.89759 15.5537 7.89759 15.5357 7.89759C15.4101 7.82609 15.3024 7.70094 15.1947 7.93333C15.123 8.07633 14.9614 8.18357 14.8358 8.3087C14.7102 8.41595 14.5667 8.50533 14.4411 8.59471C14.4052 8.63046 14.3693 8.66625 14.3154 8.68412C13.8847 8.86288 13.4719 9.05947 13.0413 9.20247C12.5208 9.36335 11.9825 9.47065 11.462 9.5779C11.1929 9.63153 10.9238 9.64936 10.6546 9.64936C10.3136 9.64936 9.97264 9.64936 9.63168 9.59574C8.75235 9.47061 7.90889 9.20249 7.13723 8.77348C6.40146 8.38022 5.73751 7.87969 5.14531 7.30767C4.53516 6.71778 3.97886 6.0743 3.47639 5.39503C3.36872 5.2699 3.31485 5.10902 3.22513 4.94814C3.18923 4.94814 3.17131 4.93023 3.13542 4.91236C3.06364 4.84085 3.00972 4.78725 2.93794 4.71575C2.93794 4.71575 2.92006 4.71575 2.90212 4.71575C2.90212 4.64425 2.90207 4.59061 2.84823 4.53698C2.70467 4.26885 2.54314 4.01859 2.38163 3.75046C2.11245 3.32144 1.84331 2.87456 1.64591 2.40979C1.61002 2.33829 1.59212 2.24889 1.57417 2.15951C1.53828 2.14163 1.50239 2.10592 1.4665 2.08804V2.14167ZM14.3692 6.57477C14.3692 6.57477 14.3693 6.57477 14.3514 6.57477C14.3514 6.57477 14.3513 6.57477 14.3692 6.57477Z" fill="#C12127"/>
</svg>
