<svg width="35" height="17" viewBox="0 0 35 17" fill="none" xmlns="http://www.w3.org/2000/svg">
<path d="M30.8954 15.759C30.7518 15.8126 30.6082 15.8841 30.4647 15.9198C29.5674 16.1701 28.6701 16.2773 27.7549 16.3667C27.2166 16.4203 26.6782 16.4919 26.1219 16.5813C26.0142 16.5813 25.9065 16.6706 25.7989 16.7242C25.7809 16.7242 25.763 16.7064 25.745 16.6885C25.5835 16.6706 25.422 16.6349 25.2605 16.617C25.2067 16.5991 25.1528 16.5634 25.1169 16.5455C24.8119 16.5991 24.5247 16.6706 24.2197 16.6885C22.6943 16.7064 21.1689 16.6527 19.6615 16.4382C18.19 16.2058 16.7544 15.8305 15.3726 15.2406C13.901 14.5971 12.573 13.7391 11.4245 12.6129C10.9759 12.1839 10.599 11.7012 10.2042 11.2007C9.89917 10.8253 9.61204 10.4142 9.3967 9.98519C8.94806 9.10929 8.51737 8.23335 8.15846 7.3217C7.87133 6.55305 7.69186 5.7308 7.47652 4.94428C7.45857 4.8549 7.47652 4.76553 7.47652 4.67615C7.47652 4.37227 7.42267 4.08626 7.44062 3.78238C7.44062 3.47849 7.44063 3.12095 7.56625 2.85281C7.79954 2.4238 7.49447 2.40595 7.26118 2.31657C7.24324 2.31657 7.22529 2.29871 7.20735 2.28084C7.17146 2.28084 7.11761 2.2808 7.08172 2.29868C7.04582 2.29868 6.992 2.29868 6.95611 2.29868C6.86638 2.29868 6.77664 2.29871 6.68691 2.28084C6.66897 2.28084 6.63309 2.26293 6.61514 2.24505C6.25623 2.2093 5.89731 2.15566 5.5384 2.11991C4.91031 2.04841 4.28221 1.97693 3.65412 1.92331C3.65412 1.92331 3.63619 1.92331 3.61825 1.92331C2.97221 2.10206 2.29027 1.94119 1.64423 2.1557C1.48272 2.20932 1.33916 2.26296 1.14176 2.33446L0.657227 0.475392C1.23148 0.546894 1.80574 0.618405 2.39794 0.707783C2.86452 0.761409 3.31317 0.832922 3.77975 0.886549C4.12072 0.9223 4.5155 0.886542 4.80263 1.04742C5.03592 1.19043 5.19744 1.06526 5.3769 1.06526C5.39484 1.06526 5.41279 1.08317 5.43073 1.10105C5.5743 1.1368 5.71787 1.17254 5.86143 1.2083C5.93322 1.2083 5.98705 1.2083 6.05884 1.2083C6.81255 1.51218 7.62008 1.54791 8.37379 1.74454C8.55325 1.79817 8.71477 1.8518 8.89423 1.92331C8.91217 1.92331 8.94805 1.92332 8.966 1.9412C9.34285 2.04845 9.7197 2.15569 10.0786 2.26295C10.0966 2.26295 10.1145 2.2808 10.1324 2.29868C10.1324 2.29868 10.1324 2.26293 10.1324 2.24505C10.0607 2.17355 10.0068 2.10206 9.93504 2.03055C9.8812 1.9948 9.84534 1.95907 9.7915 1.9412C9.68383 1.8697 9.55821 1.78031 9.45053 1.70881C9.3967 1.67306 9.3608 1.63727 9.30697 1.6194C9.19929 1.5479 9.09161 1.45857 8.9301 1.33344C9.48641 1.01168 9.95299 0.600494 10.6349 0.671997C10.6349 0.654121 10.6529 0.636248 10.6708 0.618372C10.8862 0.332364 11.2092 0.350233 11.5143 0.332357C11.5681 0.332357 11.604 0.332357 11.6578 0.332357C11.8732 0.296606 12.1064 0.225145 12.3218 0.20727C13.0037 0.135768 13.6857 0.153641 14.3676 0.260894C15.3007 0.421774 16.1801 0.725623 17.0235 1.11888C18.9258 1.99479 20.505 3.28182 21.9047 4.80124C23.0173 5.9989 24.0223 7.32174 25.0093 8.64452C26.1578 10.1997 27.3242 11.7012 28.8496 12.8989C29.9802 13.7926 31.2364 14.5077 32.672 14.7937C33.0668 14.8652 33.4795 14.883 33.8923 14.9188C33.9641 14.9188 34.0179 14.9725 34.0897 15.0618L31.0569 15.8484C31.0569 15.8484 30.9133 15.7947 30.8416 15.7768L30.8954 15.759ZM10.5452 2.44171C10.5452 2.44171 10.5631 2.44171 10.5811 2.44171C10.5811 2.44171 10.5632 2.44169 10.5452 2.42382C10.5452 2.42382 10.5273 2.42382 10.5093 2.42382C10.5093 2.42382 10.5273 2.42382 10.5452 2.42382V2.44171Z" fill="#DD484D"/>
</svg>
