<svg width="13" height="6" viewBox="0 0 13 6" fill="none" xmlns="http://www.w3.org/2000/svg">
<path d="M11.2688 5.55004C11.2688 5.55004 11.1611 5.58579 11.1252 5.60366C10.8201 5.69304 10.4971 5.72879 10.1741 5.76454C9.97668 5.78241 9.79721 5.81818 9.59981 5.83605C9.56392 5.83605 9.52803 5.8718 9.49214 5.88968C9.49214 5.88968 9.49215 5.88968 9.47421 5.88968C9.42037 5.88968 9.36652 5.88966 9.29474 5.87179C9.29474 5.87179 9.25885 5.87177 9.2409 5.85389C9.13323 5.85389 9.02556 5.90752 8.93583 5.90752C8.39747 5.90752 7.87705 5.90754 7.33869 5.81816C6.81827 5.74666 6.3158 5.60367 5.83127 5.38917C5.31085 5.17466 4.84426 4.87076 4.44946 4.4775C4.28795 4.33449 4.16232 4.15574 4.01876 3.97698C3.91109 3.85185 3.82138 3.70887 3.73165 3.54799C3.57014 3.2441 3.42657 2.94018 3.30095 2.61843C3.19328 2.35029 3.13943 2.06428 3.06765 1.77827C3.06765 1.74252 3.06765 1.70679 3.06765 1.68892C3.06765 1.58166 3.06765 1.47439 3.06765 1.38501C3.06765 1.27776 3.06766 1.15264 3.10355 1.06326C3.17533 0.920258 3.08561 0.902372 2.99588 0.884496C2.99588 0.884496 2.99589 0.884496 2.97795 0.884496H2.94205C2.94205 0.884496 2.90616 0.884496 2.88821 0.884496C2.85232 0.884496 2.83437 0.884496 2.79848 0.884496C2.79848 0.884496 2.79849 0.884496 2.78054 0.884496C2.65493 0.884496 2.5293 0.848765 2.40368 0.848765C2.18833 0.830889 1.97299 0.795123 1.7397 0.777247C1.50641 0.848749 1.27311 0.77728 1.05777 0.866658C1.00393 0.884533 0.950082 0.902369 0.8783 0.93812L0.716797 0.294627C0.914197 0.312503 1.11159 0.348269 1.32694 0.366145C1.48845 0.38402 1.64996 0.401894 1.81147 0.419769C1.93709 0.419769 2.0627 0.419767 2.17038 0.473394C2.2601 0.52702 2.31394 0.473394 2.36778 0.473394C2.36778 0.473394 2.3678 0.473394 2.38574 0.473394C2.43958 0.473394 2.49342 0.49125 2.52931 0.509125C2.54725 0.509125 2.58313 0.509125 2.60108 0.509125C2.87026 0.616378 3.13944 0.634265 3.40862 0.687891C3.46246 0.687891 3.53425 0.72364 3.58809 0.741516C3.58809 0.741516 3.58808 0.741516 3.60602 0.741516C3.73164 0.777267 3.87521 0.813014 4.00082 0.848765C4.00082 0.848765 4.00082 0.848765 4.01876 0.848765C4.00082 0.830889 3.98288 0.795123 3.94699 0.777247C3.94699 0.777247 3.9111 0.759391 3.89316 0.741516C3.85727 0.705765 3.82136 0.687856 3.76752 0.652105C3.76752 0.652105 3.73164 0.634249 3.71369 0.616374C3.6778 0.580623 3.64192 0.562769 3.58809 0.527018C3.78549 0.419765 3.947 0.276752 4.18029 0.294627C4.18029 0.294627 4.18029 0.29461 4.18029 0.276734C4.25207 0.169481 4.37769 0.187361 4.48536 0.169486C4.48536 0.169486 4.52125 0.169486 4.5392 0.169486C4.61098 0.169486 4.70071 0.133737 4.7725 0.115861C5.00579 0.0979856 5.25701 0.098003 5.4903 0.133754C5.81332 0.187381 6.1184 0.294603 6.42348 0.437608C7.08746 0.741492 7.64376 1.18838 8.12829 1.72465C8.52309 2.15366 8.86407 2.60055 9.20503 3.06531C9.59983 3.60158 10.0126 4.13788 10.5509 4.54901C10.9457 4.87077 11.3764 5.12102 11.8969 5.2104C12.0404 5.24615 12.184 5.24615 12.3275 5.26402C12.3455 5.26402 12.3634 5.26402 12.3993 5.31765L11.3405 5.58577C11.3405 5.58577 11.2867 5.58575 11.2688 5.56788V5.55004Z" fill="#DD484D"/>
</svg>
