<svg width="19" height="11" viewBox="0 0 19 11" fill="none" xmlns="http://www.w3.org/2000/svg">
<path d="M17.628 1.84267C17.628 1.84267 17.5921 2.00358 17.5562 2.09296C17.3588 2.5756 17.0896 3.00461 16.8204 3.43362C16.6589 3.68388 16.4974 3.95202 16.3539 4.22015C16.318 4.27378 16.3179 4.34524 16.3 4.39886C16.3 4.39886 16.2821 4.39886 16.2641 4.39886C16.1924 4.47037 16.1386 4.52402 16.0668 4.59552C16.0309 4.59552 16.0128 4.61338 15.977 4.63125C15.8872 4.77426 15.8335 4.93514 15.7258 5.07814C15.2054 5.75741 14.6669 6.40094 14.0568 6.99084C13.4466 7.56285 12.8006 8.06338 12.0649 8.45664C11.2752 8.88566 10.4497 9.17165 9.5704 9.2789C9.22944 9.33253 8.88857 9.33253 8.54761 9.33253C8.27842 9.33253 8.00922 9.33251 7.74004 9.26101C7.20167 9.15376 6.68124 9.04652 6.16082 8.88564C5.73013 8.76051 5.31735 8.54599 4.88665 8.36723C4.83282 8.34936 4.79691 8.31363 4.76102 8.27788C4.63541 8.1885 4.49189 8.09912 4.36628 7.99186C4.24066 7.88461 4.07913 7.77737 4.00734 7.61649C3.89967 7.36623 3.79199 7.49133 3.66637 7.58071C3.66637 7.58071 3.64839 7.58071 3.63045 7.58071C3.63045 7.59858 3.61258 7.61647 3.59463 7.65222C3.59463 7.6701 3.55869 7.68797 3.54074 7.70585C3.50485 7.7416 3.46897 7.77735 3.43307 7.8131C3.43307 7.8131 3.4152 7.81311 3.39726 7.83099C3.25369 7.97399 3.11004 8.11698 2.96647 8.25998C2.71524 8.51024 2.48199 8.76052 2.23076 9.01078C2.08719 9.35042 1.78211 9.60067 1.65649 9.95818C1.6206 10.0476 1.60267 10.1369 1.56678 10.2442L0.597656 9.81515C0.830948 9.58277 1.06427 9.36831 1.29756 9.13592C1.47701 8.95717 1.65646 8.77842 1.85386 8.58179C1.99743 8.43878 2.10517 8.26002 2.26668 8.18852C2.41025 8.1349 2.41024 8.02762 2.48202 7.93824C2.48202 7.93824 2.49989 7.93824 2.51784 7.93824C2.58962 7.88461 2.64354 7.83101 2.71532 7.79526C2.73327 7.75951 2.75115 7.7416 2.7691 7.70585C3.1639 7.47347 3.45104 7.13383 3.79201 6.8657C3.86379 6.81207 3.95354 6.75845 4.04327 6.70482C4.04327 6.70482 4.06114 6.7048 4.07909 6.68693C4.25854 6.5618 4.42012 6.43669 4.59958 6.31156C4.59958 6.31156 4.61745 6.31156 4.63539 6.31156C4.63539 6.31156 4.63548 6.31156 4.61754 6.31156C4.5637 6.31156 4.50982 6.31156 4.45598 6.31156C4.42009 6.31156 4.40217 6.32947 4.36628 6.34734C4.29449 6.36522 4.22272 6.38306 4.15094 6.41881C4.11505 6.41881 4.09712 6.43672 4.06123 6.45459C3.98945 6.47247 3.91764 6.4903 3.80997 6.52606C3.86381 6.16855 3.84581 5.82893 4.09705 5.54292C4.09705 5.54292 4.09705 5.52507 4.09705 5.50719C4.04321 5.31056 4.16888 5.18541 4.25861 5.04241C4.25861 5.02453 4.29444 5.00666 4.31239 4.98879C4.36622 4.88153 4.42012 4.7564 4.49191 4.64915C4.68931 4.32739 4.94048 4.02352 5.20966 3.77326C5.60446 3.41575 6.03521 3.14758 6.50179 2.89732C7.52469 2.36106 8.63734 2.11082 9.78585 2.02144C10.7011 1.94994 11.6162 1.94996 12.5135 1.98571C13.5723 2.02146 14.649 2.02141 15.6899 1.77116C16.4615 1.57453 17.2152 1.27068 17.8254 0.752293C18.0048 0.609288 18.1484 0.430498 18.31 0.269618C18.3279 0.251743 18.3637 0.233887 18.4355 0.233887L17.7357 1.82484C17.7357 1.82484 17.6639 1.87842 17.628 1.8963V1.84267ZM4.85084 6.20431C4.85084 6.20431 4.85075 6.20431 4.86869 6.20431C4.86869 6.20431 4.86878 6.20431 4.85084 6.20431Z" fill="#C12127"/>
</svg>
