<svg width="19" height="16" viewBox="0 0 19 16" fill="none" xmlns="http://www.w3.org/2000/svg">
<path d="M2.49515 0.852488C2.58488 0.852488 2.69256 0.816702 2.78229 0.816702C3.37449 0.816702 3.96667 0.888252 4.55888 0.97763C4.89984 1.03126 5.25873 1.06697 5.59969 1.10272C5.67147 1.10272 5.7433 1.08486 5.81508 1.06699C5.81508 1.06699 5.83301 1.08484 5.85095 1.10272C5.94068 1.13847 6.04836 1.19211 6.13809 1.22786C6.17398 1.24573 6.1919 1.2815 6.22779 1.29938C6.42519 1.31725 6.62261 1.29937 6.80206 1.353C7.75317 1.58538 8.70428 1.87139 9.60155 2.24678C10.4809 2.62216 11.3243 3.1048 12.096 3.69469C12.9215 4.33821 13.6034 5.08898 14.1418 5.98276C14.3392 6.32239 14.5186 6.69779 14.6801 7.0553C14.8057 7.34131 14.9134 7.64519 14.9852 7.94908C15.1288 8.57472 15.2544 9.18247 15.3262 9.82599C15.38 10.3623 15.3621 10.8985 15.38 11.4169C15.38 11.4706 15.3621 11.5241 15.3441 11.5956C15.3082 11.7744 15.2723 11.9711 15.2185 12.1498C15.1647 12.3465 15.1108 12.561 14.9852 12.704C14.7699 12.9364 14.9673 12.99 15.0929 13.0793C15.0929 13.0793 15.1108 13.0972 15.1287 13.1151C15.1646 13.1151 15.1826 13.1151 15.2185 13.1151C15.2364 13.1151 15.2724 13.133 15.2903 13.1509C15.3441 13.1687 15.398 13.1866 15.4518 13.2045C15.4518 13.2045 15.4877 13.2223 15.4877 13.2402C15.703 13.3296 15.9184 13.419 16.1337 13.4905C16.5106 13.6335 16.8874 13.7765 17.2822 13.9195C17.2822 13.9195 17.2822 13.9195 17.3002 13.9195C17.7309 13.9195 18.1436 14.1161 18.5743 14.0983C18.682 14.0983 18.7896 14.0804 18.9153 14.0625V15.2959C18.5743 15.1529 18.2154 15.0099 17.8744 14.8669C17.5873 14.7596 17.3181 14.6524 17.031 14.5273C16.8157 14.4379 16.5644 14.4021 16.4208 14.2591C16.2952 14.134 16.1876 14.1876 16.0619 14.1519C16.0619 14.1519 16.044 14.134 16.026 14.1161C15.9363 14.0625 15.8645 14.0268 15.7748 13.9731C15.7389 13.9731 15.6851 13.9731 15.6492 13.9552C15.2364 13.6513 14.7339 13.4905 14.2853 13.2402C14.1776 13.1866 14.0879 13.1151 13.9982 13.0436C13.9982 13.0436 13.9623 13.0436 13.9623 13.0257C13.7469 12.9006 13.5316 12.7755 13.3163 12.6504C13.3163 12.6504 13.2983 12.6324 13.2804 12.6146C13.2804 12.6146 13.2804 12.6325 13.2804 12.6504C13.3162 12.704 13.3342 12.7576 13.3701 12.8112C13.3881 12.847 13.424 12.8648 13.4419 12.9006C13.4958 12.9721 13.5495 13.0436 13.6213 13.0972C13.6393 13.133 13.6752 13.1508 13.6931 13.1866C13.747 13.2581 13.8008 13.3117 13.8906 13.419C13.4958 13.5441 13.1368 13.705 12.7241 13.562C12.7241 13.562 12.7061 13.5799 12.6882 13.5978C12.5087 13.7408 12.3113 13.6871 12.1139 13.6335C12.078 13.6335 12.0601 13.6156 12.0242 13.5978C11.8806 13.5978 11.737 13.5977 11.5935 13.562C11.1628 13.4905 10.7321 13.3832 10.3194 13.2045C9.76305 12.9542 9.26057 12.6146 8.79398 12.2392C7.75315 11.3812 6.96355 10.3265 6.33546 9.14671C5.83299 8.21718 5.42028 7.23403 5.02548 6.25088C4.55889 5.08897 4.07432 3.96282 3.30267 2.96179C2.72841 2.21102 2.08237 1.56748 1.22099 1.15634C0.987694 1.04909 0.71856 0.97758 0.485268 0.870327C0.449377 0.870327 0.413453 0.816741 0.395508 0.745239H2.40539C2.40539 0.745239 2.49513 0.798827 2.53103 0.816702L2.49515 0.852488ZM13.065 12.4716C13.065 12.4716 13.0651 12.4716 13.0471 12.4716C13.0471 12.4716 13.0471 12.4715 13.0471 12.4894C13.0471 12.4894 13.0471 12.4894 13.065 12.4894V12.4716Z" fill="#F6BF6F"/>
</svg>
