<svg width="9" height="4" viewBox="0 0 9 4" fill="none" xmlns="http://www.w3.org/2000/svg">
<path d="M1.00909 1.23092C1.00909 1.23092 1.06301 1.17728 1.0989 1.1594C1.27836 1.03427 1.47566 0.944888 1.67306 0.873386C1.79868 0.81976 1.90637 0.766139 2.03199 0.712513C2.04994 0.712513 2.06794 0.676764 2.08588 0.658888C2.12177 0.658888 2.15766 0.658871 2.19355 0.640995C2.19355 0.640995 2.21153 0.640995 2.22948 0.640995C2.30126 0.605244 2.35507 0.569515 2.42685 0.55164C2.76781 0.444386 3.1087 0.337089 3.46761 0.283463C3.80857 0.229836 4.16753 0.21198 4.52644 0.247731C4.9033 0.283483 5.26216 0.390723 5.60313 0.569478C5.72875 0.64098 5.8544 0.712491 5.98002 0.801869C6.06975 0.873371 6.15952 0.944864 6.24925 1.01637C6.41076 1.17725 6.57228 1.35602 6.71585 1.53477C6.84147 1.69565 6.93118 1.85651 7.03885 2.01739C7.03885 2.01739 7.03876 2.05314 7.05671 2.07102C7.07465 2.14252 7.11061 2.19617 7.12856 2.26768C7.14651 2.33918 7.18243 2.41067 7.16449 2.48217C7.14654 2.58943 7.21832 2.57158 7.27215 2.57158C7.27215 2.57158 7.29003 2.57158 7.30797 2.57158C7.30797 2.57158 7.32595 2.57158 7.3439 2.57158C7.36184 2.57158 7.37973 2.57158 7.39768 2.57158C7.39768 2.57158 7.39769 2.57158 7.41564 2.57158C7.50537 2.57158 7.57718 2.53578 7.6669 2.5179C7.81047 2.48215 7.95401 2.4643 8.09758 2.42855C8.2232 2.33917 8.40263 2.32132 8.52825 2.23194C8.56414 2.21407 8.58208 2.1783 8.63592 2.16043L8.86922 2.55369C8.72566 2.57157 8.60007 2.60733 8.45651 2.62521C8.34884 2.64308 8.24118 2.66096 8.1335 2.67883C8.04378 2.67883 7.97198 2.73244 7.9002 2.71456C7.82842 2.71456 7.81046 2.73242 7.77457 2.7503C7.73868 2.7503 7.70279 2.7503 7.6669 2.7503H7.63098C7.43358 2.7503 7.25413 2.78604 7.07467 2.80392C7.03878 2.80392 6.98493 2.80392 6.94904 2.80392C6.94904 2.80392 6.94913 2.80392 6.93119 2.80392C6.84146 2.80392 6.75169 2.80392 6.66196 2.80392C6.6799 2.80392 6.6979 2.82183 6.71585 2.83971C6.71585 2.83971 6.73372 2.83971 6.75167 2.83971C6.78756 2.83971 6.80548 2.85756 6.84137 2.87544C6.84137 2.87544 6.85935 2.87544 6.8773 2.87544C6.91319 2.87544 6.93113 2.89329 6.98496 2.91117C6.87729 3.01842 6.80551 3.14359 6.644 3.17935C6.60811 3.26872 6.53637 3.28656 6.46459 3.30443C6.46459 3.30443 6.4466 3.30443 6.42866 3.30443C6.37482 3.32231 6.3389 3.35807 6.28506 3.37595C6.1415 3.44745 5.98008 3.48322 5.81857 3.50109C5.60323 3.53684 5.36984 3.51897 5.15449 3.50109C4.66996 3.44747 4.22142 3.25085 3.79072 3.01847C3.44976 2.82184 3.12667 2.60731 2.8216 2.37492C2.46269 2.10679 2.0859 1.85653 1.65521 1.69565C1.33219 1.57052 1.00908 1.49902 0.668117 1.53477C0.57839 1.53477 0.470765 1.57052 0.381037 1.5884C0.381037 1.5884 0.345094 1.58838 0.327148 1.5705L0.955306 1.17724C0.955306 1.17724 0.99114 1.17724 1.00909 1.17724V1.23092Z" fill="#EA885E"/>
</svg>
