<svg width="38" height="19" viewBox="0 0 38 19" fill="none" xmlns="http://www.w3.org/2000/svg">
<path d="M33.9889 17.4382C33.8274 17.4918 33.6838 17.5812 33.5223 17.617C32.5532 17.8851 31.5483 17.9924 30.5433 18.1175C29.9511 18.189 29.3589 18.2605 28.7667 18.3499C28.6411 18.3678 28.5334 18.4571 28.4258 18.5108C28.4078 18.5108 28.3899 18.4928 28.3719 18.475C28.1925 18.4571 28.013 18.4214 27.8335 18.4035C27.7797 18.3678 27.7259 18.3498 27.672 18.3141C27.349 18.3677 27.026 18.4571 26.685 18.4571C25.0161 18.475 23.3292 18.4214 21.6782 18.1711C20.0631 17.9209 18.466 17.5097 16.9586 16.8483C15.3435 16.1512 13.8899 15.1859 12.6337 13.9525C12.1492 13.4698 11.7185 12.9515 11.3057 12.4152C10.9827 11.9862 10.6597 11.5572 10.4264 11.0745C9.9419 10.1092 9.45735 9.14394 9.06255 8.14291C8.73953 7.30276 8.54216 6.409 8.30887 5.5331C8.29093 5.44372 8.30887 5.3365 8.30887 5.22925C8.30887 4.90749 8.255 4.58571 8.27295 4.26395C8.27295 3.92432 8.27298 3.53104 8.41654 3.24503C8.66778 2.78027 8.34476 2.76238 8.07557 2.673C8.05763 2.673 8.03967 2.65515 8.00378 2.63727C7.94994 2.63727 7.91407 2.63729 7.86024 2.65517C7.8064 2.65517 7.77048 2.65517 7.71664 2.65517C7.62691 2.65517 7.51923 2.65515 7.42951 2.63727C7.39362 2.63727 7.37569 2.61942 7.3398 2.60154C6.945 2.54791 6.55019 2.51213 6.15539 2.45851C5.47346 2.387 4.7736 2.31551 4.09167 2.24401C4.09167 2.24401 4.07369 2.24401 4.05575 2.24401C3.33793 2.44064 2.58423 2.27975 1.88436 2.51213C1.72285 2.56576 1.5434 2.63725 1.32805 2.72663L0.807617 0.688846C1.43571 0.778224 2.08174 0.849697 2.70983 0.939075C3.21231 1.01058 3.71479 1.06423 4.23521 1.13573C4.61207 1.18936 5.04277 1.13575 5.36579 1.3145C5.63497 1.4575 5.79651 1.33234 6.01185 1.33234C6.0298 1.33234 6.06565 1.35025 6.0836 1.36812C6.2451 1.40388 6.40663 1.43959 6.5502 1.49321C6.62198 1.49321 6.69375 1.49321 6.76553 1.49321C7.59103 1.81497 8.47038 1.85075 9.31382 2.08314C9.51122 2.13676 9.69063 2.20824 9.88803 2.27974C9.92392 2.27974 9.9419 2.27976 9.97779 2.29763C10.3905 2.42276 10.8033 2.53004 11.216 2.65517C11.234 2.65517 11.2519 2.67302 11.2699 2.6909C11.2699 2.6909 11.2699 2.65515 11.2699 2.63727C11.1981 2.56577 11.1263 2.47638 11.0545 2.40488C11.0007 2.36913 10.9468 2.33338 10.9109 2.29763C10.7853 2.20826 10.6597 2.11889 10.5341 2.02951C10.4803 1.99376 10.4264 1.95801 10.3905 1.92226C10.2649 1.83288 10.1572 1.74348 9.97779 1.61835C10.5879 1.26084 11.1084 0.813948 11.8441 0.885451C11.8441 0.867575 11.8621 0.849739 11.88 0.813988C12.1133 0.492228 12.4722 0.51008 12.8132 0.51008C12.867 0.51008 12.9209 0.51008 12.9567 0.51008C13.208 0.456453 13.4413 0.384975 13.6925 0.367099C14.4462 0.295597 15.1999 0.295595 15.9536 0.420724C16.9765 0.599479 17.9456 0.939112 18.8787 1.36812C20.9604 2.3334 22.7191 3.74553 24.2444 5.40796C25.4647 6.73075 26.5774 8.17869 27.6541 9.62661C28.9103 11.3248 30.2023 12.9872 31.8713 14.31C33.1274 15.2931 34.4913 16.0797 36.0705 16.3836C36.5012 16.4729 36.9678 16.4729 37.4165 16.5265C37.4882 16.5265 37.56 16.5802 37.6318 16.6874L34.3119 17.5455C34.3119 17.5455 34.1504 17.4918 34.0786 17.4739L33.9889 17.4382ZM11.6287 2.79815C11.6287 2.79815 11.6467 2.79815 11.6647 2.79815C11.6647 2.79815 11.6467 2.79813 11.6287 2.78025C11.6287 2.78025 11.6108 2.78025 11.5929 2.78025C11.5929 2.78025 11.6108 2.78025 11.6287 2.78025V2.79815Z" fill="#F6BF6F"/>
</svg>
