<svg width="253" height="160" viewBox="0 0 253 160" fill="none" xmlns="http://www.w3.org/2000/svg">
<path d="M229.749 39.2148L249.073 62.9766H210.425L229.749 39.2148Z" fill="#84010B"/>
<rect x="41.0137" y="42.6635" width="103.682" height="18.5075" fill="#84010B"/>
<rect x="118.858" y="61.1719" width="99.32" height="98.4976" fill="#C11F25"/>
<rect x="179.588" y="31.9982" width="41.607" height="127.67" fill="#9A191E"/>
<rect x="213.815" y="74.6593" width="3.69095" height="6.27373" fill="#E08F92"/>
<rect x="213.815" y="89.4028" width="3.69095" height="6.27373" fill="#E08F92"/>
<rect x="213.815" y="103.834" width="3.69095" height="6.27373" fill="#E08F92"/>
<rect x="213.815" y="118.574" width="3.69095" height="6.27373" fill="#E08F92"/>
<path d="M196.181 60.9118C189.094 60.903 190.037 61.5426 190.054 56.3887C190.072 51.2347 192.836 47.06 196.228 47.0642C199.62 47.0684 202.356 51.2499 202.339 56.4038C202.321 61.5578 203.268 60.9205 196.181 60.9118Z" fill="#E08F92"/>
<rect width="12.4012" height="4.03306" transform="matrix(-1 0 0 1 202.412 57.1374)" fill="#E08F92"/>
<rect x="188.316" y="46.1141" width="15.0993" height="1.25475" fill="#84010B"/>
<rect x="221.196" y="61.1719" width="28.1854" height="98.4976" fill="#931E22"/>
<rect x="221.196" y="60.2291" width="30.1986" height="8.15585" fill="#84010B"/>
<path d="M230.557 37.0388H229.289V41.2678H230.557V37.0388Z" fill="#84010B"/>
<path d="M229.927 35.1357L229.256 37.1181H230.598L229.927 35.1357Z" fill="#84010B"/>
<path d="M229.924 35.4529C230.041 35.4529 230.136 35.3819 230.136 35.2943C230.136 35.2067 230.041 35.1357 229.924 35.1357C229.808 35.1357 229.713 35.2067 229.713 35.2943C229.713 35.3819 229.808 35.4529 229.924 35.4529Z" fill="#C11F25"/>
<rect x="245.7" y="59.2894" width="5.70419" height="10.3517" fill="#84010B"/>
<rect x="224.551" y="80.9335" width="11.0728" height="1.88212" fill="#84010B"/>
<rect x="224.551" y="95.678" width="11.0728" height="1.88212" fill="#84010B"/>
<rect x="224.551" y="110.106" width="11.0728" height="1.88212" fill="#84010B"/>
<rect x="224.551" y="124.851" width="11.0728" height="1.88212" fill="#84010B"/>
<rect x="225.557" y="74.6607" width="3.69095" height="6.27373" fill="#EEE4D4"/>
<rect x="230.922" y="74.6607" width="3.69095" height="6.27373" fill="#EEE4D4"/>
<rect x="225.557" y="89.4031" width="3.69095" height="6.27373" fill="#EEE4D4"/>
<rect x="230.922" y="89.4031" width="3.69095" height="6.27373" fill="#EEE4D4"/>
<rect x="225.557" y="103.833" width="3.69095" height="6.27373" fill="#EEE4D4"/>
<rect x="230.922" y="103.833" width="3.69095" height="6.27373" fill="#EEE4D4"/>
<rect x="225.557" y="118.576" width="3.69095" height="6.27373" fill="#EEE4D4"/>
<rect x="230.922" y="118.576" width="3.69095" height="6.27373" fill="#EEE4D4"/>
<rect x="240.994" y="74.6593" width="3.69095" height="6.27373" fill="#E08F92"/>
<rect x="240.994" y="89.4028" width="3.69095" height="6.27373" fill="#E08F92"/>
<rect x="240.994" y="103.834" width="3.69095" height="6.27373" fill="#E08F92"/>
<rect x="240.994" y="118.574" width="3.69095" height="6.27373" fill="#E08F92"/>
<rect x="175.903" y="69.3271" width="34.5607" height="90.3417" fill="#931E22"/>
<rect x="179.588" y="61.1719" width="34.5607" height="8.15585" fill="#84010B"/>
<rect x="22.2197" y="61.1719" width="130.525" height="98.4976" fill="#9A191E"/>
<rect x="2.76465" y="61.1719" width="50.6666" height="98.4976" fill="#C11F25"/>
<rect x="67.1807" y="77.4817" width="5.70419" height="11.6064" fill="#EEE4D4"/>
<rect x="67.1807" y="112.301" width="5.70419" height="11.6064" fill="#EEE4D4"/>
<rect x="67.1807" y="95.0473" width="5.70419" height="11.6064" fill="#EEE4D4"/>
<rect x="110.13" y="77.4807" width="5.70419" height="11.6064" fill="#EEE4D4"/>
<rect x="110.13" y="112.3" width="5.70419" height="11.6064" fill="#EEE4D4"/>
<rect x="110.13" y="95.0473" width="5.70419" height="11.6064" fill="#EEE4D4"/>
<rect x="88.6533" y="77.4817" width="5.70419" height="11.6064" fill="#EEE4D4"/>
<rect x="88.6533" y="112.301" width="5.70419" height="11.6064" fill="#EEE4D4"/>
<rect x="88.6533" y="95.0473" width="5.70419" height="11.6064" fill="#EEE4D4"/>
<rect x="23.8984" y="61.1719" width="9.05959" height="73.089" fill="#931E22"/>
<rect x="32.957" y="61.1719" width="4.02649" height="73.089" fill="#E9AEB1"/>
<rect x="19.8779" y="61.1719" width="4.02649" height="73.089" fill="#E9AEB1"/>
<rect x="25.5781" y="77.4807" width="5.70419" height="11.6064" fill="#EEE4D4"/>
<rect x="25.5781" y="112.3" width="5.70419" height="11.6064" fill="#EEE4D4"/>
<rect x="25.5781" y="95.0473" width="5.70419" height="11.6064" fill="#EEE4D4"/>
<rect x="9.46973" y="77.4807" width="5.70419" height="11.6064" fill="#E08F92"/>
<rect x="9.46973" y="112.3" width="5.70419" height="11.6064" fill="#E08F92"/>
<rect x="9.46973" y="95.0473" width="5.70419" height="11.6064" fill="#E08F92"/>
<rect x="41.6865" y="77.4817" width="5.70419" height="11.6064" fill="#E08F92"/>
<rect x="41.6865" y="112.301" width="5.70419" height="11.6064" fill="#E08F92"/>
<rect x="41.6865" y="95.0473" width="5.70419" height="11.6064" fill="#E08F92"/>
<path d="M70.0377 46.1141L77.4477 65.8764H62.6278L70.0377 46.1141Z" fill="#9A191E"/>
<path d="M91.8483 46.1141L99.2582 65.8764H84.4383L91.8483 46.1141Z" fill="#9A191E"/>
<path d="M112.986 46.1141L120.396 65.8764H105.576L112.986 46.1141Z" fill="#9A191E"/>
<rect x="23.8984" y="61.1719" width="1.6777" height="73.089" fill="#84010B"/>
<rect x="31.2852" y="61.1719" width="1.6777" height="73.089" fill="#84010B"/>
<rect x="128.918" y="61.1699" width="50.6666" height="98.4976" fill="#C11F25"/>
<rect x="150.059" y="61.1699" width="9.05959" height="73.089" fill="#931E22"/>
<rect x="159.117" y="61.1699" width="4.02649" height="73.089" fill="#E9AEB1"/>
<rect x="146.031" y="61.1699" width="4.02649" height="73.089" fill="#E9AEB1"/>
<rect x="151.736" y="77.4797" width="5.70419" height="11.6064" fill="#EEE4D4"/>
<rect x="151.736" y="112.299" width="5.70419" height="11.6064" fill="#EEE4D4"/>
<rect x="151.736" y="95.0463" width="5.70419" height="11.6064" fill="#EEE4D4"/>
<rect x="150.059" y="61.1699" width="1.6777" height="73.089" fill="#84010B"/>
<rect x="157.438" y="61.1699" width="1.6777" height="73.089" fill="#84010B"/>
<rect x="128.917" y="134.259" width="1.34216" height="25.4086" fill="#931E22"/>
<path d="M28.2629 10.0415L47.4416 52.1539H9.08414L28.2629 10.0415Z" fill="#931E22"/>
<path d="M28.4342 21.6475L35.8442 41.4098H21.0243L28.4342 21.6475Z" fill="#C11F25"/>
<path d="M21.1831 36.8657H19.915V41.4088H21.1831V36.8657Z" fill="#84010B"/>
<path d="M20.551 34.822L19.8799 36.9516H21.222L20.551 34.822Z" fill="#84010B"/>
<path d="M20.5483 35.1628C20.665 35.1628 20.7596 35.0865 20.7596 34.9924C20.7596 34.8983 20.665 34.822 20.5483 34.822C20.4315 34.822 20.3369 34.8983 20.3369 34.9924C20.3369 35.0865 20.4315 35.1628 20.5483 35.1628Z" fill="#C11F25"/>
<path d="M37.2817 36.8657H36.0137V41.4088H37.2817V36.8657Z" fill="#84010B"/>
<path d="M36.6516 34.822L35.9805 36.9516H37.3226L36.6516 34.822Z" fill="#84010B"/>
<path d="M36.6488 35.1628C36.7656 35.1628 36.8602 35.0865 36.8602 34.9924C36.8602 34.8983 36.7656 34.822 36.6488 34.822C36.5321 34.822 36.4375 34.8983 36.4375 34.9924C36.4375 35.0865 36.5321 35.1628 36.6488 35.1628Z" fill="#C11F25"/>
<path d="M28.893 18.674H27.625V23.217H28.893V18.674Z" fill="#84010B"/>
<path d="M28.2629 16.6282L27.5918 18.7577H28.934L28.2629 16.6282Z" fill="#84010B"/>
<path d="M28.2602 16.9689C28.3769 16.9689 28.4715 16.8926 28.4715 16.7985C28.4715 16.7044 28.3769 16.6282 28.2602 16.6282C28.1434 16.6282 28.0488 16.7044 28.0488 16.7985C28.0488 16.8926 28.1434 16.9689 28.2602 16.9689Z" fill="#C11F25"/>
<rect x="19.5459" y="41.4109" width="17.7836" height="16.3117" fill="#C11F25"/>
<rect x="23.9004" y="47.3705" width="3.69095" height="6.27373" fill="#EEE4D4"/>
<rect x="29.2725" y="47.3705" width="3.69095" height="6.27373" fill="#EEE4D4"/>
<rect x="0.0800781" y="57.7216" width="53.3509" height="3.45055" fill="#84010B"/>
<rect x="0.0800781" y="47.9969" width="10.0662" height="1.88212" fill="#84010B"/>
<rect x="43.3672" y="47.9969" width="10.0662" height="1.88212" fill="#84010B"/>
<rect x="62.4854" y="59.2894" width="4.02649" height="1.88212" fill="#84010B"/>
<rect x="56.7822" y="132.378" width="4.02649" height="1.88212" fill="#931E22"/>
<rect x="78.5928" y="132.378" width="4.02649" height="1.88212" fill="#931E22"/>
<rect x="100.405" y="132.378" width="4.02649" height="1.88212" fill="#931E22"/>
<rect x="121.543" y="132.378" width="4.02649" height="1.88212" fill="#931E22"/>
<rect x="73.5586" y="59.2894" width="4.02649" height="1.88212" fill="#84010B"/>
<rect x="84.2939" y="59.2894" width="4.02649" height="1.88212" fill="#84010B"/>
<rect x="95.374" y="59.2894" width="4.02649" height="1.88212" fill="#84010B"/>
<rect x="105.098" y="59.2894" width="4.02649" height="1.88212" fill="#84010B"/>
<rect x="116.176" y="59.2894" width="4.02649" height="1.88212" fill="#84010B"/>
<rect x="19.5371" y="41.4095" width="17.7836" height="1.88212" fill="#84010B"/>
<rect x="127.919" y="47.996" width="52.6799" height="13.1748" fill="#931E22"/>
<path d="M154.427 10.0382L173.606 52.1506H135.248L154.427 10.0382Z" fill="#931E22"/>
<path d="M154.591 21.6442L162.001 41.4065H147.181L154.591 21.6442Z" fill="#C11F25"/>
<path d="M147.339 36.8645H146.071V41.4076H147.339V36.8645Z" fill="#84010B"/>
<path d="M146.709 34.8208L146.038 36.9504H147.38L146.709 34.8208Z" fill="#84010B"/>
<path d="M146.706 35.1615C146.823 35.1615 146.918 35.0853 146.918 34.9912C146.918 34.8971 146.823 34.8208 146.706 34.8208C146.59 34.8208 146.495 34.8971 146.495 34.9912C146.495 35.0853 146.59 35.1615 146.706 35.1615Z" fill="#C11F25"/>
<path d="M163.448 36.8645H162.18V41.4076H163.448V36.8645Z" fill="#84010B"/>
<path d="M162.818 34.8208L162.146 36.9504H163.489L162.818 34.8208Z" fill="#84010B"/>
<path d="M162.815 35.1615C162.932 35.1615 163.026 35.0853 163.026 34.9912C163.026 34.8971 162.932 34.8208 162.815 34.8208C162.698 34.8208 162.604 34.8971 162.604 34.9912C162.604 35.0853 162.698 35.1615 162.815 35.1615Z" fill="#C11F25"/>
<path d="M155.062 18.6696H153.794V23.2127H155.062V18.6696Z" fill="#84010B"/>
<path d="M154.432 16.6259L153.761 18.7555H155.103L154.432 16.6259Z" fill="#84010B"/>
<path d="M154.429 16.9666C154.546 16.9666 154.64 16.8904 154.64 16.7963C154.64 16.7022 154.546 16.6259 154.429 16.6259C154.312 16.6259 154.218 16.7022 154.218 16.7963C154.218 16.8904 154.312 16.9666 154.429 16.9666Z" fill="#C11F25"/>
<path d="M155.062 7.37701H153.794V11.9201H155.062V7.37701Z" fill="#84010B"/>
<path d="M154.432 5.33331L153.761 7.46287H155.103L154.432 5.33331Z" fill="#84010B"/>
<path d="M154.429 5.67404C154.546 5.67404 154.64 5.59777 154.64 5.50368C154.64 5.40959 154.546 5.33331 154.429 5.33331C154.312 5.33331 154.218 5.40959 154.218 5.50368C154.218 5.59777 154.312 5.67404 154.429 5.67404Z" fill="#C11F25"/>
<rect x="145.701" y="41.4076" width="17.7836" height="16.3117" fill="#C11F25"/>
<rect x="150.068" y="47.3672" width="3.69095" height="6.27373" fill="#EEE4D4"/>
<rect x="155.43" y="47.3672" width="3.69095" height="6.27373" fill="#EEE4D4"/>
<rect x="127.92" y="47.9957" width="11.0728" height="1.88212" fill="#84010B"/>
<rect x="169.523" y="47.9957" width="11.0728" height="1.88212" fill="#84010B"/>
<rect x="145.701" y="41.4082" width="17.7836" height="1.88212" fill="#84010B"/>
<rect x="53.4268" y="134.261" width="75.4966" height="25.4086" fill="#84010B"/>
<path d="M91.4768 159.76C82.0913 159.75 83.3397 160.493 83.3628 154.508C83.386 148.523 87.0465 143.675 91.5389 143.68C96.0313 143.685 99.6543 148.54 99.6312 154.526C99.6081 160.511 100.862 159.771 91.4768 159.76Z" fill="#E08F92"/>
<rect width="16.4232" height="4.68348" transform="matrix(-1 0 0 1 99.7285 154.98)" fill="#E08F92"/>
<path d="M112.957 159.759C103.572 159.749 104.82 160.492 104.843 154.507C104.866 148.522 108.527 143.674 113.019 143.679C117.512 143.684 121.135 148.539 121.112 154.525C121.089 160.51 122.343 159.77 112.957 159.759Z" fill="#E08F92"/>
<rect width="16.4232" height="4.68348" transform="matrix(-1 0 0 1 121.209 154.979)" fill="#E08F92"/>
<path d="M70.008 159.759C60.6225 159.749 61.871 160.492 61.8941 154.507C61.9172 148.522 65.5777 143.674 70.0701 143.679C74.5625 143.684 78.1856 148.539 78.1625 154.525C78.1394 160.51 79.3935 159.77 70.008 159.759Z" fill="#E08F92"/>
<rect width="16.4232" height="4.68348" transform="matrix(-1 0 0 1 78.2598 154.979)" fill="#E08F92"/>
<path d="M20.4544 154.509C20.4516 155.231 20.4311 155.856 20.4136 156.391L20.4111 156.467C20.393 157.024 20.3798 157.468 20.3923 157.834C20.4179 158.584 20.5496 158.82 20.7584 158.957C20.8896 159.043 21.0995 159.122 21.4515 159.179C21.8014 159.236 22.2551 159.265 22.8496 159.278C23.5095 159.292 24.3066 159.284 25.285 159.276C26.0843 159.268 27.0047 159.26 28.0702 159.261C29.1357 159.262 30.056 159.273 30.8553 159.282C31.8336 159.293 32.6306 159.302 33.2906 159.289C33.8853 159.278 34.3392 159.249 34.6895 159.193C35.042 159.137 35.2524 159.059 35.3843 158.973C35.5942 158.836 35.7277 158.601 35.7591 157.851C35.7744 157.485 35.7647 157.041 35.7508 156.484L35.7489 156.408C35.7356 155.873 35.7199 155.248 35.7227 154.526C35.7344 151.512 35.7285 147.989 34.7411 145.22C34.2516 143.846 33.5311 142.691 32.4793 141.878C31.4323 141.068 30.0145 140.564 28.0669 140.564C26.119 140.564 24.7078 141.067 23.6697 141.874C22.6266 142.684 21.9156 143.836 21.4337 145.206C20.4791 147.923 20.4662 151.362 20.455 154.343C20.4548 154.398 20.4546 154.454 20.4544 154.509Z" fill="#E08F92" stroke="#84010B"/>
<rect x="-0.5" y="0.5" width="15.4415" height="1.19581" transform="matrix(-1 0 0 1 35.3232 157.473)" fill="#E08F92" stroke="#84010B"/>
<rect x="76.9219" y="140.219" width="7.71743" height="19.4486" fill="#931E22"/>
<rect x="55.1094" y="140.219" width="7.71743" height="19.4486" fill="#931E22"/>
<rect x="119.529" y="140.219" width="7.71743" height="19.4486" fill="#931E22"/>
<rect x="98.3936" y="140.219" width="7.71743" height="19.4486" fill="#931E22"/>
<rect x="54.7725" y="138.964" width="8.38851" height="2.19581" fill="#931E22"/>
<rect x="76.5859" y="138.964" width="8.38851" height="2.19581" fill="#931E22"/>
<rect x="98.0596" y="138.964" width="8.38851" height="2.19581" fill="#931E22"/>
<rect x="119.197" y="138.964" width="8.38851" height="2.19581" fill="#931E22"/>
<rect x="51.418" y="134.26" width="79.5231" height="4.7053" fill="#931E22"/>
<rect x="51.418" y="134.26" width="79.5231" height="0.94106" fill="#9A191E"/>
<rect x="52.0889" y="135.2" width="1.34216" height="24.4676" fill="#931E22"/>
<rect x="135.31" y="77.1677" width="5.70419" height="11.6064" fill="#E08F92"/>
<rect x="135.31" y="111.987" width="5.70419" height="11.6064" fill="#E08F92"/>
<rect x="135.31" y="94.7344" width="5.70419" height="11.6064" fill="#E08F92"/>
<rect x="167.517" y="77.1681" width="5.70419" height="11.6064" fill="#E08F92"/>
<rect x="209.454" y="60.23" width="5.70419" height="10.3517" fill="#84010B"/>
<rect x="167.517" y="111.989" width="5.70419" height="11.6064" fill="#E08F92"/>
<rect x="167.517" y="94.7358" width="5.70419" height="11.6064" fill="#E08F92"/>
<rect x="69.5342" y="45.8009" width="1.00662" height="1.88212" fill="#9A191E"/>
<rect x="91.3398" y="45.8009" width="1.00662" height="1.88212" fill="#9A191E"/>
<rect x="112.484" y="45.8009" width="1.00662" height="1.88212" fill="#9A191E"/>
<rect x="60.8086" y="69.3246" width="1.6777" height="1.88212" fill="#84010B"/>
<rect x="65.833" y="69.3246" width="1.34216" height="1.88212" fill="#84010B"/>
<rect x="56.1064" y="69.3246" width="1.34216" height="1.88212" fill="#84010B"/>
<rect x="70.5352" y="69.3246" width="1.6777" height="1.88212" fill="#84010B"/>
<rect x="90.001" y="69.3246" width="1.6777" height="1.88212" fill="#84010B"/>
<rect x="99.7295" y="69.3246" width="1.6777" height="1.88212" fill="#84010B"/>
<rect x="95.0254" y="69.3246" width="1.34216" height="1.88212" fill="#84010B"/>
<rect x="104.761" y="69.3246" width="1.34216" height="1.88212" fill="#84010B"/>
<rect x="114.489" y="69.3246" width="1.34216" height="1.88212" fill="#84010B"/>
<rect x="109.454" y="69.3246" width="1.6777" height="1.88212" fill="#84010B"/>
<rect x="124.221" y="69.3246" width="1.34216" height="1.88212" fill="#84010B"/>
<rect x="119.189" y="69.3246" width="1.6777" height="1.88212" fill="#84010B"/>
<rect x="85.2949" y="69.3246" width="1.34216" height="1.88212" fill="#84010B"/>
<rect x="80.2637" y="69.3246" width="1.6777" height="1.88212" fill="#84010B"/>
<rect x="75.5684" y="69.3246" width="1.34216" height="1.88212" fill="#84010B"/>
<rect x="53.4219" y="66.1892" width="75.4966" height="3.13687" fill="#84010B"/>
<rect x="133.072" y="61.7972" width="1.17066" height="1.88212" fill="#84010B"/>
<rect x="136.581" y="61.7972" width="0.936531" height="1.88212" fill="#84010B"/>
<rect x="129.794" y="61.7972" width="0.936531" height="1.88212" fill="#84010B"/>
<rect x="139.859" y="61.7972" width="1.17066" height="1.88212" fill="#84010B"/>
<rect x="153.437" y="61.7972" width="1.17066" height="1.88212" fill="#84010B"/>
<rect x="160.234" y="61.7972" width="1.17066" height="1.88212" fill="#84010B"/>
<rect x="156.952" y="61.7972" width="0.936531" height="1.88212" fill="#84010B"/>
<rect x="163.739" y="61.7972" width="0.936531" height="1.88212" fill="#84010B"/>
<rect x="170.523" y="61.7972" width="0.936531" height="1.88212" fill="#84010B"/>
<rect x="167.02" y="61.7972" width="1.17066" height="1.88212" fill="#84010B"/>
<rect x="177.319" y="61.7972" width="0.936531" height="1.88212" fill="#84010B"/>
<rect x="173.804" y="61.7972" width="1.17066" height="1.88212" fill="#84010B"/>
<rect x="150.161" y="61.7972" width="0.936531" height="1.88212" fill="#84010B"/>
<rect x="146.644" y="61.7972" width="1.17066" height="1.88212" fill="#84010B"/>
<rect x="143.365" y="61.7972" width="0.936531" height="1.88212" fill="#84010B"/>
<rect x="127.918" y="58.6619" width="52.6799" height="3.13687" fill="#84010B"/>
<rect x="178.246" y="28.7859" width="44.6269" height="8.68509" fill="#931E22"/>
<path d="M200.699 3.76337L216.946 31.5246H184.452L200.699 3.76337Z" fill="#931E22"/>
<path d="M200.847 11.4165L207.124 24.4441H194.57L200.847 11.4165Z" fill="#C11F25"/>
<path d="M194.697 21.4483H193.623V24.4432H194.697V21.4483Z" fill="#84010B"/>
<path d="M194.163 20.1009L193.595 21.5047H194.732L194.163 20.1009Z" fill="#84010B"/>
<path d="M194.16 20.3255C194.259 20.3255 194.34 20.2752 194.34 20.2132C194.34 20.1512 194.259 20.1009 194.16 20.1009C194.062 20.1009 193.981 20.1512 193.981 20.2132C193.981 20.2752 194.062 20.3255 194.16 20.3255Z" fill="#C11F25"/>
<path d="M208.343 21.4493H207.269V24.4442H208.343V21.4493Z" fill="#84010B"/>
<path d="M207.809 20.1017L207.24 21.5056H208.377L207.809 20.1017Z" fill="#84010B"/>
<path d="M207.808 20.3264C207.907 20.3264 207.987 20.2761 207.987 20.2141C207.987 20.1521 207.907 20.1018 207.808 20.1018C207.709 20.1018 207.629 20.1521 207.629 20.2141C207.629 20.2761 207.709 20.3264 207.808 20.3264Z" fill="#C11F25"/>
<path d="M201.235 9.45508H200.161V12.4499H201.235V9.45508Z" fill="#84010B"/>
<path d="M200.701 8.10754L200.133 9.51139H201.27L200.701 8.10754Z" fill="#84010B"/>
<path d="M200.699 8.33216C200.797 8.33216 200.878 8.28188 200.878 8.21985C200.878 8.15783 200.797 8.10754 200.699 8.10754C200.6 8.10754 200.52 8.15783 200.52 8.21985C200.52 8.28188 200.6 8.33216 200.699 8.33216Z" fill="#C11F25"/>
<path d="M201.154 1.97546H200.08V4.97033H201.154V1.97546Z" fill="#84010B"/>
<path d="M200.62 0.628052L200.052 2.0319H201.189L200.62 0.628052Z" fill="#84010B"/>
<path d="M200.618 0.852667C200.716 0.852667 200.797 0.802385 200.797 0.740359C200.797 0.678334 200.716 0.628052 200.618 0.628052C200.519 0.628052 200.438 0.678334 200.438 0.740359C200.438 0.802385 200.519 0.852667 200.618 0.852667Z" fill="#C11F25"/>
<rect x="193.309" y="24.4438" width="15.0651" height="10.753" fill="#C11F25"/>
<rect x="178.245" y="28.786" width="9.38017" height="1.24073" fill="#84010B"/>
<rect x="213.49" y="28.786" width="9.38017" height="1.24073" fill="#84010B"/>
<rect x="198.714" y="26.9794" width="3.69095" height="6.27373" fill="#EEE4D4"/>
<rect x="193.342" y="23.8419" width="15.0993" height="1.25475" fill="#84010B"/>
<rect x="183.403" y="40.4662" width="1.17066" height="1.88212" fill="#84010B"/>
<rect x="186.912" y="40.4662" width="0.936531" height="1.88212" fill="#84010B"/>
<rect x="180.125" y="40.4662" width="0.936531" height="1.88212" fill="#84010B"/>
<rect x="190.19" y="40.4662" width="1.17066" height="1.88212" fill="#84010B"/>
<rect x="203.768" y="40.4662" width="1.17066" height="1.88212" fill="#84010B"/>
<rect x="210.565" y="40.4662" width="1.17066" height="1.88212" fill="#84010B"/>
<rect x="207.283" y="40.4662" width="0.936531" height="1.88212" fill="#84010B"/>
<rect x="214.07" y="40.4662" width="0.936531" height="1.88212" fill="#84010B"/>
<rect x="220.854" y="40.4662" width="0.936531" height="1.88212" fill="#84010B"/>
<rect x="217.351" y="40.4662" width="1.17066" height="1.88212" fill="#84010B"/>
<rect x="200.492" y="40.4662" width="0.936531" height="1.88212" fill="#84010B"/>
<rect x="196.977" y="40.4662" width="1.17066" height="1.88212" fill="#84010B"/>
<rect x="193.696" y="40.4662" width="0.936531" height="1.88212" fill="#84010B"/>
<rect x="178.249" y="37.3308" width="44.6269" height="3.13687" fill="#84010B"/>
<rect x="226.354" y="70.2656" width="1.17066" height="1.88212" fill="#84010B"/>
<rect x="229.862" y="70.2656" width="0.936531" height="1.88212" fill="#84010B"/>
<rect x="223.075" y="70.2656" width="0.936531" height="1.88212" fill="#84010B"/>
<rect x="233.141" y="70.2656" width="1.17066" height="1.88212" fill="#84010B"/>
<rect x="246.718" y="70.2656" width="1.17066" height="1.88212" fill="#84010B"/>
<rect x="250.233" y="70.2656" width="0.936531" height="1.88212" fill="#84010B"/>
<rect x="243.442" y="70.2656" width="0.936531" height="1.88212" fill="#84010B"/>
<rect x="239.927" y="70.2656" width="1.17066" height="1.88212" fill="#84010B"/>
<rect x="236.646" y="70.2656" width="0.936531" height="1.88212" fill="#84010B"/>
<rect x="221.199" y="67.1302" width="30.1986" height="3.13687" fill="#84010B"/>
<rect x="20.8799" y="145.867" width="14.4282" height="0.627373" fill="#84010B"/>
<rect x="27.5898" y="140.22" width="1.00662" height="19.4486" fill="#84010B"/>
<rect x="21.8887" y="143.043" width="12.415" height="0.313686" fill="#84010B"/>
<path d="M146.945 154.362C146.942 155.084 146.921 155.709 146.904 156.244L146.901 156.32C146.883 156.877 146.87 157.321 146.883 157.687C146.908 158.437 147.04 158.673 147.249 158.81C147.38 158.896 147.59 158.975 147.942 159.032C148.292 159.089 148.745 159.118 149.34 159.131C150 159.145 150.797 159.137 151.775 159.128C152.575 159.121 153.495 159.113 154.56 159.114C155.626 159.115 156.546 159.125 157.346 159.134C158.324 159.145 159.121 159.154 159.781 159.142C160.375 159.131 160.829 159.102 161.18 159.046C161.532 158.99 161.743 158.912 161.875 158.826C162.084 158.689 162.218 158.454 162.249 157.704C162.265 157.338 162.255 156.894 162.241 156.337L162.239 156.261C162.226 155.726 162.21 155.1 162.213 154.378C162.225 151.365 162.219 147.842 161.231 145.072C160.742 143.699 160.021 142.544 158.969 141.731C157.923 140.921 156.505 140.417 154.557 140.417C152.609 140.417 151.198 140.92 150.16 141.727C149.117 142.537 148.406 143.688 147.924 145.059C146.969 147.775 146.956 151.215 146.945 154.196C146.945 154.251 146.945 154.307 146.945 154.362Z" fill="#E08F92" stroke="#84010B"/>
<rect x="-0.5" y="0.5" width="15.4415" height="1.19581" transform="matrix(-1 0 0 1 161.813 157.326)" fill="#E08F92" stroke="#84010B"/>
<rect x="147.372" y="145.721" width="14.4282" height="0.627373" fill="#84010B"/>
<rect x="154.089" y="140.221" width="1.00662" height="19.1349" fill="#84010B"/>
<rect x="148.381" y="142.897" width="12.415" height="0.313686" fill="#84010B"/>
<rect x="68.5322" y="58.0344" width="3.01986" height="5.33267" fill="#EEE4D4"/>
<path d="M1.08515 26.5739L0.414062 28.5562H1.75622L1.08515 26.5739Z" fill="#84010B"/>
<path d="M1.08243 26.891C1.19915 26.891 1.29377 26.82 1.29377 26.7324C1.29377 26.6449 1.19915 26.5739 1.08243 26.5739C0.965714 26.5739 0.871094 26.6449 0.871094 26.7324C0.871094 26.82 0.965714 26.891 1.08243 26.891Z" fill="#C11F25"/>
<rect x="2.76465" y="39.1287" width="22.8168" height="24.2363" fill="#9A191E"/>
<path d="M14.0034 3.21283L25.7722 39.3482H2.2347L14.0034 3.21283Z" fill="#9A191E"/>
<rect x="0.414062" y="32.7049" width="27.1788" height="9.3441" fill="#9A191E"/>
<path d="M14.4643 1.90302H13.1963V6.13204H14.4643V1.90302Z" fill="#84010B"/>
<path d="M13.8342 0L13.1631 1.98236H14.5052L13.8342 0Z" fill="#84010B"/>
<path d="M13.8315 0.317177C13.9482 0.317177 14.0428 0.246174 14.0428 0.158588C14.0428 0.0710025 13.9482 0 13.8315 0C13.7147 0 13.6201 0.0710025 13.6201 0.158588C13.6201 0.246174 13.7147 0.317177 13.8315 0.317177Z" fill="#C11F25"/>
<path d="M1.7153 28.4758H0.447266V32.7048H1.7153V28.4758Z" fill="#84010B"/>
<rect x="0.424805" y="42.6331" width="1.2341" height="1.75202" fill="#84010B"/>
<rect x="7.58105" y="42.6331" width="1.2341" height="1.75202" fill="#84010B"/>
<rect x="4.125" y="42.6331" width="0.987277" height="1.75202" fill="#84010B"/>
<rect x="11.2812" y="42.6331" width="0.987277" height="1.75202" fill="#84010B"/>
<rect x="18.4453" y="42.6331" width="0.987277" height="1.75202" fill="#84010B"/>
<rect x="14.7363" y="42.6331" width="1.2341" height="1.75202" fill="#84010B"/>
<rect x="25.5967" y="42.6331" width="0.987277" height="1.75202" fill="#84010B"/>
<rect x="21.8975" y="42.6331" width="1.2341" height="1.75202" fill="#84010B"/>
<rect x="0.414062" y="39.7134" width="22.7027" height="2.92003" fill="#84010B"/>
<path d="M13.8348 18.6885L19.6466 33.1427H8.0231L13.8348 18.6885Z" fill="#C11F25"/>
<rect x="0.751953" y="32.7049" width="9.05959" height="1.46002" fill="#84010B"/>
<rect x="17.5273" y="32.7049" width="11.4084" height="1.46002" fill="#84010B"/>
<rect x="13.502" y="18.3969" width="0.671081" height="1.46002" fill="#84010B"/>
<rect x="90.3379" y="58.0344" width="3.01986" height="5.33267" fill="#EEE4D4"/>
<rect x="111.474" y="58.3477" width="3.01986" height="5.33267" fill="#EEE4D4"/>
<rect x="190.672" y="80.9335" width="11.0728" height="1.88212" fill="#84010B"/>
<rect x="190.672" y="95.678" width="11.0728" height="1.88212" fill="#84010B"/>
<rect x="190.672" y="110.106" width="11.0728" height="1.88212" fill="#84010B"/>
<rect x="190.672" y="124.851" width="11.0728" height="1.88212" fill="#84010B"/>
<rect x="191.678" y="74.6607" width="3.69095" height="6.27373" fill="#EEE4D4"/>
<rect x="197.048" y="74.6607" width="3.69095" height="6.27373" fill="#EEE4D4"/>
<rect x="191.678" y="89.4031" width="3.69095" height="6.27373" fill="#EEE4D4"/>
<rect x="197.048" y="89.4031" width="3.69095" height="6.27373" fill="#EEE4D4"/>
<rect x="191.678" y="103.833" width="3.69095" height="6.27373" fill="#EEE4D4"/>
<rect x="197.048" y="103.833" width="3.69095" height="6.27373" fill="#EEE4D4"/>
<rect x="191.678" y="118.576" width="3.69095" height="6.27373" fill="#EEE4D4"/>
<rect x="197.048" y="118.576" width="3.69095" height="6.27373" fill="#EEE4D4"/>
<rect x="179.588" y="132.378" width="73.1478" height="5.33267" rx="2.66634" fill="#84010B"/>
<rect x="179.588" y="135.514" width="73.1478" height="24.1539" fill="#E08F92"/>
<rect x="212.81" y="130.496" width="4.02649" height="1.88212" fill="#84010B"/>
<rect x="204.085" y="130.496" width="4.02649" height="1.88212" fill="#84010B"/>
<rect x="221.87" y="130.496" width="4.02649" height="1.88212" fill="#84010B"/>
<rect x="191.004" y="159.668" width="24.1539" height="0.671081" transform="rotate(-90 191.004 159.668)" fill="#84010B"/>
<rect x="189.654" y="159.668" width="24.1539" height="0.671081" transform="rotate(-90 189.654 159.668)" fill="#84010B"/>
<rect x="208.117" y="159.668" width="24.1539" height="0.671081" transform="rotate(-90 208.117 159.668)" fill="#84010B"/>
<rect x="181.269" y="139.279" width="3.76424" height="0.33554" transform="rotate(-90 181.269 139.279)" fill="#84010B"/>
<rect x="183.281" y="139.279" width="3.76424" height="0.33554" transform="rotate(-90 183.281 139.279)" fill="#84010B"/>
<rect x="185.298" y="139.279" width="3.76424" height="0.33554" transform="rotate(-90 185.298 139.279)" fill="#84010B"/>
<rect x="187.309" y="139.279" width="3.76424" height="0.33554" transform="rotate(-90 187.309 139.279)" fill="#84010B"/>
<rect x="193.685" y="139.279" width="3.76424" height="0.33554" transform="rotate(-90 193.685 139.279)" fill="#84010B"/>
<rect x="195.696" y="139.279" width="3.76424" height="0.33554" transform="rotate(-90 195.696 139.279)" fill="#84010B"/>
<rect x="197.709" y="139.279" width="3.76424" height="0.33554" transform="rotate(-90 197.709 139.279)" fill="#84010B"/>
<rect x="199.724" y="139.279" width="3.76424" height="0.33554" transform="rotate(-90 199.724 139.279)" fill="#84010B"/>
<rect x="201.736" y="139.279" width="3.76424" height="0.33554" transform="rotate(-90 201.736 139.279)" fill="#84010B"/>
<rect x="203.751" y="139.279" width="3.76424" height="0.33554" transform="rotate(-90 203.751 139.279)" fill="#84010B"/>
<rect x="205.764" y="139.279" width="3.76424" height="0.33554" transform="rotate(-90 205.764 139.279)" fill="#84010B"/>
<rect x="210.799" y="139.279" width="3.76424" height="0.33554" transform="rotate(-90 210.799 139.279)" fill="#84010B"/>
<rect x="212.81" y="139.279" width="3.76424" height="0.33554" transform="rotate(-90 212.81 139.279)" fill="#84010B"/>
<rect x="214.82" y="139.279" width="3.76424" height="0.33554" transform="rotate(-90 214.82 139.279)" fill="#84010B"/>
<rect x="216.839" y="139.279" width="3.76424" height="0.33554" transform="rotate(-90 216.839 139.279)" fill="#84010B"/>
<rect x="218.848" y="139.279" width="3.76424" height="0.33554" transform="rotate(-90 218.848 139.279)" fill="#84010B"/>
<rect x="220.864" y="139.279" width="3.76424" height="0.33554" transform="rotate(-90 220.864 139.279)" fill="#84010B"/>
<rect x="222.879" y="139.279" width="3.76424" height="0.33554" transform="rotate(-90 222.879 139.279)" fill="#84010B"/>
<rect x="224.885" y="139.279" width="3.76424" height="0.33554" transform="rotate(-90 224.885 139.279)" fill="#84010B"/>
<rect x="226.901" y="139.279" width="3.76424" height="0.33554" transform="rotate(-90 226.901 139.279)" fill="#84010B"/>
<rect x="231.597" y="139.279" width="3.76424" height="0.33554" transform="rotate(-90 231.597 139.279)" fill="#84010B"/>
<rect x="233.609" y="139.279" width="3.76424" height="0.33554" transform="rotate(-90 233.609 139.279)" fill="#84010B"/>
<rect x="235.624" y="139.279" width="3.76424" height="0.33554" transform="rotate(-90 235.624 139.279)" fill="#84010B"/>
<rect x="237.644" y="139.279" width="3.76424" height="0.33554" transform="rotate(-90 237.644 139.279)" fill="#84010B"/>
<rect x="239.651" y="139.279" width="3.76424" height="0.33554" transform="rotate(-90 239.651 139.279)" fill="#84010B"/>
<rect x="241.664" y="139.279" width="3.76424" height="0.33554" transform="rotate(-90 241.664 139.279)" fill="#84010B"/>
<rect x="243.679" y="139.279" width="3.76424" height="0.33554" transform="rotate(-90 243.679 139.279)" fill="#84010B"/>
<rect x="249.382" y="139.279" width="3.76424" height="0.33554" transform="rotate(-90 249.382 139.279)" fill="#84010B"/>
<rect x="251.059" y="139.279" width="3.76424" height="0.33554" transform="rotate(-90 251.059 139.279)" fill="#84010B"/>
<rect x="228.919" y="159.668" width="24.1539" height="0.671081" transform="rotate(-90 228.919 159.668)" fill="#84010B"/>
<rect x="247.038" y="159.356" width="24.1539" height="0.671081" transform="rotate(-90 247.038 159.356)" fill="#84010B"/>
<rect x="245.7" y="159.668" width="24.1539" height="0.671081" transform="rotate(-90 245.7 159.668)" fill="#84010B"/>
<rect x="179.588" y="143.671" width="73.1478" height="0.627373" fill="#C11F25"/>
<rect x="179.588" y="139.279" width="73.1478" height="0.313686" fill="#84010B"/>
<rect x="179.588" y="149.632" width="73.1478" height="0.627373" fill="#C11F25"/>
<rect x="179.588" y="155.59" width="73.1478" height="0.627373" fill="#C11F25"/>
<rect x="0.0800781" y="47.9996" width="53.3509" height="13.1748" fill="#931E22"/>
<path d="M28.2629 10.0444L47.4416 52.1568H9.08414L28.2629 10.0444Z" fill="#931E22"/>
<path d="M28.893 6.75409H27.625V11.2972H28.893V6.75409Z" fill="#84010B"/>
<path d="M28.2629 4.71143L27.5918 6.84099H28.934L28.2629 4.71143Z" fill="#84010B"/>
<path d="M28.2602 5.05203C28.3769 5.05203 28.4715 4.97576 28.4715 4.88167C28.4715 4.78758 28.3769 4.7113 28.2602 4.7113C28.1434 4.7113 28.0488 4.78758 28.0488 4.88167C28.0488 4.97576 28.1434 5.05203 28.2602 5.05203Z" fill="#C11F25"/>
<path d="M28.4342 21.6504L35.8442 41.4126H21.0243L28.4342 21.6504Z" fill="#C11F25"/>
<path d="M21.1831 36.8687H19.915V41.4118H21.1831V36.8687Z" fill="#84010B"/>
<path d="M20.551 34.825L19.8799 36.9546H21.222L20.551 34.825Z" fill="#84010B"/>
<path d="M20.5483 35.1657C20.665 35.1657 20.7596 35.0895 20.7596 34.9954C20.7596 34.9013 20.665 34.825 20.5483 34.825C20.4315 34.825 20.3369 34.9013 20.3369 34.9954C20.3369 35.0895 20.4315 35.1657 20.5483 35.1657Z" fill="#C11F25"/>
<path d="M37.2817 36.8687H36.0137V41.4118H37.2817V36.8687Z" fill="#84010B"/>
<path d="M36.6516 34.825L35.9805 36.9546H37.3226L36.6516 34.825Z" fill="#84010B"/>
<path d="M36.6488 35.1657C36.7656 35.1657 36.8602 35.0895 36.8602 34.9954C36.8602 34.9013 36.7656 34.825 36.6488 34.825C36.5321 34.825 36.4375 34.9013 36.4375 34.9954C36.4375 35.0895 36.5321 35.1657 36.6488 35.1657Z" fill="#C11F25"/>
<path d="M28.893 18.6759H27.625V23.219H28.893V18.6759Z" fill="#84010B"/>
<path d="M28.2629 16.6301L27.5918 18.7597H28.934L28.2629 16.6301Z" fill="#84010B"/>
<path d="M28.2602 16.971C28.3769 16.971 28.4715 16.8948 28.4715 16.8007C28.4715 16.7066 28.3769 16.6303 28.2602 16.6303C28.1434 16.6303 28.0488 16.7066 28.0488 16.8007C28.0488 16.8948 28.1434 16.971 28.2602 16.971Z" fill="#C11F25"/>
<rect x="19.5459" y="41.4117" width="17.7836" height="16.3117" fill="#C11F25"/>
<rect x="23.9004" y="47.3713" width="3.69095" height="6.27373" fill="#EEE4D4"/>
<rect x="29.2725" y="47.3713" width="3.69095" height="6.27373" fill="#EEE4D4"/>
<rect x="0.0800781" y="47.9988" width="12.7505" height="1.88212" fill="#84010B"/>
<rect x="43.3672" y="47.9988" width="10.0662" height="1.88212" fill="#84010B"/>
<rect x="5.29785" y="61.1706" width="1.18558" height="1.88212" fill="#84010B"/>
<rect x="8.85059" y="61.1706" width="0.948461" height="1.88212" fill="#84010B"/>
<rect x="1.97852" y="61.1706" width="0.948461" height="1.88212" fill="#84010B"/>
<rect x="12.1729" y="61.1706" width="1.18558" height="1.88212" fill="#84010B"/>
<rect x="25.9238" y="61.1706" width="1.18558" height="1.88212" fill="#84010B"/>
<rect x="32.8008" y="61.1706" width="1.18558" height="1.88212" fill="#84010B"/>
<rect x="29.4814" y="61.1706" width="0.948461" height="1.88212" fill="#84010B"/>
<rect x="36.3584" y="61.1706" width="0.948461" height="1.88212" fill="#84010B"/>
<rect x="43.2354" y="61.1706" width="0.948461" height="1.88212" fill="#84010B"/>
<rect x="39.6738" y="61.1706" width="1.18558" height="1.88212" fill="#84010B"/>
<rect x="50.1123" y="61.1706" width="0.948461" height="1.88212" fill="#84010B"/>
<rect x="46.5547" y="61.1706" width="1.18558" height="1.88212" fill="#84010B"/>
<rect x="22.6025" y="61.1706" width="0.948461" height="1.88212" fill="#84010B"/>
<rect x="19.0479" y="61.1706" width="1.18558" height="1.88212" fill="#84010B"/>
<rect x="15.7256" y="61.1706" width="0.948461" height="1.88212" fill="#84010B"/>
<rect x="0.0800781" y="58.0352" width="53.3509" height="3.13687" fill="#84010B"/>
</svg>
