<svg width="150" height="196" viewBox="0 0 150 196" fill="none" xmlns="http://www.w3.org/2000/svg">
<path d="M40.084 86.8607H38.2949V94.2886H40.084V86.8607Z" fill="#84010B"/>
<path d="M39.191 83.5178L38.2441 86.9997H40.1378L39.191 83.5178Z" fill="#84010B"/>
<path d="M39.1859 84.0749C39.3505 84.0749 39.484 83.9502 39.484 83.7964C39.484 83.6425 39.3505 83.5178 39.1859 83.5178C39.0212 83.5178 38.8877 83.6425 38.8877 83.7964C38.8877 83.9502 39.0212 84.0749 39.1859 84.0749Z" fill="#C11F25"/>
<path d="M58.5618 41.7504H57.2139V47.347H58.5618V41.7504Z" fill="#84010B"/>
<path d="M57.8853 39.2312L57.1719 41.8546H58.5986L57.8853 39.2312Z" fill="#84010B"/>
<path d="M57.8819 39.652C58.006 39.652 58.1065 39.558 58.1065 39.4421C58.1065 39.3262 58.006 39.2322 57.8819 39.2322C57.7578 39.2322 57.6572 39.3262 57.6572 39.4421C57.6572 39.558 57.7578 39.652 57.8819 39.652Z" fill="#C11F25"/>
<path d="M95.4857 41.7504H94.1377V47.347H95.4857V41.7504Z" fill="#84010B"/>
<path d="M94.8091 39.2312L94.0957 41.8546H95.5225L94.8091 39.2312Z" fill="#84010B"/>
<path d="M94.8057 39.652C94.9298 39.652 95.0304 39.558 95.0304 39.4421C95.0304 39.3262 94.9298 39.2322 94.8057 39.2322C94.6816 39.2322 94.5811 39.3262 94.5811 39.4421C94.5811 39.558 94.6816 39.652 94.8057 39.652Z" fill="#C11F25"/>
<path d="M111.093 86.8304H109.304V94.2583H111.093V86.8304Z" fill="#84010B"/>
<path d="M110.2 83.4875L109.253 86.9694H111.147L110.2 83.4875Z" fill="#84010B"/>
<path d="M110.193 84.0446C110.357 84.0446 110.491 83.9199 110.491 83.7661C110.491 83.6123 110.357 83.4875 110.193 83.4875C110.028 83.4875 109.895 83.6123 109.895 83.7661C109.895 83.9199 110.028 84.0446 110.193 84.0446Z" fill="#C11F25"/>
<path d="M57.6334 64.8995H94.597L102.626 94.9945H49.6045L57.6334 64.8995Z" fill="#E08F92"/>
<path d="M76.9612 0.284485H76.1084V13.0306H76.9612V0.284485Z" fill="#E08F92"/>
<rect x="0.368164" y="170.233" width="149.596" height="24.7841" fill="#E08F92"/>
<rect x="22.1416" y="124.204" width="105.096" height="30.0949" fill="#E08F92"/>
<path d="M38.0561 94.1092H111.323L127.238 124.204H22.1416L38.0561 94.1092Z" fill="#84010B"/>
<path d="M23.0213 154.3H127.311L149.964 170.233H0.368164L23.0213 154.3Z" fill="#84010B"/>
<rect x="56.2314" y="47.1973" width="39.7661" height="17.7029" fill="#84010B"/>
<path d="M76.5858 8.25186L90.9351 48.7472H62.2365L76.5858 8.25186Z" fill="#84010B"/>
<path d="M42.0241 148.96C47.4494 148.96 46.7261 149.694 46.7261 143.774C46.7261 137.855 44.6209 133.057 42.0241 133.057C39.4272 133.057 37.3221 137.855 37.3221 143.774C37.3221 149.432 36.5988 148.96 42.0241 148.96Z" fill="#EEE4D4"/>
<path d="M75.1667 148.96C80.592 148.96 79.8687 149.694 79.8687 143.774C79.8687 137.855 77.7635 133.057 75.1667 133.057C72.5698 133.057 70.4647 137.855 70.4647 143.774C70.4647 149.694 69.7414 148.96 75.1667 148.96Z" fill="#EEE4D4"/>
<path d="M107.361 148.96C112.786 148.96 112.063 149.694 112.063 143.774C112.063 137.855 109.958 133.057 107.361 133.057C104.764 133.057 102.659 137.855 102.659 143.774C102.659 149.694 101.936 148.96 107.361 148.96Z" fill="#EEE4D4"/>
<path d="M2.20799 162.906H0.418945V170.231H2.20799V162.906Z" fill="#84010B"/>
<path d="M1.31498 159.61L0.368164 163.044H2.26179L1.31498 159.61Z" fill="#84010B"/>
<path d="M1.30794 160.16C1.47262 160.16 1.60611 160.037 1.60611 159.885C1.60611 159.733 1.47262 159.61 1.30794 159.61C1.14326 159.61 1.00977 159.733 1.00977 159.885C1.00977 160.037 1.14326 160.16 1.30794 160.16Z" fill="#C11F25"/>
<path d="M149.913 162.906H148.124V170.231H149.913V162.906Z" fill="#84010B"/>
<path d="M149.02 159.61L148.073 163.044H149.967L149.02 159.61Z" fill="#84010B"/>
<path d="M149.013 160.16C149.178 160.16 149.311 160.037 149.311 159.885C149.311 159.734 149.178 159.611 149.013 159.611C148.848 159.611 148.715 159.734 148.715 159.885C148.715 160.037 148.848 160.16 149.013 160.16Z" fill="#C11F25"/>
<path d="M18.6276 190.869C23.6699 190.859 22.9992 191.564 22.9868 185.888C22.9744 180.212 21.0077 175.614 18.5942 175.619C16.1807 175.623 14.2342 180.228 14.2466 185.904C14.259 191.58 13.5852 190.878 18.6276 190.869Z" fill="#EEE4D4"/>
<path d="M103.481 190.706C109.243 190.695 108.477 191.4 108.464 185.724C108.452 180.048 106.206 175.451 103.447 175.456C100.689 175.461 98.4631 180.067 98.4755 185.743C98.4879 191.419 97.718 190.717 103.481 190.706Z" fill="#EEE4D4"/>
<path d="M131.768 190.652C136.811 190.643 136.14 191.347 136.127 185.671C136.115 179.995 134.148 175.397 131.735 175.402C129.321 175.406 127.375 180.012 127.387 185.688C127.4 191.364 126.726 190.662 131.768 190.652Z" fill="#EEE4D4"/>
<path d="M75.1959 190.761C80.2383 190.751 79.5675 191.456 79.5551 185.78C79.5427 180.104 77.5761 175.506 75.1626 175.511C72.749 175.515 70.8026 180.12 70.815 185.796C70.8274 191.472 70.1536 190.771 75.1959 190.761Z" fill="#EEE4D4"/>
<path d="M46.9153 190.815C52.678 190.804 51.9112 191.509 51.8988 185.833C51.8864 180.157 49.6403 175.56 46.8819 175.565C44.1236 175.57 41.8976 180.176 41.91 185.852C41.9225 191.528 41.1526 190.826 46.9153 190.815Z" fill="#EEE4D4"/>
</svg>
