<svg width="183" height="245" viewBox="0 0 183 245" fill="none" xmlns="http://www.w3.org/2000/svg">
<rect x="30.5508" y="128.694" width="121.17" height="25.7391" fill="#E08F92"/>
<rect x="30.5508" y="128.694" width="121.17" height="25.7391" fill="#E08F92"/>
<path d="M50.4063 62.9187H132.883L151.72 102.957H30.5508L50.4063 62.9187Z" fill="#E08F92"/>
<rect x="30.5508" y="102.957" width="121.17" height="25.7391" fill="#E08F92"/>
<rect x="61.0967" y="40.039" width="60.0757" height="22.8792" fill="#E08F92"/>
<path d="M80.9522 -0.00012207H101.826L121.172 40.0385H61.0967L80.9522 -0.00012207Z" fill="#E08F92"/>
<rect x="108.955" y="149.669" width="24.4376" height="95.3301" fill="#C11F25"/>
<rect x="48.8789" y="149.669" width="24.4376" height="95.3301" fill="#C11F25"/>
<rect x="46.8398" y="152.528" width="28.5105" height="3.8132" fill="#FAD9D9"/>
<rect y="152.528" width="28.5105" height="3.8132" fill="#FAD9D9"/>
<rect x="106.916" y="152.528" width="28.5105" height="3.8132" fill="#FAD9D9"/>
<rect x="153.756" y="152.528" width="28.5105" height="3.8132" fill="#FAD9D9"/>
<path d="M91.1319 128.694L110.973 153.004H71.2911L91.1319 128.694Z" fill="#C11F25"/>
<path d="M61.6055 62.9187L81.4464 102.957H41.7647L61.6055 62.9187Z" fill="#C11F25"/>
<path d="M91.1337 102.957L71.2929 62.918L110.975 62.918L91.1337 102.957Z" fill="#84010B"/>
<path d="M120.663 62.9187L140.504 102.957H100.822L120.663 62.9187Z" fill="#C11F25"/>
<path d="M91.1319 -0.00012207L110.973 40.0385H71.2911L91.1319 -0.00012207Z" fill="#C11F25"/>
<path d="M151.213 128.694L171.054 153.004H131.372L151.213 128.694Z" fill="#C11F25"/>
<path d="M31.0567 128.694L50.8975 153.004H11.2159L31.0567 128.694Z" fill="#C11F25"/>
<path d="M61.095 149.669L41.6951 128.935H80.4949L61.095 149.669Z" fill="#84010B"/>
<path d="M121.171 149.669L101.771 128.935H140.571L121.171 149.669Z" fill="#84010B"/>
<rect x="71.2803" y="149.669" width="39.7111" height="95.3301" fill="#E08F92"/>
<rect x="131.356" y="149.669" width="39.7111" height="95.3301" fill="#E08F92"/>
<rect x="11.207" y="149.669" width="39.7111" height="95.3301" fill="#E08F92"/>
<rect x="46.835" y="149.67" width="4.07293" height="95.3301" fill="#E08F92"/>
<rect x="59.0576" y="149.67" width="4.07293" height="95.3301" fill="#E08F92"/>
<rect x="119.137" y="149.67" width="4.07293" height="95.3301" fill="#E08F92"/>
<rect x="71.2793" y="149.67" width="4.07293" height="95.3301" fill="#E08F92"/>
<rect y="149.67" width="4.07293" height="95.3301" fill="#E08F92"/>
<rect x="7.13184" y="149.67" width="4.07293" height="95.3301" fill="#E08F92"/>
<path d="M171.06 149.67H175.132V245H171.06V149.67Z" fill="#E08F92"/>
<rect x="178.193" y="149.67" width="4.07293" height="95.3301" fill="#E08F92"/>
<rect x="131.353" y="149.67" width="4.07293" height="95.3301" fill="#E08F92"/>
<rect x="106.914" y="149.67" width="4.07293" height="95.3301" fill="#E08F92"/>
<rect x="11.207" y="161.109" width="35.6381" height="0.953301" fill="#C11F25"/>
<rect x="30.5508" y="110.584" width="121.17" height="0.953301" fill="#C11F25"/>
<rect x="61.0967" y="47.6652" width="60.0757" height="0.953301" fill="#C11F25"/>
<rect x="61.0967" y="60.0584" width="60.0757" height="0.953301" fill="#C11F25"/>
<rect x="30.5508" y="123.928" width="121.17" height="0.953301" fill="#C11F25"/>
<rect x="16.2939" y="244.999" width="95.3301" height="1.01823" transform="rotate(-90 16.2939 244.999)" fill="#C11F25"/>
<rect x="40.7295" y="244.999" width="95.3301" height="1.01823" transform="rotate(-90 40.7295 244.999)" fill="#C11F25"/>
<rect x="28.5137" y="244.999" width="95.3301" height="1.01823" transform="rotate(-90 28.5137 244.999)" fill="#C11F25"/>
<rect x="41.7471" y="128.694" width="25.7391" height="1.01823" transform="rotate(-90 41.7471 128.694)" fill="#C11F25"/>
<rect x="66.1895" y="128.694" width="25.7391" height="1.01823" transform="rotate(-90 66.1895 128.694)" fill="#C11F25"/>
<rect x="53.9648" y="128.694" width="25.7391" height="1.01823" transform="rotate(-90 53.9648 128.694)" fill="#C11F25"/>
<rect x="72.2969" y="62.9187" width="22.8792" height="1.01823" transform="rotate(-90 72.2969 62.9187)" fill="#C11F25"/>
<rect x="96.7334" y="62.9187" width="22.8792" height="1.01823" transform="rotate(-90 96.7334 62.9187)" fill="#C11F25"/>
<rect x="108.955" y="62.9187" width="22.8792" height="1.01823" transform="rotate(-90 108.955 62.9187)" fill="#C11F25"/>
<rect x="84.5146" y="62.9187" width="22.8792" height="1.01823" transform="rotate(-90 84.5146 62.9187)" fill="#C11F25"/>
<rect x="78.4053" y="128.694" width="25.7391" height="1.01823" transform="rotate(-90 78.4053 128.694)" fill="#C11F25"/>
<rect x="102.846" y="128.694" width="25.7391" height="1.01823" transform="rotate(-90 102.846 128.694)" fill="#C11F25"/>
<rect x="90.6299" y="128.694" width="25.7391" height="1.01823" transform="rotate(-90 90.6299 128.694)" fill="#C11F25"/>
<rect x="115.059" y="128.694" width="25.7391" height="1.01823" transform="rotate(-90 115.059 128.694)" fill="#C11F25"/>
<rect x="139.497" y="128.694" width="25.7391" height="1.01823" transform="rotate(-90 139.497 128.694)" fill="#C11F25"/>
<rect x="127.276" y="128.694" width="25.7391" height="1.01823" transform="rotate(-90 127.276 128.694)" fill="#C11F25"/>
<rect x="140.521" y="244.999" width="95.3301" height="1.01823" transform="rotate(-90 140.521 244.999)" fill="#C11F25"/>
<rect x="164.954" y="244.999" width="95.3301" height="1.01823" transform="rotate(-90 164.954 244.999)" fill="#C11F25"/>
<rect x="152.732" y="244.999" width="95.3301" height="1.01823" transform="rotate(-90 152.732 244.999)" fill="#C11F25"/>
<rect x="84.5146" y="244.999" width="95.3301" height="1.01823" transform="rotate(-90 84.5146 244.999)" fill="#C11F25"/>
<rect x="96.7334" y="244.999" width="95.3301" height="1.01823" transform="rotate(-90 96.7334 244.999)" fill="#C11F25"/>
<rect x="11.207" y="224.025" width="35.6381" height="0.953301" fill="#C11F25"/>
<rect x="11.207" y="203.053" width="35.6381" height="0.953301" fill="#C11F25"/>
<rect x="11.207" y="182.081" width="35.6381" height="0.953301" fill="#C11F25"/>
<rect x="75.3516" y="161.109" width="31.5652" height="0.953301" fill="#C11F25"/>
<rect x="75.3516" y="224.025" width="31.5652" height="0.953301" fill="#C11F25"/>
<rect x="75.3516" y="203.053" width="31.5652" height="0.953301" fill="#C11F25"/>
<rect x="75.3516" y="182.081" width="31.5652" height="0.953301" fill="#C11F25"/>
<rect x="135.426" y="161.109" width="35.6381" height="0.953301" fill="#C11F25"/>
<rect x="135.426" y="224.025" width="35.6381" height="0.953301" fill="#C11F25"/>
<rect x="135.426" y="203.053" width="35.6381" height="0.953301" fill="#C11F25"/>
<rect x="135.426" y="182.081" width="35.6381" height="0.953301" fill="#C11F25"/>
</svg>
