<svg width="162" height="247" viewBox="0 0 162 247" fill="none" xmlns="http://www.w3.org/2000/svg">
<path d="M49.2169 148.568L81.0845 121.186L112.952 148.568H49.2169Z" fill="#84010B" stroke="#9A191E" stroke-width="4"/>
<rect x="44.3965" y="150.408" width="73.3607" height="95.5796" fill="#84010B"/>
<rect x="0.666016" y="118.549" width="43.7343" height="127.44" fill="#9A191E"/>
<rect x="7.01758" y="90.5111" width="31.0372" height="28.0367" fill="#E08F92"/>
<rect x="11.2471" y="65.0233" width="23.2779" height="28.0367" fill="#E08F92"/>
<rect x="15.4766" y="42.7212" width="14.8132" height="28.0367" fill="#E08F92"/>
<rect x="18.3037" y="26.7916" width="9.17008" height="28.0367" fill="#E08F92"/>
<rect x="117.762" y="118.549" width="43.7343" height="127.44" fill="#9A191E"/>
<ellipse cx="81.081" cy="109.626" rx="2.11617" ry="9.55797" fill="#FAD9D9"/>
<path d="M22.8888 0.665771L26.8595 27.4281H18.918L22.8888 0.665771Z" fill="#E08F92"/>
<rect x="124.104" y="90.5111" width="31.0372" height="28.0367" fill="#E08F92"/>
<rect x="128.347" y="65.0233" width="23.2779" height="28.0367" fill="#E08F92"/>
<rect x="132.574" y="42.7212" width="14.8132" height="28.0367" fill="#E08F92"/>
<rect x="135.397" y="26.7916" width="9.17008" height="28.0367" fill="#E08F92"/>
<path d="M139.983 0.665771L143.953 27.4281H136.012L139.983 0.665771Z" fill="#E08F92"/>
<path d="M144.567 209.667V190.234C144.567 185.265 139.277 179.082 139.277 179.082C139.277 179.082 133.986 185.265 133.986 190.234V209.667H144.567Z" fill="#E08F92"/>
<path d="M27.4744 209.667V190.234C27.4744 185.265 22.184 179.082 22.184 179.082C22.184 179.082 16.8936 185.265 16.8936 190.234V209.667H27.4744Z" fill="#E08F92"/>
<path d="M94.4855 199.82V180.546C94.4855 175.618 81.0831 169.486 81.0831 169.486C81.0831 169.486 67.6807 175.618 67.6807 180.546V199.82H94.4855Z" fill="#9A191E"/>
<path d="M26.0607 152.956V141.215C26.0607 138.213 22.5338 134.478 22.5338 134.478C22.5338 134.478 19.0068 138.213 19.0068 141.215V152.956H26.0607Z" fill="#E08F92"/>
<path d="M143.156 153.013V141.272C143.156 138.27 139.629 134.534 139.629 134.534C139.629 134.534 136.103 138.27 136.103 141.272V153.013H143.156Z" fill="#E08F92"/>
<path d="M81.0496 245.761C71.3856 245.746 72.6711 246.794 72.6948 238.354C72.7185 229.913 76.4875 223.077 81.1132 223.083C85.7389 223.09 89.4696 229.938 89.446 238.378C89.4223 246.819 90.7137 245.775 81.0496 245.761Z" fill="#EEE4D4"/>
<rect width="16.9106" height="6.60473" transform="matrix(-1 0 0 1 89.5459 239.582)" fill="#EEE4D4"/>
<path d="M21.8139 245.808C13.7481 245.796 14.8211 246.671 14.8409 239.626C14.8608 232.582 18.0066 226.876 21.8672 226.881C25.7279 226.887 28.8415 232.602 28.8217 239.647C28.8018 246.691 29.8796 245.82 21.8139 245.808Z" fill="#EEE4D4"/>
<rect width="14.1138" height="5.5124" transform="matrix(-1 0 0 1 28.9053 240.652)" fill="#EEE4D4"/>
<path d="M139.607 245.808C131.541 245.796 132.614 246.671 132.634 239.626C132.654 232.582 135.8 226.876 139.66 226.881C143.521 226.887 146.634 232.602 146.615 239.647C146.595 246.691 147.673 245.82 139.607 245.808Z" fill="#EEE4D4"/>
<rect width="14.1138" height="5.5124" transform="matrix(-1 0 0 1 146.698 240.652)" fill="#EEE4D4"/>
<rect x="134.692" y="152.998" width="9.87548" height="1.97835" fill="#84010B"/>
<path d="M81.0265 209.274C65.7251 209.251 67.7606 210.909 67.7982 197.545C67.8359 184.182 73.8037 173.357 81.1278 173.368C88.4518 173.379 94.3585 184.221 94.3209 197.585C94.2832 210.949 96.3279 209.296 81.0265 209.274Z" fill="#E08F92"/>
<rect width="26.7751" height="10.4575" transform="matrix(-1 0 0 1 94.4795 199.49)" fill="#E08F92"/>
<path d="M75.4345 209.712V190.857C75.4345 186.037 72.2602 180.037 72.2602 180.037C72.2602 180.037 69.0859 186.037 69.0859 190.857V209.712H75.4345Z" fill="#EEE4D4"/>
<path d="M83.8993 209.713V187.087C83.8993 181.301 80.725 174.102 80.725 174.102C80.725 174.102 77.5508 181.301 77.5508 187.087V209.713H83.8993Z" fill="#EEE4D4"/>
<path d="M92.3583 209.712V190.857C92.3583 186.037 89.184 180.037 89.184 180.037C89.184 180.037 86.0098 186.037 86.0098 190.857V209.712H92.3583Z" fill="#EEE4D4"/>
<ellipse cx="22.8815" cy="106.19" rx="10.2282" ry="9.23937" fill="#E9AEB1"/>
<ellipse cx="139.976" cy="106.186" rx="10.2282" ry="9.23937" fill="#E9AEB1"/>
<path d="M125.827 84.842H124.148V90.6518H125.827V84.842Z" fill="#E08F92"/>
<path d="M124.993 82.2274L124.104 84.9507H125.881L124.993 82.2274Z" fill="#E08F92"/>
<path d="M124.995 82.6631C125.149 82.6631 125.274 82.5655 125.274 82.4452C125.274 82.3249 125.149 82.2274 124.995 82.2274C124.84 82.2274 124.715 82.3249 124.715 82.4452C124.715 82.5655 124.84 82.6631 124.995 82.6631Z" fill="#E08F92"/>
<path d="M37.6577 84.842H35.9795V90.6518H37.6577V84.842Z" fill="#E08F92"/>
<path d="M36.8237 82.2274L35.9355 84.9508H37.7119L36.8237 82.2274Z" fill="#E08F92"/>
<path d="M36.8256 82.6632C36.9801 82.6632 37.1053 82.5656 37.1053 82.4453C37.1053 82.325 36.9801 82.2274 36.8256 82.2274C36.6711 82.2274 36.5459 82.325 36.5459 82.4453C36.5459 82.5656 36.6711 82.6632 36.8256 82.6632Z" fill="#E08F92"/>
<path d="M8.74854 84.842H7.07031V90.6518H8.74854V84.842Z" fill="#E08F92"/>
<path d="M7.91063 82.2274L7.02246 84.9507H8.79879L7.91063 82.2274Z" fill="#E08F92"/>
<path d="M7.91252 82.6631C8.06699 82.6631 8.19222 82.5655 8.19222 82.4452C8.19222 82.3249 8.06699 82.2274 7.91252 82.2274C7.75804 82.2274 7.63281 82.3249 7.63281 82.4452C7.63281 82.5655 7.75804 82.6631 7.91252 82.6631Z" fill="#E08F92"/>
<path d="M154.748 84.842H153.069V90.6518H154.748V84.842Z" fill="#E08F92"/>
<path d="M153.914 82.2274L153.025 84.9507H154.802L153.914 82.2274Z" fill="#E08F92"/>
<path d="M153.915 82.6631C154.07 82.6631 154.195 82.5655 154.195 82.4452C154.195 82.3249 154.07 82.2274 153.915 82.2274C153.761 82.2274 153.636 82.3249 153.636 82.4452C153.636 82.5655 153.761 82.6631 153.915 82.6631Z" fill="#E08F92"/>
<path d="M28.7855 82.6655C29.6206 82.6655 30.2975 80.2528 30.2975 77.2766C30.2975 74.3004 29.6206 71.8878 28.7855 71.8878C27.9504 71.8878 27.2734 74.3004 27.2734 77.2766C27.2734 80.2528 27.9504 82.6655 28.7855 82.6655Z" fill="#EEE4D4"/>
<path d="M23.0638 82.6655C23.8989 82.6655 24.5758 80.2528 24.5758 77.2766C24.5758 74.3004 23.8989 71.8878 23.0638 71.8878C22.2287 71.8878 21.5518 74.3004 21.5518 77.2766C21.5518 80.2528 22.2287 82.6655 23.0638 82.6655Z" fill="#EEE4D4"/>
<path d="M17.6986 82.6655C18.5336 82.6655 19.2106 80.2528 19.2106 77.2766C19.2106 74.3004 18.5336 71.8878 17.6986 71.8878C16.8635 71.8878 16.1865 74.3004 16.1865 77.2766C16.1865 80.2528 16.8635 82.6655 17.6986 82.6655Z" fill="#EEE4D4"/>
<path d="M25.8812 60.2417C26.7163 60.2417 27.3932 57.8291 27.3932 54.8529C27.3932 51.8767 26.7163 49.464 25.8812 49.464C25.0461 49.464 24.3691 51.8767 24.3691 54.8529C24.3691 57.8291 25.0461 60.2417 25.8812 60.2417Z" fill="#EEE4D4"/>
<path d="M20.5159 60.2417C21.351 60.2417 22.028 57.8291 22.028 54.8529C22.028 51.8767 21.351 49.464 20.5159 49.464C19.6809 49.464 19.0039 51.8767 19.0039 54.8529C19.0039 57.8291 19.6809 60.2417 20.5159 60.2417Z" fill="#EEE4D4"/>
<path d="M145.883 82.6655C146.718 82.6655 147.395 80.2528 147.395 77.2766C147.395 74.3004 146.718 71.8878 145.883 71.8878C145.048 71.8878 144.371 74.3004 144.371 77.2766C144.371 80.2528 145.048 82.6655 145.883 82.6655Z" fill="#EEE4D4"/>
<path d="M140.161 82.6655C140.997 82.6655 141.673 80.2528 141.673 77.2766C141.673 74.3004 140.997 71.8878 140.161 71.8878C139.326 71.8878 138.649 74.3004 138.649 77.2766C138.649 80.2528 139.326 82.6655 140.161 82.6655Z" fill="#EEE4D4"/>
<path d="M134.796 82.6655C135.631 82.6655 136.308 80.2528 136.308 77.2766C136.308 74.3004 135.631 71.8878 134.796 71.8878C133.961 71.8878 133.284 74.3004 133.284 77.2766C133.284 80.2528 133.961 82.6655 134.796 82.6655Z" fill="#EEE4D4"/>
<rect x="124.106" y="90.3519" width="31.0372" height="2.63779" fill="#E9AEB1"/>
<path d="M128.34 64.632H151.618V67.2698H128.34V64.632Z" fill="#9A191E"/>
<path d="M128.34 64.632H151.618V67.2698H128.34V64.632Z" fill="#E9AEB1"/>
<rect x="132.574" y="42.8712" width="14.8132" height="2.63779" fill="#E9AEB1"/>
<rect x="135.397" y="27.0453" width="9.17008" height="2.63779" fill="#E9AEB1"/>
<rect x="138.926" y="178.058" width="0.705391" height="31.6535" fill="#9A191E"/>
<rect x="122.696" y="192.566" width="0.659449" height="33.8588" transform="rotate(-90 122.696 192.566)" fill="#9A191E"/>
<rect x="121.988" y="202.458" width="0.659449" height="33.8588" transform="rotate(-90 121.988 202.458)" fill="#9A191E"/>
<rect x="64.1465" y="206.414" width="0.659449" height="33.8588" transform="rotate(-90 64.1465 206.414)" fill="#84010B"/>
<rect x="64.1465" y="201.141" width="0.659449" height="33.8588" transform="rotate(-90 64.1465 201.141)" fill="#84010B"/>
<rect x="44.3965" y="150.408" width="73.3607" height="95.5796" fill="#84010B"/>
<rect x="0.666016" y="118.549" width="43.7343" height="127.44" fill="#9A191E"/>
<rect x="7.01758" y="90.5111" width="31.0372" height="28.0367" fill="#E08F92"/>
<rect x="11.2471" y="65.0233" width="23.2779" height="28.0367" fill="#E08F92"/>
<rect x="15.4766" y="42.7212" width="14.8132" height="28.0367" fill="#E08F92"/>
<rect x="18.3037" y="26.7916" width="9.17008" height="28.0367" fill="#E08F92"/>
<rect x="117.762" y="118.549" width="43.7343" height="127.44" fill="#9A191E"/>
<ellipse cx="81.081" cy="109.626" rx="2.11617" ry="9.55797" fill="#FAD9D9"/>
<path d="M22.8888 0.665771L26.8595 27.4281H18.918L22.8888 0.665771Z" fill="#E08F92"/>
<rect x="124.104" y="90.5111" width="31.0372" height="28.0367" fill="#E08F92"/>
<rect x="128.347" y="65.0233" width="23.2779" height="28.0367" fill="#E08F92"/>
<rect x="132.574" y="42.7212" width="14.8132" height="28.0367" fill="#E08F92"/>
<rect x="135.397" y="26.7916" width="9.17008" height="28.0367" fill="#E08F92"/>
<path d="M139.983 0.665771L143.953 27.4281H136.012L139.983 0.665771Z" fill="#E08F92"/>
<path d="M144.567 209.667V190.234C144.567 185.265 139.277 179.082 139.277 179.082C139.277 179.082 133.986 185.265 133.986 190.234V209.667H144.567Z" fill="#E08F92"/>
<path d="M27.4744 209.667V190.234C27.4744 185.265 22.184 179.082 22.184 179.082C22.184 179.082 16.8936 185.265 16.8936 190.234V209.667H27.4744Z" fill="#E08F92"/>
<path d="M94.4855 199.82V180.546C94.4855 175.618 81.0831 169.486 81.0831 169.486C81.0831 169.486 67.6807 175.618 67.6807 180.546V199.82H94.4855Z" fill="#9A191E"/>
<path d="M26.0607 152.956V141.215C26.0607 138.213 22.5338 134.478 22.5338 134.478C22.5338 134.478 19.0068 138.213 19.0068 141.215V152.956H26.0607Z" fill="#E08F92"/>
<path d="M143.156 153.013V141.272C143.156 138.27 139.629 134.534 139.629 134.534C139.629 134.534 136.103 138.27 136.103 141.272V153.013H143.156Z" fill="#E08F92"/>
<path d="M81.0496 245.761C71.3856 245.746 72.6711 246.794 72.6948 238.354C72.7185 229.913 76.4875 223.077 81.1132 223.083C85.7389 223.09 89.4696 229.938 89.446 238.378C89.4223 246.819 90.7137 245.775 81.0496 245.761Z" fill="#EEE4D4"/>
<rect width="16.9106" height="6.60473" transform="matrix(-1 0 0 1 89.5459 239.582)" fill="#EEE4D4"/>
<path d="M21.8139 245.808C13.7481 245.796 14.8211 246.671 14.8409 239.626C14.8608 232.582 18.0066 226.876 21.8672 226.881C25.7279 226.887 28.8415 232.602 28.8217 239.647C28.8018 246.691 29.8796 245.82 21.8139 245.808Z" fill="#EEE4D4"/>
<rect width="14.1138" height="5.5124" transform="matrix(-1 0 0 1 28.9053 240.652)" fill="#EEE4D4"/>
<path d="M139.607 245.808C131.541 245.796 132.614 246.671 132.634 239.626C132.654 232.582 135.8 226.876 139.66 226.881C143.521 226.887 146.634 232.602 146.615 239.647C146.595 246.691 147.673 245.82 139.607 245.808Z" fill="#EEE4D4"/>
<rect width="14.1138" height="5.5124" transform="matrix(-1 0 0 1 146.698 240.652)" fill="#EEE4D4"/>
<rect x="134.692" y="152.998" width="9.87548" height="1.97835" fill="#84010B"/>
<path d="M81.0265 209.274C65.7251 209.251 67.7606 210.909 67.7982 197.545C67.8359 184.182 73.8037 173.357 81.1278 173.368C88.4518 173.379 94.3585 184.221 94.3209 197.585C94.2832 210.949 96.3279 209.296 81.0265 209.274Z" fill="#E08F92"/>
<rect width="26.7751" height="10.4575" transform="matrix(-1 0 0 1 94.4795 199.49)" fill="#E08F92"/>
<path d="M75.4345 209.712V190.857C75.4345 186.037 72.2602 180.037 72.2602 180.037C72.2602 180.037 69.0859 186.037 69.0859 190.857V209.712H75.4345Z" fill="#EEE4D4"/>
<path d="M83.8993 209.713V187.087C83.8993 181.301 80.725 174.102 80.725 174.102C80.725 174.102 77.5508 181.301 77.5508 187.087V209.713H83.8993Z" fill="#EEE4D4"/>
<path d="M92.3583 209.712V190.857C92.3583 186.037 89.184 180.037 89.184 180.037C89.184 180.037 86.0098 186.037 86.0098 190.857V209.712H92.3583Z" fill="#EEE4D4"/>
<ellipse cx="22.8815" cy="106.19" rx="10.2282" ry="9.23937" fill="#E9AEB1"/>
<ellipse cx="139.976" cy="106.186" rx="10.2282" ry="9.23937" fill="#E9AEB1"/>
<path d="M125.827 84.842H124.148V90.6518H125.827V84.842Z" fill="#E08F92"/>
<path d="M124.993 82.2274L124.104 84.9507H125.881L124.993 82.2274Z" fill="#E08F92"/>
<path d="M124.995 82.6631C125.149 82.6631 125.274 82.5655 125.274 82.4452C125.274 82.3249 125.149 82.2274 124.995 82.2274C124.84 82.2274 124.715 82.3249 124.715 82.4452C124.715 82.5655 124.84 82.6631 124.995 82.6631Z" fill="#E08F92"/>
<path d="M37.6577 84.842H35.9795V90.6518H37.6577V84.842Z" fill="#E08F92"/>
<path d="M36.8237 82.2274L35.9355 84.9508H37.7119L36.8237 82.2274Z" fill="#E08F92"/>
<path d="M36.8256 82.6632C36.9801 82.6632 37.1053 82.5656 37.1053 82.4453C37.1053 82.325 36.9801 82.2274 36.8256 82.2274C36.6711 82.2274 36.5459 82.325 36.5459 82.4453C36.5459 82.5656 36.6711 82.6632 36.8256 82.6632Z" fill="#E08F92"/>
<path d="M8.74854 84.842H7.07031V90.6518H8.74854V84.842Z" fill="#E08F92"/>
<path d="M7.91063 82.2274L7.02246 84.9507H8.79879L7.91063 82.2274Z" fill="#E08F92"/>
<path d="M7.91252 82.6631C8.06699 82.6631 8.19222 82.5655 8.19222 82.4452C8.19222 82.3249 8.06699 82.2274 7.91252 82.2274C7.75804 82.2274 7.63281 82.3249 7.63281 82.4452C7.63281 82.5655 7.75804 82.6631 7.91252 82.6631Z" fill="#E08F92"/>
<path d="M154.748 84.842H153.069V90.6518H154.748V84.842Z" fill="#E08F92"/>
<path d="M153.914 82.2274L153.025 84.9507H154.802L153.914 82.2274Z" fill="#E08F92"/>
<path d="M153.915 82.6631C154.07 82.6631 154.195 82.5655 154.195 82.4452C154.195 82.3249 154.07 82.2274 153.915 82.2274C153.761 82.2274 153.636 82.3249 153.636 82.4452C153.636 82.5655 153.761 82.6631 153.915 82.6631Z" fill="#E08F92"/>
<path d="M28.7855 82.6655C29.6206 82.6655 30.2975 80.2528 30.2975 77.2766C30.2975 74.3004 29.6206 71.8878 28.7855 71.8878C27.9504 71.8878 27.2734 74.3004 27.2734 77.2766C27.2734 80.2528 27.9504 82.6655 28.7855 82.6655Z" fill="#EEE4D4"/>
<path d="M23.0638 82.6655C23.8989 82.6655 24.5758 80.2528 24.5758 77.2766C24.5758 74.3004 23.8989 71.8878 23.0638 71.8878C22.2287 71.8878 21.5518 74.3004 21.5518 77.2766C21.5518 80.2528 22.2287 82.6655 23.0638 82.6655Z" fill="#EEE4D4"/>
<path d="M17.6986 82.6655C18.5336 82.6655 19.2106 80.2528 19.2106 77.2766C19.2106 74.3004 18.5336 71.8878 17.6986 71.8878C16.8635 71.8878 16.1865 74.3004 16.1865 77.2766C16.1865 80.2528 16.8635 82.6655 17.6986 82.6655Z" fill="#EEE4D4"/>
<path d="M25.8812 60.2417C26.7163 60.2417 27.3932 57.8291 27.3932 54.8529C27.3932 51.8767 26.7163 49.464 25.8812 49.464C25.0461 49.464 24.3691 51.8767 24.3691 54.8529C24.3691 57.8291 25.0461 60.2417 25.8812 60.2417Z" fill="#EEE4D4"/>
<path d="M20.5159 60.2417C21.351 60.2417 22.028 57.8291 22.028 54.8529C22.028 51.8767 21.351 49.464 20.5159 49.464C19.6809 49.464 19.0039 51.8767 19.0039 54.8529C19.0039 57.8291 19.6809 60.2417 20.5159 60.2417Z" fill="#EEE4D4"/>
<path d="M142.977 60.2417C143.812 60.2417 144.489 57.8291 144.489 54.8529C144.489 51.8767 143.812 49.464 142.977 49.464C142.142 49.464 141.465 51.8767 141.465 54.8529C141.465 57.8291 142.142 60.2417 142.977 60.2417Z" fill="#EEE4D4"/>
<path d="M137.612 60.2417C138.447 60.2417 139.124 57.8291 139.124 54.8529C139.124 51.8767 138.447 49.464 137.612 49.464C136.777 49.464 136.1 51.8767 136.1 54.8529C136.1 57.8291 136.777 60.2417 137.612 60.2417Z" fill="#EEE4D4"/>
<path d="M145.883 82.6655C146.718 82.6655 147.395 80.2528 147.395 77.2766C147.395 74.3004 146.718 71.8878 145.883 71.8878C145.048 71.8878 144.371 74.3004 144.371 77.2766C144.371 80.2528 145.048 82.6655 145.883 82.6655Z" fill="#EEE4D4"/>
<path d="M140.161 82.6655C140.997 82.6655 141.673 80.2528 141.673 77.2766C141.673 74.3004 140.997 71.8878 140.161 71.8878C139.326 71.8878 138.649 74.3004 138.649 77.2766C138.649 80.2528 139.326 82.6655 140.161 82.6655Z" fill="#EEE4D4"/>
<path d="M134.796 82.6655C135.631 82.6655 136.308 80.2528 136.308 77.2766C136.308 74.3004 135.631 71.8878 134.796 71.8878C133.961 71.8878 133.284 74.3004 133.284 77.2766C133.284 80.2528 133.961 82.6655 134.796 82.6655Z" fill="#EEE4D4"/>
<rect x="124.106" y="90.3519" width="31.0372" height="2.63779" fill="#E9AEB1"/>
<path d="M128.34 64.632H151.618V67.2698H128.34V64.632Z" fill="#9A191E"/>
<path d="M128.34 64.632H151.618V67.2698H128.34V64.632Z" fill="#E9AEB1"/>
<rect x="132.574" y="42.8712" width="14.8132" height="2.63779" fill="#E9AEB1"/>
<rect x="135.397" y="27.0453" width="9.17008" height="2.63779" fill="#E9AEB1"/>
<rect x="138.926" y="178.058" width="0.705391" height="31.6535" fill="#9A191E"/>
<rect x="122.696" y="192.566" width="0.659449" height="33.8588" transform="rotate(-90 122.696 192.566)" fill="#9A191E"/>
<rect x="121.988" y="202.458" width="0.659449" height="33.8588" transform="rotate(-90 121.988 202.458)" fill="#9A191E"/>
<rect x="64.1465" y="206.414" width="0.659449" height="33.8588" transform="rotate(-90 64.1465 206.414)" fill="#84010B"/>
<rect x="64.1465" y="201.141" width="0.659449" height="33.8588" transform="rotate(-90 64.1465 201.141)" fill="#84010B"/>
<rect x="17.5967" y="152.999" width="9.87548" height="1.97835" fill="#84010B"/>
<rect x="15.4766" y="209.713" width="13.4024" height="1.97835" fill="#84010B"/>
<rect x="11.9482" y="224.878" width="19.751" height="1.97835" fill="#84010B"/>
<rect x="129.748" y="224.878" width="19.751" height="1.97835" fill="#84010B"/>
<rect x="71.2031" y="220.263" width="19.751" height="2.63779" fill="#9A191E"/>
<rect x="132.569" y="209.713" width="13.4024" height="1.97835" fill="#84010B"/>
<rect x="7.01562" y="90.3519" width="31.0372" height="2.63779" fill="#E9AEB1"/>
<rect x="0.666016" y="118.05" width="43.7343" height="2.63779" fill="#E9AEB1"/>
<rect x="117.762" y="118.05" width="43.7343" height="2.63779" fill="#E9AEB1"/>
<rect x="11.2451" y="65.2944" width="23.2779" height="2.63779" fill="#E9AEB1"/>
<rect x="15.4766" y="42.8722" width="14.8132" height="2.63779" fill="#E9AEB1"/>
<rect x="18.3018" y="27.0453" width="9.17008" height="2.63779" fill="#E9AEB1"/>
<rect x="21.8242" y="178.058" width="0.705391" height="31.6535" fill="#9A191E"/>
<rect x="5.60254" y="192.566" width="0.659449" height="33.8588" transform="rotate(-90 5.60254 192.566)" fill="#9A191E"/>
<rect x="4.89746" y="202.459" width="0.659449" height="33.8588" transform="rotate(-90 4.89746 202.459)" fill="#9A191E"/>
<rect x="21.8242" y="178.058" width="0.705391" height="31.6535" fill="#9A191E"/>
<rect x="5.60254" y="192.566" width="0.659449" height="33.8588" transform="rotate(-90 5.60254 192.566)" fill="#9A191E"/>
<rect x="4.89746" y="202.459" width="0.659449" height="33.8588" transform="rotate(-90 4.89746 202.459)" fill="#9A191E"/>
<ellipse cx="81.0748" cy="168.167" rx="1.41078" ry="1.3189" fill="#EEE4D4"/>
<rect x="50.7441" y="147.065" width="61.369" height="6.59449" fill="#84010B"/>
</svg>
