<svg width="473" height="355" viewBox="0 0 473 355" fill="none" xmlns="http://www.w3.org/2000/svg">
<rect x="0.203125" y="294.25" width="472.237" height="60.7181" fill="#C7353B"/>
<rect x="0.203125" y="294.347" width="472.237" height="16.5328" fill="#84010B"/>
<rect x="0.204102" y="289.578" width="45.2142" height="65.3887" fill="#C11F25"/>
<path d="M11.9263 263.112H33.6961L45.4183 289.579H0.204102L11.9263 263.112Z" fill="#84010B"/>
<rect x="323.406" y="289.579" width="45.2142" height="65.3887" fill="#C11F25"/>
<path d="M335.128 263.112H356.898L368.62 289.579H323.406L335.128 263.112Z" fill="#84010B"/>
<rect x="104.032" y="289.578" width="45.2142" height="65.3887" fill="#C11F25"/>
<path d="M115.754 263.112H137.524L149.246 289.579H104.032L115.754 263.112Z" fill="#84010B"/>
<rect x="427.23" y="289.58" width="45.2142" height="65.3887" fill="#C11F25"/>
<path d="M438.953 263.112H460.722L472.445 289.579H427.23L438.953 263.112Z" fill="#84010B"/>
<path d="M236.917 10.3767H236.048V23.15H236.917V10.3767Z" fill="#C11F25"/>
<path d="M264.977 173.105H209.652V354.966H264.977V173.105Z" fill="#C11F25"/>
<path d="M208.735 167.12V116.238H264.226V167.12H208.735Z" fill="#C11F25" stroke="#84010B"/>
<path d="M197.808 167.619H275.156L270.811 174.006H202.153L197.808 167.619Z" fill="#84010B"/>
<path d="M206.065 123.72C206.785 123.72 207.369 123.184 207.369 122.523C207.369 121.862 206.785 121.325 206.065 121.325C205.345 121.325 204.762 121.862 204.762 122.523C204.762 123.184 205.345 123.72 206.065 123.72Z" fill="#C11F25"/>
<path d="M266.904 123.72C267.624 123.72 268.208 123.184 268.208 122.523C268.208 121.862 267.624 121.325 266.904 121.325C266.184 121.325 265.601 121.862 265.601 122.523C265.601 123.184 266.184 123.72 266.904 123.72Z" fill="#C11F25"/>
<path d="M236.483 23.1463L264.707 115.936H208.259L236.483 23.1463Z" fill="#84010B"/>
<path d="M239.519 19.9544H233.436V32.7277H239.519V19.9544Z" fill="#84010B"/>
<path d="M270.814 135.692H262.992V167.62H270.814V135.692Z" fill="#C11F25"/>
<path d="M209.977 135.692H202.155V167.62H209.977V135.692Z" fill="#C11F25"/>
<path d="M220.4 207.529C221.36 207.529 222.138 201.454 222.138 193.96C222.138 186.466 221.36 180.391 220.4 180.391C219.44 180.391 218.662 186.466 218.662 193.96C218.662 201.454 219.44 207.529 220.4 207.529Z" fill="#EEE4D4"/>
<path d="M230.837 207.529C231.797 207.529 232.575 201.454 232.575 193.96C232.575 186.466 231.797 180.391 230.837 180.391C229.877 180.391 229.099 186.466 229.099 193.96C229.099 201.454 229.877 207.529 230.837 207.529Z" fill="#EEE4D4"/>
<path d="M251.689 207.529C252.649 207.529 253.427 201.454 253.427 193.96C253.427 186.466 252.649 180.391 251.689 180.391C250.729 180.391 249.951 186.466 249.951 193.96C249.951 201.454 250.729 207.529 251.689 207.529Z" fill="#EEE4D4"/>
<path d="M241.264 207.529C242.224 207.529 243.002 201.454 243.002 193.96C243.002 186.466 242.224 180.391 241.264 180.391C240.304 180.391 239.525 186.466 239.525 193.96C239.525 201.454 240.304 207.529 241.264 207.529Z" fill="#EEE4D4"/>
<path d="M254.299 0.000183105H236.048V10.3785H254.299V0.000183105Z" fill="#C11F25"/>
<path d="M206.062 121.325L201.923 136.294H210.202L206.062 121.325Z" fill="#84010B"/>
<path d="M266.899 121.325L262.76 136.294H271.039L266.899 121.325Z" fill="#84010B"/>
<path d="M236.916 163.63C249.876 163.63 260.382 153.981 260.382 142.079C260.382 130.176 249.876 120.527 236.916 120.527C223.957 120.527 213.451 130.176 213.451 142.079C213.451 153.981 223.957 163.63 236.916 163.63Z" fill="#E08F92"/>
<path d="M236.916 160.436C247.955 160.436 256.905 152.217 256.905 142.078C256.905 131.939 247.955 123.719 236.916 123.719C225.876 123.719 216.927 131.939 216.927 142.078C216.927 152.217 225.876 160.436 236.916 160.436Z" fill="#EEE4D4"/>
<path d="M236.482 144.474C237.682 144.474 238.655 143.58 238.655 142.478C238.655 141.375 237.682 140.482 236.482 140.482C235.282 140.482 234.31 141.375 234.31 142.478C234.31 143.58 235.282 144.474 236.482 144.474Z" fill="#C11F25"/>
<path d="M236.486 142.477L227.36 148.465" stroke="#C11F25"/>
<path d="M236.482 142.477L247.659 151.442" stroke="#C11F25"/>
<path d="M249.169 354.968V332.792C249.169 327.121 236.326 320.065 236.326 320.065C236.326 320.065 223.482 327.121 223.482 332.792V354.968H249.169Z" fill="#E08F92"/>
<path d="M13.9791 255.53H12.1123V263.239H13.9791V255.53Z" fill="#84010B"/>
<path d="M13.0495 252.061L12.0615 255.674H14.0374L13.0495 252.061Z" fill="#84010B"/>
<path d="M13.0445 252.64C13.2164 252.64 13.3557 252.511 13.3557 252.351C13.3557 252.191 13.2164 252.062 13.0445 252.062C12.8727 252.062 12.7334 252.191 12.7334 252.351C12.7334 252.511 12.8727 252.64 13.0445 252.64Z" fill="#C11F25"/>
<path d="M33.7379 255.566H31.8711V263.275H33.7379V255.566Z" fill="#84010B"/>
<path d="M32.8083 252.096L31.8203 255.71H33.7962L32.8083 252.096Z" fill="#84010B"/>
<path d="M32.8082 252.676C32.98 252.676 33.1193 252.546 33.1193 252.387C33.1193 252.227 32.98 252.097 32.8082 252.097C32.6364 252.097 32.4971 252.227 32.4971 252.387C32.4971 252.546 32.6364 252.676 32.8082 252.676Z" fill="#C11F25"/>
<path d="M338.027 255.566H336.16V263.275H338.027V255.566Z" fill="#84010B"/>
<path d="M337.097 252.096L336.109 255.71H338.085L337.097 252.096Z" fill="#84010B"/>
<path d="M337.092 252.675C337.264 252.675 337.404 252.545 337.404 252.386C337.404 252.226 337.264 252.096 337.092 252.096C336.921 252.096 336.781 252.226 336.781 252.386C336.781 252.545 336.921 252.675 337.092 252.675Z" fill="#C11F25"/>
<path d="M355.805 255.566H353.938V263.275H355.805V255.566Z" fill="#84010B"/>
<path d="M354.876 252.096L353.888 255.71H355.864L354.876 252.096Z" fill="#84010B"/>
<path d="M354.876 252.675C355.047 252.675 355.187 252.546 355.187 252.386C355.187 252.227 355.047 252.097 354.876 252.097C354.704 252.097 354.564 252.227 354.564 252.386C354.564 252.546 354.704 252.675 354.876 252.675Z" fill="#C11F25"/>
<path d="M440.774 255.566H438.907V263.275H440.774V255.566Z" fill="#84010B"/>
<path d="M439.844 252.096L438.856 255.71H440.832L439.844 252.096Z" fill="#84010B"/>
<path d="M439.839 252.676C440.011 252.676 440.151 252.546 440.151 252.387C440.151 252.227 440.011 252.097 439.839 252.097C439.668 252.097 439.528 252.227 439.528 252.387C439.528 252.546 439.668 252.676 439.839 252.676Z" fill="#C11F25"/>
<path d="M460.531 255.566H458.664V263.275H460.531V255.566Z" fill="#84010B"/>
<path d="M459.601 252.096L458.613 255.71H460.589L459.601 252.096Z" fill="#84010B"/>
<path d="M459.601 252.675C459.773 252.675 459.912 252.545 459.912 252.386C459.912 252.226 459.773 252.096 459.601 252.096C459.429 252.096 459.29 252.226 459.29 252.386C459.29 252.545 459.429 252.675 459.601 252.675Z" fill="#C11F25"/>
<path d="M118.706 255.566H116.839V263.275H118.706V255.566Z" fill="#84010B"/>
<path d="M117.776 252.097L116.788 255.71H118.764L117.776 252.097Z" fill="#84010B"/>
<path d="M117.771 252.675C117.943 252.675 118.082 252.545 118.082 252.386C118.082 252.226 117.943 252.097 117.771 252.097C117.599 252.097 117.46 252.226 117.46 252.386C117.46 252.545 117.599 252.675 117.771 252.675Z" fill="#C11F25"/>
<path d="M136.489 255.53H134.622V263.239H136.489V255.53Z" fill="#84010B"/>
<path d="M135.559 252.061L134.571 255.674H136.547L135.559 252.061Z" fill="#84010B"/>
<path d="M135.554 252.64C135.726 252.64 135.865 252.51 135.865 252.351C135.865 252.191 135.726 252.062 135.554 252.062C135.382 252.062 135.243 252.191 135.243 252.351C135.243 252.51 135.382 252.64 135.554 252.64Z" fill="#C11F25"/>
<path d="M27.0834 311.513C27.9487 311.513 28.6501 308.904 28.6501 305.686C28.6501 302.467 27.9487 299.858 27.0834 299.858C26.2181 299.858 25.5166 302.467 25.5166 305.686C25.5166 308.904 26.2181 311.513 27.0834 311.513Z" fill="#E08F92"/>
<path d="M21.1625 311.513C22.0278 311.513 22.7292 308.904 22.7292 305.686C22.7292 302.467 22.0278 299.858 21.1625 299.858C20.2972 299.858 19.5957 302.467 19.5957 305.686C19.5957 308.904 20.2972 311.513 21.1625 311.513Z" fill="#E08F92"/>
<path d="M15.6019 311.513C16.4672 311.513 17.1687 308.904 17.1687 305.686C17.1687 302.467 16.4672 299.858 15.6019 299.858C14.7366 299.858 14.0352 302.467 14.0352 305.686C14.0352 308.904 14.7366 311.513 15.6019 311.513Z" fill="#E08F92"/>
<path d="M131.812 311.513C132.677 311.513 133.379 308.904 133.379 305.686C133.379 302.467 132.677 299.858 131.812 299.858C130.947 299.858 130.245 302.467 130.245 305.686C130.245 308.904 130.947 311.513 131.812 311.513Z" fill="#E08F92"/>
<path d="M125.891 311.513C126.756 311.513 127.458 308.904 127.458 305.686C127.458 302.467 126.756 299.858 125.891 299.858C125.026 299.858 124.324 302.467 124.324 305.686C124.324 308.904 125.026 311.513 125.891 311.513Z" fill="#E08F92"/>
<path d="M120.33 311.513C121.196 311.513 121.897 308.904 121.897 305.686C121.897 302.467 121.196 299.858 120.33 299.858C119.465 299.858 118.764 302.467 118.764 305.686C118.764 308.904 119.465 311.513 120.33 311.513Z" fill="#E08F92"/>
<path d="M351.128 311.513C351.994 311.513 352.695 308.904 352.695 305.686C352.695 302.467 351.994 299.858 351.128 299.858C350.263 299.858 349.562 302.467 349.562 305.686C349.562 308.904 350.263 311.513 351.128 311.513Z" fill="#E08F92"/>
<path d="M345.207 311.513C346.073 311.513 346.774 308.904 346.774 305.686C346.774 302.467 346.073 299.858 345.207 299.858C344.342 299.858 343.641 302.467 343.641 305.686C343.641 308.904 344.342 311.513 345.207 311.513Z" fill="#E08F92"/>
<path d="M339.647 311.513C340.512 311.513 341.214 308.904 341.214 305.686C341.214 302.467 340.512 299.858 339.647 299.858C338.782 299.858 338.08 302.467 338.08 305.686C338.08 308.904 338.782 311.513 339.647 311.513Z" fill="#E08F92"/>
<path d="M455.857 311.513C456.722 311.513 457.424 308.904 457.424 305.686C457.424 302.467 456.722 299.858 455.857 299.858C454.992 299.858 454.29 302.467 454.29 305.686C454.29 308.904 454.992 311.513 455.857 311.513Z" fill="#E08F92"/>
<path d="M449.931 311.513C450.796 311.513 451.498 308.904 451.498 305.686C451.498 302.467 450.796 299.858 449.931 299.858C449.066 299.858 448.364 302.467 448.364 305.686C448.364 308.904 449.066 311.513 449.931 311.513Z" fill="#E08F92"/>
<path d="M444.37 311.513C445.236 311.513 445.937 308.904 445.937 305.686C445.937 302.467 445.236 299.858 444.37 299.858C443.505 299.858 442.804 302.467 442.804 305.686C442.804 308.904 443.505 311.513 444.37 311.513Z" fill="#E08F92"/>
<path d="M244.699 354.968V340.13C244.699 336.336 236.326 331.615 236.326 331.615C236.326 331.615 227.953 336.336 227.953 340.13V354.968H244.699Z" fill="#EEE4D4"/>
<path d="M15.352 344.277C11.5802 344.27 12.0819 344.794 12.0912 340.571C12.1004 336.348 13.5714 332.927 15.3768 332.931C17.1821 332.934 18.6382 336.36 18.629 340.583C18.6197 344.806 19.1237 344.284 15.352 344.277Z" fill="#EEE4D4"/>
<rect width="6.60003" height="3.30461" transform="matrix(-1 0 0 1 18.668 341.186)" fill="#EEE4D4"/>
<path d="M27.2153 344.278C23.4435 344.271 23.9452 344.795 23.9545 340.572C23.9637 336.349 25.4347 332.928 27.2401 332.932C29.0454 332.935 30.5015 336.361 30.4922 340.584C30.483 344.807 30.987 344.285 27.2153 344.278Z" fill="#EEE4D4"/>
<rect width="6.60003" height="3.30461" transform="matrix(-1 0 0 1 30.5312 341.187)" fill="#EEE4D4"/>
<path d="M15.352 344.277C11.5802 344.27 12.0819 344.794 12.0912 340.571C12.1004 336.348 13.5714 332.927 15.3768 332.931C17.1821 332.934 18.6382 336.36 18.629 340.583C18.6197 344.806 19.1237 344.284 15.352 344.277Z" fill="#EEE4D4"/>
<rect width="6.60003" height="3.30461" transform="matrix(-1 0 0 1 18.668 341.186)" fill="#EEE4D4"/>
<path d="M27.2153 344.278C23.4435 344.271 23.9452 344.795 23.9545 340.572C23.9637 336.349 25.4347 332.928 27.2401 332.932C29.0454 332.935 30.5015 336.361 30.4922 340.584C30.483 344.807 30.987 344.285 27.2153 344.278Z" fill="#EEE4D4"/>
<rect width="6.60003" height="3.30461" transform="matrix(-1 0 0 1 30.5312 341.187)" fill="#EEE4D4"/>
<path d="M120.073 344.277C116.301 344.27 116.803 344.794 116.812 340.571C116.821 336.348 118.292 332.927 120.097 332.931C121.903 332.934 123.359 336.36 123.35 340.583C123.34 344.806 123.844 344.284 120.073 344.277Z" fill="#EEE4D4"/>
<rect width="6.60003" height="3.30461" transform="matrix(-1 0 0 1 123.389 341.186)" fill="#EEE4D4"/>
<path d="M131.93 344.278C128.158 344.271 128.66 344.795 128.669 340.572C128.679 336.349 130.15 332.928 131.955 332.932C133.76 332.935 135.216 336.361 135.207 340.584C135.198 344.807 135.702 344.285 131.93 344.278Z" fill="#EEE4D4"/>
<rect width="6.60003" height="3.30461" transform="matrix(-1 0 0 1 135.246 341.187)" fill="#EEE4D4"/>
<path d="M339.404 344.277C335.632 344.27 336.134 344.794 336.143 340.571C336.152 336.348 337.623 332.927 339.429 332.931C341.234 332.934 342.69 336.36 342.681 340.583C342.671 344.806 343.175 344.284 339.404 344.277Z" fill="#EEE4D4"/>
<rect width="6.60003" height="3.30461" transform="matrix(-1 0 0 1 342.72 341.186)" fill="#EEE4D4"/>
<path d="M351.262 344.278C347.49 344.271 347.992 344.795 348.001 340.572C348.011 336.349 349.482 332.928 351.287 332.932C353.092 332.935 354.548 336.361 354.539 340.584C354.53 344.807 355.034 344.285 351.262 344.278Z" fill="#EEE4D4"/>
<rect width="6.60003" height="3.30461" transform="matrix(-1 0 0 1 354.578 341.187)" fill="#EEE4D4"/>
<path d="M444.122 344.277C440.35 344.27 440.851 344.794 440.861 340.571C440.87 336.348 442.341 332.927 444.146 332.931C445.952 332.934 447.408 336.36 447.398 340.583C447.389 344.806 447.893 344.284 444.122 344.277Z" fill="#EEE4D4"/>
<rect width="6.60003" height="3.30461" transform="matrix(-1 0 0 1 447.438 341.185)" fill="#EEE4D4"/>
<path d="M455.976 344.277C452.204 344.27 452.706 344.794 452.715 340.571C452.724 336.348 454.195 332.927 456.001 332.931C457.806 332.934 459.262 336.36 459.253 340.583C459.244 344.806 459.748 344.284 455.976 344.277Z" fill="#EEE4D4"/>
<rect width="6.60003" height="3.30461" transform="matrix(-1 0 0 1 459.292 341.186)" fill="#EEE4D4"/>
<path d="M56.3699 342.643C53.1407 342.637 53.5703 343.086 53.5782 339.47C53.5861 335.854 54.8455 332.926 56.3912 332.929C57.9369 332.932 59.1835 335.865 59.1756 339.481C59.1677 343.096 59.5992 342.649 56.3699 342.643Z" fill="#EEE4D4"/>
<rect width="5.65071" height="2.82929" transform="matrix(-1 0 0 1 59.209 339.996)" fill="#EEE4D4"/>
<path d="M66.5223 342.643C63.293 342.637 63.7226 343.086 63.7305 339.47C63.7384 335.854 64.9978 332.926 66.5435 332.929C68.0892 332.932 69.3358 335.865 69.3279 339.481C69.32 343.096 69.7515 342.649 66.5223 342.643Z" fill="#EEE4D4"/>
<rect width="5.65071" height="2.82929" transform="matrix(-1 0 0 1 69.3613 339.996)" fill="#EEE4D4"/>
<path d="M80.0828 342.643C76.8536 342.637 77.2831 343.086 77.2911 339.47C77.299 335.854 78.5584 332.926 80.1041 332.929C81.6498 332.932 82.8964 335.865 82.8885 339.481C82.8806 343.096 83.3121 342.649 80.0828 342.643Z" fill="#EEE4D4"/>
<rect width="5.65071" height="2.82929" transform="matrix(-1 0 0 1 82.9219 339.996)" fill="#EEE4D4"/>
<path d="M90.2362 342.643C87.0069 342.637 87.4365 343.086 87.4444 339.47C87.4523 335.854 88.7117 332.926 90.2574 332.929C91.8031 332.932 93.0497 335.865 93.0418 339.481C93.0339 343.096 93.4654 342.649 90.2362 342.643Z" fill="#EEE4D4"/>
<rect width="5.65071" height="2.82929" transform="matrix(-1 0 0 1 93.0752 339.996)" fill="#EEE4D4"/>
<path d="M163.068 342.643C159.839 342.637 160.268 343.086 160.276 339.47C160.284 335.854 161.544 332.926 163.089 332.929C164.635 332.932 165.882 335.865 165.874 339.481C165.866 343.096 166.297 342.649 163.068 342.643Z" fill="#EEE4D4"/>
<rect width="5.65071" height="2.82929" transform="matrix(-1 0 0 1 165.907 339.996)" fill="#EEE4D4"/>
<path d="M173.219 342.643C169.989 342.637 170.419 343.086 170.427 339.47C170.435 335.854 171.694 332.926 173.24 332.929C174.786 332.932 176.032 335.865 176.024 339.481C176.016 343.096 176.448 342.649 173.219 342.643Z" fill="#EEE4D4"/>
<rect width="5.65071" height="2.82929" transform="matrix(-1 0 0 1 176.058 339.996)" fill="#EEE4D4"/>
<path d="M186.781 342.643C183.552 342.637 183.981 343.086 183.989 339.47C183.997 335.854 185.257 332.926 186.802 332.929C188.348 332.932 189.595 335.865 189.587 339.481C189.579 343.096 190.01 342.649 186.781 342.643Z" fill="#EEE4D4"/>
<rect width="5.65071" height="2.82929" transform="matrix(-1 0 0 1 189.62 339.996)" fill="#EEE4D4"/>
<path d="M196.934 342.643C193.705 342.637 194.135 343.086 194.143 339.47C194.151 335.854 195.41 332.926 196.956 332.929C198.501 332.932 199.748 335.865 199.74 339.481C199.732 343.096 200.164 342.649 196.934 342.643Z" fill="#EEE4D4"/>
<rect width="5.65071" height="2.82929" transform="matrix(-1 0 0 1 199.773 339.996)" fill="#EEE4D4"/>
<path d="M277.675 342.645C274.445 342.639 274.875 343.088 274.883 339.472C274.891 335.857 276.15 332.928 277.696 332.931C279.242 332.934 280.488 335.867 280.48 339.483C280.472 343.099 280.904 342.652 277.675 342.645Z" fill="#EEE4D4"/>
<rect width="5.65071" height="2.82929" transform="matrix(-1 0 0 1 280.514 339.998)" fill="#EEE4D4"/>
<path d="M287.828 342.645C284.599 342.639 285.028 343.088 285.036 339.472C285.044 335.857 286.304 332.928 287.849 332.931C289.395 332.934 290.642 335.867 290.634 339.483C290.626 343.099 291.057 342.652 287.828 342.645Z" fill="#EEE4D4"/>
<rect width="5.65071" height="2.82929" transform="matrix(-1 0 0 1 290.667 339.998)" fill="#EEE4D4"/>
<path d="M301.39 342.645C298.161 342.639 298.591 343.088 298.599 339.472C298.607 335.857 299.866 332.928 301.412 332.931C302.957 332.934 304.204 335.867 304.196 339.483C304.188 343.099 304.62 342.652 301.39 342.645Z" fill="#EEE4D4"/>
<rect width="5.65071" height="2.82929" transform="matrix(-1 0 0 1 304.229 339.998)" fill="#EEE4D4"/>
<path d="M311.541 342.645C308.312 342.639 308.741 343.088 308.749 339.472C308.757 335.857 310.016 332.928 311.562 332.931C313.108 332.934 314.354 335.867 314.346 339.483C314.339 343.099 314.77 342.652 311.541 342.645Z" fill="#EEE4D4"/>
<rect width="5.65071" height="2.82929" transform="matrix(-1 0 0 1 314.38 339.998)" fill="#EEE4D4"/>
<path d="M382.396 342.645C379.167 342.639 379.597 343.087 379.605 339.472C379.612 335.856 380.872 332.928 382.418 332.931C383.963 332.933 385.21 335.867 385.202 339.483C385.194 343.098 385.626 342.651 382.396 342.645Z" fill="#EEE4D4"/>
<rect width="5.65071" height="2.82929" transform="matrix(-1 0 0 1 385.235 339.997)" fill="#EEE4D4"/>
<path d="M392.547 342.645C389.317 342.639 389.747 343.087 389.755 339.472C389.763 335.856 391.022 332.928 392.568 332.931C394.114 332.933 395.36 335.867 395.352 339.483C395.344 343.098 395.776 342.651 392.547 342.645Z" fill="#EEE4D4"/>
<rect width="5.65071" height="2.82929" transform="matrix(-1 0 0 1 395.386 339.997)" fill="#EEE4D4"/>
<path d="M406.099 342.645C402.87 342.639 403.3 343.087 403.308 339.472C403.316 335.856 404.575 332.928 406.121 332.931C407.666 332.933 408.913 335.867 408.905 339.483C408.897 343.098 409.329 342.651 406.099 342.645Z" fill="#EEE4D4"/>
<rect width="5.65071" height="2.82929" transform="matrix(-1 0 0 1 408.938 339.997)" fill="#EEE4D4"/>
<path d="M416.251 342.645C413.022 342.639 413.451 343.087 413.459 339.472C413.467 335.856 414.726 332.928 416.272 332.931C417.818 332.933 419.064 335.867 419.056 339.483C419.049 343.098 419.48 342.651 416.251 342.645Z" fill="#EEE4D4"/>
<rect width="5.65071" height="2.82929" transform="matrix(-1 0 0 1 419.09 339.997)" fill="#EEE4D4"/>
<path d="M228.581 283.942C234.382 283.901 233.611 286.898 233.596 262.752C233.582 238.606 231.32 219.047 228.543 219.067C225.767 219.087 223.527 238.677 223.542 262.823C223.556 286.969 222.781 283.983 228.581 283.942Z" fill="#9A191E"/>
<rect x="223.481" y="266.266" width="10.1504" height="18.8947" fill="#9A191E"/>
<path d="M246.367 283.942C252.167 283.901 251.396 286.898 251.381 262.752C251.367 238.606 249.105 219.047 246.328 219.067C243.552 219.087 241.312 238.677 241.327 262.823C241.341 286.969 240.566 283.983 246.367 283.942Z" fill="#9A191E"/>
<rect x="241.267" y="266.266" width="10.1504" height="18.8947" fill="#9A191E"/>
<rect x="0.206055" y="288.836" width="5.92766" height="66.1313" fill="#9A191E"/>
<rect x="39.7314" y="288.836" width="5.92766" height="66.1313" fill="#9A191E"/>
<rect x="102.95" y="288.836" width="5.92766" height="66.1313" fill="#9A191E"/>
<rect x="144.444" y="288.836" width="5.92766" height="66.1313" fill="#9A191E"/>
<rect x="363.776" y="288.836" width="5.92766" height="66.1313" fill="#9A191E"/>
<rect x="426.995" y="288.836" width="5.92766" height="66.1313" fill="#9A191E"/>
<rect x="466.518" y="288.836" width="5.92766" height="66.1313" fill="#9A191E"/>
<rect x="322.277" y="288.836" width="5.92766" height="66.1313" fill="#9A191E"/>
</svg>
