<svg width="331" height="129" viewBox="0 0 331 129" fill="none" xmlns="http://www.w3.org/2000/svg">
<path d="M36.1768 35.0314H288.661V56.7162H36.1768V35.0314Z" fill="#9A191E"/>
<path d="M45.2158 49.5666H284.133V127.966H45.2158V49.5666Z" fill="#C11F25"/>
<rect x="78.3809" y="113.987" width="173.347" height="15.0126" fill="#C11F25"/>
<rect x="78.3809" y="122.326" width="173.347" height="2.78011" fill="#C11F25"/>
<rect x="78.3809" y="124.232" width="173.347" height="2.78011" fill="#C11F25"/>
<rect width="175.608" height="2.54181" transform="matrix(1 0 0 -1 78.3809 129)" fill="#84010B"/>
<rect width="128.88" height="2.54181" transform="matrix(1 0 0 -1 102.502 116.29)" fill="#84010B"/>
<path d="M251.979 58.3847H330.867V128.999H251.979V58.3847Z" fill="#E08F92"/>
<path d="M0 58.3847H78.8883V128.999H0V58.3847Z" fill="#E08F92"/>
<path d="M118.435 7.62744H212.422L263.03 50.4411H67.8262L118.435 7.62744Z" fill="#84010B"/>
<path d="M73.8633 53.3796H261.53V60.3696H73.8633V53.3796Z" fill="#9A191E"/>
<path d="M103.252 71.8076H231.378V68.6304H103.252V71.8076Z" fill="#9A191E"/>
<path d="M78.7539 122.326H251.724L231.375 115.654H103.249L78.7539 122.326Z" fill="#9A191E"/>
<path d="M291.296 23.3558L330.864 58.3851H251.728L291.296 23.3558Z" fill="#84010B"/>
<rect x="162.039" y="68.393" width="10.5516" height="25.021" fill="#E08F92"/>
<rect x="122.853" y="68.393" width="10.5516" height="25.021" fill="#E08F92"/>
<rect x="181.633" y="68.393" width="10.5516" height="25.021" fill="#E08F92"/>
<rect x="220.822" y="68.393" width="10.5516" height="25.021" fill="#E08F92"/>
<rect x="103.252" y="68.393" width="10.5516" height="25.021" fill="#E08F92"/>
<rect x="201.232" y="68.393" width="10.5516" height="25.021" fill="#E08F92"/>
<rect x="142.441" y="68.393" width="10.5516" height="25.021" fill="#E08F92"/>
<rect x="162.039" y="100.084" width="10.5516" height="12.2325" fill="#E08F92"/>
<rect x="122.852" y="100.084" width="10.5516" height="12.2325" fill="#E08F92"/>
<rect x="181.633" y="100.084" width="10.5516" height="12.2325" fill="#E08F92"/>
<rect x="220.822" y="100.084" width="10.5516" height="12.2325" fill="#E08F92"/>
<rect x="103.252" y="100.084" width="10.5516" height="12.2325" fill="#E08F92"/>
<rect x="201.232" y="100.084" width="10.5516" height="12.2325" fill="#E08F92"/>
<rect x="142.441" y="100.084" width="10.5516" height="12.2325" fill="#E08F92"/>
<rect x="30.8965" y="70.0605" width="15.8273" height="58.9383" fill="#C11F25"/>
<rect x="34.6621" y="72.8411" width="8.29051" height="14.4566" fill="#EEE4D4"/>
<rect x="34.6621" y="91.1883" width="8.29051" height="14.4566" fill="#EEE4D4"/>
<rect x="283.39" y="70.0605" width="15.8273" height="58.9383" fill="#C11F25"/>
<rect x="287.155" y="122.326" width="3.76842" height="2.78011" fill="#84010B"/>
<rect x="291.682" y="122.326" width="3.76842" height="2.78011" fill="#84010B"/>
<rect x="287.155" y="72.8411" width="8.29051" height="14.4566" fill="#EEE4D4"/>
<rect x="287.155" y="91.1883" width="8.29051" height="14.4566" fill="#EEE4D4"/>
<rect x="250.977" y="58.3847" width="79.8904" height="2.22409" fill="#C11F25"/>
<path d="M39.5684 23.5145L79.1367 58.4644H0L39.5684 23.5145Z" fill="#84010B"/>
<path d="M96.4696 117.561H237.141L244.945 120.103H86.9053L96.4696 117.561Z" fill="#C11F25"/>
<rect y="58.3812" width="79.8904" height="2.22409" fill="#C11F25"/>
<rect x="58.7871" y="51.1547" width="211.031" height="2.22409" fill="#84010B"/>
<path d="M40.2824 19.2882H38.4893V25.0821H40.2824V19.2882Z" fill="#84010B"/>
<path d="M39.3875 16.6807L38.4385 19.3965H40.3364L39.3875 16.6807Z" fill="#84010B"/>
<path d="M39.3877 17.1152C39.5528 17.1152 39.6866 17.0179 39.6866 16.8979C39.6866 16.7779 39.5528 16.6807 39.3877 16.6807C39.2227 16.6807 39.0889 16.7779 39.0889 16.8979C39.0889 17.0179 39.2227 17.1152 39.3877 17.1152Z" fill="#C11F25"/>
<path d="M292.014 19.2882H290.221V25.0821H292.014V19.2882Z" fill="#84010B"/>
<path d="M291.119 16.6807L290.17 19.3965H292.068L291.119 16.6807Z" fill="#84010B"/>
<path d="M291.119 17.1152C291.284 17.1152 291.418 17.0179 291.418 16.8979C291.418 16.7779 291.284 16.6807 291.119 16.6807C290.954 16.6807 290.82 16.7779 290.82 16.8979C290.82 17.0179 290.954 17.1152 291.119 17.1152Z" fill="#C11F25"/>
<path d="M119.416 2.60754H117.623V8.40141H119.416V2.60754Z" fill="#84010B"/>
<path d="M118.521 0.00012207L117.572 2.716H119.47L118.521 0.00012207Z" fill="#84010B"/>
<path d="M118.522 0.434662C118.687 0.434662 118.82 0.337387 118.82 0.217392C118.82 0.0973972 118.687 0.00012207 118.522 0.00012207C118.356 0.00012207 118.223 0.0973972 118.223 0.217392C118.223 0.337387 118.356 0.434662 118.522 0.434662Z" fill="#C11F25"/>
<path d="M212.122 2.60754H210.329V8.40141H212.122V2.60754Z" fill="#84010B"/>
<path d="M211.225 0L210.276 2.71588H212.174L211.225 0Z" fill="#84010B"/>
<path d="M211.226 0.43454C211.391 0.43454 211.524 0.337265 211.524 0.21727C211.524 0.0972752 211.391 0 211.226 0C211.061 0 210.927 0.0972752 210.927 0.21727C210.927 0.337265 211.061 0.43454 211.226 0.43454Z" fill="#C11F25"/>
<rect x="125.11" y="101.672" width="2.26105" height="5.08362" fill="#EEE4D4"/>
<rect x="128.878" y="101.672" width="2.26105" height="5.08362" fill="#EEE4D4"/>
<rect x="144.708" y="101.672" width="2.26105" height="5.08362" fill="#EEE4D4"/>
<rect x="148.477" y="101.672" width="2.26105" height="5.08362" fill="#EEE4D4"/>
<rect x="164.306" y="101.672" width="2.26105" height="5.08362" fill="#EEE4D4"/>
<rect x="168.074" y="101.672" width="2.26105" height="5.08362" fill="#EEE4D4"/>
<rect x="183.897" y="101.672" width="2.26105" height="5.08362" fill="#EEE4D4"/>
<rect x="187.668" y="101.672" width="2.26105" height="5.08362" fill="#EEE4D4"/>
<rect x="203.495" y="101.672" width="2.26105" height="5.08362" fill="#EEE4D4"/>
<rect x="207.264" y="101.672" width="2.26105" height="5.08362" fill="#EEE4D4"/>
<rect x="223.089" y="101.672" width="2.26105" height="5.08362" fill="#EEE4D4"/>
<rect x="226.856" y="101.672" width="2.26105" height="5.08362" fill="#EEE4D4"/>
<ellipse cx="38.8149" cy="68.629" rx="1.88421" ry="2.54181" fill="#C11F25"/>
<ellipse cx="38.8149" cy="68.629" rx="1.88421" ry="2.54181" fill="#C11F25"/>
<ellipse cx="291.3" cy="68.629" rx="1.88421" ry="2.54181" fill="#C11F25"/>
<rect x="105.519" y="101.673" width="2.26105" height="5.08362" fill="#EEE4D4"/>
<rect x="109.28" y="101.673" width="2.26105" height="5.08362" fill="#EEE4D4"/>
<ellipse cx="70.4701" cy="107.076" rx="1.88421" ry="5.40135" fill="#FAD9D9"/>
<rect x="64.0615" y="111.842" width="12.8126" height="16.5218" fill="#84010B"/>
<ellipse cx="260.396" cy="107.71" rx="1.88421" ry="5.40135" fill="#FAD9D9"/>
<rect x="253.988" y="112.476" width="12.8126" height="16.5218" fill="#84010B"/>
<rect x="34.667" y="122.642" width="3.76842" height="3.17726" fill="#84010B"/>
<rect x="39.1904" y="122.643" width="3.76842" height="3.17726" fill="#84010B"/>
<rect x="79" y="122" width="4" height="7" fill="#84010B"/>
<rect x="248" y="122" width="4" height="7" fill="#84010B"/>
</svg>
