<svg width="668" height="668" viewBox="0 0 668 668" fill="none" xmlns="http://www.w3.org/2000/svg">
<path d="M34 267.333H634M167.333 34V100.667M500.667 34V100.667M140.667 634H527.333C564.67 634 583.34 634 597.6 626.733C610.143 620.343 620.343 610.143 626.733 597.6C634 583.34 634 564.67 634 527.333V207.333C634 169.996 634 151.328 626.733 137.067C620.343 124.523 610.143 114.324 597.6 107.933C583.34 100.667 564.67 100.667 527.333 100.667H140.667C103.33 100.667 84.6613 100.667 70.4007 107.933C57.8563 114.324 47.6577 124.523 41.2663 137.067C34 151.328 34 169.996 34 207.333V527.333C34 564.67 34 583.34 41.2663 597.6C47.6577 610.143 57.8563 620.343 70.4007 626.733C84.6613 634 103.33 634 140.667 634Z" stroke="white" stroke-width="66.6667" stroke-linecap="round" stroke-linejoin="round"/>
</svg>
