<svg width="1412" height="1412" viewBox="0 0 1412 1412" fill="none" xmlns="http://www.w3.org/2000/svg">
<circle cx="706" cy="706" r="706" fill="black"/>
<path fill-rule="evenodd" clip-rule="evenodd" d="M708.067 340H704.6C674.65 339.999 649.677 339.998 629.851 342.664C608.924 345.477 590.031 351.666 574.849 366.849C559.666 382.031 553.477 400.924 550.664 421.851C548.753 436.063 548.212 470.049 548.06 499.189C480.651 501.39 440.179 509.259 412.052 537.386C373 576.438 373 639.293 373 765C373 890.707 373 953.563 412.052 992.613C451.105 1031.67 513.959 1031.67 639.666 1031.67H773C898.707 1031.67 961.563 1031.67 1000.61 992.613C1039.67 953.563 1039.67 890.707 1039.67 765C1039.67 639.293 1039.67 576.438 1000.61 537.386C972.487 509.259 932.017 501.39 864.607 499.189C864.453 470.049 863.913 436.063 862.003 421.851C859.19 400.924 853 382.031 837.817 366.849C822.637 351.666 803.743 345.477 782.817 342.664C762.99 339.998 738.017 339.999 708.067 340ZM814.597 498.396C814.447 470.174 813.967 439.802 812.45 428.513C810.38 413.131 806.807 406.548 802.463 402.204C798.12 397.86 791.537 394.286 776.153 392.218C760.053 390.053 738.467 390 706.333 390C674.2 390 652.613 390.053 636.513 392.218C621.131 394.286 614.548 397.86 610.204 402.204C605.86 406.548 602.286 413.131 600.218 428.513C598.7 439.802 598.22 470.174 598.069 498.396C611.117 498.333 624.962 498.333 639.667 498.333H773C787.707 498.333 801.55 498.333 814.597 498.396ZM706.333 606.667C720.14 606.667 731.333 617.86 731.333 631.667V632.007C767.627 641.15 798 669.767 798 709.443C798 723.25 786.807 734.443 773 734.443C759.193 734.443 748 723.25 748 709.443C748 696.643 733.807 678.89 706.333 678.89C678.86 678.89 664.667 696.643 664.667 709.443C664.667 722.247 678.86 740 706.333 740C752.497 740 798 771.993 798 820.557C798 860.233 767.627 888.85 731.333 897.993V898.333C731.333 912.14 720.14 923.333 706.333 923.333C692.527 923.333 681.333 912.14 681.333 898.333V897.993C645.04 888.85 614.667 860.233 614.667 820.557C614.667 806.75 625.86 795.557 639.667 795.557C653.473 795.557 664.667 806.75 664.667 820.557C664.667 833.357 678.86 851.11 706.333 851.11C733.807 851.11 748 833.357 748 820.557C748 807.753 733.807 790 706.333 790C660.17 790 614.667 758.01 614.667 709.443C614.667 669.767 645.04 641.15 681.333 632.007V631.667C681.333 617.86 692.527 606.667 706.333 606.667Z" fill="white"/>
</svg>
