<svg width="1412" height="1412" viewBox="0 0 1412 1412" fill="none" xmlns="http://www.w3.org/2000/svg">
<circle cx="706" cy="706" r="706" fill="black"/>
<path fill-rule="evenodd" clip-rule="evenodd" d="M615.763 349.096C622.014 342.845 630.493 339.333 639.333 339.333H906C961.23 339.333 1006 384.105 1006 439.333V972.666C1006 1027.9 961.23 1072.67 906 1072.67H506C450.772 1072.67 406 1027.9 406 972.666V572.666C406 563.826 409.512 555.347 415.763 549.096L615.763 349.096ZM906 406H672.667V572.666C672.667 591.076 657.743 606 639.333 606H472.667V972.666C472.667 991.076 487.591 1006 506 1006H906C924.41 1006 939.333 991.076 939.333 972.666V439.333C939.333 420.924 924.41 406 906 406ZM519.807 539.333H606V453.14L519.807 539.333ZM539.333 739.333C539.333 720.923 554.257 706 572.667 706H839.333C857.743 706 872.667 720.923 872.667 739.333C872.667 757.743 857.743 772.666 839.333 772.666H572.667C554.257 772.666 539.333 757.743 539.333 739.333ZM539.333 872.666C539.333 854.256 554.257 839.333 572.667 839.333H839.333C857.743 839.333 872.667 854.256 872.667 872.666C872.667 891.076 857.743 906 839.333 906H572.667C554.257 906 539.333 891.076 539.333 872.666Z" fill="white"/>
</svg>
