<svg width="1412" height="1412" viewBox="0 0 1412 1412" fill="none" xmlns="http://www.w3.org/2000/svg">
<circle cx="706" cy="706" r="706" fill="black"/>
<path d="M851.476 335.15C862.341 324.283 879.956 324.283 890.82 335.15C901.685 346.016 901.685 363.634 890.82 374.5L845.53 419.75H926.789C938.546 419.75 949.034 427.142 952.989 438.216L999.356 568.066C1005.83 586.187 992.395 605.25 973.156 605.25H934.407L875.524 978.079C867.757 1032.44 821.403 1069 765.361 1069H661.639C605.596 1069 559.24 1032.44 551.537 978.485L492.583 605.25H453.844C434.605 605.25 421.174 586.187 427.644 568.066L474.011 438.216C477.966 427.142 488.454 419.75 500.211 419.75H766.854L851.476 335.15ZM907.183 475.4H519.817L493.321 549.6H933.679L907.183 475.4Z" fill="white"/>
</svg>
