<svg width="1412" height="1412" viewBox="0 0 1412 1412" fill="none" xmlns="http://www.w3.org/2000/svg">
<circle cx="706" cy="706" r="706" fill="black"/>
<path d="M706.5 692.458C742.905 692.458 777.819 678 803.562 652.265C829.304 626.529 843.766 591.624 843.766 555.229C843.766 518.834 829.304 483.929 803.562 458.193C777.819 432.458 742.905 418 706.5 418C670.095 418 635.181 432.458 609.438 458.193C583.696 483.929 569.234 518.834 569.234 555.229C569.234 591.624 583.696 626.529 609.438 652.265C635.181 678 670.095 692.458 706.5 692.458ZM706.5 752.75C523.996 752.75 407 853.437 407 902.46V994H1006V902.46C1006 843.175 895.239 752.75 706.5 752.75Z" fill="white"/>
</svg>
