<svg width="1412" height="1412" viewBox="0 0 1412 1412" fill="none" xmlns="http://www.w3.org/2000/svg">
<circle cx="706" cy="706" r="706" fill="black"/>
<path d="M929.946 450.524C908.948 462.437 883.59 472.304 861.057 468.543C825.529 462.632 733.956 463.023 673.173 485.12C612.39 507.215 501.879 576.285 468.729 587.357C435.564 598.398 432.809 642.62 507.401 650.893C582.007 659.195 648.31 612.206 664.885 603.932C681.462 595.631 841.714 620.509 841.714 620.509L892.132 632.932L1008.37 790.057C1028.77 772.338 1069.11 734.735 1079.32 706.157C1083.04 695.748 1088.57 686.182 1094.67 677.682L1095.94 679.441C1123.31 618.284 1005.98 423.69 929.946 450.524Z" fill="white"/>
<path d="M861.057 655.736L836.629 653.271C804.576 648.307 713.935 635.4 679.896 635.4C678.409 635.4 677.22 635.416 676.332 635.46C674.963 636.243 673.384 637.144 671.835 638.047C647.677 652.111 591.123 685.038 525.24 685.038C518.006 685.038 510.784 684.632 503.746 683.849C493.068 682.661 483.681 680.825 475.377 678.508C483.245 681.953 490.479 686.886 496.692 693.219C506.423 703.177 512.47 715.391 514.862 728.161C520.534 726.641 526.413 725.799 532.431 725.799C550.871 725.799 568.109 733.049 580.999 746.225C593.681 759.191 600.57 776.338 600.374 794.479C600.374 794.658 600.343 794.841 600.343 795.021C618.693 795.08 635.871 802.33 648.717 815.447C661.412 828.413 668.301 845.56 668.106 863.7C668.031 869.957 667.068 876.064 665.384 881.932C678.409 884.654 690.337 891.136 699.873 900.883C726.076 927.672 725.609 970.766 698.835 996.969L685.418 1010.08C685.477 1010.08 685.554 1010.08 685.613 1010.08C708.131 1008.46 727.113 994.563 732.423 973.624C741.598 980.858 753.149 985.205 765.74 985.205C795.492 985.205 819.618 961.094 819.618 931.327C819.618 928.199 819.287 925.16 818.776 922.18C828.254 930.439 840.601 935.477 854.154 935.477C883.907 935.477 908.034 911.35 908.034 881.599C914.41 884.26 921.404 885.749 928.745 885.749C958.496 885.749 982.623 861.622 982.623 831.871C982.623 809.279 971.568 794.568 945.321 764.183L861.057 655.736Z" fill="white"/>
<path d="M472.999 716.415C459.553 702.683 437.532 702.44 423.799 715.873L374.087 764.533C360.354 777.965 360.114 799.986 373.546 813.719C386.979 827.451 408.999 827.692 422.734 814.244L472.46 765.6C486.192 752.169 486.432 730.148 472.999 716.415Z" fill="white"/>
<path d="M557.293 769.421C543.86 755.672 521.84 755.432 508.106 768.878L441.803 833.738C428.07 847.185 427.845 869.205 441.278 882.922C454.709 896.671 476.729 896.91 490.478 883.464L556.765 818.605C570.499 805.174 570.74 783.153 557.293 769.421Z" fill="white"/>
<path d="M625.024 838.641C611.593 824.908 589.573 824.652 575.84 838.101L509.537 902.974C495.804 916.405 495.563 938.426 509.01 952.174C522.443 965.891 544.463 966.133 558.198 952.685L624.501 887.826C638.232 874.38 638.456 852.358 625.024 838.641Z" fill="white"/>
<path d="M676.181 924.077C662.734 910.344 640.713 910.088 626.996 923.535L588.323 961.38C574.59 974.811 574.349 996.832 587.782 1010.56C601.213 1024.3 623.249 1024.52 636.982 1011.11L675.654 973.263C689.373 959.83 689.613 937.81 676.181 924.077Z" fill="white"/>
<path d="M448.121 672.793C453.356 672.793 458.47 673.456 463.434 674.582C421.664 658.564 414.745 629.264 413.646 618.929C410.698 591.101 428.628 565.757 458.229 555.89C470.143 551.92 501.384 534.892 531.573 518.437C563.973 500.762 599.531 481.375 630.471 467.114C591.271 463.942 554.542 465.279 534.912 468.543C513.807 472.062 490.223 463.625 470.053 452.765C394.017 425.917 276.693 620.509 304.054 681.684C309.032 689.159 313.501 697.342 316.645 706.157C321.292 719.153 332.181 734.014 344.592 748.032C346.532 745.535 348.593 743.098 350.895 740.826L400.607 692.168C413.39 679.682 430.251 672.793 448.121 672.793Z" fill="white"/>
</svg>
