<svg width="600" height="800" viewBox="0 0 600 800" fill="none" xmlns="http://www.w3.org/2000/svg">
<path d="M300 0C134.325 0 0 134.325 0 300C0 365.237 21.3875 425.1 56.9375 474.125C57.575 475.3 57.675 476.613 58.4 477.738L258.4 777.738C267.675 791.65 283.3 800 300 800C316.7 800 332.325 791.65 341.6 777.738L541.6 477.738C542.337 476.613 542.425 475.3 543.062 474.125C578.612 425.1 600 365.237 600 300C600 134.325 465.675 0 300 0ZM300 400C244.775 400 200 355.225 200 300C200 244.775 244.775 200 300 200C355.225 200 400 244.775 400 300C400 355.225 355.225 400 300 400Z" fill="white"/>
</svg>
