<svg width="370" height="345" viewBox="0 0 370 345" fill="none" xmlns="http://www.w3.org/2000/svg">
<path d="M15.1432 344.171H143.985C152.349 344.171 159.138 337.389 159.138 329.018V198.808C159.138 190.439 152.361 183.655 143.985 183.655H95.6689C97.9115 123.248 114.143 92.6507 143.985 92.6507C152.349 92.6507 159.138 85.869 159.138 77.4977V15.8253C159.138 7.45893 152.361 0.672302 143.985 0.672302C120.514 0.672302 99.4034 5.67881 81.2471 15.5159C63.2162 25.3172 47.832 39.3578 35.5486 57.2828C23.6122 74.7111 14.5617 95.7354 8.66104 119.797C2.91514 143.268 -0.0017395 169.846 -0.0017395 198.808V329.019C-0.00988279 337.389 6.78652 344.171 15.1432 344.171ZM225.618 344.171H354.459C362.816 344.171 369.603 337.389 369.603 329.018V198.808C369.603 190.439 362.816 183.655 354.459 183.655H306.818C309.041 123.248 325.039 92.6507 354.459 92.6507C362.816 92.6507 369.603 85.869 369.603 77.4977V15.8253C369.603 7.45893 362.816 0.672302 354.459 0.672302C330.99 0.672302 309.87 5.67881 291.714 15.5159C273.675 25.3172 258.3 39.3578 246.017 57.2828C234.059 74.7111 225.012 95.7354 219.11 119.807C213.372 143.268 210.463 169.846 210.463 198.797V329.019C210.465 337.389 217.251 344.171 225.618 344.171Z" fill="white"/>
</svg>
