<svg width="1412" height="1412" viewBox="0 0 1412 1412" fill="none" xmlns="http://www.w3.org/2000/svg">
<circle cx="706" cy="706" r="706" fill="black"/>
<path d="M965.495 751C1012.16 751 1050 713.183 1050 666.513C1050 619.843 1012.16 582 965.495 582C918.84 582 881 619.843 881 666.513C881.001 713.183 918.84 751 965.495 751Z" fill="white"/>
<path d="M1074.03 833.215C1070.25 810.576 1051.47 778.89 1037.25 764.735C1035.38 762.86 1027.01 762.426 1024.75 763.822C1007.47 774.413 987.172 780.647 965.384 780.647C943.621 780.647 923.32 774.413 906.036 763.822C903.766 762.426 895.409 762.86 893.537 764.735C889.563 768.695 885.228 773.967 881 780.08C892.437 801.538 901.508 824.333 904.781 843.962C908.053 863.639 906.991 882.268 901.699 899.252C920.492 906.027 943.027 909 965.383 909C1023.69 909 1083.37 888.853 1074.03 833.215Z" fill="white"/>
<path d="M704.482 716C780.427 716 842 654.43 842 578.488C842 502.57 780.427 441 704.482 441C628.55 441 567 502.57 567 578.488C567 654.43 628.548 716 704.482 716Z" fill="white"/>
<path d="M820.834 736.776C817.852 733.811 804.313 733.052 800.631 735.329C772.622 752.545 739.751 762.623 704.488 762.623C669.251 762.623 636.364 752.545 608.369 735.329C604.689 733.051 591.149 733.811 588.168 736.776C565.093 759.802 534.683 811.278 528.564 847.975C513.479 938.366 610.131 971 704.488 971C798.87 971 895.521 938.366 880.436 847.975C874.317 811.278 843.907 759.802 820.834 736.776Z" fill="white"/>
<path d="M447.506 751C494.162 751 532 713.183 532 666.513C532 619.843 494.162 582 447.506 582C400.839 582 363 619.843 363 666.513C363 713.183 400.839 751 447.506 751Z" fill="white"/>
<path d="M503.462 843.962C506.933 823.347 516.724 799.073 529 776.627C525.578 771.957 522.158 767.89 519.001 764.735C517.134 762.859 508.799 762.426 506.534 763.822C489.296 774.413 469.047 780.647 447.33 780.647C425.611 780.647 405.349 774.413 388.125 763.822C385.871 762.426 377.512 762.859 375.645 764.735C361.431 778.889 342.749 810.576 338.965 833.216C329.667 888.854 389.173 909 447.33 909C468.085 909 489.044 906.448 506.933 900.612C501.296 883.282 500.102 864.218 503.462 843.962Z" fill="white"/>
</svg>
