<svg width="1412" height="1412" viewBox="0 0 1412 1412" fill="none" xmlns="http://www.w3.org/2000/svg">
<circle cx="706" cy="706" r="706" fill="black"/>
<path d="M827.427 685.39L840.835 671.836C840.835 671.836 861.443 654.137 884.939 662.162C925.846 676.127 973.106 661.006 1005.89 628.186C1015.21 618.862 1026.54 600.152 1026.54 600.152C1027.83 598.378 1028.29 596.13 1027.75 593.984L1025.21 583.546C1024.74 581.587 1023.48 579.916 1021.75 578.885C1020.02 577.873 1017.93 577.605 1016.01 578.162L935.5 600.566C932.509 601.391 929.311 600.277 927.496 597.781L890.509 546.828C889.375 545.28 888.9 543.341 889.168 541.464L896.615 487.334C897.007 484.384 899.112 481.991 901.98 481.187L987.011 457.525C990.848 456.452 993.179 452.491 992.23 448.592L988.867 434.916C988.413 432.977 987.176 431.326 985.484 430.295C985.484 430.295 978.82 425.88 973.972 423.385C925.681 398.444 864.867 406.181 824.373 446.695C794.462 476.607 782.744 517.576 788.231 556.481C792.46 586.393 790.48 602.298 777.566 615.954C776.39 617.172 772.678 620.884 766.942 626.516L827.427 685.39Z" fill="white"/>
<path d="M631.081 758.54C540.831 845.985 442.389 941.126 442.389 941.126C439.027 944.344 437.108 948.779 437.046 953.421C436.984 958.042 438.821 962.519 442.081 965.798L484.246 1007.96C487.547 1011.24 492.003 1013.06 496.645 1013C501.287 1012.96 505.7 1011.02 508.898 1007.68L692.845 821.584L631.081 758.54Z" fill="white"/>
<path d="M1014.01 964.435C1017.29 961.156 1019.11 956.7 1019.05 952.058C1019.01 947.416 1017.07 943.003 1013.73 939.784L652.247 588.001L594.219 646.051L947.177 1006.31C950.395 1009.67 954.809 1011.59 959.451 1011.66C964.093 1011.72 968.549 1009.88 971.849 1006.6L1014.01 964.435Z" fill="white"/>
<path d="M687.605 411.584C644.078 394.607 573.693 392.151 532.93 432.894C500.831 464.993 453.881 511.965 453.881 511.965C437.151 528.674 452.685 545.26 440.327 557.596C427.971 569.952 408.228 557.596 397.11 568.715L356.348 609.496C350.551 615.272 350.551 624.679 356.348 630.476L413.139 687.268C418.937 693.065 428.343 693.065 434.139 687.268L474.902 646.505C486.042 635.386 473.663 615.645 486.042 603.308C502.689 586.64 520.863 589.467 531.363 599.946L552.343 620.926L575.077 626.908L633.105 568.879L626.421 546.847C607.916 528.322 605.276 506.888 616.87 495.295C634.818 477.348 664.461 451.418 692.227 440.299C709.925 433.224 704.582 415.607 687.605 411.584ZM608.885 505.135C608.802 505.197 616.621 495.522 616.766 495.398L608.885 505.135Z" fill="white"/>
</svg>
