<?xml version="1.0" encoding="UTF-8"?>
<!DOCTYPE svg PUBLIC "-//W3C//DTD SVG 1.1//EN" "http://www.w3.org/Graphics/SVG/1.1/DTD/svg11.dtd">
<svg xmlns="http://www.w3.org/2000/svg" version="1.1" width="500px" height="500px" style="shape-rendering:geometricPrecision; text-rendering:geometricPrecision; image-rendering:optimizeQuality; fill-rule:evenodd; clip-rule:evenodd" xmlns:xlink="http://www.w3.org/1999/xlink">
<g><path style="opacity:0.999" fill="#fefefe" d="M 82.5,-0.5 C 193.833,-0.5 305.167,-0.5 416.5,-0.5C 466.489,4.82193 494.155,32.4886 499.5,82.5C 499.5,193.833 499.5,305.167 499.5,416.5C 494.178,466.489 466.511,494.155 416.5,499.5C 305.167,499.5 193.833,499.5 82.5,499.5C 32.5114,494.178 4.84474,466.511 -0.5,416.5C -0.5,305.167 -0.5,193.833 -0.5,82.5C 4.82193,32.5114 32.4886,4.84474 82.5,-0.5 Z"/></g>
<g><path style="opacity:1" fill="#c12329" d="M 102.5,87.5 C 109.508,87.3337 116.508,87.5004 123.5,88C 128.746,89.2371 130.58,92.4038 129,97.5C 124.26,104.656 123.427,112.156 126.5,120C 132.135,123.755 136.969,122.922 141,117.5C 141.667,114.5 141.667,111.5 141,108.5C 138.886,103.94 137.053,99.2735 135.5,94.5C 136.764,90.6907 139.43,88.524 143.5,88C 149.167,87.3333 154.833,87.3333 160.5,88C 166.787,88.9534 168.954,92.4534 167,98.5C 162.629,107.322 160.795,116.655 161.5,126.5C 161.54,133.535 162.04,140.535 163,147.5C 165.236,156.288 167.736,164.955 170.5,173.5C 170.854,177.958 169.188,181.458 165.5,184C 159.251,185.536 152.917,185.87 146.5,185C 141.606,183.314 138.106,180.147 136,175.5C 138.049,165.784 139.882,155.951 141.5,146C 141.719,138.387 138.053,134.553 130.5,134.5C 128.088,134.406 126.255,135.406 125,137.5C 124.333,141.833 124.333,146.167 125,150.5C 126.195,157.249 127.695,163.915 129.5,170.5C 129.596,172.926 128.93,175.093 127.5,177C 115.107,179.53 104.94,175.697 97,165.5C 95.6635,162.991 94.8302,160.324 94.5,157.5C 96.7156,152.067 99.2156,146.734 102,141.5C 106.481,124.713 104.981,108.547 97.5,93C 98.6793,90.6571 100.346,88.8238 102.5,87.5 Z"/></g>
<g><path style="opacity:1" fill="#c12329" d="M 205.5,86.5 C 210.844,86.334 216.177,86.5006 221.5,87C 225.451,87.5362 228.951,89.0362 232,91.5C 231.788,107.692 234.455,123.359 240,138.5C 243.612,142.802 247.945,146.135 253,148.5C 255.022,158.623 251.189,165.456 241.5,169C 234.834,172.339 227.834,174.005 220.5,174C 219.299,173.097 218.465,171.931 218,170.5C 217.667,163.5 217.333,156.5 217,149.5C 215.519,146.92 213.352,146.087 210.5,147C 209,148.5 207.5,150 206,151.5C 204.818,158.771 204.151,166.104 204,173.5C 202.667,179.344 199.167,183.178 193.5,185C 179.544,188.695 173.377,183.528 175,169.5C 178.279,166.221 181.613,162.887 185,159.5C 192.487,143.223 197.653,126.223 200.5,108.5C 200.044,104.298 198.877,100.298 197,96.5C 196.333,94.8333 196.333,93.1667 197,91.5C 199.398,88.8916 202.231,87.2249 205.5,86.5 Z"/></g>
<g><path style="opacity:1" fill="#c22429" d="M 283.5,86.5 C 291.507,86.3336 299.507,86.5003 307.5,87C 311.408,88.1301 313.074,90.7968 312.5,95C 312.548,101.959 309.215,104.959 302.5,104C 300.193,101.012 297.36,98.8453 294,97.5C 287.797,99.5107 284.131,103.844 283,110.5C 281.549,116.639 282.716,122.139 286.5,127C 289.167,127.667 291.833,127.667 294.5,127C 298.132,124.37 301.465,121.37 304.5,118C 310.552,113.982 315.385,115.149 319,121.5C 320.984,132.702 316.817,140.536 306.5,145C 265.48,162.941 250.647,150.441 262,107.5C 266.438,97.5603 273.605,90.5603 283.5,86.5 Z"/></g>
<g><path style="opacity:1" fill="#c2242a" d="M 331.5,86.5 C 338.841,86.3337 346.174,86.5003 353.5,87C 355.246,87.4709 356.913,88.1376 358.5,89C 359.517,90.0495 359.684,91.2161 359,92.5C 356.306,95.1879 354.473,98.3545 353.5,102C 353.388,103.662 354.054,104.829 355.5,105.5C 361.974,102.193 366.974,97.3596 370.5,91C 378.718,86.5958 387.384,85.4291 396.5,87.5C 397.725,89.8433 397.059,91.6766 394.5,93C 388.046,95.727 381.712,98.727 375.5,102C 373.154,103.013 371.487,104.679 370.5,107C 372.861,110.03 375.861,112.364 379.5,114C 385.91,120.424 390.743,127.924 394,136.5C 397,140.167 400,143.833 403,147.5C 405.676,156.487 402.509,159.987 393.5,158C 386.336,155.39 379.336,152.39 372.5,149C 370.19,147.363 368.69,145.196 368,142.5C 368.585,133.426 366.752,124.926 362.5,117C 357.024,114.14 354.358,115.807 354.5,122C 355.753,128.428 357.42,134.762 359.5,141C 359.561,142.711 358.894,144.044 357.5,145C 347.697,146.027 338.03,145.36 328.5,143C 326.323,141.503 324.99,139.503 324.5,137C 326.532,131.956 329.032,127.123 332,122.5C 333.979,115.947 334.646,109.28 334,102.5C 332.085,98.3351 329.918,94.3351 327.5,90.5C 328.437,88.712 329.77,87.3786 331.5,86.5 Z"/></g>
<g><path style="opacity:1" fill="#f6dada" d="M 299.5,88.5 C 301.827,88.2471 303.827,88.9137 305.5,90.5C 303.926,91.6309 302.259,91.7975 300.5,91C 299.748,90.3292 299.414,89.4959 299.5,88.5 Z"/></g>
<g><path style="opacity:1" fill="#f9e4e5" d="M 118.5,91.5 C 120.977,91.0508 122.977,91.7175 124.5,93.5C 123.307,95.3837 121.641,95.8837 119.5,95C 118.663,93.9887 118.33,92.8221 118.5,91.5 Z"/></g>
<g><path style="opacity:1" fill="#fdf9f9" d="M 220.5,91.5 C 222.167,91.5 223.833,91.5 225.5,91.5C 225.5,92.5 225.5,93.5 225.5,94.5C 223.833,94.5 222.167,94.5 220.5,94.5C 220.5,93.5 220.5,92.5 220.5,91.5 Z"/></g>
<g><path style="opacity:1" fill="#f8e5e5" d="M 156.5,91.5 C 160.029,90.8894 161.862,92.2227 162,95.5C 158.236,97.0251 156.403,95.6917 156.5,91.5 Z"/></g>
<g><path style="opacity:1" fill="#fdf5f5" d="M 211.5,118.5 C 212.496,118.414 213.329,118.748 214,119.5C 214.667,124.167 214.667,128.833 214,133.5C 212.644,134.38 211.144,134.714 209.5,134.5C 209.001,128.942 209.667,123.608 211.5,118.5 Z"/></g>
<g><path style="opacity:1" fill="#c12228" d="M 321.5,164.5 C 343.084,161.982 363.751,165.148 383.5,174C 394.324,183.483 398.491,195.317 396,209.5C 394.274,210.576 392.441,210.743 390.5,210C 388.333,207.833 386.167,205.667 384,203.5C 380.077,193.91 373.244,187.41 363.5,184C 354.932,181.786 348.932,184.62 345.5,192.5C 346.269,195.104 347.936,196.938 350.5,198C 355.833,197.667 361.167,197.333 366.5,197C 370.284,201.861 371.451,207.361 370,213.5C 369.42,217.426 367.253,218.926 363.5,218C 361.043,214.942 358.043,212.608 354.5,211C 348.657,209.641 346.157,211.808 347,217.5C 349.194,223.074 352.694,227.574 357.5,231C 360.833,231.667 364.167,231.667 367.5,231C 372.038,228.437 376.538,225.937 381,223.5C 390.474,226.977 396.474,233.644 399,243.5C 401.851,256.265 399.018,267.431 390.5,277C 388.1,278.701 385.433,279.534 382.5,279.5C 374.567,276.912 366.567,274.412 358.5,272C 343.496,271.022 328.496,270.022 313.5,269C 308.145,267.302 305.145,263.636 304.5,258C 307.012,248.141 310.512,238.641 315,229.5C 318.396,214.915 319.063,200.248 317,185.5C 314.484,181.129 311.984,176.796 309.5,172.5C 309.864,169.968 311.197,168.135 313.5,167C 316.31,166.218 318.977,165.384 321.5,164.5 Z"/></g>
<g><path style="opacity:1" fill="#c12329" d="M 281.5,173.5 C 285.182,173.335 288.848,173.501 292.5,174C 293.081,174.893 293.415,175.893 293.5,177C 290.869,183.098 288.369,189.265 286,195.5C 284.854,210.94 285.521,226.273 288,241.5C 291,246.833 294,252.167 297,257.5C 298.174,262.94 297.174,267.94 294,272.5C 282.558,285.141 268.391,291.641 251.5,292C 249.167,290.667 248.167,288.667 248.5,286C 252.287,274.97 254.621,263.636 255.5,252C 257.29,245.334 254.957,242.334 248.5,243C 241.457,245.379 236.29,249.879 233,256.5C 232.333,260.5 232.333,264.5 233,268.5C 234.474,276.084 236.641,283.417 239.5,290.5C 238.625,297.405 235.292,302.905 229.5,307C 220.616,313.189 210.783,317.022 200,318.5C 192.18,318.212 189.18,314.212 191,306.5C 195.512,297.144 199.179,287.477 202,277.5C 203.472,264.198 203.805,250.864 203,237.5C 200.59,231.682 197.923,226.015 195,220.5C 194.365,218.365 194.699,216.365 196,214.5C 207.831,203.832 221.665,197.999 237.5,197C 239.418,198.77 239.918,200.937 239,203.5C 236.388,209.725 234.055,216.058 232,222.5C 230.74,233.236 234.907,236.07 244.5,231C 258.695,221.91 260.195,211.077 249,198.5C 248.519,194.266 250.019,190.766 253.5,188C 262.204,181.816 271.537,176.982 281.5,173.5 Z"/></g>
<g><path style="opacity:1" fill="#f8e3e4" d="M 376.5,174.5 C 380.874,175.002 383.541,177.336 384.5,181.5C 380.18,181.013 377.513,178.68 376.5,174.5 Z"/></g>
<g><path style="opacity:1" fill="#f8e0e0" d="M 280.5,177.5 C 286.715,178.112 287.049,179.945 281.5,183C 280.167,183.667 278.833,183.667 277.5,183C 276.549,182.282 276.383,181.449 277,180.5C 278.518,179.837 279.685,178.837 280.5,177.5 Z"/></g>
<g><path style="opacity:1" fill="#c12329" d="M 97.5,197.5 C 99.8568,197.337 102.19,197.503 104.5,198C 127.193,212.007 151.859,217.34 178.5,214C 188.284,223.36 191.117,234.527 187,247.5C 184.804,252.54 181.304,253.707 176.5,251C 172.788,245.621 168.121,241.287 162.5,238C 157.452,237.03 154.618,239.197 154,244.5C 152.452,261.427 153.785,278.094 158,294.5C 160.667,299.167 163.333,303.833 166,308.5C 167.72,314.202 166.22,318.702 161.5,322C 146.994,326.373 133.66,324.04 121.5,315C 112.047,305.682 112.214,296.516 122,287.5C 123.75,284.754 124.75,281.754 125,278.5C 127.228,263.104 126.895,247.771 124,232.5C 121.459,227.931 117.625,226.431 112.5,228C 109.013,229.245 105.679,230.745 102.5,232.5C 95.0574,229.874 91.224,224.541 91,216.5C 89.1293,208.607 91.2959,202.274 97.5,197.5 Z"/></g>
<g><path style="opacity:1" fill="#fdf7f7" d="M 226.5,202.5 C 228.167,202.5 229.833,202.5 231.5,202.5C 231.67,203.822 231.337,204.989 230.5,206C 228.323,207.202 225.989,207.702 223.5,207.5C 223.31,205.041 224.31,203.374 226.5,202.5 Z"/></g>
<g><path style="opacity:1" fill="#fcf5f5" d="M 168.5,217.5 C 172.679,217.142 175.179,218.809 176,222.5C 170.981,224.65 168.481,222.984 168.5,217.5 Z"/></g>
<g><path style="opacity:1" fill="#c12228" d="M 342.5,298.5 C 351.014,298.129 359.014,299.962 366.5,304C 369.545,306.584 371.045,309.75 371,313.5C 367.863,318.108 365.53,323.108 364,328.5C 362.696,343.021 363.696,357.355 367,371.5C 371.739,377.082 377.239,377.915 383.5,374C 386.807,369.849 390.807,366.682 395.5,364.5C 404.833,366.959 409.166,373.126 408.5,383C 407.854,391.939 405.02,400.106 400,407.5C 398.269,409.617 396.102,411.117 393.5,412C 377.167,412.667 360.833,412.667 344.5,412C 331.552,409.968 326.718,402.468 330,389.5C 339.173,369.129 342.506,347.795 340,325.5C 337.96,319.261 335.793,313.094 333.5,307C 334.398,301.935 337.398,299.102 342.5,298.5 Z"/></g>
<g><path style="opacity:1" fill="#c12228" d="M 275.5,309.5 C 278.518,309.335 281.518,309.502 284.5,310C 286.41,310.408 287.41,311.575 287.5,313.5C 284.43,320.304 281.93,327.304 280,334.5C 279.333,342.833 279.333,351.167 280,359.5C 281.036,376.855 288.036,379.855 301,368.5C 303.56,363.884 306.727,359.718 310.5,356C 317.745,354.376 322.245,357.21 324,364.5C 326.015,380.42 322.682,395.087 314,408.5C 312.421,410.041 310.587,411.208 308.5,412C 291.5,412.667 274.5,412.667 257.5,412C 248.234,410.747 244.4,405.58 246,396.5C 255.067,379.258 258.4,360.925 256,341.5C 254.827,337.663 252.827,334.329 250,331.5C 249.333,329.5 249.333,327.5 250,325.5C 252.802,322.334 255.969,319.501 259.5,317C 265.045,314.725 270.378,312.225 275.5,309.5 Z"/></g>
<g><path style="opacity:1" fill="#c12329" d="M 227.5,330.5 C 229.527,330.338 231.527,330.505 233.5,331C 234.804,331.804 235.471,332.971 235.5,334.5C 233.078,339.685 230.911,345.018 229,350.5C 228.084,361.929 228.751,373.262 231,384.5C 233.936,389.373 236.603,394.373 239,399.5C 240.157,405.351 237.991,409.518 232.5,412C 221.833,412.667 211.167,412.667 200.5,412C 197.001,411.439 195.334,409.439 195.5,406C 197.836,399.316 200.669,392.816 204,386.5C 205.854,376.478 205.854,366.478 204,356.5C 201.64,353.64 199.473,350.64 197.5,347.5C 199.61,343.769 202.61,340.936 206.5,339C 213.372,335.554 220.372,332.721 227.5,330.5 Z"/></g>
<g><path style="opacity:1" fill="#c12329" d="M 103.5,332.5 C 115.338,334.279 126.672,337.779 137.5,343C 138.899,344.062 139.899,345.395 140.5,347C 137.714,351.449 135.38,356.116 133.5,361C 134.142,365.642 136.808,368.308 141.5,369C 146.437,370.369 150.604,369.203 154,365.5C 153.984,359.788 151.984,354.788 148,350.5C 147.243,347.524 148.409,345.691 151.5,345C 160.833,344.333 170.167,344.333 179.5,345C 181.246,345.471 182.913,346.138 184.5,347C 185.517,348.049 185.684,349.216 185,350.5C 183,353.833 181,357.167 179,360.5C 177.894,371.307 178.561,381.974 181,392.5C 183.333,395.833 185.667,399.167 188,402.5C 189.544,407.623 187.71,410.789 182.5,412C 171.735,412.952 161.068,412.619 150.5,411C 148.876,409.883 147.876,408.383 147.5,406.5C 149.33,402.172 151.164,397.838 153,393.5C 155.257,381.166 150.09,376.333 137.5,379C 136.667,379.833 135.833,380.667 135,381.5C 134.333,384.833 134.333,388.167 135,391.5C 136.696,396.391 138.529,401.224 140.5,406C 140.357,408.151 139.357,409.818 137.5,411C 127.241,412.592 116.907,412.926 106.5,412C 101.028,409.557 98.8616,405.39 100,399.5C 102.397,394.373 105.064,389.373 108,384.5C 112.76,367.223 110.926,350.723 102.5,335C 102.743,334.098 103.077,333.265 103.5,332.5 Z"/></g>
<g><path style="opacity:1" fill="#f8e2e2" d="M 224.5,334.5 C 225.833,334.5 227.167,334.5 228.5,334.5C 228.621,337.541 227.121,339.208 224,339.5C 222.941,339.37 222.108,338.87 221.5,338C 222.71,336.961 223.71,335.794 224.5,334.5 Z"/></g>
<g><path style="opacity:1" fill="#f9e6e6" d="M 126.5,342.5 C 129.463,342.151 131.796,343.151 133.5,345.5C 130.07,346.95 127.737,345.95 126.5,342.5 Z"/></g>
<g><path style="opacity:1" fill="#fbf0f0" d="M 171.5,347.5 C 173.527,347.338 175.527,347.505 177.5,348C 177.957,348.414 178.291,348.914 178.5,349.5C 176.579,350.641 174.579,350.808 172.5,350C 171.748,349.329 171.414,348.496 171.5,347.5 Z"/></g>
</svg>
