<?xml version="1.0" standalone="no"?>
<!DOCTYPE svg PUBLIC "-//W3C//DTD SVG 20010904//EN"
 "http://www.w3.org/TR/2001/REC-SVG-20010904/DTD/svg10.dtd">
<svg version="1.0" xmlns="http://www.w3.org/2000/svg"
 width="700.000000pt" height="700.000000pt" viewBox="0 0 700.000000 700.000000"
 preserveAspectRatio="xMidYMid meet">
<metadata>
Created by potrace 1.14, written by Peter Selinger 2001-2017
</metadata>
<g transform="translate(0.000000,700.000000) scale(0.100000,-0.100000)"
fill="#000000" stroke="none">
<path d="M4115 6150 c-173 -37 -303 -147 -395 -333 -73 -149 -101 -324 -75
-474 32 -179 145 -273 329 -273 91 0 168 19 341 82 160 58 232 100 275 159 82
114 67 301 -29 347 -69 34 -113 19 -203 -72 -40 -40 -89 -81 -108 -91 -39 -20
-98 -22 -137 -3 -117 55 -71 385 64 456 12 7 38 12 57 12 30 0 44 -9 93 -59
65 -66 90 -71 144 -32 71 53 81 197 17 253 -12 10 -28 18 -37 19 -9 1 -27 2
-41 4 -84 9 -261 13 -295 5z m279 -55 c26 -20 11 -35 -27 -28 -38 7 -52 17
-43 32 10 15 47 13 70 -4z"/>
<path d="M4938 6145 c-2 -1 -24 -5 -49 -8 -67 -8 -119 -32 -119 -55 0 -10 18
-43 40 -72 22 -30 45 -70 50 -89 41 -138 8 -352 -69 -459 -109 -150 -88 -219
78 -257 120 -28 322 -35 377 -15 56 22 56 42 5 197 -21 65 -42 136 -45 158
-18 106 68 165 135 94 47 -50 74 -158 84 -337 3 -46 12 -96 19 -111 26 -50
104 -93 316 -173 181 -69 251 -55 252 49 0 63 -22 107 -100 196 -35 40 -77
103 -102 155 -85 177 -158 263 -278 332 -34 19 -64 41 -67 49 -11 29 54 75
232 161 169 83 213 113 213 147 0 52 -260 47 -382 -7 -54 -23 -75 -43 -128
-118 -46 -67 -143 -144 -174 -140 -48 7 -35 81 29 168 19 26 35 54 35 62 0 23
-30 45 -80 59 -38 10 -263 22 -272 14z"/>
<path d="M1190 6130 c-63 -11 -129 -39 -140 -61 -16 -29 -12 -46 31 -137 23
-48 47 -118 54 -157 12 -70 13 -327 1 -395 -3 -19 -8 -52 -11 -72 -7 -52 -38
-129 -67 -169 -87 -118 -79 -227 24 -329 116 -115 331 -191 417 -147 31 15 60
55 64 87 2 14 -4 54 -14 90 -89 308 -94 491 -15 516 28 9 98 6 127 -5 34 -13
68 -52 79 -91 9 -32 6 -176 -5 -235 -10 -53 -34 -140 -51 -186 -34 -94 -20
-164 47 -228 61 -59 164 -87 285 -78 81 6 139 31 177 77 53 62 48 140 -16 299
-55 134 -65 165 -72 224 -3 26 -8 68 -11 95 -10 83 -11 420 -1 484 5 35 29
114 53 175 51 128 50 148 -4 193 -60 49 -182 67 -317 45 -104 -17 -165 -56
-165 -108 0 -10 21 -70 46 -135 74 -184 65 -268 -31 -307 -76 -31 -165 3 -195
75 -21 51 -7 137 40 243 49 113 51 124 34 158 -27 54 -100 80 -234 84 -47 1
-105 -1 -130 -5z m272 -83 c26 -39 -31 -62 -72 -29 -22 17 -23 22 -10 37 16
19 68 14 82 -8z m613 -3 c26 -26 15 -49 -26 -52 -41 -3 -64 16 -54 48 8 25 56
27 80 4z"/>
<path d="M2795 6130 c-58 -12 -111 -37 -135 -62 -24 -26 -21 -75 10 -142 28
-60 37 -105 34 -160 -10 -186 -162 -679 -247 -804 -16 -24 -55 -64 -87 -89
-68 -52 -83 -83 -83 -163 0 -123 60 -175 198 -174 103 1 157 17 204 60 64 57
84 118 86 264 3 149 22 228 66 271 16 16 35 29 42 30 7 0 20 2 30 4 10 2 30
-7 45 -20 l27 -23 1 -159 c2 -201 1 -186 25 -214 44 -51 213 -19 391 73 130
67 172 123 173 229 0 78 -12 97 -87 135 -71 36 -113 78 -147 147 -27 55 -62
167 -75 237 -2 14 -7 41 -10 60 -10 49 -14 105 -21 265 -8 166 -14 179 -101
214 -50 21 -78 25 -179 27 -66 1 -138 -2 -160 -6z m309 -66 c18 -7 22 -50 4
-56 -21 -7 -70 4 -75 18 -13 35 25 56 71 38z m-179 -453 c20 -63 22 -185 4
-223 -14 -31 -49 -38 -69 -13 -17 20 -7 169 14 219 16 39 41 47 51 17z"/>
<path d="M4758 4885 c-2 -2 -28 -6 -58 -9 -82 -10 -159 -37 -193 -68 -40 -38
-34 -71 35 -173 66 -98 82 -161 82 -325 0 -153 -9 -236 -45 -407 -20 -97 -33
-135 -105 -299 -93 -214 -92 -327 4 -388 79 -50 127 -57 377 -57 50 0 108 -2
130 -4 22 -2 69 -7 105 -10 55 -6 104 -14 286 -51 12 -2 79 -22 150 -45 147
-47 179 -47 246 -1 51 35 88 80 123 150 97 194 49 504 -100 641 -97 88 -158
100 -234 46 -20 -14 -52 -37 -73 -51 -49 -34 -147 -51 -207 -35 -116 33 -246
266 -176 317 46 34 123 9 214 -70 58 -49 92 -54 122 -17 56 69 26 280 -45 327
-23 14 -30 14 -102 -6 -88 -25 -150 -21 -197 12 -27 19 -29 25 -24 67 4 38 12
52 47 83 76 68 186 75 302 20 87 -41 136 -87 218 -208 99 -145 149 -194 200
-194 44 0 55 23 55 119 0 124 -15 184 -76 308 -41 83 -98 145 -156 173 -61 29
-266 96 -317 104 -21 4 -41 8 -45 10 -3 2 -26 7 -51 10 -25 3 -54 8 -65 10
-71 14 -416 31 -427 21z m883 -198 c34 -23 68 -71 57 -82 -12 -12 -60 8 -94
40 -60 57 -33 89 37 42z"/>
<path d="M4035 4725 c-217 -57 -479 -211 -534 -313 -25 -46 -14 -82 50 -167
74 -98 89 -177 50 -258 -40 -82 -152 -180 -241 -210 -166 -56 -187 80 -57 373
49 112 59 168 33 189 -82 68 -544 -108 -680 -260 -58 -63 -52 -105 38 -254 40
-66 52 -103 63 -191 14 -109 6 -444 -13 -536 -2 -13 -6 -36 -9 -53 -15 -99
-26 -132 -100 -290 -88 -187 -100 -252 -56 -314 43 -60 141 -65 306 -16 201
59 377 182 440 308 35 71 33 116 -11 206 -53 110 -76 208 -78 331 -1 123 12
159 82 227 51 50 172 113 217 113 52 0 70 -29 71 -119 2 -78 -12 -203 -30
-276 -14 -56 -23 -85 -52 -179 -19 -60 -34 -125 -34 -143 0 -45 45 -92 89 -94
17 -1 37 -2 44 -2 115 -6 437 154 558 278 62 62 102 144 105 215 3 65 -18 120
-87 225 -64 98 -69 108 -85 183 -21 99 -29 224 -28 437 0 219 6 248 86 415 51
106 61 151 39 173 -16 16 -116 18 -176 2z m53 -87 c-2 -15 -17 -30 -45 -44
-47 -24 -96 -22 -91 4 5 25 67 62 105 62 30 0 34 -3 31 -22z m-870 -390 c8
-41 -88 -90 -125 -63 -13 10 -13 16 -3 34 23 45 121 66 128 29z"/>
<path d="M1045 4338 c-44 -24 -85 -74 -101 -121 -35 -105 -3 -292 63 -371 59
-71 106 -82 180 -41 80 45 161 59 223 39 63 -20 94 -181 95 -489 0 -325 -16
-400 -116 -523 -90 -111 -103 -173 -58 -268 47 -99 236 -227 369 -250 14 -3
32 -7 40 -10 8 -3 49 -8 90 -11 181 -13 317 54 333 163 6 40 -25 117 -84 209
-54 83 -74 131 -93 222 -26 122 -36 231 -40 428 -4 240 24 367 82 382 42 10
142 -51 206 -127 79 -92 115 -120 156 -120 32 0 46 7 73 35 20 21 38 52 43 73
4 20 9 44 11 52 9 38 2 151 -12 205 -18 69 -65 168 -99 206 -48 55 -70 62
-190 64 -193 4 -361 21 -491 50 -11 3 -42 9 -69 15 -82 17 -274 85 -408 144
-127 56 -166 65 -203 44z m1236 -335 c34 -20 46 -48 29 -68 -27 -33 -114 -3
-123 41 -8 45 40 59 94 27z"/>
<path d="M4986 2689 c-82 -19 -131 -71 -121 -128 3 -17 22 -70 44 -118 34 -79
47 -115 57 -163 27 -120 24 -385 -7 -600 -19 -134 -30 -176 -84 -305 -52 -123
-71 -190 -74 -257 -6 -132 91 -231 249 -253 30 -5 218 -9 418 -10 403 -2 390
-4 460 68 96 99 162 276 157 424 -5 163 -65 255 -183 281 -37 9 -46 7 -80 -15
-20 -14 -60 -49 -87 -78 -58 -60 -105 -85 -161 -87 -69 -2 -82 1 -114 28 -74
63 -100 186 -101 489 0 240 7 275 78 419 36 72 44 96 39 124 -6 41 -52 92
-112 128 -89 52 -271 78 -378 53z"/>
<path d="M3930 2510 c-210 -54 -430 -203 -430 -290 0 -11 22 -53 49 -95 33
-50 54 -95 62 -133 11 -57 16 -290 6 -347 -3 -16 -8 -55 -12 -85 -16 -127 -36
-192 -101 -323 -94 -187 -85 -280 31 -339 74 -38 159 -45 556 -43 426 2 407
-1 473 85 91 120 157 332 159 514 2 130 -6 181 -36 238 -30 58 -75 87 -131 84
-60 -3 -93 -30 -168 -139 -94 -137 -199 -203 -281 -174 -81 28 -109 149 -109
467 1 190 8 231 73 391 38 92 50 133 45 152 -13 51 -79 65 -186 37z"/>
<path d="M3084 2160 c-144 -42 -325 -133 -382 -191 -42 -43 -41 -74 3 -124 74
-84 94 -165 89 -353 -5 -164 -25 -240 -91 -350 -89 -149 -98 -194 -43 -244 50
-46 134 -63 325 -63 163 0 245 20 306 74 34 30 42 44 46 81 7 65 -9 113 -76
226 -76 127 -95 218 -95 454 0 179 8 215 83 368 38 77 43 102 23 125 -20 23
-106 22 -188 -3z m81 -66 c0 -22 -39 -44 -77 -44 -32 0 -37 19 -10 42 36 32
87 33 87 2z"/>
<path d="M1132 2142 c-18 -12 -3 -66 49 -176 55 -117 69 -199 64 -371 -5 -207
-29 -299 -107 -413 -100 -145 -89 -244 32 -304 69 -34 125 -43 270 -42 130 0
210 19 258 59 45 38 47 65 11 142 -56 120 -73 188 -71 281 1 69 49 97 155 87
115 -10 166 -54 160 -137 -5 -78 -22 -137 -64 -224 -36 -75 -40 -88 -29 -113
27 -66 157 -103 333 -96 145 5 193 12 242 35 57 27 74 43 81 77 8 39 -11 82
-78 175 -50 69 -57 86 -72 166 -17 90 -23 294 -11 365 7 41 11 50 73 154 50
83 49 102 -6 126 -57 25 -135 34 -298 32 -229 -3 -301 -32 -262 -105 8 -14 26
-45 42 -69 93 -145 72 -222 -66 -234 -53 -5 -147 22 -177 50 -50 46 -43 124
18 206 59 81 65 95 50 123 -14 27 -68 61 -149 94 -30 12 -64 26 -75 31 -129
57 -341 103 -373 81z m494 -193 c9 -15 -16 -30 -41 -23 -26 7 -68 37 -72 51
-10 30 92 5 113 -28z m722 -52 c19 -15 -5 -37 -40 -37 -33 0 -68 16 -68 31 0
25 78 30 108 6z"/>
</g>
</svg>
