<?xml version="1.0" standalone="no"?>
<!DOCTYPE svg PUBLIC "-//W3C//DTD SVG 20010904//EN"
 "http://www.w3.org/TR/2001/REC-SVG-20010904/DTD/svg10.dtd">
<svg version="1.0" xmlns="http://www.w3.org/2000/svg"
 width="700.000000pt" height="700.000000pt" viewBox="0 0 700.000000 700.000000"
 preserveAspectRatio="xMidYMid meet">
<metadata>
Created by potrace 1.14, written by Peter Selinger 2001-2017
</metadata>
<g transform="translate(0.000000,700.000000) scale(0.100000,-0.100000)"
fill="#000000" stroke="none">
<path d="M0 3500 l0 -3500 3500 0 3500 0 0 3500 0 3500 -3500 0 -3500 0 0
-3500z m4460 1850 l0 -60 -90 0 -90 0 0 -55 c0 -42 3 -55 15 -55 12 0 15 -16
15 -81 0 -72 14 -131 135 -576 89 -326 136 -515 137 -552 1 -35 3 -44 5 -23 2
17 7 32 11 32 4 0 15 -40 25 -88 12 -65 17 -138 17 -275 0 -180 1 -187 20
-187 19 0 19 -1 3 -35 -14 -30 -22 -35 -50 -35 l-33 0 -2 -762 -3 -763 -297
-3 -298 -2 0 765 0 765 -29 0 c-21 0 -36 8 -50 29 -26 36 -26 41 -1 41 19 0
20 7 20 201 0 147 4 217 15 260 8 32 14 63 13 70 -2 6 2 13 9 16 7 3 13 -10
16 -34 2 -24 4 -13 5 29 2 52 34 187 137 570 111 412 135 515 135 570 0 39 4
68 10 68 6 0 10 45 10 115 l0 115 95 0 95 0 0 -60z m-2210 -837 l1 -548 41 48
c85 100 245 190 405 228 109 27 301 29 409 6 174 -39 283 -96 399 -212 63 -63
89 -98 122 -165 82 -168 77 -92 80 -1132 l4 -928 -320 0 -320 0 -4 823 c-3
897 -2 870 -62 972 -52 90 -161 131 -325 123 -83 -4 -105 -9 -163 -38 -114
-56 -198 -166 -243 -316 -16 -54 -18 -126 -21 -811 l-4 -753 -319 0 -320 0 0
1625 0 1625 320 0 320 0 0 -547z m3230 -1078 l0 -1625 -320 0 -320 0 0 1625 0
1625 320 0 320 0 0 -1625z m860 0 l0 -1625 -325 0 -325 0 0 1625 0 1625 325 0
325 0 0 -1625z m-3520 1508 c0 -76 0 -76 20 -58 12 11 41 20 74 23 48 4 56 1
87 -26 l34 -30 3 -136 4 -136 -51 0 -51 0 0 118 c0 78 -4 122 -12 130 -19 19
-66 14 -88 -8 -18 -18 -20 -33 -20 -130 l0 -110 -45 0 -45 0 0 220 0 220 45 0
45 0 0 -77z m-1945 -63 c65 -71 122 -130 128 -130 7 0 293 171 415 248 l22 14
0 -120 0 -120 -142 -81 c-79 -45 -149 -85 -157 -90 -11 -7 -5 -19 30 -60 l44
-50 113 -1 112 0 0 -110 0 -110 -475 0 -475 0 0 105 0 105 262 2 261 3 -131
136 -132 137 0 126 c0 69 2 126 4 126 1 0 56 -58 121 -130z m1635 60 l0 -40
90 0 90 0 0 -30 0 -30 -90 0 -90 0 0 -88 c0 -96 7 -112 52 -112 35 0 48 24 48
89 l0 51 40 0 40 0 0 -70 c0 -62 -3 -73 -27 -100 -30 -34 -91 -53 -133 -43
-94 22 -110 61 -110 263 l0 150 45 0 45 0 0 -40z m771 -40 c45 -13 84 -54 98
-105 21 -78 25 -75 -104 -75 -126 0 -133 -4 -94 -54 23 -30 64 -35 95 -11 18
14 104 21 104 9 0 -3 -10 -19 -21 -36 -59 -82 -208 -76 -266 11 -18 26 -23 48
-23 98 0 93 24 133 97 159 46 16 67 17 114 4z m-2281 -797 l0 -108 -40 -17
c-53 -22 -85 -87 -78 -160 6 -61 31 -96 89 -126 38 -20 55 -23 125 -20 137 7
204 60 204 162 0 65 -26 114 -73 139 l-37 19 0 104 c0 119 3 122 83 84 192
-90 249 -426 104 -603 -117 -143 -415 -157 -545 -27 -173 173 -116 570 93 644
76 27 75 29 75 -91z m428 -830 c-3 -94 -4 -98 -26 -101 -13 -2 -22 -7 -20 -10
54 -101 62 -130 66 -223 9 -208 -73 -316 -223 -294 -121 19 -170 99 -200 334
-17 125 -29 160 -61 172 -57 20 -100 -52 -91 -154 6 -67 27 -105 68 -120 l29
-11 0 -98 c0 -87 -2 -98 -17 -98 -40 0 -96 23 -129 52 -68 60 -94 143 -94 304
0 178 39 271 134 319 49 25 53 25 308 25 l259 0 -3 -97z m12 -813 l0 -110
-251 0 -251 0 -29 -29 c-26 -27 -29 -36 -29 -99 0 -55 5 -76 23 -103 42 -64
65 -69 315 -69 l222 0 0 -110 0 -110 -472 2 -473 3 0 105 0 105 162 3 161 2
-33 50 c-105 156 -47 415 102 460 15 4 146 9 291 9 l262 1 0 -110z"/>
<path d="M4204 3979 c-44 -13 -124 -86 -145 -134 -43 -93 -13 -236 62 -299
102 -86 254 -76 340 21 45 52 62 99 63 173 1 170 -155 287 -320 239z m95 -242
c5 -12 28 -40 51 -61 23 -21 39 -40 36 -44 -4 -3 -26 13 -49 36 -50 49 -68 51
-114 16 -19 -14 -37 -23 -41 -20 -3 4 5 14 19 23 13 9 35 29 49 45 31 34 38
34 49 5z"/>
<path d="M3920 3395 c11 -13 63 -15 360 -15 297 0 349 2 360 15 11 13 -30 15
-360 15 -330 0 -371 -2 -360 -15z"/>
<path d="M4096 3250 c-8 -44 -6 -240 3 -264 16 -40 25 9 25 134 0 128 -14 196
-28 130z"/>
<path d="M4205 3226 c-8 -65 -3 -242 8 -252 17 -17 22 16 22 146 0 92 -4 143
-12 151 -8 8 -13 -2 -18 -45z"/>
<path d="M4427 3259 c-4 -13 -7 -76 -7 -139 0 -63 3 -126 7 -139 13 -48 22 9
22 139 0 130 -9 187 -22 139z"/>
<path d="M4316 3233 c-13 -83 -4 -263 14 -263 13 0 23 144 15 225 -7 82 -19
97 -29 38z"/>
<path d="M3193 4825 c-11 -8 -23 -24 -26 -35 -5 -19 -1 -20 63 -20 64 0 68 1
63 20 -6 23 -40 50 -63 50 -9 0 -25 -7 -37 -15z"/>
<path d="M1116 3150 c3 -8 16 -63 29 -122 13 -59 30 -116 37 -127 17 -28 59
-44 93 -35 58 15 71 130 24 214 -30 54 -63 73 -132 80 -49 5 -57 4 -51 -10z"/>
</g>
</svg>
