<svg width="1124" height="186" viewBox="0 0 1124 186" fill="none" xmlns="http://www.w3.org/2000/svg">
<g filter="url(#filter0_d_23_32)">
<path d="M1034.16 103.238V177.006H1005.34V103.238" stroke="white"/>
<path d="M1011.43 122.461C1011.9 122.461 1012.37 119.097 1012.37 114.772C1012.37 110.447 1011.9 107.083 1011.43 107.083C1010.96 107.083 1010.49 110.447 1010.49 114.772C1010.49 119.097 1010.96 122.461 1011.43 122.461Z" stroke="white"/>
<path d="M1016.82 122.461C1017.29 122.461 1017.76 119.097 1017.76 114.772C1017.76 110.447 1017.29 107.083 1016.82 107.083C1016.35 107.083 1015.88 110.447 1015.88 114.772C1015.88 119.097 1016.35 122.461 1016.82 122.461Z" stroke="white"/>
<path d="M1027.36 122.461C1027.83 122.461 1028.3 119.097 1028.3 114.772C1028.3 110.447 1027.83 107.083 1027.36 107.083C1026.9 107.083 1026.43 110.447 1026.43 114.772C1026.43 119.097 1026.9 122.461 1027.36 122.461Z" stroke="white"/>
<path d="M1022.21 122.461C1022.68 122.461 1023.15 119.097 1023.15 114.772C1023.15 110.447 1022.68 107.083 1022.21 107.083C1021.74 107.083 1021.27 110.447 1021.27 114.772C1021.27 119.097 1021.74 122.461 1022.21 122.461Z" stroke="white"/>
<path d="M1002.56 102.738L1000.87 100.134H1038.68L1037.15 102.738H1002.56Z" stroke="white"/>
<path d="M1004.17 74.6441C1004.64 74.6441 1004.87 74.4038 1004.87 73.9232C1004.87 73.4426 1004.64 73.2023 1004.17 73.2023C1003.7 73.2023 1003.47 73.4426 1003.47 73.9232C1003.47 74.1635 1003.7 74.6441 1004.17 74.6441Z" fill="white"/>
<path d="M1035.33 74.6441C1035.8 74.6441 1036.03 74.4038 1036.03 73.9232C1036.03 73.4426 1035.8 73.2023 1035.33 73.2023C1034.86 73.2023 1034.63 73.4426 1034.63 73.9232C1034.63 74.1635 1034.86 74.6441 1035.33 74.6441Z" fill="white"/>
<path d="M1005.34 99.6337H1034.16M1034.16 81.5803V70.0786H1005.34V81.5803" stroke="white"/>
<path d="M1033.22 81.3721H1037.21V99.6338H1033.22" stroke="white"/>
<path d="M1006.28 81.3721H1002.29V99.6338H1006.28" stroke="white"/>
<path d="M1004.17 73.2023L1002.06 81.8526H1006.28L1004.17 73.2023Z" fill="white"/>
<path d="M1035.33 73.2023L1033.22 81.8526H1037.44L1035.33 73.2023Z" fill="white"/>
<path d="M1031.32 84.9763C1031.32 91.4401 1026.14 96.7308 1019.87 96.7308C1013.59 96.7308 1008.42 91.6739 1008.42 84.9763C1008.42 78.5124 1013.6 73.2217 1019.87 73.2217C1026.14 73.2217 1031.32 78.5124 1031.32 84.9763Z" stroke="white"/>
<path d="M1019.63 86.418C1020.34 86.418 1020.8 85.9374 1020.8 85.2166C1020.8 84.4957 1020.34 84.0151 1019.63 84.0151C1018.93 84.0151 1018.7 84.736 1018.7 85.2166C1018.7 85.6971 1019.16 86.418 1019.63 86.418Z" fill="white"/>
<path d="M1019.63 85.2166L1014.95 88.5806" stroke="white" stroke-width="0.757998"/>
<path d="M1019.63 85.2166L1025.26 90.2626" stroke="white" stroke-width="0.757998"/>
</g>
<g filter="url(#filter1_d_23_32)">
<path d="M1019.86 10.0071H1019.4V17.2157H1019.86V10.0071Z" fill="white"/>
</g>
<g filter="url(#filter2_d_23_32)">
<path d="M1005.99 69.5786L1019.63 19.1169L1033.5 69.5786H1005.99Z" stroke="white" shape-rendering="crispEdges"/>
</g>
<g filter="url(#filter3_d_23_32)">
<path d="M1021.27 15.2935H1018.22V22.502H1021.27V15.2935Z" fill="white"/>
</g>
<g filter="url(#filter4_d_23_32)">
<path d="M1019.9 9.50714V4.5H1028.27V9.50714H1019.9Z" stroke="white" shape-rendering="crispEdges"/>
</g>
<g filter="url(#filter5_d_23_32)">
<path d="M991.283 177.006V96.7503C991.283 74.1634 975.585 60.4671 952.857 60.4671C938.096 60.4671 924.506 68.1563 920.288 78.2483V22.0214H891V177.006H920.288V111.888C920.288 96.7503 928.489 84.2554 943.016 84.2554C956.372 84.2554 961.995 89.5417 961.995 106.602V177.006H991.283Z" stroke="white" stroke-width="1.5" shape-rendering="crispEdges"/>
</g>
<g filter="url(#filter6_d_23_32)">
<path d="M1077.27 177.006V22.0214H1047.98V177.006H1077.27ZM1118.74 177.006V22.0214H1089.46V177.006H1118.74Z" stroke="white" stroke-width="1.5" shape-rendering="crispEdges"/>
</g>
<g filter="url(#filter7_d_23_32)">
<path d="M105.131 174.032V96.2043C105.131 73.8577 89.5703 60.758 66.5672 60.758C51.6828 60.758 38.1516 68.4637 34.0922 77.7106V23H5V174.032H34.0922V110.845C34.0922 96.2043 42.2109 83.8751 57.0953 83.8751C70.6265 83.8751 76.0391 89.2691 76.0391 105.451V174.032H105.131ZM185.642 132.421C185.642 145.521 174.141 156.309 159.256 156.309C149.784 156.309 145.048 152.456 145.048 143.98C145.048 134.733 150.461 130.109 167.375 127.027C178.2 124.715 183.612 123.174 186.319 120.863L185.642 132.421ZM214.734 174.032V103.91C214.734 76.1694 202.556 59.9874 167.375 59.9874C131.517 59.9874 119.339 76.1694 118.663 99.2866H145.725C147.078 89.2691 152.491 83.1046 166.022 83.1046C177.523 83.1046 184.966 87.728 184.966 94.6631C184.966 102.369 180.906 105.451 166.022 106.992C136.253 110.845 115.28 114.698 115.28 146.291C115.28 164.015 126.781 176.344 152.491 176.344C167.375 176.344 178.877 170.95 186.319 163.244C186.319 166.326 186.995 170.179 188.348 173.261L214.734 173.261V174.032ZM297.952 133.962C296.598 145.521 287.803 152.456 276.302 152.456C264.8 152.456 254.652 140.897 254.652 117.01C254.652 93.122 264.8 84.6457 277.655 84.6457C288.48 84.6457 297.275 91.5809 298.628 103.139L328.397 103.139C326.367 76.94 306.747 60.758 278.331 60.758C247.209 60.758 226.236 77.7106 226.236 117.78C226.236 157.85 247.209 177.114 276.978 177.114C304.041 177.114 325.014 160.162 327.72 133.962H297.952ZM437.323 174.032L400.789 103.91L438 63.8403H402.142L365.608 106.222V23L336.516 23V174.032H366.284V138.586L380.492 123.945L404.848 174.032H437.323Z" stroke="white" shape-rendering="crispEdges"/>
</g>
<g filter="url(#filter8_d_23_32)">
<path d="M559.545 130.89C559.545 145.225 554.58 154.184 541.34 154.184C529.755 154.184 523.135 145.225 523.135 130.89V82.5084H586.025V61.0056H523.135V30.5433H495V134.473C495 159.56 508.24 181.063 541.34 181.063C574.44 181.063 587.68 159.56 587.68 134.473V102.219H559.545V130.89ZM705.185 175.687V93.2598C705.185 69.9651 688.635 55.6299 665.465 55.6299C650.57 55.6299 635.675 62.7975 630.71 73.5489V18H600.92V175.687H630.71V109.387C630.71 93.2598 638.985 80.7165 653.88 80.7165C667.12 80.7165 673.74 86.0922 673.74 104.011V175.687H705.185ZM748.215 107.595C749.87 91.4679 759.8 82.5084 771.385 82.5084C782.97 82.5084 794.555 91.4679 794.555 107.595H748.215ZM826 125.514C826 78.9246 807.795 57.4218 771.385 57.4218C734.975 57.4218 715.115 80.7165 715.115 116.554C715.115 157.768 734.975 179.271 773.04 179.271C797.865 179.271 816.07 166.728 824.345 141.641H792.9C791.245 148.809 781.315 154.184 773.04 154.184C758.145 154.184 748.215 143.433 746.56 125.514H826Z" stroke="white" shape-rendering="crispEdges"/>
</g>
<defs>
<filter id="filter0_d_23_32" x="995.95" y="65.5786" width="47.5978" height="115.927" filterUnits="userSpaceOnUse" color-interpolation-filters="sRGB">
<feFlood flood-opacity="0" result="BackgroundImageFix"/>
<feColorMatrix in="SourceAlpha" type="matrix" values="0 0 0 0 0 0 0 0 0 0 0 0 0 0 0 0 0 0 127 0" result="hardAlpha"/>
<feOffset/>
<feGaussianBlur stdDeviation="2"/>
<feComposite in2="hardAlpha" operator="out"/>
<feColorMatrix type="matrix" values="0 0 0 0 1 0 0 0 0 1 0 0 0 0 1 0 0 0 0.8 0"/>
<feBlend mode="normal" in2="BackgroundImageFix" result="effect1_dropShadow_23_32"/>
<feBlend mode="normal" in="SourceGraphic" in2="effect1_dropShadow_23_32" result="shape"/>
</filter>
<filter id="filter1_d_23_32" x="1015.4" y="6.00714" width="8.46863" height="15.2086" filterUnits="userSpaceOnUse" color-interpolation-filters="sRGB">
<feFlood flood-opacity="0" result="BackgroundImageFix"/>
<feColorMatrix in="SourceAlpha" type="matrix" values="0 0 0 0 0 0 0 0 0 0 0 0 0 0 0 0 0 0 127 0" result="hardAlpha"/>
<feOffset/>
<feGaussianBlur stdDeviation="2"/>
<feComposite in2="hardAlpha" operator="out"/>
<feColorMatrix type="matrix" values="0 0 0 0 0.990446 0 0 0 0 0.990446 0 0 0 0 0.990446 0 0 0 0.8 0"/>
<feBlend mode="normal" in2="BackgroundImageFix" result="effect1_dropShadow_23_32"/>
<feBlend mode="normal" in="SourceGraphic" in2="effect1_dropShadow_23_32" result="shape"/>
</filter>
<filter id="filter2_d_23_32" x="1001.34" y="13.2157" width="36.8197" height="60.8629" filterUnits="userSpaceOnUse" color-interpolation-filters="sRGB">
<feFlood flood-opacity="0" result="BackgroundImageFix"/>
<feColorMatrix in="SourceAlpha" type="matrix" values="0 0 0 0 0 0 0 0 0 0 0 0 0 0 0 0 0 0 127 0" result="hardAlpha"/>
<feOffset/>
<feGaussianBlur stdDeviation="2"/>
<feComposite in2="hardAlpha" operator="out"/>
<feColorMatrix type="matrix" values="0 0 0 0 1 0 0 0 0 1 0 0 0 0 1 0 0 0 0.8 0"/>
<feBlend mode="normal" in2="BackgroundImageFix" result="effect1_dropShadow_23_32"/>
<feBlend mode="normal" in="SourceGraphic" in2="effect1_dropShadow_23_32" result="shape"/>
</filter>
<filter id="filter3_d_23_32" x="1014.22" y="11.2935" width="11.046" height="15.2086" filterUnits="userSpaceOnUse" color-interpolation-filters="sRGB">
<feFlood flood-opacity="0" result="BackgroundImageFix"/>
<feColorMatrix in="SourceAlpha" type="matrix" values="0 0 0 0 0 0 0 0 0 0 0 0 0 0 0 0 0 0 127 0" result="hardAlpha"/>
<feOffset/>
<feGaussianBlur stdDeviation="2"/>
<feComposite in2="hardAlpha" operator="out"/>
<feColorMatrix type="matrix" values="0 0 0 0 1 0 0 0 0 1 0 0 0 0 1 0 0 0 0.8 0"/>
<feBlend mode="normal" in2="BackgroundImageFix" result="effect1_dropShadow_23_32"/>
<feBlend mode="normal" in="SourceGraphic" in2="effect1_dropShadow_23_32" result="shape"/>
</filter>
<filter id="filter4_d_23_32" x="1015.4" y="0" width="17.3723" height="14.0071" filterUnits="userSpaceOnUse" color-interpolation-filters="sRGB">
<feFlood flood-opacity="0" result="BackgroundImageFix"/>
<feColorMatrix in="SourceAlpha" type="matrix" values="0 0 0 0 0 0 0 0 0 0 0 0 0 0 0 0 0 0 127 0" result="hardAlpha"/>
<feOffset/>
<feGaussianBlur stdDeviation="2"/>
<feComposite in2="hardAlpha" operator="out"/>
<feColorMatrix type="matrix" values="0 0 0 0 1 0 0 0 0 1 0 0 0 0 1 0 0 0 0.8 0"/>
<feBlend mode="normal" in2="BackgroundImageFix" result="effect1_dropShadow_23_32"/>
<feBlend mode="normal" in="SourceGraphic" in2="effect1_dropShadow_23_32" result="shape"/>
</filter>
<filter id="filter5_d_23_32" x="886.25" y="17.2714" width="109.783" height="164.484" filterUnits="userSpaceOnUse" color-interpolation-filters="sRGB">
<feFlood flood-opacity="0" result="BackgroundImageFix"/>
<feColorMatrix in="SourceAlpha" type="matrix" values="0 0 0 0 0 0 0 0 0 0 0 0 0 0 0 0 0 0 127 0" result="hardAlpha"/>
<feOffset/>
<feGaussianBlur stdDeviation="2"/>
<feComposite in2="hardAlpha" operator="out"/>
<feColorMatrix type="matrix" values="0 0 0 0 1 0 0 0 0 1 0 0 0 0 1 0 0 0 0.8 0"/>
<feBlend mode="normal" in2="BackgroundImageFix" result="effect1_dropShadow_23_32"/>
<feBlend mode="normal" in="SourceGraphic" in2="effect1_dropShadow_23_32" result="shape"/>
</filter>
<filter id="filter6_d_23_32" x="1043.23" y="17.2714" width="80.2606" height="164.484" filterUnits="userSpaceOnUse" color-interpolation-filters="sRGB">
<feFlood flood-opacity="0" result="BackgroundImageFix"/>
<feColorMatrix in="SourceAlpha" type="matrix" values="0 0 0 0 0 0 0 0 0 0 0 0 0 0 0 0 0 0 127 0" result="hardAlpha"/>
<feOffset/>
<feGaussianBlur stdDeviation="2"/>
<feComposite in2="hardAlpha" operator="out"/>
<feColorMatrix type="matrix" values="0 0 0 0 1 0 0 0 0 1 0 0 0 0 1 0 0 0 0.8 0"/>
<feBlend mode="normal" in2="BackgroundImageFix" result="effect1_dropShadow_23_32"/>
<feBlend mode="normal" in="SourceGraphic" in2="effect1_dropShadow_23_32" result="shape"/>
</filter>
<filter id="filter7_d_23_32" x="0.5" y="18.5" width="442.647" height="163.114" filterUnits="userSpaceOnUse" color-interpolation-filters="sRGB">
<feFlood flood-opacity="0" result="BackgroundImageFix"/>
<feColorMatrix in="SourceAlpha" type="matrix" values="0 0 0 0 0 0 0 0 0 0 0 0 0 0 0 0 0 0 127 0" result="hardAlpha"/>
<feOffset/>
<feGaussianBlur stdDeviation="2"/>
<feComposite in2="hardAlpha" operator="out"/>
<feColorMatrix type="matrix" values="0 0 0 0 1 0 0 0 0 1 0 0 0 0 1 0 0 0 0.8 0"/>
<feBlend mode="normal" in2="BackgroundImageFix" result="effect1_dropShadow_23_32"/>
<feBlend mode="normal" in="SourceGraphic" in2="effect1_dropShadow_23_32" result="shape"/>
</filter>
<filter id="filter8_d_23_32" x="490.5" y="13.5" width="340" height="172.063" filterUnits="userSpaceOnUse" color-interpolation-filters="sRGB">
<feFlood flood-opacity="0" result="BackgroundImageFix"/>
<feColorMatrix in="SourceAlpha" type="matrix" values="0 0 0 0 0 0 0 0 0 0 0 0 0 0 0 0 0 0 127 0" result="hardAlpha"/>
<feOffset/>
<feGaussianBlur stdDeviation="2"/>
<feComposite in2="hardAlpha" operator="out"/>
<feColorMatrix type="matrix" values="0 0 0 0 1 0 0 0 0 1 0 0 0 0 1 0 0 0 0.8 0"/>
<feBlend mode="normal" in2="BackgroundImageFix" result="effect1_dropShadow_23_32"/>
<feBlend mode="normal" in="SourceGraphic" in2="effect1_dropShadow_23_32" result="shape"/>
</filter>
</defs>
</svg>
