<svg width="1115" height="178" viewBox="0 0 1115 178" fill="none" xmlns="http://www.w3.org/2000/svg">
<path d="M1014.87 6.04163H1014.4V13.2916H1014.87V6.04163Z" fill="white"/>
<path fill-rule="evenodd" clip-rule="evenodd" d="M1029.16 99.8083H1000.34V174H1029.16V99.8083ZM1006.43 119.142C1006.9 119.142 1007.37 115.758 1007.37 111.408C1007.37 107.058 1006.9 103.675 1006.43 103.675C1005.96 103.675 1005.49 107.058 1005.49 111.408C1005.49 115.758 1005.96 119.142 1006.43 119.142ZM1012.76 111.408C1012.76 115.758 1012.29 119.142 1011.82 119.142C1011.35 119.142 1010.88 115.758 1010.88 111.408C1010.88 107.058 1011.35 103.675 1011.82 103.675C1012.29 103.675 1012.76 107.058 1012.76 111.408ZM1022.36 119.142C1022.83 119.142 1023.3 115.758 1023.3 111.408C1023.3 107.058 1022.83 103.675 1022.36 103.675C1021.9 103.675 1021.43 107.058 1021.43 111.408C1021.43 115.758 1021.9 119.142 1022.36 119.142ZM1018.15 111.408C1018.15 115.758 1017.68 119.142 1017.21 119.142C1016.74 119.142 1016.27 115.758 1016.27 111.408C1016.27 107.058 1016.74 103.675 1017.21 103.675C1017.68 103.675 1018.15 107.058 1018.15 111.408Z" fill="white"/>
<path d="M997.566 99.3083L995.869 96.6833H1033.68L1032.15 99.3083H997.566Z" stroke="white"/>
<path d="M999.169 71.05C999.637 71.05 999.872 70.8084 999.872 70.325C999.872 69.8417 999.637 69.6 999.169 69.6C998.7 69.6 998.466 69.8417 998.466 70.325C998.466 70.5667 998.7 71.05 999.169 71.05Z" fill="white"/>
<path d="M1030.33 71.05C1030.8 71.05 1031.03 70.8084 1031.03 70.325C1031.03 69.8417 1030.8 69.6 1030.33 69.6C1029.86 69.6 1029.63 69.8417 1029.63 70.325C1029.63 70.5667 1029.86 71.05 1030.33 71.05Z" fill="white"/>
<path d="M1000.99 65.9583L1014.63 15.203L1028.5 65.9583H1000.99Z" fill="white" stroke="white"/>
<path d="M1016.27 11.3583H1013.22V18.6083H1016.27V11.3583Z" fill="white"/>
<path d="M1032.21 77.8167H1028.22V96.1834H1032.21V77.8167Z" fill="white"/>
<path d="M1001.28 77.8167H997.294V96.1834H1001.28V77.8167Z" fill="white"/>
<path d="M1023.77 0H1014.4V6.04167H1023.77V0Z" fill="white"/>
<path d="M999.169 69.6L997.06 78.3H1001.28L999.169 69.6Z" fill="white"/>
<path d="M1030.33 69.6L1028.22 78.3H1032.44L1030.33 69.6Z" fill="white"/>
<path fill-rule="evenodd" clip-rule="evenodd" d="M1000.34 66.4583H1029.16V96.1833H1000.34V66.4583ZM1026.82 81.4416C1026.82 88.2083 1021.43 93.7666 1014.87 93.7666C1008.31 93.7666 1002.92 88.4499 1002.92 81.4416C1002.92 74.6749 1008.31 69.1166 1014.87 69.1166C1021.43 69.1166 1026.82 74.6749 1026.82 81.4416Z" fill="white"/>
<path d="M1014.63 82.8917C1015.34 82.8917 1015.8 82.4083 1015.8 81.6833C1015.8 80.9583 1015.34 80.475 1014.63 80.475C1013.93 80.475 1013.7 81.2 1013.7 81.6833C1013.7 82.1667 1014.16 82.8917 1014.63 82.8917Z" fill="white"/>
<path d="M1014.63 81.6833L1009.95 85.0667" stroke="white" stroke-width="0.757998"/>
<path d="M1014.63 81.6833L1020.26 86.7584" stroke="white" stroke-width="0.757998"/>
<path d="M986.283 174V93.2833C986.283 70.5667 970.585 56.7917 947.857 56.7917C933.096 56.7917 919.506 64.525 915.288 74.675V18.125H886V174H915.288V108.508C915.288 93.2833 923.489 80.7167 938.016 80.7167C951.372 80.7167 956.995 86.0333 956.995 103.192V174H986.283Z" fill="white" stroke="white" stroke-width="2"/>
<path d="M1072.27 174V18.125H1042.98V174H1072.27ZM1113.74 174V18.125H1084.46V174H1113.74Z" fill="white" stroke="white" stroke-width="2"/>
<path d="M100.131 170.9V92.625C100.131 70.15 84.5703 56.975 61.5672 56.975C46.6828 56.975 33.1516 64.725 29.0922 74.025V19H0V170.9L29.0922 170.9V107.35C29.0922 92.625 37.2109 80.225 52.0953 80.225C65.6266 80.225 71.0391 85.65 71.0391 101.925V170.9H100.131ZM180.642 129.05C180.642 142.225 169.141 153.075 154.256 153.075C144.784 153.075 140.048 149.2 140.048 140.675C140.048 131.375 145.461 126.725 162.375 123.625C173.2 121.3 178.612 119.75 181.319 117.425L180.642 129.05ZM209.734 170.9V100.375C209.734 72.475 197.556 56.2 162.375 56.2C126.517 56.2 114.339 72.475 113.663 95.725H140.725C142.078 85.65 147.491 79.45 161.022 79.45C172.523 79.45 179.966 84.1 179.966 91.075C179.966 98.825 175.906 101.925 161.022 103.475C131.253 107.35 110.28 111.225 110.28 143C110.28 160.825 121.781 173.225 147.491 173.225C162.375 173.225 173.877 167.8 181.319 160.05C181.319 163.15 181.995 167.025 183.348 170.125H209.734V170.9ZM292.952 130.6C291.598 142.225 282.803 149.2 271.302 149.2C259.8 149.2 249.652 137.575 249.652 113.55C249.652 89.525 259.8 81 272.655 81C283.48 81 292.275 87.975 293.628 99.6H323.397C321.367 73.25 301.747 56.975 273.331 56.975C242.209 56.975 221.236 74.025 221.236 114.325C221.236 154.625 242.209 174 271.978 174C299.041 174 320.014 156.95 322.72 130.6H292.952ZM432.323 170.9L395.789 100.375L433 60.075H397.142L360.608 102.7V19H331.516V170.9H361.284V135.25L375.492 120.525L399.848 170.9H432.323Z" fill="white"/>
<path d="M554.545 127.538C554.545 141.956 549.58 150.967 536.34 150.967C524.755 150.967 518.135 141.956 518.135 127.538V78.8791H581.025V57.2527H518.135V26.6154H490V131.143C490 156.374 503.24 178 536.34 178C569.44 178 582.68 156.374 582.68 131.143V98.7033H554.545V127.538ZM700.185 172.593V89.6923C700.185 66.2637 683.635 51.8462 660.465 51.8462C645.57 51.8462 630.675 59.0549 625.71 69.8681V14H595.92V172.593H625.71V105.912C625.71 89.6923 633.985 77.0769 648.88 77.0769C662.12 77.0769 668.74 82.4835 668.74 100.505V172.593H700.185ZM743.215 104.11C744.87 87.8901 754.8 78.8791 766.385 78.8791C777.97 78.8791 789.555 87.8901 789.555 104.11H743.215ZM821 122.132C821 75.2747 802.795 53.6483 766.385 53.6483C729.975 53.6483 710.115 77.0769 710.115 113.121C710.115 154.571 729.975 176.198 768.04 176.198C792.865 176.198 811.07 163.582 819.345 138.352H787.9C786.245 145.56 776.315 150.967 768.04 150.967C753.145 150.967 743.215 140.154 741.56 122.132H821Z" fill="white"/>
</svg>
