<svg width="340" height="340" viewBox="0 0 340 340" fill="none" xmlns="http://www.w3.org/2000/svg">
<rect width="340" height="340" fill="#D70909"/>
<path d="M207.929 83.0416H207.46V90.2916H207.929V83.0416Z" fill="white"/>
<path fill-rule="evenodd" clip-rule="evenodd" d="M222.222 176.808H193.402V251H222.222V176.808ZM199.494 196.142C199.963 196.142 200.432 192.758 200.432 188.408C200.432 184.058 199.963 180.675 199.494 180.675C199.026 180.675 198.557 184.058 198.557 188.408C198.557 192.758 199.026 196.142 199.494 196.142ZM205.822 188.408C205.822 192.758 205.353 196.142 204.885 196.142C204.416 196.142 203.948 192.758 203.948 188.408C203.948 184.058 204.416 180.675 204.885 180.675C205.353 180.675 205.822 184.058 205.822 188.408ZM215.428 196.142C215.896 196.142 216.365 192.758 216.365 188.408C216.365 184.058 215.896 180.675 215.428 180.675C214.959 180.675 214.491 184.058 214.491 188.408C214.491 192.758 214.959 196.142 215.428 196.142ZM211.212 188.408C211.212 192.758 210.744 196.142 210.275 196.142C209.806 196.142 209.338 192.758 209.338 188.408C209.338 184.058 209.806 180.675 210.275 180.675C210.744 180.675 211.212 184.058 211.212 188.408Z" fill="white"/>
<path d="M190.629 176.308L188.933 173.683H226.743L225.216 176.308H190.629Z" stroke="white"/>
<path d="M192.232 148.05C192.701 148.05 192.935 147.808 192.935 147.325C192.935 146.842 192.701 146.6 192.232 146.6C191.764 146.6 191.529 146.842 191.529 147.325C191.529 147.567 191.764 148.05 192.232 148.05Z" fill="white"/>
<path d="M223.393 148.05C223.862 148.05 224.096 147.808 224.096 147.325C224.096 146.842 223.862 146.6 223.393 146.6C222.924 146.6 222.69 146.842 222.69 147.325C222.69 147.567 222.924 148.05 223.393 148.05Z" fill="white"/>
<path d="M194.054 142.958L207.698 92.203L221.567 142.958H194.054Z" fill="white" stroke="white"/>
<path d="M209.334 88.3583H206.288V95.6083H209.334V88.3583Z" fill="white"/>
<path d="M225.271 154.817H221.287V173.183H225.271V154.817Z" fill="white"/>
<path d="M194.341 154.817H190.358V173.183H194.341V154.817Z" fill="white"/>
<path d="M216.832 77H207.46V83.0417H216.832V77Z" fill="white"/>
<path d="M192.232 146.6L190.124 155.3H194.341L192.232 146.6Z" fill="white"/>
<path d="M223.396 146.6L221.287 155.3H225.505L223.396 146.6Z" fill="white"/>
<path fill-rule="evenodd" clip-rule="evenodd" d="M193.402 143.458H222.222V173.183H193.402V143.458ZM219.882 158.442C219.882 165.208 214.493 170.767 207.932 170.767C201.371 170.767 195.982 165.45 195.982 158.442C195.982 151.675 201.371 146.117 207.932 146.117C214.493 146.117 219.882 151.675 219.882 158.442Z" fill="white"/>
<path d="M207.697 159.892C208.399 159.892 208.868 159.408 208.868 158.683C208.868 157.958 208.399 157.475 207.697 157.475C206.994 157.475 206.759 158.2 206.759 158.683C206.759 159.167 207.228 159.892 207.697 159.892Z" fill="white"/>
<path d="M207.696 158.683L203.01 162.067" stroke="white" stroke-width="0.757998"/>
<path d="M207.697 158.683L213.321 163.758" stroke="white" stroke-width="0.757998"/>
<path d="M179.347 251V170.283C179.347 147.567 163.648 133.792 140.921 133.792C126.159 133.792 112.57 141.525 108.352 151.675V95.125H79.0638V251H108.352V185.508C108.352 170.283 116.553 157.717 131.08 157.717C144.435 157.717 150.059 163.033 150.059 180.192V251H179.347Z" fill="white" stroke="white" stroke-width="2"/>
<path d="M265.336 251V95.125H236.047V251H265.336ZM306.808 251V95.125H277.52V251H306.808Z" fill="white" stroke="white" stroke-width="2"/>
<path d="M69.9241 215.233H46.2591C39.4642 215.233 35.481 220.792 35.481 229.008C35.481 234.325 37.8241 239.158 40.6358 240.608H24V251H69.9241V240.608H50.7109C46.2591 240.608 42.5102 237.708 42.5102 232.392C42.5102 227.558 44.1504 225.625 49.0708 225.625H69.9241V215.233ZM57.2715 186.475C61.2547 186.475 64.535 190.583 64.535 195.9C64.535 199.283 63.3635 200.975 60.7861 200.975C57.9745 200.975 56.5686 199.042 55.6314 193C54.9285 189.133 54.4599 187.2 53.7569 186.233L57.2715 186.475ZM69.9241 176.083H48.6022C40.1672 176.083 35.2467 180.433 35.2467 193C35.2467 205.808 40.1672 210.158 47.1963 210.4V200.733C44.1504 200.25 42.2759 198.317 42.2759 193.483C42.2759 189.375 43.6818 186.717 45.7905 186.717C48.1336 186.717 49.0708 188.167 49.5394 193.483C50.7109 204.117 51.8825 211.608 61.4891 211.608C66.8781 211.608 70.627 207.5 70.627 198.317C70.627 193 68.9869 188.892 66.6438 186.233C67.581 186.233 68.7526 185.992 69.6898 185.508V176.083H69.9241ZM57.7401 146.358C61.2547 146.842 63.3635 149.983 63.3635 154.092C63.3635 158.2 59.8489 161.825 52.5854 161.825C45.3219 161.825 42.7445 158.2 42.7445 153.608C42.7445 149.742 44.8533 146.6 48.3679 146.117V135.483C40.4015 136.208 35.481 143.217 35.481 153.367C35.481 164.483 40.6358 171.975 52.8197 171.975C65.0036 171.975 70.8613 164.483 70.8613 153.85C70.8613 144.183 65.7066 136.692 57.7401 135.725V146.358ZM69.9241 96.575L48.6022 109.625L36.4182 96.3333V109.142L49.3051 122.192H24V132.583H69.9241V121.95H59.146L54.6942 116.875L69.9241 108.175V96.575Z" fill="white"/>
<path d="M126.861 111.558C126.861 113.492 126.158 114.7 124.284 114.7C122.644 114.7 121.706 113.492 121.706 111.558V105.033H130.61V102.133H121.706V98.025H117.723V112.042C117.723 115.425 119.598 118.325 124.284 118.325C128.97 118.325 130.844 115.425 130.844 112.042V107.692H126.861V111.558ZM147.48 117.6V106.483C147.48 103.342 145.137 101.408 141.857 101.408C139.748 101.408 137.639 102.375 136.936 103.825V96.3333H132.719V117.6H136.936V108.658C136.936 106.483 138.108 104.792 140.217 104.792C142.091 104.792 143.028 105.517 143.028 107.933V117.6H147.48ZM153.572 108.417C153.806 106.242 155.212 105.033 156.852 105.033C158.492 105.033 160.133 106.242 160.133 108.417H153.572ZM164.584 110.833C164.584 104.55 162.007 101.65 156.852 101.65C151.698 101.65 148.886 104.792 148.886 109.625C148.886 115.183 151.698 118.083 157.087 118.083C160.601 118.083 163.179 116.392 164.35 113.008H159.898C159.664 113.975 158.258 114.7 157.087 114.7C154.978 114.7 153.572 113.25 153.338 110.833H164.584Z" fill="white"/>
</svg>
