<svg width="284" height="175" viewBox="0 0 284 175" fill="none" xmlns="http://www.w3.org/2000/svg">
<path d="M183.929 6.04163H183.46V13.2916H183.929V6.04163Z" fill="white"/>
<path fill-rule="evenodd" clip-rule="evenodd" d="M198.222 99.8083H169.402V174H198.222V99.8083ZM175.494 119.142C175.963 119.142 176.432 115.758 176.432 111.408C176.432 107.058 175.963 103.675 175.494 103.675C175.026 103.675 174.557 107.058 174.557 111.408C174.557 115.758 175.026 119.142 175.494 119.142ZM181.822 111.408C181.822 115.758 181.353 119.142 180.885 119.142C180.416 119.142 179.948 115.758 179.948 111.408C179.948 107.058 180.416 103.675 180.885 103.675C181.353 103.675 181.822 107.058 181.822 111.408ZM191.428 119.142C191.896 119.142 192.365 115.758 192.365 111.408C192.365 107.058 191.896 103.675 191.428 103.675C190.959 103.675 190.491 107.058 190.491 111.408C190.491 115.758 190.959 119.142 191.428 119.142ZM187.212 111.408C187.212 115.758 186.744 119.142 186.275 119.142C185.806 119.142 185.338 115.758 185.338 111.408C185.338 107.058 185.806 103.675 186.275 103.675C186.744 103.675 187.212 107.058 187.212 111.408Z" fill="white"/>
<path d="M166.629 99.3083L164.933 96.6833H202.743L201.216 99.3083H166.629Z" stroke="white"/>
<path d="M168.232 71.05C168.701 71.05 168.935 70.8084 168.935 70.325C168.935 69.8417 168.701 69.6 168.232 69.6C167.764 69.6 167.529 69.8417 167.529 70.325C167.529 70.5667 167.764 71.05 168.232 71.05Z" fill="white"/>
<path d="M199.393 71.05C199.862 71.05 200.096 70.8084 200.096 70.325C200.096 69.8417 199.862 69.6 199.393 69.6C198.924 69.6 198.69 69.8417 198.69 70.325C198.69 70.5667 198.924 71.05 199.393 71.05Z" fill="white"/>
<path d="M170.054 65.9583L183.698 15.203L197.567 65.9583H170.054Z" fill="white" stroke="white"/>
<path d="M185.334 11.3583H182.288V18.6083H185.334V11.3583Z" fill="white"/>
<path d="M201.271 77.8167H197.287V96.1834H201.271V77.8167Z" fill="white"/>
<path d="M170.341 77.8167H166.358V96.1834H170.341V77.8167Z" fill="white"/>
<path d="M192.832 0H183.46V6.04167H192.832V0Z" fill="white"/>
<path d="M168.232 69.6L166.124 78.3H170.341L168.232 69.6Z" fill="white"/>
<path d="M199.396 69.6L197.287 78.3H201.505L199.396 69.6Z" fill="white"/>
<path fill-rule="evenodd" clip-rule="evenodd" d="M169.402 66.4583H198.222V96.1833H169.402V66.4583ZM195.882 81.4416C195.882 88.2083 190.493 93.7666 183.932 93.7666C177.371 93.7666 171.982 88.45 171.982 81.4416C171.982 74.675 177.371 69.1166 183.932 69.1166C190.493 69.1166 195.882 74.675 195.882 81.4416Z" fill="white"/>
<path d="M183.697 82.8917C184.399 82.8917 184.868 82.4083 184.868 81.6833C184.868 80.9583 184.399 80.475 183.697 80.475C182.994 80.475 182.759 81.2 182.759 81.6833C182.759 82.1667 183.228 82.8917 183.697 82.8917Z" fill="white"/>
<path d="M183.696 81.6833L179.01 85.0667" stroke="white" stroke-width="0.757998"/>
<path d="M183.697 81.6833L189.321 86.7584" stroke="white" stroke-width="0.757998"/>
<path d="M155.347 174V93.2833C155.347 70.5666 139.648 56.7916 116.921 56.7916C102.159 56.7916 88.5696 64.525 84.3521 74.675V18.125H55.0638V174H84.3521V108.508C84.3521 93.2833 92.5529 80.7166 107.08 80.7166C120.435 80.7166 126.059 86.0333 126.059 103.192V174H155.347Z" fill="white" stroke="white" stroke-width="2"/>
<path d="M241.336 174V18.125H212.047V174H241.336ZM282.808 174V18.125H253.52V174H282.808Z" fill="white" stroke="white" stroke-width="2"/>
<path d="M45.9241 138.233H22.2591C15.4642 138.233 11.481 143.792 11.481 152.008C11.481 157.325 13.8241 162.158 16.6358 163.608H0V174H45.9241V163.608H26.7109C22.2591 163.608 18.5102 160.708 18.5102 155.392C18.5102 150.558 20.1504 148.625 25.0708 148.625H45.9241V138.233ZM33.2715 109.475C37.2547 109.475 40.535 113.583 40.535 118.9C40.535 122.283 39.3635 123.975 36.7861 123.975C33.9745 123.975 32.5686 122.042 31.6314 116C30.9285 112.133 30.4599 110.2 29.7569 109.233L33.2715 109.475ZM45.9241 99.0833H24.6022C16.1672 99.0833 11.2467 103.433 11.2467 116C11.2467 128.808 16.1672 133.158 23.1963 133.4V123.733C20.1504 123.25 18.2759 121.317 18.2759 116.483C18.2759 112.375 19.6818 109.717 21.7905 109.717C24.1336 109.717 25.0708 111.167 25.5394 116.483C26.7109 127.117 27.8825 134.608 37.4891 134.608C42.8781 134.608 46.627 130.5 46.627 121.317C46.627 116 44.9869 111.892 42.6438 109.233C43.581 109.233 44.7526 108.992 45.6898 108.508V99.0833H45.9241ZM33.7401 69.3583C37.2547 69.8417 39.3635 72.9833 39.3635 77.0917C39.3635 81.2 35.8489 84.825 28.5854 84.825C21.3219 84.825 18.7445 81.2 18.7445 76.6083C18.7445 72.7417 20.8533 69.6 24.3679 69.1167V58.4833C16.4015 59.2083 11.481 66.2166 11.481 76.3667C11.481 87.4833 16.6358 94.975 28.8197 94.975C41.0036 94.975 46.8613 87.4833 46.8613 76.85C46.8613 67.1833 41.7066 59.6916 33.7401 58.725V69.3583ZM45.9241 19.575L24.6022 32.625L12.4182 19.3333V32.1416L25.3051 45.1917H0V55.5833H45.9241V44.95H35.146L30.6942 39.875L45.9241 31.175V19.575Z" fill="white"/>
<path d="M102.861 34.5583C102.861 36.4916 102.158 37.7 100.284 37.7C98.6436 37.7 97.7064 36.4916 97.7064 34.5583V28.0333H106.61V25.1333H97.7064V21.025H93.7231V35.0416C93.7231 38.425 95.5976 41.325 100.284 41.325C104.97 41.325 106.844 38.425 106.844 35.0416V30.6916H102.861V34.5583ZM123.48 40.6V29.4833C123.48 26.3416 121.137 24.4083 117.857 24.4083C115.748 24.4083 113.639 25.375 112.936 26.825V19.3333H108.719V40.6H112.936V31.6583C112.936 29.4833 114.108 27.7916 116.217 27.7916C118.091 27.7916 119.028 28.5166 119.028 30.9333V40.6H123.48ZM129.572 31.4166C129.806 29.2416 131.212 28.0333 132.852 28.0333C134.492 28.0333 136.133 29.2416 136.133 31.4166H129.572ZM140.584 33.8333C140.584 27.55 138.007 24.65 132.852 24.65C127.698 24.65 124.886 27.7916 124.886 32.625C124.886 38.1833 127.698 41.0833 133.087 41.0833C136.601 41.0833 139.179 39.3916 140.35 36.0083H135.898C135.664 36.975 134.258 37.7 133.087 37.7C130.978 37.7 129.572 36.25 129.338 33.8333H140.584Z" fill="white"/>
</svg>
