<svg width="189" height="119" viewBox="0 0 189 119" fill="none" xmlns="http://www.w3.org/2000/svg">
<g filter="url(#filter0_d_39_2537)">
<rect x="112" y="66.9999" width="18" height="47" fill="#FF3535" fill-opacity="0.19"/>
<path d="M130.312 67.0972V114H112.093V67.0972" stroke="#FF3535" stroke-width="1.5"/>
<path d="M115.945 79.3194C116.241 79.3194 116.537 77.1805 116.537 74.4305C116.537 71.6805 116.241 69.5416 115.945 69.5416C115.648 69.5416 115.352 71.6805 115.352 74.4305C115.352 77.1805 115.648 79.3194 115.945 79.3194Z" fill="#FF3535" fill-opacity="0.4" stroke="#FF3535"/>
<path d="M119.352 79.3194C119.649 79.3194 119.945 77.1805 119.945 74.4305C119.945 71.6805 119.649 69.5416 119.352 69.5416C119.056 69.5416 118.76 71.6805 118.76 74.4305C118.76 77.1805 119.056 79.3194 119.352 79.3194Z" fill="#FF3535" fill-opacity="0.4" stroke="#FF3535"/>
<path d="M126.018 79.3194C126.314 79.3194 126.61 77.1805 126.61 74.4305C126.61 71.6805 126.314 69.5416 126.018 69.5416C125.721 69.5416 125.425 71.6805 125.425 74.4305C125.425 77.1805 125.721 79.3194 126.018 79.3194Z" fill="#FF3535" fill-opacity="0.4" stroke="#FF3535"/>
<path d="M122.76 79.3194C123.056 79.3194 123.352 77.1805 123.352 74.4305C123.352 71.6805 123.056 69.5416 122.76 69.5416C122.464 69.5416 122.167 71.6805 122.167 74.4305C122.167 77.1805 122.464 79.3194 122.76 79.3194Z" fill="#FF3535" fill-opacity="0.4" stroke="#FF3535"/>
<path d="M110.441 66.5971L109.606 65.3054H132.851L132.1 66.5971H110.441Z" fill="#FF3535" fill-opacity="0.4" stroke="#FF3535"/>
<path d="M112 46H130V53.5H132V65H110.5V53.5H112V46Z" fill="#FF3535" fill-opacity="0.19"/>
<path d="M112.093 64.8055H130.312M130.312 53.3268V46.0138H112.093V53.3268" stroke="#FF3535"/>
<path d="M129.722 53.1943H132.24V64.8054H129.722" stroke="#FF3535"/>
<path d="M112.687 53.1943H110.169V64.8054H112.687" stroke="#FF3535"/>
<path d="M111.695 52.75H110.305L111 49.2748L111.695 52.75Z" fill="#FF3535" fill-opacity="0.4" stroke="#FF3535" stroke-width="0.5"/>
<path d="M132.349 53.25H130.318L131.333 49.0613L132.349 53.25Z" fill="#FF3535" fill-opacity="0.4" stroke="#FF3535" stroke-width="0.5"/>
<path d="M128.333 55.4861C128.333 59.5024 125.136 62.7778 121.279 62.7778C117.416 62.7778 114.225 59.6487 114.225 55.4861C114.225 51.4698 117.422 48.1945 121.279 48.1945C125.136 48.1945 128.333 51.4698 128.333 55.4861Z" fill="#FF3535" fill-opacity="0.4" stroke="#FF3535"/>
<path d="M121.13 56.4028C121.574 56.4028 121.871 56.0972 121.871 55.6389C121.871 55.1806 121.574 54.875 121.13 54.875C120.686 54.875 120.537 55.3333 120.537 55.6389C120.537 55.9444 120.834 56.4028 121.13 56.4028Z" fill="#FF3535" fill-opacity="0.4"/>
<path d="M121.13 55.6389L118.167 57.7778L121.13 55.6389Z" fill="#FF3535" fill-opacity="0.4"/>
<path d="M121.13 55.6389L118.167 57.7778" stroke="#FF3535" stroke-width="0.757998"/>
<path d="M121.13 55.6389L124.685 58.8473L121.13 55.6389Z" fill="#FF3535" fill-opacity="0.4"/>
<path d="M121.13 55.6389L124.685 58.8473" stroke="#FF3535" stroke-width="0.757998"/>
</g>
<g filter="url(#filter1_d_39_2537)">
<path d="M121.277 7.81946H120.981V12.4028H121.277V7.81946Z" fill="#FF3535" fill-opacity="0.4" shape-rendering="crispEdges"/>
</g>
<g filter="url(#filter2_d_39_2537)">
<path d="M121.129 12.4027L130.312 46.0138H112.093L121.129 12.4027Z" fill="#FF3535" fill-opacity="0.19" shape-rendering="crispEdges"/>
<path d="M112.745 45.5138L121.133 14.3141L129.658 45.5138H112.745Z" stroke="#FF3535" shape-rendering="crispEdges"/>
</g>
<g filter="url(#filter3_d_39_2537)">
<path d="M122.165 11.1805H120.24V15.7639H122.165V11.1805Z" fill="#FF3535" fill-opacity="0.4" shape-rendering="crispEdges"/>
<path d="M120.49 15.5139V11.4305H121.915V15.5139H120.49Z" stroke="#FF3535" stroke-opacity="0.7" stroke-width="0.5" shape-rendering="crispEdges"/>
</g>
<g filter="url(#filter4_d_39_2537)">
<path d="M126.906 4H120.981V7.81944H126.906V4Z" fill="#FF3535" fill-opacity="0.4" shape-rendering="crispEdges"/>
<path d="M121.481 7.31944V4.5H126.406V7.31944H121.481Z" stroke="#FF3535" shape-rendering="crispEdges"/>
</g>
<g filter="url(#filter5_d_39_2537)">
<path d="M103.208 114V62.9722C103.208 48.6111 93.2835 39.9028 78.9154 39.9028C69.5835 39.9028 60.9923 44.7917 58.326 51.2084V15.4584H39.8104V114H58.326V72.5972C58.326 62.9723 63.5104 55.0278 72.6941 55.0278C81.1372 55.0278 84.6922 58.3889 84.6922 69.2361V114H103.208Z" fill="#FF3535" fill-opacity="0.19" shape-rendering="crispEdges"/>
<path d="M103.208 114V62.9722C103.208 48.6111 93.2835 39.9028 78.9154 39.9028C69.5835 39.9028 60.9923 44.7917 58.326 51.2084V15.4584H39.8104V114H58.326V72.5972C58.326 62.9723 63.5104 55.0278 72.6941 55.0278C81.1372 55.0278 84.6922 58.3889 84.6922 69.2361V114H103.208Z" stroke="#FF3535" stroke-width="1.5" shape-rendering="crispEdges"/>
</g>
<g filter="url(#filter6_d_39_2537)">
<path d="M157.568 114V15.4584H139.053V114H157.568ZM183.787 114V15.4584H165.271V114H183.787Z" fill="#FF3535" fill-opacity="0.19" shape-rendering="crispEdges"/>
<path d="M157.568 114V15.4584H139.053V114H157.568ZM183.787 114V15.4584H165.271V114H183.787Z" stroke="#FF3535" stroke-width="1.5" shape-rendering="crispEdges"/>
</g>
<g filter="url(#filter7_d_39_2537)">
<path d="M34.0325 91.3889H19.0719C14.7762 91.3889 12.2581 94.9028 12.2581 100.097C12.2581 103.458 13.7394 106.514 15.5169 107.431H5V114H34.0325V107.431H21.8862C19.0719 107.431 16.7019 105.597 16.7019 102.236C16.7019 99.1806 17.7387 97.9584 20.8494 97.9584H34.0325V91.3889ZM26.0337 73.2084C28.5518 73.2084 30.6256 75.8056 30.6256 79.1667C30.6256 81.3056 29.885 82.375 28.2556 82.375C26.4781 82.375 25.5893 81.1528 24.9968 77.3334C24.5525 74.8889 24.2562 73.6667 23.8118 73.0556L26.0337 73.2084ZM34.0325 66.6389H20.5531C15.2206 66.6389 12.11 69.3889 12.11 77.3334C12.11 85.4306 15.2206 88.1806 19.6644 88.3334V82.2223C17.7387 81.9167 16.5537 80.6945 16.5537 77.6389C16.5537 75.0417 17.4425 73.3612 18.7756 73.3612C20.2569 73.3612 20.8493 74.2778 21.1456 77.6389C21.8862 84.3612 22.6268 89.0973 28.7 89.0973C32.1068 89.0973 34.4768 86.5 34.4768 80.6945C34.4768 77.3334 33.44 74.7362 31.9587 73.0556C32.5512 73.0556 33.2918 72.9028 33.8843 72.5973V66.6389H34.0325ZM26.33 47.8473C28.5518 48.1528 29.885 50.1389 29.885 52.7362C29.885 55.3334 27.6631 57.625 23.0712 57.625C18.4794 57.625 16.85 55.3334 16.85 52.4306C16.85 49.9862 18.1831 48.0001 20.405 47.6945V40.9723C15.3687 41.4306 12.2581 45.8612 12.2581 52.2778C12.2581 59.3056 15.5169 64.0417 23.2193 64.0417C30.9218 64.0417 34.625 59.3056 34.625 52.5834C34.625 46.4723 31.3662 41.7362 26.33 41.1251V47.8473ZM34.0325 16.3751L20.5531 24.6251L12.8506 16.2223V24.3195L20.9975 32.5695H5V39.1389H34.0325V32.4167H27.2187L24.4043 29.2084L34.0325 23.7084V16.3751Z" fill="#FF3535" fill-opacity="0.19" shape-rendering="crispEdges"/>
<path d="M34.0325 91.3889H19.0719C14.7762 91.3889 12.2581 94.9028 12.2581 100.097C12.2581 103.458 13.7394 106.514 15.5169 107.431H5V114H34.0325V107.431H21.8862C19.0719 107.431 16.7019 105.597 16.7019 102.236C16.7019 99.1806 17.7387 97.9584 20.8494 97.9584H34.0325V91.3889ZM26.0337 73.2084C28.5518 73.2084 30.6256 75.8056 30.6256 79.1667C30.6256 81.3056 29.885 82.375 28.2556 82.375C26.4781 82.375 25.5893 81.1528 24.9968 77.3334C24.5525 74.8889 24.2562 73.6667 23.8118 73.0556L26.0337 73.2084ZM34.0325 66.6389H20.5531C15.2206 66.6389 12.11 69.3889 12.11 77.3334C12.11 85.4306 15.2206 88.1806 19.6644 88.3334V82.2223C17.7387 81.9167 16.5537 80.6945 16.5537 77.6389C16.5537 75.0417 17.4425 73.3612 18.7756 73.3612C20.2569 73.3612 20.8493 74.2778 21.1456 77.6389C21.8862 84.3612 22.6268 89.0973 28.7 89.0973C32.1068 89.0973 34.4768 86.5 34.4768 80.6945C34.4768 77.3334 33.44 74.7362 31.9587 73.0556C32.5512 73.0556 33.2918 72.9028 33.8843 72.5973V66.6389H34.0325ZM26.33 47.8473C28.5518 48.1528 29.885 50.1389 29.885 52.7362C29.885 55.3334 27.6631 57.625 23.0712 57.625C18.4794 57.625 16.85 55.3334 16.85 52.4306C16.85 49.9862 18.1831 48.0001 20.405 47.6945V40.9723C15.3687 41.4306 12.2581 45.8612 12.2581 52.2778C12.2581 59.3056 15.5169 64.0417 23.2193 64.0417C30.9218 64.0417 34.625 59.3056 34.625 52.5834C34.625 46.4723 31.3662 41.7362 26.33 41.1251V47.8473ZM34.0325 16.3751L20.5531 24.6251L12.8506 16.2223V24.3195L20.9975 32.5695H5V39.1389H34.0325V32.4167H27.2187L24.4043 29.2084L34.0325 23.7084V16.3751Z" stroke="#FF3535" shape-rendering="crispEdges"/>
</g>
<g filter="url(#filter8_d_39_2537)">
<path d="M70.0271 25.8473C70.0271 27.0695 69.5827 27.8334 68.3977 27.8334C67.3609 27.8334 66.7684 27.0695 66.7684 25.8473V21.7223H72.3971V19.889H66.7684V17.2917H64.2502V26.1528C64.2502 28.2917 65.4352 30.1251 68.3977 30.1251C71.3602 30.1251 72.5452 28.2917 72.5452 26.1528V23.4028H70.0271V25.8473ZM83.0621 29.6667V22.639C83.0621 20.6528 81.5808 19.4306 79.5071 19.4306C78.174 19.4306 76.8409 20.0417 76.3965 20.9584V16.2223H73.7302V29.6667H76.3965V24.014C76.3965 22.639 77.1371 21.5695 78.4702 21.5695C79.6552 21.5695 80.2477 22.0278 80.2477 23.5556V29.6667H83.0621ZM86.9133 23.8612C87.0615 22.4862 87.9502 21.7223 88.9871 21.7223C90.024 21.7223 91.0608 22.4862 91.0608 23.8612H86.9133ZM93.8752 25.389C93.8752 21.4167 92.2458 19.5834 88.9871 19.5834C85.7283 19.5834 83.9508 21.5695 83.9508 24.6251C83.9508 28.139 85.7283 29.9723 89.1352 29.9723C91.3571 29.9723 92.9865 28.9028 93.7271 26.764H90.9127C90.7646 27.3751 89.8758 27.8334 89.1352 27.8334C87.8021 27.8334 86.9133 26.9167 86.7652 25.389H93.8752Z" fill="#FF3535" fill-opacity="0.19" shape-rendering="crispEdges"/>
<path d="M70.0271 25.8473C70.0271 27.0695 69.5827 27.8334 68.3977 27.8334C67.3609 27.8334 66.7684 27.0695 66.7684 25.8473V21.7223H72.3971V19.889H66.7684V17.2917H64.2502V26.1528C64.2502 28.2917 65.4352 30.1251 68.3977 30.1251C71.3602 30.1251 72.5452 28.2917 72.5452 26.1528V23.4028H70.0271V25.8473ZM83.0621 29.6667V22.639C83.0621 20.6528 81.5808 19.4306 79.5071 19.4306C78.174 19.4306 76.8409 20.0417 76.3965 20.9584V16.2223H73.7302V29.6667H76.3965V24.014C76.3965 22.639 77.1371 21.5695 78.4702 21.5695C79.6552 21.5695 80.2477 22.0278 80.2477 23.5556V29.6667H83.0621ZM86.9133 23.8612C87.0615 22.4862 87.9502 21.7223 88.9871 21.7223C90.024 21.7223 91.0608 22.4862 91.0608 23.8612H86.9133ZM93.8752 25.389C93.8752 21.4167 92.2458 19.5834 88.9871 19.5834C85.7283 19.5834 83.9508 21.5695 83.9508 24.6251C83.9508 28.139 85.7283 29.9723 89.1352 29.9723C91.3571 29.9723 92.9865 28.9028 93.7271 26.764H90.9127C90.7646 27.3751 89.8758 27.8334 89.1352 27.8334C87.8021 27.8334 86.9133 26.9167 86.7652 25.389H93.8752Z" stroke="#FF3535" shape-rendering="crispEdges"/>
</g>
<defs>
<filter id="filter0_d_39_2537" x="104.687" y="41.5138" width="33.0331" height="77.2361" filterUnits="userSpaceOnUse" color-interpolation-filters="sRGB">
<feFlood flood-opacity="0" result="BackgroundImageFix"/>
<feColorMatrix in="SourceAlpha" type="matrix" values="0 0 0 0 0 0 0 0 0 0 0 0 0 0 0 0 0 0 127 0" result="hardAlpha"/>
<feOffset/>
<feGaussianBlur stdDeviation="2"/>
<feComposite in2="hardAlpha" operator="out"/>
<feColorMatrix type="matrix" values="0 0 0 0 1 0 0 0 0 0.47451 0 0 0 0 0.47451 0 0 0 0.8 0"/>
<feBlend mode="normal" in2="BackgroundImageFix" result="effect1_dropShadow_39_2537"/>
<feBlend mode="normal" in="SourceGraphic" in2="effect1_dropShadow_39_2537" result="shape"/>
</filter>
<filter id="filter1_d_39_2537" x="116.981" y="3.81946" width="8.29626" height="12.5834" filterUnits="userSpaceOnUse" color-interpolation-filters="sRGB">
<feFlood flood-opacity="0" result="BackgroundImageFix"/>
<feColorMatrix in="SourceAlpha" type="matrix" values="0 0 0 0 0 0 0 0 0 0 0 0 0 0 0 0 0 0 127 0" result="hardAlpha"/>
<feOffset/>
<feGaussianBlur stdDeviation="2"/>
<feComposite in2="hardAlpha" operator="out"/>
<feColorMatrix type="matrix" values="0 0 0 0 0.990446 0 0 0 0 0.990446 0 0 0 0 0.990446 0 0 0 0.8 0"/>
<feBlend mode="normal" in2="BackgroundImageFix" result="effect1_dropShadow_39_2537"/>
<feBlend mode="normal" in="SourceGraphic" in2="effect1_dropShadow_39_2537" result="shape"/>
</filter>
<filter id="filter2_d_39_2537" x="108.093" y="8.40271" width="26.2194" height="41.6111" filterUnits="userSpaceOnUse" color-interpolation-filters="sRGB">
<feFlood flood-opacity="0" result="BackgroundImageFix"/>
<feColorMatrix in="SourceAlpha" type="matrix" values="0 0 0 0 0 0 0 0 0 0 0 0 0 0 0 0 0 0 127 0" result="hardAlpha"/>
<feOffset/>
<feGaussianBlur stdDeviation="2"/>
<feComposite in2="hardAlpha" operator="out"/>
<feColorMatrix type="matrix" values="0 0 0 0 1 0 0 0 0 0.47451 0 0 0 0 0.47451 0 0 0 0.8 0"/>
<feBlend mode="normal" in2="BackgroundImageFix" result="effect1_dropShadow_39_2537"/>
<feBlend mode="normal" in="SourceGraphic" in2="effect1_dropShadow_39_2537" result="shape"/>
</filter>
<filter id="filter3_d_39_2537" x="116.24" y="7.18054" width="9.92566" height="12.5834" filterUnits="userSpaceOnUse" color-interpolation-filters="sRGB">
<feFlood flood-opacity="0" result="BackgroundImageFix"/>
<feColorMatrix in="SourceAlpha" type="matrix" values="0 0 0 0 0 0 0 0 0 0 0 0 0 0 0 0 0 0 127 0" result="hardAlpha"/>
<feOffset/>
<feGaussianBlur stdDeviation="2"/>
<feComposite in2="hardAlpha" operator="out"/>
<feColorMatrix type="matrix" values="0 0 0 0 1 0 0 0 0 0.47451 0 0 0 0 0.47451 0 0 0 0.8 0"/>
<feBlend mode="normal" in2="BackgroundImageFix" result="effect1_dropShadow_39_2537"/>
<feBlend mode="normal" in="SourceGraphic" in2="effect1_dropShadow_39_2537" result="shape"/>
</filter>
<filter id="filter4_d_39_2537" x="116.981" y="0" width="13.925" height="11.8195" filterUnits="userSpaceOnUse" color-interpolation-filters="sRGB">
<feFlood flood-opacity="0" result="BackgroundImageFix"/>
<feColorMatrix in="SourceAlpha" type="matrix" values="0 0 0 0 0 0 0 0 0 0 0 0 0 0 0 0 0 0 127 0" result="hardAlpha"/>
<feOffset/>
<feGaussianBlur stdDeviation="2"/>
<feComposite in2="hardAlpha" operator="out"/>
<feColorMatrix type="matrix" values="0 0 0 0 1 0 0 0 0 0.47451 0 0 0 0 0.47451 0 0 0 0.8 0"/>
<feBlend mode="normal" in2="BackgroundImageFix" result="effect1_dropShadow_39_2537"/>
<feBlend mode="normal" in="SourceGraphic" in2="effect1_dropShadow_39_2537" result="shape"/>
</filter>
<filter id="filter5_d_39_2537" x="35.0604" y="10.7084" width="72.8975" height="108.042" filterUnits="userSpaceOnUse" color-interpolation-filters="sRGB">
<feFlood flood-opacity="0" result="BackgroundImageFix"/>
<feColorMatrix in="SourceAlpha" type="matrix" values="0 0 0 0 0 0 0 0 0 0 0 0 0 0 0 0 0 0 127 0" result="hardAlpha"/>
<feOffset/>
<feGaussianBlur stdDeviation="2"/>
<feComposite in2="hardAlpha" operator="out"/>
<feColorMatrix type="matrix" values="0 0 0 0 1 0 0 0 0 0.47451 0 0 0 0 0.47451 0 0 0 0.8 0"/>
<feBlend mode="normal" in2="BackgroundImageFix" result="effect1_dropShadow_39_2537"/>
<feBlend mode="normal" in="SourceGraphic" in2="effect1_dropShadow_39_2537" result="shape"/>
</filter>
<filter id="filter6_d_39_2537" x="134.303" y="10.7084" width="54.2336" height="108.042" filterUnits="userSpaceOnUse" color-interpolation-filters="sRGB">
<feFlood flood-opacity="0" result="BackgroundImageFix"/>
<feColorMatrix in="SourceAlpha" type="matrix" values="0 0 0 0 0 0 0 0 0 0 0 0 0 0 0 0 0 0 127 0" result="hardAlpha"/>
<feOffset/>
<feGaussianBlur stdDeviation="2"/>
<feComposite in2="hardAlpha" operator="out"/>
<feColorMatrix type="matrix" values="0 0 0 0 1 0 0 0 0 0.47451 0 0 0 0 0.47451 0 0 0 0.8 0"/>
<feBlend mode="normal" in2="BackgroundImageFix" result="effect1_dropShadow_39_2537"/>
<feBlend mode="normal" in="SourceGraphic" in2="effect1_dropShadow_39_2537" result="shape"/>
</filter>
<filter id="filter7_d_39_2537" x="0.5" y="10.9369" width="38.625" height="107.563" filterUnits="userSpaceOnUse" color-interpolation-filters="sRGB">
<feFlood flood-opacity="0" result="BackgroundImageFix"/>
<feColorMatrix in="SourceAlpha" type="matrix" values="0 0 0 0 0 0 0 0 0 0 0 0 0 0 0 0 0 0 127 0" result="hardAlpha"/>
<feOffset/>
<feGaussianBlur stdDeviation="2"/>
<feComposite in2="hardAlpha" operator="out"/>
<feColorMatrix type="matrix" values="0 0 0 0 1 0 0 0 0 0.47451 0 0 0 0 0.47451 0 0 0 0.8 0"/>
<feBlend mode="normal" in2="BackgroundImageFix" result="effect1_dropShadow_39_2537"/>
<feBlend mode="normal" in="SourceGraphic" in2="effect1_dropShadow_39_2537" result="shape"/>
</filter>
<filter id="filter8_d_39_2537" x="59.7502" y="11.7223" width="38.6791" height="22.9028" filterUnits="userSpaceOnUse" color-interpolation-filters="sRGB">
<feFlood flood-opacity="0" result="BackgroundImageFix"/>
<feColorMatrix in="SourceAlpha" type="matrix" values="0 0 0 0 0 0 0 0 0 0 0 0 0 0 0 0 0 0 127 0" result="hardAlpha"/>
<feOffset/>
<feGaussianBlur stdDeviation="2"/>
<feComposite in2="hardAlpha" operator="out"/>
<feColorMatrix type="matrix" values="0 0 0 0 1 0 0 0 0 0.47451 0 0 0 0 0.47451 0 0 0 0.8 0"/>
<feBlend mode="normal" in2="BackgroundImageFix" result="effect1_dropShadow_39_2537"/>
<feBlend mode="normal" in="SourceGraphic" in2="effect1_dropShadow_39_2537" result="shape"/>
</filter>
</defs>
</svg>
