<svg width="159" height="62" viewBox="0 0 159 62" fill="none" xmlns="http://www.w3.org/2000/svg">
<path d="M142.388 59.8334C141.674 59.963 141.033 60.2067 140.322 60.2812C136.047 60.8933 131.641 61.0019 127.232 61.1654C124.634 61.255 122.036 61.3445 119.435 61.4891C118.884 61.5164 118.4 61.768 117.921 61.9095C117.843 61.9055 117.767 61.8464 117.691 61.7873C116.91 61.6926 116.132 61.5429 115.351 61.4482C115.121 61.3262 114.889 61.2591 114.659 61.1371C113.24 61.231 111.815 61.4351 110.326 61.3598C103.033 61.0463 95.6734 60.5085 88.5009 59.3727C81.4852 58.2449 74.5729 56.6254 68.0916 54.2546C61.1456 51.7499 54.9467 48.4545 49.6519 44.3766C47.6107 42.7825 45.8103 41.0902 44.091 39.3467C42.7469 37.9535 41.4029 36.5603 40.459 35.0216C38.493 31.9404 36.5269 28.8591 34.9584 25.6875C33.6784 23.0275 32.9555 20.23 32.073 17.4797C32.0085 17.2003 32.1036 16.8739 32.1203 16.5434C32.1704 15.552 31.9853 14.5487 32.1138 13.5612C32.1667 12.5148 32.2281 11.303 32.8997 10.4535C34.0695 9.07692 32.6614 8.95046 31.4995 8.61562C31.4211 8.61165 31.3455 8.55267 31.1915 8.48966C30.9563 8.47777 30.7997 8.4699 30.5617 8.51309C30.3266 8.5012 30.1697 8.49327 29.9345 8.48138C29.5426 8.46156 29.0722 8.43773 28.6831 8.36283C28.5263 8.3549 28.4508 8.29593 28.2968 8.23292C26.5807 7.98049 24.8618 7.78304 23.1457 7.53061C20.1782 7.15969 17.1323 6.78483 14.1648 6.41391C14.1648 6.41391 14.0863 6.40994 14.0079 6.40597C10.8418 6.8533 7.5748 6.1911 4.48157 6.75254C3.76774 6.8821 2.97277 7.06276 2.01822 7.29059L0.0624632 0.89682C2.79202 1.31093 5.60274 1.67384 8.3323 2.08795C10.5159 2.41924 12.7024 2.69554 14.9645 3.03079C16.6022 3.27926 18.4918 3.20918 19.8749 3.83131C21.0284 4.33138 21.7535 3.9814 22.6941 4.02896C22.7725 4.03292 22.9263 4.09603 23.0019 4.15507C23.7018 4.3009 24.4018 4.4466 25.0205 4.64354C25.3341 4.6594 25.6476 4.67525 25.9611 4.6911C29.5167 5.86483 33.3521 6.16929 37 7.07159C37.8539 7.28042 38.6264 7.54028 39.4775 7.80419C39.6343 7.81212 39.7128 7.81614 39.8668 7.87915C41.6502 8.35585 43.4364 8.77755 45.2197 9.25425C45.2981 9.25822 45.3737 9.3172 45.4493 9.37624C45.4493 9.37624 45.4549 9.26609 45.4577 9.21101C45.1553 8.97485 44.8557 8.68358 44.5533 8.44741C44.3237 8.32536 44.094 8.20332 43.9428 8.08524C43.408 7.78211 42.8733 7.47901 42.3385 7.17587C42.1089 7.05383 41.8792 6.93179 41.728 6.8137C41.1932 6.51057 40.737 6.21133 39.9727 5.78615C42.6935 4.81934 45.0363 3.55731 48.239 3.94012C48.2418 3.88505 48.3228 3.83405 48.4068 3.72786C49.4759 2.78797 51.0408 2.92224 52.5301 2.99755C52.7652 3.00944 53.0005 3.02134 53.1573 3.02926C54.2631 2.91952 55.2932 2.7508 56.3934 2.75121C59.6967 2.69736 62.9888 2.86381 66.2614 3.41583C70.7015 4.19252 74.8815 5.45303 78.8907 6.981C87.833 10.415 95.2947 15.1545 101.698 20.6136C106.823 24.9589 111.457 29.6661 115.935 34.3652C121.157 39.8751 126.542 45.2827 133.625 49.7271C138.959 53.0338 144.794 55.7585 151.645 57.0436C153.512 57.4141 155.55 57.5171 157.501 57.7814C157.815 57.7973 158.12 57.9783 158.417 58.3247L143.782 60.2352C143.782 60.2352 143.085 60.0343 142.774 59.9633L142.388 59.8334ZM47.0002 9.78596C47.0002 9.78596 47.0787 9.78993 47.1571 9.79389C47.1571 9.79389 47.0785 9.78987 47.0029 9.73082C47.0029 9.73082 46.9246 9.72687 46.8463 9.7229C46.8463 9.7229 46.9246 9.72686 47.0029 9.73082L47.0002 9.78596Z" fill="#DD484D"/>
</svg>
