<svg width="169" height="139" viewBox="0 0 169 139" fill="none" xmlns="http://www.w3.org/2000/svg">
<path d="M148.467 133.829C147.544 133.676 146.659 133.693 145.764 133.474C140.306 132.359 134.908 130.574 129.482 128.855C126.288 127.834 123.094 126.813 119.873 125.858C119.192 125.651 118.494 125.746 117.851 125.71C117.758 125.671 117.692 125.566 117.626 125.462C116.718 125.007 115.838 124.487 114.931 124.032C114.705 123.784 114.452 123.602 114.226 123.354C112.462 122.85 110.643 122.479 108.867 121.74C100.146 118.187 91.4422 114.334 83.2256 109.835C75.1959 105.414 67.5057 100.442 60.6655 94.7439C53.3192 88.6813 47.2242 81.9835 42.5674 74.7286C40.7817 71.905 39.3312 69.0668 38.0014 66.2018C36.9749 63.9253 35.9486 61.6488 35.4715 59.3698C34.4238 54.7728 33.3762 50.1758 32.8505 45.642C32.4528 41.8549 32.7915 38.1432 32.9157 34.4192C32.9589 34.0519 33.2164 33.6969 33.3804 33.3028C33.8724 32.1206 34.0839 30.8216 34.6693 29.6783C35.1887 28.4304 35.7902 26.9855 36.9754 26.2459C38.9946 25.0829 37.3395 24.3169 36.0741 23.405C35.9806 23.3661 35.9144 23.2615 35.7548 23.1181C35.4744 23.0014 35.2875 22.9237 34.9798 22.8727C34.6994 22.7559 34.5123 22.6781 34.2319 22.5614C33.7645 22.3669 33.2037 22.1334 32.7637 21.8732C32.5767 21.7954 32.5107 21.6909 32.3511 21.5474C30.3767 20.4946 28.3751 19.5073 26.4007 18.4544C22.9582 16.7134 19.4222 14.9336 15.9797 13.1927C15.9797 13.1927 15.886 13.1537 15.7925 13.1148C11.753 12.2812 8.07338 10.0562 4.07268 9.39285C3.14944 9.23978 2.10543 9.11345 0.847116 8.97502L1.25248 0.359665C4.38728 2.04961 7.6429 3.71266 10.7777 5.4026C13.2855 6.75455 15.8207 8.04096 18.422 9.43181C20.3029 10.4458 22.6282 11.1824 24.0373 12.5394C25.2207 13.6484 26.2535 13.5387 27.3752 14.0055C27.4686 14.0444 27.628 14.1879 27.6941 14.2925C28.4807 14.774 29.2674 15.2553 29.9332 15.7636C30.307 15.9192 30.6809 16.0748 31.0548 16.2304C34.8624 19.202 39.3878 21.2397 43.4256 23.9219C44.3718 24.5469 45.197 25.1984 46.1158 25.889C46.3027 25.9668 46.3964 26.0059 46.556 26.1494C48.5145 27.5038 50.5003 28.7927 52.4587 30.1472C52.5522 30.1861 52.6184 30.2906 52.6845 30.3952C52.6845 30.3952 52.7392 30.2638 52.7665 30.1982C52.502 29.7798 52.2648 29.2958 52.0003 28.8775C51.7745 28.6295 51.5486 28.3814 51.4163 28.1722C50.8987 27.5715 50.3812 26.9709 49.8635 26.3702C49.6378 26.1221 49.4119 25.874 49.2796 25.6648C48.762 25.0641 48.3381 24.5023 47.5947 23.6536C51.3194 23.6627 54.7135 23.1489 58.4364 25.0065C58.4638 24.9409 58.5844 24.9142 58.7325 24.8217C60.4397 24.1452 62.2817 24.9888 64.0576 25.7279C64.338 25.8446 64.6186 25.9614 64.8056 26.0392C66.1961 26.3868 67.5206 26.6299 68.8565 27.1089C72.8916 28.48 76.8172 30.1138 80.5516 32.2074C85.6061 35.0816 90.1342 38.4301 94.3386 42.0293C103.705 50.0885 110.706 59.0892 116.109 68.5039C120.442 76.0093 124.023 83.7413 127.417 91.3953C131.363 100.358 135.551 109.267 142.221 117.745C147.261 124.08 153.162 129.927 160.923 134.466C163.029 135.728 165.459 136.74 167.714 137.909C168.088 138.065 168.38 138.418 168.59 138.967L149.986 134.923C149.986 134.923 149.226 134.376 148.88 134.155L148.467 133.829ZM54.3897 31.5672C54.3897 31.5672 54.4834 31.6062 54.5769 31.6451C54.5769 31.6451 54.4832 31.606 54.4171 31.5015C54.4171 31.5015 54.3237 31.4626 54.2303 31.4237C54.2303 31.4237 54.3236 31.4626 54.4171 31.5015L54.3897 31.5672Z" fill="#DD484D"/>
</svg>
