<svg width="93" height="37" viewBox="0 0 93 37" fill="none" xmlns="http://www.w3.org/2000/svg">
<path d="M3.6196 5.79517L0 0C0 0 0.556909 0.000127177 0.649716 0.130354C1.48498 0.716372 2.22705 1.36743 3.15511 1.88834C6.31055 3.84173 10.2085 4.9487 14.1991 5.59984C19.5819 6.51142 25.0577 6.51139 30.6261 6.38116C35.3593 6.25094 40.0926 6.25086 44.733 6.51132C50.5798 6.83688 56.3334 7.7486 61.7162 9.702C64.1292 10.5485 66.3568 11.5902 68.3986 12.8925C69.8835 13.8692 71.0896 14.9109 72.1105 16.083C72.4817 16.4736 72.6677 16.9294 73.0389 17.3201C73.0389 17.3852 73.2242 17.4503 73.317 17.5155C73.8739 18.0364 74.431 18.4922 74.1526 19.2085C74.1526 19.2085 74.1526 19.2735 74.1526 19.3386C75.5447 20.3153 75.4516 21.6177 75.6372 22.92C75.0804 22.7897 74.7096 22.7246 74.3383 22.6595C74.1527 22.6595 74.0595 22.5944 73.8739 22.5293C73.5026 22.4642 73.1315 22.399 72.7602 22.2688C72.5746 22.2688 72.4819 22.2036 72.2963 22.1384C72.0179 22.1384 71.7398 22.1384 71.4614 22.1384C71.4614 22.1384 71.4613 22.1384 71.3685 22.1384C71.3685 22.1384 71.4609 22.1384 71.5537 22.1384C72.4818 22.5942 73.3174 23.0502 74.2455 23.506C74.2455 23.506 74.3379 23.5058 74.4307 23.5709C74.8947 23.7663 75.3589 23.9618 75.7301 24.1571C77.4934 25.1338 79.0712 26.371 81.0202 27.2175C81.113 27.3477 81.2061 27.4127 81.2989 27.5429C81.6701 27.7383 81.9484 27.9335 82.3196 28.0638C82.3196 28.0638 82.4126 28.0638 82.5054 28.0638C82.8766 28.3893 82.8766 28.7801 83.619 28.9754C84.4543 29.2359 85.1038 29.887 85.7534 30.4079C86.6815 31.0591 87.6095 31.7102 88.6304 32.4264C89.8369 33.2729 91.0435 34.1194 92.25 34.9008L87.2381 36.4634C87.0525 36.0727 86.9598 35.7471 86.7741 35.4216C86.1245 34.1193 84.5467 33.2077 83.8043 31.9706C82.505 31.059 81.2987 30.1475 79.9994 29.2359C79.257 28.715 78.5146 28.194 77.7722 27.6731C77.7722 27.6731 77.6792 27.6732 77.5864 27.6081C77.4007 27.4779 77.2152 27.3477 77.0295 27.2175C77.0295 27.1523 76.8437 27.087 76.7509 27.0219C76.7509 26.9568 76.6584 26.8918 76.5656 26.7616C76.5656 26.7616 76.4726 26.7616 76.3798 26.7616C75.7302 26.5012 75.1733 26.0453 74.6165 26.8918C74.2452 27.4127 73.4099 27.8033 72.7602 28.2591C72.1106 28.6498 71.3684 28.9754 70.7188 29.3009C70.5331 29.4312 70.3475 29.5615 70.069 29.6266C67.8417 30.2777 65.7069 30.9938 63.4795 31.5147C60.7881 32.1008 58.0039 32.4916 55.3125 32.8823C53.9204 33.0776 52.5287 33.1426 51.1366 33.1426C49.3733 33.1426 47.6099 33.1426 45.8466 32.9472C41.2991 32.4915 36.937 31.5148 32.9463 29.9521C29.1412 28.5196 25.7075 26.6964 22.6449 24.6128C19.4895 22.464 16.6125 20.1201 14.0139 17.6458C13.4571 17.19 13.1785 16.604 12.7145 16.018C12.5289 16.018 12.4362 15.9527 12.2506 15.8876C11.8793 15.6272 11.6005 15.4319 11.2293 15.1715C11.2293 15.1715 11.1368 15.1715 11.044 15.1715C11.044 14.911 11.0438 14.7156 10.7653 14.5203C10.0229 13.5436 9.18754 12.632 8.35227 11.6553C6.96017 10.0926 5.56832 8.46477 4.54744 6.77183C4.36183 6.51137 4.26923 6.18571 4.17642 5.86015C3.99081 5.79503 3.80522 5.66495 3.6196 5.59984V5.79517ZM70.3472 21.9431C70.3472 21.9431 70.3476 21.9431 70.2548 21.9431C70.2548 21.9431 70.2543 21.9431 70.3472 21.9431Z" fill="#C12127"/>
</svg>
