<svg width="140" height="82" viewBox="0 0 140 82" fill="none" xmlns="http://www.w3.org/2000/svg">
<path d="M134.825 71.4102L139.122 81.6011C139.122 81.6011 138.232 81.4579 138.117 81.2259C136.933 80.0749 135.914 78.8439 134.565 77.7732C130.023 73.8412 124.078 71.0713 117.867 69.0061C109.499 66.1673 100.748 64.7614 91.815 63.5399C84.2173 62.5328 76.6527 61.3177 69.3035 59.7101C60.043 57.6886 51.0819 54.7543 42.9808 50.2505C39.3418 48.2782 36.0492 46.0414 33.1205 43.436C30.9981 41.4938 29.338 39.5193 28.0074 37.3841C27.5144 36.6644 27.3342 35.8882 26.8413 35.1685C26.858 35.0644 26.5785 34.9128 26.4469 34.7849C25.6907 33.8095 24.9175 32.9379 25.5463 31.8647C25.5463 31.8647 25.563 31.7608 25.5797 31.6567C23.6057 29.7384 24.0888 27.6809 24.1265 25.552C24.983 25.9031 25.5588 26.1024 26.1354 26.3018C26.432 26.3495 26.5644 26.4774 26.8443 26.6291C27.4209 26.8284 27.9973 27.0279 28.5572 27.3313C28.8538 27.379 28.9852 27.507 29.2651 27.6588C29.7101 27.7302 30.1546 27.8016 30.5995 27.8731C30.5995 27.8731 30.5997 27.8731 30.748 27.897C30.748 27.897 30.6003 27.8732 30.4519 27.8494C29.0858 26.8827 27.8674 25.9395 26.5012 24.9728C26.5012 24.9728 26.3535 24.9493 26.2219 24.8214C25.5304 24.3901 24.8388 23.9585 24.2957 23.551C21.7283 21.5373 19.5244 19.1551 16.627 17.3019C16.5122 17.0699 16.3801 16.9421 16.2652 16.7102C15.7221 16.3027 15.3275 15.9192 14.7676 15.6157C14.7676 15.6157 14.619 15.5919 14.4707 15.568C13.961 14.9524 14.0614 14.3279 12.925 13.8251C11.657 13.1944 10.7862 11.9871 9.88173 10.9878C8.56569 9.70888 7.24971 8.43003 5.80207 7.02325C4.09124 5.3607 2.38021 3.69806 0.652657 2.13957L9.0637 0.928991C9.26004 1.60101 9.32459 2.14516 9.53764 2.71312C10.2415 4.96113 12.529 6.82306 13.398 8.99084C15.2404 10.7813 16.9341 12.5476 18.7766 14.3381C19.8294 15.3612 20.882 16.3845 21.9349 17.4076C21.9349 17.4076 22.0835 17.4313 22.2151 17.5592C22.4783 17.8149 22.7415 18.0707 23.0047 18.3265C22.988 18.4305 23.2683 18.5826 23.3999 18.7105C23.3832 18.8146 23.5142 18.9421 23.6291 19.1741C23.6291 19.1741 23.7777 19.1979 23.926 19.2218C24.8974 19.8048 25.6703 20.6763 26.7775 19.4665C27.5045 18.7293 28.9399 18.3195 30.0952 17.7579C31.2337 17.3003 32.5034 16.9705 33.6252 16.617C33.9553 16.4565 34.2855 16.2959 34.7472 16.2633C38.4741 15.7946 42.0696 15.1982 45.763 14.9376C50.2147 14.692 54.7648 14.7823 59.1663 14.8489C61.4413 14.8941 63.682 15.1476 65.9068 15.505C68.7249 15.9577 71.5431 16.4105 74.311 17.1754C81.4617 19.0714 88.1822 21.7521 94.1587 25.2742C99.8721 28.5404 104.892 32.3358 109.251 36.4521C113.742 40.6962 117.738 45.1808 121.256 49.8023C122.029 50.6737 122.324 51.6818 122.915 52.7375C123.211 52.7851 123.343 52.9132 123.623 53.0649C124.149 53.5765 124.545 53.9601 125.071 54.4716C125.071 54.4716 125.219 54.4954 125.367 54.5192C125.3 54.9354 125.251 55.2477 125.645 55.6314C126.581 57.3829 127.682 59.0543 128.766 60.8297C130.59 63.6845 132.396 66.6434 133.593 69.6111C133.823 70.075 133.887 70.6192 133.952 71.1634C134.232 71.3151 134.495 71.5706 134.775 71.7223L134.825 71.4102ZM32.33 28.4714C32.33 28.4714 32.3293 28.4712 32.4776 28.4951C32.4776 28.4951 32.4784 28.4952 32.33 28.4714Z" fill="#C12127"/>
</svg>
