<svg width="187" height="113" viewBox="0 0 187 113" fill="none" xmlns="http://www.w3.org/2000/svg">
<path d="M165.828 110.622C164.892 110.607 164.02 110.754 163.102 110.67C157.539 110.371 151.937 109.403 146.317 108.503C143.008 107.964 139.698 107.425 136.371 106.955C135.667 106.851 134.991 107.048 134.35 107.107C134.251 107.082 134.171 106.988 134.09 106.895C133.125 106.579 132.178 106.194 131.213 105.878C130.954 105.666 130.676 105.523 130.417 105.311C128.597 105.073 126.743 104.974 124.878 104.505C115.729 102.277 106.552 99.749 97.7616 96.5114C89.1678 93.3231 80.8284 89.5387 73.2228 84.9119C65.0628 79.9989 58.0467 74.2731 52.371 67.7842C50.1884 65.2547 48.3352 62.6615 46.5975 60.0238C45.2466 57.9236 43.8958 55.8234 43.0878 53.6396C41.3738 49.2474 39.6596 44.8551 38.4712 40.4483C37.5194 36.7613 37.307 33.0403 36.8808 29.3387C36.8694 28.9691 37.0716 28.5799 37.1757 28.166C37.488 26.9241 37.5056 25.6081 37.9161 24.391C38.2458 23.0802 38.6277 21.5624 39.6908 20.656C41.5165 19.208 39.7665 18.6945 38.3805 17.9791C38.2823 17.9544 38.2013 17.8608 38.0223 17.7424C37.7278 17.6683 37.5315 17.6191 37.2196 17.614C36.925 17.5399 36.7285 17.4905 36.4339 17.4164C35.943 17.2929 35.3539 17.1447 34.8803 16.9522C34.6839 16.9028 34.6032 16.8093 34.4242 16.6909C32.3162 15.9407 30.1908 15.2593 28.0828 14.5091C24.4211 13.2948 20.6614 12.0559 16.9997 10.8416C16.9997 10.8416 16.9014 10.8168 16.8032 10.7921C12.6849 10.5633 8.71739 8.90529 4.66261 8.83915C3.72689 8.82388 2.67567 8.85289 1.4107 8.90153L0.541196 0.32058C3.89092 1.52979 7.35619 2.69458 10.7059 3.90378C13.3857 4.87115 16.0829 5.76965 18.8608 6.7617C20.8707 7.48723 23.2792 7.87294 24.873 9.00732C26.207 9.92964 27.2123 9.66883 28.3905 9.96515C28.4887 9.98984 28.6675 10.1083 28.7483 10.202C29.5973 10.5622 30.4464 10.9223 31.1798 11.3268C31.5726 11.4256 31.9652 11.5243 32.358 11.6231C36.5622 14.0008 41.3387 15.3489 45.7278 17.4063C46.7558 17.8849 47.668 18.4077 48.6787 18.9553C48.875 19.0046 48.9734 19.0294 49.1524 19.1478C51.2892 20.1987 53.4434 21.1807 55.5802 22.2315C55.6784 22.2562 55.7592 22.3498 55.84 22.4435C55.84 22.4435 55.8747 22.3055 55.8921 22.2366C55.5687 21.8618 55.2628 21.4181 54.9395 21.0433C54.6796 20.8313 54.4196 20.6192 54.2579 20.4318C53.6574 19.914 53.0569 19.3963 52.4564 18.8785C52.1965 18.6664 51.9365 18.4543 51.7748 18.267C51.1743 17.7492 50.6721 17.256 49.8117 16.5261C53.4971 15.9859 56.7783 14.9772 60.7345 16.2656C60.7518 16.1966 60.8672 16.1524 61.0001 16.0391C62.5888 15.1183 64.5351 15.681 66.4006 16.1502C66.6951 16.2243 66.9899 16.2984 67.1862 16.3478C68.6129 16.4865 69.9587 16.5317 71.3507 16.8084C75.5438 17.5695 79.6674 18.6065 83.6697 20.1266C89.0928 22.224 94.0652 24.8682 98.7544 27.808C109.207 34.3979 117.458 42.2679 124.19 50.783C129.583 57.5674 134.265 64.6868 138.751 71.7566C143.976 80.0392 149.431 88.2331 157.278 95.6349C163.197 101.158 169.896 106.07 178.241 109.416C180.511 110.354 183.064 110.996 185.466 111.82C185.859 111.919 186.2 112.224 186.488 112.737L167.491 111.48C167.491 111.48 166.66 111.051 166.284 110.883L165.828 110.622ZM57.6995 23.3513C57.6995 23.3513 57.7978 23.376 57.896 23.4007C57.896 23.4007 57.7977 23.3759 57.7168 23.2822C57.7168 23.2822 57.6187 23.2575 57.5206 23.2328C57.5206 23.2328 57.6186 23.2575 57.7168 23.2822L57.6995 23.3513Z" fill="#DD484D"/>
</svg>
