<svg width="138" height="43" viewBox="0 0 138 43" fill="none" xmlns="http://www.w3.org/2000/svg">
<path d="M126.51 16.1329C126.065 16.523 125.72 16.9719 125.253 17.3182C122.513 19.527 119.46 21.3991 116.43 23.315C114.642 24.4385 112.853 25.562 111.087 26.7293C110.711 26.9743 110.48 27.3657 110.205 27.6695C110.148 27.6983 110.069 27.6831 109.99 27.668C109.399 27.9116 108.786 28.1115 108.195 28.355C107.98 28.3536 107.787 28.396 107.573 28.3945C106.615 29.0432 105.702 29.7795 104.621 30.3255C99.3534 33.0418 93.9402 35.6116 88.3973 37.642C82.9682 39.6149 77.3968 41.1649 71.8 41.9579C65.8176 42.8357 60.0151 42.7976 54.5064 41.7865C52.3731 41.3796 50.3662 40.7989 48.394 40.1456C46.839 39.6115 45.2841 39.0773 43.9471 38.2681C41.2162 36.6784 38.4853 35.0887 35.9946 33.2677C33.9305 31.726 32.1984 29.8518 30.3745 28.0788C30.207 27.8885 30.1311 27.597 29.9984 27.3342C29.6 26.5456 29.0309 25.8433 28.6894 25.0261C28.2689 24.1937 27.7821 23.2299 27.883 22.2991C28.104 20.7578 27.0579 21.2312 26.0941 21.4433C26.0372 21.472 25.9582 21.457 25.8223 21.4707C25.6516 21.5569 25.538 21.6143 25.3894 21.7444C25.2188 21.8306 25.1049 21.8881 24.9343 21.9743C24.6499 22.118 24.3086 22.2904 24.002 22.3902C23.8883 22.4477 23.8094 22.4326 23.6735 22.4463C22.3557 22.9471 21.06 23.4916 19.7422 23.9924C17.4922 24.9091 15.1854 25.8546 12.9354 26.7713C12.9354 26.7713 12.8784 26.8001 12.8215 26.8289C10.7898 28.4602 8.20161 29.2728 6.27097 30.963C5.82543 31.353 5.34515 31.8156 4.77324 32.3794L0.600736 28.2189C2.70222 27.4322 4.8384 26.5728 6.93989 25.7861C8.62107 25.1567 10.2802 24.4836 12.0183 23.8255C13.2792 23.3534 14.5779 22.5324 15.8231 22.4532C16.8534 22.3726 17.2104 21.8072 17.893 21.4624C17.9499 21.4336 18.0857 21.4201 18.1647 21.4352C18.7209 21.2642 19.2771 21.093 19.7985 20.9946C20.026 20.8796 20.2535 20.7647 20.4811 20.6497C23.4959 20.1164 26.3275 18.796 29.2886 18.0149C29.9806 17.8302 30.6378 17.7181 31.352 17.5772C31.4658 17.5197 31.5228 17.491 31.6587 17.4773C33.1219 17.1231 34.563 16.725 36.0261 16.3707C36.083 16.342 36.162 16.357 36.241 16.3721C36.241 16.3721 36.1967 16.2845 36.1746 16.2407C35.8586 16.1804 35.5204 16.0763 35.2044 16.016C34.9894 16.0146 34.7744 16.0132 34.6164 15.9831C34.1076 15.9652 33.5988 15.9473 33.09 15.9294C32.8751 15.928 32.6601 15.9267 32.5021 15.8966C31.9933 15.8787 31.5414 15.8319 30.8177 15.8127C32.309 13.9595 33.4053 12.0309 35.826 11.028C35.8038 10.9842 35.8386 10.9118 35.8512 10.7954C36.1923 9.63332 37.3519 9.10238 38.4327 8.55639C38.6033 8.47019 38.774 8.38393 38.8878 8.32646C39.6177 7.79273 40.2687 7.24398 41.0429 6.79787C43.3434 5.41573 45.7323 4.20887 48.2762 3.30861C51.7397 2.10872 55.2318 1.38929 58.7207 0.946379C66.514 -0.0214312 73.8365 0.623116 80.7296 2.25459C86.2352 3.54224 91.5546 5.30897 96.7601 7.13316C102.844 9.28329 108.998 11.2884 115.925 11.8576C121.124 12.2555 126.421 11.999 131.803 10.2149C133.279 9.7443 134.757 8.99711 136.246 8.41013C136.473 8.29518 136.767 8.31166 137.128 8.45956L127.667 15.8785C127.667 15.8785 127.088 16.0057 126.839 16.0768L126.51 16.1329ZM37.5113 16.0603C37.5113 16.0603 37.5683 16.0315 37.6252 16.0027C37.6252 16.0027 37.5682 16.0315 37.4891 16.0164C37.4891 16.0164 37.4323 16.0451 37.3754 16.0738C37.3754 16.0738 37.4323 16.0451 37.4891 16.0164L37.5113 16.0603Z" fill="#EA885F"/>
</svg>
