<svg width="1600" height="400" viewBox="0 0 1600 400" fill="none" xmlns="http://www.w3.org/2000/svg">
<g clip-path="url(#clip0_42_3)">
<rect width="1600" height="400" fill="white"/>
<path d="M1600 0H-1V400H1600V0Z" fill="url(#paint0_linear_42_3)"/>
<path opacity="0.14" d="M417 282.585C448.489 182.883 548.914 117.768 655.494 140.553C753.704 161.531 818.897 240.895 818.653 334.377L568.312 422.366L417 282.607V282.585Z" fill="#DD484D"/>
<path opacity="0.25" d="M443.617 289.93L600.576 409.462L783.134 348.692V333.781C783.222 257.262 729.456 192.235 648.563 174.942C560.761 156.171 469.437 208.338 443.617 289.93Z" fill="#EA885E"/>
<path d="M479.914 308.481C499.91 245.13 570.218 204.5 637.736 218.925C699.939 232.226 741.194 282.607 741.017 341.987L600.6 383.037L479.914 308.459V308.481Z" fill="#F6BF6F"/>
<path d="M521.7 326.326C536.382 277.975 583.173 250.711 628.746 260.461C670.731 269.438 697.88 306.871 696.706 351.869L599.493 388.419L521.7 326.348V326.326Z" fill="#F8CC8D"/>
<path d="M1030 125C1032.37 124.906 1036.87 122.555 1045 126.278C1053.13 130 1053.13 136.545 1053.13 136.545C1053.45 136.681 1053.87 136.653 1054.26 136.627L1054.29 136.625C1058.43 136.324 1062.75 136.545 1066.48 137.682C1070.21 138.819 1073.24 140.966 1073.87 143.481C1074.35 145.421 1073.43 147.368 1072.53 149.247C1072.17 149.997 1071.79 150.766 1070.96 151.361C1070.21 151.896 1069.18 152.244 1068.14 152.552C1059.61 155.094 1056.77 154.86 1040.4 155L878.211 153.742C870.784 152.324 867.609 149.676 869 145C870.39 140.324 872.428 133.2 878.211 129C888.15 121.783 898.692 122.214 909.638 128.103C915.365 123.146 920.086 119.173 929.5 117.246C934.245 116.281 941.5 115.5 946.652 117.246C950.35 118.5 948 119 952.766 114.424C963.914 106.046 974.935 98.33 988.584 102.671C993.208 104.143 1001.27 108.893 1003.68 111.715C1009.74 108.277 1020 108.09 1026.38 111.307C1032.76 114.525 1034.39 120.726 1030 125Z" fill="white"/>
<path d="M851.878 58.6119C853.462 58.9759 855.167 58.1267 856.141 56.8193C857.115 55.5119 857.44 53.8001 857.399 52.1692C857.332 48.5166 855.518 44.9448 852.623 42.7343C849.727 40.5238 845.803 39.7286 842.285 40.6316C841.919 40.726 841.527 40.8338 841.162 40.7664C840.39 40.6047 840.025 39.7286 839.7 39.0007C838.496 36.3455 836.06 34.2968 833.246 33.5689C830.431 32.8411 827.306 33.4476 824.978 35.1863C824.518 35.5233 823.936 35.9276 823.436 35.6581C823.219 35.5368 823.084 35.3346 822.949 35.1324C820.824 31.9919 817.022 30.3475 813.287 29.8219C810.622 29.4445 807.767 29.5928 805.466 30.9945C802.462 32.8276 801.015 36.3724 798.85 39.149C798.66 39.3916 798.471 39.6208 798.2 39.7555C797.821 39.9442 797.375 39.8768 796.955 39.8229C791.272 39.1894 785.467 43.3947 784.263 49.0153C782.639 48.4626 780.921 48.0313 779.216 48.1661C777.511 48.3009 775.779 49.1231 774.872 50.5922C773.776 52.3714 774.155 54.8245 775.508 56.415C776.861 58.0054 779.013 58.7602 781.083 58.7198L851.906 58.6389L851.878 58.6119Z" fill="white"/>
<path d="M510.874 139.747C512.822 140.151 514.811 140.394 516.8 140.461C518.654 140.529 520.711 140.354 522.023 139.033C523.674 137.361 523.39 134.45 522.01 132.536C520.63 130.622 518.451 129.49 516.354 128.452C516.124 125.083 513.891 121.929 510.806 120.608C507.721 119.287 503.905 119.853 501.334 122.023C499.629 118.99 496.937 116.443 493.635 115.378C490.333 114.313 486.436 114.947 483.933 117.346C480.564 114.178 475.923 112.211 471.335 112.696C466.748 113.181 462.378 116.375 461.106 120.823C458.873 119.327 455.815 119.422 453.42 120.648C451.025 121.875 449.239 124.072 448.048 126.484C447.886 126.808 447.71 127.158 447.385 127.333C446.952 127.563 446.424 127.36 445.964 127.172C442.554 125.797 438.468 125.568 435.329 127.495C432.19 129.423 430.552 133.897 432.46 137.038C433.543 138.817 435.518 139.909 437.548 140.367C439.578 140.825 441.688 140.731 443.772 140.637L510.874 139.72V139.747Z" fill="white"/>
<path d="M274.471 18C277.969 17.7183 280.778 13.0897 280.985 8.28678C281.192 3.48383 279.221 -1.14471 276.472 -4.13649C273.722 -7.12826 270.283 -8.65769 266.843 -9.61023C263.847 -10.442 260.566 -10.8043 257.915 -8.72477C257.353 -11.1262 258.526 -13.6216 258.565 -16.1438C258.615 -18.9076 257.245 -21.4298 255.51 -22.8385C253.776 -24.2471 251.736 -24.7033 249.725 -24.9448C246.059 -25.3741 242.364 -25.146 238.747 -24.2471C240.393 -28.6744 237.84 -33.9469 234.864 -36.7777C231.681 -39.7963 227.749 -41.5002 223.916 -40.8696C220.082 -40.2257 216.406 -37.0326 214.76 -32.2297C210.769 -35.302 205.595 -35.2751 201.624 -32.1358C200.658 -31.3711 199.643 -30.4051 198.549 -30.6466C198.017 -30.7539 197.544 -31.143 197.071 -31.4784C190.163 -36.4423 180.593 -32.4443 176.878 -23.0263C176.119 -21.1078 175.479 -18.8673 174.07 -17.8611C173.173 -17.2305 172.128 -17.2171 171.123 -17.0696C165.851 -16.2646 161.15 -10.6433 159.839 -3.59984C155.04 -3.62667 150.063 -3.00953 145.865 0.210322C141.667 3.43017 138.464 9.78938 139.075 16.323L274.471 17.9866V18Z" fill="white"/>
<path d="M72.1462 140.604C77.2069 141.871 82.6464 138.677 85.1227 134.081C87.5989 129.485 87.5312 123.851 86.1781 118.81C83.9048 110.305 78.0864 102.811 70.4277 98.5245C62.7691 94.2384 53.3513 93.214 44.9484 95.748C44.123 96.0041 43.1623 96.2601 42.4451 95.7884C42.0392 95.5188 41.7956 95.074 41.5656 94.6427C34.6647 82.1077 18.4001 75.6785 4.84184 80.1264C4.0029 80.396 3.10983 80.7194 2.25736 80.4903C1.5808 80.3151 1.03955 79.8164 0.511833 79.3446C-7.51219 72.255 -18.3642 68.4675 -29.0404 69.0606C-39.7165 69.6536 -50.095 74.5867 -57.3071 82.5121C-58.3626 83.6712 -59.4451 84.9652 -60.9606 85.383C-62.4084 85.7874 -63.9239 85.3021 -65.3853 84.9517C-75.1684 82.6604 -86.061 87.2161 -91.6494 95.5862C-97.2378 103.956 -97.4002 115.548 -92.3801 124.268C-87.36 132.989 -77.5499 138.61 -67.5097 138.92L72.1462 140.604Z" fill="white"/>
<path d="M1100.75 54.2406C1100.89 52.6114 1102.18 51.3274 1103.59 50.8094C1105.01 50.2913 1106.55 50.3964 1108.03 50.5015C1105.28 45.7038 1106.3 38.7436 1110.3 35.1322C1114.29 31.5207 1120.72 31.7309 1124.51 35.5902C1126.02 32.4217 1127.69 29.0655 1130.59 27.4137C1131.98 26.6178 1133.57 26.2875 1135.14 26.1223C1143.69 25.2288 1152.54 29.2833 1157.96 36.5813C1159.01 37.9853 1160.15 39.6296 1161.79 39.7497C1162.63 39.8098 1163.43 39.4419 1164.26 39.2392C1166.25 38.7511 1168.32 39.2392 1170.26 39.945C1176.15 42.1073 1181.38 46.372 1184.97 51.9356C1188.04 48.9699 1192.41 47.9037 1196.48 48.4893C1200.54 49.075 1204.33 51.1698 1207.61 53.8502C1211.51 57.0412 1214.95 61.381 1215.83 66.6292C1216.7 71.8775 1214.26 77.9967 1209.61 79.5884L1108.04 81C1097.79 80.8423 1096.01 81.1051 1090.67 78.252C1090.02 77.9066 1089.37 77.5162 1088.9 76.9155C1088.38 76.2473 1088.15 75.3838 1087.92 74.5429C1087.35 72.4331 1086.78 70.2482 1087.08 68.0708C1087.48 65.2477 1089.37 62.8376 1091.71 61.5612C1094.04 60.2848 1096.75 60.037 1099.34 60.3749C1099.59 60.4049 1099.86 60.4424 1100.07 60.2848C1100.32 60.0971 1100.37 59.7217 1100.39 59.3913L1100.77 54.2031" fill="white"/>
<path d="M1371.56 58.6119C1369.94 58.9759 1368.18 58.1267 1367.18 56.8193C1366.18 55.5119 1365.85 53.8001 1365.89 52.1692C1365.96 48.5166 1367.82 44.9448 1370.8 42.7343C1373.77 40.5238 1377.8 39.7286 1381.42 40.6316C1381.79 40.726 1382.2 40.8338 1382.57 40.7664C1383.36 40.6047 1383.74 39.7286 1384.07 39.0007C1385.31 36.3455 1387.81 34.2968 1390.7 33.5689C1393.6 32.8411 1396.81 33.4476 1399.2 35.1863C1399.67 35.5233 1400.27 35.9276 1400.78 35.6581C1401 35.5368 1401.14 35.3346 1401.28 35.1324C1403.47 31.9919 1407.37 30.3475 1411.21 29.8219C1413.95 29.4445 1416.88 29.5928 1419.24 30.9945C1422.33 32.8276 1423.82 36.3724 1426.04 39.149C1426.24 39.3916 1426.43 39.6208 1426.71 39.7555C1427.1 39.9442 1427.56 39.8768 1427.99 39.8229C1433.83 39.1894 1439.79 43.3947 1441.03 49.0153C1442.69 48.4626 1444.46 48.0313 1446.21 48.1661C1447.96 48.3009 1449.74 49.1231 1450.67 50.5922C1451.8 52.3714 1451.41 54.8245 1450.02 56.415C1448.63 58.0054 1446.42 58.7602 1444.29 58.7198L1371.53 58.6389L1371.56 58.6119Z" fill="white"/>
<path d="M1349.22 203.173C1350.45 203.519 1351.71 203.726 1352.97 203.784C1354.15 203.841 1355.45 203.692 1356.28 202.563C1357.33 201.135 1357.15 198.648 1356.27 197.013C1355.4 195.378 1354.02 194.41 1352.69 193.524C1352.54 190.645 1351.13 187.95 1349.17 186.822C1347.22 185.693 1344.8 186.177 1343.17 188.031C1342.09 185.44 1340.38 183.264 1338.29 182.354C1336.2 181.444 1333.73 181.986 1332.14 184.035C1330 181.329 1327.06 179.648 1324.16 180.063C1321.25 180.477 1318.48 183.206 1317.67 187.006C1316.26 185.728 1314.32 185.809 1312.8 186.856C1311.28 187.904 1310.15 189.781 1309.4 191.843C1309.29 192.119 1309.18 192.418 1308.98 192.568C1308.7 192.764 1308.37 192.591 1308.08 192.43C1305.91 191.255 1303.32 191.06 1301.33 192.706C1299.35 194.353 1298.31 198.176 1299.52 200.859C1300.2 202.379 1301.46 203.312 1302.74 203.703C1304.03 204.095 1305.37 204.014 1306.69 203.933L1349.22 203.15V203.173Z" fill="white"/>
<path d="M275.594 166.605C169.169 140.404 0 129.691 0 129.691V486.342H1085.79L779.279 362.888L552.696 269.059C552.696 269.059 386.964 194.023 275.594 166.605Z" fill="#EA885E"/>
<path d="M1596.18 108.846C1662.14 82.6934 1767 72 1767 72V428H1094L1283.98 304.772L1424.42 211.114C1424.42 211.114 1527.15 136.215 1596.18 108.846Z" fill="#EA885E"/>
<path d="M315.023 150.02C315.023 150.02 309.286 149.023 303.805 161.086C303.805 161.086 297.811 173.944 300.869 182.759C300.869 182.759 304.563 190.604 312.912 191.345C312.912 191.345 321.978 191.898 326.348 186.21C326.348 186.21 331.666 179.942 328.635 170.157C328.635 170.157 323.575 149.926 315.009 150.02H315.023Z" fill="#DD484D"/>
<path d="M313.074 198.718L314.062 178.163L309.854 168.661L314.157 173.971L315.05 160.358L315.578 168.499L319.123 164.86L315.794 171.127L317.134 200.16L313.074 198.718Z" fill="#640718"/>
<path d="M186.46 163.13L189.112 128.275L180.817 112.896L189.112 124.151L190.249 94.9966L191.588 115.282L198.219 108.556L191.927 119.649L194.579 163.13H186.46Z" fill="#640718"/>
<path d="M161.279 129.368C161.279 129.368 150.82 129.624 148.574 119.933C148.574 119.933 147.816 108.881 152.051 95.4425C152.051 95.4425 157.558 68.9573 161.712 66.356C161.712 66.356 166.462 67.1647 171.631 97.4778C171.631 97.4778 176.083 113.302 174.094 120.863C174.094 120.863 172.226 128.815 161.307 129.368H161.279Z" fill="#EA885E"/>
<path d="M157.897 147.712L160.184 115L153.039 102.802L160.184 111.132L161.55 80.7779L162.335 102.802L168.059 96.4938L162.619 106.899L164.906 147.712H157.897Z" fill="#640718"/>
<path d="M205.296 156.494C205.296 156.494 205.215 156.52 205.187 156.534C204.957 156.601 204.714 156.628 204.47 156.655C204.321 156.669 204.186 156.696 204.037 156.709C204.01 156.709 203.983 156.736 203.956 156.75C203.956 156.75 203.956 156.75 203.943 156.75C203.902 156.75 203.861 156.75 203.807 156.736C203.807 156.736 203.78 156.736 203.767 156.723C203.686 156.723 203.604 156.763 203.537 156.763C203.131 156.763 202.738 156.763 202.332 156.696C201.94 156.642 201.561 156.534 201.196 156.372C200.803 156.21 200.452 155.981 200.154 155.685C200.032 155.577 199.937 155.442 199.829 155.307C199.748 155.213 199.68 155.105 199.613 154.984C199.491 154.755 199.383 154.526 199.288 154.283C199.207 154.081 199.166 153.865 199.112 153.65C199.112 153.623 199.112 153.596 199.112 153.582C199.112 153.501 199.112 153.42 199.112 153.353C199.112 153.272 199.112 153.178 199.139 153.11C199.193 153.003 199.125 152.989 199.058 152.976C199.058 152.976 199.058 152.976 199.044 152.976H199.017C199.017 152.976 198.99 152.976 198.977 152.976C198.95 152.976 198.936 152.976 198.909 152.976C198.909 152.976 198.909 152.976 198.895 152.976C198.801 152.976 198.706 152.949 198.611 152.949C198.449 152.935 198.287 152.908 198.111 152.895C197.935 152.949 197.759 152.895 197.596 152.962C197.556 152.976 197.515 152.989 197.461 153.016L197.339 152.531C197.488 152.544 197.637 152.571 197.799 152.585C197.921 152.598 198.043 152.612 198.165 152.625C198.259 152.625 198.354 152.625 198.435 152.666C198.503 152.706 198.544 152.666 198.584 152.666C198.584 152.666 198.584 152.666 198.598 152.666C198.638 152.666 198.679 152.679 198.706 152.693C198.72 152.693 198.747 152.693 198.76 152.693C198.963 152.773 199.166 152.787 199.369 152.827C199.41 152.827 199.464 152.854 199.504 152.868C199.504 152.868 199.504 152.868 199.518 152.868C199.613 152.895 199.721 152.922 199.816 152.949C199.816 152.949 199.816 152.949 199.829 152.949C199.816 152.935 199.802 152.908 199.775 152.895C199.775 152.895 199.748 152.881 199.734 152.868C199.707 152.841 199.68 152.827 199.64 152.8C199.64 152.8 199.613 152.787 199.599 152.773C199.572 152.746 199.545 152.733 199.504 152.706C199.653 152.625 199.775 152.517 199.951 152.531C199.951 152.531 199.951 152.531 199.951 152.517C200.005 152.436 200.1 152.45 200.181 152.436C200.181 152.436 200.208 152.436 200.222 152.436C200.276 152.436 200.343 152.41 200.397 152.396C200.573 152.383 200.763 152.383 200.939 152.41C201.182 152.45 201.412 152.531 201.642 152.639C202.143 152.868 202.562 153.205 202.928 153.609C203.225 153.933 203.483 154.27 203.74 154.62C204.037 155.024 204.349 155.429 204.754 155.739C205.052 155.981 205.377 156.17 205.769 156.237C205.878 156.264 205.986 156.264 206.094 156.278C206.108 156.278 206.121 156.278 206.148 156.318L205.35 156.52C205.35 156.52 205.309 156.52 205.296 156.507V156.494Z" fill="#DD484D"/>
<path d="M177.476 162.478C177.476 162.478 177.422 162.613 177.395 162.667C177.192 163.044 176.935 163.381 176.692 163.718C176.543 163.92 176.394 164.122 176.245 164.325C176.218 164.365 176.205 164.419 176.191 164.473C176.191 164.473 176.177 164.473 176.164 164.473C176.11 164.527 176.042 164.567 175.988 164.621C175.961 164.621 175.934 164.635 175.92 164.648C175.839 164.769 175.772 164.891 175.69 164.985C175.217 165.497 174.716 165.996 174.161 166.427C173.62 166.845 173.038 167.209 172.402 167.479C171.726 167.775 171.022 167.937 170.291 167.964C170.007 167.964 169.723 167.964 169.439 167.923C169.222 167.896 168.992 167.869 168.776 167.802C168.343 167.667 167.91 167.546 167.504 167.371C167.152 167.222 166.827 167.034 166.503 166.845C166.462 166.832 166.435 166.791 166.408 166.764C166.3 166.67 166.191 166.589 166.11 166.495C166.016 166.387 165.894 166.292 165.84 166.158C165.772 165.942 165.677 166.036 165.569 166.09C165.569 166.09 165.555 166.09 165.542 166.09C165.542 166.104 165.515 166.117 165.515 166.144C165.501 166.144 165.488 166.171 165.474 166.185C165.447 166.212 165.42 166.239 165.38 166.266C165.38 166.266 165.352 166.265 165.352 166.279C165.231 166.387 165.095 166.495 164.974 166.602C164.757 166.791 164.527 166.98 164.311 167.169C164.162 167.438 163.905 167.627 163.769 167.896C163.742 167.964 163.715 168.031 163.675 168.126L162.903 167.694C163.106 167.519 163.323 167.357 163.526 167.182C163.688 167.047 163.851 166.912 164.026 166.778C164.148 166.67 164.256 166.535 164.405 166.481C164.527 166.441 164.541 166.36 164.595 166.292H164.622C164.676 166.252 164.73 166.225 164.798 166.185C164.811 166.158 164.838 166.144 164.852 166.117C165.19 165.969 165.447 165.699 165.758 165.511C165.826 165.47 165.907 165.43 165.975 165.389C165.975 165.389 166.002 165.389 166.002 165.376C166.151 165.282 166.313 165.187 166.462 165.106C166.462 165.106 166.476 165.106 166.489 165.106C166.489 165.106 166.489 165.106 166.476 165.093C166.435 165.093 166.394 165.093 166.34 165.093C166.313 165.093 166.286 165.093 166.259 165.106C166.191 165.106 166.137 165.133 166.07 165.147C166.043 165.147 166.016 165.147 165.988 165.16C165.934 165.16 165.867 165.187 165.772 165.201C165.84 164.918 165.853 164.621 166.083 164.419V164.392C166.056 164.23 166.164 164.122 166.259 164.015C166.273 164.015 166.286 163.988 166.313 163.974C166.367 163.88 166.421 163.785 166.476 163.705C166.665 163.449 166.882 163.233 167.139 163.031C167.49 162.775 167.869 162.572 168.262 162.411C169.155 162.047 170.088 161.925 171.022 161.939C171.78 161.939 172.524 162.02 173.268 162.114C174.148 162.222 175.014 162.303 175.893 162.182C176.543 162.087 177.179 161.898 177.734 161.508C177.882 161.4 178.018 161.265 178.167 161.144C178.194 161.13 178.221 161.117 178.275 161.13L177.585 162.384C177.585 162.384 177.531 162.411 177.49 162.438L177.476 162.478ZM166.638 165.066C166.638 165.066 166.638 165.066 166.651 165.066C166.651 165.066 166.651 165.066 166.638 165.066Z" fill="#841618"/>
<path d="M1586.31 156.045C1586.31 156.045 1592.2 155.048 1597.83 167.111C1597.83 167.111 1603.99 179.97 1600.85 188.784C1600.85 188.784 1597.05 196.629 1588.48 197.37C1588.48 197.37 1579.16 197.923 1574.67 192.235C1574.67 192.235 1569.21 185.967 1572.32 176.182C1572.32 176.182 1577.52 155.951 1586.32 156.045H1586.31Z" fill="#DD484D"/>
<path d="M1588.31 204.743L1587.29 184.188L1591.62 174.686L1587.2 179.996L1586.28 166.383L1585.74 174.524L1582.09 170.885L1585.51 177.152L1584.14 206.185L1588.31 204.743Z" fill="#640718"/>
<path d="M1538.29 138.254C1538.29 138.254 1549.54 138.451 1551.94 130.877C1551.94 130.877 1552.76 122.233 1548.21 111.735C1548.21 111.735 1542.3 91.0257 1537.83 89C1537.83 89 1532.73 89.6306 1527.19 113.327C1527.19 113.327 1522.41 125.692 1524.55 131.61C1524.55 131.61 1526.55 137.827 1538.29 138.26V138.254Z" fill="#C12127"/>
<path d="M1540.86 147.872L1539.14 126.571L1545.02 119.5L1539.14 123.437L1538 100.549L1536.89 117.729L1531.53 113.627L1536.68 120.704L1534.64 149L1540.86 147.872Z" fill="#640718"/>
<path d="M1187.93 285.017C1285.29 283.456 1529.24 390.928 1529.24 390.928L1804 514.386H949.7L254 514.446L536.271 390.988C536.271 390.988 723.353 310.758 823.373 312.319C861.035 312.906 876.1 315.983 901.144 321.123C942.61 329.633 971.441 342.84 997.921 338.553C1035.66 332.443 1073.34 304.706 1113.58 296.222C1137.96 291.082 1151.27 285.605 1187.93 285.017Z" fill="#F6BF6F"/>
<path d="M1282.75 284.891C1282.75 284.891 1295.13 285.137 1297.79 275.916C1297.79 275.916 1298.69 265.405 1293.67 252.643C1293.67 252.643 1287.16 227.465 1282.25 225C1282.25 225 1276.63 225.773 1270.52 254.581C1270.52 254.581 1265.25 269.618 1267.61 276.812C1267.61 276.812 1269.82 284.364 1282.75 284.891Z" fill="#F6BF6F"/>
<path d="M1286.38 297.608L1284.75 271.03L1292.3 261.797L1284.05 267.736L1283.23 240.015L1281.62 260.565L1275.7 255.567L1281.39 264.061L1279.3 297.608H1286.38Z" fill="#640718"/>
<path d="M1042.39 346.669L1042.93 345.672C1042.93 345.672 1042.85 345.672 1042.83 345.694C1042.71 345.795 1042.6 345.907 1042.46 345.997C1041.99 346.333 1041.4 346.523 1040.8 346.635C1040 346.792 1039.18 346.792 1038.34 346.77C1037.64 346.747 1036.93 346.747 1036.23 346.792C1035.36 346.848 1034.49 347.005 1033.69 347.341C1033.33 347.487 1032.99 347.666 1032.69 347.89C1032.46 348.058 1032.28 348.238 1032.13 348.439C1032.07 348.507 1032.05 348.585 1031.99 348.652C1031.99 348.663 1031.96 348.675 1031.95 348.686C1031.87 348.776 1031.78 348.854 1031.82 348.977C1031.82 348.977 1031.82 348.988 1031.82 349C1031.62 349.168 1031.63 349.392 1031.6 349.616C1031.69 349.594 1031.74 349.582 1031.8 349.571C1031.82 349.571 1031.84 349.56 1031.87 349.549C1031.92 349.538 1031.98 349.526 1032.03 349.504C1032.06 349.504 1032.07 349.493 1032.1 349.481C1032.14 349.481 1032.19 349.481 1032.23 349.481C1032.23 349.481 1032.23 349.481 1032.24 349.481C1032.24 349.481 1032.23 349.481 1032.21 349.481C1032.07 349.56 1031.95 349.638 1031.81 349.717C1031.81 349.717 1031.8 349.717 1031.78 349.728C1031.71 349.762 1031.64 349.795 1031.59 349.829C1031.32 349.997 1031.09 350.21 1030.8 350.355C1030.78 350.378 1030.77 350.389 1030.75 350.411C1030.7 350.445 1030.66 350.479 1030.6 350.501C1030.6 350.501 1030.59 350.501 1030.57 350.501C1030.52 350.557 1030.52 350.624 1030.41 350.658C1030.28 350.703 1030.18 350.815 1030.09 350.905C1029.95 351.017 1029.81 351.129 1029.66 351.252C1029.48 351.398 1029.29 351.543 1029.11 351.678L1029.86 351.947C1029.89 351.879 1029.91 351.823 1029.93 351.767C1030.03 351.543 1030.27 351.386 1030.38 351.173C1030.57 351.017 1030.75 350.86 1030.95 350.703C1031.06 350.613 1031.17 350.524 1031.28 350.434C1031.28 350.434 1031.3 350.434 1031.31 350.423C1031.34 350.4 1031.37 350.378 1031.39 350.355C1031.39 350.344 1031.42 350.333 1031.44 350.322C1031.44 350.311 1031.45 350.299 1031.46 350.277C1031.46 350.277 1031.48 350.277 1031.49 350.277C1031.59 350.232 1031.67 350.154 1031.75 350.299C1031.81 350.389 1031.94 350.456 1032.03 350.535C1032.13 350.602 1032.24 350.658 1032.34 350.714C1032.37 350.736 1032.39 350.759 1032.44 350.77C1032.77 350.882 1033.09 351.005 1033.42 351.095C1033.83 351.196 1034.24 351.263 1034.65 351.33C1034.86 351.364 1035.06 351.375 1035.27 351.375C1035.54 351.375 1035.8 351.375 1036.06 351.341C1036.75 351.263 1037.4 351.095 1038 350.826C1038.57 350.58 1039.08 350.266 1039.54 349.907C1040.01 349.537 1040.44 349.134 1040.83 348.708C1040.92 348.63 1040.96 348.529 1041.03 348.428C1041.05 348.428 1041.07 348.417 1041.1 348.406C1041.15 348.361 1041.19 348.327 1041.25 348.283C1041.25 348.283 1041.26 348.283 1041.28 348.283C1041.28 348.238 1041.28 348.204 1041.32 348.17C1041.43 348.002 1041.56 347.846 1041.68 347.677C1041.89 347.409 1042.1 347.128 1042.25 346.837C1042.28 346.792 1042.29 346.736 1042.31 346.68C1042.33 346.669 1042.36 346.647 1042.39 346.635V346.669ZM1032.39 349.448C1032.39 349.448 1032.39 349.448 1032.41 349.448C1032.41 349.448 1032.41 349.448 1032.39 349.448Z" fill="#C12127"/>
<path d="M1064.73 327.677C1064.73 327.677 1064.76 327.777 1064.78 327.833C1064.94 328.136 1065.15 328.405 1065.35 328.674C1065.48 328.831 1065.6 328.999 1065.72 329.167C1065.74 329.2 1065.74 329.245 1065.76 329.279C1065.76 329.279 1065.77 329.279 1065.78 329.279C1065.84 329.324 1065.88 329.357 1065.94 329.402C1065.97 329.402 1065.98 329.413 1066.01 329.425C1066.08 329.514 1066.12 329.615 1066.2 329.705C1066.61 330.13 1067.02 330.534 1067.49 330.904C1067.97 331.262 1068.47 331.576 1069.04 331.822C1069.65 332.091 1070.29 332.271 1070.97 332.338C1071.23 332.371 1071.5 332.371 1071.76 332.371C1071.97 332.371 1072.18 332.371 1072.39 332.327C1072.81 332.259 1073.21 332.192 1073.61 332.091C1073.95 332.013 1074.26 331.878 1074.6 331.766C1074.64 331.755 1074.67 331.733 1074.7 331.71C1074.79 331.654 1074.9 331.598 1075 331.531C1075.1 331.464 1075.22 331.397 1075.28 331.296C1075.36 331.139 1075.45 331.217 1075.54 331.273C1075.54 331.273 1075.56 331.273 1075.57 331.273C1075.57 331.285 1075.59 331.296 1075.6 331.318C1075.6 331.329 1075.63 331.341 1075.64 331.352C1075.67 331.374 1075.7 331.397 1075.72 331.419C1075.72 331.419 1075.74 331.419 1075.75 331.43C1075.86 331.52 1075.97 331.609 1076.09 331.699C1076.28 331.856 1076.46 332.013 1076.66 332.17C1076.77 332.383 1077 332.54 1077.1 332.764C1077.13 332.82 1077.14 332.876 1077.17 332.943L1077.92 332.674C1077.74 332.528 1077.56 332.394 1077.38 332.248C1077.24 332.136 1077.1 332.024 1076.95 331.901C1076.84 331.811 1076.75 331.699 1076.63 331.654C1076.52 331.621 1076.52 331.553 1076.46 331.497C1076.46 331.497 1076.45 331.497 1076.43 331.497C1076.38 331.464 1076.34 331.43 1076.28 331.408C1076.27 331.385 1076.25 331.374 1076.24 331.352C1075.93 331.206 1075.71 330.993 1075.45 330.825C1075.39 330.792 1075.32 330.758 1075.25 330.724C1075.25 330.724 1075.24 330.724 1075.22 330.713C1075.09 330.635 1074.96 330.556 1074.82 330.478C1074.82 330.478 1074.81 330.478 1074.79 330.478C1074.79 330.478 1074.79 330.478 1074.81 330.478C1074.85 330.478 1074.89 330.478 1074.93 330.478C1074.96 330.478 1074.97 330.489 1075 330.5C1075.06 330.511 1075.11 330.523 1075.17 330.545C1075.2 330.545 1075.21 330.556 1075.24 330.567C1075.29 330.579 1075.35 330.59 1075.43 330.612C1075.39 330.388 1075.4 330.175 1075.21 329.996C1075.21 329.996 1075.21 329.985 1075.21 329.974C1075.25 329.85 1075.15 329.772 1075.08 329.682C1075.08 329.671 1075.06 329.66 1075.04 329.649C1075 329.581 1074.96 329.503 1074.9 329.436C1074.75 329.234 1074.56 329.044 1074.35 328.887C1074.04 328.663 1073.71 328.494 1073.35 328.338C1072.55 328.001 1071.69 327.845 1070.8 327.789C1070.09 327.744 1069.39 327.744 1068.69 327.766C1067.87 327.789 1067.04 327.789 1066.23 327.632C1065.63 327.508 1065.05 327.318 1064.58 326.993C1064.44 326.903 1064.33 326.791 1064.2 326.69C1064.19 326.679 1064.16 326.668 1064.1 326.668L1064.65 327.665C1064.65 327.665 1064.7 327.699 1064.73 327.71V327.677ZM1074.63 330.411C1074.63 330.411 1074.63 330.411 1074.61 330.411C1074.61 330.411 1074.61 330.411 1074.63 330.411Z" fill="#C12127"/>
<path d="M618.346 353.714C579.11 340.867 490.829 295.902 471.965 285.322C453.102 274.742 413.174 258.726 365.197 247.158C315.398 235.151 260.693 232.8 238.434 234.043C216.175 235.286 182.975 235.823 170.525 236.688C158.075 237.553 147.512 238.468 147.512 238.468C147.512 238.468 110.539 242.246 90.9209 246.512C71.3028 250.778 44.8938 260.493 44.8938 260.493L-0.00146484 277.119V486.343L1970 486.414V277.19L1923.88 260.564C1923.88 260.564 1896.74 250.85 1876.59 246.584C1856.43 242.318 1818.45 238.539 1818.45 238.539C1818.45 238.539 1807.6 237.625 1794.81 236.759C1782.02 235.894 1747.91 235.357 1725.04 234.114C1702.17 232.871 1645.97 235.223 1594.81 247.23C1545.52 258.798 1504.5 274.813 1485.12 285.394C1465.74 295.974 1353 305.5 1253.5 305.5C1154 305.5 1116 314 1035 334.5C954 355 865.495 390.643 748.882 376.496C691.914 369.585 657.583 366.562 618.346 353.714Z" fill="#D06A57"/>
<path d="M86.6246 290.678C86.6246 290.678 39.8742 291.81 29.8476 248.921C29.8476 248.921 26.4377 200.022 45.3679 140.581C45.3679 140.581 69.9677 23.3994 88.519 11.9292C88.519 11.9292 109.722 15.501 132.807 149.612C132.807 149.612 152.684 219.579 143.781 253.059C143.781 253.059 135.459 288.238 86.6246 290.678Z" fill="#C12127"/>
<path d="M101.294 320.398H80.2797L85.3674 224.485L54.868 178.901L85.7057 207.812L91.1317 75.4938L94.5146 174.143L118.235 151.297L95.8677 190.465L101.294 320.398Z" fill="#640718"/>
<path d="M267.737 224.774C271.767 219.74 274.178 213.344 274.178 206.383C274.178 190.155 261.074 177 244.91 177C228.746 177 215.642 190.155 215.642 206.383C215.642 213.923 218.47 220.799 223.12 226.001C204.425 236.068 190 256.899 190 277.819C190 304.656 214.455 327.146 241.042 329.078L243.394 287.537L222.38 251.765L243.665 279.261L246.587 205.278L248.455 260.944L266.546 241.063L249.7 269.907L252.103 328.573C277.277 324.235 299.806 298.537 299.806 272.94C299.806 253.027 286.097 233.637 267.737 224.774Z" fill="#F6BF6F"/>
<path d="M253.245 356.439L239.673 353.245L243.394 287.537L222.38 251.765L243.665 279.261L246.587 205.278L248.455 260.944L266.546 241.063L249.7 269.907L253.245 356.439Z" fill="#640718"/>
<path d="M1383.59 279.036C1383.59 279.036 1394.06 277.226 1404.06 299.244C1404.06 299.244 1415 322.724 1409.41 338.846C1409.41 338.846 1402.66 353.174 1387.41 354.536C1387.41 354.536 1370.86 355.549 1362.89 345.152C1362.89 345.152 1353.18 333.702 1358.7 315.83C1358.7 315.83 1367.95 278.858 1383.58 279.036H1383.59Z" fill="#DD484D"/>
<path d="M1388.53 373L1386.14 329.842L1394.79 314.781L1386.14 324.579L1384.53 298.273L1383.47 314.483L1376.42 306.687L1382.94 319.191L1379.54 373H1388.53Z" fill="#640718"/>
<path d="M1481.44 238.625C1475.6 231.499 1472.11 222.446 1472.11 212.592C1472.11 189.622 1491.08 171 1514.49 171C1537.9 171 1556.87 189.622 1556.87 212.592C1556.87 223.265 1552.77 232.998 1546.04 240.361C1573.11 254.612 1594 284.098 1594 313.712C1594 351.7 1558.59 383.535 1520.09 386.27L1516.68 327.468L1547.11 276.832L1516.29 315.753L1512.06 211.028L1509.36 289.825L1483.16 261.683L1507.55 302.512L1504.07 385.555C1467.62 379.414 1435 343.038 1435 306.805C1435 278.619 1454.85 251.17 1481.44 238.625Z" fill="#F6BF6F"/>
<path d="M1502.42 425L1522.07 420.478L1516.68 327.468L1547.11 276.832L1516.29 315.753L1512.06 211.028L1509.36 289.825L1483.16 261.683L1507.55 302.512L1502.42 425Z" fill="#640718"/>
<path d="M428.655 352.012C428.723 352.012 428.804 351.985 428.872 351.985C429.318 351.985 429.765 352.039 430.211 352.107C430.468 352.147 430.739 352.174 430.996 352.201C431.05 352.201 431.104 352.188 431.158 352.174C431.158 352.174 431.172 352.188 431.186 352.201C431.253 352.228 431.334 352.268 431.402 352.295C431.429 352.309 431.443 352.336 431.47 352.349C431.619 352.363 431.767 352.349 431.903 352.39C432.62 352.565 433.337 352.781 434.014 353.064C434.677 353.347 435.313 353.711 435.894 354.155C436.517 354.641 437.031 355.207 437.437 355.881C437.586 356.137 437.721 356.42 437.843 356.689C437.938 356.905 438.019 357.134 438.073 357.363C438.181 357.835 438.276 358.293 438.33 358.779C438.371 359.183 438.357 359.587 438.371 359.978C438.371 360.019 438.357 360.059 438.344 360.113C438.317 360.248 438.289 360.396 438.249 360.531C438.208 360.679 438.168 360.841 438.073 360.949C437.911 361.124 438.059 361.164 438.154 361.232C438.154 361.232 438.168 361.245 438.181 361.259C438.208 361.259 438.222 361.259 438.249 361.259C438.262 361.259 438.289 361.272 438.303 361.286C438.344 361.299 438.384 361.313 438.425 361.326C438.425 361.326 438.452 361.339 438.452 361.353C438.614 361.42 438.777 361.488 438.939 361.542C439.223 361.65 439.507 361.757 439.805 361.865C439.805 361.865 439.805 361.865 439.818 361.865C440.143 361.865 440.454 362.013 440.779 362C440.86 362 440.942 361.986 441.036 361.973V362.903C440.779 362.795 440.509 362.687 440.251 362.58C440.035 362.499 439.832 362.418 439.616 362.323C439.453 362.256 439.264 362.229 439.155 362.121C439.061 362.027 438.98 362.067 438.885 362.04C438.885 362.04 438.871 362.027 438.858 362.013C438.79 361.973 438.736 361.946 438.668 361.906C438.641 361.906 438.601 361.906 438.574 361.892C438.262 361.663 437.883 361.542 437.545 361.353C437.464 361.313 437.396 361.259 437.329 361.205C437.329 361.205 437.302 361.205 437.302 361.191C437.139 361.097 436.977 361.003 436.815 360.908C436.815 360.908 436.801 360.895 436.787 360.881C436.787 360.881 436.787 360.895 436.787 360.908C436.815 360.949 436.828 360.989 436.855 361.029C436.869 361.056 436.896 361.07 436.909 361.097C436.95 361.151 436.99 361.205 437.045 361.245C437.058 361.272 437.085 361.286 437.099 361.313C437.139 361.366 437.18 361.407 437.248 361.488C436.95 361.582 436.679 361.703 436.368 361.596C436.368 361.596 436.354 361.609 436.341 361.623C436.206 361.73 436.057 361.69 435.908 361.649C435.881 361.649 435.867 361.636 435.84 361.623C435.732 361.623 435.624 361.623 435.516 361.596C435.191 361.542 434.866 361.461 434.555 361.326C434.135 361.137 433.756 360.881 433.405 360.598C432.62 359.951 432.024 359.156 431.551 358.266C431.172 357.566 430.861 356.824 430.563 356.083C430.211 355.207 429.846 354.358 429.264 353.603C428.831 353.037 428.344 352.552 427.694 352.241C427.519 352.161 427.316 352.107 427.14 352.026C427.113 352.026 427.086 351.985 427.072 351.932H428.588C428.588 351.932 428.655 351.972 428.682 351.985L428.655 352.012ZM436.625 360.773C436.625 360.773 436.625 360.773 436.612 360.773C436.612 360.773 436.612 360.773 436.612 360.787C436.612 360.787 436.612 360.787 436.625 360.787V360.773Z" fill="#F6BF6F"/>
<path d="M378.51 388.647C378.388 388.687 378.279 388.755 378.158 388.782C377.427 388.984 376.669 389.065 375.912 389.159C375.465 389.213 375.018 389.267 374.572 389.334C374.477 389.348 374.396 389.415 374.315 389.456C374.301 389.456 374.288 389.442 374.274 389.429C374.139 389.415 374.004 389.388 373.868 389.375C373.828 389.348 373.787 389.334 373.746 389.307C373.503 389.348 373.259 389.415 373.002 389.415C371.744 389.429 370.472 389.388 369.227 389.2C368.009 389.011 366.805 388.701 365.668 388.202C364.451 387.677 363.355 386.949 362.407 386.019C362.042 385.655 361.717 385.264 361.406 384.86C361.162 384.536 360.919 384.213 360.743 383.849C360.378 383.121 360.012 382.393 359.715 381.638C359.471 381.005 359.322 380.331 359.146 379.67C359.133 379.603 359.146 379.522 359.146 379.441C359.146 379.199 359.106 378.956 359.119 378.713C359.119 378.457 359.119 378.161 359.228 377.945C359.417 377.595 359.173 377.581 358.97 377.514C358.957 377.514 358.943 377.5 358.916 377.487C358.876 377.487 358.849 377.487 358.808 377.5C358.767 377.5 358.74 377.5 358.7 377.5C358.632 377.5 358.551 377.5 358.483 377.487C358.456 377.487 358.443 377.473 358.416 377.46C358.118 377.419 357.82 377.392 357.523 377.352C357.008 377.298 356.481 377.244 355.966 377.19C355.966 377.19 355.953 377.19 355.939 377.19C355.398 377.339 354.83 377.217 354.302 377.392C354.18 377.433 354.045 377.487 353.883 377.554L353.49 376.018C353.964 376.085 354.451 376.139 354.925 376.206C355.303 376.26 355.682 376.301 356.075 376.355C356.359 376.395 356.684 376.355 356.927 376.489C357.13 376.597 357.252 376.503 357.414 376.503C357.428 376.503 357.455 376.516 357.468 376.53C357.59 376.557 357.712 376.584 357.82 376.624C357.874 376.624 357.928 376.624 357.983 376.624C358.605 376.867 359.268 376.894 359.904 377.069C360.053 377.109 360.188 377.163 360.337 377.217C360.364 377.217 360.378 377.217 360.405 377.231C360.716 377.325 361.027 377.406 361.338 377.5C361.352 377.5 361.365 377.514 361.379 377.527C361.379 377.527 361.379 377.5 361.379 377.487C361.325 377.433 361.271 377.366 361.217 377.312C361.176 377.285 361.135 377.258 361.108 377.231C361.014 377.163 360.919 377.096 360.824 377.029C360.784 377.002 360.743 376.975 360.716 376.948C360.621 376.88 360.54 376.813 360.405 376.719C360.865 376.449 361.257 376.112 361.812 376.166C361.812 376.152 361.825 376.139 361.839 376.112C362.015 375.869 362.286 375.883 362.543 375.883C362.583 375.883 362.624 375.883 362.651 375.883C362.84 375.842 363.016 375.789 363.206 375.775C363.774 375.721 364.342 375.721 364.911 375.816C365.682 375.95 366.413 376.206 367.116 376.53C368.686 377.258 370.012 378.322 371.162 379.576C372.082 380.573 372.921 381.665 373.733 382.757C374.68 384.037 375.654 385.291 376.913 386.288C377.86 387.03 378.888 387.623 380.079 387.852C380.404 387.919 380.756 387.919 381.094 387.96C381.148 387.96 381.202 388 381.256 388.081L378.753 388.728C378.753 388.728 378.631 388.687 378.577 388.674L378.51 388.647ZM361.65 377.608C361.65 377.608 361.663 377.608 361.677 377.608C361.677 377.608 361.663 377.608 361.65 377.595C361.65 377.595 361.636 377.595 361.623 377.595C361.623 377.595 361.636 377.595 361.65 377.595V377.608Z" fill="#F6BF6F"/>
<path d="M43.3034 323.628C43.3908 323.553 43.4736 323.464 43.5657 323.401C44.1344 322.989 44.7407 322.678 45.3643 322.375C45.7308 322.196 46.0927 322.004 46.4626 321.795C46.5387 321.767 46.5914 321.676 46.6534 321.61C46.6661 321.605 46.6835 321.613 46.7009 321.621C46.8197 321.591 46.9433 321.574 47.0622 321.544C47.1049 321.543 47.1524 321.554 47.1824 321.557C47.384 321.439 47.5683 321.313 47.7793 321.221C48.853 320.808 49.9455 320.446 51.0674 320.203C52.1687 319.981 53.282 319.87 54.4136 319.925C55.6226 319.994 56.7864 320.253 57.8936 320.748C58.3233 320.934 58.7162 321.176 59.1265 321.426C59.4406 321.612 59.7514 321.827 60.0161 322.074C60.5629 322.576 61.097 323.082 61.5898 323.633C61.9943 324.101 62.3367 324.635 62.6951 325.135C62.7312 325.193 62.742 325.261 62.7654 325.324C62.8451 325.539 62.9581 325.727 63.0251 325.947C63.1048 326.161 63.1985 326.414 63.18 326.637C63.1275 327.001 63.3479 326.934 63.5362 326.936C63.5489 326.931 63.5663 326.939 63.5836 326.947C63.609 326.938 63.6471 326.924 63.6678 326.901C63.6932 326.892 63.7312 326.878 63.7566 326.869C63.82 326.845 63.8835 326.821 63.9516 326.811C63.9643 326.806 63.9943 326.809 64.0117 326.817C64.2748 326.748 64.5426 326.692 64.8057 326.623C65.2685 326.509 65.7313 326.395 66.1894 326.268C66.1894 326.268 66.2021 326.264 66.2148 326.259C66.6247 325.963 67.149 325.898 67.5495 325.577C67.6496 325.497 67.737 325.421 67.8578 325.319L68.6878 326.506C68.263 326.606 67.8383 326.706 67.3962 326.798C67.0523 326.883 66.7163 326.95 66.3724 327.034C66.122 327.098 65.8522 327.227 65.6071 327.189C65.4047 327.149 65.3233 327.28 65.1964 327.327C65.1837 327.331 65.1663 327.323 65.149 327.315C65.0381 327.328 64.9272 327.34 64.8163 327.352C64.7656 327.371 64.7275 327.385 64.6768 327.404C64.0643 327.387 63.484 327.573 62.8996 327.632C62.7587 327.641 62.6304 327.646 62.4848 327.642C62.4721 327.647 62.4467 327.656 62.4294 327.648C62.1348 327.671 61.8403 327.694 61.5584 327.712C61.5457 327.717 61.5284 327.709 61.511 327.701C61.511 327.701 61.5204 327.726 61.525 327.739C61.5945 327.771 61.6513 327.807 61.7208 327.839C61.7683 327.85 61.803 327.866 61.8457 327.865C61.9406 327.887 62.0528 327.917 62.1477 327.939C62.1951 327.951 62.2299 327.967 62.2727 327.965C62.3675 327.987 62.4671 328.022 62.6141 328.068C62.3051 328.442 62.083 328.855 61.5822 328.983C61.5869 328.996 61.5789 329.013 61.5709 329.03C61.4936 329.289 61.2605 329.361 61.0495 329.454C61.0115 329.468 60.9861 329.477 60.948 329.491C60.8052 329.573 60.659 329.685 60.5114 329.754C60.0481 329.983 59.5613 330.149 59.051 330.252C58.3491 330.383 57.6478 330.399 56.9484 330.342C55.3739 330.221 53.9201 329.725 52.5322 329.018C51.4316 328.463 50.3743 327.791 49.3298 327.115C48.1101 326.316 46.8918 325.561 45.4995 325.114C44.4659 324.778 43.3903 324.602 42.3004 324.776C42.0025 324.829 41.706 324.925 41.4049 325.008C41.3541 325.027 41.302 325.003 41.2278 324.958L43.1657 323.607C43.1657 323.607 43.2813 323.607 43.3367 323.601L43.3034 323.628ZM61.1817 327.708C61.1817 327.708 61.169 327.713 61.1563 327.718C61.1563 327.718 61.169 327.713 61.1864 327.721C61.1864 327.721 61.1991 327.716 61.2117 327.712C61.2117 327.712 61.199 327.716 61.1864 327.721L61.1817 327.708Z" fill="#C12127"/>
<path d="M683.732 135.541C683.732 135.541 693.312 130.015 694.408 140.137L696.045 140.137C696.045 140.137 699.401 134.611 702.54 136.229C702.54 136.229 707.033 137.927 707.452 140.137C707.452 140.137 706.18 130.864 696.776 136.39C696.776 136.39 687.886 128.061 683.732 135.541Z" fill="#640718"/>
<path d="M618.294 91.48C618.294 91.48 628.267 85.1856 630.405 97.5993C630.405 97.5993 637.279 91.3048 641.351 100.996" stroke="#640718" stroke-width="1.33333" stroke-miterlimit="10"/>
<path d="M427.273 103.476C427.273 103.476 425.324 96.2784 437.435 93.3805C437.435 93.3805 441.67 92.7066 446.419 95.7662C446.419 95.7662 450.465 88.8382 455.228 87.7734C455.228 87.7734 457.515 86.9513 463.198 87.7465C463.198 87.7465 466.757 88.4608 468.11 93.0435C468.11 93.0435 459.761 88.2047 453.307 91.3048C453.307 91.3048 451.778 91.5609 449.139 102.451C449.139 102.451 439.586 95.3483 438.422 95.4427C438.422 95.4427 433.93 94.7014 427.286 103.476L427.273 103.476Z" fill="#640718"/>
<path d="M427.273 103.476C427.273 103.476 425.325 96.2784 437.435 93.3805C437.435 93.3805 441.67 92.7066 446.42 95.7662C446.42 95.7662 450.466 88.8382 455.229 87.7734C455.229 87.7734 457.516 86.9513 463.199 87.7465C463.199 87.7465 466.757 88.4608 468.11 93.0435C468.11 93.0435 459.762 88.2047 453.307 91.3048C453.307 91.3048 451.778 91.5609 449.14 102.451C449.14 102.451 439.587 95.3483 438.423 95.4427C438.423 95.4427 433.931 94.7014 427.287 103.476L427.273 103.476Z" fill="#640718"/>
<path d="M370.944 120.85C370.944 120.85 377.574 115.04 377.926 122.723C377.926 122.723 380.077 116.86 384.908 123.114" stroke="#640718" stroke-width="1.33333" stroke-miterlimit="10"/>
<path d="M1297.7 134.169C1297.7 134.169 1289.54 125.334 1284.06 136.688C1284.06 136.688 1278.97 128.715 1272.32 136.91" stroke="#640718" stroke-width="1.33333" stroke-miterlimit="10"/>
<path d="M1482.98 69.4979C1482.98 69.4979 1482.33 62.0549 1469.66 63.6929C1469.66 63.6929 1465.35 64.5839 1461.85 69.1572C1461.85 69.1572 1455.53 64.1213 1450.58 64.8357C1450.58 64.8357 1448.09 64.8874 1442.9 67.675C1442.9 67.675 1439.72 69.6233 1440.02 74.4027C1440.02 74.4027 1446.36 66.869 1453.66 67.4533C1453.66 67.4533 1455.22 67.1436 1461.57 76.3976C1461.57 76.3976 1468.28 66.3097 1469.43 65.9799C1469.43 65.9799 1473.5 63.6707 1482.96 69.5028L1482.98 69.4979Z" fill="#640718"/>
<path d="M1482.98 69.498C1482.98 69.498 1482.33 62.055 1469.66 63.6931C1469.66 63.6931 1465.35 64.584 1461.85 69.1573C1461.85 69.1573 1455.53 64.1214 1450.58 64.8358C1450.58 64.8358 1448.09 64.8875 1442.9 67.6751C1442.9 67.6751 1439.72 69.6234 1440.02 74.4028C1440.02 74.4028 1446.36 66.8691 1453.66 67.4534C1453.66 67.4534 1455.22 67.1437 1461.57 76.3977C1461.57 76.3977 1468.28 66.3099 1469.43 65.98C1469.43 65.98 1473.5 63.6709 1482.96 69.5029L1482.98 69.498Z" fill="#640718"/>
<path d="M1543.27 65.5277C1543.27 65.5277 1534.85 62.4687 1537.2 69.7924C1537.2 69.7924 1533.08 65.073 1530.62 72.6681" stroke="#640718" stroke-width="1.33333" stroke-miterlimit="10"/>
</g>
<defs>
<linearGradient id="paint0_linear_42_3" x1="799.48" y1="198.027" x2="798.008" y2="-396.402" gradientUnits="userSpaceOnUse">
<stop stop-color="#FFF3B6"/>
<stop offset="0.332698" stop-color="#F4BE89"/>
<stop offset="0.53" stop-color="#EE9E6F"/>
<stop offset="0.87" stop-color="#EA885E"/>
<stop offset="0.94" stop-color="#EA8A60"/>
</linearGradient>
<clipPath id="clip0_42_3">
<rect width="1600" height="400" fill="white"/>
</clipPath>
</defs>
</svg>
