<svg width="106" height="105" viewBox="0 0 106 105" fill="none" xmlns="http://www.w3.org/2000/svg">
<path fill-rule="evenodd" clip-rule="evenodd" d="M86.9473 20.1611C86.8625 20.7571 86.3778 21.0089 86.0251 21.3692C85.9097 21.4873 85.8228 21.6562 85.779 21.8173C85.6735 22.2078 85.5891 22.6052 85.518 23.0036C85.4473 23.3981 85.4373 23.8061 85.3403 24.1931C85.1364 25.0074 84.8781 25.8078 84.6711 26.6213C84.555 27.0778 84.4957 27.5491 84.4133 28.014C84.2966 28.6718 84.185 29.3305 84.0643 29.9878C84.0444 30.0957 84.0086 30.2094 83.949 30.2999C83.5342 30.9308 83.4718 31.6389 83.4568 32.3659C83.454 32.5174 83.3298 32.6644 83.2731 32.8176C83.2251 32.9474 83.138 33.0959 83.1642 33.2145C83.3999 34.2779 82.7376 35.3966 83.3783 36.4367C83.6448 36.8699 83.8332 37.352 84.1086 37.7785C84.5737 38.498 85.2012 39.1224 85.2864 40.0454C85.3075 40.2721 85.4637 40.408 85.7476 40.3018C87.0433 39.8182 88.3398 39.3351 89.6463 38.8814C90.3179 38.6481 91.0246 38.5128 91.6922 38.2691C92.6913 37.9043 93.684 37.514 94.6526 37.0757C95.3992 36.738 96.0866 36.2704 96.8322 35.9301C98.3005 35.2599 99.7746 34.5975 101.277 34.012C102.122 33.6828 103.032 33.524 103.906 33.2682C104.324 33.1461 104.732 32.9881 105.136 32.8246C105.589 32.6413 105.803 32.7145 106.136 33.2107C106.366 33.5538 106.332 33.9133 105.973 34.1775C105.384 34.6113 105.148 35.2927 104.732 35.8464C104.396 36.2937 104.056 36.7382 103.74 37.1994C103.273 37.881 102.859 38.6013 102.361 39.2585C101.851 39.9316 101.694 40.7543 101.309 41.4718C100.699 42.6101 100.23 43.8004 99.8056 45.0151C99.6662 45.4141 99.4578 45.7886 99.2816 46.1749C98.9832 46.8279 98.7041 47.4908 98.3823 48.1319C98.0321 48.8293 97.6477 49.5098 97.2654 50.1904C97.1848 50.3338 97.0491 50.4464 96.8836 50.6364C97.1451 51.0097 97.4149 51.4034 97.6932 51.7911C98.1459 52.4214 98.6223 53.0355 99.0525 53.6808C99.2709 54.0086 99.1163 54.2621 98.7369 54.4592C98.0489 54.8171 97.4107 55.3018 96.6892 55.5564C95.9456 55.8189 95.3194 56.267 94.6263 56.6014C93.7324 57.033 92.827 57.4877 92.2245 58.3321C91.9012 58.7852 91.5785 59.2436 91.3098 59.7293C90.6179 60.9796 89.8194 62.1574 88.912 63.256C88.6603 63.5606 88.2614 63.7437 87.9704 63.9538C88.1547 64.5499 88.32 65.1367 88.5187 65.7115C88.7135 66.2754 89.0107 66.8129 89.135 67.3894C89.2296 67.8283 89.4062 68.2008 89.6928 68.4929C90.116 68.9241 90.6 69.2988 91.0787 69.6717C91.4031 69.9244 91.6357 70.5475 91.5281 70.938C91.4398 71.2572 91.1696 71.3281 90.9268 71.4559C90.3037 71.7834 89.6519 72.0731 89.0785 72.4737C88.5525 72.8409 88.1144 73.3339 87.6364 73.7702C87.6056 73.7983 87.5643 73.8148 87.529 73.8385C87.1766 74.0754 86.8258 74.3146 86.4724 74.5496C84.9836 75.5388 83.4321 76.3978 81.7107 76.9247C81.1954 77.082 80.7061 77.3239 80.1926 77.4885C80.0091 77.5477 79.7857 77.4677 79.5866 77.4952C78.6668 77.6222 77.7507 77.7727 76.8305 77.8961C76.6152 77.9248 76.3821 77.8363 76.1706 77.875C75.0976 78.0723 74.048 77.7772 72.9866 77.7415C72.7829 77.7348 72.5838 77.5872 72.2692 77.4584C72.3703 77.6664 72.4132 77.7871 72.4823 77.8904C72.6046 78.0733 72.7496 78.2412 72.873 78.4241C73.0956 78.7545 73.2698 79.1265 73.5341 79.4176C74.133 80.0773 74.7816 80.6918 75.3969 81.3375C76.1188 82.095 76.8194 82.8732 77.5429 83.6293C78.1416 84.2552 78.7776 84.846 79.3662 85.4808C80.3875 86.5819 81.385 87.7048 82.3921 88.8188C82.8045 89.2747 83.2421 89.7106 83.6221 90.1918C84.2138 90.9415 84.7914 91.7047 85.3284 92.4938C85.9557 93.4152 86.59 94.34 87.115 95.3203C87.6435 96.3065 88.0571 97.3561 88.4923 98.3899C88.781 99.0759 89.0619 99.7707 89.2661 100.485C89.4376 101.085 89.4814 101.72 89.6039 102.335C89.6985 102.809 89.8373 103.274 89.9371 103.748C90.011 104.099 89.8362 104.223 89.4897 104.219C88.6501 104.209 88.0066 103.805 87.4697 103.218C87.0057 102.71 86.6806 102.007 86.1248 101.669C85.4728 101.272 85.6221 100.684 85.4369 100.178C85.0796 99.2011 84.9602 98.1495 84.4781 97.2068C84.2725 96.8054 84.2079 96.3335 84.0191 95.9213C83.7513 95.3355 83.4273 94.7757 83.1283 94.2041C82.9432 93.8504 82.8204 93.4427 82.565 93.151C81.5009 91.9362 80.4097 90.7438 79.3028 89.5678C78.6405 88.864 77.9105 88.2243 77.2466 87.5221C75.9357 86.136 74.6619 84.7148 73.3478 83.3318C72.7162 82.6674 72.0067 82.077 71.3725 81.4147C71.0476 81.0754 70.8127 80.6505 70.533 80.2673C70.4949 80.2148 70.4335 80.1796 70.3438 80.1032C70.2903 80.3564 70.2401 80.566 70.2024 80.7779C69.9507 82.1947 69.2199 83.3806 68.4036 84.5266C68.006 85.085 67.6236 85.654 67.2209 86.2086C66.9657 86.5598 66.7004 86.9057 66.414 87.232C65.857 87.8664 65.4163 88.5994 64.7302 89.1275C64.4373 89.3529 64.2508 89.7114 63.9761 89.9672C63.4592 90.4489 62.882 90.8683 62.3872 91.3705C61.4721 92.2985 60.4018 92.9017 59.127 93.1764C58.8527 93.2355 58.6243 93.4812 58.3563 93.6003C58.0656 93.7295 57.7476 93.9045 57.4537 93.8839C57.2143 93.8672 56.882 93.6412 56.7845 93.4216C56.4805 92.7376 56.3578 92.0103 56.3936 91.2398C56.4102 90.8856 56.1558 90.5163 56.0138 90.158C55.9683 90.043 55.8559 89.9484 55.8307 89.8321C55.6855 89.1615 55.1271 88.8725 54.623 88.5705C53.9003 88.1372 53.1069 87.9764 52.2631 88.1943C51.4537 88.4034 50.6292 88.5609 49.8327 88.8101C48.79 89.1364 47.734 89.4562 46.7472 89.9154C45.6876 90.4084 44.696 91.0496 43.6855 91.6445C42.8074 92.1616 41.9484 92.7113 41.0734 93.2335C40.5565 93.5417 40.0279 93.83 39.4988 94.117C39.0769 94.3461 38.5165 94.0127 38.4559 93.528C38.4365 93.3728 38.3384 93.225 38.2649 93.0798C38.0804 92.7144 37.8975 92.3477 37.6948 91.9927C37.6488 91.9121 37.525 91.8282 37.4363 91.8274C36.9871 91.8233 36.5323 91.808 36.089 91.8665C34.5638 92.0684 33.1524 91.3295 31.6481 91.3532C31.338 91.3581 31.0292 91.1841 30.713 91.1341C30.1916 91.0516 29.6648 91.0024 29.1402 90.94C28.6658 90.8839 28.1927 90.8133 27.7169 90.7774C27.1133 90.7322 26.5061 90.6749 25.9029 90.6956C24.3599 90.7484 22.8187 90.8552 21.2757 90.9076C20.9409 90.919 20.5601 90.8689 20.2727 90.7138C19.6746 90.3905 19.7706 89.5887 20.3661 89.092C21.0465 88.5245 21.6794 87.9002 22.3328 87.3003C23.2212 86.4848 24.0988 85.6568 25.0006 84.8566C25.7435 84.1971 26.5105 83.5643 27.2788 82.9344C27.4244 82.8149 27.631 82.7728 27.8006 82.6788C28.0572 82.5368 28.3059 82.3798 28.5585 82.2301C28.76 82.1108 28.9737 82.0084 29.1621 81.8712C29.7798 81.4212 30.4539 81.0228 30.9834 80.4836C31.5497 79.9071 32.1415 79.3228 32.321 78.4409C32.4368 77.873 32.7593 77.3474 32.9866 76.8017C33.0074 76.7515 33.0329 76.6857 33.0173 76.6407C32.8602 76.1886 32.7583 75.7011 32.5167 75.2982C32.1752 74.729 31.6451 74.3312 31.0456 74.0199C29.588 73.2634 28.0475 72.7267 26.471 72.2991C25.0042 71.9013 23.5131 71.6198 21.9873 71.5274C21.5358 71.5001 21.0969 71.3028 20.647 71.2086C19.9075 71.0534 19.1664 70.9032 18.421 70.7816C17.8685 70.6915 17.2983 70.6935 16.7543 70.5726C16.3441 70.4812 15.9694 70.2406 15.5672 70.1003C14.8714 69.8572 14.1506 69.679 13.4728 69.3956C13.1528 69.2619 12.8699 68.98 12.6398 68.7067C12.3325 68.3424 12.5079 67.7716 12.963 67.5946C13.4038 67.4232 13.8656 67.3075 14.3136 67.1542C14.5504 67.0732 14.7718 66.9462 15.01 66.8709C15.9723 66.5662 16.8949 66.184 17.7575 65.6481C18.192 65.3783 18.6878 65.2086 19.1468 64.9756C19.2805 64.9078 19.3969 64.7907 19.4972 64.6755C19.8796 64.2365 19.8302 63.9935 19.3216 63.6905C18.9961 63.4968 18.6991 63.2291 18.35 63.1061C17.6787 62.8702 16.9868 62.6786 16.2901 62.5331C15.4254 62.3525 14.5467 62.2398 13.6746 62.094C12.6209 61.9178 11.5679 61.7369 10.5142 61.5599C10.2027 61.5074 9.88595 61.4783 9.57909 61.4068C9.02351 61.2775 8.80557 60.8348 8.69741 60.3408C8.60282 59.9091 8.86896 59.481 9.30626 59.212C9.59286 59.0358 9.87521 58.8482 10.1385 58.6398C10.3984 58.434 10.46 57.7079 10.1881 57.2912C9.69738 56.5392 9.17886 55.7995 8.60809 55.1074C8.31338 54.7499 7.88398 54.5026 7.51028 54.2119C6.80482 53.6632 6.05519 53.1633 5.39752 52.5626C4.48343 51.7277 3.62139 50.8332 2.76888 49.9343C2.42941 49.5762 2.17785 49.1355 1.87848 48.7381C1.80516 48.6407 1.697 48.5702 1.61193 48.4807C1.10496 47.9476 0.699867 47.3551 0.697032 46.5879C0.694804 45.9699 1.05574 45.7779 1.64697 45.9318C2.32429 46.1078 3.02429 46.1976 3.71558 46.3183C4.72629 46.4947 5.73638 46.6776 6.75033 46.8328C7.30288 46.9172 7.86312 46.9533 8.42032 47.0055C8.80982 47.042 9.20762 47.0317 9.58881 47.1074C10.3561 47.2599 11.0877 47.1226 11.8065 46.8891C12.193 46.7635 12.3852 46.4408 12.4812 46.0477C12.6831 45.2183 13.2302 45.0548 13.9057 45.5751C14.504 46.0359 15.1765 46.295 15.9534 46.119C16.7991 45.9274 17.6485 45.7501 18.4883 45.5363C19.1778 45.3604 19.6084 44.9262 19.6667 44.1828C19.7218 43.4798 19.7431 42.7713 19.8512 42.0766C19.9073 41.7156 20.091 41.3624 20.2796 41.0426C20.3302 40.9567 20.6543 40.9312 20.7775 41.0045C21.7167 41.5635 22.6441 42.1434 23.5617 42.7377C24.5191 43.3579 25.6005 43.6829 26.6625 44.04C27.6106 44.359 28.5806 44.6613 29.5651 44.8089C30.526 44.9529 31.5057 45.1449 32.4948 44.9578C32.7956 44.9009 33.1069 44.9003 33.4072 44.8425C33.7127 44.7838 33.7621 44.6258 33.6979 44.2912C33.4678 43.0956 32.8594 42.076 32.241 41.0721C31.6629 40.1341 30.9771 39.2624 30.3423 38.3588C30.1434 38.0757 29.9688 37.7741 29.7608 37.498C29.5394 37.2045 29.2962 36.927 29.0537 36.6499C28.3243 35.8167 27.5725 35.002 26.8666 34.1493C26.5377 33.7519 26.3281 33.2569 26.0046 32.8538C25.5027 32.2286 24.9402 31.6523 24.4221 31.0396C24.035 30.5819 23.6881 30.0905 23.3038 29.6303C22.7697 28.9904 22.236 28.3486 21.6669 27.7405C21.2686 27.3152 20.806 26.9512 20.3849 26.5463C20.2486 26.4155 20.0303 26.2103 20.0607 26.0953C20.1621 25.7128 20.3068 25.3448 20.785 25.2081C21.3578 25.044 21.8923 25.2053 22.4446 25.2581C22.6368 25.2764 22.8416 25.215 23.0344 25.1658C23.4495 25.0602 23.8548 24.8994 24.2752 24.8362C24.6939 24.7732 24.8871 24.5411 25.1705 24.2407C25.6929 23.687 25.2594 23.2533 25.2037 22.7893C25.0753 21.7231 24.3145 20.9729 23.7598 20.122C23.2431 19.33 22.7813 18.4941 22.1943 17.7582C21.7145 17.1565 21.4613 16.4393 21.0173 15.8296C20.6045 15.2623 21.2824 14.1738 21.8864 14.1481C22.6231 14.1167 22.8611 13.8724 22.7985 13.1446C22.732 12.3697 22.5824 11.5988 22.4236 10.8356C22.254 10.0212 21.9938 9.22477 21.8417 8.40769C21.6476 7.36539 21.5072 6.31235 21.3744 5.25992C21.3079 4.73269 21.2822 4.19675 21.2879 3.66507C21.295 2.991 21.7683 2.73295 22.4357 2.8642C23.5949 3.09207 24.5781 3.71206 25.6214 4.19453C26.0317 4.38451 26.3823 4.70373 26.7593 4.96562C27.5431 5.51007 28.4017 5.97592 29.0865 6.62529C29.6626 7.17155 30.2722 7.57604 31.0006 7.8278C31.1132 7.86669 31.3216 7.81342 31.4022 7.72572C31.6558 7.45005 31.8399 7.10613 32.1105 6.85173C32.2665 6.70509 32.5327 6.64736 32.7583 6.61921C32.8304 6.61009 32.9432 6.81588 33.0157 6.9364C33.2497 7.32589 33.4792 7.71863 33.6995 8.11603C33.8932 8.46501 34.0609 8.82858 34.2616 9.17311C34.3807 9.37748 34.5423 9.55714 34.6835 9.74895C35.0254 10.2148 35.3736 10.6766 35.7051 11.15C35.8753 11.3928 35.8996 11.7173 36.3575 11.7151C36.5777 11.7141 36.8108 12.0675 37.0182 12.2802C37.3127 12.582 37.5627 12.9316 37.8801 13.2044C38.1563 13.4418 38.4887 13.6229 38.8166 13.7891C39.2219 13.9949 39.6497 14.156 40.0649 14.3427C40.6414 14.6024 41.1326 14.4648 41.4726 13.9109C41.7985 13.3802 42.0367 12.7807 42.2202 12.1828C42.3353 11.8072 42.2601 11.3768 42.3043 10.9748C42.3478 10.5768 42.4086 10.1761 42.5168 9.7923C42.5506 9.67239 42.7764 9.51461 42.8905 9.53203C43.0361 9.5541 43.2028 9.71067 43.2826 9.85286C44.0954 11.3045 44.5501 12.9206 45.3544 14.3794C45.6763 14.9631 45.8993 15.6009 46.214 16.1893C46.5391 16.797 46.9369 17.3657 47.2734 17.9677C47.5373 18.44 47.7242 18.9563 48.0011 19.4197C48.6092 20.4375 49.2399 21.4428 49.8858 22.4371C50.3671 23.1778 50.8499 23.9229 51.3998 24.6118C51.9431 25.2924 52.5667 25.9095 53.164 26.5459C53.5241 26.9297 53.8442 27.3966 54.2841 27.6494C54.9493 28.0318 55.5235 28.6127 56.3527 28.6988C56.6537 28.7302 56.759 28.6844 56.7687 28.3709C56.8151 26.8755 56.8732 25.3803 56.9387 23.8855C56.9814 22.9171 57.0677 21.9501 57.0902 20.9816C57.1054 20.3172 56.9816 19.6464 57.032 18.9869C57.1135 17.917 57.0349 16.8306 57.3997 15.7816C57.5613 15.3172 57.534 14.7922 57.9103 14.3988C58.2011 14.0948 58.732 14.1687 58.9791 14.5064C59.1875 14.7911 59.4833 15.0119 59.7391 15.2621C60.208 15.7204 60.6724 16.1834 61.1462 16.6367C61.3279 16.8107 61.5154 16.9859 61.7253 17.1222C62.2808 17.4828 63.0485 17.2369 63.2917 16.6167C63.6089 15.8077 63.7947 14.9706 63.822 14.0948C63.8364 13.6222 63.9624 13.1527 63.9731 12.6802C63.9847 12.1777 63.8822 11.6719 63.9014 11.1704C63.9127 10.8788 63.9905 10.516 64.1805 10.3299C64.314 10.1988 64.6911 10.2808 64.9512 10.3211C65.4857 10.404 66.0121 10.5379 66.5475 10.6124C66.6463 10.6262 66.8436 10.4775 66.8715 10.3716C67.1766 9.2118 67.4356 8.03967 67.754 6.88373C67.8976 6.36198 68.1419 5.86736 68.3491 5.36403C68.6841 4.54898 68.9999 3.72442 69.376 2.92861C69.5897 2.47673 69.9031 2.07083 70.1805 1.65014C70.3786 1.34976 70.586 1.05506 70.8026 0.767848C70.8607 0.69088 70.9652 0.613307 71.0535 0.606623C71.1197 0.601762 71.2356 0.697768 71.2577 0.770685C71.3217 0.982143 71.3685 1.20292 71.3887 1.42309C71.4584 2.18142 71.4641 2.94927 71.5882 3.69788C71.7316 4.56033 71.9058 5.42986 72.1898 6.25402C72.6869 7.69655 73.0099 9.20755 73.824 10.5346C74.0149 10.8463 74.0528 11.248 74.2084 11.5867C74.546 12.3207 74.849 13.0839 75.2906 13.7527C75.6408 14.2838 76.2956 14.2572 76.8826 14.1869C77.4827 14.115 78.0811 14.0225 78.6769 13.9212C78.9348 13.8775 79.1833 13.7792 79.4399 13.7243C79.6283 13.684 79.9577 13.6012 79.9913 13.6634C80.1158 13.8937 80.2505 14.204 80.1904 14.4341C79.8918 15.5736 79.5356 16.6981 79.1936 17.8263C78.9447 18.6472 78.6648 19.4592 78.4422 20.287C78.3114 20.774 78.2441 21.2815 78.1888 21.7843C78.1366 22.2574 78.0841 22.7415 78.1295 23.2114C78.1791 23.7234 78.3322 24.227 78.4637 24.7283C78.4825 24.7998 78.6415 24.8923 78.7223 24.881C79.6856 24.7447 80.4073 24.163 81.1363 23.5768C81.9094 22.9546 82.7218 22.3812 83.5077 21.7745C84.0499 21.3561 84.5816 20.923 85.1084 20.4853C85.5516 20.1161 86.5651 19.9198 86.9473 20.1611Z" fill="#FF3535" fill-opacity="0.68"/>
</svg>
