<svg width="1593" height="1463" viewBox="0 0 1593 1463" fill="none" xmlns="http://www.w3.org/2000/svg">
<path d="M862.5 1267.5C862.5 1503.71 714.863 1694.5 533.5 1694.5C352.137 1694.5 204.5 1503.71 204.5 1267.5C204.5 1031.29 352.137 840.5 533.5 840.5C714.863 840.5 862.5 1031.29 862.5 1267.5Z" fill="#FF3535" fill-opacity="0.2" stroke="#FF7979" stroke-width="3"/>
<path d="M419.5 843.591L419.5 608.234C439.89 604.225 462.583 599.258 486.103 594.111C488.791 593.523 491.489 592.932 494.195 592.34C521.071 586.465 548.802 580.47 575.278 575.474C634.312 564.335 710.339 547.128 759.347 535.459C801.316 525.467 835.291 518.722 872.412 511.472C874.989 510.969 877.581 510.463 880.192 509.954C914.774 503.208 952.665 495.816 1002.5 484.866L1002.5 1065.77L865.002 1093.27C848.108 1043.24 812.097 977.981 780.66 938.514C748.952 898.707 711.436 866.763 670.815 845.016C630.193 823.267 587.478 812.261 545.767 812.833C505.143 813.391 454.25 821.801 419.5 843.591Z" fill="#FF3535" fill-opacity="0.2" stroke="#FF7979" stroke-width="3"/>
<path d="M1008.71 1393.22C1008.71 1434.09 1008.71 1434.25 1008.7 1434.43L1008.7 1434.47C1008.7 1434.8 1008.7 1437.66 1008.7 1489.72L831.197 1489.72C858.172 1453.11 871.983 1412.29 876.459 1393.56C878.754 1383.96 881.762 1362.91 884.194 1341.03C886.627 1319.14 888.5 1296.26 888.5 1283C888.5 1262.65 887.985 1233.01 885.084 1202.44C882.254 1172.6 877.143 1141.77 867.967 1117.8L1008.7 1092.02L1008.71 1249.22L1008.71 1393.22Z" fill="#FF3535" fill-opacity="0.2" stroke="#FF7979" stroke-width="3"/>
<path d="M1.49976 1512.14L1042.5 1512.14V443.865L1.49976 672.207V1512.14Z" fill="#FF3535" fill-opacity="0.2" stroke="#FF7979" stroke-width="3"/>
<path d="M285.752 954.668L285.767 954.645L285.783 954.623L301.283 933.123L301.329 933.06L301.381 933.002L317.881 914.502L317.916 914.462L317.954 914.425L336.953 895.925L337.017 895.863L337.087 895.81L352.087 884.31L352.127 884.279L352.168 884.252L370.168 872.252L370.2 872.231L370.233 872.211L390.5 860.147V608.853L27.4998 686.107V1038.18L259.12 993.642L272.761 974.154L272.771 974.14L285.752 954.668Z" fill="#FF3535" fill-opacity="0.2" stroke="#FF7979" stroke-width="3"/>
<path d="M27.4998 1069.14V1485.5H232.875L217.587 1442.5L217.565 1442.44L217.549 1442.38L207.049 1402.38L207.039 1402.34L207.031 1402.3L197.031 1353.8L197.017 1353.74L197.01 1353.67L192.51 1314.17L192.506 1314.14L192.504 1314.1L189.504 1271.1L189.499 1271.03L189.5 1270.96L190.5 1230.46L190.501 1230.44L190.502 1230.42L192.502 1192.92L192.506 1192.84L192.518 1192.77L198.518 1154.27L198.53 1154.19L198.551 1154.11L208.55 1116.62L208.55 1116.61L215.05 1092.12L215.071 1092.04L215.101 1091.96L224.6 1067.35L224.616 1067.31L224.633 1067.27L233.633 1047.38L233.673 1047.29L233.725 1047.21L244.943 1029.09L27.4998 1069.14Z" fill="#FF3535" fill-opacity="0.2" stroke="#FF7979" stroke-width="3"/>
<path d="M1591.5 1489.5H1045.5V443.012L1591.5 605.745V1489.5Z" fill="#FF3535" fill-opacity="0.2" stroke="#FF7979" stroke-width="3"/>
<path d="M1307.03 -28.5L1589.29 604.617L1043.44 439.868L1017.59 -28.5H1307.03Z" fill="#FF3535" fill-opacity="0.2" stroke="#FF7979" stroke-width="3"/>
<path d="M1016.58 -49.5L1042.43 440.805L2.44141 666.934L289.016 -49.5H1016.58Z" fill="#FF3535" fill-opacity="0.2" stroke="#FF7979" stroke-width="3"/>
<path d="M1352.5 559.095V980.327L1073.5 1092.78V476.012L1352.5 559.095Z" fill="#FF3535" fill-opacity="0.2" stroke="#FF7979" stroke-width="3"/>
<path d="M1354.24 1473.52L1354.22 1473.52L1354.21 1473.51L1073.5 1433.7V1125.01L1352.5 1013.22V1141V1142.12L1353.58 1142.44L1564.5 1204.12V1507.24L1354.24 1473.52Z" fill="#FF3535" fill-opacity="0.2" stroke="#FF7979" stroke-width="3"/>
<path d="M1567.5 636.411V1174.89L1379.5 1109.93V577.047L1567.5 636.411Z" fill="#FF3535" fill-opacity="0.2" stroke="#FF7979" stroke-width="3"/>
</svg>
