<svg width="1920" height="1101" viewBox="0 0 1920 1101" fill="none" xmlns="http://www.w3.org/2000/svg">
<path d="M1485.62 122.459C1479.39 119.186 1472.7 123.804 1463.22 130.321C1463.22 130.321 1450 117.636 1439.02 119.83" stroke="#91A3D5" stroke-width="6" stroke-linecap="round"/>
<path d="M1218.91 166.455C1212.6 163.35 1206.03 168.146 1196.73 174.916C1196.73 174.916 1183.17 162.59 1172.25 165.078" stroke="#91A3D5" stroke-width="6" stroke-linecap="round"/>
<path d="M2019.22 502.093C2000.24 486.29 1833.94 487.14 1753.17 489.541L1763.88 756.915L2002.72 757.879C2016.13 679.202 2038.2 517.895 2019.22 502.093Z" fill="#5C71AD"/>
<path d="M1669.95 79.3765C1633.4 77.2233 1633.47 103.558 1633.47 103.558C1621.52 124.604 1847.69 115.693 1843.57 100.809C1839.44 85.9253 1828.01 68.6265 1805.26 75.1599C1805.26 39.5 1760.09 4.50008 1726.17 51.5001C1697.76 24.2762 1669.95 64.5 1669.95 79.3765Z" fill="#EEFCFF"/>
<path d="M1144.03 22.0542C1117.18 4.79756 1105.5 27.7031 1103.02 41.313C1093.97 56.0767 1257.55 52.2541 1254.92 41.5337C1252.3 30.8133 1238.4 25.8107 1232.63 28.0424C1229.81 8.60522 1199.74 8.98616 1196.84 15.6287C1177.17 -11.5789 1150.6 8.7649 1144.03 22.0542Z" fill="#EEFCFF"/>
<path d="M-293.851 505.609C-361.691 818.992 -121.55 749.992 -160.195 818.992H-135.894L-55.3965 639H244.821L806.781 677C735.566 576.333 728.308 531.992 628.067 505.609C539.025 482.174 -287.086 474.362 -293.851 505.609Z" fill="#5C71AD"/>
<path d="M837.157 388C776.405 388 676.838 543.5 638.193 612.5L651.862 649.5L995.113 736H1364.69L1981.83 649.5C1910.62 548.833 1747.94 388 1685.67 388H837.157Z" fill="#90A1D4"/>
<path d="M1097.77 300H1141.54L1151.04 325H1088.27L1097.77 300Z" fill="#3B4779"/>
<rect x="1054.85" y="325" width="84.0408" height="63" fill="#BFCFF6"/>
<path d="M1137.21 240H1144.97L1152.06 262H1129.78L1137.21 240Z" fill="#3B4779"/>
<path d="M1152.06 262H1129.78V386H1152.06V262Z" fill="#BFCFF6"/>
<path d="M1073.42 245H1081.18L1088.27 267H1065.99L1073.42 245Z" fill="#3B4779"/>
<path d="M1088.27 267H1065.99V388H1088.27V267Z" fill="#BFCFF6"/>
<path d="M1077.13 385V376.105C1077.13 373.83 1072.57 371 1072.57 371C1072.57 371 1068.02 373.83 1068.02 376.105V385H1077.13Z" fill="#3B4779"/>
<path d="M1073.08 349C1073.64 349 1074.09 346.538 1074.09 343.5C1074.09 340.462 1073.64 338 1073.08 338C1072.52 338 1072.07 340.462 1072.07 343.5C1072.07 346.538 1072.52 349 1073.08 349Z" fill="#3B4779"/>
<path d="M1070.04 349C1070.6 349 1071.05 346.538 1071.05 343.5C1071.05 340.462 1070.6 338 1070.04 338C1069.48 338 1069.03 340.462 1069.03 343.5C1069.03 346.538 1069.48 349 1070.04 349Z" fill="#3B4779"/>
<path d="M1076.12 349C1076.68 349 1077.13 346.538 1077.13 343.5C1077.13 340.462 1076.68 338 1076.12 338C1075.56 338 1075.1 340.462 1075.1 343.5C1075.1 346.538 1075.56 349 1076.12 349Z" fill="#3B4779"/>
<path d="M1338.76 75.5667H1337.84V89.8025H1338.76V75.5667Z" fill="#BFCFF6"/>
<path d="M1367.73 258H1309V388H1367.73V258Z" fill="#5C71AD"/>
<path d="M1367.94 193.013H1308.66V250.846H1367.94V193.013Z" fill="#5C71AD"/>
<path d="M1297.72 250.846H1378.88L1374.32 257.964H1302.28L1297.72 250.846Z" fill="#3B4779"/>
<path d="M1306.38 201.91C1307.14 201.91 1307.75 201.313 1307.75 200.576C1307.75 199.838 1307.14 199.241 1306.38 199.241C1305.63 199.241 1305.01 199.838 1305.01 200.576C1305.01 201.313 1305.63 201.91 1306.38 201.91Z" fill="#5C71AD"/>
<path d="M1370.22 201.91C1370.97 201.91 1371.59 201.313 1371.59 200.576C1371.59 199.838 1370.97 199.241 1370.22 199.241C1369.46 199.241 1368.85 199.838 1368.85 200.576C1368.85 201.313 1369.46 201.91 1370.22 201.91Z" fill="#5C71AD"/>
<path d="M1338.3 89.8025L1367.92 193.235H1308.68L1338.3 89.8025Z" fill="#3B4779"/>
<path d="M1341.49 86.2437H1335.11V100.48H1341.49V86.2437Z" fill="#3B4779"/>
<path d="M1374.32 215.256H1366.11V250.846H1374.32V215.256Z" fill="#BFCFF6"/>
<path d="M1310.49 215.256H1302.28V250.846H1310.49V215.256Z" fill="#BFCFF6"/>
<path d="M1321.43 295.333C1322.44 295.333 1323.25 288.561 1323.25 280.208C1323.25 271.854 1322.44 265.082 1321.43 265.082C1320.42 265.082 1319.61 271.854 1319.61 280.208C1319.61 288.561 1320.42 295.333 1321.43 295.333Z" fill="white"/>
<path d="M1332.37 295.333C1333.38 295.333 1334.2 288.561 1334.2 280.208C1334.2 271.854 1333.38 265.082 1332.37 265.082C1331.37 265.082 1330.55 271.854 1330.55 280.208C1330.55 288.561 1331.37 295.333 1332.37 295.333Z" fill="white"/>
<path d="M1354.26 295.333C1355.27 295.333 1356.08 288.561 1356.08 280.208C1356.08 271.854 1355.27 265.082 1354.26 265.082C1353.25 265.082 1352.44 271.854 1352.44 280.208C1352.44 288.561 1353.25 295.333 1354.26 295.333Z" fill="white"/>
<path d="M1343.32 295.333C1344.32 295.333 1345.14 288.561 1345.14 280.208C1345.14 271.854 1344.32 265.082 1343.32 265.082C1342.31 265.082 1341.49 271.854 1341.49 280.208C1341.49 288.561 1342.31 295.333 1343.32 295.333Z" fill="white"/>
<path d="M1357 64H1337.84V75.5667H1357V64Z" fill="#BFCFF6"/>
<path d="M1306.38 199.241L1302.04 215.924H1310.73L1306.38 199.241Z" fill="#3B4779"/>
<path d="M1370.22 199.241L1365.88 215.924H1374.56L1370.22 199.241Z" fill="#3B4779"/>
<path d="M1338.76 246.397C1352.36 246.397 1363.38 235.642 1363.38 222.374C1363.38 209.107 1352.36 198.351 1338.76 198.351C1325.16 198.351 1314.13 209.107 1314.13 222.374C1314.13 235.642 1325.16 246.397 1338.76 246.397Z" fill="#BFCFF6"/>
<path d="M1338.76 242.838C1350.34 242.838 1359.73 233.676 1359.73 222.374C1359.73 211.072 1350.34 201.91 1338.76 201.91C1327.17 201.91 1317.78 211.072 1317.78 222.374C1317.78 233.676 1327.17 242.838 1338.76 242.838Z" fill="white"/>
<path d="M1338.3 225.044C1339.56 225.044 1340.58 224.048 1340.58 222.819C1340.58 221.591 1339.56 220.595 1338.3 220.595C1337.04 220.595 1336.02 221.591 1336.02 222.819C1336.02 224.048 1337.04 225.044 1338.3 225.044Z" fill="#5C71AD"/>
<path d="M1338.3 222.819L1328.72 229.492" stroke="#5C71AD"/>
<path d="M1338.3 222.819L1350.03 232.81" stroke="#5C71AD"/>
<path d="M1218.07 294L1223.33 307.5H1212.81L1218.07 294Z" fill="#3B4779"/>
<path d="M1244.4 294L1249.66 307.5H1239.14L1244.4 294Z" fill="#3B4779"/>
<path d="M1151.82 380.532C1156.19 380.532 1155.61 381.156 1155.61 376.12C1155.61 371.083 1153.91 367 1151.82 367C1149.73 367 1148.03 371.083 1148.03 376.12C1148.03 380.934 1147.45 380.532 1151.82 380.532Z" fill="#BFCFF6"/>
<path d="M1151.55 325L1162.51 343.75H1140.59L1151.55 325Z" fill="#5C71AD"/>
<path d="M1154.08 357C1154.64 357 1155.09 355.209 1155.09 353C1155.09 350.791 1154.64 349 1154.08 349C1153.52 349 1153.07 350.791 1153.07 353C1153.07 355.209 1153.52 357 1154.08 357Z" fill="#BFCFF6"/>
<path d="M1149.02 357C1149.58 357 1150.03 355.209 1150.03 353C1150.03 350.791 1149.58 349 1149.02 349C1148.46 349 1148.01 350.791 1148.01 353C1148.01 355.209 1148.46 357 1149.02 357Z" fill="#BFCFF6"/>
<path d="M1145.98 357C1146.54 357 1146.99 355.209 1146.99 353C1146.99 350.791 1146.54 349 1145.98 349C1145.42 349 1144.97 350.791 1144.97 353C1144.97 355.209 1145.42 357 1145.98 357Z" fill="#BFCFF6"/>
<path d="M1157.12 357C1157.68 357 1158.13 355.209 1158.13 353C1158.13 350.791 1157.68 349 1157.12 349C1156.56 349 1156.11 350.791 1156.11 353C1156.11 355.209 1156.56 357 1157.12 357Z" fill="#BFCFF6"/>
<path d="M1124.91 318H1502.4V343H1088.27L1124.91 318Z" fill="#43518D"/>
<path d="M1457.34 325L1468.3 343.75H1446.38L1457.34 325Z" fill="#5C71AD"/>
<path d="M1088.27 343H1502.4V388H1088.27V343Z" fill="#5C71AD"/>
<path d="M1373.8 381V372.105C1373.8 369.83 1369.25 367 1369.25 367C1369.25 367 1364.69 369.83 1364.69 372.105V381H1373.8Z" fill="#BFCFF6"/>
<path d="M1333.3 381V372.105C1333.3 369.83 1328.75 367 1328.75 367C1328.75 367 1324.19 369.83 1324.19 372.105V381H1333.3Z" fill="#BFCFF6"/>
<path d="M1414.3 381V372.105C1414.3 369.83 1409.75 367 1409.75 367C1409.75 367 1405.19 369.83 1405.19 372.105V381H1414.3Z" fill="#BFCFF6"/>
<path d="M1151.55 325L1162.51 343.75H1140.59L1151.55 325Z" fill="#5C71AD"/>
<path d="M1151.82 380.532C1156.19 380.532 1155.61 381.156 1155.61 376.12C1155.61 371.083 1153.91 367 1151.82 367C1149.73 367 1148.03 371.083 1148.03 376.12C1148.03 380.934 1147.45 380.532 1151.82 380.532Z" fill="#BFCFF6"/>
<path d="M1154.08 357C1154.64 357 1155.09 355.209 1155.09 353C1155.09 350.791 1154.64 349 1154.08 349C1153.52 349 1153.07 350.791 1153.07 353C1153.07 355.209 1153.52 357 1154.08 357Z" fill="#BFCFF6"/>
<path d="M1149.02 357C1149.58 357 1150.03 355.209 1150.03 353C1150.03 350.791 1149.58 349 1149.02 349C1148.46 349 1148.01 350.791 1148.01 353C1148.01 355.209 1148.46 357 1149.02 357Z" fill="#BFCFF6"/>
<path d="M1145.98 357C1146.54 357 1146.99 355.209 1146.99 353C1146.99 350.791 1146.54 349 1145.98 349C1145.42 349 1144.97 350.791 1144.97 353C1144.97 355.209 1145.42 357 1145.98 357Z" fill="#BFCFF6"/>
<path d="M1157.12 357C1157.68 357 1158.13 355.209 1158.13 353C1158.13 350.791 1157.68 349 1157.12 349C1156.56 349 1156.11 350.791 1156.11 353C1156.11 355.209 1156.56 357 1157.12 357Z" fill="#BFCFF6"/>
<path d="M1457.61 380.532C1461.98 380.532 1461.39 381.156 1461.39 376.12C1461.39 371.083 1459.7 367 1457.61 367C1455.52 367 1453.82 371.083 1453.82 376.12C1453.82 380.934 1453.24 380.532 1457.61 380.532Z" fill="#BFCFF6"/>
<path d="M1459.87 357C1460.43 357 1460.88 355.209 1460.88 353C1460.88 350.791 1460.43 349 1459.87 349C1459.31 349 1458.86 350.791 1458.86 353C1458.86 355.209 1459.31 357 1459.87 357Z" fill="#BFCFF6"/>
<path d="M1454.81 357C1455.37 357 1455.82 355.209 1455.82 353C1455.82 350.791 1455.37 349 1454.81 349C1454.25 349 1453.79 350.791 1453.79 353C1453.79 355.209 1454.25 357 1454.81 357Z" fill="#BFCFF6"/>
<path d="M1451.77 357C1452.33 357 1452.78 355.209 1452.78 353C1452.78 350.791 1452.33 349 1451.77 349C1451.21 349 1450.76 350.791 1450.76 353C1450.76 355.209 1451.21 357 1451.77 357Z" fill="#BFCFF6"/>
<path d="M1462.91 357C1463.47 357 1463.92 355.209 1463.92 353C1463.92 350.791 1463.47 349 1462.91 349C1462.35 349 1461.89 350.791 1461.89 353C1461.89 355.209 1462.35 357 1462.91 357Z" fill="#BFCFF6"/>
<path d="M1119.66 381V372.105C1119.66 369.83 1115.1 367 1115.1 367C1115.1 367 1110.54 369.83 1110.54 372.105V381H1119.66Z" fill="#BFCFF6"/>
<path d="M1324.19 381L1333.3 381" stroke="#3B4779" stroke-width="3" stroke-linecap="round"/>
<path d="M1164.21 346L1444.68 346" stroke="#43518D" stroke-width="3" stroke-linecap="round"/>
<path d="M1364.69 381L1373.8 381" stroke="#3B4779" stroke-width="3" stroke-linecap="round"/>
<path d="M1090.29 346H1138.89" stroke="#43518D" stroke-width="3" stroke-linecap="round"/>
<path d="M1110.54 381L1119.66 381" stroke="#3B4779" stroke-width="3" stroke-linecap="round"/>
<path d="M1405.19 381L1414.3 381" stroke="#3B4779" stroke-width="3" stroke-linecap="round"/>
<path d="M1469.99 347L1497.33 347" stroke="#43518D" stroke-width="3" stroke-linecap="round"/>
<path d="M1503.8 303H1547.57L1557.07 328H1494.3L1503.8 303Z" fill="#3B4779"/>
<rect x="1494.3" y="325" width="91.1286" height="63" fill="#BFCFF6"/>
<path d="M1501.72 248H1509.48L1516.57 270H1494.3L1501.72 248Z" fill="#3B4779"/>
<path d="M1516.57 269H1494.3V353H1516.57V269Z" fill="#BFCFF6"/>
<path d="M1563.49 243H1571.25L1578.34 265H1556.06L1563.49 243Z" fill="#3B4779"/>
<path d="M1578.34 264H1556.06V348H1578.34V264Z" fill="#BFCFF6"/>
<path d="M1536.32 307L1547.28 325.75H1525.35L1536.32 307Z" fill="#BFCFF6"/>
<path d="M1520.62 385V376.105C1520.62 373.83 1516.06 371 1516.06 371C1516.06 371 1511.51 373.83 1511.51 376.105V385H1520.62Z" fill="#3B4779"/>
<path d="M1540.87 385V376.105C1540.87 373.83 1536.32 371 1536.32 371C1536.32 371 1531.76 373.83 1531.76 376.105V385H1540.87Z" fill="#3B4779"/>
<path d="M1561.12 385V376.105C1561.12 373.83 1556.57 371 1556.57 371C1556.57 371 1552.01 373.83 1552.01 376.105V385H1561.12Z" fill="#3B4779"/>
<path d="M1536.82 358.958C1544.94 358.958 1543.86 360.017 1543.86 351.472C1543.86 342.927 1540.71 336 1536.82 336C1532.93 336 1529.78 342.927 1529.78 351.472C1529.78 359.639 1528.7 358.958 1536.82 358.958Z" fill="white"/>
<path d="M1557.07 354C1557.63 354 1558.09 351.538 1558.09 348.5C1558.09 345.462 1557.63 343 1557.07 343C1556.51 343 1556.06 345.462 1556.06 348.5C1556.06 351.538 1556.51 354 1557.07 354Z" fill="#3B4779"/>
<path d="M1554.04 354C1554.59 354 1555.05 351.538 1555.05 348.5C1555.05 345.462 1554.59 343 1554.04 343C1553.48 343 1553.02 345.462 1553.02 348.5C1553.02 351.538 1553.48 354 1554.04 354Z" fill="#3B4779"/>
<path d="M1560.11 354C1560.67 354 1561.12 351.538 1561.12 348.5C1561.12 345.462 1560.67 343 1560.11 343C1559.55 343 1559.1 345.462 1559.1 348.5C1559.1 351.538 1559.55 354 1560.11 354Z" fill="#3B4779"/>
<path d="M1516.57 354C1517.13 354 1517.58 351.538 1517.58 348.5C1517.58 345.462 1517.13 343 1516.57 343C1516.01 343 1515.56 345.462 1515.56 348.5C1515.56 351.538 1516.01 354 1516.57 354Z" fill="#3B4779"/>
<path d="M1513.53 354C1514.09 354 1514.55 351.538 1514.55 348.5C1514.55 345.462 1514.09 343 1513.53 343C1512.97 343 1512.52 345.462 1512.52 348.5C1512.52 351.538 1512.97 354 1513.53 354Z" fill="#3B4779"/>
<path d="M1519.61 354C1520.17 354 1520.62 351.538 1520.62 348.5C1520.62 345.462 1520.17 343 1519.61 343C1519.05 343 1518.6 345.462 1518.6 348.5C1518.6 351.538 1519.05 354 1519.61 354Z" fill="#3B4779"/>
<path d="M1202.78 295.666H1201.34V301.986H1202.78V295.666Z" fill="#3B4779"/>
<path d="M1202.06 292.821L1201.29 295.784H1202.82L1202.06 292.821Z" fill="#3B4779"/>
<path d="M1202.06 293.295C1202.19 293.295 1202.3 293.189 1202.3 293.058C1202.3 292.927 1202.19 292.821 1202.06 292.821C1201.92 292.821 1201.82 292.927 1201.82 293.058C1201.82 293.189 1201.92 293.295 1202.06 293.295Z" fill="#5C71AD"/>
<path d="M1217.66 257.282H1216.58V262.044H1217.66V257.282Z" fill="#3B4779"/>
<path d="M1217.12 255.139L1216.55 257.371H1217.69L1217.12 255.139Z" fill="#3B4779"/>
<path d="M1217.12 255.496C1217.22 255.496 1217.3 255.416 1217.3 255.318C1217.3 255.219 1217.22 255.139 1217.12 255.139C1217.02 255.139 1216.94 255.219 1216.94 255.318C1216.94 255.416 1217.02 255.496 1217.12 255.496Z" fill="#5C71AD"/>
<path d="M1247.4 257.282H1246.32V262.044H1247.4V257.282Z" fill="#3B4779"/>
<path d="M1246.86 255.139L1246.29 257.371H1247.44L1246.86 255.139Z" fill="#3B4779"/>
<path d="M1246.86 255.496C1246.96 255.496 1247.04 255.416 1247.04 255.318C1247.04 255.219 1246.96 255.139 1246.86 255.139C1246.76 255.139 1246.68 255.219 1246.68 255.318C1246.68 255.416 1246.76 255.496 1246.86 255.496Z" fill="#5C71AD"/>
<path d="M1259.97 295.642H1258.53V301.962H1259.97V295.642Z" fill="#3B4779"/>
<path d="M1259.25 292.797L1258.49 295.76H1260.01L1259.25 292.797Z" fill="#3B4779"/>
<path d="M1259.25 293.271C1259.38 293.271 1259.49 293.165 1259.49 293.034C1259.49 292.903 1259.38 292.797 1259.25 292.797C1259.12 292.797 1259.01 292.903 1259.01 293.034C1259.01 293.165 1259.12 293.271 1259.25 293.271Z" fill="#5C71AD"/>
<path d="M1216.91 276.981H1246.68L1253.15 302.589H1210.44L1216.91 276.981Z" fill="#BFCFF6"/>
<path d="M1232.48 222H1231.8V232.846H1232.48V222Z" fill="#BFCFF6"/>
<rect x="1170.79" y="366.608" width="120.492" height="21.0886" fill="#BFCFF6"/>
<rect x="1188.33" y="327.443" width="84.6496" height="25.6076" fill="#BFCFF6"/>
<path d="M1201.15 301.835H1260.16L1272.98 327.443H1188.33L1201.15 301.835Z" fill="#3B4779"/>
<path d="M1189.03 353.051H1273.04L1291.28 366.608H1170.79L1189.03 353.051Z" fill="#3B4779"/>
<rect x="1215.78" y="261.918" width="32.0296" height="15.0633" fill="#3B4779"/>
<path d="M1232.18 228.779L1243.74 263.236H1220.62L1232.18 228.779Z" fill="#3B4779"/>
<path d="M1204.34 348.507C1208.71 348.507 1208.13 349.131 1208.13 344.094C1208.13 339.058 1206.44 334.975 1204.34 334.975C1202.25 334.975 1200.56 339.058 1200.56 344.094C1200.56 348.908 1199.97 348.507 1204.34 348.507Z" fill="white"/>
<path d="M1231.03 348.507C1235.4 348.507 1234.82 349.131 1234.82 344.094C1234.82 339.058 1233.13 334.975 1231.03 334.975C1228.94 334.975 1227.25 339.058 1227.25 344.094C1227.25 349.131 1226.67 348.507 1231.03 348.507Z" fill="white"/>
<path d="M1256.96 348.507C1261.33 348.507 1260.75 349.131 1260.75 344.094C1260.75 339.058 1259.06 334.975 1256.96 334.975C1254.87 334.975 1253.18 339.058 1253.18 344.094C1253.18 349.131 1252.59 348.507 1256.96 348.507Z" fill="white"/>
<path d="M1172.27 360.374H1170.83V366.607H1172.27V360.374Z" fill="#3B4779"/>
<path d="M1171.55 357.57L1170.79 360.491H1172.31L1171.55 357.57Z" fill="#3B4779"/>
<path d="M1171.55 358.037C1171.68 358.037 1171.79 357.932 1171.79 357.803C1171.79 357.674 1171.68 357.57 1171.55 357.57C1171.42 357.57 1171.31 357.674 1171.31 357.803C1171.31 357.932 1171.42 358.037 1171.55 358.037Z" fill="#5C71AD"/>
<path d="M1291.24 360.375H1289.8V366.608H1291.24V360.375Z" fill="#3B4779"/>
<path d="M1290.52 357.57L1289.76 360.491H1291.28L1290.52 357.57Z" fill="#3B4779"/>
<path d="M1290.52 358.037C1290.65 358.037 1290.76 357.932 1290.76 357.803C1290.76 357.674 1290.65 357.57 1290.52 357.57C1290.39 357.57 1290.28 357.674 1290.28 357.803C1290.28 357.932 1290.39 358.037 1290.52 358.037Z" fill="#5C71AD"/>
<path d="M1185.5 384.168C1189.56 384.159 1189.02 384.759 1189.01 379.929C1189 375.099 1187.41 371.187 1185.47 371.191C1183.53 371.195 1181.96 375.114 1181.97 379.943C1181.98 384.773 1181.44 384.176 1185.5 384.168Z" fill="white"/>
<path d="M1253.84 384.03C1258.49 384.02 1257.87 384.62 1257.86 379.79C1257.85 374.96 1256.04 371.049 1253.82 371.053C1251.59 371.058 1249.8 374.977 1249.81 379.806C1249.82 384.636 1249.2 384.039 1253.84 384.03Z" fill="white"/>
<path d="M1276.63 383.984C1280.69 383.975 1280.15 384.575 1280.14 379.745C1280.13 374.915 1278.54 371.003 1276.6 371.007C1274.65 371.011 1273.09 374.93 1273.1 379.759C1273.11 384.589 1272.56 383.992 1276.63 383.984Z" fill="white"/>
<path d="M1231.06 384.076C1235.12 384.067 1234.58 384.667 1234.57 379.837C1234.56 375.007 1232.98 371.095 1231.03 371.099C1229.09 371.103 1227.52 375.022 1227.53 379.851C1227.54 384.681 1227 384.084 1231.06 384.076Z" fill="white"/>
<path d="M1208.28 384.122C1212.92 384.112 1212.3 384.712 1212.29 379.882C1212.28 375.053 1210.47 371.141 1208.25 371.145C1206.03 371.15 1204.24 375.069 1204.25 379.898C1204.26 384.728 1203.64 384.131 1208.28 384.122Z" fill="white"/>
<path d="M1530.75 358H1542.9" stroke="#3B4779" stroke-width="3" stroke-linecap="round"/>
<path d="M643.762 607.863C610.348 592.863 181.369 594.497 -47.2962 607.863L-123.237 607.863L-85.2664 847.5H713.121H2002.59C2002.59 750.071 2043.6 613.42 1960.57 635.65C1856.78 663.437 683.908 625.885 643.762 607.863Z" fill="#BFF5FF"/>
<path d="M849.36 842.269C813.611 842.269 682.88 680.96 642.75 609.382L1012.83 628.5L1615.29 638.769H1971.2C1943.86 665.769 1795.14 842.269 1730.48 842.269H849.36Z" fill="#5C71AD" fill-opacity="0.07"/>
<rect x="-6" y="838" width="1944" height="263" fill="url(#paint0_linear_118_2)"/>
<defs>
<linearGradient id="paint0_linear_118_2" x1="966" y1="838" x2="966" y2="1101" gradientUnits="userSpaceOnUse">
<stop stop-color="#BFF5FF"/>
<stop offset="1" stop-color="#ABEFFB" stop-opacity="0"/>
</linearGradient>
</defs>
</svg>
