<svg width="908" height="2454" viewBox="0 0 908 2454" fill="none" xmlns="http://www.w3.org/2000/svg">
<path d="M455.388 1504.84L906.414 1317.84L906.414 2077.14L455.386 2285.86L455.388 1504.84Z" fill="#FF3535" fill-opacity="0.2" stroke="#FF7979" stroke-width="3"/>
<path d="M467.51 1980.42L626.633 1838.14L894.287 1727.17L894.287 2069.13L467.51 2264.86L467.51 1980.42Z" fill="#FF3535" fill-opacity="0.2" stroke="#FF7979" stroke-width="3"/>
<path d="M829.241 1776.86L809.067 1785.23L809.067 1794.89C809.929 1793.5 811.136 1792.16 812.688 1790.87C814.24 1789.57 815.921 1788.55 817.731 1787.8C820.964 1786.46 823.637 1786.14 825.75 1786.85C827.905 1787.54 829.478 1788.95 830.47 1791.05C831.461 1793.16 831.957 1795.69 831.957 1798.63C831.957 1804.09 830.535 1809.02 827.689 1813.42C824.844 1817.77 820.835 1821.02 815.662 1823.16C812.213 1824.59 809.217 1825.21 806.674 1825C804.131 1824.75 802.169 1823.76 800.79 1822.05C799.41 1820.34 798.656 1818.01 798.527 1815.08L809.325 1810.6C809.584 1811.94 810.209 1812.89 811.2 1813.46C812.192 1813.99 813.55 1813.89 815.274 1813.17C817.3 1812.33 818.809 1811.01 819.801 1809.2C820.792 1807.39 821.288 1805.31 821.288 1802.98C821.288 1800.69 820.771 1799.16 819.736 1798.37C818.701 1797.59 817.193 1797.61 815.21 1798.43C813.744 1799.04 812.537 1799.94 811.588 1801.12C810.64 1802.26 810.015 1803.53 809.713 1804.91L799.044 1809.33L799.044 1778.88L829.241 1766.36L829.241 1776.86ZM871.944 1780.72L860.693 1785.38L860.693 1797.84L850.217 1802.19L850.217 1789.73L838.966 1794.39L838.966 1783.68L850.217 1779.02L850.217 1766.49L860.693 1762.14L860.693 1774.67L871.944 1770.01L871.944 1780.72Z" fill="white"/>
<path d="M740.177 1877.65L735.604 1897.02L733.803 1897.77L729.739 1884.56L725.582 1901.18L723.826 1901.93L719.346 1886.29L721.078 1885.57L724.773 1899.36L728.907 1882.32L730.708 1881.58L734.727 1895.24L738.445 1878.37L740.177 1877.65ZM749.901 1891.27C748.408 1891.89 747.053 1892.08 745.837 1891.83C744.62 1891.57 743.658 1890.91 742.95 1889.85C742.257 1888.77 741.911 1887.38 741.911 1885.66C741.911 1883.94 742.257 1882.27 742.95 1880.63C743.658 1878.97 744.62 1877.51 745.837 1876.26C747.053 1874.99 748.408 1874.04 749.901 1873.42C751.41 1872.8 752.773 1872.61 753.989 1872.88C755.205 1873.12 756.16 1873.78 756.852 1874.86C757.545 1875.93 757.892 1877.32 757.892 1879.03C757.892 1880.75 757.545 1882.43 756.852 1884.09C756.16 1885.73 755.205 1887.18 753.989 1888.45C752.773 1889.71 751.41 1890.65 749.901 1891.27ZM749.901 1889.75C751.102 1889.25 752.18 1888.5 753.134 1887.51C754.089 1886.51 754.843 1885.34 755.398 1883.99C755.952 1882.63 756.229 1881.21 756.229 1879.72C756.229 1878.24 755.952 1877.05 755.398 1876.17C754.843 1875.28 754.089 1874.73 753.134 1874.53C752.18 1874.33 751.102 1874.47 749.901 1874.97C748.7 1875.47 747.623 1876.22 746.668 1877.21C745.714 1878.21 744.959 1879.38 744.405 1880.72C743.851 1882.07 743.574 1883.49 743.574 1884.97C743.574 1886.45 743.851 1887.65 744.405 1888.55C744.959 1889.44 745.714 1889.98 746.668 1890.19C747.623 1890.39 748.7 1890.24 749.901 1889.75ZM769.441 1882.99L765.445 1877.35L762.466 1878.59L762.466 1885.89L760.85 1886.56L760.85 1869.08L765.699 1867.07C767.501 1866.32 768.863 1866.23 769.787 1866.78C770.726 1867.32 771.196 1868.35 771.196 1869.87C771.196 1871.13 770.857 1872.36 770.18 1873.54C769.518 1874.7 768.532 1875.68 767.224 1876.49L771.38 1882.19L769.441 1882.99ZM762.466 1877.16L765.722 1875.81C766.985 1875.29 767.932 1874.56 768.563 1873.63C769.21 1872.7 769.533 1871.67 769.533 1870.56C769.533 1869.41 769.225 1868.65 768.609 1868.29C767.993 1867.91 767.023 1868 765.699 1868.55L762.466 1869.89L762.466 1877.16ZM783.018 1877.37L776.02 1872.19L776.02 1880.27L774.404 1880.94L774.404 1863.46L776.02 1862.79L776.02 1870.97L783.018 1859.89L785.073 1859.04L777.521 1870.89L785.142 1876.48L783.018 1877.37ZM792.425 1873.64C791.363 1874.08 790.424 1874.27 789.608 1874.21C788.807 1874.14 788.176 1873.84 787.714 1873.32C787.252 1872.79 787.006 1872.1 786.975 1871.22L788.684 1870.52C788.761 1871.33 789.107 1871.94 789.723 1872.34C790.339 1872.71 791.24 1872.66 792.425 1872.17C793.518 1871.71 794.38 1871.05 795.012 1870.19C795.658 1869.31 795.982 1868.4 795.982 1867.47C795.982 1866.72 795.805 1866.19 795.451 1865.89C795.096 1865.57 794.658 1865.41 794.134 1865.41C793.611 1865.39 792.887 1865.44 791.963 1865.56C790.886 1865.69 790.031 1865.73 789.4 1865.69C788.769 1865.66 788.23 1865.41 787.783 1864.96C787.337 1864.52 787.114 1863.75 787.114 1862.67C787.114 1861.77 787.329 1860.88 787.76 1860C788.191 1859.1 788.799 1858.29 789.585 1857.57C790.37 1856.84 791.271 1856.27 792.287 1855.85C793.78 1855.23 794.981 1855.13 795.889 1855.55C796.813 1855.95 797.344 1856.75 797.483 1857.94L795.728 1858.67C795.62 1858 795.258 1857.52 794.642 1857.22C794.026 1856.91 793.195 1856.97 792.148 1857.41C791.178 1857.81 790.37 1858.43 789.723 1859.26C789.077 1860.08 788.753 1860.97 788.753 1861.94C788.753 1862.67 788.93 1863.19 789.284 1863.49C789.639 1863.8 790.077 1863.96 790.601 1863.97C791.14 1863.98 791.863 1863.93 792.772 1863.82C793.819 1863.7 794.665 1863.67 795.312 1863.72C795.959 1863.75 796.505 1863.99 796.952 1864.44C797.398 1864.89 797.621 1865.64 797.621 1866.71C797.621 1867.53 797.421 1868.39 797.021 1869.28C796.621 1870.18 796.028 1871.02 795.243 1871.8C794.457 1872.57 793.518 1873.19 792.425 1873.64ZM812.731 1847.57L812.731 1865.05L811.114 1865.72L811.114 1857.54L802.362 1861.17L802.362 1869.35L800.745 1870.02L800.745 1852.54L802.362 1851.87L802.362 1859.72L811.114 1856.09L811.114 1848.24L812.731 1847.57ZM823.671 1860.69C822.177 1861.31 820.822 1861.49 819.606 1861.25C818.39 1860.98 817.428 1860.32 816.719 1859.27C816.027 1858.19 815.68 1856.79 815.68 1855.07C815.68 1853.36 816.027 1851.68 816.719 1850.04C817.428 1848.38 818.39 1846.93 819.606 1845.67C820.822 1844.4 822.177 1843.46 823.671 1842.84C825.179 1842.21 826.542 1842.03 827.758 1842.29C828.974 1842.54 829.929 1843.2 830.622 1844.28C831.315 1845.34 831.661 1846.73 831.661 1848.45C831.661 1850.16 831.315 1851.85 830.622 1853.5C829.929 1855.14 828.974 1856.6 827.758 1857.87C826.542 1859.12 825.179 1860.06 823.671 1860.69ZM823.671 1859.16C824.871 1858.66 825.949 1857.92 826.904 1856.92C827.858 1855.92 828.613 1854.75 829.167 1853.41C829.721 1852.04 829.998 1850.62 829.998 1849.14C829.998 1847.65 829.721 1846.47 829.167 1845.58C828.613 1844.7 827.858 1844.15 826.904 1843.95C825.949 1843.74 824.871 1843.89 823.671 1844.39C822.47 1844.88 821.392 1845.63 820.437 1846.63C819.483 1847.62 818.729 1848.79 818.174 1850.14C817.62 1851.49 817.343 1852.9 817.343 1854.38C817.343 1855.87 817.62 1857.06 818.174 1857.96C818.729 1858.85 819.483 1859.4 820.437 1859.6C821.392 1859.81 822.47 1859.66 823.671 1859.16ZM844.942 1839.24C844.942 1840.74 844.488 1842.14 843.579 1843.43C842.671 1844.72 841.309 1845.75 839.492 1846.5L836.236 1847.85L836.236 1855.3L834.619 1855.97L834.619 1838.5L839.492 1836.48C841.293 1835.73 842.648 1835.63 843.556 1836.17C844.48 1836.7 844.942 1837.73 844.942 1839.24ZM839.492 1845C842.017 1843.95 843.279 1842.26 843.279 1839.93C843.279 1838.76 842.979 1838.01 842.379 1837.65C841.778 1837.3 840.816 1837.4 839.492 1837.95L836.236 1839.3L836.236 1846.35L839.492 1845ZM852.55 1848.71C851.488 1849.15 850.549 1849.34 849.733 1849.28C848.932 1849.21 848.301 1848.92 847.839 1848.39C847.377 1847.87 847.131 1847.17 847.1 1846.3L848.809 1845.59C848.886 1846.41 849.233 1847.01 849.848 1847.41C850.464 1847.79 851.365 1847.73 852.55 1847.24C853.643 1846.78 854.506 1846.13 855.137 1845.26C855.783 1844.38 856.107 1843.47 856.107 1842.54C856.107 1841.79 855.93 1841.26 855.576 1840.96C855.222 1840.64 854.783 1840.48 854.259 1840.48C853.736 1840.46 853.012 1840.51 852.088 1840.63C851.011 1840.76 850.156 1840.8 849.525 1840.77C848.894 1840.73 848.355 1840.48 847.908 1840.04C847.462 1839.59 847.239 1838.82 847.239 1837.74C847.239 1836.84 847.454 1835.95 847.885 1835.07C848.316 1834.18 848.925 1833.37 849.71 1832.64C850.495 1831.91 851.396 1831.34 852.412 1830.92C853.905 1830.3 855.106 1830.2 856.014 1830.63C856.938 1831.03 857.469 1831.82 857.608 1833.02L855.853 1833.74C855.745 1833.07 855.383 1832.59 854.767 1832.29C854.151 1831.98 853.32 1832.04 852.273 1832.48C851.303 1832.88 850.495 1833.5 849.848 1834.33C849.202 1835.15 848.878 1836.04 848.878 1837.01C848.878 1837.74 849.055 1838.26 849.41 1838.56C849.764 1838.87 850.202 1839.03 850.726 1839.04C851.265 1839.05 851.988 1839 852.897 1838.89C853.944 1838.78 854.79 1838.74 855.437 1838.79C856.084 1838.82 856.63 1839.06 857.077 1839.51C857.523 1839.96 857.746 1840.72 857.746 1841.78C857.746 1842.6 857.546 1843.46 857.146 1844.36C856.746 1845.26 856.153 1846.09 855.368 1846.87C854.583 1847.64 853.643 1848.26 852.55 1848.71ZM874.39 1815.98L868.016 1846.28L866.422 1846.94L872.75 1816.66L874.39 1815.98ZM794.695 1906.37L787.351 1909.42L785.942 1914.15L784.233 1914.86L790.122 1895.17L791.947 1894.41L797.812 1909.23L796.103 1909.94L794.695 1906.37ZM794.21 1905.13L791.023 1897L787.836 1907.77L794.21 1905.13ZM809.852 1886.76L809.852 1888.21L805.372 1890.07L805.372 1906.1L803.755 1906.77L803.755 1890.74L799.252 1892.61L799.252 1891.16L809.852 1886.76ZM814.021 1886.46L814.021 1892.99L820.141 1890.45L820.141 1891.9L814.021 1894.44L814.021 1901.06L820.834 1898.24L820.834 1899.69L812.405 1903.18L812.405 1885.68L820.834 1882.19L820.834 1883.64L814.021 1886.46ZM825.636 1896.27L831.432 1893.87L831.432 1895.29L824.019 1898.37L824.019 1880.89L825.636 1880.22L825.636 1896.27ZM835.356 1876.19L835.356 1893.67L833.74 1894.34L833.74 1876.86L835.356 1876.19ZM840.633 1875.43L840.633 1881.95L846.753 1879.42L846.753 1880.87L840.633 1883.4L840.633 1890.03L847.446 1887.2L847.446 1888.65L839.017 1892.15L839.017 1874.65L847.446 1871.15L847.446 1872.6L840.633 1875.43ZM859.222 1883.77L855.227 1878.13L852.248 1879.36L852.248 1886.66L850.631 1887.33L850.631 1869.86L855.481 1867.85C857.282 1867.1 858.645 1867 859.569 1867.55C860.508 1868.1 860.977 1869.13 860.977 1870.64C860.977 1871.91 860.639 1873.13 859.961 1874.31C859.299 1875.47 858.314 1876.46 857.005 1877.27L861.162 1882.97L859.222 1883.77ZM852.248 1877.94L855.504 1876.59C856.767 1876.06 857.713 1875.34 858.345 1874.41C858.991 1873.48 859.315 1872.45 859.315 1871.33C859.315 1870.18 859.007 1869.43 858.391 1869.07C857.775 1868.69 856.805 1868.77 855.481 1869.32L852.248 1870.66L852.248 1877.94ZM869.081 1879.86C868.019 1880.3 867.08 1880.49 866.264 1880.43C865.463 1880.36 864.832 1880.06 864.37 1879.54C863.908 1879.01 863.662 1878.31 863.631 1877.44L865.34 1876.73C865.417 1877.55 865.764 1878.16 866.379 1878.55C866.995 1878.93 867.896 1878.87 869.081 1878.38C870.174 1877.93 871.037 1877.27 871.668 1876.41C872.314 1875.53 872.638 1874.62 872.638 1873.68C872.638 1872.93 872.461 1872.41 872.107 1872.1C871.753 1871.78 871.314 1871.62 870.79 1871.62C870.267 1871.61 869.543 1871.66 868.619 1871.77C867.542 1871.91 866.687 1871.95 866.056 1871.91C865.425 1871.87 864.886 1871.63 864.439 1871.18C863.993 1870.73 863.77 1869.97 863.77 1868.89C863.77 1867.99 863.985 1867.1 864.416 1866.22C864.847 1865.32 865.456 1864.51 866.241 1863.79C867.026 1863.06 867.927 1862.49 868.943 1862.07C870.436 1861.45 871.637 1861.35 872.545 1861.77C873.469 1862.17 874 1862.97 874.139 1864.16L872.384 1864.89C872.276 1864.22 871.914 1863.73 871.298 1863.44C870.683 1863.13 869.851 1863.19 868.804 1863.62C867.834 1864.03 867.026 1864.64 866.379 1865.48C865.733 1866.3 865.409 1867.19 865.409 1868.16C865.409 1868.89 865.586 1869.41 865.941 1869.71C866.295 1870.01 866.733 1870.17 867.257 1870.19C867.796 1870.2 868.519 1870.15 869.428 1870.04C870.475 1869.92 871.321 1869.89 871.968 1869.94C872.615 1869.97 873.161 1870.21 873.608 1870.66C874.054 1871.11 874.277 1871.86 874.277 1872.93C874.277 1873.75 874.077 1874.6 873.677 1875.5C873.277 1876.4 872.684 1877.24 871.899 1878.02C871.114 1878.79 870.174 1879.41 869.081 1879.86Z" fill="white"/>
<path d="M620.575 1831.32L467.51 1969.23L467.51 1759.05L667.908 1675.96L669.294 1675.39L669.294 1673.89L669.294 1628.71L894.287 1535.43L894.287 1717.7L621.143 1830.95L620.846 1831.07L620.575 1831.32Z" fill="#FF3535" fill-opacity="0.2" stroke="#FF7979" stroke-width="3"/>
<path d="M750.359 1649.25C750.359 1651.82 749.734 1654.46 748.484 1657.17C747.277 1659.81 745.466 1662.34 743.052 1664.74C740.681 1667.08 737.857 1668.99 734.581 1670.49L734.581 1676.16L730.443 1677.88L730.443 1672.14C725.873 1673.61 722.188 1673.67 719.386 1672.31C716.583 1670.91 715.096 1668.05 714.924 1663.73L726.692 1658.85C726.951 1661.54 728.201 1662.82 730.443 1662.69L730.443 1651.63C727.08 1652.09 724.386 1652.29 722.36 1652.25C720.377 1652.18 718.631 1651.48 717.122 1650.15C715.614 1648.81 714.859 1646.44 714.859 1643.04C714.859 1638.79 716.303 1634.79 719.192 1631.02C722.123 1627.24 725.873 1624.24 730.443 1622.02L730.443 1616.35L734.581 1614.63L734.581 1620.3C739.108 1618.8 742.686 1618.74 745.315 1620.12C747.945 1621.5 749.411 1624.33 749.712 1628.59L737.879 1633.49C737.62 1631.08 736.521 1629.9 734.581 1629.96L734.581 1640.81C738.159 1640.4 740.918 1640.21 742.858 1640.25C744.798 1640.29 746.522 1640.97 748.031 1642.3C749.583 1643.57 750.359 1645.89 750.359 1649.25ZM726.563 1637.63C726.563 1638.79 726.886 1639.64 727.533 1640.16C728.223 1640.67 729.193 1640.97 730.443 1641.06L730.443 1631.33C729.236 1632.06 728.287 1632.97 727.598 1634.05C726.908 1635.08 726.563 1636.27 726.563 1637.63ZM734.581 1661.18C735.874 1660.41 736.888 1659.43 737.62 1658.24C738.396 1657.03 738.784 1655.77 738.784 1654.47C738.784 1653.25 738.418 1652.43 737.685 1651.98C736.995 1651.48 735.961 1651.23 734.581 1651.24L734.581 1661.18ZM757.873 1623.73C758.045 1618.67 759.554 1614.19 762.399 1610.31C765.244 1606.42 769.103 1603.47 773.974 1601.45C777.207 1600.11 779.966 1599.57 782.251 1599.84C784.579 1600.09 786.325 1601.02 787.488 1602.64C788.695 1604.24 789.299 1606.34 789.299 1608.95C789.299 1612.03 788.588 1614.85 787.165 1617.4C785.743 1619.9 784.083 1621.9 782.186 1623.38L782.186 1623.66C784.643 1623.53 786.583 1624.2 788.006 1625.66C789.428 1627.12 790.14 1629.47 790.14 1632.69C790.14 1635.58 789.515 1638.41 788.264 1641.16C787.057 1643.86 785.268 1646.33 782.897 1648.57C780.57 1650.79 777.789 1652.58 774.556 1653.92C769.383 1656.06 765.244 1656.4 762.141 1654.93C759.08 1653.45 757.463 1649.97 757.291 1644.49L768.025 1640.04C768.068 1642.07 768.607 1643.48 769.642 1644.26C770.676 1645 772.185 1644.96 774.168 1644.14C775.849 1643.44 777.142 1642.39 778.048 1640.99C778.996 1639.52 779.47 1637.93 779.47 1636.2C779.47 1633.96 778.802 1632.63 777.466 1632.2C776.172 1631.71 774.082 1632.06 771.193 1633.26L769.124 1634.12L769.124 1624.39L771.193 1623.53C773.392 1622.62 775.159 1621.49 776.496 1620.14C777.875 1618.73 778.565 1616.98 778.565 1614.88C778.565 1613.2 778.134 1612.07 777.272 1611.49C776.41 1610.92 775.224 1610.94 773.715 1611.57C772.077 1612.25 770.849 1613.29 770.03 1614.7C769.254 1616.1 768.801 1617.62 768.672 1619.26L757.873 1623.73ZM829.873 1589.89L809.698 1598.26L809.698 1607.92C810.56 1606.53 811.767 1605.19 813.319 1603.9C814.871 1602.6 816.552 1601.58 818.363 1600.82C821.596 1599.48 824.269 1599.17 826.381 1599.88C828.536 1600.57 830.11 1601.97 831.101 1604.08C832.093 1606.19 832.589 1608.72 832.589 1611.66C832.589 1617.12 831.166 1622.05 828.321 1626.45C825.476 1630.8 821.467 1634.05 816.294 1636.19C812.845 1637.62 809.849 1638.23 807.306 1638.03C804.762 1637.78 802.801 1636.79 801.421 1635.08C800.042 1633.36 799.287 1631.04 799.158 1628.11L809.957 1623.63C810.215 1624.97 810.84 1625.92 811.832 1626.49C812.823 1627.01 814.181 1626.92 815.906 1626.2C817.932 1625.36 819.441 1624.04 820.432 1622.23C821.424 1620.42 821.919 1618.34 821.919 1616.01C821.919 1613.72 821.402 1612.19 820.367 1611.4C819.333 1610.62 817.824 1610.64 815.841 1611.46C814.375 1612.07 813.168 1612.97 812.22 1614.15C811.271 1615.29 810.646 1616.55 810.345 1617.94L799.675 1622.36L799.675 1591.91L829.873 1579.39L829.873 1589.89ZM861.841 1617.31L850.849 1605.49L850.849 1621.87L839.791 1626.45L839.791 1574.65L850.849 1570.07L850.849 1598.7L861.777 1578.28L875.421 1572.62L860.419 1598.44L875.55 1611.62L861.841 1617.31Z" fill="white"/>
<path d="M680.713 1723.31L680.713 1740.78L679.097 1741.45L679.097 1723.98L680.713 1723.31ZM696.544 1734.22L694.928 1734.89L685.991 1723.89L685.991 1738.59L684.374 1739.26L684.374 1721.79L685.991 1721.12L694.928 1732.09L694.928 1717.41L696.544 1716.74L696.544 1734.22ZM716.866 1713.34C716.866 1714.84 716.412 1716.24 715.504 1717.53C714.595 1718.83 713.233 1719.85 711.416 1720.6L708.16 1721.95L708.16 1729.4L706.543 1730.07L706.543 1712.6L711.416 1710.58C713.217 1709.83 714.572 1709.73 715.48 1710.27C716.404 1710.8 716.866 1711.83 716.866 1713.34ZM711.416 1719.1C713.941 1718.06 715.203 1716.36 715.203 1714.03C715.203 1712.86 714.903 1712.11 714.303 1711.76C713.702 1711.4 712.74 1711.5 711.416 1712.05L708.16 1713.4L708.16 1720.45L711.416 1719.1ZM728.169 1721.11L724.174 1715.46L721.195 1716.7L721.195 1724L719.578 1724.67L719.578 1707.19L724.428 1705.18C726.23 1704.44 727.592 1704.34 728.516 1704.89C729.455 1705.43 729.925 1706.46 729.925 1707.98C729.925 1709.24 729.586 1710.47 728.908 1711.65C728.246 1712.81 727.261 1713.79 725.952 1714.6L730.109 1720.3L728.169 1721.11ZM721.195 1715.27L724.451 1713.92C725.714 1713.4 726.661 1712.67 727.292 1711.74C727.938 1710.81 728.262 1709.78 728.262 1708.67C728.262 1707.52 727.954 1706.76 727.338 1706.4C726.722 1706.02 725.752 1706.11 724.428 1706.66L721.195 1708L721.195 1715.27ZM734.749 1700.9L734.749 1718.38L733.133 1719.05L733.133 1701.57L734.749 1700.9ZM739.449 1714.88L747.694 1711.46L747.694 1713.01L737.555 1717.21L737.555 1715.81L745.684 1697.92L737.694 1701.23L737.694 1699.68L747.578 1695.58L747.578 1696.98L739.449 1714.88ZM752.16 1695.11L752.16 1701.63L758.28 1699.1L758.28 1700.55L752.16 1703.08L752.16 1709.71L758.972 1706.88L758.972 1708.33L750.543 1711.83L750.543 1694.33L758.972 1690.83L758.972 1692.28L752.16 1695.11ZM767.054 1705.16C765.991 1705.6 765.052 1705.79 764.236 1705.73C763.436 1705.66 762.804 1705.36 762.342 1704.84C761.881 1704.31 761.634 1703.61 761.603 1702.74L763.312 1702.04C763.389 1702.85 763.736 1703.46 764.352 1703.85C764.967 1704.23 765.868 1704.18 767.054 1703.68C768.147 1703.23 769.009 1702.57 769.64 1701.71C770.287 1700.83 770.61 1699.92 770.61 1698.98C770.61 1698.23 770.433 1697.71 770.079 1697.41C769.725 1697.09 769.286 1696.93 768.763 1696.93C768.239 1696.91 767.515 1696.96 766.592 1697.08C765.514 1697.21 764.66 1697.25 764.028 1697.21C763.397 1697.18 762.858 1696.93 762.412 1696.48C761.965 1696.04 761.742 1695.27 761.742 1694.19C761.742 1693.29 761.958 1692.4 762.389 1691.52C762.82 1690.62 763.428 1689.81 764.213 1689.09C764.998 1688.36 765.899 1687.79 766.915 1687.37C768.408 1686.75 769.609 1686.65 770.518 1687.07C771.441 1687.47 771.973 1688.27 772.111 1689.46L770.356 1690.19C770.248 1689.52 769.886 1689.03 769.271 1688.74C768.655 1688.43 767.823 1688.49 766.776 1688.92C765.807 1689.33 764.998 1689.94 764.352 1690.78C763.705 1691.6 763.382 1692.49 763.382 1693.46C763.382 1694.19 763.559 1694.71 763.913 1695.01C764.267 1695.31 764.706 1695.47 765.229 1695.49C765.768 1695.5 766.492 1695.45 767.4 1695.34C768.447 1695.22 769.294 1695.19 769.94 1695.24C770.587 1695.27 771.134 1695.51 771.58 1695.96C772.026 1696.41 772.25 1697.16 772.25 1698.23C772.25 1699.05 772.05 1699.9 771.649 1700.8C771.249 1701.7 770.656 1702.54 769.871 1703.32C769.086 1704.09 768.147 1704.71 767.054 1705.16ZM788.893 1672.43L782.519 1702.72L780.926 1703.38L787.253 1673.11L788.893 1672.43ZM799.858 1675.33L799.858 1681.86L805.978 1679.32L805.978 1680.77L799.858 1683.31L799.858 1689.93L806.671 1687.11L806.671 1688.56L798.242 1692.05L798.242 1674.55L806.671 1671.06L806.671 1672.51L799.858 1675.33ZM822.027 1682.19L820.41 1682.86L811.473 1671.87L811.473 1686.57L809.856 1687.24L809.856 1669.76L811.473 1669.09L820.41 1680.06L820.41 1665.39L822.027 1664.72L822.027 1682.19ZM842.348 1661.32C842.348 1662.82 841.894 1664.21 840.986 1665.51C840.078 1666.8 838.715 1667.82 836.898 1668.58L833.642 1669.93L833.642 1677.38L832.026 1678.05L832.026 1660.57L836.898 1658.55C838.7 1657.8 840.054 1657.7 840.963 1658.24C841.887 1658.78 842.348 1659.8 842.348 1661.32ZM836.898 1667.08C839.423 1666.03 840.686 1664.34 840.686 1662.01C840.686 1660.84 840.385 1660.08 839.785 1659.73C839.185 1659.38 838.222 1659.48 836.898 1660.03L833.642 1661.38L833.642 1668.43L836.898 1667.08ZM853.652 1669.08L849.657 1663.44L846.677 1664.67L846.677 1671.97L845.061 1672.64L845.061 1655.17L849.911 1653.16C851.712 1652.41 853.074 1652.31 853.998 1652.86C854.937 1653.41 855.407 1654.44 855.407 1655.95C855.407 1657.22 855.068 1658.44 854.391 1659.62C853.729 1660.78 852.743 1661.77 851.435 1662.57L855.592 1668.28L853.652 1669.08ZM846.677 1663.25L849.934 1661.9C851.196 1661.37 852.143 1660.65 852.774 1659.72C853.421 1658.78 853.744 1657.76 853.744 1656.64C853.744 1655.49 853.436 1654.74 852.82 1654.38C852.205 1654 851.235 1654.08 849.911 1654.63L846.677 1655.97L846.677 1663.25ZM860.232 1648.88L860.232 1666.35L858.615 1667.02L858.615 1649.55L860.232 1648.88ZM869.712 1653.7L874.608 1660.39L872.806 1661.14L868.696 1655.54L864.793 1664.46L862.992 1665.21L867.864 1654.39L862.992 1647.73L864.793 1646.99L868.881 1652.57L872.83 1643.65L874.631 1642.91L869.712 1653.7Z" fill="white"/>
<path d="M656.131 1625.49L656.131 1670.67L467.51 1748.87L467.51 1512.02L894.287 1335.08L894.287 1525.25L657.516 1623.42L656.131 1623.99L656.131 1625.49Z" fill="#FF3535" fill-opacity="0.2" stroke="#FF7979" stroke-width="3"/>
<path d="M770.403 1419.92L770.403 1408.79L788.314 1401.37L788.314 1452.47L776.804 1457.24L776.804 1417.27L770.403 1419.92ZM795.878 1423.08C795.878 1415.05 797.301 1408.14 800.146 1402.34C803.034 1396.52 807.669 1392.29 814.049 1389.65C820.429 1387 825.041 1387.4 827.886 1390.84C830.775 1394.26 832.219 1399.99 832.219 1408.01C832.219 1416.13 830.775 1423.1 827.886 1428.92C825.041 1434.72 820.429 1438.94 814.049 1441.59C807.669 1444.23 803.034 1443.84 800.146 1440.42C797.301 1436.98 795.878 1431.2 795.878 1423.08ZM821.356 1412.52C821.356 1407.8 820.881 1404.38 819.933 1402.26C818.985 1400.08 817.023 1399.61 814.049 1400.85C811.074 1402.08 809.113 1404.18 808.164 1407.14C807.216 1410.05 806.742 1413.86 806.742 1418.58C806.742 1421.75 806.914 1424.31 807.259 1426.27C807.604 1428.18 808.294 1429.58 809.328 1430.45C810.406 1431.27 811.979 1431.24 814.049 1430.39C816.118 1429.53 817.67 1428.26 818.704 1426.57C819.782 1424.81 820.493 1422.84 820.838 1420.64C821.183 1418.4 821.356 1415.69 821.356 1412.52ZM871.944 1398.68L860.693 1403.35L860.693 1415.81L850.217 1420.15L850.217 1407.69L838.966 1412.36L838.966 1401.65L850.217 1396.98L850.217 1384.45L860.693 1380.11L860.693 1392.64L871.944 1387.97L871.944 1398.68Z" fill="white"/>
<path d="M747.298 1516.35C746.235 1516.79 745.296 1516.98 744.48 1516.92C743.68 1516.85 743.048 1516.55 742.586 1516.03C742.125 1515.5 741.878 1514.81 741.847 1513.93L743.556 1513.23C743.633 1514.04 743.98 1514.65 744.596 1515.05C745.211 1515.42 746.112 1515.37 747.298 1514.88C748.391 1514.42 749.253 1513.76 749.884 1512.9C750.531 1512.02 750.854 1511.11 750.854 1510.18C750.854 1509.43 750.677 1508.9 750.323 1508.6C749.969 1508.28 749.53 1508.12 749.007 1508.12C748.483 1508.1 747.759 1508.15 746.836 1508.27C745.758 1508.4 744.904 1508.44 744.272 1508.4C743.641 1508.37 743.102 1508.12 742.656 1507.67C742.209 1507.23 741.986 1506.46 741.986 1505.38C741.986 1504.48 742.202 1503.59 742.633 1502.71C743.064 1501.81 743.672 1501 744.457 1500.28C745.242 1499.55 746.143 1498.98 747.159 1498.56C748.652 1497.94 749.853 1497.84 750.762 1498.26C751.685 1498.66 752.217 1499.46 752.355 1500.65L750.6 1501.38C750.492 1500.71 750.13 1500.23 749.515 1499.93C748.899 1499.62 748.067 1499.68 747.02 1500.12C746.05 1500.52 745.242 1501.14 744.596 1501.97C743.949 1502.79 743.626 1503.68 743.626 1504.65C743.626 1505.38 743.803 1505.9 744.157 1506.2C744.511 1506.51 744.95 1506.67 745.473 1506.68C746.012 1506.69 746.736 1506.64 747.644 1506.53C748.691 1506.41 749.538 1506.38 750.184 1506.43C750.831 1506.46 751.377 1506.7 751.824 1507.15C752.27 1507.6 752.494 1508.35 752.494 1509.42C752.494 1510.24 752.294 1511.1 751.893 1511.99C751.493 1512.89 750.9 1513.73 750.115 1514.51C749.33 1515.28 748.391 1515.9 747.298 1516.35ZM765.94 1496C765.94 1497.5 765.486 1498.89 764.578 1500.19C763.67 1501.48 762.307 1502.5 760.49 1503.26L757.234 1504.61L757.234 1512.06L755.617 1512.73L755.617 1495.25L760.49 1493.23C762.292 1492.48 763.646 1492.38 764.555 1492.92C765.479 1493.45 765.94 1494.48 765.94 1496ZM760.49 1501.76C763.015 1500.71 764.278 1499.02 764.278 1496.69C764.278 1495.52 763.977 1494.76 763.377 1494.41C762.777 1494.06 761.814 1494.16 760.49 1494.71L757.234 1496.06L757.234 1503.11L760.49 1501.76ZM775.904 1504.49C774.411 1505.11 773.056 1505.3 771.84 1505.05C770.624 1504.79 769.661 1504.13 768.953 1503.07C768.26 1501.99 767.914 1500.59 767.914 1498.88C767.914 1497.16 768.26 1495.48 768.953 1493.85C769.661 1492.19 770.624 1490.73 771.84 1489.48C773.056 1488.2 774.411 1487.26 775.904 1486.64C777.413 1486.01 778.776 1485.83 779.992 1486.1C781.208 1486.34 782.163 1487 782.856 1488.08C783.548 1489.15 783.895 1490.54 783.895 1492.25C783.895 1493.97 783.548 1495.65 782.856 1497.31C782.163 1498.95 781.208 1500.4 779.992 1501.67C778.776 1502.92 777.413 1503.86 775.904 1504.49ZM775.904 1502.96C777.105 1502.47 778.183 1501.72 779.137 1500.72C780.092 1499.73 780.846 1498.56 781.401 1497.21C781.955 1495.85 782.232 1494.42 782.232 1492.94C782.232 1491.46 781.955 1490.27 781.401 1489.39C780.846 1488.5 780.092 1487.95 779.137 1487.75C778.183 1487.55 777.105 1487.69 775.904 1488.19C774.703 1488.69 773.626 1489.43 772.671 1490.43C771.717 1491.43 770.962 1492.6 770.408 1493.94C769.854 1495.29 769.577 1496.71 769.577 1498.19C769.577 1499.67 769.854 1500.87 770.408 1501.77C770.962 1502.66 771.717 1503.2 772.671 1503.41C773.626 1503.61 774.703 1503.46 775.904 1502.96ZM799.023 1494.73L797.407 1495.4L788.469 1484.41L788.469 1499.11L786.853 1499.78L786.853 1482.3L788.469 1481.63L797.407 1492.6L797.407 1477.92L799.023 1477.25L799.023 1494.73ZM807.581 1491.36C806.518 1491.8 805.579 1491.99 804.763 1491.92C803.963 1491.86 803.331 1491.56 802.869 1491.04C802.408 1490.51 802.161 1489.81 802.13 1488.94L803.839 1488.23C803.916 1489.05 804.263 1489.66 804.879 1490.05C805.494 1490.43 806.395 1490.37 807.581 1489.88C808.674 1489.43 809.536 1488.77 810.167 1487.91C810.814 1487.02 811.137 1486.12 811.137 1485.18C811.137 1484.43 810.96 1483.91 810.606 1483.6C810.252 1483.28 809.813 1483.12 809.289 1483.12C808.766 1483.11 808.042 1483.16 807.119 1483.27C806.041 1483.4 805.186 1483.45 804.555 1483.41C803.924 1483.37 803.385 1483.13 802.939 1482.68C802.492 1482.23 802.269 1481.47 802.269 1480.38C802.269 1479.48 802.484 1478.59 802.916 1477.72C803.347 1476.82 803.955 1476.01 804.74 1475.28C805.525 1474.56 806.426 1473.99 807.442 1473.56C808.935 1472.95 810.136 1472.85 811.045 1473.27C811.968 1473.67 812.5 1474.47 812.638 1475.66L810.883 1476.39C810.775 1475.72 810.413 1475.23 809.798 1474.94C809.182 1474.63 808.35 1474.69 807.303 1475.12C806.333 1475.52 805.525 1476.14 804.879 1476.98C804.232 1477.8 803.909 1478.69 803.909 1479.65C803.909 1480.39 804.086 1480.91 804.44 1481.21C804.794 1481.51 805.233 1481.67 805.756 1481.69C806.295 1481.7 807.019 1481.65 807.927 1481.54C808.974 1481.42 809.821 1481.39 810.467 1481.43C811.114 1481.47 811.66 1481.71 812.107 1482.16C812.553 1482.6 812.777 1483.36 812.777 1484.43C812.777 1485.24 812.576 1486.1 812.176 1487C811.776 1487.9 811.183 1488.74 810.398 1489.51C809.613 1490.29 808.674 1490.9 807.581 1491.36ZM823.152 1484.9C821.658 1485.52 820.304 1485.71 819.087 1485.46C817.871 1485.2 816.909 1484.54 816.201 1483.48C815.508 1482.4 815.161 1481.01 815.161 1479.29C815.161 1477.57 815.508 1475.9 816.201 1474.26C816.909 1472.6 817.871 1471.14 819.087 1469.89C820.304 1468.62 821.658 1467.67 823.152 1467.05C824.661 1466.43 826.023 1466.24 827.24 1466.51C828.456 1466.75 829.41 1467.41 830.103 1468.49C830.796 1469.56 831.142 1470.95 831.142 1472.66C831.142 1474.38 830.796 1476.07 830.103 1477.72C829.41 1479.36 828.456 1480.81 827.24 1482.08C826.023 1483.34 824.661 1484.28 823.152 1484.9ZM823.152 1483.38C824.353 1482.88 825.43 1482.13 826.385 1481.14C827.34 1480.14 828.094 1478.97 828.648 1477.62C829.202 1476.26 829.48 1474.84 829.48 1473.35C829.48 1471.87 829.202 1470.68 828.648 1469.8C828.094 1468.91 827.34 1468.36 826.385 1468.16C825.43 1467.96 824.353 1468.1 823.152 1468.6C821.951 1469.1 820.873 1469.85 819.919 1470.84C818.964 1471.84 818.21 1473.01 817.656 1474.35C817.101 1475.7 816.824 1477.12 816.824 1478.6C816.824 1480.08 817.101 1481.28 817.656 1482.18C818.21 1483.07 818.964 1483.61 819.919 1483.82C820.873 1484.02 821.951 1483.87 823.152 1483.38ZM842.691 1476.62L838.696 1470.98L835.717 1472.22L835.717 1479.52L834.1 1480.19L834.1 1462.71L838.95 1460.7C840.751 1459.95 842.114 1459.86 843.038 1460.41C843.977 1460.95 844.446 1461.98 844.446 1463.5C844.446 1464.76 844.108 1465.99 843.43 1467.17C842.768 1468.33 841.783 1469.31 840.474 1470.12L844.631 1475.82L842.691 1476.62ZM835.717 1470.79L838.973 1469.44C840.236 1468.92 841.182 1468.19 841.814 1467.26C842.46 1466.33 842.784 1465.3 842.784 1464.19C842.784 1463.04 842.476 1462.28 841.86 1461.92C841.244 1461.54 840.274 1461.63 838.95 1462.18L835.717 1463.52L835.717 1470.79ZM852.55 1472.71C851.488 1473.15 850.549 1473.34 849.733 1473.28C848.932 1473.21 848.301 1472.92 847.839 1472.39C847.377 1471.87 847.131 1471.17 847.1 1470.3L848.809 1469.59C848.886 1470.41 849.233 1471.01 849.848 1471.41C850.464 1471.79 851.365 1471.73 852.55 1471.24C853.643 1470.78 854.506 1470.13 855.137 1469.26C855.783 1468.38 856.107 1467.47 856.107 1466.54C856.107 1465.79 855.93 1465.26 855.576 1464.96C855.222 1464.64 854.783 1464.48 854.259 1464.48C853.736 1464.46 853.012 1464.51 852.088 1464.63C851.011 1464.76 850.156 1464.8 849.525 1464.77C848.894 1464.73 848.355 1464.49 847.908 1464.04C847.462 1463.59 847.239 1462.82 847.239 1461.74C847.239 1460.84 847.454 1459.95 847.885 1459.07C848.316 1458.18 848.925 1457.37 849.71 1456.64C850.495 1455.91 851.396 1455.34 852.412 1454.92C853.905 1454.3 855.106 1454.2 856.014 1454.63C856.938 1455.03 857.469 1455.82 857.608 1457.02L855.853 1457.74C855.745 1457.07 855.383 1456.59 854.767 1456.29C854.151 1455.98 853.32 1456.04 852.273 1456.48C851.303 1456.88 850.495 1457.5 849.848 1458.33C849.202 1459.15 848.878 1460.04 848.878 1461.01C848.878 1461.74 849.055 1462.26 849.41 1462.56C849.764 1462.87 850.202 1463.03 850.726 1463.04C851.265 1463.05 851.988 1463 852.897 1462.89C853.944 1462.78 854.79 1462.74 855.437 1462.79C856.084 1462.82 856.63 1463.06 857.077 1463.51C857.523 1463.96 857.746 1464.72 857.746 1465.78C857.746 1466.6 857.546 1467.46 857.146 1468.36C856.746 1469.26 856.153 1470.09 855.368 1470.87C854.583 1471.64 853.643 1472.26 852.55 1472.71ZM874.39 1439.98L868.016 1470.28L866.422 1470.94L872.75 1440.66L874.39 1439.98ZM678.561 1573.92C678.561 1572.21 678.907 1570.53 679.6 1568.89C680.293 1567.24 681.24 1565.79 682.44 1564.54C683.641 1563.28 684.981 1562.34 686.459 1561.72C688.26 1560.98 689.8 1560.81 691.077 1561.21C692.371 1561.59 693.31 1562.5 693.895 1563.94L692.001 1564.73C691.539 1563.73 690.831 1563.1 689.877 1562.83C688.937 1562.55 687.798 1562.69 686.459 1563.25C685.273 1563.74 684.203 1564.48 683.249 1565.48C682.31 1566.47 681.571 1567.64 681.032 1569C680.493 1570.34 680.223 1571.75 680.223 1573.23C680.223 1574.72 680.493 1575.91 681.032 1576.8C681.571 1577.69 682.31 1578.24 683.249 1578.46C684.203 1578.66 685.273 1578.52 686.459 1578.02C687.798 1577.47 688.937 1576.67 689.877 1575.63C690.831 1574.57 691.539 1573.36 692.001 1572L693.895 1571.22C693.31 1573.13 692.371 1574.81 691.077 1576.26C689.784 1577.71 688.245 1578.81 686.459 1579.55C684.981 1580.16 683.641 1580.34 682.44 1580.09C681.24 1579.82 680.293 1579.16 679.6 1578.09C678.907 1577.03 678.561 1575.64 678.561 1573.92ZM704.368 1572.15C702.874 1572.77 701.519 1572.96 700.303 1572.71C699.087 1572.45 698.125 1571.79 697.416 1570.73C696.724 1569.65 696.377 1568.25 696.377 1566.54C696.377 1564.82 696.724 1563.14 697.416 1561.51C698.125 1559.85 699.087 1558.39 700.303 1557.13C701.519 1555.86 702.874 1554.92 704.368 1554.3C705.876 1553.67 707.239 1553.49 708.455 1553.75C709.671 1554 710.626 1554.66 711.319 1555.74C712.012 1556.8 712.358 1558.19 712.358 1559.91C712.358 1561.63 712.012 1563.31 711.319 1564.97C710.626 1566.6 709.671 1568.06 708.455 1569.33C707.239 1570.58 705.876 1571.52 704.368 1572.15ZM704.368 1570.62C705.568 1570.13 706.646 1569.38 707.601 1568.38C708.555 1567.39 709.31 1566.22 709.864 1564.87C710.418 1563.51 710.695 1562.08 710.695 1560.6C710.695 1559.12 710.418 1557.93 709.864 1557.05C709.31 1556.16 708.555 1555.61 707.601 1555.41C706.646 1555.2 705.568 1555.35 704.368 1555.85C703.167 1556.35 702.089 1557.09 701.134 1558.09C700.18 1559.09 699.426 1560.26 698.871 1561.6C698.317 1562.95 698.04 1564.36 698.04 1565.85C698.04 1567.33 698.317 1568.52 698.871 1569.43C699.426 1570.31 700.18 1570.86 701.134 1571.06C702.089 1571.27 703.167 1571.12 704.368 1570.62ZM731.089 1543.65L731.089 1560.9L729.473 1561.57L729.473 1547.79L723.791 1563.92L722.614 1564.41L716.933 1553.04L716.933 1566.76L715.316 1567.43L715.316 1550.18L717.025 1549.48L723.191 1561.87L729.357 1544.36L731.089 1543.65ZM750.529 1535.59L750.529 1552.84L748.913 1553.51L748.913 1539.73L743.232 1555.86L742.054 1556.35L736.373 1544.98L736.373 1558.7L734.756 1559.37L734.756 1542.12L736.465 1541.42L742.631 1553.81L748.797 1536.3L750.529 1535.59ZM763.55 1543.29L756.206 1546.33L754.797 1551.07L753.088 1551.77L758.977 1532.08L760.801 1531.33L766.667 1546.14L764.958 1546.85L763.55 1543.29ZM763.065 1542.04L759.878 1533.91L756.691 1544.68L763.065 1542.04ZM781.432 1540.02L779.816 1540.69L770.878 1529.7L770.878 1544.4L769.262 1545.07L769.262 1527.59L770.878 1526.92L779.816 1537.89L779.816 1523.22L781.432 1522.55L781.432 1540.02ZM789.874 1519.05C791.66 1518.31 793.192 1518.02 794.47 1518.19C795.748 1518.36 796.725 1518.97 797.403 1520C798.08 1521.04 798.419 1522.46 798.419 1524.28C798.419 1526.08 798.08 1527.78 797.403 1529.38C796.725 1530.96 795.748 1532.36 794.47 1533.59C793.192 1534.81 791.66 1535.78 789.874 1536.52L785.094 1538.5L785.094 1521.03L789.874 1519.05ZM789.874 1535.07C792.122 1534.14 793.831 1532.8 795.001 1531.05C796.186 1529.27 796.779 1527.24 796.779 1524.96C796.779 1522.66 796.186 1521.11 795.001 1520.32C793.831 1519.51 792.122 1519.57 789.874 1520.5L786.71 1521.81L786.71 1536.38L789.874 1535.07ZM803.016 1513.6L803.016 1531.07L801.399 1531.74L801.399 1514.27L803.016 1513.6ZM816.122 1508.17L816.122 1509.62L811.642 1511.47L811.642 1527.5L810.025 1528.17L810.025 1512.14L805.522 1514.01L805.522 1512.56L816.122 1508.17ZM828.027 1516.55L820.684 1519.6L819.275 1524.33L817.566 1525.04L823.455 1505.35L825.279 1504.59L831.145 1519.41L829.436 1520.12L828.027 1516.55ZM827.542 1515.31L824.355 1507.18L821.169 1517.95L827.542 1515.31ZM835.356 1500.19L835.356 1517.67L833.74 1518.34L833.74 1500.86L835.356 1500.19ZM847.608 1512.59L843.612 1506.94L840.633 1508.18L840.633 1515.48L839.017 1516.15L839.017 1498.67L843.867 1496.66C845.668 1495.92 847.03 1495.82 847.954 1496.37C848.893 1496.91 849.363 1497.94 849.363 1499.46C849.363 1500.73 849.024 1501.95 848.347 1503.13C847.685 1504.29 846.699 1505.27 845.391 1506.08L849.548 1511.78L847.608 1512.59ZM840.633 1506.75L843.89 1505.4C845.152 1504.88 846.099 1504.15 846.73 1503.23C847.377 1502.29 847.7 1501.26 847.7 1500.15C847.7 1499 847.392 1498.24 846.776 1497.88C846.16 1497.5 845.191 1497.59 843.867 1498.14L840.633 1499.48L840.633 1506.75ZM854.187 1493.81L854.187 1500.33L860.307 1497.8L860.307 1499.25L854.187 1501.78L854.187 1508.41L861 1505.58L861 1507.03L852.571 1510.53L852.571 1493.03L861 1489.53L861 1490.98L854.187 1493.81ZM869.081 1503.86C868.019 1504.3 867.08 1504.49 866.264 1504.43C865.463 1504.36 864.832 1504.06 864.37 1503.54C863.908 1503.01 863.662 1502.31 863.631 1501.44L865.34 1500.73C865.417 1501.55 865.764 1502.16 866.379 1502.55C866.995 1502.93 867.896 1502.87 869.081 1502.38C870.174 1501.93 871.037 1501.27 871.668 1500.41C872.314 1499.53 872.638 1498.62 872.638 1497.68C872.638 1496.93 872.461 1496.41 872.107 1496.1C871.753 1495.78 871.314 1495.62 870.79 1495.62C870.267 1495.61 869.543 1495.66 868.619 1495.77C867.542 1495.91 866.687 1495.95 866.056 1495.91C865.425 1495.87 864.886 1495.63 864.439 1495.18C863.993 1494.73 863.77 1493.97 863.77 1492.89C863.77 1491.99 863.985 1491.1 864.416 1490.22C864.847 1489.32 865.456 1488.51 866.241 1487.79C867.026 1487.06 867.927 1486.49 868.943 1486.07C870.436 1485.45 871.637 1485.35 872.545 1485.77C873.469 1486.17 874 1486.97 874.139 1488.16L872.384 1488.89C872.276 1488.22 871.914 1487.73 871.298 1487.44C870.683 1487.13 869.851 1487.19 868.804 1487.62C867.834 1488.03 867.026 1488.64 866.379 1489.48C865.733 1490.3 865.409 1491.19 865.409 1492.16C865.409 1492.89 865.586 1493.41 865.941 1493.71C866.295 1494.01 866.733 1494.17 867.257 1494.19C867.796 1494.2 868.519 1494.15 869.428 1494.04C870.475 1493.92 871.321 1493.89 871.968 1493.94C872.615 1493.97 873.161 1494.21 873.608 1494.66C874.054 1495.11 874.277 1495.86 874.277 1496.93C874.277 1497.75 874.077 1498.6 873.677 1499.5C873.277 1500.4 872.684 1501.24 871.899 1502.02C871.114 1502.79 870.174 1503.41 869.081 1503.86Z" fill="white"/>
<path d="M455.386 194.55L884.703 908.426L455.386 1081.45L455.386 194.55Z" fill="#FF3535" fill-opacity="0.2" stroke="#FF7979" stroke-width="3"/>
<path d="M455.386 1490.35L455.386 1095.71L891.614 919.061L891.614 1310.07L455.386 1490.35Z" fill="#FF3535" fill-opacity="0.2" stroke="#FF7979" stroke-width="3"/>
<path d="M1.38514 1320.71L452.411 1507.71L452.411 2286.98L1.38514 2117.02L1.38514 1320.71Z" fill="#FF3535" fill-opacity="0.2" stroke="#FF7979" stroke-width="3"/>
<path d="M371.525 1938.08L372.911 1938.65L372.911 1937.15L372.911 1920.7L440.287 1948.63L440.287 2269.97L13.5101 2108.03L13.5101 1789.64L371.525 1938.08Z" fill="#FF3535" fill-opacity="0.2" stroke="#FF7979" stroke-width="3"/>
<path d="M38.7459 1830.75L38.7459 1819.62L56.6575 1827.05L56.6575 1878.15L45.1475 1873.38L45.1475 1833.41L38.7459 1830.75ZM64.2215 1855.04C64.2215 1847.01 65.644 1841.28 68.4892 1837.84C71.3775 1834.41 76.0116 1834.02 82.3917 1836.67C88.7717 1839.31 93.3843 1843.54 96.2295 1849.34C99.1178 1855.15 100.562 1862.08 100.562 1870.1C100.562 1878.22 99.1178 1883.99 96.2295 1887.42C93.3843 1890.86 88.7717 1891.25 82.3917 1888.61C76.0116 1885.96 71.3775 1881.73 68.4892 1875.92C65.644 1870.12 64.2215 1863.16 64.2215 1855.04ZM89.6986 1865.6C89.6986 1860.89 89.2244 1857.07 88.276 1854.16C87.3276 1851.2 85.3662 1849.1 82.3917 1847.87C79.4172 1846.64 77.4558 1847.11 76.5074 1849.28C75.559 1851.41 75.0848 1854.83 75.0848 1859.54C75.0848 1862.71 75.2572 1865.42 75.6021 1867.66C75.947 1869.86 76.6367 1871.83 77.6713 1873.56C78.749 1875.27 80.3225 1876.55 82.3917 1877.41C84.4609 1878.27 86.0128 1878.28 87.0474 1877.45C88.1251 1876.59 88.8364 1875.2 89.1813 1873.29C89.5261 1871.34 89.6986 1868.77 89.6986 1865.6ZM106.404 1872.52C106.404 1864.5 107.826 1858.76 110.671 1855.32C113.56 1851.9 118.194 1851.51 124.574 1854.16C130.954 1856.8 135.567 1861.03 138.412 1866.83C141.3 1872.64 142.744 1879.57 142.744 1887.59C142.744 1895.71 141.3 1901.48 138.412 1904.91C135.567 1908.35 130.954 1908.74 124.574 1906.1C118.194 1903.45 113.56 1899.22 110.671 1893.4C107.826 1887.6 106.404 1880.64 106.404 1872.52ZM131.881 1883.09C131.881 1878.37 131.407 1874.56 130.458 1871.65C129.51 1868.69 127.548 1866.59 124.574 1865.36C121.599 1864.13 119.638 1864.6 118.69 1866.77C117.741 1868.9 117.267 1872.32 117.267 1877.03C117.267 1880.2 117.44 1882.91 117.784 1885.15C118.129 1887.35 118.819 1889.32 119.854 1891.05C120.931 1892.76 122.505 1894.04 124.574 1894.9C126.643 1895.76 128.195 1895.77 129.23 1894.94C130.307 1894.08 131.019 1892.69 131.364 1890.78C131.708 1888.83 131.881 1886.26 131.881 1883.09ZM148.586 1890.01C148.586 1881.99 150.009 1876.25 152.854 1872.81C155.742 1869.39 160.376 1869 166.756 1871.65C173.136 1874.29 177.749 1878.51 180.594 1884.31C183.482 1890.13 184.926 1897.05 184.926 1905.08C184.926 1913.2 183.482 1918.97 180.594 1922.39C177.749 1925.83 173.136 1926.23 166.756 1923.59C160.376 1920.94 155.742 1916.71 152.854 1910.89C150.009 1905.09 148.586 1898.13 148.586 1890.01ZM174.063 1900.58C174.063 1895.86 173.589 1892.05 172.641 1889.14C171.692 1886.18 169.731 1884.08 166.756 1882.85C163.782 1881.61 161.82 1882.08 160.872 1884.26C159.924 1886.38 159.449 1889.8 159.449 1894.52C159.449 1897.69 159.622 1900.4 159.967 1902.64C160.312 1904.84 161.001 1906.8 162.036 1908.54C163.114 1910.25 164.687 1911.53 166.756 1912.39C168.825 1913.25 170.377 1913.26 171.412 1912.43C172.49 1911.57 173.201 1910.18 173.546 1908.27C173.891 1906.32 174.063 1903.75 174.063 1900.58ZM224.652 1928.69L213.4 1924.03L213.4 1936.49L202.925 1932.14L202.925 1919.68L191.674 1915.02L191.674 1904.31L202.925 1908.97L202.925 1896.44L213.4 1900.79L213.4 1913.32L224.652 1917.98L224.652 1928.69Z" fill="white"/>
<path d="M52.4384 1911.33L48.4432 1902.37L45.4641 1901.14L45.4641 1908.44L43.8475 1907.77L43.8475 1890.29L48.6972 1892.3C50.4985 1893.05 51.8611 1894.08 52.7848 1895.4C53.724 1896.72 54.1935 1898.14 54.1935 1899.66C54.1935 1900.92 53.8548 1901.87 53.1774 1902.48C52.5154 1903.09 51.53 1903.26 50.2214 1902.98L54.3783 1912.13L52.4384 1911.33ZM45.4641 1899.71L48.7203 1901.06C49.9828 1901.58 50.9296 1901.64 51.5608 1901.24C52.2075 1900.84 52.5308 1900.08 52.5308 1898.97C52.5308 1897.82 52.2229 1896.81 51.607 1895.93C50.9912 1895.04 50.0213 1894.33 48.6972 1893.78L45.4641 1892.44L45.4641 1899.71ZM59.0182 1898.01L59.0182 1904.53L65.138 1907.07L65.138 1908.52L59.0182 1905.98L59.0182 1912.61L65.8308 1915.43L65.8308 1916.88L57.4016 1913.39L57.4016 1895.89L65.8308 1899.38L65.8308 1900.83L59.0182 1898.01ZM73.7966 1902.71C75.5825 1903.45 77.1144 1904.43 78.3922 1905.66C79.6701 1906.89 80.6477 1908.31 81.3252 1909.9C82.0026 1911.5 82.3413 1913.21 82.3413 1915.03C82.3413 1916.83 82.0026 1918.24 81.3252 1919.28C80.6477 1920.3 79.6701 1920.89 78.3922 1921.06C77.1144 1921.22 75.5825 1920.92 73.7966 1920.18L69.0162 1918.2L69.0162 1900.73L73.7966 1902.71ZM73.7966 1918.73C76.0444 1919.66 77.7533 1919.74 78.9234 1918.96C80.1089 1918.17 80.7016 1916.63 80.7016 1914.35C80.7016 1912.05 80.1089 1910.01 78.9234 1908.23C77.7533 1906.45 76.0444 1905.09 73.7966 1904.16L70.6327 1902.85L70.6327 1917.42L73.7966 1918.73ZM92.8733 1919.07C93.7817 1919.63 94.5515 1920.45 95.1827 1921.52C95.8139 1922.6 96.1296 1923.68 96.1296 1924.77C96.1296 1925.65 95.9217 1926.36 95.506 1926.91C95.1057 1927.44 94.513 1927.76 93.7278 1927.85C92.9426 1927.92 92.0035 1927.73 90.9103 1927.28L85.3216 1924.96L85.3216 1907.49L90.7487 1909.74C92.3807 1910.41 93.62 1911.34 94.4668 1912.5C95.329 1913.68 95.76 1914.91 95.76 1916.21C95.76 1917.3 95.4906 1918.07 94.9518 1918.53C94.4129 1918.97 93.7201 1919.15 92.8733 1919.07ZM86.9382 1915.88L90.7025 1917.44C91.7956 1917.9 92.6347 1917.97 93.2197 1917.66C93.8202 1917.34 94.1204 1916.69 94.1204 1915.71C94.1204 1914.74 93.8202 1913.86 93.2197 1913.06C92.6347 1912.27 91.7725 1911.64 90.6332 1911.16L86.9382 1909.63L86.9382 1915.88ZM90.7949 1925.76C91.965 1926.24 92.8733 1926.32 93.5199 1925.99C94.182 1925.66 94.513 1924.97 94.513 1923.92C94.513 1922.87 94.1666 1921.9 93.4738 1920.99C92.7963 1920.08 91.8803 1919.38 90.7256 1918.9L86.9382 1917.33L86.9382 1924.16L90.7949 1925.76ZM100.649 1913.84L100.649 1924.84C100.649 1926.57 101.026 1928.01 101.78 1929.16C102.55 1930.31 103.597 1931.16 104.921 1931.71C106.245 1932.26 107.276 1932.28 108.015 1931.77C108.77 1931.25 109.147 1930.11 109.147 1928.36L109.147 1917.36L110.764 1918.03L110.764 1929.01C110.764 1931.23 110.217 1932.67 109.124 1933.33C108.046 1934 106.638 1933.97 104.898 1933.25C103.158 1932.53 101.742 1931.39 100.649 1929.82C99.5708 1928.25 99.032 1926.36 99.032 1924.15L99.032 1913.17L100.649 1913.84ZM115.986 1936.25L121.782 1938.65L121.782 1940.08L114.369 1937L114.369 1919.53L115.986 1920.2L115.986 1936.25ZM125.706 1940.28L131.503 1942.68L131.503 1944.11L124.089 1941.03L124.089 1923.56L125.706 1924.23L125.706 1940.28ZM138.706 1947.27C137.643 1946.83 136.704 1946.24 135.888 1945.5C135.087 1944.77 134.456 1943.95 133.994 1943.04C133.533 1942.13 133.286 1941.23 133.255 1940.33L134.964 1941.04C135.041 1941.93 135.388 1942.82 136.004 1943.72C136.619 1944.61 137.52 1945.3 138.706 1945.79C139.799 1946.25 140.661 1946.31 141.292 1945.97C141.939 1945.62 142.262 1944.98 142.262 1944.04C142.262 1943.29 142.085 1942.62 141.731 1942.02C141.377 1941.41 140.938 1940.89 140.414 1940.45C139.891 1940 139.167 1939.45 138.244 1938.8C137.166 1938.04 136.311 1937.38 135.68 1936.82C135.049 1936.25 134.51 1935.56 134.064 1934.74C133.617 1933.93 133.394 1932.98 133.394 1931.89C133.394 1930.99 133.609 1930.28 134.041 1929.76C134.472 1929.22 135.08 1928.92 135.865 1928.84C136.65 1928.77 137.551 1928.94 138.567 1929.36C140.06 1929.98 141.261 1930.88 142.17 1932.06C143.093 1933.22 143.625 1934.46 143.763 1935.77L142.008 1935.04C141.9 1934.28 141.538 1933.49 140.923 1932.69C140.307 1931.87 139.475 1931.24 138.428 1930.8C137.458 1930.4 136.65 1930.35 136.004 1930.65C135.357 1930.93 135.034 1931.56 135.034 1932.52C135.034 1933.26 135.211 1933.92 135.565 1934.52C135.919 1935.11 136.358 1935.64 136.881 1936.09C137.42 1936.54 138.144 1937.09 139.052 1937.74C140.099 1938.49 140.946 1939.16 141.592 1939.74C142.239 1940.31 142.785 1941 143.232 1941.82C143.678 1942.64 143.902 1943.58 143.902 1944.65C143.902 1945.47 143.701 1946.16 143.301 1946.72C142.901 1947.29 142.308 1947.64 141.523 1947.76C140.738 1947.89 139.799 1947.72 138.706 1947.27Z" fill="white"/>
<path d="M362.345 1907.64L362.345 1922.65L13.5101 1778.02L13.5101 1602.93L261.02 1705.55L261.02 1784.48L261.02 1785.98L262.406 1786.55L440.287 1860.3L440.287 1938.45L363.731 1906.71L362.345 1906.14L362.345 1907.64Z" fill="#FF3535" fill-opacity="0.2" stroke="#FF7979" stroke-width="3"/>
<path d="M70.2819 1653.47L54.0516 1688.89L42.7356 1684.19L59.1599 1650.19L39.0498 1641.86L39.0498 1631.64L70.2819 1644.58L70.2819 1653.47ZM74.7537 1671.22C74.7537 1663.19 76.1763 1657.46 79.0214 1654.02C81.9097 1650.6 86.5439 1650.21 92.9239 1652.85C99.304 1655.5 103.917 1659.72 106.762 1665.52C109.65 1671.34 111.094 1678.26 111.094 1686.29C111.094 1694.41 109.65 1700.18 106.762 1703.6C103.917 1707.04 99.304 1707.44 92.9239 1704.79C86.5439 1702.15 81.9097 1697.92 79.0214 1692.1C76.1763 1686.3 74.7537 1679.34 74.7537 1671.22ZM100.231 1681.78C100.231 1677.07 99.7566 1673.26 98.8082 1670.34C97.8598 1667.38 95.8984 1665.29 92.9239 1664.05C89.9494 1662.82 87.988 1663.29 87.0396 1665.46C86.0912 1667.59 85.617 1671.01 85.617 1675.72C85.617 1678.9 85.7895 1681.6 86.1343 1683.85C86.4792 1686.04 87.1689 1688.01 88.2035 1689.75C89.2813 1691.45 90.8547 1692.73 92.9239 1693.59C94.9931 1694.45 96.545 1694.46 97.5796 1693.63C98.6573 1692.77 99.3686 1691.39 99.7135 1689.48C100.058 1687.52 100.231 1684.95 100.231 1681.78ZM150.819 1709.9L139.568 1705.23L139.568 1717.69L129.093 1713.35L129.093 1700.89L117.841 1696.22L117.841 1685.51L129.093 1690.18L129.093 1677.65L139.568 1681.99L139.568 1694.52L150.819 1699.19L150.819 1709.9Z" fill="white"/>
<path d="M51.099 1723.95C49.6056 1723.33 48.2507 1722.39 47.0345 1721.14C45.8182 1719.87 44.8559 1718.41 44.1477 1716.77C43.4549 1715.11 43.1085 1713.43 43.1085 1711.71C43.1085 1709.99 43.4549 1708.6 44.1477 1707.54C44.8559 1706.47 45.8182 1705.81 47.0345 1705.56C48.2507 1705.3 49.6056 1705.48 51.099 1706.1C52.6078 1706.72 53.9703 1707.67 55.1866 1708.94C56.4028 1710.2 57.3574 1711.65 58.0502 1713.3C58.743 1714.94 59.0894 1716.62 59.0894 1718.34C59.0894 1720.05 58.743 1721.45 58.0502 1722.53C57.3574 1723.59 56.4028 1724.25 55.1866 1724.52C53.9703 1724.76 52.6078 1724.57 51.099 1723.95ZM51.099 1722.42C52.2998 1722.92 53.3776 1723.07 54.3321 1722.86C55.2866 1722.66 56.041 1722.11 56.5953 1721.23C57.1495 1720.32 57.4267 1719.13 57.4267 1717.65C57.4267 1716.16 57.1495 1714.75 56.5953 1713.4C56.041 1712.05 55.2866 1710.88 54.3321 1709.89C53.3776 1708.89 52.2998 1708.15 51.099 1707.65C49.8981 1707.15 48.8204 1707 47.8658 1707.21C46.9113 1707.41 46.1569 1707.96 45.6026 1708.84C45.0484 1709.73 44.7713 1710.92 44.7713 1712.4C44.7713 1713.88 45.0484 1715.31 45.6026 1716.67C46.1569 1718.02 46.9113 1719.19 47.8658 1720.18C48.8204 1721.18 49.8981 1721.92 51.099 1722.42ZM70.6383 1731.87L66.6431 1722.92L63.664 1721.68L63.664 1728.98L62.0474 1728.31L62.0474 1710.84L66.8971 1712.85C68.6984 1713.59 70.061 1714.63 70.9847 1715.94C71.9239 1717.26 72.3934 1718.68 72.3934 1720.2C72.3934 1721.47 72.0547 1722.41 71.3773 1723.03C70.7153 1723.64 69.73 1723.81 68.4213 1723.53L72.5782 1732.68L70.6383 1731.87ZM63.664 1720.26L66.9202 1721.61C68.1827 1722.13 69.1295 1722.19 69.7607 1721.78C70.4074 1721.39 70.7307 1720.63 70.7307 1719.51C70.7307 1718.36 70.4228 1717.35 69.8069 1716.48C69.1911 1715.59 68.2212 1714.87 66.8971 1714.32L63.664 1712.98L63.664 1720.26ZM88.3031 1726.82C87.8412 1725.48 87.133 1724.29 86.1785 1723.24C85.2393 1722.19 84.1308 1721.39 82.853 1720.86C81.6521 1720.36 80.5744 1720.22 79.6198 1720.42C78.6653 1720.63 77.9109 1721.17 77.3566 1722.06C76.8024 1722.93 76.5252 1724.1 76.5252 1725.56C76.5252 1727.03 76.8024 1728.44 77.3566 1729.78C77.9109 1731.13 78.6653 1732.3 79.6198 1733.3C80.5744 1734.29 81.6521 1735.04 82.853 1735.54C83.9769 1736 84.9853 1736.16 85.8782 1736.02C86.7866 1735.86 87.5102 1735.41 88.0491 1734.67C88.6033 1733.91 88.9189 1732.9 88.9959 1731.63L82.2063 1728.82L82.2063 1727.39L90.7049 1730.92L90.7049 1732.19C90.6279 1733.69 90.243 1734.93 89.5502 1735.89C88.8573 1736.84 87.9259 1737.42 86.7558 1737.66C85.6011 1737.89 84.3002 1737.71 82.853 1737.11C81.3596 1736.49 80.0047 1735.56 78.7884 1734.3C77.5722 1733.03 76.6099 1731.57 75.9017 1729.93C75.2089 1728.28 74.8625 1726.59 74.8625 1724.87C74.8625 1723.16 75.2089 1721.77 75.9017 1720.71C76.6099 1719.63 77.5722 1718.97 78.7884 1718.73C80.0047 1718.47 81.3596 1718.64 82.853 1719.26C84.5773 1719.98 86.0861 1721.07 87.3793 1722.54C88.6726 1724.01 89.6117 1725.7 90.1968 1727.61L88.3031 1726.82ZM103.019 1741.15L95.6753 1738.1L94.2665 1741.67L92.5576 1740.96L98.4465 1726.15L100.271 1726.91L106.137 1746.59L104.428 1745.88L103.019 1741.15ZM102.534 1739.5L99.3472 1728.73L96.1602 1736.85L102.534 1739.5ZM120.902 1752.71L119.285 1752.04L110.348 1733.64L110.348 1748.34L108.731 1747.67L108.731 1730.19L110.348 1730.86L119.285 1749.24L119.285 1734.57L120.902 1735.24L120.902 1752.71ZM126.18 1737.43L126.18 1754.9L124.563 1754.23L124.563 1736.76L126.18 1737.43ZM130.88 1755.3L139.124 1758.72L139.124 1760.27L128.986 1756.06L128.986 1754.66L137.115 1743.51L129.124 1740.2L129.124 1738.65L139.009 1742.75L139.009 1744.15L130.88 1755.3ZM143.59 1746.07L143.59 1752.59L149.71 1755.13L149.71 1756.58L143.59 1754.04L143.59 1760.67L150.403 1763.49L150.403 1764.94L141.974 1761.45L141.974 1743.95L150.403 1747.44L150.403 1748.89L143.59 1746.07ZM162.179 1769.83L158.184 1760.87L155.205 1759.63L155.205 1766.93L153.588 1766.26L153.588 1748.79L158.438 1750.8C160.239 1751.55 161.602 1752.58 162.526 1753.9C163.465 1755.22 163.934 1756.64 163.934 1758.15C163.934 1759.42 163.596 1760.36 162.918 1760.98C162.256 1761.59 161.271 1761.76 159.962 1761.48L164.119 1770.63L162.179 1769.83ZM155.205 1758.21L158.461 1759.56C159.723 1760.08 160.67 1760.14 161.302 1759.74C161.948 1759.34 162.271 1758.58 162.271 1757.46C162.271 1756.31 161.964 1755.3 161.348 1754.43C160.732 1753.54 159.762 1752.82 158.438 1752.28L155.205 1750.93L155.205 1758.21ZM172.038 1774.09C170.976 1773.65 170.037 1773.06 169.221 1772.32C168.42 1771.59 167.789 1770.77 167.327 1769.86C166.865 1768.95 166.619 1768.05 166.588 1767.15L168.297 1767.86C168.374 1768.74 168.72 1769.64 169.336 1770.54C169.952 1771.43 170.853 1772.12 172.038 1772.61C173.131 1773.07 173.993 1773.12 174.625 1772.79C175.271 1772.44 175.595 1771.8 175.595 1770.86C175.595 1770.11 175.418 1769.44 175.063 1768.84C174.709 1768.23 174.271 1767.71 173.747 1767.27C173.224 1766.82 172.5 1766.27 171.576 1765.62C170.499 1764.86 169.644 1764.2 169.013 1763.63C168.382 1763.07 167.843 1762.38 167.396 1761.56C166.95 1760.75 166.727 1759.8 166.727 1758.71C166.727 1757.81 166.942 1757.1 167.373 1756.58C167.804 1756.04 168.412 1755.74 169.198 1755.66C169.983 1755.59 170.883 1755.76 171.9 1756.18C173.393 1756.8 174.594 1757.7 175.502 1758.88C176.426 1760.04 176.957 1761.28 177.096 1762.59L175.341 1761.86C175.233 1761.1 174.871 1760.31 174.255 1759.51C173.639 1758.69 172.808 1758.06 171.761 1757.62C170.791 1757.22 169.983 1757.17 169.336 1757.47C168.69 1757.75 168.366 1758.38 168.366 1759.34C168.366 1760.08 168.543 1760.74 168.897 1761.34C169.252 1761.93 169.69 1762.46 170.214 1762.91C170.753 1763.36 171.476 1763.91 172.385 1764.56C173.432 1765.31 174.278 1765.98 174.925 1766.56C175.572 1767.13 176.118 1767.82 176.565 1768.64C177.011 1769.46 177.234 1770.4 177.234 1771.47C177.234 1772.29 177.034 1772.98 176.634 1773.54C176.234 1774.11 175.641 1774.46 174.856 1774.58C174.07 1774.71 173.131 1774.54 172.038 1774.09ZM193.878 1759.47L187.504 1784.48L185.91 1783.82L192.238 1758.79L193.878 1759.47ZM51.099 1761.95C49.6056 1761.33 48.2507 1760.39 47.0344 1759.14C45.8182 1757.87 44.8559 1756.41 44.1477 1754.77C43.4549 1753.11 43.1085 1751.43 43.1085 1749.71C43.1085 1747.99 43.4549 1746.6 44.1477 1745.54C44.8559 1744.47 45.8182 1743.81 47.0345 1743.56C48.2507 1743.3 49.6056 1743.48 51.099 1744.1C52.6078 1744.72 53.9703 1745.67 55.1866 1746.94C56.4028 1748.2 57.3574 1749.65 58.0502 1751.3C58.743 1752.94 59.0894 1754.62 59.0894 1756.34C59.0894 1758.05 58.743 1759.45 58.0502 1760.53C57.3574 1761.59 56.4028 1762.25 55.1866 1762.52C53.9703 1762.76 52.6078 1762.57 51.099 1761.95ZM51.099 1760.42C52.2998 1760.92 53.3776 1761.07 54.3321 1760.86C55.2866 1760.66 56.041 1760.11 56.5953 1759.23C57.1495 1758.32 57.4267 1757.13 57.4267 1755.65C57.4267 1754.16 57.1495 1752.75 56.5953 1751.4C56.041 1750.05 55.2866 1748.88 54.3321 1747.89C53.3776 1746.89 52.2998 1746.15 51.099 1745.65C49.8981 1745.15 48.8204 1745 47.8658 1745.21C46.9113 1745.41 46.1569 1745.96 45.6026 1746.84C45.0484 1747.73 44.7713 1748.92 44.7713 1750.4C44.7713 1751.88 45.0484 1753.31 45.6026 1754.67C46.1569 1756.02 46.9113 1757.19 47.8658 1758.18C48.8204 1759.18 49.8981 1759.92 51.099 1760.42ZM70.6383 1769.87L66.6431 1760.92L63.664 1759.68L63.664 1766.98L62.0474 1766.31L62.0474 1748.84L66.8971 1750.85C68.6984 1751.59 70.061 1752.63 70.9847 1753.94C71.9239 1755.26 72.3934 1756.68 72.3934 1758.2C72.3934 1759.47 72.0547 1760.41 71.3773 1761.03C70.7153 1761.64 69.73 1761.81 68.4213 1761.53L72.5782 1770.68L70.6383 1769.87ZM63.664 1758.26L66.9202 1759.61C68.1827 1760.13 69.1295 1760.19 69.7607 1759.78C70.4074 1759.39 70.7307 1758.63 70.7307 1757.51C70.7307 1756.36 70.4228 1755.35 69.8069 1754.48C69.1911 1753.59 68.2212 1752.87 66.8971 1752.32L63.664 1750.98L63.664 1758.26ZM88.3031 1764.82C87.8412 1763.48 87.133 1762.29 86.1785 1761.24C85.2393 1760.19 84.1308 1759.39 82.853 1758.86C81.6521 1758.36 80.5744 1758.22 79.6198 1758.42C78.6653 1758.63 77.9109 1759.17 77.3566 1760.06C76.8024 1760.93 76.5252 1762.1 76.5252 1763.56C76.5252 1765.03 76.8024 1766.44 77.3566 1767.78C77.9109 1769.13 78.6653 1770.3 79.6198 1771.3C80.5744 1772.29 81.6521 1773.04 82.853 1773.54C83.9769 1774 84.9853 1774.16 85.8782 1774.02C86.7866 1773.86 87.5102 1773.41 88.0491 1772.67C88.6033 1771.91 88.9189 1770.9 88.9959 1769.63L82.2063 1766.82L82.2063 1765.39L90.7048 1768.92L90.7048 1770.19C90.6279 1771.69 90.243 1772.93 89.5502 1773.89C88.8573 1774.84 87.9259 1775.42 86.7558 1775.66C85.6011 1775.89 84.3002 1775.71 82.853 1775.11C81.3596 1774.49 80.0047 1773.56 78.7884 1772.3C77.5722 1771.03 76.6099 1769.57 75.9017 1767.93C75.2089 1766.28 74.8625 1764.59 74.8625 1762.87C74.8625 1761.16 75.2089 1759.77 75.9017 1758.71C76.6099 1757.63 77.5722 1756.97 78.7884 1756.73C80.0047 1756.47 81.3596 1756.64 82.853 1757.26C84.5773 1757.98 86.0861 1759.07 87.3793 1760.54C88.6726 1762.01 89.6117 1763.7 90.1968 1765.61L88.3031 1764.82ZM103.019 1779.15L95.6753 1776.1L94.2665 1779.67L92.5576 1778.96L98.4465 1764.15L100.271 1764.91L106.137 1784.59L104.428 1783.88L103.019 1779.15ZM102.534 1777.5L99.3472 1766.73L96.1602 1774.85L102.534 1777.5ZM120.902 1790.71L119.285 1790.04L110.348 1771.64L110.348 1786.34L108.731 1785.67L108.731 1768.19L110.348 1768.86L119.285 1787.24L119.285 1772.57L120.902 1773.24L120.902 1790.71ZM126.18 1775.43L126.18 1792.9L124.563 1792.23L124.563 1774.76L126.18 1775.43ZM134.736 1796.62C133.674 1796.18 132.735 1795.59 131.919 1794.86C131.118 1794.12 130.487 1793.3 130.025 1792.4C129.563 1791.49 129.317 1790.59 129.286 1789.69L130.995 1790.4C131.072 1791.28 131.418 1792.17 132.034 1793.08C132.65 1793.97 133.551 1794.66 134.736 1795.15C135.829 1795.6 136.692 1795.66 137.323 1795.32C137.969 1794.97 138.293 1794.33 138.293 1793.4C138.293 1792.65 138.116 1791.97 137.762 1791.38C137.407 1790.76 136.969 1790.24 136.445 1789.81C135.922 1789.36 135.198 1788.81 134.274 1788.16C133.197 1787.39 132.342 1786.73 131.711 1786.17C131.08 1785.61 130.541 1784.92 130.094 1784.1C129.648 1783.28 129.425 1782.33 129.425 1781.25C129.425 1780.35 129.64 1779.64 130.071 1779.11C130.502 1778.58 131.111 1778.27 131.896 1778.2C132.681 1778.12 133.582 1778.29 134.598 1778.72C136.091 1779.34 137.292 1780.23 138.2 1781.41C139.124 1782.58 139.655 1783.81 139.794 1785.12L138.039 1784.39C137.931 1783.63 137.569 1782.85 136.953 1782.04C136.337 1781.22 135.506 1780.59 134.459 1780.16C133.489 1779.76 132.681 1779.7 132.034 1780C131.388 1780.29 131.064 1780.91 131.064 1781.88C131.064 1782.61 131.241 1783.27 131.596 1783.87C131.95 1784.47 132.388 1784.99 132.912 1785.44C133.451 1785.9 134.174 1786.45 135.083 1787.09C136.13 1787.84 136.976 1788.51 137.623 1789.1C138.27 1789.66 138.816 1790.36 139.263 1791.18C139.709 1791.99 139.932 1792.94 139.932 1794C139.932 1794.82 139.732 1795.51 139.332 1796.08C138.932 1796.65 138.339 1796.99 137.554 1797.12C136.769 1797.24 135.829 1797.08 134.736 1796.62ZM152.409 1799.63L145.065 1796.58L143.657 1800.15L141.948 1799.44L147.837 1784.63L149.661 1785.39L155.527 1805.07L153.818 1804.36L152.409 1799.63ZM151.924 1797.97L148.737 1787.2L145.55 1795.33L151.924 1797.97ZM167.567 1792.59L167.567 1794.04L163.086 1792.18L163.086 1808.2L161.47 1807.53L161.47 1791.51L156.967 1789.64L156.967 1788.19L167.567 1792.59ZM171.736 1795.74L171.736 1802.26L177.856 1804.8L177.856 1806.25L171.736 1803.71L171.736 1810.34L178.548 1813.16L178.548 1814.61L170.119 1811.12L170.119 1793.62L178.548 1797.11L178.548 1798.56L171.736 1795.74ZM183.281 1799.1L183.281 1810.1C183.281 1811.83 183.658 1813.27 184.413 1814.42C185.182 1815.57 186.229 1816.42 187.553 1816.97C188.877 1817.52 189.909 1817.54 190.648 1817.03C191.402 1816.51 191.78 1815.37 191.78 1813.62L191.78 1802.62L193.396 1803.29L193.396 1814.27C193.396 1816.49 192.85 1817.93 191.757 1818.59C190.679 1819.26 189.27 1819.23 187.53 1818.51C185.791 1817.79 184.374 1816.65 183.281 1815.08C182.203 1813.51 181.665 1811.62 181.665 1809.41L181.665 1798.43L183.281 1799.1ZM205.593 1825.83L201.598 1816.87L198.618 1815.63L198.618 1822.93L197.002 1822.26L197.002 1804.79L201.852 1806.8C203.653 1807.55 205.015 1808.58 205.939 1809.89C206.878 1811.22 207.348 1812.64 207.348 1814.15C207.348 1815.42 207.009 1816.36 206.332 1816.98C205.67 1817.59 204.684 1817.76 203.376 1817.48L207.533 1826.63L205.593 1825.83ZM198.618 1814.21L201.875 1815.56C203.137 1816.08 204.084 1816.14 204.715 1815.74C205.362 1815.34 205.685 1814.58 205.685 1813.46C205.685 1812.31 205.377 1811.3 204.761 1810.43C204.146 1809.54 203.176 1808.82 201.852 1808.27L198.618 1806.93L198.618 1814.21ZM215.452 1830.09C214.39 1829.65 213.45 1829.06 212.634 1828.32C211.834 1827.59 211.203 1826.77 210.741 1825.86C210.279 1824.95 210.033 1824.05 210.002 1823.15L211.711 1823.86C211.788 1824.74 212.134 1825.64 212.75 1826.54C213.366 1827.43 214.266 1828.12 215.452 1828.61C216.545 1829.07 217.407 1829.12 218.038 1828.79C218.685 1828.44 219.008 1827.8 219.008 1826.86C219.008 1826.11 218.831 1825.44 218.477 1824.84C218.123 1824.23 217.684 1823.71 217.161 1823.27C216.637 1822.82 215.914 1822.27 214.99 1821.62C213.912 1820.86 213.058 1820.2 212.427 1819.63C211.795 1819.07 211.256 1818.38 210.81 1817.56C210.364 1816.75 210.14 1815.79 210.14 1814.71C210.14 1813.81 210.356 1813.1 210.787 1812.58C211.218 1812.04 211.826 1811.74 212.611 1811.66C213.396 1811.59 214.297 1811.76 215.313 1812.18C216.807 1812.8 218.008 1813.7 218.916 1814.87C219.84 1816.04 220.371 1817.28 220.509 1818.59L218.754 1817.86C218.646 1817.1 218.285 1816.31 217.669 1815.51C217.053 1814.69 216.222 1814.06 215.175 1813.62C214.205 1813.22 213.396 1813.17 212.75 1813.47C212.103 1813.75 211.78 1814.37 211.78 1815.34C211.78 1816.07 211.957 1816.74 212.311 1817.34C212.665 1817.93 213.104 1818.46 213.627 1818.91C214.166 1819.36 214.89 1819.91 215.798 1820.56C216.845 1821.31 217.692 1821.98 218.339 1822.56C218.985 1823.13 219.532 1823.82 219.978 1824.64C220.425 1825.46 220.648 1826.4 220.648 1827.47C220.648 1828.28 220.448 1828.98 220.048 1829.54C219.647 1830.11 219.054 1830.46 218.269 1830.58C217.484 1830.71 216.545 1830.54 215.452 1830.09Z" fill="white"/>
<path d="M271.932 1697.74L13.5101 1590.6L13.5101 1337.95L440.287 1514.89L440.287 1852.28L273.318 1783.05L273.318 1699.81L273.318 1698.31L271.932 1697.74Z" fill="#FF3535" fill-opacity="0.2" stroke="#FF7979" stroke-width="3"/>
<path d="M63.4923 1394.82C63.1474 1392.95 62.5439 1391.41 61.6817 1390.21C60.8196 1388.97 59.591 1388.02 57.996 1387.36C55.5388 1386.34 53.7713 1386.77 52.6936 1388.66C51.6159 1390.5 51.0555 1393.91 51.0124 1398.88C51.9608 1397.64 53.3187 1396.92 55.0862 1396.72C56.8967 1396.54 58.8797 1396.89 61.0351 1397.79C65.2598 1399.54 68.6438 1402.39 71.1872 1406.34C73.7737 1410.3 75.0669 1414.87 75.0669 1420.05C75.0669 1423.46 74.4203 1426.18 73.127 1428.21C71.8769 1430.26 70.0232 1431.5 67.5661 1431.92C65.152 1432.37 62.2853 1431.9 58.9659 1430.53C52.3272 1427.78 47.7146 1423.62 45.1281 1418.07C42.5416 1412.47 41.2483 1405.45 41.2483 1397C41.2483 1388.14 42.6063 1382.12 45.3221 1378.95C48.081 1375.76 52.4781 1375.41 58.5133 1377.91C61.7464 1379.25 64.4622 1381.08 66.6608 1383.39C68.9024 1385.67 70.5836 1388.17 71.7045 1390.87C72.8684 1393.59 73.5581 1396.33 73.7737 1399.08L63.4923 1394.82ZM58.384 1406.14C56.5303 1405.37 54.9784 1405.33 53.7282 1406.03C52.5212 1406.69 51.9177 1408.12 51.9177 1410.32C51.9177 1412.56 52.4781 1414.54 53.5989 1416.26C54.7628 1418.01 56.401 1419.31 58.5133 1420.19C60.41 1420.98 61.8973 1420.99 62.975 1420.22C64.0958 1419.43 64.6562 1417.95 64.6562 1415.81C64.6562 1413.61 64.1174 1411.66 63.0397 1409.96C61.962 1408.25 60.41 1406.98 58.384 1406.14ZM81.321 1413.27C81.321 1405.24 82.7436 1399.51 85.5888 1396.07C88.477 1392.64 93.1112 1392.26 99.4912 1394.9C105.871 1397.55 110.484 1401.77 113.329 1407.57C116.217 1413.38 117.661 1420.31 117.661 1428.33C117.661 1436.45 116.217 1442.22 113.329 1445.65C110.484 1449.09 105.871 1449.49 99.4912 1446.84C93.1112 1444.2 88.477 1439.96 85.5888 1434.15C82.7436 1428.35 81.321 1421.39 81.321 1413.27ZM106.798 1423.83C106.798 1419.12 106.324 1415.3 105.376 1412.39C104.427 1409.43 102.466 1407.33 99.4912 1406.1C96.5167 1404.87 94.5553 1405.34 93.6069 1407.51C92.6585 1409.64 92.1843 1413.06 92.1843 1417.77C92.1843 1420.94 92.3568 1423.65 92.7016 1425.9C93.0465 1428.09 93.7362 1430.06 94.7709 1431.79C95.8486 1433.5 97.422 1434.78 99.4912 1435.64C101.56 1436.5 103.112 1436.51 104.147 1435.68C105.225 1434.82 105.936 1433.44 106.281 1431.53C106.626 1429.57 106.798 1427 106.798 1423.83ZM123.503 1430.76C123.503 1422.73 124.926 1417 127.771 1413.56C130.659 1410.13 135.293 1409.74 141.674 1412.39C148.054 1415.03 152.666 1419.26 155.511 1425.06C158.4 1430.87 159.844 1437.8 159.844 1445.82C159.844 1453.94 158.4 1459.71 155.511 1463.14C152.666 1466.58 148.054 1466.97 141.674 1464.33C135.293 1461.68 130.659 1457.45 127.771 1451.64C124.926 1445.84 123.503 1438.88 123.503 1430.76ZM148.98 1441.32C148.98 1436.61 148.506 1432.79 147.558 1429.88C146.609 1426.92 144.648 1424.82 141.674 1423.59C138.699 1422.36 136.738 1422.83 135.789 1425C134.841 1427.13 134.367 1430.55 134.367 1435.26C134.367 1438.43 134.539 1441.14 134.884 1443.38C135.229 1445.58 135.919 1447.55 136.953 1449.28C138.031 1450.99 139.604 1452.27 141.674 1453.13C143.743 1453.99 145.295 1454 146.329 1453.17C147.407 1452.31 148.118 1450.92 148.463 1449.01C148.808 1447.06 148.98 1444.49 148.98 1441.32ZM199.569 1469.43L188.318 1464.77L188.318 1477.23L177.842 1472.88L177.842 1460.42L166.591 1455.76L166.591 1445.05L177.842 1449.71L177.842 1437.18L188.318 1441.53L188.318 1454.06L199.569 1458.72L199.569 1469.43Z" fill="white"/>
<path d="M55.8332 1448.26L55.8332 1465.74L54.2166 1465.07L54.2166 1456.89L45.4641 1453.26L45.4641 1461.44L43.8475 1460.77L43.8475 1443.29L45.4641 1443.96L45.4641 1451.81L54.2166 1455.44L54.2166 1447.59L55.8332 1448.26ZM68.8745 1466.99L61.5307 1463.95L60.122 1467.51L58.413 1466.8L64.3019 1452L66.1264 1452.75L71.9922 1472.43L70.2832 1471.73L68.8745 1466.99ZM68.3896 1465.34L65.2026 1454.57L62.0157 1462.7L68.3896 1465.34ZM73.8476 1464.45C73.8476 1462.74 74.194 1461.35 74.8869 1460.29C75.5797 1459.21 76.5265 1458.54 77.7274 1458.29C78.9283 1458.02 80.2677 1458.19 81.7457 1458.8C83.547 1459.55 85.0866 1460.66 86.3645 1462.12C87.6577 1463.57 88.5969 1465.26 89.1819 1467.19L87.2882 1466.4C86.8264 1465.03 86.1181 1463.81 85.1636 1462.75C84.2244 1461.69 83.0852 1460.88 81.7457 1460.33C80.5602 1459.84 79.4902 1459.69 78.5357 1459.9C77.5965 1460.11 76.8575 1460.67 76.3187 1461.58C75.7798 1462.47 75.5104 1463.66 75.5104 1465.14C75.5104 1466.63 75.7798 1468.04 76.3187 1469.38C76.8575 1470.72 77.5965 1471.88 78.5357 1472.87C79.4902 1473.87 80.5602 1474.61 81.7457 1475.1C83.0852 1475.66 84.2244 1475.81 85.1636 1475.55C86.1181 1475.27 86.8264 1474.65 87.2882 1473.68L89.1819 1474.46C88.5969 1475.89 87.6577 1476.79 86.3645 1477.17C85.0712 1477.55 83.5316 1477.37 81.7457 1476.63C80.2677 1476.02 78.9283 1475.09 77.7274 1473.84C76.5265 1472.57 75.5797 1471.12 74.8869 1469.49C74.194 1467.85 73.8476 1466.17 73.8476 1464.45ZM101.017 1484.47L94.0197 1473.49L94.0197 1481.57L92.4031 1480.9L92.4031 1463.42L94.0197 1464.09L94.0197 1472.27L101.017 1466.99L103.072 1467.85L95.5208 1473.44L103.142 1485.35L101.017 1484.47ZM107.145 1470.96L107.145 1477.48L113.265 1480.02L113.265 1481.47L107.145 1478.93L107.145 1485.56L113.958 1488.38L113.958 1489.83L105.529 1486.34L105.529 1468.84L113.958 1472.33L113.958 1473.78L107.145 1470.96ZM125.734 1494.72L121.739 1485.76L118.76 1484.52L118.76 1491.82L117.143 1491.15L117.143 1473.68L121.993 1475.69C123.794 1476.44 125.157 1477.47 126.081 1478.79C127.02 1480.11 127.489 1481.53 127.489 1483.04C127.489 1484.31 127.151 1485.25 126.473 1485.87C125.811 1486.48 124.826 1486.65 123.517 1486.37L127.674 1495.52L125.734 1494.72ZM118.76 1483.1L122.016 1484.45C123.279 1484.97 124.225 1485.03 124.857 1484.63C125.503 1484.23 125.827 1483.47 125.827 1482.35C125.827 1481.2 125.519 1480.19 124.903 1479.32C124.287 1478.43 123.317 1477.71 121.993 1477.17L118.76 1475.82L118.76 1483.1ZM135.593 1498.98C134.531 1498.54 133.592 1497.95 132.776 1497.21C131.975 1496.48 131.344 1495.66 130.882 1494.75C130.42 1493.84 130.174 1492.94 130.143 1492.04L131.852 1492.75C131.929 1493.63 132.275 1494.53 132.891 1495.43C133.507 1496.32 134.408 1497.01 135.593 1497.5C136.686 1497.96 137.549 1498.01 138.18 1497.68C138.826 1497.33 139.15 1496.69 139.15 1495.75C139.15 1495 138.973 1494.33 138.619 1493.73C138.264 1493.12 137.826 1492.6 137.302 1492.16C136.779 1491.71 136.055 1491.16 135.131 1490.51C134.054 1489.75 133.199 1489.09 132.568 1488.52C131.937 1487.96 131.398 1487.27 130.951 1486.45C130.505 1485.64 130.282 1484.69 130.282 1483.6C130.282 1482.7 130.497 1481.99 130.928 1481.47C131.359 1480.93 131.968 1480.63 132.753 1480.55C133.538 1480.48 134.439 1480.65 135.455 1481.07C136.948 1481.69 138.149 1482.59 139.057 1483.77C139.981 1484.93 140.512 1486.17 140.651 1487.48L138.896 1486.75C138.788 1485.99 138.426 1485.2 137.81 1484.4C137.194 1483.58 136.363 1482.95 135.316 1482.51C134.346 1482.11 133.538 1482.06 132.891 1482.36C132.245 1482.64 131.921 1483.26 131.921 1484.23C131.921 1484.96 132.098 1485.63 132.453 1486.23C132.807 1486.82 133.245 1487.35 133.769 1487.8C134.308 1488.25 135.031 1488.8 135.94 1489.45C136.987 1490.2 137.833 1490.87 138.48 1491.45C139.127 1492.02 139.673 1492.71 140.12 1493.53C140.566 1494.35 140.789 1495.29 140.789 1496.36C140.789 1497.18 140.589 1497.87 140.189 1498.43C139.789 1499 139.196 1499.35 138.411 1499.47C137.626 1499.6 136.686 1499.43 135.593 1498.98Z" fill="white"/>
<path d="M452.411 196.41L452.411 1082.31L14.3145 901.456L452.411 196.41Z" fill="#FF3535" fill-opacity="0.2" stroke="#FF7979" stroke-width="3"/>
<rect x="1.38563" y="2.07448" width="480.754" height="395.285" transform="matrix(0.923752 0.38299 -3.06784e-08 1 7.03387 911.208)" fill="#FF3535" fill-opacity="0.2" stroke="#FF7979" stroke-width="3"/>
<path d="M352.646 1261.48C352.646 1344.59 296.274 1388.34 227.016 1359.63C157.757 1330.91 101.386 1240.42 101.386 1157.31C101.386 1074.19 157.758 1030.45 227.016 1059.16C296.274 1087.88 352.646 1178.37 352.646 1261.48Z" fill="#FF3535" fill-opacity="0.2" stroke="#FF7979" stroke-width="3"/>
<path d="M555.385 1261.48C555.385 1344.59 611.757 1388.34 681.016 1359.63C750.274 1330.91 806.646 1240.42 806.646 1157.31C806.646 1074.19 750.274 1030.45 681.016 1059.16C611.757 1087.88 555.385 1178.37 555.385 1261.48Z" fill="#FF3535" fill-opacity="0.2" stroke="#FF7979" stroke-width="3"/>
</svg>
