<svg width="1920" height="1834" viewBox="0 0 1920 1834" fill="none" xmlns="http://www.w3.org/2000/svg">
<path d="M1473.43 122.459C1467.28 119.186 1460.67 123.804 1451.31 130.321C1451.31 130.321 1438.26 117.636 1427.41 119.83" stroke="#91A3D5" stroke-width="6" stroke-linecap="round"/>
<path d="M1210.02 166.455C1203.79 163.35 1197.31 168.146 1188.12 174.916C1188.12 174.916 1174.73 162.59 1163.95 165.078" stroke="#91A3D5" stroke-width="6" stroke-linecap="round"/>
<path d="M2000.42 502.093C1981.67 486.29 1817.44 487.14 1737.67 489.541L1748.25 756.915L1984.13 757.879C1997.37 679.202 2019.17 517.895 2000.42 502.093Z" fill="#5C71AD"/>
<path d="M1655.48 79.3765C1619.39 77.2233 1619.45 103.558 1619.45 103.558C1607.65 124.604 1831.02 115.693 1826.95 100.809C1822.87 85.9253 1811.58 68.6265 1789.11 75.1599C1789.11 39.5 1744.5 4.50008 1711 51.5001C1682.94 24.2762 1655.48 64.5 1655.48 79.3765Z" fill="#EEFCFF"/>
<path d="M1136.07 22.0542C1109.55 4.79756 1098.02 27.7031 1095.57 41.313C1086.63 56.0767 1248.18 52.2541 1245.59 41.5337C1243 30.8133 1229.27 25.8107 1223.58 28.0424C1220.79 8.60522 1191.09 8.98616 1188.22 15.6287C1168.8 -11.5789 1142.56 8.7649 1136.07 22.0542Z" fill="#EEFCFF"/>
<path d="M-284.001 505.609C-351.001 818.992 -113.834 749.992 -152.001 818.992H-128.001L-48.5 639H248L803 677C732.667 576.333 725.499 531.992 626.499 505.609C538.56 482.174 -277.321 474.362 -284.001 505.609Z" fill="#5C71AD"/>
<path d="M833 388C773 388 674.667 543.5 636.5 612.5L650 649.5L989 736H1354L1963.5 649.5C1893.17 548.833 1732.5 388 1671 388H833Z" fill="#90A1D4"/>
<path d="M1090.39 300H1133.61L1143 325H1081L1090.39 300Z" fill="#3B4779"/>
<rect x="1048" y="325" width="83" height="63" fill="#BFCFF6"/>
<path d="M1129.33 240H1137L1144 262H1122L1129.33 240Z" fill="#3B4779"/>
<path d="M1144 262H1122V386H1144V262Z" fill="#BFCFF6"/>
<path d="M1066.33 245H1074L1081 267H1059L1066.33 245Z" fill="#3B4779"/>
<path d="M1081 267H1059V388H1081V267Z" fill="#BFCFF6"/>
<path d="M1070 385V376.105C1070 373.83 1065.5 371 1065.5 371C1065.5 371 1061 373.83 1061 376.105V385H1070Z" fill="#3B4779"/>
<path d="M1066 349C1066.55 349 1067 346.538 1067 343.5C1067 340.462 1066.55 338 1066 338C1065.45 338 1065 340.462 1065 343.5C1065 346.538 1065.45 349 1066 349Z" fill="#3B4779"/>
<path d="M1063 349C1063.55 349 1064 346.538 1064 343.5C1064 340.462 1063.55 338 1063 338C1062.45 338 1062 340.462 1062 343.5C1062 346.538 1062.45 349 1063 349Z" fill="#3B4779"/>
<path d="M1069 349C1069.55 349 1070 346.538 1070 343.5C1070 340.462 1069.55 338 1069 338C1068.45 338 1068 340.462 1068 343.5C1068 346.538 1068.45 349 1069 349Z" fill="#3B4779"/>
<path d="M1328.39 75.5667H1327.49V89.8025H1328.39V75.5667Z" fill="#BFCFF6"/>
<path d="M1357 258H1299V388H1357V258Z" fill="#5C71AD"/>
<path d="M1357.21 193.013H1298.67V250.846H1357.21V193.013Z" fill="#5C71AD"/>
<path d="M1287.86 250.846H1368.02L1363.51 257.964H1292.36L1287.86 250.846Z" fill="#3B4779"/>
<path d="M1296.41 201.91C1297.16 201.91 1297.76 201.313 1297.76 200.576C1297.76 199.838 1297.16 199.241 1296.41 199.241C1295.67 199.241 1295.06 199.838 1295.06 200.576C1295.06 201.313 1295.67 201.91 1296.41 201.91Z" fill="#5C71AD"/>
<path d="M1359.46 201.91C1360.21 201.91 1360.81 201.313 1360.81 200.576C1360.81 199.838 1360.21 199.241 1359.46 199.241C1358.71 199.241 1358.11 199.838 1358.11 200.576C1358.11 201.313 1358.71 201.91 1359.46 201.91Z" fill="#5C71AD"/>
<path d="M1327.94 89.8025L1357.19 193.235H1298.69L1327.94 89.8025Z" fill="#3B4779"/>
<path d="M1331.09 86.2437H1324.79V100.48H1331.09V86.2437Z" fill="#3B4779"/>
<path d="M1363.51 215.256H1355.41V250.846H1363.51V215.256Z" fill="#BFCFF6"/>
<path d="M1300.47 215.256H1292.36V250.846H1300.47V215.256Z" fill="#BFCFF6"/>
<path d="M1311.27 295.333C1312.27 295.333 1313.08 288.561 1313.08 280.208C1313.08 271.854 1312.27 265.082 1311.27 265.082C1310.28 265.082 1309.47 271.854 1309.47 280.208C1309.47 288.561 1310.28 295.333 1311.27 295.333Z" fill="white"/>
<path d="M1322.08 295.333C1323.08 295.333 1323.88 288.561 1323.88 280.208C1323.88 271.854 1323.08 265.082 1322.08 265.082C1321.09 265.082 1320.28 271.854 1320.28 280.208C1320.28 288.561 1321.09 295.333 1322.08 295.333Z" fill="white"/>
<path d="M1343.7 295.333C1344.69 295.333 1345.5 288.561 1345.5 280.208C1345.5 271.854 1344.69 265.082 1343.7 265.082C1342.7 265.082 1341.9 271.854 1341.9 280.208C1341.9 288.561 1342.7 295.333 1343.7 295.333Z" fill="white"/>
<path d="M1332.89 295.333C1333.89 295.333 1334.69 288.561 1334.69 280.208C1334.69 271.854 1333.89 265.082 1332.89 265.082C1331.9 265.082 1331.09 271.854 1331.09 280.208C1331.09 288.561 1331.9 295.333 1332.89 295.333Z" fill="white"/>
<path d="M1346.4 64H1327.49V75.5667H1346.4V64Z" fill="#BFCFF6"/>
<path d="M1296.41 199.241L1292.12 215.924H1300.7L1296.41 199.241Z" fill="#3B4779"/>
<path d="M1359.46 199.241L1355.17 215.924H1363.75L1359.46 199.241Z" fill="#3B4779"/>
<path d="M1328.39 246.397C1341.82 246.397 1352.71 235.642 1352.71 222.374C1352.71 209.107 1341.82 198.351 1328.39 198.351C1314.96 198.351 1304.07 209.107 1304.07 222.374C1304.07 235.642 1314.96 246.397 1328.39 246.397Z" fill="#BFCFF6"/>
<path d="M1328.39 242.838C1339.83 242.838 1349.1 233.676 1349.1 222.374C1349.1 211.072 1339.83 201.91 1328.39 201.91C1316.95 201.91 1307.67 211.072 1307.67 222.374C1307.67 233.676 1316.95 242.838 1328.39 242.838Z" fill="white"/>
<path d="M1327.94 225.044C1329.18 225.044 1330.19 224.048 1330.19 222.819C1330.19 221.591 1329.18 220.595 1327.94 220.595C1326.69 220.595 1325.69 221.591 1325.69 222.819C1325.69 224.048 1326.69 225.044 1327.94 225.044Z" fill="#5C71AD"/>
<path d="M1327.94 222.819L1318.48 229.492" stroke="#5C71AD"/>
<path d="M1327.94 222.819L1339.52 232.81" stroke="#5C71AD"/>
<path d="M1209.2 294L1214.39 307.5H1204L1209.2 294Z" fill="#3B4779"/>
<path d="M1235.2 294L1240.39 307.5H1230L1235.2 294Z" fill="#3B4779"/>
<path d="M1143.77 380.532C1148.08 380.532 1147.51 381.156 1147.51 376.12C1147.51 371.083 1145.83 367 1143.77 367C1141.7 367 1140.03 371.083 1140.03 376.12C1140.03 380.934 1139.45 380.532 1143.77 380.532Z" fill="#BFCFF6"/>
<path d="M1143.5 325L1154.33 343.75H1132.67L1143.5 325Z" fill="#5C71AD"/>
<path d="M1146 357C1146.55 357 1147 355.209 1147 353C1147 350.791 1146.55 349 1146 349C1145.45 349 1145 350.791 1145 353C1145 355.209 1145.45 357 1146 357Z" fill="#BFCFF6"/>
<path d="M1141 357C1141.55 357 1142 355.209 1142 353C1142 350.791 1141.55 349 1141 349C1140.45 349 1140 350.791 1140 353C1140 355.209 1140.45 357 1141 357Z" fill="#BFCFF6"/>
<path d="M1138 357C1138.55 357 1139 355.209 1139 353C1139 350.791 1138.55 349 1138 349C1137.45 349 1137 350.791 1137 353C1137 355.209 1137.45 357 1138 357Z" fill="#BFCFF6"/>
<path d="M1149 357C1149.55 357 1150 355.209 1150 353C1150 350.791 1149.55 349 1149 349C1148.45 349 1148 350.791 1148 353C1148 355.209 1148.45 357 1149 357Z" fill="#BFCFF6"/>
<path d="M1117.19 318H1490V343H1081L1117.19 318Z" fill="#43518D"/>
<path d="M1445.5 325L1456.33 343.75H1434.67L1445.5 325Z" fill="#5C71AD"/>
<path d="M1081 343H1490V388H1081V343Z" fill="#5C71AD"/>
<path d="M1363 381V372.105C1363 369.83 1358.5 367 1358.5 367C1358.5 367 1354 369.83 1354 372.105V381H1363Z" fill="#BFCFF6"/>
<path d="M1323 381V372.105C1323 369.83 1318.5 367 1318.5 367C1318.5 367 1314 369.83 1314 372.105V381H1323Z" fill="#BFCFF6"/>
<path d="M1403 381V372.105C1403 369.83 1398.5 367 1398.5 367C1398.5 367 1394 369.83 1394 372.105V381H1403Z" fill="#BFCFF6"/>
<path d="M1143.5 325L1154.33 343.75H1132.67L1143.5 325Z" fill="#5C71AD"/>
<path d="M1143.77 380.532C1148.08 380.532 1147.51 381.156 1147.51 376.12C1147.51 371.083 1145.83 367 1143.77 367C1141.7 367 1140.03 371.083 1140.03 376.12C1140.03 380.934 1139.45 380.532 1143.77 380.532Z" fill="#BFCFF6"/>
<path d="M1146 357C1146.55 357 1147 355.209 1147 353C1147 350.791 1146.55 349 1146 349C1145.45 349 1145 350.791 1145 353C1145 355.209 1145.45 357 1146 357Z" fill="#BFCFF6"/>
<path d="M1141 357C1141.55 357 1142 355.209 1142 353C1142 350.791 1141.55 349 1141 349C1140.45 349 1140 350.791 1140 353C1140 355.209 1140.45 357 1141 357Z" fill="#BFCFF6"/>
<path d="M1138 357C1138.55 357 1139 355.209 1139 353C1139 350.791 1138.55 349 1138 349C1137.45 349 1137 350.791 1137 353C1137 355.209 1137.45 357 1138 357Z" fill="#BFCFF6"/>
<path d="M1149 357C1149.55 357 1150 355.209 1150 353C1150 350.791 1149.55 349 1149 349C1148.45 349 1148 350.791 1148 353C1148 355.209 1148.45 357 1149 357Z" fill="#BFCFF6"/>
<path d="M1445.77 380.532C1450.08 380.532 1449.51 381.156 1449.51 376.12C1449.51 371.083 1447.83 367 1445.77 367C1443.7 367 1442.03 371.083 1442.03 376.12C1442.03 380.934 1441.45 380.532 1445.77 380.532Z" fill="#BFCFF6"/>
<path d="M1448 357C1448.55 357 1449 355.209 1449 353C1449 350.791 1448.55 349 1448 349C1447.45 349 1447 350.791 1447 353C1447 355.209 1447.45 357 1448 357Z" fill="#BFCFF6"/>
<path d="M1443 357C1443.55 357 1444 355.209 1444 353C1444 350.791 1443.55 349 1443 349C1442.45 349 1442 350.791 1442 353C1442 355.209 1442.45 357 1443 357Z" fill="#BFCFF6"/>
<path d="M1440 357C1440.55 357 1441 355.209 1441 353C1441 350.791 1440.55 349 1440 349C1439.45 349 1439 350.791 1439 353C1439 355.209 1439.45 357 1440 357Z" fill="#BFCFF6"/>
<path d="M1451 357C1451.55 357 1452 355.209 1452 353C1452 350.791 1451.55 349 1451 349C1450.45 349 1450 350.791 1450 353C1450 355.209 1450.45 357 1451 357Z" fill="#BFCFF6"/>
<path d="M1112 381V372.105C1112 369.83 1107.5 367 1107.5 367C1107.5 367 1103 369.83 1103 372.105V381H1112Z" fill="#BFCFF6"/>
<path d="M1314 381L1323 381" stroke="#3B4779" stroke-width="3" stroke-linecap="round"/>
<path d="M1156 346L1433 346" stroke="#43518D" stroke-width="3" stroke-linecap="round"/>
<path d="M1354 381L1363 381" stroke="#3B4779" stroke-width="3" stroke-linecap="round"/>
<path d="M1083 346H1131" stroke="#43518D" stroke-width="3" stroke-linecap="round"/>
<path d="M1103 381L1112 381" stroke="#3B4779" stroke-width="3" stroke-linecap="round"/>
<path d="M1394 381L1403 381" stroke="#3B4779" stroke-width="3" stroke-linecap="round"/>
<path d="M1458 347L1485 347" stroke="#43518D" stroke-width="3" stroke-linecap="round"/>
<path d="M1491.39 303H1534.61L1544 328H1482L1491.39 303Z" fill="#3B4779"/>
<rect x="1482" y="325" width="90" height="63" fill="#BFCFF6"/>
<path d="M1489.33 248H1497L1504 270H1482L1489.33 248Z" fill="#3B4779"/>
<path d="M1504 269H1482V353H1504V269Z" fill="#BFCFF6"/>
<path d="M1550.33 243H1558L1565 265H1543L1550.33 243Z" fill="#3B4779"/>
<path d="M1565 264H1543V348H1565V264Z" fill="#BFCFF6"/>
<path d="M1523.5 307L1534.33 325.75H1512.67L1523.5 307Z" fill="#BFCFF6"/>
<path d="M1508 385V376.105C1508 373.83 1503.5 371 1503.5 371C1503.5 371 1499 373.83 1499 376.105V385H1508Z" fill="#3B4779"/>
<path d="M1528 385V376.105C1528 373.83 1523.5 371 1523.5 371C1523.5 371 1519 373.83 1519 376.105V385H1528Z" fill="#3B4779"/>
<path d="M1548 385V376.105C1548 373.83 1543.5 371 1543.5 371C1543.5 371 1539 373.83 1539 376.105V385H1548Z" fill="#3B4779"/>
<path d="M1524 358.958C1532.02 358.958 1530.95 360.017 1530.95 351.472C1530.95 342.927 1527.84 336 1524 336C1520.16 336 1517.05 342.927 1517.05 351.472C1517.05 359.639 1515.98 358.958 1524 358.958Z" fill="white"/>
<path d="M1544 354C1544.55 354 1545 351.538 1545 348.5C1545 345.462 1544.55 343 1544 343C1543.45 343 1543 345.462 1543 348.5C1543 351.538 1543.45 354 1544 354Z" fill="#3B4779"/>
<path d="M1541 354C1541.55 354 1542 351.538 1542 348.5C1542 345.462 1541.55 343 1541 343C1540.45 343 1540 345.462 1540 348.5C1540 351.538 1540.45 354 1541 354Z" fill="#3B4779"/>
<path d="M1547 354C1547.55 354 1548 351.538 1548 348.5C1548 345.462 1547.55 343 1547 343C1546.45 343 1546 345.462 1546 348.5C1546 351.538 1546.45 354 1547 354Z" fill="#3B4779"/>
<path d="M1504 354C1504.55 354 1505 351.538 1505 348.5C1505 345.462 1504.55 343 1504 343C1503.45 343 1503 345.462 1503 348.5C1503 351.538 1503.45 354 1504 354Z" fill="#3B4779"/>
<path d="M1501 354C1501.55 354 1502 351.538 1502 348.5C1502 345.462 1501.55 343 1501 343C1500.45 343 1500 345.462 1500 348.5C1500 351.538 1500.45 354 1501 354Z" fill="#3B4779"/>
<path d="M1507 354C1507.55 354 1508 351.538 1508 348.5C1508 345.462 1507.55 343 1507 343C1506.45 343 1506 345.462 1506 348.5C1506 351.538 1506.45 354 1507 354Z" fill="#3B4779"/>
<path d="M1194.09 295.666H1192.67V301.986H1194.09V295.666Z" fill="#3B4779"/>
<path d="M1193.38 292.821L1192.63 295.784H1194.13L1193.38 292.821Z" fill="#3B4779"/>
<path d="M1193.38 293.295C1193.51 293.295 1193.62 293.189 1193.62 293.058C1193.62 292.927 1193.51 292.821 1193.38 292.821C1193.25 292.821 1193.14 292.927 1193.14 293.058C1193.14 293.189 1193.25 293.295 1193.38 293.295Z" fill="#5C71AD"/>
<path d="M1208.79 257.282H1207.72V262.044H1208.79V257.282Z" fill="#3B4779"/>
<path d="M1208.26 255.139L1207.69 257.372H1208.82L1208.26 255.139Z" fill="#3B4779"/>
<path d="M1208.26 255.496C1208.36 255.496 1208.44 255.416 1208.44 255.318C1208.44 255.219 1208.36 255.139 1208.26 255.139C1208.16 255.139 1208.08 255.219 1208.08 255.318C1208.08 255.416 1208.16 255.496 1208.26 255.496Z" fill="#5C71AD"/>
<path d="M1238.17 257.282H1237.09V262.044H1238.17V257.282Z" fill="#3B4779"/>
<path d="M1237.63 255.139L1237.06 257.372H1238.2L1237.63 255.139Z" fill="#3B4779"/>
<path d="M1237.63 255.496C1237.73 255.496 1237.81 255.416 1237.81 255.318C1237.81 255.219 1237.73 255.139 1237.63 255.139C1237.53 255.139 1237.45 255.219 1237.45 255.318C1237.45 255.416 1237.53 255.496 1237.63 255.496Z" fill="#5C71AD"/>
<path d="M1250.58 295.642H1249.15V301.962H1250.58V295.642Z" fill="#3B4779"/>
<path d="M1249.87 292.797L1249.11 295.76H1250.62L1249.87 292.797Z" fill="#3B4779"/>
<path d="M1249.87 293.271C1250 293.271 1250.1 293.165 1250.1 293.034C1250.1 292.904 1250 292.797 1249.87 292.797C1249.74 292.797 1249.63 292.904 1249.63 293.034C1249.63 293.165 1249.74 293.271 1249.87 293.271Z" fill="#5C71AD"/>
<path d="M1208.05 276.981H1237.45L1243.84 302.589H1201.66L1208.05 276.981Z" fill="#BFCFF6"/>
<path d="M1223.43 222H1222.75V232.846H1223.43V222Z" fill="#BFCFF6"/>
<rect x="1162.5" y="366.608" width="119" height="21.0886" fill="#BFCFF6"/>
<rect x="1179.82" y="327.443" width="83.6013" height="25.6076" fill="#BFCFF6"/>
<path d="M1192.48 301.836H1250.76L1263.42 327.443H1179.82L1192.48 301.836Z" fill="#3B4779"/>
<path d="M1180.52 353.051H1263.48L1281.5 366.608H1162.5L1180.52 353.051Z" fill="#3B4779"/>
<rect x="1206.94" y="261.918" width="31.6329" height="15.0633" fill="#3B4779"/>
<path d="M1223.13 228.779L1234.54 263.236H1211.72L1223.13 228.779Z" fill="#3B4779"/>
<path d="M1195.64 348.507C1199.95 348.507 1199.38 349.131 1199.38 344.094C1199.38 339.058 1197.7 334.975 1195.64 334.975C1193.57 334.975 1191.9 339.058 1191.9 344.094C1191.9 348.908 1191.32 348.507 1195.64 348.507Z" fill="white"/>
<path d="M1222 348.507C1226.32 348.507 1225.74 349.131 1225.74 344.094C1225.74 339.058 1224.07 334.975 1222 334.975C1219.93 334.975 1218.26 339.058 1218.26 344.094C1218.26 349.131 1217.68 348.507 1222 348.507Z" fill="white"/>
<path d="M1247.61 348.507C1251.92 348.507 1251.35 349.131 1251.35 344.094C1251.35 339.058 1249.67 334.975 1247.61 334.975C1245.54 334.975 1243.87 339.058 1243.87 344.094C1243.87 349.131 1243.29 348.507 1247.61 348.507Z" fill="white"/>
<path d="M1163.96 360.374H1162.54V366.607H1163.96V360.374Z" fill="#3B4779"/>
<path d="M1163.25 357.57L1162.5 360.491H1164.01L1163.25 357.57Z" fill="#3B4779"/>
<path d="M1163.25 358.037C1163.38 358.037 1163.49 357.932 1163.49 357.803C1163.49 357.674 1163.38 357.569 1163.25 357.569C1163.12 357.569 1163.02 357.674 1163.02 357.803C1163.02 357.932 1163.12 358.037 1163.25 358.037Z" fill="#5C71AD"/>
<path d="M1281.46 360.374H1280.04V366.607H1281.46V360.374Z" fill="#3B4779"/>
<path d="M1280.75 357.569L1279.99 360.491H1281.5L1280.75 357.569Z" fill="#3B4779"/>
<path d="M1280.75 358.037C1280.88 358.037 1280.98 357.932 1280.98 357.803C1280.98 357.674 1280.88 357.569 1280.75 357.569C1280.62 357.569 1280.51 357.674 1280.51 357.803C1280.51 357.932 1280.62 358.037 1280.75 358.037Z" fill="#5C71AD"/>
<path d="M1177.03 384.168C1181.04 384.159 1180.5 384.759 1180.49 379.929C1180.48 375.099 1178.92 371.187 1177 371.191C1175.08 371.195 1173.53 375.114 1173.54 379.943C1173.55 384.773 1173.02 384.176 1177.03 384.168Z" fill="white"/>
<path d="M1244.53 384.03C1249.11 384.02 1248.5 384.62 1248.49 379.79C1248.48 374.96 1246.69 371.049 1244.5 371.053C1242.31 371.058 1240.54 374.977 1240.54 379.806C1240.55 384.636 1239.94 384.039 1244.53 384.03Z" fill="white"/>
<path d="M1267.03 383.984C1271.04 383.975 1270.5 384.575 1270.49 379.745C1270.48 374.915 1268.92 371.003 1267 371.007C1265.08 371.011 1263.53 374.93 1263.54 379.759C1263.55 384.589 1263.02 383.992 1267.03 383.984Z" fill="white"/>
<path d="M1222.03 384.076C1226.04 384.067 1225.5 384.667 1225.49 379.837C1225.48 375.007 1223.92 371.095 1222 371.099C1220.08 371.103 1218.53 375.022 1218.54 379.851C1218.55 384.681 1218.02 384.084 1222.03 384.076Z" fill="white"/>
<path d="M1199.53 384.122C1204.11 384.112 1203.5 384.712 1203.49 379.882C1203.48 375.052 1201.69 371.141 1199.5 371.145C1197.31 371.15 1195.54 375.069 1195.54 379.898C1195.55 384.728 1194.94 384.131 1199.53 384.122Z" fill="white"/>
<path d="M1518 358H1530" stroke="#3B4779" stroke-width="3" stroke-linecap="round"/>
<path d="M1076.52 934.272H1119.88L1129.29 909.194H1067.1L1076.52 934.272Z" fill="#3B4779"/>
<rect width="83.2562" height="63.1944" transform="matrix(1 0 0 -1 1034 909.194)" fill="#BFCFF6"/>
<path d="M1115.58 994.457H1123.27L1130.3 972.389H1108.23L1115.58 994.457Z" fill="#3B4779"/>
<path d="M1130.3 972.389H1108.23V848.006H1130.3V972.389Z" fill="#BFCFF6"/>
<path d="M1052.39 989.441H1060.08L1067.1 967.373H1045.04L1052.39 989.441Z" fill="#3B4779"/>
<path d="M1067.1 967.373H1045.04V846H1067.1V967.373Z" fill="#BFCFF6"/>
<path d="M1056.07 849.009V857.932C1056.07 860.213 1051.55 863.052 1051.55 863.052C1051.55 863.052 1047.04 860.213 1047.04 857.932V849.009H1056.07Z" fill="#3B4779"/>
<path d="M1052.06 885.12C1052.61 885.12 1053.06 887.59 1053.06 890.637C1053.06 893.684 1052.61 896.154 1052.06 896.154C1051.5 896.154 1051.05 893.684 1051.05 890.637C1051.05 887.59 1051.5 885.12 1052.06 885.12Z" fill="#3B4779"/>
<path d="M1049.05 885.12C1049.6 885.12 1050.05 887.59 1050.05 890.637C1050.05 893.684 1049.6 896.154 1049.05 896.154C1048.49 896.154 1048.04 893.684 1048.04 890.637C1048.04 887.59 1048.49 885.12 1049.05 885.12Z" fill="#3B4779"/>
<path d="M1055.07 885.12C1055.62 885.12 1056.07 887.59 1056.07 890.637C1056.07 893.684 1055.62 896.154 1055.07 896.154C1054.51 896.154 1054.06 893.684 1054.06 890.637C1054.06 887.59 1054.51 885.12 1055.07 885.12Z" fill="#3B4779"/>
<path d="M1315.25 1159.4H1314.35V1145.12H1315.25V1159.4Z" fill="#BFCFF6"/>
<path d="M1343.95 976.401H1285.78V846H1343.95V976.401Z" fill="#5C71AD"/>
<path d="M1344.16 1041.59H1285.44V983.577H1344.16V1041.59Z" fill="#5C71AD"/>
<path d="M1274.6 983.577H1355L1350.49 976.437H1279.11L1274.6 983.577Z" fill="#3B4779"/>
<path d="M1283.18 1032.66C1283.93 1032.66 1284.53 1033.26 1284.53 1034C1284.53 1034.74 1283.93 1035.34 1283.18 1035.34C1282.43 1035.34 1281.82 1034.74 1281.82 1034C1281.82 1033.26 1282.43 1032.66 1283.18 1032.66Z" fill="#5C71AD"/>
<path d="M1346.42 1032.66C1347.17 1032.66 1347.78 1033.26 1347.78 1034C1347.78 1034.74 1347.17 1035.34 1346.42 1035.34C1345.67 1035.34 1345.07 1034.74 1345.07 1034C1345.07 1033.26 1345.67 1032.66 1346.42 1032.66Z" fill="#5C71AD"/>
<path d="M1314.8 1145.12L1344.14 1041.37H1285.46L1314.8 1145.12Z" fill="#3B4779"/>
<path d="M1317.96 1148.69H1311.64V1134.41H1317.96V1148.69Z" fill="#3B4779"/>
<path d="M1350.49 1019.28H1342.36V983.577H1350.49V1019.28Z" fill="#BFCFF6"/>
<path d="M1287.25 1019.28H1279.12V983.577H1287.25V1019.28Z" fill="#BFCFF6"/>
<path d="M1298.09 938.953C1299.09 938.953 1299.9 945.746 1299.9 954.125C1299.9 962.505 1299.09 969.297 1298.09 969.297C1297.09 969.297 1296.28 962.505 1296.28 954.125C1296.28 945.746 1297.09 938.953 1298.09 938.953Z" fill="white"/>
<path d="M1308.93 938.953C1309.93 938.953 1310.73 945.746 1310.73 954.125C1310.73 962.505 1309.93 969.297 1308.93 969.297C1307.93 969.297 1307.12 962.505 1307.12 954.125C1307.12 945.746 1307.93 938.953 1308.93 938.953Z" fill="white"/>
<path d="M1330.61 938.953C1331.61 938.953 1332.42 945.746 1332.42 954.125C1332.42 962.505 1331.61 969.297 1330.61 969.297C1329.61 969.297 1328.8 962.505 1328.8 954.125C1328.8 945.746 1329.61 938.953 1330.61 938.953Z" fill="white"/>
<path d="M1319.77 938.953C1320.77 938.953 1321.58 945.746 1321.58 954.125C1321.58 962.505 1320.77 969.297 1319.77 969.297C1318.77 969.297 1317.96 962.505 1317.96 954.125C1317.96 945.746 1318.77 938.953 1319.77 938.953Z" fill="white"/>
<path d="M1333.32 1171H1314.35V1159.4H1333.32V1171Z" fill="#BFCFF6"/>
<path d="M1283.18 1035.34L1278.88 1018.61H1287.48L1283.18 1035.34Z" fill="#3B4779"/>
<path d="M1346.42 1035.34L1342.12 1018.61H1350.73L1346.42 1035.34Z" fill="#3B4779"/>
<path d="M1315.25 988.04C1328.72 988.04 1339.65 998.828 1339.65 1012.14C1339.65 1025.45 1328.72 1036.23 1315.25 1036.23C1301.78 1036.23 1290.86 1025.45 1290.86 1012.14C1290.86 998.828 1301.78 988.04 1315.25 988.04Z" fill="#BFCFF6"/>
<path d="M1315.25 991.61C1326.73 991.61 1336.03 1000.8 1336.03 1012.14C1336.03 1023.47 1326.73 1032.66 1315.25 1032.66C1303.78 1032.66 1294.47 1023.47 1294.47 1012.14C1294.47 1000.8 1303.78 991.61 1315.25 991.61Z" fill="white"/>
<path d="M1314.8 1009.46C1316.05 1009.46 1317.06 1010.46 1317.06 1011.69C1317.06 1012.92 1316.05 1013.92 1314.8 1013.92C1313.55 1013.92 1312.54 1012.92 1312.54 1011.69C1312.54 1010.46 1313.55 1009.46 1314.8 1009.46Z" fill="#5C71AD"/>
<path d="M1314.8 1011.69L1305.31 1005" stroke="#5C71AD"/>
<path d="M1314.8 1011.69L1326.42 1001.67" stroke="#5C71AD"/>
<path d="M1195.69 940.29L1200.9 926.748H1190.48L1195.69 940.29Z" fill="#3B4779"/>
<path d="M1221.77 940.29L1226.99 926.748H1216.56L1221.77 940.29Z" fill="#3B4779"/>
<path d="M1130.06 853.491C1134.39 853.491 1133.81 852.865 1133.81 857.917C1133.81 862.969 1132.13 867.065 1130.06 867.065C1127.99 867.065 1126.31 862.969 1126.31 857.917C1126.31 853.088 1125.73 853.491 1130.06 853.491Z" fill="#BFCFF6"/>
<path d="M1129.79 909.194L1140.65 890.386H1118.94L1129.79 909.194Z" fill="#5C71AD"/>
<path d="M1132.3 877.096C1132.86 877.096 1133.31 878.892 1133.31 881.108C1133.31 883.324 1132.86 885.121 1132.3 885.121C1131.75 885.121 1131.3 883.324 1131.3 881.108C1131.3 878.892 1131.75 877.096 1132.3 877.096Z" fill="#BFCFF6"/>
<path d="M1127.29 877.096C1127.84 877.096 1128.29 878.892 1128.29 881.108C1128.29 883.324 1127.84 885.121 1127.29 885.121C1126.73 885.121 1126.29 883.324 1126.29 881.108C1126.29 878.892 1126.73 877.096 1127.29 877.096Z" fill="#BFCFF6"/>
<path d="M1124.28 877.096C1124.83 877.096 1125.28 878.892 1125.28 881.108C1125.28 883.324 1124.83 885.12 1124.28 885.12C1123.72 885.12 1123.28 883.324 1123.28 881.108C1123.28 878.892 1123.72 877.096 1124.28 877.096Z" fill="#BFCFF6"/>
<path d="M1135.31 877.096C1135.87 877.096 1136.32 878.892 1136.32 881.108C1136.32 883.324 1135.87 885.121 1135.31 885.121C1134.76 885.121 1134.31 883.324 1134.31 881.108C1134.31 878.892 1134.76 877.096 1135.31 877.096Z" fill="#BFCFF6"/>
<path d="M1103.41 916.216H1477.36V891.139H1067.1L1103.41 916.216Z" fill="#43518D"/>
<path d="M1432.73 909.194L1443.58 890.387H1421.87L1432.73 909.194Z" fill="#5C71AD"/>
<path d="M1067.1 891.139H1477.36V846H1067.1V891.139Z" fill="#5C71AD"/>
<path d="M1349.97 853.022V861.944C1349.97 864.226 1345.46 867.065 1345.46 867.065C1345.46 867.065 1340.94 864.226 1340.94 861.944V853.022H1349.97Z" fill="#BFCFF6"/>
<path d="M1309.85 853.022V861.944C1309.85 864.226 1305.33 867.065 1305.33 867.065C1305.33 867.065 1300.82 864.226 1300.82 861.944V853.022H1309.85Z" fill="#BFCFF6"/>
<path d="M1390.1 853.022V861.944C1390.1 864.226 1385.58 867.065 1385.58 867.065C1385.58 867.065 1381.07 864.226 1381.07 861.944V853.022H1390.1Z" fill="#BFCFF6"/>
<path d="M1129.79 909.194L1140.65 890.387H1118.94L1129.79 909.194Z" fill="#5C71AD"/>
<path d="M1130.06 853.491C1134.39 853.491 1133.81 852.865 1133.81 857.917C1133.81 862.969 1132.13 867.065 1130.06 867.065C1127.99 867.065 1126.31 862.969 1126.31 857.917C1126.31 853.088 1125.73 853.491 1130.06 853.491Z" fill="#BFCFF6"/>
<path d="M1132.3 877.096C1132.86 877.096 1133.31 878.892 1133.31 881.108C1133.31 883.324 1132.86 885.121 1132.3 885.121C1131.75 885.121 1131.3 883.324 1131.3 881.108C1131.3 878.892 1131.75 877.096 1132.3 877.096Z" fill="#BFCFF6"/>
<path d="M1127.29 877.096C1127.84 877.096 1128.29 878.892 1128.29 881.108C1128.29 883.324 1127.84 885.121 1127.29 885.121C1126.73 885.121 1126.28 883.324 1126.28 881.108C1126.28 878.892 1126.73 877.096 1127.29 877.096Z" fill="#BFCFF6"/>
<path d="M1124.28 877.096C1124.83 877.096 1125.28 878.892 1125.28 881.108C1125.28 883.324 1124.83 885.121 1124.28 885.121C1123.72 885.121 1123.27 883.324 1123.27 881.108C1123.27 878.892 1123.72 877.096 1124.28 877.096Z" fill="#BFCFF6"/>
<path d="M1135.31 877.096C1135.87 877.096 1136.31 878.892 1136.31 881.108C1136.31 883.324 1135.87 885.121 1135.31 885.121C1134.76 885.121 1134.31 883.324 1134.31 881.108C1134.31 878.892 1134.76 877.096 1135.31 877.096Z" fill="#BFCFF6"/>
<path d="M1432.99 853.491C1437.32 853.491 1436.74 852.865 1436.74 857.917C1436.74 862.969 1435.06 867.065 1432.99 867.065C1430.92 867.065 1429.24 862.969 1429.24 857.917C1429.24 853.088 1428.66 853.491 1432.99 853.491Z" fill="#BFCFF6"/>
<path d="M1435.24 877.096C1435.79 877.096 1436.24 878.892 1436.24 881.108C1436.24 883.324 1435.79 885.121 1435.24 885.121C1434.68 885.121 1434.23 883.324 1434.23 881.108C1434.23 878.892 1434.68 877.096 1435.24 877.096Z" fill="#BFCFF6"/>
<path d="M1430.22 877.096C1430.77 877.096 1431.22 878.892 1431.22 881.108C1431.22 883.324 1430.77 885.121 1430.22 885.121C1429.67 885.121 1429.22 883.324 1429.22 881.108C1429.22 878.892 1429.67 877.096 1430.22 877.096Z" fill="#BFCFF6"/>
<path d="M1427.21 877.096C1427.76 877.096 1428.21 878.892 1428.21 881.108C1428.21 883.324 1427.76 885.121 1427.21 885.121C1426.66 885.121 1426.21 883.324 1426.21 881.108C1426.21 878.892 1426.66 877.096 1427.21 877.096Z" fill="#BFCFF6"/>
<path d="M1438.24 877.096C1438.8 877.096 1439.25 878.892 1439.25 881.108C1439.25 883.324 1438.8 885.121 1438.24 885.121C1437.69 885.121 1437.24 883.324 1437.24 881.108C1437.24 878.892 1437.69 877.096 1438.24 877.096Z" fill="#BFCFF6"/>
<path d="M1098.2 853.022V861.944C1098.2 864.226 1093.68 867.065 1093.68 867.065C1093.68 867.065 1089.17 864.226 1089.17 861.944V853.022H1098.2Z" fill="#BFCFF6"/>
<path d="M1300.82 853.022L1309.85 853.022" stroke="#3B4779" stroke-width="3" stroke-linecap="round"/>
<path d="M1142.33 888.13L1420.19 888.13" stroke="#43518D" stroke-width="3" stroke-linecap="round"/>
<path d="M1340.94 853.022L1349.97 853.022" stroke="#3B4779" stroke-width="3" stroke-linecap="round"/>
<path d="M1069.11 888.13H1117.26" stroke="#43518D" stroke-width="3" stroke-linecap="round"/>
<path d="M1089.17 853.022L1098.2 853.022" stroke="#3B4779" stroke-width="3" stroke-linecap="round"/>
<path d="M1381.07 853.022L1390.1 853.022" stroke="#3B4779" stroke-width="3" stroke-linecap="round"/>
<path d="M1445.27 887.126L1472.35 887.126" stroke="#43518D" stroke-width="3" stroke-linecap="round"/>
<path d="M1478.76 931.262H1522.11L1531.53 906.185H1469.34L1478.76 931.262Z" fill="#3B4779"/>
<rect width="90.2778" height="63.1944" transform="matrix(1 0 0 -1 1469.34 909.194)" fill="#BFCFF6"/>
<path d="M1476.69 986.432H1484.38L1491.41 964.364H1469.34L1476.69 986.432Z" fill="#3B4779"/>
<path d="M1491.41 965.367H1469.34V881.108H1491.41V965.367Z" fill="#BFCFF6"/>
<path d="M1537.88 991.448H1545.57L1552.6 969.38H1530.53L1537.88 991.448Z" fill="#3B4779"/>
<path d="M1552.6 970.383H1530.53V886.124H1552.6V970.383Z" fill="#BFCFF6"/>
<path d="M1510.97 927.25L1521.83 908.442H1500.11L1510.97 927.25Z" fill="#BFCFF6"/>
<path d="M1495.42 849.009V857.932C1495.42 860.214 1490.9 863.053 1490.9 863.053C1490.9 863.053 1486.39 860.214 1486.39 857.932V849.009H1495.42Z" fill="#3B4779"/>
<path d="M1515.48 849.009V857.932C1515.48 860.214 1510.97 863.053 1510.97 863.053C1510.97 863.053 1506.45 860.214 1506.45 857.932V849.009H1515.48Z" fill="#3B4779"/>
<path d="M1535.54 849.009V857.932C1535.54 860.214 1531.03 863.053 1531.03 863.053C1531.03 863.053 1526.51 860.214 1526.51 857.932V849.009H1535.54Z" fill="#3B4779"/>
<path d="M1511.47 875.131C1519.51 875.131 1518.44 874.07 1518.44 882.641C1518.44 891.212 1515.32 898.161 1511.47 898.161C1507.62 898.161 1504.49 891.212 1504.49 882.641C1504.49 874.449 1503.42 875.131 1511.47 875.131Z" fill="white"/>
<path d="M1531.53 880.105C1532.08 880.105 1532.53 882.575 1532.53 885.622C1532.53 888.669 1532.08 891.139 1531.53 891.139C1530.98 891.139 1530.53 888.669 1530.53 885.622C1530.53 882.575 1530.98 880.105 1531.53 880.105Z" fill="#3B4779"/>
<path d="M1528.52 880.105C1529.07 880.105 1529.52 882.575 1529.52 885.622C1529.52 888.669 1529.07 891.139 1528.52 891.139C1527.97 891.139 1527.52 888.669 1527.52 885.622C1527.52 882.575 1527.97 880.105 1528.52 880.105Z" fill="#3B4779"/>
<path d="M1534.54 880.105C1535.09 880.105 1535.54 882.575 1535.54 885.622C1535.54 888.669 1535.09 891.139 1534.54 891.139C1533.98 891.139 1533.54 888.669 1533.54 885.622C1533.54 882.575 1533.98 880.105 1534.54 880.105Z" fill="#3B4779"/>
<path d="M1491.41 880.105C1491.96 880.105 1492.41 882.575 1492.41 885.622C1492.41 888.669 1491.96 891.139 1491.41 891.139C1490.85 891.139 1490.4 888.669 1490.4 885.622C1490.4 882.575 1490.85 880.105 1491.41 880.105Z" fill="#3B4779"/>
<path d="M1488.4 880.105C1488.95 880.105 1489.4 882.575 1489.4 885.622C1489.4 888.669 1488.95 891.139 1488.4 891.139C1487.84 891.139 1487.39 888.669 1487.39 885.622C1487.39 882.575 1487.84 880.105 1488.4 880.105Z" fill="#3B4779"/>
<path d="M1494.41 880.105C1494.97 880.105 1495.42 882.575 1495.42 885.622C1495.42 888.669 1494.97 891.139 1494.41 891.139C1493.86 891.139 1493.41 888.669 1493.41 885.622C1493.41 882.575 1493.86 880.105 1494.41 880.105Z" fill="#3B4779"/>
<path d="M1180.54 938.62H1179.11V932.28H1180.54V938.62Z" fill="#3B4779"/>
<path d="M1179.83 941.473L1179.07 938.501H1180.58L1179.83 941.473Z" fill="#3B4779"/>
<path d="M1179.83 940.997C1179.96 940.997 1180.07 941.104 1180.07 941.235C1180.07 941.366 1179.96 941.473 1179.83 941.473C1179.7 941.473 1179.59 941.366 1179.59 941.235C1179.59 941.104 1179.7 940.997 1179.83 940.997Z" fill="#5C71AD"/>
<path d="M1195.29 977.121H1194.21V972.345H1195.29V977.121Z" fill="#3B4779"/>
<path d="M1194.75 979.271L1194.18 977.032H1195.32L1194.75 979.271Z" fill="#3B4779"/>
<path d="M1194.75 978.913C1194.85 978.913 1194.93 978.993 1194.93 979.092C1194.93 979.191 1194.85 979.271 1194.75 979.271C1194.65 979.271 1194.57 979.191 1194.57 979.092C1194.57 978.993 1194.65 978.913 1194.75 978.913Z" fill="#5C71AD"/>
<path d="M1224.75 977.121H1223.68V972.345H1224.75V977.121Z" fill="#3B4779"/>
<path d="M1224.22 979.271L1223.65 977.032H1224.78L1224.22 979.271Z" fill="#3B4779"/>
<path d="M1224.22 978.913C1224.32 978.913 1224.4 978.993 1224.4 979.092C1224.4 979.191 1224.32 979.271 1224.22 979.271C1224.12 979.271 1224.04 979.191 1224.04 979.092C1224.04 978.993 1224.12 978.913 1224.22 978.913Z" fill="#5C71AD"/>
<path d="M1237.2 938.643H1235.78V932.304H1237.2V938.643Z" fill="#3B4779"/>
<path d="M1236.49 941.497L1235.73 938.525H1237.25L1236.49 941.497Z" fill="#3B4779"/>
<path d="M1236.49 941.021C1236.62 941.021 1236.73 941.128 1236.73 941.259C1236.73 941.39 1236.62 941.497 1236.49 941.497C1236.36 941.497 1236.25 941.39 1236.25 941.259C1236.25 941.128 1236.36 941.021 1236.49 941.021Z" fill="#5C71AD"/>
<path d="M1194.55 957.361H1224.04L1230.45 931.675H1188.14L1194.55 957.361Z" fill="#BFCFF6"/>
<path d="M1209.97 1012.51H1209.29V1001.63H1209.97V1012.51Z" fill="#BFCFF6"/>
<rect width="119.367" height="21.1537" transform="matrix(1 0 0 -1 1148.85 867.459)" fill="#BFCFF6"/>
<rect width="83.8593" height="25.6866" transform="matrix(1 0 0 -1 1166.23 906.744)" fill="#BFCFF6"/>
<path d="M1178.93 932.431H1237.39L1250.09 906.744H1166.23L1178.93 932.431Z" fill="#3B4779"/>
<path d="M1166.93 881.057H1250.15L1268.22 867.458H1148.85L1166.93 881.057Z" fill="#3B4779"/>
<rect width="31.7305" height="15.1098" transform="matrix(1 0 0 -1 1193.43 972.472)" fill="#3B4779"/>
<path d="M1209.67 1005.71L1221.12 971.149H1198.22L1209.67 1005.71Z" fill="#3B4779"/>
<path d="M1182.1 885.615C1186.42 885.615 1185.85 884.989 1185.85 890.041C1185.85 895.093 1184.17 899.189 1182.1 899.189C1180.02 899.189 1178.34 895.093 1178.34 890.041C1178.34 885.212 1177.77 885.615 1182.1 885.615Z" fill="white"/>
<path d="M1208.54 885.615C1212.87 885.615 1212.29 884.989 1212.29 890.041C1212.29 895.093 1210.61 899.189 1208.54 899.189C1206.47 899.189 1204.79 895.093 1204.79 890.041C1204.79 884.989 1204.21 885.615 1208.54 885.615Z" fill="white"/>
<path d="M1234.22 885.615C1238.55 885.615 1237.98 884.989 1237.98 890.041C1237.98 895.093 1236.3 899.189 1234.22 899.189C1232.15 899.189 1230.47 895.093 1230.47 890.041C1230.47 884.989 1229.9 885.615 1234.22 885.615Z" fill="white"/>
<path d="M1150.32 873.711H1148.89V867.459H1150.32V873.711Z" fill="#3B4779"/>
<path d="M1149.61 876.524L1148.85 873.593H1150.36L1149.61 876.524Z" fill="#3B4779"/>
<path d="M1149.61 876.055C1149.74 876.055 1149.85 876.16 1149.85 876.29C1149.85 876.419 1149.74 876.524 1149.61 876.524C1149.48 876.524 1149.37 876.419 1149.37 876.29C1149.37 876.16 1149.48 876.055 1149.61 876.055Z" fill="#5C71AD"/>
<path d="M1268.18 873.711H1266.75V867.459H1268.18V873.711Z" fill="#3B4779"/>
<path d="M1267.46 876.524L1266.71 873.593H1268.22L1267.46 876.524Z" fill="#3B4779"/>
<path d="M1267.46 876.055C1267.6 876.055 1267.7 876.16 1267.7 876.29C1267.7 876.419 1267.6 876.524 1267.46 876.524C1267.33 876.524 1267.23 876.419 1267.23 876.29C1267.23 876.16 1267.33 876.055 1267.46 876.055Z" fill="#5C71AD"/>
<path d="M1163.42 849.844C1167.45 849.852 1166.91 849.251 1166.9 854.096C1166.89 858.94 1165.32 862.865 1163.4 862.861C1161.47 862.857 1159.92 858.926 1159.93 854.082C1159.94 849.237 1159.4 849.836 1163.42 849.844Z" fill="white"/>
<path d="M1231.13 849.983C1235.73 849.992 1235.12 849.391 1235.11 854.235C1235.1 859.08 1233.31 863.004 1231.11 862.999C1228.91 862.995 1227.13 859.064 1227.14 854.219C1227.15 849.374 1226.53 849.973 1231.13 849.983Z" fill="white"/>
<path d="M1253.7 850.029C1257.72 850.037 1257.19 849.436 1257.18 854.28C1257.17 859.125 1255.6 863.049 1253.67 863.045C1251.75 863.041 1250.2 859.111 1250.21 854.266C1250.22 849.422 1249.68 850.021 1253.7 850.029Z" fill="white"/>
<path d="M1208.56 849.936C1212.59 849.945 1212.05 849.343 1212.04 854.188C1212.03 859.033 1210.46 862.957 1208.54 862.953C1206.61 862.949 1205.06 859.018 1205.07 854.174C1205.08 849.329 1204.54 849.928 1208.56 849.936Z" fill="white"/>
<path d="M1185.99 849.89C1190.59 849.9 1189.98 849.298 1189.97 854.143C1189.96 858.987 1188.17 862.911 1185.97 862.907C1183.77 862.902 1181.99 858.971 1182 854.127C1182.01 849.282 1181.4 849.881 1185.99 849.89Z" fill="white"/>
<path d="M1505.45 876.093H1517.49" stroke="#3B4779" stroke-width="3" stroke-linecap="round"/>
<path d="M642 607.863C609 592.863 185.333 594.497 -40.5 607.863L-115.5 607.863L-78 847.5H710.5H1984C1984 750.071 2024.5 613.42 1942.5 635.65C1840 663.437 681.648 625.885 642 607.863Z" fill="#BFF5FF"/>
<rect y="838" width="1920" height="996" fill="url(#paint0_linear_220_3)"/>
<path d="M845.052 842.269C809.745 842.269 680.634 680.96 641 609.382L1006.5 628.5L1601.5 638.769H1953C1926 665.769 1779.12 842.269 1715.26 842.269H845.052Z" fill="#5C71AD" fill-opacity="0.07"/>
<defs>
<linearGradient id="paint0_linear_220_3" x1="960" y1="838" x2="960" y2="1834" gradientUnits="userSpaceOnUse">
<stop stop-color="#BFF5FF"/>
<stop offset="1" stop-color="#ABEFFB" stop-opacity="0"/>
</linearGradient>
</defs>
</svg>
