<svg width="908" height="2452" viewBox="0 0 908 2452" fill="none" xmlns="http://www.w3.org/2000/svg">
  <g id="right-plate">
    <path d="M455.388 1505.98L906.414 1318.99L906.414 2078.28L455.388 2285.36L455.388 1505.98Z" fill="#FF3535" fill-opacity="0.2" stroke="#FF7979" stroke-width="3"/>
  </g>
  <g id="panel6">
    <g class="background">
      <path d="M467.51 1981.57L626.633 1839.28L894.287 1728.31L894.287 2070.28L467.51 2266.01L467.51 1981.57Z" fill="#FF3535" fill-opacity="0.2" stroke="#FF7979" stroke-width="3"/>
    </g>
    <g class="text">
      <path d="M829.241 1778.01L809.067 1786.37L809.067 1796.03C809.929 1794.65 811.136 1793.31 812.688 1792.01C814.24 1790.72 815.921 1789.69 817.731 1788.94C820.964 1787.6 823.637 1787.29 825.75 1788C827.905 1788.69 829.478 1790.09 830.47 1792.2C831.461 1794.31 831.957 1796.83 831.957 1799.77C831.957 1805.23 830.535 1810.16 827.689 1814.56C824.844 1818.92 820.835 1822.17 815.662 1824.31C812.213 1825.74 809.217 1826.35 806.674 1826.15C804.131 1825.89 802.169 1824.91 800.79 1823.2C799.41 1821.48 798.656 1819.16 798.527 1816.22L809.325 1811.75C809.584 1813.09 810.209 1814.04 811.2 1814.61C812.192 1815.13 813.55 1815.04 815.274 1814.32C817.3 1813.48 818.809 1812.16 819.801 1810.34C820.792 1808.53 821.288 1806.46 821.288 1804.13C821.288 1801.84 820.771 1800.31 819.736 1799.52C818.701 1798.74 817.193 1798.76 815.21 1799.58C813.744 1800.19 812.537 1801.08 811.588 1802.27C810.64 1803.41 810.015 1804.67 809.713 1806.06L799.044 1810.48L799.044 1780.03L829.241 1767.51L829.241 1778.01ZM871.944 1781.87L860.693 1786.53L860.693 1798.99L850.217 1803.33L850.217 1790.87L838.966 1795.54L838.966 1784.83L850.217 1780.16L850.217 1767.63L860.693 1763.29L860.693 1775.82L871.944 1771.16L871.944 1781.87Z" fill="white"/>
      <path d="M740.177 1878.8L735.604 1898.17L733.803 1898.92L729.739 1885.7L725.582 1902.33L723.826 1903.08L719.346 1887.44L721.078 1886.72L724.773 1900.51L728.907 1883.47L730.708 1882.72L734.727 1896.38L738.445 1879.52L740.177 1878.8ZM749.901 1892.42C748.408 1893.04 747.053 1893.22 745.837 1892.98C744.62 1892.72 743.658 1892.06 742.95 1891C742.257 1889.92 741.911 1888.52 741.911 1886.81C741.911 1885.09 742.257 1883.41 742.95 1881.77C743.658 1880.11 744.62 1878.66 745.837 1877.4C747.053 1876.13 748.408 1875.19 749.901 1874.57C751.41 1873.94 752.773 1873.76 753.989 1874.02C755.205 1874.27 756.16 1874.93 756.852 1876.01C757.545 1877.07 757.892 1878.46 757.892 1880.18C757.892 1881.9 757.545 1883.58 756.852 1885.24C756.16 1886.87 755.205 1888.33 753.989 1889.6C752.773 1890.85 751.41 1891.79 749.901 1892.42ZM749.901 1890.89C751.102 1890.39 752.18 1889.65 753.134 1888.65C754.089 1887.66 754.843 1886.48 755.398 1885.14C755.952 1883.78 756.229 1882.35 756.229 1880.87C756.229 1879.39 755.952 1878.2 755.398 1877.31C754.843 1876.43 754.089 1875.88 753.134 1875.68C752.18 1875.47 751.102 1875.62 749.901 1876.12C748.7 1876.62 747.623 1877.36 746.668 1878.36C745.714 1879.35 744.959 1880.52 744.405 1881.87C743.851 1883.22 743.574 1884.63 743.574 1886.12C743.574 1887.6 743.851 1888.79 744.405 1889.7C744.959 1890.58 745.714 1891.13 746.668 1891.33C747.623 1891.54 748.7 1891.39 749.901 1890.89ZM769.441 1884.14L765.445 1878.5L762.466 1879.73L762.466 1887.03L760.85 1887.7L760.85 1870.23L765.699 1868.22C767.501 1867.47 768.863 1867.37 769.787 1867.92C770.726 1868.47 771.196 1869.5 771.196 1871.01C771.196 1872.28 770.857 1873.5 770.18 1874.68C769.518 1875.84 768.532 1876.83 767.224 1877.64L771.38 1883.34L769.441 1884.14ZM762.466 1878.31L765.722 1876.96C766.985 1876.43 767.932 1875.71 768.563 1874.78C769.21 1873.85 769.533 1872.82 769.533 1871.7C769.533 1870.55 769.225 1869.8 768.609 1869.44C767.993 1869.06 767.023 1869.14 765.699 1869.69L762.466 1871.03L762.466 1878.31ZM783.018 1878.51L776.02 1873.34L776.02 1881.41L774.404 1882.08L774.404 1864.61L776.02 1863.94L776.02 1872.11L783.018 1861.04L785.073 1860.18L777.521 1872.04L785.142 1877.63L783.018 1878.51ZM792.425 1874.79C791.363 1875.23 790.424 1875.42 789.608 1875.35C788.807 1875.29 788.176 1874.99 787.714 1874.46C787.252 1873.94 787.006 1873.24 786.975 1872.37L788.684 1871.66C788.761 1872.48 789.107 1873.09 789.723 1873.48C790.339 1873.86 791.24 1873.8 792.425 1873.31C793.518 1872.86 794.38 1872.2 795.012 1871.34C795.658 1870.45 795.982 1869.55 795.982 1868.61C795.982 1867.86 795.805 1867.34 795.451 1867.03C795.096 1866.71 794.658 1866.55 794.134 1866.55C793.611 1866.54 792.887 1866.59 791.963 1866.7C790.886 1866.83 790.031 1866.88 789.4 1866.84C788.769 1866.8 788.23 1866.56 787.783 1866.11C787.337 1865.66 787.114 1864.9 787.114 1863.81C787.114 1862.91 787.329 1862.02 787.76 1861.15C788.191 1860.25 788.799 1859.44 789.585 1858.71C790.37 1857.99 791.271 1857.42 792.287 1856.99C793.78 1856.38 794.981 1856.28 795.889 1856.7C796.813 1857.1 797.344 1857.9 797.483 1859.09L795.728 1859.82C795.62 1859.15 795.258 1858.66 794.642 1858.37C794.026 1858.06 793.195 1858.12 792.148 1858.55C791.178 1858.95 790.37 1859.57 789.723 1860.41C789.077 1861.23 788.753 1862.12 788.753 1863.08C788.753 1863.82 788.93 1864.34 789.284 1864.64C789.639 1864.94 790.077 1865.1 790.601 1865.12C791.14 1865.13 791.863 1865.08 792.772 1864.97C793.819 1864.85 794.665 1864.82 795.312 1864.86C795.959 1864.9 796.505 1865.14 796.952 1865.59C797.398 1866.03 797.621 1866.79 797.621 1867.86C797.621 1868.67 797.421 1869.53 797.021 1870.43C796.621 1871.33 796.028 1872.17 795.243 1872.94C794.457 1873.72 793.518 1874.33 792.425 1874.79ZM812.731 1848.72L812.731 1866.19L811.114 1866.86L811.114 1858.69L802.362 1862.32L802.362 1870.49L800.745 1871.16L800.745 1853.69L802.362 1853.02L802.362 1860.87L811.114 1857.24L811.114 1849.39L812.731 1848.72ZM823.671 1861.83C822.177 1862.45 820.822 1862.64 819.606 1862.39C818.39 1862.13 817.428 1861.47 816.719 1860.41C816.027 1859.33 815.68 1857.94 815.68 1856.22C815.68 1854.5 816.027 1852.83 816.719 1851.19C817.428 1849.53 818.39 1848.07 819.606 1846.82C820.822 1845.55 822.177 1844.6 823.671 1843.98C825.179 1843.36 826.542 1843.18 827.758 1843.44C828.974 1843.68 829.929 1844.35 830.622 1845.43C831.315 1846.49 831.661 1847.88 831.661 1849.59C831.661 1851.31 831.315 1853 830.622 1854.65C829.929 1856.29 828.974 1857.74 827.758 1859.01C826.542 1860.27 825.179 1861.21 823.671 1861.83ZM823.671 1860.31C824.871 1859.81 825.949 1859.06 826.904 1858.07C827.858 1857.07 828.613 1855.9 829.167 1854.55C829.721 1853.19 829.998 1851.77 829.998 1850.28C829.998 1848.8 829.721 1847.62 829.167 1846.73C828.613 1845.84 827.858 1845.3 826.904 1845.09C825.949 1844.89 824.871 1845.03 823.671 1845.53C822.47 1846.03 821.392 1846.78 820.437 1847.77C819.483 1848.77 818.729 1849.94 818.174 1851.29C817.62 1852.63 817.343 1854.05 817.343 1855.53C817.343 1857.01 817.62 1858.21 818.174 1859.11C818.729 1860 819.483 1860.54 820.437 1860.75C821.392 1860.95 822.47 1860.81 823.671 1860.31ZM844.942 1840.39C844.942 1841.89 844.488 1843.28 843.579 1844.58C842.671 1845.87 841.309 1846.89 839.492 1847.65L836.236 1849L836.236 1856.45L834.619 1857.12L834.619 1839.64L839.492 1837.62C841.293 1836.88 842.648 1836.77 843.556 1837.31C844.48 1837.85 844.942 1838.87 844.942 1840.39ZM839.492 1846.15C842.017 1845.1 843.279 1843.41 843.279 1841.08C843.279 1839.91 842.979 1839.15 842.379 1838.8C841.778 1838.45 840.816 1838.55 839.492 1839.1L836.236 1840.45L836.236 1847.5L839.492 1846.15ZM852.55 1849.86C851.488 1850.3 850.549 1850.49 849.733 1850.43C848.932 1850.36 848.301 1850.06 847.839 1849.54C847.377 1849.01 847.131 1848.31 847.1 1847.44L848.809 1846.73C848.886 1847.55 849.233 1848.16 849.848 1848.55C850.464 1848.93 851.365 1848.88 852.55 1848.38C853.643 1847.93 854.506 1847.27 855.137 1846.41C855.783 1845.53 856.107 1844.62 856.107 1843.68C856.107 1842.93 855.93 1842.41 855.576 1842.1C855.222 1841.78 854.783 1841.62 854.259 1841.63C853.736 1841.61 853.012 1841.66 852.088 1841.78C851.011 1841.91 850.156 1841.95 849.525 1841.91C848.894 1841.87 848.355 1841.63 847.908 1841.18C847.462 1840.74 847.239 1839.97 847.239 1838.89C847.239 1837.99 847.454 1837.1 847.885 1836.22C848.316 1835.32 848.925 1834.51 849.71 1833.79C850.495 1833.06 851.396 1832.49 852.412 1832.07C853.905 1831.45 855.106 1831.35 856.014 1831.77C856.938 1832.17 857.469 1832.97 857.608 1834.16L855.853 1834.89C855.745 1834.22 855.383 1833.73 854.767 1833.44C854.151 1833.13 853.32 1833.19 852.273 1833.62C851.303 1834.03 850.495 1834.64 849.848 1835.48C849.202 1836.3 848.878 1837.19 848.878 1838.16C848.878 1838.89 849.055 1839.41 849.41 1839.71C849.764 1840.01 850.202 1840.17 850.726 1840.19C851.265 1840.2 851.988 1840.15 852.897 1840.04C853.944 1839.92 854.79 1839.89 855.437 1839.94C856.084 1839.97 856.63 1840.21 857.077 1840.66C857.523 1841.11 857.746 1841.86 857.746 1842.93C857.746 1843.75 857.546 1844.6 857.146 1845.5C856.746 1846.4 856.153 1847.24 855.368 1848.02C854.583 1848.79 853.643 1849.41 852.55 1849.86ZM874.39 1817.13L868.016 1847.42L866.422 1848.08L872.75 1817.81L874.39 1817.13ZM794.695 1907.52L787.351 1910.57L785.942 1915.3L784.233 1916.01L790.122 1896.32L791.947 1895.56L797.812 1910.38L796.103 1911.09L794.695 1907.52ZM794.21 1906.27L791.023 1898.14L787.836 1908.91L794.21 1906.27ZM809.852 1887.91L809.852 1889.36L805.372 1891.22L805.372 1907.24L803.755 1907.91L803.755 1891.89L799.252 1893.76L799.252 1892.31L809.852 1887.91ZM814.021 1887.61L814.021 1894.13L820.141 1891.6L820.141 1893.05L814.021 1895.58L814.021 1902.21L820.834 1899.38L820.834 1900.83L812.405 1904.33L812.405 1886.83L820.834 1883.33L820.834 1884.78L814.021 1887.61ZM825.636 1897.42L831.432 1895.01L831.432 1896.44L824.019 1899.51L824.019 1882.04L825.636 1881.37L825.636 1897.42ZM835.356 1877.34L835.356 1894.81L833.74 1895.48L833.74 1878.01L835.356 1877.34ZM840.633 1876.57L840.633 1883.1L846.753 1880.56L846.753 1882.01L840.633 1884.55L840.633 1891.17L847.446 1888.35L847.446 1889.8L839.017 1893.29L839.017 1875.79L847.446 1872.3L847.446 1873.75L840.633 1876.57ZM859.222 1884.92L855.227 1879.27L852.248 1880.51L852.248 1887.81L850.631 1888.48L850.631 1871L855.481 1868.99C857.282 1868.25 858.645 1868.15 859.569 1868.7C860.508 1869.24 860.977 1870.27 860.977 1871.79C860.977 1873.06 860.639 1874.28 859.961 1875.46C859.299 1876.62 858.314 1877.6 857.005 1878.41L861.162 1884.11L859.222 1884.92ZM852.248 1879.08L855.504 1877.73C856.767 1877.21 857.713 1876.48 858.345 1875.56C858.991 1874.62 859.315 1873.6 859.315 1872.48C859.315 1871.33 859.007 1870.57 858.391 1870.21C857.775 1869.83 856.805 1869.92 855.481 1870.47L852.248 1871.81L852.248 1879.08ZM869.081 1881C868.019 1881.45 867.08 1881.63 866.264 1881.57C865.463 1881.5 864.832 1881.21 864.37 1880.68C863.908 1880.16 863.662 1879.46 863.631 1878.59L865.34 1877.88C865.417 1878.7 865.764 1879.31 866.379 1879.7C866.995 1880.08 867.896 1880.02 869.081 1879.53C870.174 1879.08 871.037 1878.42 871.668 1877.56C872.314 1876.67 872.638 1875.76 872.638 1874.83C872.638 1874.08 872.461 1873.55 872.107 1873.25C871.753 1872.93 871.314 1872.77 870.79 1872.77C870.267 1872.76 869.543 1872.81 868.619 1872.92C867.542 1873.05 866.687 1873.1 866.056 1873.06C865.425 1873.02 864.886 1872.78 864.439 1872.33C863.993 1871.88 863.77 1871.12 863.77 1870.03C863.77 1869.13 863.985 1868.24 864.416 1867.36C864.847 1866.47 865.456 1865.66 866.241 1864.93C867.026 1864.21 867.927 1863.63 868.943 1863.21C870.436 1862.59 871.637 1862.5 872.545 1862.92C873.469 1863.32 874 1864.12 874.139 1865.31L872.384 1866.04C872.276 1865.36 871.914 1864.88 871.298 1864.59C870.683 1864.27 869.851 1864.34 868.804 1864.77C867.834 1865.17 867.026 1865.79 866.379 1866.63C865.733 1867.44 865.409 1868.34 865.409 1869.3C865.409 1870.04 865.586 1870.55 865.941 1870.86C866.295 1871.16 866.733 1871.32 867.257 1871.34C867.796 1871.35 868.519 1871.3 869.428 1871.19C870.475 1871.07 871.321 1871.03 871.968 1871.08C872.615 1871.11 873.161 1871.36 873.608 1871.8C874.054 1872.25 874.277 1873.01 874.277 1874.08C874.277 1874.89 874.077 1875.75 873.677 1876.65C873.277 1877.55 872.684 1878.39 871.899 1879.16C871.114 1879.94 870.174 1880.55 869.081 1881Z" fill="white"/>
    </g>
  </g>
  <g id="panel5">
    <g class="background">
      <path d="M620.575 1832.46L467.51 1970.38L467.51 1760.2L667.908 1677.11L669.294 1676.54L669.294 1675.04L669.294 1629.86L894.287 1536.58L894.287 1718.85L621.143 1832.1L620.846 1832.22L620.575 1832.46Z" fill="#FF3535" fill-opacity="0.2" stroke="#FF7979" stroke-width="3"/>
    </g>
    <g class="text">
      <path d="M750.359 1650.4C750.359 1652.96 749.734 1655.6 748.484 1658.31C747.277 1660.96 745.466 1663.48 743.052 1665.89C740.681 1668.22 737.857 1670.14 734.581 1671.64L734.581 1677.31L730.443 1679.02L730.443 1673.28C725.873 1674.76 722.188 1674.82 719.386 1673.46C716.583 1672.05 715.096 1669.19 714.924 1664.88L726.692 1660C726.951 1662.69 728.201 1663.97 730.443 1663.83L730.443 1652.77C727.08 1653.23 724.386 1653.44 722.36 1653.39C720.377 1653.33 718.631 1652.63 717.122 1651.3C715.614 1649.96 714.859 1647.59 714.859 1644.18C714.859 1639.94 716.303 1635.93 719.192 1632.17C722.123 1628.39 725.873 1625.38 730.443 1623.16L730.443 1617.49L734.581 1615.78L734.581 1621.45C739.108 1619.94 742.686 1619.88 745.315 1621.27C747.945 1622.65 749.411 1625.47 749.712 1629.73L737.879 1634.64C737.62 1632.23 736.521 1631.05 734.581 1631.11L734.581 1641.96C738.159 1641.55 740.918 1641.36 742.858 1641.4C744.798 1641.43 746.522 1642.12 748.031 1643.45C749.583 1644.72 750.359 1647.04 750.359 1650.4ZM726.563 1638.77C726.563 1639.94 726.886 1640.78 727.533 1641.31C728.223 1641.82 729.193 1642.11 730.443 1642.2L730.443 1632.47C729.236 1633.21 728.287 1634.11 727.598 1635.19C726.908 1636.23 726.563 1637.42 726.563 1638.77ZM734.581 1662.33C735.874 1661.56 736.888 1660.58 737.62 1659.39C738.396 1658.18 738.784 1656.92 738.784 1655.61C738.784 1654.4 738.418 1653.57 737.685 1653.13C736.995 1652.62 735.961 1652.38 734.581 1652.39L734.581 1662.33ZM757.873 1624.88C758.045 1619.82 759.554 1615.34 762.399 1611.45C765.244 1607.57 769.103 1604.61 773.974 1602.6C777.207 1601.25 779.966 1600.72 782.251 1600.98C784.579 1601.23 786.325 1602.16 787.488 1603.78C788.695 1605.38 789.299 1607.49 789.299 1610.1C789.299 1613.18 788.588 1616 787.165 1618.55C785.743 1621.05 784.083 1623.04 782.186 1624.53L782.186 1624.81C784.643 1624.68 786.583 1625.34 788.006 1626.81C789.428 1628.27 790.14 1630.61 790.14 1633.83C790.14 1636.73 789.515 1639.55 788.264 1642.31C787.057 1645 785.268 1647.47 782.897 1649.72C780.57 1651.94 777.789 1653.72 774.556 1655.06C769.383 1657.21 765.244 1657.55 762.141 1656.08C759.08 1654.6 757.463 1651.11 757.291 1645.63L768.025 1641.18C768.068 1643.22 768.607 1644.63 769.642 1645.41C770.676 1646.15 772.185 1646.11 774.168 1645.28C775.849 1644.59 777.142 1643.54 778.048 1642.14C778.996 1640.67 779.47 1639.07 779.47 1637.35C779.47 1635.11 778.802 1633.77 777.466 1633.35C776.172 1632.86 774.082 1633.21 771.193 1634.41L769.124 1635.27L769.124 1625.54L771.193 1624.68C773.392 1623.77 775.159 1622.64 776.496 1621.29C777.875 1619.88 778.565 1618.12 778.565 1616.02C778.565 1614.34 778.134 1613.21 777.272 1612.64C776.41 1612.06 775.224 1612.09 773.715 1612.71C772.077 1613.39 770.849 1614.44 770.03 1615.85C769.254 1617.25 768.801 1618.76 768.672 1620.4L757.873 1624.88ZM829.873 1591.04L809.698 1599.4L809.698 1609.06C810.56 1607.68 811.767 1606.34 813.319 1605.04C814.871 1603.75 816.552 1602.72 818.363 1601.97C821.596 1600.63 824.269 1600.32 826.381 1601.03C828.536 1601.72 830.11 1603.12 831.101 1605.23C832.093 1607.34 832.589 1609.86 832.589 1612.8C832.589 1618.26 831.166 1623.19 828.321 1627.59C825.476 1631.95 821.467 1635.19 816.294 1637.34C812.845 1638.77 809.849 1639.38 807.306 1639.18C804.762 1638.92 802.801 1637.94 801.421 1636.23C800.042 1634.51 799.287 1632.19 799.158 1629.25L809.957 1624.78C810.215 1626.12 810.84 1627.07 811.832 1627.64C812.823 1628.16 814.181 1628.07 815.906 1627.35C817.932 1626.51 819.441 1625.18 820.432 1623.37C821.424 1621.56 821.919 1619.49 821.919 1617.16C821.919 1614.87 821.402 1613.33 820.367 1612.55C819.333 1611.77 817.824 1611.78 815.841 1612.61C814.375 1613.21 813.168 1614.11 812.22 1615.3C811.271 1616.44 810.646 1617.7 810.345 1619.09L799.675 1623.51L799.675 1593.06L829.873 1580.54L829.873 1591.04ZM861.841 1618.46L850.849 1606.63L850.849 1623.01L839.791 1627.6L839.791 1575.8L850.849 1571.21L850.849 1599.84L861.777 1579.42L875.421 1573.77L860.419 1599.58L875.55 1612.77L861.841 1618.46Z" fill="white"/>
      <path d="M680.713 1724.45L680.713 1741.93L679.097 1742.6L679.097 1725.12L680.713 1724.45ZM696.544 1735.36L694.928 1736.03L685.991 1725.04L685.991 1739.74L684.374 1740.41L684.374 1722.94L685.991 1722.26L694.928 1733.23L694.928 1718.56L696.544 1717.89L696.544 1735.36ZM716.866 1714.49C716.866 1715.99 716.412 1717.39 715.504 1718.68C714.595 1719.97 713.233 1721 711.416 1721.75L708.16 1723.1L708.16 1730.55L706.543 1731.22L706.543 1713.74L711.416 1711.72C713.217 1710.98 714.572 1710.87 715.48 1711.41C716.404 1711.95 716.866 1712.97 716.866 1714.49ZM711.416 1720.25C713.941 1719.2 715.203 1717.51 715.203 1715.18C715.203 1714.01 714.903 1713.25 714.303 1712.9C713.702 1712.55 712.74 1712.65 711.416 1713.2L708.16 1714.55L708.16 1721.6L711.416 1720.25ZM728.169 1722.25L724.174 1716.61L721.195 1717.84L721.195 1725.14L719.578 1725.81L719.578 1708.34L724.428 1706.33C726.23 1705.58 727.592 1705.48 728.516 1706.03C729.455 1706.58 729.925 1707.61 729.925 1709.12C729.925 1710.39 729.586 1711.62 728.908 1712.8C728.246 1713.95 727.261 1714.94 725.952 1715.75L730.109 1721.45L728.169 1722.25ZM721.195 1716.42L724.451 1715.07C725.714 1714.55 726.661 1713.82 727.292 1712.89C727.938 1711.96 728.262 1710.93 728.262 1709.81C728.262 1708.66 727.954 1707.91 727.338 1707.55C726.722 1707.17 725.752 1707.25 724.428 1707.8L721.195 1709.14L721.195 1716.42ZM734.749 1702.05L734.749 1719.52L733.133 1720.19L733.133 1702.72L734.749 1702.05ZM739.449 1716.03L747.694 1712.61L747.694 1714.16L737.555 1718.36L737.555 1716.96L745.684 1699.07L737.694 1702.38L737.694 1700.83L747.578 1696.73L747.578 1698.13L739.449 1716.03ZM752.16 1696.26L752.16 1702.78L758.28 1700.24L758.28 1701.69L752.16 1704.23L752.16 1710.86L758.972 1708.03L758.972 1709.48L750.543 1712.98L750.543 1695.48L758.972 1691.98L758.972 1693.43L752.16 1696.26ZM767.054 1706.31C765.991 1706.75 765.052 1706.94 764.236 1706.87C763.436 1706.81 762.804 1706.51 762.342 1705.98C761.881 1705.46 761.634 1704.76 761.603 1703.89L763.312 1703.18C763.389 1704 763.736 1704.61 764.352 1705C764.967 1705.38 765.868 1705.32 767.054 1704.83C768.147 1704.38 769.009 1703.72 769.64 1702.86C770.287 1701.97 770.61 1701.06 770.61 1700.13C770.61 1699.38 770.433 1698.85 770.079 1698.55C769.725 1698.23 769.286 1698.07 768.763 1698.07C768.239 1698.06 767.515 1698.11 766.592 1698.22C765.514 1698.35 764.66 1698.4 764.028 1698.36C763.397 1698.32 762.858 1698.08 762.412 1697.63C761.965 1697.18 761.742 1696.42 761.742 1695.33C761.742 1694.43 761.958 1693.54 762.389 1692.66C762.82 1691.77 763.428 1690.96 764.213 1690.23C764.998 1689.51 765.899 1688.93 766.915 1688.51C768.408 1687.89 769.609 1687.8 770.518 1688.22C771.441 1688.62 771.973 1689.42 772.111 1690.61L770.356 1691.34C770.248 1690.66 769.886 1690.18 769.271 1689.89C768.655 1689.58 767.823 1689.64 766.776 1690.07C765.807 1690.47 764.998 1691.09 764.352 1691.93C763.705 1692.74 763.382 1693.64 763.382 1694.6C763.382 1695.34 763.559 1695.85 763.913 1696.16C764.267 1696.46 764.706 1696.62 765.229 1696.64C765.768 1696.65 766.492 1696.6 767.4 1696.49C768.447 1696.37 769.294 1696.34 769.94 1696.38C770.587 1696.42 771.134 1696.66 771.58 1697.1C772.026 1697.55 772.25 1698.31 772.25 1699.38C772.25 1700.19 772.05 1701.05 771.649 1701.95C771.249 1702.85 770.656 1703.69 769.871 1704.46C769.086 1705.24 768.147 1705.85 767.054 1706.31ZM788.893 1673.58L782.519 1703.87L780.926 1704.53L787.253 1674.26L788.893 1673.58ZM799.858 1676.48L799.858 1683L805.978 1680.47L805.978 1681.92L799.858 1684.45L799.858 1691.08L806.671 1688.26L806.671 1689.71L798.242 1693.2L798.242 1675.7L806.671 1672.21L806.671 1673.66L799.858 1676.48ZM822.027 1683.34L820.41 1684.01L811.473 1673.01L811.473 1687.71L809.856 1688.38L809.856 1670.91L811.473 1670.24L820.41 1681.21L820.41 1666.53L822.027 1665.86L822.027 1683.34ZM842.348 1662.46C842.348 1663.96 841.894 1665.36 840.986 1666.65C840.078 1667.95 838.715 1668.97 836.898 1669.72L833.642 1671.07L833.642 1678.52L832.026 1679.19L832.026 1661.72L836.898 1659.7C838.7 1658.95 840.054 1658.85 840.963 1659.39C841.887 1659.92 842.348 1660.95 842.348 1662.46ZM836.898 1668.22C839.423 1667.18 840.686 1665.49 840.686 1663.15C840.686 1661.99 840.385 1661.23 839.785 1660.88C839.185 1660.53 838.222 1660.62 836.898 1661.17L833.642 1662.52L833.642 1669.57L836.898 1668.22ZM853.652 1670.23L849.657 1664.58L846.677 1665.82L846.677 1673.12L845.061 1673.79L845.061 1656.31L849.911 1654.3C851.712 1653.56 853.074 1653.46 853.998 1654.01C854.937 1654.55 855.407 1655.58 855.407 1657.1C855.407 1658.37 855.068 1659.59 854.391 1660.77C853.729 1661.93 852.743 1662.91 851.435 1663.72L855.592 1669.42L853.652 1670.23ZM846.677 1664.39L849.934 1663.04C851.196 1662.52 852.143 1661.79 852.774 1660.87C853.421 1659.93 853.744 1658.91 853.744 1657.79C853.744 1656.64 853.436 1655.88 852.82 1655.52C852.205 1655.14 851.235 1655.23 849.911 1655.78L846.677 1657.12L846.677 1664.39ZM860.232 1650.02L860.232 1667.5L858.615 1668.17L858.615 1650.69L860.232 1650.02ZM869.712 1654.84L874.608 1661.54L872.806 1662.29L868.696 1656.69L864.793 1665.61L862.992 1666.35L867.864 1655.53L862.992 1648.88L864.793 1648.13L868.881 1653.71L872.83 1644.8L874.631 1644.05L869.712 1654.84Z" fill="white"/>
    </g>
  </g>
  <g id="panel4">
    <g class="background">
      <path d="M656.131 1626.64L656.131 1671.81L467.51 1750.02L467.51 1513.17L894.287 1336.22L894.287 1526.4L657.516 1624.56L656.131 1625.14L656.131 1626.64Z" fill="#FF3535" fill-opacity="0.2" stroke="#FF7979" stroke-width="3"/>
    </g>
    <g class="text">
      <path d="M770.403 1421.07L770.403 1409.94L788.314 1402.51L788.314 1453.61L776.804 1458.39L776.804 1418.42L770.403 1421.07ZM795.878 1424.23C795.878 1416.2 797.301 1409.29 800.146 1403.49C803.034 1397.67 807.669 1393.44 814.049 1390.79C820.429 1388.15 825.041 1388.55 827.886 1391.99C830.775 1395.41 832.219 1401.13 832.219 1409.16C832.219 1417.28 830.775 1424.25 827.886 1430.07C825.041 1435.87 820.429 1440.09 814.049 1442.73C807.669 1445.38 803.034 1444.99 800.146 1441.57C797.301 1438.13 795.878 1432.35 795.878 1424.23ZM821.356 1413.66C821.356 1408.95 820.881 1405.53 819.933 1403.4C818.985 1401.23 817.023 1400.76 814.049 1401.99C811.074 1403.23 809.113 1405.32 808.164 1408.28C807.216 1411.2 806.742 1415.01 806.742 1419.72C806.742 1422.9 806.914 1425.46 807.259 1427.42C807.604 1429.33 808.294 1430.72 809.328 1431.6C810.406 1432.41 811.979 1432.39 814.049 1431.53C816.118 1430.68 817.67 1429.4 818.704 1427.71C819.782 1425.96 820.493 1423.98 820.838 1421.79C821.183 1419.55 821.356 1416.84 821.356 1413.66ZM871.944 1399.83L860.693 1404.49L860.693 1416.95L850.217 1421.3L850.217 1408.84L838.966 1413.5L838.966 1402.79L850.217 1398.13L850.217 1385.6L860.693 1381.25L860.693 1393.78L871.944 1389.12L871.944 1399.83Z" fill="white"/>
      <path d="M747.298 1517.5C746.235 1517.94 745.296 1518.13 744.48 1518.06C743.68 1518 743.048 1517.7 742.586 1517.18C742.125 1516.65 741.878 1515.95 741.847 1515.08L743.556 1514.37C743.633 1515.19 743.98 1515.8 744.596 1516.19C745.211 1516.57 746.112 1516.51 747.298 1516.02C748.391 1515.57 749.253 1514.91 749.884 1514.05C750.531 1513.16 750.854 1512.26 750.854 1511.32C750.854 1510.57 750.677 1510.05 750.323 1509.74C749.969 1509.42 749.53 1509.26 749.007 1509.26C748.483 1509.25 747.759 1509.3 746.836 1509.41C745.758 1509.54 744.904 1509.59 744.272 1509.55C743.641 1509.51 743.102 1509.27 742.656 1508.82C742.209 1508.37 741.986 1507.61 741.986 1506.52C741.986 1505.62 742.202 1504.73 742.633 1503.86C743.064 1502.96 743.672 1502.15 744.457 1501.42C745.242 1500.7 746.143 1500.13 747.159 1499.7C748.652 1499.09 749.853 1498.99 750.762 1499.41C751.685 1499.81 752.217 1500.61 752.355 1501.8L750.6 1502.53C750.492 1501.86 750.13 1501.37 749.515 1501.08C748.899 1500.77 748.067 1500.83 747.02 1501.26C746.05 1501.66 745.242 1502.28 744.596 1503.12C743.949 1503.94 743.626 1504.83 743.626 1505.79C743.626 1506.53 743.803 1507.05 744.157 1507.35C744.511 1507.65 744.95 1507.81 745.473 1507.83C746.012 1507.84 746.736 1507.79 747.644 1507.68C748.691 1507.56 749.538 1507.53 750.184 1507.57C750.831 1507.61 751.377 1507.85 751.824 1508.3C752.27 1508.74 752.494 1509.5 752.494 1510.57C752.494 1511.38 752.294 1512.24 751.893 1513.14C751.493 1514.04 750.9 1514.88 750.115 1515.65C749.33 1516.43 748.391 1517.04 747.298 1517.5ZM765.94 1497.14C765.94 1498.64 765.486 1500.04 764.578 1501.33C763.67 1502.63 762.307 1503.65 760.49 1504.4L757.234 1505.75L757.234 1513.2L755.617 1513.87L755.617 1496.4L760.49 1494.38C762.292 1493.63 763.646 1493.53 764.555 1494.07C765.479 1494.6 765.94 1495.63 765.94 1497.14ZM760.49 1502.9C763.015 1501.86 764.278 1500.17 764.278 1497.83C764.278 1496.67 763.977 1495.91 763.377 1495.56C762.777 1495.2 761.814 1495.3 760.49 1495.85L757.234 1497.2L757.234 1504.25L760.49 1502.9ZM775.904 1505.64C774.411 1506.26 773.056 1506.44 771.84 1506.2C770.624 1505.93 769.661 1505.27 768.953 1504.22C768.26 1503.14 767.914 1501.74 767.914 1500.02C767.914 1498.31 768.26 1496.63 768.953 1494.99C769.661 1493.33 770.624 1491.88 771.84 1490.62C773.056 1489.35 774.411 1488.41 775.904 1487.79C777.413 1487.16 778.776 1486.98 779.992 1487.24C781.208 1487.49 782.163 1488.15 782.856 1489.23C783.548 1490.29 783.895 1491.68 783.895 1493.4C783.895 1495.12 783.548 1496.8 782.856 1498.45C782.163 1500.09 781.208 1501.55 779.992 1502.82C778.776 1504.07 777.413 1505.01 775.904 1505.64ZM775.904 1504.11C777.105 1503.61 778.183 1502.87 779.137 1501.87C780.092 1500.88 780.846 1499.7 781.401 1498.36C781.955 1496.99 782.232 1495.57 782.232 1494.09C782.232 1492.6 781.955 1491.42 781.401 1490.53C780.846 1489.65 780.092 1489.1 779.137 1488.9C778.183 1488.69 777.105 1488.84 775.904 1489.34C774.703 1489.83 773.626 1490.58 772.671 1491.58C771.717 1492.57 770.962 1493.74 770.408 1495.09C769.854 1496.44 769.577 1497.85 769.577 1499.33C769.577 1500.82 769.854 1502.01 770.408 1502.92C770.962 1503.8 771.717 1504.35 772.671 1504.55C773.626 1504.76 774.703 1504.61 775.904 1504.11ZM799.023 1495.88L797.407 1496.55L788.469 1485.55L788.469 1500.25L786.853 1500.92L786.853 1483.45L788.469 1482.78L797.407 1493.75L797.407 1479.07L799.023 1478.4L799.023 1495.88ZM807.581 1492.5C806.518 1492.94 805.579 1493.13 804.763 1493.07C803.963 1493 803.331 1492.71 802.869 1492.18C802.408 1491.66 802.161 1490.96 802.13 1490.09L803.839 1489.38C803.916 1490.2 804.263 1490.8 804.879 1491.2C805.494 1491.58 806.395 1491.52 807.581 1491.03C808.674 1490.58 809.536 1489.92 810.167 1489.06C810.814 1488.17 811.137 1487.26 811.137 1486.33C811.137 1485.58 810.96 1485.05 810.606 1484.75C810.252 1484.43 809.813 1484.27 809.289 1484.27C808.766 1484.25 808.042 1484.3 807.119 1484.42C806.041 1484.55 805.186 1484.6 804.555 1484.56C803.924 1484.52 803.385 1484.28 802.939 1483.83C802.492 1483.38 802.269 1482.61 802.269 1481.53C802.269 1480.63 802.484 1479.74 802.916 1478.86C803.347 1477.97 803.955 1477.16 804.74 1476.43C805.525 1475.71 806.426 1475.13 807.442 1474.71C808.935 1474.09 810.136 1473.99 811.045 1474.42C811.968 1474.82 812.5 1475.61 812.638 1476.81L810.883 1477.53C810.775 1476.86 810.413 1476.38 809.798 1476.08C809.182 1475.77 808.35 1475.83 807.303 1476.27C806.333 1476.67 805.525 1477.29 804.879 1478.12C804.232 1478.94 803.909 1479.83 803.909 1480.8C803.909 1481.53 804.086 1482.05 804.44 1482.36C804.794 1482.66 805.233 1482.82 805.756 1482.83C806.295 1482.84 807.019 1482.79 807.927 1482.68C808.974 1482.57 809.821 1482.53 810.467 1482.58C811.114 1482.61 811.66 1482.85 812.107 1483.3C812.553 1483.75 812.777 1484.51 812.777 1485.57C812.777 1486.39 812.576 1487.25 812.176 1488.15C811.776 1489.05 811.183 1489.88 810.398 1490.66C809.613 1491.44 808.674 1492.05 807.581 1492.5ZM823.152 1486.05C821.658 1486.67 820.304 1486.85 819.087 1486.61C817.871 1486.35 816.909 1485.69 816.201 1484.63C815.508 1483.55 815.161 1482.15 815.161 1480.44C815.161 1478.72 815.508 1477.04 816.201 1475.4C816.909 1473.74 817.871 1472.29 819.087 1471.03C820.304 1469.76 821.658 1468.82 823.152 1468.2C824.661 1467.57 826.023 1467.39 827.24 1467.65C828.456 1467.9 829.41 1468.56 830.103 1469.64C830.796 1470.7 831.142 1472.09 831.142 1473.81C831.142 1475.53 830.796 1477.21 830.103 1478.87C829.41 1480.5 828.456 1481.96 827.24 1483.23C826.023 1484.48 824.661 1485.42 823.152 1486.05ZM823.152 1484.52C824.353 1484.02 825.43 1483.28 826.385 1482.28C827.34 1481.29 828.094 1480.12 828.648 1478.77C829.202 1477.41 829.48 1475.98 829.48 1474.5C829.48 1473.02 829.202 1471.83 828.648 1470.94C828.094 1470.06 827.34 1469.51 826.385 1469.31C825.43 1469.1 824.353 1469.25 823.152 1469.75C821.951 1470.25 820.873 1470.99 819.919 1471.99C818.964 1472.98 818.21 1474.15 817.656 1475.5C817.101 1476.85 816.824 1478.26 816.824 1479.75C816.824 1481.23 817.101 1482.42 817.656 1483.33C818.21 1484.21 818.964 1484.76 819.919 1484.96C820.873 1485.17 821.951 1485.02 823.152 1484.52ZM842.691 1477.77L838.696 1472.13L835.717 1473.36L835.717 1480.66L834.1 1481.33L834.1 1463.86L838.95 1461.85C840.751 1461.1 842.114 1461 843.038 1461.55C843.977 1462.1 844.446 1463.13 844.446 1464.64C844.446 1465.91 844.108 1467.13 843.43 1468.31C842.768 1469.47 841.783 1470.46 840.474 1471.27L844.631 1476.97L842.691 1477.77ZM835.717 1471.94L838.973 1470.59C840.236 1470.06 841.182 1469.34 841.814 1468.41C842.46 1467.48 842.784 1466.45 842.784 1465.33C842.784 1464.18 842.476 1463.43 841.86 1463.07C841.244 1462.69 840.274 1462.77 838.95 1463.32L835.717 1464.66L835.717 1471.94ZM852.55 1473.86C851.488 1474.3 850.549 1474.49 849.733 1474.43C848.932 1474.36 848.301 1474.06 847.839 1473.54C847.377 1473.01 847.131 1472.31 847.1 1471.44L848.809 1470.73C848.886 1471.55 849.233 1472.16 849.848 1472.55C850.464 1472.93 851.365 1472.88 852.55 1472.38C853.643 1471.93 854.506 1471.27 855.137 1470.41C855.783 1469.53 856.107 1468.62 856.107 1467.68C856.107 1466.93 855.93 1466.41 855.576 1466.1C855.222 1465.78 854.783 1465.62 854.259 1465.63C853.736 1465.61 853.012 1465.66 852.088 1465.78C851.011 1465.91 850.156 1465.95 849.525 1465.91C848.894 1465.87 848.355 1465.63 847.908 1465.18C847.462 1464.74 847.239 1463.97 847.239 1462.89C847.239 1461.99 847.454 1461.1 847.885 1460.22C848.316 1459.32 848.925 1458.51 849.71 1457.79C850.495 1457.06 851.396 1456.49 852.412 1456.07C853.905 1455.45 855.106 1455.35 856.014 1455.77C856.938 1456.17 857.469 1456.97 857.608 1458.16L855.853 1458.89C855.745 1458.22 855.383 1457.73 854.767 1457.44C854.151 1457.13 853.32 1457.19 852.273 1457.62C851.303 1458.03 850.495 1458.64 849.848 1459.48C849.202 1460.3 848.878 1461.19 848.878 1462.16C848.878 1462.89 849.055 1463.41 849.41 1463.71C849.764 1464.01 850.202 1464.17 850.726 1464.19C851.265 1464.2 851.988 1464.15 852.897 1464.04C853.944 1463.92 854.79 1463.89 855.437 1463.94C856.084 1463.97 856.63 1464.21 857.077 1464.66C857.523 1465.11 857.746 1465.86 857.746 1466.93C857.746 1467.75 857.546 1468.6 857.146 1469.5C856.746 1470.4 856.153 1471.24 855.368 1472.02C854.583 1472.79 853.643 1473.41 852.55 1473.86ZM874.39 1441.13L868.016 1471.42L866.422 1472.08L872.75 1441.81L874.39 1441.13ZM678.561 1575.07C678.561 1573.35 678.907 1571.68 679.6 1570.04C680.293 1568.39 681.24 1566.93 682.44 1565.69C683.641 1564.42 684.981 1563.48 686.459 1562.87C688.26 1562.12 689.8 1561.95 691.077 1562.36C692.371 1562.74 693.31 1563.65 693.895 1565.09L692.001 1565.87C691.539 1564.88 690.831 1564.25 689.877 1563.98C688.937 1563.7 687.798 1563.84 686.459 1564.4C685.273 1564.89 684.203 1565.63 683.249 1566.63C682.31 1567.62 681.571 1568.79 681.032 1570.15C680.493 1571.49 680.223 1572.9 680.223 1574.38C680.223 1575.86 680.493 1577.05 681.032 1577.95C681.571 1578.84 682.31 1579.39 683.249 1579.6C684.203 1579.81 685.273 1579.66 686.459 1579.17C687.798 1578.62 688.937 1577.82 689.877 1576.78C690.831 1575.72 691.539 1574.51 692.001 1573.15L693.895 1572.36C693.31 1574.27 692.371 1575.95 691.077 1577.41C689.784 1578.86 688.245 1579.96 686.459 1580.7C684.981 1581.31 683.641 1581.49 682.44 1581.24C681.24 1580.97 680.293 1580.3 679.6 1579.24C678.907 1578.18 678.561 1576.79 678.561 1575.07ZM704.368 1573.3C702.874 1573.91 701.519 1574.1 700.303 1573.86C699.087 1573.59 698.125 1572.93 697.416 1571.88C696.724 1570.8 696.377 1569.4 696.377 1567.68C696.377 1565.97 696.724 1564.29 697.416 1562.65C698.125 1560.99 699.087 1559.54 700.303 1558.28C701.519 1557.01 702.874 1556.06 704.368 1555.45C705.876 1554.82 707.239 1554.64 708.455 1554.9C709.671 1555.15 710.626 1555.81 711.319 1556.89C712.012 1557.95 712.358 1559.34 712.358 1561.06C712.358 1562.77 712.012 1564.46 711.319 1566.11C710.626 1567.75 709.671 1569.2 708.455 1570.48C707.239 1571.73 705.876 1572.67 704.368 1573.3ZM704.368 1571.77C705.568 1571.27 706.646 1570.53 707.601 1569.53C708.555 1568.53 709.31 1567.36 709.864 1566.02C710.418 1564.65 710.695 1563.23 710.695 1561.75C710.695 1560.26 710.418 1559.08 709.864 1558.19C709.31 1557.3 708.555 1556.76 707.601 1556.56C706.646 1556.35 705.568 1556.5 704.368 1557C703.167 1557.49 702.089 1558.24 701.134 1559.24C700.18 1560.23 699.426 1561.4 698.871 1562.75C698.317 1564.1 698.04 1565.51 698.04 1566.99C698.04 1568.48 698.317 1569.67 698.871 1570.57C699.426 1571.46 700.18 1572.01 701.134 1572.21C702.089 1572.42 703.167 1572.27 704.368 1571.77ZM731.089 1544.79L731.089 1562.04L729.473 1562.71L729.473 1548.94L723.791 1565.07L722.614 1565.56L716.933 1554.19L716.933 1567.91L715.316 1568.58L715.316 1551.33L717.025 1550.62L723.191 1563.02L729.357 1545.51L731.089 1544.79ZM750.529 1536.73L750.529 1553.98L748.913 1554.65L748.913 1540.88L743.232 1557.01L742.054 1557.5L736.373 1546.13L736.373 1559.85L734.756 1560.52L734.756 1543.27L736.465 1542.56L742.631 1554.96L748.797 1537.45L750.529 1536.73ZM763.55 1544.43L756.206 1547.48L754.797 1552.21L753.088 1552.92L758.977 1533.23L760.801 1532.47L766.667 1547.29L764.958 1548L763.55 1544.43ZM763.065 1543.18L759.878 1535.06L756.691 1545.83L763.065 1543.18ZM781.432 1541.17L779.816 1541.84L770.878 1530.85L770.878 1545.55L769.262 1546.22L769.262 1528.74L770.878 1528.07L779.816 1539.04L779.816 1524.36L781.432 1523.69L781.432 1541.17ZM789.874 1520.19C791.66 1519.45 793.192 1519.17 794.47 1519.34C795.748 1519.51 796.725 1520.11 797.403 1521.15C798.08 1522.18 798.419 1523.61 798.419 1525.43C798.419 1527.23 798.08 1528.93 797.403 1530.52C796.725 1532.1 795.748 1533.51 794.47 1534.74C793.192 1535.95 791.66 1536.93 789.874 1537.67L785.094 1539.65L785.094 1522.18L789.874 1520.19ZM789.874 1536.22C792.122 1535.29 793.831 1533.95 795.001 1532.19C796.186 1530.42 796.779 1528.39 796.779 1526.11C796.779 1523.81 796.186 1522.26 795.001 1521.47C793.831 1520.65 792.122 1520.71 789.874 1521.64L786.71 1522.96L786.71 1537.53L789.874 1536.22ZM803.016 1514.75L803.016 1532.22L801.399 1532.89L801.399 1515.42L803.016 1514.75ZM816.122 1509.31L816.122 1510.76L811.642 1512.62L811.642 1528.64L810.025 1529.31L810.025 1513.29L805.522 1515.16L805.522 1513.71L816.122 1509.31ZM828.027 1517.7L820.684 1520.75L819.275 1525.48L817.566 1526.19L823.455 1506.5L825.279 1505.74L831.145 1520.56L829.436 1521.27L828.027 1517.7ZM827.542 1516.45L824.355 1508.32L821.169 1519.09L827.542 1516.45ZM835.356 1501.34L835.356 1518.81L833.74 1519.48L833.74 1502.01L835.356 1501.34ZM847.608 1513.73L843.612 1508.09L840.633 1509.32L840.633 1516.62L839.017 1517.29L839.017 1499.82L843.867 1497.81C845.668 1497.06 847.03 1496.96 847.954 1497.51C848.893 1498.06 849.363 1499.09 849.363 1500.61C849.363 1501.87 849.024 1503.1 848.347 1504.28C847.685 1505.43 846.699 1506.42 845.391 1507.23L849.548 1512.93L847.608 1513.73ZM840.633 1507.9L843.89 1506.55C845.152 1506.03 846.099 1505.3 846.73 1504.37C847.377 1503.44 847.7 1502.41 847.7 1501.29C847.7 1500.14 847.392 1499.39 846.776 1499.03C846.16 1498.65 845.191 1498.74 843.867 1499.28L840.633 1500.62L840.633 1507.9ZM854.187 1494.95L854.187 1501.48L860.307 1498.94L860.307 1500.39L854.187 1502.93L854.187 1509.55L861 1506.73L861 1508.18L852.571 1511.68L852.571 1494.18L861 1490.68L861 1492.13L854.187 1494.95ZM869.081 1505C868.019 1505.45 867.08 1505.63 866.264 1505.57C865.463 1505.5 864.832 1505.21 864.37 1504.68C863.908 1504.16 863.662 1503.46 863.631 1502.59L865.34 1501.88C865.417 1502.7 865.764 1503.31 866.379 1503.7C866.995 1504.08 867.896 1504.02 869.081 1503.53C870.174 1503.08 871.037 1502.42 871.668 1501.56C872.314 1500.67 872.638 1499.76 872.638 1498.83C872.638 1498.08 872.461 1497.55 872.107 1497.25C871.753 1496.93 871.314 1496.77 870.79 1496.77C870.267 1496.76 869.543 1496.81 868.619 1496.92C867.542 1497.05 866.687 1497.1 866.056 1497.06C865.425 1497.02 864.886 1496.78 864.439 1496.33C863.993 1495.88 863.77 1495.12 863.77 1494.03C863.77 1493.13 863.985 1492.24 864.416 1491.36C864.847 1490.47 865.456 1489.66 866.241 1488.93C867.026 1488.21 867.927 1487.63 868.943 1487.21C870.436 1486.59 871.637 1486.5 872.545 1486.92C873.469 1487.32 874 1488.12 874.139 1489.31L872.384 1490.04C872.276 1489.36 871.914 1488.88 871.298 1488.59C870.683 1488.27 869.851 1488.34 868.804 1488.77C867.834 1489.17 867.026 1489.79 866.379 1490.63C865.733 1491.44 865.409 1492.34 865.409 1493.3C865.409 1494.04 865.586 1494.55 865.941 1494.86C866.295 1495.16 866.733 1495.32 867.257 1495.34C867.796 1495.35 868.519 1495.3 869.428 1495.19C870.475 1495.07 871.321 1495.03 871.968 1495.08C872.615 1495.12 873.161 1495.36 873.608 1495.8C874.054 1496.25 874.277 1497.01 874.277 1498.08C874.277 1498.89 874.077 1499.75 873.677 1500.65C873.277 1501.55 872.684 1502.39 871.899 1503.16C871.114 1503.94 870.174 1504.55 869.081 1505Z" fill="white"/>
    </g>
  </g>
  <g id="roof-right">
    <path d="M455.386 194.541L884.701 906.949L455.386 1079.98L455.386 194.541Z" fill="#FF3535" fill-opacity="0.2" stroke="#FF7979" stroke-width="3"/>
  </g>
  <g id="mid-right">
    <path d="M455.386 1508.51L455.386 1080.94L891.614 904.062L891.614 1328.23L455.386 1508.51Z" fill="#FF3535" fill-opacity="0.2" stroke="#FF7979" stroke-width="3"/>
    <path fill-rule="evenodd" clip-rule="evenodd" d="M455.386 1080.94V1508.51L891.614 1328.23V904.062L455.386 1080.94ZM485 1101.17V1469L861 1313.91V949L485 1101.17Z" fill="#FF3535" fill-opacity="0.2"/>
    <path d="M455.386 1508.51H453.886V1510.75L455.959 1509.9L455.386 1508.51ZM455.386 1080.94L454.822 1079.55L453.886 1079.93V1080.94H455.386ZM891.614 1328.23L892.187 1329.62L893.114 1329.23V1328.23H891.614ZM891.614 904.062H893.114V901.835L891.05 902.672L891.614 904.062ZM485 1469H483.5V1471.24L485.572 1470.39L485 1469ZM485 1101.17L484.437 1099.78L483.5 1100.16V1101.17H485ZM861 1313.91L861.572 1315.29L862.5 1314.91V1313.91H861ZM861 949H862.5V946.775L860.437 947.61L861 949ZM456.886 1508.51V1080.94H453.886V1508.51H456.886ZM891.041 1326.84L454.813 1507.12L455.959 1509.9L892.187 1329.62L891.041 1326.84ZM890.114 904.062V1328.23H893.114V904.062H890.114ZM455.949 1082.33L892.177 905.452L891.05 902.672L454.822 1079.55L455.949 1082.33ZM486.5 1469V1101.17H483.5V1469H486.5ZM860.428 1312.52L484.428 1467.61L485.572 1470.39L861.572 1315.29L860.428 1312.52ZM859.5 949V1313.91H862.5V949H859.5ZM485.563 1102.56L861.563 950.39L860.437 947.61L484.437 1099.78L485.563 1102.56Z" fill="#FF7979"/>
  </g>
  <g id="plate-left">
    <path d="M1.38514 1318.71L452.411 1505.71L452.411 2284.98L1.38514 2115.02L1.38514 1318.71Z" fill="#FF3535" fill-opacity="0.2" stroke="#FF7979" stroke-width="3"/>
  </g>
  <g id="panel3">
    <g class="background">
      <path d="M371.525 1936.08L372.911 1936.65L372.911 1935.15L372.911 1918.7L440.287 1946.63L440.287 2267.97L13.5101 2106.03L13.5101 1787.64L371.525 1936.08Z" fill="#FF3535" fill-opacity="0.2" stroke="#FF7979" stroke-width="3"/>
    </g>
    <g class="text">
      <path d="M38.7459 1828.75L38.7459 1817.62L56.6575 1825.05L56.6575 1876.15L45.1475 1871.38L45.1475 1831.41L38.7459 1828.75ZM64.2215 1853.04C64.2215 1845.01 65.644 1839.28 68.4892 1835.84C71.3775 1832.41 76.0116 1832.02 82.3917 1834.67C88.7717 1837.31 93.3843 1841.54 96.2295 1847.34C99.1178 1853.15 100.562 1860.08 100.562 1868.1C100.562 1876.22 99.1178 1881.99 96.2295 1885.42C93.3843 1888.86 88.7717 1889.25 82.3917 1886.61C76.0116 1883.96 71.3775 1879.73 68.4892 1873.92C65.644 1868.12 64.2215 1861.16 64.2215 1853.04ZM89.6986 1863.6C89.6986 1858.89 89.2244 1855.07 88.276 1852.16C87.3276 1849.2 85.3662 1847.1 82.3917 1845.87C79.4172 1844.64 77.4558 1845.11 76.5074 1847.28C75.559 1849.41 75.0848 1852.83 75.0848 1857.54C75.0848 1860.71 75.2572 1863.42 75.6021 1865.66C75.947 1867.86 76.6367 1869.83 77.6713 1871.56C78.749 1873.27 80.3225 1874.55 82.3917 1875.41C84.4609 1876.27 86.0128 1876.28 87.0474 1875.45C88.1251 1874.59 88.8364 1873.2 89.1813 1871.29C89.5261 1869.34 89.6986 1866.77 89.6986 1863.6ZM106.404 1870.52C106.404 1862.5 107.826 1856.76 110.671 1853.32C113.56 1849.9 118.194 1849.51 124.574 1852.16C130.954 1854.8 135.567 1859.03 138.412 1864.83C141.3 1870.64 142.744 1877.57 142.744 1885.59C142.744 1893.71 141.3 1899.48 138.412 1902.91C135.567 1906.35 130.954 1906.74 124.574 1904.1C118.194 1901.45 113.56 1897.22 110.671 1891.4C107.826 1885.6 106.404 1878.64 106.404 1870.52ZM131.881 1881.09C131.881 1876.37 131.407 1872.56 130.458 1869.65C129.51 1866.69 127.548 1864.59 124.574 1863.36C121.599 1862.13 119.638 1862.6 118.69 1864.77C117.741 1866.9 117.267 1870.32 117.267 1875.03C117.267 1878.2 117.44 1880.91 117.784 1883.15C118.129 1885.35 118.819 1887.32 119.854 1889.05C120.931 1890.76 122.505 1892.04 124.574 1892.9C126.643 1893.76 128.195 1893.77 129.23 1892.94C130.307 1892.08 131.019 1890.69 131.364 1888.78C131.708 1886.83 131.881 1884.26 131.881 1881.09ZM148.586 1888.01C148.586 1879.99 150.009 1874.25 152.854 1870.81C155.742 1867.39 160.376 1867 166.756 1869.65C173.136 1872.29 177.749 1876.51 180.594 1882.31C183.482 1888.13 184.926 1895.05 184.926 1903.08C184.926 1911.2 183.482 1916.97 180.594 1920.39C177.749 1923.83 173.136 1924.23 166.756 1921.59C160.376 1918.94 155.742 1914.71 152.854 1908.89C150.009 1903.09 148.586 1896.13 148.586 1888.01ZM174.063 1898.58C174.063 1893.86 173.589 1890.05 172.641 1887.14C171.692 1884.18 169.731 1882.08 166.756 1880.85C163.782 1879.61 161.82 1880.08 160.872 1882.26C159.924 1884.38 159.449 1887.8 159.449 1892.52C159.449 1895.69 159.622 1898.4 159.967 1900.64C160.312 1902.84 161.001 1904.8 162.036 1906.54C163.114 1908.25 164.687 1909.53 166.756 1910.39C168.825 1911.25 170.377 1911.26 171.412 1910.43C172.49 1909.57 173.201 1908.18 173.546 1906.27C173.891 1904.32 174.063 1901.75 174.063 1898.58ZM224.652 1926.69L213.4 1922.03L213.4 1934.49L202.925 1930.14L202.925 1917.68L191.674 1913.02L191.674 1902.31L202.925 1906.97L202.925 1894.44L213.4 1898.79L213.4 1911.32L224.652 1915.98L224.652 1926.69Z" fill="white"/>
      <path d="M52.4384 1909.33L48.4432 1900.37L45.4641 1899.14L45.4641 1906.44L43.8475 1905.77L43.8475 1888.29L48.6972 1890.3C50.4985 1891.05 51.8611 1892.08 52.7848 1893.4C53.724 1894.72 54.1935 1896.14 54.1935 1897.66C54.1935 1898.92 53.8548 1899.87 53.1774 1900.48C52.5154 1901.09 51.53 1901.26 50.2214 1900.98L54.3783 1910.13L52.4384 1909.33ZM45.4641 1897.71L48.7203 1899.06C49.9828 1899.58 50.9296 1899.64 51.5608 1899.24C52.2075 1898.84 52.5308 1898.08 52.5308 1896.97C52.5308 1895.82 52.2229 1894.81 51.607 1893.93C50.9912 1893.04 50.0213 1892.33 48.6972 1891.78L45.4641 1890.44L45.4641 1897.71ZM59.0182 1896.01L59.0182 1902.53L65.138 1905.07L65.138 1906.52L59.0182 1903.98L59.0182 1910.61L65.8308 1913.43L65.8308 1914.88L57.4016 1911.39L57.4016 1893.89L65.8308 1897.38L65.8308 1898.83L59.0182 1896.01ZM73.7966 1900.71C75.5825 1901.45 77.1144 1902.43 78.3922 1903.66C79.6701 1904.89 80.6477 1906.31 81.3252 1907.9C82.0026 1909.5 82.3413 1911.21 82.3413 1913.03C82.3413 1914.83 82.0026 1916.24 81.3252 1917.28C80.6477 1918.3 79.6701 1918.89 78.3922 1919.06C77.1144 1919.22 75.5825 1918.92 73.7966 1918.18L69.0162 1916.2L69.0162 1898.73L73.7966 1900.71ZM73.7966 1916.73C76.0444 1917.66 77.7533 1917.74 78.9234 1916.96C80.1089 1916.17 80.7016 1914.63 80.7016 1912.35C80.7016 1910.05 80.1089 1908.01 78.9234 1906.23C77.7533 1904.45 76.0444 1903.09 73.7966 1902.16L70.6327 1900.85L70.6327 1915.42L73.7966 1916.73ZM92.8733 1917.07C93.7817 1917.63 94.5515 1918.45 95.1827 1919.52C95.8139 1920.6 96.1296 1921.68 96.1296 1922.77C96.1296 1923.65 95.9217 1924.36 95.506 1924.91C95.1057 1925.44 94.513 1925.76 93.7278 1925.85C92.9426 1925.92 92.0035 1925.73 90.9103 1925.28L85.3216 1922.96L85.3216 1905.49L90.7487 1907.74C92.3807 1908.41 93.62 1909.34 94.4668 1910.5C95.329 1911.68 95.76 1912.91 95.76 1914.21C95.76 1915.3 95.4906 1916.07 94.9518 1916.53C94.4129 1916.97 93.7201 1917.15 92.8733 1917.07ZM86.9382 1913.88L90.7025 1915.44C91.7956 1915.9 92.6347 1915.97 93.2197 1915.66C93.8202 1915.34 94.1204 1914.69 94.1204 1913.71C94.1204 1912.74 93.8202 1911.86 93.2197 1911.06C92.6347 1910.27 91.7725 1909.64 90.6332 1909.16L86.9382 1907.63L86.9382 1913.88ZM90.7949 1923.76C91.965 1924.24 92.8733 1924.32 93.5199 1923.99C94.182 1923.66 94.513 1922.97 94.513 1921.92C94.513 1920.87 94.1666 1919.9 93.4738 1918.99C92.7963 1918.08 91.8803 1917.38 90.7256 1916.9L86.9382 1915.33L86.9382 1922.16L90.7949 1923.76ZM100.649 1911.84L100.649 1922.84C100.649 1924.57 101.026 1926.01 101.78 1927.16C102.55 1928.31 103.597 1929.16 104.921 1929.71C106.245 1930.26 107.276 1930.28 108.015 1929.77C108.77 1929.25 109.147 1928.11 109.147 1926.36L109.147 1915.36L110.764 1916.03L110.764 1927.01C110.764 1929.23 110.217 1930.67 109.124 1931.33C108.046 1932 106.638 1931.97 104.898 1931.25C103.158 1930.53 101.742 1929.39 100.649 1927.82C99.5708 1926.25 99.032 1924.36 99.032 1922.15L99.032 1911.17L100.649 1911.84ZM115.986 1934.25L121.782 1936.65L121.782 1938.08L114.369 1935L114.369 1917.53L115.986 1918.2L115.986 1934.25ZM125.706 1938.28L131.503 1940.68L131.503 1942.11L124.089 1939.03L124.089 1921.56L125.706 1922.23L125.706 1938.28ZM138.706 1945.27C137.643 1944.83 136.704 1944.24 135.888 1943.5C135.087 1942.77 134.456 1941.95 133.994 1941.04C133.533 1940.13 133.286 1939.23 133.255 1938.33L134.964 1939.04C135.041 1939.93 135.388 1940.82 136.004 1941.72C136.619 1942.61 137.52 1943.3 138.706 1943.79C139.799 1944.25 140.661 1944.31 141.292 1943.97C141.939 1943.62 142.262 1942.98 142.262 1942.04C142.262 1941.29 142.085 1940.62 141.731 1940.02C141.377 1939.41 140.938 1938.89 140.414 1938.45C139.891 1938 139.167 1937.45 138.244 1936.8C137.166 1936.04 136.311 1935.38 135.68 1934.82C135.049 1934.25 134.51 1933.56 134.064 1932.74C133.617 1931.93 133.394 1930.98 133.394 1929.89C133.394 1928.99 133.609 1928.28 134.041 1927.76C134.472 1927.22 135.08 1926.92 135.865 1926.84C136.65 1926.77 137.551 1926.94 138.567 1927.36C140.06 1927.98 141.261 1928.88 142.17 1930.06C143.093 1931.22 143.625 1932.46 143.763 1933.77L142.008 1933.04C141.9 1932.28 141.538 1931.49 140.923 1930.69C140.307 1929.87 139.475 1929.24 138.428 1928.8C137.458 1928.4 136.65 1928.35 136.004 1928.65C135.357 1928.93 135.034 1929.56 135.034 1930.52C135.034 1931.26 135.211 1931.92 135.565 1932.52C135.919 1933.11 136.358 1933.64 136.881 1934.09C137.42 1934.54 138.144 1935.09 139.052 1935.74C140.099 1936.49 140.946 1937.16 141.592 1937.74C142.239 1938.31 142.785 1939 143.232 1939.82C143.678 1940.64 143.902 1941.58 143.902 1942.65C143.902 1943.47 143.701 1944.16 143.301 1944.72C142.901 1945.29 142.308 1945.64 141.523 1945.76C140.738 1945.89 139.799 1945.72 138.706 1945.27Z" fill="white"/>
    </g>
  </g>
  <g id="panel2">
    <g class="background">
      <path d="M362.345 1905.64L362.345 1920.65L13.5101 1776.02L13.5101 1600.93L261.02 1703.55L261.02 1782.48L261.02 1783.98L262.406 1784.55L440.287 1858.3L440.287 1936.45L363.731 1904.71L362.345 1904.14L362.345 1905.64Z" fill="#FF3535" fill-opacity="0.2" stroke="#FF7979" stroke-width="3"/>
    </g>
    <g class="text">
      <path d="M70.2819 1651.47L54.0516 1686.89L42.7356 1682.19L59.1599 1648.19L39.0498 1639.86L39.0498 1629.64L70.2819 1642.58L70.2819 1651.47ZM74.7537 1669.22C74.7537 1661.19 76.1763 1655.46 79.0214 1652.02C81.9097 1648.6 86.5439 1648.21 92.9239 1650.85C99.304 1653.5 103.917 1657.72 106.762 1663.52C109.65 1669.34 111.094 1676.26 111.094 1684.29C111.094 1692.41 109.65 1698.18 106.762 1701.6C103.917 1705.04 99.304 1705.44 92.9239 1702.79C86.5439 1700.15 81.9097 1695.92 79.0214 1690.1C76.1763 1684.3 74.7537 1677.34 74.7537 1669.22ZM100.231 1679.78C100.231 1675.07 99.7566 1671.26 98.8082 1668.34C97.8598 1665.38 95.8984 1663.29 92.9239 1662.05C89.9494 1660.82 87.988 1661.29 87.0396 1663.46C86.0912 1665.59 85.617 1669.01 85.617 1673.72C85.617 1676.9 85.7895 1679.6 86.1343 1681.85C86.4792 1684.04 87.1689 1686.01 88.2035 1687.75C89.2813 1689.45 90.8547 1690.73 92.9239 1691.59C94.9931 1692.45 96.545 1692.46 97.5796 1691.63C98.6573 1690.77 99.3686 1689.39 99.7135 1687.48C100.058 1685.52 100.231 1682.95 100.231 1679.78ZM150.819 1707.9L139.568 1703.23L139.568 1715.69L129.093 1711.35L129.093 1698.89L117.841 1694.22L117.841 1683.51L129.093 1688.18L129.093 1675.65L139.568 1679.99L139.568 1692.52L150.819 1697.19L150.819 1707.9Z" fill="white"/>
      <path d="M51.099 1721.95C49.6056 1721.33 48.2507 1720.39 47.0345 1719.14C45.8182 1717.87 44.8559 1716.41 44.1477 1714.77C43.4549 1713.11 43.1085 1711.43 43.1085 1709.71C43.1085 1707.99 43.4549 1706.6 44.1477 1705.54C44.8559 1704.47 45.8182 1703.81 47.0345 1703.56C48.2507 1703.3 49.6056 1703.48 51.099 1704.1C52.6078 1704.72 53.9703 1705.67 55.1866 1706.94C56.4028 1708.2 57.3574 1709.65 58.0502 1711.3C58.743 1712.94 59.0894 1714.62 59.0894 1716.34C59.0894 1718.05 58.743 1719.45 58.0502 1720.53C57.3574 1721.59 56.4028 1722.25 55.1866 1722.52C53.9703 1722.76 52.6078 1722.57 51.099 1721.95ZM51.099 1720.42C52.2998 1720.92 53.3776 1721.07 54.3321 1720.86C55.2866 1720.66 56.041 1720.11 56.5953 1719.23C57.1495 1718.32 57.4267 1717.13 57.4267 1715.65C57.4267 1714.16 57.1495 1712.75 56.5953 1711.4C56.041 1710.05 55.2866 1708.88 54.3321 1707.89C53.3776 1706.89 52.2998 1706.15 51.099 1705.65C49.8981 1705.15 48.8204 1705 47.8658 1705.21C46.9113 1705.41 46.1569 1705.96 45.6026 1706.84C45.0484 1707.73 44.7713 1708.92 44.7713 1710.4C44.7713 1711.88 45.0484 1713.31 45.6026 1714.67C46.1569 1716.02 46.9113 1717.19 47.8658 1718.18C48.8204 1719.18 49.8981 1719.92 51.099 1720.42ZM70.6383 1729.87L66.6431 1720.92L63.664 1719.68L63.664 1726.98L62.0474 1726.31L62.0474 1708.84L66.8971 1710.85C68.6984 1711.59 70.061 1712.63 70.9847 1713.94C71.9239 1715.26 72.3934 1716.68 72.3934 1718.2C72.3934 1719.47 72.0547 1720.41 71.3773 1721.03C70.7153 1721.64 69.73 1721.81 68.4213 1721.53L72.5782 1730.68L70.6383 1729.87ZM63.664 1718.26L66.9202 1719.61C68.1827 1720.13 69.1295 1720.19 69.7607 1719.78C70.4074 1719.39 70.7307 1718.63 70.7307 1717.51C70.7307 1716.36 70.4228 1715.35 69.8069 1714.48C69.1911 1713.59 68.2212 1712.87 66.8971 1712.32L63.664 1710.98L63.664 1718.26ZM88.3031 1724.82C87.8412 1723.48 87.133 1722.29 86.1785 1721.24C85.2393 1720.19 84.1308 1719.39 82.853 1718.86C81.6521 1718.36 80.5744 1718.22 79.6198 1718.42C78.6653 1718.63 77.9109 1719.17 77.3566 1720.06C76.8024 1720.93 76.5252 1722.1 76.5252 1723.56C76.5252 1725.03 76.8024 1726.44 77.3566 1727.78C77.9109 1729.13 78.6653 1730.3 79.6198 1731.3C80.5744 1732.29 81.6521 1733.04 82.853 1733.54C83.9769 1734 84.9853 1734.16 85.8782 1734.02C86.7866 1733.86 87.5102 1733.41 88.0491 1732.67C88.6033 1731.91 88.9189 1730.9 88.9959 1729.63L82.2063 1726.82L82.2063 1725.39L90.7049 1728.92L90.7049 1730.19C90.6279 1731.69 90.243 1732.93 89.5502 1733.89C88.8573 1734.84 87.9259 1735.42 86.7558 1735.66C85.6011 1735.89 84.3002 1735.71 82.853 1735.11C81.3596 1734.49 80.0047 1733.56 78.7884 1732.3C77.5722 1731.03 76.6099 1729.57 75.9017 1727.93C75.2089 1726.28 74.8625 1724.59 74.8625 1722.87C74.8625 1721.16 75.2089 1719.77 75.9017 1718.71C76.6099 1717.63 77.5722 1716.97 78.7884 1716.73C80.0047 1716.47 81.3596 1716.64 82.853 1717.26C84.5773 1717.98 86.0861 1719.07 87.3793 1720.54C88.6726 1722.01 89.6117 1723.7 90.1968 1725.61L88.3031 1724.82ZM103.019 1739.15L95.6753 1736.1L94.2665 1739.67L92.5576 1738.96L98.4465 1724.15L100.271 1724.91L106.137 1744.59L104.428 1743.88L103.019 1739.15ZM102.534 1737.5L99.3472 1726.73L96.1602 1734.85L102.534 1737.5ZM120.902 1750.71L119.285 1750.04L110.348 1731.64L110.348 1746.34L108.731 1745.67L108.731 1728.19L110.348 1728.86L119.285 1747.24L119.285 1732.57L120.902 1733.24L120.902 1750.71ZM126.18 1735.43L126.18 1752.9L124.563 1752.23L124.563 1734.76L126.18 1735.43ZM130.88 1753.3L139.124 1756.72L139.124 1758.27L128.986 1754.06L128.986 1752.66L137.115 1741.51L129.124 1738.2L129.124 1736.65L139.009 1740.75L139.009 1742.15L130.88 1753.3ZM143.59 1744.07L143.59 1750.59L149.71 1753.13L149.71 1754.58L143.59 1752.04L143.59 1758.67L150.403 1761.49L150.403 1762.94L141.974 1759.45L141.974 1741.95L150.403 1745.44L150.403 1746.89L143.59 1744.07ZM162.179 1767.83L158.184 1758.87L155.205 1757.63L155.205 1764.93L153.588 1764.26L153.588 1746.79L158.438 1748.8C160.239 1749.55 161.602 1750.58 162.526 1751.9C163.465 1753.22 163.934 1754.64 163.934 1756.15C163.934 1757.42 163.596 1758.36 162.918 1758.98C162.256 1759.59 161.271 1759.76 159.962 1759.48L164.119 1768.63L162.179 1767.83ZM155.205 1756.21L158.461 1757.56C159.723 1758.08 160.67 1758.14 161.302 1757.74C161.948 1757.34 162.271 1756.58 162.271 1755.46C162.271 1754.31 161.964 1753.3 161.348 1752.43C160.732 1751.54 159.762 1750.82 158.438 1750.28L155.205 1748.93L155.205 1756.21ZM172.038 1772.09C170.976 1771.65 170.037 1771.06 169.221 1770.32C168.42 1769.59 167.789 1768.77 167.327 1767.86C166.865 1766.95 166.619 1766.05 166.588 1765.15L168.297 1765.86C168.374 1766.74 168.72 1767.64 169.336 1768.54C169.952 1769.43 170.853 1770.12 172.038 1770.61C173.131 1771.07 173.993 1771.12 174.625 1770.79C175.271 1770.44 175.595 1769.8 175.595 1768.86C175.595 1768.11 175.418 1767.44 175.063 1766.84C174.709 1766.23 174.271 1765.71 173.747 1765.27C173.224 1764.82 172.5 1764.27 171.576 1763.62C170.499 1762.86 169.644 1762.2 169.013 1761.63C168.382 1761.07 167.843 1760.38 167.396 1759.56C166.95 1758.75 166.727 1757.8 166.727 1756.71C166.727 1755.81 166.942 1755.1 167.373 1754.58C167.804 1754.04 168.412 1753.74 169.198 1753.66C169.983 1753.59 170.883 1753.76 171.9 1754.18C173.393 1754.8 174.594 1755.7 175.502 1756.88C176.426 1758.04 176.957 1759.28 177.096 1760.59L175.341 1759.86C175.233 1759.1 174.871 1758.31 174.255 1757.51C173.639 1756.69 172.808 1756.06 171.761 1755.62C170.791 1755.22 169.983 1755.17 169.336 1755.47C168.69 1755.75 168.366 1756.38 168.366 1757.34C168.366 1758.08 168.543 1758.74 168.897 1759.34C169.252 1759.93 169.69 1760.46 170.214 1760.91C170.753 1761.36 171.476 1761.91 172.385 1762.56C173.432 1763.31 174.278 1763.98 174.925 1764.56C175.572 1765.13 176.118 1765.82 176.565 1766.64C177.011 1767.46 177.234 1768.4 177.234 1769.47C177.234 1770.29 177.034 1770.98 176.634 1771.54C176.234 1772.11 175.641 1772.46 174.856 1772.58C174.07 1772.71 173.131 1772.54 172.038 1772.09ZM193.878 1757.47L187.504 1782.48L185.91 1781.82L192.238 1756.79L193.878 1757.47ZM51.099 1759.95C49.6056 1759.33 48.2507 1758.39 47.0344 1757.14C45.8182 1755.87 44.8559 1754.41 44.1477 1752.77C43.4549 1751.11 43.1085 1749.43 43.1085 1747.71C43.1085 1745.99 43.4549 1744.6 44.1477 1743.54C44.8559 1742.47 45.8182 1741.81 47.0345 1741.56C48.2507 1741.3 49.6056 1741.48 51.099 1742.1C52.6078 1742.72 53.9703 1743.67 55.1866 1744.94C56.4028 1746.2 57.3574 1747.65 58.0502 1749.3C58.743 1750.94 59.0894 1752.62 59.0894 1754.34C59.0894 1756.05 58.743 1757.45 58.0502 1758.53C57.3574 1759.59 56.4028 1760.25 55.1866 1760.52C53.9703 1760.76 52.6078 1760.57 51.099 1759.95ZM51.099 1758.42C52.2998 1758.92 53.3776 1759.07 54.3321 1758.86C55.2866 1758.66 56.041 1758.11 56.5953 1757.23C57.1495 1756.32 57.4267 1755.13 57.4267 1753.65C57.4267 1752.16 57.1495 1750.75 56.5953 1749.4C56.041 1748.05 55.2866 1746.88 54.3321 1745.89C53.3776 1744.89 52.2998 1744.15 51.099 1743.65C49.8981 1743.15 48.8204 1743 47.8658 1743.21C46.9113 1743.41 46.1569 1743.96 45.6026 1744.84C45.0484 1745.73 44.7713 1746.92 44.7713 1748.4C44.7713 1749.88 45.0484 1751.31 45.6026 1752.67C46.1569 1754.02 46.9113 1755.19 47.8658 1756.18C48.8204 1757.18 49.8981 1757.92 51.099 1758.42ZM70.6383 1767.87L66.6431 1758.92L63.664 1757.68L63.664 1764.98L62.0474 1764.31L62.0474 1746.84L66.8971 1748.85C68.6984 1749.59 70.061 1750.63 70.9847 1751.94C71.9239 1753.26 72.3934 1754.68 72.3934 1756.2C72.3934 1757.47 72.0547 1758.41 71.3773 1759.03C70.7153 1759.64 69.73 1759.81 68.4213 1759.53L72.5782 1768.68L70.6383 1767.87ZM63.664 1756.26L66.9202 1757.61C68.1827 1758.13 69.1295 1758.19 69.7607 1757.78C70.4074 1757.39 70.7307 1756.63 70.7307 1755.51C70.7307 1754.36 70.4228 1753.35 69.8069 1752.48C69.1911 1751.59 68.2212 1750.87 66.8971 1750.32L63.664 1748.98L63.664 1756.26ZM88.3031 1762.82C87.8412 1761.48 87.133 1760.29 86.1785 1759.24C85.2393 1758.19 84.1308 1757.39 82.853 1756.86C81.6521 1756.36 80.5744 1756.22 79.6198 1756.42C78.6653 1756.63 77.9109 1757.17 77.3566 1758.06C76.8024 1758.93 76.5252 1760.1 76.5252 1761.56C76.5252 1763.03 76.8024 1764.44 77.3566 1765.78C77.9109 1767.13 78.6653 1768.3 79.6198 1769.3C80.5744 1770.29 81.6521 1771.04 82.853 1771.54C83.9769 1772 84.9853 1772.16 85.8782 1772.02C86.7866 1771.86 87.5102 1771.41 88.0491 1770.67C88.6033 1769.91 88.9189 1768.9 88.9959 1767.63L82.2063 1764.82L82.2063 1763.39L90.7048 1766.92L90.7048 1768.19C90.6279 1769.69 90.243 1770.93 89.5502 1771.89C88.8573 1772.84 87.9259 1773.42 86.7558 1773.66C85.6011 1773.89 84.3002 1773.71 82.853 1773.11C81.3596 1772.49 80.0047 1771.56 78.7884 1770.3C77.5722 1769.03 76.6099 1767.57 75.9017 1765.93C75.2089 1764.28 74.8625 1762.59 74.8625 1760.87C74.8625 1759.16 75.2089 1757.77 75.9017 1756.71C76.6099 1755.63 77.5722 1754.97 78.7884 1754.73C80.0047 1754.47 81.3596 1754.64 82.853 1755.26C84.5773 1755.98 86.0861 1757.07 87.3793 1758.54C88.6726 1760.01 89.6117 1761.7 90.1968 1763.61L88.3031 1762.82ZM103.019 1777.15L95.6753 1774.1L94.2665 1777.67L92.5576 1776.96L98.4465 1762.15L100.271 1762.91L106.137 1782.59L104.428 1781.88L103.019 1777.15ZM102.534 1775.5L99.3472 1764.73L96.1602 1772.85L102.534 1775.5ZM120.902 1788.71L119.285 1788.04L110.348 1769.64L110.348 1784.34L108.731 1783.67L108.731 1766.19L110.348 1766.86L119.285 1785.24L119.285 1770.57L120.902 1771.24L120.902 1788.71ZM126.18 1773.43L126.18 1790.9L124.563 1790.23L124.563 1772.76L126.18 1773.43ZM134.736 1794.62C133.674 1794.18 132.735 1793.59 131.919 1792.86C131.118 1792.12 130.487 1791.3 130.025 1790.4C129.563 1789.49 129.317 1788.59 129.286 1787.69L130.995 1788.4C131.072 1789.28 131.418 1790.17 132.034 1791.08C132.65 1791.97 133.551 1792.66 134.736 1793.15C135.829 1793.6 136.692 1793.66 137.323 1793.32C137.969 1792.97 138.293 1792.33 138.293 1791.4C138.293 1790.65 138.116 1789.97 137.762 1789.38C137.407 1788.76 136.969 1788.24 136.445 1787.81C135.922 1787.36 135.198 1786.81 134.274 1786.16C133.197 1785.39 132.342 1784.73 131.711 1784.17C131.08 1783.61 130.541 1782.92 130.094 1782.1C129.648 1781.28 129.425 1780.33 129.425 1779.25C129.425 1778.35 129.64 1777.64 130.071 1777.11C130.502 1776.58 131.111 1776.27 131.896 1776.2C132.681 1776.12 133.582 1776.29 134.598 1776.72C136.091 1777.34 137.292 1778.23 138.2 1779.41C139.124 1780.58 139.655 1781.81 139.794 1783.12L138.039 1782.39C137.931 1781.63 137.569 1780.85 136.953 1780.04C136.337 1779.22 135.506 1778.59 134.459 1778.16C133.489 1777.76 132.681 1777.7 132.034 1778C131.388 1778.29 131.064 1778.91 131.064 1779.88C131.064 1780.61 131.241 1781.27 131.596 1781.87C131.95 1782.47 132.388 1782.99 132.912 1783.44C133.451 1783.9 134.174 1784.45 135.083 1785.09C136.13 1785.84 136.976 1786.51 137.623 1787.1C138.27 1787.66 138.816 1788.36 139.263 1789.18C139.709 1789.99 139.932 1790.94 139.932 1792C139.932 1792.82 139.732 1793.51 139.332 1794.08C138.932 1794.65 138.339 1794.99 137.554 1795.12C136.769 1795.24 135.829 1795.08 134.736 1794.62ZM152.409 1797.63L145.065 1794.58L143.657 1798.15L141.948 1797.44L147.837 1782.63L149.661 1783.39L155.527 1803.07L153.818 1802.36L152.409 1797.63ZM151.924 1795.97L148.737 1785.2L145.55 1793.33L151.924 1795.97ZM167.567 1790.59L167.567 1792.04L163.086 1790.18L163.086 1806.2L161.47 1805.53L161.47 1789.51L156.967 1787.64L156.967 1786.19L167.567 1790.59ZM171.736 1793.74L171.736 1800.26L177.856 1802.8L177.856 1804.25L171.736 1801.71L171.736 1808.34L178.548 1811.16L178.548 1812.61L170.119 1809.12L170.119 1791.62L178.548 1795.11L178.548 1796.56L171.736 1793.74ZM183.281 1797.1L183.281 1808.1C183.281 1809.83 183.658 1811.27 184.413 1812.42C185.182 1813.57 186.229 1814.42 187.553 1814.97C188.877 1815.52 189.909 1815.54 190.648 1815.03C191.402 1814.51 191.78 1813.37 191.78 1811.62L191.78 1800.62L193.396 1801.29L193.396 1812.27C193.396 1814.49 192.85 1815.93 191.757 1816.59C190.679 1817.26 189.27 1817.23 187.53 1816.51C185.791 1815.79 184.374 1814.65 183.281 1813.08C182.203 1811.51 181.665 1809.62 181.665 1807.41L181.665 1796.43L183.281 1797.1ZM205.593 1823.83L201.598 1814.87L198.618 1813.63L198.618 1820.93L197.002 1820.26L197.002 1802.79L201.852 1804.8C203.653 1805.55 205.015 1806.58 205.939 1807.89C206.878 1809.22 207.348 1810.64 207.348 1812.15C207.348 1813.42 207.009 1814.36 206.332 1814.98C205.67 1815.59 204.684 1815.76 203.376 1815.48L207.533 1824.63L205.593 1823.83ZM198.618 1812.21L201.875 1813.56C203.137 1814.08 204.084 1814.14 204.715 1813.74C205.362 1813.34 205.685 1812.58 205.685 1811.46C205.685 1810.31 205.377 1809.3 204.761 1808.43C204.146 1807.54 203.176 1806.82 201.852 1806.27L198.618 1804.93L198.618 1812.21ZM215.452 1828.09C214.39 1827.65 213.45 1827.06 212.634 1826.32C211.834 1825.59 211.203 1824.77 210.741 1823.86C210.279 1822.95 210.033 1822.05 210.002 1821.15L211.711 1821.86C211.788 1822.74 212.134 1823.64 212.75 1824.54C213.366 1825.43 214.266 1826.12 215.452 1826.61C216.545 1827.07 217.407 1827.12 218.038 1826.79C218.685 1826.44 219.008 1825.8 219.008 1824.86C219.008 1824.11 218.831 1823.44 218.477 1822.84C218.123 1822.23 217.684 1821.71 217.161 1821.27C216.637 1820.82 215.914 1820.27 214.99 1819.62C213.912 1818.86 213.058 1818.2 212.427 1817.63C211.795 1817.07 211.256 1816.38 210.81 1815.56C210.364 1814.75 210.14 1813.79 210.14 1812.71C210.14 1811.81 210.356 1811.1 210.787 1810.58C211.218 1810.04 211.826 1809.74 212.611 1809.66C213.396 1809.59 214.297 1809.76 215.313 1810.18C216.807 1810.8 218.008 1811.7 218.916 1812.87C219.84 1814.04 220.371 1815.28 220.509 1816.59L218.754 1815.86C218.646 1815.1 218.285 1814.31 217.669 1813.51C217.053 1812.69 216.222 1812.06 215.175 1811.62C214.205 1811.22 213.396 1811.17 212.75 1811.47C212.103 1811.75 211.78 1812.37 211.78 1813.34C211.78 1814.07 211.957 1814.74 212.311 1815.34C212.665 1815.93 213.104 1816.46 213.627 1816.91C214.166 1817.36 214.89 1817.91 215.798 1818.56C216.845 1819.31 217.692 1819.98 218.339 1820.56C218.985 1821.13 219.532 1821.82 219.978 1822.64C220.425 1823.46 220.648 1824.4 220.648 1825.47C220.648 1826.28 220.448 1826.98 220.048 1827.54C219.647 1828.11 219.054 1828.46 218.269 1828.58C217.484 1828.71 216.545 1828.54 215.452 1828.09Z" fill="white"/>
    </g>
  </g>
  <g id="panel1">
    <g class="background">
      <path d="M271.932 1695.74L13.5101 1588.6L13.5101 1335.95L440.287 1512.89L440.287 1850.28L273.318 1781.05L273.318 1697.81L273.318 1696.31L271.932 1695.74Z" fill="#FF3535" fill-opacity="0.2" stroke="#FF7979" stroke-width="3"/>
    </g>
    <g class="text">
      <path d="M63.4923 1392.82C63.1474 1390.95 62.5439 1389.41 61.6817 1388.21C60.8196 1386.97 59.591 1386.02 57.996 1385.36C55.5388 1384.34 53.7713 1384.77 52.6936 1386.66C51.6159 1388.5 51.0555 1391.91 51.0124 1396.88C51.9608 1395.64 53.3187 1394.92 55.0862 1394.72C56.8967 1394.54 58.8797 1394.89 61.0351 1395.79C65.2598 1397.54 68.6438 1400.39 71.1872 1404.34C73.7737 1408.3 75.0669 1412.87 75.0669 1418.05C75.0669 1421.46 74.4203 1424.18 73.127 1426.21C71.8769 1428.26 70.0232 1429.5 67.5661 1429.92C65.152 1430.37 62.2853 1429.9 58.9659 1428.53C52.3272 1425.78 47.7146 1421.62 45.1281 1416.07C42.5416 1410.47 41.2483 1403.45 41.2483 1395C41.2483 1386.14 42.6063 1380.12 45.3221 1376.95C48.081 1373.76 52.4781 1373.41 58.5133 1375.91C61.7464 1377.25 64.4622 1379.08 66.6608 1381.39C68.9024 1383.67 70.5836 1386.17 71.7045 1388.87C72.8684 1391.59 73.5581 1394.33 73.7737 1397.08L63.4923 1392.82ZM58.384 1404.14C56.5303 1403.37 54.9784 1403.33 53.7282 1404.03C52.5212 1404.69 51.9177 1406.12 51.9177 1408.32C51.9177 1410.56 52.4781 1412.54 53.5989 1414.26C54.7628 1416.01 56.401 1417.31 58.5133 1418.19C60.41 1418.98 61.8973 1418.99 62.975 1418.22C64.0958 1417.43 64.6562 1415.95 64.6562 1413.81C64.6562 1411.61 64.1174 1409.66 63.0397 1407.96C61.962 1406.25 60.41 1404.98 58.384 1404.14ZM81.321 1411.27C81.321 1403.24 82.7436 1397.51 85.5888 1394.07C88.477 1390.64 93.1112 1390.26 99.4912 1392.9C105.871 1395.55 110.484 1399.77 113.329 1405.57C116.217 1411.38 117.661 1418.31 117.661 1426.33C117.661 1434.45 116.217 1440.22 113.329 1443.65C110.484 1447.09 105.871 1447.49 99.4912 1444.84C93.1112 1442.2 88.477 1437.96 85.5888 1432.15C82.7436 1426.35 81.321 1419.39 81.321 1411.27ZM106.798 1421.83C106.798 1417.12 106.324 1413.3 105.376 1410.39C104.427 1407.43 102.466 1405.33 99.4912 1404.1C96.5167 1402.87 94.5553 1403.34 93.6069 1405.51C92.6585 1407.64 92.1843 1411.06 92.1843 1415.77C92.1843 1418.94 92.3568 1421.65 92.7016 1423.9C93.0465 1426.09 93.7362 1428.06 94.7709 1429.79C95.8486 1431.5 97.422 1432.78 99.4912 1433.64C101.56 1434.5 103.112 1434.51 104.147 1433.68C105.225 1432.82 105.936 1431.44 106.281 1429.53C106.626 1427.57 106.798 1425 106.798 1421.83ZM123.503 1428.76C123.503 1420.73 124.926 1415 127.771 1411.56C130.659 1408.13 135.293 1407.74 141.674 1410.39C148.054 1413.03 152.666 1417.26 155.511 1423.06C158.4 1428.87 159.844 1435.8 159.844 1443.82C159.844 1451.94 158.4 1457.71 155.511 1461.14C152.666 1464.58 148.054 1464.97 141.674 1462.33C135.293 1459.68 130.659 1455.45 127.771 1449.64C124.926 1443.84 123.503 1436.88 123.503 1428.76ZM148.98 1439.32C148.98 1434.61 148.506 1430.79 147.558 1427.88C146.609 1424.92 144.648 1422.82 141.674 1421.59C138.699 1420.36 136.738 1420.83 135.789 1423C134.841 1425.13 134.367 1428.55 134.367 1433.26C134.367 1436.43 134.539 1439.14 134.884 1441.38C135.229 1443.58 135.919 1445.55 136.953 1447.28C138.031 1448.99 139.604 1450.27 141.674 1451.13C143.743 1451.99 145.295 1452 146.329 1451.17C147.407 1450.31 148.118 1448.92 148.463 1447.01C148.808 1445.06 148.98 1442.49 148.98 1439.32ZM199.569 1467.43L188.318 1462.77L188.318 1475.23L177.842 1470.88L177.842 1458.42L166.591 1453.76L166.591 1443.05L177.842 1447.71L177.842 1435.18L188.318 1439.53L188.318 1452.06L199.569 1456.72L199.569 1467.43Z" fill="white"/>
      <path d="M55.8332 1446.26L55.8332 1463.74L54.2166 1463.07L54.2166 1454.89L45.4641 1451.26L45.4641 1459.44L43.8475 1458.77L43.8475 1441.29L45.4641 1441.96L45.4641 1449.81L54.2166 1453.44L54.2166 1445.59L55.8332 1446.26ZM68.8745 1464.99L61.5307 1461.95L60.122 1465.51L58.413 1464.8L64.3019 1450L66.1264 1450.75L71.9922 1470.43L70.2832 1469.73L68.8745 1464.99ZM68.3896 1463.34L65.2026 1452.57L62.0157 1460.7L68.3896 1463.34ZM73.8476 1462.45C73.8476 1460.74 74.194 1459.35 74.8869 1458.29C75.5797 1457.21 76.5265 1456.54 77.7274 1456.29C78.9283 1456.02 80.2677 1456.19 81.7457 1456.8C83.547 1457.55 85.0866 1458.66 86.3645 1460.12C87.6577 1461.57 88.5969 1463.26 89.1819 1465.19L87.2882 1464.4C86.8264 1463.03 86.1181 1461.81 85.1636 1460.75C84.2244 1459.69 83.0852 1458.88 81.7457 1458.33C80.5602 1457.84 79.4902 1457.69 78.5357 1457.9C77.5965 1458.11 76.8575 1458.67 76.3187 1459.58C75.7798 1460.47 75.5104 1461.66 75.5104 1463.14C75.5104 1464.63 75.7798 1466.04 76.3187 1467.38C76.8575 1468.72 77.5965 1469.88 78.5357 1470.87C79.4902 1471.87 80.5602 1472.61 81.7457 1473.1C83.0852 1473.66 84.2244 1473.81 85.1636 1473.55C86.1181 1473.27 86.8264 1472.65 87.2882 1471.68L89.1819 1472.46C88.5969 1473.89 87.6577 1474.79 86.3645 1475.17C85.0712 1475.55 83.5316 1475.37 81.7457 1474.63C80.2677 1474.02 78.9283 1473.09 77.7274 1471.84C76.5265 1470.57 75.5797 1469.12 74.8869 1467.49C74.194 1465.85 73.8476 1464.17 73.8476 1462.45ZM101.017 1482.47L94.0197 1471.49L94.0197 1479.57L92.4031 1478.9L92.4031 1461.42L94.0197 1462.09L94.0197 1470.27L101.017 1464.99L103.072 1465.85L95.5208 1471.44L103.142 1483.35L101.017 1482.47ZM107.145 1468.96L107.145 1475.48L113.265 1478.02L113.265 1479.47L107.145 1476.93L107.145 1483.56L113.958 1486.38L113.958 1487.83L105.529 1484.34L105.529 1466.84L113.958 1470.33L113.958 1471.78L107.145 1468.96ZM125.734 1492.72L121.739 1483.76L118.76 1482.52L118.76 1489.82L117.143 1489.15L117.143 1471.68L121.993 1473.69C123.794 1474.44 125.157 1475.47 126.081 1476.79C127.02 1478.11 127.489 1479.53 127.489 1481.04C127.489 1482.31 127.151 1483.25 126.473 1483.87C125.811 1484.48 124.826 1484.65 123.517 1484.37L127.674 1493.52L125.734 1492.72ZM118.76 1481.1L122.016 1482.45C123.279 1482.97 124.225 1483.03 124.857 1482.63C125.503 1482.23 125.827 1481.47 125.827 1480.35C125.827 1479.2 125.519 1478.19 124.903 1477.32C124.287 1476.43 123.317 1475.71 121.993 1475.17L118.76 1473.82L118.76 1481.1ZM135.593 1496.98C134.531 1496.54 133.592 1495.95 132.776 1495.21C131.975 1494.48 131.344 1493.66 130.882 1492.75C130.42 1491.84 130.174 1490.94 130.143 1490.04L131.852 1490.75C131.929 1491.63 132.275 1492.53 132.891 1493.43C133.507 1494.32 134.408 1495.01 135.593 1495.5C136.686 1495.96 137.549 1496.01 138.18 1495.68C138.826 1495.33 139.15 1494.69 139.15 1493.75C139.15 1493 138.973 1492.33 138.619 1491.73C138.264 1491.12 137.826 1490.6 137.302 1490.16C136.779 1489.71 136.055 1489.16 135.131 1488.51C134.054 1487.75 133.199 1487.09 132.568 1486.52C131.937 1485.96 131.398 1485.27 130.951 1484.45C130.505 1483.64 130.282 1482.69 130.282 1481.6C130.282 1480.7 130.497 1479.99 130.928 1479.47C131.359 1478.93 131.968 1478.63 132.753 1478.55C133.538 1478.48 134.439 1478.65 135.455 1479.07C136.948 1479.69 138.149 1480.59 139.057 1481.77C139.981 1482.93 140.512 1484.17 140.651 1485.48L138.896 1484.75C138.788 1483.99 138.426 1483.2 137.81 1482.4C137.194 1481.58 136.363 1480.95 135.316 1480.51C134.346 1480.11 133.538 1480.06 132.891 1480.36C132.245 1480.64 131.921 1481.26 131.921 1482.23C131.921 1482.96 132.098 1483.63 132.453 1484.23C132.807 1484.82 133.245 1485.35 133.769 1485.8C134.308 1486.25 135.031 1486.8 135.94 1487.45C136.987 1488.2 137.833 1488.87 138.48 1489.45C139.127 1490.02 139.673 1490.71 140.12 1491.53C140.566 1492.35 140.789 1493.29 140.789 1494.36C140.789 1495.18 140.589 1495.87 140.189 1496.43C139.789 1497 139.196 1497.35 138.411 1497.47C137.626 1497.6 136.686 1497.43 135.593 1496.98Z" fill="white"/>
    </g>
  </g>
  <g id="roof-left">
    <path d="M452.411 194.41L452.411 1080.31L14.3145 899.456L452.411 194.41Z" fill="#FF3535" fill-opacity="0.2" stroke="#FF7979" stroke-width="3"/>
  </g>
  <g id="mid-left">
    <path d="M8.38562 1324.36L8.38562 898.071L452.483 1080.93L452.483 1508.48L8.38562 1324.36Z" fill="#FF3535" fill-opacity="0.2" stroke="#FF7979" stroke-width="3"/>
    <path fill-rule="evenodd" clip-rule="evenodd" d="M8.38574 898.071V1324.36L452.483 1508.48V1080.93L8.38574 898.071ZM35 938V1307.44L420 1467V1096.47L35 938Z" fill="#FF3535" fill-opacity="0.2"/>
    <path d="M8.38574 1324.36H6.88574V1325.36L7.81127 1325.75L8.38574 1324.36ZM8.38574 898.071L8.95685 896.684L6.88574 895.831V898.071H8.38574ZM452.483 1508.48L451.909 1509.87L453.983 1510.73V1508.48H452.483ZM452.483 1080.93H453.983V1079.93L453.054 1079.54L452.483 1080.93ZM35 1307.44H33.5V1308.44L34.4257 1308.82L35 1307.44ZM35 938L35.5709 936.613L33.5 935.76V938H35ZM420 1467L419.426 1468.39L421.5 1469.25V1467H420ZM420 1096.47H421.5V1095.47L420.571 1095.08L420 1096.47ZM9.88574 1324.36V898.071H6.88574V1324.36H9.88574ZM453.058 1507.09L8.96022 1322.97L7.81127 1325.75L451.909 1509.87L453.058 1507.09ZM450.983 1080.93V1508.48H453.983V1080.93H450.983ZM7.81463 899.458L451.912 1082.32L453.054 1079.54L8.95685 896.684L7.81463 899.458ZM36.5 1307.44V938H33.5V1307.44H36.5ZM420.574 1465.61L35.5743 1306.05L34.4257 1308.82L419.426 1468.39L420.574 1465.61ZM418.5 1096.47V1467H421.5V1096.47H418.5ZM34.4291 939.387L419.429 1097.86L420.571 1095.08L35.5709 936.613L34.4291 939.387Z" fill="#FF7979"/>
  </g>
  <g id="clock-left">
    <path d="M352.646 1259.48C352.646 1342.59 296.274 1386.34 227.016 1357.63C157.757 1328.91 101.386 1238.42 101.386 1155.31C101.386 1072.19 157.758 1028.45 227.016 1057.16C296.274 1085.88 352.646 1176.37 352.646 1259.48Z" fill="#FF3535" fill-opacity="0.2" stroke="#FF7979" stroke-width="3"/>
    <g class="small-hand">
      <path d="M213 1188.45C213 1207.53 210.756 1217.57 208 1210.98C205.244 1204.39 203 1183.62 203 1164.55C203 1145.47 205.244 1135.43 208 1142.02C210.756 1148.61 213 1169.38 213 1188.45Z" fill="#FF3535" fill-opacity="0.2" stroke="#FF7979" stroke-width="3"/>
    </g>
    <g class="big-hand">
      <path d="M237.818 1245.62C214.649 1223.57 203.999 1210.34 213.903 1215.96C223.81 1221.58 250.583 1243.97 273.752 1266.02C296.924 1288.07 307.571 1301.3 297.667 1295.68C287.761 1290.06 260.987 1267.67 237.818 1245.62Z" fill="#FF3535" fill-opacity="0.2" stroke="#FF7979" stroke-width="3"/>
    </g>
  </g>
  <g id="clock-right">
    <path d="M555.385 1259.48C555.385 1342.59 611.757 1386.34 681.016 1357.63C750.274 1328.91 806.646 1238.42 806.646 1155.31C806.646 1072.19 750.274 1028.45 681.016 1057.16C611.757 1085.88 555.385 1176.37 555.385 1259.48Z" fill="#FF3535" fill-opacity="0.2" stroke="#FF7979" stroke-width="3"/>
    <g class="small-hand">
      <path d="M689 1190.47C689 1207.98 686.756 1217.19 684 1211.14C681.244 1205.1 679 1186.04 679 1168.53C679 1151.02 681.244 1141.81 684 1147.86C686.756 1153.9 689 1172.97 689 1190.47Z" fill="#FF3535" fill-opacity="0.2" stroke="#FF7979" stroke-width="3"/>
    </g>
    <g class="big-hand">
      <path d="M715.298 1227.03C694.863 1221.28 684.714 1216.09 692.52 1215.42C700.329 1214.76 723.186 1218.86 743.621 1224.61C764.058 1230.37 774.205 1235.55 766.399 1236.22C758.591 1236.89 735.733 1232.78 715.298 1227.03Z" fill="#FF3535" fill-opacity="0.2" stroke="#FF7979" stroke-width="3"/>
    </g>
  </g>
</svg>
