<svg width="609" height="194" viewBox="0 0 609 194" fill="none" xmlns="http://www.w3.org/2000/svg">
<g clip-path="url(#clip0_328_10)">
<path fill-rule="evenodd" clip-rule="evenodd" d="M20 0H589C600.046 0 609 8.954 609 20V174C609 185.046 600.046 194 589 194H20C8.954 194 0 185.046 0 174V20C0 8.954 8.954 0 20 0ZM96.451 115.4C96.451 120.2 96.226 125.675 96 129.35H104.494L105.095 120.35H105.396C109.38 127.55 115.694 130.55 123.511 130.55C135.613 130.55 147.79 120.95 147.79 101.6C147.94 85.175 138.394 74 124.939 74C116.22 74 109.906 77.975 106.448 83.975H106.223V50H96.451V115.4ZM106.674 111.275C106.448 110.15 106.223 108.875 106.223 107.675V98C106.223 96.5445 106.479 95.2811 106.696 94.2099C106.714 94.122 106.732 94.0353 106.749 93.95C108.778 86.45 115.092 81.875 121.782 81.875C132.305 81.875 137.943 91.1 137.943 101.975C137.943 114.35 131.779 122.75 121.482 122.75C114.266 122.75 108.553 118.1 106.674 111.275ZM189.507 122.525L190.259 129.35L199.204 129.425C198.527 125.75 198.302 121.175 198.302 116.45V96.2C198.302 85.4 194.318 74.075 177.706 74.075C170.866 74.075 164.402 75.95 159.892 78.875L162.147 85.325C165.98 82.85 171.242 81.275 176.278 81.275C187.403 81.275 188.605 89.3 188.605 93.8V94.925C167.634 94.775 155.983 101.975 155.983 115.025C155.983 122.825 161.621 130.55 172.595 130.55C180.337 130.55 186.2 126.8 189.207 122.525H189.507ZM165.83 113.9C165.83 103.4 178.007 101.525 188.756 101.75V111.05C188.756 112.1 188.53 113.225 188.229 114.2C186.651 118.775 182.216 123.275 175.151 123.275C170.114 123.275 165.83 120.275 165.83 113.9ZM224.084 50H214.237V129.35H224.084V50ZM252.347 123.2C247.386 123.2 242.274 121.175 239.343 119.3L236.712 126.725C240.545 128.975 246.033 130.4 251.971 130.4C264.9 130.4 272.266 123.725 272.266 114.2C272.266 106.1 267.455 101.45 258.059 97.85C250.994 95.15 247.761 93.2 247.761 88.7C247.761 84.725 251.069 81.35 256.857 81.35C261.968 81.35 265.877 83.15 267.981 84.5L270.462 77.375C267.455 75.575 262.644 74 257.157 74C245.506 74 238.441 81.2 238.441 89.9C238.441 96.35 243.026 101.75 252.798 105.2C260.089 107.9 262.87 110.45 262.87 115.175C262.87 119.6 259.487 123.2 252.347 123.2ZM314.284 122.525L315.036 129.35L323.98 129.425C323.304 125.75 323.079 121.175 323.079 116.45V96.2C323.079 85.4 319.095 74.075 302.483 74.075C295.643 74.075 289.178 75.95 284.668 78.875L286.923 85.325C290.757 82.85 296.018 81.275 301.055 81.275C312.179 81.275 313.382 89.3 313.382 93.8V94.925C292.411 94.775 280.76 101.975 280.76 115.025C280.76 122.825 286.397 130.55 297.371 130.55C305.114 130.55 310.977 126.8 313.983 122.525H314.284ZM290.682 113.9C290.682 103.4 302.859 101.525 313.607 101.75V111.05C313.607 112.1 313.382 113.225 313.081 114.2C311.503 118.775 307.068 123.275 300.002 123.275C294.966 123.275 290.682 120.275 290.682 113.9ZM338.563 75.275C338.939 79.7 339.014 84.275 339.014 89.9V129.425H348.861V96.8C348.861 95.15 349.086 93.425 349.612 92C351.116 87.125 355.626 82.175 361.789 82.175C369.306 82.175 373.14 88.4 373.14 97.025V129.425H382.761V95.975C382.761 94.175 383.061 92.375 383.512 91.025C385.166 86.225 389.526 82.1 395.163 82.1C403.056 82.1 406.889 88.325 406.889 98.75V129.35H416.511V97.475C416.511 78.725 405.837 74 398.696 74C393.51 74 389.902 75.35 386.67 77.825C384.415 79.55 382.235 81.875 380.581 84.875H380.355C378.025 78.5 372.388 74 365.021 74C356.077 74 351.04 78.8 348.034 83.975H347.658L347.207 75.275H338.563ZM437.257 66.05C441.165 66.05 443.571 63.425 443.495 60.05C443.495 56.6 441.09 53.9 437.482 53.9C433.874 53.9 431.319 56.6 431.319 60.05C431.319 63.35 433.799 66.05 437.257 66.05ZM432.446 75.275V129.35H442.293V75.275H432.446ZM495.436 121.025H495.661L495.736 151.475H505.583V90.125C505.583 84.575 505.658 79.85 505.884 75.275H496.488L496.187 83.45H495.962C493.256 78.2 487.693 74.075 479.275 74.075C467.849 74.075 454.77 83 454.77 103.25C454.77 119.675 465.143 130.625 477.771 130.625C486.491 130.625 492.504 126.425 495.436 121.025ZM495.21 93.05C495.586 94.25 495.661 95.825 495.661 97.175H495.586V107.3C495.586 108.8 495.285 110.675 494.834 112.025C492.579 118.85 487.092 122.75 480.703 122.75C469.879 122.75 464.692 113.375 464.692 102.65C464.692 90.5 470.856 81.875 481.079 81.875C488.52 81.875 493.782 87.05 495.21 93.05ZM534.447 98.525C541.513 98.525 547 93.05 547 86.15C547 79.4 541.513 73.925 534.447 73.925C527.457 73.925 521.819 79.4 521.819 86.15C521.819 93.05 527.457 98.525 534.447 98.525ZM534.522 95.9C529.035 95.9 524.976 91.625 524.976 86.15C524.976 80.825 529.035 76.4 534.447 76.4C539.859 76.4 543.843 80.75 543.843 86.225C543.843 91.55 539.934 95.9 534.522 95.9ZM529.637 92.6H532.493V87.725H533.846C535.424 87.725 536.176 88.325 536.402 89.675C536.471 89.9384 536.535 90.1915 536.596 90.432C536.866 91.4928 537.073 92.3082 537.379 92.675H540.46C540.16 92.225 539.934 91.475 539.558 89.6C539.183 87.95 538.506 87.05 537.303 86.6V86.45C538.807 86 539.859 84.95 539.859 83.6C539.859 82.4 539.333 81.425 538.657 80.9C537.755 80.375 536.702 80 534.372 80C532.343 80 530.764 80.15 529.637 80.375V92.6ZM533.921 85.625H532.568V82.1C532.869 82.025 533.395 81.95 534.147 81.95C535.951 81.95 536.777 82.7 536.777 83.825C536.777 85.1 535.499 85.625 533.921 85.625Z" fill="white"/>
</g>
<defs>
<clipPath id="clip0_328_10">
<rect width="609" height="194" fill="white"/>
</clipPath>
</defs>
</svg>
