<svg width="1077" height="188" viewBox="0 0 1077 188" fill="none" xmlns="http://www.w3.org/2000/svg">
<g clip-path="url(#clip0_328_3)">
<path d="M524.545 117.536C523.518 119.82 518.154 130.165 504.719 130.165C489.161 130.165 483.093 117.259 483.093 107.668C483.093 91.8122 493.77 77.5646 509.488 77.5646C526.407 77.5646 530.439 90.1661 530.829 92.45H555.709C557.2 83.1454 549.82 54.6971 510.445 54.6971C481.644 54.6971 458.601 77.7053 458.601 108.456C458.601 133.617 474.324 153.019 503.462 153.019C539.78 153.019 549.585 124.528 550.786 117.536H524.545ZM333.588 124.467C333.588 123.013 333.972 120.265 335.252 114.487C336.49 108.695 354.07 27.698 354.07 27.698H330.718L311.342 117.048C310.576 120.575 310.185 124.174 310.175 127.783C310.175 147.377 325.33 153.136 337.461 153.136C341.803 153.136 345.831 152.414 346.839 152.282C347.224 150.322 350.886 133.5 351.064 132.764C350.539 132.801 347.965 132.993 344.978 132.993C336.298 132.998 333.588 129.312 333.588 124.467ZM632.663 55.0067L590.827 92.6845L604.927 27.5057H581.406L554.701 151.162H578.203L584.698 121.114L599.159 109.601L619.154 151.162H645.319L616.945 95.4984L665.239 55.0067H632.663ZM205.222 112.94C207.177 104.076 223.744 27.5432 223.744 27.5432H268.239C300.524 27.5432 308.468 45.4911 308.468 56.3808C308.468 80.4723 285.716 86.8504 282.931 87.7227C285.524 88.5762 300.29 94.4291 300.29 113.348C300.29 133.931 281.318 151.176 251.902 151.176H238.487C213.784 151.18 200.518 134.217 205.222 112.94ZM274.889 111.425C274.889 105.614 271.147 98.2419 254.533 98.2419H232.958L226.496 128.149H250.922C266.73 128.149 274.889 121.025 274.889 111.425ZM282.893 61.6005C282.893 55.5882 278.317 50.4153 267.109 50.4153H243.302L237.905 75.3791H262.711C276.07 75.3745 282.893 68.926 282.893 61.6005ZM654.524 112.94C656.484 104.076 673.046 27.5432 673.046 27.5432H717.561C749.846 27.5432 757.794 45.4911 757.794 56.3808C757.794 80.4723 735.042 86.8504 732.252 87.7227C734.808 88.5762 749.616 94.4291 749.616 113.348C749.616 133.931 730.62 151.176 701.205 151.176H687.799C663.087 151.18 649.816 134.217 654.524 112.94ZM724.191 111.425C724.191 105.614 720.445 98.2419 703.84 98.2419H682.251L675.794 128.149H700.23C716.032 128.149 724.191 121.025 724.191 111.425ZM732.191 61.6005C732.191 55.5882 727.633 50.4153 716.398 50.4153H692.6L687.212 75.3791H712.023C725.373 75.3745 732.191 68.926 732.191 61.6005ZM919.261 55.0629C894.343 55.0629 877.396 69.8124 871.685 97.4915C867.897 115.408 864.066 133.315 860.191 151.213H883.529C883.529 151.213 892.129 111.444 894.849 98.9454C898.413 82.5639 907.074 77.0018 918.717 77.0018C922.482 77.0018 924.879 77.4286 926.102 77.6021C926.745 74.3052 929.999 59.5182 930.778 55.893C926.961 55.3606 923.114 55.0833 919.261 55.0629ZM998.672 188L1077 55.0629H1051.79L1015.8 117.625L1007.39 54.9879H980.417C949.525 54.9879 933.516 69.1183 927.837 96.155C924.991 109.648 915.941 151.213 915.941 151.213H939.288C939.288 151.213 947.855 111.734 951.265 95.8032C954.561 80.3363 966.031 75.6089 978.401 78.2446L983.32 55.5507C986.963 77.105 998.105 145.965 998.105 145.965L973.665 188H998.672ZM401.004 110.206C406.143 109.446 421.182 107.124 423.231 106.834C422.846 108.438 422.241 111.003 421.796 112.898C419.081 124.524 407.241 131.99 394.181 131.99C385.849 131.99 380.981 127.506 380.981 122.179C380.986 117.78 385.019 112.569 401.004 110.206ZM392.268 85.1668C392.845 84.2147 398.852 74.9524 413.815 74.9524C423.118 74.9524 427.887 78.3478 427.887 82.4561C427.887 88.2526 418.509 89.7628 402.265 92.0889C374.36 96.1221 356.724 104.784 356.724 124.941C356.724 139.226 368.583 153.145 389.647 153.145C407.147 153.145 416.295 142.579 417.107 141.768C417.186 144.305 417.515 148.104 417.787 151.166H441.917C441.082 146.997 439.357 138.992 442.222 126.184C444.964 113.93 447.612 101.654 450.165 89.3594C454.297 69.123 443.193 54.8191 414.739 54.8191C378.154 54.8191 367.612 81.1195 365.906 85.1714L392.268 85.1668ZM825.853 122.357C824.999 124.237 819.321 132.163 806.627 132.163C788.349 132.163 784.189 116.663 784.611 112.414H855.812C856.22 110.675 857.828 104.334 857.828 97.8245C857.828 75.2994 842.56 54.7018 811.766 54.7018C783.608 54.7018 761.015 78.3853 761.015 106.51C761.015 133.72 777.352 153.023 806.242 153.023C841.941 153.023 851.559 125.058 852.482 122.362L825.853 122.357ZM812.015 76.0545C827.733 76.0545 833.74 85.6498 833.097 93.3458H788.138C789.3 88.459 796.798 76.0545 812.015 76.0545ZM57.5221 13.4316C57.5221 7.50368 53.8927 0 38.6388 0H15.1507L8.47334 30.8964H32.9602C52.078 30.8964 57.5221 21.8451 57.5221 13.4316ZM120.793 13.4316C120.793 7.50368 117.173 0 101.924 0H78.4311L71.7584 30.8917H96.2312C115.358 30.8964 120.793 21.8451 120.793 13.4316ZM49.0488 59.9309C49.0488 54.003 45.4193 46.4806 30.1655 46.4806H6.67738L0 77.3958H24.4775C43.5999 77.3958 49.0488 68.321 49.0488 59.9309ZM112.32 59.9309C112.32 54.003 108.686 46.4806 93.4459 46.4806H69.9578L63.271 77.3958H87.7579C106.885 77.3958 112.32 68.321 112.32 59.9309ZM178.517 41.0733C178.517 35.1407 174.883 27.6229 159.643 27.6229H136.155L129.468 58.5334H153.946C173.073 58.5334 178.517 49.4821 178.517 41.0733ZM169.392 89.4861C169.392 83.5535 165.767 76.0545 150.518 76.0545H127.03L120.352 106.951H144.83C163.952 106.951 169.392 97.8761 169.392 89.4861ZM103.227 108.348C103.227 102.392 99.6074 94.8746 84.3676 94.8746H60.8655L54.1881 125.785H78.6656C97.7927 125.79 103.227 116.738 103.227 108.348Z" fill="white"/>
</g>
<defs>
<clipPath id="clip0_328_3">
<rect width="1077" height="188" fill="white"/>
</clipPath>
</defs>
</svg>
