<svg width="652" height="652" viewBox="0 0 652 652" fill="none" xmlns="http://www.w3.org/2000/svg">
<g clip-path="url(#clip0_328_5)">
<mask id="mask0_328_5" style="mask-type:alpha" maskUnits="userSpaceOnUse" x="0" y="35" width="654" height="573">
<path d="M623.6 127.5H409L419.8 99.3001L389.8 106.5L380 88.2001L361.8 109.6L373.2 56.3001L347.2 72.0001L327.6 35.1001L308.2 72.0001L282 56.5001L293.2 109.4L275.1 88.1001L265.1 106.5L235.2 98.8001C235.2 98.8001 242.2 117.3 246 127.4H30.4C13.9 127.4 0.5 141.1 0.5 158C0.5 164.1 2.3 170 5.9 175.4L303 594.8C308.6 602.8 317.9 607.5 327.8 607.5C337.6 607.5 346.7 602.9 352.8 594.8L648.7 174.1C651.8 169.4 653.4 163.9 653.4 158.1C653.5 143 642.3 127.5 623.6 127.5Z" fill="white"/>
</mask>
<g mask="url(#mask0_328_5)">
<path d="M623.6 144.6H417L419.2 146.9L376.6 180.6C376.6 180.7 390.2 204.6 390.2 204.6L338.8 196.1V213.6L316.2 213.4V196.1L264.9 204.6L278.2 181.1C278.3 180.9 278.3 180.8 278.4 180.6L235.8 146.8L238 144.5H30.4002C22.7002 144.5 17.7002 151.1 17.7002 158C17.7002 160.5 18.4002 163.2 20.0002 165.6L317 584.9C319.6 588.6 323.8 590.3 327.9 590.3C332 590.3 336.1 588.5 338.9 584.9L634.5 164.5C635.8 162.6 636.3 160.1 636.3 157.9C636.3 151.7 631.9 144.6 623.6 144.6Z" fill="white"/>
</g>
<path d="M623.6 127.4H409L419.8 99.2L389.8 106.4L380 88.1L361.8 109.5L373.2 56.2L347.2 71.9L327.7 35L308.2 71.9L282.1 56.3L293.3 109.2L275.2 87.9L265.1 106.6L235.2 98.9C235.2 98.9 242.2 117.4 246 127.5H30.4C13.9 127.5 0.5 141.2 0.5 158.1C0.5 164.2 2.3 170.1 5.9 175.5L303 594.8C308.6 602.8 317.9 607.5 327.8 607.5C337.6 607.5 346.7 602.9 352.8 594.8L648.7 174.1C651.8 169.4 653.4 163.9 653.4 158.1C653.5 143 642.3 127.5 623.6 127.4ZM264.2 113C267.2 114 269.9 111.9 271.1 109.7L276.5 99.6L295.7 122.3C299.7 126.4 302.9 124.6 301.8 118.4L291.5 69.7L305.7 78.2C308.4 79.7 311.9 79.2 313.1 76.6L327.6 49.1L342.1 76.5C343.4 79.1 346.7 79.9 349.4 78.3L363.7 69.7L353.2 118.4C352.1 124.6 355.5 126.3 359.5 122.2L378.6 99.8L384.2 110.3C385.5 112.6 388.1 113.8 391.2 112.9L409.2 108.5L400.6 130.8C399.2 134.1 400 136.9 402.1 138.5L409.4 146.2L372.2 175.5C369.1 177.3 369.2 181.2 370.9 184.1L377.7 195.9L335.8 189C332.9 188.5 332.1 189.5 332.1 192V207.1L322.5 207V192C322.6 189.7 322 188.6 319.2 189L277 196L283.6 184.2C285.3 181.3 285.3 177.3 282.2 175.5L245.2 146.2L252.6 138.5C254.8 136.9 255.2 133.6 253.9 130.4L245.5 108.3L264.2 113ZM641.7 169.4L346 589.9C341.6 595.7 335.1 598.9 327.9 598.9C320.7 598.9 314 595.6 309.9 589.9L12.9 170.4C10.4 166.6 9.1 162.3 9.1 157.9C9.1 145.8 18.7 135.8 30.5 135.8H246.3L235.8 146.7L278.4 180.5C278.3 180.6 278.3 180.7 278.2 181L264.9 204.5L316.2 196V213.4L338.8 213.6V196.1L390.2 204.6C390.2 204.6 376.6 180.7 376.6 180.6L419.2 146.9L408.6 136H623.5C636.9 136 644.9 147.2 644.9 158.1C645 162.2 643.9 166.1 641.7 169.4Z" fill="white"/>
</g>
<defs>
<clipPath id="clip0_328_5">
<rect width="652" height="652" fill="white"/>
</clipPath>
</defs>
</svg>
