<svg xmlns="http://www.w3.org/2000/svg" xml:space="preserve" viewBox="0 0 1224.96 1001.973"><path fill="#211d1d" d="m189.245 627.301-34.326.1-4.834-30.67c-4.55-4.52-10.284-8.09-17.195-10.708-6.915-2.612-15.067-3.91-24.45-3.883-20.038.06-35.44 7.383-46.205 21.968-10.767 14.585-16.114 33.583-16.046 56.992l.024 8.07c.07 23.409 5.504 42.429 16.304 57.051 10.8 14.634 26.006 21.914 45.623 21.854 9.068-.022 17.368-1.367 24.901-4.026 7.531-2.653 13.348-6.258 17.447-10.808l4.656-30.702 34.325-.1.135 45.554c-9.25 10.787-21.061 19.384-35.436 25.81-14.377 6.42-30.476 9.662-48.298 9.717-30.897.092-56.24-10.539-76.023-31.89C10.066 730.28.122 702.842.025 669.305l-.024-7.75c-.097-33.429 9.63-60.929 29.179-82.5 19.551-21.571 44.88-32.402 75.99-32.494 17.82-.053 33.913 3.14 48.274 9.587 14.359 6.442 26.25 14.974 35.667 25.598l.134 45.556m86.258 122.478c6.768-.021 12.92-1.497 18.449-4.436 5.53-2.944 9.827-6.623 12.89-11.044l-.075-25.387-22.926.068c-9.537.032-16.761 2.287-21.673 6.755-4.91 4.477-7.356 9.85-7.337 16.105.017 5.644 1.849 10.044 5.502 13.214 3.648 3.169 8.707 4.746 15.17 4.725zm39.014 29.887a80.313 80.313 0 0 1-3.257-8.531 67.046 67.046 0 0 1-2.181-8.841c-5.316 6.17-11.79 11.169-19.419 14.985-7.63 3.81-16.368 5.74-26.215 5.772-16.308.047-29.272-4.352-38.888-13.193-9.618-8.847-14.446-20.91-14.494-36.195-.044-15.59 6.176-27.657 18.665-36.21 12.488-8.551 30.836-12.86 55.043-12.935l22.925-.068-.05-16.31c-.023-8-2.35-14.197-6.978-18.594-4.628-4.396-11.456-6.583-20.48-6.558-5.13.016-9.693.624-13.69 1.815-3.998 1.19-7.225 2.612-9.68 4.26l-2.873 17.855-33.846.1.044-36.928c8.189-5.56 17.588-10.258 28.192-14.084 10.604-3.823 22.162-5.758 34.677-5.795 20.617-.06 37.375 4.944 50.279 15.004 12.901 10.068 19.382 24.436 19.437 43.104l.203 68.772c.008 2.564.038 4.977.1 7.232.054 2.255.241 4.41.557 6.46l13.697 1.808.082 26.923-51.85.152m67.507-27.132 21.527-4.684-.306-103.234-23.86-4.546-.081-27.078L445 612.8l2.072 24.301c3.87-8.625 8.88-15.359 15.019-20.199 6.14-4.838 13.261-7.269 21.364-7.293 2.36-.008 4.846.165 7.464.517 2.617.352 4.796.782 6.544 1.286l-4.65 40.942-18.465-.409c-6.564.021-11.997 1.321-16.296 3.897-4.303 2.579-7.575 6.226-9.816 10.954l.239 80.925 21.556 4.557.078 26.922-88.004.257-.081-26.921m121.239-180.093-.082-27.08 68.927-.202.619 202.207 21.708 4.556.078 26.923-88.312.257-.081-26.921 21.679-4.684-.523-170.512-24.013-4.544m180.12 71.204c-8.308.024-14.866 3.222-19.667 9.598-4.801 6.372-7.753 14.738-8.85 25.103l.463.765 55.08-.162-.01-4c-.028-9.535-2.282-17.147-6.759-22.826-4.479-5.68-11.233-8.506-20.257-8.478zm.001 138.154c-24.003.068-43.208-7.569-57.61-22.912-14.407-15.342-21.645-34.864-21.714-58.554l-.017-6.155c-.075-24.72 6.658-45.104 20.204-61.143 13.542-16.038 31.75-24.044 54.625-24.008 22.463-.068 39.917 6.652 52.37 20.155 12.449 13.501 18.711 31.793 18.78 54.872l.071 24.463-99.389.294-.308.92c.855 10.975 4.547 19.99 11.083 27.048 6.533 7.059 15.39 10.571 26.57 10.539 9.95-.032 18.204-1.05 24.762-3.075 6.56-2.018 13.729-5.193 21.513-9.524l12.237 27.658c-6.857 5.456-15.74 10.045-26.654 13.772-10.912 3.721-23.088 5.608-36.523 5.65m140.621-214.924.122 44.76 29.232-.086.094 31.538-29.232.087.25 84.78c.018 6.46 1.366 11.07 4.041 13.83 2.673 2.765 6.268 4.135 10.781 4.12 3.078-.005 5.771-.142 8.076-.405 2.31-.262 4.896-.709 7.766-1.334l3.942 32.457c-5.02 1.55-9.992 2.723-14.912 3.505-4.922.783-10.254 1.183-15.997 1.204-15.49.042-27.427-4.178-35.81-12.668-8.386-8.488-12.605-21.965-12.66-40.425l-.25-84.93-15.624.071-.095-31.54 15.626-.07-.122-44.759 44.772-.135m89.059 129.416c.045 15.18 2.747 27.359 8.108 36.52 5.361 9.167 13.99 13.73 25.89 13.692 11.59-.037 20.065-4.672 25.42-13.924 5.36-9.245 8.017-21.408 7.973-36.488l-.011-3.232c-.045-14.77-2.799-26.809-8.263-36.132-5.464-9.316-14.042-13.957-25.734-13.922-11.692.033-20.195 4.726-25.498 14.076-5.309 9.353-7.94 21.408-7.894 36.177zm-44.935-3.098c-.073-24.82 6.815-45.175 20.666-61.064 13.852-15.887 33.034-23.868 57.549-23.942 24.617-.072 43.897 7.771 57.844 23.522 13.945 15.757 20.955 36.098 21.028 61.018l.01 3.232c.074 25.031-6.817 45.435-20.667 61.224-13.852 15.78-32.986 23.712-57.395 23.786-24.72.073-44.052-7.743-57.997-23.443-13.947-15.71-20.956-36.073-21.03-61.101l-.008-3.232m168.578 57.337 21.526-4.684-.305-103.233-23.86-4.547-.081-27.077 65.696-.195 2.069 23.841c5.513-8.528 12.315-15.166 20.407-19.906 8.086-4.742 17.156-7.128 27.212-7.16 16.818-.05 29.962 5.196 39.432 15.732 9.465 10.536 14.236 27.088 14.301 49.656l.216 72.458 21.552 4.558.083 26.922-85.852.258-.082-26.923 19.219-4.677-.213-72.311c-.034-11.179-2.315-19.097-6.84-23.752-4.53-4.655-11.356-6.967-20.487-6.941-5.947.018-11.28 1.241-15.987 3.664-4.714 2.425-8.652 5.848-11.818 10.268l.262 89.234 18.171 4.567.079 26.923-84.619.246-.081-26.921m-800.919 91.729.044 15.054-13.336 2.61.192 65.01c.024 8.215 2.25 14.351 6.683 18.418 4.432 4.062 10.497 6.078 18.196 6.054 7.812-.02 13.936-2.06 18.373-6.127 4.436-4.056 6.643-10.226 6.617-18.496l-.192-65.01-13.266-2.527-.044-15.054 51.578-.15.044 15.053-13.334 2.605.192 65.01c.041 13.972-4.534 24.77-13.72 32.376-9.187 7.612-21.252 11.44-36.192 11.482-14.883.05-26.912-3.71-36.088-11.268-9.175-7.553-13.783-18.32-13.824-32.293l-.192-65.01-13.268-2.527-.043-15.054 13.259-.038 24.976-.074 13.345-.044m81.756 109.338 11.968-2.602-.17-57.393-13.266-2.527-.044-15.058 36.525-.107 1.152 13.256c3.064-4.744 6.844-8.43 11.343-11.07 4.497-2.64 9.54-3.963 15.13-3.978 9.35-.03 16.66 2.888 21.923 8.741 5.263 5.86 7.914 15.063 7.951 27.608l.119 40.29 11.982 2.527.044 14.971-47.729.14-.044-14.969 10.685-2.596-.12-40.201c-.017-6.215-1.286-10.618-3.802-13.208-2.518-2.582-6.314-3.873-11.388-3.858-3.308.01-6.272.692-8.891 2.042-2.619 1.343-4.81 3.248-6.57 5.706l.149 49.61 10.1 2.534.044 14.97-47.047.141-.044-14.97m148.544-100.175-24.979.072-.056-18.735 24.979-.073zm-36.744 99.844 12.053-2.6-.17-57.394-13.352-2.528-.043-15.057 38.321-.112.222 75.017 11.982 2.528.044 14.97-49.013.146-.044-14.97m92.468-62.814-8.721 1.651 12.354 41.367 1.652 8.717h.514l1.77-8.728 11.938-41.35-8.9-1.686-.044-15.057 41.998-.127.044 15.057-8.037 1.306-27.061 76.298-23.866.068-27.597-76.132-8.044-1.257-.044-15.057 42-.127.044 15.057m97.707 2.183c-4.62.014-8.264 1.792-10.934 5.332-2.67 3.545-4.31 8.196-4.92 13.957l.259.43 30.621-.088-.005-2.225c-.016-5.305-1.27-9.537-3.759-12.693-2.489-3.16-6.245-4.728-11.262-4.713zm2.452 76.804c-13.344.039-24.023-4.203-32.031-12.735-8.01-8.528-12.033-19.382-12.072-32.556l-.01-3.418c-.04-13.744 3.703-25.076 11.234-33.998 7.53-8.912 17.652-13.368 30.37-13.344 12.489-.039 22.194 3.696 29.117 11.202 6.921 7.509 10.402 17.677 10.44 30.51l.04 13.602-55.259.16-.17.512c.475 6.102 2.527 11.118 6.162 15.038 3.632 3.925 8.556 5.878 14.773 5.859 5.53-.02 10.12-.584 13.766-1.71 3.645-1.12 7.633-2.888 11.96-5.293l6.804 15.375c-3.812 3.033-8.752 5.585-14.819 7.66-6.067 2.07-12.836 3.117-20.305 3.136m47.009-16.919 11.968-2.6-.17-57.393-13.266-2.527-.044-15.058 36.525-.107 1.151 13.51c2.153-4.792 4.937-8.538 8.35-11.231 3.415-2.689 7.373-4.038 11.88-4.053 1.31-.003 2.694.094 4.147.288 1.456.2 2.667.434 3.639.717l-2.585 22.761-10.264-.228c-3.651.01-6.671.735-9.062 2.167-2.39 1.432-4.21 3.462-5.457 6.088l.133 44.993 11.983 2.532.044 14.97-48.928.142-.044-14.97m143.413-46.197-16.765.048-2.687-11.537c-1.714-1.363-3.87-2.498-6.468-3.404-2.598-.906-5.465-1.353-8.601-1.344-4.39.015-7.865 1.008-10.425 2.981-2.562 1.978-3.838 4.45-3.828 7.416.008 2.796 1.241 5.114 3.698 6.955 2.456 1.85 7.367 3.477 14.727 4.875 11.47 2.25 19.976 5.576 25.521 9.978 5.543 4.408 8.328 10.486 8.351 18.24.024 8.327-3.535 15.135-10.673 20.428-7.144 5.299-16.559 7.963-28.248 8.001-7.13.02-13.678-1.002-19.642-3.067-5.966-2.066-11.262-5.026-15.893-8.892l-.319-20.786 17.45-.049 3.458 12.053c1.486 1.247 3.514 2.168 6.082 2.762 2.568.584 5.248.881 8.042.872 5.076-.015 8.936-.935 11.583-2.771 2.645-1.836 3.964-4.315 3.955-7.452-.007-2.736-1.355-5.103-4.042-7.09-2.686-1.987-7.624-3.74-14.813-5.26-10.899-2.191-19.133-5.46-24.707-9.809-5.573-4.348-8.37-10.28-8.393-17.809-.023-7.753 3.15-14.45 9.521-20.088 6.37-5.634 15.459-8.47 27.263-8.504 7.185-.024 13.988.925 20.41 2.845 6.42 1.923 11.46 4.387 15.118 7.398l.325 23.01M863.13 850.2l-24.978.073-.056-18.734 24.979-.074zm-36.743 99.85 12.053-2.606-.17-57.394-13.351-2.526-.044-15.059 38.321-.112.221 75.018 11.983 2.532.044 14.97-49.013.147-.044-14.97m89.96-100.531.068 22.664 16.252-.048.052 17.536-16.254.05.14 47.131c.01 3.593.76 6.16 2.247 7.695 1.488 1.533 3.484 2.298 5.995 2.288 1.71-.004 3.208-.083 4.49-.224 1.283-.146 2.722-.395 4.319-.74l2.19 18.044a60.687 60.687 0 0 1-8.291 1.947c-2.736.434-5.7.658-8.894.667-8.612.025-15.248-2.322-19.909-7.041-4.663-4.72-7.008-12.215-7.039-22.476l-.14-47.219-8.613.044-.05-17.537 8.613-.044-.068-22.665 24.892-.072m124.4 37.357-8.636 1.305-33.778 90.172c-2.662 6.678-6.222 12.283-10.685 16.797-4.464 4.52-11.201 6.794-20.21 6.823-2.11.006-4.093-.161-5.947-.501-1.855-.336-4.038-.813-6.547-1.432l2.853-18.233c.799.117 1.627.224 2.483.34.855.108 1.595.166 2.223.166 4.162-.014 7.353-1.037 9.572-3.068 2.218-2.03 3.921-4.564 5.11-7.583l2.803-7.022-29.567-76.128-8.642-1.344-.044-15.059 45.334-.136.044 15.06-10.345 1.742 12.77 36.914 1.302 6.667.513.084 14.499-43.752-10.441-1.681-.044-15.058 45.336-.132.044 15.059"/><path fill="#fff" d="m797.139 138.497-73.344 79.096L755.5 79.236l-42.228 22.355-31.664-86.126-31.664 86.126-42.226-22.355 31.706 138.357-74.909-80.782-4.865 35.274-61.422-17.913 28.347 67-26.021 7.097 87.78 65.546c99.865-38.52 162.512-27.33 199.221-12.448-5.403 21.093-13.393 40.705-23.947 58.812a136.738 136.738 0 0 0-9.341-4.682c-12.757-5.784-28.087-10.476-46.527-13.212-7.093-1.052-14.665-1.801-22.702-2.226a277.29 277.29 0 0 0-6.842-.276 301.057 301.057 0 0 0-13.665-.068c-20.736.357-44.248 2.764-70.965 7.888-1.007.193-1.987.356-2.983.537a289.78 289.78 0 0 1-14.192 2.223c-67.072 8.772-108.472-11.088-133.296-33.74a237.227 237.227 0 0 1-6.623-22.576c24.887 25.968 68.743 48.721 141.432 23.592l-98.201-73.328 34.156-9.314-31.83-75.242 69.877 20.381 6.077-44.053 64.599 69.665-28.474-124.244 50.778 26.883L675.843 4.19c4.069.537 8.129 1.124 12.18 1.756l30.309 82.44 50.776-26.883-28.47 124.244 56.553-60.99-.052 13.74"/><path fill="#fff" d="M577.655 345.963c-69.178 5.529-108.175-13.764-130.172-37.658a251.998 251.998 0 0 0 12.27 25.858c.243.444.496.876.742 1.317 20.601 15.123 55.209 29.475 113.36 34.181 61.042 4.94 101.201 21.378 127.606 40.207 15.974-12.325 29.97-25.864 41.972-40.593-29.89-17.043-80.428-30.135-165.778-23.312"/><path fill="#211d1d" d="M460.495 335.48c33.017 59.697 86.07 93.519 147.386 120.192 3.642 1.584 7.604 1.667 11.226 0 17.98-8.332 37.953-16.633 54.801-26.899 9.752-5.95 18.935-12.254 27.553-18.905-26.405-18.83-66.564-35.267-127.606-40.207-58.151-4.706-92.759-19.058-113.36-34.181m133.072-7.877c-77.284 14.824-123.586-6.427-150.463-30.956a243.465 243.465 0 0 0 4.379 11.658c21.997 23.894 60.994 43.187 130.172 37.658 85.35-6.823 135.888 6.269 165.778 23.312a226.896 226.896 0 0 0 20.19-29.119c-32.719-17.964-85.459-28.779-170.056-12.553M769.108 61.504l-28.47 124.244 56.553-60.99c.074-27.713.029-55.427.293-83.129.061-5.04-1.132-7.858-6.44-9.669-33.71-11.564-68.003-20.548-103.021-26.013l30.309 82.44 50.776-26.883"/><path fill="#211d1d" d="m577.905 297.639-98.201-73.328 34.156-9.314-31.83-75.242 69.877 20.381 6.077-44.053 64.599 69.665-28.474-124.244 50.778 26.883L675.843 4.19a497.242 497.242 0 0 0-25.634-2.718c-72.722-5.76-143.181 5.658-211.87 29.542-6.646 2.324-8.928 5.286-8.847 12.342.392 31.167.37 93.542.37 93.542 0 28.1-.287 56.201.062 84.302.233 18.111 2.45 35.739 6.555 52.866 24.882 25.973 68.744 48.698 141.426 23.572"/><path fill="#e91d27" d="M787.572 281.373c4.65-18.177 7.379-37.45 8.101-57.846 1.01-28.327 1.336-56.676 1.466-85.03l-73.344 79.096L755.5 79.236l-42.228 22.355-31.664-86.126-31.664 86.126-42.226-22.355 31.706 138.357-74.909-80.782-4.865 35.274-61.422-17.913 28.347 67-26.021 7.097 87.78 65.546c99.878-38.526 162.529-27.327 199.237-12.442"/></svg>
