<svg width="1212" height="386" viewBox="0 0 1212 386" fill="none" xmlns="http://www.w3.org/2000/svg">
<path fill-rule="evenodd" clip-rule="evenodd" d="M283.349 0.489746C270.826 0.50071 258.82 5.48074 249.965 14.3366C241.11 23.1925 236.13 35.2004 236.119 47.7245C236.127 60.2485 241.106 72.257 249.962 81.1118C258.818 89.9666 270.827 94.9435 283.349 94.9489C295.873 94.9407 307.881 89.9616 316.737 81.1051C325.592 72.2487 330.571 60.2391 330.579 47.7142C330.563 35.1927 325.581 23.189 316.727 14.336C307.873 5.48292 295.869 0.503441 283.349 0.489746ZM505.247 112.091C430.246 112.091 373.172 177.762 371.972 251.197C371.609 274.251 376.536 295.896 385.241 313.949C335.703 328.4 326.108 304.654 324.431 259.934C322.392 206.064 322.164 129.886 322.164 129.886H242.92V286.455C242.92 318.918 250.807 369.29 306.959 379.3C341.944 385.542 376.102 378.647 421.789 357.944C443.66 373.596 472.797 383.823 504.915 383.823C549.299 383.823 585.444 364.279 612.304 346.298V296.807C578.923 318.297 530.016 333.835 499.74 311.693C530.678 290.192 560.229 264.375 579.637 233.403C610.585 184.036 590.412 112.091 505.247 112.091ZM141.669 119.534C63.5323 119.534 0 167.256 0 253.133C0 340.46 61.5243 385.117 134.879 385.117C156.129 385.117 189.345 380.863 208.628 371.215V303.929C191.932 310.399 172.338 312.987 156.875 312.987C125.191 312.987 87.9806 294.281 87.9806 254.758C87.9806 209.584 123.142 192.648 158.168 192.648C175.061 192.648 194.23 197.783 208.628 202.027V130.528C188.713 124.565 160.59 119.534 141.669 119.534ZM1030.54 120.186C993.529 120.28 959.299 129.7 926.384 140.559V204.284C954.848 193.704 989.254 188.756 1015.98 188.756C1050.21 188.756 1066.44 203.631 1066.44 229.852V234.045C1051.92 228.869 1029.07 224.345 1005.63 224.345C946.081 224.345 906.324 251.404 906.324 303.929V304.892C906.324 355.542 943.069 383.182 991.407 383.182C1024.68 383.182 1048.75 370.718 1066.12 351.474V377.685H1152.16V231.778C1152.16 196.116 1146.15 169.968 1126.93 151.221C1106.8 131.045 1076 120.073 1030.53 120.166L1030.54 120.186ZM801.203 120.497C765.99 120.497 743.053 140.403 726.813 161.262L723.252 165.796V127.298H638.18V377.685H723.252V240.525C723.252 211.902 739.896 195.878 762.719 195.878C785.149 195.878 800.23 212.027 800.23 240.525V377.685H885.623V212.058C885.623 155.268 853.888 120.497 801.203 120.497ZM510.091 182.938C531.765 183.352 546.328 204.501 520.773 236.964C508.994 251.881 491.584 266.28 470.955 279.665C442.18 226.85 477.869 189.574 500.713 184.232C502.349 183.849 503.974 183.435 505.568 183.259C507.058 183.104 508.652 182.907 510.091 182.938ZM1032.8 267.367C1045.97 267.367 1057.65 271.197 1067.41 275.462C1067.44 307.945 1049.2 327.531 1023.42 327.531C1005.15 327.531 992.049 317.065 992.049 299.716V298.753C992.049 280.017 1007.04 267.367 1032.8 267.367ZM1196.14 346.63C1187.61 346.63 1180.62 353.193 1180.62 362.157C1180.62 370.935 1187.61 377.685 1196.14 377.685C1204.68 377.685 1212 371.07 1212 362.157C1212 353.327 1204.68 346.63 1196.15 346.63H1196.14ZM1196.14 348.886C1203.43 348.886 1209.41 354.621 1209.41 362.157C1209.41 369.724 1203.43 375.407 1196.15 375.407C1188.84 375.407 1183.21 369.59 1183.21 362.157C1183.21 354.497 1188.84 348.886 1196.15 348.886H1196.14ZM1190.66 353.099V371.215H1192.91V363.451H1196.15L1201 371.215H1203.91L1198.73 363.451C1201.4 363.161 1203.6 361.826 1203.6 358.586C1203.6 355.004 1201.42 353.099 1197.12 353.099H1190.66ZM1192.91 355.356H1196.79C1198.73 355.356 1201 355.77 1201 358.275C1201 361.132 1198.67 361.174 1196.14 361.174H1192.91V355.356Z" fill="white"/>
</svg>
