<svg width="329" height="479" viewBox="0 0 329 479" fill="none" xmlns="http://www.w3.org/2000/svg">
<g clip-path="url(#clip0_328_64)">
<path d="M260.253 427.661H268.11V443.382H260.253V427.415V427.661ZM246.995 435.521H246.504L248.959 437.978C249.205 438.223 249.45 438.223 249.205 438.715V439.451L251.66 438.96L252.151 439.206V442.154H252.642V439.206H253.133L255.588 439.451V437.978L258.289 435.521H257.798C257.553 435.521 257.798 435.276 257.798 435.03L258.044 433.31L256.816 433.802H256.571L256.079 432.819L254.606 434.539L254.115 434.293L255.097 430.608L253.87 431.345H253.379L252.397 428.889L251.415 431.345H250.923L249.941 430.608L250.678 434.293C250.678 434.293 250.678 434.539 250.187 434.293L248.714 432.819L248.468 433.31C248.468 433.556 248.223 433.802 247.977 433.556L246.504 433.31L247.241 435.03L246.995 435.521ZM236.929 427.661H244.54V443.382H236.929V427.415V427.661Z" fill="white"/>
<path d="M269.829 474.578C269.338 475.806 268.111 476.298 267.374 476.298C266.392 476.298 263.691 476.298 263.691 468.928V454.19C263.691 449.277 260.008 445.592 250.678 445.592C240.858 445.592 240.612 450.505 240.612 451.733C240.612 452.962 241.103 454.681 243.804 454.681C246.014 454.681 246.505 452.225 246.996 451.242C246.996 450.014 247.241 447.066 251.415 447.066C254.852 447.066 256.816 450.014 257.062 454.436V456.892C256.816 458.366 256.08 459.348 254.607 459.84C252.888 460.822 247.732 461.559 247.241 461.559C244.786 462.05 239.139 463.524 239.139 469.665C239.384 475.806 245.277 477.771 249.696 477.771C253.625 477.526 256.08 475.806 257.062 475.069C257.799 474.578 257.799 474.578 258.044 475.069C258.781 475.806 260.499 477.526 265.41 477.526C270.32 477.526 270.811 475.315 271.057 474.578C271.057 474.332 270.075 473.841 269.829 474.578ZM251.169 476.298C246.996 476.298 245.768 472.613 245.768 470.893C245.768 469.174 246.75 465.981 250.924 463.524C250.924 463.524 252.888 462.296 256.571 460.822H257.062V467.946C257.062 472.859 254.607 476.298 251.169 476.298ZM237.175 476.052C236.684 476.052 233.001 476.298 233.001 464.998V429.135C233.001 428.643 233.001 427.415 231.528 427.415L220.725 427.906C219.988 427.906 219.497 428.889 220.725 428.889C221.707 428.889 226.372 429.135 226.372 437.241V448.786H225.635C223.138 446.951 220.14 445.922 217.042 445.838C209.922 445.838 201.328 450.751 201.328 461.559C201.328 472.613 209.185 478.017 217.533 478.017C221.461 478.017 224.408 476.298 225.39 475.561C226.617 475.069 226.372 475.069 226.617 476.298C226.617 477.035 226.617 478.508 228.827 478.263L237.42 477.28C238.402 476.789 238.157 476.052 237.42 476.052H237.175ZM218.761 476.543C212.131 476.543 208.694 468.683 208.694 461.068C208.694 452.962 213.359 447.312 218.269 447.558C224.653 448.049 226.372 453.207 226.372 462.296V464.261C226.372 473.35 222.689 476.543 218.761 476.543ZM201.083 474.578C200.592 475.806 199.364 476.298 198.628 476.298C197.646 476.298 194.945 476.298 194.945 468.928V454.19C194.945 449.277 191.508 445.592 182.178 445.592C172.111 445.592 171.866 450.505 171.866 451.733C171.866 452.962 172.602 454.681 175.058 454.681C177.513 454.681 178.004 452.225 178.249 451.242C178.495 450.014 178.74 447.066 182.669 447.066C186.106 447.066 188.316 450.014 188.316 454.436V456.155C188.316 458.366 187.579 459.103 185.861 460.085C184.142 460.822 178.74 461.559 178.249 461.805C176.04 462.296 170.393 463.77 170.393 469.911C170.393 475.806 176.531 478.017 180.705 477.771C184.878 477.771 187.334 476.052 188.07 475.315C188.807 474.578 188.807 474.578 189.298 475.315C189.789 475.806 191.753 477.771 196.663 477.771C201.328 477.771 201.819 475.561 202.311 474.824C202.311 474.332 201.574 473.841 201.083 474.578ZM182.669 476.298C178.249 476.298 177.267 472.613 177.267 470.893C177.267 469.174 178.249 465.981 182.423 463.524C182.423 463.524 184.387 462.296 188.07 460.822H188.316V461.559V461.314V467.7C188.316 472.613 185.861 476.052 182.669 476.052V476.298ZM168.183 476.052C166.955 475.806 164.991 474.332 164.991 467.7V455.664C164.991 452.962 164.991 445.592 153.943 445.592C148.05 445.592 144.858 448.54 144.367 448.786C144.122 449.277 143.631 449.277 143.631 448.786L142.894 446.329C142.894 446.084 142.649 445.592 141.421 445.838L132.582 447.312C131.6 447.312 131.846 448.049 132.582 448.049C133.319 448.049 137.002 448.54 137.002 454.681V467.7C137.002 475.069 135.528 475.806 134.055 476.052C132.337 476.543 133.319 477.28 134.055 477.28H147.313C148.296 477.28 148.787 476.298 146.822 476.052C145.104 475.806 143.385 474.578 143.385 468.683V460.577C143.385 457.383 142.649 447.803 151.487 447.558C157.625 447.558 158.116 452.47 158.116 455.909V468.683C158.116 473.841 156.643 475.561 154.925 476.052C153.206 476.052 153.452 477.035 154.434 477.035H168.428C169.165 477.035 169.902 476.543 167.937 476.052H168.183ZM131.846 474.578C131.109 475.806 129.881 476.298 129.39 476.298C128.408 476.298 125.708 476.298 125.708 468.928V454.19C125.708 449.277 122.025 445.592 112.695 445.592C102.874 445.592 102.383 450.505 102.383 451.733C102.383 452.962 103.119 454.681 105.575 454.681C108.03 454.681 108.521 452.225 108.766 451.242C109.012 450.014 109.258 447.066 113.186 447.066C116.869 447.066 118.833 450.014 119.078 454.436V456.892C118.587 458.366 117.851 459.348 116.623 459.84C114.659 460.822 109.258 461.559 108.766 461.559C106.802 462.05 100.91 463.524 100.91 469.665C101.155 475.806 107.048 477.771 111.467 477.771C115.396 477.526 117.851 475.806 118.833 475.069C119.324 474.578 119.324 474.578 119.815 475.069C120.552 475.806 122.27 477.526 127.181 477.526C132.091 477.526 132.582 475.315 132.828 474.578C133.073 474.332 132.091 473.841 131.846 474.578ZM112.94 476.298C108.766 476.298 107.784 472.613 107.784 470.893C107.784 469.174 108.766 465.981 112.695 463.524L118.587 460.822H118.833V467.946C118.833 472.859 116.378 476.298 112.94 476.298ZM98.7001 463.033C97.2269 467.946 94.2807 475.806 83.9687 476.052C73.1657 476.052 66.7822 468.683 66.2911 455.172C65.8001 440.434 72.1837 429.626 82.0045 429.135C92.8075 429.135 96.7359 442.153 96.7359 443.873C97.2269 445.592 99.1911 445.347 99.1911 443.873L97.9635 428.889C97.4725 427.169 96.2448 427.906 95.9993 428.398L95.5083 429.38C95.0172 430.608 93.2986 429.871 92.8075 429.871C90.8433 429.135 87.406 427.415 82.0045 427.415C69.2374 427.661 56.2247 437.241 56.4702 453.699C56.4353 457.008 57.0693 460.29 58.3341 463.349C59.5988 466.407 61.4684 469.178 63.8303 471.495C66.1923 473.812 68.998 475.628 72.0789 476.833C75.1599 478.038 78.4525 478.608 81.759 478.508C92.562 478.508 98.9456 471.63 100.664 463.77C101.155 461.559 99.1911 461.313 98.7001 463.033Z" fill="white"/>
<path d="M0 169.492H329V184.231H0V169.492Z" fill="white"/>
<path d="M20.0837 117.89C6.69785 104.493 0 88.2269 0 69.089C0 49.9511 6.6954 33.6823 20.0837 20.285C33.6047 6.7625 49.9294 0 69.0581 0C86.91 0 102.341 5.93223 115.349 17.7991C117.264 19.585 117.325 21.3708 115.54 23.1566L100.62 38.6565C98.9627 40.1893 97.3668 40.1893 95.8372 38.6565C88.4421 32.152 79.8341 28.8972 70.0132 28.8972C59.301 28.8972 50.3738 32.7906 43.234 40.5725C36.0918 48.2267 32.5219 57.4775 32.5219 68.3226C32.5219 79.0399 36.0918 88.2269 43.234 95.8835C50.5015 103.41 59.4925 107.173 70.2047 107.173C80.1508 107.173 88.695 104.11 95.8372 97.9862C97.6222 96.4559 99.2794 96.5197 100.812 98.1778L115.732 114.063C117.389 115.721 117.325 117.443 115.54 119.229C102.788 131.605 87.293 137.795 69.0581 137.795C49.9294 137.795 33.6047 131.16 20.0886 117.89H20.0837ZM174.453 137.795C163.614 137.795 154.561 136.198 147.291 133.01C140.149 129.819 134.858 126.5 131.413 123.056C129.756 121.398 129.501 119.485 130.65 117.316L139.449 101.816C140.213 100.666 141.234 100.027 142.509 99.8997C143.913 99.6443 145.06 99.8997 145.953 100.666C156.282 107.684 165.337 111.192 173.115 111.192C176.941 111.192 180.064 110.106 182.487 107.937C185.04 105.768 186.315 103.024 186.315 99.7081C186.315 95.8811 184.719 92.5649 181.532 89.7572C178.343 86.8218 173.371 83.6973 166.612 80.3787C160.874 77.5734 156.219 75.1465 152.646 73.1077C149.076 70.9387 145.315 68.131 141.362 64.6871C137.409 61.2408 134.411 57.3498 132.371 53.0118C130.456 48.546 129.501 43.5718 129.501 38.0842C129.501 27.7501 133.392 18.8186 141.17 11.2921C148.949 3.76322 159.786 0 173.69 0C187.972 0 201.618 4.78509 214.623 14.3528C215.645 14.9915 216.219 16.0133 216.347 17.4159C216.475 18.8186 216.283 19.8404 215.772 20.4766L206.015 35.2151C204.103 38.2758 201.299 38.7228 197.599 36.5538C187.655 29.6636 179.045 26.2197 171.777 26.2197C167.95 26.2197 165.018 27.2391 162.978 29.2804C161.063 31.3217 160.108 33.81 160.108 36.7454C160.108 39.6784 161.765 42.4861 165.082 45.166C168.396 47.8435 173.69 50.9705 180.957 54.5421C192.946 60.413 201.107 65.1317 205.443 68.7058C214.879 76.4877 219.598 86.3133 219.598 98.1778C219.598 108.642 215.389 117.89 206.973 125.928C198.684 133.838 187.844 137.795 174.453 137.795ZM242.171 132.243V5.55149C242.171 4.53208 242.49 3.70181 243.129 3.0656C243.473 2.70144 243.888 2.41158 244.348 2.21388C244.808 2.01617 245.304 1.9148 245.805 1.916H324.998C326.017 1.916 326.847 2.2992 327.485 3.0656C328.249 3.70427 328.632 4.53208 328.632 5.55149V26.4138C328.632 27.4332 328.249 28.3273 327.485 29.0913C326.847 29.7299 326.017 30.0493 324.998 30.0493H272.012V53.7782H315.624C316.518 53.7782 317.345 54.1638 318.111 54.9278C318.877 55.5665 319.258 56.3967 319.258 57.4161V78.276C319.258 79.2978 318.877 80.192 318.111 80.9559C317.473 81.5946 316.645 81.9139 315.624 81.9139H272.012V107.75H324.998C326.017 107.75 326.847 108.131 327.485 108.898C328.249 109.536 328.632 110.364 328.632 111.386V132.246C328.632 133.268 328.249 134.162 327.485 134.923C326.847 135.562 326.017 135.881 324.998 135.881H245.805C244.783 135.881 243.89 135.562 243.129 134.923C242.497 134.176 242.157 133.225 242.171 132.246V132.243ZM24.5498 328.98C11.4561 315.88 4.91045 299.974 4.91045 281.261C4.91045 262.548 11.4561 246.643 24.5498 233.543C37.7663 220.32 53.7277 213.708 72.4291 213.708C89.8858 213.708 104.973 219.51 117.694 231.111C119.562 232.855 119.626 234.604 117.88 236.351L103.291 251.507C101.671 253.005 100.112 253.005 98.6141 251.507C91.3834 245.145 82.9645 241.964 73.3646 241.964C62.8906 241.964 54.1622 245.769 47.1796 253.379C40.1969 260.863 36.7056 269.908 36.7056 280.512C36.7056 290.991 40.1969 299.974 47.1796 307.459C54.2875 314.821 63.0772 318.501 73.5511 318.501C83.2763 318.501 91.6314 315.506 98.6141 309.518C100.36 308.022 101.98 308.083 103.475 309.704L118.067 325.236C119.687 326.857 119.626 328.542 117.88 330.289C105.41 342.389 90.2589 348.442 72.4291 348.442C53.7252 348.442 37.7663 341.954 24.5498 328.98ZM175.49 348.442C164.89 348.442 156.037 346.882 148.931 343.762C141.949 340.643 136.773 337.4 133.407 334.032C131.787 332.409 131.536 330.539 132.658 328.417L141.261 313.261C142.01 312.138 143.007 311.515 144.257 311.389C145.627 311.139 146.749 311.389 147.62 312.138C157.721 318.999 166.575 322.431 174.181 322.431C177.92 322.431 180.977 321.37 183.346 319.247C185.838 317.127 187.086 314.445 187.086 311.203C187.086 307.459 185.527 304.217 182.411 301.47C179.293 298.601 174.431 295.545 167.822 292.303C162.209 289.557 157.657 287.186 154.168 285.192C150.677 283.069 146.999 280.326 143.132 276.958C139.268 273.59 136.336 269.785 134.342 265.543C132.472 261.175 131.536 256.312 131.536 250.947C131.536 240.841 135.339 232.109 142.946 224.749C150.552 217.387 161.151 213.708 174.738 213.708C188.704 213.708 202.048 218.385 214.766 227.741C215.763 228.365 216.325 229.362 216.448 230.738C216.573 232.109 216.386 233.106 215.888 233.73L206.349 248.139C204.478 251.134 201.733 251.571 198.119 249.448C188.392 242.713 179.975 239.345 172.87 239.345C169.128 239.345 166.26 240.343 164.264 242.34C162.396 244.334 161.46 246.766 161.46 249.638C161.46 252.507 163.081 255.25 166.322 257.869C169.563 260.49 174.738 263.546 181.846 267.039C193.567 272.777 201.549 277.395 205.787 280.888C215.016 288.498 219.63 298.103 219.63 309.704C219.63 319.935 215.515 328.98 207.285 336.838C199.18 344.573 188.581 348.442 175.49 348.442ZM262.088 343.013V243.086H235.343C234.386 243.101 233.456 242.769 232.723 242.153C232.106 241.42 231.775 240.49 231.79 239.532V219.134C231.79 218.137 232.1 217.326 232.723 216.702C233.06 216.346 233.466 216.062 233.917 215.869C234.367 215.676 234.853 215.577 235.343 215.579H318.389C319.385 215.579 320.196 215.953 320.819 216.702C321.568 217.326 321.941 218.137 321.941 219.134V239.532C321.941 240.529 321.568 241.404 320.819 242.15C320.196 242.774 319.385 243.086 318.389 243.086H291.641V343.013C291.641 343.888 291.266 344.698 290.519 345.447C289.77 346.194 288.96 346.57 288.086 346.57H265.643C264.769 346.57 263.959 346.194 263.21 345.447C262.463 344.698 262.088 343.888 262.088 343.013Z" fill="white"/>
</g>
<defs>
<clipPath id="clip0_328_64">
<rect width="329" height="479" fill="white"/>
</clipPath>
</defs>
</svg>
