<?xml version="1.0" encoding="UTF-8"?><svg id="Layer_2" xmlns="http://www.w3.org/2000/svg" xmlns:xlink="http://www.w3.org/1999/xlink" viewBox="0 0 91.42 62.64"><defs><style>.cls-1{fill:url(#linear-gradient-2);}.cls-2{fill:url(#linear-gradient-3);}.cls-3{fill:url(#linear-gradient);}.cls-4{fill:#231f20;}.cls-5{fill:url(#linear-gradient-4);}</style><linearGradient id="linear-gradient" x1="-.81" y1="-22.71" x2="62.68" y2="91.54" gradientUnits="userSpaceOnUse"><stop offset="0" stop-color="#4259a7"/><stop offset="1" stop-color="#6fcbd3"/></linearGradient><linearGradient id="linear-gradient-2" x1="17.36" y1="-26.42" x2="78.45" y2="83.51" xlink:href="#linear-gradient"/><linearGradient id="linear-gradient-3" x1="36.02" y1="-29.27" x2="91.7" y2="70.92" xlink:href="#linear-gradient"/><linearGradient id="linear-gradient-4" x1="-4.71" y1="-16.21" x2="56.29" y2="93.57" xlink:href="#linear-gradient"/></defs><g id="Orgs"><g><polyline class="cls-3" points="32.42 62.64 58.6 62.64 58.6 58.63 32.42 58.63"/><g><path class="cls-1" d="M91.42,22.09c-1.23,0-2.39-.25-3.45-.69-1.59-.66-2.94-1.77-3.89-3.16-.95-1.39-1.5-3.04-1.5-4.85v-.8c0-1.74-.36-3.4-1.01-4.91-.97-2.27-2.59-4.18-4.62-5.54C74.92,.79,72.46,0,69.84,0H21.58c-1.75,0-3.42,.35-4.95,.99-2.28,.95-4.23,2.54-5.6,4.55-1.38,2.01-2.19,4.45-2.19,7.06v.8c0,1.2-.25,2.34-.69,3.37-.67,1.55-1.79,2.89-3.2,3.83C3.54,21.54,1.85,22.09,0,22.09v5.01c1.9,0,3.73-.38,5.38-1.07,2.49-1.04,4.6-2.77,6.1-4.95,1.5-2.18,2.38-4.84,2.38-7.68v-.8c0-1.05,.21-2.04,.6-2.94,.58-1.35,1.56-2.52,2.79-3.34,1.24-.82,2.71-1.3,4.33-1.3h48.26c1.08,0,2.09,.21,3.02,.6,1.39,.58,2.57,1.55,3.4,2.76,.83,1.21,1.31,2.65,1.31,4.23v.8c0,1.89,.39,3.7,1.09,5.35,1.06,2.47,2.82,4.55,5.03,6.02,2.21,1.47,4.88,2.33,7.74,2.33v-5.01h0Z"/><path class="cls-2" d="M52.76,49.2h17.08c1.75,0,3.42-.35,4.95-.99,2.28-.95,4.23-2.54,5.6-4.55,1.38-2.01,2.19-4.45,2.19-7.06v-.8c0-1.2,.25-2.34,.69-3.37,.67-1.55,1.79-2.89,3.2-3.83,1.42-.94,3.11-1.49,4.96-1.49v-5.01c-1.9,0-3.73,.38-5.38,1.07-2.49,1.04-4.6,2.77-6.1,4.95-1.5,2.18-2.38,4.84-2.38,7.68v.8c0,1.05-.21,2.04-.6,2.94-.58,1.35-1.56,2.52-2.79,3.34-1.24,.82-2.71,1.3-4.33,1.3h-17.08v5.01h0Z"/><path class="cls-5" d="M0,27.1c1.23,0,2.4,.25,3.45,.69,1.59,.66,2.94,1.77,3.89,3.16,.95,1.39,1.5,3.04,1.5,4.85v.8c0,1.74,.36,3.4,1.01,4.92,.97,2.27,2.59,4.18,4.62,5.54,2.03,1.35,4.49,2.14,7.11,2.14h21.62v11.44h5.01v-16.45H21.58c-1.08,0-2.09-.21-3.02-.6-1.39-.58-2.57-1.55-3.4-2.76-.83-1.21-1.31-2.65-1.31-4.23v-.8c0-1.89-.39-3.7-1.09-5.35-1.06-2.47-2.82-4.55-5.03-6.02-2.21-1.47-4.88-2.33-7.74-2.33v5.01H0Z"/><g><path class="cls-4" d="M24.81,26.03l1.42,1.03-.09,.15c-.83,1.35-2.35,2.16-4.07,2.16h-.07c-1.31,0-2.6-.54-3.53-1.48-.91-.92-1.4-2.11-1.37-3.36-.03-1.24,.46-2.43,1.37-3.35,.93-.94,2.22-1.48,3.53-1.48h.08c1.7,0,3.22,.81,4.06,2.16l.1,.16-1.42,1.03-.12-.18c-.63-.97-1.51-1.46-2.61-1.46-1.75,0-3.08,1.34-3.08,3.12s1.32,3.12,3.08,3.12c1.1,0,1.98-.49,2.61-1.46l.12-.18Z"/><path class="cls-4" d="M33.74,26.59c0,1.64-1.33,2.79-3.24,2.79-1.54,0-2.85-.74-3.6-2.04l-.09-.15,1.34-1.01,.12,.17c.65,.93,1.33,1.34,2.22,1.34,.83,0,1.37-.41,1.37-1.05,0-.49-.24-.72-1.22-1.17l-1.01-.46c-1.11-.5-2.24-1.21-2.24-2.67s1.32-2.63,3.07-2.63c1.32,0,2.48,.64,3.11,1.7l.09,.15-1.33,1.01-.12-.18c-.45-.65-1.05-1-1.75-1-.57,0-1.18,.23-1.18,.89,.04,.52,.21,.63,1.03,1.03l.13,.07,1.01,.46c1.63,.74,2.29,1.53,2.29,2.73Z"/><path class="cls-4" d="M41.37,26.59c0,1.64-1.33,2.79-3.25,2.79-1.54,0-2.85-.74-3.6-2.04l-.09-.15,1.34-1.01,.12,.17c.65,.93,1.33,1.34,2.22,1.34,.83,0,1.37-.41,1.37-1.05,0-.49-.24-.72-1.22-1.17l-1.01-.46c-1.11-.5-2.24-1.21-2.24-2.67s1.32-2.63,3.07-2.63c1.32,0,2.48,.64,3.11,1.7l.09,.15-1.33,1.01-.12-.18c-.45-.65-1.05-1-1.75-1-.57,0-1.17,.23-1.17,.89,.04,.52,.21,.63,1.03,1.03l.13,.07,1.01,.46c1.63,.74,2.29,1.53,2.29,2.73Z"/><path class="cls-4" d="M46.77,19.72h-.76l-4.18,9.51h1.99l.65-1.49h3.82l.65,1.49h2.01l-4.18-9.51Zm-1.61,6.38l1.23-2.98,1.22,2.98h-2.45Z"/><rect class="cls-4" x="50.87" y="23.92" width="3.79" height="1.61"/><path class="cls-4" d="M59.52,19.72h-.76l-4.18,9.51h1.99l.65-1.49h3.82l.65,1.49h2.01l-4.18-9.51Zm-1.61,6.38l1.23-2.98,1.22,2.98h-2.45Z"/><polygon class="cls-4" points="71.18 27.55 71.18 29.23 64.64 29.23 64.64 19.87 71.01 19.87 71.01 21.56 66.5 21.56 66.5 23.46 69.9 23.46 69.9 25.11 66.5 25.11 66.5 27.55 71.18 27.55"/><rect class="cls-4" x="72.47" y="19.87" width="1.86" height="9.36"/></g></g></g></g></svg>