<svg width="1493" height="250" viewBox="0 0 1493 250" fill="none" xmlns="http://www.w3.org/2000/svg">
<mask id="mask0_328_442" style="mask-type:alpha" maskUnits="userSpaceOnUse" x="0" y="0" width="1493" height="250">
<path fill-rule="evenodd" clip-rule="evenodd" d="M125.833 250V201.591C177.541 201.591 217.294 150.806 197.567 96.7538C190.393 76.856 174.253 60.8184 154.228 53.6909C99.8303 34.0896 48.7194 73.886 48.7194 124.968H0C0 43.296 79.505 -20.5562 165.586 6.17276C203.246 17.7553 233.135 47.7513 245.091 85.1719C271.991 171.001 208.028 250 125.833 250Z" fill="#0069FF"/>
<path fill-rule="evenodd" clip-rule="evenodd" d="M125.825 201.887H77.4043V153.774H125.825V201.887Z" fill="#0069FF"/>
<path fill-rule="evenodd" clip-rule="evenodd" d="M77.4072 239.011H40.0459V201.887H77.4072V239.011Z" fill="#0069FF"/>
<path fill-rule="evenodd" clip-rule="evenodd" d="M40.0554 201.888H8.67188V171.001H39.7565V201.888H40.0554Z" fill="#0069FF"/>
<path fill-rule="evenodd" clip-rule="evenodd" d="M447.448 72.6978C433.101 62.8971 415.168 57.8481 394.246 57.8481H348.814V201.59H394.246C415.168 201.59 433.101 196.245 447.448 185.85C455.221 180.208 461.499 172.485 465.681 162.686C469.864 152.885 472.255 141.599 472.255 128.828C472.255 116.058 470.164 104.772 465.681 95.2692C461.499 85.4685 455.517 77.7464 447.448 72.6978ZM375.429 81.9052H389.776C405.617 81.9052 418.769 84.8752 428.631 91.1121C439.691 97.6454 445.369 110.416 445.369 128.532C445.369 147.243 439.691 160.311 428.631 167.438C419.067 173.675 406.215 176.942 390.075 176.942H375.728V81.9052H375.429Z" fill="#0069FF"/>
<path fill-rule="evenodd" clip-rule="evenodd" d="M504.245 55.769C499.762 55.769 496.172 57.2538 493.185 60.2234C490.198 63.1934 488.402 66.7572 488.402 71.212C488.402 75.6668 489.898 79.231 492.885 82.4975C495.876 85.4679 499.762 86.9523 504.245 86.9523C508.727 86.9523 512.314 85.4679 515.601 82.4975C518.592 79.5279 520.083 75.6668 520.083 71.212C520.083 66.7572 518.592 63.1934 515.601 60.2234C512.314 57.5507 508.427 55.769 504.245 55.769Z" fill="#0069FF"/>
<path d="M516.792 100.02H491.089V201.292H516.792V100.02Z" fill="#0069FF"/>
<path fill-rule="evenodd" clip-rule="evenodd" d="M609.726 108.632C601.957 101.802 593.288 97.9409 584.023 97.9409C569.976 97.9409 558.02 102.693 549.051 112.493C539.786 121.997 535.3 134.173 535.3 148.726C535.3 162.981 539.786 175.157 548.751 184.958C557.72 194.462 569.676 199.213 583.723 199.213C593.588 199.213 601.957 196.541 609.13 191.195V193.571C609.13 201.886 606.739 208.421 602.552 212.875C598.07 217.33 591.792 219.706 584.319 219.706C572.367 219.706 565.194 214.954 555.925 203.074L538.591 219.706L539.187 220.299C543.073 225.646 548.751 230.695 556.225 235.446C563.698 240.198 573.558 242.87 584.619 242.87C599.861 242.87 612.117 238.119 621.082 228.913C630.051 219.706 634.833 207.232 634.833 192.086V100.02H609.726V108.632ZM602.857 168.328C598.374 173.377 592.696 175.753 585.223 175.753C577.749 175.753 572.071 173.377 567.889 168.328C563.402 163.279 561.311 156.745 561.311 148.43C561.311 140.114 563.402 133.58 567.889 128.531C572.371 123.482 578.049 121.106 585.223 121.106C592.696 121.106 598.374 123.482 602.857 128.531C607.343 133.58 609.434 140.411 609.434 148.43C609.734 156.745 607.343 163.279 602.857 168.328Z" fill="#0069FF"/>
<path d="M682.365 100.02H656.662V201.292H682.365V100.02Z" fill="#0069FF"/>
<path fill-rule="evenodd" clip-rule="evenodd" d="M669.831 55.769C665.348 55.769 661.762 57.2538 658.771 60.2234C655.784 63.1934 653.988 66.7572 653.988 71.212C653.988 75.6668 655.484 79.231 658.471 82.4975C661.462 85.4679 665.348 86.9523 669.831 86.9523C674.313 86.9523 677.9 85.4679 681.187 82.4975C684.178 79.5279 685.673 75.6668 685.673 71.212C685.673 66.7572 684.178 63.1934 681.187 60.2234C677.9 57.5507 674.313 55.769 669.831 55.769Z" fill="#0069FF"/>
<path fill-rule="evenodd" clip-rule="evenodd" d="M738.566 72.6968H713.458V100.019H698.812V123.184H713.458V165.06C713.458 178.127 716.15 187.631 721.228 192.976C726.61 198.323 735.875 201.292 748.726 201.292C752.913 201.292 757.095 201.292 761.282 200.995H762.477V177.83L753.808 178.424C747.83 178.424 743.648 177.236 741.553 175.158C739.461 173.079 738.566 168.624 738.566 161.793V123.482H762.477V100.316H738.566V72.6968Z" fill="#0069FF"/>
<path fill-rule="evenodd" clip-rule="evenodd" d="M882.627 57.5503H908.33V201.293H882.627V57.5503Z" fill="#0069FF"/>
<path fill-rule="evenodd" clip-rule="evenodd" d="M1166.88 165.06C1162.39 170.109 1157.61 174.563 1154.02 176.939C1150.44 179.315 1145.95 180.207 1140.87 180.207C1133.4 180.207 1127.12 177.534 1122.34 171.891C1117.55 166.248 1114.87 159.12 1114.87 150.507C1114.87 141.895 1117.26 134.767 1122.04 129.125C1126.83 123.481 1133.1 120.809 1140.57 120.809C1148.94 120.809 1157.61 125.857 1165.08 134.767L1182.12 118.73C1171.06 104.474 1157.01 97.9409 1140.27 97.9409C1126.22 97.9409 1113.97 102.989 1104.11 113.087C1094.25 123.185 1089.16 135.658 1089.16 150.805C1089.16 165.951 1094.25 178.721 1104.11 188.522C1113.97 198.62 1126.22 203.668 1140.27 203.668C1158.8 203.668 1173.75 195.65 1183.91 181.097L1166.88 165.06Z" fill="#0069FF"/>
<path fill-rule="evenodd" clip-rule="evenodd" d="M1272.08 114.276C1268.5 109.228 1263.41 105.07 1257.44 102.1C1251.45 99.1302 1244.28 97.645 1236.21 97.645C1221.87 97.645 1210.2 102.991 1201.54 113.088C1192.87 123.483 1188.68 136.254 1188.68 151.103C1188.68 166.547 1193.47 179.02 1202.73 188.821C1212 198.324 1224.56 203.373 1239.8 203.373C1257.14 203.373 1271.18 196.542 1281.94 182.881L1282.54 182.287L1265.81 166.25C1264.31 168.031 1261.91 170.11 1260.12 172.189C1257.73 174.565 1255.34 176.347 1252.65 177.535C1248.77 179.317 1244.58 180.505 1239.8 180.505C1232.62 180.505 1226.95 178.426 1222.46 174.268C1218.28 170.407 1215.89 165.358 1215.29 158.824H1283.13L1283.44 149.618C1283.44 143.085 1282.54 136.847 1280.74 130.908C1278.36 124.672 1275.66 119.325 1272.08 114.276ZM1216.19 138.036C1217.39 133.285 1219.77 129.127 1222.77 126.156C1226.36 122.89 1230.83 121.108 1236.22 121.108C1242.5 121.108 1247.27 122.89 1250.56 126.454C1253.55 129.721 1255.35 133.582 1255.64 138.333H1216.19V138.036Z" fill="#0069FF"/>
<path fill-rule="evenodd" clip-rule="evenodd" d="M1370.43 107.742C1362.66 101.207 1351.9 97.9409 1338.45 97.9409C1329.78 97.9409 1322.01 99.723 1314.83 103.286C1308.26 106.553 1301.69 112.196 1297.5 119.62L1297.8 119.917L1314.24 135.658C1321.11 124.967 1328.58 121.106 1338.45 121.106C1343.83 121.106 1348.31 122.591 1351.6 125.264C1354.89 127.936 1356.67 131.5 1356.67 136.252V141.301C1350.4 139.519 1344.12 138.331 1337.85 138.331C1324.99 138.331 1314.83 141.301 1307.06 147.241C1299.29 153.181 1295.41 161.793 1295.41 172.484C1295.41 181.989 1298.69 189.71 1305.27 195.353C1311.85 200.995 1320.21 203.668 1330.08 203.668C1339.94 203.668 1348.91 199.807 1357.28 192.977V201.292H1382.39V136.252C1382.08 123.778 1378.19 114.275 1370.43 107.742ZM1324.99 162.683C1327.98 160.604 1331.87 159.713 1337.25 159.713C1343.52 159.713 1350.1 160.902 1356.67 163.277V173.078C1350.99 178.127 1343.52 180.799 1334.55 180.799C1330.07 180.799 1326.78 179.909 1324.39 177.83C1322 176.048 1320.81 173.672 1320.81 170.405C1320.81 167.139 1322 164.465 1324.99 162.683Z" fill="#0069FF"/>
<path fill-rule="evenodd" clip-rule="evenodd" d="M1480.71 109.525C1473.54 101.506 1463.67 97.645 1450.82 97.645C1440.66 97.645 1432.3 100.615 1426.31 106.258V100.021H1401.21V201.294H1426.91V145.46C1426.91 137.739 1428.71 131.799 1432.3 127.344C1435.87 122.89 1440.96 120.811 1447.54 120.811C1453.21 120.811 1457.7 122.593 1460.98 126.453C1464.27 130.314 1465.77 135.66 1465.77 142.49V200.997H1491.47V142.49C1491.47 128.531 1487.89 117.543 1480.71 109.525Z" fill="#0069FF"/>
<path fill-rule="evenodd" clip-rule="evenodd" d="M850.367 107.742C842.598 101.207 831.834 97.9409 818.391 97.9409C809.722 97.9409 801.953 99.723 794.775 103.286C788.201 106.553 781.624 112.196 777.441 119.62L777.737 119.917L794.175 135.658C801.053 124.967 808.526 121.106 818.391 121.106C823.769 121.106 828.247 122.591 831.538 125.264C834.829 127.936 836.62 131.5 836.62 136.252V141.301C830.342 139.519 824.065 138.331 817.787 138.331C804.94 138.331 794.775 141.301 787.006 147.241C779.232 153.181 775.346 161.793 775.346 172.484C775.346 181.989 778.632 189.71 785.21 195.353C791.784 200.995 800.153 203.668 810.018 203.668C819.882 203.668 828.851 199.807 837.22 192.977V201.292H862.319V136.252C862.023 123.778 858.137 114.275 850.367 107.742ZM804.931 162.683C807.922 160.604 811.809 159.713 817.187 159.713C823.465 159.713 830.038 160.902 836.612 163.277V173.078C830.938 178.127 823.465 180.799 814.496 180.799C810.009 180.799 806.727 179.909 804.335 177.83C801.944 176.048 800.749 173.672 800.749 170.405C800.749 167.139 801.944 164.465 804.931 162.683Z" fill="#0069FF"/>
<path fill-rule="evenodd" clip-rule="evenodd" d="M1000.99 203.372C960.045 203.372 926.568 170.108 926.568 129.421C926.568 88.7343 960.045 55.4712 1000.99 55.4712C1041.94 55.4712 1075.41 88.7343 1075.41 129.421C1075.41 170.108 1042.24 203.372 1000.99 203.372ZM1000.98 81.3107C974.383 81.3107 952.863 102.694 952.863 129.126C952.863 155.558 974.383 176.941 1000.98 176.941C1027.58 176.941 1049.1 155.558 1049.1 129.126C1049.1 102.694 1027.58 81.3107 1000.98 81.3107Z" fill="#0069FF"/>
</mask>
<g mask="url(#mask0_328_442)">
<rect x="-70" y="-98" width="1710" height="486" fill="white"/>
</g>
</svg>
