<svg width="3534" height="592" viewBox="0 0 3534 592" fill="none" xmlns="http://www.w3.org/2000/svg">
<path fill-rule="evenodd" clip-rule="evenodd" d="M297.853 592V477.367C420.248 477.367 514.345 357.109 467.65 229.113C450.67 181.995 412.466 144.018 365.064 127.14C236.303 80.7242 115.321 174.962 115.321 295.924H0C0 102.525 188.192 -48.677 391.95 14.6171C481.092 42.0446 551.842 113.075 580.142 201.687C643.815 404.93 492.412 592 297.853 592Z" fill="#0069FF"/>
<path fill-rule="evenodd" clip-rule="evenodd" d="M297.832 478.068H183.219V364.138H297.832V478.068Z" fill="#0069FF"/>
<path fill-rule="evenodd" clip-rule="evenodd" d="M183.226 565.978H94.79V478.069H183.226V565.978Z" fill="#0069FF"/>
<path fill-rule="evenodd" clip-rule="evenodd" d="M94.8127 478.071H20.5264V404.932H94.1052V478.071H94.8127Z" fill="#0069FF"/>
<path fill-rule="evenodd" clip-rule="evenodd" d="M1059.13 172.148C1025.17 148.94 982.724 136.984 933.2 136.984H825.661V477.365H933.2C982.724 477.365 1025.17 464.707 1059.13 440.093C1077.53 426.731 1092.39 408.445 1102.29 385.239C1112.19 362.031 1117.85 335.305 1117.85 305.065C1117.85 274.825 1112.9 248.1 1102.29 225.597C1092.39 202.389 1078.23 184.103 1059.13 172.148ZM888.659 193.951H922.619C960.116 193.951 991.247 200.984 1014.59 215.753C1040.77 231.224 1054.21 261.465 1054.21 304.364C1054.21 348.67 1040.77 379.615 1014.59 396.492C991.953 411.261 961.531 418.998 923.327 418.998H889.367V193.951H888.659Z" fill="#0069FF"/>
<path fill-rule="evenodd" clip-rule="evenodd" d="M1193.57 132.061C1182.96 132.061 1174.46 135.577 1167.39 142.609C1160.32 149.642 1156.07 158.081 1156.07 168.63C1156.07 179.179 1159.61 187.619 1166.68 195.354C1173.76 202.388 1182.96 205.903 1193.57 205.903C1204.18 205.903 1212.67 202.388 1220.45 195.354C1227.53 188.322 1231.06 179.179 1231.06 168.63C1231.06 158.081 1227.53 149.642 1220.45 142.609C1212.67 136.28 1203.47 132.061 1193.57 132.061Z" fill="#0069FF"/>
<path d="M1223.27 236.847H1162.43V476.66H1223.27V236.847Z" fill="#0069FF"/>
<path fill-rule="evenodd" clip-rule="evenodd" d="M1443.25 257.241C1424.86 241.067 1404.34 231.924 1382.41 231.924C1349.16 231.924 1320.86 243.176 1299.63 266.384C1277.7 288.889 1267.08 317.721 1267.08 352.183C1267.08 385.938 1277.7 414.772 1298.92 437.981C1320.15 460.486 1348.45 471.737 1381.7 471.737C1405.05 471.737 1424.86 465.409 1441.84 452.749V458.375C1441.84 478.066 1436.18 493.54 1426.27 504.088C1415.66 514.637 1400.8 520.263 1383.11 520.263C1354.82 520.263 1337.84 509.011 1315.9 480.88L1274.87 520.263L1276.28 521.669C1285.48 534.329 1298.92 546.285 1316.61 557.537C1334.3 568.788 1357.64 575.117 1383.82 575.117C1419.9 575.117 1448.91 563.866 1470.13 542.065C1491.36 520.263 1502.68 490.726 1502.68 454.86V236.847H1443.25V257.241ZM1426.99 398.6C1416.38 410.556 1402.94 416.182 1385.25 416.182C1367.56 416.182 1354.12 410.556 1344.22 398.6C1333.6 386.645 1328.65 371.173 1328.65 351.482C1328.65 331.789 1333.6 316.317 1344.22 304.362C1354.83 292.406 1368.27 286.78 1385.25 286.78C1402.94 286.78 1416.38 292.406 1426.99 304.362C1437.61 316.317 1442.56 332.494 1442.56 351.482C1443.27 371.173 1437.61 386.645 1426.99 398.6Z" fill="#0069FF"/>
<path d="M1615.19 236.847H1554.35V476.66H1615.19V236.847Z" fill="#0069FF"/>
<path fill-rule="evenodd" clip-rule="evenodd" d="M1585.52 132.061C1574.91 132.061 1566.42 135.577 1559.34 142.609C1552.27 149.642 1548.02 158.081 1548.02 168.63C1548.02 179.179 1551.56 187.619 1558.63 195.354C1565.71 202.388 1574.91 205.903 1585.52 205.903C1596.13 205.903 1604.62 202.388 1612.4 195.354C1619.48 188.322 1623.02 179.179 1623.02 168.63C1623.02 158.081 1619.48 149.642 1612.4 142.609C1604.62 136.28 1596.13 132.061 1585.52 132.061Z" fill="#0069FF"/>
<path fill-rule="evenodd" clip-rule="evenodd" d="M1748.22 172.146H1688.79V236.846H1654.12V291.7H1688.79V390.862C1688.79 421.805 1695.16 444.31 1707.18 456.968C1719.92 469.628 1741.85 476.66 1772.27 476.66C1782.18 476.66 1792.08 476.66 1801.99 475.957H1804.82V421.102L1784.3 422.508C1770.15 422.508 1760.25 419.696 1755.29 414.773C1750.34 409.851 1748.22 399.302 1748.22 383.125V292.405H1804.82V237.549H1748.22V172.146Z" fill="#0069FF"/>
<path fill-rule="evenodd" clip-rule="evenodd" d="M2089.22 136.279H2150.06V476.662H2089.22V136.279Z" fill="#0069FF"/>
<path fill-rule="evenodd" clip-rule="evenodd" d="M2762.05 390.863C2751.43 402.818 2740.11 413.366 2731.62 418.992C2723.14 424.618 2712.52 426.729 2700.49 426.729C2682.81 426.729 2667.95 420.4 2656.62 407.037C2645.3 393.675 2638.94 376.797 2638.94 356.401C2638.94 336.007 2644.6 319.129 2655.92 305.767C2667.25 292.404 2682.1 286.075 2699.79 286.075C2719.59 286.075 2740.11 298.03 2757.8 319.129L2798.13 281.152C2771.95 247.395 2738.7 231.924 2699.07 231.924C2665.82 231.924 2636.83 243.879 2613.48 267.79C2590.13 291.701 2578.1 321.238 2578.1 357.106C2578.1 392.972 2590.13 423.212 2613.48 446.42C2636.83 470.331 2665.82 482.286 2699.07 482.286C2742.94 482.286 2778.32 463.298 2802.37 428.838L2762.05 390.863Z" fill="#0069FF"/>
<path fill-rule="evenodd" clip-rule="evenodd" d="M3011.08 270.605C3002.59 258.651 2990.56 248.805 2976.41 241.773C2962.25 234.74 2945.27 231.223 2926.17 231.223C2892.22 231.223 2864.61 243.882 2844.11 267.793C2823.59 292.408 2813.67 322.648 2813.67 357.811C2813.67 394.382 2825 423.919 2846.92 447.127C2868.87 469.63 2898.58 481.587 2934.66 481.587C2975.7 481.587 3008.95 465.412 3034.41 433.061L3035.84 431.655L2996.22 393.679C2992.67 397.898 2987.01 402.821 2982.77 407.744C2977.11 413.37 2971.45 417.59 2965.08 420.402C2955.89 424.622 2945.99 427.436 2934.66 427.436C2917.68 427.436 2904.25 422.513 2893.62 412.667C2883.73 403.524 2878.06 391.568 2876.64 376.096H3037.24L3037.96 354.296C3037.96 338.824 3035.84 324.054 3031.58 309.99C3025.94 295.222 3019.55 282.562 3011.08 270.605ZM2878.79 326.87C2881.62 315.618 2887.26 305.772 2894.35 298.738C2902.84 291.004 2913.44 286.784 2926.19 286.784C2941.05 286.784 2952.35 291.004 2960.14 299.443C2967.21 307.178 2971.47 316.321 2972.17 327.573H2878.79V326.87Z" fill="#0069FF"/>
<path fill-rule="evenodd" clip-rule="evenodd" d="M3243.86 255.132C3225.47 239.659 3200.01 231.924 3168.17 231.924C3147.65 231.924 3129.26 236.144 3112.27 244.582C3096.71 252.318 3081.15 265.681 3071.23 283.261L3071.95 283.964L3110.86 321.238C3127.13 295.921 3144.82 286.778 3168.17 286.778C3180.9 286.778 3191.52 290.295 3199.29 296.624C3207.08 302.953 3211.31 311.392 3211.31 322.644V334.601C3196.46 330.381 3181.6 327.567 3166.74 327.567C3136.32 327.567 3112.27 334.601 3093.88 348.666C3075.49 362.732 3066.29 383.126 3066.29 408.443C3066.29 430.949 3074.06 449.234 3089.64 462.595C3105.2 475.957 3125 482.286 3148.35 482.286C3171.7 482.286 3192.92 473.143 3212.74 456.969V476.66H3272.17V322.644C3271.45 293.107 3262.25 270.604 3243.86 255.132ZM3136.3 385.233C3143.39 380.31 3152.59 378.201 3165.32 378.201C3180.17 378.201 3195.74 381.015 3211.3 386.641V409.849C3197.86 421.804 3180.17 428.133 3158.95 428.133C3148.33 428.133 3140.56 426.024 3134.9 421.101C3129.24 416.881 3126.41 411.255 3126.41 403.519C3126.41 395.784 3129.24 389.453 3136.3 385.233Z" fill="#0069FF"/>
<path fill-rule="evenodd" clip-rule="evenodd" d="M3504.91 259.354C3487.93 240.365 3464.58 231.223 3434.16 231.223C3410.11 231.223 3390.31 238.256 3376.15 251.619V236.85H3316.72V476.664H3377.56V344.45C3377.56 326.165 3381.82 312.099 3390.31 301.55C3398.78 291.002 3410.81 286.079 3426.39 286.079C3439.82 286.079 3450.44 290.299 3458.21 299.44C3466 308.582 3469.54 321.242 3469.54 337.416V475.961H3530.37V337.416C3530.37 304.362 3521.9 278.342 3504.91 259.354Z" fill="#0069FF"/>
<path fill-rule="evenodd" clip-rule="evenodd" d="M2012.86 255.132C1994.47 239.659 1968.99 231.924 1937.17 231.924C1916.65 231.924 1898.26 236.144 1881.27 244.582C1865.71 252.318 1850.14 265.681 1840.24 283.261L1840.94 283.964L1879.85 321.238C1896.13 295.921 1913.82 286.778 1937.17 286.778C1949.9 286.778 1960.5 290.295 1968.29 296.624C1976.08 302.953 1980.32 311.392 1980.32 322.644V334.601C1965.46 330.381 1950.6 327.567 1935.74 327.567C1905.33 327.567 1881.27 334.601 1862.88 348.666C1844.48 362.732 1835.28 383.126 1835.28 408.443C1835.28 430.949 1843.06 449.234 1858.63 462.595C1874.19 475.957 1894 482.286 1917.35 482.286C1940.7 482.286 1961.93 473.143 1981.74 456.969V476.66H2041.15V322.644C2040.45 293.107 2031.25 270.604 2012.86 255.132ZM1905.31 385.233C1912.39 380.31 1921.59 378.201 1934.32 378.201C1949.18 378.201 1964.74 381.015 1980.3 386.641V409.849C1966.87 421.804 1949.18 428.133 1927.95 428.133C1917.33 428.133 1909.56 426.024 1903.9 421.101C1898.24 416.881 1895.41 411.255 1895.41 403.519C1895.41 395.784 1898.24 389.453 1905.31 385.233Z" fill="#0069FF"/>
<path fill-rule="evenodd" clip-rule="evenodd" d="M2369.39 481.585C2272.47 481.585 2193.23 402.817 2193.23 306.469C2193.23 210.123 2272.47 131.356 2369.39 131.356C2466.33 131.356 2545.55 210.123 2545.55 306.469C2545.55 402.817 2467.03 481.585 2369.39 481.585ZM2369.37 192.544C2306.41 192.544 2255.47 243.179 2255.47 305.77C2255.47 368.361 2306.41 418.997 2369.37 418.997C2432.34 418.997 2483.27 368.361 2483.27 305.77C2483.27 243.179 2432.34 192.544 2369.37 192.544Z" fill="#0069FF"/>
</svg>
