<svg width="589" height="575" viewBox="0 0 589 575" fill="none" xmlns="http://www.w3.org/2000/svg">
<path fill-rule="evenodd" clip-rule="evenodd" d="M294.5 0C131.789 0 0 131.789 0 294.5C0 424.816 84.3006 534.886 201.364 573.907C216.089 576.484 221.611 567.649 221.611 559.918C221.611 552.924 221.243 529.732 221.243 505.068C147.25 518.688 128.107 487.029 122.217 470.464C118.904 461.997 104.548 435.86 92.0312 428.866C81.7237 423.344 66.9987 409.723 91.6631 409.355C114.855 408.987 131.421 430.706 136.943 439.541C163.448 484.084 205.782 471.568 222.716 463.838C225.293 444.695 233.023 431.811 241.49 424.448C175.964 417.086 107.493 391.685 107.493 279.039C107.493 247.012 118.904 220.507 137.679 199.892C134.734 192.529 124.426 162.343 140.624 121.849C140.624 121.849 165.288 114.119 221.611 152.036C245.171 145.409 270.204 142.096 295.236 142.096C320.269 142.096 345.301 145.409 368.861 152.036C425.184 113.751 449.849 121.849 449.849 121.849C466.046 162.343 455.739 192.529 452.794 199.892C471.568 220.507 482.98 246.644 482.98 279.039C482.98 392.053 414.141 417.086 348.614 424.448C359.29 433.651 368.493 451.321 368.493 478.931C368.493 518.32 368.125 549.979 368.125 559.918C368.125 567.649 373.647 576.852 388.372 573.907C504.699 534.886 589 424.448 589 294.5C589 131.789 457.211 0 294.5 0Z" fill="white"/>
</svg>
