<svg xmlns="http://www.w3.org/2000/svg" viewBox="0 0 374 116" style="enable-background:new 0 0 374 116" xml:space="preserve"><path d="M76.3 52H46c-.8 0-1.4.6-1.4 1.4v14.8c0 .8.6 1.4 1.4 1.4h11.8V88s-2.7.9-10 .9c-8.6 0-20.7-3.2-20.7-29.7 0-26.6 12.6-30.1 24.4-30.1 10.2 0 14.6 1.8 17.4 2.7.9.3 1.7-.6 1.7-1.4L74 16.1c0-.4-.1-.8-.5-1.1-1.1-.8-8.1-4.7-25.6-4.7C27.7 10.3 7 18.9 7 60.2s23.7 47.5 43.7 47.5c16.6 0 26.6-7.1 26.6-7.1.4-.2.5-.8.5-1.1V53.4c-.1-.8-.7-1.4-1.5-1.4zM232.3 15.2c0-.8-.6-1.4-1.4-1.4h-17c-.8 0-1.4.6-1.4 1.4v32.9h-26.6V15.2c0-.8-.6-1.4-1.4-1.4h-17c-.8 0-1.4.6-1.4 1.4v89.2c0 .8.6 1.4 1.4 1.4h17c.8 0 1.4-.6 1.4-1.4V66.3h26.6v38.1c0 .8.6 1.4 1.4 1.4H231c.8 0 1.4-.6 1.4-1.4V15.2zM108.4 27c0-6.1-4.9-11.1-11-11.1s-11 5-11 11.1 4.9 11.1 11 11.1 11-5 11-11.1zM107.2 85.6V44.4c0-.8-.6-1.4-1.4-1.4h-17c-.8 0-1.5.8-1.5 1.6v59c0 1.7 1.1 2.2 2.5 2.2h15.3c1.7 0 2.1-.8 2.1-2.3V85.6zM297 43.2h-16.9c-.8 0-1.4.6-1.4 1.4v43.7s-4.3 3.1-10.4 3.1c-6.1 0-7.7-2.8-7.7-8.7V44.6c0-.8-.6-1.4-1.4-1.4H242c-.8 0-1.4.6-1.4 1.4v41c0 17.7 9.9 22.1 23.5 22.1 11.2 0 20.1-6.2 20.1-6.2s.4 3.2.6 3.6c.2.4.7.8 1.2.8h10.9c.8 0 1.4-.6 1.4-1.4V44.6c.1-.8-.5-1.4-1.3-1.4zM343.3 41.2c-9.6 0-16.1 4.3-16.1 4.3V15.2c0-.8-.6-1.4-1.4-1.4h-17.1c-.8 0-1.4.6-1.4 1.4v89.2c0 .8.6 1.4 1.4 1.4h11.9c.5 0 .9-.3 1.2-.8.3-.5.7-4.1.7-4.1s7 6.6 20.2 6.6c15.5 0 24.4-7.9 24.4-35.4 0-27.3-14.2-30.9-23.8-30.9zm-6.7 50.2c-5.9-.2-9.8-2.8-9.8-2.8V60.3s3.9-2.4 8.7-2.8c6.1-.5 12 1.3 12 15.8-.1 15.3-2.7 18.4-10.9 18.1zM156.2 43h-12.8V26.1c0-.6-.3-1-1.1-1h-17.4c-.7 0-1 .3-1 .9v17.5s-8.7 2.1-9.3 2.3c-.6.2-1 .7-1 1.4v11c0 .8.6 1.4 1.4 1.4h8.9V86c0 19.6 13.7 21.5 23 21.5 4.2 0 9.3-1.4 10.1-1.7.5-.2.8-.7.8-1.3V92.4c0-.8-.7-1.4-1.4-1.4s-2.7.3-4.6.3c-6.3 0-8.4-2.9-8.4-6.7V59.5h12.8c.8 0 1.4-.6 1.4-1.4V44.4c0-.7-.6-1.4-1.4-1.4z"/></svg>