<svg width="905" height="140" viewBox="0 0 905 140" fill="none" xmlns="http://www.w3.org/2000/svg">
<path d="M109.25 37.0503H114.25L128.5 22.8003L129.2 16.7503C121.037 9.5451 111.171 4.53988 100.536 2.20748C89.9002 -0.124917 78.8456 0.292503 68.4163 3.42031C57.9869 6.54812 48.5271 12.2831 40.9304 20.0834C33.3337 27.8837 27.8509 37.4919 25 48.0003C26.5875 47.3496 28.3461 47.2441 30 47.7003L58.5 43.0003C58.5 43.0003 59.95 40.6003 60.7 40.7503C66.8066 34.0437 75.2459 29.9248 84.2901 29.237C93.3343 28.5491 102.299 31.3443 109.35 37.0503H109.25Z" fill="white"/>
<path d="M148.8 47.9998C145.525 35.938 138.8 25.0945 129.45 16.7998L109.45 36.7998C113.618 40.2056 116.959 44.5135 119.219 49.3985C121.48 54.2835 122.602 59.6181 122.5 64.9998V68.5498C124.838 68.5498 127.152 69.0102 129.312 69.9047C131.471 70.7993 133.434 72.1104 135.087 73.7633C136.739 75.4162 138.051 77.3784 138.945 79.538C139.84 81.6976 140.3 84.0123 140.3 86.3498C140.3 88.6873 139.84 91.002 138.945 93.1616C138.051 95.3212 136.739 97.2834 135.087 98.9363C133.434 100.589 131.471 101.9 129.312 102.795C127.152 103.689 124.838 104.15 122.5 104.15H86.9001L83.3501 107.75V129.1L86.9001 132.65H122.5C132.441 132.727 142.143 129.603 150.171 123.739C158.199 117.875 164.126 109.582 167.076 100.088C170.025 90.5946 169.841 80.4035 166.55 71.0227C163.258 61.6419 157.035 53.5695 148.8 47.9998Z" fill="white"/>
<path d="M51.2498 132.45H86.8498V103.95H51.2498C48.7135 103.949 46.2069 103.403 43.8998 102.35L38.8998 103.9L24.5498 118.15L23.2998 123.15C31.347 129.226 41.1662 132.493 51.2498 132.45Z" fill="white"/>
<path d="M51.25 40.0003C41.6041 40.0579 32.2171 43.1268 24.4 48.7783C16.5829 54.4298 10.7261 62.3817 7.64767 71.5234C4.56924 80.665 4.4229 90.5399 7.22907 99.7688C10.0352 108.998 15.6538 117.12 23.3 123L43.95 102.35C41.3258 101.165 39.0284 99.3601 37.255 97.0915C35.4816 94.8228 34.285 92.1577 33.768 89.325C33.251 86.4922 33.4289 83.5762 34.2866 80.8273C35.1443 78.0785 36.656 75.5787 38.6922 73.5425C40.7284 71.5063 43.2282 69.9946 45.977 69.1369C48.7259 68.2792 51.6419 68.1013 54.4746 68.6183C57.3074 69.1353 59.9725 70.3319 62.2412 72.1053C64.5098 73.8787 66.3144 76.1761 67.5 78.8003L88.15 58.1503C83.8157 52.4841 78.2295 47.8973 71.8281 44.7487C65.4268 41.6 58.3838 39.9749 51.25 40.0003Z" fill="white"/>
<path d="M263.95 112.55C257.821 112.628 251.739 111.468 246.068 109.14C240.398 106.812 235.256 103.363 230.95 99C226.509 94.8224 222.984 89.7672 220.6 84.1552C218.216 78.5432 217.024 72.497 217.1 66.4C217.027 60.3035 218.22 54.2582 220.604 48.6466C222.988 43.0351 226.511 37.9796 230.95 33.8C235.235 29.392 240.367 25.8969 246.039 23.5253C251.71 21.1536 257.803 19.9544 263.95 20C269.807 19.922 275.622 21.0089 281.055 23.1977C286.488 25.3866 291.433 28.6336 295.6 32.75L286.7 41.8C280.605 35.9098 272.425 32.6737 263.95 32.8C259.554 32.746 255.194 33.6072 251.149 35.3287C247.103 37.0503 243.46 39.5946 240.45 42.8C237.322 45.9029 234.855 49.6067 233.197 53.6883C231.538 57.7699 230.723 62.145 230.8 66.55C230.763 70.9048 231.598 75.2229 233.256 79.2501C234.913 83.2774 237.359 86.9324 240.45 90C246.642 96.1705 254.998 99.6807 263.738 99.7834C272.479 99.8861 280.915 96.5733 287.25 90.55C291.172 86.255 293.578 80.7929 294.1 75H264.1V62.2H306.55C306.967 64.7779 307.135 67.39 307.05 70C307.314 75.4021 306.48 80.8015 304.598 85.872C302.716 90.9424 299.825 95.5785 296.1 99.5C291.959 103.812 286.955 107.202 281.416 109.451C275.876 111.7 269.925 112.755 263.95 112.55ZM362.65 104.05C356.953 109.511 349.367 112.56 341.475 112.56C333.584 112.56 325.997 109.511 320.3 104.05C317.465 101.301 315.231 97.992 313.742 94.3339C312.253 90.6758 311.541 86.7481 311.65 82.8C311.544 78.8523 312.258 74.9256 313.747 71.2679C315.236 67.6102 317.467 64.3012 320.3 61.55C326.003 56.1005 333.587 53.0595 341.475 53.0595C349.363 53.0595 356.947 56.1005 362.65 61.55C365.483 64.3012 367.715 67.6102 369.204 71.2679C370.693 74.9256 371.406 78.8523 371.3 82.8C371.403 86.7517 370.683 90.6816 369.185 94.34C367.687 97.9983 365.445 101.305 362.6 104.05H362.65ZM329.65 95.7C331.165 97.3183 332.997 98.6083 335.031 99.4902C337.065 100.372 339.258 100.827 341.475 100.827C343.692 100.827 345.885 100.372 347.919 99.4902C349.953 98.6083 351.785 97.3183 353.3 95.7C354.952 93.9924 356.246 91.9712 357.105 89.7557C357.963 87.5402 358.37 85.1751 358.3 82.8C358.374 80.4169 357.969 78.0432 357.111 75.8191C356.252 73.5949 354.956 71.5653 353.3 69.85C351.765 68.2483 349.921 66.9738 347.88 66.1032C345.84 65.2325 343.644 64.7836 341.425 64.7836C339.206 64.7836 337.011 65.2325 334.97 66.1032C332.929 66.9738 331.086 68.2483 329.55 69.85C327.894 71.5653 326.598 73.5949 325.74 75.8191C324.881 78.0432 324.476 80.4169 324.55 82.8C324.487 85.1786 324.901 87.5457 325.769 89.7615C326.636 91.9772 327.939 93.9965 329.6 95.7H329.65ZM427.75 104.05C422.053 109.511 414.467 112.56 406.575 112.56C398.684 112.56 391.097 109.511 385.4 104.05C382.565 101.301 380.331 97.992 378.842 94.3339C377.353 90.6758 376.641 86.7481 376.75 82.8C376.644 78.8523 377.358 74.9256 378.847 71.2679C380.336 67.6102 382.567 64.3012 385.4 61.55C391.097 56.0891 398.684 53.0403 406.575 53.0403C414.467 53.0403 422.053 56.0891 427.75 61.55C430.583 64.3012 432.815 67.6102 434.304 71.2679C435.793 74.9256 436.506 78.8523 436.4 82.8C436.509 86.7481 435.797 90.6758 434.308 94.3339C432.819 97.992 430.586 101.301 427.75 104.05ZM394.75 95.7C396.265 97.3183 398.097 98.6083 400.131 99.4902C402.165 100.372 404.358 100.827 406.575 100.827C408.792 100.827 410.985 100.372 413.019 99.4902C415.053 98.6083 416.885 97.3183 418.4 95.7C420.052 93.9924 421.346 91.9712 422.205 89.7557C423.063 87.5402 423.47 85.1751 423.4 82.8C423.474 80.4169 423.069 78.0432 422.211 75.8191C421.352 73.5949 420.056 71.5653 418.4 69.85C416.865 68.2483 415.021 66.9738 412.98 66.1032C410.94 65.2325 408.744 64.7836 406.525 64.7836C404.306 64.7836 402.111 65.2325 400.07 66.1032C398.029 66.9738 396.186 68.2483 394.65 69.85C392.994 71.5653 391.698 73.5949 390.84 75.8191C389.981 78.0432 389.576 80.4169 389.65 82.8C389.587 85.1786 390.001 87.5457 390.869 89.7615C391.736 91.9772 393.039 93.9965 394.7 95.7H394.75ZM470.55 139.25C464.557 139.441 458.68 137.57 453.9 133.95C449.656 130.759 446.313 126.521 444.2 121.65L455.6 116.9C456.841 119.811 458.782 122.37 461.25 124.35C463.892 126.48 467.208 127.597 470.6 127.5C472.751 127.631 474.905 127.297 476.916 126.52C478.926 125.744 480.745 124.543 482.25 123C485.262 119.366 486.75 114.707 486.4 110V105.7H485.95C484.045 107.963 481.639 109.751 478.922 110.923C476.206 112.094 473.254 112.617 470.3 112.45C466.546 112.461 462.831 111.694 459.388 110.197C455.946 108.699 452.851 106.504 450.3 103.75C447.532 101.018 445.347 97.7525 443.877 94.1515C442.408 90.5505 441.684 86.6888 441.75 82.8C441.681 78.8885 442.403 75.0033 443.872 71.3776C445.341 67.7518 447.528 64.4601 450.3 61.7C452.845 58.9345 455.937 56.7284 459.38 55.2221C462.823 53.7157 466.542 52.942 470.3 52.95C473.481 52.9445 476.623 53.6446 479.5 55C481.989 56.087 484.208 57.7087 486 59.75H486.45V55H498.85V108.25C499.177 112.462 498.64 116.697 497.273 120.695C495.906 124.693 493.737 128.369 490.9 131.5C488.198 134.085 485.005 136.103 481.509 137.434C478.014 138.765 474.288 139.383 470.55 139.25ZM471.45 100.85C473.585 100.897 475.704 100.473 477.657 99.6092C479.61 98.7451 481.349 97.4616 482.75 95.85C485.835 92.3147 487.462 87.7393 487.3 83.05C487.485 78.2816 485.86 73.6196 482.75 70C481.351 68.3857 479.613 67.1004 477.659 66.2361C475.706 65.3717 473.586 64.9496 471.45 65C469.257 64.955 467.079 65.3776 465.062 66.2397C463.044 67.1018 461.234 68.3837 459.75 70C456.443 73.4895 454.646 78.1433 454.75 82.95C454.699 85.3078 455.115 87.6523 455.973 89.8489C456.831 92.0456 458.115 94.051 459.75 95.75C461.226 97.382 463.033 98.6808 465.051 99.5602C467.068 100.44 469.25 100.879 471.45 100.85ZM520.9 23.35V110.75H507.85V23.35H520.9ZM556.7 112.55C552.792 112.65 548.905 111.943 545.283 110.472C541.661 109.001 538.381 106.797 535.65 104C532.879 101.223 530.701 97.9122 529.248 94.2678C527.795 90.6235 527.099 86.7219 527.2 82.8C527.052 78.8685 527.698 74.9475 529.098 71.2709C530.498 67.5942 532.624 64.2372 535.35 61.4C537.919 58.6923 541.024 56.551 544.468 55.1131C547.912 53.6752 551.619 52.9725 555.35 53.05C558.781 53.0138 562.184 53.6773 565.35 55C568.202 56.1512 570.801 57.8498 573 60C574.888 61.8228 576.566 63.8523 578 66.05C579.16 67.9056 580.148 69.8638 580.95 71.9L582.3 75.3L542.3 91.75C543.51 94.5295 545.533 96.8773 548.104 98.4839C550.675 100.091 553.672 100.881 556.7 100.75C559.647 100.758 562.545 100.002 565.113 98.5564C567.68 97.1105 569.829 95.0239 571.35 92.5L581.35 99.25C578.798 102.901 575.532 105.997 571.75 108.35C567.252 111.192 562.02 112.652 556.7 112.55ZM540 81.9L566.6 70.85C565.781 68.9016 564.315 67.2949 562.45 66.3C560.362 65.1208 557.998 64.5169 555.6 64.55C551.531 64.6554 547.668 66.3624 544.85 69.3C543.164 70.9136 541.855 72.8797 541.016 75.0578C540.178 77.2359 539.831 79.5723 540 81.9Z" fill="white"/>
<path d="M650.65 112.55C645.1 112.645 639.588 111.619 634.445 109.531C629.301 107.444 624.633 104.338 620.719 100.402C616.806 96.4652 613.729 91.7783 611.672 86.6227C609.615 81.4671 608.621 75.949 608.75 70.3997C608.621 64.8504 609.615 59.3323 611.672 54.1766C613.729 49.021 616.806 44.3342 620.719 40.3975C624.633 36.4609 629.301 33.3556 634.445 31.268C639.588 29.1805 645.1 28.1539 650.65 28.2497C656.267 28.074 661.852 29.17 666.986 31.4558C672.12 33.7415 676.671 37.1579 680.3 41.4497L673.1 48.4497C670.436 45.0991 667.019 42.4246 663.127 40.6435C659.234 38.8624 654.977 38.0251 650.7 38.1997C646.583 38.1069 642.489 38.8475 638.666 40.377C634.842 41.9064 631.367 44.1931 628.45 47.0997C625.417 50.1497 623.047 53.7941 621.49 57.8038C619.932 61.8135 619.221 66.1019 619.4 70.3997C619.221 74.6975 619.932 78.9859 621.49 82.9956C623.047 87.0053 625.417 90.6496 628.45 93.6997C631.367 96.6062 634.842 98.8929 638.666 100.422C642.489 101.952 646.583 102.692 650.7 102.6C655.478 102.653 660.207 101.629 664.535 99.6036C668.864 97.578 672.68 94.603 675.7 90.8997L682.9 98.0997C679.13 102.608 674.397 106.213 669.05 108.65C663.286 111.311 656.998 112.644 650.65 112.55Z" fill="white"/>
<path d="M702.25 110.75H691.9V30H702.25V110.75Z" fill="white"/>
<path d="M719.15 62.15C724.573 56.7639 731.907 53.7412 739.55 53.7412C747.194 53.7412 754.527 56.7639 759.95 62.15C762.602 64.9501 764.674 68.247 766.047 71.851C767.42 75.4551 768.067 79.295 767.95 83.15C768.067 87.0049 767.42 90.8449 766.047 94.4489C764.674 98.0529 762.602 101.35 759.95 104.15C754.527 109.536 747.194 112.559 739.55 112.559C731.907 112.559 724.573 109.536 719.15 104.15C716.498 101.35 714.426 98.0529 713.053 94.4489C711.68 90.8449 711.033 87.0049 711.15 83.15C711.033 79.295 711.68 75.4551 713.053 71.851C714.426 68.247 716.498 64.9501 719.15 62.15ZM726.85 97.65C728.481 99.3734 730.446 100.746 732.625 101.684C734.805 102.622 737.152 103.106 739.525 103.106C741.898 103.106 744.246 102.622 746.425 101.684C748.604 100.746 750.569 99.3734 752.2 97.65C754.009 95.7088 755.414 93.427 756.332 90.9376C757.251 88.4482 757.665 85.8009 757.55 83.15C757.665 80.499 757.251 77.8517 756.332 75.3623C755.414 72.8729 754.009 70.5911 752.2 68.65C750.569 66.9265 748.604 65.5538 746.425 64.6156C744.246 63.6775 741.898 63.1936 739.525 63.1936C737.152 63.1936 734.805 63.6775 732.625 64.6156C730.446 65.5538 728.481 66.9265 726.85 68.65C725.041 70.5911 723.636 72.8729 722.718 75.3623C721.799 77.8517 721.385 80.499 721.5 83.15C721.399 85.7961 721.824 88.436 722.751 90.9165C723.678 93.3971 725.088 95.6688 726.9 97.6L726.85 97.65Z" fill="white"/>
<path d="M825.3 110.75H815.3V103.1H815C813.22 106.005 810.701 108.386 807.7 110C804.586 111.805 801.049 112.753 797.45 112.75C794.527 112.95 791.598 112.487 788.879 111.396C786.16 110.305 783.723 108.614 781.75 106.45C777.962 101.659 776.059 95.6475 776.4 89.5498V55.5498H786.75V87.6498C786.75 97.9498 791.3 103.1 800.4 103.1C802.422 103.163 804.429 102.742 806.256 101.872C808.082 101.003 809.674 99.7092 810.9 98.0998C813.582 94.7 815.013 90.4801 814.95 86.1498V55.5498H825.3V110.75Z" fill="white"/>
<path d="M860.45 112.55C856.939 112.562 853.467 111.812 850.273 110.354C847.08 108.895 844.24 106.761 841.95 104.1C836.766 98.3746 833.99 90.8706 834.2 83.15C833.99 75.4294 836.766 67.9254 841.95 62.2C844.24 59.5386 847.08 57.4051 850.273 55.9464C853.467 54.4877 856.939 53.7383 860.45 53.75C864.384 53.6879 868.27 54.6164 871.75 56.45C874.809 57.9891 877.398 60.32 879.25 63.2H879.7L879.25 55.55V30H889.6V110.75H879.6V103.1H879.15C877.298 105.98 874.709 108.311 871.65 109.85C868.199 111.667 864.35 112.595 860.45 112.55ZM862.15 103.1C864.489 103.134 866.809 102.67 868.956 101.739C871.102 100.808 873.026 99.4313 874.6 97.7C878.116 93.6967 879.912 88.4689 879.6 83.15C879.912 77.8311 878.116 72.6033 874.6 68.6C873.016 66.8592 871.086 65.4685 868.934 64.5169C866.781 63.5652 864.454 63.0737 862.1 63.0737C859.747 63.0737 857.419 63.5652 855.266 64.5169C853.114 65.4685 851.184 66.8592 849.6 68.6C847.854 70.569 846.513 72.8634 845.655 75.3516C844.797 77.8399 844.438 80.473 844.6 83.1C844.438 85.727 844.797 88.3601 845.655 90.8484C846.513 93.3366 847.854 95.631 849.6 97.6C851.176 99.3623 853.112 100.765 855.277 101.714C857.442 102.663 859.786 103.136 862.15 103.1Z" fill="white"/>
</svg>
