<svg width="664" height="149" viewBox="0 0 664 149" fill="none" xmlns="http://www.w3.org/2000/svg">
<g clip-path="url(#clip0_328_133)">
<path d="M24.2654 111.212C25.1459 111.342 25.7378 110.996 26.344 110.794C34.6587 107.965 43.1754 105.929 51.7354 104.082C53.5398 103.692 55.0988 103.288 57.3218 102.725C65.6075 100.849 72.8972 102.898 74.6872 110.794C75.741 115.441 73.3447 117.303 69.938 118.516C64.6404 120.378 59.155 121.576 53.6697 122.73C44.6478 124.621 35.8856 127.378 27.2535 130.582C23.2838 132.055 19.3575 133.7 15.1135 134.321C12.1977 134.754 9.45499 134.263 6.88554 132.949C2.52614 130.727 0.31757 127.017 -1.88893e-06 122.211C-0.144353 119.771 0.894974 114.099 5.57195 104.443C15.4456 85.9097 40.4616 13.9573 42.1505 9.54054C42.598 8.3714 43.0455 7.20227 43.5796 6.07643C44.821 3.42061 47.5203 2.10714 50.6528 2.59789C53.2366 3.00203 55.2864 5.1671 55.7916 7.83735C56.4557 11.4314 55.7339 14.8666 54.8101 18.2874C52.8613 25.4899 50.4651 32.548 48.1988 39.635C47.0584 43.2146 45.817 46.7508 44.6911 50.3304C42.7712 56.5081 40.8225 62.6857 38.9748 68.8923C36.8817 75.936 34.7308 82.9508 32.2191 89.8501C30.3426 95.0174 28.3217 100.113 26.3585 105.237C25.6223 107.142 24.7129 109.018 24.2798 111.183L24.2654 111.212ZM133.799 17.1616C136.137 19.1967 136.946 22.0113 136.267 25.7497C135.906 27.6982 135.517 29.6757 135.141 31.5809C134.708 33.8037 134.246 36.0843 133.842 38.3504C132.572 45.524 131.547 51.947 130.724 58.0092C130.291 61.2135 129.829 64.4755 129.382 67.6221C128.819 71.6058 128.241 75.7339 127.693 79.7898C126.827 86.2417 125.975 91.5678 124.994 96.5763C123.42 104.573 120.952 114.965 115.697 124.607C113.46 128.72 111.237 131.708 108.711 134.018C105.954 136.543 102.099 139.546 96.7729 140.21C96.2099 140.282 95.647 140.311 95.084 140.311C92.8321 140.311 90.6235 139.733 88.4727 138.607C85.5568 137.063 83.2183 134.609 81.3418 131.131C78.8301 126.469 77.8052 121.489 77.1845 117.678C76.6504 114.373 76.0441 109.653 76.1884 105.828C76.1596 96.6196 77.3288 87.8871 79.8983 78.3608C81.9047 70.913 84.5031 63.5229 87.621 56.407C90.6235 49.551 94.189 42.7527 98.2164 36.2286C101.71 30.5706 105.434 25.2589 109.288 20.438C112.117 16.9018 115.134 13.6542 118.238 10.8107C119.826 9.3529 121.63 7.93839 124.041 7.46207C126.35 7.00019 128.573 7.46207 130.32 8.78998C132.038 10.089 133.077 12.0809 133.265 14.3903C133.308 14.881 133.308 15.4007 133.294 15.9491C133.265 16.4832 133.424 16.8585 133.799 17.176V17.1616ZM118.238 30.7005C116.206 33.4073 114.271 36.1852 112.435 39.0288C107.383 46.7797 102.937 55.4111 99.2124 64.692C96.3361 71.8908 94.0808 79.3225 92.4712 86.9056C91.7495 90.2831 90.9988 94.3102 90.8689 98.4527V98.8279C90.739 102.913 90.6091 107.142 91.0855 111.255C91.5618 115.34 92.2403 118.617 93.2363 121.532C93.5972 122.6 94.0735 123.553 94.6365 124.39C94.8242 124.664 94.9541 124.809 95.0118 124.881C95.0984 124.838 95.2572 124.751 95.517 124.563C97.1915 123.38 98.6061 121.749 99.8476 119.598C101.695 116.408 103.225 112.872 104.525 108.787C106.545 102.451 108.104 95.4937 109.418 86.8768C110.14 82.1714 110.789 77.3793 111.425 72.7461C111.944 68.9067 112.493 64.9374 113.07 61.0403C114.398 52.0336 116.044 41.4536 118.209 30.7149L118.238 30.7005ZM148.191 95.335C147.556 98.9146 146.892 102.494 146.271 106.088C145.058 113.103 143.86 120.132 142.633 127.147C142.431 128.331 142.258 129.529 141.782 130.626C141.089 132.257 139.948 133.426 138.158 133.859C135.098 134.609 132.023 132.329 131.85 129.182C131.735 126.945 132.052 124.722 132.283 122.514C132.702 118.357 133.294 114.214 133.784 110.057C134.564 103.476 135.546 96.9083 136.729 90.3842C138.129 82.6188 139.717 74.8967 141.724 67.2613C142.85 63.0033 144.077 58.7742 145.477 54.5884C145.968 53.1306 146.661 51.7594 147.888 50.7634C151.496 47.8478 156.679 49.1902 158.454 53.4914C159.234 55.3822 159.421 57.3885 159.609 59.3948C159.955 63.0755 160.316 66.7416 160.533 70.4367C160.764 74.2905 161.226 78.1155 161.615 81.9548C161.904 84.7694 162.25 87.5696 162.813 90.3409C162.857 90.5863 162.813 90.8894 163.218 91.0914C163.867 88.8975 164.502 86.718 165.166 84.5529C166.913 78.8805 168.804 73.2657 170.811 67.6798C172.456 63.0755 174.203 58.4855 175.863 53.8811C177.84 48.3963 180.107 43.0414 182.402 37.7009C185.072 31.5088 187.801 25.3311 190.904 19.3411C191.886 17.4503 192.968 15.6316 194.253 13.9428C197.328 9.90138 202.265 9.19413 206.379 12.1386C208.414 13.5964 210.161 17.8833 209.294 20.1494C208.934 21.1164 208.645 22.1124 208.169 23.0217C204.257 30.4984 201.095 38.3215 197.732 46.058C193.315 56.2483 189.518 66.6695 185.751 77.1195C182.156 87.05 179.067 97.1392 176.455 107.373C174.953 113.276 173.871 119.281 172.673 125.256C172.167 127.739 171.301 130.005 169.526 131.953C166.206 135.605 159.811 135.36 156.606 130.784C155.134 128.691 154.456 126.267 153.792 123.856C151.626 115.975 150.226 107.936 149.143 99.8383C148.941 98.3372 148.696 96.8361 148.465 95.335H148.176H148.191Z" fill="white"/>
<path d="M286.407 92.6503C286.45 96.201 283.91 99.7084 280.662 100.863C278.958 101.469 277.183 101.57 275.436 101.787C263.83 103.274 252.326 105.237 241.037 108.311C233.127 110.462 236.49 109.783 228.594 111.948C225.505 112.8 222.387 113.594 219.298 114.416C215.314 115.485 211.344 116.596 207.346 117.635C203.463 118.646 199.58 119.685 195.581 120.046C191.395 120.421 187.166 118.198 186.141 113.579C185.231 109.48 187.555 105.309 191.698 103.966C199.811 101.339 207.938 98.7125 216.195 96.5041C225.938 93.8916 222.07 94.5988 231.813 92.0152C241.225 89.5181 251.07 87.3964 262.719 85.6066C266.934 85.1447 271.12 84.524 275.321 84.0333C278.237 83.6869 280.951 84.3653 283.231 86.2128C285.295 87.8727 286.248 90.1821 286.436 92.6214L286.407 92.6503ZM200.691 71.4615C197.415 71.4037 195.134 69.3974 194.051 66.1931C193.257 63.8116 194.975 59.799 197.068 58.5577C201.716 55.8297 223.831 46.9962 235.466 42.2042C239.377 40.602 243.232 38.8555 247.158 37.2823C249.424 36.3729 251.719 35.5213 254.13 35.0594C256.988 34.511 260.02 36.0842 261.203 38.7112C262.43 41.4392 261.636 44.5136 259.182 46.3755C257.797 47.4292 256.324 48.2952 254.534 48.4973C252.918 48.6849 251.474 49.4932 250.016 50.1572C243.578 53.1306 237.01 55.7719 230.471 58.5144C230.038 58.6876 229.619 58.9041 229.186 59.1061C229.316 59.2505 229.388 59.3948 229.446 59.3948C234.036 59.2505 238.598 59.7845 243.188 59.8134C247.649 59.8278 252.095 60.2031 256.541 60.4196C259.327 60.5495 268.839 61.1124 270.759 61.531C273.834 62.2238 275.581 64.3167 275.711 67.2757C275.855 70.4367 274.411 72.6595 271.38 73.6698C268.998 74.4781 266.487 74.7091 264.033 75.1421C259.63 75.9071 230.283 83.2683 217.985 88.6377C216.541 89.2006 215.069 89.7058 213.539 89.98C209.194 90.7594 205.542 87.9593 206.321 82.8786C206.653 80.6558 208.183 79.3279 210.247 78.6495C212.86 77.7835 215.386 76.7298 217.927 75.705C221.897 74.0884 225.938 72.645 230.023 71.3171C230.861 71.0429 231.698 70.7831 232.391 70.1336C230.558 70.3501 228.71 70.2202 226.92 70.48C224.798 70.7975 222.647 70.8552 220.525 70.9996C213.928 71.4759 207.317 71.5625 200.72 71.4326L200.691 71.4615Z" fill="white"/>
<path d="M315.897 68.5314C315.392 68.4881 315.219 68.8057 315.017 69.0511C312.361 72.3564 309.734 75.6762 307.078 78.9815C305.721 80.6703 304.321 82.3446 302.935 84.0045C302.083 85.0293 301.535 86.1407 301.246 87.4686C299.932 93.6895 298.561 99.9105 296.439 105.929C295.876 107.517 295.212 109.062 294.505 110.592C292.975 113.897 283.52 115.08 283.548 108.932C284.068 107.099 286.897 98.2362 287.287 97.1536C287.821 95.6814 288.081 94.2958 287.533 92.7225C287.056 91.3657 287.229 89.8935 287.893 88.5944C288.572 87.2954 289.294 85.9963 290.145 84.8128C290.795 83.9034 291.228 82.9508 291.488 81.8827C293.985 71.678 296.598 61.5166 299.514 51.4274C301.737 43.7486 304.205 36.142 307.482 28.8241C308.348 26.89 309.257 24.9703 310.181 23.065C310.412 22.5743 310.701 22.0979 311.047 21.6938C312.39 20.1205 314.31 19.7597 316.027 20.7123C317.76 21.6794 318.698 23.7434 318.092 25.5621C317.168 28.3478 316.172 31.1191 315.118 33.8615C313.516 38.0328 312.245 42.3053 311.033 46.6065C309.878 50.6913 308.896 54.8193 307.843 58.933C307.756 59.2938 307.554 59.6547 307.785 60.0444C308.218 60.2464 308.348 59.8712 308.536 59.6402C313.92 54.2564 319.16 49.1469 330.13 36.7627C330.708 36.4163 331.141 35.9688 331.487 35.3915C332.541 33.6738 333.595 31.9562 334.692 30.2675C337.824 25.4899 341.058 20.7845 345.114 16.7141C346.991 14.8378 349.372 14.7078 351.48 16.2378C353.039 17.3637 353.761 19.6731 353.068 21.4917C352.822 22.1413 352.49 22.7908 352.086 23.3681C348.463 28.4199 345.417 33.8182 342.415 39.2453C339.614 44.2971 337.521 49.6809 335.096 54.906C331.689 62.2672 330.39 70.1625 328.889 78C327.705 84.1344 326.724 90.312 325.757 96.4897C324.66 103.476 323.649 110.462 322.653 117.462C321.975 122.254 321.354 127.046 320.777 131.852C320.459 134.494 320.199 137.15 320.04 139.805C319.795 143.919 316.821 147.542 312.779 148.682C308.146 149.996 303.743 147.427 302.04 144.699C300.264 141.87 299.918 138.911 300.899 135.793C301.664 133.397 302.098 130.929 302.603 128.489C304.855 117.621 307.294 106.795 309.734 95.9701C311.682 87.3675 313.573 78.765 315.724 70.2202C315.854 69.715 316.143 69.2098 315.912 68.5603L315.897 68.5314Z" fill="white"/>
<path d="M382.588 7.54883C382.891 7.67873 383.18 7.82307 383.483 7.92411C387.279 9.28088 389.343 12.8749 388.232 17.0896C387.077 21.5207 386.254 26.0241 385.648 30.5419C385.128 34.4101 384.854 38.3217 384.493 42.2044C383.714 50.677 383.901 59.1496 383.93 67.6367C383.93 70.3935 384.291 73.1648 384.464 75.9217C384.508 76.6867 384.508 77.4372 384.551 78.2022C384.58 78.7507 384.58 79.2992 384.695 79.8188C384.912 80.7714 385.244 80.9302 386.052 80.4106C388.997 78.5486 391.956 76.7155 394.829 74.7381C399.997 71.2018 405.179 67.7089 410.534 64.4613C412.31 63.3787 414.129 62.4983 416.352 62.6859C419.715 62.9746 422.544 65.8036 422.79 69.1955C422.948 71.4039 422.154 73.2514 420.87 74.9258C417.737 78.9961 415.269 83.4706 412.902 88.0172C412.281 89.2008 412.05 90.3843 412.238 91.77C412.8 95.7537 411.386 97.9909 408.037 99.7807C405.179 101.311 401.454 100.82 399.073 98.525C397.586 97.0961 396.821 95.2197 396.662 93.1268C396.619 92.636 396.662 92.1453 396.633 91.6545C396.547 90.673 396.243 90.4998 395.377 90.9906C393.732 91.9432 392.101 92.9391 390.469 93.9206C389.719 94.3681 388.983 94.8299 388.246 95.2774C386.875 96.1146 386.875 96.129 387.178 97.76C387.611 100.055 388.015 102.364 388.492 104.659C389.257 108.383 390.051 112.107 390.975 115.802C391.234 116.841 391.696 117.664 392.563 118.357C394.194 119.656 395.175 121.431 395.551 123.467C396.388 127.898 397.182 132.343 397.86 136.803C398.163 138.795 398.005 140.802 397.225 142.736C395.738 146.431 392.216 148.726 388.232 148.942C383.382 149.202 379.629 145.666 378.156 142.231C376.597 138.622 375.544 134.855 374.735 131.015C373.061 122.976 371.372 114.936 370.13 106.81C369.899 105.323 369.654 105.193 368.167 105.655C364.76 106.709 361.325 107.445 357.731 106.94C356.749 106.81 356.532 107.46 356.359 108.196C355.536 111.689 354.656 115.167 353.92 118.689C352.303 126.411 350.787 134.148 349.214 141.884C348.925 143.27 348.564 144.641 347.972 145.94C346.991 148.091 345.057 149.245 342.848 148.856C340.481 148.437 339.268 147.225 338.662 144.857C338.575 144.497 338.561 144.092 338.604 143.732C339.571 137.28 340.279 130.799 341.275 124.347C342.314 117.578 343.555 110.837 344.97 104.125C345.23 102.884 345.013 102.105 343.873 101.426C341.347 99.9106 339.066 98.0054 337.002 95.9413C333.797 92.7226 331.156 89.0709 329.654 84.6974C329.293 83.6726 329.077 82.6045 328.947 81.522C328.673 79.1982 329.438 77.3218 331.387 76.0227C332.902 75.0124 335.472 75.2866 337.189 76.7155C338.979 78.2022 340.351 80.0497 340.726 82.4169C340.87 83.3262 341.202 84.0912 341.794 84.7552C343.31 86.4728 344.999 88.0028 346.89 89.3162C347.987 90.0812 348.16 90.0235 348.478 88.6667C349.459 84.6541 350.585 80.6704 351.726 76.7011C353.602 70.1049 355.811 63.6241 358.091 57.1578C361.772 46.6933 366.247 36.5174 369.842 26.0096C370.737 23.3827 371.415 20.6836 372.007 17.9845C372.44 16.007 373.104 14.1018 373.898 12.2687C374.735 10.349 376.121 8.93447 378.113 8.16948L379.629 7.56326H382.573L382.588 7.54883ZM366.536 74.2329C365.886 74.5505 365.872 75.2144 365.699 75.7485C364.573 79.1549 363.461 82.5757 362.393 85.9965C361.671 88.3347 360.979 90.6874 360.343 93.0402C360.04 94.1804 360.343 94.4258 361.484 94.1949C363.043 93.8918 364.501 93.2567 365.93 92.5927C367.907 91.6689 368.095 91.337 367.835 89.2008C367.287 84.6686 366.969 80.1219 366.897 75.5608C366.897 75.099 367.041 74.5793 366.536 74.2329ZM440.718 95.2774C442.248 87.8151 444.038 80.4106 445.915 73.0205C447.719 65.9624 449.783 58.962 451.905 51.9905C454.186 44.4849 456.683 37.0659 459.18 29.647C460.566 25.5189 462.212 21.4774 464.767 17.8979C465.951 16.2524 467.38 14.8235 468.953 13.5677C471.19 11.7924 474.987 11.9223 477.21 13.6543C479.823 15.6895 480.746 18.8649 479.476 21.8094C478.769 23.4549 477.845 25.0137 477.167 26.6736C476.3 28.7809 475.521 30.9316 474.785 33.0966C471.768 42.0744 468.708 51.0234 465.994 60.1023C463.569 68.2285 461.302 76.4124 459.368 84.683C457.391 93.0979 455.398 101.527 453.305 109.913C452.035 115.037 450.592 120.118 448.686 125.04C447.603 127.826 446.391 130.51 444.139 132.675C441.7 135.014 436.618 135.071 434.28 132.661C433.154 131.506 432.273 130.265 431.768 128.706C430.96 126.195 430.628 123.611 430.411 121.013C430.137 117.707 429.805 114.417 429.473 111.126C429.112 107.561 428.78 103.995 428.405 100.43C428.073 97.3992 427.698 94.3825 427.337 91.3658C426.932 88.0172 426.528 84.683 426.139 81.3344C425.604 76.8021 425.085 72.2699 424.58 67.7377C424.19 64.2303 423.858 60.7085 423.511 57.2011C423.208 54.17 422.891 51.1533 422.616 48.1222C422.443 46.2891 422.342 44.4416 422.198 42.5941C422.025 40.328 421.822 38.0474 421.635 35.7813C421.62 35.5648 421.577 35.3483 421.563 35.1318C421.202 28.6655 421.144 22.1991 421.231 15.7328C421.259 13.5822 422.472 12.0089 424.406 11.5037C426.341 10.9841 428.232 11.6913 429.343 13.4667C430.541 15.3719 431.306 17.4648 431.624 19.7021C431.754 20.6114 431.797 21.5785 431.335 22.4301C430.469 24.0178 430.642 25.6921 430.787 27.3809C431.061 30.3542 431.364 33.3276 431.653 36.3009C432.014 39.8661 432.346 43.4312 432.75 46.9964C433.226 51.1533 433.731 55.3102 434.265 59.4527C434.958 64.8943 435.666 70.3358 436.416 75.7773C437.311 82.1859 438.25 88.5801 439.188 94.9887C439.318 95.898 439.491 96.7929 439.65 97.7023C439.765 97.7167 439.895 97.7456 440.011 97.76C440.386 96.995 440.53 96.1434 440.704 95.3063L440.718 95.2774ZM560.241 92.6504C560.284 96.2012 557.743 99.7086 554.495 100.863C552.792 101.469 551.017 101.571 549.27 101.787C537.664 103.274 526.159 105.237 514.871 108.311C506.961 110.462 510.324 109.783 502.428 111.948C499.339 112.8 496.221 113.594 493.132 114.417C489.148 115.485 485.178 116.596 481.18 117.635C477.296 118.646 473.413 119.685 469.415 120.046C465.229 120.421 460.999 118.198 459.974 113.579C459.065 109.48 461.389 105.309 465.532 103.967C473.644 101.34 481.771 98.7126 490.028 96.5043C499.772 93.8917 495.903 94.599 505.647 92.0154C515.059 89.5183 524.903 87.3965 536.553 85.6068C540.768 85.1449 544.954 84.5242 549.154 84.0335C552.07 83.6871 554.784 84.3654 557.065 86.213C559.129 87.8729 560.082 90.1823 560.269 92.6216L560.241 92.6504ZM474.525 71.4616C471.248 71.4039 468.967 69.3976 467.885 66.1933C467.091 63.8117 468.809 59.7991 470.902 58.5578C475.55 55.8298 497.664 46.9964 509.299 42.2044C513.211 40.6022 517.065 38.8557 520.992 37.2824C523.258 36.3731 525.553 35.5215 527.964 35.0596C530.822 34.5111 533.853 36.0844 535.037 38.7114C536.264 41.4394 535.47 44.5138 533.016 46.3757C531.63 47.4294 530.158 48.2954 528.368 48.4975C526.751 48.6851 525.308 49.4934 523.85 50.1574C517.412 53.1307 510.844 55.7721 504.305 58.5145C503.871 58.6877 503.453 58.9042 503.02 59.1063C503.15 59.2507 503.222 59.395 503.28 59.395C507.87 59.2507 512.432 59.7847 517.022 59.8136C521.482 59.828 525.928 60.2033 530.374 60.4198C533.16 60.5497 542.673 61.1126 544.593 61.5312C547.668 62.224 549.414 64.3169 549.544 67.2758C549.689 70.4368 548.245 72.6596 545.214 73.67C542.832 74.4783 540.32 74.7092 537.866 75.1423C533.463 75.9073 504.117 83.2685 491.818 88.6378C490.375 89.2008 488.902 89.706 487.372 89.9802C483.027 90.7596 479.375 87.9595 480.155 82.8788C480.487 80.656 482.017 79.3281 484.081 78.6497C486.694 77.7836 489.22 76.73 491.76 75.7052C495.73 74.0886 499.772 72.6452 503.857 71.3173C504.694 71.0431 505.532 70.7833 506.224 70.1337C504.391 70.3502 502.543 70.2203 500.754 70.4801C498.632 70.7977 496.481 70.8554 494.359 70.9998C487.762 71.4761 481.151 71.5627 474.554 71.4328L474.525 71.4616Z" fill="white"/>
<path d="M571.168 95.3351C570.533 98.9146 569.869 102.494 569.248 106.088C568.035 113.103 566.837 120.132 565.61 127.147C565.408 128.331 565.235 129.529 564.759 130.626C564.066 132.257 562.925 133.426 561.135 133.859C558.075 134.609 555 132.329 554.827 129.182C554.712 126.945 555.029 124.722 555.26 122.514C555.679 118.357 556.271 114.214 556.762 110.058C557.541 103.476 558.523 96.9083 559.706 90.3843C561.107 82.6189 562.694 74.8968 564.701 67.2613C565.827 63.0034 567.054 58.7743 568.454 54.5885C568.945 53.1307 569.638 51.7594 570.865 50.7635C574.473 47.8479 579.656 49.1902 581.431 53.4915C582.211 55.3823 582.398 57.3886 582.586 59.3949C582.932 63.0755 583.293 66.7417 583.51 70.4368C583.741 74.2906 584.203 78.1155 584.592 81.9549C584.881 84.7695 585.228 87.5697 585.791 90.341C585.834 90.5863 585.791 90.8895 586.195 91.0915C586.844 88.8976 587.479 86.7181 588.143 84.553C589.89 78.8805 591.781 73.2658 593.788 67.6799C595.433 63.0755 597.18 58.4856 598.84 53.8812C600.817 48.3964 603.084 43.0414 605.379 37.7009C608.049 31.5088 610.778 25.3312 613.881 19.3412C614.863 17.4503 615.945 15.6317 617.23 13.9429C620.305 9.90146 625.242 9.19421 629.356 12.1387C631.391 13.5965 633.138 17.8833 632.272 20.1495C631.911 21.1165 631.622 22.1124 631.146 23.0218C627.234 30.4985 624.072 38.3216 620.709 46.0581C616.292 56.2484 612.495 66.6696 608.728 77.1196C605.134 87.0501 602.044 97.1393 599.432 107.373C597.93 113.276 596.848 119.281 595.65 125.256C595.145 127.739 594.278 130.005 592.503 131.954C589.183 135.605 582.788 135.36 579.583 130.784C578.111 128.692 577.433 126.267 576.769 123.856C574.603 115.975 573.203 107.936 572.12 99.8384C571.918 98.3373 571.673 96.8362 571.442 95.3351H571.153H571.168ZM657.129 120.089C658.038 121.186 659.034 122.196 659.915 123.322C662.701 126.844 661.416 131.116 658.11 133.238C655.512 134.898 652.813 135.071 649.724 132.502C648.872 131.795 648.208 130.929 647.587 130.005C646.837 128.879 646.043 127.768 645.22 126.7C644.743 126.065 644.31 126.108 643.834 126.786C643.531 127.205 643.286 127.667 643.011 128.1C641.351 130.842 637.483 132.444 633.989 130.698C631.434 129.413 630.02 127.248 630.106 124.419C630.106 122.687 630.583 121.215 631.348 119.844C632.069 118.545 632.863 117.289 633.643 116.019C634.119 115.239 634.163 115.037 633.614 114.489C631.492 112.41 629.529 110.159 627.205 108.297C626.498 107.734 625.819 107.113 625.242 106.435C622.817 103.533 624.347 98.9868 628.042 98.1208C629.399 97.8032 630.727 97.8754 632.012 98.5105C633.527 99.261 634.913 100.199 636.27 101.195C638.248 102.667 640.211 104.125 642.044 105.756C642.809 106.435 643.127 106.42 643.877 105.742C645.278 104.501 646.663 103.23 648.049 101.975C649.161 100.964 650.373 100.113 651.846 99.7229C654.213 99.0878 656.32 99.7807 657.807 101.57C659.352 103.432 660.059 105.727 658.327 108.398C657.316 109.956 655.974 111.299 654.776 112.742C654.314 113.291 653.809 113.796 653.405 114.373C652.856 115.124 652.87 115.441 653.52 116.062C654.819 117.332 655.988 118.703 657.158 120.089H657.129ZM663.567 5.7301C662.961 7.05801 662.311 8.35705 661.748 9.71382C659.972 13.9574 658.428 18.2731 657.1 22.6898C656.219 25.6487 655.44 28.6221 654.776 31.6387C654.054 34.9152 653.52 38.2206 652.971 41.5259C652.51 44.2394 652.206 46.9819 651.961 49.7243C651.701 52.6255 651.369 55.5267 651.08 58.4279C651.037 58.8609 651.023 59.2939 651.023 59.7269C651.023 60.8672 650.965 61.993 650.792 63.1188C650.662 64.0137 650.705 64.9519 650.691 65.8757C650.676 67.016 650.662 68.1418 650.474 69.2676C650.344 70.0038 650.388 70.7688 650.388 71.5337V76.0804C650.388 76.8021 650.532 77.4516 650.965 78.0578C652.163 79.7177 652.538 81.5797 652.149 83.6004C651.903 84.8273 652.062 86.083 652.004 87.3243C651.918 89.3739 651.369 91.2503 650.214 92.9679C649.709 93.704 649.117 94.2958 648.367 94.7577C645.191 96.7351 641.9 96.3743 639.2 94.1082C637.656 92.8091 636.905 90.9761 636.775 88.9553C636.689 87.613 636.645 86.2562 636.934 84.9139C636.977 84.6974 637.006 84.4808 637.021 84.2788C637.151 82.3879 637.252 80.5116 637.41 78.6207C637.569 76.7443 637.771 74.8679 637.959 72.9771C638.103 71.4183 638.233 69.8594 638.378 68.3006C638.493 67.117 638.594 65.9334 638.738 64.7499C639.229 60.896 639.749 57.0422 640.225 53.1884C640.889 47.7613 641.856 42.3919 642.939 37.0514C644.411 29.7624 646.476 22.6754 649.348 15.8193C650.474 13.1202 651.643 10.4499 652.899 7.823C653.592 6.36518 654.473 4.99397 655.296 3.5939C656.205 2.00618 657.432 0.750439 659.164 0.0576172H660.781C661.113 0.230823 661.459 0.404028 661.791 0.577234C663.856 1.6742 664.548 3.66606 663.596 5.78783L663.567 5.7301Z" fill="white"/>
</g>
<defs>
<clipPath id="clip0_328_133">
<rect width="664" height="149" fill="white"/>
</clipPath>
</defs>
</svg>
