<svg xmlns="http://www.w3.org/2000/svg" fill="none" viewBox="0 0 1000 800"><path fill="#FF914D" d="M390.268 60.116h-80.015c-22.61 0-40.136 18.547-40.136 40.901 0 21.594 17.526 40.136 40.136 40.136v59.187c0 22.61 18.286 41.151 40.135 41.151 22.354 0 40.896-18.541 40.896-41.151l-.255-59.187c22.609 0 40.135-18.542 40.135-40.136 0-22.354-18.286-40.9-40.896-40.9Z"/><path fill="#FF914D" d="M567.825 240.731c22.099 0 40.391-18.037 40.391-40.391V100.257c0-22.104-18.292-40.14-40.391-40.14-22.609 0-40.896 18.036-40.896 40.14v9.141c0 2.796-2.541 5.338-5.588 5.338-3.052 0-5.589-2.542-5.589-5.338v-9.141c0-22.61-17.781-40.14-40.39-40.14-22.099 0-40.391 17.53-40.391 40.14V200.34c0 22.86 18.292 40.391 40.391 40.391 22.609 0 40.39-17.531 40.39-40.391v-8.635c0-3.052 2.537-5.589 5.589-5.589 3.047 0 5.588 2.537 5.588 5.589v8.635c0 22.354 18.287 40.391 40.896 40.391Z"/><path fill="#FF914D" d="M616.083 100.762v99.578c0 21.844 17.782 40.136 40.391 40.136h66.807c28.198 0 40.136-24.386 40.136-40.136 0-10.672-1.271-15.239-3.813-19.562-9.396 11.177-22.604 13.719-35.812 12.448-1.782 0-1.782-3.047 0-3.047 10.666-1.271 20.828-4.318 28.448-12.703 11.177-11.177 13.718-30.735 6.859-45.724-10.162 10.672-23.88 13.718-37.849 11.942-1.781-.765-1.781-3.302 0-3.302 15.24-.51 27.177-5.083 35.307-18.291 16.511-25.657-1.271-62.235-33.276-62.235h-66.302c-23.875 0-40.896 18.287-40.896 40.896Z"/><path stroke="#FF5757" stroke-width="9.526" d="M380.38 50.25h-80c-22.635 0-40.125 18.542-40.125 40.87 0 21.583 17.49 40.125 40.125 40.125v59.224c0 22.578 18.297 41.12 40.125 41.12 22.328 0 40.932-18.542 40.932-41.12l-.312-59.224c22.635 0 40.187-18.542 40.187-40.125 0-22.328-18.291-40.87-40.932-40.87Zm177.552 180.594c22.141 0 40.375-18.047 40.375-40.375V90.375c0-22.078-18.234-40.125-40.375-40.125-22.573 0-40.869 18.047-40.869 40.125v9.115c0 2.854-2.542 5.333-5.579 5.333-3.104 0-5.583-2.479-5.583-5.333v-9.115c0-22.635-17.802-40.125-40.437-40.125-22.079 0-40.37 17.49-40.37 40.125v100.094c0 22.823 18.291 40.375 40.37 40.375 22.635 0 40.437-17.552 40.437-40.375v-8.62c0-3.099 2.479-5.641 5.583-5.641 3.037 0 5.579 2.542 5.579 5.641v8.62c0 22.328 18.296 40.375 40.869 40.375ZM606.203 90.87v99.599c0 21.833 17.802 40.125 40.375 40.125h66.854c28.157 0 40.125-24.37 40.125-40.125 0-10.667-1.302-15.255-3.843-19.594-9.365 11.224-22.573 13.766-35.787 12.464-1.797 0-1.797-3.037 0-3.037 10.667-1.245 20.839-4.344 28.407-12.713 11.223-11.167 13.765-30.704 6.885-45.709-10.172 10.667-23.88 13.703-37.833 11.907-1.797-.745-1.797-3.287 0-3.287 15.255-.495 27.161-5.083 35.286-18.297 16.5-25.61-1.24-62.203-33.24-62.203h-66.359c-23.875 0-40.87 18.297-40.87 40.87Z"/><path fill="#F61067" d="m711.581 689.857 10.562-7.209c1.24-.724 2.459.646 1.464 1.438l-32.422 26.411c-3.021 20.479 10.677 34.323 29.838 39.36 19.412 5.104 42.912-7.37 48.464-28.495l25.443-96.797c9.432-35.87-31.99-65.146-63.078-41.797l-34.943 26.01-16.896-39.635c-15.594-35.62-66.052-30.495-75.484 5.375l-25.443 96.797c-5.552 21.125 8.781 43.542 28.187 48.646 18.917 4.968 37.896-.287 45.339-19.604l-15.24-38.938c-.661-1.49 1.25-1.771 1.98-.531l5.161 11.338c7.396 14.813 15.922 28.349 27.224 31.318 11.484 3.281 26.297-4.12 39.844-13.687Z"/><path stroke="#800639" stroke-width="9.526" d="m704.51 677.812 10.558-7.229c1.276-.692 2.463.646 1.489 1.417l-32.406 26.427c-3.016 20.5 10.656 34.354 29.854 39.396 19.37 5.094 42.854-7.396 48.401-28.505l25.448-96.808c9.427-35.87-31.932-65.146-63.068-41.843l-34.927 26.02-16.896-39.64c-15.588-35.584-66.057-30.448-75.484 5.422l-25.448 96.807c-5.552 21.115 8.755 43.531 28.188 48.641 18.896 4.968 37.911-.297 45.364-19.625l-15.276-38.964c-.646-1.453 1.282-1.713 1.99-.505l5.156 11.359c7.406 14.771 15.969 28.308 27.245 31.271 11.51 3.287 26.281-4.12 39.812-13.641Z"/><path fill="#F61067" d="M433.202 718.867c20.068 9.402 43.948 1.016 53.599-19.052l7.62-16.51-6.854-28.453c-.255-1.776 1.521-2.031 2.031-1.016l21.844 45.979c9.401 20.068 33.276 28.454 53.343 19.052 20.068-9.401 28.454-33.531 19.053-53.093l-48.516-102.115c-14.734-30.989-58.682-30.484-73.162.255l-48.01 101.86c-9.396 19.562-1.016 43.692 19.052 53.093Z"/><path stroke="#800639" stroke-width="9.526" d="M423.302 709.005c20.094 9.365 43.969.99 53.646-19.041l7.568-16.558L477.693 645c-.25-1.797 1.489-2.047 2.046-1.052l21.829 46.016c9.364 20.031 33.239 28.406 53.333 19.041 20.094-9.427 28.469-33.552 19.042-53.088l-48.5-102.146c-14.761-31.005-58.667-30.448-73.177.25L404.26 655.917c-9.364 19.536-.989 43.661 19.042 53.088Z"/><path fill="#F61067" d="M340.219 537.449c-21.625 5.677-34.114 28.125-28.5 49.505l13.932 53.068c.131.49-1.645 1.745-1.963.516-7.167-17.292-24.229-27.256-45.412-20.907-21.296 6.907-33.489 28.49-28.307 50.24 11.453 51.62 54.719 63.375 97.745 54.182 41.99-13.13 70.969-47.786 58.391-95.698-4.615-20.588-10.657-41.588-16.011-61.979-5.609-21.375-27.765-34.734-49.875-28.927Z"/><path stroke="#800639" stroke-width="9.526" d="M328.187 530.411c-21.656 5.683-34.161 28.136-28.557 49.495l13.937 53.083c.125.48-1.604 1.704-1.916.506-7.172-17.292-24.271-27.229-45.438-20.901-21.276 6.869-33.494 28.479-28.302 50.198 11.438 51.624 54.735 63.406 97.724 54.239 42.005-13.146 70.99-47.818 58.406-95.745-4.63-20.583-10.656-41.573-16.01-61.963-5.604-21.36-27.771-34.709-49.844-28.912Z"/><path fill="#38369A" d="m188.74 424.304 8.38-9.651c1.016-1.015 2.542 0 1.781 1.016l-24.64 33.786c2.286 20.579 19.052 30.485 38.864 30.485 20.068 0 39.625-18.037 39.625-39.886V339.971c0-37.088-47.5-54.87-71.63-24.385l-27.182 34.036-26.417-34.036c-24.136-30.485-71.636-12.703-71.636 24.385v100.083c0 21.849 19.558 39.886 39.625 39.886 19.563 0 36.584-9.906 38.865-30.485l-24.635-33.786c-1.021-1.271.76-2.031 1.776-1.016l7.875 9.651c10.922 12.448 22.609 23.375 34.291 23.375 11.943.25 24.386-10.671 35.058-23.375Z"/><path fill="#38369A" d="M282.465 475.112c20.068 9.401 43.948 1.015 53.599-19.052l7.62-16.511-6.855-28.453c-.255-1.776 1.521-2.031 2.032-1.016l21.843 45.98c9.401 20.067 33.276 28.453 53.344 19.052 20.068-9.401 28.453-33.532 19.052-53.094l-48.515-102.115c-14.735-30.989-58.683-30.484-73.162.256l-48.01 101.859c-9.396 19.562-1.016 43.693 19.052 53.094Z"/><path fill="#38369A" d="m552.994 309.487-42.422 42.422c-1.271 1.27-3.047-.506-2.541-1.776l14.734-21.084c-4.573-18.291-20.323-31.5-40.391-31.5-22.099 0-39.88 17.781-39.88 40.391v100.594c0 22.099 17.781 39.88 39.88 39.88 13.209 0 23.12-5.078 32.011-14.735l18.541-19.307 22.61 22.609c16 15.75 41.406 15.75 56.901 0 16.005-15.75 16.005-41.151 0-57.156l-22.609-22.604 20.067-20.578c16.005-16.005 16.005-41.406 0-57.156-15.495-15.75-40.896-15.75-56.901 0Z"/><path fill="#38369A" d="M629.195 338.7v99.578c0 21.844 17.781 40.136 40.39 40.136h66.808c28.198 0 40.135-24.386 40.135-40.136 0-10.672-1.271-15.239-3.812-19.562-9.396 11.177-22.605 13.719-35.813 12.448-1.781 0-1.781-3.047 0-3.047 10.667-1.271 20.828-4.318 28.448-12.703 11.177-11.177 13.719-30.735 6.859-45.724-10.161 10.672-23.88 13.719-37.849 11.943-1.781-.766-1.781-3.303 0-3.303 15.24-.51 27.178-5.083 35.308-18.291 16.51-25.656-1.271-62.235-33.276-62.235h-66.302c-23.875 0-40.896 18.287-40.896 40.896Z"/><path fill="#38369A" d="M823.263 478.924c22.099 0 39.375-16.515 40.646-37.854l21.844 25.912c13.718 18.546 41.151 15.75 55.63 1.27 14.479-14.479 16.515-35.817 5.083-52.073-6.604 7.62-14.479 12.954-22.865 16.766-1.52.76-2.791-1.781-1.52-2.542 19.302-13.463 30.989-35.307 30.989-60.203 0-39.88-32.26-72.146-72.146-72.146h-56.901c-22.604 0-41.151 17.787-41.151 40.141v99.573c0 22.609 18.547 41.156 40.391 41.156Zm45.219-116.854c5.333 0 9.14 4.573 9.14 9.906 0 5.339-3.807 9.401-9.14 9.401-2.037 0-3.302 0-4.573-.76v-17.276c1.271-.761 2.536-1.271 4.573-1.271Z"/><path stroke="#1E1C59" stroke-width="9.526" d="m178.839 414.453 8.375-9.672c1.052-.994 2.541 0 1.797.99l-24.62 33.802c2.297 20.589 19.041 30.51 38.885 30.51 20.031 0 39.568-18.046 39.568-39.875V330.109c0-37.083-47.443-54.885-71.63-24.432l-27.167 34.047-26.417-34.047C93.505 275.224 46 293.026 46 330.109v100.099c0 21.829 19.537 39.875 39.63 39.875 19.532 0 36.589-9.921 38.886-30.51l-24.688-33.802c-.99-1.24.807-1.984 1.802-.99l7.875 9.672c10.917 12.406 22.636 23.323 34.297 23.323 11.969.245 24.37-10.672 35.037-23.323Zm93.724 50.797c20.093 9.365 43.974.99 53.646-19.042l7.567-16.557-6.823-28.406c-.244-1.797 1.49-2.047 2.047-1.052l21.834 46.015c9.364 20.032 33.239 28.407 53.333 19.042 20.094-9.427 28.463-33.552 19.036-53.088l-48.494-102.146c-14.761-31.006-58.667-30.448-73.183.25l-48 101.896c-9.364 19.536-.995 43.661 19.037 53.088Zm270.568-165.651-42.422 42.422c-1.302 1.302-3.037-.5-2.542-1.74l14.698-21.083c-4.526-18.297-20.281-31.505-40.37-31.505-22.083 0-39.88 17.734-39.88 40.37v100.593c0 22.079 17.797 39.881 39.88 39.881 13.208 0 23.13-5.089 32-14.761l18.542-19.292 22.635 22.641c16 15.75 41.365 15.75 56.87 0 16-15.755 16-41.182 0-57.182l-22.573-22.573L600 356.781c16-16.005 16-41.432 0-57.182-15.505-15.755-40.869-15.755-56.869 0Zm76.187 29.208v99.605c0 21.828 17.797 40.125 40.37 40.125h66.854c28.156 0 40.125-24.375 40.125-40.125 0-10.672-1.302-15.261-3.844-19.599-9.364 11.224-22.573 13.765-35.781 12.463-1.802 0-1.802-3.036 0-3.036 10.667-1.24 20.839-4.344 28.401-12.714 11.224-11.167 13.771-30.698 6.886-45.708-10.172 10.666-23.875 13.708-37.834 11.906-1.797-.745-1.797-3.286 0-3.286 15.261-.495 27.167-5.084 35.292-18.297 16.495-25.61-1.24-62.203-33.245-62.203h-66.354c-23.88 0-40.87 18.296-40.87 40.869Zm194.058 140.224c22.14 0 39.38-16.5 40.682-37.833l21.828 25.927c13.708 18.542 41.12 15.75 55.63 1.24 14.453-14.453 16.5-35.787 5.089-52.094-6.636 7.625-14.516 12.958-22.886 16.802-1.489.745-2.791-1.797-1.489-2.542 19.286-13.458 30.948-35.286 30.948-60.218 0-39.875-32.25-72.125-72.125-72.125H814.12c-22.578 0-41.119 17.796-41.119 40.125v99.599c0 22.578 18.541 41.119 40.375 41.119Zm45.208-116.843c5.333 0 9.177 4.593 9.177 9.927 0 5.333-3.844 9.364-9.177 9.364-2.047 0-3.287 0-4.526-.745V353.49c1.239-.802 2.479-1.302 4.526-1.302Z"/><mask id="a" width="64" height="67" x="605" y="566" maskUnits="userSpaceOnUse" style="mask-type:luminance"><path fill="#fff" d="M605.417 566.302h62.666v66.667h-62.666v-66.667Z"/></mask><g mask="url(#a)"><mask id="b" width="62" height="66" x="606" y="567" maskUnits="userSpaceOnUse" style="mask-type:luminance"><path fill="#fff" d="m619.646 567.599 48.312 12.583-13.588 52.183-48.318-12.584 13.594-52.182Z"/></mask><g mask="url(#b)"><mask id="c" width="277" height="215" x="545" y="528" maskUnits="userSpaceOnUse" style="mask-type:luminance"><path fill="#fff" d="m585.474 528.839 235.776 61.406-39.766 152.672-235.771-61.407 39.761-152.671Z"/></mask><g mask="url(#c)"><path fill="#800639" d="M793.26 608.901a31.294 31.294 0 0 0-9.692-23.953 31.195 31.195 0 0 0-4.151-3.323 30.761 30.761 0 0 0-4.657-2.573 31.251 31.251 0 0 0-5.026-1.75l-18.781-4.891a31.93 31.93 0 0 0-4.255-.822 31.467 31.467 0 0 0-4.328-.235 32.439 32.439 0 0 0-4.323.37 31.718 31.718 0 0 0-4.224.964 31.34 31.34 0 0 0-7.86 3.614 31.61 31.61 0 0 0-6.573 5.63 17.423 17.423 0 0 1-3.697 3.131 17.597 17.597 0 0 1-14.011 2.135l-10.344-2.693a17.769 17.769 0 0 1-4.536-1.859 17.518 17.518 0 0 1-3.854-3.037 17.398 17.398 0 0 1-2.875-3.974 17.496 17.496 0 0 1-1.677-4.609 30.653 30.653 0 0 0-1.229-4.125 31.86 31.86 0 0 0-1.787-3.922 32.131 32.131 0 0 0-2.307-3.635 30.923 30.923 0 0 0-2.787-3.281 31.235 31.235 0 0 0-6.786-5.277 31.428 31.428 0 0 0-7.964-3.223l-18.776-4.891a31.332 31.332 0 0 0-10.562-.953 31.3 31.3 0 0 0-10.271 2.63 31.24 31.24 0 0 0-4.651 2.583 31.185 31.185 0 0 0-7.672 7.318 31.18 31.18 0 0 0-2.797 4.526l-41.713 84.958c-.422.86-.802 1.74-1.141 2.641a29.232 29.232 0 0 0-.885 2.734 31.49 31.49 0 0 0-.625 2.808 30.656 30.656 0 0 0-.443 5.724c.021.958.083 1.916.187 2.869a30.79 30.79 0 0 0 1.183 5.625c.281.912.609 1.813.979 2.698.37.886.781 1.756 1.234 2.599.448.849.943 1.672 1.469 2.469a32.263 32.263 0 0 0 1.698 2.323 31.05 31.05 0 0 0 1.911 2.146 31.35 31.35 0 0 0 2.104 1.958c.735.62 1.495 1.203 2.282 1.755a29.917 29.917 0 0 0 2.432 1.526 31.867 31.867 0 0 0 9.958 3.787c1.756.344 3.526.542 5.313.588a32.011 32.011 0 0 0 5.333-.317 31.365 31.365 0 0 0 5.209-1.209 31.524 31.524 0 0 0 9.442-4.927 31.935 31.935 0 0 0 3.969-3.583l16.224-17.714a17.743 17.743 0 0 1 3.693-3.046 17.734 17.734 0 0 1 4.369-1.943 17.772 17.772 0 0 1 4.735-.698 17.802 17.802 0 0 1 4.75.599l63.672 16.583a17.649 17.649 0 0 1 8.229 4.719 17.487 17.487 0 0 1 2.87 3.828 17.445 17.445 0 0 1 1.739 4.458l5.516 23.37a31.613 31.613 0 0 0 4.265 9.761 31.547 31.547 0 0 0 3.297 4.203 32.436 32.436 0 0 0 3.953 3.594 32.115 32.115 0 0 0 4.506 2.875 31.655 31.655 0 0 0 10.119 3.307c1.771.265 3.547.375 5.334.338a31.265 31.265 0 0 0 2.87-.145 30.557 30.557 0 0 0 2.843-.417 30.586 30.586 0 0 0 2.797-.688c.917-.27 1.823-.583 2.714-.942a30.796 30.796 0 0 0 5.104-2.636 29.62 29.62 0 0 0 2.344-1.666 29.845 29.845 0 0 0 2.177-1.881 31.08 31.08 0 0 0 1.984-2.073 32.554 32.554 0 0 0 1.787-2.255 31.794 31.794 0 0 0 1.562-2.416c.479-.829.922-1.678 1.323-2.553a29.74 29.74 0 0 0 1.906-5.416c.235-.932.422-1.87.563-2.818.14-.953.239-1.906.291-2.864l5.021-94.511Zm-35.724 109.901a18.15 18.15 0 0 1-3.01-.182 18.021 18.021 0 0 1-5.719-1.865 17.805 17.805 0 0 1-4.771-3.651 17.761 17.761 0 0 1-1.859-2.375 17.7 17.7 0 0 1-2.401-5.515l-5.511-23.36a31.622 31.622 0 0 0-1.27-4.057 30.87 30.87 0 0 0-1.808-3.849 30.251 30.251 0 0 0-2.312-3.568 30.417 30.417 0 0 0-2.776-3.224 31.433 31.433 0 0 0-3.182-2.817 32.18 32.18 0 0 0-3.537-2.36 31.835 31.835 0 0 0-7.865-3.182l-63.671-16.583a31.655 31.655 0 0 0-8.417-1.058 31.339 31.339 0 0 0-4.24.328 31.542 31.542 0 0 0-4.156.907 31.567 31.567 0 0 0-7.75 3.442 31.62 31.62 0 0 0-3.458 2.48 30.984 30.984 0 0 0-3.089 2.921l-16.213 17.709a17.657 17.657 0 0 1-2.24 2.021 18.01 18.01 0 0 1-2.547 1.614 18.073 18.073 0 0 1-5.719 1.844c-1 .146-2 .203-3.01.177a18.081 18.081 0 0 1-2.995-.328 17.645 17.645 0 0 1-2.901-.828 18.238 18.238 0 0 1-2.719-1.302 17.071 17.071 0 0 1-4.927-4.167 17.536 17.536 0 0 1-1.786-2.698 17.472 17.472 0 0 1-1.25-2.989 17.358 17.358 0 0 1-.667-3.172 17.283 17.283 0 0 1-.057-3.24 17.078 17.078 0 0 1 1.698-6.224l41.708-84.963a17.647 17.647 0 0 1 5.906-6.683 17.524 17.524 0 0 1 5.459-2.448 18.413 18.413 0 0 1 2.958-.494 18.053 18.053 0 0 1 3.005.015c1 .094 1.985.266 2.953.526l18.777 4.891a17.45 17.45 0 0 1 4.541 1.859 17.49 17.49 0 0 1 3.854 3.031 17.521 17.521 0 0 1 2.875 3.974 17.694 17.694 0 0 1 1.677 4.61 31.244 31.244 0 0 0 5.323 11.682 31.227 31.227 0 0 0 9.573 8.557 31.324 31.324 0 0 0 3.87 1.891c1.333.536 2.698.984 4.094 1.333l10.338 2.698a31.805 31.805 0 0 0 8.589 1.058 32.379 32.379 0 0 0 4.318-.37 31.825 31.825 0 0 0 4.229-.964 31.13 31.13 0 0 0 4.052-1.536 31.327 31.327 0 0 0 3.807-2.078 31.458 31.458 0 0 0 6.568-5.631 17.652 17.652 0 0 1 8.114-5.14 17.59 17.59 0 0 1 9.61-.12l18.776 4.891c.974.244 1.917.573 2.833.984a17.42 17.42 0 0 1 4.974 3.328 17.426 17.426 0 0 1 1.99 2.245 17.781 17.781 0 0 1 1.583 2.552 17.604 17.604 0 0 1 1.76 5.714c.131.994.172 1.994.131 3l-5.026 94.515a17.053 17.053 0 0 1-1.558 6.261c-.453.984-1 1.916-1.63 2.802a17.236 17.236 0 0 1-7.562 5.927 17.327 17.327 0 0 1-3.11.916c-1.062.209-2.14.313-3.224.313v.005Z"/></g></g></g><mask id="d" width="45" height="45" x="614" y="575" maskUnits="userSpaceOnUse" style="mask-type:luminance"><path fill="#fff" d="M614.75 575.635h44v44h-44v-44Z"/></mask><g mask="url(#d)"><mask id="e" width="62" height="66" x="606" y="567" maskUnits="userSpaceOnUse" style="mask-type:luminance"><path fill="#fff" d="m619.646 567.599 48.312 12.583-13.588 52.183-48.318-12.584 13.594-52.182Z"/></mask><g mask="url(#e)"><mask id="f" width="277" height="215" x="545" y="528" maskUnits="userSpaceOnUse" style="mask-type:luminance"><path fill="#fff" d="m585.474 528.839 235.776 61.406-39.766 152.672-235.771-61.407 39.761-152.671Z"/></mask><g mask="url(#f)"><path fill="#800639" d="m648.552 580.255-13.208-3.437-3.37 12.942-13.229-3.448-3.365 12.933 13.224 3.442-3.365 12.928 13.209 3.442 3.37-12.932 13.224 3.448 3.364-12.927-13.224-3.448 3.37-12.943Z"/></g></g></g><mask id="g" width="65" height="66" x="714" y="599" maskUnits="userSpaceOnUse" style="mask-type:luminance"><path fill="#fff" d="M714.75 599.635h64v65.334h-64v-65.334Z"/></mask><g mask="url(#g)"><mask id="h" width="63" height="66" x="715" y="599" maskUnits="userSpaceOnUse" style="mask-type:luminance"><path fill="#fff" d="m729.302 599.859 48.234 12.901-13.932 52.089-48.234-12.901 13.932-52.089Z"/></mask><g mask="url(#h)"><mask id="i" width="277" height="216" x="542" y="528" maskUnits="userSpaceOnUse" style="mask-type:luminance"><path fill="#fff" d="m583.489 528.401 235.365 62.958-40.771 152.407-235.364-62.959 40.77-152.406Z"/></mask><g mask="url(#i)"><path fill="#800639" d="M790.739 609.828a30.79 30.79 0 0 0-.197-5.318 31.21 31.21 0 0 0-3.058-10.151 31.522 31.522 0 0 0-2.771-4.541 31.647 31.647 0 0 0-3.505-4.006 31.165 31.165 0 0 0-4.13-3.354 31.23 31.23 0 0 0-4.641-2.599 30.575 30.575 0 0 0-5.015-1.781l-18.745-5.016a31.944 31.944 0 0 0-4.25-.854 31.647 31.647 0 0 0-4.328-.26c-1.448.015-2.891.13-4.323.344a31.094 31.094 0 0 0-8.297 2.442 30.962 30.962 0 0 0-3.818 2.058 31.07 31.07 0 0 0-6.609 5.583 17.443 17.443 0 0 1-3.719 3.109 17.634 17.634 0 0 1-4.427 1.974 17.301 17.301 0 0 1-4.797.698 17.402 17.402 0 0 1-4.802-.635l-10.323-2.761a17.363 17.363 0 0 1-4.526-1.89 17.523 17.523 0 0 1-3.833-3.058 17.506 17.506 0 0 1-2.849-3.994c-.766-1.464-1.313-3-1.646-4.62a31.282 31.282 0 0 0-2.963-8.068 31.451 31.451 0 0 0-5.047-6.953c-1-1.036-2.063-2-3.193-2.891a31.571 31.571 0 0 0-7.417-4.338c-1.328-.547-2.692-1-4.083-1.365l-18.745-5.015a31.36 31.36 0 0 0-10.552-1.021c-1.776.13-3.526.411-5.255.844a31.78 31.78 0 0 0-5.037 1.718 31.576 31.576 0 0 0-8.838 5.854 30.92 30.92 0 0 0-3.547 3.969 30.812 30.812 0 0 0-2.828 4.505l-42.276 84.683a29.99 29.99 0 0 0-2.057 5.359 30.158 30.158 0 0 0-.646 2.802 32.556 32.556 0 0 0-.375 2.849 31.035 31.035 0 0 0-.104 2.875c.01.958.067 1.917.166 2.87.104.953.25 1.901.438 2.844.192.937.427 1.869.708 2.786.276.917.599 1.823.964 2.708.364.891.765 1.756 1.213 2.605.448.854.932 1.677 1.458 2.479a28.572 28.572 0 0 0 1.683 2.333c.593.75 1.229 1.469 1.896 2.162a29.943 29.943 0 0 0 4.359 3.739 29.17 29.17 0 0 0 2.422 1.542 31.239 31.239 0 0 0 4.802 2.349 31.946 31.946 0 0 0 5.13 1.505 31.865 31.865 0 0 0 10.646.344 31.404 31.404 0 0 0 5.213-1.177 31.18 31.18 0 0 0 4.943-2.032 31.592 31.592 0 0 0 4.537-2.833 31.904 31.904 0 0 0 3.989-3.557l16.344-17.604a17.373 17.373 0 0 1 3.708-3.021 17.614 17.614 0 0 1 13.865-1.953l63.562 17.005a17.36 17.36 0 0 1 4.427 1.823 17.625 17.625 0 0 1 6.62 6.791 17.747 17.747 0 0 1 1.709 4.474l5.359 23.407a32.042 32.042 0 0 0 1.688 5.067 30.97 30.97 0 0 0 2.515 4.714 31.338 31.338 0 0 0 3.266 4.229 32.308 32.308 0 0 0 3.932 3.62 32.416 32.416 0 0 0 4.484 2.906 31.93 31.93 0 0 0 4.907 2.115c1.698.562 3.427.984 5.192 1.26 1.766.271 3.547.396 5.334.37.958 0 1.916-.042 2.87-.13a30.156 30.156 0 0 0 5.645-1.063 29.206 29.206 0 0 0 2.719-.927 29.706 29.706 0 0 0 2.625-1.177 29.42 29.42 0 0 0 2.5-1.422 30.08 30.08 0 0 0 2.354-1.651 32.232 32.232 0 0 0 2.188-1.864 31.407 31.407 0 0 0 2-2.063 31.09 31.09 0 0 0 1.797-2.245 29.721 29.721 0 0 0 1.578-2.406c.489-.823.937-1.672 1.344-2.542a28.03 28.03 0 0 0 1.098-2.656 30.87 30.87 0 0 0 .844-2.75c.24-.927.433-1.864.578-2.812.151-.948.256-1.901.313-2.86l5.64-94.479Zm-36.442 109.667a17.616 17.616 0 0 1-3.011-.209c-1-.151-1.974-.385-2.932-.708a17.67 17.67 0 0 1-5.302-2.828 17.612 17.612 0 0 1-2.224-2.047 18.33 18.33 0 0 1-1.844-2.385 18.03 18.03 0 0 1-2.359-5.526l-5.359-23.401a30.76 30.76 0 0 0-1.24-4.063 32 32 0 0 0-1.781-3.865 32.038 32.038 0 0 0-2.292-3.583 31.882 31.882 0 0 0-2.75-3.239 32.037 32.037 0 0 0-3.167-2.839 30.843 30.843 0 0 0-3.526-2.38 31.18 31.18 0 0 0-3.807-1.886 31.85 31.85 0 0 0-4.036-1.349l-63.558-17a30.885 30.885 0 0 0-8.411-1.119 31.143 31.143 0 0 0-4.24.307c-1.406.198-2.791.49-4.161.875a31.008 31.008 0 0 0-4 1.432 31.183 31.183 0 0 0-3.776 1.959 30.365 30.365 0 0 0-3.469 2.458 30.245 30.245 0 0 0-3.109 2.901l-16.329 17.604a18.147 18.147 0 0 1-4.812 3.599c-.896.458-1.828.839-2.792 1.146-.958.302-1.942.521-2.937.661-1 .136-2.005.188-3.011.157a18.085 18.085 0 0 1-5.89-1.193 18.15 18.15 0 0 1-2.714-1.323 17.246 17.246 0 0 1-2.646-1.865 17.29 17.29 0 0 1-2.25-2.333 16.99 16.99 0 0 1-1.77-2.713 16.856 16.856 0 0 1-1.23-2.995 17.035 17.035 0 0 1-.645-3.177 17.279 17.279 0 0 1-.037-3.24c.094-1.083.281-2.146.573-3.187a17.24 17.24 0 0 1 1.167-3.026l42.265-84.683a17.45 17.45 0 0 1 3.599-4.781 17.55 17.55 0 0 1 4.985-3.302 17.828 17.828 0 0 1 2.843-.974 17.72 17.72 0 0 1 2.964-.474c1-.073 2-.063 3 .036 1 .094 1.984.276 2.953.542l18.745 5.016a17.669 17.669 0 0 1 4.526 1.885 17.694 17.694 0 0 1 3.833 3.063 17.653 17.653 0 0 1 4.495 8.614 31.08 31.08 0 0 0 2.964 8.063 31.02 31.02 0 0 0 5.046 6.953c1 1.036 2.063 2.005 3.193 2.89a31.046 31.046 0 0 0 7.417 4.339 31.369 31.369 0 0 0 4.083 1.37l10.323 2.76c1.396.38 2.813.667 4.25.854 1.438.188 2.88.271 4.328.261a31.595 31.595 0 0 0 8.557-1.276 31.244 31.244 0 0 0 4.063-1.511 30.956 30.956 0 0 0 3.818-2.057 30.744 30.744 0 0 0 3.5-2.562 31.663 31.663 0 0 0 3.109-3.021 17.624 17.624 0 0 1 12.948-5.782 17.67 17.67 0 0 1 4.807.636l18.745 5.016c.974.255 1.917.588 2.828 1.005.917.411 1.787.901 2.62 1.468a17.314 17.314 0 0 1 2.328 1.891 17.31 17.31 0 0 1 1.979 2.255 17.927 17.927 0 0 1 1.563 2.563c.448.901.817 1.828 1.109 2.791.287.964.495 1.943.615 2.938.125.995.161 1.995.114 3l-5.651 94.479a17.016 17.016 0 0 1-1.599 6.25 16.663 16.663 0 0 1-1.651 2.792 16.956 16.956 0 0 1-2.14 2.427 16.869 16.869 0 0 1-2.568 1.984 17.077 17.077 0 0 1-9.229 2.657v.005Z"/></g></g></g><mask id="j" width="15" height="15" x="736" y="606" maskUnits="userSpaceOnUse" style="mask-type:luminance"><path fill="#fff" d="M736.083 606.302h14.667v14.667h-14.667v-14.667Z"/></mask><g mask="url(#j)"><mask id="k" width="63" height="66" x="715" y="599" maskUnits="userSpaceOnUse" style="mask-type:luminance"><path fill="#fff" d="m729.302 599.859 48.234 12.901-13.932 52.089-48.234-12.901 13.932-52.089Z"/></mask><g mask="url(#k)"><mask id="l" width="277" height="216" x="542" y="528" maskUnits="userSpaceOnUse" style="mask-type:luminance"><path fill="#fff" d="m583.489 528.401 235.365 62.958-40.771 152.407-235.364-62.959 40.77-152.406Z"/></mask><g mask="url(#l)"><path fill="#800639" d="M741.755 619.63a6.745 6.745 0 0 0 2.589.115 7.05 7.05 0 0 0 1.265-.323 6.95 6.95 0 0 0 1.177-.563 6.364 6.364 0 0 0 1.047-.781c.323-.292.615-.614.875-.963.255-.355.479-.724.667-1.12.187-.396.333-.802.443-1.229a6.699 6.699 0 0 0-.183-3.855 6.62 6.62 0 0 0-1.323-2.234 6.603 6.603 0 0 0-2.073-1.557 6.458 6.458 0 0 0-1.224-.453 6.687 6.687 0 0 0-2.588-.151 6.997 6.997 0 0 0-1.271.302 6.598 6.598 0 0 0-1.182.547 6.672 6.672 0 0 0-1.948 1.713 6.77 6.77 0 0 0-.688 1.11 7.014 7.014 0 0 0-.458 1.223 6.553 6.553 0 0 0-.198 1.308 6.652 6.652 0 0 0 .375 2.609c.146.417.333.818.557 1.198.23.385.49.74.787 1.068a6.658 6.658 0 0 0 2.109 1.583 6.43 6.43 0 0 0 1.245.453Z"/></g></g></g><mask id="m" width="16" height="15" x="745" y="622" maskUnits="userSpaceOnUse" style="mask-type:luminance"><path fill="#fff" d="M745.417 622.302h14.666v14.667h-14.666v-14.667Z"/></mask><g mask="url(#m)"><mask id="n" width="63" height="66" x="715" y="599" maskUnits="userSpaceOnUse" style="mask-type:luminance"><path fill="#fff" d="m729.302 599.859 48.234 12.901-13.932 52.089-48.234-12.901 13.932-52.089Z"/></mask><g mask="url(#n)"><mask id="o" width="277" height="216" x="542" y="528" maskUnits="userSpaceOnUse" style="mask-type:luminance"><path fill="#fff" d="m583.489 528.401 235.365 62.958-40.771 152.407-235.364-62.959 40.77-152.406Z"/></mask><g mask="url(#o)"><path fill="#800639" d="M759.823 631.375a6.51 6.51 0 0 1-1.162 2.339 6.88 6.88 0 0 1-.911.953 6.832 6.832 0 0 1-1.078.755 6.825 6.825 0 0 1-1.219.536 6.822 6.822 0 0 1-2.635.328 6.726 6.726 0 0 1-1.323-.223 6.915 6.915 0 0 1-2.396-1.167 6.87 6.87 0 0 1-1.766-1.969 6.756 6.756 0 0 1-.87-2.479 6.488 6.488 0 0 1-.052-1.307c.026-.443.099-.87.209-1.297.114-.422.271-.828.463-1.224.198-.391.433-.761.703-1.11a6.545 6.545 0 0 1 1.99-1.708 6.77 6.77 0 0 1 2.516-.828c.442-.057.89-.068 1.333-.036.448.031.891.104 1.323.218.432.12.854.276 1.255.469.401.198.781.432 1.141.698a7.058 7.058 0 0 1 1.765 1.974c.229.38.412.781.563 1.198.146.416.25.844.307 1.276.063.437.083.875.052 1.312a6.4 6.4 0 0 1-.208 1.292Z"/></g></g></g><mask id="p" width="16" height="16" x="729" y="631" maskUnits="userSpaceOnUse" style="mask-type:luminance"><path fill="#fff" d="M729.417 631.635h14.666v14.667h-14.666v-14.667Z"/></mask><g mask="url(#p)"><mask id="q" width="63" height="66" x="715" y="599" maskUnits="userSpaceOnUse" style="mask-type:luminance"><path fill="#fff" d="m729.302 599.859 48.234 12.901-13.932 52.089-48.234-12.901 13.932-52.089Z"/></mask><g mask="url(#q)"><mask id="r" width="277" height="216" x="542" y="528" maskUnits="userSpaceOnUse" style="mask-type:luminance"><path fill="#fff" d="m583.489 528.401 235.365 62.958-40.771 152.407-235.364-62.959 40.77-152.406Z"/></mask><g mask="url(#r)"><path fill="#800639" d="M738.302 632.531a7.219 7.219 0 0 0-1.292-.182 6.376 6.376 0 0 0-1.302.073 6.566 6.566 0 0 0-2.443.88 6.574 6.574 0 0 0-1.046.781 6.701 6.701 0 0 0-2.177 4.599c-.021.438 0 .875.062 1.308a6.68 6.68 0 0 0 .865 2.447 6.3 6.3 0 0 0 .77 1.047c.292.328.61.62.959.886a6.647 6.647 0 0 0 2.338 1.125 6.776 6.776 0 0 0 2.594.156 6.567 6.567 0 0 0 1.266-.307 6.568 6.568 0 0 0 2.244-1.308c.329-.286.62-.604.886-.953s.495-.713.687-1.109a6.4 6.4 0 0 0 .459-1.219 6.591 6.591 0 0 0 .14-2.635 6.86 6.86 0 0 0-.312-1.287 6.442 6.442 0 0 0-.563-1.198 6.52 6.52 0 0 0-.781-1.067 6.585 6.585 0 0 0-.979-.896 6.738 6.738 0 0 0-1.13-.688 7.657 7.657 0 0 0-1.245-.453Z"/></g></g></g><mask id="s" width="15" height="16" x="720" y="615" maskUnits="userSpaceOnUse" style="mask-type:luminance"><path fill="#fff" d="M720.083 615.635h14.667v14.667h-14.667v-14.667Z"/></mask><g mask="url(#s)"><mask id="t" width="63" height="66" x="715" y="599" maskUnits="userSpaceOnUse" style="mask-type:luminance"><path fill="#fff" d="m729.302 599.859 48.234 12.901-13.932 52.089-48.234-12.901 13.932-52.089Z"/></mask><g mask="url(#t)"><mask id="u" width="277" height="216" x="542" y="528" maskUnits="userSpaceOnUse" style="mask-type:luminance"><path fill="#fff" d="m583.489 528.401 235.365 62.958-40.771 152.407-235.364-62.959 40.77-152.406Z"/></mask><g mask="url(#u)"><path fill="#800639" d="M728.557 616.099a6.834 6.834 0 0 0-2.594-.115 6.51 6.51 0 0 0-1.26.323 6.46 6.46 0 0 0-1.177.563 6.63 6.63 0 0 0-1.047.776c-.323.297-.615.62-.875.969a6.586 6.586 0 0 0-1.109 2.343c-.11.427-.172.854-.193 1.292a6.44 6.44 0 0 0 .057 1.302 6.656 6.656 0 0 0 .865 2.448 6.64 6.64 0 0 0 1.734 1.932c.349.261.719.49 1.115.677a6.2 6.2 0 0 0 1.224.448c.422.115.849.177 1.286.203.432.026.87.011 1.302-.047a6.55 6.55 0 0 0 1.266-.307 6.587 6.587 0 0 0 2.245-1.307c.328-.287.625-.604.885-.953.266-.344.495-.714.688-1.11a6.362 6.362 0 0 0 .661-2.526 6.654 6.654 0 0 0-.062-1.323 6.762 6.762 0 0 0-.313-1.286 6.485 6.485 0 0 0-.562-1.203 6.755 6.755 0 0 0-.782-1.068 6.884 6.884 0 0 0-2.109-1.578 6.678 6.678 0 0 0-1.245-.453Z"/></g></g></g><mask id="v" width="65" height="65" x="307" y="325" maskUnits="userSpaceOnUse" style="mask-type:luminance"><path fill="#fff" d="M307.469 325.615h63.901v63.906h-63.901v-63.906Z"/></mask><g mask="url(#v)"><path fill="#C7E8F3" d="M371.37 357.568a31.557 31.557 0 0 1-.61 6.234 32.062 32.062 0 0 1-1.823 5.995 31.908 31.908 0 0 1-2.953 5.526 31.566 31.566 0 0 1-3.969 4.838 32.785 32.785 0 0 1-2.328 2.11 31.55 31.55 0 0 1-2.515 1.864c-.87.584-1.766 1.12-2.693 1.615-.922.49-1.865.938-2.833 1.339-.964.401-1.948.755-2.953 1.057a32.658 32.658 0 0 1-6.141 1.224 33.166 33.166 0 0 1-3.136.151c-1.041 0-2.088-.052-3.13-.151a32.707 32.707 0 0 1-6.14-1.224 30.467 30.467 0 0 1-2.953-1.057 33.391 33.391 0 0 1-2.839-1.339 31.822 31.822 0 0 1-2.688-1.615 31.55 31.55 0 0 1-2.515-1.864 33.005 33.005 0 0 1-2.328-2.11 31.533 31.533 0 0 1-2.104-2.322 32.649 32.649 0 0 1-1.87-2.516 33.529 33.529 0 0 1-1.61-2.693 30.126 30.126 0 0 1-1.338-2.833 31.654 31.654 0 0 1-1.057-2.953c-.308-1-.558-2.016-.766-3.042a32.64 32.64 0 0 1-.458-3.099 31.257 31.257 0 0 1-.151-3.135c0-1.047.046-2.089.151-3.13.104-1.042.255-2.079.458-3.105a32.126 32.126 0 0 1 1.823-5.989 30.23 30.23 0 0 1 1.338-2.839 33.418 33.418 0 0 1 1.61-2.687 33.528 33.528 0 0 1 1.87-2.521 32.82 32.82 0 0 1 2.104-2.323 31.516 31.516 0 0 1 2.328-2.104 31.38 31.38 0 0 1 5.203-3.479 31.97 31.97 0 0 1 2.839-1.344c.963-.401 1.947-.75 2.953-1.052a30.6 30.6 0 0 1 3.041-.766 32.688 32.688 0 0 1 3.099-.458 31.552 31.552 0 0 1 6.266 0 32.64 32.64 0 0 1 3.099.458c1.026.203 2.042.459 3.042.766a31.34 31.34 0 0 1 5.786 2.396 31.073 31.073 0 0 1 5.208 3.479 31.315 31.315 0 0 1 4.433 4.427 32.39 32.39 0 0 1 1.864 2.521c.584.87 1.12 1.765 1.615 2.687.495.922.942 1.87 1.338 2.839.401.963.756 1.948 1.058 2.948.307 1.005.557 2.015.765 3.041.203 1.026.354 2.063.459 3.105.104 1.041.151 2.083.151 3.13Z"/></g><mask id="w" width="65" height="64" x="834" y="330" maskUnits="userSpaceOnUse" style="mask-type:luminance"><path fill="#fff" d="M834.338 330.031h63.907v63.901h-63.907v-63.901Z"/></mask><g mask="url(#w)"><path fill="#C7E8F3" d="M898.245 361.984a32.688 32.688 0 0 1-.615 6.23 31.747 31.747 0 0 1-.766 3.041 31.932 31.932 0 0 1-1.052 2.953 32.244 32.244 0 0 1-2.953 5.526 32.456 32.456 0 0 1-1.87 2.516 30.346 30.346 0 0 1-2.104 2.328 32.385 32.385 0 0 1-2.323 2.104 33.716 33.716 0 0 1-2.52 1.87 33.136 33.136 0 0 1-2.688 1.609c-.927.495-1.87.943-2.839 1.339a31.94 31.94 0 0 1-5.994 1.823 32.688 32.688 0 0 1-3.099.458 31.471 31.471 0 0 1-3.13.151 31.577 31.577 0 0 1-6.235-.609 31.767 31.767 0 0 1-3.042-.766 31.149 31.149 0 0 1-2.953-1.057 30.003 30.003 0 0 1-2.833-1.339 32.387 32.387 0 0 1-2.693-1.609 32.632 32.632 0 0 1-4.838-3.974 31.725 31.725 0 0 1-3.974-4.844 31.646 31.646 0 0 1-1.615-2.687 31.917 31.917 0 0 1-1.338-2.839 30.569 30.569 0 0 1-1.058-2.953c-.302-1-.557-2.015-.76-3.041a31.465 31.465 0 0 1-.464-3.099 33.141 33.141 0 0 1-.151-3.131c0-1.047.052-2.093.151-3.135a31.42 31.42 0 0 1 .464-3.099c.203-1.026.458-2.042.76-3.042a30.665 30.665 0 0 1 1.058-2.953c.401-.969.843-1.911 1.338-2.833a31.133 31.133 0 0 1 1.615-2.693 31.37 31.37 0 0 1 3.974-4.838 31.55 31.55 0 0 1 4.838-3.974c.87-.584 1.766-1.12 2.693-1.615a31.289 31.289 0 0 1 2.833-1.338 30.88 30.88 0 0 1 2.953-1.058c1-.307 2.016-.557 3.042-.76a31.125 31.125 0 0 1 6.235-.615 31.17 31.17 0 0 1 6.229.615c1.031.203 2.041.453 3.047.76 1 .302 1.984.656 2.947 1.058.969.401 1.912.843 2.839 1.338a32.565 32.565 0 0 1 5.208 3.479 31.545 31.545 0 0 1 2.323 2.11c.74.739 1.443 1.51 2.104 2.323a32.44 32.44 0 0 1 1.87 2.515 32.674 32.674 0 0 1 2.953 5.526c.396.964.75 1.948 1.052 2.953.308 1 .558 2.016.766 3.042a32.64 32.64 0 0 1 .615 6.234Z"/></g><mask id="x" width="43" height="45" x="846" y="343" maskUnits="userSpaceOnUse" style="mask-type:luminance"><path fill="#fff" d="M846.75 343.635h41.333v44H846.75v-44Z"/></mask><g mask="url(#x)"><mask id="y" width="59" height="52" x="840" y="342" maskUnits="userSpaceOnUse" style="mask-type:luminance"><path fill="#fff" d="m840.687 358.901 45.026-16.427 12.667 34.703-45.026 16.432-12.667-34.708Z"/></mask><g mask="url(#y)"><mask id="z" width="59" height="52" x="840" y="342" maskUnits="userSpaceOnUse" style="mask-type:luminance"><path fill="#fff" d="m840.687 358.901 45.026-16.427 12.667 34.703-45.026 16.432-12.667-34.708Z"/></mask><g mask="url(#z)"><path fill="#3B2D9B" d="m884.187 344.448-.354-.104a4.564 4.564 0 0 0-3.401.198c-1.078.505-1.911 1.354-2.333 2.479l-5.427 14.323-3.157 8.646-2.312 6.317-3.849-1.896-2.151-1.041-7.568-3.641c-1.099-.531-2.297-.562-3.432-.224-1.073.313-2.021 1.167-2.547 2.214l-.182.375c-1.141 2.161-.203 4.849 1.963 5.922l7.485 3.635 2.177 1.104 8.63 4.188c.995.453 2.146.578 3.099.265.068-.026.068-.026.104-.036.068-.026.104-.037.208-.078l.073-.026c.172-.063.313-.11.521-.188 1.078-.51 1.912-1.359 2.328-2.479l5.36-14.302 2.067-5.682 5.355-14.302c.828-2.282-.334-4.808-2.657-5.667Z"/></g></g></g><mask id="A" width="51" height="51" x="314" y="332" maskUnits="userSpaceOnUse" style="mask-type:luminance"><path fill="#fff" d="M314.75 332.969h49.333v49.333H314.75v-49.333Z"/></mask><g mask="url(#A)"><mask id="B" width="57" height="58" x="311" y="329" maskUnits="userSpaceOnUse" style="mask-type:luminance"><path fill="#fff" d="m330.656 329.646 37.193 19.38-19.38 37.188-37.193-19.381 19.38-37.187Z"/></mask><g mask="url(#B)"><mask id="C" width="57" height="58" x="311" y="329" maskUnits="userSpaceOnUse" style="mask-type:luminance"><path fill="#fff" d="m330.656 329.646 37.193 19.38-19.38 37.188-37.193-19.381 19.38-37.187Z"/></mask><g mask="url(#C)"><path fill="#3B2D9B" d="m349.042 362.844 11.64-3.667a4.26 4.26 0 0 0 1.464-.807 4.238 4.238 0 0 0 1.047-1.302 4.174 4.174 0 0 0 .468-1.604 4.196 4.196 0 0 0-.177-1.667l-1.958-6.234a4.4 4.4 0 0 0-2.125-2.48 4.397 4.397 0 0 0-3.25-.323l-11.641 3.672-3.656-11.64a4.422 4.422 0 0 0-.823-1.448 4.384 4.384 0 0 0-2.896-1.505 4.31 4.31 0 0 0-1.656.151l-6.234 1.968a4.26 4.26 0 0 0-2.511 2.11 4.145 4.145 0 0 0-.469 1.604c-.052.568.006 1.12.178 1.661l3.661 11.646-11.641 3.667a4.325 4.325 0 0 0-1.468.807 4.358 4.358 0 0 0-1.047 1.302 4.335 4.335 0 0 0-.469 1.61c-.047.562.01 1.119.182 1.661l1.959 6.234a4.407 4.407 0 0 0 2.125 2.48 4.397 4.397 0 0 0 3.25.323l11.64-3.672 3.657 11.64a4.274 4.274 0 0 0 3.708 2.985 4.292 4.292 0 0 0 1.667-.183l6.234-1.968a4.199 4.199 0 0 0 1.463-.802 4.32 4.32 0 0 0 1.516-2.912 4.269 4.269 0 0 0-.177-1.661l-3.661-11.646Z"/></g></g></g><mask id="D" width="32" height="30" x="798" y="363" maskUnits="userSpaceOnUse" style="mask-type:luminance"><path fill="#fff" d="M798.75 363.635h30.667v29.334H798.75v-29.334Z"/></mask><g mask="url(#D)"><mask id="E" width="40" height="42" x="797" y="353" maskUnits="userSpaceOnUse" style="mask-type:luminance"><path fill="#fff" d="m822.823 353.37 13.854 28.791-25.193 12.125-13.854-28.796 25.193-12.12Z"/></mask><g mask="url(#E)"><mask id="F" width="40" height="42" x="797" y="353" maskUnits="userSpaceOnUse" style="mask-type:luminance"><path fill="#fff" d="m822.823 353.37 13.854 28.791-25.193 12.125-13.854-28.796 25.193-12.12Z"/></mask><g mask="url(#F)"><mask id="G" width="52" height="52" x="791" y="348" maskUnits="userSpaceOnUse" style="mask-type:luminance"><path fill="#fff" d="m825.984 348.557 16.412 34.12-34.61 16.656-16.416-34.119 34.614-16.657Z"/></mask><g mask="url(#G)"><mask id="H" width="52" height="52" x="791" y="348" maskUnits="userSpaceOnUse" style="mask-type:luminance"><path fill="#fff" d="m825.984 348.557 16.412 34.12-34.61 16.656-16.416-34.119 34.614-16.657Z"/></mask><g mask="url(#H)"><path fill="#C7E8F3" d="m809.797 390.76-5.24-10.885-5.234-10.885c-1.183-2.454.088-4.292 2.833-4.105l12.182.844 12.183.839c2.75.192 3.708 2.182 2.14 4.448l-6.942 10.047-6.948 10.041c-1.563 2.266-3.792 2.11-4.974-.344Z"/></g></g></g></g></g><mask id="I" width="409" height="105" x="370" y="346" maskUnits="userSpaceOnUse" style="mask-type:luminance"><path fill="#fff" d="M370.75 346.302h408v104h-408v-104Z"/></mask><g mask="url(#I)"><mask id="J" width="440" height="321" x="371" y="213" maskUnits="userSpaceOnUse" style="mask-type:luminance"><path fill="#fff" d="M371.474 344.578 743.5 213.573l66.661 189.312-372.026 131-66.661-189.307Z"/></mask><g mask="url(#J)"><mask id="K" width="602" height="378" x="264" y="194" maskUnits="userSpaceOnUse" style="mask-type:luminance"><path fill="#fff" d="m264.562 382.229 534.016-188.052 66.667 189.307-534.021 188.052-66.662-189.307Z"/></mask><g mask="url(#K)"><path fill="#C7E8F3" d="m365.068 368.802-.073.026-.98.344c-3.989 1.406-8.437-.656-9.843-4.635-1.401-3.98.609-8.318 4.588-9.719l1.297-.459c3.995-1.364 8.344.776 9.708 4.771 1.344 3.969-.755 8.282-4.697 9.672Zm26.526-5.943a7.862 7.862 0 0 1-1.662.386l-1.213.14c-4.193.537-8.011-2.432-8.547-6.625-.526-4.182 2.432-8.01 6.625-8.536l1.364-.161c4.198-.5 7.99 2.515 8.474 6.703.427 3.614-1.75 6.932-5.041 8.093Zm27.171-.536c-.958.333-2 .49-3.083.406l-1.245-.088c-4.218-.261-7.406-3.912-7.135-8.12a7.651 7.651 0 0 1 8.135-7.13l1.334.104c4.213.297 7.385 3.948 7.078 8.161-.219 3.131-2.308 5.688-5.084 6.667Zm26.849 4.26a7.538 7.538 0 0 1-4.375.198l-1.151-.271c-4.114-.953-6.672-5.067-5.713-9.182.953-4.099 5.073-6.666 9.177-5.708l1.37.333c4.093 1.016 6.599 5.151 5.583 9.255a7.668 7.668 0 0 1-4.891 5.375Zm25.917 8.25a7.624 7.624 0 0 1-5.344-.104l-1.172-.458c-3.937-1.526-5.88-5.958-4.354-9.896 1.542-3.927 5.974-5.88 9.896-4.349l1.24.484c3.927 1.547 5.854 5.985 4.312 9.917a7.636 7.636 0 0 1-4.578 4.406Zm24.677 11.438a7.629 7.629 0 0 1-6.135-.464l-1.115-.588a7.653 7.653 0 0 1-3.193-10.334c1.964-3.729 6.589-5.161 10.334-3.187l1.172.625c3.724 1.979 5.135 6.609 3.145 10.339a7.605 7.605 0 0 1-4.208 3.609Zm23.37 13.953a7.63 7.63 0 0 1-6.75-.833l-1.083-.703a7.648 7.648 0 0 1-2.177-10.589 7.631 7.631 0 0 1 10.583-2.182l1.088.713a7.628 7.628 0 0 1 2.177 10.584 7.59 7.59 0 0 1-3.838 3.01Zm22.203 15.729a7.649 7.649 0 0 1-6.906-.932l-1.104-.776c-3.448-2.422-4.276-7.198-1.839-10.646 2.427-3.443 7.198-4.281 10.651-1.844l1.026.714c3.453 2.416 4.318 7.172 1.906 10.635a7.613 7.613 0 0 1-3.734 2.849Zm23.37 13.906a7.606 7.606 0 0 1-5.964-.369l-1.213-.61c-3.755-1.911-5.24-6.515-3.328-10.286 1.895-3.745 6.5-5.25 10.276-3.339l1.093.563c3.771 1.89 5.308 6.479 3.422 10.25a7.608 7.608 0 0 1-4.286 3.791Zm25.146 10.339a7.521 7.521 0 0 1-4.87.057l-1.281-.416c-4.026-1.302-6.198-5.625-4.881-9.631 1.292-4.01 5.625-6.203 9.625-4.89l1.214.385c4 1.302 6.219 5.61 4.932 9.625a7.667 7.667 0 0 1-4.739 4.87Zm26.453 6.307a7.695 7.695 0 0 1-3.745.339l-1.349-.219c-4.161-.698-6.958-4.641-6.26-8.802.698-4.161 4.625-6.969 8.786-6.271l1.203.188c4.177.661 7.037 4.573 6.37 8.739a7.65 7.65 0 0 1-5.005 6.026Zm27.099 2.172a7.772 7.772 0 0 1-2.547.432l-1.386-.02c-4.234-.052-7.593-3.532-7.536-7.75.078-4.224 3.536-7.594 7.745-7.532l1.198.016c4.234-.005 7.656 3.422 7.635 7.651.005 3.318-2.13 6.151-5.109 7.203Zm127.448-38.745c-3.339 1.177-7.167-.099-9.058-3.25-2.192-3.609-1.036-8.312 2.568-10.5l1.047-.64c3.594-2.214 8.302-1.12 10.51 2.468a7.623 7.623 0 0 1-2.453 10.521l-1.177.719a7.663 7.663 0 0 1-1.437.682Zm-100.276 36.974c-.48.167-.98.287-1.516.365l-1.37.177c-4.192.521-8.021-2.443-8.526-6.646a7.64 7.64 0 0 1 6.641-8.531l1.187-.151c4.177-.568 8.042 2.359 8.599 6.542a7.637 7.637 0 0 1-5.015 8.244Zm76.38-23.901c-3.604 1.266-7.682-.333-9.38-3.859-1.855-3.802-.276-8.38 3.5-10.229l1.135-.542c3.787-1.906 8.365-.333 10.234 3.453 1.901 3.776.329 8.37-3.442 10.235l-1.198.588a8.17 8.17 0 0 1-.849.354Zm-49.682 18.625c-.219.073-.412.13-.636.188l-1.26.328c-4.089 1.052-8.25-1.412-9.313-5.5-1.057-4.078 1.406-8.203 5.5-9.307l1.261-.329c4.088-1.052 8.25 1.407 9.312 5.5a7.673 7.673 0 0 1-4.864 9.12Zm24.708-7.849c-3.917 1.381-8.25-.64-9.703-4.547a7.638 7.638 0 0 1 4.505-9.828l1.167-.442c3.932-1.568 8.359.494 9.859 4.442 1.474 3.953-.51 8.365-4.443 9.86l-1.265.474-.12.041Z"/></g></g></g><mask id="L" width="19" height="18" x="782" y="378" maskUnits="userSpaceOnUse" style="mask-type:luminance"><path fill="#fff" d="M782.75 378.302h17.333v17.333H782.75v-17.333Z"/></mask><g mask="url(#L)"><mask id="M" width="440" height="321" x="371" y="213" maskUnits="userSpaceOnUse" style="mask-type:luminance"><path fill="#fff" d="M371.474 344.578 743.5 213.573l66.661 189.312-372.026 131-66.661-189.307Z"/></mask><g mask="url(#M)"><mask id="N" width="602" height="378" x="264" y="194" maskUnits="userSpaceOnUse" style="mask-type:luminance"><path fill="#fff" d="m264.562 382.229 534.016-188.052 66.667 189.307-534.021 188.052-66.662-189.307Z"/></mask><g mask="url(#N)"><path fill="#C7E8F3" d="M793.948 394.479a7.656 7.656 0 0 1-8.537-2.458c-2.625-3.307-2.047-8.12 1.245-10.735l.401-.322c3.271-2.672 8.063-2.183 10.75 1.078a7.644 7.644 0 0 1-1.073 10.75l-.567.463a7.66 7.66 0 0 1-2.219 1.224Z"/></g></g></g></svg>
