<svg width="1030" height="203" viewBox="0 0 1030 203" fill="none" xmlns="http://www.w3.org/2000/svg">
<path d="M303.6 7.81738C282.693 7.81738 267.938 22.14 267.938 43.6299V118.522C267.938 140.018 282.693 154.335 303.6 154.335C324.714 154.335 339.673 140.018 339.673 118.522V43.6299C339.673 22.14 324.714 7.81738 303.6 7.81738ZM325.034 119.342C325.034 132.447 316.099 141.657 303.6 141.657C291.303 141.657 282.576 132.458 282.576 119.342V43.015C282.576 29.7172 291.303 20.5005 303.6 20.5005C316.099 20.5005 325.034 29.7172 325.034 43.015V119.342ZM392.004 47.5181C383.6 47.5181 376.293 50.9962 371.577 57.5426C370.962 58.1516 370.417 57.7417 370.417 57.1327V51.2012C370.417 49.9773 369.872 48.6599 368.641 48.6599H358.187C356.956 48.6599 355.773 49.9713 355.773 51.2012V190.364C355.773 191.582 356.95 191.922 358.187 191.922H368.641C369.872 191.922 370.417 191.582 370.417 190.364V144.919C370.417 144.316 370.962 143.906 371.577 144.527C376.293 151.067 383.534 154.341 391.939 154.341C408.541 154.341 419.023 141.658 419.638 123.652C419.843 116.081 419.86 109.13 419.86 101.559C419.86 93.9875 419.868 86.4105 419.667 78.8392C418.847 60.6168 408.402 47.5181 392.004 47.5181ZM405.44 121.181C405.644 133.471 398.074 141.64 387.623 141.64C377.783 141.64 370.417 133.466 370.417 121.181V80.6662C370.417 68.3871 377.84 60.2012 387.677 60.2012C398.338 60.2012 405.55 68.5862 405.55 80.6662V100.921C405.556 106.255 405.638 114.037 405.44 121.181ZM464.011 47.5181C444.54 47.5181 431.908 60.4059 431.908 78.8217V123.025C431.908 141.851 444.546 154.341 464.016 154.341C482.054 154.341 493.393 144.117 495.648 128.143C495.856 126.913 495.064 125.894 493.838 125.894L483.603 125.473C482.378 125.473 481.773 126.099 481.359 127.317C479.517 135.714 473.071 141.64 464.056 141.64C453.81 141.64 446.552 133.67 446.552 122.211V107.262C446.552 106.864 447.136 107.122 447.553 107.122H494.284C495.509 107.122 496.329 105.628 496.329 104.399V78.8157C496.324 60.4059 483.89 47.5181 464.011 47.5181ZM481.68 93.56C481.68 93.9699 481.569 93.9759 481.157 93.9759H447.548C447.131 93.9759 446.546 93.9699 446.546 93.56V79.8523C446.546 68.1881 453.66 60.2068 463.906 60.2068C474.566 60.2068 481.68 68.1881 481.68 79.8523V93.56ZM546.379 47.7171C538.185 47.7171 530.439 50.7913 525.118 58.1576C524.715 58.7722 524.145 58.5673 524.145 57.9526V51.1953C524.145 49.9713 523.379 48.6599 522.153 48.6599H511.7C510.468 48.6599 509.501 49.9713 509.501 51.1953V150.652C509.501 151.887 510.468 152.449 511.7 152.449H522.153C523.379 152.449 524.145 151.887 524.145 150.652V82.5108C524.145 68.7971 530.725 60.4118 541.598 60.4118C552.049 60.4118 557.82 68.1881 557.82 81.4918V150.658C557.82 151.893 559.057 152.461 560.283 152.461H570.739C571.965 152.461 572.459 151.893 572.459 150.658V80.2563C572.442 59.7912 563.191 47.7171 546.379 47.7171ZM626.274 9.19342H592.451C591.214 9.19342 590.011 10.06 590.011 11.2956V150.652C590.011 151.887 591.214 152.449 592.451 152.449H602.896C604.133 152.449 604.65 151.887 604.65 150.652V88.8522C604.65 88.4422 605.359 88.1263 605.77 88.1263H626.881C646.553 88.1263 659.677 72.5035 659.677 48.9643C659.677 25.2318 646.346 9.19342 626.274 9.19342ZM624.424 76.4386H605.776C605.365 76.4386 604.655 75.7591 604.655 75.3435V22.7549C604.655 22.345 605.365 22.3508 605.776 22.3508H624.424C636.719 22.3508 645.135 32.9202 645.135 49.4971C645.135 66.0743 636.713 76.4386 624.424 76.4386ZM705.797 48.1271C695.956 48.1271 689.74 54.4685 686.255 63.6794C685.858 64.294 685.177 64.294 685.177 63.4744V51.2012C685.177 49.9773 684.479 48.6599 683.242 48.6599H672.797C671.56 48.6599 670.538 49.9713 670.538 51.2012V150.652C670.538 151.887 671.56 152.449 672.797 152.449H683.242C684.479 152.449 685.177 151.887 685.177 150.652V89.2681C685.177 75.3494 692.208 64.5049 702.037 63.89C705.317 63.2753 708.43 63.685 710.677 64.7099C712.119 65.1139 713.152 64.9149 713.356 63.48L715.626 53.0455C715.833 52.0149 715.637 50.9962 714.607 50.3813C712.553 49.1576 709.886 48.1271 705.797 48.1271ZM784.729 78.8217C784.729 60.4059 771.365 47.5181 751.681 47.5181C732.012 47.5181 718.841 60.4059 718.841 78.8217V123.025C718.841 141.851 732.012 154.341 751.681 154.341C771.359 154.341 784.729 141.851 784.729 123.025V78.8217ZM770.091 122.205C770.091 133.665 762.152 141.64 751.681 141.64C741.237 141.64 733.49 133.665 733.49 122.205V79.8463C733.49 68.1881 741.231 60.2068 751.681 60.2068C762.137 60.2068 770.091 68.1881 770.091 79.8463V122.205ZM810.933 48.6656H800.483C799.257 48.6656 797.912 49.9773 797.912 51.2012V161.713C797.912 174.197 793.537 182.172 781.855 182.582C780.629 182.582 780.354 183.396 780.354 184.631V193.227C780.354 194.451 780.677 195.271 781.903 195.271C807.526 195.271 812.556 182.178 812.556 161.724V51.1953C812.551 49.9773 812.159 48.6656 810.933 48.6656ZM805.613 9.25197C800.276 9.25197 795.56 13.5499 795.56 19.8915C795.56 26.034 799.66 30.5368 805.613 30.5368C811.753 30.5368 815.848 26.034 815.848 19.8915C815.848 13.5441 811.143 9.25197 805.613 9.25197ZM859.292 47.5181C839.827 47.5181 827.184 60.4059 827.184 78.8217V123.025C827.184 141.851 839.85 154.341 859.321 154.341C877.361 154.341 888.728 144.117 890.967 128.143C891.171 126.913 890.394 125.894 889.179 125.894L878.95 125.473C877.713 125.473 877.12 126.099 876.703 127.317C874.87 135.714 868.369 141.64 859.363 141.64C849.111 141.64 841.816 133.67 841.816 122.211V107.262C841.816 106.864 842.472 107.122 842.9 107.122H889.636C890.873 107.122 891.594 105.628 891.594 104.399V78.8157C891.594 60.4059 879.174 47.5181 859.292 47.5181ZM876.961 93.56C876.961 93.9699 876.933 93.9759 876.527 93.9759H842.917C842.509 93.9759 841.833 93.9699 841.833 93.56V79.8523C841.833 68.1881 848.947 60.2068 859.187 60.2068C869.842 60.2068 876.961 68.1881 876.961 79.8523V93.56ZM935.317 47.5181C915.852 47.5181 903.313 60.6109 903.313 78.8217V123.025C903.313 141.851 915.852 154.341 935.317 154.341C954.992 154.341 967.729 141.851 967.729 125.906V123.646C967.729 122.416 966.597 121.596 965.371 121.596L955.026 121.391C953.788 121.391 953.09 122.223 953.09 123.441V124.881C953.09 133.67 945.977 141.646 935.317 141.646C925.065 141.646 917.951 133.67 917.951 122.006V79.8523C917.951 68.1938 925.065 60.2128 935.317 60.2128C945.977 60.2128 953.09 68.1938 953.09 76.989V78.6286C953.09 79.6532 953.644 80.4672 954.87 80.4672L965.496 80.0572C966.733 80.0572 967.729 79.2433 967.729 78.0077V75.9585C967.735 60.6168 954.997 47.5181 935.317 47.5181ZM997.451 60.3532H1013.02C1014.25 60.3532 1014.59 59.1763 1014.59 57.9526V51.1953C1014.59 49.9713 1014.25 48.6599 1013.02 48.6599H997.451C997.04 48.6599 997.017 48.7417 997.017 48.3318V25.4133C997.017 24.1895 995.814 23.8089 994.577 23.8089H984.339C983.099 23.8089 982.379 24.1895 982.379 25.4133V48.3377C982.379 48.7477 981.874 48.6656 981.471 48.6656H973.478C972.252 48.6656 972.133 49.9773 972.133 51.2012V57.9583C972.133 59.1822 972.258 60.3592 973.478 60.3592H981.471C981.874 60.3592 982.379 60.4118 982.379 60.8218V127.745C982.379 148.403 992.333 152.461 1006.89 152.461H1012.01C1013.24 152.461 1014.59 151.887 1014.59 150.663V141.857C1014.59 140.633 1013.24 139.292 1012.01 139.292H1009.96C1001.34 139.292 997.006 136.54 997.006 123.447V60.8158C997.012 60.4059 997.034 60.3532 997.451 60.3532Z" fill="white"/>
<path d="M118.606 149.521H118.63C118.624 149.644 118.606 149.761 118.606 149.878C118.606 155.734 123.521 160.488 129.585 160.488C135.655 160.488 140.57 155.734 140.57 149.878L140.552 149.521H140.57V123.212H118.606V149.521Z" fill="white"/>
<path d="M169.846 7.72949H155.207C150.401 7.72873 145.641 8.67346 141.2 10.5097C136.759 12.346 132.724 15.0378 129.325 18.4314C125.926 21.825 123.23 25.854 121.391 30.2882C119.552 34.7222 118.606 39.4747 118.606 44.2739V88.1318H54.1891C44.4833 88.1318 35.1753 91.9815 28.3122 98.8339C21.4493 105.686 17.5938 114.98 17.5938 124.67V153.907C17.5953 163.597 21.4515 172.889 28.3143 179.74C35.177 186.591 44.4844 190.44 54.1891 190.44H68.833C78.5383 190.44 87.846 186.591 94.7098 179.741C101.574 172.89 105.431 163.597 105.434 153.907V124.67C105.434 124.185 105.417 123.698 105.399 123.213H83.4712V153.907C83.465 157.782 81.9208 161.496 79.177 164.235C76.4332 166.975 72.7135 168.516 68.833 168.523H54.1891C50.3086 168.516 46.589 166.975 43.8452 164.235C41.1013 161.496 39.5572 157.782 39.5509 153.907V124.67C39.5572 120.796 41.1013 117.082 43.8452 114.343C46.589 111.603 50.3086 110.061 54.1891 110.055H169.851C179.559 110.055 188.869 106.205 195.734 99.3518C202.599 92.4987 206.457 83.2035 206.458 73.5107V44.2799C206.455 34.586 202.597 25.2902 195.731 18.4362C188.865 11.5822 179.554 7.73105 169.846 7.72949ZM184.49 73.5107C184.485 77.387 182.941 81.1033 180.195 83.8445C177.45 86.5854 173.728 88.1273 169.846 88.1318H140.563V44.2799C140.568 40.4033 142.112 36.6871 144.858 33.9461C147.603 31.2052 151.325 29.663 155.207 29.6585H169.846C173.728 29.663 177.45 31.2052 180.195 33.9461C182.941 36.6871 184.485 40.4033 184.49 44.2799V73.5107Z" fill="white"/>
</svg>
