<svg width="3630" height="717" viewBox="0 0 3630 717" fill="none" xmlns="http://www.w3.org/2000/svg">
<path d="M1069.97 27.6104C996.287 27.6104 944.285 78.1983 944.285 154.101V418.622C944.285 494.546 996.287 545.113 1069.97 545.113C1144.38 545.113 1197.1 494.546 1197.1 418.622V154.101C1197.1 78.1983 1144.38 27.6104 1069.97 27.6104ZM1145.51 421.518C1145.51 467.804 1114.02 500.336 1069.97 500.336C1026.63 500.336 995.874 467.845 995.874 421.518V151.929C995.874 104.961 1026.63 72.4073 1069.97 72.4073C1114.02 72.4073 1145.51 104.961 1145.51 151.929V421.518ZM1381.53 167.834C1351.91 167.834 1326.16 180.119 1309.54 203.241C1307.37 205.392 1305.45 203.944 1305.45 201.793V180.843C1305.45 176.52 1303.53 171.867 1299.19 171.867H1262.35C1258.01 171.867 1253.84 176.499 1253.84 180.843V672.369C1253.84 676.67 1257.99 677.87 1262.35 677.87H1299.19C1303.53 677.87 1305.45 676.67 1305.45 672.369V511.856C1305.45 509.726 1307.37 508.278 1309.54 510.471C1326.16 533.572 1351.68 545.133 1381.3 545.133C1439.81 545.133 1476.75 500.337 1478.92 436.74C1479.64 409.998 1479.7 385.449 1479.7 358.707C1479.7 331.965 1479.73 305.203 1479.02 278.461C1476.13 214.099 1439.32 167.834 1381.53 167.834ZM1428.88 428.012C1429.6 471.423 1402.92 500.274 1366.09 500.274C1331.41 500.274 1305.45 471.403 1305.45 428.012V284.914C1305.45 241.544 1331.61 212.631 1366.28 212.631C1403.85 212.631 1429.27 242.247 1429.27 284.914V356.453C1429.29 375.294 1429.58 402.78 1428.88 428.012ZM1635.3 167.834C1566.68 167.834 1522.16 213.354 1522.16 278.399V434.527C1522.16 501.019 1566.7 545.133 1635.32 545.133C1698.89 545.133 1738.85 509.023 1746.8 452.603C1747.53 448.259 1744.74 444.661 1740.42 444.661L1704.35 443.172C1700.03 443.172 1697.9 445.385 1696.44 449.687C1689.95 479.344 1667.23 500.274 1635.46 500.274C1599.35 500.274 1573.77 472.126 1573.77 431.652V378.851C1573.77 377.445 1575.83 378.355 1577.3 378.355H1741.99C1746.31 378.355 1749.2 373.081 1749.2 368.738V278.378C1749.18 213.354 1705.36 167.834 1635.3 167.834ZM1697.57 330.455C1697.57 331.903 1697.18 331.924 1695.73 331.924H1577.28C1575.81 331.924 1573.75 331.903 1573.75 330.455V282.039C1573.75 240.841 1598.82 212.651 1634.93 212.651C1672.5 212.651 1697.57 240.841 1697.57 282.039V330.455ZM1925.59 168.537C1896.71 168.537 1869.41 179.395 1850.66 205.413C1849.24 207.584 1847.23 206.86 1847.23 204.689V180.822C1847.23 176.499 1844.53 171.867 1840.21 171.867H1803.37C1799.03 171.867 1795.62 176.499 1795.62 180.822V532.104C1795.62 536.468 1799.03 538.453 1803.37 538.453H1840.21C1844.53 538.453 1847.23 536.468 1847.23 532.104V291.429C1847.23 242.992 1870.42 213.375 1908.74 213.375C1945.57 213.375 1965.91 240.841 1965.91 287.83V532.125C1965.91 536.488 1970.27 538.495 1974.59 538.495H2011.44C2015.76 538.495 2017.5 536.488 2017.5 532.125V283.466C2017.44 211.183 1984.84 168.537 1925.59 168.537ZM2207.16 32.4706H2087.96C2083.6 32.4706 2079.36 35.5315 2079.36 39.8954V532.104C2079.36 536.468 2083.6 538.453 2087.96 538.453H2124.77C2129.13 538.453 2130.95 536.468 2130.95 532.104V313.827C2130.95 312.379 2133.45 311.263 2134.9 311.263H2209.3C2278.63 311.263 2324.88 256.083 2324.88 172.942C2324.88 89.1183 2277.9 32.4706 2207.16 32.4706ZM2200.64 269.982H2134.92C2133.47 269.982 2130.97 267.582 2130.97 266.114V80.3699C2130.97 78.9221 2133.47 78.9428 2134.92 78.9428H2200.64C2243.97 78.9428 2273.63 116.274 2273.63 174.824C2273.63 233.375 2243.95 269.982 2200.64 269.982ZM2487.42 169.985C2452.74 169.985 2430.83 192.383 2418.55 224.916C2417.15 227.087 2414.75 227.087 2414.75 224.192V180.843C2414.75 176.52 2412.29 171.867 2407.93 171.867H2371.12C2366.76 171.867 2363.16 176.499 2363.16 180.843V532.104C2363.16 536.468 2366.76 538.453 2371.12 538.453H2407.93C2412.29 538.453 2414.75 536.468 2414.75 532.104V315.296C2414.75 266.135 2439.53 227.832 2474.17 225.66C2485.73 223.489 2496.7 224.936 2504.62 228.556C2509.7 229.983 2513.34 229.28 2514.06 224.212L2522.06 187.357C2522.79 183.717 2522.1 180.119 2518.47 177.947C2511.23 173.625 2501.83 169.985 2487.42 169.985ZM2765.6 278.399C2765.6 213.354 2718.5 167.834 2649.13 167.834C2579.81 167.834 2533.39 213.354 2533.39 278.399V434.527C2533.39 501.019 2579.81 545.133 2649.13 545.133C2718.48 545.133 2765.6 501.019 2765.6 434.527V278.399ZM2714.01 431.631C2714.01 472.106 2686.03 500.274 2649.13 500.274C2612.32 500.274 2585.02 472.106 2585.02 431.631V282.018C2585.02 240.841 2612.3 212.651 2649.13 212.651C2685.98 212.651 2714.01 240.841 2714.01 282.018V431.631ZM2857.95 171.887H2821.12C2816.8 171.887 2812.06 176.52 2812.06 180.843V571.172C2812.06 615.266 2796.64 643.435 2755.47 644.882C2751.15 644.882 2750.18 647.757 2750.18 652.121V682.482C2750.18 686.805 2751.32 689.7 2755.64 689.7C2845.94 689.7 2863.67 643.455 2863.67 571.213V180.822C2863.65 176.52 2862.27 171.887 2857.95 171.887ZM2839.2 32.6774C2820.39 32.6774 2803.77 47.8579 2803.77 70.2564C2803.77 91.9517 2818.22 107.856 2839.2 107.856C2860.84 107.856 2875.27 91.9517 2875.27 70.2564C2875.27 47.8372 2858.69 32.6774 2839.2 32.6774ZM3028.38 167.834C2959.78 167.834 2915.22 213.354 2915.22 278.399V434.527C2915.22 501.019 2959.86 545.133 3028.48 545.133C3092.06 545.133 3132.12 509.023 3140.01 452.603C3140.73 448.259 3137.99 444.661 3133.71 444.661L3097.66 443.172C3093.3 443.172 3091.21 445.385 3089.74 449.687C3083.28 479.344 3060.37 500.274 3028.63 500.274C2992.5 500.274 2966.79 472.126 2966.79 431.652V378.851C2966.79 377.445 2969.1 378.355 2970.61 378.355H3135.32C3139.68 378.355 3142.22 373.081 3142.22 368.738V278.378C3142.22 213.354 3098.45 167.834 3028.38 167.834ZM3090.65 330.455C3090.65 331.903 3090.55 331.924 3089.12 331.924H2970.67C2969.23 331.924 2966.85 331.903 2966.85 330.455V282.039C2966.85 240.841 2991.92 212.651 3028.01 212.651C3065.56 212.651 3090.65 240.841 3090.65 282.039V330.455ZM3296.31 167.834C3227.71 167.834 3183.52 214.078 3183.52 278.399V434.527C3183.52 501.019 3227.71 545.133 3296.31 545.133C3365.65 545.133 3410.54 501.019 3410.54 444.702V436.719C3410.54 432.376 3406.55 429.48 3402.23 429.48L3365.77 428.756C3361.41 428.756 3358.95 431.693 3358.95 435.995V441.083C3358.95 472.126 3333.88 500.295 3296.31 500.295C3260.18 500.295 3235.11 472.126 3235.11 430.928V282.039C3235.11 240.861 3260.18 212.672 3296.31 212.672C3333.88 212.672 3358.95 240.861 3358.95 271.926V277.717C3358.95 281.336 3360.9 284.211 3365.22 284.211L3402.67 282.763C3407.03 282.763 3410.54 279.888 3410.54 275.524V268.286C3410.56 214.099 3365.67 167.834 3296.31 167.834ZM3515.29 213.168H3570.16C3574.48 213.168 3575.68 209.011 3575.68 204.689V180.822C3575.68 176.499 3574.48 171.867 3570.16 171.867H3515.29C3513.84 171.867 3513.76 172.156 3513.76 170.708V89.7595C3513.76 85.4369 3509.52 84.0926 3505.16 84.0926H3469.08C3464.71 84.0926 3462.17 85.4369 3462.17 89.7595V170.729C3462.17 172.177 3460.39 171.887 3458.97 171.887H3430.8C3426.48 171.887 3426.06 176.52 3426.06 180.843V204.709C3426.06 209.032 3426.5 213.189 3430.8 213.189H3458.97C3460.39 213.189 3462.17 213.375 3462.17 214.823V451.196C3462.17 524.162 3497.25 538.495 3548.55 538.495H3566.59C3570.95 538.495 3575.68 536.468 3575.68 532.145V501.04C3575.68 496.717 3570.95 491.981 3566.59 491.981H3559.38C3529.01 491.981 3513.72 482.261 3513.72 436.016V214.802C3513.74 213.354 3513.82 213.168 3515.29 213.168Z" fill="black"/>
<path d="M418.001 528.112H418.084C418.063 528.547 418.001 528.96 418.001 529.374C418.001 550.056 435.321 566.849 456.693 566.849C478.085 566.849 495.405 550.056 495.405 529.374L495.343 528.112H495.405V435.188H418.001V528.112Z" fill="#1A67A3"/>
<path d="M598.583 27.3003H546.994C530.053 27.2976 513.279 30.6344 497.627 37.1201C481.976 43.6058 467.755 53.1133 455.776 65.0996C443.798 77.086 434.296 91.3163 427.815 106.978C421.333 122.639 417.999 139.425 418.001 156.376V311.283H190.978C156.772 311.283 123.968 324.88 99.7808 349.083C75.5939 373.285 62.0059 406.111 62.0059 440.338V543.603C62.0113 577.827 75.6018 610.647 99.7882 634.846C123.974 659.044 156.776 672.638 190.978 672.638H242.587C276.791 672.638 309.594 659.044 333.784 634.847C357.974 610.649 371.569 577.829 371.58 543.603V440.338C371.58 438.622 371.518 436.905 371.456 435.189H294.176V543.603C294.154 557.288 288.712 570.405 279.042 580.081C269.372 589.758 256.263 595.203 242.587 595.225H190.978C177.302 595.203 164.193 589.758 154.523 580.081C144.853 570.405 139.411 557.288 139.389 543.603V440.338C139.411 426.654 144.853 413.537 154.523 403.86C164.193 394.184 177.302 388.738 190.978 388.716H598.603C632.816 388.716 665.628 375.118 689.822 350.912C714.016 326.707 727.611 293.876 727.616 259.641V156.397C727.605 122.158 714.007 89.325 689.81 65.1166C665.613 40.9081 632.799 27.3058 598.583 27.3003ZM650.192 259.641C650.176 273.332 644.733 286.458 635.058 296.14C625.383 305.821 612.265 311.267 598.583 311.283H495.384V156.397C495.401 142.705 500.843 129.579 510.519 119.898C520.194 110.217 533.311 104.77 546.994 104.754H598.583C612.265 104.77 625.383 110.217 635.058 119.898C644.733 129.579 650.176 142.705 650.192 156.397V259.641Z" fill="#1A67A3"/>
</svg>
