<svg xmlns="http://www.w3.org/2000/svg" fill="none" viewBox="0 0 452 175"><path fill="#000" d="M278 64h37v9.394h-26.379v10.08h22.908v9.395h-22.908v9.737h26.032V112H278V64Zm131 30v.143c0 11.04-8.907 19.857-20.928 19.857C375.979 114 367 105.039 367 94v-.143C367 82.817 375.907 74 387.928 74 400.021 74 409 82.96 409 94Zm-10.862 0v-.143c0-5.664-3.766-10.466-10.066-10.466-6.083 0-10.21 4.946-10.21 10.609v.143c0 5.663 3.765 10.466 10.066 10.466 6.082 0 10.21-4.946 10.21-10.61Z"/><path fill="#F2CA3F" fill-rule="evenodd" d="M76.555.568a1 1 0 0 0-1 0L1.234 43.478a1 1 0 0 0-.5.866v85.818a1 1 0 0 0 .5.866l74.322 42.909a.998.998 0 0 0 1 0l74.32-42.909a1 1 0 0 0 .5-.866V44.344a.999.999 0 0 0-.5-.866L76.556.568Zm0 14.018a1 1 0 0 0-1 0l-62.181 35.9a1 1 0 0 0-.5.866V78.43a1 1 0 0 0 .998 1l37.748.076c.538 0 .982-.014 1.36-.026 1.745-.056 2.075-.066 3.69 1.562l19.487 22.63c.275.318.717.428 1.117.299a15.028 15.028 0 0 1 4.647-.733c8.312 0 15.05 6.739 15.05 15.051 0 8.312-6.738 15.05-15.05 15.05-8.312 0-15.05-6.738-15.05-15.05 0-2.028.401-3.963 1.129-5.729.148-.36.094-.774-.157-1.072l-13.27-15.663c-2.323-2.785-2.76-2.83-7.153-2.879l-33.544-.075a1 1 0 0 0-1.002 1v29.282c0 .358.19.688.5.866l62.181 35.901c.31.178.691.178 1 0l62.182-35.901a1 1 0 0 0 .5-.866V94.462a1 1 0 0 0-.998-1l-38.888-.079c-.538 0-.983.014-1.36.026-1.745.056-2.075.066-3.69-1.562l-19.488-22.63a1.044 1.044 0 0 0-1.116-.298 15.028 15.028 0 0 1-4.647.732C60.738 69.65 54 62.912 54 54.6c0-8.313 6.738-15.051 15.05-15.051 8.312 0 15.05 6.738 15.05 15.05 0 2.029-.402 3.963-1.13 5.729-.148.36-.094.775.158 1.072l13.269 15.664c2.323 2.784 2.76 2.828 7.153 2.878l34.685.078a1 1 0 0 0 1.002-1V51.352a1 1 0 0 0-.5-.866l-62.181-35.9ZM69.05 63.25a8.65 8.65 0 1 1 0-17.3 8.65 8.65 0 0 1 0 17.3Zm12.87 46.389a8.65 8.65 0 1 1 0 17.3 8.65 8.65 0 0 1 0-17.3Z" clip-rule="evenodd"/><path fill="#000" d="m267.55 70.305-6.791 7.23c-4.008-3.457-7.556-5.644-13.251-5.495-8.541.224-14.263 7.497-14.04 16.039l.004.142c.224 8.542 6.457 15.36 14.857 15.14 4.983-.131 8.842-2.369 12.594-5.957l7.187 7.861c-4.508 4.676-10.05 7.956-19.445 8.202-15.305.4-26.286-10.923-26.657-25.088l-.004-.142c-.374-14.308 10.22-25.911 24.884-26.295 9.609-.252 15.394 3.015 20.662 8.363Zm183.101 10.313-6.261 6.672c-2.74-2.46-5.311-3.983-8.997-3.887-5.997.157-9.703 5.027-9.547 10.953l.003.145c.15 5.708 4.179 10.448 9.671 10.304 3.902-.102 6.316-1.828 8.705-4.494l6.91 7.05c-3.507 4.141-7.996 6.718-15.295 6.909-11.851.31-20.544-8.574-20.834-19.63l-.004-.145c-.289-11.056 8.003-20.24 19.638-20.545 7.732-.202 12.146 2.647 16.011 6.668Zm-235.882 17.49v-.143c0-8.758-5.743-12.42-15.936-15.075-8.686-2.226-10.84-3.302-10.84-6.605v-.143c0-2.44 2.226-4.38 6.461-4.38 4.236 0 8.614 1.867 13.065 4.954l5.743-8.327C208.165 64.297 201.92 62 194.598 62c-10.266 0-17.588 6.03-17.588 15.147v.143c0 9.979 6.533 12.778 16.654 15.363 8.399 2.153 10.122 3.589 10.122 6.389v.143c0 2.944-2.728 4.738-7.25 4.738-5.743 0-10.481-2.369-15.003-6.102L175 105.646c6.03 5.384 13.711 8.04 21.32 8.04 10.84 0 18.449-5.6 18.449-15.578Zm146 0v-.143c0-8.758-5.743-12.42-15.936-15.075-8.686-2.226-10.84-3.302-10.84-6.605v-.143c0-2.44 2.226-4.38 6.461-4.38 4.236 0 8.614 1.867 13.065 4.954l5.743-8.327C354.165 64.297 347.92 62 340.598 62c-10.266 0-17.588 6.03-17.588 15.147v.143c0 9.979 6.533 12.778 16.654 15.363 8.399 2.153 10.122 3.589 10.122 6.389v.143c0 2.944-2.728 4.738-7.25 4.738-5.743 0-10.481-2.369-15.003-6.102L321 105.646c6.03 5.384 13.711 8.04 21.32 8.04 10.84 0 18.449-5.6 18.449-15.578Z"/></svg>
