<svg width="773" height="406" viewBox="0 0 773 406" fill="none" xmlns="http://www.w3.org/2000/svg">
<path d="M76.7202 400.587C65.1252 400.587 54.8829 399.233 45.6069 390.147L57.5884 378.16C63.5792 384.153 71.5024 385.12 77.1067 385.12C83.4839 385.12 90.0544 382.993 90.0544 377.58C90.0544 373.907 88.1219 371.393 82.3244 370.813L70.7294 369.653C57.5884 368.3 49.4719 362.693 49.4719 349.16C49.4719 334.08 62.8062 325.767 77.6864 325.767C89.0882 325.767 98.5574 327.7 105.708 334.273L94.4992 345.68C90.2477 341.813 83.8704 340.847 77.4932 340.847C70.1497 340.847 67.0577 344.133 67.0577 347.807C67.0577 350.513 68.2172 353.607 74.5944 354.187L86.1894 355.347C100.683 356.7 108.027 364.433 108.027 376.807C107.64 392.853 93.9194 400.587 76.7202 400.587Z" fill="white"/>
<path d="M139.527 399.813C124.646 399.813 118.269 389.373 118.269 378.933V342.78H110.539V328.667H118.269V307.013H136.435V328.667H149.382V342.587H136.435V377.773C136.435 382.027 138.367 384.347 142.812 384.347H149.382V399.813H139.527Z" fill="white"/>
<path d="M157.499 314.166V299.28H176.244V314.166H157.499ZM157.885 399.813V326.733H176.051V399.813H157.885Z" fill="white"/>
<path d="M217.406 400.587C202.719 400.587 184.747 392.66 184.747 363.08C184.747 333.5 202.913 325.767 217.406 325.767C227.455 325.767 235.185 328.86 241.563 335.627L229.195 348C225.33 343.94 222.238 342.2 217.406 342.2C212.962 342.2 209.676 343.747 206.971 347.033C204.072 350.513 202.913 355.54 202.913 363.273C202.913 371.007 204.265 376.033 206.971 379.513C209.676 382.8 212.962 384.347 217.406 384.347C222.238 384.347 225.33 382.607 229.195 378.547L241.563 390.727C234.992 397.493 227.455 400.587 217.406 400.587Z" fill="white"/>
<path d="M291.808 399.813L273.835 369.267L266.105 377.967V399.813H247.94V299.86H266.105V356.507L290.455 326.54H312.485L286.397 356.12L314.418 399.813H291.808Z" fill="white"/>
<path d="M329.685 368.88C329.685 378.353 335.482 385.12 345.724 385.12C353.648 385.12 357.706 382.8 362.344 378.16L373.359 388.987C366.016 396.333 358.672 400.587 345.531 400.587C328.332 400.587 311.712 392.66 311.712 363.08C311.712 339.3 324.66 325.767 343.599 325.767C363.89 325.767 375.485 340.653 375.485 360.76V368.88H329.685ZM355.773 348.58C353.841 344.133 349.783 341.04 343.599 341.04C337.415 341.04 333.356 344.327 331.424 348.58C330.264 351.287 329.878 353.22 329.685 356.507H357.513C357.319 353.22 356.933 351.287 355.773 348.58Z" fill="white"/>
<path d="M423.797 346.647C420.899 343.747 418.58 342.2 414.135 342.2C408.531 342.2 402.347 346.453 402.347 355.733V399.813H384.181V326.733H401.96V333.693C405.439 329.44 412.589 325.767 420.319 325.767C427.469 325.767 432.494 327.507 437.518 332.727L423.797 346.647Z" fill="white"/>
<path d="M519.649 325.767C510.566 325.767 503.996 328.667 497.812 335.047C493.174 328.667 486.603 325.767 478.487 325.767C471.723 325.767 464.96 328.473 460.322 333.307V326.733H442.542V399.813H460.708V355.54C460.708 345.487 467.085 342.2 472.883 342.2C478.68 342.2 484.864 345.487 484.864 355.54V399.813H503.03V355.153C503.03 345.68 509.6 342.2 515.204 342.2C521.002 342.2 527.186 345.487 527.186 355.54V399.813H545.352V353.027C545.352 345.1 543.226 338.14 537.428 332.147C533.563 328.28 526.993 325.767 519.649 325.767Z" fill="white"/>
<path d="M598.882 370.813C598.882 380.867 592.505 384.153 586.707 384.153C580.91 384.153 574.726 380.867 574.726 370.813V326.733H556.56V373.52C556.56 381.447 558.106 388.407 563.904 394.207C567.962 398.267 573.953 400.587 581.103 400.587C587.867 400.587 594.63 398.073 599.268 393.047V399.813H617.047V326.733H598.882V370.813Z" fill="white"/>
<path d="M647.001 377.773V299.86H628.835V378.933C628.835 389.373 635.213 399.813 650.093 399.813H660.528V384.346H653.571C648.933 384.346 647.001 382.22 647.001 377.773Z" fill="white"/>
<path d="M727.586 360.76C727.586 340.653 715.991 325.767 695.7 325.767C676.761 325.767 663.813 339.3 663.813 363.08C663.813 392.66 680.433 400.587 697.632 400.587C710.773 400.587 717.923 396.527 725.46 388.987L714.445 378.16C709.807 382.8 705.942 385.12 697.825 385.12C687.583 385.12 681.786 378.16 681.786 368.88H727.586V360.76ZM681.786 356.507C681.979 353.22 682.366 351.287 683.525 348.58C685.458 344.133 689.516 341.04 695.7 341.04C701.884 341.04 705.942 344.327 707.874 348.58C709.034 351.287 709.421 353.22 709.614 356.507H681.786Z" fill="white"/>
<path fill-rule="evenodd" clip-rule="evenodd" d="M420.319 278.4C417.807 279.56 414.328 279.367 410.656 279.56C407.564 279.56 403.12 279.753 401.38 278.013C400.414 277.047 400.028 275.307 400.028 274.147C400.028 272.793 400.221 271.247 400.607 269.7C400.994 267.96 401.38 265.64 400.607 264.867C399.834 263.707 396.936 264.287 395.583 263.32C394.037 262.353 393.65 260.42 393.071 257.907C392.877 257.133 392.491 256.553 392.298 255.973C391.911 252.3 393.071 247.467 393.844 243.793C394.81 239.927 395.776 236.253 396.549 232.58C397.515 227.167 397.902 220.98 397.515 215.18C397.322 212.28 396.936 209.96 397.322 207.447C397.709 205.127 398.675 203.193 399.255 200.873C399.448 200.1 399.255 199.327 399.448 198.553C399.448 197.78 400.028 197.2 400.028 196.62C400.028 195.073 399.641 193.14 399.448 191.207C399.061 185.987 399.448 178.833 399.834 174.387C400.028 172.84 400.607 171.1 399.641 170.327C394.23 170.327 389.399 171.293 384.374 171.873C371.04 173.613 354.227 173.807 341.28 171.293C340.12 171.1 338.767 171.1 337.608 170.713C328.525 168.587 320.022 164.72 313.452 159.5C312.485 158.727 311.326 157.76 310.166 156.987C309.007 156.213 307.847 154.86 306.881 154.473C301.663 151.96 294.706 154.86 292.581 158.147C291.808 159.5 291.035 161.24 290.262 162.787C289.489 164.333 288.716 165.88 288.136 167.427C284.657 175.353 280.792 182.893 277.314 190.82C275.381 195.46 273.062 200.487 271.516 205.513C268.424 216.34 271.323 231.033 273.835 241.28C274.029 242.247 274.608 243.213 274.995 244.18C275.768 246.693 277.507 249.98 279.44 251.72C280.406 252.687 282.145 253.073 283.305 254.04C284.657 255.2 285.817 257.713 286.976 259.84C287.363 260.613 288.136 261.773 288.716 262.74C290.068 265.06 290.455 267.187 287.943 268.54C286.01 269.507 283.111 269.893 280.406 270.087C279.246 270.473 279.633 272.02 278.86 272.793C278.473 273.18 276.541 273.953 275.575 274.34C272.096 275.307 265.912 275.307 263.207 274.34C261.854 273.76 260.308 272.793 259.921 271.633C259.148 269.507 260.888 266.607 259.342 265.06C258.569 264.287 257.216 264.48 255.863 263.9C253.931 263.127 252.191 261.387 251.418 259.067C249.293 253.653 250.645 245.34 250.452 238.767C250.452 236.833 250.066 234.707 250.066 232.58C249.872 228.713 249.099 224.847 248.52 220.98C248.326 219.047 247.747 217.5 247.36 215.76C246.78 213.053 246.201 209.96 245.428 207.253C244.461 204.16 244.461 201.26 245.621 198.553C245.814 197.78 246.587 197.2 247.167 196.233C247.747 194.687 247.94 192.947 247.94 191.593C247.553 190.82 245.621 191.4 245.234 190.627C244.075 182.12 242.915 173.807 242.142 164.913C241.949 162.013 241.949 158.92 241.563 155.827C240.983 149.833 241.563 143.647 240.983 137.847C240.79 134.947 240.017 132.24 239.63 129.533C238.664 121.8 236.538 111.94 238.084 103.82C239.05 98.5999 240.983 94.5399 243.882 90.6733C246.007 87.9666 248.133 85.4533 250.645 83.1333C252.964 80.8133 255.67 78.6866 258.569 76.56C260.308 75.2066 262.24 73.6599 264.366 72.8866C268.811 70.7599 274.608 69.02 280.792 68.8266C286.976 68.6333 293.933 68.44 299.924 69.6C305.722 70.5666 311.519 71.7266 317.317 72.8866C322.921 74.0466 328.332 75.5933 333.743 76.9466C334.516 77.14 335.096 77.5266 335.675 77.7199C337.415 78.1066 339.347 78.3 341.086 78.88C346.111 80.2333 352.488 80.8133 358.479 80.8133C365.049 80.8133 370.847 80.62 376.258 79.2666C377.031 79.0733 377.611 78.6866 378.577 78.3C379.35 77.9133 380.509 78.1066 381.282 77.7199C381.862 77.5266 382.442 76.9466 383.022 76.7533C386.114 75.2066 388.819 73.8533 391.525 71.9199C393.65 70.3733 395.583 69.02 398.482 67.86C399.834 67.28 400.994 66.7 402.347 66.3133C405.052 65.3466 408.144 64.5733 410.27 63.2199C413.555 61.0933 416.067 58 418.773 55.68C421.672 53.1666 424.57 50.8466 427.662 48.3333C433.846 43.5 440.03 39.0533 445.828 34.4133C448.727 32.0933 452.012 29.7733 455.49 27.8399C462.254 23.9733 469.018 19.5266 478.68 18.7533C482.545 18.5599 486.41 18.3666 490.275 18.9466C491.242 19.14 492.788 19.72 493.754 19.5266C494.72 19.3333 495.493 17.7866 496.266 16.4333C497.619 13.92 498.778 12.1799 499.938 9.08661C500.711 7.15328 500.324 5.21996 502.257 5.41329C504.189 5.41329 503.996 10.6333 503.996 12.5666C504.189 14.8866 503.803 17.98 504.189 19.5266C504.383 20.6866 505.929 22.2333 507.475 22.2333C508.634 22.2333 509.214 21.4599 510.18 20.6866C511.146 20.1066 512.113 19.7199 512.886 19.1399C514.432 17.9799 516.364 16.0466 517.91 14.3066C519.263 12.9533 521.389 9.85995 523.514 10.0533C527.379 10.4399 523.514 16.0466 522.741 17.98C520.809 22.4266 518.876 25.5199 516.557 29.7733C515.591 31.5133 513.465 33.8333 513.465 35.5733C513.465 36.7333 514.432 37.7 515.011 38.86C515.205 39.44 515.398 40.2133 515.591 40.7933C516.944 43.8866 517.91 48.1399 518.876 51.6199C519.843 54.5199 520.422 57.8066 521.582 60.7066C522.548 63.6066 524.094 66.3133 525.254 69.0199C525.64 69.7933 525.64 70.7599 525.833 71.3399C528.346 77.5266 530.665 84.6799 533.563 90.6733C534.723 93.1866 536.462 96.0866 536.462 99.76C536.462 103.627 534.336 105.56 532.597 108.46C531.631 110.007 530.278 112.327 528.925 112.907C527.959 113.293 526.606 112.907 525.64 113.1C524.094 113.293 523.128 114.26 521.775 114.453C518.103 114.84 514.818 112.133 513.852 109.427C513.465 108.46 513.659 107.3 513.465 106.14C512.692 101.887 510.567 99.76 507.475 96.86C505.542 95.12 503.996 93.7666 501.677 92.4133C498.199 90.6733 494.527 89.5133 490.855 87.58C489.502 86.8066 487.956 86.2266 486.797 86.4199C484.864 86.8066 482.932 89.9 481.386 91.8333C471.917 104.207 463.607 116.967 454.524 129.147C448.533 137.267 441.963 145.387 437.132 154.667C435.972 156.987 435.199 159.693 434.233 162.4C433.267 165.107 432.88 168.007 431.914 170.713C428.435 180.767 427.276 193.14 423.991 203.773C423.604 204.933 423.604 206.093 423.218 207.447C421.672 212.86 420.319 219.047 418.58 224.847C417.227 229.1 416.84 234.9 416.647 240.507C416.454 245.727 416.261 253.267 418.193 256.553C419.159 258.293 422.831 259.067 424.184 260.807C425.15 262.16 425.73 264.673 426.696 266.22C427.276 267.38 429.208 269.893 429.015 271.633C428.822 272.987 427.662 273.953 426.696 274.34C425.537 274.92 423.991 274.533 422.831 275.113C421.092 276.08 421.672 277.627 420.319 278.4Z" fill="white"/>
</svg>
