<svg width="1447" height="326" viewBox="0 0 1447 326" fill="none" xmlns="http://www.w3.org/2000/svg">
<path d="M725.049 81.5C668.806 81.5 628.252 118.175 628.252 173.188C628.252 228.2 673.849 264.875 730.145 264.875C764.122 264.875 794.08 251.428 812.622 228.76L773.649 206.246C763.359 217.503 747.719 224.074 730.145 224.074C705.74 224.074 685.007 211.34 677.312 190.965H820.062C821.181 185.26 821.846 179.351 821.846 173.137C821.846 118.175 781.344 81.5 725.049 81.5ZM676.905 155.359C683.272 135.035 700.696 122.25 725.049 122.25C749.45 122.25 766.874 135.035 773.193 155.359H676.905ZM665.392 25.4688L524.223 269.969L383.005 25.4688H435.936L524.174 178.281L612.409 25.4688H665.392ZM188.242 0L376.484 326H0L188.242 0ZM1026.64 173.188C1026.64 203.75 1046.61 224.125 1077.59 224.125C1098.58 224.125 1114.32 214.6 1122.42 199.064L1161.55 221.629C1145.34 248.626 1114.98 264.875 1077.59 264.875C1021.29 264.875 980.794 228.2 980.794 173.188C980.794 118.175 1021.34 81.5 1077.59 81.5C1114.98 81.5 1145.29 97.7491 1161.55 124.746L1122.42 147.311C1114.32 131.775 1098.58 122.25 1077.59 122.25C1046.67 122.25 1026.64 142.625 1026.64 173.188ZM1446.84 25.4688V259.781H1400.99V25.4688H1446.84ZM1273.62 81.5C1217.38 81.5 1176.83 118.175 1176.83 173.188C1176.83 228.2 1222.48 264.875 1278.72 264.875C1312.7 264.875 1342.65 251.428 1361.2 228.76L1322.22 206.246C1311.93 217.503 1296.29 224.074 1278.72 224.074C1254.32 224.074 1233.58 211.34 1225.89 190.965H1368.64C1369.76 185.26 1370.42 179.351 1370.42 173.137C1370.42 118.175 1329.92 81.5 1273.62 81.5ZM1225.48 155.359C1231.85 135.035 1249.22 122.25 1273.62 122.25C1298.03 122.25 1315.45 135.035 1321.77 155.359H1225.48ZM965.509 86.5938V135.952C960.416 134.475 955.014 133.456 949.207 133.456C919.608 133.456 898.262 153.831 898.262 184.394V259.781H852.413V86.5938H898.262V133.456C898.262 107.58 928.369 86.5938 965.509 86.5938Z" fill="white"/>
</svg>
