<svg width="1046" height="272" viewBox="0 0 1046 272" fill="none" xmlns="http://www.w3.org/2000/svg">
<g clip-path="url(#clip0_328_388)">
<path d="M999.103 70.3313C997.011 82.7069 1003.11 94.0366 1012.18 98.7428C1005.73 133.08 979.925 187.812 965.455 187.812C950.985 187.812 962.143 136.915 978.008 76.6063C981.32 63.7078 947.324 66.4967 940.525 78.0007C929.018 139.355 903.565 186.417 887.874 186.417C881.598 186.417 880.726 178.748 880.726 171.95C880.726 144.584 895.545 90.0276 897.463 78.5236C899.381 67.1939 883.69 69.6341 873.404 74.6889C870.266 76.432 846.207 88.4589 834.526 93.8623C827.379 67.5425 797.915 71.0286 791.988 90.8991C787.629 105.192 798.438 114.43 809.247 116.522C808.724 148.419 789.896 188.857 768.452 188.857C741.604 188.857 753.982 103.1 788.675 82.0096C786.758 71.0286 772.287 69.4598 758.863 75.3862C733.061 86.3672 717.196 127.851 719.463 162.189C709.351 177.876 699.414 187.637 693.137 187.637C690.174 187.637 686.861 184.849 686.861 177.528C686.861 157.309 696.973 101.357 702.726 63.8821C706.562 37.0395 701.854 4.44477 665.243 4.44477C639.615 4.44477 625.494 28.8472 615.034 66.8453H599.517C592.892 66.8453 588.883 84.1013 596.205 84.6242C598.471 84.7985 604.05 84.7985 610.675 84.7985C608.757 93.1651 607.014 102.229 605.271 111.467C604.399 116.173 603.527 121.228 602.655 126.283C589.58 153.648 559.071 191.123 531.874 191.123C519.321 191.123 514.788 175.785 515.66 156.96C589.58 160.272 612.418 67.3682 546.344 67.8911C506.943 68.0654 482.71 109.724 479.746 148.071C467.891 167.592 448.365 191.646 430.234 191.646C391.879 191.646 417.682 86.7159 443.658 86.7159C454.641 86.7159 452.375 104.495 445.576 116.522C448.017 131.86 472.424 133.255 478.177 107.458C482.536 87.7617 470.506 68.5883 445.053 68.5883C402.863 68.5883 376.189 115.65 376.015 156.088C367.821 173.693 357.36 183.28 349.689 183.28C343.413 183.28 342.541 176.133 350.212 133.952C352.13 123.32 354.048 111.467 355.966 98.9171C358.755 80.9639 351.258 70.3314 335.742 70.1571H333.301C322.492 70.68 308.022 75.3861 292.68 86.0186C283.44 64.405 257.29 68.7626 251.711 87.7617C247.352 102.752 258.161 112.338 268.97 114.256C268.273 147.025 249.619 188.857 228.175 188.857C201.327 188.857 213.705 100.137 248.398 78.5236C246.481 67.0196 232.01 65.6252 218.586 71.3772C172.038 91.0734 157.742 212.388 222.945 212.388C274.723 212.388 294.772 139.007 295.819 106.586C304.187 100.311 313.427 95.431 318.657 95.2567H318.831C321.272 95.2567 322.144 96.3025 321.621 99.0914C318.657 121.228 311.16 158.529 311.16 178.748C311.16 199.316 316.914 212.388 334.696 212.388C351.433 212.388 367.821 197.573 378.978 178.922C384.906 198.27 399.202 212.388 423.783 212.388C448.191 212.388 467.543 192.866 480.967 173.867C485.674 195.83 499.447 212.388 524.028 212.388C558.199 212.388 583.129 185.197 597.6 159.749C596.728 166.372 595.856 173.344 594.985 180.317C590.103 219.186 586.442 235.048 580.166 248.992C577.551 254.744 574.761 260.322 571.623 265.725C569.182 270.083 572.146 272 575.982 272C584.524 272 598.471 266.771 607.188 252.304C615.382 238.882 623.576 225.461 632.119 148.245C634.036 131.686 636.652 107.807 640.313 84.9728H649.901C658.618 84.9728 666.638 68.5883 656.526 67.7168C654.783 67.5425 649.901 67.3682 643.451 67.3682C648.855 40.1769 656.352 18.389 666.638 18.389C676.227 18.389 678.144 33.2048 673.786 57.2586C666.638 94.7338 659.839 141.621 657.049 168.464C653.737 200.187 664.197 212.563 681.98 212.563C695.927 212.563 711.443 199.839 723.298 183.28C729.4 200.361 741.952 212.563 763.047 212.563C810.468 212.563 831.388 152.602 835.224 118.613C842.197 116.347 848.822 113.559 855.447 110.421C850.914 134.126 847.428 160.097 847.428 175.262C847.428 197.398 858.411 212.214 875.322 212.214C900.078 212.214 916.989 188.857 927.275 169.51C927.275 194.958 937.038 212.737 960.225 212.737C1010.61 212.737 1046 110.595 1046 78.0007C1046 41.5714 1003.46 42.9658 999.103 70.3313ZM547.216 85.67C567.439 85.67 552.446 137.787 517.229 141.098C521.762 113.907 534.314 85.67 547.216 85.67ZM344.982 53.0753C373.225 53.0753 379.501 4.09617 349.864 4.09617C321.969 4.09617 316.216 53.0753 344.982 53.0753ZM128.104 7.58223C137.17 12.8113 150.594 31.6361 145.364 71.9001C136.647 136.218 102.128 188.857 90.6213 188.857C83.9965 188.857 84.3451 178.748 93.0621 141.447C104.568 92.4679 120.433 23.0952 58.0199 23.0952C-8.22895 23.0952 -16.2486 94.0366 26.2902 102.752C20.014 69.6341 39.7143 38.4339 58.3686 38.4339C78.5919 38.4339 69.875 77.3035 61.681 118.962C52.0924 167.418 41.109 222.498 79.4636 222.498C132.637 222.498 172.561 124.191 179.709 71.9001C189.123 5.66491 148.676 -12.114 128.104 7.58223Z" fill="white"/>
</g>
<defs>
<clipPath id="clip0_328_388">
<rect width="1046" height="272" fill="white"/>
</clipPath>
</defs>
</svg>
