<svg width="259" height="79" viewBox="0 0 259 79" fill="none" xmlns="http://www.w3.org/2000/svg">
<path d="M246.689 78.6115C253.06 78.2362 258.175 72.0691 258.552 65.6697C258.928 59.2702 255.339 53.1032 250.332 49.1169C245.326 45.1307 239.063 43.0929 232.8 41.8237C227.344 40.7154 221.368 40.2328 216.541 43.0035C215.518 39.8038 217.654 36.4789 217.726 33.1183C217.815 29.436 215.321 26.0754 212.162 24.1984C209.004 22.3215 205.289 21.7137 201.628 21.392C194.953 20.82 188.223 21.1238 181.637 22.3215C184.634 16.4226 179.986 9.39749 174.567 5.62575C168.77 1.60375 161.61 -0.666443 154.629 0.173707C147.648 1.03173 140.955 5.28611 137.958 11.6856C130.69 7.59206 121.269 7.62781 114.036 11.8107C112.278 12.8296 110.429 14.1166 108.437 13.7949C107.468 13.6519 106.607 13.1335 105.746 12.6866C93.1659 6.07263 75.7408 11.3995 68.9753 23.9482C67.5935 26.5044 66.4271 29.4896 63.8609 30.8303C62.2279 31.6704 60.3256 31.6883 58.4952 31.8849C48.8943 32.9574 40.3344 40.4473 37.9476 49.8319C29.2082 49.7962 20.1457 50.6185 12.5009 54.9086C4.85611 59.1987 -0.976171 67.6717 0.13645 76.3771L246.689 78.5937V78.6115Z" fill="white"/>
</svg>
