<svg width="327" height="233" viewBox="0 0 327 233" fill="none" xmlns="http://www.w3.org/2000/svg">
<path opacity="0.14" d="M0.820312 119.56C26.3388 38.7624 107.722 -14.0061 194.093 4.45931C273.681 21.4589 326.513 85.7751 326.316 161.532L123.442 232.837L0.820312 119.578V119.56Z" fill="#DD484D"/>
<path opacity="0.25" d="M22.3916 125.512L149.589 222.38L297.532 173.133V161.049C297.604 99.0388 254.032 46.3417 188.477 32.3273C117.323 17.1152 43.316 59.3909 22.3916 125.512Z" fill="#EA885E"/>
<path d="M51.8037 140.546C68.0085 89.2072 124.985 56.2805 179.701 67.9711C230.11 78.75 263.543 119.578 263.399 167.699L149.607 200.965L51.8037 140.528V140.546Z" fill="#F6BF6F"/>
<path d="M85.667 155.007C97.5649 115.824 135.484 93.7297 172.415 101.631C206.44 108.906 228.441 139.241 227.49 175.707L148.709 205.327L85.667 155.025V155.007Z" fill="#F8CC8D"/>
</svg>
