<svg width="40" height="68" viewBox="0 0 40 68" fill="none" xmlns="http://www.w3.org/2000/svg">
<path d="M20.3133 0.852929C20.3133 0.852929 12.7044 -0.469875 5.43648 15.5287C5.43648 15.5287 -2.5134 32.582 1.54228 44.2726C1.54228 44.2726 6.44145 54.6762 17.5138 55.6593C17.5138 55.6593 29.5373 56.3922 35.3337 48.8488C35.3337 48.8488 42.3863 40.5366 38.3665 27.559C38.3665 27.559 31.6548 0.727801 20.2953 0.852929H20.3133Z" fill="#DD484D"/>
<path d="M17.729 65.4372L19.039 38.177L13.458 25.5748L19.1647 32.6177L20.3491 14.5634L21.049 25.3602L25.7507 20.5338L21.3361 28.8459L23.1127 67.3499L17.729 65.4372Z" fill="#640718"/>
</svg>
