<svg width="36" height="108" viewBox="0 0 36 108" fill="none" xmlns="http://www.w3.org/2000/svg">
<path d="M17.8923 83.5682C17.8923 83.5682 4.02042 83.9078 1.04147 71.0553C1.04147 71.0553 0.0365229 56.3973 5.65346 38.5754C5.65346 38.5754 12.9573 3.44998 18.4665 0C18.4665 0 24.7654 1.07255 31.6206 41.2746C31.6206 41.2746 37.5247 62.2605 34.8867 72.2887C34.8867 72.2887 32.4102 82.8353 17.9282 83.5682H17.8923Z" fill="#EA885E"/>
<path d="M13.4063 107.897L16.4391 64.5128L6.96387 48.3354L16.4391 59.3825L18.2516 19.1268L19.2924 48.3354L26.8834 39.9697L19.6693 53.7696L22.7021 107.897H13.4063Z" fill="#640718"/>
</svg>
