<svg width="140" height="235" viewBox="0 0 140 235" fill="none" xmlns="http://www.w3.org/2000/svg">
<path d="M71.3487 0.581141C71.3487 0.581141 44.3766 -4.0844 18.6069 52.6168C18.6069 52.6168 -9.56751 113.072 4.82477 154.579C4.82477 154.579 22.214 191.474 61.4966 194.978C61.4966 194.978 104.153 197.587 124.683 170.828C124.683 170.828 149.699 141.351 135.468 95.3393C135.468 95.3393 111.654 0.152118 71.3487 0.599007V0.581141Z" fill="#841618"/>
<path d="M58.9311 234.25L66.1093 129.392L43.6416 90.2984L66.1093 116.987L70.3086 47.5044L72.8569 90.2984L90.8382 70.0633L73.7541 103.437L80.9503 234.25H58.9311Z" fill="#640718"/>
</svg>
