<svg width="122" height="218" viewBox="0 0 122 218" fill="none" xmlns="http://www.w3.org/2000/svg">
<path d="M61.9885 0.0834187C61.9885 0.0834187 38.6235 -4.09946 16.2993 46.7743C16.2993 46.7743 -8.10662 101.027 4.36549 138.279C4.36549 138.279 19.4398 171.385 53.4644 174.531C53.4644 174.531 90.4142 176.873 108.198 152.848C108.198 152.848 129.876 126.392 117.548 85.0995C117.548 85.0995 96.9104 -0.327719 62.0064 0.0834187H61.9885Z" fill="#EA885E"/>
<path d="M50.9692 217.194L56.3077 117.474L37 82.6736L56.3077 105.313L59.8845 44.5309L62.2513 81.987L78 63.9726L63.4436 92.8642L71.0243 217.194H50.9692Z" fill="#640718"/>
</svg>
