<svg width="60" height="170" viewBox="0 0 60 170" fill="none" xmlns="http://www.w3.org/2000/svg">
<path d="M29.3507 138.891C29.3507 138.891 5.77029 139.446 0.727608 118.192C0.727608 118.192 -0.995186 93.9345 8.55182 64.4756C8.55182 64.4756 20.9522 6.36222 30.3197 0.677795C30.3197 0.677795 41.0152 2.44748 52.6439 68.9445C52.6439 68.9445 62.6575 103.641 58.1711 120.247C58.1711 120.247 53.9719 137.694 29.3507 138.909V138.891Z" fill="#C12127"/>
<path d="M23.9666 165.884L27.5737 106.108L15.2451 86.2659L27.5737 97.313L29.9603 33.0862L32.2933 81.2965L43.5271 69.7847L32.742 89.6444L37.0129 169.048L23.9666 165.884Z" fill="#640718"/>
</svg>
