<svg width="134" height="244" viewBox="0 0 134 244" fill="none" xmlns="http://www.w3.org/2000/svg">
<path d="M94.9577 58.4786C99.8499 52.3698 102.778 44.6072 102.778 36.158C102.778 16.4725 86.8854 0.514221 67.2814 0.514221C47.6774 0.514221 31.7852 16.4725 31.7852 36.158C31.7852 45.3138 35.2229 53.6632 40.873 59.9758C18.1898 72.1864 0.685547 97.4568 0.685547 122.836C0.685547 154.409 28.5926 181.019 59.705 184.727L63.836 132.06L37.7432 89.2482L63.836 117.098L68.6633 42.3071L71.8755 88.4081L93.1409 66.2424L73.4727 101.779L78.9699 183.803C108.302 177.117 133.895 146.947 133.895 116.902L133.877 116.92C133.877 92.757 117.242 69.2236 94.9577 58.4786Z" fill="#DD484D"/>
<path d="M55.0786 243.711L63.836 132.06L37.7432 89.2482L63.836 117.098L68.6633 42.3071L71.8755 88.4081L93.1409 66.2424L73.4727 101.779L82.9479 243.157L55.0786 243.711Z" fill="#640718"/>
</svg>
