<svg width="68" height="115" viewBox="0 0 68 115" fill="none" xmlns="http://www.w3.org/2000/svg">
<path d="M34.2256 0.356311C34.2256 0.356311 21.2331 -1.89601 8.8148 25.4357C8.8148 25.4357 -4.75201 54.5549 2.17495 74.5576C2.17495 74.5576 10.5555 92.3438 29.488 94.0241C29.488 94.0241 50.0356 95.2754 59.9415 82.3871C59.9415 82.3871 72.0009 68.1939 65.1457 46.0104C65.1457 46.0104 53.6606 0.141804 34.2435 0.356311H34.2256Z" fill="#841618"/>
<path d="M29.793 110.738L32.0362 64.1541L22.4893 42.6141L32.2516 54.6622L34.2794 23.809L35.4638 42.2566L43.5214 33.998L35.9663 48.227L39.017 114.027L29.793 110.738Z" fill="#640718"/>
</svg>
