<?xml version="1.0" encoding="utf-8"?>
<!-- Generator: Adobe Adobe Illustrator 24.2.0, SVG Export Plug-In . SVG Version: 6.00 Build 0)  -->
<svg version="1.1" id="Layer_1" xmlns="http://www.w3.org/2000/svg" xmlns:xlink="http://www.w3.org/1999/xlink" x="0px" y="0px"
	 width="2000px" height="2000px" viewBox="0 0 2000 2000" style="enable-background:new 0 0 2000 2000;" xml:space="preserve">
<style type="text/css">
	.st0{fill:url(#SVGID_1_);}
	.st1{fill:url(#SVGID_2_);}
	.st2{fill:url(#SVGID_3_);}
	.st3{fill:url(#SVGID_4_);}
	.st4{fill:url(#SVGID_5_);}
	.st5{fill:url(#SVGID_6_);}
	.st6{fill:url(#SVGID_7_);}
	.st7{fill:url(#SVGID_8_);}
	.st8{fill:url(#SVGID_9_);}
	.st9{fill:url(#SVGID_10_);}
	.st10{fill:url(#SVGID_11_);}
	.st11{fill:url(#SVGID_12_);}
	.st12{fill:url(#SVGID_13_);}
	.st13{fill:url(#SVGID_14_);}
	.st14{fill:url(#SVGID_15_);}
	.st15{fill:url(#SVGID_16_);}
	.st16{fill:url(#SVGID_17_);}
	.st17{fill:url(#SVGID_18_);}
	.st18{fill:url(#SVGID_19_);}
	.st19{fill:url(#SVGID_20_);}
	.st20{fill:url(#SVGID_21_);}
	.st21{fill:url(#SVGID_22_);}
	.st22{fill:url(#SVGID_23_);}
	.st23{fill:url(#SVGID_24_);}
	.st24{fill:url(#SVGID_25_);}
	.st25{fill:url(#SVGID_26_);}
	.st26{fill:url(#SVGID_27_);}
	.st27{fill:url(#SVGID_28_);}
	.st28{fill:url(#SVGID_29_);}
	.st29{fill:url(#SVGID_30_);}
	.st30{fill:url(#SVGID_31_);}
	.st31{fill:url(#SVGID_32_);}
	.st32{fill:url(#SVGID_33_);}
	.st33{fill:url(#SVGID_34_);}
	.st34{fill:url(#SVGID_35_);}
	.st35{fill:url(#SVGID_36_);}
	.st36{fill:url(#SVGID_37_);}
	.st37{fill:#00001C;}
</style>
<g>
	<g>
		<path d="M377.82,1329.71h-15.86l-2.17,5.05h-8.52l17.33-39.48h2.64l17.27,39.48h-8.52L377.82,1329.71z M369.89,1310.09l-5.17,13.1
			h10.34L369.89,1310.09z"/>
		<path d="M396.26,1322.78c2.53,3.47,5.29,5.64,9.52,5.64c3.47,0,5.52-1.64,5.52-4.29c0-2.29-1.23-3.11-4.93-4.82l-4.17-1.88
			c-5.93-2.64-9.4-5.99-9.4-11.16c0-6.64,5.52-10.99,12.87-10.99c5.93,0,10.4,2.88,12.81,7.34l-5.4,4.17c-2-3-4.46-4.46-7.4-4.46
			c-2.76,0-4.82,1.35-4.82,3.76c0,2.06,1.23,3,4.52,4.46l4.41,1.94c6.52,2.88,9.58,6.11,9.58,11.34c0,7.11-5.82,11.63-13.57,11.63
			c-6.58,0-11.98-3.35-14.98-8.58L396.26,1322.78z"/>
		<path d="M428.8,1322.78c2.53,3.47,5.29,5.64,9.52,5.64c3.47,0,5.52-1.64,5.52-4.29c0-2.29-1.23-3.11-4.93-4.82l-4.17-1.88
			c-5.93-2.64-9.4-5.99-9.4-11.16c0-6.64,5.52-10.99,12.87-10.99c5.93,0,10.4,2.88,12.81,7.34l-5.4,4.17c-2-3-4.46-4.46-7.4-4.46
			c-2.76,0-4.82,1.35-4.82,3.76c0,2.06,1.23,3,4.52,4.46l4.41,1.94c6.52,2.88,9.58,6.11,9.58,11.34c0,7.11-5.82,11.63-13.57,11.63
			c-6.58,0-11.98-3.35-14.98-8.58L428.8,1322.78z"/>
		<path d="M477.21,1295.29c11.16-0.23,20.85,8.99,20.68,20.09c0.18,11.1-9.52,20.33-20.68,20.09c-11.16,0.23-20.74-8.99-20.56-20.09
			C456.47,1304.27,466.05,1295.05,477.21,1295.29z M477.27,1302.63c-7.17,0-12.45,5.29-12.45,12.75c0,7.46,5.29,12.75,12.45,12.75
			c7.11,0,12.45-5.29,12.45-12.75C489.72,1308.03,484.38,1302.63,477.27,1302.63z"/>
		<path d="M523.03,1295.29c7.34,0,13.63,3.58,17.1,9.63l-5.99,4.23c-2.76-4.35-6.46-6.52-11.1-6.52c-7.23,0-12.51,5.4-12.51,12.81
			c0,7.4,5.29,12.69,12.51,12.69c4.64,0,8.34-2.17,11.1-6.52l5.99,4.23c-3.35,6.05-9.69,9.63-17.15,9.63
			c-11.34,0.23-20.86-8.99-20.62-20.09C502.17,1304.27,511.75,1295.05,523.03,1295.29z"/>
		<path d="M546.87,1295.99h7.93v38.77h-7.93V1295.99z"/>
		<path d="M586.52,1329.71h-15.86l-2.17,5.05h-8.52l17.33-39.48h2.64l17.27,39.48h-8.52L586.52,1329.71z M578.59,1310.09l-5.17,13.1
			h10.34L578.59,1310.09z"/>
		<path d="M606.85,1303.16h-12.4v-7.17h32.78v7.17h-12.45v31.61h-7.93V1303.16z"/>
		<path d="M632.46,1295.99h7.93v38.77h-7.93V1295.99z"/>
		<path d="M667.58,1295.29c11.16-0.23,20.85,8.99,20.68,20.09c0.18,11.1-9.52,20.33-20.68,20.09c-11.16,0.23-20.74-8.99-20.56-20.09
			C646.85,1304.27,656.42,1295.05,667.58,1295.29z M667.64,1302.63c-7.17,0-12.45,5.29-12.45,12.75c0,7.46,5.29,12.75,12.45,12.75
			c7.11,0,12.45-5.29,12.45-12.75C680.1,1308.03,674.75,1302.63,667.64,1302.63z"/>
		<path d="M727.97,1295.99v39.48h-2.64l-22.44-23.97v23.26h-7.93v-39.48h2.58l22.5,23.85v-23.15H727.97z"/>
		<path d="M753.28,1295.99h12.69c12.28-0.12,21.33,7.81,21.15,19.27c0.18,11.22-8.87,19.68-21.15,19.5h-12.69V1295.99z
			 M765.92,1327.6c7.81,0,13.04-4.88,13.04-12.34c0-7.52-5.11-12.1-13.04-12.1h-4.7v24.44H765.92z"/>
		<path d="M793.81,1295.99h26.08v7.17h-18.15v7.87h13.34v6.76h-13.34v9.81h18.86v7.17h-26.79V1295.99z"/>
		<path d="M830.23,1322.78c2.53,3.47,5.29,5.64,9.52,5.64c3.47,0,5.52-1.64,5.52-4.29c0-2.29-1.23-3.11-4.93-4.82l-4.17-1.88
			c-5.93-2.64-9.4-5.99-9.4-11.16c0-6.64,5.52-10.99,12.87-10.99c5.93,0,10.4,2.88,12.81,7.34l-5.4,4.17c-2-3-4.46-4.46-7.4-4.46
			c-2.76,0-4.82,1.35-4.82,3.76c0,2.06,1.23,3,4.52,4.46l4.41,1.94c6.52,2.88,9.58,6.11,9.58,11.34c0,7.11-5.82,11.63-13.57,11.63
			c-6.58,0-11.98-3.35-14.98-8.58L830.23,1322.78z"/>
		<path d="M876.75,1295.99h26.08v7.17h-18.15v7.87h13.34v6.76h-13.34v9.81h18.86v7.17h-26.79V1295.99z M890.8,1281.3h9.52v1.41
			l-8.05,9.52h-5.76L890.8,1281.3z"/>
		<path d="M919.17,1303.16h-12.4v-7.17h32.78v7.17H927.1v31.61h-7.93V1303.16z"/>
		<path d="M944.42,1295.99h7.93v23.32c0,5.64,3.52,8.81,8.52,8.81c5.11,0,8.52-3.17,8.52-8.81v-23.32h7.93v22.74
			c0,10.28-7.05,16.74-16.45,16.74c-9.52,0-16.45-6.46-16.45-16.74V1295.99z"/>
		<path d="M985.89,1295.99h12.69c12.28-0.12,21.32,7.81,21.15,19.27c0.18,11.22-8.87,19.68-21.15,19.5h-12.69V1295.99z
			 M998.52,1327.6c7.81,0,13.04-4.88,13.04-12.34c0-7.52-5.11-12.1-13.04-12.1h-4.7v24.44H998.52z"/>
		<path d="M1026.42,1295.99h7.93v38.77h-7.93V1295.99z"/>
		<path d="M1066.08,1329.71h-15.86l-2.17,5.05h-8.52l17.33-39.48h2.64l17.27,39.48h-8.52L1066.08,1329.71z M1058.14,1310.09
			l-5.17,13.1h10.34L1058.14,1310.09z"/>
		<path d="M1115.07,1295.99v39.48h-2.64l-22.44-23.97v23.26h-7.93v-39.48h2.58l22.5,23.85v-23.15H1115.07z"/>
		<path d="M1132.68,1303.16h-12.4v-7.17h32.78v7.17h-12.45v31.61h-7.93V1303.16z"/>
		<path d="M1161.06,1322.78c2.53,3.47,5.29,5.64,9.52,5.64c3.47,0,5.52-1.64,5.52-4.29c0-2.29-1.23-3.11-4.93-4.82l-4.17-1.88
			c-5.93-2.64-9.4-5.99-9.4-11.16c0-6.64,5.52-10.99,12.87-10.99c5.93,0,10.4,2.88,12.81,7.34l-5.4,4.17c-2-3-4.46-4.46-7.4-4.46
			c-2.76,0-4.82,1.35-4.82,3.76c0,2.06,1.23,3,4.52,4.46l4.41,1.94c6.52,2.88,9.58,6.11,9.58,11.34c0,7.11-5.82,11.63-13.57,11.63
			c-6.58,0-11.98-3.35-14.98-8.58L1161.06,1322.78z"/>
		<path d="M1207.58,1295.99h26.08v7.17h-18.15v7.87h13.34v6.76h-13.34v9.81h18.86v7.17h-26.79V1295.99z"/>
		<path d="M1274.25,1295.99v39.48h-2.64l-22.44-23.97v23.26h-7.93v-39.48h2.58l22.5,23.85v-23.15H1274.25z"/>
		<path d="M1299.56,1295.99h7.93v38.77h-7.93V1295.99z"/>
		<path d="M1349.38,1295.99v39.48h-2.64l-22.44-23.97v23.26h-7.93v-39.48h2.58l22.5,23.85v-23.15H1349.38z"/>
		<path d="M1358.25,1295.99h25.5v7.17h-17.56v9.69h14.39v7.17h-14.39v14.75h-7.93V1295.99z"/>
		<path d="M1407.71,1295.29c11.16-0.23,20.86,8.99,20.68,20.09c0.18,11.1-9.52,20.33-20.68,20.09
			c-11.16,0.23-20.74-8.99-20.56-20.09C1386.97,1304.27,1396.54,1295.05,1407.71,1295.29z M1407.77,1302.63
			c-7.17,0-12.45,5.29-12.45,12.75c0,7.46,5.29,12.75,12.45,12.75c7.11,0,12.45-5.29,12.45-12.75
			C1420.22,1308.03,1414.87,1302.63,1407.77,1302.63z"/>
		<path d="M1458.87,1334.76l-10.05-13.69h-5.82v13.69h-7.93v-38.77h14.57c8.11,0,13.98,5.05,13.98,12.51
			c0,4.93-2.58,8.93-6.81,11.04l10.99,15.22H1458.87z M1443.01,1314.08h6.64c3.7,0,5.87-2.23,5.87-5.58c0-3.29-2.29-5.52-5.87-5.52
			h-6.64V1314.08z"/>
		<path d="M1510.62,1295.29v39.48h-7.93v-20.68l-9.75,12.22h-2.58l-9.75-12.22v20.68h-7.93v-39.48h2.58l16.39,20.97l16.39-20.97
			H1510.62z"/>
		<path d="M1542.4,1329.71h-15.86l-2.17,5.05h-8.52l17.33-39.48h2.64l17.27,39.48h-8.52L1542.4,1329.71z M1534.47,1310.09
			l-5.17,13.1h10.34L1534.47,1310.09z"/>
		<path d="M1562.72,1303.16h-12.4v-7.17h32.78v7.17h-12.45v31.61h-7.93V1303.16z"/>
		<path d="M1588.33,1295.99h7.93v38.77h-7.93V1295.99z"/>
		<path d="M1662.76,1346.98c-2.06,0.53-4.35,0.76-6.93,0.76c-10.52,0-19.68-4.52-25.85-13.28c-2.11,0.65-4.29,1-6.52,1
			c-11.16,0.23-20.74-8.99-20.56-20.09c-0.18-11.1,9.4-20.33,20.56-20.09c11.16-0.23,20.86,8.99,20.68,20.09
			c0,6.34-2.88,11.93-7.58,15.63c5.23,6.81,11.63,9.99,20.8,9.99c0.76,0,2.58-0.06,5.4-0.23V1346.98z M1635.97,1315.38
			c0-7.34-5.35-12.75-12.45-12.75c-7.17,0-12.45,5.29-12.45,12.75c0,7.46,5.29,12.75,12.45,12.75
			C1630.63,1328.13,1635.97,1322.84,1635.97,1315.38z"/>
		<path d="M1650.48,1295.99h7.93v23.32c0,5.64,3.52,8.81,8.52,8.81c5.11,0,8.52-3.17,8.52-8.81v-23.32h7.93v22.74
			c0,10.28-7.05,16.74-16.45,16.74c-9.52,0-16.45-6.46-16.45-16.74V1295.99z"/>
		<path d="M1691.95,1295.99h26.08v7.17h-18.15v7.87h13.34v6.76h-13.34v9.81h18.86v7.17h-26.79V1295.99z"/>
	</g>
	<g>
		<g>
			<linearGradient id="SVGID_1_" gradientUnits="userSpaceOnUse" x1="274.9429" y1="1237.1934" x2="1759.415" y2="1237.1934">
				<stop  offset="0" style="stop-color:#00FCF1"/>
				<stop  offset="1" style="stop-color:#1B36FF"/>
			</linearGradient>
			<path class="st0" d="M374.13,1214.99c8.12,0,15.06,3.96,18.89,10.65l-6.62,4.67c-3.05-4.8-7.14-7.21-12.27-7.21
				c-7.99,0-13.83,5.97-13.83,14.15s5.84,14.02,13.83,14.02c5.13,0,9.22-2.4,12.27-7.21l6.62,4.67
				c-3.7,6.69-10.71,10.65-18.96,10.65c-12.53,0.26-23.05-9.93-22.79-22.21C351.08,1224.92,361.66,1214.73,374.13,1214.99z"/>
			<linearGradient id="SVGID_2_" gradientUnits="userSpaceOnUse" x1="274.9429" y1="1237.1934" x2="1759.415" y2="1237.1934">
				<stop  offset="0" style="stop-color:#00FCF1"/>
				<stop  offset="1" style="stop-color:#1B36FF"/>
			</linearGradient>
			<path class="st1" d="M420.42,1214.99c12.34-0.26,23.05,9.93,22.85,22.2c0.2,12.27-10.52,22.46-22.85,22.21
				c-12.34,0.26-22.92-9.93-22.72-22.21C397.5,1224.92,408.09,1214.73,420.42,1214.99z M420.49,1223.1
				c-7.92,0-13.76,5.84-13.76,14.09s5.84,14.09,13.76,14.09c7.86,0,13.76-5.84,13.76-14.09
				C434.25,1229.08,428.34,1223.1,420.49,1223.1z"/>
			<linearGradient id="SVGID_3_" gradientUnits="userSpaceOnUse" x1="274.9429" y1="1236.8037" x2="1759.415" y2="1236.8037">
				<stop  offset="0" style="stop-color:#00FCF1"/>
				<stop  offset="1" style="stop-color:#1B36FF"/>
			</linearGradient>
			<path class="st2" d="M492.63,1214.99v43.63h-8.77v-22.85l-10.78,13.5h-2.86l-10.78-13.5v22.85h-8.76v-43.63h2.86l18.11,23.18
				l18.11-23.18H492.63z"/>
			<linearGradient id="SVGID_4_" gradientUnits="userSpaceOnUse" x1="274.9429" y1="1237.1934" x2="1759.415" y2="1237.1934">
				<stop  offset="0" style="stop-color:#00FCF1"/>
				<stop  offset="1" style="stop-color:#1B36FF"/>
			</linearGradient>
			<path class="st3" d="M502.5,1215.77h16.1c8.96,0,15.45,5.58,15.45,13.83c0,8.18-6.49,13.89-15.45,13.89h-7.34v15.13h-8.76
				V1215.77z M518.6,1235.83c4.09,0,6.49-2.53,6.49-6.23c0-3.64-2.53-6.1-6.49-6.1h-7.34v12.34H518.6z"/>
			<linearGradient id="SVGID_5_" gradientUnits="userSpaceOnUse" x1="274.9429" y1="1237.583" x2="1759.415" y2="1237.583">
				<stop  offset="0" style="stop-color:#00FCF1"/>
				<stop  offset="1" style="stop-color:#1B36FF"/>
			</linearGradient>
			<path class="st4" d="M540.68,1215.77h8.76v25.78c0,6.23,3.9,9.74,9.42,9.74c5.65,0,9.41-3.51,9.41-9.74v-25.78h8.76v25.13
				c0,11.36-7.79,18.5-18.18,18.5c-10.52,0-18.18-7.14-18.18-18.5V1215.77z"/>
			<linearGradient id="SVGID_6_" gradientUnits="userSpaceOnUse" x1="274.9429" y1="1237.1934" x2="1759.415" y2="1237.1934">
				<stop  offset="0" style="stop-color:#00FCF1"/>
				<stop  offset="1" style="stop-color:#1B36FF"/>
			</linearGradient>
			<path class="st5" d="M596.19,1223.69h-13.7v-7.92h36.23v7.92h-13.76v34.93h-8.76V1223.69z"/>
			<linearGradient id="SVGID_7_" gradientUnits="userSpaceOnUse" x1="274.9429" y1="1237.1934" x2="1759.415" y2="1237.1934">
				<stop  offset="0" style="stop-color:#00FCF1"/>
				<stop  offset="1" style="stop-color:#1B36FF"/>
			</linearGradient>
			<path class="st6" d="M624.51,1215.77h28.83v7.92h-20.06v8.7h14.74v7.47h-14.74v10.84h20.84v7.92h-29.61V1215.77z"/>
			<linearGradient id="SVGID_8_" gradientUnits="userSpaceOnUse" x1="274.9429" y1="1237.1934" x2="1759.415" y2="1237.1934">
				<stop  offset="0" style="stop-color:#00FCF1"/>
				<stop  offset="1" style="stop-color:#1B36FF"/>
			</linearGradient>
			<path class="st7" d="M688.01,1258.62l-11.1-15.13h-6.43v15.13h-8.76v-42.85h16.1c8.96,0,15.45,5.58,15.45,13.83
				c0,5.45-2.86,9.87-7.53,12.21l12.14,16.82H688.01z M670.48,1235.76h7.34c4.09,0,6.49-2.47,6.49-6.17c0-3.64-2.53-6.1-6.49-6.1
				h-7.34V1235.76z"/>
			<linearGradient id="SVGID_9_" gradientUnits="userSpaceOnUse" x1="274.9429" y1="1237.1934" x2="1759.415" y2="1237.1934">
				<stop  offset="0" style="stop-color:#00FCF1"/>
				<stop  offset="1" style="stop-color:#1B36FF"/>
			</linearGradient>
			<path class="st8" d="M724.5,1245.37c2.79,3.83,5.84,6.23,10.52,6.23c3.83,0,6.1-1.82,6.1-4.74c0-2.53-1.36-3.44-5.45-5.32
				l-4.61-2.08c-6.56-2.92-10.39-6.62-10.39-12.34c0-7.34,6.1-12.14,14.22-12.14c6.56,0,11.49,3.18,14.15,8.12l-5.97,4.61
				c-2.21-3.31-4.93-4.93-8.18-4.93c-3.05,0-5.32,1.49-5.32,4.16c0,2.27,1.36,3.31,5,4.93l4.87,2.14
				c7.21,3.18,10.58,6.75,10.58,12.53c0,7.86-6.43,12.86-15,12.86c-7.27,0-13.25-3.7-16.56-9.48L724.5,1245.37z"/>
			<linearGradient id="SVGID_10_" gradientUnits="userSpaceOnUse" x1="274.9429" y1="1237.1934" x2="1759.415" y2="1237.1934">
				<stop  offset="0" style="stop-color:#00FCF1"/>
				<stop  offset="1" style="stop-color:#1B36FF"/>
			</linearGradient>
			<path class="st9" d="M778.13,1214.99c8.12,0,15.06,3.96,18.89,10.65l-6.62,4.67c-3.05-4.8-7.14-7.21-12.27-7.21
				c-7.99,0-13.83,5.97-13.83,14.15s5.84,14.02,13.83,14.02c5.13,0,9.22-2.4,12.27-7.21l6.62,4.67
				c-3.7,6.69-10.71,10.65-18.96,10.65c-12.53,0.26-23.05-9.93-22.79-22.21C755.08,1224.92,765.67,1214.73,778.13,1214.99z"/>
			<linearGradient id="SVGID_11_" gradientUnits="userSpaceOnUse" x1="274.9429" y1="1237.1934" x2="1759.415" y2="1237.1934">
				<stop  offset="0" style="stop-color:#00FCF1"/>
				<stop  offset="1" style="stop-color:#1B36FF"/>
			</linearGradient>
			<path class="st10" d="M804.5,1215.77h8.76v42.85h-8.76V1215.77z"/>
			<linearGradient id="SVGID_12_" gradientUnits="userSpaceOnUse" x1="274.9429" y1="1237.1934" x2="1759.415" y2="1237.1934">
				<stop  offset="0" style="stop-color:#00FCF1"/>
				<stop  offset="1" style="stop-color:#1B36FF"/>
			</linearGradient>
			<path class="st11" d="M823.07,1215.77h28.83v7.92h-20.06v8.7h14.74v7.47h-14.74v10.84h20.84v7.92h-29.61V1215.77z"/>
			<linearGradient id="SVGID_13_" gradientUnits="userSpaceOnUse" x1="274.9429" y1="1237.1934" x2="1759.415" y2="1237.1934">
				<stop  offset="0" style="stop-color:#00FCF1"/>
				<stop  offset="1" style="stop-color:#1B36FF"/>
			</linearGradient>
			<path class="st12" d="M896.76,1215.77v43.63h-2.92l-24.8-26.49v25.71h-8.76v-43.63h2.86l24.87,26.36v-25.58H896.76z"/>
			<linearGradient id="SVGID_14_" gradientUnits="userSpaceOnUse" x1="274.9429" y1="1237.1934" x2="1759.415" y2="1237.1934">
				<stop  offset="0" style="stop-color:#00FCF1"/>
				<stop  offset="1" style="stop-color:#1B36FF"/>
			</linearGradient>
			<path class="st13" d="M926.96,1214.99c8.12,0,15.06,3.96,18.89,10.65l-6.62,4.67c-3.05-4.8-7.14-7.21-12.27-7.21
				c-7.99,0-13.83,5.97-13.83,14.15s5.84,14.02,13.83,14.02c5.13,0,9.22-2.4,12.27-7.21l6.62,4.67
				c-3.7,6.69-10.71,10.65-18.96,10.65c-12.53,0.26-23.05-9.93-22.79-22.21C903.91,1224.92,914.49,1214.73,926.96,1214.99z"/>
			<linearGradient id="SVGID_15_" gradientUnits="userSpaceOnUse" x1="274.9429" y1="1237.1934" x2="1759.415" y2="1237.1934">
				<stop  offset="0" style="stop-color:#00FCF1"/>
				<stop  offset="1" style="stop-color:#1B36FF"/>
			</linearGradient>
			<path class="st14" d="M953.32,1215.77h28.83v7.92h-20.06v8.7h14.74v7.47h-14.74v10.84h20.84v7.92h-29.61V1215.77z"/>
			<linearGradient id="SVGID_16_" gradientUnits="userSpaceOnUse" x1="274.9429" y1="1237.1934" x2="1759.415" y2="1237.1934">
				<stop  offset="0" style="stop-color:#00FCF1"/>
				<stop  offset="1" style="stop-color:#1B36FF"/>
			</linearGradient>
			<path class="st15" d="M1011.76,1245.37c2.79,3.83,5.84,6.23,10.52,6.23c3.83,0,6.1-1.82,6.1-4.74c0-2.53-1.36-3.44-5.45-5.32
				l-4.61-2.08c-6.56-2.92-10.39-6.62-10.39-12.34c0-7.34,6.1-12.14,14.22-12.14c6.56,0,11.49,3.18,14.15,8.12l-5.97,4.61
				c-2.21-3.31-4.93-4.93-8.18-4.93c-3.05,0-5.32,1.49-5.32,4.16c0,2.27,1.36,3.31,5,4.93l4.87,2.14
				c7.21,3.18,10.58,6.75,10.58,12.53c0,7.86-6.43,12.86-15,12.86c-7.27,0-13.25-3.7-16.56-9.48L1011.76,1245.37z"/>
			<linearGradient id="SVGID_17_" gradientUnits="userSpaceOnUse" x1="274.9429" y1="1237.1934" x2="1759.415" y2="1237.1934">
				<stop  offset="0" style="stop-color:#00FCF1"/>
				<stop  offset="1" style="stop-color:#1B36FF"/>
			</linearGradient>
			<path class="st16" d="M1054.68,1223.69h-13.7v-7.92h36.23v7.92h-13.76v34.93h-8.76V1223.69z"/>
			<linearGradient id="SVGID_18_" gradientUnits="userSpaceOnUse" x1="274.9429" y1="1237.583" x2="1759.415" y2="1237.583">
				<stop  offset="0" style="stop-color:#00FCF1"/>
				<stop  offset="1" style="stop-color:#1B36FF"/>
			</linearGradient>
			<path class="st17" d="M1082.6,1215.77h8.76v25.78c0,6.23,3.9,9.74,9.42,9.74c5.65,0,9.41-3.51,9.41-9.74v-25.78h8.76v25.13
				c0,11.36-7.79,18.5-18.18,18.5c-10.52,0-18.18-7.14-18.18-18.5V1215.77z"/>
			<linearGradient id="SVGID_19_" gradientUnits="userSpaceOnUse" x1="274.9429" y1="1237.1942" x2="1759.415" y2="1237.1942">
				<stop  offset="0" style="stop-color:#00FCF1"/>
				<stop  offset="1" style="stop-color:#1B36FF"/>
			</linearGradient>
			<path class="st18" d="M1128.44,1215.77h14.02c13.57-0.13,23.57,8.63,23.37,21.3c0.19,12.4-9.8,21.75-23.37,21.56h-14.02V1215.77z
				 M1142.4,1250.7c8.63,0,14.41-5.39,14.41-13.63c0-8.31-5.65-13.37-14.41-13.37h-5.19v27.01H1142.4z"/>
			<linearGradient id="SVGID_20_" gradientUnits="userSpaceOnUse" x1="274.9429" y1="1237.1934" x2="1759.415" y2="1237.1934">
				<stop  offset="0" style="stop-color:#00FCF1"/>
				<stop  offset="1" style="stop-color:#1B36FF"/>
			</linearGradient>
			<path class="st19" d="M1173.24,1215.77h28.83v7.92h-20.06v8.7h14.74v7.47h-14.74v10.84h20.84v7.92h-29.61V1215.77z"/>
			<linearGradient id="SVGID_21_" gradientUnits="userSpaceOnUse" x1="274.9429" y1="1237.1934" x2="1759.415" y2="1237.1934">
				<stop  offset="0" style="stop-color:#00FCF1"/>
				<stop  offset="1" style="stop-color:#1B36FF"/>
			</linearGradient>
			<path class="st20" d="M1246.94,1215.77v43.63h-2.92l-24.8-26.49v25.71h-8.76v-43.63h2.86l24.87,26.36v-25.58H1246.94z"/>
			<linearGradient id="SVGID_22_" gradientUnits="userSpaceOnUse" x1="274.9429" y1="1237.1934" x2="1759.415" y2="1237.1934">
				<stop  offset="0" style="stop-color:#00FCF1"/>
				<stop  offset="1" style="stop-color:#1B36FF"/>
			</linearGradient>
			<path class="st21" d="M1266.42,1223.69h-13.7v-7.92h36.23v7.92h-13.76v34.93h-8.76V1223.69z"/>
			<linearGradient id="SVGID_23_" gradientUnits="userSpaceOnUse" x1="274.9429" y1="1236.8037" x2="1759.415" y2="1236.8037">
				<stop  offset="0" style="stop-color:#00FCF1"/>
				<stop  offset="1" style="stop-color:#1B36FF"/>
			</linearGradient>
			<path class="st22" d="M1331.68,1253.04h-17.53l-2.4,5.58h-9.42l19.15-43.63h2.92l19.09,43.63h-9.41L1331.68,1253.04z
				 M1322.91,1231.35l-5.71,14.48h11.43L1322.91,1231.35z"/>
			<linearGradient id="SVGID_24_" gradientUnits="userSpaceOnUse" x1="274.9429" y1="1237.1934" x2="1759.415" y2="1237.1934">
				<stop  offset="0" style="stop-color:#00FCF1"/>
				<stop  offset="1" style="stop-color:#1B36FF"/>
			</linearGradient>
			<path class="st23" d="M1352.07,1245.37c2.79,3.83,5.84,6.23,10.52,6.23c3.83,0,6.1-1.82,6.1-4.74c0-2.53-1.36-3.44-5.45-5.32
				l-4.61-2.08c-6.56-2.92-10.39-6.62-10.39-12.34c0-7.34,6.1-12.14,14.22-12.14c6.56,0,11.49,3.18,14.15,8.12l-5.97,4.61
				c-2.21-3.31-4.93-4.93-8.18-4.93c-3.05,0-5.32,1.49-5.32,4.16c0,2.27,1.36,3.31,5,4.93l4.87,2.14
				c7.21,3.18,10.58,6.75,10.58,12.53c0,7.86-6.43,12.86-15,12.86c-7.27,0-13.25-3.7-16.56-9.48L1352.07,1245.37z"/>
			<linearGradient id="SVGID_25_" gradientUnits="userSpaceOnUse" x1="274.9429" y1="1237.1934" x2="1759.415" y2="1237.1934">
				<stop  offset="0" style="stop-color:#00FCF1"/>
				<stop  offset="1" style="stop-color:#1B36FF"/>
			</linearGradient>
			<path class="st24" d="M1388.04,1245.37c2.79,3.83,5.84,6.23,10.52,6.23c3.83,0,6.1-1.82,6.1-4.74c0-2.53-1.36-3.44-5.45-5.32
				l-4.61-2.08c-6.56-2.92-10.39-6.62-10.39-12.34c0-7.34,6.1-12.14,14.22-12.14c6.56,0,11.49,3.18,14.15,8.12l-5.97,4.61
				c-2.21-3.31-4.93-4.93-8.18-4.93c-3.05,0-5.32,1.49-5.32,4.16c0,2.27,1.36,3.31,5,4.93l4.87,2.14
				c7.21,3.18,10.58,6.75,10.58,12.53c0,7.86-6.43,12.86-15,12.86c-7.27,0-13.25-3.7-16.56-9.48L1388.04,1245.37z"/>
			<linearGradient id="SVGID_26_" gradientUnits="userSpaceOnUse" x1="274.9429" y1="1237.1934" x2="1759.415" y2="1237.1934">
				<stop  offset="0" style="stop-color:#00FCF1"/>
				<stop  offset="1" style="stop-color:#1B36FF"/>
			</linearGradient>
			<path class="st25" d="M1441.54,1214.99c12.34-0.26,23.05,9.93,22.85,22.2c0.2,12.27-10.52,22.46-22.85,22.21
				c-12.34,0.26-22.92-9.93-22.72-22.21C1418.63,1224.92,1429.21,1214.73,1441.54,1214.99z M1441.61,1223.1
				c-7.92,0-13.76,5.84-13.76,14.09s5.84,14.09,13.76,14.09c7.86,0,13.76-5.84,13.76-14.09
				C1455.37,1229.08,1449.46,1223.1,1441.61,1223.1z"/>
			<linearGradient id="SVGID_27_" gradientUnits="userSpaceOnUse" x1="274.9429" y1="1237.1934" x2="1759.415" y2="1237.1934">
				<stop  offset="0" style="stop-color:#00FCF1"/>
				<stop  offset="1" style="stop-color:#1B36FF"/>
			</linearGradient>
			<path class="st26" d="M1492.19,1214.99c8.12,0,15.06,3.96,18.89,10.65l-6.62,4.67c-3.05-4.8-7.14-7.21-12.27-7.21
				c-7.99,0-13.83,5.97-13.83,14.15s5.84,14.02,13.83,14.02c5.13,0,9.22-2.4,12.27-7.21l6.62,4.67
				c-3.7,6.69-10.71,10.65-18.96,10.65c-12.53,0.26-23.05-9.93-22.79-22.21C1469.14,1224.92,1479.72,1214.73,1492.19,1214.99z"/>
			<linearGradient id="SVGID_28_" gradientUnits="userSpaceOnUse" x1="274.9429" y1="1237.1934" x2="1759.415" y2="1237.1934">
				<stop  offset="0" style="stop-color:#00FCF1"/>
				<stop  offset="1" style="stop-color:#1B36FF"/>
			</linearGradient>
			<path class="st27" d="M1518.55,1215.77h8.76v42.85h-8.76V1215.77z"/>
			<linearGradient id="SVGID_29_" gradientUnits="userSpaceOnUse" x1="274.9429" y1="1236.8037" x2="1759.415" y2="1236.8037">
				<stop  offset="0" style="stop-color:#00FCF1"/>
				<stop  offset="1" style="stop-color:#1B36FF"/>
			</linearGradient>
			<path class="st28" d="M1562.38,1253.04h-17.53l-2.4,5.58h-9.42l19.15-43.63h2.92l19.09,43.63h-9.41L1562.38,1253.04z
				 M1553.62,1231.35l-5.71,14.48h11.43L1553.62,1231.35z"/>
			<linearGradient id="SVGID_30_" gradientUnits="userSpaceOnUse" x1="274.9429" y1="1237.1934" x2="1759.415" y2="1237.1934">
				<stop  offset="0" style="stop-color:#00FCF1"/>
				<stop  offset="1" style="stop-color:#1B36FF"/>
			</linearGradient>
			<path class="st29" d="M1584.85,1223.69h-13.7v-7.92h36.23v7.92h-13.76v34.93h-8.76V1223.69z"/>
			<linearGradient id="SVGID_31_" gradientUnits="userSpaceOnUse" x1="274.9429" y1="1237.1934" x2="1759.415" y2="1237.1934">
				<stop  offset="0" style="stop-color:#00FCF1"/>
				<stop  offset="1" style="stop-color:#1B36FF"/>
			</linearGradient>
			<path class="st30" d="M1613.16,1215.77h8.76v42.85h-8.76V1215.77z"/>
			<linearGradient id="SVGID_32_" gradientUnits="userSpaceOnUse" x1="274.9429" y1="1237.1934" x2="1759.415" y2="1237.1934">
				<stop  offset="0" style="stop-color:#00FCF1"/>
				<stop  offset="1" style="stop-color:#1B36FF"/>
			</linearGradient>
			<path class="st31" d="M1651.99,1214.99c12.34-0.26,23.05,9.93,22.85,22.2c0.2,12.27-10.52,22.46-22.85,22.21
				c-12.34,0.26-22.92-9.93-22.72-22.21C1629.07,1224.92,1639.65,1214.73,1651.99,1214.99z M1652.05,1223.1
				c-7.92,0-13.76,5.84-13.76,14.09s5.84,14.09,13.76,14.09c7.86,0,13.76-5.84,13.76-14.09
				C1665.82,1229.08,1659.91,1223.1,1652.05,1223.1z"/>
			<linearGradient id="SVGID_33_" gradientUnits="userSpaceOnUse" x1="274.9429" y1="1237.1934" x2="1759.415" y2="1237.1934">
				<stop  offset="0" style="stop-color:#00FCF1"/>
				<stop  offset="1" style="stop-color:#1B36FF"/>
			</linearGradient>
			<path class="st32" d="M1718.74,1215.77v43.63h-2.92l-24.8-26.49v25.71h-8.76v-43.63h2.86l24.87,26.36v-25.58H1718.74z"/>
		</g>
	</g>
	<g>
		<linearGradient id="SVGID_34_" gradientUnits="userSpaceOnUse" x1="650.704" y1="500.8517" x2="1127.4507" y2="1358.7537">
			<stop  offset="0" style="stop-color:#1B36FF"/>
			<stop  offset="1" style="stop-color:#00FCF1"/>
		</linearGradient>
		<polyline class="st33" points="900.22,1141.75 1096.77,1141.75 1096.77,1111.65 900.22,1111.65 		"/>
		<g>
			<linearGradient id="SVGID_35_" gradientUnits="userSpaceOnUse" x1="787.1115" y1="472.9915" x2="1245.8287" y2="1298.4496">
				<stop  offset="0" style="stop-color:#1B36FF"/>
				<stop  offset="1" style="stop-color:#00FCF1"/>
			</linearGradient>
			<path class="st34" d="M1343.23,837.27c-9.26,0-17.98-1.84-25.94-5.16c-11.92-4.97-22.09-13.31-29.23-23.74
				c-7.14-10.44-11.26-22.86-11.27-36.39v-6.03c0-13.04-2.69-25.56-7.56-36.9c-7.3-17.02-19.44-31.41-34.68-41.57
				c-15.24-10.17-33.69-16.1-53.37-16.1h-75.75H894.57h-75.75c-13.11,0-25.71,2.63-37.14,7.4c-17.16,7.16-31.73,19.09-42.07,34.18
				c-10.34,15.07-16.42,33.41-16.41,52.99v6.03c0,9.03-1.84,17.54-5.18,25.32c-5,11.66-13.41,21.68-24.03,28.76
				c-10.63,7.07-23.35,11.2-37.23,11.2v37.62c14.28,0,27.98-2.86,40.43-8.06c18.67-7.79,34.54-20.78,45.78-37.2
				c11.25-16.4,17.86-36.35,17.85-57.65v-6.03c0-7.88,1.61-15.29,4.51-22.08c4.36-10.17,11.7-18.92,20.97-25.09
				c9.28-6.17,20.38-9.77,32.51-9.78h75.75h210.87h75.75c8.09,0,15.71,1.61,22.65,4.5c10.41,4.34,19.29,11.62,25.51,20.72
				c6.23,9.11,9.82,19.92,9.83,31.73v6.03c0,14.19,2.93,27.81,8.22,40.15c7.94,18.52,21.15,34.18,37.74,45.24
				c16.58,11.06,36.66,17.53,58.1,17.52V837.27L1343.23,837.27z"/>
			<linearGradient id="SVGID_36_" gradientUnits="userSpaceOnUse" x1="927.2247" y1="451.6135" x2="1345.3066" y2="1203.9487">
				<stop  offset="0" style="stop-color:#1B36FF"/>
				<stop  offset="1" style="stop-color:#00FCF1"/>
			</linearGradient>
			<path class="st35" d="M1052.95,1040.79h128.24c13.11,0,25.71-2.63,37.14-7.4c17.16-7.16,31.73-19.09,42.07-34.18
				c10.34-15.07,16.42-33.41,16.41-52.99v-6.03c0-9.03,1.84-17.54,5.18-25.32c5-11.66,13.41-21.68,24.03-28.76
				c10.63-7.07,23.35-11.2,37.23-11.2v-37.62c-14.28,0-27.98,2.86-40.43,8.06c-18.67,7.79-34.54,20.78-45.78,37.2
				c-11.25,16.4-17.86,36.35-17.85,57.65v6.03c0,7.88-1.61,15.29-4.51,22.08c-4.36,10.17-11.7,18.92-20.97,25.09
				c-9.28,6.17-20.38,9.77-32.51,9.78h-128.24V1040.79L1052.95,1040.79z"/>
			<linearGradient id="SVGID_37_" gradientUnits="userSpaceOnUse" x1="621.4083" y1="549.6578" x2="1079.4813" y2="1373.9568">
				<stop  offset="0" style="stop-color:#1B36FF"/>
				<stop  offset="1" style="stop-color:#00FCF1"/>
			</linearGradient>
			<path class="st36" d="M656.77,874.9c9.26,0,17.99,1.84,25.94,5.16c11.92,4.97,22.09,13.31,29.23,23.73
				c7.13,10.44,11.26,22.86,11.27,36.39v6.02c0,13.04,2.69,25.56,7.56,36.91c7.3,17.02,19.44,31.41,34.69,41.58
				c15.24,10.17,33.69,16.11,53.38,16.1h162.36l0,85.9h37.62l0-123.53H818.83c-8.09,0-15.71-1.61-22.65-4.5
				c-10.41-4.34-19.29-11.62-25.52-20.72c-6.23-9.11-9.82-19.93-9.83-31.73v-6.02c0-14.19-2.93-27.81-8.22-40.15
				c-7.94-18.52-21.15-34.18-37.74-45.24c-16.58-11.06-36.66-17.52-58.1-17.52V874.9L656.77,874.9z"/>
			<g>
				<path class="st37" d="M822.57,832.35c8.28,0,14.88,3.68,19.62,10.95l0.87,1.34l10.68-7.77l-0.72-1.17
					c-6.31-10.15-17.73-16.22-30.53-16.22l-0.58,0c-9.85,0-19.52,4.05-26.54,11.12c-6.84,6.89-10.5,15.84-10.3,25.13
					c-0.2,9.35,3.46,18.3,10.3,25.19c7.01,7.06,16.68,11.12,26.54,11.12l0.56,0c12.93,0,24.36-6.07,30.56-16.23l0.71-1.16
					l-10.68-7.77l-0.87,1.34c-4.74,7.26-11.34,10.95-19.62,10.95c-13.17,0-23.1-10.06-23.1-23.4
					C799.48,842.41,809.41,832.35,822.57,832.35z"/>
				<path class="st37" d="M892.9,850.52l-7.6-3.44l-0.98-0.49c-6.1-3.04-7.4-3.82-7.71-7.77c0-4.92,4.56-6.67,8.83-6.67
					c5.23,0,9.77,2.59,13.12,7.5l0.9,1.32l9.98-7.58l-0.66-1.13c-4.69-8-13.41-12.78-23.33-12.78c-13.12,0-23.02,8.49-23.02,19.75
					c0,10.95,8.5,16.26,16.8,20.02l7.55,3.47c7.36,3.37,9.15,5.08,9.15,8.75c0,4.79-4.03,7.89-10.28,7.89
					c-6.66,0-11.79-3.1-16.64-10.06l-0.9-1.29l-10.07,7.55l0.66,1.14c5.66,9.75,15.52,15.34,27.06,15.34
					c14.35,0,24.36-8.62,24.36-20.97C910.11,861.99,905.13,856.05,892.9,850.52z"/>
				<path class="st37" d="M950.18,850.52l-7.6-3.44l-0.98-0.49c-6.1-3.04-7.4-3.82-7.71-7.77c0-4.92,4.56-6.67,8.83-6.67
					c5.23,0,9.77,2.59,13.12,7.5l0.9,1.32l9.98-7.58l-0.66-1.13c-4.69-8-13.41-12.78-23.33-12.78c-13.12,0-23.02,8.49-23.02,19.75
					c0,10.95,8.5,16.26,16.8,20.02l7.55,3.47c7.36,3.37,9.15,5.08,9.15,8.75c0,4.79-4.03,7.89-10.28,7.89
					c-6.66,0-11.79-3.1-16.64-10.06l-0.9-1.29l-10.07,7.55l0.66,1.14c5.66,9.75,15.52,15.34,27.06,15.34
					c14.35,0,24.36-8.62,24.36-20.97C967.4,861.99,962.41,856.05,950.18,850.52z"/>
				<path class="st37" d="M1002.22,819.48l-31.4,71.43h14.99l4.86-11.22h28.72l4.86,11.22h15.09l-31.4-71.43H1002.22z
					 M995.84,867.42l9.22-22.38l9.14,22.38H995.84z"/>
				<rect x="1038.72" y="851" class="st37" width="28.46" height="12.06"/>
				<path class="st37" d="M1097.97,819.48l-31.4,71.43h14.99l4.86-11.22h28.71l4.86,11.22h15.09l-31.4-71.43H1097.97z
					 M1091.59,867.42l9.22-22.38l9.14,22.38H1091.59z"/>
				<polygon class="st37" points="1156.1,859.9 1181.64,859.9 1181.64,847.53 1156.1,847.53 1156.1,833.27 1190.01,833.27 
					1190.01,820.6 1142.11,820.6 1142.11,890.9 1191.26,890.9 1191.26,878.23 1156.1,878.23 				"/>
				<rect x="1200.95" y="820.6" class="st37" width="13.98" height="70.3"/>
			</g>
		</g>
	</g>
</g>
</svg>
