<?xml version="1.0" encoding="utf-8"?>
<!-- Generator: Adobe Illustrator 26.2.1, SVG Export Plug-In . SVG Version: 6.00 Build 0)  -->
<svg version="1.1" id="Layer_1" xmlns="http://www.w3.org/2000/svg" xmlns:xlink="http://www.w3.org/1999/xlink" x="0px" y="0px" viewBox="0 0 500 500" style="enable-background:new 0 0 500 500;" xml:space="preserve">
	<style type="text/css">
	.st0{fill:#6DBE45;}
	.st1{font-family:'Helvetica-Bold';}
	.st2{font-size:21px;}
	.st3{font-size:20px;}
</style>
<text transform="matrix(1.05 0 0 1 90.7569 368.0742)" class="st0 st1 st2">Engineering Endowment Fund</text>
<g>
<rect x="64.77" y="231.65" class="st0" width="87.75" height="28.79"/>
<rect x="64.77" y="167.12" class="st0" width="94.93" height="29.37"/>
<polygon class="st0" points="38.12,332.88 72.17,332.88 72.17,303.09 71.98,303.09 71.98,260.44 72.17,260.44 72.17,231.65
		71.98,231.65 71.98,196.45 72.17,196.45 72.17,167.12 38.12,167.12 	"/>
<rect x="58.58" y="303.09" class="st0" width="105.18" height="29.79"/>
<rect x="220.76" y="167.12" class="st0" width="92.56" height="29.37"/>
<rect x="222.3" y="231.65" class="st0" width="83.8" height="28.79"/>
<rect x="220.76" y="303.09" class="st0" width="96.59" height="29.79"/>
<rect x="191.75" y="167.12" class="st0" width="30.56" height="165.76"/>
<rect x="344.38" y="167.35" class="st0" width="32.28" height="165.53"/>
<rect x="371.89" y="234.57" class="st0" width="79.62" height="28.79"/>
<rect x="373.66" y="167.35" class="st0" width="88.22" height="29.14"/>
</g>
<text transform="matrix(1.05 0 0 1 41.6968 146.0002)" class="st0 st1 st3">University of Ottawa / Université d’Ottawa</text>
</svg>
