<svg width="137" height="84" viewBox="0 0 137 84" fill="none" xmlns="http://www.w3.org/2000/svg">
    <path d="M85.5 5.5H85.3V8.5H85.5V5.5Z" fill="#5C71AD"/>
    <path d="M91.6 44.3H79.3V75H91.6V44.3Z" fill="#5C71AD"/>
    <path d="M91.6 30.5H79.3V42.8H91.6V30.5Z" fill="#5C71AD"/>
    <path d="M77 42.8H93.9L93 44.3H78L77 42.8Z" fill="#3B4779"/>
    <path d="M78.8 32.4C79 32.4 79.1 32.3 79.1 32.1C79.1 31.9 79 31.8 78.8 31.8C78.6 31.8 78.5 31.9 78.5 32.1C78.5 32.2 78.6 32.4 78.8 32.4Z" fill="#5C71AD"/>
    <path d="M92.1 32.4C92.3 32.4 92.4 32.3 92.4 32.1C92.4 31.9 92.3 31.8 92.1 31.8C91.9 31.8 91.8 31.9 91.8 32.1C91.8 32.2 91.9 32.4 92.1 32.4Z" fill="#5C71AD"/>
    <path d="M85.4 8.5L91.6 30.5H79.3L85.4 8.5Z" fill="#3B4779"/>
    <path d="M86.1 7.7H84.8V10.7H86.1V7.7Z" fill="#3B4779"/>
    <path d="M92.9 35.2H91.2V42.8H92.9V35.2Z" fill="#BFCFF6"/>
    <path d="M79.7 35.2H78V42.8H79.7V35.2Z" fill="#BFCFF6"/>
    <path d="M81.9 52.3C82.1 52.3 82.3 50.9 82.3 49.1C82.3 47.3 82.1 45.9 81.9 45.9C81.7 45.9 81.5 47.3 81.5 49.1C81.5 50.9 81.7 52.3 81.9 52.3Z" fill="white"/>
    <path d="M84.2 52.3C84.4 52.3 84.6 50.9 84.6 49.1C84.6 47.3 84.4 45.9 84.2 45.9C84 45.9 83.8 47.3 83.8 49.1C83.8 50.9 84 52.3 84.2 52.3Z" fill="white"/>
    <path d="M88.7 52.3C88.9 52.3 89.1 50.9 89.1 49.1C89.1 47.3 88.9 45.9 88.7 45.9C88.5 45.9 88.3 47.3 88.3 49.1C88.3 50.9 88.5 52.3 88.7 52.3Z" fill="white"/>
    <path d="M86.5 52.3C86.7 52.3 86.9 50.9 86.9 49.1C86.9 47.3 86.7 45.9 86.5 45.9C86.3 45.9 86.1 47.3 86.1 49.1C86.1 50.9 86.3 52.3 86.5 52.3Z" fill="white"/>
    <path d="M89.3 3H85.3V5.5H89.3V3Z" fill="#5C71AD"/>
    <path d="M78.8 31.8L77.9 35.4H79.7L78.8 31.8Z" fill="#3B4779"/>
    <path d="M92.1 31.8L91.2 35.4H93L92.1 31.8Z" fill="#3B4779"/>
    <path d="M85.5 41.8C88.3 41.8 90.6 39.5 90.6 36.7C90.6 33.9 88.3 31.6 85.5 31.6C82.7 31.6 80.4 33.9 80.4 36.7C80.4 39.6 82.7 41.8 85.5 41.8Z" fill="#BFCFF6"/>
    <path d="M85.5 41.1C87.9 41.1 89.9 39.1 89.9 36.7C89.9 34.3 87.9 32.3 85.5 32.3C83.1 32.3 81.1 34.3 81.1 36.7C81.1 39.1 83.1 41.1 85.5 41.1Z" fill="white"/>
    <path d="M85.4 37.3C85.7 37.3 85.9 37.1 85.9 36.8C85.9 36.5 85.7 36.3 85.4 36.3C85.1 36.3 85 36.6 85 36.8C85 37 85.2 37.3 85.4 37.3Z" fill="#5C71AD"/>
    <path d="M85.4 36.8L83.4 38.2" stroke="#5C71AD"/>
    <path d="M85.4 36.8L87.8 38.9" stroke="#5C71AD"/>
    <path d="M73.3 75V41.6C73.3 32.2 66.6 26.5 56.9 26.5C50.6 26.5 44.8 29.7 43 33.9V10.5H30.5V75H43V47.9C43 41.6 46.5 36.4 52.7 36.4C58.4 36.4 60.8 38.6 60.8 45.7V75H73.3Z" fill="#3B4779"/>
    <path d="M110 75V10.5H97.5V75H110ZM127.7 75V10.5H115.2V75H127.7Z" fill="#3B4779"/>
    <path d="M26.6 60.2H16.5C13.6 60.2 11.9 62.5 11.9 65.9C11.9 68.1 12.9 70.1 14.1 70.7H7V75H26.6V70.7H18.4C16.5 70.7 14.9 69.5 14.9 67.3C14.9 65.3 15.6 64.5 17.7 64.5H26.6V60.2ZM21.2 48.3C22.9 48.3 24.3 50 24.3 52.2C24.3 53.6 23.8 54.3 22.7 54.3C21.5 54.3 20.9 53.5 20.5 51C20.2 49.4 20 48.6 19.7 48.2L21.2 48.3ZM26.6 44H17.5C13.9 44 11.8 45.8 11.8 51C11.8 56.3 13.9 58.1 16.9 58.2V54.2C15.6 54 14.8 53.2 14.8 51.2C14.8 49.5 15.4 48.4 16.3 48.4C17.3 48.4 17.7 49 17.9 51.2C18.4 55.6 18.9 58.7 23 58.7C25.3 58.7 26.9 57 26.9 53.2C26.9 51 26.2 49.3 25.2 48.2C25.6 48.2 26.1 48.1 26.5 47.9V44H26.6ZM21.4 31.7C22.9 31.9 23.8 33.2 23.8 34.9C23.8 36.6 22.3 38.1 19.2 38.1C16.1 38.1 15 36.6 15 34.7C15 33.1 15.9 31.8 17.4 31.6V27.2C14 27.5 11.9 30.4 11.9 34.6C11.9 39.2 14.1 42.3 19.3 42.3C24.5 42.3 27 39.2 27 34.8C27 30.8 24.8 27.7 21.4 27.3V31.7ZM26.6 11.1L17.5 16.5L12.3 11V16.3L17.8 21.7H7V26H26.6V21.6H22L20.1 19.5L26.6 15.9V11.1Z" fill="#5C71AD"/>
    <path d="M50.9 17.3C50.9 18.1 50.6 18.6 49.8 18.6C49.1 18.6 48.7 18.1 48.7 17.3V14.6H52.5V13.4H48.7V11.7H47V17.5C47 18.9 47.8 20.1 49.8 20.1C51.8 20.1 52.6 18.9 52.6 17.5V15.7H50.9V17.3ZM59.7 19.8V15.2C59.7 13.9 58.7 13.1 57.3 13.1C56.4 13.1 55.5 13.5 55.2 14.1V11H53.4V19.8H55.2V16.1C55.2 15.2 55.7 14.5 56.6 14.5C57.4 14.5 57.8 14.8 57.8 15.8V19.8H59.7ZM62.3 16C62.4 15.1 63 14.6 63.7 14.6C64.4 14.6 65.1 15.1 65.1 16H62.3ZM67 17C67 14.4 65.9 13.2 63.7 13.2C61.5 13.2 60.3 14.5 60.3 16.5C60.3 18.8 61.5 20 63.8 20C65.3 20 66.4 19.3 66.9 17.9H65C64.9 18.3 64.3 18.6 63.8 18.6C62.9 18.6 62.3 18 62.2 17H67Z" fill="#5C71AD"/>
</svg>
