<svg width="477" height="115" viewBox="0 0 477 115" fill="none" xmlns="http://www.w3.org/2000/svg">
    <path d="M431.526 23.4631H431.337V26.4947H431.526V23.4631Z" fill="#5C71AD"/>
    <path d="M437.59 62.3053H425.274V93H437.59V62.3053Z" fill="#5C71AD"/>
    <path d="M437.59 48.4737H425.274V60.7895H437.59V48.4737Z" fill="#5C71AD"/>
    <path d="M423 60.7895H439.863L438.916 62.3053H423.947L423 60.7895Z" fill="#3B4779"/>
    <path d="M424.8 50.3684C424.957 50.3684 425.084 50.2412 425.084 50.0842C425.084 49.9272 424.957 49.8 424.8 49.8C424.643 49.8 424.516 49.9272 424.516 50.0842C424.516 50.2412 424.643 50.3684 424.8 50.3684Z" fill="#5C71AD"/>
    <path d="M438.063 50.3684C438.22 50.3684 438.347 50.2412 438.347 50.0842C438.347 49.9272 438.22 49.8 438.063 49.8C437.906 49.8 437.779 49.9272 437.779 50.0842C437.779 50.2412 437.906 50.3684 438.063 50.3684Z" fill="#5C71AD"/>
    <path d="M431.432 26.4948L437.585 48.5211H425.278L431.432 26.4948Z" fill="#3B4779"/>
    <path d="M432.094 25.7368H430.768V28.7684H432.094V25.7368Z" fill="#3B4779"/>
    <path d="M438.915 53.2105H437.21V60.7895H438.915V53.2105Z" fill="#BFCFF6"/>
    <path d="M425.652 53.2105H423.947V60.7895H425.652V53.2105Z" fill="#BFCFF6"/>
    <path d="M427.926 70.2632C428.135 70.2632 428.305 68.821 428.305 67.0421C428.305 65.2632 428.135 63.821 427.926 63.821C427.717 63.821 427.547 65.2632 427.547 67.0421C427.547 68.821 427.717 70.2632 427.926 70.2632Z" fill="white"/>
    <path d="M430.2 70.2632C430.409 70.2632 430.579 68.821 430.579 67.0421C430.579 65.2632 430.409 63.821 430.2 63.821C429.991 63.821 429.821 65.2632 429.821 67.0421C429.821 68.821 429.991 70.2632 430.2 70.2632Z" fill="white"/>
    <path d="M434.747 70.2632C434.956 70.2632 435.126 68.821 435.126 67.0421C435.126 65.2632 434.956 63.821 434.747 63.821C434.538 63.821 434.368 65.2632 434.368 67.0421C434.368 68.821 434.538 70.2632 434.747 70.2632Z" fill="white"/>
    <path d="M432.474 70.2632C432.683 70.2632 432.853 68.821 432.853 67.0421C432.853 65.2632 432.683 63.821 432.474 63.821C432.265 63.821 432.095 65.2632 432.095 67.0421C432.095 68.821 432.265 70.2632 432.474 70.2632Z" fill="white"/>
    <path d="M435.316 21H431.337V23.4632H435.316V21Z" fill="#5C71AD"/>
    <path d="M424.8 49.8L423.897 53.3526H425.702L424.8 49.8Z" fill="#3B4779"/>
    <path d="M438.063 49.8L437.161 53.3526H438.966L438.063 49.8Z" fill="#3B4779"/>
    <path d="M431.526 59.8421C434.351 59.8421 436.642 57.5517 436.642 54.7263C436.642 51.9009 434.351 49.6105 431.526 49.6105C428.701 49.6105 426.41 51.9009 426.41 54.7263C426.41 57.5517 428.701 59.8421 431.526 59.8421Z" fill="#BFCFF6"/>
    <path d="M431.526 59.0842C433.933 59.0842 435.884 57.1331 435.884 54.7263C435.884 52.3195 433.933 50.3684 431.526 50.3684C429.119 50.3684 427.168 52.3195 427.168 54.7263C427.168 57.1331 429.119 59.0842 431.526 59.0842Z" fill="white"/>
    <path d="M431.431 55.2947C431.693 55.2947 431.905 55.0826 431.905 54.821C431.905 54.5594 431.693 54.3473 431.431 54.3473C431.169 54.3473 430.957 54.5594 430.957 54.821C430.957 55.0826 431.169 55.2947 431.431 55.2947Z" fill="#5C71AD"/>
    <path d="M431.432 54.8211L429.442 56.2421" stroke="#5C71AD"/>
    <path d="M431.432 54.8211L433.868 56.9486" stroke="#5C71AD"/>
    <path d="M45.312 93V59.592C45.312 50.184 38.592 44.52 28.896 44.52C22.56 44.52 16.8 47.688 14.976 51.912V28.488H2.496V93H14.976V65.928C14.976 59.592 18.432 54.408 24.672 54.408C30.336 54.408 32.736 56.616 32.736 63.72V93H45.312ZM79.3853 75.048C79.2893 80.616 74.4893 85.32 68.0573 85.32C64.1213 85.32 62.0093 83.592 62.0093 80.04C62.0093 76.008 64.3133 73.992 71.4173 72.648C76.0253 71.784 78.2333 71.112 79.4813 69.864L79.3853 75.048ZM91.9613 93V63.144C91.9613 51.24 86.7773 44.52 71.8013 44.52C56.6333 44.52 51.2573 51.336 51.0653 61.128H62.6813C63.2573 56.904 65.5613 54.12 71.2253 54.12C76.1213 54.12 79.1933 55.944 79.1933 59.016C79.1933 62.28 77.4653 63.528 71.2253 64.392C58.6493 66.12 49.5293 67.656 49.5293 81.288C49.5293 88.968 54.5213 94.248 65.2733 94.248C71.6093 94.248 76.6013 92.04 79.5773 88.776C79.6733 90.216 79.9613 91.848 80.3453 93H91.9613ZM127.417 75.912C126.937 81 123.097 83.784 118.201 83.784C113.305 83.784 108.985 78.792 108.985 68.52C108.985 58.248 113.305 54.888 118.585 54.888C123.289 54.888 126.841 57.768 127.513 62.664H140.089C139.321 51.528 130.969 44.52 118.681 44.52C105.433 44.52 96.6008 51.912 96.6008 68.808C96.6008 85.704 105.433 94.248 118.297 94.248C129.721 94.248 138.649 86.856 139.993 75.912H127.417ZM186.692 93L171.236 63.144L187.076 45.768H171.812L156.26 63.72V28.488H143.684V93H156.26V78.024L162.308 71.784L172.676 93H186.692ZM240.03 74.184C240.03 80.04 237.726 83.4 232.734 83.4C227.646 83.4 225.534 79.944 225.534 73.992V54.6H251.646V45.768H225.534V33H213.246V75.24C213.246 85.416 218.718 94.248 232.542 94.248C245.886 94.248 251.646 85.32 251.646 75.336V61.896H240.03V74.184ZM299.562 93V59.592C299.562 50.184 292.842 44.52 283.146 44.52C276.81 44.52 271.05 47.688 269.226 51.912V28.488H256.746V93H269.226V65.928C269.226 59.592 272.682 54.408 278.922 54.408C284.586 54.408 286.986 56.616 286.986 63.72V93H299.562ZM316.835 64.776C317.315 58.248 321.443 54.408 326.435 54.408C331.331 54.408 335.939 57.768 336.131 64.776H316.835ZM348.995 72.648C348.995 53.928 341.315 44.52 326.819 44.52C312.323 44.52 303.971 53.928 303.971 68.52C303.971 85.608 311.843 94.248 327.587 94.248C337.667 94.248 345.443 88.776 348.323 79.08H335.459C334.595 82.344 331.043 84.36 327.011 84.36C320.867 84.36 316.835 79.752 316.451 72.648H348.995Z" fill="#5C71AD"/>
    <path d="M419.281 93V59.592C419.281 50.184 412.561 44.52 402.865 44.52C396.529 44.52 390.769 47.688 388.945 51.912V28.488H376.465V93H388.945V65.928C388.945 59.592 392.401 54.408 398.641 54.408C404.305 54.408 406.705 56.616 406.705 63.72V93H419.281Z" fill="#3B4779"/>
    <path d="M455.976 93V28.488H443.496V93H455.976ZM473.695 93V28.488H461.215V93H473.695Z" fill="#3B4779"/>
</svg>
