<svg width="471" height="80" viewBox="0 0 471 80" fill="none" xmlns="http://www.w3.org/2000/svg">
    <g clip-path="url(#clip0_0_3)">
        <path d="M429.03 6.4631H428.841V9.4947H429.03V6.4631Z" fill="#5C71AD"/>
        <path d="M435.094 45.3053H422.778V76H435.094V45.3053Z" fill="#5C71AD"/>
        <path d="M435.094 31.4737H422.778V43.7895H435.094V31.4737Z" fill="#5C71AD"/>
        <path d="M420.504 43.7895H437.367L436.42 45.3053H421.451L420.504 43.7895Z" fill="#3B4779"/>
        <path d="M422.304 33.3684C422.461 33.3684 422.588 33.2412 422.588 33.0842C422.588 32.9272 422.461 32.8 422.304 32.8C422.147 32.8 422.02 32.9272 422.02 33.0842C422.02 33.2412 422.147 33.3684 422.304 33.3684Z" fill="#5C71AD"/>
        <path d="M435.567 33.3684C435.724 33.3684 435.851 33.2412 435.851 33.0842C435.851 32.9272 435.724 32.8 435.567 32.8C435.41 32.8 435.283 32.9272 435.283 33.0842C435.283 33.2412 435.41 33.3684 435.567 33.3684Z" fill="#5C71AD"/>
        <path d="M428.936 9.4948L435.089 31.5211H422.782L428.936 9.4948Z" fill="#3B4779"/>
        <path d="M429.598 8.7368H428.272V11.7684H429.598V8.7368Z" fill="#3B4779"/>
        <path d="M436.419 36.2105H434.714V43.7895H436.419V36.2105Z" fill="#BFCFF6"/>
        <path d="M423.156 36.2105H421.451V43.7895H423.156V36.2105Z" fill="#BFCFF6"/>
        <path d="M425.43 53.2632C425.639 53.2632 425.809 51.821 425.809 50.0421C425.809 48.2632 425.639 46.821 425.43 46.821C425.221 46.821 425.051 48.2632 425.051 50.0421C425.051 51.821 425.221 53.2632 425.43 53.2632Z" fill="white"/>
        <path d="M427.704 53.2632C427.913 53.2632 428.083 51.821 428.083 50.0421C428.083 48.2632 427.913 46.821 427.704 46.821C427.495 46.821 427.325 48.2632 427.325 50.0421C427.325 51.821 427.495 53.2632 427.704 53.2632Z" fill="white"/>
        <path d="M432.251 53.2632C432.46 53.2632 432.63 51.821 432.63 50.0421C432.63 48.2632 432.46 46.821 432.251 46.821C432.042 46.821 431.872 48.2632 431.872 50.0421C431.872 51.821 432.042 53.2632 432.251 53.2632Z" fill="white"/>
        <path d="M429.978 53.2632C430.187 53.2632 430.357 51.821 430.357 50.0421C430.357 48.2632 430.187 46.821 429.978 46.821C429.769 46.821 429.599 48.2632 429.599 50.0421C429.599 51.821 429.769 53.2632 429.978 53.2632Z" fill="white"/>
        <path d="M432.82 4H428.841V6.4632H432.82V4Z" fill="#5C71AD"/>
        <path d="M422.304 32.8L421.401 36.3526H423.206L422.304 32.8Z" fill="#3B4779"/>
        <path d="M435.567 32.8L434.665 36.3526H436.47L435.567 32.8Z" fill="#3B4779"/>
        <path d="M429.03 42.8421C431.855 42.8421 434.146 40.5517 434.146 37.7263C434.146 34.9009 431.855 32.6105 429.03 32.6105C426.205 32.6105 423.914 34.9009 423.914 37.7263C423.914 40.5517 426.205 42.8421 429.03 42.8421Z" fill="#BFCFF6"/>
        <path d="M429.03 42.0842C431.437 42.0842 433.388 40.1331 433.388 37.7263C433.388 35.3195 431.437 33.3684 429.03 33.3684C426.623 33.3684 424.672 35.3195 424.672 37.7263C424.672 40.1331 426.623 42.0842 429.03 42.0842Z" fill="white"/>
        <path d="M428.935 38.2947C429.197 38.2947 429.409 38.0826 429.409 37.821C429.409 37.5594 429.197 37.3473 428.935 37.3473C428.673 37.3473 428.461 37.5594 428.461 37.821C428.461 38.0826 428.673 38.2947 428.935 38.2947Z" fill="#5C71AD"/>
        <path d="M428.936 37.8211L426.946 39.2421" stroke="#5C71AD"/>
        <path d="M428.936 37.8211L431.372 39.9486" stroke="#5C71AD"/>
        <path d="M42.816 76V42.592C42.816 33.184 36.096 27.52 26.4 27.52C20.064 27.52 14.304 30.688 12.48 34.912V11.488H0V76H12.48V48.928C12.48 42.592 15.936 37.408 22.176 37.408C27.84 37.408 30.24 39.616 30.24 46.72V76H42.816ZM76.8893 58.048C76.7933 63.616 71.9933 68.32 65.5613 68.32C61.6253 68.32 59.5133 66.592 59.5133 63.04C59.5133 59.008 61.8173 56.992 68.9213 55.648C73.5293 54.784 75.7373 54.112 76.9853 52.864L76.8893 58.048ZM89.4653 76V46.144C89.4653 34.24 84.2813 27.52 69.3053 27.52C54.1373 27.52 48.7613 34.336 48.5693 44.128H60.1853C60.7613 39.904 63.0653 37.12 68.7293 37.12C73.6253 37.12 76.6973 38.944 76.6973 42.016C76.6973 45.28 74.9693 46.528 68.7293 47.392C56.1533 49.12 47.0333 50.656 47.0333 64.288C47.0333 71.968 52.0253 77.248 62.7773 77.248C69.1133 77.248 74.1053 75.04 77.0813 71.776C77.1773 73.216 77.4653 74.848 77.8493 76H89.4653ZM124.921 58.912C124.441 64 120.601 66.784 115.705 66.784C110.809 66.784 106.489 61.792 106.489 51.52C106.489 41.248 110.809 37.888 116.089 37.888C120.793 37.888 124.345 40.768 125.017 45.664H137.593C136.825 34.528 128.473 27.52 116.185 27.52C102.937 27.52 94.1048 34.912 94.1048 51.808C94.1048 68.704 102.937 77.248 115.801 77.248C127.225 77.248 136.153 69.856 137.497 58.912H124.921ZM184.196 76L168.74 46.144L184.58 28.768H169.316L153.764 46.72V11.488H141.188V76H153.764V61.024L159.812 54.784L170.18 76H184.196ZM237.534 57.184C237.534 63.04 235.23 66.4 230.238 66.4C225.15 66.4 223.038 62.944 223.038 56.992V37.6H249.15V28.768H223.038V16H210.75V58.24C210.75 68.416 216.222 77.248 230.046 77.248C243.39 77.248 249.15 68.32 249.15 58.336V44.896H237.534V57.184ZM297.066 76V42.592C297.066 33.184 290.346 27.52 280.65 27.52C274.314 27.52 268.554 30.688 266.73 34.912V11.488H254.25V76H266.73V48.928C266.73 42.592 270.186 37.408 276.426 37.408C282.09 37.408 284.49 39.616 284.49 46.72V76H297.066ZM314.339 47.776C314.819 41.248 318.947 37.408 323.939 37.408C328.835 37.408 333.443 40.768 333.635 47.776H314.339ZM346.499 55.648C346.499 36.928 338.819 27.52 324.323 27.52C309.827 27.52 301.475 36.928 301.475 51.52C301.475 68.608 309.347 77.248 325.091 77.248C335.171 77.248 342.947 71.776 345.827 62.08H332.963C332.099 65.344 328.547 67.36 324.515 67.36C318.371 67.36 314.339 62.752 313.955 55.648H346.499Z" fill="#5C71AD"/>
        <path d="M416.785 76V42.592C416.785 33.184 410.065 27.52 400.369 27.52C394.033 27.52 388.273 30.688 386.449 34.912V11.488H373.969V76H386.449V48.928C386.449 42.592 389.905 37.408 396.145 37.408C401.809 37.408 404.209 39.616 404.209 46.72V76H416.785Z" fill="#3B4779"/>
        <path d="M453.48 76V11.488H441V76H453.48ZM471.199 76V11.488H458.719V76H471.199Z" fill="#3B4779"/>
    </g>
    <defs>
        <clipPath id="clip0_0_3">
            <rect width="471" height="80" fill="white"/>
        </clipPath>
    </defs>
</svg>
