<svg xmlns="http://www.w3.org/2000/svg" xmlns:xlink="http://www.w3.org/1999/xlink" zoomAndPan="magnify" preserveAspectRatio="xMidYMid meet" version="1.0" viewBox="155.96 643.33 1188.99 220.74"><defs><g/></defs><g fill="#000000" fill-opacity="1"><g transform="translate(137.554219, 860.390354)"><g><path d="M 52.65625 0 L 52.65625 -210.628906 L 18.402344 -210.628906 L 18.402344 0 Z M 52.65625 0 "/></g></g></g><g fill="#000000" fill-opacity="1"><g transform="translate(194.174544, 860.390354)"><g><path d="M 9.625 -70.210938 C 9.625 -26.613281 41.050781 3.398438 84.363281 3.398438 C 127.679688 3.398438 159.105469 -26.613281 159.105469 -70.210938 C 159.105469 -113.808594 127.679688 -143.816406 84.363281 -143.816406 C 41.050781 -143.816406 9.625 -113.808594 9.625 -70.210938 Z M 44.164062 -70.210938 C 44.164062 -95.6875 60.582031 -112.957031 84.363281 -112.957031 C 108.144531 -112.957031 124.566406 -95.6875 124.566406 -70.210938 C 124.566406 -44.730469 108.144531 -27.460938 84.363281 -27.460938 C 60.582031 -27.460938 44.164062 -44.730469 44.164062 -70.210938 Z M 44.164062 -70.210938 "/></g></g></g><g fill="#000000" fill-opacity="1"><g transform="translate(348.465034, 860.390354)"><g><path d="M 52.375 0 L 52.375 -75.304688 C 52.375 -97.953125 65.398438 -112.675781 86.628906 -112.675781 C 104.464844 -112.675781 116.070312 -101.351562 116.070312 -77.851562 L 116.070312 0 L 150.609375 0 L 150.609375 -86.0625 C 150.609375 -122.300781 132.492188 -144.097656 97.386719 -144.097656 C 78.417969 -144.097656 61.433594 -135.890625 52.65625 -121.734375 L 49.824219 -139.851562 L 17.835938 -139.851562 L 17.835938 0 Z M 52.375 0 "/></g></g></g><g fill="#000000" fill-opacity="1"><g transform="translate(500.773821, 860.390354)"><g><path d="M 80.402344 3.679688 C 116.921875 3.679688 142.402344 -14.722656 148.347656 -45.296875 L 116.355469 -45.296875 C 112.390625 -31.992188 99.933594 -24.628906 80.96875 -24.628906 C 58.035156 -24.628906 45.011719 -37.085938 42.464844 -61.714844 L 147.78125 -62 L 147.78125 -72.472656 C 147.78125 -116.070312 121.167969 -144.097656 79.269531 -144.097656 C 38.21875 -144.097656 9.625 -113.808594 9.625 -69.925781 C 9.625 -26.613281 38.785156 3.679688 80.402344 3.679688 Z M 79.550781 -115.789062 C 100.21875 -115.789062 113.523438 -103.050781 113.523438 -83.796875 L 43.316406 -83.796875 C 46.710938 -104.746094 59.167969 -115.789062 79.550781 -115.789062 Z M 79.550781 -115.789062 "/></g></g></g><g fill="#000000" fill-opacity="1"><g transform="translate(645.373331, 859.628114)"><g><path d="M 154.234375 0 L 87.09375 0 L 87.09375 -4.75 C 96.164062 -5.59375 102.019531 -7.703125 104.65625 -11.078125 C 107.300781 -14.460938 108.625 -21.535156 108.625 -32.296875 L 108.625 -95 C 108.625 -117.382812 100.707031 -128.578125 84.875 -128.578125 C 78.75 -128.578125 72.992188 -127.046875 67.609375 -123.984375 C 62.222656 -120.921875 56.257812 -115.800781 49.71875 -108.625 L 49.71875 -32.296875 C 49.71875 -21.316406 50.984375 -14.242188 53.515625 -11.078125 C 56.054688 -7.910156 61.96875 -5.800781 71.25 -4.75 L 71.25 0 L 2.84375 0 L 2.84375 -4.75 C 11.925781 -6.019531 17.578125 -8.128906 19.796875 -11.078125 C 22.015625 -14.035156 23.125 -21.109375 23.125 -32.296875 L 23.125 -181.46875 C 23.125 -188.21875 22.117188 -192.59375 20.109375 -194.59375 C 18.097656 -196.601562 13.71875 -197.609375 6.96875 -197.609375 C 5.28125 -197.609375 4.015625 -197.503906 3.171875 -197.296875 L 3.171875 -202.359375 L 11.71875 -204.890625 C 26.070312 -208.898438 38.210938 -212.703125 48.140625 -216.296875 L 49.71875 -215.34375 L 49.71875 -119.078125 C 57.101562 -128.578125 64.382812 -135.382812 71.5625 -139.5 C 78.75 -143.613281 86.984375 -145.671875 96.265625 -145.671875 C 122.234375 -145.671875 135.21875 -128.890625 135.21875 -95.328125 L 135.21875 -32.296875 C 135.21875 -21.316406 136.222656 -14.398438 138.234375 -11.546875 C 140.242188 -8.703125 145.578125 -6.4375 154.234375 -4.75 Z M 154.234375 0 "/></g></g></g><g fill="#000000" fill-opacity="1"><g transform="translate(790.735843, 859.628114)"><g><path d="M 139.96875 -12.671875 C 134.476562 -6.546875 129.675781 -2.375 125.5625 -0.15625 C 121.445312 2.0625 116.75 3.171875 111.46875 3.171875 C 104.925781 3.171875 100.125 1.429688 97.0625 -2.046875 C 94 -5.535156 92.046875 -11.503906 91.203125 -19.953125 C 73.046875 -4.535156 57.632812 3.171875 44.96875 3.171875 C 35.257812 3.171875 27.289062 0.00390625 21.0625 -6.328125 C 14.832031 -12.660156 11.71875 -20.789062 11.71875 -30.71875 C 11.71875 -42.113281 15.519531 -51.296875 23.125 -58.265625 C 29.875 -64.179688 36.679688 -68.878906 43.546875 -72.359375 C 50.410156 -75.847656 66.191406 -82.550781 90.890625 -92.46875 L 90.890625 -111.796875 C 90.890625 -129.316406 82.867188 -138.078125 66.828125 -138.078125 C 60.492188 -138.078125 55.109375 -136.546875 50.671875 -133.484375 C 46.234375 -130.421875 44.015625 -126.78125 44.015625 -122.5625 C 44.015625 -120.238281 44.332031 -117.703125 44.96875 -114.953125 C 45.394531 -112.003906 45.609375 -110.316406 45.609375 -109.890625 C 45.609375 -106.296875 44.179688 -103.179688 41.328125 -100.546875 C 38.472656 -97.910156 35.144531 -96.59375 31.34375 -96.59375 C 27.550781 -96.59375 24.332031 -97.960938 21.6875 -100.703125 C 19.050781 -103.453125 17.734375 -106.617188 17.734375 -110.203125 C 17.734375 -118.859375 22.0625 -126.773438 30.71875 -133.953125 C 40.21875 -141.765625 53.625 -145.671875 70.9375 -145.671875 C 90.570312 -145.671875 103.769531 -139.550781 110.53125 -127.3125 C 114.539062 -120.757812 116.546875 -109.988281 116.546875 -95 L 116.546875 -33.25 C 116.546875 -26.28125 117.226562 -21.476562 118.59375 -18.84375 C 119.96875 -16.207031 122.453125 -14.890625 126.046875 -14.890625 C 130.472656 -14.890625 135.113281 -16.894531 139.96875 -20.90625 Z M 90.890625 -38.953125 L 90.890625 -84.875 C 71.890625 -77.90625 58.585938 -71.144531 50.984375 -64.59375 C 43.390625 -58.050781 39.59375 -50.140625 39.59375 -40.859375 L 39.59375 -39.59375 C 39.59375 -32.832031 41.539062 -27.078125 45.4375 -22.328125 C 49.34375 -17.578125 54.039062 -15.203125 59.53125 -15.203125 C 66.925781 -15.203125 74.632812 -17.523438 82.65625 -22.171875 C 86.03125 -24.273438 88.242188 -26.382812 89.296875 -28.5 C 90.359375 -30.613281 90.890625 -34.097656 90.890625 -38.953125 Z M 90.890625 -38.953125 "/></g></g></g><g fill="#000000" fill-opacity="1"><g transform="translate(918.363512, 859.628114)"><g><path d="M 151.0625 -137.765625 C 146.207031 -137.335938 142.722656 -135.800781 140.609375 -133.15625 C 138.492188 -130.519531 135.113281 -123.820312 130.46875 -113.0625 L 89.9375 -11.40625 C 85.71875 -0.84375 82.765625 4.4375 81.078125 4.4375 C 79.171875 4.4375 77.269531 1.691406 75.375 -3.796875 C 75.164062 -4.222656 74.742188 -5.28125 74.109375 -6.96875 C 73.472656 -8.65625 73.050781 -9.816406 72.84375 -10.453125 L 34.828125 -101.34375 C 27.441406 -117.8125 22.269531 -127.941406 19.3125 -131.734375 C 16.363281 -135.535156 11.929688 -137.546875 6.015625 -137.765625 L 6.015625 -142.515625 L 68.09375 -142.515625 L 68.09375 -137.765625 C 62.601562 -137.335938 58.800781 -136.488281 56.6875 -135.21875 C 54.570312 -133.957031 53.515625 -131.847656 53.515625 -128.890625 C 53.515625 -125.515625 54.46875 -121.609375 56.375 -117.171875 L 88.671875 -36.109375 L 120.03125 -118.125 C 121.289062 -121.289062 121.921875 -124.457031 121.921875 -127.625 C 121.921875 -133.539062 116.960938 -136.921875 107.046875 -137.765625 L 107.046875 -142.515625 L 151.0625 -142.515625 Z M 151.0625 -137.765625 "/></g></g></g><g fill="#000000" fill-opacity="1"><g transform="translate(1063.726032, 859.628114)"><g><path d="M 134.28125 -49.71875 C 120.550781 -14.457031 98.171875 3.171875 67.140625 3.171875 C 48.984375 3.171875 34.570312 -3.210938 23.90625 -15.984375 C 13.25 -28.765625 7.921875 -46.023438 7.921875 -67.765625 C 7.921875 -90.785156 14.039062 -109.523438 26.28125 -123.984375 C 38.53125 -138.441406 54.472656 -145.671875 74.109375 -145.671875 C 90.992188 -145.671875 104.503906 -139.65625 114.640625 -127.625 C 121.609375 -118.757812 126.148438 -105.457031 128.265625 -87.71875 L 30.71875 -87.71875 C 31.351562 -69.769531 34.519531 -55.203125 40.21875 -44.015625 C 49.300781 -27.128906 62.601562 -18.6875 80.125 -18.6875 C 90.257812 -18.6875 99.070312 -21.21875 106.5625 -26.28125 C 114.0625 -31.351562 121.609375 -39.90625 129.203125 -51.9375 Z M 95.953125 -97.859375 C 93.847656 -111.578125 90.578125 -121.078125 86.140625 -126.359375 C 81.703125 -131.640625 74.628906 -134.28125 64.921875 -134.28125 C 45.921875 -134.28125 34.734375 -122.140625 31.359375 -97.859375 Z M 95.953125 -97.859375 "/></g></g></g><g fill="#000000" fill-opacity="1"><g transform="translate(1191.353694, 859.628114)"><g><path d="M 153.59375 0 L 87.71875 0 L 87.71875 -4.75 C 95.738281 -5.382812 101.066406 -7.492188 103.703125 -11.078125 C 106.347656 -14.671875 107.671875 -21.429688 107.671875 -31.359375 L 107.671875 -97.546875 C 107.671875 -118.023438 99.96875 -128.265625 84.5625 -128.265625 C 79.28125 -128.265625 74.421875 -127.046875 69.984375 -124.609375 C 65.554688 -122.179688 59.539062 -117.378906 51.9375 -110.203125 L 51.9375 -21.21875 C 51.9375 -15.519531 53.410156 -11.507812 56.359375 -9.1875 C 59.316406 -6.863281 64.8125 -5.382812 72.84375 -4.75 L 72.84375 0 L 5.703125 0 L 5.703125 -4.75 C 13.722656 -5.382812 19 -7.234375 21.53125 -10.296875 C 24.0625 -13.359375 25.328125 -19.425781 25.328125 -28.5 L 25.328125 -107.046875 C 25.328125 -114.859375 24.484375 -120.1875 22.796875 -123.03125 C 21.109375 -125.882812 18.050781 -127.3125 13.625 -127.3125 C 9.601562 -127.3125 6.75 -126.890625 5.0625 -126.046875 L 5.0625 -131.421875 C 20.6875 -136.066406 35.253906 -140.816406 48.765625 -145.671875 L 50.984375 -145.046875 L 50.984375 -120.03125 C 61.753906 -130.15625 70.253906 -136.957031 76.484375 -140.4375 C 82.710938 -143.925781 89.519531 -145.671875 96.90625 -145.671875 C 108.519531 -145.671875 117.648438 -141.5 124.296875 -133.15625 C 130.953125 -124.820312 134.28125 -113.160156 134.28125 -98.171875 L 134.28125 -25.65625 C 134.28125 -17.84375 135.546875 -12.613281 138.078125 -9.96875 C 140.609375 -7.332031 145.78125 -5.59375 153.59375 -4.75 Z M 153.59375 0 "/></g></g></g></svg>
