<?xml version="1.0" standalone="no"?>
<!DOCTYPE svg PUBLIC "-//W3C//DTD SVG 20010904//EN"
 "http://www.w3.org/TR/2001/REC-SVG-20010904/DTD/svg10.dtd">
<svg version="1.0" xmlns="http://www.w3.org/2000/svg"
 width="9174.000000pt" height="2000.000000pt" viewBox="0 0 9174.000000 2000.000000"
 preserveAspectRatio="xMidYMid meet">

<g transform="translate(0.000000,2000.000000) scale(0.100000,-0.100000)"
fill="#000000" stroke="none">
<path d="M13110 19914 c-501 -33 -803 -76 -1148 -165 -1150 -294 -2140 -1000
-2844 -2024 -179 -261 -394 -660 -522 -970 -132 -322 -276 -813 -341 -1168
-98 -537 -130 -966 -122 -1611 5 -425 16 -604 57 -931 151 -1198 574 -2214
1268 -3043 840 -1004 1867 -1592 3092 -1771 360 -53 935 -72 1275 -42 914 79
1654 326 2359 788 771 505 1413 1222 1829 2040 387 762 599 1600 658 2596 15
266 7 983 -15 1217 -76 823 -245 1491 -536 2120 -386 835 -997 1556 -1768
2087 -258 178 -597 363 -892 488 -460 194 -1016 325 -1595 375 -123 11 -657
21 -755 14z m659 -2019 c426 -54 811 -193 1134 -408 169 -113 259 -188 412
-341 529 -531 866 -1247 995 -2117 70 -474 80 -1146 24 -1660 -113 -1051 -478
-1877 -1087 -2466 -416 -401 -900 -630 -1504 -709 -176 -24 -560 -24 -736 0
-405 53 -782 187 -1077 383 -617 409 -1077 1117 -1309 2013 -116 444 -168 857
-178 1390 -16 929 128 1675 452 2335 175 356 448 732 696 956 415 377 908 584
1521 638 142 13 508 5 657 -14z"/>
<path d="M80 14090 l0 -5560 3865 0 3865 0 0 1030 0 1030 -2707 2 -2708 3 -3
4528 -2 4527 -1155 0 -1155 0 0 -5560z"/>
<path d="M20250 14090 l0 -5560 1155 0 1155 0 2 3563 3 3563 2199 -3563 2199
-3563 1133 0 1134 0 0 5560 0 5560 -1155 0 -1155 0 0 -3560 c0 -1958 -3 -3560
-7 -3559 -5 0 -996 1602 -2203 3559 l-2195 3560 -1132 0 -1133 0 0 -5560z"/>
<path d="M31260 14090 l0 -5560 4120 0 4120 0 0 975 0 975 -2963 0 -2964 0 -6
1938 c-3 1066 -3 2690 0 3610 l6 1672 2889 0 2888 0 0 975 0 975 -4045 0
-4045 0 0 -5560z"/>
<path d="M41150 14090 l0 -5560 1154 0 1154 0 0 5560 0 5560 -1154 0 -1154 0
0 -5560z"/>
<path d="M47800 17505 l0 -2145 -1625 0 -1625 0 0 -1030 0 -1030 1623 -2 1622
-3 3 -2382 2 -2383 1155 0 1155 0 0 5560 0 5560 -1155 0 -1155 0 0 -2145z"/>
<path d="M55445 19638 c-61 -167 -3925 -11095 -3925 -11100 0 -4 551 -8 1225
-8 l1224 0 96 293 c52 160 220 679 373 1152 l279 860 2016 3 2015 2 79 -242
c43 -134 211 -652 373 -1153 l295 -910 1237 -3 1238 -2 -29 77 c-15 43 -880
2545 -1922 5561 l-1893 5482 -1338 0 c-1062 0 -1340 -3 -1343 -12z m1779
-3938 c395 -1351 500 -1699 690 -2272 l223 -678 -1393 0 c-767 0 -1394 3
-1394 8 0 4 105 327 233 717 180 545 342 1072 698 2272 255 859 467 1559 470
1555 4 -4 216 -725 473 -1602z"/>
<path d="M61779 19277 c69 -205 916 -2707 1881 -5560 l1755 -5187 1095 0 1095
0 1888 5553 c1038 3054 1887 5556 1887 5560 0 4 -551 7 -1224 7 l-1224 0 -16
-47 c-8 -27 -332 -1117 -720 -2423 l-704 -2375 -473 -1822 c-260 -1003 -476
-1820 -479 -1815 -4 4 -219 826 -478 1827 l-472 1820 -720 2350 c-396 1293
-730 2380 -741 2418 l-20 67 -1228 0 -1228 0 126 -373z"/>
<path d="M72790 14090 l0 -5560 4125 0 4125 0 0 975 0 975 -2967 2 -2968 3 -7
1635 c-3 899 -4 2523 -1 3608 l6 1972 2889 0 2888 0 0 975 0 975 -4045 0
-4045 0 0 -5560z"/>
<path d="M82680 14090 l0 -5560 1155 0 1155 0 2 3564 3 3563 2199 -3563 2199
-3564 1134 0 1133 0 0 5560 0 5560 -1155 0 -1155 0 0 -3561 c0 -1958 -4 -3558
-8 -3555 -5 3 -996 1605 -2203 3561 l-2194 3555 -1132 0 -1133 0 0 -5560z"/>
<path d="M34660 14305 l0 -995 2055 0 2055 0 0 995 0 995 -2055 0 -2055 0 0
-995z"/>
<path d="M76190 14305 l0 -995 2055 0 2055 0 0 995 0 995 -2055 0 -2055 0 0
-995z"/>
<path d="M69838 3989 c-523 -51 -976 -335 -1259 -789 -196 -317 -283 -664
-283 -1140 0 -416 63 -718 209 -1012 250 -503 698 -850 1207 -937 389 -67 780
-15 1098 144 535 268 879 769 977 1420 22 151 25 589 5 735 -81 578 -339 1011
-777 1305 -333 223 -734 317 -1177 274z m437 -684 c234 -63 404 -186 539 -388
144 -216 211 -452 223 -777 21 -585 -161 -1029 -516 -1258 -252 -163 -623
-175 -906 -29 -106 54 -267 213 -338 333 -154 260 -230 605 -212 964 19 395
135 707 344 923 128 133 265 207 454 243 94 18 329 11 412 -11z"/>
<path d="M17190 3979 c-338 -43 -632 -174 -881 -392 -264 -231 -457 -554 -542
-907 -54 -224 -62 -303 -62 -625 0 -335 10 -424 71 -663 128 -500 449 -918
875 -1136 328 -168 769 -218 1197 -135 434 84 789 334 975 687 77 146 136 347
155 530 l8 72 -368 0 -368 0 0 -26 c0 -44 -59 -205 -101 -276 -146 -248 -397
-370 -729 -355 -247 11 -421 82 -581 234 -246 235 -369 593 -369 1071 1 299
50 543 153 747 96 191 261 358 431 435 200 91 467 110 687 49 251 -69 428
-254 494 -512 l23 -92 366 -3 366 -2 0 24 c0 13 -9 75 -19 138 -55 316 -207
595 -430 785 -228 194 -490 305 -824 348 -126 16 -416 18 -527 4z"/>
<path d="M50410 3979 c-168 -19 -374 -76 -495 -136 -147 -74 -309 -210 -415
-352 -71 -94 -145 -249 -176 -366 -38 -147 -45 -368 -14 -515 49 -239 168
-424 368 -575 88 -66 218 -136 337 -180 38 -15 278 -80 534 -145 602 -153 701
-189 806 -293 134 -135 123 -383 -25 -527 -253 -246 -913 -233 -1182 23 -105
101 -172 235 -185 372 l-6 65 -380 0 -380 0 7 -88 c20 -244 100 -466 231 -637
217 -283 549 -458 990 -521 144 -21 500 -24 645 -5 380 48 645 162 859 366
194 186 288 390 311 678 35 425 -128 756 -476 967 -185 113 -288 147 -879 294
-539 134 -599 155 -697 245 -207 189 -145 503 124 635 122 60 181 71 368 71
194 0 255 -13 399 -82 176 -84 295 -234 339 -427 l17 -76 372 0 373 0 0 33 c0
61 -31 221 -61 309 -104 317 -337 575 -650 722 -168 79 -331 123 -541 145
-112 13 -408 12 -518 0z"/>
<path d="M74150 3974 c-382 -52 -666 -208 -869 -479 -70 -92 -154 -268 -183
-380 -20 -80 -23 -112 -22 -290 0 -188 2 -205 27 -288 71 -230 207 -410 411
-542 178 -115 272 -149 792 -279 466 -117 570 -148 693 -207 182 -88 256 -231
217 -418 -45 -215 -232 -341 -557 -373 -263 -26 -521 33 -686 155 -134 99
-206 233 -238 440 l-6 37 -374 0 -375 0 0 -47 c0 -67 25 -224 50 -313 87 -309
325 -581 645 -735 247 -119 507 -169 870 -169 295 1 494 29 699 101 388 135
648 398 744 753 24 87 26 112 26 300 1 184 -2 214 -22 290 -78 283 -252 484
-552 635 -160 81 -246 107 -776 239 -407 102 -505 130 -576 164 -181 88 -271
243 -240 413 31 167 151 284 357 349 90 28 299 39 412 20 303 -49 515 -233
579 -504 l18 -76 374 0 374 0 -7 68 c-17 171 -74 353 -153 489 -216 375 -589
597 -1094 652 -133 15 -431 12 -558 -5z"/>
<path d="M20240 2055 l0 -1855 385 0 385 0 0 721 0 721 423 -5 c450 -4 472 -6
583 -59 103 -48 182 -157 219 -303 8 -33 36 -288 62 -568 l47 -507 398 0 398
0 -5 23 c-2 12 -39 288 -80 614 -77 600 -93 692 -139 796 -79 180 -207 281
-426 338 l-45 12 82 27 c314 107 511 310 585 605 20 79 23 114 22 280 -1 172
-3 199 -27 290 -49 186 -165 379 -289 483 -122 102 -291 176 -492 214 -108 21
-142 22 -1098 25 l-988 4 0 -1856z m1803 1186 c172 -45 268 -133 319 -294 23
-74 27 -216 8 -297 -29 -127 -121 -250 -225 -302 -148 -75 -281 -90 -770 -86
l-360 3 -3 498 -2 497 478 0 c441 0 485 -2 555 -19z"/>
<path d="M24550 2055 l0 -1855 1375 0 1375 0 0 325 0 325 -990 0 -990 0 0 475
0 475 865 0 865 0 0 330 0 330 -865 0 -865 0 0 400 0 400 960 0 960 0 0 325 0
325 -1345 0 -1345 0 0 -1855z"/>
<path d="M29072 2062 c-359 -1016 -652 -1850 -652 -1854 0 -5 183 -8 408 -8
l407 0 124 385 125 385 671 0 671 0 124 -385 124 -385 414 0 c327 0 413 3 409
12 -2 7 -288 834 -635 1838 -347 1004 -634 1833 -637 1843 -7 16 -38 17 -454
17 l-446 0 -653 -1848z m1232 571 c108 -373 274 -907 313 -1010 4 -10 -92 -13
-460 -13 l-465 0 73 219 c40 121 144 458 231 750 87 292 160 531 163 531 4 0
69 -215 145 -477z"/>
<path d="M32440 3565 l0 -345 560 0 560 0 0 -1510 0 -1510 385 0 385 0 0 1510
0 1510 555 0 555 0 0 345 0 345 -1500 0 -1500 0 0 -345z"/>
<path d="M36660 2055 l0 -1855 385 0 385 0 0 1855 0 1855 -385 0 -385 0 0
-1855z"/>
<path d="M38883 3312 c111 -329 393 -1163 627 -1855 l425 -1257 366 0 366 0
548 1613 c301 886 585 1721 631 1855 l83 242 -412 -2 -411 -3 -236 -795 c-159
-535 -289 -997 -395 -1408 -88 -336 -162 -608 -165 -604 -4 4 -77 279 -163
612 -127 490 -203 756 -400 1400 l-244 795 -411 3 -411 2 202 -598z"/>
<path d="M43180 2055 l0 -1855 1370 0 1370 0 0 325 0 325 -985 0 -985 0 0 475
0 475 865 0 865 0 0 330 0 330 -865 0 -865 0 0 400 0 400 960 0 960 0 0 325 0
325 -1345 0 -1345 0 0 -1855z"/>
<path d="M53250 3565 l0 -345 560 0 560 0 0 -1510 0 -1510 385 0 385 0 0 1510
0 1510 555 0 555 0 0 345 0 345 -1500 0 -1500 0 0 -345z"/>
<path d="M57470 2603 c0 -817 4 -1349 10 -1418 58 -616 452 -995 1130 -1086
122 -17 478 -17 600 0 574 77 953 364 1086 821 55 186 54 166 54 1633 l0 1357
-385 0 -385 0 0 -1330 c0 -1466 2 -1417 -62 -1546 -38 -79 -126 -167 -203
-205 -119 -58 -200 -73 -400 -73 -154 0 -192 4 -260 22 -215 59 -331 168 -391
368 -17 55 -18 146 -21 1412 l-4 1352 -384 0 -385 0 0 -1307z"/>
<path d="M61810 2055 l0 -1856 848 4 c727 3 862 6 951 20 215 35 349 76 511
157 431 217 693 630 787 1240 26 165 26 701 0 875 -89 604 -346 1003 -790
1227 -148 74 -358 134 -592 169 -55 8 -334 13 -897 16 l-818 4 0 -1856z m1520
1215 c168 -21 331 -72 447 -142 204 -122 323 -368 369 -761 23 -197 15 -571
-15 -741 -27 -149 -79 -309 -134 -404 -59 -104 -170 -208 -278 -261 -181 -89
-369 -114 -834 -109 l-300 3 -3 1213 -2 1212 333 0 c183 0 371 -5 417 -10z"/>
<path d="M66220 2055 l0 -1855 385 0 385 0 0 1855 0 1855 -385 0 -385 0 0
-1855z"/>
</g>
</svg>
