<svg xmlns="http://www.w3.org/2000/svg" viewBox="0 75.41 647.34 674.1">
  <defs>
    <style>
      .cls-1 {
        fill: #fff;
      }

      .cls-2 {
        fill: #463129;
      }

      .cls-3 {
        opacity: .67;
      }

      .cls-3, .cls-4, .cls-5 {
        fill: none;
        stroke-miterlimit: 10;
      }

      .cls-3, .cls-5 {
        stroke: #201614;
      }

      .cls-6 {
        fill: #5b372b;
      }

      .cls-7 {
        fill: #5570b2;
      }

      .cls-8 {
        fill: #414f7f;
      }

      .cls-9 {
        fill: #362218;
      }

      .cls-10 {
        fill: #926466;
      }

      .cls-11 {
        fill: #ae794e;
      }

      .cls-12 {
        fill: #bfcfea;
      }

      .cls-4 {
        stroke: #414f7f;
        stroke-width: 12px;
      }

      .cls-13 {
        fill: #201614;
      }

      .cls-14 {
        fill: #746155;
      }
    </style>
  </defs>
  <g id="tail">
    <path class="cls-2" d="M185.34,602.45C51.45,523.33,1.48,516.62,.03,478.39c-.78-20.53,12.88-38.45,17.82-44.93,22.28-29.23,56.14-34.57,63.3-36.15,51.76-11.39,91.13,16.03,137.55,52.32,27.56,21.55,57.37,67.27,70.22,124.63,2.67,11.91,.17,26-7.84,37.18-4.68,6.52-10.96,11.99-18.47,15.25-22.06,9.6-46.47-6.03-77.28-24.24Z"/>
    <line class="cls-5" x1="192.55" y1="430.2" x2="183.29" y2="600.5"/>
    <line class="cls-5" x1="167.92" y1="414.12" x2="158.98" y2="586.89"/>
    <line class="cls-5" x1="265.33" y1="510.44" x2="259.65" y2="627.61"/>
    <line class="cls-5" x1="242.92" y1="474.86" x2="237.45" y2="583.23"/>
    <line class="cls-5" x1="154.86" y1="584.42" x2="277.45" y2="536.29"/>
    <line class="cls-5" x1="124.21" y1="567.52" x2="266.25" y2="511.32"/>
    <line class="cls-5" x1="211.31" y1="615.98" x2="289.73" y2="585.03"/>
    <line class="cls-5" x1="183.6" y1="600.5" x2="285.36" y2="560.33"/>
    <line class="cls-5" x1="94.22" y1="550.38" x2="231.27" y2="496.4"/>
    <line class="cls-5" x1="58.66" y1="530.97" x2="225.34" y2="465.85"/>
    <line class="cls-5" x1="32.17" y1="516.7" x2="204.5" y2="449.05"/>
    <line class="cls-5" x1="10.25" y1="500.4" x2="188.12" y2="430.94"/>
    <line class="cls-5" x1="1.37" y1="480.93" x2="170.11" y2="415.92"/>
    <line class="cls-5" x1="5.44" y1="454.17" x2="140.48" y2="401.96"/>
    <line class="cls-5" x1="29.06" y1="422.64" x2="98.87" y2="395.52"/>
    <line class="cls-5" x1="145.48" y1="404.55" x2="136.44" y2="573.88"/>
    <line class="cls-5" x1="123.73" y1="396.5" x2="114.78" y2="559.19"/>
    <line class="cls-5" x1="102.36" y1="395.71" x2="94.22" y2="550.38"/>
    <line class="cls-5" x1="80.96" y1="397.58" x2="73.14" y2="539.41"/>
    <line class="cls-5" x1="60.21" y1="403.09" x2="53.03" y2="528.65"/>
    <line class="cls-5" x1="40.29" y1="413.92" x2="34.65" y2="519.32"/>
    <line class="cls-5" x1="20.98" y1="431.05" x2="16.93" y2="507.06"/>
    <line class="cls-5" x1="214.44" y1="439.43" x2="205.35" y2="611.7"/>
    <line class="cls-5" x1="230.65" y1="483.11" x2="223.87" y2="622.21"/>
  </g>
  <g id="Layer_7" data-name="Layer 7">
    <path class="cls-6" d="M260.9,634.42c27.73,37.04,35.57,77.2,20.55,94.8-24.78,29.04-113.61-1.22-116.53-34.17-1.94-21.95,33.85-49.68,86.31-63.87"/>
    <path class="cls-6" d="M430.16,618.88c42.48,18.33,69.27,49.26,65,72-7.04,37.52-99.15,55.47-118.08,28.35-12.61-18.07,4.64-59.94,43.08-98.35"/>
    <path class="cls-10" d="M370.8,726.59c.29-.1,.74-.27,1.27-.48,2-.79,12.56-9.51,16.27-18.94,1.05-2.66,.5-7.88-4.15-9.38-3.9-1.26-9.36,2.75-10.68,9.46"/>
    <path class="cls-10" d="M493.29,712.07c.1-.29,.25-.74,.42-1.3,.63-2.06,.39-15.75-4.67-24.53-1.43-2.48-5.85-5.3-9.92-2.6-3.42,2.26-3.68,9.04,.75,14.25"/>
    <path class="cls-10" d="M440.68,737.44c.18-.24,.47-.63,.8-1.1,1.24-1.76,5.29-14.83,3.22-24.76-.58-2.8-3.91-6.86-8.61-5.57-3.95,1.08-6.32,7.43-3.74,13.77"/>
    <path class="cls-10" d="M473.26,726.84c.1-.29,.25-.74,.42-1.3,.63-2.06,.4-15.75-4.67-24.53-1.43-2.48-5.85-5.3-9.92-2.61-3.42,2.26-3.69,9.04,.74,14.25"/>
    <path class="cls-10" d="M402.77,738c.22-.21,.57-.54,.98-.95,1.52-1.53,7.72-13.73,7.35-23.86-.1-2.86-2.69-7.42-7.55-6.95-4.08,.4-7.49,6.26-6.01,12.94"/>
  </g>
  <g id="Layer_5" data-name="Layer 5">
    <path class="cls-7" d="M176.5,401.92c-13.52,25.3-6.3,51.08-5.67,56.79,1.98,17.94,4.94,18.5,7.54,36.88,5.09,36-2.96,50.9-.49,73.68,5.05,46.65,98.1,112.56,130.3,93.22,16.7-10.03-6.13-28.19,16.73-39.41,8.62-4.23,4.9-9.93,34.39-6.77,28.59,3.06,45.2,19.89,49.62,14.97,23.71-26.4,1.98-185.5-38.32-216.47-34.77-26.72-53.74,1.83-90.85-18.8-10.84-6.03-27.96-27.95-44.59-31.33-32.24-6.56-45.42,12.49-58.65,37.24Z"/>
    <path class="cls-7" d="M257.35,651.08c44.26,23.27,96.64,19.54,145.05,19.39l-3.54-8.54c-5.04,5.25-12.42,6.23-19.35,6.79-8.66,.71-17.38,.7-26.04,0-17.32-1.4-34.46-5.79-50.37-12.77-5.84-2.56-10.93,6.05-5.05,8.63,18.18,7.98,37.38,12.88,57.21,14.27,9.61,.67,19.37,.58,28.94-.6,8.08-1,15.93-3.22,21.72-9.25,2.97-3.09,.86-8.55-3.54-8.54-46.42,.14-97.53,4.3-140.01-18.03-5.69-2.99-10.75,5.64-5.05,8.63h0Z"/>
    <path class="cls-7" d="M529.72,420.39c11.4,26.54,2.1,51.5,1.01,57.12-3.44,17.67-6.43,17.93-10.52,35.98-8.01,35.35-1.21,50.98-5.53,73.43-8.85,45.96-106.9,102.35-137.39,79.88-15.81-11.65,8.41-27.46-13.44-40.91-8.24-5.07-4.07-10.38-33.69-10.16-28.73,.21-46.64,15.31-50.64,9.98-21.45-28.65,13.18-184.94,55.85-211.78,36.81-23.16,53.38,7.16,92.02-9.69,11.29-4.92,30.13-25.06,46.97-26.77,32.64-3.33,44.22,16.96,55.37,42.92Z"/>
    <path class="cls-4" d="M183.44,516.94c27.21,15.96,62.48,22.38,97.86,25.97,75.12,7.62,154.51,3.71,233.04-11.48"/>
    <path class="cls-7" d="M302.02,658.02c18.69,13.89,39.75,19.19,62.73,19.49,11.32,.15,23.6,3,34.06-2.74,8.45-4.63,13.39-13.82,11.61-23.4-1.99-10.73-10.92-17.54-20.3-21.78-10.99-4.96-22.3-9.37-33.79-13.01-10.29-3.26-22.69-7.87-33.59-5.44-9.55,2.13-17.37,12.03-14.97,22.01s13.03,14.17,22.54,14.52c13.07,.49,26.12-2.95,38.71,2l3.17-11.48c-17.87-4.93-35.28-11.25-52.11-19.03l-3,11.09c9.68,1.26,19.42,2.27,29.06,3.84,7.96,1.29,15.75,3.28,21.57,9.19v-8.42c-1.65,1.9-8.05,.41-10.56,.25-4.5-.29-9-.68-13.48-1.17-9.1-.99-18.13-2.49-27.1-4.33l-1.58,11.69c4.67,.61,9.29,1.67,13.78,3.05,2.24,.69,4.46,1.45,6.63,2.32,1.16,.46,2.31,.95,3.44,1.48,1.71,1.07,2.06,1.11,1.04,.11l.6-4.59c1.62-1.24,1.32-1.52-.91-.84-1.17,.11-2.35,.19-3.53,.24-2.35,.09-4.71,.06-7.06-.12-4.8-.36-9.45-1.47-14.02-2.94l-3.17,11.48c14.63,4.67,29.05,9.93,43.26,15.78l1.58-11.69c-13.68-1.25-26.99-4.55-39.79-9.5l-3.17,11.48c21.83,4.2,43.9,7.02,66.08,8.43-.53-3.9-1.06-7.8-1.58-11.69-3.22,1.23-6.44,2.47-9.66,3.7-6.18,2.37-5.39,11.31,1.58,11.69,9.2,.51,18.17-2.3,25.47-7.91l-8.75-6.72c-.97,2.49-11.92,1.41-13.74,1.46-6.54,.16-13.08,.32-19.62,.48-5.4,.13-8.76,8.62-3,11.09,14.57,6.27,30.59,.87,39.05-12.47,2.66-4.19-.95-8.46-5.14-8.96-13.54-1.59-27.12-2.62-40.74-3.08v11.91c12.9-.77,25.73-2.25,38.48-4.37,7.54-1.25,4.34-12.73-3.17-11.48-11.7,1.95-23.47,3.24-35.31,3.94-7.61,.45-7.71,11.65,0,11.91,13.62,.46,27.2,1.49,40.74,3.08l-5.14-8.96c-4.66,7.35-14.33,11.82-22.76,8.2l-3,11.09c9.53-.23,19.12-.16,28.64-.71,7.32-.42,13.4-2.78,16.21-9.97,1.8-4.61-4.7-9.83-8.75-6.72-5.83,4.47-12.1,6.69-19.46,6.29,.53,3.9,1.06,7.8,1.58,11.69,3.22-1.23,6.44-2.47,9.66-3.7,6.21-2.38,5.37-11.25-1.58-11.69-21.13-1.34-42.12-4.01-62.91-8.01-7.6-1.46-10.29,8.73-3.17,11.48,13.84,5.34,28.19,8.58,42.95,9.92,7.28,.66,7.22-9.37,1.58-11.69-14.2-5.84-28.62-11.11-43.26-15.78-7.32-2.34-10.44,9.14-3.17,11.48,7.24,2.33,14.86,3.62,22.48,3.53,5.76-.07,16.15,.14,17.19-7.55s-8.1-10.44-13.73-12.6c-7.37-2.82-14.95-4.46-22.76-5.48-6.63-.86-8.12,10.35-1.58,11.69,11.27,2.31,22.66,4.05,34.11,5.15,5.45,.52,10.92,.94,16.39,1.12,4.59,.16,9.06-.43,12.22-4.09,2.12-2.45,2.39-5.99,0-8.42-6.86-6.97-15.86-10.33-25.34-12-11.15-1.96-22.49-3.05-33.71-4.51-5.81-.75-8.19,8.7-3,11.09,17.77,8.21,36.09,15.02,54.96,20.23,7.55,2.08,10.14-8.74,3.17-11.48-7.97-3.14-16.48-3.48-24.95-3.08-7.24,.34-15.8,2.1-22.83-.31-7.9-2.71-5.19-11.35,2.36-12.35,8.13-1.08,17.87,2.94,25.5,5.32,8.75,2.73,17.33,5.96,25.79,9.48,7.06,2.94,16.31,6,19.75,13.51,3.26,7.11-1.64,13.43-8.68,15.1-4.22,1-8.67,.58-12.95,.28-5.13-.37-10.22-.51-15.36-.57-19.4-.24-37.18-6.25-52.77-17.84-6.15-4.57-12.1,5.76-6.01,10.28h0Z"/>
    <path class="cls-7" d="M276.19,374.61c21.53,19.36,51.17,24.96,79.27,25.18,8.91,.07,17.81-.34,26.7-.88,1.92-.12,1.93-3.12,0-3-28.75,1.75-59.1,2.09-85.51-11.08-6.62-3.3-12.82-7.39-18.33-12.34-1.43-1.29-3.56,.83-2.12,2.12h0Z"/>
    <path class="cls-7" d="M280.95,377.64c4.66,7.69,13.44,11.13,21.8,13.14,10.79,2.59,21.93,4.02,32.98,4.87,22.81,1.75,45.74,.49,68.47-1.8,12.9-1.3,25.76-2.95,38.62-4.6l-.4-2.95c-23.44,5.92-47.54,9.07-71.72,9.34-6.82,.08-13.63-.08-20.44-.46-1.93-.11-1.92,2.89,0,3,24.32,1.34,48.78-.21,72.75-4.59,6.79-1.24,13.53-2.71,20.21-4.4,1.59-.4,1.31-3.17-.4-2.95-22.35,2.88-44.75,5.73-67.28,6.79-22.21,1.05-44.61,.34-66.47-3.96-9.24-1.82-20.28-4.27-25.54-12.95-1-1.65-3.6-.14-2.59,1.51h0Z"/>
    <path class="cls-7" d="M318.53,400.12c20.2-.02,40.4-.04,60.6-.06s40.23-.04,60.35-.06c11.39-.01,22.78-.02,34.16-.03v-3c-16.68,1.2-33.36,2.4-50.03,3.6-4.73,.34-9.46,.68-14.19,1.02-1.91,.14-1.93,3.14,0,3,16.68-1.2,33.36-2.4,50.03-3.6,4.73-.34,9.46-.68,14.19-1.02,1.9-.14,1.95-3,0-3-20.2,.02-40.4,.04-60.6,.06s-40.23,.04-60.35,.06c-11.39,.01-22.78,.02-34.16,.03-1.93,0-1.93,3,0,3h0Z"/>
    <path class="cls-7" d="M281.78,381.8c11.11,.75,21.8,4.66,32.37,7.92s22.07,6.81,33.1,10.22c6.19,1.91,12.38,3.82,18.57,5.73l.8-2.89c-24.28-4.27-48.46-9.06-72.53-14.38-6.74-1.49-13.47-3.02-20.19-4.59-1.88-.44-2.68,2.45-.8,2.89,24,5.61,48.12,10.71,72.34,15.27,6.78,1.28,13.57,2.51,20.37,3.71,1.88,.33,2.67-2.31,.8-2.89-11.11-3.43-22.23-6.86-33.34-10.29s-21.94-6.96-33-10.13c-6.05-1.73-12.21-3.13-18.5-3.56-1.93-.13-1.92,2.87,0,3h0Z"/>
    <path class="cls-7" d="M250.47,384.74c25.7-4.72,51.81-6.28,77.89-4.83l-1.33-9.82c-23.82,8.11-48.38,13.54-72.94,18.9l2.66,9.64c32.57-8.03,65.81-12.64,99.33-13.77l-1.33-9.82c-28.62,8-57.54,14.89-86.7,20.64l2.66,9.64c28.94-7.29,58.38-12.19,88.12-14.59l-2.52-9.32c-16.85,7.66-33.7,15.32-50.55,22.97-5.38,2.44-1.42,10.3,3.85,9.14,32.92-7.23,65.3-16.68,96.95-28.28,5.99-2.2,3.4-11.86-2.66-9.64-31.65,11.6-64.03,21.04-96.95,28.28l3.85,9.14c16.85-7.66,33.7-15.32,50.55-22.97,4.47-2.03,2.29-9.71-2.52-9.32-30.62,2.47-60.99,7.44-90.78,14.95-6.29,1.59-3.6,10.88,2.66,9.64,29.16-5.75,58.07-12.64,86.7-20.64,5.33-1.49,4.42-10.01-1.33-9.82-34.39,1.15-68.59,5.88-101.99,14.12-6.27,1.55-3.61,11.01,2.66,9.64,24.55-5.35,49.12-10.78,72.94-18.9,5.36-1.83,4.39-9.5-1.33-9.82-26.98-1.5-53.97,.3-80.55,5.18-6.32,1.16-3.64,10.8,2.66,9.64h0Z"/>
    <path class="cls-7" d="M413.98,383.21c-24.44,7.4-48.89,14.8-73.33,22.2l3.85,9.14c22.52-12.2,46.13-22.07,70.64-29.53-1.62-2.79-3.24-5.57-4.86-8.36-13.33,11.31-27.03,22.16-41.1,32.53-5.07,3.74-.71,11.85,5.05,8.63,24.54-13.7,48.1-29.06,70.54-45.98l-6.84-6.84c-9.74,16.29-22.54,30.53-37.85,41.77l6.06,7.85c12.1-12.12,24.2-24.24,36.3-36.36l-7.07-7.07c-12.27,13.06-25.62,25.04-40.04,35.7l7.34,5.65c3.74-10.51,10.97-19.16,20.5-24.9l-6.06-7.85c-12.15,11.16-26.05,19.99-39.96,28.76l6.06,7.85c17.95-15.43,37.13-29.28,57.39-41.51l-6.84-6.84c-5.34,11.58-11.62,22.63-18.85,33.14l8.63,5.05c7.46-10.88,14.92-21.76,22.38-32.64l-9.32-2.52c-.83,10.63-3.29,20.93-7.13,30.87l9.64,2.66c2.49-9.67,4.97-19.34,7.46-29.01,1.47-5.7-5.96-8.4-9.14-3.85-9.22,13.19-19.48,25.55-30.68,37.11-4.48,4.62,2.48,11.6,7.07,7.07,13.05-12.86,24.54-27.15,34.34-42.62l-9.14-3.85c-3.53,11.98-7.97,23.6-13.39,34.85l9.32,2.52c-.44-11.28,1.71-22.23,6.68-32.4l-9.32-2.52c.45,8.29,.9,16.57,1.35,24.86,.35,6.47,9.5,6.39,10,0,.89-11.34,3-22.44,6.22-33.35h-9.64c1.82,12.27,2.74,24.63,2.89,37.02h10c-.57-11.56-1.13-23.12-1.7-34.67l-9.82,1.33c2.49,9.36,4.98,18.73,7.47,28.09,1.46,5.48,9.75,4.3,9.82-1.33,.12-10.04-1.03-19.98-3.38-29.74l-9.64,2.66c2.72,8,5.82,15.83,9.22,23.56,2.26,5.14,11.09,1.47,9.14-3.85-3.1-8.44-5.57-17.03-7.44-25.82l-9.64,2.66c3.61,8.81,7.75,17.31,12.59,25.51,2.83,4.79,10.86,1.67,9.14-3.85-2.25-7.22-4.5-14.44-6.76-21.66l-9.14,3.85c4.21,7,8.42,14,12.62,21,3.31,5.51,11.96,.49,8.63-5.05-4.21-7-8.42-14-12.62-21-2.86-4.75-10.87-1.69-9.14,3.85,2.25,7.22,4.5,14.44,6.76,21.66l9.14-3.85c-4.39-7.44-8.3-15.13-11.58-23.12-2.39-5.84-11.02-3.79-9.64,2.66,1.87,8.79,4.35,17.38,7.44,25.82l9.14-3.85c-3.06-6.94-5.77-14-8.22-21.17-2.06-6.06-11.16-3.65-9.64,2.66,2.16,8.93,3.14,17.89,3.03,27.08l9.82-1.33c-2.49-9.36-4.98-18.73-7.47-28.09-1.42-5.35-10.1-4.4-9.82,1.33,.57,11.56,1.13,23.12,1.7,34.67,.31,6.39,10.08,6.48,10,0-.16-13.31-1.3-26.52-3.25-39.68-.77-5.15-8.36-4.35-9.64,0-3.47,11.76-5.62,23.79-6.58,36.01h10c-.45-8.29-.9-16.57-1.35-24.86-.25-4.58-6.99-7.28-9.32-2.52-5.73,11.74-8.55,24.37-8.04,37.44,.18,4.61,7.04,7.25,9.32,2.52,5.79-12.02,10.63-24.44,14.4-37.24,1.64-5.56-6.16-8.56-9.14-3.85-9.36,14.78-20.32,28.32-32.78,40.6l7.07,7.07c11.79-12.16,22.54-25.25,32.24-39.13l-9.14-3.85c-2.49,9.67-4.97,19.34-7.46,29.01-1.64,6.36,7.37,8.55,9.64,2.66,4.17-10.8,6.59-21.99,7.49-33.52,.42-5.34-6.76-6.25-9.32-2.52-7.46,10.88-14.92,21.76-22.38,32.64-3.65,5.32,5.01,10.32,8.63,5.05,7.23-10.51,13.51-21.56,18.85-33.14,1.97-4.27-2.22-9.63-6.84-6.84-20.98,12.67-40.83,27.1-59.41,43.08-4.31,3.71,1.29,10.86,6.06,7.85,14.63-9.22,29.21-18.59,41.98-30.32,4.2-3.86-1.21-10.77-6.06-7.85-11.84,7.13-20.47,17.87-25.1,30.87-1.39,3.91,3.86,8.22,7.34,5.65,15.11-11.17,29.19-23.56,42.06-37.26,4.4-4.68-2.51-11.64-7.07-7.07-12.1,12.12-24.2,24.24-36.3,36.36-3.87,3.88,1.35,11.31,6.06,7.85,16.73-12.28,30.77-27.53,41.44-45.35,2.4-4.02-2.7-9.97-6.84-6.84-22.44,16.93-45.99,32.28-70.54,45.98l5.05,8.63c14.76-10.87,29.15-22.23,43.13-34.09,3.86-3.28-.26-9.76-4.86-8.36-25.3,7.71-49.77,17.94-73.03,30.54-4.96,2.69-1.59,10.79,3.85,9.14,24.44-7.4,48.89-14.8,73.33-22.2,6.14-1.86,3.52-11.51-2.66-9.64h0Z"/>
    <path class="cls-7" d="M307.07,401.24c20.36,2.96,40.91,4.05,61.46,2.82,10.17-.61,20.33-2.63,30.51-2.81,8.2-.15,17.99,2.33,19.94,11.5,.94,4.4,6.97,4.63,9.14,1.19s4.05-7.36,5.53-11.34l-9.82-1.33c.03,8.83-1.19,18.89-8.67,24.69-8.03,6.23-16.03,1.87-21.93-4.72-10.29-11.49-19.99-30.38-38.64-25.31-6.21,1.69-3.59,11.22,2.66,9.64,4.05-1.02,7.54-.72,11.45,.68l-1.19-9.14c-22.26,10.47-47.94,2.14-69.87-5.07l-1.33,9.82c4.84-.12,9.67-.23,14.51-.35l-1.33-9.82c-15.58,3.96-31.53,2.64-46.39-3.44l1.19,9.14c12.99-6.22,26.97-9.97,41.32-11.11l-1.33-9.82c-11.97,2.14-23.6,5.52-34.86,10.11-5.06,2.07-4.63,9.52,1.33,9.82,15.89,.8,31.77,.42,47.6-1.16l-1.33-9.82c-10.72,3.98-21.44,7.96-32.16,11.94l3.85,9.14c18.22-7.91,37.3-13.64,56.81-17.33l-5.65-7.34c-4.03,6.6-10.7,11.13-18.46,11.96l4.32,7.52c3.36-5,8.12-8.25,13.9-9.84,5.28-1.44,4.44-10.28-1.33-9.82-9.75,.77-19.49,1.54-29.24,2.31l2.52,9.32c5.91-4.43,12.27-7.92,19.27-10.31,6.2-2.12,3.62-10.63-2.66-9.64-9.34,1.46-18.68,2.93-28.02,4.39l2.66,9.64c5.29-2.12,10.59-4.24,15.88-6.37,5.98-2.4,3.75-10.67-2.66-9.64-24.68,3.96-49.35,7.91-74.03,11.87l3.85,9.14c16.74-8.8,34.22-15.86,52.37-21.19,6.3-1.85,3.57-10.65-2.66-9.64-19.47,3.15-38.94,6.31-58.41,9.46l2.66,9.64c15.6-3.55,31.05-7.67,46.34-12.38,6.13-1.89,3.52-11.54-2.66-9.64-15.29,4.71-30.74,8.84-46.34,12.38-6.38,1.45-3.57,10.65,2.66,9.64,19.47-3.15,38.94-6.31,58.41-9.46l-2.66-9.64c-18.95,5.57-37.27,13.01-54.75,22.2-5.38,2.83-1.37,9.98,3.85,9.14,24.68-3.96,49.35-7.91,74.03-11.87l-2.66-9.64c-5.29,2.12-10.59,4.24-15.88,6.37-5.99,2.4-3.74,10.65,2.66,9.64,9.34-1.46,18.68-2.93,28.02-4.39l-2.66-9.64c-7.82,2.67-15.04,6.36-21.66,11.32-3.52,2.64-2.98,9.75,2.52,9.32,9.75-.77,19.49-1.54,29.24-2.31l-1.33-9.82c-8.34,2.28-15.07,7.29-19.88,14.43-1.99,2.96,.6,7.93,4.32,7.52,11.38-1.23,21.09-7.09,27.09-16.92,2.43-3.98-1.57-8.12-5.65-7.34-20.41,3.86-40.15,10.06-59.2,18.34-5.15,2.24-1.46,11.11,3.85,9.14,10.72-3.98,21.44-7.96,32.16-11.94,4.86-1.81,4.7-10.42-1.33-9.82-15.83,1.58-31.71,1.97-47.6,1.16l1.33,9.82c11.26-4.6,22.88-7.97,34.86-10.11,5.5-.98,4.29-10.27-1.33-9.82-16.21,1.28-31.7,5.45-46.37,12.47-4.34,2.08-2.35,7.69,1.19,9.14,16.44,6.73,34.51,7.81,51.7,3.44,5.43-1.38,4.35-9.96-1.33-9.82-4.84,.12-9.67,.23-14.51,.35-5.72,.14-6.68,8.06-1.33,9.82,24.97,8.22,52.46,15.87,77.57,4.07,4.22-1.99,2.48-7.83-1.19-9.14-5.51-1.96-11.11-2.1-16.77-.68l2.66,9.64c10.16-2.76,17.81,8.33,23,15.32,5.38,7.25,11.6,14.99,20.71,17.46s18.64-1.49,24.59-8.6c6.65-7.95,8.32-18.4,8.29-28.48-.02-5.91-7.91-6.44-9.82-1.33-1.19,3.17-2.72,6.09-4.53,8.95l9.14,1.19c-1.77-8.32-8.46-14.32-16.3-17.05-10.35-3.6-21.61-.97-32.16,.08-23.42,2.35-47.14,1.86-70.43-1.53-6.29-.92-9.01,8.72-2.66,9.64h0Z"/>
    <path class="cls-7" d="M202.25,379.95c25.52-8.66,52-13.69,78.92-14.87l-2.52-9.32c-21.87,10.52-47.67,6.11-71.03,9.64l2.66,9.64c24.29-10.25,50.24-15.16,76.59-14.35,6.44,.2,6.43-9.8,0-10-27.15-.83-54.22,4.14-79.25,14.7-5.92,2.5-3.79,10.62,2.66,9.64,24.66-3.73,50.23,.51,73.42-10.65,4.49-2.16,2.29-9.53-2.52-9.32-27.78,1.21-55.24,6.29-81.58,15.23-6.06,2.06-3.46,11.72,2.66,9.64h0Z"/>
    <path class="cls-7" d="M458.45,383.68c10.61-.94,20.89,.92,30.36,5.85,4.74,2.47,10.77-4.21,6.06-7.85-11.17-8.63-23.87-14.42-37.86-16.57,.4,3.05,.8,6.09,1.19,9.14,2.62-1.91,6.12,.04,8.83,1.07,3.58,1.36,7.15,2.77,10.7,4.21,7.3,2.95,14.51,6.09,21.68,9.34,5.91,2.68,10.22-4.79,5.05-8.63-10.64-7.91-22.36-13.96-34.9-18.25l-2.66,9.64c11.6,3.11,22.24,8.26,31.95,15.33,5.21,3.79,10.2-4.88,5.05-8.63-10.36-7.54-21.96-13.02-34.34-16.34-6.27-1.68-8.7,7.57-2.66,9.64,11.73,4.01,22.57,9.85,32.51,17.24l5.05-8.63c-9.11-4.14-18.32-8.08-27.62-11.78-7.08-2.81-16.5-8.07-23.68-2.84-3.02,2.2-3.52,8.42,1.19,9.14,12.17,1.86,23.67,6.44,33.45,13.99l6.06-7.85c-10.97-5.72-23.06-8.31-35.41-7.22-6.36,.56-6.42,10.57,0,10h0Z"/>
    <path class="cls-7" d="M205.93,378.76c.96-5.04,8.55-6.97,12.63-8.74,6.27-2.72,12.6-5.3,18.97-7.77,12.67-4.91,25.52-9.33,38.51-13.32,6.13-1.88,3.52-11.54-2.66-9.64-15.41,4.73-30.62,10.08-45.56,16.11-6.93,2.8-13.99,5.55-20.71,8.83-5.04,2.46-9.72,6.08-10.82,11.88-1.2,6.29,8.44,8.98,9.64,2.66h0Z"/>
    <path class="cls-7" d="M375.07,392.22c-.62-4.55,0-9.07,1.39-13.41,1.95-6.15-7.7-8.78-9.64-2.66s-2.25,12.35-1.39,18.72c.36,2.68,3.8,4.14,6.15,3.49,2.89-.79,3.86-3.46,3.49-6.15h0Z"/>
    <path class="cls-7" d="M387.85,393.59c-2.8-4.24-3.86-8.96-2.71-13.95,1.45-6.26-8.19-8.94-9.64-2.66-1.73,7.5-.55,15.2,3.71,21.65,3.53,5.35,12.2,.34,8.63-5.05h0Z"/>
    <path class="cls-7" d="M288.19,667.86c62.94,14.94,138.75,19.24,191.66-24.57,12.67-10.5,23.2-23.59,30.23-38.49,2.73-5.79-5.89-10.87-8.63-5.05-11.82,25.04-33.48,43.57-58.53,54.73-29.36,13.08-62.54,15.2-94.21,12.86-19.51-1.44-38.84-4.61-57.86-9.12-6.26-1.49-8.93,8.15-2.66,9.64h0Z"/>
    <path class="cls-7" d="M275.08,659.25l20.62,9.82,5.05-8.63c-8.91-4.17-18.02-7.83-27.34-10.95l-2.66,9.64c6.86,1.78,13.2,4.43,19.29,8.06l2.52-9.32c-3.49-.29-6.35-1.58-9.18-3.6-5.26-3.73-10.26,4.93-5.05,8.63,4.31,3.06,9,4.52,14.23,4.96s6.54-6.92,2.52-9.32c-6.79-4.05-14.03-7.08-21.68-9.06-6.27-1.63-8.73,7.61-2.66,9.64,8.51,2.85,16.82,6.14,24.95,9.94,5.78,2.71,10.87-5.86,5.05-8.63l-20.62-9.82c-5.78-2.75-10.86,5.87-5.05,8.63h0Z"/>
    <path class="cls-8" d="M341,379.96c-10.08,35.52,6.87,70.63,7.75,106.16,.48,19.2-2.11,38.29-4.75,57.27-2.67,19.2-4.92,38.37-5.93,57.74-1.14,21.7-1.22,43.43-1.31,65.15-.05,12.87,19.95,12.89,20,0,.15-37.71,.71-75.32,5.86-112.74,2.59-18.85,5.55-37.73,6.1-56.79,.54-18.82-2.41-37.05-6.08-55.44-3.68-18.41-7.6-37.53-2.35-56.03,3.52-12.4-15.77-17.7-19.29-5.32h0Z"/>
    <path class="cls-7" d="M370.62,405.38v-32.17c0-6.43-10-6.45-10,0v32.17c0,6.43,10,6.45,10,0h0Z"/>
    <path class="cls-7" d="M212.94,363.62c-11.43,.98-23.02,2.07-33.64,6.74-4.48,1.97-8.84,4.5-11.63,8.65-2.93,4.35-3.6,9.57-4.26,14.65-3.27,25.37-3.28,51.05-.27,76.45,.75,6.31,10.76,6.39,10,0-2.55-21.54-2.95-43.27-.99-64.88,.45-5.03,.83-10.17,1.84-15.13,1.09-5.34,3.89-8.09,8.76-10.39,9.35-4.41,20.05-5.22,30.19-6.09,6.36-.55,6.42-10.55,0-10h0Z"/>
    <path class="cls-7" d="M221.14,363.06c-8.47,.55-15.99-4.78-24.45-5.19-7.67-.37-15.39,2.44-21.5,6.95-13.53,9.98-18.21,26.94-17.46,43.11,.3,6.41,10.3,6.44,10,0-.63-13.51,2.74-28.59,15.02-36.2,5.5-3.4,11.79-4.77,18.11-3.14,6.85,1.76,13.02,4.95,20.27,4.47,6.39-.42,6.44-10.42,0-10h0Z"/>
    <path class="cls-7" d="M188.62,373.19c15.89-2.45,31.83-4.45,47.83-6.02,6.35-.62,6.41-10.63,0-10-16.89,1.66-33.72,3.79-50.49,6.38-6.34,.98-3.65,10.62,2.66,9.64h0Z"/>
    <path class="cls-7" d="M189.46,368.56c17.9,.37,35.71-1.07,53.34-4.14,6.33-1.1,3.65-10.74-2.66-9.64-16.75,2.92-33.69,4.13-50.68,3.79-6.44-.13-6.44,9.87,0,10h0Z"/>
    <path class="cls-7" d="M188.53,369.59c17.8-3.28,36.45,.33,53.58-6.76,5.86-2.43,3.29-12.11-2.66-9.64-16.95,7.02-35.86,3.49-53.58,6.76-6.32,1.17-3.64,10.8,2.66,9.64h0Z"/>
    <path class="cls-7" d="M180.2,376.65c11.19-6.09,23.05-9.93,35.57-12.16s25.28-3.5,37.49-7.41c6.11-1.95,3.5-11.61-2.66-9.64-12.81,4.09-26.18,5.27-39.33,7.74s-24.78,6.66-36.12,12.83c-5.65,3.08-.61,11.71,5.05,8.63h0Z"/>
    <path class="cls-7" d="M468.26,376.16h20.43c6.43,0,6.45-10,0-10h-20.43c-6.43,0-6.45,10,0,10h0Z"/>
    <path class="cls-7" d="M191.22,372.18c18.34-9.66,38.11-15.88,58.64-18.68,6.35-.87,3.64-10.5-2.66-9.64-21.38,2.92-41.94,9.63-61.03,19.69-5.7,3-.65,11.64,5.05,8.63h0Z"/>
    <path class="cls-7" d="M213.2,373.05c.11,8.71,5.39,15.69,7.1,24.02,1.85,9.04,1.28,18.82,1.54,28s.65,19.25,.78,28.87c.11,8.01-.29,15.97-5.09,22.7-3.74,5.25,4.93,10.25,8.63,5.05,4.8-6.75,6.21-14.87,6.44-23,.28-9.86-.38-19.8-.66-29.66-.27-9.92-.01-20.04-1.26-29.9-.57-4.5-1.63-8.7-3.36-12.88s-4.06-8.42-4.12-13.2c-.08-6.43-10.08-6.45-10,0h0Z"/>
    <path class="cls-7" d="M464.94,379.81c8.81,1.5,17.17,.23,25-4.17,3.95-2.22,2.72-7.8-1.19-9.14-5.23-1.79-10.13-1.2-15.07,1.12s-1.47,11.12,3.85,9.14c6.19-2.3,16.09-11.31,22.07-5.4,6.36,6.29,10.7,16.55,14.23,24.63,3.76,8.6,6.55,17.67,8.46,26.86,1.84,8.86,4.41,20.1-.14,28.52-3.06,5.66,5.57,10.72,8.63,5.05,5.5-10.17,3.79-21.9,1.81-32.82-2.14-11.83-5.87-23.3-10.83-34.24-2.39-5.27-5.11-10.39-8.13-15.32-2.78-4.52-5.72-9.61-10.32-12.51-10.22-6.45-19.12,2.13-28.43,5.59,1.28,3.05,2.57,6.09,3.85,9.14,2.55-1.2,4.78-.99,7.36-.11-.4-3.05-.8-6.09-1.19-9.14-5.34,3-11.22,4.19-17.29,3.16s-9,8.56-2.66,9.64h0Z"/>
    <path class="cls-7" d="M462.45,399.79c-2.29,20.11,8.93,38.03,21.09,52.99l7.07-7.07c-7-5.75-11.78-13.05-14.03-21.85-1.6-6.23-11.25-3.59-9.64,2.66,2.65,10.32,8.36,19.49,16.6,26.26,5,4.11,11.14-2.06,7.07-7.07-10.6-13.04-20.16-28.44-18.16-45.92,.73-6.38-9.28-6.33-10,0h0Z"/>
    <path class="cls-7" d="M204.62,367.84c9.84,14.76,15.89,31.33,21.79,47.95,1.92,5.4,9.34,4.35,9.82-1.33,1.18-13.85-2-27.54-8.93-39.56l-8.63,5.05c3.43,4.47,6.77,9.2,9.29,14.26,.27,.43,.49,.89,.66,1.37,.2,1.05,.85,.99,1.95-.19,0-.29-1.74-1.73-2.02-2.03-1.9-2.04-3.7-4.12-5.73-6.04-7.57-7.14-16.32-12.5-25.9-16.49-5.93-2.47-8.52,7.2-2.66,9.64,7.39,3.08,14.32,7.42,20.27,12.79,4.49,4.06,8.68,11.48,15.17,12.35s10.24-5.09,9.09-10.87c-1.43-7.15-7.14-14.19-11.47-19.84-3.8-4.94-11.96-.71-8.63,5.05,6.12,10.6,8.6,22.34,7.57,34.52l9.82-1.33c-6.17-17.39-12.51-34.89-22.8-50.34-3.55-5.33-12.22-.33-8.63,5.05h0Z"/>
    <path class="cls-7" d="M204.67,370.58c6.99-1.16,12.17,13.29,14.54,18.05,3.95,7.93,7.36,16.08,10.33,24.42,2.14,6.02,11.81,3.43,9.64-2.66-4.08-11.48-8.96-22.67-14.76-33.39-4.85-8.96-10.95-17.96-22.42-16.06-6.33,1.05-3.65,10.69,2.66,9.64h0Z"/>
    <path class="cls-7" d="M217.58,377.58c7.3,11.35,12.55,23.57,15.73,36.69,1.52,6.25,11.16,3.6,9.64-2.66-3.37-13.88-9.01-27.06-16.74-39.07-3.47-5.39-12.13-.39-8.63,5.05h0Z"/>
    <path class="cls-7" d="M189.5,378.26c24.08-.54,46.34-12.56,60.27-32.15,3.16-4.44-2.78-8.81-6.84-6.84-17.59,8.52-33.81,19.42-48.46,32.34l8.36,2.21c-.17-1.26,7.28-6,8.51-6.96,3.94-3.07,7.93-6.08,11.96-9.04,7.46-5.47,15.06-10.74,22.78-15.85l-5.05-8.63c-16.99,11.75-33.98,23.49-50.97,35.24l6.84,6.84c11.51-15.51,27.54-27.38,45.68-33.97l-2.66-9.64c-18.19,7.61-35.64,16.67-52.21,27.36-5.38,3.47-.51,11.97,5.05,8.63,15.42-9.26,30.85-18.52,46.27-27.78,5.51-3.31,.49-11.96-5.05-8.63-15.42,9.26-30.85,18.52-46.27,27.78l5.05,8.63c15.82-10.2,32.46-19.08,49.82-26.35,5.77-2.41,3.51-11.89-2.66-9.64-20.8,7.56-38.48,20.81-51.66,38.57-2.97,4,2.85,9.6,6.84,6.84,16.99-11.75,33.98-23.49,50.97-35.24,5.24-3.62,.37-12.21-5.05-8.63-10.11,6.69-20.02,13.67-29.68,21-7.23,5.48-19.6,11.62-18.16,22.14,.55,4.03,5.88,4.39,8.36,2.21,14.02-12.37,29.62-22.63,46.44-30.78l-6.84-6.84c-11.82,16.62-31.3,26.74-51.64,27.2-6.43,.14-6.45,10.15,0,10h0Z"/>
    <path class="cls-7" d="M461.16,363.7c6.56,4.68,11.59,10.89,15.18,18.08,2.87,5.76,11.5,.7,8.63-5.05-4.37-8.77-10.81-16-18.76-21.67-5.25-3.74-10.25,4.92-5.05,8.63h0Z"/>
    <path class="cls-7" d="M464.02,363.77c8.11,2.78,15.78,6.34,23.17,10.67,5.56,3.26,10.6-5.38,5.05-8.63-8.12-4.76-16.66-8.63-25.56-11.68-6.1-2.09-8.72,7.57-2.66,9.64h0Z"/>
    <path class="cls-7" d="M460.86,360.86c10.54,2.26,20.26,6.3,29.3,12.19,5.41,3.52,10.42-5.13,5.05-8.63-9.69-6.32-20.38-10.77-31.69-13.19-6.28-1.34-8.96,8.29-2.66,9.64h0Z"/>
  </g>
  <g id="Layer_6" data-name="Layer 6">
    <path class="cls-10" d="M155.81,698.31c.3,.05,.77,.13,1.34,.22,2.13,.31,15.62-2,23.54-8.33,2.24-1.79,4.35-6.59,1.07-10.2-2.76-3.03-9.49-2.27-13.97,2.89"/>
    <path class="cls-10" d="M269.29,746.68c.23-.2,.59-.52,1.01-.92,1.57-1.47,8.18-13.46,8.15-23.6,0-2.86-2.44-7.51-7.31-7.2-4.09,.26-7.69,6.01-6.44,12.73"/>
    <path class="cls-10" d="M211.02,742.49c.28-.12,.72-.31,1.24-.55,1.95-.91,11.97-10.23,15.12-19.87,.89-2.72,.03-7.9-4.7-9.12-3.97-1.03-9.18,3.3-10.1,10.08"/>
    <path class="cls-10" d="M244.56,749.51c.23-.2,.59-.52,1.01-.92,1.57-1.47,8.18-13.46,8.16-23.6,0-2.86-2.44-7.51-7.31-7.2-4.09,.26-7.69,6-6.45,12.73"/>
    <path class="cls-10" d="M177.86,724.12c.3-.07,.76-.18,1.32-.34,2.08-.57,13.53-8.07,18.26-17.04,1.33-2.53,1.36-7.78-3.09-9.78-3.74-1.68-9.61,1.71-11.65,8.23"/>
  </g>
  <g id="Layer_2" data-name="Layer 2">
    <path class="cls-12" d="M165.05,233.74c19.3-42.67,90.52-141.28,188.72-143.97,108.39-2.97,210.95,111.96,186.09,152.86-45.72,75.23-409.26,67.26-374.81-8.89Z"/>
  </g>
  <g id="Layer_1" data-name="Layer 1">
    <g id="Layer_4" data-name="Layer 4">
      <path class="cls-11" d="M501.75,204.43c-11.76-20.15-58.55-91.34-141.29-91.1-100.18,.29-140.65,103.98-143.23,110.16-7.44,17.85-30.61,50.74-10.71,80.28,16.01,23.76,32.61,52.75,69.89,63.8,11.53,3.42,19.61,7.02,26.99,10.36,9.3,2.09,18.9,2.42,28.36,3.28,19.79,1.79,39.26,4.55,59.07,2.92,17.7-4.14,34.64-.85,75.09-17.73,32.5-13.56,36.22-28.72,45.31-46.12,23.47-44.94-4.07-106.57-9.48-115.84Z"/>
      <path class="cls-9" d="M506.73,202.36c15.41-1.97,26.55-12.17,27.06-23.44,.59-12.95-12.95-24.88-20.5-23.44-11.33,2.15-10.76,34.67-10.66,38.61"/>
      <path class="cls-9" d="M187.61,203.36c-15.41-1.97-26.55-12.17-27.06-23.44-.59-12.95,12.95-24.88,20.5-23.44,11.33,2.15,10.76,34.67,10.66,38.61"/>
    </g>
    <g id="Layer_3" data-name="Layer 3">
      <path class="cls-12" d="M525.98,204.3c-2.14,1.44-4.53,2.44-7.1,2.75-7.76,.92-13.44,5.84-19.66,10.33-4.5,3.25-4.84,9.44-6.97,12.33-7.23,9.78-1.28,12.52-8.36,27.23-.69,1.44-1.11,3.07-.9,4.65,.19,1.42,.97,2.68,1.38,4.05,1.42,4.71-1.65,9.49-2.49,14.34-1,5.8,1.25,11.62,3.45,17.08,2.35,5.82,4.7,11.64,7.05,17.46,.6,1.49,1.21,2.98,2.12,4.3,1.57,2.26,4.03,4,4.79,6.64,.31,1.08,.31,2.23,.44,3.35,.74,6.25,5.62,11.09,10.21,15.4,4.67,4.39,10.01,9.05,16.42,9.05,2.03,0,4.02-.48,5.98-.95,8.66-2.1,17.33-4.19,25.99-6.29,1.72-.42,3.48-.85,4.91-1.88,1.69-1.22,2.73-3.13,4.24-4.56,2.41-2.28,5.95-3.3,7.89-5.99,2.35-3.26,1.66-8.04,4.08-11.24,1.37-1.81,3.6-2.91,4.69-4.9,1.65-3.01,.1-6.85,1.08-10.14,.52-1.75,1.72-3.2,2.7-4.73,4.2-6.57,4.48-15.45,.71-22.27-.44-.8-.94-1.58-1.31-2.41-.48-1.08-.74-2.24-1.01-3.4-5.36-23.09-14.61-46.1-31.62-62.6-4.34-4.21-9.37-8.06-15.29-9.31-5.36-1.14-10.8-.04-13.46,1.75Z"/>
      <path class="cls-12" d="M216.2,205.77c-6.02-6.78-16.29-7.22-25.36-7.16-5.08,.03-10.68,.27-14.38,3.74-2.39,2.24-3.7,5.62-6.52,7.29-2.48,1.46-5.94,1.48-7.56,3.85-.67,.97-.88,2.17-1.3,3.28-2.63,6.92-13.11,9.48-13.59,16.86-.09,1.33,.18,2.72-.34,3.95-.78,1.85-3.03,2.61-4.2,4.26-1.93,2.73-.2,6.65-1.34,9.8-.95,2.59-3.68,4.18-4.75,6.73-1.22,2.89-.02,6.32-1.03,9.29-.59,1.73-1.87,3.14-2.55,4.84-.59,1.47-.69,3.09-.75,4.68-.41,10.51,.57,21.06,2.91,31.31,.25,1.1,.52,2.22,1.08,3.2,.68,1.19,1.75,2.13,2.4,3.34,2.01,3.77-.49,9.15,2.36,12.34,1,1.12,2.57,1.8,3.11,3.21,.48,1.25-.04,2.63-.17,3.96-.25,2.49,.86,4.89,2.01,7.11,1.28,2.47,2.64,4.89,4.09,7.26,2.15,3.52,5.73,5.97,9.82,6.54,3.18,.44,6.35,.7,9.56,.5,3.13-.2,3.46-.57,6.53-1.21,1.11-.23,7.39-2.75,8.49-2.98,5.69-1.19,8.98-.37,14.45-2.34,.8-.29,1.62-.61,2.22-1.21,1.41-1.42,1.13-3.85,2.32-5.45,1.67-2.26,5.43-1.98,7.16-4.2,1.7-2.18,.49-5.53,1.75-7.99,1.11-2.16,3.76-3.01,5.43-4.77,3.15-3.33,2.16-9.08,5.12-12.58,1.12-1.33,2.71-2.19,3.86-3.49,1.32-1.5,1.95-3.45,2.54-5.35,4-12.88,3.14-23.62,5.9-36.82,.9-4.3,3.74-8.81,3.14-13.16-.7-5.13-1.08-12.02-3.65-16.51-1.53-2.67-3.08-5.36-5.22-7.57-.89-.92-1.92-1.8-2.36-3.01-.38-1.03-.28-2.17-.36-3.27-.21-3.09-1.82-5.88-3.39-8.55-2.92-4.97-6.13-10.23-7.44-9.68Z"/>
      <path class="cls-12" d="M526.06,227.96c-2.39-1.97-5.1-3.45-8.03-4.19-6.61-1.67-4.02-5.93-9.4-14.8-1.07-1.76-5.96-3.58-6.75-5.51-.86-2.12-2.24-3.93-3.61-5.7-3.71-4.82-7.42-9.63-11.13-14.45-5.57-7.23-11.15-14.47-17.12-21.31-8.2-9.39-17.14-18.02-26.7-25.77-2.61-2.12-5.31-4.19-8.38-5.38-3.96-1.53-8.28-1.49-12.38-2.5-6.26-1.53-11.82-5.43-17.98-7.39-4.7-1.5-9.64-1.84-14.53-2.17-17.5-1.18-26.65-3.49-44.38-4.64-5.67-.37-14.4,1.78-19.52,4.45-2.72,1.42-7.28,2.77-9.45,4-8.19,4.63-8.96,5.5-15.53,8.26-5.77,2.57-11.53,5.15-17.3,7.72-6.82,3.28-14.09,5.93-20.4,10.39-5.35,3.78-9.87,8.76-14.32,13.73-11.5,12.83-22.89,25.93-31.94,40.9-4.85,8.03-9.09,16.68-15.5,23.3s-15.75,10.95-24.17,8.02c-4.37-13.46-1.87-28.7,4.05-41.44,5.92-12.74,14.99-23.4,24.25-33.52,37.34-40.78,82.81-77.16,135.42-83.56,38.78-4.72,78.47,7.7,111.3,30.64,32.83,22.94,59.1,55.89,78.94,92.41,2.73,5.02,5.43,10.57,4.82,16.36-.54,5.08-3.05,18.08-10.27,12.14Z"/>
    </g>
    <ellipse class="cls-13" cx="420.72" cy="236.14" rx="13.31" ry="26.29" transform="translate(-36.2 81.25) rotate(-10.58)"/>
    <ellipse class="cls-13" cx="297.72" cy="236.14" rx="26.29" ry="13.31" transform="translate(10.94 485.46) rotate(-79.42)"/>
    <path class="cls-14" d="M416.86,337.17c-10.47,18.59-40.05,20.2-54.96,20.68-14.1,.45-45.66,.07-59.05-19.46-9.48-13.82-6.68-26.93-4.88-31.12,8.08-18.78,30.82-35.14,58.59-35.2,33.5-.08,51.9,23.61,54.54,27.14,3.43,4.59,14.97,21.61,5.75,37.97Z"/>
    <path class="cls-13" d="M335.56,289.28c3.86-7.13,15.89-7.49,21.35-7.65,5.16-.15,18.04-.54,22.92,6.99,3.45,5.33,.89,11.51,.22,13.12-2.99,7.21-11.34,13.47-21.51,13.45-12.27-.02-18.97-9.15-19.94-10.51-1.25-1.77-6.44-9.12-3.04-15.39Z"/>
    <ellipse class="cls-1" cx="367.72" cy="288.14" rx="4.03" ry="1.63"/>
    <ellipse class="cls-1" cx="424.66" cy="223.7" rx="5.6" ry="3.45"/>
    <ellipse class="cls-1" cx="305.66" cy="223.7" rx="5.6" ry="3.45"/>
    <path class="cls-13" d="M402.66,313.83c1.93,0,1.93-3,0-3s-1.93,3,0,3h0Z"/>
    <path class="cls-13" d="M411.66,322.83c1.93,0,1.93-3,0-3s-1.93,3,0,3h0Z"/>
    <path class="cls-13" d="M398.66,325.83c1.93,0,1.93-3,0-3s-1.93,3,0,3h0Z"/>
    <path class="cls-13" d="M313.66,310.83c1.93,0,1.93-3,0-3s-1.93,3,0,3h0Z"/>
    <path class="cls-13" d="M317.66,322.83c1.93,0,1.93-3,0-3s-1.93,3,0,3h0Z"/>
    <path class="cls-13" d="M305.66,319.83c1.93,0,1.93-3,0-3s-1.93,3,0,3h0Z"/>
    <path class="cls-3" d="M302.33,309.25c-6.8-3.97-63.92-20.99-83.21-7.19"/>
    <path class="cls-3" d="M300.61,313.6c-7.35-2.83-84.91-13.35-101.72,3.38"/>
    <path class="cls-3" d="M302.69,317.77c-7.62-2.01-101.91-2.81-120.04,9.52"/>
    <path class="cls-3" d="M414.95,308.83c6.84-3.9,64.13-20.34,83.28-6.34"/>
    <path class="cls-3" d="M414.96,316.88c7.41-2.87,85.88-13.79,103.24,2.92"/>
    <path class="cls-3" d="M414.55,320.06c7.27-1.56,95.88,1.89,112.2,14.34"/>
  </g>
  <g id="Layer_9" data-name="Layer 9">
    <path class="cls-11" d="M493.28,436.8c1.59-13.69,3.23-27.43,6.75-40.79,3.68-13.95,9.89-26.4,17.89-38.35,16.92-25.26,35.08-49.76,52.65-74.58,1.79-2.53,.01-6.76-2.99-7.34-6.12-1.2-10.11,2.19-13.54,6.93-5.01,6.9-9.69,14.05-14.54,21.06-8.94,12.96-17.89,25.93-26.83,38.89-8.6,12.47-17.8,24.72-25.56,37.74-6.79,11.41-13.88,26.09-10,39.66,3.51,12.28,15.77,21.3,27.11,25.9,12.25,4.98,24.07,.84,33.28-8.02s16.05-20.78,21.99-31.98c6.26-11.78,11.42-24.19,15.4-36.93,9.19-29.4,11.99-60.76,8.01-91.3-.82-6.29-10.83-6.37-10,0,6.09,46.66-3.94,94.82-28.76,134.87-5.53,8.92-12.01,19.64-21.98,24.13-10.6,4.77-23.38-3.32-30.51-11.08-9.67-10.52-4.51-24.44,1.43-35.52,5.85-10.91,13.38-20.92,20.39-31.08,8.57-12.42,17.14-24.85,25.72-37.27,4.47-6.48,8.94-12.96,13.42-19.44,2.24-3.24,4.47-6.48,6.71-9.72,.86-1.24,4.22-7.46,5.61-7.19l-2.99-7.34c-18.24,25.77-37.48,51.1-54.64,77.6-7.75,11.97-13.57,24.75-17.13,38.57-3.59,13.95-5.23,28.31-6.89,42.59-.74,6.38,9.27,6.33,10,0h0Z"/>
    <path class="cls-11" d="M509.7,415.73c.11-.1,2.04-1.45,.64-.55s.74-.36,.91-.41c2.4-.63,1.09-.15-.66-.15,2.58,0,.71-.04-.78-.54,3.26,1.11-1.69-1.35-.42-.4,1.67,1.25-2.32-2.48-.95-.84,1.26,1.51-1.43-2.52-.97-1.56-1.09-2.27-1.32-3.72-1.37-6.52-.03-1.59,0-3.24,.22-4.82-.26,1.94,.5-1.85,.64-2.39,1.06-4.08,1.17-4.3,3.05-7.79,3.43-6.37,6.62-10.38,10.84-15.38,20.09-23.81,39.32-48.12,56.35-74.24,9.45-14.49,18.26-29.38,26.49-44.6l-27.42-11.56c-8.07,28.64-16.93,57.03-25.97,85.37-1.98,6.21-4.42,12.49-5.78,18.88-1.64,7.68,.76,15.52,8.58,18.81s15.6-.38,19.53-7.34,6.77-14.76,9.65-22.06c.97-2.46,1.72-4.85,1.69-7.57-.13-11.64-12.79-18.49-22.84-13-5.18,2.83-8.41,9.47-11.4,14.35-4.31,7.06-8.47,14.21-12.66,21.33-10.45,17.77-20.53,35.99-32.45,52.84,8.63,5.05,17.27,10.09,25.9,15.14,9.84-15.28,17.9-31.39,24.84-48.17,2.49-6.03-1.67-13.88-6.89-16.94s-13.87-2.64-18.18,2.35c-5.14,5.96-10.04,12.11-14.76,18.4-3.76,5-7.93,10.13-10.62,15.8-4.37,9.18-3.83,19.81,4.07,26.92,6.54,5.89,15.92,6.53,24.09,4.25,29.07-8.12,40.93-37.66,48.83-63.79,2.27-7.51-2.71-16.68-10.48-18.45s-16.02,2.43-18.45,10.48c-2.58,8.52-5.12,17.1-8.72,24.06-1.03,1.98-2.14,3.93-3.35,5.81-.55,.85-1.12,1.69-1.71,2.51,.92-1.27-.03,.06-.47,.56-1.34,1.52-2.7,3.01-4.19,4.39-.73,.68-1.49,1.37-2.28,1.99,1.56-1.22-.63,.35-1.23,.73-.84,.53-1.7,1.03-2.59,1.5-.25,.13-2.74,1.25-1.6,.8s-1.49,.42-1.74,.49c-.89,.25-2.48,.04-1.32,.36,1.77,.48,1.79-.03,3.77,1.26,2.11,.86,3.1,2.57,2.98,5.13,1.48,1.52,1.85,2.98,1.12,4.38-.28,.59-.2,.48,.23-.33,.24-.46,.51-.9,.81-1.33,.61-.98,1.28-1.92,1.94-2.87,5.49-7.98,10.54-14.44,16.89-21.81l-25.07-14.59c-5.49,13.29-13.52,28.12-21.82,41.01-4.39,6.81-1.4,16.56,5.38,20.52,7.51,4.39,15.83,1.25,20.52-5.38,10.9-15.4,20.2-32,29.75-48.25,4.59-7.81,9.15-15.64,13.83-23.4,1.55-2.57,3.09-5.13,4.73-7.65,.53-.81,1.13-1.59,1.63-2.42,1.27-2.09-2.69,3.15-1.53,1.98,.04-.04-4.83,3.17-6.06,3.4h-7.98l.05,.02-8.96-6.89c.42,.58-3.37-9.69-1.54-10.88-.11,.07-.11,.48-.17,.59-.31,.59-.49,1.34-.72,1.97-1.36,3.73,1.54-3.53-.31,.77-.79,1.84-1.58,3.68-2.38,5.52-1.07,2.47-2.14,4.95-3.3,7.38-.29,.61-.64,1.21-.9,1.83-.81,1.95-1.03,.17,1.67-1.99l6.62-3.86h-.04c3.85,.51,7.71,1.02,11.56,1.52l-.03-.02,6.89,8.96c.48,1.53,.88,5.79,.04,7.36,.09-.17,.07-.43,.13-.62,.22-.65,.35-1.36,.54-2.03,.63-2.26,1.34-4.49,2.04-6.73,2.38-7.62,4.84-15.21,7.26-22.82,7.64-24.07,15.02-48.22,21.87-72.53,4.55-16.15-19.22-26.72-27.42-11.56-16.65,30.8-36.27,61.14-57.62,88.09s-56.28,56.98-40.15,94.35c8.47,19.64,33.82,29.23,50.89,14.1,6.06-5.38,5.49-15.73,0-21.21-6.02-6.02-15.13-5.39-21.21,0h0Z"/>
    <path class="cls-11" d="M569.41,360.09c5.21-10.33,10.58-20.92,12.91-32.34,1.16-5.68,1.23-11.41,1.76-17.15,.6-6.58,3.02-12.77,5.32-18.9,9.4-25.08,18.82-50.16,28.23-75.25,1.47-3.93-3.89-8.18-7.34-5.65-11.2,8.23-20.74,18.04-28.59,29.52-3.64,5.32,5.02,10.33,8.63,5.05,6.83-9.98,15.26-18.76,25-25.93l-7.34-5.65c-9.18,24.46-18.36,48.93-27.54,73.39-2.06,5.49-4.32,11-5.45,16.77s-.97,11.5-1.67,17.25c-1.46,12.06-7.15,23.15-12.55,33.84-2.89,5.73,5.73,10.8,8.63,5.05h0Z"/>
    <path class="cls-11" d="M567.66,372.61c21.88-5.25,27.52-32.44,30.64-51.19,4.77-28.59,9.51-57.18,14.27-85.77l-9.82-1.33c-2.49,41.77-16.12,82.23-39.15,117.15l9.14,3.85c3.19-18.81,8.01-37.24,14.43-55.2l-9.82-1.33c1.04,20.48-5.05,40.03-11.19,59.31-1.75,5.5,6.24,8.6,9.14,3.85,7.13-11.67,12.71-24.16,16.71-37.24,1.89-6.17-7.76-8.8-9.64-2.66-3.76,12.29-9,23.88-15.7,34.85l9.14,3.85c6.4-20.1,12.63-40.63,11.55-61.97-.29-5.74-7.92-6.65-9.82-1.33-6.42,17.96-11.24,36.4-14.43,55.2-.93,5.49,5.89,8.78,9.14,3.85,24-36.39,37.92-78.7,40.51-122.19,.33-5.54-8.89-6.93-9.82-1.33-4.32,25.96-8.64,51.92-12.95,77.88-1.71,10.27-3.08,20.74-6.45,30.63-2.99,8.79-8.79,19.12-18.52,21.45-6.26,1.5-3.61,11.15,2.66,9.64h0Z"/>
    <path class="cls-11" d="M535.89,420.7c-1.47,2.76,1.46,5.72,4.3,5.19,3.12-.59,3.96-4.41,3.26-7.04-.31-1.18-2.17-1.55-2.74-.36-1.07,2.26-2.15,4.52-3.22,6.77l2.8,.76c.49-5.36,.99-10.71,1.5-16.06,.15-1.61-2.04-1.87-2.8-.76-3.84,5.63-6.02,12.25-6.39,19.05-.1,1.93,2.9,1.92,3,0,.34-6.29,2.44-12.34,5.98-17.54l-2.8-.76c-.51,5.35-1.01,10.71-1.5,16.06-.13,1.46,2.17,2.07,2.8,.76,1.07-2.26,2.15-4.52,3.22-6.77l-2.74-.36c.25,.95,.32,2.65-.72,3.2-.33,.18-.66,.1-.97-.12-.15-.1-.31-.23-.38-.4-.16-.39-.01-.11,0-.12,.91-1.7-1.68-3.22-2.59-1.51h0Z"/>
    <path class="cls-11" d="M483.59,397.73c-3.83,3.93-3.63,10.01-3.75,15.12s.03,10.78,1.26,16.01c1.17,4.96,3.44,9.71,7.17,13.26s8.7,5.67,13.77,6.66c6.05,1.19,12.25,1.08,18.38,.82l-.4-2.95c-7.78,2.7-15.94-.71-22.98-4-5.79-2.7-14.26-7.59-12.01-15.36h-2.89c1.87,4.92,1.84,10.62,5.61,14.67,3.69,3.96,9.57,5.23,14.77,5.5,11.21,.58,22.15-4.28,30-12.15,4.22-4.23,7.59-9.27,10.07-14.69l-2.8-.76c.71,5.95-2.35,11.85-7.68,14.62l1.16-.15c-.76-.28-.17-2.8-.1-3.28,.29-1.83,.6-3.66,.92-5.49,.64-3.58,1.35-7.14,2.12-10.69,1.57-7.17,3.44-14.28,5.58-21.31,.56-1.85-2.33-2.64-2.89-.8-2.98,9.81-5.43,19.77-7.31,29.85-.47,2.54-.91,5.08-1.31,7.64-.28,1.76-.69,3.77,.25,5.42,.4,.71,1.12,1.38,1.94,1.55,.97,.2,1.95-.55,2.71-1.06,1.62-1.09,3.02-2.44,4.19-4,2.62-3.49,3.93-7.96,3.42-12.3-.15-1.29-2.1-2.28-2.8-.76-4.07,8.94-10.66,16.81-19.47,21.37-4.58,2.37-9.69,3.79-14.84,4-4.77,.2-10.21-.41-14.22-3.24-4.77-3.37-4.53-9.76-6.43-14.74-.51-1.33-2.45-1.51-2.89,0-1.14,3.94,.13,8.06,2.59,11.22s6.32,5.4,10.04,7.17c7.95,3.78,17.21,7.71,26.04,4.65,1.52-.53,1.38-3.02-.4-2.95-9.42,.4-20.4,.8-28.35-5.17s-9.27-16.49-9.28-25.72c0-2.77,.06-5.56,.27-8.32s.68-5.53,2.64-7.54c1.35-1.38-.77-3.51-2.12-2.12h0Z"/>
    <path class="cls-11" d="M536.11,431.06c4.87-12.26,8.4-25.01,10.52-38.02,.31-1.89-2.58-2.7-2.89-.8-2.12,13.01-5.65,25.77-10.52,38.02-.71,1.79,2.19,2.57,2.89,.8h0Z"/>
    <path class="cls-11" d="M597.63,234.65c.03-.2-.05,.27-.04,.26-.02,.14-.05,.27-.08,.41-.06,.3-.14,.6-.22,.89-.17,.57-.37,1.11-.56,1.52-.53,1.12-1.15,2.03-1.93,2.87l2.36,1.82c1.55-3.4,3.1-6.8,4.65-10.2,.34-.74,.21-1.61-.54-2.05-.64-.38-1.71-.2-2.05,.54-1.55,3.4-3.1,6.8-4.65,10.2-.31,.68-.25,1.46,.39,1.94,.58,.43,1.45,.44,1.97-.12,2.1-2.25,3.34-5.03,3.72-8.07,.1-.81-.76-1.5-1.5-1.5-.9,0-1.4,.69-1.5,1.5h0Z"/>
    <path class="cls-11" d="M607.19,269.58c-7.06,14.66-14.22,29.56-17.33,45.64-1.65,8.54-3.35,16.11-7.56,23.82s-8.51,15.13-12.76,22.69c-3.16,5.61,5.47,10.66,8.63,5.05,8.22-14.6,17.68-28.54,20.67-45.27s9.67-31.72,16.98-46.89c2.78-5.77-5.84-10.85-8.63-5.05h0Z"/>
    <path class="cls-11" d="M532.9,437.31c13.19-6.77,22.12-18.73,30.03-30.89,3.94-6.06,8.02-12.16,11.04-18.75s3.25-15.2,8.4-20.5c5.2-5.34,7.63-10.86,9.59-18,2.36-8.61,4.71-17.22,7.06-25.84,4.57-16.75,8.57-33.48,6.13-50.91-.89-6.35-10.53-3.65-9.64,2.66,2.26,16.11-2.44,32.12-6.65,47.51-2.18,7.97-4.35,15.95-6.54,23.92-.95,3.45-1.74,7.25-3.85,10.21-1.7,2.39-4.16,4.12-5.93,6.47-3.87,5.13-4.11,11.68-6.39,17.51-2.69,6.89-7,13.15-10.99,19.33-7.25,11.24-15.13,22.38-27.31,28.64-5.73,2.94-.67,11.57,5.05,8.63h0Z"/>
    <path class="cls-11" d="M205.54,373.68c12.38,2.99,17.43,17.63,17.24,29.09-.26,14.97-7.75,29.24-17.22,40.47s-21.77,21.02-32.71,31.46-20.85,21.47-30.03,33.29c-4.64,5.98-9.08,12.11-13.26,18.42-3.75,5.66-7.03,11.88-11.74,16.82-4.05,4.25-9.24,6.76-14.09,2.27-5.09-4.72-6.22-12.39-5.56-18.95,1.5-14.98,10.68-29.47,17.98-42.3,7.18-12.62,15.09-24.83,23.71-36.52,19.05-25.83,41.79-49.17,67.52-68.39,2.3-1.72,3.09-4.17,1.79-6.84-5.11-10.55-17.57-7.46-24.33-.58-8.44,8.59-15.33,19.49-22.09,29.41-14.76,21.63-27.58,44.52-38.56,68.29l9.14,3.85c9.52-31.12,25.09-60.56,46.61-85.07,4.7-5.35,10.29-12.58,17.5-14.56,8.52-2.34,7.09,8.44,5.29,13.32-2.75,7.49-7.91,13.97-12.33,20.51-5.39,7.97-10.77,15.94-16.16,23.91-3.61,5.35,5.05,10.36,8.63,5.05,5.03-7.44,10.06-14.88,15.08-22.31,4.33-6.41,9.17-12.68,12.43-19.73,4.72-10.21,7.01-27.95-7.88-30.88-13.6-2.68-25.29,12.35-32.84,21.36-9.73,11.62-18.34,24.17-25.66,37.44-8.45,15.33-15.21,31.58-20.32,48.31-1.62,5.3,6.73,9.07,9.14,3.85,8.98-19.43,19.18-38.28,30.69-56.34,5.59-8.78,11.48-17.37,17.67-25.74,2.18-2.94,15.35-23.33,19.36-15.04l1.79-6.84c-26.09,19.5-49,42.67-68.62,68.65-10.27,13.59-19.57,27.91-27.86,42.79s-17.81,30.84-17.87,47.93c-.05,12.52,8.01,29.15,22.74,27.89s22.97-20.08,30.44-30.92c10-14.5,21.37-28.03,33.83-40.48,12.52-12.51,26.87-23.28,38.2-36.94,11.32-13.65,20.16-30.96,19.55-49.12-.51-15.23-8.55-32.61-24.56-36.47-6.25-1.51-8.92,8.13-2.66,9.64h0Z"/>
    <path class="cls-11" d="M189.64,378.08c-31.77,32.32-58.23,69.59-78.98,109.85-2.96,5.74,5.07,10.41,8.63,5.05,15.07-22.63,30.13-45.37,47.25-66.52,8.21-10.15,16.86-20.01,26.24-29.11,2.27-2.2,4.6-4.43,7.34-6.04,1.43-.84,2.89-1.46,4.51-1.82l-.61-1.21c-.16,.85-.37,1.68-.64,2.5-1.83,6.51-4.5,12.76-7.6,18.76s5.34,10.62,8.63,5.05c6.18-10.47,9.62-21.95,10.62-34.04h-10c-.28,9.75-1.96,19.14-5,28.4l9.64,2.66c2.69-8.41,4.8-16.93,6.36-25.62l-9.82-1.33c-.62,9.66-2.91,18.94-6.66,27.86l9.64,2.66c2.35-10.01,4.7-20.01,7.06-30.02h-9.64c1.36,7.52,.46,14.94-2.09,22.11l9.64,2.66c2.88-12.15,5.78-26.48-1.57-37.65-2.93-4.46-11.25-1.74-9.14,3.85,3.93,10.41,3.79,21.31,.12,31.78-1.85,5.27,6.9,9.08,9.14,3.85,4.79-11.18,9.14-22.54,6.68-34.86l-9.64,2.66c2.69,12.38,.97,25.38-4.75,36.67,3.05,1.28,6.09,2.57,9.14,3.85,2.69-11.26,5.37-22.53,8.06-33.79h-9.64c1.88,10.89,.85,21.85-2.5,32.34l9.64,2.66c1.84-7.17,3.67-14.34,5.51-21.51l-6.15,3.49c-2.31-.82-1.46-.89-2.03,1.35-.44,1.71-1.16,3.45-1.76,5.1-1.19,3.24-2.53,6.42-4.01,9.53-2.91,6.13-6.32,11.98-10.14,17.58l8.63,5.05c5.67-9.47,9.89-19.66,12.67-30.33l-9.82-1.33c-.66,8.88-2.91,17.48-6.79,25.51,3.05,1.28,6.09,2.57,9.14,3.85,2.4-6.38,5.55-12.32,9.36-17.97l-9.14-3.85c-4.18,12.46-11.89,23.72-22.89,31.1l6.84,6.84c6.57-11.38,13.14-22.77,19.71-34.15l-8.63-5.05c-6.74,11.76-14.77,22.54-24.27,32.22,2.79,1.62,5.57,3.24,8.36,4.86,5.33-13.89,12.06-27.13,20.07-39.67,3.48-5.46-5.1-10.38-8.63-5.05-7.46,11.23-16.02,21.54-25.72,30.9,2.79,1.62,5.57,3.24,8.36,4.86,5.19-16.9,12.37-32.97,21.59-48.05,3.15-5.16-3.68-9.44-7.85-6.06-9.21,7.46-17.19,16.06-24.31,25.53l8.63,5.05c5.6-11.49,12.74-21.92,21.74-31.01l-7.07-7.07c-12.14,14.22-24.27,28.45-36.41,42.67,2.79,1.62,5.57,3.24,8.36,4.86,3.02-8.23,6.57-16.19,10.63-23.96,2.55-4.86-3.8-10.34-7.85-6.06-17.89,18.92-34.21,39.25-48.98,60.69-3.7,5.38,4.86,10.09,8.63,5.05,14.75-19.69,31.17-38.06,49.08-54.91l-7.85-6.06c-10.46,17.62-22.61,34.06-36.57,49.05l7.85,6.06c11.81-16.69,24.66-32.56,38.54-47.57l-7.85-6.06c-11.29,15.92-23.01,31.51-35.19,46.75l7.85,6.06c12.24-16.96,26.22-32.55,41.8-46.51l-7.85-6.06c-8.28,13.04-17.27,25.59-27.06,37.54-4.02,4.9,2.79,11.97,7.07,7.07,12.87-14.74,26.09-29.15,39.68-43.22l-7.85-6.06c-8.43,11.96-16.86,23.91-25.29,35.87-3.28,4.65,4.04,10.21,7.85,6.06,9.42-10.25,18.83-20.5,28.25-30.74l-7.85-6.06c-8.49,11.52-17.41,22.7-26.75,33.54l7.85,6.06c6.78-9.98,14.56-19.1,23.36-27.36l-7.85-6.06c-10.51,14.28-21.99,27.8-34.36,40.5l7.07,7.07c10.21-10.97,21.21-21.18,33.1-30.32l-6.84-6.84c-8.26,14.68-18.69,27.75-31.45,38.77l7.07,7.07c7.36-8.8,15.5-16.82,24.49-23.95l-7.85-6.06c-6.96,10.85-14.76,21.03-23.5,30.51l7.07,7.07c8.96-9.81,17.92-19.61,26.88-29.42l-7.85-6.06c-7.72,10.33-16.15,20.08-25.19,29.26-4.52,4.59,2.49,11.6,7.07,7.07,7.81-7.71,15.61-15.43,23.42-23.14l-7.85-6.06c-4.92,8.68-11.78,15.68-19.03,22.44-7.89,7.35-15.85,14.64-23.78,21.95l7.85,6.06c8.38-16.5,17.45-32.63,27.22-48.34,3.48-5.6-4.88-10.06-8.63-5.05-10.8,14.44-22.68,28.01-35.51,40.68,2.79,1.62,5.57,3.24,8.36,4.86,4.67-18.8,14.92-36.55,30.61-48.27l-6.84-6.84c-12.09,16.38-25.38,31.83-39.76,46.24l7.85,6.06c8.18-14.3,18.89-27.05,32.25-36.79l-7.52-4.32c-.11,1.25-.62,2.29-1.53,3.13-4.35,4.73,2.7,11.82,7.07,7.07,2.79-3.03,3.98-6.15,4.45-10.2,.43-3.63-4.62-6.43-7.52-4.32-14.77,10.77-26.76,24.52-35.84,40.38-2.8,4.9,3.8,10.12,7.85,6.06,14.99-15.03,28.72-31.19,41.32-48.27,2.91-3.94-2.9-9.78-6.84-6.84-17.83,13.32-29.86,32.73-35.2,54.25-1.19,4.81,4.75,8.43,8.36,4.86,13.45-13.28,25.75-27.58,37.07-42.7l-8.63-5.05c-9.77,15.71-18.84,31.84-27.22,48.34-2.56,5.04,3.59,10,7.85,6.06,15.41-14.22,33.88-27.91,44.37-46.42,2.79-4.92-3.77-10.09-7.85-6.06-7.81,7.71-15.61,15.43-23.42,23.14l7.07,7.07c9.65-9.8,18.52-20.27,26.76-31.29,3.4-4.55-4.06-10.21-7.85-6.06-8.96,9.81-17.92,19.61-26.88,29.42-4.33,4.74,2.69,11.82,7.07,7.07,9.31-10.09,17.66-20.98,25.06-32.53,3.3-5.15-3.71-9.34-7.85-6.06-9,7.13-17.13,15.14-24.49,23.95-4.12,4.93,2.16,11.31,7.07,7.07,13.35-11.53,24.37-25.44,33.01-40.8,2.25-4-2.65-10.06-6.84-6.84-12.58,9.67-24.3,20.27-35.12,31.88-4.38,4.7,2.56,11.7,7.07,7.07,12.97-13.32,24.9-27.56,35.92-42.53,3.47-4.72-3.87-9.79-7.85-6.06-9.41,8.83-17.67,18.71-24.92,29.38-3.16,4.66,4.14,10.37,7.85,6.06,9.9-11.49,19.32-23.36,28.31-35.56,3.37-4.58-4.05-10.2-7.85-6.06-9.42,10.25-18.83,20.5-28.25,30.74l7.85,6.06c8.43-11.96,16.86-23.91,25.29-35.87,3.3-4.68-3.97-10.08-7.85-6.06-13.59,14.07-26.81,28.48-39.68,43.22l7.07,7.07c10.33-12.61,19.89-25.8,28.62-39.56,3.16-4.97-3.76-9.73-7.85-6.06-16.22,14.54-30.62,30.87-43.36,48.53-3.29,4.56,4.3,10.5,7.85,6.06,12.72-15.9,24.98-32.16,36.75-48.77,3.29-4.64-4.03-10.19-7.85-6.06-14.45,15.63-27.81,32.21-40.1,49.59-3.29,4.65,4.02,10.18,7.85,6.06,14.53-15.6,27.26-32.75,38.14-51.08,2.94-4.96-3.75-9.91-7.85-6.06-18.56,17.45-35.38,36.55-50.65,56.93l8.63,5.05c14.29-20.75,30.1-40.36,47.41-58.67l-7.85-6.06c-4.46,8.52-8.33,17.32-11.64,26.35-1.7,4.63,5.17,8.6,8.36,4.86,12.14-14.22,24.27-28.45,36.41-42.67,4.13-4.83-2.48-11.71-7.07-7.07-9.56,9.66-17.35,20.82-23.3,33.03-2.87,5.89,4.81,10.14,8.63,5.05,6.58-8.76,14.23-16.61,22.74-23.5l-7.85-6.06c-9.65,15.79-17.17,32.75-22.6,50.44-1.5,4.89,4.86,8.23,8.36,4.86,10.3-9.94,19.37-21.01,27.28-32.93l-8.63-5.05c-8.48,13.28-15.43,27.36-21.08,42.06-1.85,4.81,5.05,8.23,8.36,4.86,10.07-10.26,18.69-21.78,25.83-34.25,3.21-5.59-5.42-10.63-8.63-5.05-6.57,11.38-13.14,22.77-19.71,34.15-2.39,4.15,2.56,9.71,6.84,6.84,13.26-8.89,22.44-22.02,27.49-37.07,1.89-5.62-6.11-8.34-9.14-3.85-4.3,6.38-7.66,13.17-10.37,20.36-1.98,5.27,6.68,8.95,9.14,3.85,4.68-9.69,7.36-19.82,8.15-30.55,.42-5.68-8.42-6.71-9.82-1.33-2.58,9.88-6.41,19.18-11.66,27.94-3.34,5.59,5.05,10.31,8.63,5.05,5.92-8.69,10.75-18.01,14.52-27.83,2.49-6.49,6.52-17.24-2.56-20.44-2.52-.89-5.52,1.02-6.15,3.49-1.84,7.17-3.67,14.34-5.51,21.51-1.6,6.26,7.69,8.77,9.64,2.66,3.92-12.27,4.69-24.98,2.5-37.66-.85-4.94-8.55-4.59-9.64,0-2.69,11.26-5.37,22.53-8.06,33.79-1.26,5.3,6.48,9.1,9.14,3.85,6.98-13.79,9.05-29.27,5.75-44.38-1.37-6.31-10.9-3.62-9.64,2.66,1.86,9.33-2.06,18.73-5.67,27.16,3.05,1.28,6.09,2.57,9.14,3.85,4.19-11.95,4.36-25.2-.12-37.09l-9.14,3.85c5.78,8.78,2.8,20.45,.56,29.94-1.5,6.32,7.5,8.68,9.64,2.66,3.17-8.9,3.77-18.15,2.09-27.42-.89-4.91-8.56-4.62-9.64,0-2.35,10.01-4.7,20.01-7.06,30.02-1.52,6.45,7.22,8.43,9.64,2.66,4.1-9.75,6.34-19.97,7.01-30.51,.35-5.55-8.82-6.91-9.82-1.33-1.56,8.69-3.67,17.21-6.36,25.62-1.97,6.15,7.65,8.75,9.64,2.66,3.29-10.06,5.05-20.48,5.35-31.06,.19-6.51-9.47-6.33-10,0-.86,10.3-4,20.1-9.26,29l8.63,5.05c3.82-7.38,18.71-35.72,.38-35.13-7.27,.23-13.5,5.48-18.49,10.23-5.76,5.49-11.18,11.38-16.44,17.35-22.1,25.13-40.69,53.09-59.21,80.89l8.63,5.05c20.38-39.54,46.21-76.08,77.42-107.83,4.52-4.59-2.55-11.67-7.07-7.07h0Z"/>
    <path class="cls-11" d="M143.82,451.27c-11.23,14.82-22.46,29.63-33.69,44.45l8.63,5.05c7.55-14.62,17.54-27.54,30.18-38.11l-7.85-6.06c-13.51,17.57-26.3,35.68-38.37,54.27l9.14,3.85c1.12-8.17,4.06-15.7,9.6-21.9l-7.85-6.06c-6.62,11.22-12.91,22.61-18.88,34.19,3.05,1.28,6.09,2.57,9.14,3.85,1.14-6.27,2.71-12.39,4.73-18.43l-9.64-2.66c-2.11,11.65-8.34,22.69-5.91,34.8,1.73,8.61,8.75,17.03,18.37,14.21,10.22-2.99,16.23-16.5,21.58-24.62,7.89-11.99,15.79-23.99,23.68-35.98,3.62-5.5-4.86-10.04-8.63-5.05-12.03,15.89-24.14,31.76-38.15,45.98l7.85,6.06c10.55-15.86,21.1-31.73,31.65-47.59,3.1-4.66-4.24-10.49-7.85-6.06-9.17,11.22-19.07,21.77-29.75,31.57,2.79,1.62,5.57,3.24,8.36,4.86,5.21-12.4,12.65-23.72,22.03-33.35l-7.85-6.06c-8.58,11.17-17.15,22.34-25.73,33.51l9.14,3.85c1.97-6.46,4.98-12.24,9.1-17.59l-8.63-5.05c-3.77,8.21-8.5,15.8-14.5,22.56l7.85,6.06c7.51-13.34,15.92-26.14,25.38-38.18l-7.85-6.06c-9.5,16.32-19.62,32.25-30.39,47.76,3.05,1.28,6.09,2.57,9.14,3.85,2.01-5.79,4.02-11.58,6.03-17.38l-9.64-2.66c-1.85,8.31-3.69,16.63-5.54,24.94-.99,4.44,4.97,9.02,8.36,4.86,6.55-8.05,12.48-16.51,17.74-25.46l-8.63-5.05c-4.74,9.35-9.47,18.7-14.21,28.05,3.05,1.28,6.09,2.57,9.14,3.85,2.31-5.67,5.68-10.7,9.99-15.04-2.79-1.62-5.57-3.24-8.36-4.86-2.38,5.68-5.48,10.99-9.06,15.99-3.79,5.3,4.82,10.06,8.63,5.05,18.04-23.7,36.85-46.79,56.39-69.27,4.2-4.84-2.84-11.94-7.07-7.07-20.1,23.12-39.4,46.92-57.95,71.29l8.63,5.05c4.12-5.76,7.33-11.86,10.07-18.38,2.02-4.81-5.1-8.15-8.36-4.86-5.59,5.64-9.57,12.12-12.56,19.45-2.14,5.23,6.6,8.87,9.14,3.85,4.74-9.35,9.47-18.7,14.21-28.05,2.89-5.71-5.35-10.64-8.63-5.05-4.82,8.21-10.16,16.05-16.17,23.44,2.79,1.62,5.57,3.24,8.36,4.86,1.85-8.31,3.69-16.63,5.54-24.94,1.4-6.32-7.54-8.73-9.64-2.66s-4.02,11.58-6.03,17.38,6.09,8.25,9.14,3.85c10.76-15.51,20.89-31.44,30.39-47.76,2.76-4.74-4.25-10.64-7.85-6.06-10,12.72-19,26.1-26.94,40.2-2.7,4.8,3.97,10.43,7.85,6.06,6.57-7.4,11.94-15.6,16.07-24.58,2.73-5.95-4.73-10.11-8.63-5.05-4.63,6.01-7.9,12.73-10.1,19.98-1.78,5.86,5.93,8.03,9.14,3.85,8.58-11.17,17.15-22.34,25.73-33.51,3.5-4.55-3.97-10.04-7.85-6.06-10.66,10.94-18.69,23.71-24.6,37.77-2.08,4.95,5.05,7.9,8.36,4.86,10.68-9.8,20.58-20.35,29.75-31.57l-7.85-6.06c-10.55,15.86-21.1,31.73-31.65,47.59-3.18,4.78,3.92,10.06,7.85,6.06,14.6-14.83,27.18-31.44,39.72-48.01l-8.63-5.05c-5.74,8.72-11.48,17.45-17.22,26.17-5.48,8.32-10.5,17.39-16.73,25.17-1.81,2.26-4.85,6.11-8.06,4.32-2.61-1.46-3.41-6.32-3.6-8.94-.69-9.26,4.54-18.45,6.17-27.43,1.14-6.29-7.57-8.83-9.64-2.66s-3.6,12.16-4.73,18.43c-.95,5.21,6.36,9.24,9.14,3.85,5.97-11.58,12.26-22.97,18.88-34.19,2.82-4.79-3.99-10.38-7.85-6.06-6.63,7.42-10.82,16.44-12.17,26.31-.74,5.39,5.84,8.93,9.14,3.85,12.07-18.59,24.86-36.7,38.37-54.27,3.69-4.8-3.83-9.42-7.85-6.06-13.23,11.05-23.85,24.84-31.75,40.13-3.03,5.86,4.82,10.08,8.63,5.05,11.23-14.82,22.46-29.63,33.69-44.45,3.89-5.13-4.79-10.12-8.63-5.05h0Z"/>
    <path class="cls-11" d="M210.73,398.33c2.64,14.91-.56,30.9-8.63,43.7-4.14,6.57-10.43,11.58-13.81,18.65-1.69,3.54-2.62,7.46-4.8,10.76-1.79,2.7-4.28,4.85-6.85,6.78-5.04,3.78-10.6,6.95-14.71,11.82-2.57,3.04-4.12,6.42-5.74,10.02-1.78,3.97-4.08,6.79-7.37,9.61-12.69,10.89-23.78,22.75-33.17,36.64-3.61,5.35,5.05,10.35,8.63,5.05,5.35-7.91,11.3-15.35,17.97-22.19,5.67-5.82,12.71-10.51,18-16.65s6.34-13.95,12.58-19.24c5.17-4.38,11.39-7.45,15.99-12.52,5.54-6.11,6.63-14.36,11.64-20.72,4.75-6.04,9.79-11.33,13.27-18.27,7.15-14.27,9.42-30.4,6.64-46.09-1.12-6.33-10.76-3.65-9.64,2.66h0Z"/>
    <path class="cls-11" d="M501.5,434.18c-2.85-1.16-5.69-2.34-8.52-3.56-2.35-1.02-6.76-2.11-7.9-4.48-.97-2.02,.22-5.9,.6-7.91,.65-3.39,1.54-6.7,2.59-10,1.95-6.15-7.7-8.78-9.64-2.66-2.31,7.27-6.08,18.26-2.28,25.62,1.93,3.75,5.48,5.36,9.18,7,4.41,1.95,8.85,3.81,13.32,5.63,5.96,2.42,8.55-7.25,2.66-9.64h0Z"/>
    <path class="cls-11" d="M134.35,495.19c-1.34,8.9-2.62,17.81-4.01,26.71-.62,3.93-1.28,7.74-3.63,11.05s-5.18,5.99-7.19,9.49c-2.73,4.74,4.21,10.63,7.85,6.06,9.36-11.74,21.84-23.78,25.69-38.71l-9.82-1.33c-.05,7.26-3.26,12.69-8.86,17.13-4.95,3.92-9.8,7.23-13.13,12.74s5.3,10.55,8.63,5.05c3.82-6.3,10.97-9.23,15.81-14.59s7.5-12.82,7.55-20.33c.04-5.6-8.4-6.84-9.82-1.33-3.38,13.13-14.88,23.97-23.11,34.3l7.85,6.06c2.16-3.76,5.47-6.61,7.76-10.28,2.11-3.36,3.15-7.17,3.81-11.05,1.61-9.4,2.85-18.88,4.27-28.31,.95-6.3-8.69-9.01-9.64-2.66h0Z"/>
    <path class="cls-11" d="M179.34,443.7c-7.71,5.23-12.49,13.01-16.45,21.28-4.67,9.77-8.96,19.71-13.68,29.46-9.55,19.77-20.16,39.27-34.01,56.4-2.55,3.15-1.16,8.65,3.54,8.54,5.99-.15,9.35-4.39,12.59-8.93,4.36-6.12,8.66-12.28,12.99-18.43,8.66-12.28,17.32-24.57,25.98-36.85,3.55-5.03-3.78-9.28-7.85-6.06-20.06,15.86-22.66,44.48-41.45,61.28-4.81,4.3,2.28,11.35,7.07,7.07,18.84-16.85,21.58-45.56,41.45-61.28l-7.85-6.06c-7.15,10.15-14.31,20.29-21.46,30.44-3.39,4.81-6.78,9.61-10.16,14.42-1.88,2.67-3.76,5.34-5.65,8.01-1.15,1.63-3.36,6.33-5.65,6.38l3.54,8.54c13.29-16.43,23.85-34.67,33.21-53.57,4.66-9.42,9.03-18.97,13.38-28.53,3.79-8.35,7.65-18.13,15.52-23.46,5.3-3.59,.3-12.26-5.05-8.63h0Z"/>
  </g>
  <g id="Layer_8" data-name="Layer 8">
    <path class="cls-11" d="M513.22,415.26c14.1-14.53,28.21-29.07,42.31-43.6,4.48-4.62-2.58-11.7-7.07-7.07-14.1,14.53-28.21,29.07-42.31,43.6-4.48,4.62,2.58,11.7,7.07,7.07h0Z"/>
    <path class="cls-6" d="M581.7,280.04c13.75,7.66,33.64-.57,43.16-13.57,10.8-14.75,12.51-41.44-5.28-54.5-17.84-13.09-43.74-4.01-51.83,10.77-4.13,7.54-3.12,15.65-2.17,23.36,1.1,8.9,3.33,26.83,16.11,33.95Z"/>
    <path class="cls-6" d="M126.29,534.33c-5.99-10.84-24.68-11.87-38.33-5.49-15.48,7.24-30.57,26.86-24.46,43.27,6.13,16.46,29.62,19.04,43.15,10.79,6.91-4.21,10.39-10.73,13.69-16.92,3.82-7.16,11.51-21.57,5.94-31.65Z"/>
    <path class="cls-7" d="M213.33,370.16c1.58,19.5,2.29,39.08,1.9,58.64-.35,17.26-1.96,34.94-11.28,49.93l8.63,5.05c9.34-15.14,17.76-31.37,20.3-49.19,2.79-19.52-2.06-38.85-6.99-57.61-1.63-6.22-11.28-3.58-9.64,2.66,4.6,17.49,9.54,35.8,6.74,54.02-2.52,16.36-10.46,31.17-19.04,45.08-3.39,5.49,5.24,10.51,8.63,5.05,9.62-15.47,12.01-33.72,12.56-51.6,.64-20.67-.14-41.41-1.81-62.01-.52-6.37-10.52-6.43-10,0h0Z"/>
    <path class="cls-7" d="M191.98,370.23c15.82,20.73,22.83,46.5,19.68,72.39-.78,6.38,9.23,6.31,10,0,1.29-10.5,2.01-21.05,2.05-31.63,.04-9.66,.03-20-3.38-29.18-2.85-7.67-7.92-14.44-15.47-18.02-3.34-1.58-7.01-2.55-10.73-2.49-4.91,.09-8.89,2.64-13.56,3.64l4.86,8.36c6.77-8.11,16.08,13.29,18.08,17.6,4.55,9.8,7.68,20.28,9.55,30.91s2.24,20.97,1.4,31.44c-.7,8.71-1.41,22.92-9.14,28.67l6.84,1.79c-3.85-6.84,1.29-16.05,2.61-23.03,1.56-8.23,1.43-16.55,.4-24.84-2.1-16.87-7.32-33.32-7.16-50.44,.06-6.44-9.94-6.44-10,0-.18,18.36,5.82,35.81,7.54,53.95,.85,8.99,.16,17.42-2.3,26.11-2.23,7.89-3.97,15.77,.27,23.3,1.22,2.16,4.69,3.39,6.84,1.79,10.59-7.88,12.46-21.63,13.78-33.95,1.51-14.14,.59-28.53-2.41-42.42s-8.03-26.8-15.06-38.79c-3.09-5.27-7-10.89-13.08-12.92-5.35-1.78-11.53-.68-15.23,3.75-3.19,3.83-.21,9.44,4.86,8.36,3.68-.78,7.1-3.15,10.9-3.28,2.93-.1,5.78,.94,8.22,2.5,6.52,4.18,9.28,11.56,10.45,18.91,2.58,16.16,.84,33.77-1.14,49.91h10c3.33-27.35-4.33-55.53-21.05-77.44-3.85-5.05-12.54-.07-8.63,5.05h0Z"/>
    <path class="cls-7" d="M182.02,374.79c3.71,1.36,5.37,7.92,6.74,11.19,2.04,4.85,3.96,9.76,5.72,14.72,3.57,10.06,6.49,20.44,7.96,31.04,2.69,19.41,.21,39.66-10.26,56.51-3.41,5.48,5.24,10.51,8.63,5.05,12.3-19.79,14.59-43.61,10.97-66.25-1.97-12.3-5.71-24.25-10.2-35.85-3.55-9.19-6.68-22.3-16.9-26.04-6.05-2.22-8.66,7.44-2.66,9.64h0Z"/>
    <path class="cls-7" d="M186.13,367.02c-4-.95-7.51-.51-11.08,1.57-3.27,1.91-3.21,6.71,0,8.63,9.04,5.42,16.7,12.56,22.62,21.29,3.59,5.29,12.26,.3,8.63-5.05-6.9-10.16-15.67-18.55-26.21-24.88v8.63c1.01-.83,2.14-1.02,3.38-.57,6.26,1.49,8.93-8.15,2.66-9.64h0Z"/>
    <path class="cls-7" d="M175.61,382.59l6.13-3.06c2.35-1.17,3.19-4.67,1.79-6.84-1.55-2.4-4.33-3.05-6.84-1.79l-6.13,3.06c-2.35,1.17-3.19,4.67-1.79,6.84,1.55,2.4,4.33,3.05,6.84,1.79h0Z"/>
    <path class="cls-7" d="M458.74,395.64c-.5,16.45,6.33,31.29,18.2,42.51,11.2,10.58,25.26,20.4,41.33,19.76,6.41-.26,6.45-10.26,0-10-13.39,.54-24.96-8.04-34.26-16.83-10.05-9.49-15.7-21.5-15.28-35.44,.19-6.44-9.81-6.43-10,0h0Z"/>
    <path class="cls-7" d="M461.3,402.93c2.01,3.44,2.48,7.35,3.5,11.14s2.28,7.14,3.81,10.56c3.12,6.99,7.43,13.27,12.55,18.93l3.54-8.54c.41-.01-1.46-3.15-1.94-4.15-.85-1.76-1.67-3.55-2.42-5.35-1.61-3.86-2.98-7.83-4.16-11.84-2.41-8.21-3.86-16.59-4.43-25.12-.43-6.39-10.43-6.44-10,0,.77,11.5,2.89,22.87,6.72,33.75,1.82,5.18,3.94,10.34,6.46,15.22,2.09,4.04,4.82,7.65,9.78,7.5,4.44-.13,6.45-5.31,3.54-8.54-4.97-5.5-9.08-11.83-11.74-18.78-2.5-6.52-2.99-13.74-6.55-19.83-3.24-5.56-11.89-.53-8.63,5.05h0Z"/>
    <path class="cls-7" d="M203.84,370.44c8.48,3.92,13.56,13.24,16.79,21.64,3.48,9.06,4.77,18.58,4.16,28.25-.41,6.54,9.26,6.23,10,0,.95-8,1.83-16.02,.84-24.06-.46-3.75-1.28-7.31-2.6-10.85s-3.11-6.93-3.29-10.79l-8.54,3.54c4.16,4.35,6.78,9.87,7.09,15.92,.05,.98,.31,5.9-1.14,5.8-.61-.04-3.41-6.44-3.88-7.21-5.58-9.28-13.17-17.52-23.21-21.94-4.18-1.84-8.04,1.16-7.34,5.65,.96,6.18,3.15,11.9,6.46,17.21,2.93,4.69,10.82,1.73,9.14-3.85-3.02-10.06-8.47-18.97-16.15-26.14-4.7-4.39-11.79,2.67-7.07,7.07,6.45,6.03,11.03,13.26,13.57,21.73l9.14-3.85c-2.89-4.63-4.62-9.44-5.45-14.82l-7.34,5.65c7.82,3.45,13.79,9.24,18.39,16.37,3.72,5.76,6.26,15.88,14.99,14.7,8.21-1.11,10.33-10.16,9.84-17.12-.59-8.46-4.13-16.11-9.97-22.22-2.92-3.05-8.73-.8-8.54,3.54,.34,7.47,4.51,13.71,5.76,20.99,1.39,8.14,.26,16.59-.71,24.71h10c.73-11.6-1.19-23.19-5.72-33.9-4.1-9.68-10.28-20.05-20.18-24.62-5.8-2.68-10.89,5.94-5.05,8.63h0Z"/>
    <path class="cls-7" d="M174.31,381.47c7.41,1.91,11.66,10.42,14.95,16.69,3.91,7.46,6.64,15.48,8.31,23.72,3.31,16.31,1.87,33.17-3.8,48.78-2.2,6.06,7.46,8.67,9.64,2.66,6.64-18.28,7.61-38.33,3.11-57.24-2.2-9.25-5.78-18.27-10.57-26.48-4.45-7.63-9.98-15.45-18.98-17.77-6.24-1.61-8.9,8.04-2.66,9.64h0Z"/>
    <path class="cls-7" d="M176.23,383.42c-.41,.03-.3,.02,.34-.01,.37,0,.75,0,1.12,.04-.58-.08,.93,.29,1.12,.37,.36,.14,1.46,.89,1.66,1.15,1.64,2.14,4.31,3.28,6.84,1.79,2.11-1.23,3.44-4.68,1.79-6.84-3.82-4.99-9.31-7.25-15.53-6.14-2.66,.48-4.16,3.72-3.49,6.15,.77,2.8,3.48,3.97,6.15,3.49h0Z"/>
    <path class="cls-7" d="M236.92,393.9c8.08,21.37,12.13,43.78,11.91,66.63-.06,6.44,9.94,6.44,10,0,.22-23.66-3.9-47.15-12.27-69.28-2.25-5.96-11.93-3.38-9.64,2.66h0Z"/>
    <path class="cls-7" d="M505.34,607.29c2.53-5.97,5.05-11.95,7.58-17.92l-9.32-2.52c-.78,6.22-2.92,12-6.08,17.38-3.03,5.16,3.65,9.52,7.85,6.06,10.12-8.33,8.78-24.69,9.64-36.43,.47-6.42-9.53-6.39-10,0-.65,8.85,.93,23.07-6.71,29.36,2.62,2.02,5.24,4.04,7.85,6.06,4.12-7.01,6.44-14.38,7.45-22.43,.6-4.81-7.43-7-9.32-2.52l-7.58,17.92c-2.48,5.86,6.13,10.96,8.63,5.05h0Z"/>
    <path class="cls-6" d="M601.94,207.68c1.9-1.71,2.89-2.63,5.49-2.35,2.12,.23,4.6,1.79,6.49,2.73,3.84,1.91,7.9,4.04,10.46,7.61,3.72,5.18,12.4,.19,8.63-5.05-4.66-6.48-11.44-10.24-18.67-13.28-7.76-3.27-13.15-2.4-19.48,3.27-4.8,4.31,2.29,11.36,7.07,7.07h0Z"/>
    <path class="cls-6" d="M603.84,207.14c1.95,.91,3.95,1.68,6.03,2.23s4.11,.88,5.97,2c3.9,2.33,7.57,5.14,11.32,7.71,1.6,1.1,3.1-1.5,1.51-2.59-3.74-2.57-7.42-5.38-11.32-7.71-1.77-1.06-3.68-1.57-5.67-2.05-2.18-.52-4.3-1.23-6.33-2.18-1.74-.81-3.26,1.77-1.51,2.59h0Z"/>
  </g>
  <g id="Layer_11" data-name="Layer 11">
    <path class="cls-9" d="M72.7,551.91c-1.34-2.19-9.01,.27-14.44,3.93-4.64,3.13-10.25,8.89-9.17,11.12,1.21,2.5,11,.82,17.6-4.98,3.43-3.01,7.17-8.16,6.01-10.06Z"/>
    <path class="cls-9" d="M68.16,605.62c2.52,1.49,8.92-5.37,12.43-12.18,3-5.82,5.57-14.89,3.3-16.56-2.55-1.87-11.5,5.39-15.05,15.05-1.84,5.02-2.86,12.4-.68,13.69Z"/>
    <path class="cls-9" d="M94.15,574.84c-2.42-.12-5.46,8.05-6.23,14.96-.66,5.91-.03,14.22,2.24,14.59,2.56,.41,7.48-9.15,7.45-18.35-.02-4.78-1.37-11.09-3.47-11.2Z"/>
    <path class="cls-9" d="M78.5,566.83c-2.41-1.65-11.2,5.59-16.77,12.84-4.77,6.19-9.88,15.89-7.78,17.72,2.35,2.06,14.05-5.56,20.38-15.86,3.29-5.35,6.26-13.26,4.18-14.69Z"/>
    <path class="cls-9" d="M48.91,586.08c2.08,1.8,11.72-4.11,18.25-10.36,5.58-5.34,12.65-15.01,10.28-15.89-5.45-2.03-14.48,3.78-22.22,12.84-4.02,4.7-8.12,11.85-6.32,13.41Z"/>
    <path class="cls-9" d="M621.62,165.75c-2.75-2.67-10.14,11.44-14.02,25.8-2.22,8.2-5.1,23.17-2.9,26.14,2.46,3.32,11.29-8.36,15.36-24.1,2.77-10.68,3.94-25.52,1.56-27.83Z"/>
    <path class="cls-9" d="M591.74,217.18c3.07,2.55,10.69-10.98,14.48-24.73,2.17-7.86,4.85-22.19,2.37-25.02-2.78-3.17-12.03,8.03-16,23.11-2.69,10.23-3.52,24.44-.86,26.64Z"/>
    <path class="cls-9" d="M621.74,231.23c.02,5.34,14.87-9.81,20.42-22.83,3.17-7.43,7.27-26.87,3.94-24.02-3.77,3.23-11.06,9.85-16.89,24.13-3.95,9.69-7.5,16.44-7.48,22.72Z"/>
    <path class="cls-9" d="M575.17,232.47c-4.54-.68-9.32-13.84-9.42-24.46-.06-6.07,1.37-16.25,5.29-16.15,4.38,.11,11.9,13.08,11.77,24.58-.09,7.81-3.72,16.61-7.65,16.03Z"/>
    <path class="cls-9" d="M615.31,223.56c2.67,2.07,12.88-5.07,15.58-19.16,.86-4.47,.68-6.19,2.75-16.53,0,0,.73-3.63,.84-9.35,.02-1.15,.04-3.63-.91-6.61-.53-1.68-.79-2.7-1.21-2.66-5.09,.56-6.43,14.95-13,29.22-6.2,13.45-7.83,22.16-4.05,25.09Z"/>
  </g>
</svg>
