<?xml version="1.0" standalone="no"?>
<!DOCTYPE svg PUBLIC "-//W3C//DTD SVG 20010904//EN"
 "http://www.w3.org/TR/2001/REC-SVG-20010904/DTD/svg10.dtd">
<svg version="1.0" xmlns="http://www.w3.org/2000/svg"
 width="200.000000pt" height="200.000000pt" viewBox="0 0 200.000000 200.000000"
 preserveAspectRatio="xMidYMid meet">

<g transform="translate(0.000000,200.000000) scale(0.100000,-0.100000)"
fill="#000000" stroke="none">
<path d="M117 1168 c-4 -12 15 -85 69 -266 l25 -82 177 2 177 3 0 175 0 175
-221 3 c-172 2 -223 0 -227 -10z m165 -89 c17 -17 42 -35 55 -40 30 -11 29
-27 -1 -38 -13 -5 -37 -27 -55 -47 -23 -28 -34 -35 -42 -27 -13 13 -4 33 15
33 7 0 25 13 41 30 25 26 26 31 14 46 -8 9 -29 23 -46 31 -32 13 -40 23 -26
36 10 11 12 9 45 -24z m103 -133 c82 8 106 7 117 -4 7 -7 10 -12 7 -13 -57 -6
-189 -2 -189 7 0 18 12 24 29 16 9 -5 25 -7 36 -6z"/>
<path d="M701 1163 c-43 -21 -65 -70 -51 -109 14 -37 35 -51 100 -70 99 -29
127 -64 78 -98 -37 -26 -86 -20 -118 14 -50 53 -94 29 -54 -29 33 -47 122 -65
188 -37 42 17 66 51 66 91 0 43 -34 72 -109 95 -71 21 -91 35 -91 61 0 54 76
66 120 19 34 -37 70 -40 70 -7 -1 69 -117 110 -199 70z"/>
<path d="M1034 1161 c-17 -10 -42 -34 -55 -53 -20 -28 -24 -45 -24 -110 0 -83
12 -110 69 -152 42 -31 143 -29 188 4 41 30 84 31 125 1 85 -63 233 -19 233
69 0 45 -29 70 -115 98 -70 24 -80 30 -83 52 -4 39 12 55 59 55 33 0 46 -6 63
-28 25 -32 66 -37 66 -8 0 31 -39 70 -81 81 -95 26 -196 -39 -174 -112 13 -40
36 -57 106 -78 65 -20 99 -40 99 -61 0 -5 -9 -18 -20 -29 -29 -29 -78 -25
-145 11 -65 35 -96 34 -147 -2 -16 -12 -49 -24 -72 -26 -34 -4 -47 -1 -69 18
-27 23 -51 82 -39 93 3 3 54 6 114 6 l108 0 0 40 c0 58 -34 118 -75 136 -47
19 -94 18 -131 -5z m105 -41 c24 -12 48 -69 34 -78 -6 -4 -43 -6 -82 -4 -80 4
-86 12 -45 61 27 32 59 39 93 21z"/>
<path d="M1700 1172 c-44 -19 -88 -71 -73 -86 14 -14 47 -5 69 19 47 51 124
24 124 -43 l0 -32 -54 0 c-102 0 -156 -37 -156 -106 0 -60 31 -94 90 -101 37
-4 52 0 83 21 46 31 47 31 47 6 0 -16 7 -20 30 -20 l30 0 0 125 c0 148 -11
184 -63 208 -35 17 -99 21 -127 9z m120 -221 c0 -41 -21 -63 -74 -77 -57 -14
-100 52 -58 88 24 21 40 26 90 27 l42 1 0 -39z"/>
</g>
</svg>
