<svg width="512" height="512" viewBox="0 0 512 512" fill="none" xmlns="http://www.w3.org/2000/svg">
<circle cx="96" cy="385" r="16" stroke="black" stroke-width="8"/>
<path d="M108 384H404" stroke="black" stroke-width="20"/>
<path d="M108 188L244 132" stroke="black" stroke-width="20"/>
<path d="M404 188L268 132" stroke="black" stroke-width="20"/>
<circle cx="416" cy="192" r="16" stroke="black" stroke-width="8"/>
<circle cx="96" cy="192" r="16" stroke="black" stroke-width="8"/>
<circle cx="256" cy="128" r="16" stroke="black" stroke-width="8"/>
<circle cx="416" cy="385" r="16" stroke="black" stroke-width="8"/>
<circle cx="128" cy="320" r="16" stroke="black" stroke-width="8"/>
<circle cx="128" cy="240" r="16" stroke="black" stroke-width="8"/>
<path d="M128 252V308" stroke="black" stroke-width="20"/>
<circle cx="192" cy="320" r="16" stroke="black" stroke-width="8"/>
<circle cx="192" cy="240" r="16" stroke="black" stroke-width="8"/>
<path d="M192 252V308" stroke="black" stroke-width="20"/>
<circle cx="256" cy="320" r="16" stroke="black" stroke-width="8"/>
<circle cx="256" cy="240" r="16" stroke="black" stroke-width="8"/>
<path d="M256 252V308" stroke="black" stroke-width="20"/>
<circle cx="320" cy="320" r="16" stroke="black" stroke-width="8"/>
<circle cx="320" cy="240" r="16" stroke="black" stroke-width="8"/>
<path d="M320 252V308" stroke="black" stroke-width="20"/>
<circle cx="384" cy="320" r="16" stroke="black" stroke-width="8"/>
<circle cx="384" cy="240" r="16" stroke="black" stroke-width="8"/>
<path d="M384 252V308" stroke="black" stroke-width="20"/>

</svg>
