<svg xmlns="http://www.w3.org/2000/svg" id="Layer_1" data-name="Layer 1" viewBox="0 0 390.85 122.51"><defs><style>.cls-1{fill:#00abcb}.cls-1,.cls-2,.cls-3{stroke-width:0}.cls-2{fill:none}.cls-3{fill:#9f3b81}</style></defs><path d="M153.59.17c4.82-1.18 10.21 3.85 12.02 11.25s-.63 14.35-5.45 15.53-10.21-3.85-12.02-11.25.63-14.35 5.45-15.53" class="cls-3"/><path d="M216.22 18.85c4.93-1.63 10.96 3.18 13.46 10.73 2.5 7.56.53 15.01-4.4 16.64s-10.96-3.17-13.46-10.73-.53-15.01 4.4-16.64" class="cls-2"/><path d="M217.22 15.57c8.37 0 16.05 4.07 22.11 10.85-3.32-7.16-7.54-13.54-12.4-18.92-7.45-2.7-19.9-3.84-34.72 8.16-.66.59-2.77 2.44-4.9 4.3-5.68 4.48-12.38 9.68-21.59 13.21l-.89-.21c-12.51-1.68-18.98 2.95-18.98 2.95s-2.4 1.31-4.9 4.22c-5.13 8.34-5.65 19.92-1.91 31.95 1.45 3.81 3.13 7.52 5.09 11.1 1.52 2.8 3.24 5.48 5.12 8.05 3.05 4.19 6.49 8.07 10.3 11.6 2.32 2.15 4.78 4.14 7.34 6 13.49 9.81 26.12 15.59 40.46 12.85 7.12-1.36 13.52-4.52 19.02-9.08-2.91 1.08-5.96 1.66-9.12 1.66-19.53 0-35.36-22.09-35.36-49.35s15.83-49.35 35.36-49.35Z" class="cls-2"/><path d="m260.5 67.24 3.62-2.1c.65 1.52 1.78 2.54 3.85 2.54s2.49-.79 2.49-1.5c0-1.13-1.05-1.57-3.8-2.33-2.73-.76-5.4-2.07-5.4-5.58s2.99-5.59 6.16-5.59 5.37 1.44 6.71 4.14l-3.54 2.07c-.63-1.31-1.5-2.12-3.17-2.12-1.31 0-1.97.65-1.97 1.39 0 .84.45 1.41 3.3 2.28 2.78.84 5.9 1.81 5.9 5.69 0 3.54-2.83 5.63-6.81 5.63s-6.32-1.84-7.34-4.54h.01ZM288.4 57.1h-4.71v14.31h-4.2V57.1h-4.71v-4.04h13.62zM290.1 65.48V53.06h4.19v12.05c0 1.39.65 2.57 2.88 2.57s2.88-1.18 2.88-2.57V53.06h4.2v12.42c0 3.93-3.04 6.29-7.07 6.29s-7.07-2.36-7.07-6.29ZM323.51 62.23c0 5.19-3.85 9.17-8.91 9.17h-7.34V53.06h7.34c5.06 0 8.91 3.99 8.91 9.17m-4.03 0c0-3.14-1.99-5.13-4.88-5.13h-3.14v10.27h3.14c2.88 0 4.88-1.99 4.88-5.13M337.4 67.37v4.03h-11.53V53.06h11.4v4.03h-7.2v3.04h6.55v3.98h-6.55v3.26h7.34zM354.17 53.06v18.35h-3.14l-7.08-9.96v9.96h-4.19V53.06h3.14l7.07 9.96v-9.96h4.2M369.63 57.1h-4.72v14.31h-4.19V57.1H356v-4.04h13.63zM370.02 67.24l3.62-2.1c.65 1.52 1.78 2.54 3.85 2.54s2.49-.79 2.49-1.5c0-1.13-1.05-1.57-3.8-2.33-2.73-.76-5.4-2.07-5.4-5.58s2.99-5.59 6.16-5.59 5.37 1.44 6.71 4.14l-3.54 2.07c-.63-1.31-1.5-2.12-3.17-2.12-1.31 0-1.97.65-1.97 1.39 0 .84.45 1.41 3.3 2.28 2.78.84 5.9 1.81 5.9 5.69 0 3.54-2.83 5.63-6.82 5.63s-6.32-1.84-7.34-4.54h.01ZM388.76 60.79h-3.15l1.05-7.73h4.19zM261.28 90.99V78.57h4.19v12.05c0 1.39.65 2.57 2.88 2.57s2.88-1.18 2.88-2.57V78.57h4.2v12.42c0 3.93-3.04 6.29-7.07 6.29s-7.07-2.36-7.07-6.29ZM292.86 78.57v18.34h-3.14l-7.08-9.95v9.95h-4.2V78.57h3.15l7.07 9.96v-9.96h4.2M295.99 78.57h4.2v18.34h-4.2zM302.55 87.74c0-5.4 4.27-9.54 9.54-9.54s9.54 4.14 9.54 9.54-4.27 9.54-9.54 9.54-9.54-4.14-9.54-9.54m14.88 0c0-3.28-2.36-5.45-5.35-5.45s-5.35 2.18-5.35 5.45 2.36 5.45 5.35 5.45 5.35-2.18 5.35-5.45M338.4 78.57v18.34h-3.15l-7.07-9.95v9.95h-4.2V78.57h3.14l7.08 9.96v-9.96h4.2" class="cls-3"/><path d="M272.72 34.07v11.66h-1.94v-1.72c-.37.6-.88 1.06-1.54 1.39s-1.39.5-2.18.5c-.91 0-1.72-.19-2.45-.56-.72-.38-1.29-.94-1.71-1.69s-.63-1.67-.63-2.74v-6.83h1.92v6.57c0 1.15.29 2.03.87 2.65s1.38.93 2.38.93 1.85-.32 2.45-.96.89-1.57.89-2.79v-6.4h1.94ZM278.96 44.91a7.2 7.2 0 0 1-2.69-2.7q-.99-1.74-.99-3.9c0-2.16.33-2.75.99-3.9s1.56-2.06 2.69-2.7 2.39-.97 3.77-.97 2.65.32 3.79.97c1.13.65 2.03 1.54 2.68 2.69s.98 2.45.98 3.91-.33 2.77-.98 3.92-1.55 2.05-2.68 2.69c-1.14.65-2.4.97-3.79.97s-2.63-.32-3.77-.97Zm6.56-1.43c.83-.48 1.48-1.17 1.96-2.06.47-.89.71-1.93.71-3.11s-.24-2.23-.71-3.12c-.48-.89-1.12-1.57-1.95-2.05-.82-.48-1.76-.72-2.81-.72s-1.99.24-2.81.72-1.47 1.17-1.95 2.05c-.48.89-.71 1.93-.71 3.12s.24 2.21.71 3.11a5.06 5.06 0 0 0 1.96 2.06c.83.48 1.76.72 2.8.72s1.97-.24 2.8-.72M295.08 35.67v6.87q0 .855.36 1.2c.24.23.66.35 1.26.35h1.43v1.64h-1.75c-1.08 0-1.89-.25-2.43-.74s-.81-1.31-.81-2.45v-6.87h-1.51v-1.6h1.51v-2.94h1.94v2.94h3.04v1.6zM302.83 35.67v6.87q0 .855.36 1.2c.24.23.66.35 1.26.35h1.43v1.64h-1.75c-1.08 0-1.89-.25-2.43-.74s-.81-1.31-.81-2.45v-6.87h-1.51v-1.6h1.51v-2.94h1.94v2.94h3.04v1.6zM308.21 36.72c.48-.9 1.14-1.6 1.99-2.1.84-.5 1.78-.74 2.82-.74s1.91.22 2.66.66 1.31.99 1.68 1.66v-2.13h1.96v11.66h-1.96v-2.17c-.38.68-.95 1.25-1.71 1.69s-1.64.67-2.65.67-1.97-.26-2.81-.77-1.5-1.23-1.98-2.15q-.72-1.38-.72-3.15c0-1.77.24-2.24.72-3.14Zm8.62.86a3.7 3.7 0 0 0-1.44-1.5c-.6-.35-1.27-.52-1.99-.52s-1.38.17-1.98.51-1.07.84-1.43 1.49c-.35.65-.53 1.42-.53 2.3s.18 1.67.53 2.33.83 1.16 1.43 1.51 1.25.52 1.98.52 1.39-.17 1.99-.52 1.08-.85 1.44-1.51.53-1.43.53-2.31-.18-1.65-.53-2.3M338.13 34.07l-3.64 11.66h-2l-2.81-9.26-2.81 9.26h-2l-3.66-11.66h1.98l2.68 9.79 2.89-9.79h1.98l2.83 9.81 2.64-9.81h1.91ZM340.04 36.72c.48-.9 1.14-1.6 1.99-2.1.84-.5 1.78-.74 2.82-.74s1.91.22 2.66.66 1.31.99 1.68 1.66v-2.13h1.96v11.66h-1.96v-2.17c-.38.68-.95 1.25-1.71 1.69s-1.64.67-2.65.67-1.97-.26-2.81-.77-1.5-1.23-1.98-2.15q-.72-1.38-.72-3.15c0-1.77.24-2.24.72-3.14Zm8.62.86a3.7 3.7 0 0 0-1.44-1.5c-.6-.35-1.27-.52-1.99-.52s-1.38.17-1.98.51-1.07.84-1.43 1.49c-.35.65-.53 1.42-.53 2.3s.18 1.67.53 2.33.83 1.16 1.43 1.51 1.25.52 1.98.52 1.39-.17 1.99-.52 1.08-.85 1.44-1.51.53-1.43.53-2.31-.18-1.65-.53-2.3" class="cls-1"/><path d="m0 45.44 3.72-2.16c.67 1.56 1.83 2.61 3.96 2.61s2.56-.81 2.56-1.54c0-1.16-1.07-1.62-3.9-2.4-2.8-.78-5.55-2.13-5.55-5.74s3.07-5.74 6.33-5.74 5.52 1.48 6.9 4.26l-3.64 2.13c-.65-1.35-1.54-2.18-3.26-2.18-1.35 0-2.02.67-2.02 1.43 0 .86.46 1.46 3.4 2.35 2.86.86 6.06 1.86 6.06 5.85 0 3.64-2.91 5.8-7.01 5.8S1.06 48.23.01 45.45M24.92 42.47v7.25h-4.31v-7.25l-6.33-11.61h4.9l3.59 7.27 3.58-7.27h4.9zM47.69 30.86v18.86h-3.23l-7.28-10.23v10.23h-4.31V30.86h3.23l7.28 10.24V30.86zM67.63 40.3c0 5.33-3.96 9.43-9.16 9.43h-7.54V30.87h7.54c5.2 0 9.16 4.1 9.16 9.43m-4.15 0c0-3.23-2.05-5.28-5.01-5.28h-3.23v10.56h3.23c2.96 0 5.01-2.05 5.01-5.28M70.06 30.86h4.31v18.86h-4.31zM76.8 40.3c0-5.55 4.12-9.81 9.81-9.81 3.42 0 6.44 1.7 8.08 4.37l-3.72 2.16c-.84-1.46-2.45-2.32-4.37-2.32-3.34 0-5.5 2.24-5.5 5.6s2.16 5.6 5.5 5.6c1.91 0 3.56-.86 4.37-2.32l3.72 2.16c-1.62 2.67-4.63 4.37-8.08 4.37-5.69 0-9.81-4.26-9.81-9.81M107.76 46.76h-7.01l-.95 2.96h-4.71l6.41-18.86h5.5l6.41 18.86h-4.71l-.95-2.96Zm-1.3-4.04-2.21-6.92-2.21 6.92zM126.35 35.01h-4.85v14.71h-4.31V35.01h-4.85v-4.15h14.01zM16.14 71.81v4.15H4.28V57.1H16v4.15H8.59v3.12h6.73v4.09H8.59v3.34h7.54Zm-4.53-16.33H7.73l2.16-3.77h4.85l-3.12 3.77ZM31.23 61.25h-4.85v14.71h-4.31V61.25h-4.85V57.1h14.01zM32.98 69.87V57.1h4.31v12.39c0 1.43.67 2.64 2.97 2.64s2.96-1.21 2.96-2.64V57.1h4.31v12.77c0 4.04-3.13 6.47-7.28 6.47s-7.28-2.42-7.28-6.47M67.34 66.53c0 5.33-3.96 9.43-9.16 9.43h-7.54V57.1h7.54c5.2 0 9.16 4.1 9.16 9.43m-4.15 0c0-3.23-2.05-5.28-5.01-5.28h-3.23v10.56h3.23c2.96 0 5.01-2.05 5.01-5.28M69.77 57.1h4.31v18.86h-4.31zM88.35 72.99h-7.01l-.95 2.96h-4.71l6.41-18.86h5.5L94 75.95h-4.71l-.95-2.96Zm-1.29-4.04-2.21-6.92-2.21 6.92zM110.45 57.1v18.86h-3.23l-7.28-10.24v10.24h-4.31V57.1h3.23l7.28 10.23V57.1zM126.35 61.25h-4.85v14.71h-4.31V61.25h-4.85V57.1h14.01z" class="cls-3"/><path d="M45.69 85.56v11.66h-1.94V95.5c-.37.6-.88 1.06-1.54 1.39s-1.39.5-2.18.5c-.91 0-1.72-.19-2.45-.56-.72-.38-1.29-.94-1.71-1.69s-.63-1.67-.63-2.75v-6.83h1.92v6.57c0 1.15.29 2.03.87 2.65s1.38.93 2.38.93 1.85-.32 2.45-.96.89-1.57.89-2.79v-6.4zM51.93 96.4a7.2 7.2 0 0 1-2.69-2.7q-.99-1.74-.99-3.9c0-2.16.33-2.75.99-3.9.66-1.16 1.56-2.06 2.69-2.7s2.39-.97 3.77-.97 2.65.32 3.79.97 2.03 1.54 2.68 2.69.98 2.45.98 3.92-.33 2.77-.98 3.92-1.55 2.05-2.68 2.69-2.4.97-3.79.97-2.63-.32-3.77-.97Zm6.56-1.43c.83-.48 1.48-1.17 1.96-2.06s.71-1.93.71-3.11-.24-2.23-.71-3.12c-.48-.89-1.12-1.57-1.95-2.05-.82-.48-1.76-.72-2.81-.72s-1.99.24-2.81.72-1.47 1.17-1.95 2.05c-.48.89-.71 1.93-.71 3.12s.24 2.21.71 3.11c.48.89 1.13 1.58 1.96 2.06s1.76.72 2.8.72 1.97-.24 2.8-.72M68.06 87.16v6.87q0 .855.36 1.2c.24.23.66.35 1.26.35h1.43v1.64h-1.74q-1.62 0-2.43-.75c-.54-.5-.81-1.31-.81-2.45v-6.87h-1.51v-1.6h1.51v-2.94h1.94v2.94h3.04v1.6h-3.04ZM75.8 87.16v6.87q0 .855.36 1.2c.24.23.66.35 1.26.35h1.43v1.64h-1.74q-1.62 0-2.43-.75c-.54-.5-.81-1.31-.81-2.45v-6.87h-1.51v-1.6h1.51v-2.94h1.94v2.94h3.04v1.6h-3.04ZM81.18 88.21a5.3 5.3 0 0 1 1.99-2.1q1.26-.75 2.82-.75c1.56 0 1.91.22 2.66.66s1.31.99 1.68 1.66v-2.13h1.96v11.66h-1.96v-2.17c-.38.68-.95 1.24-1.71 1.69s-1.64.67-2.65.67-1.97-.25-2.81-.77c-.84-.51-1.5-1.23-1.98-2.15q-.72-1.38-.72-3.15c0-1.77.24-2.24.72-3.14Zm8.62.86a3.7 3.7 0 0 0-1.44-1.5c-.6-.35-1.27-.52-1.99-.52s-1.38.17-1.98.51-1.07.84-1.43 1.49c-.35.65-.53 1.42-.53 2.3s.18 1.67.53 2.33.83 1.16 1.43 1.51 1.26.52 1.98.52 1.39-.17 1.99-.52 1.08-.85 1.44-1.51c.35-.66.53-1.43.53-2.31s-.18-1.64-.53-2.3M111.1 85.56l-3.64 11.66h-2l-2.81-9.25-2.81 9.25h-2l-3.66-11.66h1.98l2.68 9.79 2.89-9.79h1.98l2.83 9.81 2.64-9.81zM113.01 88.21a5.3 5.3 0 0 1 1.99-2.1q1.26-.75 2.82-.75c1.56 0 1.91.22 2.66.66s1.31.99 1.68 1.66v-2.13h1.96v11.66h-1.96v-2.17c-.38.68-.95 1.24-1.71 1.69s-1.64.67-2.65.67-1.97-.25-2.81-.77c-.84-.51-1.5-1.23-1.98-2.15q-.72-1.38-.72-3.15c0-1.77.24-2.24.72-3.14Zm8.62.86a3.7 3.7 0 0 0-1.44-1.5c-.6-.35-1.27-.52-1.99-.52s-1.38.17-1.98.51-1.07.84-1.43 1.49c-.35.65-.53 1.42-.53 2.3s.18 1.67.53 2.33.83 1.16 1.43 1.51 1.26.52 1.98.52 1.39-.17 1.99-.52 1.08-.85 1.44-1.51c.35-.66.53-1.43.53-2.31s-.18-1.64-.53-2.3" class="cls-1"/><path d="M173.88 67.24c0-28.9 21.22-52.33 47.4-52.33 4.17 0 8.2.6 12.05 1.71a73 73 0 0 0-6.41-8.19c-7.45-2.67-19.9-3.81-34.72 8.1-.66.59-2.77 2.42-4.9 4.27-5.68 4.45-12.38 9.6-21.59 13.1l-.89-.2c-1.29-.17-2.5-.26-3.66-.31-11.04-1.22-15.1 2.57-15.1 2.57s-3.04 1.96-5.42 5.23c-5.23 8.42-5.75 20.12-1.95 32.27 1.48 3.85 3.19 7.6 5.18 11.22 1.55 2.82 3.31 5.54 5.21 8.14 3.1 4.23 6.62 8.16 10.49 11.71 3.87 3.56 8.09 6.74 12.57 9.49 4.9 3 10.13 5.46 15.65 7.08 1.22.36 2.5.69 3.8.95 2 .3 3.96.46 5.89.47.5-.03 1-.1 1.49-.17 2.73.09 5.51-.1 8.35-.64 2.88-.55 5.64-1.4 8.28-2.51-23.49-3.11-41.71-25.17-41.71-51.95Z" class="cls-3"/><path d="M216.22 18.85c4.93-1.63 10.96 3.18 13.46 10.73 2.5 7.56.53 15.01-4.4 16.64s-10.96-3.17-13.46-10.73-.53-15.01 4.4-16.64" class="cls-1"/><path d="M247.39 34.59a53 53 0 0 0-1.14-3.89c-.39-1.17-.82-2.32-1.29-3.43-2.44-5.78-6.03-10.83-11.26-14.94-8.35-6.4-15.96-5.61-15.96-5.61 1.75.58 3.33 1.36 4.74 2.26.57.36 1.11.75 1.62 1.15s1 .81 1.47 1.24c.23.21.46.43.68.65a28.6 28.6 0 0 1 3.34 3.99q.45.66.84 1.29c1.82 2.93 2.6 5.25 2.6 5.25s.52 1.26 1.11 3.24q.255.855.51 1.86c.09.34.17.68.25 1.04.41 1.78.75 3.82.88 5.9.02.42.04.84.05 1.25.03 1.8-.15 3.6-.6 5.28-.35 1.31-.88 2.54-1.62 3.64-.28.41-.58.81-.92 1.18-.04.05-.08.1-.13.15-.28.3-.59.58-.91.85-1.97 1.62-4.77 2.68-8.68 2.84-.72.02-1.43 0-2.14-.04h-.04c-8.1-.48-15.17-4.57-22.74-7.46-25.05-13.78-52.17-15.04-58.64-.12-.91 2.1-1.49 4.41-1.99 6.68 10.5-11.07 35.86-11.78 54.76.9 5.34 4.07 10.24 9.21 14.55 14.93 7.17 9.52 10.86 20.24 11.04 29.88.16 8.44-2.38 16.05-7.64 21.29-.75.75-1.56 1.45-2.42 2.1-1.11.83-2.27 1.55-3.49 2.17-2.02 1.02-4.19 1.73-6.44 2.16.99.07 1.94.11 2.87.13 5.93-.11 11.62-1.57 16.87-4.16a44.594 44.594 0 0 0 6.52-3.94c1.39-1.01 2.74-2.09 4.04-3.26 2.61-2.34 5.03-4.99 7.25-7.92 1.66-2.19 3.2-4.54 4.61-7.03.94-1.66 1.82-3.37 2.64-5.15 1.23-2.66 2.31-5.44 3.24-8.33a76 76 0 0 0 1.64-5.91c.48-2.02.88-4.07 1.2-6.17s.57-4.22.74-6.39c.17-2.16.25-4.35.25-6.57 0-8.33-.57-16.08-2.29-23.01Z" class="cls-1"/></svg>