<svg version="1.1" id="layer" xmlns="http://www.w3.org/2000/svg" x="0" y="0" viewBox="0 0 652 652" style="enable-background:new 0 0 652 652" xml:space="preserve"><style>.st0{fill:#8f001a}</style><path class="st0" d="M89.8 574.6c-.5-3.7-.8-8.3-.8-15.8-6 10.4-16 16.5-27.4 16.5-9.8 0-17.4-4.7-20.5-12.8-1.5-4.1-2.2-10.4-2.2-23.7v-25.3c0-7.9-.6-11.2-2.3-12.5-.9-.9-2.3-1.2-5.2-1.4h-2.8v-3.4l23.9-1.5c-.8 14.2-.9 17.9-.9 28.5v13.3c0 15.5.3 19.6 2.2 24.9 1.8 5.7 6.2 8.6 12.5 8.6 8.5 0 16-5.5 20-14.8 2.3-5.2 2.8-8.6 2.8-18.1v-23.6c0-8.1-.5-11-2.3-12.4-.9-.9-2.5-1.4-5.2-1.5h-2.8v-3.4l23.9-1.5c-.5 11.5-.8 21.6-.8 28.5v28.9c0 15.3 1.4 18.1 9.4 18.1h1.1v3.4M151 477.9c9.2-11.5 22.6-17.4 39.3-17.4 16.8 0 29.9 5.8 39.2 17.4 8.5 10.7 12.8 24 12.8 40.1s-4.3 29.5-12.8 39.9c-9.5 11.8-22.5 17.6-39.2 17.6-16.6 0-30.2-6.1-39.3-17.6-8.5-10.7-12.8-24-12.8-39.9 0-16.1 4.2-29.2 12.8-40.1m11.1 76.8c6.2 10.9 15.9 16.7 28.2 16.7 12.3 0 22-5.8 28.2-16.7 5.5-10 8.3-21.9 8.3-36.7 0-14.8-2.8-26.8-8.3-36.7-6.2-11-15.9-16.7-28.2-16.7-12.3 0-22 5.8-28.2 16.7-5.5 10.1-8.3 22.2-8.3 36.7 0 14.5 2.8 26.4 8.3 36.7M277.3 551.8c0 9 .5 13 2 15.1 1.5 2.1 4 3.2 7.5 3.2 3.4 0 6.3-.8 9.7-2.8l1.4 4c-5.1 2.6-10 3.8-15.5 3.8-7.5 0-13.2-2.6-15.9-7.5-1.7-3.1-2.2-6.4-2.2-17.8v-49.6h-9.7v-3.5c9.1-.8 13.7-6.7 16-21.1l7.1-2c-.3 6.6-.5 12.4-.5 22.5h18.5v4.1h-18.5M328 551.8c0 9 .5 13 2 15.1 1.5 2.1 4 3.2 7.5 3.2 3.4 0 6.3-.8 9.7-2.8l1.4 4c-5.1 2.6-10 3.8-15.5 3.8-7.5 0-13.2-2.6-15.9-7.5-1.7-3.1-2.2-6.4-2.2-17.8v-49.6h-9.7v-3.5c9.1-.8 13.7-6.7 16-21.1l7.1-2c-.3 6.6-.5 12.4-.5 22.5h18.5v4.1H328M430.9 573.2c-6 .9-12.8 1.5-15.9 1.5-4.6 0-5.9-2.5-6.5-12.7-2.5 2.8-4.5 4.4-7.5 6.6-6.8 4.9-12.2 6.6-20 6.6-6.8 0-11.9-1.5-15.7-4.7-4.2-3.7-6.8-9.8-6.8-16.2 0-12.1 7.7-19.9 22.6-23.3 8-1.8 16.1-2.9 27.4-3.7v-9.6c0-7-.6-10.7-2.2-13.9-2-4-6.3-6-12.6-6-10.2 0-15.4 4.6-16 14.1-.2 3.2-.5 4.3-1.7 5.2-1.1.8-3.1 1.2-5.4 1.2-5.2 0-7.5-1.4-7.5-4.6 0-5.5 4-11 10.5-14.7 5.9-3.2 13.4-4.9 22.5-4.9 9.9 0 16.9 2.3 20.6 6.7 3.1 3.8 4.5 8.9 4.5 17.3 0 .5 0 .5-.3 15.5l-.2 14.5-.2 7c0 6.4.8 11.9 1.7 13.2.9 1.2 2.8 1.7 8.6 1.7m-22.3-39.2c-13.7 1.2-19.7 2.5-25.9 5.5-6.8 3.2-10.3 9.3-10.3 17.4 0 9.6 5.2 16.2 12.9 16.2 7.8 0 15.9-4.6 19.7-11.2 2.5-4.3 3.6-10.7 3.6-20.8v-7.1zM469.3 574.1h-8l-19.1-63.5c-2.6-8.7-4.5-10.6-12-11v-3.4h34.2v3.4c-7.4.3-10.3 1.8-10.3 5.7 0 1.2.5 3.5 1.4 6.7l13.9 48.1 20.3-61.8h6.3l19.6 61.8 13.4-45c1.2-3.8 1.8-6.7 1.8-8.9 0-2.6-1.6-4.6-4.3-5.5-1.9-.6-2.9-.8-6.9-1.1v-3.4h30.2v3.4c-8.5.5-11.4 3.4-15.1 15.1L516 574.1h-7.8L489 515.3M623 573.2c-6 .9-12.8 1.5-15.9 1.5-4.6 0-5.9-2.5-6.5-12.7-2.5 2.8-4.5 4.4-7.5 6.6-6.8 4.9-12.2 6.6-20 6.6-6.8 0-11.8-1.5-15.7-4.7-4.2-3.7-6.8-9.8-6.8-16.2 0-12.1 7.7-19.9 22.6-23.3 8-1.8 16.2-2.9 27.4-3.7v-9.6c0-7-.6-10.7-2.2-13.9-2-4-6.3-6-12.6-6-10.2 0-15.4 4.6-16 14.1-.2 3.2-.5 4.3-1.7 5.2-1.1.8-3.1 1.2-5.4 1.2-5.2 0-7.6-1.4-7.6-4.6 0-5.5 4-11 10.5-14.7 5.8-3.2 13.4-4.9 22.5-4.9 9.9 0 16.9 2.3 20.6 6.7 3.1 3.8 4.5 8.9 4.5 17.3 0 .5 0 .5-.3 15.5l-.2 14.5-.2 7c0 6.4.8 11.9 1.7 13.2.9 1.2 2.8 1.7 8.6 1.7m-22.1-39.2c-13.7 1.2-19.7 2.5-25.9 5.5-6.8 3.2-10.3 9.3-10.3 17.4 0 9.6 5.2 16.2 12.9 16.2 7.9 0 15.9-4.6 19.7-11.2 2.5-4.3 3.5-10.7 3.5-20.8v-7.1zM254.7 112h-34.2v18h-33.7v262.8h278.1V130h-33.7v-18H397c-14.6-23.6-39.7-36.5-71.1-36.5-31.5 0-56.5 13-71.2 36.5m4.3 14.7h4.4l2.1-3.8c14.8-27 41-32.7 60.4-32.7s45.6 5.7 60.4 32.7l2.1 3.8h28.1v18h33.7v233.4H201.6V144.7h33.7v-18H259z"/><path class="st0" d="M217 338.7h217.6v8.1H217zM210.7 352.8h230.4v8.1H210.7zM323.3 161.2l-108.8 38.9 5 13.8s101.5-36.3 106.3-38c4.8 1.7 106.3 38 106.3 38l5-13.8-111.3-39.8M419.6 315.9l-2-82.4c.7.3 1.4.5 2.2.5 2.5 0 4.6-2 4.6-4.6 0-1.2-.5-2.4-1.3-3.2h3.7v-8.1H225v8.1h3.7c-.8.8-1.3 2-1.3 3.2 0 2.5 2.1 4.6 4.6 4.6.7 0 1.4-.2 2.1-.5l-2 82.3h-7.6v13.5h202.9v-13.5m-153.2.1h-23.3l-2-82.3c.6.3 1.3.5 2.1.5 2.5 0 4.6-2 4.6-4.6 0-1.2-.5-2.4-1.3-3.2h16.5c-.8.8-1.3 2-1.3 3.2 0 2.5 2.1 4.6 4.6 4.6.8 0 1.5-.2 2.1-.5l-2 82.3zm42.2 0h-23.3l-2-82.3c.6.3 1.3.5 2.1.5 2.6 0 4.6-2 4.6-4.6 0-1.2-.5-2.4-1.3-3.2h16.6c-.8.8-1.3 2-1.3 3.2 0 2.5 2.1 4.6 4.6 4.6.7 0 1.4-.2 2.1-.5l-2.1 82.3zm42.2 0h-23.3l-2-82.3c.6.3 1.3.4 2 .4 2.5 0 4.6-2 4.6-4.6 0-1.2-.5-2.4-1.3-3.2h16.6c-.8.8-1.3 2-1.3 3.2 0 2.5 2.1 4.6 4.6 4.6.8 0 1.5-.2 2.1-.5l-2 82.4zm42.1 0h-23.3l-2-82.3c.6.3 1.3.5 2 .5 2.6 0 4.6-2 4.6-4.6 0-1.2-.5-2.4-1.3-3.2h16.6c-.8.8-1.3 2-1.3 3.2 0 2.5 2.1 4.6 4.6 4.6.7 0 1.4-.2 2-.5l-1.9 82.3z"/></svg>