<svg xmlns="http://www.w3.org/2000/svg" xmlns:xlink="http://www.w3.org/1999/xlink" viewBox="0 0 305.4 303.04">
    <defs>
        <style>.cls-1{fill:none;}.cls-12,.cls-2,.cls-4{fill:#231f20;}.cls-3{clip-path:url(#clip-path);}.cls-4{font-size:24.21px;font-family:Montserrat-Light, Montserrat;font-weight:300;}.cls-5{letter-spacing:-0.01em;}.cls-6{letter-spacing:-0.01em;}.cls-7{letter-spacing:0em;}.cls-8{letter-spacing:-0.01em;}.cls-9{letter-spacing:0.01em;}.cls-10{letter-spacing:-0.03em;}.cls-11{letter-spacing:-0.04em;}.cls-12{font-size:25.2px;font-family:Montserrat-SemiBold, Montserrat;font-weight:600;}.cls-13{letter-spacing:-0.01em;}.cls-14{letter-spacing:-0.01em;}</style>
        <clipPath id="clip-path" transform="translate(0 0)">
            <rect class="cls-1" x="2.7" width="300" height="232.33"/>
        </clipPath>
    </defs>
    <g id="Layer_2" data-name="Layer 2">
        <g id="Layer_1-2" data-name="Layer 1">
            <path class="cls-2" d="M233.7,168.36v43.56c0,11.07,0,11.77,8,12.72v3.41H215.34v-3.53c8-.94,8-1.77,8-12.72V186.6c-.35-6.24,1.14-5.65-6.59-3.18" transform="translate(0 0)"/>
            <path class="cls-2" d="M287.39,191.2c.71-8.13-2.82-18.14-13.07-18.14-10,0-14.13,10.13-14.36,18.14Zm-28,4.47c0,11.54,3.41,28.61,18.13,28.61,7.89,0,14.72-4.35,19.31-10.71l2,1.88c-4.94,8.13-13.18,13.89-22.84,13.89-16.48,0-28.49-13.42-28.49-29.55,0-15.07,10.48-30.61,27-30.61,14.72,0,24.84,12.6,24.84,26.49Z" transform="translate(0 0)"/>
            <path class="cls-2" d="M233,115.73c2.27-6.17,0-10.07-4.22-10.07-4.88,0-9.74,7.15-11.69,11.69-3.57,7.48-6.82,18.19-8.77,25.34,6.17-5.85,20.46-16.24,24.68-27ZM87.83,112.81c-14,11-24.36,27.93-26,41.25-1.3,11,2.27,20.13,14,20.78,12.33.65,25.33-10.07,34.42-19.81,7.14-7.79,13.64-19.49,14.29-26.31a12.46,12.46,0,0,0-1.62-8.44c-.65-1.3-1.3-1.63-1-2.28s1.63,0,2.6,1,4.22,4.87,3.57,12.34c-.32,8.77-6.17,19.16-13.31,27.28-8.45,9.1-25,20.14-39.62,19.17S53.41,167.37,55,153.41c1.62-13,12.67-29.88,29.88-42.88,15.59-11.69,35.08-19.81,52-19.81,18.52,0,39.31,7.15,36.06,34.11-2,19.81-36.71,63.33-58.14,84.76v.33c10.39-7.15,21.11-15.27,37-27,13.65-9.74,29.89-21.76,40.28-29.88,3.9-11,8.44-22.73,14.29-32.15,7.79-12.34,16.24-18.51,23.06-18.51,5.84,0,10.07,5.19,7.47,13-4.22,13.31-20.79,24.68-29.56,33.13-4.87,20.13-11,47.41-21.43,61.38v.32c11-10.72,39-34.1,58.46-51.64,31.18-28.25,42.54-49.36,44.49-60.73.65-4.55.32-8.77-1.95-11-2.27-2-4.55-1.3-4.22-2.28.32-.65,2.27-1,3.25-1,9.42,0,14,7.47,13.31,15.91-1.62,13.32-15.59,33.78-51.64,63.34-25.65,21.11-51,42.22-72.09,62.35-1.95,1.95-5.2,4.87-9.09,4.87-3.25,0-3.25-2.92-1.31-5.52,11.05-14.94,17.87-47.09,25.33-65.6v-.33c-6.17,5.2-26,20.14-41.9,31.83C134.92,200.17,106,221.29,94,229.08c-2,1.3-4.55,3.25-6.82,3.25-3.9,0-4.87-2.6-2-6.17a443.51,443.51,0,0,0,41.25-49.37c14.29-20.14,27-41.9,29.56-58.46,2.6-16.89-6.5-24.68-19.82-24.68-16.23,0-34.75,8.77-48.39,19.16Z" transform="translate(0 0)"/>
            <path class="cls-2" d="M233.11,160.46a5.85,5.85,0,1,1-5.85-5.86,5.85,5.85,0,0,1,5.85,5.86Z" transform="translate(0 0)"/>
            <g class="cls-3">
                <path class="cls-2" d="M4.16,198.36c.55,3.15.84,3.44,1.59,3.49a43.16,43.16,0,0,0,6.74-.25l7.78-.58c2.33-.17,4.27-.39,5.58-.59,1-.14,1.1-.44,1.18-1,0-.35.08-1.52.14-1.84s.08-.4.2-.41a4,4,0,0,1,1.11.2c.13,2.86.2,4.3.34,5.6a32.23,32.23,0,0,0,.41,3.44.45.45,0,0,1-.28.45,2.74,2.74,0,0,1-1,.21c-.26-2.49-.52-3.25-1.58-3.32-.62,0-2-.06-6.35.26l-9.29.69c-5.09.39-5.48.45-5.66,1.67,0,.38-.05.92,0,1.91a.22.22,0,0,1-.22.23,1.46,1.46,0,0,1-.6-.14c-.28-.12-.36-.15-.41-.25a7.55,7.55,0,0,1-.11-.91c0-.42-.08-1.62-.21-3.45s-.39-4.22-.42-4.57,0-.5.12-.54l.91-.32Z" transform="translate(0 0)"/>
                <path class="cls-2" d="M14.71,185.8c0-1.59,0-2.79-.06-3.67-.12-2.12-.28-2.3-2.57-2.8a2.84,2.84,0,0,1-.14-1.13c1.13.09,2.92.33,4.13.35s2.42-.11,3.55-.19a2.94,2.94,0,0,1,.1.81c0,.18-.08.24-.23.31-.43.14-1.06.3-1.53.4-1.06.2-1.41.62-1.55,2-.09.78-.11,1.95-.14,3.75a14.72,14.72,0,0,0,.05,2.33.5.5,0,0,0,.22.35,20.42,20.42,0,0,0,4.79.39c2.85.05,3.9.07,4.53-.28s1-1.71,1-4.61c.06-4.13-.34-6.11-4.45-7.27a3,3,0,0,1,0-.85c.08-.1.12-.1.31-.1a19.78,19.78,0,0,1,5.4,1.18c.23.18.31.29.31.46s0,.5-.07,1.66-.13,3.53-.17,6.46.06,5.61.14,8.44a3.68,3.68,0,0,1-1.17.05.21.21,0,0,1-.16-.14c-.28-1.63-.55-1.78-1.14-1.82s-3.07-.29-7-.35l-6.74-.11a60.17,60.17,0,0,0-7.14.14.51.51,0,0,0-.51.45c-.16.35-.29,1-.54,1.86,0,0,0,0-.15,0l-.9-.09c-.15,0-.19,0-.19-.18l0-1.23c0-1.1.11-2.44.19-4.59l0-3.42c0-2.15-.12-4.73-.14-6.5a1.38,1.38,0,0,1,.21-.84c.24-.32.24-.32.94-.16a36.66,36.66,0,0,0,5,.39c0,.92-.13,1.06-.36,1.09-2.82.45-4.22.67-4.27,3.43l0,2.43a17.31,17.31,0,0,0,.14,3.64c.15.46.53.54,1.43.55,2.73.05,5.46.05,8.19.06a.58.58,0,0,0,.63-.45l0-2.26Z" transform="translate(0 0)"/>
            </g>
            <path class="cls-2" d="M16.22,163.58c.2-1.58.32-2.78.36-3.66.11-2.12,0-2.31-2.24-3.07a2.73,2.73,0,0,1,0-1.14c1.11.22,2.86.66,4.06.81s2.42.17,3.55.21a3.24,3.24,0,0,1,0,.82c0,.18-.11.24-.27.29-.44.08-1.08.18-1.56.23-1.07.07-1.47.44-1.77,1.83-.18.76-.33,1.92-.56,3.7a14.53,14.53,0,0,0-.22,2.32.52.52,0,0,0,.19.38,19.84,19.84,0,0,0,4.71.93c2.82.37,3.87.5,4.53.23s1.15-1.6,1.52-4.47c.53-4.09.36-6.11-3.6-7.72a3.21,3.21,0,0,1,.15-.84c.09-.09.13-.09.32-.06a19.82,19.82,0,0,1,5.23,1.78c.21.2.28.32.25.49s-.06.49-.25,1.64-.53,3.49-.9,6.4-.56,5.58-.81,8.4a3.39,3.39,0,0,1-1.17-.08.2.2,0,0,1-.14-.16c-.1-1.65-.35-1.82-.93-1.93s-3-.64-7-1.15L13,168.89a63,63,0,0,0-7.11-.67.52.52,0,0,0-.56.4c-.2.32-.4,1-.74,1.79,0,0,0,0-.16,0l-.88-.18c-.15,0-.19,0-.17-.21l.16-1.22c.14-1.09.39-2.41.7-4.54l.44-3.39c.28-2.14.41-4.72.6-6.47a1.39,1.39,0,0,1,.3-.82c.27-.28.27-.28,1-.05a35,35,0,0,0,4.91,1c-.12.91-.25,1-.49,1-2.84.13-4.27.2-4.62,2.93L6,160.87a18.09,18.09,0,0,0-.27,3.63c.09.48.47.6,1.36.71,2.7.35,5.41.67,8.13,1a.55.55,0,0,0,.67-.37l.29-2.24Z" transform="translate(0 0)"/>
            <path class="cls-2" d="M20.26,141.66c.38-1.54.63-2.71.77-3.59.36-2.09.25-2.3-1.87-3.3a2.73,2.73,0,0,1,.12-1.13c1.08.34,2.77,1,3.94,1.27s2.38.44,3.5.61a3,3,0,0,1-.08.82c0,.18-.13.22-.3.25-.45,0-1.1.06-1.58,0-1.07,0-1.52.27-2,1.62-.26.73-.54,1.86-1,3.61a14.5,14.5,0,0,0-.48,2.28.51.51,0,0,0,.14.4A20.13,20.13,0,0,0,26,146c2.77.69,3.79.94,4.48.75s1.32-1.45,2-4.26c1-4,1.06-6-2.69-8.09a3.27,3.27,0,0,1,.25-.81c.1-.09.13-.08.32,0a19.77,19.77,0,0,1,5,2.37c.18.23.23.35.19.52s-.12.48-.44,1.6-.93,3.41-1.63,6.25-1.21,5.49-1.78,8.26a3.71,3.71,0,0,1-1.15-.22c-.07,0-.12-.14-.12-.17.1-1.65-.14-1.86-.7-2s-2.92-1-6.78-2l-6.55-1.62a59.17,59.17,0,0,0-7-1.48.5.5,0,0,0-.6.32c-.24.3-.51.93-.94,1.69-.05,0-.05,0-.16,0l-.86-.29c-.15,0-.19,0-.14-.22l.3-1.2c.26-1.06.66-2.34,1.22-4.42l.82-3.32c.52-2.09,1-4.64,1.34-6.36a1.39,1.39,0,0,1,.4-.78c.3-.25.3-.25,1,.06a33.65,33.65,0,0,0,4.76,1.51c-.22.89-.37,1-.6,1-2.85-.2-4.27-.3-4.93,2.37l-.59,2.37a19,19,0,0,0-.69,3.57c0,.48.41.65,1.27.86,2.65.66,5.31,1.29,8,1.91a.56.56,0,0,0,.72-.29l.55-2.2Z" transform="translate(0 0)"/>
            <path class="cls-2" d="M37.42,115.73c-3.18-.33-8.67-1-17-1.71-2.71-.22-2.92-.24-3.88,1.29-.13.17-.18.19-.32.12a3.75,3.75,0,0,1-.51-.64.54.54,0,0,1,0-.55c.29-.6,1-2,1.37-2.63.54-1.11,1-2.26,1.56-3.4.08-.16.63,0,1,.14.14.07.23.15.19.33-.48,1.34-.59,1.83-.11,2a9.29,9.29,0,0,0,1.42.3c6,.79,14.24,1.55,17.57,1.76.2,0,.38-.17.24-.31-1.83-2-7.28-7.59-9.35-9.66a1.22,1.22,0,0,0-.86-.38c-2.1-.31-3.49-.48-4.35-.59s-1.14,0-1.89,1.48a.27.27,0,0,1-.31.12c-.69-.45-.85-.76-.74-1,.37-.77,1-1.85,1.55-3,.78-1.59,1.12-2.56,1.35-3,.22-.17,1.24.13,1.22.35-.61,1.79-.6,2,.48,2.2,4.33.74,13.23,1.77,18.42,2.26.17,0,.2-.15,0-.34-2.44-2.56-10.58-11-13.29-13-.66-.44-1-.24-1.19.13s-.6,1-.88,1.45c-.07.05-.16.05-.32-.07-.63-.39-.85-.57-.72-.83s1.18-2.17,1.56-2.93c.49-1,.93-2.09,1.05-2.35s.34-.5.56-.43l.82.28a.16.16,0,0,1,.08.19c-.84,1.64-.63,1.82,2.29,5.08,1.73,2,7.59,8,12.08,12.6.51.56,1.6,2,2.56,2.93a.66.66,0,0,1,.14.7c-.19.38-.51.42-1.08.34-.72-.12-1.72-.29-3.63-.56-2.22-.33-8-1.14-12.71-1.59,2.44,2.64,5.16,5.61,8.73,9.32.9.91,2.1,2.28,3,3.2a.45.45,0,0,1,.17.36,1.28,1.28,0,0,1-.15.67c-.08.16-.25.24-.56.16-.6-.09-2.5-.39-5.67-.72Z" transform="translate(0 0)"/>
            <path class="cls-2" d="M44,84.8a2.49,2.49,0,0,0-.24,2c.36,1.37,1.48,2.58,3.6,4a7.88,7.88,0,0,0,5.25,1.37A4.28,4.28,0,0,0,56,90.35a2.56,2.56,0,0,0,.37-1.83,6.39,6.39,0,0,0-3-3.79c-2-1.31-4.42-2.14-6.47-1.72a4.48,4.48,0,0,0-2.79,1.76l0,0Zm-.36-2.14c1.35-2.07,5.73-4,10.2-1.12a7.87,7.87,0,0,1,3.8,5.79,8.8,8.8,0,0,1-1.17,4.9,7.28,7.28,0,0,1-5.32,2.92,9.5,9.5,0,0,1-5-1.5,8.82,8.82,0,0,1-3.13-3.75,7.38,7.38,0,0,1-.56-3.19,9.37,9.37,0,0,1,1.15-4l0,0Z" transform="translate(0 0)"/>
            <path class="cls-2" d="M71.75,71.77a55.69,55.69,0,0,0-4.19,5.1c-.07.08-.07.08-.15,0a5.77,5.77,0,0,1-.54-.51.4.4,0,0,1-.14-.26c.59-1.32.56-1.53.17-1.91a62.26,62.26,0,0,0-5.18-4.85C60.49,68.26,60,68,59.36,67.89A3.17,3.17,0,0,0,57,69a5.94,5.94,0,0,0-1.06,3.35,1.09,1.09,0,0,0,.31.83c.54.51,2.28,2.08,3.66,3.28,3.26,2.84,3.42,2.89,4.59,1.85.19-.16.27-.13.36-.06a6.28,6.28,0,0,1,.64.7c-.21.23-1.51,1.78-1.95,2.28s-1.43,1.89-1.7,2.31c-.1.06-.62-.35-.92-.66a8.76,8.76,0,0,0,.35-1.06c.1-.28,0-.47-.25-.78a39.34,39.34,0,0,0-3.5-3.28c-2.17-1.9-2.86-2.41-3.24-2.69s-.61-.3-1.2.13c-.4.35-.56.35-.7.32a1.28,1.28,0,0,1-.62-.35c.09-2.35.2-3.72.29-4.24a1,1,0,0,1,.24-.64c.14-.16.27-.18.48,0l2.15,1.92c.14-1,.29-3.3.61-4.62a2.82,2.82,0,0,1,.58-1.13c1.25-1.44,2.8-1.5,4.65-1.19a28.42,28.42,0,0,1,.81-4.12,4.84,4.84,0,0,1,1-1.91,3.5,3.5,0,0,1,2.15-1c.81,0,1.87,0,4.61,2.24C70.81,61.76,72.19,63,73.4,64a6.69,6.69,0,0,0,1.7,1.3c.44.1.83-.17,2-1.11.07-.08.17-.08.29,0s.62.77.55.85l-1.58,1.81a29,29,0,0,0-2,2.58.2.2,0,0,1-.23.08,3.69,3.69,0,0,1-.62-.41c-.06,0-.12-.1-.08-.2a1.26,1.26,0,0,0-.1-1.26,42.5,42.5,0,0,0-3.77-3.62c-2.47-2.15-3.6-2.63-4.46-2.72s-1.53.22-2.29,1.09a6.16,6.16,0,0,0-1.2,3c0,.34,0,.44.35.72,1.68,1.51,5.61,4.9,6.79,5.74.49.33.56.3,1.93-.85.07-.08.2-.06.35.07l.7.62Z" transform="translate(0 0)"/>
            <path class="cls-2" d="M78.6,49.81a3.31,3.31,0,0,0-4-.31,1.44,1.44,0,0,0-.4.87c-.26,1.26.57,3.12,1.7,4.31.92-1.42,1.93-2.73,2.85-4.1a.54.54,0,0,0-.1-.75l0,0Zm-4.07-2.24a4.31,4.31,0,0,1,3.12-.88,6.52,6.52,0,0,1,2.76,1c.19-.27.56-.86.75-.81s.21.08.28.22c.15.33.43,1,.24,1.29-1.39,2.05-4.18,5.78-5,7.16-.11.15,0,.34.27.69,2.62,2.84,5.08,2.81,6.84,1.27a5.94,5.94,0,0,0,1.9-4.2c0-.24.35-.51.4-.4.59.72.72,1,.71,1.29A12,12,0,0,1,85.22,59a4.13,4.13,0,0,1-.85,1,5.92,5.92,0,0,1-4.81,1.31,7.77,7.77,0,0,1-4.44-2.65A9.53,9.53,0,0,1,73,50.6a5.64,5.64,0,0,1,1.54-3l0,0Z" transform="translate(0 0)"/>
            <path class="cls-2" d="M89.81,53.72c.65-1,.84-1.44.33-2.36a46.54,46.54,0,0,0-2.88-4.55c-.87-1.25-1.74-2.36-2.17-2.91-.22-.32-.43-.37-2,.21-.23-.08-.24,0-.48-.57-.07-.09,0-.22.1-.4.78-1.54,1.51-3.2,1.57-3.43a.64.64,0,0,1,.25-.32.33.33,0,0,1,.44,0c.41.53.87,1.11,1.25,1.66.11.16.23.26.34.18A29.53,29.53,0,0,1,88.1,38a4.48,4.48,0,0,1,1.31-1.58,3.37,3.37,0,0,1,2.46-.68,5.56,5.56,0,0,1,3.48,2.28c.53.63,1.07,1.39,2,2.77,1.63,2.33,2.61,3.68,3.13,4.42.2.28.25.3.34.24.26-.19,1-.87,1.44-1.2.09-.06.24,0,.37.21a7.36,7.36,0,0,1,.42.85c.06.2,0,.24-.12.32-2.57,1.8-3.35,2.54-4.45,3.31-.18.12-.32.22-.44.11l-.59-.54a1.88,1.88,0,0,0,.25-2.36,41,41,0,0,0-2.91-4.53c-1.23-1.75-1.89-2.63-3.11-3a2.91,2.91,0,0,0-2.5.56,6.6,6.6,0,0,0-1.82,2.56,1.1,1.1,0,0,0,.22,1c.72,1.16,3.91,5.72,5.12,7.45.29.41.39.44,2.07-.36.2-.09.27,0,.34.1l.31.83L93,52.55c-1.15.81-2,1.61-2.55,2,0,0-.13,0-.22-.13l-.41-.72Z" transform="translate(0 0)"/>
            <path class="cls-2" d="M108.08,28.75c-.12-.16-.36-.17-2,.29-.14,0-.21,0-.2-.25-.09-.74-.09-.82,0-.94,1-1.06,1.85-2.14,3-3.36a.36.36,0,0,1,.14-.11c.07,0,.1,0,.2.25,1.06,2.43,3.36,7.43,4.27,9.24s1.2,2.4,1.44,2.81.48.63.78.44a14.16,14.16,0,0,1,1.29-.73c.09,0,.39.06.41.18l.36,1c.07.22,0,.25-.15.33-.92.46-1.84.83-2.85,1.34a24.47,24.47,0,0,0-2.64,1.58c-.16.08-.24.07-.34-.05a3.91,3.91,0,0,1-.46-.77c-.07-.14,0-.21.07-.25,1.06-.71,1.27-.94,1-2A43.21,43.21,0,0,0,110,32.39l-1.94-3.64Zm-3.54-11.66a1.65,1.65,0,0,1,2.16.93,1.9,1.9,0,0,1-.64,2.67,1.65,1.65,0,0,1-2.19-.91,2,2,0,0,1,.64-2.67l0,0Z" transform="translate(0 0)"/>
            <g class="cls-3">
                <path class="cls-2" d="M119.63,35.74c.86-.8,1.16-1.2.88-2.22a46.12,46.12,0,0,0-1.71-5.11c-.55-1.42-1.12-2.7-1.4-3.34-.14-.37-.33-.46-2-.27-.21-.14-.24,0-.34-.67,0-.11,0-.22.2-.37,1.12-1.31,2.23-2.74,2.34-3a.67.67,0,0,1,.32-.25.33.33,0,0,1,.43.13c.27.6.57,1.28.81,1.9.07.18.16.31.29.26a29.55,29.55,0,0,1,2.27-2.75,4.34,4.34,0,0,1,1.65-1.23,3.39,3.39,0,0,1,2.54-.06,5.61,5.61,0,0,1,2.84,3c.36.74.7,1.61,1.3,3.17,1,2.66,1.67,4.21,2,5.05.13.32.17.35.28.31.29-.12,1.2-.6,1.68-.82.1,0,.22.08.31.3a6.15,6.15,0,0,1,.2.92c0,.21-.06.23-.19.29-2.93,1.13-3.86,1.65-5.11,2.14-.2.07-.36.14-.45,0l-.45-.66a1.88,1.88,0,0,0,.8-2.23,38.62,38.62,0,0,0-1.74-5.1c-.77-2-1.2-3-2.31-3.62a2.93,2.93,0,0,0-2.56-.05,6.6,6.6,0,0,0-2.38,2.05,1.09,1.09,0,0,0,0,1c.42,1.3,2.43,6.5,3.19,8.46.18.47.28.52,2.1.15.21,0,.27,0,.3.18l.11.87L123,35.36c-1.32.51-2.3,1.09-3,1.35-.07,0-.13,0-.18-.18l-.23-.79Z" transform="translate(0 0)"/>
                <path class="cls-2" d="M150.27,13.22c1.56-.28,2.74-.53,3.6-.76,2-.53,2.2-.72,2.24-3.06a2.74,2.74,0,0,1,1.09-.35c.13,1.12.24,2.92.45,4.11s.57,2.36.87,3.45a2.8,2.8,0,0,1-.77.26c-.17.07-.26,0-.36-.18a15.6,15.6,0,0,1-.68-1.42c-.4-1-.88-1.26-2.29-1.13-.78.06-1.93.27-3.71.59a13.81,13.81,0,0,0-2.27.49.52.52,0,0,0-.31.29,20.22,20.22,0,0,0,.54,4.77c.5,2.8.69,3.84,1.15,4.39.61.64,1.86.62,4.72.1,4.07-.73,5.94-1.5,6.28-5.76a3.47,3.47,0,0,1,.84-.11c.12.05.13.09.16.28a19.91,19.91,0,0,1-.11,5.53c-.14.26-.23.36-.4.39s-.49.09-1.64.25-3.49.55-6.37,1.07-5.51,1.15-8.27,1.77a4,4,0,0,1-.27-1.14.18.18,0,0,1,.11-.18c1.54-.59,1.63-.89,1.56-1.47s-.3-3.08-1-7l-1.2-6.63a58.94,58.94,0,0,0-1.51-7,.51.51,0,0,0-.54-.42c-.38-.09-1.05-.08-1.93-.17,0,0,0,0-.06-.14l-.09-.9c0-.15,0-.19.14-.22l1.21-.22c1.08-.19,2.41-.35,4.54-.7l3.37-.6C151.48,1,154,.4,155.72,0a1.35,1.35,0,0,1,.87,0c.35.17.35.17.34.89a35.21,35.21,0,0,0,.57,5c-.91.16-1.06.08-1.14-.15-1-2.67-1.48-4-4.19-3.52l-2.4.43a19.33,19.33,0,0,0-3.54.83c-.43.24-.43.64-.27,1.52.48,2.68,1,5.36,1.52,8,.06.35.32.58.56.53l2.23-.4Z" transform="translate(0 0)"/>
            </g>
            <path class="cls-2" d="M165.11,23.73c1.08-.48,1.49-.77,1.55-1.83a46.81,46.81,0,0,0,0-5.38c-.07-1.52-.2-2.92-.26-3.62,0-.39-.17-.54-1.81-.9-.14-.19-.21-.11-.1-.73,0-.12.1-.2.31-.29,1.48-.88,3-1.88,3.16-2a.74.74,0,0,1,.39-.14.34.34,0,0,1,.36.26c.06.66.13,1.4.16,2.06,0,.2,0,.35.19.35a29,29,0,0,1,3-1.89A4.43,4.43,0,0,1,174.07,9a3.37,3.37,0,0,1,2.44.75,5.67,5.67,0,0,1,1.71,3.8c.1.81.14,1.74.21,3.42.12,2.84.22,4.52.26,5.41,0,.35.05.39.16.39.31,0,1.33-.18,1.86-.24.11,0,.18.15.19.38a6,6,0,0,1-.1.94c-.06.2-.13.2-.27.21-3.14.13-4.19.33-5.53.39-.22,0-.39,0-.43-.14l-.21-.77c1-.44,1.38-.76,1.48-1.86a38.75,38.75,0,0,0,0-5.38c-.09-2.15-.18-3.23-1-4.17a2.91,2.91,0,0,0-2.4-.88,6.84,6.84,0,0,0-2.92,1.17,1.15,1.15,0,0,0-.35,1c0,1.36.22,6.93.3,9,0,.5.1.58,1.95.81.21,0,.25.11.22.27l-.18.86-3,.13c-1.41.05-2.53.3-3.24.32-.07,0-.11-.07-.12-.22l0-.82Z" transform="translate(0 0)"/>
            <path class="cls-2" d="M192.72,16.34a8.79,8.79,0,0,0-.6-4,3.58,3.58,0,0,0-3-2.13,2.51,2.51,0,0,0-1.86.72,3.81,3.81,0,0,0-1.12,2.69,6.67,6.67,0,0,0,1.27,4.51,3.72,3.72,0,0,0,2.5,1.55c1.31.1,2.6-.71,2.79-3.31v0ZM188.3,33.1a6,6,0,0,0,4.51-1.16,3.31,3.31,0,0,0,1.41-2.28,1.92,1.92,0,0,0-.61-1.76,4.71,4.71,0,0,0-3-1.08,19.12,19.12,0,0,0-3.62.09,2.93,2.93,0,0,0-1.4.83,3.69,3.69,0,0,0-1.45,2.36c0,.7.58,2.74,4.1,3Zm2.5-24.4a6.08,6.08,0,0,1,2.58,1,.9.9,0,0,0,.59.2c.6,0,2.67-.28,3.41-.22a1,1,0,0,1,.67.55,12,12,0,0,1,0,1.22c0,.23-.21.45-.64.46s-1.44-.07-3-.22a7.44,7.44,0,0,1,.7,3.45,7.12,7.12,0,0,1-5,6,19.11,19.11,0,0,0-3,1.27.69.69,0,0,0-.36.48c0,.7.78,1.11,1.73,1.18.42,0,2.64.11,3,.14a6,6,0,0,1,3.93,1.46,3.55,3.55,0,0,1,.78,2.79,4.64,4.64,0,0,1-1.5,3.1,9.87,9.87,0,0,1-4.58,3.14,12.26,12.26,0,0,1-3.49.33c-3.84-.28-5.21-2.41-5.09-4a3.61,3.61,0,0,1,1.56-2.93c.93-.64,1.67-1.13,2.79-1.83-1.47-.85-2.27-1.42-2.19-2.58a1.18,1.18,0,0,1,.27-.8,24.76,24.76,0,0,1,3.53-1.78,6.19,6.19,0,0,1-2.73-1.8,5.87,5.87,0,0,1-1.25-4.2,6.67,6.67,0,0,1,3.1-5.16,6.89,6.89,0,0,1,4.09-1.3Z" transform="translate(0 0)"/>
            <path class="cls-2" d="M206,2a1.65,1.65,0,0,1,1.22,2,1.91,1.91,0,0,1-2.08,1.81,1.67,1.67,0,0,1-1.25-2A2,2,0,0,1,206,2Zm-3.9,11.53c0-.2-.2-.35-1.79-.91-.13-.06-.15-.15,0-.32.35-.66.4-.73.58-.74,1.44-.28,2.75-.67,4.38-1a.28.28,0,0,1,.18,0c.07,0,.05.09,0,.32-.56,2.59-1.59,8-1.91,10s-.42,2.66-.46,3.13,0,.79.37.81c1.09.09,1.37.14,1.48.15s.27.28.22.39l-.26,1c-.07.22-.14.21-.32.19-1-.16-2-.4-3.09-.57a22.43,22.43,0,0,0-3.07-.25c-.17,0-.23-.08-.25-.24a5.06,5.06,0,0,1,.07-.9c0-.15.1-.18.21-.16,1.28,0,1.58,0,2-1.07a41.63,41.63,0,0,0,1.15-5.7l.55-4.1Z" transform="translate(0 0)"/>
            <path class="cls-2" d="M207.39,26c1.17-.15,1.65-.31,2-1.3A45.61,45.61,0,0,0,211,19.49c.38-1.47.65-2.85.79-3.53.1-.38,0-.57-1.47-1.38-.09-.23-.18-.17.12-.74,0-.11.14-.16.37-.18,1.67-.42,3.41-.95,3.62-1.06a.68.68,0,0,1,.4,0c.17.05.32.2.28.36-.13.65-.28,1.37-.44,2,0,.18,0,.34.08.38a29.33,29.33,0,0,1,3.44-.94,4.49,4.49,0,0,1,2.06,0,3.36,3.36,0,0,1,2.11,1.42,5.65,5.65,0,0,1,.56,4.13c-.14.81-.37,1.71-.78,3.34-.7,2.76-1.08,4.39-1.3,5.26-.09.34-.06.38,0,.41.31.08,1.33.22,1.85.31.1,0,.14.2.08.42a6.69,6.69,0,0,1-.37.87c-.12.18-.18.16-.32.12-3.05-.77-4.11-.88-5.41-1.21-.21-.05-.38-.1-.37-.26l0-.79c1.08-.13,1.54-.34,1.94-1.36a38.14,38.14,0,0,0,1.53-5.16c.53-2.08.77-3.15.22-4.29A3,3,0,0,0,218,16a6.66,6.66,0,0,0-3.13.29,1.12,1.12,0,0,0-.6.81c-.41,1.31-1.78,6.71-2.3,8.75-.12.49-.07.59,1.63,1.34.19.09.21.17.14.32l-.42.78-2.91-.74c-1.37-.35-2.51-.44-3.19-.61-.07,0-.09-.1,0-.26l.27-.77Z" transform="translate(0 0)"/>
            <path class="cls-2" d="M236.21,23.87a3.31,3.31,0,0,0-1.65-3.68,1.45,1.45,0,0,0-1,.06c-1.23.37-2.46,2-3,3.55,1.68.13,3.31.4,5,.54.26,0,.47,0,.61-.43l0,0Zm0-4.65a4.33,4.33,0,0,1,2.26,2.34,6.27,6.27,0,0,1,.44,2.9c.32,0,1,.08,1.06.27s0,.22-.05.35c-.22.29-.7.87-1,.83-2.47-.25-7.08-.91-8.68-1-.18,0-.31.13-.47.57-1.24,3.66,0,5.81,2.15,6.62a6,6,0,0,0,4.6-.34c.22-.09.62.06.54.16-.35.86-.51,1.09-.79,1.24a12.06,12.06,0,0,1-5,.9,4.32,4.32,0,0,1-1.29-.27,5.9,5.9,0,0,1-3.45-3.6,7.7,7.7,0,0,1,.21-5.16,9.5,9.5,0,0,1,6.08-5.77,5.6,5.6,0,0,1,3.38-.09Z" transform="translate(0 0)"/>
            <path class="cls-2" d="M250.07,30a3.33,3.33,0,0,0-1.32-3.82,1.49,1.49,0,0,0-1,0c-1.26.27-2.64,1.77-3.28,3.28,1.67.28,3.27.69,4.89,1a.56.56,0,0,0,.65-.38l0,0Zm.44-4.63a4.38,4.38,0,0,1,2,2.53,6.38,6.38,0,0,1,.17,2.93c.32.07,1,.18,1,.36s0,.23-.09.35-.77.8-1.09.73c-2.44-.46-7-1.54-8.56-1.73-.17,0-.32.1-.52.53-1.56,3.53-.56,5.77,1.55,6.77a5.94,5.94,0,0,0,4.61.08c.23-.06.61.12.53.21-.44.83-.62,1-.91,1.16a12,12,0,0,1-5.06.45,4.06,4.06,0,0,1-1.26-.39,5.93,5.93,0,0,1-3.11-3.89,7.73,7.73,0,0,1,.67-5.12,9.55,9.55,0,0,1,6.58-5.2,5.54,5.54,0,0,1,3.37.22Z" transform="translate(0 0)"/>
            <path class="cls-2" d="M251.49,41.93c.86.14,1,.16,1.37-.24s.82-1.28,2.53-4.21l1.76-3c.47-.8.53-1-.45-2.11a.84.84,0,0,1,.1-.93c1.65-.17,3.33-.18,4.69-.34a1.15,1.15,0,0,1,.44.08c.12.07.14.39-.1.66-.54.86-1.08,1.58-1.64,2.61.81,0,3.63-.55,4.2-.62a1.87,1.87,0,0,1,1.16,0,2.12,2.12,0,0,1,.76,2.56,4.53,4.53,0,0,1-2.08,1.18,1.07,1.07,0,0,1-.67,0,.49.49,0,0,1-.26-.47,1.8,1.8,0,0,0-.71-1.45,4.1,4.1,0,0,0-2.71,0c-.33.08-.65.48-1.57,2.06l-2.45,4.22a5,5,0,0,0-.72,1.52c0,.22.06.39.41.55l1.69.89a.31.31,0,0,1,.07.45l-.79.94-4-2.35c-.79-.46-1.6-.83-1.81-1s-.12-.21.08-.36l.73-.61Z" transform="translate(0 0)"/>
            <path class="cls-2" d="M277.75,30.88a1.66,1.66,0,0,1,.27,2.33,1.9,1.9,0,0,1-2.64.77,1.65,1.65,0,0,1-.3-2.35,2,2,0,0,1,2.64-.77l0,0Zm-8.38,8.83c.07-.18,0-.39-1.24-1.58-.1-.11-.08-.19.12-.29.59-.45.66-.5.83-.43,1.43.35,2.78.55,4.4.93a.23.23,0,0,1,.16.06c.06,0,0,.11-.11.3-1.59,2.12-4.8,6.59-5.93,8.27s-1.5,2.24-1.73,2.65-.31.72,0,.89c.95.54,1.19.7,1.28.76s.13.37,0,.45l-.65.78c-.16.17-.22.14-.36,0-.85-.57-1.63-1.19-2.57-1.82a25.66,25.66,0,0,0-2.68-1.51c-.15-.1-.18-.17-.13-.32a4.53,4.53,0,0,1,.44-.79c.09-.13.17-.12.26-.06,1.14.58,1.44.64,2.22-.15a41.58,41.58,0,0,0,3.44-4.69l2.22-3.49Z" transform="translate(0 0)"/>
            <g class="cls-3">
                <path class="cls-2" d="M269,53.19c1.12.35,1.62.4,2.36-.36a48.34,48.34,0,0,0,3.54-4.06c.94-1.19,1.76-2.33,2.17-2.91.24-.3.23-.51-.78-1.86,0-.24-.09-.22.41-.62.07-.09.2-.09.41,0,1.7.3,3.5.54,3.73.53a.63.63,0,0,1,.38.15.32.32,0,0,1,.11.43c-.38.54-.82,1.14-1.23,1.66-.12.15-.19.3-.08.38a29,29,0,0,1,3.52.56,4.55,4.55,0,0,1,1.89.8A3.37,3.37,0,0,1,286.73,50a5.59,5.59,0,0,1-1.19,4c-.45.69-1,1.42-2.07,2.74-1.77,2.22-2.79,3.56-3.34,4.26-.22.28-.22.33-.14.39.26.2,1.13.75,1.57,1.05.08.06,0,.23-.11.41a5,5,0,0,1-.69.64c-.17.11-.23.07-.34,0C278,61.54,277,61,276,60.17c-.17-.13-.3-.24-.23-.38l.34-.73a1.87,1.87,0,0,0,2.34-.44,38.3,38.3,0,0,0,3.5-4.08c1.34-1.68,2-2.55,2-3.82a2.94,2.94,0,0,0-1.25-2.24,6.65,6.65,0,0,0-3-1,1.09,1.09,0,0,0-.88.49c-.9,1-4.37,5.39-5.68,7-.31.4-.31.5.93,1.89.15.16.13.24,0,.34l-.7.54L271,55.91c-1.1-.88-2.11-1.43-2.66-1.87-.06,0,0-.13.06-.25l.57-.6Z" transform="translate(0 0)"/>
                <path class="cls-2" d="M294.66,65.35a8.71,8.71,0,0,0,2.1-3.45,3.61,3.61,0,0,0-.94-3.55,2.53,2.53,0,0,0-1.9-.63,3.8,3.8,0,0,0-2.58,1.35,6.68,6.68,0,0,0-1.9,4.28,3.7,3.7,0,0,0,.93,2.79c.94.91,2.46,1.12,4.27-.76l0,0Zm-14.1,10.07a6.05,6.05,0,0,0,4.21,2,3.35,3.35,0,0,0,2.54-.86,1.92,1.92,0,0,0,.65-1.75,4.67,4.67,0,0,0-1.59-2.73,19.42,19.42,0,0,0-2.84-2.24,2.91,2.91,0,0,0-1.61-.25,3.7,3.7,0,0,0-2.62.88c-.49.51-1.3,2.48,1.24,4.93l0,0Zm17.51-17.18a6.2,6.2,0,0,1,1.34,2.43.86.86,0,0,0,.33.53c.43.41,2.23,1.49,2.76,2a1,1,0,0,1,.16.85c-.06.11-.63.86-.74,1s-.45.22-.78,0-1.07-1-2.16-2.08A7.66,7.66,0,0,1,297.31,66a7.13,7.13,0,0,1-7.66,1.44,21.36,21.36,0,0,0-3.11-.94.68.68,0,0,0-.58.15c-.49.5-.12,1.34.57,2,.3.3,2,1.78,2.19,2a6,6,0,0,1,2.09,3.64A3.58,3.58,0,0,1,289.63,77a4.7,4.7,0,0,1-3.13,1.42,9.89,9.89,0,0,1-5.54-.51,12.41,12.41,0,0,1-2.9-2c-2.77-2.67-2.46-5.19-1.38-6.31a3.67,3.67,0,0,1,3.08-1.26c1.12.11,2,.2,3.31.37-.58-1.58-.84-2.54,0-3.38a1.18,1.18,0,0,1,.72-.44,25.43,25.43,0,0,1,3.85.89,6.33,6.33,0,0,1-.95-3.14,5.87,5.87,0,0,1,1.72-4,6.64,6.64,0,0,1,5.68-2,6.9,6.9,0,0,1,4,1.61l0,0Z" transform="translate(0 0)"/>
            </g>
            <text class="cls-4" transform="translate(2.87 273.88) scale(0.99 1)">UN<tspan class="cls-5" x="38.91" y="0">I</tspan>
                <tspan class="cls-6" x="45.83" y="0">V</tspan>
                <tspan x="62.1" y="0">ERSI</tspan>
                <tspan class="cls-7" x="117.62" y="0">T</tspan>
                <tspan x="131.18" y="0">Y OF </tspan>
                <tspan class="cls-8" x="194.32" y="0">O</tspan>
                <tspan class="cls-9" x="214.37" y="0">T</tspan>
                <tspan class="cls-10" x="228.24" y="0">T</tspan>
                <tspan class="cls-11" x="241.02" y="0">AW</tspan>
                <tspan x="282.93" y="0">A</tspan>
            </text>
            <text class="cls-12" transform="translate(0 296.36) scale(0.98 1)">IEEE <tspan class="cls-13" x="65.64" y="0">S</tspan>
                <tspan class="cls-14" x="81.24" y="0">T</tspan>
                <tspan x="96.08" y="0">UDENT BRANCH</tspan>
            </text>
        </g>
    </g>
</svg>
