<svg width="110" height="44" viewBox="0 0 110 44" fill="none" xmlns="http://www.w3.org/2000/svg">
<path d="M99.8733 43.415C104.826 44.1121 109.402 39.107 109.151 34.1018C108.9 29.0967 104.683 24.8602 99.8374 23.591C101.237 19.8193 98.7428 15.4755 95.2434 13.5271C91.744 11.5787 87.5089 11.525 83.507 11.7574C82.2508 7.62818 78.3208 4.69658 74.1036 3.85643C69.8864 3.01628 65.4898 4.05307 61.6136 5.87638C58.6346 1.5505 52.892 -0.469446 47.7596 0.54946C42.6272 1.56837 38.2485 5.41161 36.0233 10.1665C35.7002 10.8637 35.3413 11.6502 34.6056 11.8826C34.0134 12.0792 33.3853 11.8289 32.7751 11.668C29.7603 10.7743 26.3865 11.5608 23.7844 13.3305C21.1823 15.1001 19.2622 17.7636 17.9163 20.6237C17.6471 21.2136 17.36 21.8392 16.8037 22.1431C16.1756 22.4827 15.4219 22.3219 14.722 22.2146C9.69724 21.446 4.3136 24.2167 1.99863 28.7749C-0.316334 33.3332 0.59887 39.3215 4.17002 42.9502L99.8733 43.3971V43.415Z" fill="white"/>
</svg>
