<svg width="244" height="96" viewBox="0 0 244 96" fill="none" xmlns="http://www.w3.org/2000/svg">
<path d="M223.281 95.0419C229.993 96.7222 237.207 92.4857 240.491 86.3902C243.775 80.2946 243.685 72.8226 241.891 66.1372C238.876 54.8577 231.159 44.9189 221.002 39.2345C210.845 33.5501 198.355 32.1915 187.211 35.5521C186.116 35.8918 184.842 36.2314 183.891 35.6057C183.353 35.2482 183.03 34.6583 182.724 34.0863C173.572 17.4621 152.002 8.93545 134.02 14.8344C132.908 15.1919 131.723 15.6209 130.593 15.317C129.696 15.0846 128.978 14.4232 128.278 13.7976C117.636 4.39505 103.244 -0.627965 89.0849 0.158559C74.9259 0.945082 61.1617 7.48752 51.5968 17.9983C50.197 19.5356 48.7614 21.2517 46.7515 21.8058C44.8313 22.3421 42.8214 21.6986 40.8833 21.2338C27.9087 18.195 13.4626 24.2369 6.0511 35.3376C-1.36039 46.4383 -1.57573 61.8113 5.08205 73.3767C11.7398 84.9422 24.7503 92.3963 38.0659 92.8075L223.281 95.0419Z" fill="white"/>
</svg>
