<svg width="112" height="39" viewBox="0 0 112 39" fill="none" xmlns="http://www.w3.org/2000/svg">
<path d="M103.791 38.4828C105.891 38.9654 108.152 37.8393 109.444 36.1053C110.736 34.3714 111.167 32.1012 111.113 29.9383C111.023 25.094 108.618 20.357 104.778 17.4254C100.938 14.4938 95.7335 13.4392 91.0677 14.6368C90.5832 14.762 90.0628 14.905 89.5783 14.8156C88.5554 14.6011 88.0708 13.4392 87.6402 12.4739C86.043 8.9524 82.8128 6.23532 79.0801 5.27004C75.3475 4.30477 71.2021 5.10917 68.1154 7.41511C67.5053 7.862 66.7336 8.39826 66.0696 8.04075C65.7825 7.87987 65.6031 7.61174 65.4236 7.34361C62.6062 3.17861 57.5635 0.997786 52.6105 0.30064C49.0753 -0.199875 45.2888 -0.00323907 42.2381 1.85582C38.2542 4.28689 36.334 8.98815 33.4627 12.6705C33.2115 12.9923 32.9603 13.2962 32.6014 13.4749C32.0989 13.7252 31.5066 13.6358 30.9503 13.5643C23.4132 12.7241 15.7147 18.3013 14.1175 25.7554C11.9641 25.0225 9.68491 24.4505 7.42378 24.6292C5.16265 24.808 2.8657 25.8984 1.66335 27.8468C0.209763 30.2064 0.712184 33.4598 2.50673 35.5691C4.30128 37.6784 7.15461 38.6794 9.90027 38.6258L103.827 38.5185L103.791 38.4828Z" fill="white"/>
</svg>
