<svg width="122" height="38" viewBox="0 0 122 38" fill="none" xmlns="http://www.w3.org/2000/svg">
<path d="M105.076 35.9733C107.66 36.5096 110.298 36.8314 112.936 36.9207C115.394 37.0101 118.122 36.7777 119.863 35.0259C122.052 32.8094 121.675 28.9483 119.845 26.4099C118.014 23.8716 115.125 22.3701 112.343 20.9936C112.038 16.5248 109.077 12.3419 104.986 10.5901C100.894 8.83828 95.8336 9.58905 92.424 12.467C90.1628 8.44501 86.5917 5.06654 82.213 3.65437C77.8343 2.24221 72.666 3.08236 69.3461 6.2642C64.8776 2.06345 58.7223 -0.54638 52.6388 0.0971396C46.5553 0.740659 40.7589 4.97717 39.072 10.8761C36.111 8.89191 32.0553 9.01703 28.879 10.6437C25.7026 12.2704 23.3338 15.1841 21.7546 18.3838C21.5393 18.8128 21.306 19.2776 20.8753 19.51C20.301 19.8139 19.6012 19.5457 18.991 19.2955C14.4687 17.4722 9.04921 17.1683 4.88585 19.7245C0.722499 22.2807 -1.44891 28.2154 1.0814 32.3804C2.51704 34.7399 5.13709 36.1878 7.82891 36.7956C10.5207 37.4034 13.3202 37.2783 16.0838 37.1531L105.076 35.9376V35.9733Z" fill="white"/>
</svg>
