<svg width="335" height="132" viewBox="0 0 335 132" fill="none" xmlns="http://www.w3.org/2000/svg">
<path d="M299.275 67.6487C298.934 63.7697 295.578 60.713 291.899 59.4796C288.22 58.2462 284.237 58.4964 280.378 58.7467C287.521 47.3242 284.865 30.7536 274.492 22.1555C264.12 13.5573 247.43 14.0579 237.578 23.2459C233.666 15.7024 229.323 7.71204 221.804 3.77942C218.179 1.88462 214.052 1.09809 209.978 0.70483C187.78 -1.42236 164.791 8.23043 150.722 25.6055C148.012 28.9482 145.051 32.8629 140.78 33.1489C138.609 33.2919 136.509 32.416 134.374 31.9334C129.205 30.7715 123.822 31.9334 118.797 33.6137C103.489 38.7618 89.9048 48.9151 80.5911 62.1609C72.6053 55.1001 61.2638 52.5618 50.7119 53.9561C40.1599 55.3503 30.3257 60.3376 21.8016 66.7192C11.6624 74.3163 2.72565 84.6484 0.464523 97.1434C-1.79661 109.638 4.53815 124.207 16.6155 127.997L280.36 131.357C306.973 130.982 311.585 131.607 325.457 124.815C327.144 123.992 328.831 123.063 330.051 121.633C331.397 120.042 332.007 117.986 332.6 115.984C334.071 110.961 335.561 105.759 334.771 100.575C333.748 93.8542 328.831 88.1162 322.765 85.0774C316.7 82.0385 309.665 81.4486 302.936 82.253C302.29 82.3245 301.59 82.4139 301.051 82.0385C300.405 81.5916 300.28 80.6979 300.208 79.9113L299.239 67.5593" fill="white"/>
</svg>
