<?xml version="1.0" encoding="UTF-8"?>
<svg xmlns="http://www.w3.org/2000/svg" xmlns:xlink="http://www.w3.org/1999/xlink" width="196px" height="196px" viewBox="0 0 196 196" version="1.1">
<g id="surface1">
<rect x="0" y="0" width="196" height="196" style="fill:rgb(100%,100%,100%);fill-opacity:1;stroke:none;"/>
<path style=" stroke:none;fill-rule:nonzero;fill:rgb(23.137255%,27.843137%,47.45098%);fill-opacity:1;" d="M 59.070312 53.269531 C 59.289062 54.601562 59.945312 56.476562 61.050781 58.84375 C 61.988281 60.863281 62.476562 62.558594 62.464844 63.914062 C 62.4375 67.546875 59.503906 69.597656 53.835938 69.082031 C 50.355469 68.761719 48.070312 67.265625 47 65.011719 C 46.6875 64.355469 46.53125 63.691406 46.53125 63.015625 C 46.53125 62.449219 46.828125 61.429688 47.378906 59.945312 C 48.042969 58.144531 48.480469 56.066406 48.746094 53.816406 C 48.890625 52.542969 48.980469 51.488281 48.980469 50.679688 C 48.980469 48.339844 48.226562 46.855469 46.714844 46.222656 C 46.246094 46.054688 45.726562 45.933594 45.160156 45.863281 C 42.988281 45.589844 41.746094 46.320312 41.433594 48.121094 C 41.371094 48.558594 41.339844 49.035156 41.339844 49.554688 C 41.339844 50.441406 41.433594 51.488281 41.578125 52.652344 C 41.855469 54.957031 42.410156 57.5 43.320312 60.1875 C 43.632812 61.148438 43.792969 61.902344 43.792969 62.460938 C 43.792969 64.277344 42.832031 65.445312 40.914062 65.796875 C 39.71875 65.992188 38.304688 65.808594 36.671875 65.199219 C 36.597656 65.171875 36.558594 65.15625 36.484375 65.128906 C 30.761719 62.941406 27.871094 59.550781 27.855469 56.453125 C 27.851562 55.234375 28.375 53.933594 29.414062 52.441406 C 30.386719 51.046875 31.003906 49.773438 31.253906 48.742188 C 31.851562 46.164062 32.148438 42.957031 32.148438 39.21875 C 32.148438 37.09375 31.992188 35.078125 31.628906 33.28125 C 31.453125 32.414062 30.859375 30.992188 29.886719 29.144531 C 29.378906 28.136719 29.128906 27.394531 29.128906 26.902344 C 29.128906 25.648438 30.527344 24.828125 33.328125 24.367188 C 34.335938 24.199219 35.386719 24.117188 36.492188 24.128906 C 39.851562 24.148438 42.117188 24.78125 43.28125 26.066406 C 43.628906 26.535156 43.832031 27.019531 43.84375 27.464844 C 43.863281 28.023438 43.410156 29.214844 42.570312 30.914062 C 41.589844 32.902344 41.109375 34.589844 41.109375 36.015625 C 41.109375 38.257812 42.179688 39.664062 44.316406 40.191406 C 44.601562 40.257812 44.878906 40.300781 45.164062 40.332031 C 47.675781 40.234375 49.128906 38.886719 49.21875 36.632812 C 49.28125 35.167969 48.65625 33.105469 47.523438 30.675781 C 46.835938 29.160156 46.484375 28.117188 46.484375 27.53125 C 46.484375 26.046875 47.882812 25.046875 50.6875 24.5 C 51.691406 24.304688 52.742188 24.207031 53.847656 24.207031 C 57.179688 24.210938 59.441406 24.890625 60.636719 26.25 C 61.015625 26.703125 61.234375 27.210938 61.25 27.730469 C 61.269531 28.367188 60.832031 29.597656 60.023438 31.332031 C 59.328125 32.820312 58.886719 34.09375 58.707031 35.132812 C 58.445312 36.609375 58.328125 38.664062 58.328125 41.253906 C 58.328125 46.238281 58.578125 50.226562 59.085938 53.28125 Z M 39.5 26.039062 C 38.828125 26.039062 38.429688 26.328125 38.414062 26.789062 C 38.402344 27.253906 38.777344 27.632812 39.5 27.882812 C 39.71875 27.964844 39.929688 28.011719 40.113281 28.019531 C 40.78125 28.023438 41.179688 27.738281 41.195312 27.261719 C 41.210938 26.789062 40.832031 26.40625 40.113281 26.160156 C 39.890625 26.082031 39.679688 26.035156 39.5 26.035156 Z M 56.855469 26.273438 C 56.148438 26.289062 55.738281 26.605469 55.722656 27.117188 C 55.707031 27.632812 56.085938 28.03125 56.804688 28.28125 C 57.027344 28.367188 57.238281 28.414062 57.417969 28.410156 C 58.125 28.402344 58.535156 28.082031 58.550781 27.5625 C 58.566406 27.046875 58.1875 26.640625 57.46875 26.390625 C 57.246094 26.308594 57.035156 26.257812 56.855469 26.265625 Z M 92.742188 44.976562 C 93.660156 47.671875 95.085938 49.515625 97.035156 50.480469 C 98.324219 51.105469 99.0625 51.488281 99.25 51.675781 C 99.910156 52.273438 100.238281 53.195312 100.238281 54.464844 C 100.238281 56.875 99.078125 58.796875 96.75 60.253906 C 95.683594 60.917969 94.09375 61.660156 91.988281 62.464844 C 87.964844 63.992188 85.417969 64.214844 84.347656 63.160156 C 83.816406 62.582031 83.546875 61.671875 83.546875 60.445312 C 83.546875 60.058594 83.554688 59.328125 83.59375 58.269531 C 83.648438 56.890625 83.6875 55.878906 83.6875 55.277344 C 83.6875 52.941406 83.195312 51.65625 82.226562 51.429688 C 81.847656 51.347656 81.4375 51.351562 81 51.460938 C 78.8125 52.011719 77.699219 54.484375 77.699219 58.742188 C 77.699219 58.996094 77.683594 59.417969 77.699219 59.953125 C 77.714844 60.476562 77.75 60.886719 77.75 61.140625 C 77.75 64.277344 76.664062 66.558594 74.496094 68.007812 C 73.457031 68.679688 72.101562 68.894531 70.4375 69.035156 C 67.136719 69.324219 65.125 68.421875 64.402344 66.515625 C 64.117188 65.769531 63.972656 64.902344 63.972656 63.910156 C 63.972656 62.273438 64.445312 61.0625 65.390625 60.273438 C 65.546875 60.15625 65.816406 59.976562 66.195312 59.734375 C 67.675781 58.695312 68.773438 57.460938 69.496094 56.050781 C 69.71875 55.621094 69.902344 55.207031 70.058594 54.816406 C 71.921875 50.445312 73.410156 45.730469 74.539062 41.125 C 75.355469 37.789062 75.765625 35.421875 75.765625 33.996094 C 75.765625 32.765625 75.402344 31.371094 74.679688 29.753906 C 74.210938 28.730469 73.976562 27.871094 73.976562 27.214844 C 73.976562 25.828125 75.613281 24.828125 78.878906 24.289062 C 79.882812 24.121094 80.910156 24.042969 81.949219 24.035156 C 85.25 24.015625 87.699219 24.597656 89.300781 25.6875 C 89.898438 26.09375 90.261719 26.546875 90.386719 27.0625 C 90.414062 27.234375 90.425781 27.484375 90.433594 27.789062 C 90.546875 33.472656 90.859375 39.433594 92.746094 44.976562 Z M 79.773438 44.359375 C 79.800781 45.550781 80.296875 46.167969 80.996094 46.015625 C 81.898438 45.820312 82.429688 44.855469 82.414062 43.363281 C 82.382812 40.039062 81.882812 38.199219 81.230469 38.226562 C 80.71875 38.246094 80.242188 39.382812 79.957031 41.453125 C 79.832031 42.375 79.742188 43.371094 79.773438 44.355469 Z M 85.859375 25.988281 C 85.152344 26.027344 84.742188 26.332031 84.726562 26.796875 C 84.710938 27.261719 85.089844 27.617188 85.808594 27.796875 C 86.03125 27.863281 86.238281 27.890625 86.421875 27.875 C 87.097656 27.828125 87.488281 27.523438 87.503906 27.074219 C 87.519531 26.585938 87.140625 26.226562 86.421875 26.027344 C 86.234375 26 86.039062 25.980469 85.859375 25.988281 Z M 126.929688 27.816406 C 126.929688 29.351562 126.441406 30.601562 125.46875 31.554688 C 124.902344 32.070312 124.277344 32.359375 123.632812 32.390625 C 123.445312 32.398438 123.238281 32.375 123.019531 32.335938 C 122.457031 32.207031 121.859375 31.738281 121.226562 30.875 C 120.535156 29.925781 119.886719 29.347656 119.289062 29.160156 C 118.941406 29.070312 118.585938 29.042969 118.207031 29.070312 C 116.699219 29.199219 115.445312 30.253906 114.433594 32.339844 C 113.632812 34 113.210938 35.789062 113.210938 37.621094 C 113.210938 40.589844 114.183594 42.285156 116.136719 42.59375 C 116.761719 42.703125 117.453125 42.664062 118.207031 42.476562 C 119.308594 42.214844 120.460938 41.339844 121.652344 39.953125 C 122.785156 38.632812 123.523438 38.039062 123.867188 37.804688 C 124.558594 37.367188 125.261719 37.136719 125.988281 37.117188 C 127.589844 37.070312 128.757812 37.835938 129.476562 39.425781 C 129.855469 40.253906 130.046875 41.15625 130.046875 42.125 C 130.046875 46.496094 127.8125 49.324219 123.347656 50.816406 C 121.902344 51.3125 120.113281 52.058594 118.160156 52.738281 C 113.753906 54.273438 107.496094 55.382812 104.054688 51.171875 C 102.519531 49.253906 101.742188 46.570312 101.742188 43.261719 C 101.742188 38.683594 103.078125 34.195312 105.660156 30.378906 C 108.367188 26.375 111.757812 24.292969 115.847656 23.703125 C 116.632812 23.578125 117.4375 23.519531 118.257812 23.519531 C 118.691406 23.519531 120.058594 23.652344 122.359375 23.878906 C 123.019531 23.941406 123.566406 23.976562 124.007812 23.976562 C 124.195312 23.976562 124.402344 23.996094 124.621094 24.039062 C 125.753906 24.300781 126.472656 25.167969 126.792969 26.691406 C 126.886719 27.0625 126.933594 27.441406 126.933594 27.816406 Z M 121.742188 24.941406 C 121.246094 24.964844 120.953125 25.128906 120.9375 25.363281 C 120.917969 25.65625 121.285156 25.925781 121.976562 26.097656 C 122.261719 26.175781 122.53125 26.21875 122.78125 26.214844 C 123.269531 26.199219 123.566406 26.042969 123.582031 25.8125 C 123.601562 25.523438 123.234375 25.253906 122.542969 25.058594 C 122.261719 24.96875 121.984375 24.929688 121.742188 24.941406 Z M 145.464844 31.167969 C 145.480469 31.976562 145.773438 32.441406 146.269531 32.488281 C 146.882812 32.539062 148.015625 31.859375 149.617188 30.4375 C 149.679688 30.371094 149.722656 30.324219 149.757812 30.300781 C 150.421875 29.714844 151.125 28.800781 151.878906 27.542969 C 152.257812 26.925781 152.664062 26.449219 153.105469 26.121094 C 155.148438 24.679688 158.0625 23.882812 161.785156 23.925781 C 164.222656 23.957031 165.523438 24.410156 165.507812 25.121094 C 165.503906 25.527344 165.144531 26.039062 164.515625 26.546875 C 164.109375 26.902344 162.632812 27.699219 160.082031 28.800781 C 158.445312 29.566406 157.113281 30.207031 156.074219 30.757812 C 153.96875 31.933594 152.886719 32.816406 152.871094 33.449219 C 152.867188 33.71875 153.261719 34.070312 154.050781 34.515625 C 155.625 35.433594 156.550781 36.03125 156.835938 36.230469 C 158.6875 37.46875 160.59375 39.941406 162.542969 43.972656 C 162.761719 44.480469 163.042969 45.074219 163.347656 45.738281 C 163.792969 46.710938 164.660156 47.8125 165.894531 49.089844 C 166.996094 50.226562 167.679688 51.246094 167.96875 51.960938 C 168.238281 52.625 168.394531 53.355469 168.394531 54.117188 C 168.394531 56.648438 166.882812 57.300781 163.867188 56.402344 C 162.925781 56.125 161.773438 55.703125 160.421875 55.179688 C 156.363281 53.621094 153.800781 52.480469 152.734375 51.160156 C 152.199219 50.464844 151.929688 49.671875 151.929688 48.773438 C 151.929688 44.613281 151.394531 41.410156 150.328125 39.191406 C 149.730469 37.945312 148.996094 37.269531 148.15625 37.171875 C 147.257812 37.070312 146.535156 37.476562 146.035156 38.347656 C 145.78125 38.789062 145.652344 39.289062 145.65625 39.796875 C 145.65625 40.546875 145.75 41.242188 145.941406 41.871094 C 146.28125 42.976562 146.753906 44.332031 147.308594 45.921875 C 147.882812 47.558594 148.15625 48.691406 148.15625 49.25 C 148.15625 50.84375 146.035156 51.234375 141.792969 50.980469 C 141.476562 50.957031 141.144531 50.925781 140.800781 50.902344 C 135.121094 50.484375 132.234375 49.457031 132.214844 47.089844 C 132.210938 46.152344 132.75 44.941406 133.773438 43.535156 C 134.71875 42.238281 135.3125 41.195312 135.566406 40.414062 C 136.292969 38.1875 136.652344 36.0625 136.652344 34.035156 C 136.652344 32.582031 136.429688 31.171875 135.988281 29.820312 C 135.796875 29.257812 135.21875 28.371094 134.246094 27.195312 C 133.742188 26.554688 133.492188 26.066406 133.492188 25.738281 C 133.492188 24.90625 134.84375 24.347656 137.546875 24.050781 C 138.617188 23.921875 139.71875 23.851562 140.851562 23.859375 C 144.117188 23.863281 146.367188 24.242188 147.59375 25.019531 C 147.96875 25.304688 148.191406 25.613281 148.207031 25.902344 C 148.226562 26.234375 147.769531 26.960938 146.929688 28.007812 C 145.957031 29.222656 145.453125 30.300781 145.472656 31.171875 Z M 54.449219 101.402344 C 54.523438 106.5 54.621094 111.921875 55.972656 116.964844 C 56.28125 118.183594 57.1875 119.964844 58.6875 122.214844 C 59.960938 124.121094 60.75 125.914062 60.609375 127.117188 C 60.035156 131.902344 52.949219 132.398438 48.554688 131.480469 C 43.835938 130.496094 36.761719 126.894531 36.5 121.558594 C 36.429688 120.128906 37.234375 118.550781 38.683594 116.976562 C 40.007812 115.542969 40.847656 114.214844 41.203125 113.082031 C 41.910156 110.738281 42.261719 106.980469 42.261719 102.136719 C 42.261719 98.328125 41.953125 94.742188 41.335938 91.398438 C 40.984375 89.8125 40.332031 88.777344 39.414062 88.34375 C 37.878906 87.613281 35.773438 88.160156 33.257812 89.394531 C 33.210938 89.414062 33.167969 89.433594 33.125 89.449219 C 31.976562 90.296875 30.957031 90.4375 30.078125 89.96875 C 29.746094 89.800781 29.433594 89.59375 29.148438 89.355469 C 27.386719 87.890625 26.347656 85.503906 26.039062 82.488281 C 25.996094 82.007812 25.96875 81.546875 25.96875 81.105469 C 25.96875 77.96875 26.894531 76.023438 28.753906 74.789062 C 29.945312 74.058594 31.140625 73.957031 32.332031 74.582031 C 42.894531 79.78125 52.390625 81.816406 64.183594 81.625 C 65.816406 81.53125 67.34375 82.863281 68.757812 85.515625 C 69.992188 87.84375 70.609375 90.261719 70.609375 92.871094 C 70.609375 96.054688 69.835938 98.121094 68.292969 99.085938 C 67.984375 99.246094 67.675781 99.347656 67.363281 99.402344 C 66.128906 99.617188 64.933594 98.996094 63.789062 97.492188 C 63.65625 97.308594 63.523438 97.121094 63.390625 96.9375 C 62.332031 95.554688 61.03125 94.363281 59.484375 93.324219 C 58.515625 92.683594 57.699219 92.335938 57.035156 92.3125 C 55.316406 92.605469 54.371094 95.726562 54.453125 101.40625 Z M 62.328125 83.398438 C 61.597656 83.445312 61.15625 83.808594 61.136719 84.351562 C 61.113281 85.042969 61.621094 85.65625 62.59375 86.070312 C 62.988281 86.253906 63.375 86.34375 63.71875 86.308594 C 64.449219 86.234375 64.890625 85.851562 64.910156 85.308594 C 64.933594 84.628906 64.425781 84.058594 63.453125 83.648438 C 63.058594 83.464844 62.671875 83.367188 62.328125 83.394531 Z M 115.308594 93.140625 C 115.617188 94.527344 116.542969 96.25 118.089844 98.398438 C 119.40625 100.230469 120.144531 102.101562 120.074219 103.71875 C 119.824219 109.734375 113.027344 113.425781 107.957031 115.761719 C 103.058594 118.019531 99.851562 118.355469 98.351562 116.675781 C 97.910156 116.1875 97.691406 115.546875 97.691406 114.757812 C 97.691406 114.097656 98.101562 112.636719 98.882812 110.371094 C 99.816406 107.652344 100.433594 104.816406 100.804688 101.984375 C 101.011719 100.367188 101.136719 99.078125 101.136719 98.152344 C 101.136719 95.453125 100.078125 94.421875 97.957031 95.03125 C 97.292969 95.257812 96.5625 95.578125 95.769531 96.003906 C 92.722656 97.636719 90.976562 99.664062 90.539062 102.117188 C 90.449219 102.707031 90.402344 103.300781 90.40625 103.898438 C 90.40625 104.953125 90.542969 106.113281 90.738281 107.335938 C 91.128906 109.800781 91.910156 112.230469 93.1875 114.488281 C 93.628906 115.308594 93.851562 116.046875 93.851562 116.699219 C 93.851562 118.828125 92.503906 121.109375 89.8125 123.4375 C 88.132812 124.863281 86.148438 126.085938 83.855469 127.085938 C 83.746094 127.128906 83.695312 127.15625 83.589844 127.203125 C 79.488281 128.601562 72.117188 131.296875 71.472656 125.65625 C 71.316406 124.304688 72.195312 122.019531 73.65625 119.164062 C 75.019531 116.496094 75.886719 114.195312 76.238281 112.621094 C 77.078125 108.730469 77.5 104.3125 77.5 99.324219 C 77.5 96.484375 77.28125 93.898438 76.769531 91.683594 C 76.523438 90.625 75.683594 89.101562 74.316406 87.039062 C 73.613281 85.898438 73.261719 84.804688 73.261719 84.070312 C 73.261719 82.210938 75.226562 80.453125 79.15625 78.277344 C 80.566406 77.5 82.046875 76.792969 83.59375 76.164062 C 88.316406 74.234375 91.496094 73.570312 93.128906 74.316406 C 93.613281 74.640625 93.902344 75.078125 93.921875 75.578125 C 93.953125 76.222656 93.316406 77.910156 92.132812 80.5625 C 90.757812 83.652344 90.082031 86.097656 90.082031 87.816406 C 90.082031 90.539062 91.582031 91.3125 94.585938 90.101562 C 94.980469 89.941406 95.378906 89.753906 95.777344 89.542969 C 99.308594 87.292969 101.347656 84.65625 101.46875 82.027344 C 101.546875 80.402344 100.675781 78.550781 99.082031 76.644531 C 98.113281 75.445312 97.628906 74.5 97.628906 73.832031 C 97.628906 72.152344 99.59375 70.078125 103.523438 67.726562 C 104.933594 66.886719 106.414062 66.128906 107.960938 65.460938 C 112.640625 63.441406 115.820312 62.871094 117.496094 63.546875 C 118.027344 63.785156 118.335938 64.175781 118.359375 64.660156 C 118.390625 65.273438 117.777344 66.707031 116.640625 68.9375 C 115.664062 70.847656 115.042969 72.441406 114.789062 73.636719 C 114.425781 75.328125 114.257812 77.5625 114.257812 80.332031 C 114.257812 85.660156 114.609375 89.949219 115.316406 93.132812 Z M 87.824219 76.761719 C 86.863281 77.210938 86.320312 77.808594 86.296875 78.410156 C 86.277344 78.996094 86.804688 79.238281 87.824219 79.0625 C 88.132812 79.015625 88.425781 78.933594 88.683594 78.8125 C 89.644531 78.351562 90.183594 77.75 90.210938 77.152344 C 90.230469 76.578125 89.699219 76.347656 88.683594 76.523438 C 88.375 76.566406 88.082031 76.644531 87.824219 76.761719 Z M 112.195312 65.761719 C 111.191406 66.207031 110.628906 66.773438 110.609375 67.3125 C 110.589844 67.832031 111.117188 68.023438 112.132812 67.832031 C 112.441406 67.78125 112.734375 67.699219 112.992188 67.585938 C 114 67.136719 114.5625 66.585938 114.582031 66.058594 C 114.601562 65.546875 114.070312 65.347656 113.058594 65.527344 C 112.75 65.578125 112.453125 65.648438 112.195312 65.769531 Z M 128.023438 87.914062 C 129.035156 83.386719 129.546875 79.3125 129.546875 75.164062 C 129.546875 72.867188 129.3125 70.917969 128.882812 69.300781 C 128.613281 68.285156 127.800781 66.871094 126.433594 65.089844 C 125.730469 64.144531 125.371094 63.402344 125.375 62.863281 C 125.394531 60.929688 128.882812 59.214844 135.773438 59.152344 C 143.628906 59.152344 151.683594 60.417969 158.886719 63.691406 C 160.519531 64.402344 162.058594 66.292969 163.460938 69.46875 C 164.65625 72.1875 165.246094 74.765625 165.246094 76.96875 C 165.246094 79.835938 164.453125 80.882812 162.859375 80.261719 C 162.582031 80.15625 162.316406 80.023438 162.066406 79.859375 C 160.875 79.089844 159.6875 77.722656 158.492188 75.8125 C 157.078125 73.550781 155.996094 72.132812 155.246094 71.40625 C 153.746094 69.917969 151.933594 68.855469 149.816406 68.300781 C 147.035156 67.574219 144.804688 68.148438 143.128906 69.769531 C 142.292969 70.585938 141.871094 71.425781 141.871094 72.261719 C 141.871094 73.4375 142.644531 74.160156 144.1875 74.546875 C 144.453125 74.621094 144.714844 74.675781 144.980469 74.714844 C 145.996094 74.867188 147.253906 74.613281 148.753906 74.027344 C 149.546875 73.730469 150.144531 73.652344 150.542969 73.769531 C 151.644531 74.09375 152.4375 75.265625 152.929688 77.253906 C 153.105469 78.050781 153.195312 78.855469 153.195312 79.667969 C 153.195312 82.070312 152.621094 83.453125 151.472656 83.882812 C 151.164062 83.972656 150.855469 83.972656 150.546875 83.875 C 150.152344 83.75 149.375 83.089844 148.230469 82.074219 C 147.074219 81.054688 145.945312 80.484375 144.984375 80.359375 C 143.285156 80.132812 142.359375 80.78125 142.335938 82.011719 C 142.3125 83.398438 143.109375 85.3125 144.652344 87.351562 C 145.710938 88.585938 146.699219 89.367188 147.570312 89.578125 C 150.175781 90.214844 152.601562 89.699219 154.589844 88.074219 C 154.8125 87.925781 155.09375 87.660156 155.453125 87.292969 C 156.90625 86.128906 158.144531 86.128906 159.160156 86.417969 C 159.601562 86.5625 160.066406 86.789062 160.554688 87.105469 C 163.953125 89.320312 165.894531 92.96875 166.378906 97.492188 C 166.46875 98.210938 166.511719 98.917969 166.511719 99.605469 C 166.511719 103.746094 165.433594 106.769531 163.269531 109.242188 C 161.308594 111.480469 159.160156 112.253906 156.914062 111.34375 C 149.574219 108.746094 143.167969 107.605469 135.386719 107.445312 C 131.441406 107.800781 123.277344 107.863281 123.269531 102.003906 C 123.269531 100.210938 123.988281 97.734375 125.453125 94.632812 C 126.800781 91.777344 127.683594 89.527344 128.035156 87.90625 Z M 157.03125 64.179688 C 156.34375 63.925781 155.921875 64.046875 155.902344 64.429688 C 155.875 64.933594 156.386719 65.578125 157.359375 66.335938 C 157.753906 66.660156 158.132812 66.914062 158.484375 67.0625 C 159.167969 67.355469 159.589844 67.273438 159.613281 66.886719 C 159.640625 66.367188 159.128906 65.644531 158.15625 64.882812 C 157.761719 64.558594 157.378906 64.3125 157.03125 64.179688 Z M 66.582031 161.71875 C 66.839844 162.640625 67.613281 163.925781 68.902344 165.53125 C 70.007812 166.902344 70.578125 168.070312 70.566406 168.992188 C 70.53125 171.449219 67.101562 172.707031 60.441406 172.71875 C 56.355469 172.730469 53.675781 172.015625 52.421875 170.53125 C 52.050781 170.097656 51.867188 169.636719 51.867188 169.152344 C 51.867188 168.75 52.214844 167.988281 52.859375 166.878906 C 53.640625 165.546875 54.160156 164.03125 54.464844 162.421875 C 54.640625 161.503906 54.738281 160.746094 54.738281 160.167969 C 54.738281 158.480469 53.851562 157.417969 52.082031 156.925781 C 51.527344 156.796875 50.921875 156.695312 50.253906 156.632812 C 47.710938 156.378906 46.25 156.894531 45.882812 158.300781 C 45.808594 158.636719 45.769531 159.011719 45.769531 159.417969 C 45.769531 160.113281 45.882812 160.929688 46.046875 161.828125 C 46.367188 163.597656 47.019531 165.527344 48.09375 167.433594 C 48.460938 168.113281 48.648438 168.65625 48.648438 169.070312 C 48.648438 170.417969 47.519531 171.402344 45.269531 172.089844 C 43.871094 172.5 42.207031 172.71875 40.292969 172.71875 L 40.070312 172.71875 C 33.359375 172.691406 29.964844 171 29.949219 167.703125 C 29.945312 166.398438 30.554688 164.773438 31.777344 163.007812 C 32.914062 161.363281 33.636719 160.074219 33.933594 159.050781 C 34.632812 156.5 34.984375 153.507812 34.984375 149.953125 C 34.984375 147.9375 34.800781 145.980469 34.378906 144.136719 C 34.171875 143.242188 33.472656 141.691406 32.332031 139.375 C 31.738281 138.121094 31.441406 137.214844 31.441406 136.699219 C 31.441406 135.398438 33.085938 135.445312 36.367188 136.386719 C 37.546875 136.726562 38.785156 137.125 40.078125 137.578125 C 44.023438 138.953125 46.675781 139.972656 48.042969 141.226562 C 48.453125 141.667969 48.691406 142.082031 48.710938 142.433594 C 48.730469 142.859375 48.203125 143.710938 47.214844 144.898438 C 46.070312 146.28125 45.5 147.558594 45.5 148.695312 C 45.5 150.488281 46.753906 151.738281 49.265625 152.296875 C 49.597656 152.371094 49.929688 152.425781 50.257812 152.464844 C 53.210938 152.550781 54.914062 151.558594 55.015625 149.945312 C 55.085938 148.894531 54.351562 147.332031 53.027344 145.398438 C 52.214844 144.191406 51.8125 143.347656 51.8125 142.902344 C 51.8125 141.777344 53.453125 141.273438 56.738281 141.035156 C 57.917969 140.953125 59.152344 140.917969 60.445312 140.925781 C 64.355469 140.9375 67.011719 141.195312 68.414062 142.085938 C 68.855469 142.382812 69.113281 142.75 69.132812 143.128906 C 69.152344 143.59375 68.644531 144.570312 67.695312 145.914062 C 66.878906 147.0625 66.355469 148.023438 66.144531 148.789062 C 65.839844 149.875 65.703125 151.375 65.703125 153.234375 C 65.703125 156.804688 66 159.597656 66.589844 161.714844 Z M 43.621094 140.261719 C 42.824219 140.0625 42.367188 140.179688 42.347656 140.554688 C 42.328125 140.9375 42.765625 141.378906 43.621094 141.785156 C 43.878906 141.914062 44.121094 142.011719 44.339844 142.0625 C 45.132812 142.242188 45.59375 142.09375 45.613281 141.722656 C 45.632812 141.34375 45.1875 140.949219 44.339844 140.546875 C 44.082031 140.417969 43.839844 140.320312 43.621094 140.265625 Z M 63.980469 142.398438 C 63.144531 142.441406 62.671875 142.691406 62.652344 143.066406 C 62.632812 143.4375 63.074219 143.730469 63.925781 143.886719 C 64.183594 143.941406 64.425781 143.96875 64.644531 143.953125 C 65.480469 143.90625 65.953125 143.636719 65.972656 143.257812 C 65.992188 142.882812 65.546875 142.605469 64.699219 142.457031 C 64.441406 142.410156 64.199219 142.382812 63.980469 142.394531 Z M 77.644531 147.238281 C 77.421875 146.472656 76.738281 145.453125 75.597656 144.207031 C 75.003906 143.546875 74.710938 142.992188 74.710938 142.550781 C 74.710938 141.257812 76.351562 139.867188 79.636719 138.179688 C 80.816406 137.585938 82.070312 137.035156 83.398438 136.519531 C 87.308594 135.003906 89.945312 134.496094 91.3125 135.171875 C 91.792969 135.402344 92.03125 135.765625 92.03125 136.257812 C 92.03125 136.753906 91.570312 137.921875 90.648438 139.683594 C 89.808594 141.285156 89.269531 142.574219 89.046875 143.570312 C 88.722656 145.011719 88.546875 146.832031 88.546875 149.019531 C 88.546875 152.453125 88.933594 155.820312 89.710938 159.253906 C 89.78125 159.507812 90.410156 160.519531 91.589844 162.386719 C 92.914062 164.472656 93.601562 166.332031 93.582031 167.738281 C 93.539062 171 90.121094 172.71875 83.511719 172.71875 C 76.902344 172.71875 73.460938 171.476562 73.441406 169.011719 C 73.429688 167.867188 74.34375 166.109375 76.152344 163.3125 C 76.851562 162.179688 77.257812 161.402344 77.367188 161.039062 C 77.992188 158.511719 78.308594 155.757812 78.308594 152.835938 C 78.308594 150.617188 78.078125 148.726562 77.644531 147.246094 Z M 86.886719 136.933594 C 86.082031 137.269531 85.632812 137.703125 85.613281 138.140625 C 85.597656 138.5625 86.035156 138.738281 86.886719 138.621094 C 87.148438 138.589844 87.390625 138.539062 87.605469 138.449219 C 88.371094 138.140625 88.808594 137.703125 88.824219 137.257812 C 88.84375 136.792969 88.394531 136.597656 87.546875 136.726562 C 87.328125 136.777344 87.101562 136.847656 86.882812 136.933594 Z M 100.21875 156.28125 C 101.066406 152.644531 101.492188 148.796875 101.492188 144.886719 C 101.492188 142.722656 101.296875 140.878906 100.941406 139.394531 C 100.714844 138.460938 100.035156 137.230469 98.890625 135.777344 C 98.300781 135.003906 98.003906 134.371094 98.003906 133.859375 C 98.003906 132.347656 99.644531 130.632812 102.929688 128.683594 C 104.109375 127.996094 105.363281 127.375 106.691406 126.828125 C 110.5625 125.222656 113.21875 124.875 114.660156 125.734375 C 115.101562 126.101562 115.359375 126.585938 115.378906 127.128906 C 115.398438 127.683594 114.914062 129.003906 114 131 C 113.152344 132.847656 112.585938 134.390625 112.335938 135.617188 C 112.035156 137.097656 111.894531 139.320312 111.894531 142.300781 C 111.894531 147.84375 112.289062 151.546875 113.113281 153.234375 C 113.851562 154.738281 115.050781 155.457031 116.542969 155.242188 C 118.765625 154.921875 120.746094 153.246094 122.40625 150.847656 C 122.59375 150.609375 122.828125 150.234375 123.128906 149.71875 C 124.34375 147.9375 125.375 146.847656 126.222656 146.453125 C 126.589844 146.304688 126.980469 146.222656 127.386719 146.210938 C 130.226562 146.128906 131.847656 148.167969 132.257812 152.316406 C 132.328125 152.96875 132.367188 153.644531 132.367188 154.351562 C 132.367188 158.5625 131.472656 162.65625 129.660156 166.570312 C 128.015625 170.113281 126.230469 171.949219 124.347656 172 C 118.355469 172.015625 112.363281 172.070312 106.363281 172.113281 C 99.652344 172.121094 96.253906 170.414062 96.242188 167.015625 C 96.234375 165.660156 96.84375 163.847656 98.070312 161.519531 C 99.195312 159.371094 99.929688 157.589844 100.222656 156.285156 Z M 138.339844 152.136719 C 139.1875 147.882812 139.617188 143.429688 139.617188 138.753906 C 139.617188 136.167969 139.417969 133.898438 139.0625 131.960938 C 138.835938 130.746094 138.15625 128.957031 137.015625 126.667969 C 136.421875 125.460938 136.125 124.554688 136.125 123.9375 C 136.125 122.128906 137.769531 120.855469 141.050781 120.445312 C 142.230469 120.320312 143.488281 120.335938 144.816406 120.511719 C 148.6875 121.035156 151.339844 122.480469 152.78125 124.328125 C 153.222656 125.003906 153.484375 125.671875 153.503906 126.261719 C 153.523438 126.847656 153.035156 127.910156 152.121094 129.472656 C 151.273438 130.917969 150.710938 132.265625 150.460938 133.4375 C 150.15625 134.863281 150.019531 137.179688 150.019531 140.375 C 150.019531 146.320312 150.410156 150.410156 151.234375 152.4375 C 151.976562 154.261719 153.167969 155.304688 154.664062 155.511719 C 156.878906 155.816406 158.867188 154.960938 160.527344 153.15625 C 160.714844 152.984375 160.949219 152.695312 161.25 152.300781 C 162.464844 150.984375 163.5 150.328125 164.347656 150.238281 C 164.714844 150.21875 165.101562 150.269531 165.507812 150.386719 C 168.347656 151.210938 169.972656 153.472656 170.378906 156.867188 C 170.453125 157.40625 170.492188 157.953125 170.492188 158.503906 C 170.492188 161.824219 169.589844 164.800781 167.78125 167.808594 C 166.140625 170.535156 164.351562 172.078125 162.46875 172.101562 C 156.476562 172.058594 150.484375 172.027344 144.484375 172.015625 C 140.0625 172.238281 134.320312 170.414062 134.363281 165.074219 C 134.378906 163.277344 134.964844 160.9375 136.191406 158.195312 C 137.316406 155.679688 138.050781 153.664062 138.347656 152.140625 Z M 138.339844 152.136719 "/>
</g>
</svg>
