<?xml version="1.0" encoding="UTF-8"?>
<svg xmlns="http://www.w3.org/2000/svg" xmlns:xlink="http://www.w3.org/1999/xlink" width="196px" height="196px" viewBox="0 0 196 196" version="1.1">
<g id="surface1">
<path style=" stroke:none;fill-rule:nonzero;fill:rgb(23.137255%,27.843137%,47.45098%);fill-opacity:1;" d="M 44.878906 39.011719 C 45.179688 40.761719 46.070312 43.222656 47.566406 46.328125 C 48.839844 48.972656 49.5 51.199219 49.484375 52.976562 C 49.445312 57.738281 45.472656 60.433594 37.785156 59.75 C 33.066406 59.332031 29.964844 57.375 28.515625 54.417969 C 28.089844 53.554688 27.878906 52.683594 27.878906 51.796875 C 27.878906 51.054688 28.285156 49.71875 29.027344 47.773438 C 29.929688 45.40625 30.523438 42.683594 30.882812 39.734375 C 31.082031 38.0625 31.199219 36.679688 31.199219 35.621094 C 31.199219 32.550781 30.175781 30.601562 28.132812 29.773438 C 27.492188 29.554688 26.789062 29.394531 26.019531 29.304688 C 23.074219 28.945312 21.394531 29.902344 20.96875 32.265625 C 20.882812 32.839844 20.84375 33.460938 20.84375 34.140625 C 20.84375 35.304688 20.96875 36.679688 21.160156 38.203125 C 21.539062 41.230469 22.289062 44.566406 23.527344 48.085938 C 23.953125 49.347656 24.164062 50.335938 24.164062 51.070312 C 24.164062 53.453125 22.863281 54.984375 20.265625 55.445312 C 18.644531 55.703125 16.722656 55.457031 14.511719 54.660156 C 14.410156 54.621094 14.359375 54.605469 14.257812 54.570312 C 6.496094 51.699219 2.578125 47.253906 2.558594 43.191406 C 2.550781 41.589844 3.261719 39.886719 4.671875 37.925781 C 5.984375 36.101562 6.824219 34.433594 7.164062 33.074219 C 7.972656 29.695312 8.378906 25.492188 8.378906 20.589844 C 8.378906 17.800781 8.164062 15.160156 7.675781 12.800781 C 7.433594 11.664062 6.628906 9.800781 5.308594 7.378906 C 4.625 6.054688 4.285156 5.082031 4.285156 4.433594 C 4.285156 2.789062 6.179688 1.714844 9.980469 1.113281 C 11.339844 0.894531 12.769531 0.785156 14.265625 0.796875 C 18.824219 0.824219 21.890625 1.652344 23.472656 3.339844 C 23.945312 3.953125 24.21875 4.589844 24.238281 5.171875 C 24.265625 5.90625 23.644531 7.46875 22.511719 9.695312 C 21.179688 12.304688 20.53125 14.515625 20.53125 16.386719 C 20.53125 19.332031 21.980469 21.175781 24.875 21.863281 C 25.261719 21.953125 25.640625 22.011719 26.023438 22.046875 C 29.433594 21.917969 31.398438 20.152344 31.527344 17.195312 C 31.605469 15.273438 30.761719 12.570312 29.226562 9.382812 C 28.289062 7.398438 27.820312 6.027344 27.820312 5.261719 C 27.820312 3.316406 29.710938 2.003906 33.511719 1.285156 C 34.875 1.027344 36.304688 0.898438 37.796875 0.898438 C 42.316406 0.90625 45.386719 1.800781 47.007812 3.578125 C 47.519531 4.175781 47.816406 4.839844 47.835938 5.519531 C 47.863281 6.355469 47.273438 7.96875 46.175781 10.242188 C 45.234375 12.195312 44.636719 13.867188 44.390625 15.230469 C 44.035156 17.164062 43.878906 19.863281 43.878906 23.257812 C 43.878906 29.792969 44.214844 35.023438 44.902344 39.03125 Z M 18.34375 3.304688 C 17.433594 3.304688 16.894531 3.683594 16.875 4.285156 C 16.855469 4.898438 17.367188 5.390625 18.34375 5.71875 C 18.644531 5.828125 18.929688 5.894531 19.175781 5.898438 C 20.085938 5.90625 20.625 5.53125 20.644531 4.910156 C 20.664062 4.285156 20.152344 3.785156 19.175781 3.464844 C 18.875 3.359375 18.589844 3.296875 18.34375 3.296875 Z M 41.878906 3.613281 C 40.921875 3.628906 40.363281 4.046875 40.34375 4.71875 C 40.324219 5.390625 40.835938 5.917969 41.8125 6.246094 C 42.109375 6.355469 42.394531 6.417969 42.640625 6.414062 C 43.597656 6.402344 44.15625 5.984375 44.175781 5.300781 C 44.195312 4.625 43.683594 4.09375 42.707031 3.765625 C 42.410156 3.65625 42.125 3.59375 41.878906 3.597656 Z M 90.539062 28.140625 C 91.78125 31.675781 93.714844 34.089844 96.359375 35.355469 C 98.105469 36.179688 99.109375 36.679688 99.363281 36.925781 C 100.257812 37.710938 100.703125 38.917969 100.703125 40.582031 C 100.703125 43.742188 99.128906 46.261719 95.972656 48.175781 C 94.523438 49.046875 92.371094 50.023438 89.515625 51.074219 C 84.0625 53.082031 80.605469 53.371094 79.15625 51.988281 C 78.433594 51.230469 78.066406 50.035156 78.066406 48.429688 C 78.066406 47.921875 78.082031 46.960938 78.132812 45.574219 C 78.207031 43.761719 78.261719 42.4375 78.261719 41.648438 C 78.261719 38.582031 77.597656 36.898438 76.28125 36.605469 C 75.769531 36.496094 75.210938 36.5 74.621094 36.640625 C 71.648438 37.367188 70.140625 40.605469 70.140625 46.191406 C 70.140625 46.527344 70.121094 47.078125 70.140625 47.777344 C 70.160156 48.464844 70.207031 49.007812 70.207031 49.339844 C 70.207031 53.453125 68.738281 56.441406 65.796875 58.34375 C 64.386719 59.222656 62.554688 59.507812 60.292969 59.691406 C 55.816406 60.074219 53.09375 58.890625 52.109375 56.390625 C 51.722656 55.40625 51.53125 54.269531 51.53125 52.972656 C 51.53125 50.824219 52.167969 49.238281 53.453125 48.203125 C 53.664062 48.050781 54.03125 47.8125 54.542969 47.496094 C 56.546875 46.132812 58.035156 44.515625 59.019531 42.664062 C 59.316406 42.097656 59.570312 41.558594 59.785156 41.042969 C 62.308594 35.3125 64.328125 29.128906 65.855469 23.089844 C 66.964844 18.714844 67.515625 15.609375 67.515625 13.738281 C 67.515625 12.125 67.023438 10.292969 66.046875 8.175781 C 65.410156 6.832031 65.09375 5.707031 65.09375 4.84375 C 65.09375 3.027344 67.3125 1.714844 71.742188 1.007812 C 73.105469 0.789062 74.492188 0.6875 75.902344 0.675781 C 80.378906 0.648438 83.703125 1.414062 85.875 2.839844 C 86.683594 3.375 87.175781 3.972656 87.34375 4.644531 C 87.382812 4.871094 87.394531 5.199219 87.410156 5.597656 C 87.5625 13.050781 87.988281 20.871094 90.546875 28.140625 Z M 72.953125 27.332031 C 72.992188 28.890625 73.664062 29.703125 74.613281 29.503906 C 75.835938 29.246094 76.554688 27.980469 76.53125 26.027344 C 76.492188 21.664062 75.816406 19.253906 74.933594 19.285156 C 74.234375 19.3125 73.589844 20.800781 73.203125 23.519531 C 73.03125 24.726562 72.910156 26.03125 72.953125 27.324219 Z M 81.203125 3.238281 C 80.246094 3.289062 79.6875 3.6875 79.667969 4.300781 C 79.648438 4.910156 80.160156 5.371094 81.136719 5.609375 C 81.4375 5.695312 81.722656 5.730469 81.96875 5.714844 C 82.882812 5.648438 83.417969 5.25 83.4375 4.660156 C 83.457031 4.023438 82.945312 3.546875 81.96875 3.289062 C 81.714844 3.25 81.449219 3.226562 81.203125 3.238281 Z M 136.894531 5.636719 C 136.894531 7.648438 136.230469 9.285156 134.914062 10.539062 C 134.144531 11.214844 133.300781 11.59375 132.421875 11.632812 C 132.171875 11.644531 131.890625 11.613281 131.59375 11.5625 C 130.828125 11.394531 130.019531 10.777344 129.160156 9.644531 C 128.222656 8.398438 127.347656 7.640625 126.535156 7.398438 C 126.066406 7.28125 125.578125 7.242188 125.066406 7.28125 C 123.023438 7.449219 121.320312 8.828125 119.953125 11.566406 C 118.863281 13.746094 118.289062 16.089844 118.289062 18.496094 C 118.289062 22.390625 119.613281 24.613281 122.257812 25.015625 C 123.109375 25.160156 124.042969 25.105469 125.066406 24.863281 C 126.5625 24.515625 128.125 23.371094 129.738281 21.554688 C 131.273438 19.820312 132.277344 19.039062 132.742188 18.734375 C 133.679688 18.160156 134.636719 17.859375 135.617188 17.832031 C 137.792969 17.769531 139.371094 18.777344 140.347656 20.859375 C 140.859375 21.945312 141.121094 23.128906 141.121094 24.402344 C 141.121094 30.132812 138.089844 33.839844 132.039062 35.800781 C 130.078125 36.449219 127.652344 37.425781 125 38.320312 C 119.027344 40.332031 110.542969 41.789062 105.878906 36.261719 C 103.792969 33.75 102.742188 30.230469 102.742188 25.890625 C 102.742188 19.890625 104.550781 14.003906 108.050781 8.996094 C 111.726562 3.746094 116.324219 1.015625 121.867188 0.238281 C 122.933594 0.078125 124.023438 0 125.132812 0 C 125.726562 0 127.578125 0.171875 130.695312 0.46875 C 131.59375 0.550781 132.335938 0.597656 132.933594 0.597656 C 133.1875 0.597656 133.464844 0.625 133.765625 0.679688 C 135.300781 1.023438 136.277344 2.160156 136.707031 4.15625 C 136.835938 4.644531 136.902344 5.140625 136.902344 5.636719 Z M 129.859375 1.863281 C 129.1875 1.894531 128.789062 2.109375 128.769531 2.417969 C 128.742188 2.800781 129.242188 3.15625 130.175781 3.378906 C 130.5625 3.484375 130.929688 3.539062 131.265625 3.535156 C 131.929688 3.515625 132.335938 3.308594 132.355469 3.007812 C 132.382812 2.628906 131.882812 2.273438 130.949219 2.019531 C 130.5625 1.902344 130.191406 1.851562 129.859375 1.863281 Z M 162.027344 10.03125 C 162.046875 11.089844 162.449219 11.703125 163.117188 11.761719 C 163.949219 11.832031 165.484375 10.9375 167.65625 9.074219 C 167.742188 8.984375 167.800781 8.925781 167.847656 8.894531 C 168.746094 8.121094 169.703125 6.925781 170.726562 5.277344 C 171.238281 4.464844 171.789062 3.84375 172.386719 3.414062 C 175.15625 1.523438 179.109375 0.476562 184.152344 0.535156 C 187.460938 0.570312 189.222656 1.167969 189.203125 2.101562 C 189.195312 2.632812 188.710938 3.304688 187.859375 3.972656 C 187.308594 4.433594 185.304688 5.480469 181.847656 6.925781 C 179.628906 7.929688 177.820312 8.773438 176.414062 9.492188 C 173.554688 11.035156 172.089844 12.191406 172.066406 13.019531 C 172.0625 13.371094 172.597656 13.835938 173.667969 14.421875 C 175.800781 15.621094 177.058594 16.40625 177.441406 16.667969 C 179.953125 18.296875 182.539062 21.535156 185.183594 26.824219 C 185.484375 27.492188 185.859375 28.269531 186.273438 29.136719 C 186.878906 30.414062 188.054688 31.859375 189.726562 33.53125 C 191.222656 35.023438 192.144531 36.359375 192.539062 37.296875 C 192.902344 38.171875 193.117188 39.128906 193.117188 40.125 C 193.117188 43.449219 191.070312 44.300781 186.976562 43.125 C 185.703125 42.761719 184.140625 42.207031 182.304688 41.519531 C 176.804688 39.476562 173.332031 37.980469 171.882812 36.25 C 171.15625 35.335938 170.792969 34.296875 170.792969 33.121094 C 170.792969 27.664062 170.066406 23.460938 168.621094 20.550781 C 167.808594 18.917969 166.8125 18.03125 165.675781 17.902344 C 164.460938 17.769531 163.476562 18.300781 162.800781 19.445312 C 162.457031 20.023438 162.28125 20.679688 162.289062 21.347656 C 162.289062 22.332031 162.414062 23.242188 162.671875 24.066406 C 163.132812 25.519531 163.777344 27.292969 164.527344 29.378906 C 165.304688 31.527344 165.675781 33.011719 165.675781 33.742188 C 165.675781 35.832031 162.800781 36.347656 157.046875 36.011719 C 156.621094 35.980469 156.167969 35.941406 155.703125 35.910156 C 148.003906 35.363281 144.089844 34.015625 144.0625 30.910156 C 144.058594 29.683594 144.789062 28.09375 146.175781 26.25 C 147.457031 24.546875 148.261719 23.179688 148.609375 22.15625 C 149.589844 19.234375 150.078125 16.449219 150.078125 13.789062 C 150.078125 11.882812 149.777344 10.039062 149.179688 8.265625 C 148.921875 7.523438 148.136719 6.363281 146.8125 4.820312 C 146.128906 3.976562 145.789062 3.339844 145.789062 2.910156 C 145.789062 1.820312 147.625 1.085938 151.292969 0.695312 C 152.742188 0.527344 154.234375 0.4375 155.769531 0.445312 C 160.203125 0.449219 163.25 0.945312 164.914062 1.964844 C 165.425781 2.339844 165.722656 2.742188 165.742188 3.125 C 165.769531 3.558594 165.152344 4.511719 164.015625 5.886719 C 162.691406 7.480469 162.007812 8.894531 162.035156 10.039062 Z M 38.617188 102.136719 C 38.714844 108.828125 38.847656 115.9375 40.679688 122.546875 C 41.101562 124.148438 42.328125 126.488281 44.363281 129.4375 C 46.089844 131.9375 47.160156 134.289062 46.96875 135.863281 C 46.191406 142.140625 36.582031 142.789062 30.621094 141.589844 C 24.222656 140.296875 14.628906 135.574219 14.277344 128.574219 C 14.183594 126.699219 15.273438 124.628906 17.242188 122.566406 C 19.035156 120.683594 20.171875 118.941406 20.65625 117.457031 C 21.613281 114.386719 22.089844 109.457031 22.089844 103.101562 C 22.089844 98.109375 21.671875 93.40625 20.835938 89.023438 C 20.359375 86.941406 19.472656 85.585938 18.230469 85.011719 C 16.144531 84.054688 13.292969 84.773438 9.878906 86.394531 C 9.820312 86.421875 9.761719 86.445312 9.699219 86.464844 C 8.144531 87.578125 6.761719 87.761719 5.566406 87.144531 C 5.117188 86.925781 4.695312 86.65625 4.3125 86.34375 C 1.921875 84.421875 0.511719 81.292969 0.09375 77.332031 C 0.0351562 76.703125 0 76.097656 0 75.519531 C 0 71.410156 1.253906 68.855469 3.773438 67.238281 C 5.386719 66.28125 7.007812 66.144531 8.625 66.96875 C 22.949219 73.785156 35.824219 76.453125 51.816406 76.203125 C 54.03125 76.082031 56.101562 77.828125 58.015625 81.304688 C 59.691406 84.355469 60.527344 87.53125 60.527344 90.949219 C 60.527344 95.128906 59.476562 97.839844 57.386719 99.105469 C 56.964844 99.3125 56.546875 99.445312 56.128906 99.515625 C 54.453125 99.800781 52.832031 98.984375 51.277344 97.011719 C 51.097656 96.773438 50.921875 96.527344 50.742188 96.285156 C 49.304688 94.472656 47.539062 92.910156 45.445312 91.546875 C 44.128906 90.707031 43.019531 90.25 42.125 90.21875 C 39.792969 90.601562 38.507812 94.695312 38.621094 102.144531 Z M 49.300781 78.527344 C 48.308594 78.59375 47.710938 79.066406 47.683594 79.78125 C 47.652344 80.6875 48.34375 81.492188 49.65625 82.03125 C 50.195312 82.273438 50.722656 82.390625 51.1875 82.347656 C 52.175781 82.25 52.773438 81.75 52.800781 81.035156 C 52.832031 80.140625 52.144531 79.394531 50.828125 78.855469 C 50.289062 78.617188 49.765625 78.488281 49.300781 78.523438 Z M 121.132812 91.304688 C 121.554688 93.121094 122.808594 95.382812 124.910156 98.199219 C 126.695312 100.601562 127.691406 103.058594 127.597656 105.179688 C 127.261719 113.070312 118.046875 117.910156 111.167969 120.972656 C 104.523438 123.9375 100.179688 124.375 98.144531 122.167969 C 97.546875 121.53125 97.25 120.691406 97.25 119.65625 C 97.25 118.789062 97.808594 116.875 98.863281 113.90625 C 100.132812 110.339844 100.96875 106.617188 101.46875 102.902344 C 101.753906 100.78125 101.921875 99.09375 101.921875 97.878906 C 101.921875 94.335938 100.484375 92.988281 97.609375 93.785156 C 96.710938 94.078125 95.722656 94.503906 94.644531 95.0625 C 90.511719 97.203125 88.148438 99.863281 87.550781 103.078125 C 87.425781 103.851562 87.367188 104.632812 87.371094 105.414062 C 87.371094 106.796875 87.554688 108.320312 87.820312 109.921875 C 88.351562 113.152344 89.410156 116.339844 91.144531 119.304688 C 91.742188 120.375 92.039062 121.347656 92.039062 122.203125 C 92.039062 124.996094 90.214844 127.984375 86.566406 131.039062 C 84.285156 132.90625 81.597656 134.515625 78.488281 135.824219 C 78.339844 135.882812 78.273438 135.914062 78.128906 135.980469 C 72.566406 137.808594 62.574219 141.34375 61.695312 133.949219 C 61.484375 132.175781 62.679688 129.179688 64.660156 125.433594 C 66.507812 121.9375 67.683594 118.917969 68.160156 116.855469 C 69.296875 111.753906 69.867188 105.957031 69.867188 99.414062 C 69.867188 95.691406 69.578125 92.300781 68.878906 89.394531 C 68.546875 88.007812 67.410156 86.007812 65.558594 83.304688 C 64.601562 81.804688 64.121094 80.371094 64.121094 79.410156 C 64.121094 76.972656 66.785156 74.667969 72.113281 71.8125 C 74.027344 70.792969 76.035156 69.867188 78.132812 69.042969 C 84.539062 66.511719 88.851562 65.636719 91.0625 66.621094 C 91.722656 67.042969 92.113281 67.617188 92.140625 68.273438 C 92.179688 69.121094 91.316406 71.332031 89.714844 74.808594 C 87.847656 78.863281 86.929688 82.070312 86.929688 84.324219 C 86.929688 87.890625 88.964844 88.90625 93.035156 87.320312 C 93.574219 87.109375 94.113281 86.863281 94.652344 86.585938 C 99.441406 83.636719 102.207031 80.179688 102.371094 76.730469 C 102.476562 74.601562 101.296875 72.171875 99.136719 69.671875 C 97.820312 68.097656 97.164062 66.859375 97.164062 65.984375 C 97.164062 63.78125 99.828125 61.0625 105.15625 57.976562 C 107.070312 56.871094 109.074219 55.882812 111.175781 55.003906 C 117.519531 52.355469 121.832031 51.609375 124.105469 52.496094 C 124.820312 52.804688 125.242188 53.320312 125.273438 53.953125 C 125.3125 54.757812 124.484375 56.640625 122.941406 59.566406 C 121.621094 62.070312 120.777344 64.160156 120.429688 65.726562 C 119.9375 67.945312 119.710938 70.875 119.710938 74.503906 C 119.710938 81.496094 120.191406 87.121094 121.148438 91.296875 Z M 83.867188 69.828125 C 82.566406 70.414062 81.828125 71.195312 81.800781 71.988281 C 81.773438 72.757812 82.484375 73.074219 83.867188 72.839844 C 84.285156 72.785156 84.683594 72.675781 85.039062 72.511719 C 86.339844 71.910156 87.070312 71.117188 87.105469 70.335938 C 87.128906 69.582031 86.414062 69.28125 85.039062 69.511719 C 84.617188 69.570312 84.21875 69.671875 83.867188 69.828125 Z M 116.914062 55.402344 C 115.554688 55.984375 114.789062 56.722656 114.761719 57.429688 C 114.738281 58.113281 115.453125 58.363281 116.828125 58.113281 C 117.246094 58.046875 117.648438 57.9375 118 57.792969 C 119.359375 57.199219 120.125 56.480469 120.152344 55.785156 C 120.179688 55.117188 119.460938 54.855469 118.085938 55.09375 C 117.667969 55.15625 117.269531 55.253906 116.914062 55.40625 Z M 138.375 84.453125 C 139.75 78.515625 140.441406 73.167969 140.441406 67.734375 C 140.441406 64.71875 140.125 62.160156 139.546875 60.039062 C 139.179688 58.710938 138.078125 56.851562 136.222656 54.519531 C 135.265625 53.28125 134.78125 52.304688 134.789062 51.597656 C 134.816406 49.0625 139.546875 46.816406 148.886719 46.730469 C 159.539062 46.730469 170.460938 48.390625 180.226562 52.683594 C 182.441406 53.613281 184.527344 56.09375 186.425781 60.257812 C 188.046875 63.824219 188.851562 67.207031 188.851562 70.097656 C 188.851562 73.855469 187.773438 75.230469 185.617188 74.414062 C 185.238281 74.277344 184.875 74.101562 184.539062 73.890625 C 182.925781 72.878906 181.308594 71.085938 179.6875 68.582031 C 177.773438 65.613281 176.308594 63.753906 175.289062 62.804688 C 173.257812 60.851562 170.800781 59.457031 167.929688 58.730469 C 164.15625 57.777344 161.132812 58.53125 158.859375 60.65625 C 157.722656 61.722656 157.152344 62.828125 157.152344 63.921875 C 157.152344 65.464844 158.203125 66.414062 160.292969 66.921875 C 160.652344 67.019531 161.011719 67.089844 161.371094 67.140625 C 162.746094 67.339844 164.453125 67.007812 166.488281 66.242188 C 167.5625 65.847656 168.375 65.746094 168.914062 65.902344 C 170.40625 66.324219 171.484375 67.859375 172.148438 70.46875 C 172.386719 71.515625 172.507812 72.570312 172.507812 73.636719 C 172.507812 76.785156 171.730469 78.597656 170.175781 79.164062 C 169.757812 79.28125 169.335938 79.28125 168.917969 79.152344 C 168.378906 78.992188 167.332031 78.125 165.777344 76.792969 C 164.207031 75.457031 162.679688 74.703125 161.378906 74.542969 C 159.074219 74.25 157.816406 75.097656 157.785156 76.710938 C 157.75 78.527344 158.832031 81.042969 160.925781 83.714844 C 162.359375 85.332031 163.703125 86.355469 164.878906 86.632812 C 168.414062 87.46875 171.703125 86.792969 174.398438 84.660156 C 174.699219 84.464844 175.085938 84.121094 175.570312 83.636719 C 177.542969 82.109375 179.21875 82.109375 180.597656 82.488281 C 181.195312 82.679688 181.828125 82.976562 182.484375 83.394531 C 187.097656 86.296875 189.726562 91.078125 190.386719 97.011719 C 190.503906 97.953125 190.566406 98.878906 190.566406 99.785156 C 190.566406 105.214844 189.101562 109.179688 186.167969 112.421875 C 183.507812 115.355469 180.597656 116.371094 177.550781 115.175781 C 167.597656 111.769531 158.914062 110.273438 148.363281 110.070312 C 143.011719 110.53125 131.945312 110.613281 131.929688 102.929688 C 131.929688 100.578125 132.90625 97.332031 134.894531 93.265625 C 136.722656 89.515625 137.917969 86.566406 138.394531 84.441406 Z M 177.707031 53.324219 C 176.777344 52.992188 176.207031 53.152344 176.179688 53.652344 C 176.140625 54.316406 176.839844 55.15625 178.152344 56.152344 C 178.691406 56.578125 179.203125 56.910156 179.683594 57.101562 C 180.605469 57.488281 181.175781 57.378906 181.210938 56.871094 C 181.25 56.191406 180.550781 55.246094 179.238281 54.242188 C 178.699219 53.820312 178.179688 53.5 177.707031 53.324219 Z M 55.066406 181.246094 C 55.417969 182.453125 56.46875 184.136719 58.214844 186.246094 C 59.710938 188.042969 60.488281 189.574219 60.46875 190.78125 C 60.421875 194.007812 55.769531 195.652344 46.742188 195.671875 C 41.199219 195.683594 37.566406 194.746094 35.863281 192.800781 C 35.367188 192.234375 35.113281 191.628906 35.113281 190.992188 C 35.113281 190.46875 35.585938 189.464844 36.460938 188.011719 C 37.519531 186.265625 38.222656 184.277344 38.636719 182.164062 C 38.875 180.960938 39.007812 179.964844 39.007812 179.207031 C 39.007812 176.996094 37.804688 175.601562 35.40625 174.960938 C 34.65625 174.785156 33.832031 174.660156 32.929688 174.574219 C 29.480469 174.242188 27.5 174.914062 27 176.761719 C 26.902344 177.203125 26.847656 177.691406 26.847656 178.226562 C 26.847656 179.136719 27 180.210938 27.222656 181.386719 C 27.660156 183.707031 28.542969 186.238281 29.996094 188.738281 C 30.496094 189.632812 30.75 190.34375 30.75 190.882812 C 30.75 192.652344 29.21875 193.945312 26.171875 194.84375 C 24.269531 195.382812 22.019531 195.671875 19.421875 195.671875 L 19.121094 195.671875 C 10.019531 195.632812 5.414062 193.417969 5.394531 189.09375 C 5.386719 187.382812 6.21875 185.25 7.875 182.933594 C 9.414062 180.777344 10.398438 179.085938 10.796875 177.742188 C 11.746094 174.402344 12.226562 170.476562 12.226562 165.816406 C 12.226562 163.167969 11.972656 160.605469 11.402344 158.1875 C 11.121094 157.011719 10.171875 154.980469 8.625 151.941406 C 7.820312 150.296875 7.421875 149.109375 7.421875 148.433594 C 7.421875 146.722656 9.648438 146.789062 14.097656 148.023438 C 15.699219 148.464844 17.375 148.992188 19.128906 149.582031 C 24.476562 151.390625 28.078125 152.726562 29.929688 154.371094 C 30.484375 154.949219 30.808594 155.488281 30.835938 155.953125 C 30.863281 156.511719 30.144531 157.628906 28.808594 159.183594 C 27.253906 160.996094 26.484375 162.671875 26.484375 164.164062 C 26.484375 166.515625 28.183594 168.15625 31.585938 168.886719 C 32.039062 168.984375 32.488281 169.054688 32.933594 169.105469 C 36.933594 169.222656 39.246094 167.917969 39.386719 165.804688 C 39.480469 164.429688 38.484375 162.378906 36.6875 159.839844 C 35.585938 158.257812 35.039062 157.152344 35.039062 156.570312 C 35.039062 155.089844 37.265625 154.429688 41.71875 154.121094 C 43.320312 154.011719 44.992188 153.964844 46.746094 153.972656 C 52.050781 153.992188 55.652344 154.324219 57.550781 155.496094 C 58.148438 155.886719 58.5 156.371094 58.527344 156.863281 C 58.554688 157.476562 57.863281 158.753906 56.574219 160.515625 C 55.472656 162.023438 54.761719 163.285156 54.476562 164.285156 C 54.0625 165.714844 53.875 167.679688 53.875 170.113281 C 53.875 174.800781 54.273438 178.460938 55.078125 181.238281 Z M 23.933594 153.105469 C 22.855469 152.839844 22.230469 152.996094 22.203125 153.492188 C 22.179688 153.992188 22.777344 154.570312 23.933594 155.101562 C 24.285156 155.269531 24.609375 155.398438 24.910156 155.464844 C 25.984375 155.699219 26.609375 155.507812 26.636719 155.019531 C 26.664062 154.523438 26.058594 154.003906 24.910156 153.476562 C 24.554688 153.3125 24.230469 153.183594 23.933594 153.113281 Z M 51.539062 155.90625 C 50.410156 155.964844 49.765625 156.292969 49.738281 156.78125 C 49.710938 157.269531 50.308594 157.65625 51.464844 157.859375 C 51.816406 157.929688 52.144531 157.964844 52.441406 157.945312 C 53.570312 157.886719 54.214844 157.53125 54.242188 157.03125 C 54.269531 156.542969 53.664062 156.175781 52.515625 155.984375 C 52.164062 155.917969 51.835938 155.886719 51.539062 155.898438 Z M 70.066406 162.257812 C 69.761719 161.246094 68.839844 159.910156 67.292969 158.277344 C 66.488281 157.410156 66.089844 156.683594 66.089844 156.105469 C 66.089844 154.410156 68.3125 152.585938 72.765625 150.375 C 74.367188 149.597656 76.066406 148.871094 77.867188 148.195312 C 83.171875 146.210938 86.746094 145.542969 88.597656 146.429688 C 89.25 146.730469 89.574219 147.207031 89.574219 147.855469 C 89.574219 148.503906 88.949219 150.03125 87.703125 152.347656 C 86.558594 154.449219 85.828125 156.136719 85.527344 157.441406 C 85.089844 159.332031 84.851562 161.722656 84.851562 164.589844 C 84.851562 169.09375 85.375 173.507812 86.425781 178.011719 C 86.527344 178.347656 87.375 179.671875 88.976562 182.121094 C 90.769531 184.855469 91.703125 187.292969 91.675781 189.136719 C 91.621094 193.417969 86.984375 195.671875 78.019531 195.671875 C 69.058594 195.671875 64.394531 194.039062 64.367188 190.808594 C 64.355469 189.308594 65.589844 187.003906 68.042969 183.332031 C 68.992188 181.847656 69.542969 180.828125 69.691406 180.351562 C 70.539062 177.035156 70.964844 173.425781 70.964844 169.59375 C 70.964844 166.683594 70.652344 164.203125 70.066406 162.261719 Z M 82.597656 148.742188 C 81.507812 149.179688 80.898438 149.75 80.871094 150.324219 C 80.851562 150.875 81.441406 151.105469 82.597656 150.953125 C 82.953125 150.914062 83.285156 150.84375 83.574219 150.726562 C 84.613281 150.324219 85.203125 149.75 85.222656 149.164062 C 85.25 148.554688 84.644531 148.296875 83.496094 148.464844 C 83.195312 148.535156 82.890625 148.625 82.59375 148.742188 Z M 100.675781 174.113281 C 101.828125 169.34375 102.40625 164.300781 102.40625 159.171875 C 102.40625 156.332031 102.140625 153.914062 101.652344 151.96875 C 101.347656 150.738281 100.425781 149.128906 98.878906 147.226562 C 98.074219 146.210938 97.675781 145.378906 97.675781 144.707031 C 97.675781 142.726562 99.898438 140.476562 104.351562 137.917969 C 105.953125 137.019531 107.652344 136.203125 109.453125 135.484375 C 114.703125 133.382812 118.304688 132.925781 120.257812 134.050781 C 120.855469 134.53125 121.207031 135.167969 121.234375 135.882812 C 121.261719 136.609375 120.601562 138.335938 119.359375 140.960938 C 118.210938 143.382812 117.445312 145.40625 117.109375 147.011719 C 116.695312 148.953125 116.511719 151.871094 116.511719 155.777344 C 116.511719 163.046875 117.042969 167.90625 118.15625 170.113281 C 119.160156 172.089844 120.789062 173.03125 122.808594 172.75 C 125.824219 172.332031 128.507812 170.132812 130.761719 166.984375 C 131.015625 166.675781 131.332031 166.183594 131.738281 165.507812 C 133.386719 163.167969 134.789062 161.742188 135.9375 161.222656 C 136.4375 161.027344 136.960938 160.917969 137.511719 160.90625 C 141.367188 160.796875 143.566406 163.46875 144.117188 168.914062 C 144.214844 169.769531 144.269531 170.65625 144.269531 171.582031 C 144.269531 177.105469 143.054688 182.472656 140.59375 187.605469 C 138.371094 192.253906 135.945312 194.664062 133.394531 194.726562 C 125.265625 194.746094 117.140625 194.816406 109.007812 194.875 C 99.90625 194.886719 95.300781 192.644531 95.28125 188.191406 C 95.277344 186.410156 96.101562 184.035156 97.761719 180.980469 C 99.289062 178.167969 100.285156 175.828125 100.683594 174.117188 Z M 152.367188 168.675781 C 153.519531 163.097656 154.097656 157.257812 154.097656 151.125 C 154.097656 147.734375 153.832031 144.757812 153.34375 142.21875 C 153.039062 140.625 152.117188 138.28125 150.566406 135.277344 C 149.765625 133.691406 149.367188 132.503906 149.367188 131.691406 C 149.367188 129.320312 151.589844 127.652344 156.042969 127.117188 C 157.644531 126.949219 159.34375 126.96875 161.144531 127.199219 C 166.394531 127.886719 169.996094 129.785156 171.949219 132.207031 C 172.546875 133.09375 172.898438 133.96875 172.925781 134.746094 C 172.953125 135.511719 172.292969 136.90625 171.050781 138.953125 C 169.902344 140.851562 169.136719 142.617188 168.800781 144.152344 C 168.386719 146.023438 168.203125 149.0625 168.203125 153.253906 C 168.203125 161.046875 168.734375 166.414062 169.847656 169.074219 C 170.859375 171.464844 172.472656 172.832031 174.5 173.101562 C 177.503906 173.5 180.199219 172.382812 182.453125 170.011719 C 182.707031 169.789062 183.023438 169.410156 183.429688 168.894531 C 185.078125 167.164062 186.480469 166.304688 187.628906 166.1875 C 188.125 166.164062 188.652344 166.226562 189.203125 166.382812 C 193.058594 167.460938 195.257812 170.429688 195.808594 174.882812 C 195.90625 175.589844 195.960938 176.304688 195.960938 177.03125 C 195.960938 181.378906 194.738281 185.289062 192.285156 189.234375 C 190.058594 192.804688 187.636719 194.832031 185.082031 194.863281 C 176.957031 194.804688 168.832031 194.765625 160.699219 194.746094 C 154.699219 195.042969 146.914062 192.644531 146.972656 185.648438 C 146.992188 183.289062 147.789062 180.21875 149.453125 176.625 C 150.980469 173.320312 151.976562 170.679688 152.375 168.683594 Z M 152.367188 168.675781 "/>
</g>
</svg>
