<?xml version="1.0" encoding="UTF-8"?>
<svg xmlns="http://www.w3.org/2000/svg" xmlns:xlink="http://www.w3.org/1999/xlink" width="32px" height="32px" viewBox="0 0 32 32" version="1.1">
<g id="surface1">
<path style=" stroke:none;fill-rule:nonzero;fill:rgb(23.137255%,27.843137%,47.45098%);fill-opacity:1;" d="M 7.328125 6.371094 C 7.375 6.65625 7.523438 7.058594 7.765625 7.5625 C 7.972656 7.996094 8.082031 8.359375 8.078125 8.648438 C 8.074219 9.425781 7.425781 9.867188 6.167969 9.753906 C 5.398438 9.6875 4.890625 9.367188 4.65625 8.882812 C 4.585938 8.742188 4.550781 8.601562 4.550781 8.457031 C 4.550781 8.335938 4.617188 8.117188 4.738281 7.800781 C 4.886719 7.414062 4.984375 6.96875 5.042969 6.488281 C 5.074219 6.214844 5.09375 5.988281 5.09375 5.816406 C 5.09375 5.3125 4.925781 4.996094 4.59375 4.859375 C 4.488281 4.824219 4.375 4.800781 4.25 4.785156 C 3.765625 4.726562 3.492188 4.882812 3.421875 5.269531 C 3.410156 5.363281 3.402344 5.464844 3.402344 5.574219 C 3.402344 5.765625 3.421875 5.988281 3.453125 6.238281 C 3.515625 6.730469 3.640625 7.277344 3.839844 7.851562 C 3.910156 8.058594 3.945312 8.21875 3.945312 8.339844 C 3.945312 8.726562 3.734375 8.976562 3.308594 9.050781 C 3.042969 9.09375 2.730469 9.054688 2.371094 8.925781 C 2.351562 8.917969 2.34375 8.914062 2.328125 8.910156 C 1.0625 8.441406 0.421875 7.714844 0.417969 7.050781 C 0.417969 6.789062 0.53125 6.511719 0.761719 6.191406 C 0.976562 5.894531 1.113281 5.621094 1.167969 5.398438 C 1.300781 4.847656 1.367188 4.160156 1.367188 3.363281 C 1.367188 2.90625 1.332031 2.476562 1.253906 2.089844 C 1.214844 1.90625 1.082031 1.601562 0.867188 1.203125 C 0.753906 0.988281 0.699219 0.828125 0.699219 0.722656 C 0.699219 0.457031 1.007812 0.28125 1.628906 0.183594 C 1.851562 0.144531 2.085938 0.128906 2.328125 0.128906 C 3.074219 0.132812 3.574219 0.269531 3.832031 0.546875 C 3.910156 0.644531 3.953125 0.75 3.957031 0.84375 C 3.960938 0.964844 3.859375 1.21875 3.675781 1.582031 C 3.457031 2.007812 3.351562 2.371094 3.351562 2.675781 C 3.351562 3.15625 3.589844 3.457031 4.0625 3.570312 C 4.125 3.585938 4.1875 3.59375 4.25 3.597656 C 4.804688 3.578125 5.125 3.289062 5.148438 2.808594 C 5.160156 2.492188 5.023438 2.050781 4.773438 1.53125 C 4.617188 1.207031 4.542969 0.984375 4.542969 0.859375 C 4.542969 0.542969 4.851562 0.328125 5.472656 0.210938 C 5.695312 0.167969 5.925781 0.148438 6.171875 0.148438 C 6.910156 0.148438 7.410156 0.292969 7.675781 0.585938 C 7.757812 0.683594 7.808594 0.789062 7.808594 0.902344 C 7.8125 1.039062 7.71875 1.300781 7.539062 1.671875 C 7.386719 1.992188 7.289062 2.265625 7.246094 2.488281 C 7.1875 2.800781 7.164062 3.242188 7.164062 3.796875 C 7.164062 4.863281 7.21875 5.71875 7.332031 6.371094 Z M 2.996094 0.539062 C 2.847656 0.539062 2.757812 0.601562 2.753906 0.699219 C 2.75 0.800781 2.835938 0.878906 2.996094 0.933594 C 3.042969 0.953125 3.089844 0.960938 3.128906 0.964844 C 3.28125 0.964844 3.367188 0.902344 3.371094 0.800781 C 3.375 0.699219 3.289062 0.617188 3.128906 0.566406 C 3.082031 0.546875 3.035156 0.539062 2.996094 0.539062 Z M 6.835938 0.589844 C 6.679688 0.59375 6.589844 0.660156 6.585938 0.769531 C 6.582031 0.878906 6.667969 0.964844 6.828125 1.019531 C 6.875 1.039062 6.921875 1.046875 6.960938 1.046875 C 7.117188 1.046875 7.210938 0.976562 7.210938 0.867188 C 7.214844 0.753906 7.132812 0.667969 6.972656 0.613281 C 6.925781 0.597656 6.878906 0.585938 6.835938 0.585938 Z M 14.78125 4.59375 C 14.984375 5.171875 15.300781 5.566406 15.730469 5.773438 C 16.015625 5.90625 16.179688 5.988281 16.222656 6.027344 C 16.367188 6.15625 16.441406 6.355469 16.441406 6.625 C 16.441406 7.140625 16.183594 7.554688 15.667969 7.867188 C 15.433594 8.007812 15.082031 8.167969 14.613281 8.339844 C 13.722656 8.667969 13.160156 8.714844 12.921875 8.488281 C 12.804688 8.363281 12.746094 8.167969 12.746094 7.90625 C 12.746094 7.824219 12.75 7.667969 12.757812 7.441406 C 12.769531 7.144531 12.777344 6.929688 12.777344 6.800781 C 12.777344 6.300781 12.667969 6.023438 12.453125 5.976562 C 12.371094 5.957031 12.28125 5.960938 12.183594 5.980469 C 11.699219 6.101562 11.453125 6.628906 11.453125 7.542969 C 11.453125 7.597656 11.449219 7.6875 11.453125 7.800781 C 11.453125 7.914062 11.460938 8 11.460938 8.054688 C 11.460938 8.726562 11.222656 9.214844 10.742188 9.527344 C 10.511719 9.667969 10.214844 9.714844 9.84375 9.746094 C 9.113281 9.808594 8.667969 9.613281 8.507812 9.207031 C 8.445312 9.046875 8.414062 8.859375 8.414062 8.648438 C 8.414062 8.296875 8.515625 8.039062 8.726562 7.871094 C 8.761719 7.84375 8.820312 7.804688 8.90625 7.753906 C 9.230469 7.53125 9.476562 7.269531 9.636719 6.964844 C 9.683594 6.875 9.726562 6.785156 9.761719 6.699219 C 10.171875 5.765625 10.503906 4.753906 10.75 3.769531 C 10.933594 3.054688 11.023438 2.546875 11.023438 2.242188 C 11.023438 1.980469 10.941406 1.679688 10.78125 1.335938 C 10.679688 1.117188 10.628906 0.933594 10.628906 0.789062 C 10.628906 0.496094 10.988281 0.28125 11.714844 0.164062 C 11.9375 0.128906 12.160156 0.113281 12.390625 0.109375 C 13.125 0.105469 13.664062 0.230469 14.019531 0.464844 C 14.152344 0.550781 14.234375 0.648438 14.261719 0.757812 C 14.265625 0.796875 14.269531 0.847656 14.269531 0.914062 C 14.296875 2.128906 14.367188 3.40625 14.78125 4.59375 Z M 11.910156 4.460938 C 11.917969 4.71875 12.027344 4.847656 12.183594 4.816406 C 12.382812 4.773438 12.5 4.566406 12.496094 4.25 C 12.488281 3.535156 12.378906 3.144531 12.234375 3.148438 C 12.121094 3.152344 12.015625 3.394531 11.953125 3.839844 C 11.921875 4.035156 11.902344 4.25 11.910156 4.460938 Z M 13.257812 0.527344 C 13.101562 0.535156 13.011719 0.601562 13.007812 0.703125 C 13.003906 0.800781 13.085938 0.875 13.246094 0.914062 C 13.296875 0.929688 13.34375 0.9375 13.382812 0.933594 C 13.53125 0.921875 13.621094 0.855469 13.621094 0.761719 C 13.625 0.65625 13.542969 0.578125 13.382812 0.535156 C 13.339844 0.53125 13.296875 0.527344 13.257812 0.527344 Z M 22.351562 0.921875 C 22.351562 1.25 22.242188 1.515625 22.027344 1.71875 C 21.902344 1.832031 21.761719 1.894531 21.621094 1.898438 C 21.578125 1.902344 21.53125 1.894531 21.484375 1.886719 C 21.359375 1.859375 21.226562 1.757812 21.085938 1.574219 C 20.933594 1.371094 20.792969 1.246094 20.660156 1.207031 C 20.582031 1.1875 20.503906 1.183594 20.417969 1.1875 C 20.085938 1.214844 19.808594 1.441406 19.585938 1.886719 C 19.40625 2.246094 19.3125 2.625 19.3125 3.019531 C 19.3125 3.65625 19.527344 4.019531 19.960938 4.085938 C 20.097656 4.109375 20.25 4.097656 20.417969 4.058594 C 20.664062 4.003906 20.917969 3.816406 21.183594 3.519531 C 21.433594 3.234375 21.597656 3.109375 21.671875 3.058594 C 21.824219 2.964844 21.980469 2.914062 22.140625 2.910156 C 22.496094 2.902344 22.753906 3.066406 22.914062 3.40625 C 22.996094 3.582031 23.039062 3.777344 23.039062 3.984375 C 23.039062 4.917969 22.546875 5.523438 21.558594 5.84375 C 21.238281 5.949219 20.839844 6.109375 20.40625 6.257812 C 19.433594 6.585938 18.046875 6.824219 17.285156 5.921875 C 16.945312 5.511719 16.773438 4.9375 16.773438 4.226562 C 16.773438 3.246094 17.070312 2.285156 17.640625 1.46875 C 18.242188 0.613281 18.992188 0.164062 19.898438 0.0390625 C 20.070312 0.0117188 20.25 0 20.429688 0 C 20.527344 0 20.828125 0.0273438 21.339844 0.078125 C 21.484375 0.0898438 21.605469 0.0976562 21.703125 0.0976562 C 21.746094 0.0976562 21.789062 0.101562 21.839844 0.109375 C 22.089844 0.167969 22.25 0.351562 22.320312 0.679688 C 22.339844 0.757812 22.351562 0.839844 22.351562 0.921875 Z M 21.203125 0.304688 C 21.09375 0.308594 21.027344 0.34375 21.023438 0.394531 C 21.019531 0.457031 21.101562 0.515625 21.253906 0.550781 C 21.316406 0.570312 21.375 0.578125 21.429688 0.578125 C 21.539062 0.574219 21.605469 0.539062 21.609375 0.492188 C 21.613281 0.429688 21.53125 0.371094 21.378906 0.328125 C 21.316406 0.3125 21.253906 0.300781 21.203125 0.304688 Z M 26.453125 1.636719 C 26.457031 1.8125 26.523438 1.910156 26.632812 1.921875 C 26.765625 1.933594 27.019531 1.785156 27.371094 1.480469 C 27.386719 1.46875 27.394531 1.457031 27.402344 1.453125 C 27.550781 1.324219 27.707031 1.128906 27.875 0.863281 C 27.957031 0.730469 28.046875 0.628906 28.144531 0.558594 C 28.597656 0.25 29.242188 0.078125 30.066406 0.0859375 C 30.605469 0.09375 30.894531 0.191406 30.890625 0.34375 C 30.890625 0.429688 30.808594 0.539062 30.671875 0.648438 C 30.582031 0.722656 30.253906 0.894531 29.6875 1.128906 C 29.328125 1.292969 29.03125 1.433594 28.800781 1.550781 C 28.335938 1.800781 28.097656 1.992188 28.09375 2.125 C 28.09375 2.183594 28.179688 2.257812 28.355469 2.355469 C 28.703125 2.550781 28.90625 2.679688 28.96875 2.722656 C 29.378906 2.988281 29.800781 3.515625 30.234375 4.378906 C 30.28125 4.488281 30.34375 4.617188 30.410156 4.757812 C 30.511719 4.964844 30.703125 5.203125 30.976562 5.472656 C 31.21875 5.71875 31.371094 5.9375 31.433594 6.089844 C 31.496094 6.230469 31.53125 6.386719 31.53125 6.550781 C 31.53125 7.09375 31.195312 7.234375 30.527344 7.039062 C 30.320312 6.980469 30.0625 6.890625 29.765625 6.777344 C 28.867188 6.445312 28.300781 6.199219 28.0625 5.917969 C 27.945312 5.769531 27.882812 5.597656 27.882812 5.40625 C 27.882812 4.515625 27.765625 3.832031 27.53125 3.355469 C 27.398438 3.089844 27.234375 2.945312 27.050781 2.921875 C 26.851562 2.902344 26.691406 2.988281 26.578125 3.175781 C 26.523438 3.269531 26.496094 3.375 26.496094 3.484375 C 26.496094 3.644531 26.515625 3.792969 26.558594 3.929688 C 26.632812 4.167969 26.738281 4.457031 26.863281 4.796875 C 26.988281 5.148438 27.050781 5.390625 27.050781 5.507812 C 27.050781 5.851562 26.578125 5.933594 25.640625 5.878906 C 25.570312 5.875 25.496094 5.867188 25.421875 5.863281 C 24.164062 5.773438 23.523438 5.554688 23.519531 5.046875 C 23.519531 4.847656 23.640625 4.585938 23.867188 4.285156 C 24.074219 4.007812 24.207031 3.785156 24.261719 3.617188 C 24.421875 3.140625 24.503906 2.6875 24.503906 2.25 C 24.503906 1.941406 24.453125 1.640625 24.355469 1.347656 C 24.3125 1.226562 24.1875 1.039062 23.96875 0.785156 C 23.859375 0.648438 23.800781 0.546875 23.800781 0.476562 C 23.800781 0.296875 24.101562 0.175781 24.699219 0.113281 C 24.9375 0.0859375 25.179688 0.0703125 25.433594 0.0742188 C 26.15625 0.0742188 26.652344 0.15625 26.925781 0.320312 C 27.007812 0.382812 27.058594 0.449219 27.058594 0.511719 C 27.0625 0.582031 26.964844 0.738281 26.777344 0.960938 C 26.5625 1.222656 26.449219 1.453125 26.453125 1.640625 Z M 6.304688 16.675781 C 6.320312 17.769531 6.34375 18.929688 6.640625 20.007812 C 6.710938 20.269531 6.910156 20.652344 7.242188 21.132812 C 7.523438 21.539062 7.699219 21.925781 7.667969 22.183594 C 7.542969 23.207031 5.972656 23.3125 5 23.117188 C 3.953125 22.90625 2.386719 22.132812 2.332031 20.992188 C 2.316406 20.6875 2.492188 20.347656 2.816406 20.011719 C 3.109375 19.703125 3.292969 19.417969 3.371094 19.175781 C 3.527344 18.675781 3.605469 17.871094 3.605469 16.832031 C 3.605469 16.019531 3.539062 15.25 3.402344 14.535156 C 3.324219 14.195312 3.179688 13.972656 2.976562 13.878906 C 2.636719 13.722656 2.171875 13.839844 1.613281 14.105469 C 1.601562 14.109375 1.59375 14.113281 1.582031 14.117188 C 1.328125 14.296875 1.105469 14.328125 0.910156 14.226562 C 0.835938 14.191406 0.765625 14.148438 0.703125 14.097656 C 0.3125 13.78125 0.0820312 13.273438 0.015625 12.625 C 0.00390625 12.523438 0 12.425781 0 12.328125 C 0 11.660156 0.203125 11.242188 0.617188 10.976562 C 0.878906 10.820312 1.144531 10.800781 1.40625 10.933594 C 3.746094 12.046875 5.847656 12.480469 8.460938 12.441406 C 8.820312 12.421875 9.160156 12.707031 9.472656 13.273438 C 9.746094 13.773438 9.882812 14.289062 9.882812 14.847656 C 9.882812 15.53125 9.710938 15.972656 9.371094 16.179688 C 9.300781 16.214844 9.230469 16.234375 9.164062 16.246094 C 8.890625 16.292969 8.625 16.160156 8.371094 15.839844 C 8.34375 15.800781 8.3125 15.757812 8.285156 15.71875 C 8.050781 15.425781 7.761719 15.167969 7.417969 14.945312 C 7.203125 14.808594 7.023438 14.734375 6.878906 14.730469 C 6.496094 14.792969 6.285156 15.460938 6.304688 16.675781 Z M 8.050781 12.820312 C 7.886719 12.832031 7.789062 12.910156 7.785156 13.027344 C 7.78125 13.171875 7.894531 13.304688 8.105469 13.394531 C 8.195312 13.433594 8.28125 13.453125 8.355469 13.445312 C 8.519531 13.429688 8.617188 13.347656 8.621094 13.230469 C 8.625 13.085938 8.511719 12.960938 8.296875 12.875 C 8.210938 12.835938 8.125 12.8125 8.050781 12.820312 Z M 19.777344 14.90625 C 19.84375 15.203125 20.050781 15.574219 20.394531 16.03125 C 20.683594 16.425781 20.847656 16.824219 20.832031 17.171875 C 20.777344 18.460938 19.273438 19.25 18.148438 19.75 C 17.066406 20.234375 16.355469 20.304688 16.023438 19.945312 C 15.925781 19.84375 15.878906 19.703125 15.878906 19.535156 C 15.878906 19.394531 15.96875 19.082031 16.140625 18.597656 C 16.347656 18.015625 16.484375 17.40625 16.566406 16.800781 C 16.613281 16.453125 16.640625 16.179688 16.640625 15.980469 C 16.640625 15.402344 16.40625 15.183594 15.9375 15.3125 C 15.789062 15.359375 15.628906 15.429688 15.453125 15.519531 C 14.777344 15.871094 14.390625 16.304688 14.292969 16.828125 C 14.273438 16.957031 14.265625 17.082031 14.265625 17.210938 C 14.265625 17.4375 14.292969 17.683594 14.339844 17.945312 C 14.425781 18.472656 14.597656 18.996094 14.878906 19.476562 C 14.976562 19.652344 15.027344 19.8125 15.027344 19.953125 C 15.027344 20.40625 14.730469 20.894531 14.132812 21.394531 C 13.761719 21.699219 13.320312 21.960938 12.8125 22.175781 C 12.789062 22.183594 12.78125 22.191406 12.753906 22.199219 C 11.847656 22.5 10.214844 23.078125 10.074219 21.871094 C 10.039062 21.578125 10.234375 21.089844 10.558594 20.480469 C 10.859375 19.90625 11.050781 19.414062 11.128906 19.078125 C 11.3125 18.246094 11.40625 17.300781 11.40625 16.230469 C 11.40625 15.625 11.359375 15.070312 11.246094 14.59375 C 11.191406 14.367188 11.003906 14.042969 10.703125 13.601562 C 10.546875 13.355469 10.46875 13.121094 10.46875 12.964844 C 10.46875 12.566406 10.902344 12.191406 11.773438 11.722656 C 12.085938 11.558594 12.414062 11.40625 12.757812 11.273438 C 13.800781 10.859375 14.507812 10.714844 14.867188 10.875 C 14.976562 10.945312 15.039062 11.039062 15.042969 11.148438 C 15.050781 11.285156 14.910156 11.644531 14.648438 12.214844 C 14.34375 12.875 14.191406 13.398438 14.191406 13.765625 C 14.191406 14.347656 14.523438 14.515625 15.1875 14.257812 C 15.277344 14.222656 15.367188 14.183594 15.453125 14.136719 C 16.234375 13.65625 16.6875 13.089844 16.714844 12.527344 C 16.730469 12.179688 16.539062 11.78125 16.1875 11.375 C 15.96875 11.117188 15.863281 10.914062 15.863281 10.773438 C 15.863281 10.414062 16.296875 9.96875 17.167969 9.464844 C 17.480469 9.285156 17.808594 9.125 18.152344 8.980469 C 19.1875 8.546875 19.890625 8.425781 20.261719 8.570312 C 20.378906 8.621094 20.449219 8.707031 20.453125 8.808594 C 20.460938 8.941406 20.324219 9.246094 20.070312 9.726562 C 19.855469 10.132812 19.71875 10.476562 19.660156 10.730469 C 19.582031 11.09375 19.542969 11.570312 19.542969 12.164062 C 19.542969 13.304688 19.625 14.222656 19.78125 14.90625 Z M 13.691406 11.402344 C 13.480469 11.496094 13.359375 11.625 13.355469 11.753906 C 13.351562 11.878906 13.46875 11.929688 13.691406 11.890625 C 13.761719 11.882812 13.824219 11.867188 13.882812 11.839844 C 14.097656 11.742188 14.214844 11.609375 14.222656 11.484375 C 14.226562 11.359375 14.109375 11.3125 13.882812 11.347656 C 13.816406 11.359375 13.75 11.375 13.691406 11.402344 Z M 19.089844 9.046875 C 18.867188 9.140625 18.742188 9.261719 18.738281 9.375 C 18.734375 9.488281 18.847656 9.527344 19.074219 9.488281 C 19.140625 9.476562 19.207031 9.460938 19.265625 9.4375 C 19.488281 9.339844 19.613281 9.222656 19.617188 9.109375 C 19.621094 9 19.503906 8.957031 19.28125 8.996094 C 19.210938 9.003906 19.144531 9.019531 19.089844 9.046875 Z M 22.59375 13.789062 C 22.816406 12.820312 22.929688 11.945312 22.929688 11.058594 C 22.929688 10.566406 22.878906 10.148438 22.78125 9.800781 C 22.722656 9.585938 22.542969 9.28125 22.242188 8.902344 C 22.085938 8.699219 22.003906 8.539062 22.007812 8.425781 C 22.011719 8.011719 22.78125 7.644531 24.308594 7.628906 C 26.046875 7.628906 27.832031 7.902344 29.425781 8.601562 C 29.785156 8.753906 30.125 9.15625 30.4375 9.839844 C 30.703125 10.421875 30.832031 10.972656 30.832031 11.445312 C 30.832031 12.058594 30.65625 12.28125 30.304688 12.148438 C 30.242188 12.125 30.183594 12.097656 30.128906 12.0625 C 29.867188 11.898438 29.601562 11.605469 29.335938 11.195312 C 29.023438 10.710938 28.785156 10.410156 28.617188 10.253906 C 28.285156 9.933594 27.886719 9.707031 27.417969 9.589844 C 26.800781 9.433594 26.308594 9.554688 25.9375 9.902344 C 25.75 10.078125 25.65625 10.257812 25.65625 10.4375 C 25.65625 10.6875 25.828125 10.84375 26.171875 10.925781 C 26.230469 10.941406 26.289062 10.953125 26.347656 10.960938 C 26.570312 10.996094 26.847656 10.941406 27.183594 10.816406 C 27.355469 10.75 27.488281 10.734375 27.578125 10.757812 C 27.820312 10.828125 27.996094 11.078125 28.105469 11.503906 C 28.144531 11.675781 28.164062 11.847656 28.164062 12.023438 C 28.164062 12.535156 28.039062 12.832031 27.785156 12.925781 C 27.714844 12.945312 27.648438 12.945312 27.578125 12.921875 C 27.492188 12.898438 27.320312 12.753906 27.066406 12.539062 C 26.808594 12.320312 26.558594 12.195312 26.347656 12.171875 C 25.972656 12.121094 25.765625 12.261719 25.761719 12.523438 C 25.753906 12.820312 25.933594 13.230469 26.273438 13.667969 C 26.507812 13.933594 26.726562 14.097656 26.917969 14.144531 C 27.496094 14.28125 28.03125 14.171875 28.472656 13.820312 C 28.523438 13.789062 28.585938 13.734375 28.664062 13.65625 C 28.988281 13.40625 29.261719 13.40625 29.484375 13.46875 C 29.582031 13.5 29.6875 13.546875 29.792969 13.617188 C 30.546875 14.089844 30.976562 14.871094 31.082031 15.839844 C 31.101562 15.992188 31.113281 16.144531 31.113281 16.292969 C 31.113281 17.179688 30.875 17.824219 30.394531 18.355469 C 29.960938 18.832031 29.484375 19 28.988281 18.804688 C 27.363281 18.25 25.945312 18.003906 24.222656 17.96875 C 23.347656 18.046875 21.542969 18.058594 21.539062 16.804688 C 21.539062 16.421875 21.699219 15.890625 22.023438 15.226562 C 22.320312 14.613281 22.515625 14.132812 22.59375 13.785156 Z M 29.011719 8.707031 C 28.863281 8.652344 28.769531 8.679688 28.765625 8.757812 C 28.757812 8.867188 28.871094 9.003906 29.085938 9.167969 C 29.175781 9.238281 29.257812 9.292969 29.335938 9.324219 C 29.488281 9.386719 29.578125 9.367188 29.585938 9.285156 C 29.59375 9.175781 29.476562 9.019531 29.261719 8.855469 C 29.175781 8.785156 29.089844 8.734375 29.011719 8.707031 Z M 8.992188 29.589844 C 9.046875 29.789062 9.21875 30.0625 9.503906 30.40625 C 9.75 30.699219 9.875 30.949219 9.871094 31.148438 C 9.863281 31.675781 9.105469 31.941406 7.632812 31.945312 C 6.726562 31.949219 6.132812 31.796875 5.855469 31.476562 C 5.773438 31.386719 5.734375 31.285156 5.734375 31.183594 C 5.734375 31.097656 5.808594 30.933594 5.953125 30.695312 C 6.125 30.410156 6.242188 30.085938 6.308594 29.742188 C 6.347656 29.542969 6.367188 29.382812 6.367188 29.257812 C 6.367188 28.898438 6.171875 28.667969 5.78125 28.566406 C 5.65625 28.535156 5.523438 28.515625 5.375 28.5 C 4.8125 28.449219 4.488281 28.558594 4.40625 28.859375 C 4.390625 28.929688 4.382812 29.011719 4.382812 29.097656 C 4.382812 29.246094 4.40625 29.421875 4.445312 29.613281 C 4.515625 29.992188 4.660156 30.40625 4.898438 30.8125 C 4.980469 30.960938 5.019531 31.078125 5.019531 31.164062 C 5.019531 31.453125 4.769531 31.664062 4.273438 31.8125 C 3.960938 31.898438 3.59375 31.945312 3.171875 31.945312 L 3.121094 31.945312 C 1.636719 31.941406 0.882812 31.578125 0.878906 30.871094 C 0.878906 30.59375 1.015625 30.246094 1.285156 29.867188 C 1.535156 29.515625 1.699219 29.238281 1.761719 29.019531 C 1.917969 28.472656 1.996094 27.832031 1.996094 27.070312 C 1.996094 26.640625 1.953125 26.222656 1.863281 25.828125 C 1.816406 25.632812 1.660156 25.304688 1.40625 24.808594 C 1.277344 24.539062 1.210938 24.34375 1.210938 24.234375 C 1.210938 23.953125 1.574219 23.964844 2.300781 24.167969 C 2.5625 24.238281 2.835938 24.324219 3.125 24.421875 C 3.996094 24.71875 4.585938 24.933594 4.886719 25.203125 C 4.976562 25.296875 5.03125 25.386719 5.035156 25.460938 C 5.039062 25.554688 4.921875 25.734375 4.703125 25.988281 C 4.449219 26.285156 4.324219 26.558594 4.324219 26.800781 C 4.324219 27.1875 4.601562 27.453125 5.15625 27.574219 C 5.230469 27.589844 5.304688 27.601562 5.375 27.609375 C 6.03125 27.628906 6.40625 27.414062 6.429688 27.070312 C 6.445312 26.84375 6.28125 26.511719 5.988281 26.097656 C 5.808594 25.839844 5.71875 25.65625 5.71875 25.5625 C 5.71875 25.320312 6.085938 25.214844 6.8125 25.164062 C 7.074219 25.144531 7.34375 25.136719 7.632812 25.136719 C 8.5 25.140625 9.085938 25.195312 9.394531 25.386719 C 9.492188 25.449219 9.550781 25.53125 9.554688 25.609375 C 9.558594 25.710938 9.445312 25.917969 9.238281 26.207031 C 9.058594 26.453125 8.941406 26.660156 8.894531 26.820312 C 8.828125 27.054688 8.796875 27.375 8.796875 27.773438 C 8.796875 28.539062 8.859375 29.136719 8.992188 29.589844 Z M 3.90625 24.996094 C 3.730469 24.953125 3.628906 24.980469 3.625 25.058594 C 3.621094 25.140625 3.71875 25.234375 3.90625 25.324219 C 3.964844 25.351562 4.019531 25.371094 4.066406 25.382812 C 4.242188 25.421875 4.34375 25.390625 4.347656 25.308594 C 4.351562 25.226562 4.253906 25.144531 4.066406 25.058594 C 4.007812 25.03125 3.957031 25.007812 3.90625 25 Z M 8.414062 25.453125 C 8.230469 25.464844 8.125 25.515625 8.121094 25.597656 C 8.117188 25.675781 8.214844 25.738281 8.402344 25.773438 C 8.460938 25.785156 8.511719 25.789062 8.5625 25.785156 C 8.746094 25.777344 8.851562 25.71875 8.855469 25.636719 C 8.859375 25.558594 8.761719 25.5 8.574219 25.46875 C 8.515625 25.457031 8.464844 25.449219 8.414062 25.453125 Z M 11.4375 26.492188 C 11.390625 26.324219 11.238281 26.109375 10.988281 25.839844 C 10.855469 25.699219 10.789062 25.582031 10.789062 25.488281 C 10.789062 25.210938 11.152344 24.910156 11.878906 24.550781 C 12.140625 24.425781 12.417969 24.304688 12.714844 24.195312 C 13.578125 23.871094 14.164062 23.761719 14.464844 23.90625 C 14.570312 23.957031 14.625 24.035156 14.625 24.140625 C 14.625 24.246094 14.523438 24.496094 14.320312 24.875 C 14.132812 25.214844 14.011719 25.492188 13.964844 25.703125 C 13.890625 26.011719 13.851562 26.402344 13.851562 26.871094 C 13.851562 27.605469 13.9375 28.328125 14.109375 29.0625 C 14.125 29.117188 14.265625 29.335938 14.527344 29.734375 C 14.820312 30.179688 14.972656 30.578125 14.96875 30.878906 C 14.957031 31.578125 14.203125 31.945312 12.738281 31.945312 C 11.273438 31.945312 10.511719 31.679688 10.507812 31.152344 C 10.507812 30.90625 10.707031 30.53125 11.109375 29.933594 C 11.265625 29.6875 11.355469 29.523438 11.378906 29.445312 C 11.515625 28.902344 11.585938 28.3125 11.585938 27.6875 C 11.585938 27.214844 11.535156 26.808594 11.4375 26.492188 Z M 13.484375 24.285156 C 13.308594 24.355469 13.207031 24.449219 13.203125 24.542969 C 13.199219 24.632812 13.296875 24.671875 13.484375 24.644531 C 13.542969 24.640625 13.597656 24.628906 13.644531 24.609375 C 13.8125 24.542969 13.910156 24.449219 13.914062 24.351562 C 13.917969 24.253906 13.820312 24.210938 13.632812 24.238281 C 13.582031 24.25 13.53125 24.265625 13.484375 24.285156 Z M 16.4375 28.425781 C 16.625 27.648438 16.71875 26.824219 16.71875 25.988281 C 16.71875 25.523438 16.675781 25.128906 16.597656 24.8125 C 16.546875 24.609375 16.394531 24.347656 16.144531 24.035156 C 16.011719 23.871094 15.945312 23.734375 15.945312 23.625 C 15.945312 23.300781 16.308594 22.933594 17.035156 22.515625 C 17.296875 22.371094 17.574219 22.238281 17.871094 22.121094 C 18.726562 21.777344 19.316406 21.703125 19.632812 21.886719 C 19.730469 21.964844 19.789062 22.066406 19.792969 22.183594 C 19.796875 22.304688 19.691406 22.585938 19.488281 23.015625 C 19.300781 23.410156 19.175781 23.738281 19.121094 24 C 19.050781 24.320312 19.023438 24.796875 19.023438 25.433594 C 19.023438 26.621094 19.109375 27.414062 19.289062 27.773438 C 19.453125 28.097656 19.71875 28.25 20.050781 28.203125 C 20.542969 28.136719 20.980469 27.777344 21.347656 27.261719 C 21.390625 27.210938 21.441406 27.132812 21.507812 27.023438 C 21.777344 26.640625 22.007812 26.40625 22.195312 26.320312 C 22.277344 26.289062 22.359375 26.273438 22.449219 26.269531 C 23.082031 26.253906 23.4375 26.6875 23.53125 27.578125 C 23.546875 27.71875 23.554688 27.863281 23.554688 28.011719 C 23.554688 28.914062 23.355469 29.792969 22.953125 30.628906 C 22.589844 31.386719 22.195312 31.78125 21.777344 31.792969 C 20.453125 31.796875 19.125 31.808594 17.796875 31.816406 C 16.3125 31.816406 15.558594 31.453125 15.554688 30.726562 C 15.554688 30.433594 15.691406 30.046875 15.960938 29.546875 C 16.210938 29.089844 16.375 28.707031 16.4375 28.425781 Z M 24.875 27.539062 C 25.0625 26.628906 25.160156 25.675781 25.160156 24.671875 C 25.160156 24.121094 25.117188 23.632812 25.035156 23.21875 C 24.984375 22.960938 24.835938 22.578125 24.582031 22.085938 C 24.453125 21.828125 24.386719 21.632812 24.386719 21.5 C 24.386719 21.113281 24.75 20.839844 25.476562 20.753906 C 25.738281 20.726562 26.015625 20.730469 26.308594 20.765625 C 27.167969 20.878906 27.753906 21.1875 28.074219 21.585938 C 28.171875 21.730469 28.226562 21.871094 28.234375 22 C 28.238281 22.125 28.128906 22.351562 27.925781 22.6875 C 27.738281 22.996094 27.613281 23.285156 27.558594 23.535156 C 27.492188 23.839844 27.460938 24.335938 27.460938 25.019531 C 27.460938 26.292969 27.546875 27.167969 27.730469 27.605469 C 27.894531 27.996094 28.160156 28.21875 28.488281 28.261719 C 28.980469 28.328125 29.421875 28.144531 29.789062 27.757812 C 29.828125 27.71875 29.882812 27.660156 29.949219 27.574219 C 30.21875 27.292969 30.445312 27.152344 30.632812 27.132812 C 30.714844 27.128906 30.800781 27.140625 30.890625 27.164062 C 31.519531 27.339844 31.878906 27.824219 31.96875 28.550781 C 31.984375 28.667969 31.992188 28.785156 31.992188 28.902344 C 31.992188 29.613281 31.792969 30.25 31.394531 30.894531 C 31.03125 31.476562 30.632812 31.808594 30.21875 31.8125 C 28.890625 31.804688 27.5625 31.796875 26.238281 31.796875 C 25.257812 31.84375 23.984375 31.453125 23.996094 30.308594 C 24 29.925781 24.128906 29.421875 24.402344 28.835938 C 24.648438 28.296875 24.8125 27.867188 24.878906 27.539062 Z M 24.875 27.539062 "/>
</g>
</svg>
