<?xml version="1.0" encoding="UTF-8"?>
<svg xmlns="http://www.w3.org/2000/svg" xmlns:xlink="http://www.w3.org/1999/xlink" width="96px" height="96px" viewBox="0 0 96 96" version="1.1">
<g id="surface1">
<rect x="0" y="0" width="96" height="96" style="fill:rgb(100%,100%,100%);fill-opacity:1;stroke:none;"/>
<path style=" stroke:none;fill-rule:nonzero;fill:rgb(23.137255%,27.843137%,47.45098%);fill-opacity:1;" d="M 28.933594 26.089844 C 29.039062 26.742188 29.359375 27.660156 29.902344 28.820312 C 30.363281 29.8125 30.601562 30.640625 30.59375 31.304688 C 30.582031 33.085938 29.144531 34.089844 26.367188 33.835938 C 24.664062 33.679688 23.542969 32.945312 23.019531 31.84375 C 22.867188 31.519531 22.789062 31.195312 22.789062 30.863281 C 22.789062 30.585938 22.9375 30.089844 23.207031 29.359375 C 23.53125 28.480469 23.746094 27.460938 23.875 26.359375 C 23.945312 25.734375 23.992188 25.21875 23.992188 24.824219 C 23.992188 23.675781 23.621094 22.949219 22.878906 22.640625 C 22.652344 22.558594 22.398438 22.5 22.121094 22.464844 C 21.054688 22.328125 20.445312 22.6875 20.292969 23.570312 C 20.261719 23.785156 20.25 24.015625 20.25 24.273438 C 20.25 24.707031 20.292969 25.21875 20.363281 25.789062 C 20.5 26.917969 20.773438 28.164062 21.21875 29.480469 C 21.371094 29.949219 21.449219 30.320312 21.449219 30.59375 C 21.449219 31.484375 20.980469 32.054688 20.039062 32.226562 C 19.453125 32.324219 18.761719 32.234375 17.960938 31.933594 C 17.925781 31.921875 17.90625 31.914062 17.871094 31.898438 C 15.066406 30.828125 13.652344 29.167969 13.644531 27.652344 C 13.640625 27.054688 13.898438 26.417969 14.40625 25.6875 C 14.882812 25.003906 15.1875 24.378906 15.308594 23.875 C 15.601562 22.609375 15.746094 21.039062 15.746094 19.210938 C 15.746094 18.167969 15.667969 17.179688 15.492188 16.300781 C 15.40625 15.875 15.113281 15.179688 14.636719 14.273438 C 14.390625 13.78125 14.265625 13.417969 14.265625 13.175781 C 14.265625 12.5625 14.953125 12.160156 16.324219 11.933594 C 16.816406 11.851562 17.332031 11.8125 17.875 11.816406 C 19.519531 11.828125 20.628906 12.136719 21.199219 12.765625 C 21.371094 12.996094 21.46875 13.234375 21.472656 13.453125 C 21.484375 13.726562 21.261719 14.308594 20.851562 15.140625 C 20.371094 16.117188 20.136719 16.941406 20.136719 17.640625 C 20.136719 18.738281 20.660156 19.425781 21.707031 19.6875 C 21.84375 19.71875 21.980469 19.738281 22.121094 19.753906 C 23.351562 19.707031 24.0625 19.046875 24.105469 17.941406 C 24.136719 17.226562 23.832031 16.214844 23.277344 15.023438 C 22.941406 14.28125 22.769531 13.773438 22.769531 13.484375 C 22.769531 12.757812 23.453125 12.269531 24.828125 12 C 25.316406 11.90625 25.832031 11.855469 26.375 11.855469 C 28.007812 11.859375 29.113281 12.191406 29.699219 12.855469 C 29.886719 13.078125 29.992188 13.328125 30 13.582031 C 30.007812 13.894531 29.796875 14.496094 29.398438 15.347656 C 29.058594 16.074219 28.84375 16.699219 28.753906 17.207031 C 28.625 17.929688 28.570312 18.9375 28.570312 20.207031 C 28.570312 22.648438 28.691406 24.601562 28.941406 26.097656 Z M 19.347656 12.753906 C 19.019531 12.753906 18.824219 12.894531 18.816406 13.121094 C 18.808594 13.347656 18.992188 13.535156 19.347656 13.65625 C 19.453125 13.695312 19.558594 13.71875 19.648438 13.722656 C 19.972656 13.726562 20.167969 13.585938 20.175781 13.351562 C 20.183594 13.121094 20 12.933594 19.648438 12.8125 C 19.539062 12.773438 19.433594 12.75 19.347656 12.75 Z M 27.847656 12.867188 C 27.5 12.875 27.300781 13.03125 27.292969 13.28125 C 27.285156 13.535156 27.46875 13.730469 27.824219 13.851562 C 27.933594 13.894531 28.035156 13.917969 28.125 13.914062 C 28.46875 13.910156 28.671875 13.753906 28.679688 13.5 C 28.6875 13.246094 28.5 13.046875 28.148438 12.925781 C 28.039062 12.886719 27.9375 12.859375 27.847656 12.863281 Z M 45.425781 22.03125 C 45.875 23.347656 46.574219 24.253906 47.527344 24.726562 C 48.160156 25.03125 48.519531 25.21875 48.613281 25.3125 C 48.9375 25.601562 49.097656 26.054688 49.097656 26.675781 C 49.097656 27.855469 48.527344 28.796875 47.386719 29.511719 C 46.867188 29.835938 46.085938 30.199219 45.054688 30.59375 C 43.085938 31.34375 41.835938 31.453125 41.3125 30.9375 C 41.054688 30.652344 40.921875 30.207031 40.921875 29.605469 C 40.921875 29.417969 40.925781 29.058594 40.945312 28.539062 C 40.96875 27.863281 40.988281 27.371094 40.988281 27.074219 C 40.988281 25.929688 40.75 25.300781 40.273438 25.191406 C 40.089844 25.148438 39.886719 25.152344 39.671875 25.207031 C 38.601562 25.476562 38.058594 26.6875 38.058594 28.773438 C 38.058594 28.894531 38.050781 29.101562 38.058594 29.363281 C 38.0625 29.621094 38.082031 29.820312 38.082031 29.945312 C 38.082031 31.484375 37.550781 32.601562 36.488281 33.308594 C 35.980469 33.640625 35.316406 33.746094 34.5 33.8125 C 32.882812 33.953125 31.898438 33.511719 31.542969 32.578125 C 31.40625 32.214844 31.332031 31.789062 31.332031 31.304688 C 31.332031 30.5 31.566406 29.90625 32.027344 29.523438 C 32.105469 29.464844 32.238281 29.375 32.421875 29.257812 C 33.148438 28.75 33.683594 28.144531 34.039062 27.453125 C 34.148438 27.242188 34.238281 27.039062 34.3125 26.847656 C 35.226562 24.707031 35.957031 22.398438 36.507812 20.144531 C 36.910156 18.507812 37.109375 17.347656 37.109375 16.652344 C 37.109375 16.046875 36.933594 15.367188 36.578125 14.574219 C 36.347656 14.070312 36.234375 13.652344 36.234375 13.328125 C 36.234375 12.652344 37.035156 12.160156 38.632812 11.898438 C 39.125 11.8125 39.628906 11.777344 40.136719 11.773438 C 41.753906 11.761719 42.953125 12.046875 43.738281 12.582031 C 44.03125 12.78125 44.210938 13.003906 44.269531 13.253906 C 44.285156 13.339844 44.289062 13.460938 44.292969 13.609375 C 44.347656 16.394531 44.503906 19.3125 45.425781 22.03125 Z M 39.074219 21.726562 C 39.085938 22.3125 39.328125 22.613281 39.671875 22.539062 C 40.113281 22.441406 40.375 21.96875 40.367188 21.238281 C 40.351562 19.609375 40.105469 18.710938 39.785156 18.722656 C 39.535156 18.734375 39.300781 19.289062 39.164062 20.304688 C 39.101562 20.753906 39.058594 21.242188 39.074219 21.726562 Z M 42.054688 12.730469 C 41.707031 12.75 41.507812 12.898438 41.5 13.125 C 41.492188 13.351562 41.675781 13.527344 42.027344 13.613281 C 42.136719 13.648438 42.238281 13.660156 42.328125 13.652344 C 42.660156 13.628906 42.851562 13.480469 42.859375 13.261719 C 42.867188 13.023438 42.679688 12.84375 42.328125 12.75 C 42.238281 12.734375 42.140625 12.726562 42.054688 12.730469 Z M 62.167969 13.625 C 62.167969 14.375 61.929688 14.988281 61.453125 15.457031 C 61.175781 15.707031 60.871094 15.847656 60.554688 15.863281 C 60.464844 15.867188 60.363281 15.855469 60.253906 15.839844 C 59.980469 15.773438 59.6875 15.546875 59.375 15.121094 C 59.039062 14.65625 58.71875 14.375 58.425781 14.28125 C 58.257812 14.238281 58.082031 14.226562 57.898438 14.238281 C 57.160156 14.300781 56.542969 14.816406 56.050781 15.839844 C 55.65625 16.652344 55.449219 17.53125 55.449219 18.425781 C 55.449219 19.878906 55.925781 20.710938 56.882812 20.863281 C 57.1875 20.914062 57.527344 20.898438 57.898438 20.804688 C 58.4375 20.675781 59 20.25 59.585938 19.570312 C 60.140625 18.921875 60.5 18.632812 60.667969 18.515625 C 61.007812 18.300781 61.351562 18.1875 61.707031 18.179688 C 62.492188 18.15625 63.066406 18.53125 63.417969 19.3125 C 63.601562 19.714844 63.695312 20.15625 63.695312 20.632812 C 63.695312 22.773438 62.601562 24.160156 60.414062 24.890625 C 59.707031 25.132812 58.832031 25.5 57.875 25.832031 C 55.714844 26.582031 52.652344 27.125 50.964844 25.0625 C 50.214844 24.125 49.832031 22.808594 49.832031 21.1875 C 49.832031 18.945312 50.488281 16.75 51.75 14.878906 C 53.078125 12.917969 54.738281 11.898438 56.742188 11.609375 C 57.125 11.546875 57.519531 11.519531 57.921875 11.519531 C 58.132812 11.519531 58.804688 11.585938 59.929688 11.695312 C 60.253906 11.726562 60.523438 11.742188 60.738281 11.742188 C 60.832031 11.742188 60.933594 11.753906 61.039062 11.773438 C 61.59375 11.902344 61.945312 12.328125 62.101562 13.074219 C 62.148438 13.253906 62.171875 13.441406 62.171875 13.625 Z M 59.628906 12.214844 C 59.386719 12.226562 59.242188 12.308594 59.234375 12.421875 C 59.226562 12.566406 59.40625 12.699219 59.742188 12.78125 C 59.882812 12.820312 60.015625 12.84375 60.136719 12.839844 C 60.375 12.832031 60.523438 12.753906 60.53125 12.644531 C 60.539062 12.5 60.359375 12.371094 60.019531 12.273438 C 59.882812 12.230469 59.746094 12.210938 59.628906 12.214844 Z M 71.25 15.265625 C 71.253906 15.660156 71.398438 15.890625 71.640625 15.914062 C 71.941406 15.9375 72.496094 15.605469 73.28125 14.90625 C 73.3125 14.875 73.332031 14.851562 73.351562 14.839844 C 73.675781 14.554688 74.019531 14.105469 74.390625 13.492188 C 74.574219 13.1875 74.773438 12.953125 74.992188 12.792969 C 75.992188 12.089844 77.417969 11.699219 79.242188 11.71875 C 80.4375 11.734375 81.074219 11.957031 81.066406 12.304688 C 81.0625 12.503906 80.886719 12.753906 80.578125 13.003906 C 80.378906 13.175781 79.65625 13.566406 78.40625 14.105469 C 77.605469 14.480469 76.953125 14.796875 76.445312 15.066406 C 75.414062 15.640625 74.882812 16.074219 74.875 16.382812 C 74.875 16.515625 75.066406 16.6875 75.453125 16.90625 C 76.222656 17.355469 76.679688 17.648438 76.816406 17.746094 C 77.722656 18.351562 78.65625 19.5625 79.613281 21.539062 C 79.71875 21.785156 79.859375 22.078125 80.007812 22.402344 C 80.226562 22.878906 80.648438 23.417969 81.253906 24.042969 C 81.792969 24.601562 82.128906 25.101562 82.269531 25.449219 C 82.402344 25.777344 82.480469 26.132812 82.480469 26.507812 C 82.480469 27.746094 81.738281 28.066406 80.261719 27.625 C 79.800781 27.488281 79.234375 27.28125 78.574219 27.027344 C 76.585938 26.261719 75.332031 25.703125 74.808594 25.058594 C 74.546875 24.71875 74.414062 24.328125 74.414062 23.890625 C 74.414062 21.851562 74.152344 20.28125 73.628906 19.195312 C 73.335938 18.585938 72.976562 18.253906 72.566406 18.207031 C 72.125 18.15625 71.773438 18.355469 71.527344 18.78125 C 71.402344 19 71.339844 19.242188 71.34375 19.492188 C 71.34375 19.859375 71.386719 20.199219 71.480469 20.507812 C 71.648438 21.050781 71.878906 21.714844 72.152344 22.492188 C 72.433594 23.292969 72.566406 23.847656 72.566406 24.121094 C 72.566406 24.902344 71.527344 25.09375 69.449219 24.96875 C 69.292969 24.957031 69.132812 24.941406 68.964844 24.933594 C 66.183594 24.726562 64.769531 24.222656 64.757812 23.0625 C 64.757812 22.605469 65.019531 22.011719 65.523438 21.324219 C 65.984375 20.6875 66.277344 20.175781 66.398438 19.792969 C 66.753906 18.703125 66.933594 17.664062 66.933594 16.671875 C 66.933594 15.957031 66.824219 15.269531 66.605469 14.605469 C 66.511719 14.332031 66.230469 13.894531 65.753906 13.320312 C 65.507812 13.007812 65.382812 12.765625 65.382812 12.605469 C 65.382812 12.199219 66.046875 11.925781 67.371094 11.78125 C 67.894531 11.71875 68.433594 11.683594 68.988281 11.6875 C 70.589844 11.6875 71.691406 11.875 72.289062 12.253906 C 72.472656 12.394531 72.582031 12.546875 72.589844 12.6875 C 72.601562 12.847656 72.375 13.207031 71.964844 13.71875 C 71.488281 14.3125 71.242188 14.839844 71.25 15.269531 Z M 26.667969 49.667969 C 26.707031 52.164062 26.753906 54.820312 27.414062 57.289062 C 27.566406 57.886719 28.011719 58.757812 28.746094 59.859375 C 29.367188 60.792969 29.753906 61.671875 29.6875 62.261719 C 29.40625 64.605469 25.933594 64.847656 23.78125 64.398438 C 21.46875 63.917969 18.003906 62.152344 17.878906 59.539062 C 17.84375 58.839844 18.238281 58.066406 18.945312 57.292969 C 19.59375 56.59375 20.007812 55.941406 20.179688 55.386719 C 20.527344 54.238281 20.699219 52.398438 20.699219 50.027344 C 20.699219 48.160156 20.546875 46.40625 20.246094 44.765625 C 20.074219 43.988281 19.753906 43.484375 19.304688 43.269531 C 18.554688 42.914062 17.523438 43.179688 16.289062 43.785156 C 16.265625 43.792969 16.246094 43.804688 16.222656 43.8125 C 15.660156 44.226562 15.164062 44.296875 14.730469 44.066406 C 14.570312 43.984375 14.417969 43.882812 14.277344 43.765625 C 13.414062 43.046875 12.90625 41.878906 12.753906 40.402344 C 12.734375 40.167969 12.71875 39.941406 12.71875 39.726562 C 12.71875 38.1875 13.171875 37.234375 14.082031 36.632812 C 14.667969 36.273438 15.253906 36.222656 15.835938 36.53125 C 21.007812 39.078125 25.660156 40.074219 31.4375 39.980469 C 32.238281 39.933594 32.984375 40.585938 33.675781 41.886719 C 34.28125 43.027344 34.585938 44.210938 34.585938 45.488281 C 34.585938 47.046875 34.207031 48.058594 33.449219 48.53125 C 33.296875 48.609375 33.148438 48.660156 32.996094 48.6875 C 32.390625 48.792969 31.804688 48.488281 31.242188 47.75 C 31.179688 47.660156 31.113281 47.570312 31.046875 47.480469 C 30.53125 46.800781 29.894531 46.21875 29.136719 45.710938 C 28.660156 45.394531 28.261719 45.226562 27.9375 45.214844 C 27.09375 45.359375 26.628906 46.886719 26.671875 49.667969 Z M 30.527344 40.847656 C 30.171875 40.871094 29.953125 41.050781 29.945312 41.316406 C 29.933594 41.652344 30.183594 41.953125 30.65625 42.15625 C 30.851562 42.246094 31.039062 42.289062 31.210938 42.273438 C 31.566406 42.238281 31.78125 42.050781 31.792969 41.785156 C 31.804688 41.449219 31.554688 41.171875 31.078125 40.96875 C 30.886719 40.878906 30.695312 40.832031 30.527344 40.847656 Z M 56.476562 45.621094 C 56.628906 46.300781 57.082031 47.144531 57.839844 48.195312 C 58.484375 49.09375 58.847656 50.007812 58.8125 50.800781 C 58.6875 53.746094 55.359375 55.554688 52.875 56.699219 C 50.476562 57.804688 48.90625 57.96875 48.171875 57.148438 C 47.957031 56.90625 47.847656 56.59375 47.847656 56.207031 C 47.847656 55.882812 48.050781 55.167969 48.433594 54.058594 C 48.890625 52.726562 49.191406 51.339844 49.375 49.953125 C 49.476562 49.160156 49.535156 48.527344 49.535156 48.074219 C 49.535156 46.753906 49.019531 46.246094 47.980469 46.546875 C 47.652344 46.65625 47.296875 46.8125 46.90625 47.023438 C 45.414062 47.820312 44.558594 48.816406 44.34375 50.015625 C 44.300781 50.304688 44.277344 50.597656 44.28125 50.890625 C 44.28125 51.40625 44.347656 51.972656 44.441406 52.574219 C 44.632812 53.78125 45.015625 54.96875 45.644531 56.074219 C 45.859375 56.476562 45.96875 56.839844 45.96875 57.160156 C 45.96875 58.203125 45.308594 59.320312 43.988281 60.460938 C 43.167969 61.15625 42.195312 61.757812 41.070312 62.246094 C 41.019531 62.265625 40.992188 62.28125 40.941406 62.304688 C 38.933594 62.988281 35.324219 64.308594 35.007812 61.546875 C 34.929688 60.882812 35.359375 59.765625 36.078125 58.367188 C 36.746094 57.058594 37.167969 55.933594 37.339844 55.160156 C 37.753906 53.253906 37.960938 51.09375 37.960938 48.648438 C 37.960938 47.257812 37.851562 45.992188 37.601562 44.90625 C 37.480469 44.386719 37.070312 43.640625 36.398438 42.632812 C 36.054688 42.074219 35.882812 41.535156 35.882812 41.175781 C 35.882812 40.265625 36.84375 39.40625 38.769531 38.339844 C 39.460938 37.960938 40.1875 37.613281 40.945312 37.304688 C 43.257812 36.359375 44.8125 36.035156 45.613281 36.398438 C 45.851562 36.558594 45.992188 36.773438 46.003906 37.019531 C 46.019531 37.332031 45.707031 38.160156 45.125 39.460938 C 44.453125 40.972656 44.121094 42.171875 44.121094 43.011719 C 44.121094 44.34375 44.855469 44.722656 46.328125 44.132812 C 46.519531 44.054688 46.714844 43.960938 46.910156 43.859375 C 48.640625 42.753906 49.640625 41.464844 49.699219 40.175781 C 49.738281 39.378906 49.3125 38.472656 48.53125 37.539062 C 48.054688 36.953125 47.816406 36.488281 47.816406 36.164062 C 47.816406 35.339844 48.78125 34.324219 50.707031 33.171875 C 51.394531 32.761719 52.121094 32.390625 52.878906 32.0625 C 55.171875 31.074219 56.726562 30.792969 57.550781 31.125 C 57.808594 31.242188 57.960938 31.433594 57.972656 31.671875 C 57.988281 31.96875 57.6875 32.671875 57.128906 33.765625 C 56.652344 34.699219 56.347656 35.480469 56.222656 36.066406 C 56.046875 36.894531 55.964844 37.988281 55.964844 39.347656 C 55.964844 41.957031 56.136719 44.058594 56.480469 45.617188 Z M 43.015625 37.597656 C 42.546875 37.816406 42.28125 38.109375 42.269531 38.40625 C 42.257812 38.691406 42.515625 38.8125 43.015625 38.722656 C 43.167969 38.703125 43.3125 38.660156 43.4375 38.601562 C 43.90625 38.375 44.171875 38.082031 44.183594 37.789062 C 44.195312 37.507812 43.933594 37.394531 43.4375 37.480469 C 43.285156 37.5 43.140625 37.539062 43.015625 37.597656 Z M 54.953125 32.210938 C 54.460938 32.429688 54.1875 32.707031 54.175781 32.96875 C 54.167969 33.222656 54.425781 33.316406 54.921875 33.222656 C 55.074219 33.199219 55.21875 33.160156 55.34375 33.101562 C 55.835938 32.882812 56.113281 32.613281 56.121094 32.355469 C 56.132812 32.105469 55.871094 32.007812 55.375 32.09375 C 55.222656 32.121094 55.078125 32.15625 54.953125 32.214844 Z M 62.707031 43.058594 C 63.199219 40.84375 63.453125 38.847656 63.453125 36.816406 C 63.453125 35.691406 63.335938 34.734375 63.125 33.941406 C 62.996094 33.445312 62.597656 32.753906 61.925781 31.878906 C 61.582031 31.417969 61.40625 31.054688 61.40625 30.789062 C 61.417969 29.84375 63.125 29.003906 66.5 28.972656 C 70.347656 28.972656 74.292969 29.59375 77.820312 31.195312 C 78.621094 31.542969 79.375 32.46875 80.0625 34.027344 C 80.648438 35.355469 80.9375 36.621094 80.9375 37.699219 C 80.9375 39.101562 80.546875 39.617188 79.769531 39.3125 C 79.632812 39.261719 79.5 39.195312 79.378906 39.113281 C 78.796875 38.738281 78.214844 38.066406 77.628906 37.132812 C 76.9375 36.023438 76.40625 35.332031 76.039062 34.972656 C 75.304688 34.246094 74.417969 33.726562 73.378906 33.453125 C 72.015625 33.097656 70.925781 33.378906 70.105469 34.171875 C 69.695312 34.574219 69.488281 34.984375 69.488281 35.394531 C 69.488281 35.96875 69.867188 36.324219 70.621094 36.511719 C 70.753906 36.550781 70.878906 36.574219 71.011719 36.59375 C 71.507812 36.667969 72.125 36.546875 72.859375 36.257812 C 73.246094 36.113281 73.539062 36.074219 73.734375 36.132812 C 74.273438 36.289062 74.664062 36.863281 74.90625 37.839844 C 74.992188 38.230469 75.035156 38.625 75.035156 39.019531 C 75.035156 40.199219 74.753906 40.875 74.191406 41.085938 C 74.039062 41.128906 73.886719 41.128906 73.738281 41.082031 C 73.542969 41.019531 73.164062 40.695312 72.601562 40.199219 C 72.035156 39.699219 71.484375 39.421875 71.011719 39.359375 C 70.179688 39.25 69.726562 39.566406 69.714844 40.167969 C 69.703125 40.847656 70.09375 41.785156 70.851562 42.785156 C 71.367188 43.390625 71.851562 43.773438 72.28125 43.875 C 73.554688 44.1875 74.742188 43.933594 75.71875 43.136719 C 75.828125 43.066406 75.964844 42.9375 76.140625 42.753906 C 76.851562 42.1875 77.457031 42.1875 77.957031 42.328125 C 78.171875 42.398438 78.398438 42.507812 78.640625 42.664062 C 80.304688 43.75 81.253906 45.535156 81.492188 47.75 C 81.535156 48.101562 81.558594 48.449219 81.558594 48.785156 C 81.558594 50.8125 81.027344 52.296875 79.96875 53.507812 C 79.007812 54.601562 77.957031 54.980469 76.855469 54.535156 C 73.261719 53.261719 70.125 52.703125 66.3125 52.625 C 64.378906 52.800781 60.378906 52.832031 60.375 49.960938 C 60.375 49.082031 60.730469 47.871094 61.445312 46.351562 C 62.105469 44.953125 62.539062 43.851562 62.710938 43.054688 Z M 76.914062 31.433594 C 76.578125 31.3125 76.371094 31.371094 76.359375 31.558594 C 76.347656 31.804688 76.597656 32.121094 77.074219 32.492188 C 77.265625 32.648438 77.453125 32.773438 77.625 32.847656 C 77.960938 32.992188 78.167969 32.949219 78.179688 32.761719 C 78.191406 32.507812 77.941406 32.152344 77.464844 31.78125 C 77.269531 31.621094 77.082031 31.5 76.914062 31.433594 Z M 32.613281 79.210938 C 32.738281 79.660156 33.117188 80.289062 33.75 81.078125 C 34.289062 81.75 34.570312 82.320312 34.5625 82.773438 C 34.546875 83.976562 32.867188 84.589844 29.605469 84.597656 C 27.601562 84.601562 26.289062 84.253906 25.675781 83.527344 C 25.496094 83.3125 25.40625 83.085938 25.40625 82.851562 C 25.40625 82.652344 25.574219 82.28125 25.890625 81.738281 C 26.273438 81.085938 26.527344 80.34375 26.675781 79.554688 C 26.761719 79.105469 26.8125 78.734375 26.8125 78.449219 C 26.8125 77.625 26.375 77.101562 25.507812 76.863281 C 25.238281 76.796875 24.941406 76.75 24.613281 76.71875 C 23.367188 76.59375 22.652344 76.847656 22.472656 77.535156 C 22.4375 77.699219 22.417969 77.882812 22.417969 78.082031 C 22.417969 78.421875 22.472656 78.824219 22.554688 79.261719 C 22.710938 80.128906 23.03125 81.074219 23.554688 82.007812 C 23.734375 82.339844 23.828125 82.605469 23.828125 82.808594 C 23.828125 83.46875 23.273438 83.953125 22.171875 84.289062 C 21.488281 84.488281 20.671875 84.597656 19.734375 84.597656 L 19.625 84.597656 C 16.339844 84.582031 14.675781 83.753906 14.667969 82.140625 C 14.667969 81.5 14.964844 80.707031 15.5625 79.839844 C 16.121094 79.035156 16.476562 78.402344 16.621094 77.902344 C 16.964844 76.652344 17.136719 75.1875 17.136719 73.445312 C 17.136719 72.460938 17.046875 71.5 16.839844 70.597656 C 16.738281 70.160156 16.394531 69.398438 15.835938 68.265625 C 15.546875 67.652344 15.398438 67.207031 15.398438 66.953125 C 15.398438 66.316406 16.207031 66.339844 17.8125 66.800781 C 18.390625 66.96875 18.996094 67.164062 19.628906 67.386719 C 21.5625 68.058594 22.863281 68.558594 23.53125 69.171875 C 23.730469 69.386719 23.847656 69.589844 23.859375 69.761719 C 23.867188 69.972656 23.609375 70.390625 23.125 70.96875 C 22.566406 71.648438 22.285156 72.273438 22.285156 72.832031 C 22.285156 73.707031 22.898438 74.320312 24.128906 74.59375 C 24.292969 74.628906 24.457031 74.65625 24.617188 74.675781 C 26.0625 74.71875 26.898438 74.234375 26.945312 73.441406 C 26.980469 72.929688 26.621094 72.164062 25.972656 71.214844 C 25.574219 70.625 25.378906 70.210938 25.378906 69.992188 C 25.378906 69.441406 26.179688 69.195312 27.789062 69.078125 C 28.367188 69.039062 28.972656 69.019531 29.605469 69.023438 C 31.519531 69.03125 32.820312 69.15625 33.507812 69.59375 C 33.726562 69.738281 33.851562 69.917969 33.859375 70.105469 C 33.871094 70.332031 33.621094 70.808594 33.15625 71.46875 C 32.757812 72.03125 32.5 72.5 32.398438 72.875 C 32.25 73.40625 32.179688 74.144531 32.179688 75.054688 C 32.179688 76.800781 32.328125 78.171875 32.617188 79.207031 Z M 21.367188 68.699219 C 20.976562 68.601562 20.75 68.660156 20.742188 68.84375 C 20.730469 69.03125 20.945312 69.246094 21.367188 69.445312 C 21.492188 69.507812 21.609375 69.558594 21.71875 69.582031 C 22.105469 69.667969 22.332031 69.597656 22.339844 69.414062 C 22.351562 69.230469 22.132812 69.035156 21.71875 68.839844 C 21.589844 68.777344 21.472656 68.726562 21.367188 68.703125 Z M 31.335938 69.746094 C 30.929688 69.765625 30.695312 69.890625 30.6875 70.074219 C 30.675781 70.253906 30.894531 70.398438 31.3125 70.476562 C 31.4375 70.5 31.554688 70.515625 31.664062 70.507812 C 32.070312 70.484375 32.304688 70.351562 32.3125 70.167969 C 32.324219 69.984375 32.105469 69.847656 31.6875 69.773438 C 31.5625 69.75 31.445312 69.738281 31.335938 69.746094 Z M 38.03125 72.117188 C 37.921875 71.742188 37.585938 71.242188 37.027344 70.632812 C 36.738281 70.308594 36.59375 70.035156 36.59375 69.820312 C 36.59375 69.1875 37.398438 68.507812 39.003906 67.679688 C 39.582031 67.390625 40.199219 67.121094 40.847656 66.867188 C 42.761719 66.125 44.054688 65.875 44.722656 66.207031 C 44.960938 66.320312 45.078125 66.496094 45.078125 66.738281 C 45.078125 66.980469 44.851562 67.554688 44.398438 68.417969 C 43.988281 69.199219 43.722656 69.832031 43.613281 70.320312 C 43.457031 71.027344 43.371094 71.917969 43.371094 72.988281 C 43.371094 74.671875 43.558594 76.320312 43.941406 78 C 43.972656 78.125 44.28125 78.621094 44.859375 79.535156 C 45.507812 80.558594 45.84375 81.46875 45.835938 82.15625 C 45.816406 83.753906 44.140625 84.597656 40.902344 84.597656 C 37.667969 84.597656 35.980469 83.988281 35.972656 82.78125 C 35.964844 82.21875 36.414062 81.359375 37.300781 79.988281 C 37.640625 79.433594 37.839844 79.054688 37.894531 78.875 C 38.199219 77.636719 38.355469 76.289062 38.355469 74.859375 C 38.355469 73.773438 38.242188 72.84375 38.03125 72.121094 Z M 42.558594 67.070312 C 42.164062 67.234375 41.941406 67.445312 41.933594 67.660156 C 41.925781 67.867188 42.140625 67.953125 42.558594 67.894531 C 42.683594 67.878906 42.804688 67.855469 42.910156 67.8125 C 43.285156 67.660156 43.5 67.445312 43.503906 67.226562 C 43.515625 67 43.296875 66.90625 42.878906 66.96875 C 42.773438 66.992188 42.660156 67.027344 42.554688 67.070312 Z M 49.085938 76.546875 C 49.5 74.765625 49.710938 72.878906 49.710938 70.964844 C 49.710938 69.90625 49.613281 69 49.441406 68.273438 C 49.328125 67.816406 48.996094 67.214844 48.4375 66.503906 C 48.148438 66.125 48 65.8125 48 65.5625 C 48 64.824219 48.804688 63.984375 50.414062 63.027344 C 50.992188 62.691406 51.605469 62.386719 52.257812 62.121094 C 54.152344 61.332031 55.453125 61.164062 56.160156 61.585938 C 56.375 61.765625 56.503906 62 56.511719 62.265625 C 56.523438 62.539062 56.285156 63.1875 55.835938 64.164062 C 55.421875 65.066406 55.144531 65.824219 55.023438 66.425781 C 54.875 67.148438 54.804688 68.238281 54.804688 69.699219 C 54.804688 72.414062 55 74.226562 55.402344 75.054688 C 55.765625 75.789062 56.351562 76.140625 57.082031 76.035156 C 58.171875 75.878906 59.140625 75.058594 59.953125 73.882812 C 60.046875 73.769531 60.160156 73.585938 60.308594 73.332031 C 60.902344 72.460938 61.40625 71.925781 61.824219 71.730469 C 62.003906 71.660156 62.195312 71.621094 62.394531 71.613281 C 63.785156 71.574219 64.578125 72.570312 64.78125 74.605469 C 64.8125 74.921875 64.832031 75.253906 64.832031 75.601562 C 64.832031 77.664062 64.394531 79.667969 63.507812 81.585938 C 62.703125 83.320312 61.828125 84.21875 60.90625 84.246094 C 57.96875 84.253906 55.035156 84.28125 52.097656 84.300781 C 48.808594 84.304688 47.144531 83.46875 47.140625 81.804688 C 47.136719 81.140625 47.433594 80.25 48.035156 79.113281 C 48.585938 78.058594 48.945312 77.1875 49.089844 76.546875 Z M 67.757812 74.515625 C 68.171875 72.433594 68.382812 70.25 68.382812 67.960938 C 68.382812 66.695312 68.285156 65.582031 68.113281 64.632812 C 68 64.039062 67.667969 63.164062 67.109375 62.042969 C 66.820312 61.449219 66.671875 61.007812 66.671875 60.703125 C 66.671875 59.816406 67.480469 59.195312 69.085938 58.992188 C 69.664062 58.933594 70.28125 58.941406 70.929688 59.027344 C 72.828125 59.28125 74.125 59.992188 74.832031 60.894531 C 75.046875 61.226562 75.175781 61.554688 75.1875 61.84375 C 75.195312 62.128906 74.957031 62.648438 74.507812 63.414062 C 74.09375 64.125 73.816406 64.78125 73.695312 65.355469 C 73.546875 66.054688 73.480469 67.191406 73.480469 68.753906 C 73.480469 71.667969 73.671875 73.671875 74.074219 74.664062 C 74.4375 75.558594 75.019531 76.066406 75.753906 76.167969 C 76.839844 76.316406 77.8125 75.898438 78.625 75.015625 C 78.71875 74.929688 78.832031 74.789062 78.980469 74.597656 C 79.574219 73.953125 80.082031 73.628906 80.496094 73.585938 C 80.675781 73.578125 80.867188 73.601562 81.066406 73.660156 C 82.457031 74.0625 83.25 75.171875 83.449219 76.832031 C 83.488281 77.097656 83.507812 77.363281 83.507812 77.632812 C 83.507812 79.261719 83.0625 80.71875 82.179688 82.191406 C 81.375 83.527344 80.5 84.28125 79.578125 84.292969 C 76.640625 84.273438 73.707031 84.257812 70.769531 84.253906 C 68.601562 84.363281 65.789062 83.46875 65.8125 80.851562 C 65.816406 79.972656 66.105469 78.828125 66.707031 77.484375 C 67.257812 76.25 67.617188 75.265625 67.761719 74.519531 Z M 67.757812 74.515625 "/>
</g>
</svg>
