<?xml version="1.0" encoding="UTF-8"?>
<svg xmlns="http://www.w3.org/2000/svg" xmlns:xlink="http://www.w3.org/1999/xlink" width="128px" height="128px" viewBox="0 0 128 127" version="1.1">
<g id="surface1">
<rect x="0" y="0" width="128" height="127" style="fill:rgb(100%,100%,100%);fill-opacity:1;stroke:none;"/>
<path style=" stroke:none;fill-rule:nonzero;fill:rgb(23.137255%,27.843137%,47.45098%);fill-opacity:1;" d="M 38.578125 34.515625 C 38.71875 35.378906 39.148438 36.59375 39.871094 38.128906 C 40.480469 39.4375 40.800781 40.535156 40.792969 41.414062 C 40.777344 43.769531 38.859375 45.097656 35.15625 44.761719 C 32.886719 44.554688 31.394531 43.585938 30.695312 42.125 C 30.488281 41.699219 30.386719 41.269531 30.386719 40.832031 C 30.386719 40.464844 30.582031 39.804688 30.941406 38.84375 C 31.375 37.675781 31.660156 36.328125 31.835938 34.871094 C 31.929688 34.046875 31.988281 33.363281 31.988281 32.839844 C 31.988281 31.320312 31.496094 30.359375 30.507812 29.949219 C 30.203125 29.839844 29.863281 29.761719 29.492188 29.71875 C 28.074219 29.539062 27.261719 30.011719 27.058594 31.179688 C 27.019531 31.464844 26.996094 31.773438 26.996094 32.109375 C 26.996094 32.683594 27.058594 33.363281 27.152344 34.117188 C 27.335938 35.609375 27.695312 37.257812 28.289062 39 C 28.496094 39.621094 28.597656 40.109375 28.597656 40.472656 C 28.597656 41.648438 27.972656 42.40625 26.71875 42.632812 C 25.9375 42.761719 25.015625 42.640625 23.949219 42.246094 C 23.902344 42.230469 23.875 42.21875 23.828125 42.199219 C 20.089844 40.785156 18.203125 38.585938 18.191406 36.578125 C 18.1875 35.789062 18.53125 34.945312 19.210938 33.980469 C 19.84375 33.078125 20.246094 32.25 20.410156 31.582031 C 20.800781 29.914062 20.996094 27.835938 20.996094 25.414062 C 20.996094 24.035156 20.894531 22.730469 20.65625 21.566406 C 20.539062 21.003906 20.152344 20.082031 19.519531 18.882812 C 19.1875 18.230469 19.023438 17.75 19.023438 17.429688 C 19.023438 16.621094 19.9375 16.085938 21.765625 15.789062 C 22.421875 15.679688 23.109375 15.628906 23.832031 15.632812 C 26.027344 15.648438 27.503906 16.058594 28.265625 16.890625 C 28.492188 17.195312 28.625 17.507812 28.632812 17.796875 C 28.644531 18.15625 28.347656 18.929688 27.800781 20.03125 C 27.160156 21.320312 26.847656 22.414062 26.847656 23.335938 C 26.847656 24.789062 27.546875 25.699219 28.941406 26.042969 C 29.128906 26.085938 29.308594 26.113281 29.496094 26.132812 C 31.136719 26.070312 32.085938 25.195312 32.144531 23.738281 C 32.183594 22.789062 31.777344 21.449219 31.035156 19.875 C 30.585938 18.894531 30.355469 18.21875 30.355469 17.839844 C 30.355469 16.878906 31.269531 16.230469 33.101562 15.875 C 33.757812 15.75 34.445312 15.683594 35.164062 15.683594 C 37.34375 15.6875 38.820312 16.128906 39.597656 17.007812 C 39.847656 17.300781 39.988281 17.632812 40 17.96875 C 40.011719 18.378906 39.726562 19.179688 39.199219 20.300781 C 38.746094 21.265625 38.457031 22.089844 38.339844 22.765625 C 38.167969 23.722656 38.09375 25.050781 38.09375 26.730469 C 38.09375 29.960938 38.253906 32.542969 38.585938 34.523438 Z M 25.796875 16.871094 C 25.355469 16.871094 25.097656 17.058594 25.085938 17.359375 C 25.078125 17.660156 25.324219 17.90625 25.796875 18.066406 C 25.9375 18.121094 26.078125 18.152344 26.195312 18.15625 C 26.632812 18.15625 26.894531 17.972656 26.902344 17.664062 C 26.914062 17.359375 26.664062 17.109375 26.195312 16.949219 C 26.050781 16.898438 25.914062 16.871094 25.796875 16.871094 Z M 37.128906 17.023438 C 36.667969 17.035156 36.402344 17.238281 36.390625 17.570312 C 36.378906 17.90625 36.628906 18.164062 37.097656 18.324219 C 37.242188 18.378906 37.378906 18.410156 37.496094 18.410156 C 37.960938 18.402344 38.226562 18.195312 38.238281 17.859375 C 38.246094 17.523438 38 17.261719 37.53125 17.101562 C 37.386719 17.046875 37.246094 17.015625 37.128906 17.019531 Z M 60.566406 29.144531 C 61.164062 30.890625 62.097656 32.085938 63.371094 32.710938 C 64.210938 33.113281 64.695312 33.363281 64.816406 33.484375 C 65.246094 33.871094 65.460938 34.46875 65.460938 35.289062 C 65.460938 36.851562 64.703125 38.097656 63.183594 39.042969 C 62.488281 39.472656 61.449219 39.953125 60.074219 40.476562 C 57.445312 41.464844 55.78125 41.609375 55.085938 40.925781 C 54.738281 40.550781 54.5625 39.960938 54.5625 39.167969 C 54.5625 38.914062 54.566406 38.441406 54.59375 37.757812 C 54.628906 36.863281 54.652344 36.207031 54.652344 35.816406 C 54.652344 34.304688 54.332031 33.472656 53.699219 33.324219 C 53.453125 33.269531 53.183594 33.273438 52.898438 33.34375 C 51.46875 33.703125 50.742188 35.304688 50.742188 38.0625 C 50.742188 38.226562 50.730469 38.5 50.742188 38.847656 C 50.753906 39.1875 50.777344 39.453125 50.777344 39.617188 C 50.777344 41.648438 50.066406 43.128906 48.652344 44.066406 C 47.972656 44.5 47.085938 44.640625 46 44.730469 C 43.84375 44.917969 42.53125 44.335938 42.058594 43.097656 C 41.871094 42.617188 41.777344 42.054688 41.777344 41.410156 C 41.777344 40.351562 42.085938 39.566406 42.703125 39.054688 C 42.804688 38.980469 42.980469 38.863281 43.230469 38.707031 C 44.195312 38.03125 44.914062 37.230469 45.386719 36.320312 C 45.53125 36.039062 45.652344 35.773438 45.753906 35.519531 C 46.96875 32.6875 47.941406 29.632812 48.679688 26.648438 C 49.210938 24.484375 49.480469 22.953125 49.480469 22.027344 C 49.480469 21.230469 49.242188 20.328125 48.769531 19.28125 C 48.464844 18.617188 48.3125 18.058594 48.3125 17.632812 C 48.3125 16.734375 49.378906 16.085938 51.511719 15.738281 C 52.167969 15.628906 52.839844 15.578125 53.519531 15.574219 C 55.671875 15.5625 57.273438 15.9375 58.320312 16.644531 C 58.710938 16.90625 58.945312 17.203125 59.027344 17.535156 C 59.046875 17.648438 59.054688 17.808594 59.058594 18.007812 C 59.132812 21.6875 59.335938 25.550781 60.570312 29.144531 Z M 52.097656 28.742188 C 52.113281 29.515625 52.4375 29.914062 52.894531 29.816406 C 53.484375 29.691406 53.832031 29.066406 53.820312 28.097656 C 53.800781 25.945312 53.472656 24.75 53.046875 24.769531 C 52.714844 24.78125 52.402344 25.519531 52.21875 26.859375 C 52.136719 27.457031 52.078125 28.101562 52.097656 28.742188 Z M 56.070312 16.839844 C 55.609375 16.863281 55.34375 17.0625 55.332031 17.363281 C 55.320312 17.664062 55.570312 17.894531 56.039062 18.011719 C 56.183594 18.054688 56.320312 18.070312 56.4375 18.0625 C 56.878906 18.03125 57.136719 17.835938 57.144531 17.542969 C 57.15625 17.226562 56.90625 16.992188 56.4375 16.863281 C 56.316406 16.847656 56.1875 16.835938 56.070312 16.839844 Z M 82.894531 18.023438 C 82.894531 19.019531 82.574219 19.828125 81.9375 20.445312 C 81.570312 20.78125 81.160156 20.96875 80.738281 20.988281 C 80.617188 20.992188 80.480469 20.976562 80.339844 20.953125 C 79.972656 20.867188 79.582031 20.566406 79.167969 20.003906 C 78.71875 19.390625 78.292969 19.015625 77.902344 18.894531 C 77.675781 18.835938 77.445312 18.820312 77.195312 18.835938 C 76.210938 18.917969 75.394531 19.601562 74.730469 20.953125 C 74.210938 22.03125 73.933594 23.191406 73.933594 24.375 C 73.933594 26.300781 74.570312 27.398438 75.84375 27.597656 C 76.253906 27.667969 76.703125 27.644531 77.195312 27.523438 C 77.914062 27.351562 78.667969 26.785156 79.445312 25.886719 C 80.1875 25.03125 80.667969 24.648438 80.894531 24.496094 C 81.34375 24.210938 81.804688 24.0625 82.277344 24.050781 C 83.324219 24.019531 84.085938 24.515625 84.554688 25.546875 C 84.804688 26.082031 84.929688 26.667969 84.929688 27.296875 C 84.929688 30.128906 83.46875 31.960938 80.554688 32.925781 C 79.609375 33.25 78.441406 33.730469 77.164062 34.171875 C 74.289062 35.167969 70.203125 35.886719 67.953125 33.15625 C 66.953125 31.914062 66.445312 30.175781 66.445312 28.03125 C 66.445312 25.066406 67.316406 22.15625 69.003906 19.683594 C 70.769531 17.089844 72.984375 15.742188 75.65625 15.359375 C 76.167969 15.277344 76.695312 15.238281 77.230469 15.238281 C 77.511719 15.238281 78.40625 15.324219 79.90625 15.472656 C 80.339844 15.511719 80.695312 15.535156 80.984375 15.535156 C 81.105469 15.535156 81.242188 15.546875 81.386719 15.578125 C 82.125 15.746094 82.59375 16.308594 82.804688 17.296875 C 82.863281 17.535156 82.894531 17.78125 82.894531 18.023438 Z M 79.503906 16.160156 C 79.179688 16.175781 78.988281 16.28125 78.980469 16.433594 C 78.96875 16.625 79.207031 16.800781 79.65625 16.910156 C 79.84375 16.960938 80.019531 16.988281 80.183594 16.984375 C 80.503906 16.976562 80.695312 16.875 80.707031 16.726562 C 80.71875 16.539062 80.480469 16.363281 80.027344 16.238281 C 79.84375 16.179688 79.664062 16.152344 79.503906 16.160156 Z M 94.996094 20.195312 C 95.007812 20.71875 95.199219 21.019531 95.523438 21.050781 C 95.921875 21.082031 96.664062 20.644531 97.710938 19.722656 C 97.75 19.679688 97.777344 19.648438 97.800781 19.632812 C 98.234375 19.253906 98.695312 18.660156 99.1875 17.847656 C 99.433594 17.445312 99.699219 17.136719 99.988281 16.925781 C 101.320312 15.992188 103.222656 15.476562 105.65625 15.503906 C 107.246094 15.523438 108.097656 15.816406 108.085938 16.277344 C 108.085938 16.539062 107.847656 16.871094 107.4375 17.203125 C 107.171875 17.429688 106.210938 17.949219 104.542969 18.660156 C 103.472656 19.15625 102.605469 19.574219 101.925781 19.929688 C 100.550781 20.691406 99.84375 21.265625 99.835938 21.671875 C 99.832031 21.847656 100.089844 22.074219 100.605469 22.363281 C 101.632812 22.960938 102.238281 23.347656 102.421875 23.476562 C 103.632812 24.277344 104.878906 25.878906 106.152344 28.492188 C 106.292969 28.820312 106.476562 29.207031 106.675781 29.636719 C 106.96875 30.265625 107.53125 30.980469 108.339844 31.808594 C 109.058594 32.542969 109.503906 33.207031 109.695312 33.667969 C 109.871094 34.097656 109.972656 34.570312 109.972656 35.066406 C 109.972656 36.707031 108.984375 37.128906 107.015625 36.546875 C 106.402344 36.367188 105.648438 36.09375 104.765625 35.753906 C 102.113281 34.746094 100.441406 34.003906 99.746094 33.148438 C 99.394531 32.699219 99.21875 32.183594 99.21875 31.601562 C 99.21875 28.90625 98.871094 26.832031 98.171875 25.394531 C 97.78125 24.585938 97.304688 24.148438 96.753906 24.085938 C 96.167969 24.019531 95.695312 24.285156 95.371094 24.847656 C 95.203125 25.132812 95.121094 25.457031 95.121094 25.785156 C 95.121094 26.273438 95.183594 26.722656 95.308594 27.128906 C 95.53125 27.847656 95.839844 28.726562 96.203125 29.753906 C 96.578125 30.816406 96.753906 31.550781 96.753906 31.910156 C 96.753906 32.945312 95.371094 33.199219 92.597656 33.035156 C 92.394531 33.019531 92.175781 32.996094 91.953125 32.984375 C 88.242188 32.710938 86.355469 32.046875 86.34375 30.511719 C 86.34375 29.90625 86.695312 29.121094 87.363281 28.210938 C 87.980469 27.367188 88.367188 26.691406 88.53125 26.1875 C 89.007812 24.742188 89.242188 23.367188 89.242188 22.054688 C 89.242188 21.113281 89.097656 20.199219 88.808594 19.324219 C 88.683594 18.957031 88.304688 18.382812 87.671875 17.621094 C 87.34375 17.207031 87.179688 16.890625 87.179688 16.675781 C 87.179688 16.136719 88.0625 15.777344 89.828125 15.582031 C 90.527344 15.5 91.246094 15.453125 91.984375 15.460938 C 94.117188 15.460938 95.585938 15.707031 96.386719 16.210938 C 96.632812 16.394531 96.777344 16.597656 96.789062 16.785156 C 96.800781 17 96.503906 17.46875 95.953125 18.148438 C 95.320312 18.933594 94.988281 19.632812 95.003906 20.199219 Z M 35.558594 65.703125 C 35.605469 69.007812 35.671875 72.519531 36.554688 75.789062 C 36.753906 76.578125 37.347656 77.730469 38.328125 79.191406 C 39.15625 80.425781 39.671875 81.585938 39.582031 82.367188 C 39.207031 85.46875 34.578125 85.789062 31.710938 85.195312 C 28.628906 84.554688 24.007812 82.222656 23.835938 78.765625 C 23.789062 77.839844 24.316406 76.816406 25.261719 75.796875 C 26.128906 74.867188 26.675781 74.007812 26.90625 73.273438 C 27.371094 71.753906 27.597656 69.320312 27.597656 66.179688 C 27.597656 63.710938 27.398438 61.390625 26.996094 59.222656 C 26.765625 58.195312 26.339844 57.523438 25.738281 57.242188 C 24.738281 56.769531 23.363281 57.125 21.71875 57.925781 C 21.6875 57.9375 21.660156 57.949219 21.632812 57.960938 C 20.882812 58.507812 20.21875 58.601562 19.644531 58.296875 C 19.425781 58.1875 19.222656 58.054688 19.035156 57.898438 C 17.886719 56.949219 17.207031 55.402344 17.003906 53.449219 C 16.976562 53.136719 16.960938 52.839844 16.960938 52.554688 C 16.960938 50.519531 17.5625 49.261719 18.777344 48.460938 C 19.554688 47.988281 20.335938 47.921875 21.113281 48.324219 C 28.011719 51.695312 34.214844 53.015625 41.914062 52.890625 C 42.980469 52.828125 43.980469 53.691406 44.902344 55.410156 C 45.710938 56.917969 46.113281 58.484375 46.113281 60.175781 C 46.113281 62.238281 45.605469 63.578125 44.597656 64.203125 C 44.398438 64.308594 44.195312 64.375 43.992188 64.410156 C 43.1875 64.546875 42.40625 64.144531 41.65625 63.171875 C 41.570312 63.050781 41.484375 62.929688 41.398438 62.8125 C 40.707031 61.914062 39.855469 61.144531 38.847656 60.46875 C 38.214844 60.054688 37.679688 59.828125 37.246094 59.816406 C 36.125 60.003906 35.507812 62.027344 35.5625 65.707031 Z M 40.703125 54.039062 C 40.226562 54.070312 39.9375 54.304688 39.925781 54.65625 C 39.910156 55.105469 40.242188 55.5 40.878906 55.769531 C 41.136719 55.890625 41.386719 55.945312 41.613281 55.925781 C 42.089844 55.875 42.378906 55.628906 42.390625 55.277344 C 42.40625 54.835938 42.074219 54.464844 41.4375 54.199219 C 41.179688 54.082031 40.929688 54.019531 40.703125 54.035156 Z M 75.304688 60.351562 C 75.503906 61.25 76.109375 62.367188 77.121094 63.757812 C 77.980469 64.945312 78.460938 66.15625 78.414062 67.207031 C 78.253906 71.101562 73.8125 73.496094 70.503906 75.007812 C 67.304688 76.472656 65.210938 76.691406 64.230469 75.601562 C 63.941406 75.285156 63.796875 74.871094 63.796875 74.359375 C 63.796875 73.929688 64.066406 72.984375 64.578125 71.515625 C 65.1875 69.753906 65.589844 67.917969 65.832031 66.082031 C 65.96875 65.035156 66.046875 64.199219 66.046875 63.597656 C 66.046875 61.851562 65.355469 61.179688 63.972656 61.578125 C 63.539062 61.722656 63.0625 61.929688 62.542969 62.207031 C 60.554688 63.265625 59.414062 64.578125 59.128906 66.167969 C 59.070312 66.550781 59.039062 66.933594 59.039062 67.320312 C 59.039062 68.003906 59.128906 68.757812 59.257812 69.550781 C 59.511719 71.144531 60.023438 72.722656 60.855469 74.183594 C 61.144531 74.714844 61.289062 75.195312 61.289062 75.617188 C 61.289062 76.996094 60.410156 78.472656 58.652344 79.984375 C 57.554688 80.90625 56.261719 81.699219 54.761719 82.347656 C 54.691406 82.375 54.65625 82.390625 54.589844 82.421875 C 51.910156 83.328125 47.097656 85.074219 46.675781 81.421875 C 46.574219 80.542969 47.148438 79.0625 48.101562 77.214844 C 48.992188 75.484375 49.558594 73.992188 49.789062 72.972656 C 50.335938 70.453125 50.613281 67.589844 50.613281 64.359375 C 50.613281 62.519531 50.46875 60.84375 50.136719 59.40625 C 49.972656 58.722656 49.425781 57.734375 48.53125 56.398438 C 48.074219 55.660156 47.84375 54.949219 47.84375 54.472656 C 47.84375 53.269531 49.128906 52.128906 51.695312 50.71875 C 52.613281 50.21875 53.582031 49.757812 54.59375 49.351562 C 57.675781 48.101562 59.753906 47.671875 60.820312 48.152344 C 61.136719 48.363281 61.324219 48.648438 61.335938 48.972656 C 61.355469 49.390625 60.941406 50.484375 60.167969 52.203125 C 59.269531 54.203125 58.828125 55.789062 58.828125 56.902344 C 58.828125 58.664062 59.808594 59.167969 61.769531 58.382812 C 62.027344 58.277344 62.289062 58.15625 62.546875 58.019531 C 64.855469 56.5625 66.1875 54.855469 66.265625 53.148438 C 66.316406 52.097656 65.746094 50.898438 64.707031 49.664062 C 64.074219 48.886719 63.757812 48.273438 63.757812 47.839844 C 63.757812 46.75 65.039062 45.40625 67.605469 43.882812 C 68.527344 43.339844 69.496094 42.847656 70.503906 42.417969 C 73.5625 41.109375 75.636719 40.738281 76.730469 41.175781 C 77.078125 41.332031 77.28125 41.582031 77.296875 41.898438 C 77.316406 42.292969 76.914062 43.222656 76.171875 44.667969 C 75.535156 45.90625 75.128906 46.9375 74.964844 47.714844 C 74.726562 48.808594 74.617188 50.257812 74.617188 52.050781 C 74.617188 55.503906 74.847656 58.285156 75.308594 60.347656 Z M 57.355469 49.738281 C 56.726562 50.03125 56.371094 50.417969 56.355469 50.804688 C 56.34375 51.1875 56.6875 51.34375 57.355469 51.230469 C 57.554688 51.199219 57.746094 51.144531 57.914062 51.066406 C 58.542969 50.769531 58.894531 50.378906 58.914062 49.992188 C 58.925781 49.621094 58.578125 49.46875 57.914062 49.585938 C 57.714844 49.613281 57.523438 49.664062 57.355469 49.738281 Z M 73.269531 42.609375 C 72.613281 42.898438 72.246094 43.265625 72.234375 43.617188 C 72.222656 43.953125 72.566406 44.078125 73.230469 43.953125 C 73.429688 43.917969 73.621094 43.867188 73.789062 43.792969 C 74.449219 43.5 74.816406 43.144531 74.828125 42.804688 C 74.84375 42.472656 74.496094 42.34375 73.835938 42.460938 C 73.632812 42.492188 73.4375 42.539062 73.269531 42.617188 Z M 83.605469 56.964844 C 84.269531 54.03125 84.601562 51.390625 84.601562 48.703125 C 84.601562 47.214844 84.449219 45.953125 84.167969 44.902344 C 83.992188 44.246094 83.460938 43.328125 82.570312 42.175781 C 82.109375 41.5625 81.875 41.082031 81.878906 40.734375 C 81.890625 39.480469 84.167969 38.367188 88.667969 38.328125 C 93.796875 38.328125 99.058594 39.148438 103.761719 41.269531 C 104.828125 41.730469 105.835938 42.957031 106.75 45.011719 C 107.53125 46.773438 107.914062 48.445312 107.914062 49.871094 C 107.914062 51.730469 107.398438 52.410156 106.355469 52.007812 C 106.175781 51.9375 106.003906 51.851562 105.839844 51.746094 C 105.0625 51.246094 104.285156 50.359375 103.503906 49.125 C 102.582031 47.65625 101.875 46.738281 101.386719 46.269531 C 100.40625 45.304688 99.222656 44.617188 97.839844 44.257812 C 96.023438 43.785156 94.566406 44.15625 93.472656 45.207031 C 92.925781 45.738281 92.652344 46.28125 92.652344 46.824219 C 92.652344 47.585938 93.15625 48.054688 94.164062 48.304688 C 94.335938 48.351562 94.507812 48.386719 94.679688 48.414062 C 95.34375 48.511719 96.164062 48.347656 97.144531 47.964844 C 97.664062 47.773438 98.054688 47.722656 98.3125 47.800781 C 99.03125 48.007812 99.550781 48.769531 99.871094 50.058594 C 99.988281 50.574219 100.046875 51.09375 100.046875 51.621094 C 100.046875 53.179688 99.671875 54.074219 98.921875 54.351562 C 98.71875 54.410156 98.519531 54.410156 98.316406 54.347656 C 98.058594 54.265625 97.550781 53.839844 96.804688 53.179688 C 96.046875 52.519531 95.3125 52.152344 94.683594 52.070312 C 93.574219 51.921875 92.96875 52.34375 92.953125 53.140625 C 92.9375 54.039062 93.460938 55.277344 94.46875 56.601562 C 95.15625 57.398438 95.804688 57.90625 96.371094 58.042969 C 98.074219 58.457031 99.65625 58.121094 100.957031 57.070312 C 101.101562 56.972656 101.285156 56.800781 101.519531 56.5625 C 102.46875 55.808594 103.277344 55.808594 103.941406 55.996094 C 104.230469 56.089844 104.53125 56.234375 104.851562 56.441406 C 107.070312 57.875 108.339844 60.238281 108.65625 63.171875 C 108.714844 63.636719 108.742188 64.09375 108.742188 64.539062 C 108.742188 67.222656 108.039062 69.183594 106.625 70.785156 C 105.34375 72.234375 103.941406 72.734375 102.472656 72.144531 C 97.679688 70.464844 93.496094 69.722656 88.414062 69.621094 C 85.839844 69.851562 80.507812 69.890625 80.503906 66.09375 C 80.503906 64.933594 80.972656 63.328125 81.929688 61.316406 C 82.808594 59.46875 83.386719 58.011719 83.613281 56.960938 Z M 102.550781 41.585938 C 102.101562 41.421875 101.828125 41.5 101.8125 41.746094 C 101.796875 42.074219 102.128906 42.492188 102.765625 42.984375 C 103.023438 43.191406 103.269531 43.359375 103.5 43.453125 C 103.945312 43.644531 104.222656 43.589844 104.238281 43.339844 C 104.253906 43.003906 103.921875 42.535156 103.285156 42.042969 C 103.027344 41.832031 102.777344 41.671875 102.550781 41.585938 Z M 43.480469 104.789062 C 43.652344 105.382812 44.15625 106.21875 44.996094 107.257812 C 45.71875 108.144531 46.09375 108.902344 46.085938 109.5 C 46.0625 111.09375 43.820312 111.90625 39.472656 111.914062 C 36.804688 111.921875 35.054688 111.460938 34.234375 110.496094 C 33.992188 110.214844 33.871094 109.917969 33.871094 109.605469 C 33.871094 109.34375 34.097656 108.847656 34.519531 108.128906 C 35.03125 107.269531 35.371094 106.285156 35.570312 105.242188 C 35.683594 104.648438 35.746094 104.15625 35.746094 103.78125 C 35.746094 102.6875 35.167969 102 34.011719 101.679688 C 33.652344 101.597656 33.253906 101.53125 32.820312 101.492188 C 31.15625 101.328125 30.203125 101.660156 29.964844 102.574219 C 29.914062 102.789062 29.890625 103.03125 29.890625 103.296875 C 29.890625 103.746094 29.964844 104.277344 30.070312 104.859375 C 30.28125 106.003906 30.707031 107.253906 31.40625 108.488281 C 31.648438 108.929688 31.769531 109.28125 31.769531 109.550781 C 31.769531 110.425781 31.03125 111.0625 29.5625 111.507812 C 28.652344 111.773438 27.5625 111.914062 26.3125 111.914062 L 26.167969 111.914062 C 21.785156 111.898438 19.570312 110.800781 19.558594 108.664062 C 19.554688 107.820312 19.953125 106.765625 20.753906 105.621094 C 21.496094 104.558594 21.96875 103.722656 22.160156 103.058594 C 22.617188 101.40625 22.847656 99.464844 22.847656 97.164062 C 22.847656 95.859375 22.726562 94.589844 22.453125 93.394531 C 22.316406 92.816406 21.859375 91.808594 21.113281 90.308594 C 20.726562 89.496094 20.53125 88.910156 20.53125 88.574219 C 20.53125 87.734375 21.605469 87.761719 23.75 88.371094 C 24.519531 88.59375 25.328125 88.851562 26.171875 89.144531 C 28.75 90.035156 30.480469 90.695312 31.375 91.507812 C 31.644531 91.796875 31.796875 92.0625 31.8125 92.292969 C 31.824219 92.566406 31.480469 93.117188 30.835938 93.886719 C 30.085938 94.785156 29.714844 95.613281 29.714844 96.347656 C 29.714844 97.511719 30.53125 98.320312 32.171875 98.683594 C 32.390625 98.730469 32.605469 98.765625 32.820312 98.789062 C 34.75 98.847656 35.863281 98.203125 35.929688 97.160156 C 35.972656 96.476562 35.496094 95.464844 34.628906 94.210938 C 34.097656 93.429688 33.835938 92.882812 33.835938 92.59375 C 33.835938 91.867188 34.90625 91.539062 37.054688 91.386719 C 37.824219 91.332031 38.628906 91.308594 39.472656 91.3125 C 42.027344 91.320312 43.761719 91.488281 44.679688 92.066406 C 44.96875 92.257812 45.136719 92.496094 45.148438 92.742188 C 45.160156 93.042969 44.828125 93.675781 44.210938 94.546875 C 43.675781 95.289062 43.335938 95.914062 43.195312 96.410156 C 42.996094 97.113281 42.90625 98.085938 42.90625 99.289062 C 42.90625 101.601562 43.101562 103.414062 43.488281 104.785156 Z M 28.488281 90.882812 C 27.96875 90.753906 27.667969 90.832031 27.65625 91.074219 C 27.644531 91.320312 27.929688 91.609375 28.488281 91.871094 C 28.65625 91.953125 28.8125 92.019531 28.957031 92.050781 C 29.472656 92.167969 29.777344 92.070312 29.789062 91.832031 C 29.800781 91.585938 29.511719 91.328125 28.957031 91.070312 C 28.789062 90.984375 28.628906 90.921875 28.488281 90.886719 Z M 41.78125 92.269531 C 41.238281 92.296875 40.929688 92.457031 40.914062 92.703125 C 40.902344 92.941406 41.191406 93.132812 41.746094 93.234375 C 41.914062 93.269531 42.074219 93.285156 42.21875 93.277344 C 42.761719 93.246094 43.070312 93.070312 43.085938 92.824219 C 43.097656 92.582031 42.804688 92.402344 42.253906 92.304688 C 42.085938 92.277344 41.925781 92.257812 41.78125 92.265625 Z M 50.707031 95.40625 C 50.5625 94.910156 50.113281 94.246094 49.371094 93.441406 C 48.980469 93.011719 48.789062 92.652344 48.789062 92.367188 C 48.789062 91.527344 49.863281 90.628906 52.007812 89.535156 C 52.777344 89.148438 53.597656 88.792969 54.464844 88.460938 C 57.019531 87.476562 58.738281 87.148438 59.632812 87.585938 C 59.945312 87.734375 60.101562 87.96875 60.101562 88.289062 C 60.101562 88.609375 59.800781 89.367188 59.199219 90.507812 C 58.652344 91.546875 58.296875 92.382812 58.152344 93.027344 C 57.941406 93.960938 57.828125 95.140625 57.828125 96.558594 C 57.828125 98.785156 58.078125 100.964844 58.585938 103.191406 C 58.632812 103.355469 59.042969 104.011719 59.8125 105.21875 C 60.679688 106.570312 61.128906 107.777344 61.113281 108.6875 C 61.085938 110.800781 58.855469 111.914062 54.539062 111.914062 C 50.222656 111.914062 47.972656 111.109375 47.960938 109.511719 C 47.953125 108.769531 48.550781 107.632812 49.730469 105.820312 C 50.1875 105.085938 50.453125 104.582031 50.527344 104.347656 C 50.933594 102.710938 51.140625 100.925781 51.140625 99.03125 C 51.140625 97.59375 50.988281 96.367188 50.707031 95.410156 Z M 56.742188 88.726562 C 56.21875 88.945312 55.921875 89.226562 55.910156 89.507812 C 55.902344 89.78125 56.1875 89.898438 56.742188 89.820312 C 56.914062 89.800781 57.070312 89.769531 57.210938 89.710938 C 57.710938 89.507812 57.996094 89.226562 58.007812 88.9375 C 58.019531 88.636719 57.726562 88.507812 57.171875 88.59375 C 57.03125 88.625 56.882812 88.671875 56.738281 88.726562 Z M 65.449219 101.265625 C 66.003906 98.90625 66.28125 96.414062 66.28125 93.878906 C 66.28125 92.476562 66.152344 91.285156 65.921875 90.320312 C 65.773438 89.71875 65.328125 88.917969 64.582031 87.976562 C 64.195312 87.476562 64.003906 87.066406 64.003906 86.734375 C 64.003906 85.757812 65.074219 84.644531 67.21875 83.382812 C 67.988281 82.9375 68.808594 82.535156 69.675781 82.179688 C 72.203125 81.140625 73.9375 80.914062 74.878906 81.472656 C 75.167969 81.707031 75.335938 82.023438 75.347656 82.375 C 75.363281 82.734375 75.046875 83.589844 74.449219 84.882812 C 73.894531 86.078125 73.527344 87.078125 73.363281 87.875 C 73.164062 88.832031 73.074219 90.273438 73.074219 92.207031 C 73.074219 95.796875 73.332031 98.195312 73.871094 99.289062 C 74.351562 100.265625 75.136719 100.730469 76.109375 100.589844 C 77.5625 100.382812 78.855469 99.296875 79.9375 97.742188 C 80.0625 97.589844 80.214844 97.347656 80.410156 97.011719 C 81.203125 95.859375 81.878906 95.152344 82.429688 94.894531 C 82.671875 94.800781 82.925781 94.746094 83.191406 94.738281 C 85.046875 94.6875 86.105469 96.007812 86.371094 98.695312 C 86.417969 99.117188 86.445312 99.554688 86.445312 100.011719 C 86.445312 102.742188 85.859375 105.394531 84.675781 107.929688 C 83.601562 110.226562 82.4375 111.417969 81.207031 111.449219 C 77.292969 111.460938 73.378906 111.496094 69.460938 111.523438 C 65.078125 111.527344 62.859375 110.421875 62.851562 108.21875 C 62.847656 107.339844 63.246094 106.167969 64.046875 104.65625 C 64.78125 103.265625 65.261719 102.113281 65.453125 101.265625 Z M 90.34375 98.578125 C 90.898438 95.820312 91.179688 92.9375 91.179688 89.90625 C 91.179688 88.230469 91.046875 86.761719 90.816406 85.503906 C 90.667969 84.71875 90.222656 83.558594 89.480469 82.074219 C 89.09375 81.292969 88.898438 80.707031 88.898438 80.304688 C 88.898438 79.132812 89.972656 78.308594 92.113281 78.042969 C 92.886719 77.960938 93.707031 77.972656 94.574219 78.085938 C 97.101562 78.425781 98.835938 79.363281 99.777344 80.558594 C 100.0625 80.996094 100.234375 81.429688 100.246094 81.8125 C 100.261719 82.191406 99.941406 82.878906 99.34375 83.894531 C 98.789062 84.828125 98.421875 85.703125 98.261719 86.460938 C 98.0625 87.386719 97.972656 88.886719 97.972656 90.957031 C 97.972656 94.808594 98.226562 97.460938 98.765625 98.773438 C 99.25 99.957031 100.027344 100.632812 101.003906 100.765625 C 102.453125 100.960938 103.75 100.410156 104.835938 99.238281 C 104.957031 99.128906 105.109375 98.941406 105.304688 98.683594 C 106.097656 97.832031 106.777344 97.40625 107.328125 97.347656 C 107.570312 97.335938 107.820312 97.367188 108.085938 97.445312 C 109.941406 97.980469 111.003906 99.445312 111.269531 101.644531 C 111.316406 101.992188 111.34375 102.347656 111.34375 102.703125 C 111.34375 104.855469 110.753906 106.785156 109.570312 108.734375 C 108.5 110.5 107.332031 111.5 106.101562 111.515625 C 102.1875 111.488281 98.277344 111.464844 94.355469 111.460938 C 91.46875 111.601562 87.71875 110.421875 87.746094 106.960938 C 87.757812 105.796875 88.140625 104.28125 88.941406 102.503906 C 89.675781 100.875 90.15625 99.566406 90.347656 98.582031 Z M 90.34375 98.578125 "/>
</g>
</svg>
