<?xml version="1.0" encoding="UTF-8"?>
<svg xmlns="http://www.w3.org/2000/svg" xmlns:xlink="http://www.w3.org/1999/xlink" width="96px" height="96px" viewBox="0 0 96 96" version="1.1">
<g id="surface1">
<path style=" stroke:none;fill-rule:nonzero;fill:rgb(23.137255%,27.843137%,47.45098%);fill-opacity:1;" d="M 21.980469 19.109375 C 22.128906 19.964844 22.566406 21.171875 23.296875 22.691406 C 23.921875 23.988281 24.246094 25.078125 24.238281 25.949219 C 24.21875 28.28125 22.273438 29.601562 18.507812 29.265625 C 16.195312 29.0625 14.675781 28.101562 13.96875 26.652344 C 13.757812 26.230469 13.65625 25.804688 13.65625 25.371094 C 13.65625 25.007812 13.855469 24.351562 14.21875 23.398438 C 14.660156 22.238281 14.949219 20.90625 15.125 19.460938 C 15.222656 18.644531 15.28125 17.964844 15.28125 17.445312 C 15.28125 15.941406 14.78125 14.988281 13.78125 14.582031 C 13.464844 14.476562 13.121094 14.398438 12.746094 14.351562 C 11.300781 14.175781 10.480469 14.644531 10.269531 15.804688 C 10.226562 16.085938 10.210938 16.390625 10.210938 16.722656 C 10.210938 17.292969 10.269531 17.964844 10.363281 18.710938 C 10.550781 20.195312 10.917969 21.828125 11.523438 23.550781 C 11.730469 24.171875 11.835938 24.65625 11.835938 25.015625 C 11.835938 26.179688 11.199219 26.929688 9.925781 27.15625 C 9.132812 27.28125 8.191406 27.164062 7.109375 26.773438 C 7.058594 26.753906 7.03125 26.746094 6.984375 26.726562 C 3.183594 25.320312 1.261719 23.144531 1.253906 21.15625 C 1.25 20.371094 1.597656 19.535156 2.289062 18.574219 C 2.929688 17.683594 3.34375 16.867188 3.507812 16.199219 C 3.90625 14.542969 4.105469 12.484375 4.105469 10.085938 C 4.105469 8.71875 4 7.425781 3.757812 6.269531 C 3.640625 5.714844 3.246094 4.800781 2.601562 3.613281 C 2.265625 2.964844 2.097656 2.488281 2.097656 2.171875 C 2.097656 1.367188 3.027344 0.839844 4.886719 0.546875 C 5.554688 0.4375 6.253906 0.382812 6.988281 0.390625 C 9.21875 0.402344 10.722656 0.808594 11.496094 1.636719 C 11.726562 1.9375 11.863281 2.25 11.871094 2.53125 C 11.886719 2.894531 11.582031 3.65625 11.027344 4.75 C 10.375 6.027344 10.054688 7.109375 10.054688 8.027344 C 10.054688 9.46875 10.765625 10.371094 12.183594 10.707031 C 12.375 10.753906 12.558594 10.78125 12.746094 10.796875 C 14.417969 10.734375 15.378906 9.871094 15.441406 8.421875 C 15.480469 7.480469 15.066406 6.15625 14.316406 4.59375 C 13.855469 3.625 13.625 2.953125 13.625 2.578125 C 13.625 1.625 14.550781 0.980469 16.414062 0.628906 C 17.082031 0.503906 17.78125 0.441406 18.511719 0.441406 C 20.726562 0.445312 22.230469 0.882812 23.023438 1.753906 C 23.273438 2.046875 23.421875 2.371094 23.429688 2.703125 C 23.441406 3.113281 23.15625 3.902344 22.617188 5.015625 C 22.15625 5.972656 21.863281 6.792969 21.742188 7.460938 C 21.566406 8.40625 21.492188 9.730469 21.492188 11.390625 C 21.492188 14.59375 21.65625 17.15625 21.992188 19.117188 Z M 8.984375 1.617188 C 8.539062 1.617188 8.273438 1.804688 8.265625 2.097656 C 8.253906 2.398438 8.507812 2.640625 8.984375 2.800781 C 9.132812 2.855469 9.273438 2.886719 9.390625 2.890625 C 9.839844 2.894531 10.101562 2.710938 10.113281 2.40625 C 10.121094 2.097656 9.871094 1.855469 9.390625 1.695312 C 9.246094 1.644531 9.105469 1.613281 8.984375 1.613281 Z M 20.511719 1.769531 C 20.042969 1.777344 19.769531 1.980469 19.761719 2.3125 C 19.75 2.640625 20 2.898438 20.480469 3.058594 C 20.625 3.113281 20.765625 3.144531 20.886719 3.140625 C 21.355469 3.136719 21.628906 2.929688 21.636719 2.597656 C 21.648438 2.265625 21.394531 2.003906 20.917969 1.84375 C 20.773438 1.789062 20.632812 1.761719 20.511719 1.761719 Z M 44.34375 13.78125 C 44.953125 15.515625 45.902344 16.695312 47.195312 17.316406 C 48.050781 17.71875 48.542969 17.964844 48.667969 18.085938 C 49.105469 18.46875 49.324219 19.0625 49.324219 19.875 C 49.324219 21.425781 48.554688 22.660156 47.007812 23.597656 C 46.296875 24.023438 45.242188 24.5 43.84375 25.015625 C 41.171875 26 39.480469 26.140625 38.769531 25.464844 C 38.417969 25.09375 38.238281 24.507812 38.238281 23.71875 C 38.238281 23.472656 38.246094 23 38.269531 22.320312 C 38.304688 21.433594 38.332031 20.785156 38.332031 20.398438 C 38.332031 18.898438 38.007812 18.074219 37.363281 17.929688 C 37.113281 17.875 36.839844 17.878906 36.550781 17.945312 C 35.09375 18.300781 34.355469 19.886719 34.355469 22.625 C 34.355469 22.789062 34.34375 23.058594 34.355469 23.402344 C 34.363281 23.738281 34.386719 24.003906 34.386719 24.167969 C 34.386719 26.179688 33.667969 27.644531 32.226562 28.578125 C 31.535156 29.007812 30.640625 29.148438 29.53125 29.238281 C 27.339844 29.425781 26.003906 28.84375 25.523438 27.621094 C 25.332031 27.136719 25.238281 26.582031 25.238281 25.945312 C 25.238281 24.894531 25.550781 24.117188 26.179688 23.609375 C 26.285156 23.535156 26.464844 23.417969 26.714844 23.261719 C 27.695312 22.59375 28.425781 21.804688 28.90625 20.898438 C 29.054688 20.621094 29.175781 20.355469 29.28125 20.101562 C 30.519531 17.296875 31.507812 14.265625 32.253906 11.308594 C 32.800781 9.167969 33.070312 7.644531 33.070312 6.730469 C 33.070312 5.9375 32.828125 5.042969 32.347656 4.003906 C 32.039062 3.347656 31.882812 2.796875 31.882812 2.371094 C 31.882812 1.484375 32.96875 0.839844 35.140625 0.492188 C 35.808594 0.386719 36.484375 0.335938 37.175781 0.332031 C 39.371094 0.316406 40.996094 0.691406 42.0625 1.390625 C 42.457031 1.652344 42.699219 1.945312 42.78125 2.273438 C 42.800781 2.386719 42.804688 2.546875 42.8125 2.742188 C 42.886719 6.390625 43.097656 10.222656 44.347656 13.78125 Z M 35.730469 13.386719 C 35.75 14.152344 36.082031 14.546875 36.546875 14.449219 C 37.144531 14.324219 37.496094 13.703125 37.484375 12.75 C 37.464844 10.609375 37.132812 9.429688 36.703125 9.445312 C 36.359375 9.460938 36.042969 10.1875 35.855469 11.519531 C 35.769531 12.109375 35.710938 12.75 35.730469 13.382812 Z M 39.773438 1.585938 C 39.304688 1.609375 39.03125 1.804688 39.019531 2.105469 C 39.011719 2.40625 39.261719 2.628906 39.742188 2.746094 C 39.886719 2.789062 40.027344 2.808594 40.148438 2.800781 C 40.59375 2.765625 40.859375 2.570312 40.867188 2.28125 C 40.875 1.96875 40.625 1.738281 40.148438 1.609375 C 40.023438 1.59375 39.894531 1.582031 39.773438 1.585938 Z M 67.050781 2.761719 C 67.050781 3.746094 66.726562 4.546875 66.082031 5.160156 C 65.703125 5.492188 65.289062 5.679688 64.859375 5.699219 C 64.738281 5.703125 64.597656 5.6875 64.453125 5.664062 C 64.078125 5.582031 63.683594 5.277344 63.261719 4.722656 C 62.804688 4.113281 62.375 3.742188 61.976562 3.625 C 61.746094 3.566406 61.507812 3.546875 61.257812 3.566406 C 60.257812 3.648438 59.421875 4.324219 58.753906 5.664062 C 58.21875 6.734375 57.9375 7.878906 57.9375 9.058594 C 57.9375 10.96875 58.585938 12.054688 59.882812 12.253906 C 60.296875 12.324219 60.753906 12.296875 61.257812 12.179688 C 61.988281 12.007812 62.753906 11.445312 63.546875 10.558594 C 64.296875 9.707031 64.789062 9.324219 65.015625 9.175781 C 65.476562 8.894531 65.945312 8.746094 66.425781 8.734375 C 67.492188 8.703125 68.261719 9.195312 68.742188 10.21875 C 68.992188 10.75 69.121094 11.328125 69.121094 11.953125 C 69.121094 14.757812 67.636719 16.574219 64.671875 17.535156 C 63.710938 17.851562 62.523438 18.332031 61.222656 18.769531 C 58.300781 19.753906 54.144531 20.46875 51.859375 17.761719 C 50.835938 16.53125 50.324219 14.808594 50.324219 12.679688 C 50.324219 9.742188 51.207031 6.859375 52.921875 4.40625 C 54.722656 1.835938 56.976562 0.496094 59.691406 0.117188 C 60.210938 0.0390625 60.746094 0 61.289062 0 C 61.582031 0 62.488281 0.0859375 64.015625 0.230469 C 64.453125 0.269531 64.816406 0.292969 65.109375 0.292969 C 65.234375 0.292969 65.371094 0.304688 65.519531 0.332031 C 66.269531 0.5 66.75 1.058594 66.957031 2.035156 C 67.023438 2.273438 67.054688 2.519531 67.054688 2.761719 Z M 63.605469 0.914062 C 63.277344 0.929688 63.082031 1.03125 63.070312 1.183594 C 63.058594 1.371094 63.300781 1.546875 63.757812 1.65625 C 63.949219 1.707031 64.128906 1.734375 64.292969 1.730469 C 64.617188 1.722656 64.816406 1.621094 64.828125 1.472656 C 64.839844 1.289062 64.59375 1.113281 64.136719 0.988281 C 63.949219 0.933594 63.765625 0.90625 63.605469 0.914062 Z M 79.359375 4.914062 C 79.371094 5.433594 79.566406 5.730469 79.894531 5.761719 C 80.300781 5.796875 81.054688 5.355469 82.117188 4.445312 C 82.160156 4.402344 82.1875 4.371094 82.210938 4.355469 C 82.652344 3.976562 83.121094 3.390625 83.621094 2.585938 C 83.871094 2.1875 84.140625 1.882812 84.433594 1.671875 C 85.789062 0.746094 87.726562 0.234375 90.195312 0.261719 C 91.816406 0.28125 92.679688 0.570312 92.671875 1.03125 C 92.667969 1.289062 92.429688 1.617188 92.011719 1.945312 C 91.742188 2.171875 90.761719 2.683594 89.066406 3.390625 C 87.980469 3.882812 87.09375 4.296875 86.40625 4.648438 C 85.007812 5.40625 84.289062 5.972656 84.277344 6.375 C 84.277344 6.550781 84.539062 6.777344 85.0625 7.0625 C 86.105469 7.652344 86.722656 8.035156 86.910156 8.164062 C 88.140625 8.960938 89.40625 10.546875 90.703125 13.136719 C 90.847656 13.464844 91.03125 13.847656 91.234375 14.269531 C 91.53125 14.898438 92.109375 15.605469 92.925781 16.421875 C 93.660156 17.15625 94.113281 17.808594 94.304688 18.269531 C 94.484375 18.695312 94.589844 19.164062 94.589844 19.652344 C 94.589844 21.28125 93.585938 21.699219 91.582031 21.121094 C 90.957031 20.945312 90.191406 20.671875 89.292969 20.335938 C 86.597656 19.335938 84.898438 18.601562 84.1875 17.753906 C 83.832031 17.308594 83.652344 16.796875 83.652344 16.222656 C 83.652344 13.550781 83.296875 11.492188 82.589844 10.066406 C 82.191406 9.265625 81.703125 8.832031 81.148438 8.769531 C 80.550781 8.703125 80.070312 8.964844 79.738281 9.523438 C 79.570312 9.808594 79.484375 10.128906 79.488281 10.457031 C 79.488281 10.9375 79.550781 11.382812 79.675781 11.789062 C 79.902344 12.5 80.21875 13.367188 80.585938 14.390625 C 80.964844 15.441406 81.148438 16.167969 81.148438 16.527344 C 81.148438 17.550781 79.738281 17.804688 76.921875 17.636719 C 76.710938 17.625 76.492188 17.605469 76.261719 17.589844 C 72.492188 17.320312 70.574219 16.660156 70.5625 15.140625 C 70.558594 14.539062 70.917969 13.761719 71.597656 12.855469 C 72.222656 12.023438 72.617188 11.351562 72.789062 10.851562 C 73.269531 9.421875 73.507812 8.058594 73.507812 6.753906 C 73.507812 5.820312 73.359375 4.917969 73.066406 4.046875 C 72.941406 3.683594 72.558594 3.117188 71.90625 2.359375 C 71.574219 1.949219 71.40625 1.636719 71.40625 1.425781 C 71.40625 0.890625 72.304688 0.53125 74.101562 0.339844 C 74.8125 0.257812 75.542969 0.214844 76.296875 0.21875 C 78.46875 0.21875 79.960938 0.464844 80.773438 0.960938 C 81.023438 1.144531 81.171875 1.34375 81.179688 1.53125 C 81.191406 1.742188 80.890625 2.210938 80.335938 2.882812 C 79.6875 3.664062 79.351562 4.355469 79.363281 4.917969 Z M 18.914062 50.027344 C 18.960938 53.304688 19.027344 56.785156 19.925781 60.023438 C 20.132812 60.808594 20.730469 61.953125 21.730469 63.398438 C 22.574219 64.621094 23.097656 65.773438 23.003906 66.546875 C 22.625 69.621094 17.917969 69.9375 15 69.351562 C 11.863281 68.71875 7.164062 66.402344 6.992188 62.976562 C 6.945312 62.058594 7.480469 61.042969 8.445312 60.03125 C 9.324219 59.109375 9.878906 58.257812 10.117188 57.53125 C 10.585938 56.027344 10.820312 53.613281 10.820312 50.5 C 10.820312 48.054688 10.613281 45.75 10.207031 43.601562 C 9.972656 42.582031 9.539062 41.917969 8.929688 41.636719 C 7.90625 41.167969 6.511719 41.523438 4.839844 42.316406 C 4.808594 42.328125 4.78125 42.339844 4.75 42.351562 C 3.988281 42.894531 3.3125 42.984375 2.726562 42.683594 C 2.507812 42.574219 2.300781 42.445312 2.113281 42.289062 C 0.941406 41.347656 0.25 39.816406 0.046875 37.875 C 0.015625 37.570312 0 37.273438 0 36.988281 C 0 34.976562 0.613281 33.726562 1.847656 32.933594 C 2.636719 32.464844 3.433594 32.398438 4.222656 32.800781 C 11.242188 36.140625 17.546875 37.445312 25.378906 37.324219 C 26.464844 37.265625 27.476562 38.121094 28.414062 39.824219 C 29.238281 41.316406 29.644531 42.871094 29.644531 44.546875 C 29.644531 46.59375 29.132812 47.921875 28.109375 48.542969 C 27.902344 48.644531 27.695312 48.707031 27.492188 48.742188 C 26.671875 48.882812 25.875 48.480469 25.117188 47.515625 C 25.027344 47.398438 24.941406 47.277344 24.851562 47.160156 C 24.148438 46.273438 23.285156 45.507812 22.257812 44.839844 C 21.613281 44.429688 21.070312 44.203125 20.632812 44.1875 C 19.492188 44.375 18.859375 46.382812 18.917969 50.03125 Z M 24.148438 38.460938 C 23.660156 38.496094 23.367188 38.726562 23.355469 39.078125 C 23.339844 39.519531 23.679688 39.914062 24.320312 40.179688 C 24.585938 40.296875 24.84375 40.355469 25.070312 40.332031 C 25.554688 40.285156 25.847656 40.039062 25.863281 39.691406 C 25.875 39.253906 25.539062 38.886719 24.894531 38.625 C 24.632812 38.507812 24.375 38.441406 24.148438 38.460938 Z M 59.332031 44.71875 C 59.535156 45.609375 60.152344 46.71875 61.179688 48.097656 C 62.054688 49.273438 62.542969 50.476562 62.496094 51.515625 C 62.332031 55.382812 57.820312 57.75 54.449219 59.25 C 51.195312 60.703125 49.066406 60.917969 48.070312 59.835938 C 47.777344 59.527344 47.632812 59.113281 47.632812 58.605469 C 47.632812 58.183594 47.90625 57.246094 48.421875 55.789062 C 49.042969 54.042969 49.453125 52.21875 49.699219 50.402344 C 49.839844 49.363281 49.921875 48.535156 49.921875 47.941406 C 49.921875 46.207031 49.21875 45.546875 47.808594 45.9375 C 47.367188 46.078125 46.882812 46.289062 46.355469 46.5625 C 44.332031 47.609375 43.175781 48.914062 42.882812 50.488281 C 42.820312 50.867188 42.792969 51.25 42.792969 51.632812 C 42.792969 52.308594 42.882812 53.054688 43.015625 53.839844 C 43.273438 55.421875 43.792969 56.984375 44.640625 58.433594 C 44.933594 58.960938 45.082031 59.4375 45.082031 59.855469 C 45.082031 61.222656 44.1875 62.6875 42.398438 64.183594 C 41.28125 65.097656 39.964844 65.886719 38.441406 66.527344 C 38.371094 66.554688 38.339844 66.570312 38.265625 66.601562 C 35.542969 67.5 30.648438 69.230469 30.21875 65.609375 C 30.113281 64.738281 30.699219 63.273438 31.671875 61.4375 C 32.574219 59.722656 33.152344 58.246094 33.382812 57.234375 C 33.941406 54.738281 34.21875 51.898438 34.21875 48.691406 C 34.21875 46.871094 34.078125 45.207031 33.738281 43.785156 C 33.574219 43.105469 33.015625 42.125 32.109375 40.800781 C 31.640625 40.066406 31.40625 39.367188 31.40625 38.894531 C 31.40625 37.699219 32.710938 36.570312 35.320312 35.171875 C 36.257812 34.675781 37.242188 34.21875 38.269531 33.816406 C 41.40625 32.578125 43.519531 32.148438 44.601562 32.628906 C 44.925781 32.835938 45.117188 33.117188 45.128906 33.441406 C 45.148438 33.855469 44.726562 34.9375 43.941406 36.640625 C 43.027344 38.625 42.578125 40.199219 42.578125 41.300781 C 42.578125 43.046875 43.574219 43.546875 45.566406 42.769531 C 45.832031 42.664062 46.097656 42.546875 46.359375 42.410156 C 48.707031 40.964844 50.0625 39.273438 50.140625 37.582031 C 50.191406 36.539062 49.613281 35.347656 48.558594 34.125 C 47.910156 33.355469 47.589844 32.746094 47.589844 32.320312 C 47.589844 31.238281 48.894531 29.90625 51.503906 28.398438 C 52.441406 27.855469 53.425781 27.371094 54.453125 26.941406 C 57.5625 25.644531 59.671875 25.277344 60.785156 25.710938 C 61.136719 25.863281 61.34375 26.117188 61.359375 26.425781 C 61.378906 26.820312 60.972656 27.742188 60.214844 29.175781 C 59.570312 30.402344 59.15625 31.425781 58.984375 32.191406 C 58.746094 33.28125 58.632812 34.714844 58.632812 36.492188 C 58.632812 39.917969 58.871094 42.671875 59.339844 44.71875 Z M 41.078125 34.203125 C 40.441406 34.488281 40.078125 34.871094 40.066406 35.257812 C 40.050781 35.636719 40.402344 35.792969 41.078125 35.675781 C 41.28125 35.648438 41.476562 35.597656 41.652344 35.515625 C 42.289062 35.222656 42.648438 34.832031 42.664062 34.449219 C 42.675781 34.082031 42.324219 33.933594 41.652344 34.046875 C 41.445312 34.074219 41.25 34.125 41.078125 34.203125 Z M 57.265625 27.136719 C 56.597656 27.421875 56.222656 27.78125 56.210938 28.128906 C 56.199219 28.464844 56.546875 28.585938 57.222656 28.464844 C 57.425781 28.429688 57.625 28.378906 57.796875 28.308594 C 58.460938 28.015625 58.835938 27.664062 58.851562 27.324219 C 58.863281 26.996094 58.511719 26.867188 57.839844 26.984375 C 57.632812 27.015625 57.4375 27.0625 57.265625 27.136719 Z M 67.777344 41.363281 C 68.449219 38.457031 68.789062 35.835938 68.789062 33.175781 C 68.789062 31.699219 68.632812 30.445312 68.347656 29.40625 C 68.167969 28.757812 67.628906 27.84375 66.722656 26.703125 C 66.253906 26.097656 66.015625 25.617188 66.019531 25.273438 C 66.03125 24.03125 68.347656 22.929688 72.925781 22.886719 C 78.140625 22.886719 83.492188 23.703125 88.273438 25.804688 C 89.359375 26.257812 90.378906 27.472656 91.3125 29.515625 C 92.105469 31.261719 92.5 32.917969 92.5 34.332031 C 92.5 36.175781 91.96875 36.847656 90.914062 36.449219 C 90.730469 36.378906 90.550781 36.292969 90.386719 36.191406 C 89.597656 35.695312 88.804688 34.816406 88.011719 33.589844 C 87.074219 32.136719 86.355469 31.226562 85.855469 30.761719 C 84.859375 29.804688 83.65625 29.121094 82.25 28.765625 C 80.402344 28.300781 78.921875 28.667969 77.808594 29.710938 C 77.25 30.230469 76.972656 30.773438 76.972656 31.308594 C 76.972656 32.0625 77.488281 32.53125 78.511719 32.777344 C 78.6875 32.824219 78.863281 32.859375 79.039062 32.886719 C 79.710938 32.984375 80.546875 32.820312 81.546875 32.445312 C 82.070312 32.25 82.46875 32.203125 82.734375 32.277344 C 83.464844 32.484375 83.992188 33.238281 84.316406 34.515625 C 84.433594 35.027344 84.492188 35.542969 84.492188 36.066406 C 84.492188 37.609375 84.113281 38.496094 83.351562 38.773438 C 83.148438 38.832031 82.941406 38.832031 82.734375 38.769531 C 82.472656 38.691406 81.957031 38.265625 81.195312 37.613281 C 80.429688 36.957031 79.679688 36.589844 79.042969 36.511719 C 77.914062 36.367188 77.296875 36.78125 77.28125 37.574219 C 77.265625 38.460938 77.796875 39.695312 78.820312 41.003906 C 79.523438 41.796875 80.179688 42.296875 80.757812 42.433594 C 82.488281 42.84375 84.097656 42.511719 85.417969 41.464844 C 85.566406 41.371094 85.757812 41.203125 85.992188 40.964844 C 86.960938 40.21875 87.78125 40.21875 88.457031 40.402344 C 88.75 40.496094 89.058594 40.640625 89.378906 40.847656 C 91.640625 42.269531 92.925781 44.609375 93.25 47.515625 C 93.308594 47.976562 93.339844 48.429688 93.339844 48.875 C 93.339844 51.535156 92.621094 53.476562 91.183594 55.0625 C 89.882812 56.5 88.457031 57 86.964844 56.414062 C 82.089844 54.746094 77.835938 54.011719 72.667969 53.910156 C 70.046875 54.136719 64.625 54.179688 64.617188 50.414062 C 64.617188 49.261719 65.097656 47.671875 66.070312 45.679688 C 66.964844 43.84375 67.550781 42.398438 67.785156 41.359375 Z M 87.039062 26.117188 C 86.585938 25.957031 86.304688 26.035156 86.292969 26.277344 C 86.273438 26.605469 86.617188 27.015625 87.257812 27.503906 C 87.523438 27.710938 87.773438 27.875 88.007812 27.96875 C 88.460938 28.15625 88.738281 28.105469 88.757812 27.855469 C 88.777344 27.523438 88.433594 27.058594 87.789062 26.566406 C 87.527344 26.359375 87.273438 26.203125 87.039062 26.117188 Z M 26.972656 88.773438 C 27.144531 89.363281 27.65625 90.1875 28.511719 91.222656 C 29.246094 92.101562 29.625 92.851562 29.617188 93.445312 C 29.59375 95.023438 27.316406 95.828125 22.894531 95.839844 C 20.179688 95.84375 18.398438 95.386719 17.566406 94.433594 C 17.324219 94.15625 17.199219 93.859375 17.199219 93.546875 C 17.199219 93.289062 17.429688 92.800781 17.859375 92.085938 C 18.375 91.230469 18.722656 90.257812 18.925781 89.222656 C 19.039062 88.632812 19.105469 88.144531 19.105469 87.773438 C 19.105469 86.691406 18.515625 86.007812 17.34375 85.695312 C 16.972656 85.609375 16.570312 85.546875 16.128906 85.503906 C 14.4375 85.34375 13.46875 85.671875 13.222656 86.578125 C 13.175781 86.792969 13.148438 87.03125 13.148438 87.292969 C 13.148438 87.742188 13.222656 88.265625 13.332031 88.84375 C 13.546875 89.980469 13.980469 91.21875 14.691406 92.441406 C 14.9375 92.882812 15.0625 93.230469 15.0625 93.492188 C 15.0625 94.359375 14.3125 94.992188 12.820312 95.433594 C 11.886719 95.699219 10.785156 95.839844 9.511719 95.839844 L 9.367188 95.839844 C 4.90625 95.820312 2.652344 94.734375 2.640625 92.617188 C 2.636719 91.78125 3.046875 90.734375 3.855469 89.601562 C 4.609375 88.542969 5.09375 87.714844 5.289062 87.058594 C 5.753906 85.421875 5.988281 83.5 5.988281 81.214844 C 5.988281 79.917969 5.863281 78.664062 5.585938 77.480469 C 5.445312 76.902344 4.980469 75.910156 4.222656 74.421875 C 3.832031 73.613281 3.636719 73.03125 3.636719 72.703125 C 3.636719 71.863281 4.726562 71.898438 6.90625 72.5 C 7.6875 72.71875 8.511719 72.976562 9.371094 73.265625 C 11.988281 74.152344 13.753906 74.804688 14.660156 75.609375 C 14.929688 75.894531 15.089844 76.15625 15.101562 76.386719 C 15.117188 76.660156 14.765625 77.207031 14.109375 77.96875 C 13.347656 78.855469 12.972656 79.675781 12.972656 80.40625 C 12.972656 81.558594 13.804688 82.363281 15.46875 82.71875 C 15.691406 82.769531 15.914062 82.800781 16.128906 82.828125 C 18.089844 82.882812 19.222656 82.246094 19.292969 81.210938 C 19.335938 80.535156 18.847656 79.53125 17.96875 78.289062 C 17.429688 77.515625 17.160156 76.972656 17.160156 76.6875 C 17.160156 75.960938 18.253906 75.640625 20.433594 75.488281 C 21.21875 75.433594 22.035156 75.410156 22.894531 75.414062 C 25.496094 75.425781 27.257812 75.585938 28.1875 76.160156 C 28.480469 76.351562 28.652344 76.589844 28.667969 76.832031 C 28.679688 77.132812 28.339844 77.757812 27.710938 78.621094 C 27.171875 79.359375 26.820312 79.976562 26.683594 80.464844 C 26.480469 81.167969 26.386719 82.128906 26.386719 83.320312 C 26.386719 85.617188 26.582031 87.410156 26.976562 88.769531 Z M 11.722656 74.992188 C 11.195312 74.859375 10.886719 74.9375 10.875 75.179688 C 10.863281 75.425781 11.15625 75.707031 11.722656 75.96875 C 11.894531 76.050781 12.054688 76.113281 12.199219 76.144531 C 12.726562 76.261719 13.03125 76.167969 13.046875 75.929688 C 13.058594 75.683594 12.761719 75.429688 12.199219 75.171875 C 12.027344 75.09375 11.867188 75.027344 11.722656 74.996094 Z M 25.242188 76.363281 C 24.691406 76.390625 24.375 76.550781 24.363281 76.789062 C 24.347656 77.03125 24.640625 77.21875 25.207031 77.320312 C 25.378906 77.351562 25.539062 77.371094 25.6875 77.359375 C 26.238281 77.332031 26.554688 77.15625 26.566406 76.914062 C 26.582031 76.675781 26.285156 76.496094 25.722656 76.402344 C 25.550781 76.367188 25.390625 76.351562 25.242188 76.359375 Z M 34.316406 79.472656 C 34.167969 78.976562 33.71875 78.324219 32.960938 77.523438 C 32.566406 77.097656 32.371094 76.742188 32.371094 76.460938 C 32.371094 75.628906 33.460938 74.734375 35.640625 73.652344 C 36.425781 73.273438 37.257812 72.917969 38.140625 72.585938 C 40.738281 71.613281 42.488281 71.285156 43.394531 71.71875 C 43.714844 71.867188 43.875 72.101562 43.875 72.417969 C 43.875 72.738281 43.566406 73.484375 42.957031 74.621094 C 42.394531 75.648438 42.039062 76.476562 41.890625 77.113281 C 41.675781 78.039062 41.558594 79.210938 41.558594 80.617188 C 41.558594 82.820312 41.816406 84.984375 42.332031 87.1875 C 42.378906 87.355469 42.796875 88.003906 43.582031 89.203125 C 44.457031 90.542969 44.914062 91.734375 44.902344 92.636719 C 44.875 94.734375 42.605469 95.839844 38.214844 95.839844 C 33.824219 95.839844 31.539062 95.039062 31.527344 93.457031 C 31.519531 92.722656 32.125 91.59375 33.328125 89.796875 C 33.792969 89.066406 34.0625 88.570312 34.132812 88.335938 C 34.550781 86.710938 34.757812 84.941406 34.757812 83.066406 C 34.757812 81.640625 34.605469 80.425781 34.316406 79.476562 Z M 40.457031 72.851562 C 39.921875 73.066406 39.625 73.347656 39.609375 73.628906 C 39.601562 73.898438 39.890625 74.011719 40.457031 73.9375 C 40.628906 73.917969 40.792969 73.882812 40.933594 73.824219 C 41.441406 73.628906 41.730469 73.347656 41.742188 73.058594 C 41.753906 72.761719 41.457031 72.636719 40.894531 72.71875 C 40.75 72.75 40.597656 72.796875 40.453125 72.851562 Z M 49.3125 85.28125 C 49.875 82.945312 50.15625 80.472656 50.15625 77.960938 C 50.15625 76.570312 50.027344 75.386719 49.789062 74.433594 C 49.640625 73.832031 49.1875 73.042969 48.429688 72.109375 C 48.035156 71.613281 47.839844 71.207031 47.839844 70.875 C 47.839844 69.90625 48.929688 68.804688 51.109375 67.550781 C 51.894531 67.113281 52.726562 66.710938 53.609375 66.359375 C 56.179688 65.332031 57.945312 65.105469 58.902344 65.65625 C 59.195312 65.894531 59.367188 66.203125 59.378906 66.554688 C 59.394531 66.910156 59.070312 67.757812 58.460938 69.042969 C 57.898438 70.226562 57.523438 71.21875 57.359375 72.003906 C 57.15625 72.957031 57.066406 74.386719 57.066406 76.300781 C 57.066406 79.859375 57.328125 82.238281 57.871094 83.320312 C 58.363281 84.289062 59.160156 84.75 60.152344 84.613281 C 61.628906 84.40625 62.941406 83.332031 64.046875 81.789062 C 64.171875 81.636719 64.324219 81.394531 64.523438 81.066406 C 65.332031 79.917969 66.019531 79.21875 66.582031 78.964844 C 66.828125 78.871094 67.082031 78.816406 67.351562 78.8125 C 69.242188 78.757812 70.316406 80.066406 70.589844 82.734375 C 70.636719 83.152344 70.664062 83.585938 70.664062 84.039062 C 70.664062 86.746094 70.066406 89.375 68.863281 91.886719 C 67.773438 94.164062 66.585938 95.34375 65.335938 95.375 C 61.355469 95.386719 57.375 95.421875 53.390625 95.449219 C 48.933594 95.453125 46.679688 94.355469 46.667969 92.175781 C 46.667969 91.304688 47.070312 90.140625 47.882812 88.644531 C 48.632812 87.265625 49.121094 86.121094 49.3125 85.28125 Z M 74.628906 82.617188 C 75.191406 79.882812 75.476562 77.023438 75.476562 74.019531 C 75.476562 72.359375 75.347656 70.902344 75.105469 69.65625 C 74.957031 68.878906 74.507812 67.730469 73.746094 66.257812 C 73.355469 65.480469 73.160156 64.898438 73.160156 64.5 C 73.160156 63.339844 74.25 62.523438 76.429688 62.261719 C 77.214844 62.179688 78.046875 62.1875 78.929688 62.300781 C 81.5 62.636719 83.261719 63.566406 84.21875 64.753906 C 84.511719 65.1875 84.683594 65.617188 84.699219 66 C 84.710938 66.375 84.386719 67.054688 83.78125 68.058594 C 83.21875 68.988281 82.84375 69.851562 82.679688 70.605469 C 82.476562 71.523438 82.386719 73.011719 82.386719 75.0625 C 82.386719 78.878906 82.644531 81.507812 83.191406 82.8125 C 83.6875 83.984375 84.476562 84.652344 85.46875 84.785156 C 86.941406 84.980469 88.261719 84.433594 89.363281 83.269531 C 89.488281 83.160156 89.644531 82.976562 89.84375 82.722656 C 90.652344 81.875 91.335938 81.457031 91.898438 81.398438 C 92.144531 81.386719 92.402344 81.417969 92.671875 81.492188 C 94.558594 82.023438 95.636719 83.476562 95.90625 85.65625 C 95.953125 86.003906 95.980469 86.351562 95.980469 86.710938 C 95.980469 88.839844 95.382812 90.753906 94.179688 92.6875 C 93.089844 94.433594 91.902344 95.429688 90.652344 95.441406 C 86.671875 95.414062 82.691406 95.394531 78.710938 95.386719 C 75.769531 95.53125 71.957031 94.355469 71.988281 90.929688 C 71.996094 89.773438 72.386719 88.269531 73.203125 86.511719 C 73.949219 84.890625 74.4375 83.597656 74.632812 82.621094 Z M 74.628906 82.617188 "/>
</g>
</svg>
