<?xml version="1.0" encoding="UTF-8"?>
<svg xmlns="http://www.w3.org/2000/svg" xmlns:xlink="http://www.w3.org/1999/xlink" width="32px" height="32px" viewBox="0 0 32 31" version="1.1">
<g id="surface1">
<rect x="0" y="0" width="32" height="31" style="fill:rgb(100%,100%,100%);fill-opacity:1;stroke:none;"/>
<path style=" stroke:none;fill-rule:nonzero;fill:rgb(23.137255%,27.843137%,47.45098%);fill-opacity:1;" d="M 9.644531 8.425781 C 9.679688 8.636719 9.785156 8.933594 9.96875 9.308594 C 10.121094 9.625 10.199219 9.894531 10.199219 10.109375 C 10.195312 10.683594 9.714844 11.007812 8.789062 10.925781 C 8.222656 10.875 7.847656 10.640625 7.671875 10.28125 C 7.621094 10.179688 7.597656 10.074219 7.597656 9.964844 C 7.597656 9.878906 7.644531 9.714844 7.734375 9.480469 C 7.84375 9.195312 7.914062 8.867188 7.957031 8.511719 C 7.980469 8.308594 7.996094 8.144531 7.996094 8.015625 C 7.996094 7.644531 7.875 7.410156 7.625 7.3125 C 7.550781 7.285156 7.464844 7.265625 7.375 7.253906 C 7.019531 7.210938 6.816406 7.324219 6.765625 7.609375 C 6.753906 7.679688 6.75 7.753906 6.75 7.835938 C 6.75 7.976562 6.765625 8.144531 6.789062 8.328125 C 6.832031 8.691406 6.925781 9.09375 7.074219 9.519531 C 7.125 9.671875 7.148438 9.789062 7.148438 9.878906 C 7.148438 10.167969 6.992188 10.351562 6.679688 10.40625 C 6.484375 10.4375 6.253906 10.410156 5.988281 10.3125 C 5.976562 10.308594 5.96875 10.304688 5.957031 10.300781 C 5.023438 9.953125 4.550781 9.417969 4.546875 8.929688 C 4.546875 8.734375 4.632812 8.53125 4.800781 8.292969 C 4.960938 8.074219 5.0625 7.871094 5.101562 7.710938 C 5.199219 7.300781 5.25 6.792969 5.25 6.203125 C 5.25 5.867188 5.222656 5.546875 5.164062 5.265625 C 5.136719 5.125 5.039062 4.902344 4.878906 4.609375 C 4.796875 4.449219 4.753906 4.332031 4.753906 4.253906 C 4.753906 4.058594 4.984375 3.925781 5.441406 3.855469 C 5.605469 3.828125 5.777344 3.816406 5.957031 3.816406 C 6.507812 3.820312 6.875 3.917969 7.066406 4.121094 C 7.125 4.195312 7.15625 4.273438 7.15625 4.34375 C 7.160156 4.433594 7.085938 4.621094 6.949219 4.890625 C 6.789062 5.203125 6.710938 5.472656 6.710938 5.695312 C 6.710938 6.050781 6.886719 6.273438 7.234375 6.355469 C 7.28125 6.367188 7.328125 6.375 7.375 6.378906 C 7.785156 6.363281 8.019531 6.152344 8.035156 5.792969 C 8.046875 5.5625 7.945312 5.234375 7.757812 4.851562 C 7.648438 4.613281 7.589844 4.445312 7.589844 4.355469 C 7.589844 4.121094 7.816406 3.960938 8.277344 3.875 C 8.4375 3.84375 8.609375 3.828125 8.792969 3.828125 C 9.335938 3.828125 9.703125 3.9375 9.898438 4.152344 C 9.960938 4.222656 9.996094 4.304688 10 4.386719 C 10.003906 4.488281 9.933594 4.679688 9.800781 4.957031 C 9.6875 5.191406 9.613281 5.390625 9.585938 5.558594 C 9.542969 5.789062 9.523438 6.113281 9.523438 6.523438 C 9.523438 7.3125 9.5625 7.945312 9.648438 8.425781 Z M 6.449219 4.117188 C 6.339844 4.117188 6.273438 4.164062 6.273438 4.238281 C 6.269531 4.3125 6.332031 4.371094 6.449219 4.410156 C 6.484375 4.421875 6.519531 4.429688 6.550781 4.433594 C 6.65625 4.433594 6.722656 4.386719 6.726562 4.3125 C 6.726562 4.238281 6.667969 4.175781 6.550781 4.136719 C 6.511719 4.125 6.476562 4.117188 6.449219 4.117188 Z M 9.28125 4.15625 C 9.167969 4.15625 9.101562 4.207031 9.097656 4.289062 C 9.09375 4.371094 9.15625 4.433594 9.273438 4.472656 C 9.3125 4.488281 9.34375 4.492188 9.375 4.492188 C 9.488281 4.492188 9.558594 4.441406 9.558594 4.359375 C 9.5625 4.277344 9.5 4.214844 9.382812 4.175781 C 9.347656 4.160156 9.3125 4.152344 9.28125 4.152344 Z M 15.140625 7.113281 C 15.292969 7.539062 15.523438 7.832031 15.84375 7.984375 C 16.054688 8.082031 16.171875 8.144531 16.203125 8.171875 C 16.3125 8.269531 16.367188 8.414062 16.367188 8.613281 C 16.367188 8.996094 16.175781 9.300781 15.796875 9.53125 C 15.621094 9.636719 15.363281 9.753906 15.019531 9.878906 C 14.363281 10.121094 13.945312 10.15625 13.769531 9.988281 C 13.683594 9.898438 13.640625 9.753906 13.640625 9.558594 C 13.640625 9.5 13.640625 9.382812 13.648438 9.214844 C 13.65625 8.996094 13.664062 8.839844 13.664062 8.742188 C 13.664062 8.375 13.582031 8.171875 13.425781 8.132812 C 13.363281 8.121094 13.296875 8.121094 13.222656 8.140625 C 12.867188 8.226562 12.6875 8.617188 12.6875 9.289062 C 12.6875 9.332031 12.683594 9.398438 12.6875 9.480469 C 12.6875 9.566406 12.695312 9.628906 12.695312 9.671875 C 12.695312 10.167969 12.515625 10.527344 12.164062 10.757812 C 11.992188 10.863281 11.773438 10.898438 11.5 10.917969 C 10.960938 10.964844 10.632812 10.820312 10.515625 10.519531 C 10.46875 10.402344 10.445312 10.265625 10.445312 10.109375 C 10.445312 9.847656 10.523438 9.65625 10.675781 9.53125 C 10.703125 9.515625 10.746094 9.484375 10.808594 9.449219 C 11.050781 9.285156 11.226562 9.089844 11.347656 8.863281 C 11.382812 8.796875 11.414062 8.730469 11.4375 8.671875 C 11.742188 7.980469 11.984375 7.234375 12.167969 6.503906 C 12.304688 5.976562 12.371094 5.601562 12.371094 5.375 C 12.371094 5.183594 12.3125 4.960938 12.191406 4.707031 C 12.117188 4.542969 12.078125 4.40625 12.078125 4.304688 C 12.078125 4.085938 12.34375 3.925781 12.878906 3.839844 C 13.042969 3.816406 13.210938 3.800781 13.378906 3.800781 C 13.917969 3.796875 14.316406 3.890625 14.578125 4.0625 C 14.675781 4.128906 14.738281 4.199219 14.757812 4.28125 C 14.761719 4.308594 14.761719 4.347656 14.765625 4.394531 C 14.78125 5.292969 14.835938 6.238281 15.140625 7.113281 Z M 13.023438 7.015625 C 13.027344 7.203125 13.109375 7.300781 13.222656 7.277344 C 13.371094 7.246094 13.457031 7.09375 13.457031 6.859375 C 13.449219 6.332031 13.367188 6.042969 13.261719 6.046875 C 13.179688 6.050781 13.101562 6.230469 13.054688 6.554688 C 13.035156 6.703125 13.019531 6.859375 13.023438 7.015625 Z M 14.019531 4.109375 C 13.902344 4.117188 13.835938 4.164062 13.832031 4.238281 C 13.832031 4.3125 13.890625 4.367188 14.007812 4.394531 C 14.046875 4.40625 14.078125 4.410156 14.109375 4.410156 C 14.21875 4.402344 14.285156 4.351562 14.285156 4.28125 C 14.289062 4.203125 14.226562 4.148438 14.109375 4.117188 C 14.078125 4.113281 14.046875 4.109375 14.019531 4.109375 Z M 20.722656 4.398438 C 20.722656 4.640625 20.644531 4.839844 20.484375 4.992188 C 20.390625 5.074219 20.289062 5.117188 20.183594 5.121094 C 20.15625 5.125 20.121094 5.121094 20.085938 5.113281 C 19.992188 5.09375 19.894531 5.019531 19.792969 4.882812 C 19.679688 4.734375 19.574219 4.640625 19.476562 4.613281 C 19.417969 4.597656 19.359375 4.59375 19.300781 4.597656 C 19.054688 4.617188 18.847656 4.785156 18.683594 5.113281 C 18.550781 5.378906 18.484375 5.660156 18.484375 5.949219 C 18.484375 6.417969 18.640625 6.6875 18.960938 6.738281 C 19.0625 6.753906 19.175781 6.746094 19.300781 6.71875 C 19.480469 6.675781 19.667969 6.539062 19.863281 6.320312 C 20.046875 6.109375 20.167969 6.015625 20.222656 5.980469 C 20.335938 5.910156 20.449219 5.875 20.570312 5.871094 C 20.832031 5.863281 21.023438 5.984375 21.140625 6.234375 C 21.199219 6.367188 21.230469 6.507812 21.230469 6.664062 C 21.230469 7.355469 20.867188 7.800781 20.136719 8.039062 C 19.902344 8.117188 19.609375 8.234375 19.292969 8.339844 C 18.570312 8.585938 17.550781 8.757812 16.988281 8.09375 C 16.738281 7.789062 16.609375 7.367188 16.609375 6.84375 C 16.609375 6.117188 16.828125 5.410156 17.25 4.804688 C 17.691406 4.171875 18.246094 3.84375 18.914062 3.75 C 19.042969 3.730469 19.171875 3.71875 19.308594 3.71875 C 19.378906 3.71875 19.601562 3.742188 19.976562 3.777344 C 20.085938 3.785156 20.175781 3.792969 20.246094 3.792969 C 20.277344 3.792969 20.3125 3.796875 20.347656 3.800781 C 20.53125 3.84375 20.648438 3.980469 20.699219 4.222656 C 20.714844 4.28125 20.722656 4.339844 20.722656 4.398438 Z M 19.875 3.945312 C 19.796875 3.949219 19.746094 3.972656 19.746094 4.011719 C 19.742188 4.058594 19.800781 4.101562 19.914062 4.128906 C 19.960938 4.140625 20.003906 4.148438 20.046875 4.144531 C 20.125 4.144531 20.175781 4.117188 20.175781 4.082031 C 20.179688 4.035156 20.121094 3.996094 20.007812 3.964844 C 19.960938 3.949219 19.914062 3.941406 19.875 3.945312 Z M 23.75 4.929688 C 23.75 5.058594 23.800781 5.132812 23.878906 5.136719 C 23.980469 5.144531 24.164062 5.039062 24.425781 4.8125 C 24.4375 4.804688 24.445312 4.796875 24.449219 4.792969 C 24.558594 4.699219 24.671875 4.554688 24.796875 4.355469 C 24.859375 4.257812 24.925781 4.183594 24.996094 4.132812 C 25.332031 3.902344 25.804688 3.777344 26.414062 3.785156 C 26.8125 3.789062 27.023438 3.859375 27.023438 3.972656 C 27.019531 4.039062 26.960938 4.117188 26.859375 4.199219 C 26.792969 4.253906 26.550781 4.382812 26.136719 4.554688 C 25.867188 4.675781 25.652344 4.777344 25.480469 4.863281 C 25.136719 5.050781 24.960938 5.191406 24.957031 5.289062 C 24.957031 5.332031 25.023438 5.386719 25.152344 5.460938 C 25.40625 5.605469 25.558594 5.699219 25.605469 5.730469 C 25.90625 5.925781 26.21875 6.316406 26.539062 6.953125 C 26.574219 7.035156 26.621094 7.128906 26.667969 7.234375 C 26.742188 7.386719 26.882812 7.5625 27.085938 7.765625 C 27.265625 7.945312 27.375 8.105469 27.421875 8.21875 C 27.46875 8.324219 27.492188 8.4375 27.492188 8.558594 C 27.492188 8.960938 27.246094 9.0625 26.753906 8.921875 C 26.601562 8.875 26.410156 8.808594 26.191406 8.726562 C 25.527344 8.480469 25.109375 8.300781 24.9375 8.089844 C 24.847656 7.980469 24.804688 7.855469 24.804688 7.714844 C 24.804688 7.054688 24.71875 6.550781 24.542969 6.199219 C 24.445312 6 24.324219 5.894531 24.1875 5.878906 C 24.042969 5.863281 23.925781 5.925781 23.84375 6.066406 C 23.800781 6.136719 23.78125 6.214844 23.78125 6.292969 C 23.78125 6.414062 23.796875 6.523438 23.828125 6.621094 C 23.882812 6.796875 23.960938 7.011719 24.050781 7.261719 C 24.144531 7.523438 24.1875 7.703125 24.1875 7.789062 C 24.1875 8.042969 23.84375 8.101562 23.148438 8.0625 C 23.097656 8.058594 23.042969 8.054688 22.988281 8.050781 C 22.0625 7.984375 21.589844 7.824219 21.585938 7.449219 C 21.585938 7.300781 21.671875 7.109375 21.839844 6.886719 C 21.996094 6.679688 22.09375 6.515625 22.132812 6.390625 C 22.25 6.039062 22.3125 5.703125 22.3125 5.382812 C 22.3125 5.152344 22.273438 4.929688 22.203125 4.714844 C 22.171875 4.628906 22.078125 4.488281 21.917969 4.300781 C 21.835938 4.199219 21.792969 4.121094 21.792969 4.070312 C 21.792969 3.9375 22.015625 3.851562 22.457031 3.804688 C 22.632812 3.785156 22.8125 3.773438 22.996094 3.773438 C 23.53125 3.773438 23.898438 3.835938 24.097656 3.957031 C 24.15625 4.003906 24.195312 4.050781 24.195312 4.097656 C 24.199219 4.148438 24.125 4.265625 23.988281 4.429688 C 23.828125 4.621094 23.746094 4.792969 23.75 4.929688 Z M 8.890625 16.039062 C 8.902344 16.84375 8.917969 17.703125 9.136719 18.5 C 9.1875 18.691406 9.335938 18.972656 9.582031 19.328125 C 9.789062 19.632812 9.917969 19.914062 9.894531 20.105469 C 9.800781 20.863281 8.644531 20.941406 7.925781 20.796875 C 7.15625 20.640625 6 20.070312 5.960938 19.226562 C 5.949219 19 6.078125 18.75 6.316406 18.5 C 6.53125 18.273438 6.667969 18.066406 6.726562 17.886719 C 6.84375 17.515625 6.898438 16.921875 6.898438 16.152344 C 6.898438 15.550781 6.847656 14.984375 6.75 14.457031 C 6.691406 14.203125 6.585938 14.042969 6.433594 13.972656 C 6.183594 13.855469 5.839844 13.945312 5.429688 14.140625 C 5.421875 14.140625 5.414062 14.144531 5.40625 14.148438 C 5.21875 14.28125 5.054688 14.304688 4.910156 14.230469 C 4.855469 14.203125 4.804688 14.171875 4.757812 14.132812 C 4.472656 13.902344 4.300781 13.523438 4.25 13.046875 C 4.246094 12.96875 4.238281 12.898438 4.238281 12.828125 C 4.238281 12.332031 4.390625 12.023438 4.695312 11.828125 C 4.890625 11.714844 5.085938 11.699219 5.277344 11.796875 C 7.003906 12.617188 8.554688 12.941406 10.480469 12.910156 C 10.746094 12.894531 10.996094 13.105469 11.226562 13.527344 C 11.425781 13.894531 11.527344 14.277344 11.527344 14.6875 C 11.527344 15.191406 11.402344 15.519531 11.148438 15.671875 C 11.097656 15.695312 11.050781 15.714844 11 15.722656 C 10.796875 15.753906 10.601562 15.65625 10.414062 15.417969 C 10.394531 15.390625 10.371094 15.359375 10.347656 15.332031 C 10.175781 15.113281 9.964844 14.925781 9.710938 14.761719 C 9.554688 14.660156 9.421875 14.605469 9.3125 14.601562 C 9.03125 14.648438 8.875 15.140625 8.890625 16.039062 Z M 10.175781 13.191406 C 10.058594 13.199219 9.984375 13.253906 9.980469 13.339844 C 9.976562 13.449219 10.0625 13.546875 10.21875 13.613281 C 10.285156 13.640625 10.347656 13.65625 10.402344 13.652344 C 10.523438 13.640625 10.59375 13.578125 10.597656 13.492188 C 10.601562 13.386719 10.519531 13.296875 10.359375 13.230469 C 10.296875 13.199219 10.230469 13.1875 10.175781 13.191406 Z M 18.824219 14.730469 C 18.875 14.949219 19.027344 15.222656 19.28125 15.5625 C 19.496094 15.851562 19.617188 16.148438 19.605469 16.40625 C 19.5625 17.355469 18.453125 17.941406 17.625 18.308594 C 16.824219 18.667969 16.300781 18.71875 16.058594 18.453125 C 15.984375 18.375 15.949219 18.273438 15.949219 18.152344 C 15.949219 18.046875 16.015625 17.816406 16.144531 17.457031 C 16.296875 17.027344 16.398438 16.578125 16.457031 16.128906 C 16.492188 15.875 16.511719 15.671875 16.511719 15.523438 C 16.511719 15.097656 16.339844 14.933594 15.992188 15.03125 C 15.882812 15.066406 15.765625 15.117188 15.636719 15.183594 C 15.136719 15.441406 14.851562 15.761719 14.78125 16.152344 C 14.765625 16.246094 14.757812 16.339844 14.761719 16.433594 C 14.761719 16.601562 14.78125 16.785156 14.8125 16.976562 C 14.878906 17.367188 15.003906 17.75 15.214844 18.109375 C 15.285156 18.238281 15.324219 18.355469 15.324219 18.457031 C 15.324219 18.792969 15.101562 19.15625 14.664062 19.523438 C 14.390625 19.75 14.066406 19.941406 13.691406 20.101562 C 13.671875 20.105469 13.664062 20.113281 13.648438 20.117188 C 12.976562 20.339844 11.773438 20.765625 11.667969 19.875 C 11.644531 19.660156 11.785156 19.300781 12.027344 18.847656 C 12.25 18.425781 12.390625 18.0625 12.445312 17.8125 C 12.585938 17.195312 12.652344 16.5 12.652344 15.710938 C 12.652344 15.261719 12.617188 14.851562 12.535156 14.5 C 12.492188 14.332031 12.355469 14.09375 12.132812 13.765625 C 12.019531 13.585938 11.960938 13.414062 11.960938 13.296875 C 11.960938 13.003906 12.28125 12.726562 12.921875 12.378906 C 13.152344 12.257812 13.394531 12.144531 13.648438 12.046875 C 14.417969 11.742188 14.9375 11.636719 15.203125 11.753906 C 15.285156 11.804688 15.332031 11.875 15.335938 11.953125 C 15.339844 12.054688 15.234375 12.324219 15.042969 12.742188 C 14.816406 13.230469 14.707031 13.617188 14.707031 13.890625 C 14.707031 14.320312 14.953125 14.441406 15.441406 14.25 C 15.507812 14.226562 15.570312 14.195312 15.636719 14.164062 C 16.214844 13.804688 16.546875 13.390625 16.566406 12.972656 C 16.578125 12.714844 16.4375 12.425781 16.175781 12.121094 C 16.019531 11.933594 15.9375 11.78125 15.9375 11.675781 C 15.9375 11.410156 16.261719 11.082031 16.902344 10.710938 C 17.132812 10.578125 17.375 10.460938 17.625 10.355469 C 18.390625 10.035156 18.910156 9.945312 19.183594 10.050781 C 19.269531 10.089844 19.320312 10.148438 19.324219 10.226562 C 19.328125 10.324219 19.230469 10.550781 19.042969 10.902344 C 18.882812 11.207031 18.78125 11.457031 18.742188 11.648438 C 18.683594 11.914062 18.65625 12.265625 18.65625 12.707031 C 18.65625 13.546875 18.710938 14.226562 18.828125 14.730469 Z M 14.339844 12.140625 C 14.183594 12.210938 14.09375 12.304688 14.089844 12.402344 C 14.085938 12.496094 14.171875 12.53125 14.339844 12.503906 C 14.390625 12.496094 14.4375 12.484375 14.480469 12.464844 C 14.636719 12.390625 14.722656 12.296875 14.726562 12.203125 C 14.730469 12.113281 14.644531 12.074219 14.480469 12.101562 C 14.429688 12.109375 14.378906 12.121094 14.339844 12.140625 Z M 18.316406 10.402344 C 18.152344 10.472656 18.0625 10.5625 18.058594 10.644531 C 18.054688 10.730469 18.140625 10.757812 18.308594 10.730469 C 18.359375 10.71875 18.40625 10.707031 18.449219 10.691406 C 18.613281 10.617188 18.703125 10.53125 18.707031 10.449219 C 18.710938 10.367188 18.625 10.335938 18.457031 10.363281 C 18.40625 10.371094 18.359375 10.382812 18.316406 10.402344 Z M 20.902344 13.90625 C 21.066406 13.1875 21.152344 12.542969 21.152344 11.886719 C 21.152344 11.523438 21.113281 11.214844 21.042969 10.960938 C 21 10.800781 20.867188 10.578125 20.640625 10.292969 C 20.527344 10.144531 20.46875 10.027344 20.46875 9.941406 C 20.472656 9.636719 21.042969 9.367188 22.167969 9.355469 C 23.449219 9.355469 24.765625 9.554688 25.941406 10.074219 C 26.207031 10.1875 26.457031 10.484375 26.6875 10.988281 C 26.882812 11.417969 26.980469 11.824219 26.980469 12.171875 C 26.980469 12.628906 26.847656 12.792969 26.589844 12.695312 C 26.542969 12.679688 26.5 12.65625 26.460938 12.628906 C 26.265625 12.507812 26.070312 12.292969 25.875 11.992188 C 25.644531 11.632812 25.46875 11.410156 25.347656 11.292969 C 25.101562 11.058594 24.804688 10.890625 24.460938 10.800781 C 24.003906 10.6875 23.640625 10.777344 23.367188 11.035156 C 23.230469 11.164062 23.164062 11.296875 23.164062 11.429688 C 23.164062 11.613281 23.289062 11.730469 23.539062 11.789062 C 23.585938 11.800781 23.625 11.8125 23.671875 11.816406 C 23.835938 11.839844 24.042969 11.800781 24.285156 11.707031 C 24.414062 11.660156 24.511719 11.648438 24.578125 11.667969 C 24.757812 11.71875 24.886719 11.902344 24.96875 12.21875 C 24.996094 12.34375 25.011719 12.472656 25.011719 12.601562 C 25.011719 12.980469 24.917969 13.199219 24.730469 13.265625 C 24.679688 13.28125 24.628906 13.28125 24.578125 13.265625 C 24.515625 13.246094 24.386719 13.140625 24.199219 12.980469 C 24.011719 12.820312 23.828125 12.730469 23.671875 12.710938 C 23.394531 12.675781 23.242188 12.777344 23.238281 12.972656 C 23.234375 13.191406 23.363281 13.492188 23.617188 13.816406 C 23.789062 14.011719 23.949219 14.132812 24.09375 14.167969 C 24.519531 14.269531 24.914062 14.1875 25.238281 13.929688 C 25.277344 13.90625 25.320312 13.863281 25.378906 13.804688 C 25.617188 13.621094 25.820312 13.621094 25.984375 13.667969 C 26.058594 13.691406 26.132812 13.726562 26.214844 13.777344 C 26.769531 14.128906 27.085938 14.703125 27.164062 15.417969 C 27.179688 15.535156 27.1875 15.644531 27.1875 15.753906 C 27.1875 16.410156 27.007812 16.886719 26.65625 17.277344 C 26.335938 17.632812 25.984375 17.753906 25.617188 17.609375 C 24.421875 17.199219 23.375 17.019531 22.105469 16.992188 C 21.460938 17.050781 20.125 17.058594 20.125 16.132812 C 20.125 15.851562 20.242188 15.457031 20.480469 14.96875 C 20.703125 14.515625 20.847656 14.160156 20.902344 13.902344 Z M 25.636719 10.152344 C 25.527344 10.109375 25.457031 10.128906 25.453125 10.191406 C 25.449219 10.269531 25.53125 10.371094 25.691406 10.492188 C 25.753906 10.542969 25.816406 10.582031 25.875 10.605469 C 25.988281 10.652344 26.054688 10.640625 26.058594 10.578125 C 26.0625 10.496094 25.980469 10.382812 25.820312 10.261719 C 25.757812 10.210938 25.695312 10.171875 25.636719 10.152344 Z M 10.871094 25.578125 C 10.914062 25.722656 11.039062 25.925781 11.25 26.179688 C 11.429688 26.398438 11.523438 26.582031 11.519531 26.726562 C 11.515625 27.117188 10.957031 27.316406 9.867188 27.316406 C 9.199219 27.320312 8.761719 27.207031 8.558594 26.972656 C 8.5 26.902344 8.46875 26.832031 8.46875 26.753906 C 8.46875 26.691406 8.523438 26.570312 8.628906 26.394531 C 8.757812 26.183594 8.84375 25.945312 8.890625 25.6875 C 8.921875 25.542969 8.9375 25.425781 8.9375 25.332031 C 8.9375 25.066406 8.792969 24.898438 8.503906 24.820312 C 8.414062 24.800781 8.3125 24.785156 8.203125 24.773438 C 7.789062 24.734375 7.550781 24.816406 7.492188 25.039062 C 7.480469 25.089844 7.472656 25.148438 7.472656 25.214844 C 7.472656 25.324219 7.492188 25.453125 7.519531 25.59375 C 7.570312 25.875 7.675781 26.179688 7.851562 26.480469 C 7.910156 26.589844 7.941406 26.675781 7.941406 26.742188 C 7.941406 26.953125 7.757812 27.109375 7.390625 27.21875 C 7.164062 27.28125 6.890625 27.316406 6.578125 27.316406 L 6.542969 27.316406 C 5.445312 27.3125 4.890625 27.046875 4.890625 26.523438 C 4.890625 26.316406 4.988281 26.0625 5.1875 25.78125 C 5.375 25.523438 5.492188 25.316406 5.539062 25.15625 C 5.65625 24.753906 5.710938 24.277344 5.710938 23.71875 C 5.710938 23.398438 5.683594 23.089844 5.613281 22.796875 C 5.578125 22.65625 5.464844 22.410156 5.277344 22.042969 C 5.183594 21.84375 5.132812 21.703125 5.132812 21.621094 C 5.132812 21.414062 5.402344 21.421875 5.9375 21.570312 C 6.128906 21.625 6.332031 21.6875 6.542969 21.761719 C 7.1875 21.976562 7.621094 22.136719 7.84375 22.335938 C 7.910156 22.40625 7.949219 22.472656 7.953125 22.527344 C 7.957031 22.59375 7.871094 22.730469 7.707031 22.917969 C 7.523438 23.136719 7.429688 23.339844 7.429688 23.519531 C 7.429688 23.800781 7.632812 24 8.042969 24.085938 C 8.097656 24.097656 8.152344 24.109375 8.207031 24.113281 C 8.6875 24.128906 8.964844 23.972656 8.980469 23.714844 C 8.992188 23.550781 8.875 23.300781 8.65625 22.996094 C 8.523438 22.804688 8.460938 22.671875 8.460938 22.601562 C 8.460938 22.425781 8.726562 22.34375 9.261719 22.304688 C 9.457031 22.292969 9.65625 22.289062 9.867188 22.289062 C 10.507812 22.292969 10.941406 22.332031 11.167969 22.472656 C 11.242188 22.519531 11.285156 22.578125 11.285156 22.636719 C 11.289062 22.710938 11.207031 22.867188 11.050781 23.078125 C 10.917969 23.261719 10.832031 23.410156 10.800781 23.53125 C 10.75 23.703125 10.726562 23.941406 10.726562 24.234375 C 10.726562 24.800781 10.777344 25.242188 10.871094 25.578125 Z M 7.121094 22.183594 C 6.992188 22.152344 6.917969 22.171875 6.914062 22.230469 C 6.910156 22.292969 6.980469 22.359375 7.121094 22.425781 C 7.164062 22.445312 7.203125 22.460938 7.238281 22.46875 C 7.367188 22.496094 7.445312 22.472656 7.445312 22.414062 C 7.449219 22.355469 7.378906 22.292969 7.238281 22.230469 C 7.195312 22.207031 7.15625 22.195312 7.121094 22.183594 Z M 10.445312 22.523438 C 10.308594 22.527344 10.230469 22.570312 10.230469 22.628906 C 10.226562 22.6875 10.296875 22.734375 10.4375 22.757812 C 10.480469 22.765625 10.519531 22.769531 10.554688 22.769531 C 10.691406 22.761719 10.769531 22.71875 10.769531 22.65625 C 10.773438 22.597656 10.703125 22.554688 10.5625 22.53125 C 10.519531 22.523438 10.480469 22.519531 10.445312 22.523438 Z M 12.675781 23.289062 C 12.640625 23.167969 12.527344 23.003906 12.34375 22.808594 C 12.246094 22.703125 12.199219 22.617188 12.199219 22.546875 C 12.199219 22.339844 12.464844 22.121094 13 21.855469 C 13.195312 21.761719 13.398438 21.675781 13.617188 21.59375 C 14.253906 21.351562 14.683594 21.273438 14.90625 21.378906 C 14.988281 21.414062 15.027344 21.472656 15.027344 21.550781 C 15.027344 21.628906 14.949219 21.8125 14.800781 22.09375 C 14.664062 22.347656 14.574219 22.550781 14.539062 22.707031 C 14.484375 22.933594 14.457031 23.222656 14.457031 23.570312 C 14.457031 24.113281 14.519531 24.644531 14.648438 25.1875 C 14.65625 25.226562 14.761719 25.386719 14.953125 25.683594 C 15.167969 26.011719 15.28125 26.308594 15.277344 26.53125 C 15.273438 27.046875 14.714844 27.316406 13.632812 27.316406 C 12.554688 27.316406 11.992188 27.121094 11.992188 26.730469 C 11.988281 26.550781 12.136719 26.273438 12.433594 25.828125 C 12.546875 25.652344 12.613281 25.527344 12.632812 25.46875 C 12.734375 25.070312 12.785156 24.636719 12.785156 24.171875 C 12.785156 23.820312 12.746094 23.523438 12.675781 23.289062 Z M 14.1875 21.65625 C 14.054688 21.710938 13.980469 21.78125 13.976562 21.847656 C 13.976562 21.914062 14.046875 21.941406 14.1875 21.925781 C 14.226562 21.917969 14.269531 21.910156 14.304688 21.898438 C 14.429688 21.847656 14.5 21.78125 14.5 21.710938 C 14.503906 21.636719 14.433594 21.605469 14.292969 21.625 C 14.257812 21.632812 14.21875 21.644531 14.183594 21.65625 Z M 16.363281 24.71875 C 16.5 24.144531 16.570312 23.535156 16.570312 22.914062 C 16.570312 22.574219 16.539062 22.28125 16.480469 22.046875 C 16.441406 21.898438 16.332031 21.703125 16.144531 21.476562 C 16.050781 21.351562 16 21.253906 16 21.171875 C 16 20.933594 16.269531 20.660156 16.804688 20.351562 C 16.996094 20.246094 17.203125 20.144531 17.417969 20.058594 C 18.050781 19.804688 18.484375 19.75 18.71875 19.886719 C 18.792969 19.945312 18.835938 20.019531 18.835938 20.105469 C 18.839844 20.195312 18.761719 20.402344 18.613281 20.71875 C 18.472656 21.011719 18.382812 21.253906 18.339844 21.449219 C 18.292969 21.683594 18.269531 22.035156 18.269531 22.507812 C 18.269531 23.382812 18.332031 23.96875 18.46875 24.234375 C 18.589844 24.472656 18.785156 24.585938 19.027344 24.554688 C 19.390625 24.503906 19.714844 24.238281 19.984375 23.859375 C 20.015625 23.820312 20.054688 23.761719 20.101562 23.679688 C 20.300781 23.398438 20.46875 23.226562 20.609375 23.164062 C 20.667969 23.140625 20.730469 23.128906 20.796875 23.125 C 21.261719 23.113281 21.527344 23.433594 21.59375 24.089844 C 21.605469 24.195312 21.609375 24.300781 21.609375 24.414062 C 21.609375 25.078125 21.464844 25.726562 21.167969 26.34375 C 20.902344 26.90625 20.609375 27.195312 20.300781 27.203125 C 19.324219 27.207031 18.34375 27.214844 17.367188 27.222656 C 16.269531 27.222656 15.714844 26.953125 15.714844 26.414062 C 15.710938 26.203125 15.8125 25.914062 16.011719 25.546875 C 16.195312 25.207031 16.316406 24.925781 16.363281 24.71875 Z M 22.585938 24.0625 C 22.722656 23.390625 22.792969 22.683594 22.792969 21.945312 C 22.792969 21.535156 22.761719 21.179688 22.703125 20.871094 C 22.667969 20.679688 22.554688 20.394531 22.371094 20.035156 C 22.273438 19.84375 22.222656 19.699219 22.222656 19.601562 C 22.222656 19.316406 22.492188 19.113281 23.027344 19.050781 C 23.222656 19.03125 23.425781 19.03125 23.644531 19.058594 C 24.277344 19.144531 24.707031 19.371094 24.945312 19.664062 C 25.015625 19.769531 25.058594 19.875 25.0625 19.96875 C 25.066406 20.0625 24.984375 20.230469 24.835938 20.476562 C 24.699219 20.707031 24.605469 20.917969 24.566406 21.105469 C 24.515625 21.332031 24.492188 21.695312 24.492188 22.203125 C 24.492188 23.140625 24.558594 23.789062 24.691406 24.109375 C 24.8125 24.398438 25.007812 24.5625 25.25 24.597656 C 25.613281 24.644531 25.9375 24.507812 26.207031 24.222656 C 26.238281 24.195312 26.277344 24.152344 26.328125 24.089844 C 26.523438 23.878906 26.695312 23.777344 26.832031 23.761719 C 26.890625 23.757812 26.957031 23.765625 27.023438 23.785156 C 27.484375 23.917969 27.75 24.273438 27.816406 24.8125 C 27.828125 24.894531 27.835938 24.980469 27.835938 25.070312 C 27.835938 25.59375 27.6875 26.066406 27.394531 26.542969 C 27.125 26.972656 26.832031 27.214844 26.527344 27.21875 C 25.546875 27.214844 24.570312 27.207031 23.589844 27.207031 C 22.867188 27.242188 21.929688 26.953125 21.9375 26.109375 C 21.9375 25.824219 22.035156 25.453125 22.234375 25.019531 C 22.417969 24.621094 22.539062 24.304688 22.585938 24.0625 Z M 22.585938 24.0625 "/>
</g>
</svg>
