<?xml version="1.0" encoding="UTF-8"?>
<svg xmlns="http://www.w3.org/2000/svg" xmlns:xlink="http://www.w3.org/1999/xlink" width="16px" height="16px" viewBox="0 0 16 15" version="1.1">
<g id="surface1">
<rect x="0" y="0" width="16" height="15" style="fill:rgb(100%,100%,100%);fill-opacity:1;stroke:none;"/>
<path style=" stroke:none;fill-rule:nonzero;fill:rgb(23.137255%,27.843137%,47.45098%);fill-opacity:1;" d="M 4.820312 4.078125 C 4.839844 4.179688 4.894531 4.320312 4.984375 4.503906 C 5.058594 4.65625 5.101562 4.789062 5.097656 4.890625 C 5.097656 5.167969 4.859375 5.328125 4.394531 5.285156 C 4.109375 5.261719 3.925781 5.148438 3.835938 4.976562 C 3.8125 4.925781 3.796875 4.875 3.796875 4.824219 C 3.796875 4.777344 3.824219 4.703125 3.867188 4.585938 C 3.921875 4.449219 3.957031 4.289062 3.980469 4.117188 C 3.992188 4.019531 4 3.941406 4 3.878906 C 4 3.699219 3.9375 3.585938 3.8125 3.539062 C 3.773438 3.523438 3.734375 3.515625 3.6875 3.511719 C 3.507812 3.488281 3.40625 3.542969 3.382812 3.683594 C 3.378906 3.714844 3.375 3.753906 3.375 3.792969 C 3.375 3.859375 3.382812 3.941406 3.394531 4.03125 C 3.417969 4.207031 3.460938 4.402344 3.535156 4.605469 C 3.5625 4.679688 3.574219 4.738281 3.574219 4.78125 C 3.574219 4.917969 3.496094 5.007812 3.339844 5.035156 C 3.242188 5.050781 3.125 5.035156 2.992188 4.988281 C 2.988281 4.988281 2.984375 4.988281 2.976562 4.984375 C 2.511719 4.816406 2.273438 4.558594 2.273438 4.320312 C 2.273438 4.226562 2.316406 4.128906 2.402344 4.011719 C 2.480469 3.90625 2.53125 3.808594 2.550781 3.730469 C 2.601562 3.53125 2.625 3.289062 2.625 3 C 2.625 2.839844 2.613281 2.683594 2.582031 2.546875 C 2.566406 2.480469 2.519531 2.371094 2.441406 2.230469 C 2.398438 2.152344 2.378906 2.097656 2.378906 2.058594 C 2.378906 1.964844 2.492188 1.898438 2.71875 1.863281 C 2.804688 1.851562 2.890625 1.847656 2.980469 1.847656 C 3.253906 1.847656 3.4375 1.898438 3.53125 1.996094 C 3.5625 2.03125 3.578125 2.066406 3.578125 2.101562 C 3.582031 2.144531 3.542969 2.234375 3.476562 2.367188 C 3.394531 2.519531 3.355469 2.648438 3.355469 2.757812 C 3.355469 2.929688 3.441406 3.035156 3.617188 3.074219 C 3.640625 3.082031 3.664062 3.085938 3.6875 3.085938 C 3.890625 3.078125 4.011719 2.976562 4.019531 2.804688 C 4.023438 2.691406 3.972656 2.535156 3.878906 2.347656 C 3.824219 2.230469 3.792969 2.152344 3.792969 2.105469 C 3.792969 1.992188 3.910156 1.917969 4.136719 1.875 C 4.21875 1.859375 4.304688 1.851562 4.394531 1.851562 C 4.667969 1.851562 4.851562 1.90625 4.949219 2.007812 C 4.980469 2.042969 5 2.082031 5 2.121094 C 5 2.171875 4.964844 2.265625 4.898438 2.398438 C 4.84375 2.511719 4.808594 2.609375 4.792969 2.6875 C 4.769531 2.800781 4.761719 2.957031 4.761719 3.15625 C 4.761719 3.539062 4.78125 3.84375 4.824219 4.078125 Z M 3.222656 1.992188 C 3.167969 1.992188 3.136719 2.015625 3.136719 2.050781 C 3.136719 2.085938 3.164062 2.113281 3.222656 2.132812 C 3.242188 2.140625 3.257812 2.144531 3.273438 2.144531 C 3.328125 2.144531 3.363281 2.121094 3.363281 2.085938 C 3.363281 2.050781 3.332031 2.019531 3.273438 2.003906 C 3.257812 1.996094 3.238281 1.992188 3.222656 1.992188 Z M 4.640625 2.011719 C 4.582031 2.011719 4.550781 2.035156 4.546875 2.074219 C 4.546875 2.113281 4.578125 2.144531 4.636719 2.164062 C 4.65625 2.171875 4.671875 2.175781 4.6875 2.175781 C 4.746094 2.171875 4.777344 2.148438 4.78125 2.109375 C 4.78125 2.070312 4.75 2.039062 4.691406 2.019531 C 4.671875 2.011719 4.65625 2.007812 4.640625 2.011719 Z M 7.570312 3.441406 C 7.644531 3.648438 7.761719 3.789062 7.921875 3.863281 C 8.027344 3.910156 8.085938 3.941406 8.101562 3.953125 C 8.15625 4 8.183594 4.070312 8.183594 4.167969 C 8.183594 4.351562 8.089844 4.5 7.898438 4.609375 C 7.8125 4.660156 7.679688 4.71875 7.507812 4.78125 C 7.179688 4.898438 6.972656 4.914062 6.886719 4.832031 C 6.84375 4.789062 6.820312 4.71875 6.820312 4.625 C 6.820312 4.597656 6.820312 4.539062 6.824219 4.460938 C 6.828125 4.355469 6.832031 4.277344 6.832031 4.230469 C 6.832031 4.050781 6.792969 3.953125 6.710938 3.9375 C 6.679688 3.929688 6.648438 3.929688 6.613281 3.9375 C 6.433594 3.980469 6.34375 4.167969 6.34375 4.496094 C 6.34375 4.515625 6.339844 4.546875 6.34375 4.589844 C 6.34375 4.628906 6.347656 4.660156 6.347656 4.679688 C 6.347656 4.917969 6.257812 5.09375 6.082031 5.203125 C 5.996094 5.257812 5.886719 5.273438 5.75 5.285156 C 5.480469 5.304688 5.316406 5.238281 5.257812 5.089844 C 5.234375 5.035156 5.222656 4.96875 5.222656 4.890625 C 5.222656 4.765625 5.261719 4.671875 5.339844 4.613281 C 5.351562 4.605469 5.371094 4.589844 5.402344 4.570312 C 5.523438 4.492188 5.613281 4.398438 5.671875 4.289062 C 5.691406 4.257812 5.707031 4.226562 5.71875 4.195312 C 5.871094 3.859375 5.992188 3.5 6.085938 3.148438 C 6.152344 2.890625 6.183594 2.710938 6.183594 2.601562 C 6.183594 2.507812 6.15625 2.402344 6.097656 2.277344 C 6.058594 2.199219 6.039062 2.132812 6.039062 2.082031 C 6.039062 1.976562 6.171875 1.898438 6.4375 1.859375 C 6.519531 1.847656 6.605469 1.839844 6.691406 1.839844 C 6.960938 1.839844 7.160156 1.882812 7.289062 1.964844 C 7.339844 1.996094 7.367188 2.03125 7.378906 2.070312 C 7.378906 2.085938 7.382812 2.101562 7.382812 2.125 C 7.390625 2.5625 7.417969 3.019531 7.570312 3.441406 Z M 6.511719 3.394531 C 6.515625 3.484375 6.554688 3.535156 6.613281 3.523438 C 6.6875 3.507812 6.730469 3.433594 6.726562 3.320312 C 6.726562 3.0625 6.683594 2.921875 6.632812 2.925781 C 6.589844 2.925781 6.550781 3.015625 6.527344 3.171875 C 6.515625 3.242188 6.507812 3.320312 6.511719 3.394531 Z M 7.007812 1.988281 C 6.953125 1.992188 6.917969 2.015625 6.917969 2.050781 C 6.914062 2.085938 6.945312 2.113281 7.003906 2.128906 C 7.023438 2.132812 7.039062 2.132812 7.054688 2.132812 C 7.109375 2.128906 7.140625 2.105469 7.144531 2.070312 C 7.144531 2.035156 7.113281 2.007812 7.054688 1.992188 C 7.039062 1.988281 7.023438 1.988281 7.007812 1.988281 Z M 10.363281 2.128906 C 10.363281 2.246094 10.320312 2.34375 10.242188 2.414062 C 10.195312 2.453125 10.144531 2.476562 10.09375 2.480469 C 10.078125 2.480469 10.058594 2.476562 10.042969 2.476562 C 9.996094 2.464844 9.949219 2.429688 9.894531 2.363281 C 9.839844 2.289062 9.785156 2.246094 9.738281 2.230469 C 9.710938 2.226562 9.679688 2.222656 9.648438 2.226562 C 9.527344 2.234375 9.425781 2.316406 9.339844 2.476562 C 9.277344 2.601562 9.242188 2.738281 9.242188 2.878906 C 9.242188 3.105469 9.320312 3.234375 9.480469 3.257812 C 9.53125 3.269531 9.589844 3.265625 9.648438 3.25 C 9.738281 3.230469 9.832031 3.164062 9.929688 3.058594 C 10.023438 2.957031 10.082031 2.910156 10.113281 2.894531 C 10.167969 2.859375 10.226562 2.84375 10.285156 2.839844 C 10.414062 2.835938 10.511719 2.894531 10.570312 3.015625 C 10.601562 3.082031 10.617188 3.148438 10.617188 3.222656 C 10.617188 3.558594 10.433594 3.773438 10.070312 3.890625 C 9.953125 3.925781 9.804688 3.984375 9.644531 4.035156 C 9.285156 4.152344 8.773438 4.238281 8.496094 3.917969 C 8.367188 3.769531 8.304688 3.5625 8.304688 3.3125 C 8.304688 2.960938 8.414062 2.617188 8.625 2.324219 C 8.847656 2.019531 9.125 1.859375 9.457031 1.8125 C 9.519531 1.804688 9.585938 1.800781 9.652344 1.800781 C 9.6875 1.800781 9.800781 1.808594 9.988281 1.828125 C 10.042969 1.832031 10.085938 1.835938 10.125 1.835938 C 10.136719 1.835938 10.15625 1.835938 10.171875 1.839844 C 10.265625 1.859375 10.324219 1.925781 10.351562 2.042969 C 10.359375 2.070312 10.363281 2.101562 10.363281 2.128906 Z M 9.9375 1.910156 C 9.898438 1.910156 9.875 1.921875 9.871094 1.941406 C 9.871094 1.964844 9.902344 1.984375 9.957031 1.996094 C 9.980469 2.003906 10.003906 2.007812 10.023438 2.007812 C 10.0625 2.003906 10.085938 1.992188 10.089844 1.976562 C 10.089844 1.953125 10.058594 1.933594 10.003906 1.917969 C 9.980469 1.910156 9.957031 1.90625 9.9375 1.910156 Z M 11.875 2.386719 C 11.875 2.445312 11.898438 2.484375 11.941406 2.488281 C 11.992188 2.488281 12.082031 2.4375 12.214844 2.328125 C 12.21875 2.324219 12.222656 2.320312 12.226562 2.320312 C 12.28125 2.273438 12.335938 2.203125 12.398438 2.109375 C 12.429688 2.0625 12.460938 2.023438 12.5 2 C 12.664062 1.890625 12.902344 1.828125 13.207031 1.832031 C 13.40625 1.832031 13.511719 1.867188 13.511719 1.921875 C 13.511719 1.953125 13.480469 1.992188 13.429688 2.03125 C 13.398438 2.058594 13.277344 2.121094 13.066406 2.203125 C 12.933594 2.261719 12.824219 2.3125 12.742188 2.355469 C 12.570312 2.445312 12.480469 2.511719 12.480469 2.558594 C 12.480469 2.582031 12.511719 2.605469 12.574219 2.640625 C 12.703125 2.710938 12.78125 2.757812 12.804688 2.773438 C 12.953125 2.867188 13.109375 3.058594 13.269531 3.367188 C 13.285156 3.402344 13.308594 3.449219 13.335938 3.5 C 13.371094 3.574219 13.441406 3.660156 13.542969 3.757812 C 13.632812 3.84375 13.6875 3.921875 13.710938 3.976562 C 13.734375 4.027344 13.746094 4.082031 13.746094 4.140625 C 13.746094 4.335938 13.625 4.386719 13.375 4.316406 C 13.300781 4.296875 13.207031 4.261719 13.09375 4.222656 C 12.765625 4.105469 12.554688 4.015625 12.46875 3.914062 C 12.425781 3.863281 12.402344 3.800781 12.402344 3.734375 C 12.402344 3.414062 12.359375 3.167969 12.273438 3 C 12.222656 2.902344 12.164062 2.851562 12.09375 2.84375 C 12.019531 2.835938 11.960938 2.867188 11.921875 2.933594 C 11.902344 2.96875 11.890625 3.007812 11.890625 3.046875 C 11.890625 3.101562 11.898438 3.15625 11.914062 3.203125 C 11.941406 3.289062 11.980469 3.394531 12.023438 3.515625 C 12.070312 3.640625 12.09375 3.726562 12.09375 3.769531 C 12.09375 3.890625 11.921875 3.921875 11.574219 3.902344 C 11.550781 3.898438 11.523438 3.898438 11.492188 3.894531 C 11.03125 3.863281 10.792969 3.785156 10.792969 3.605469 C 10.792969 3.53125 10.835938 3.4375 10.921875 3.332031 C 10.996094 3.234375 11.046875 3.152344 11.066406 3.09375 C 11.125 2.921875 11.15625 2.761719 11.15625 2.605469 C 11.15625 2.492188 11.136719 2.386719 11.101562 2.28125 C 11.085938 2.238281 11.039062 2.171875 10.957031 2.082031 C 10.917969 2.03125 10.898438 1.996094 10.898438 1.96875 C 10.898438 1.90625 11.007812 1.863281 11.226562 1.839844 C 11.316406 1.832031 11.40625 1.824219 11.5 1.824219 C 11.765625 1.828125 11.949219 1.855469 12.046875 1.914062 C 12.078125 1.9375 12.097656 1.960938 12.097656 1.980469 C 12.101562 2.007812 12.0625 2.0625 11.996094 2.144531 C 11.914062 2.238281 11.875 2.320312 11.875 2.386719 Z M 4.445312 7.761719 C 4.449219 8.152344 4.457031 8.566406 4.570312 8.953125 C 4.59375 9.042969 4.667969 9.179688 4.789062 9.351562 C 4.894531 9.5 4.960938 9.636719 4.949219 9.726562 C 4.902344 10.09375 4.324219 10.132812 3.964844 10.0625 C 3.578125 9.988281 3 9.710938 2.980469 9.304688 C 2.972656 9.195312 3.039062 9.074219 3.15625 8.953125 C 3.265625 8.84375 3.335938 8.742188 3.363281 8.652344 C 3.421875 8.476562 3.449219 8.1875 3.449219 7.816406 C 3.449219 7.523438 3.425781 7.25 3.375 6.996094 C 3.34375 6.875 3.292969 6.792969 3.21875 6.761719 C 3.09375 6.707031 2.921875 6.746094 2.714844 6.839844 C 2.710938 6.84375 2.707031 6.84375 2.703125 6.84375 C 2.609375 6.910156 2.527344 6.921875 2.457031 6.886719 C 2.429688 6.871094 2.402344 6.855469 2.378906 6.839844 C 2.234375 6.726562 2.152344 6.542969 2.125 6.3125 C 2.121094 6.277344 2.121094 6.242188 2.121094 6.207031 C 2.121094 5.96875 2.195312 5.816406 2.347656 5.722656 C 2.445312 5.667969 2.542969 5.660156 2.640625 5.707031 C 3.5 6.105469 4.277344 6.261719 5.238281 6.246094 C 5.371094 6.238281 5.496094 6.339844 5.613281 6.542969 C 5.714844 6.722656 5.765625 6.90625 5.765625 7.109375 C 5.765625 7.351562 5.699219 7.507812 5.574219 7.582031 C 5.550781 7.59375 5.523438 7.601562 5.5 7.605469 C 5.398438 7.625 5.300781 7.578125 5.207031 7.460938 C 5.195312 7.445312 5.1875 7.433594 5.175781 7.417969 C 5.089844 7.3125 4.980469 7.222656 4.855469 7.140625 C 4.777344 7.09375 4.710938 7.066406 4.65625 7.066406 C 4.515625 7.085938 4.4375 7.324219 4.445312 7.761719 Z M 5.089844 6.382812 C 5.027344 6.386719 4.992188 6.414062 4.992188 6.457031 C 4.988281 6.507812 5.03125 6.554688 5.109375 6.585938 C 5.140625 6.601562 5.171875 6.609375 5.203125 6.605469 C 5.261719 6.597656 5.296875 6.570312 5.296875 6.527344 C 5.300781 6.476562 5.257812 6.433594 5.179688 6.402344 C 5.148438 6.386719 5.117188 6.378906 5.089844 6.382812 Z M 9.414062 7.128906 C 9.4375 7.234375 9.515625 7.367188 9.640625 7.53125 C 9.746094 7.671875 9.808594 7.8125 9.800781 7.9375 C 9.78125 8.398438 9.226562 8.679688 8.8125 8.859375 C 8.414062 9.03125 8.152344 9.058594 8.027344 8.929688 C 7.992188 8.890625 7.976562 8.84375 7.976562 8.78125 C 7.976562 8.730469 8.007812 8.621094 8.070312 8.445312 C 8.148438 8.238281 8.199219 8.023438 8.230469 7.804688 C 8.246094 7.679688 8.257812 7.582031 8.257812 7.511719 C 8.257812 7.304688 8.167969 7.226562 7.996094 7.273438 C 7.941406 7.289062 7.882812 7.316406 7.816406 7.347656 C 7.570312 7.472656 7.425781 7.628906 7.390625 7.816406 C 7.382812 7.859375 7.378906 7.90625 7.378906 7.953125 C 7.378906 8.03125 7.390625 8.121094 7.40625 8.214844 C 7.4375 8.402344 7.503906 8.589844 7.605469 8.761719 C 7.644531 8.824219 7.660156 8.882812 7.660156 8.929688 C 7.660156 9.09375 7.550781 9.269531 7.332031 9.445312 C 7.195312 9.554688 7.03125 9.648438 6.84375 9.726562 C 6.835938 9.730469 6.832031 9.730469 6.824219 9.734375 C 6.488281 9.84375 5.886719 10.046875 5.835938 9.617188 C 5.820312 9.511719 5.894531 9.339844 6.011719 9.121094 C 6.125 8.914062 6.195312 8.738281 6.222656 8.617188 C 6.292969 8.320312 6.328125 7.984375 6.328125 7.601562 C 6.328125 7.382812 6.308594 7.1875 6.265625 7.015625 C 6.246094 6.9375 6.179688 6.820312 6.066406 6.660156 C 6.007812 6.574219 5.980469 6.488281 5.980469 6.433594 C 5.980469 6.292969 6.140625 6.15625 6.460938 5.992188 C 6.578125 5.929688 6.699219 5.878906 6.824219 5.828125 C 7.210938 5.679688 7.46875 5.628906 7.601562 5.6875 C 7.640625 5.710938 7.664062 5.746094 7.667969 5.785156 C 7.667969 5.832031 7.617188 5.960938 7.519531 6.164062 C 7.410156 6.402344 7.355469 6.589844 7.355469 6.71875 C 7.355469 6.929688 7.476562 6.988281 7.722656 6.894531 C 7.753906 6.882812 7.785156 6.867188 7.820312 6.851562 C 8.105469 6.679688 8.273438 6.480469 8.28125 6.277344 C 8.289062 6.152344 8.21875 6.011719 8.089844 5.867188 C 8.007812 5.773438 7.96875 5.703125 7.96875 5.652344 C 7.96875 5.523438 8.128906 5.363281 8.449219 5.183594 C 8.566406 5.117188 8.6875 5.0625 8.8125 5.011719 C 9.195312 4.855469 9.453125 4.8125 9.589844 4.863281 C 9.636719 4.882812 9.660156 4.910156 9.660156 4.949219 C 9.664062 4.996094 9.613281 5.105469 9.523438 5.277344 C 9.441406 5.421875 9.390625 5.542969 9.371094 5.636719 C 9.339844 5.765625 9.328125 5.9375 9.328125 6.148438 C 9.328125 6.554688 9.355469 6.882812 9.414062 7.128906 Z M 7.167969 5.875 C 7.089844 5.910156 7.046875 5.953125 7.042969 6 C 7.042969 6.046875 7.085938 6.0625 7.167969 6.050781 C 7.195312 6.046875 7.21875 6.039062 7.238281 6.03125 C 7.316406 5.996094 7.363281 5.949219 7.363281 5.90625 C 7.367188 5.859375 7.324219 5.84375 7.238281 5.855469 C 7.214844 5.859375 7.191406 5.867188 7.167969 5.875 Z M 9.160156 5.03125 C 9.078125 5.066406 9.03125 5.109375 9.03125 5.152344 C 9.027344 5.191406 9.070312 5.207031 9.152344 5.191406 C 9.179688 5.1875 9.203125 5.179688 9.222656 5.171875 C 9.304688 5.136719 9.351562 5.097656 9.355469 5.054688 C 9.355469 5.015625 9.3125 5 9.230469 5.015625 C 9.203125 5.019531 9.179688 5.023438 9.160156 5.035156 Z M 10.449219 6.726562 C 10.535156 6.382812 10.574219 6.070312 10.574219 5.753906 C 10.574219 5.578125 10.554688 5.425781 10.519531 5.304688 C 10.5 5.226562 10.433594 5.117188 10.320312 4.980469 C 10.265625 4.910156 10.234375 4.851562 10.234375 4.8125 C 10.234375 4.664062 10.519531 4.53125 11.082031 4.527344 C 11.726562 4.527344 12.382812 4.625 12.96875 4.875 C 13.105469 4.929688 13.230469 5.074219 13.34375 5.316406 C 13.441406 5.523438 13.488281 5.722656 13.488281 5.890625 C 13.488281 6.109375 13.425781 6.191406 13.292969 6.140625 C 13.273438 6.132812 13.25 6.125 13.230469 6.113281 C 13.132812 6.054688 13.035156 5.949219 12.9375 5.800781 C 12.824219 5.628906 12.734375 5.519531 12.671875 5.464844 C 12.550781 5.351562 12.402344 5.269531 12.230469 5.226562 C 12.003906 5.171875 11.820312 5.214844 11.683594 5.339844 C 11.617188 5.402344 11.582031 5.464844 11.582031 5.53125 C 11.582031 5.621094 11.644531 5.675781 11.769531 5.707031 C 11.792969 5.710938 11.8125 5.714844 11.835938 5.71875 C 11.917969 5.730469 12.019531 5.710938 12.144531 5.664062 C 12.207031 5.644531 12.257812 5.636719 12.289062 5.644531 C 12.378906 5.671875 12.445312 5.761719 12.484375 5.914062 C 12.5 5.972656 12.503906 6.035156 12.503906 6.097656 C 12.503906 6.28125 12.457031 6.386719 12.363281 6.417969 C 12.339844 6.425781 12.316406 6.425781 12.289062 6.417969 C 12.257812 6.410156 12.195312 6.359375 12.101562 6.28125 C 12.007812 6.203125 11.914062 6.160156 11.835938 6.148438 C 11.695312 6.132812 11.621094 6.183594 11.621094 6.277344 C 11.617188 6.382812 11.683594 6.527344 11.808594 6.683594 C 11.894531 6.78125 11.976562 6.839844 12.046875 6.855469 C 12.257812 6.902344 12.457031 6.863281 12.621094 6.742188 C 12.636719 6.730469 12.660156 6.707031 12.691406 6.679688 C 12.808594 6.589844 12.910156 6.589844 12.992188 6.613281 C 13.027344 6.625 13.066406 6.640625 13.105469 6.667969 C 13.382812 6.835938 13.542969 7.113281 13.582031 7.460938 C 13.589844 7.515625 13.59375 7.570312 13.59375 7.621094 C 13.59375 7.941406 13.503906 8.171875 13.328125 8.359375 C 13.167969 8.53125 12.992188 8.589844 12.808594 8.519531 C 12.210938 8.324219 11.6875 8.234375 11.050781 8.222656 C 10.730469 8.25 10.0625 8.253906 10.0625 7.804688 C 10.0625 7.667969 10.121094 7.480469 10.242188 7.242188 C 10.351562 7.023438 10.421875 6.851562 10.453125 6.726562 Z M 12.820312 4.910156 C 12.761719 4.890625 12.726562 4.902344 12.726562 4.929688 C 12.722656 4.96875 12.765625 5.019531 12.84375 5.078125 C 12.878906 5.101562 12.910156 5.121094 12.9375 5.132812 C 12.992188 5.15625 13.027344 5.148438 13.03125 5.117188 C 13.03125 5.078125 12.988281 5.023438 12.910156 4.964844 C 12.878906 4.941406 12.847656 4.921875 12.820312 4.910156 Z M 5.433594 12.375 C 5.457031 12.445312 5.519531 12.546875 5.625 12.667969 C 5.714844 12.773438 5.761719 12.863281 5.761719 12.933594 C 5.757812 13.121094 5.476562 13.21875 4.933594 13.21875 C 4.601562 13.21875 4.382812 13.164062 4.28125 13.050781 C 4.25 13.019531 4.234375 12.980469 4.234375 12.945312 C 4.234375 12.914062 4.261719 12.855469 4.316406 12.769531 C 4.378906 12.667969 4.421875 12.554688 4.445312 12.429688 C 4.460938 12.359375 4.46875 12.300781 4.46875 12.257812 C 4.46875 12.128906 4.394531 12.046875 4.25 12.007812 C 4.207031 12 4.15625 11.992188 4.101562 11.988281 C 3.894531 11.96875 3.777344 12.007812 3.746094 12.113281 C 3.738281 12.140625 3.734375 12.167969 3.734375 12.199219 C 3.734375 12.253906 3.746094 12.316406 3.757812 12.386719 C 3.785156 12.519531 3.839844 12.667969 3.925781 12.8125 C 3.957031 12.867188 3.972656 12.90625 3.972656 12.9375 C 3.972656 13.042969 3.878906 13.117188 3.695312 13.171875 C 3.582031 13.203125 3.445312 13.21875 3.289062 13.21875 L 3.269531 13.21875 C 2.722656 13.214844 2.445312 13.085938 2.445312 12.835938 C 2.445312 12.734375 2.496094 12.609375 2.59375 12.476562 C 2.6875 12.347656 2.746094 12.25 2.769531 12.171875 C 2.828125 11.976562 2.855469 11.746094 2.855469 11.476562 C 2.855469 11.320312 2.839844 11.171875 2.804688 11.03125 C 2.789062 10.960938 2.734375 10.84375 2.640625 10.667969 C 2.589844 10.570312 2.566406 10.5 2.566406 10.460938 C 2.566406 10.363281 2.699219 10.367188 2.96875 10.4375 C 3.066406 10.464844 3.167969 10.496094 3.273438 10.527344 C 3.59375 10.632812 3.808594 10.710938 3.921875 10.808594 C 3.957031 10.84375 3.976562 10.875 3.976562 10.902344 C 3.976562 10.933594 3.933594 11 3.855469 11.089844 C 3.761719 11.195312 3.714844 11.292969 3.714844 11.378906 C 3.714844 11.515625 3.816406 11.613281 4.023438 11.65625 C 4.046875 11.660156 4.074219 11.664062 4.101562 11.667969 C 4.34375 11.675781 4.484375 11.597656 4.492188 11.476562 C 4.496094 11.394531 4.4375 11.277344 4.328125 11.128906 C 4.261719 11.035156 4.230469 10.96875 4.230469 10.9375 C 4.230469 10.851562 4.363281 10.8125 4.632812 10.792969 C 4.726562 10.789062 4.828125 10.785156 4.933594 10.785156 C 5.253906 10.785156 5.46875 10.804688 5.585938 10.875 C 5.621094 10.898438 5.640625 10.925781 5.644531 10.953125 C 5.644531 10.988281 5.605469 11.0625 5.527344 11.167969 C 5.460938 11.253906 5.417969 11.328125 5.398438 11.386719 C 5.375 11.46875 5.363281 11.585938 5.363281 11.726562 C 5.363281 12 5.386719 12.214844 5.4375 12.375 Z M 3.5625 10.734375 C 3.496094 10.71875 3.457031 10.726562 3.457031 10.757812 C 3.457031 10.785156 3.492188 10.820312 3.5625 10.851562 C 3.582031 10.859375 3.601562 10.867188 3.621094 10.871094 C 3.683594 10.886719 3.722656 10.875 3.722656 10.847656 C 3.726562 10.816406 3.6875 10.785156 3.621094 10.757812 C 3.597656 10.746094 3.578125 10.738281 3.5625 10.734375 Z M 5.222656 10.898438 C 5.15625 10.902344 5.117188 10.921875 5.113281 10.949219 C 5.113281 10.976562 5.148438 11 5.21875 11.011719 C 5.238281 11.015625 5.257812 11.019531 5.277344 11.015625 C 5.34375 11.011719 5.382812 10.992188 5.386719 10.964844 C 5.386719 10.933594 5.351562 10.914062 5.28125 10.902344 C 5.261719 10.898438 5.242188 10.898438 5.222656 10.898438 Z M 6.339844 11.269531 C 6.320312 11.210938 6.265625 11.132812 6.171875 11.035156 C 6.121094 10.984375 6.097656 10.941406 6.097656 10.910156 C 6.097656 10.808594 6.234375 10.703125 6.5 10.574219 C 6.597656 10.53125 6.699219 10.488281 6.808594 10.449219 C 7.128906 10.332031 7.34375 10.292969 7.453125 10.34375 C 7.492188 10.363281 7.511719 10.390625 7.511719 10.429688 C 7.511719 10.464844 7.476562 10.554688 7.398438 10.691406 C 7.332031 10.8125 7.289062 10.910156 7.269531 10.988281 C 7.242188 11.097656 7.226562 11.238281 7.226562 11.40625 C 7.226562 11.667969 7.261719 11.925781 7.324219 12.1875 C 7.328125 12.207031 7.378906 12.285156 7.476562 12.425781 C 7.585938 12.585938 7.640625 12.730469 7.640625 12.835938 C 7.636719 13.085938 7.355469 13.21875 6.816406 13.21875 C 6.277344 13.21875 5.996094 13.125 5.996094 12.933594 C 5.996094 12.847656 6.070312 12.710938 6.214844 12.5 C 6.273438 12.410156 6.308594 12.351562 6.316406 12.324219 C 6.367188 12.132812 6.390625 11.921875 6.390625 11.695312 C 6.390625 11.527344 6.375 11.382812 6.339844 11.269531 Z M 7.09375 10.480469 C 7.027344 10.503906 6.992188 10.539062 6.988281 10.570312 C 6.988281 10.605469 7.023438 10.617188 7.09375 10.609375 C 7.113281 10.605469 7.132812 10.601562 7.152344 10.59375 C 7.214844 10.570312 7.25 10.539062 7.25 10.503906 C 7.253906 10.46875 7.214844 10.453125 7.148438 10.464844 C 7.128906 10.46875 7.109375 10.472656 7.09375 10.480469 Z M 8.179688 11.960938 C 8.25 11.683594 8.285156 11.386719 8.285156 11.089844 C 8.285156 10.921875 8.269531 10.78125 8.238281 10.667969 C 8.222656 10.597656 8.167969 10.503906 8.074219 10.390625 C 8.023438 10.332031 8 10.285156 8 10.246094 C 8 10.128906 8.132812 9.996094 8.402344 9.847656 C 8.5 9.796875 8.601562 9.75 8.710938 9.707031 C 9.027344 9.582031 9.242188 9.558594 9.359375 9.621094 C 9.394531 9.652344 9.417969 9.6875 9.417969 9.730469 C 9.421875 9.773438 9.378906 9.871094 9.304688 10.027344 C 9.238281 10.167969 9.191406 10.285156 9.171875 10.378906 C 9.144531 10.492188 9.132812 10.664062 9.132812 10.890625 C 9.132812 11.316406 9.167969 11.597656 9.234375 11.726562 C 9.292969 11.84375 9.390625 11.898438 9.515625 11.878906 C 9.695312 11.855469 9.855469 11.726562 9.992188 11.542969 C 10.007812 11.527344 10.027344 11.496094 10.050781 11.457031 C 10.152344 11.320312 10.234375 11.238281 10.304688 11.207031 C 10.332031 11.195312 10.367188 11.191406 10.398438 11.191406 C 10.628906 11.183594 10.761719 11.339844 10.796875 11.65625 C 10.800781 11.707031 10.804688 11.757812 10.804688 11.8125 C 10.804688 12.136719 10.734375 12.449219 10.585938 12.746094 C 10.449219 13.019531 10.304688 13.160156 10.152344 13.164062 C 9.660156 13.164062 9.171875 13.167969 8.683594 13.171875 C 8.136719 13.171875 7.859375 13.042969 7.855469 12.78125 C 7.855469 12.679688 7.90625 12.539062 8.003906 12.359375 C 8.097656 12.195312 8.15625 12.058594 8.179688 11.960938 Z M 11.292969 11.644531 C 11.363281 11.316406 11.398438 10.976562 11.398438 10.617188 C 11.398438 10.421875 11.382812 10.246094 11.351562 10.097656 C 11.332031 10.007812 11.277344 9.871094 11.183594 9.695312 C 11.136719 9.601562 11.113281 9.53125 11.113281 9.484375 C 11.113281 9.347656 11.246094 9.25 11.515625 9.21875 C 11.609375 9.207031 11.714844 9.210938 11.820312 9.222656 C 12.136719 9.261719 12.355469 9.375 12.472656 9.515625 C 12.507812 9.566406 12.53125 9.617188 12.53125 9.664062 C 12.53125 9.707031 12.492188 9.789062 12.417969 9.910156 C 12.347656 10.019531 12.304688 10.121094 12.28125 10.210938 C 12.257812 10.320312 12.246094 10.5 12.246094 10.742188 C 12.246094 11.199219 12.277344 11.511719 12.34375 11.667969 C 12.40625 11.804688 12.503906 11.886719 12.625 11.902344 C 12.804688 11.925781 12.96875 11.859375 13.105469 11.722656 C 13.121094 11.707031 13.140625 11.6875 13.164062 11.65625 C 13.261719 11.554688 13.347656 11.503906 13.417969 11.496094 C 13.445312 11.496094 13.476562 11.5 13.511719 11.507812 C 13.742188 11.574219 13.875 11.746094 13.910156 12.003906 C 13.914062 12.046875 13.917969 12.089844 13.917969 12.128906 C 13.917969 12.382812 13.84375 12.613281 13.695312 12.84375 C 13.5625 13.050781 13.417969 13.167969 13.261719 13.171875 C 12.773438 13.167969 12.285156 13.164062 11.792969 13.164062 C 11.433594 13.179688 10.964844 13.042969 10.96875 12.632812 C 10.96875 12.496094 11.015625 12.316406 11.117188 12.105469 C 11.210938 11.914062 11.269531 11.761719 11.292969 11.644531 Z M 11.292969 11.644531 "/>
</g>
</svg>
