<?xml version="1.0" encoding="UTF-8"?>
<svg xmlns="http://www.w3.org/2000/svg" xmlns:xlink="http://www.w3.org/1999/xlink" width="128px" height="128px" viewBox="0 0 128 127" version="1.1">
<g id="surface1">
<path style=" stroke:none;fill-rule:nonzero;fill:rgb(23.137255%,27.843137%,47.45098%);fill-opacity:1;" d="M 29.308594 25.277344 C 29.503906 26.410156 30.085938 28.007812 31.0625 30.019531 C 31.894531 31.730469 32.328125 33.175781 32.316406 34.328125 C 32.289062 37.410156 29.695312 39.160156 24.675781 38.714844 C 21.59375 38.445312 19.570312 37.175781 18.621094 35.261719 C 18.34375 34.703125 18.207031 34.136719 18.207031 33.5625 C 18.207031 33.082031 18.472656 32.214844 18.957031 30.957031 C 19.546875 29.421875 19.933594 27.65625 20.167969 25.746094 C 20.296875 24.664062 20.375 23.765625 20.375 23.082031 C 20.375 21.089844 19.707031 19.828125 18.371094 19.292969 C 17.953125 19.148438 17.496094 19.046875 16.992188 18.988281 C 15.070312 18.753906 13.972656 19.375 13.695312 20.90625 C 13.636719 21.277344 13.613281 21.679688 13.613281 22.121094 C 13.613281 22.875 13.695312 23.765625 13.820312 24.753906 C 14.066406 26.714844 14.554688 28.878906 15.363281 31.15625 C 15.644531 31.976562 15.78125 32.617188 15.78125 33.089844 C 15.78125 34.636719 14.929688 35.628906 13.234375 35.925781 C 12.175781 36.09375 10.921875 35.933594 9.476562 35.417969 C 9.410156 35.390625 9.378906 35.382812 9.3125 35.359375 C 4.242188 33.5 1.683594 30.617188 1.671875 27.984375 C 1.664062 26.949219 2.128906 25.84375 3.050781 24.574219 C 3.90625 23.390625 4.457031 22.3125 4.679688 21.429688 C 5.207031 19.242188 5.472656 16.519531 5.472656 13.339844 C 5.472656 11.535156 5.332031 9.824219 5.011719 8.292969 C 4.855469 7.558594 4.328125 6.351562 3.46875 4.78125 C 3.019531 3.921875 2.796875 3.292969 2.796875 2.871094 C 2.796875 1.808594 4.035156 1.109375 6.519531 0.722656 C 7.40625 0.578125 8.339844 0.507812 9.316406 0.515625 C 12.292969 0.535156 14.296875 1.070312 15.328125 2.164062 C 15.636719 2.5625 15.816406 2.972656 15.828125 3.351562 C 15.847656 3.828125 15.441406 4.839844 14.703125 6.28125 C 13.832031 7.972656 13.40625 9.40625 13.40625 10.617188 C 13.40625 12.527344 14.355469 13.722656 16.246094 14.167969 C 16.496094 14.226562 16.746094 14.261719 16.996094 14.285156 C 19.222656 14.203125 20.503906 13.058594 20.589844 11.140625 C 20.640625 9.898438 20.089844 8.144531 19.085938 6.078125 C 18.472656 4.792969 18.167969 3.90625 18.167969 3.410156 C 18.167969 2.148438 19.402344 1.296875 21.886719 0.832031 C 22.777344 0.664062 23.710938 0.582031 24.683594 0.582031 C 27.636719 0.585938 29.640625 1.167969 30.699219 2.320312 C 31.03125 2.707031 31.226562 3.136719 31.238281 3.578125 C 31.257812 4.117188 30.871094 5.164062 30.15625 6.636719 C 29.539062 7.902344 29.152344 8.984375 28.988281 9.867188 C 28.757812 11.121094 28.65625 12.871094 28.65625 15.070312 C 28.65625 19.304688 28.875 22.695312 29.324219 25.289062 Z M 11.980469 2.140625 C 11.386719 2.140625 11.03125 2.386719 11.019531 2.777344 C 11.007812 3.175781 11.34375 3.492188 11.980469 3.707031 C 12.175781 3.777344 12.363281 3.820312 12.523438 3.820312 C 13.117188 3.828125 13.46875 3.585938 13.480469 3.179688 C 13.496094 2.777344 13.160156 2.453125 12.523438 2.246094 C 12.328125 2.175781 12.140625 2.136719 11.980469 2.136719 Z M 27.347656 2.339844 C 26.722656 2.351562 26.359375 2.621094 26.347656 3.058594 C 26.335938 3.492188 26.667969 3.835938 27.304688 4.046875 C 27.5 4.117188 27.6875 4.160156 27.847656 4.15625 C 28.472656 4.148438 28.835938 3.878906 28.847656 3.433594 C 28.863281 2.996094 28.527344 2.652344 27.890625 2.441406 C 27.695312 2.367188 27.511719 2.328125 27.347656 2.332031 Z M 59.128906 18.234375 C 59.9375 20.523438 61.203125 22.089844 62.929688 22.910156 C 64.070312 23.441406 64.722656 23.765625 64.890625 23.925781 C 65.472656 24.433594 65.765625 25.21875 65.765625 26.296875 C 65.765625 28.34375 64.738281 29.976562 62.675781 31.214844 C 61.730469 31.78125 60.324219 32.414062 58.460938 33.09375 C 54.898438 34.394531 52.640625 34.582031 51.695312 33.6875 C 51.222656 33.195312 50.980469 32.421875 50.980469 31.378906 C 50.980469 31.050781 50.992188 30.429688 51.027344 29.53125 C 51.074219 28.355469 51.109375 27.496094 51.109375 26.988281 C 51.109375 25 50.675781 23.910156 49.816406 23.71875 C 49.480469 23.648438 49.117188 23.652344 48.730469 23.742188 C 46.789062 24.210938 45.804688 26.3125 45.804688 29.929688 C 45.804688 30.148438 45.792969 30.503906 45.804688 30.957031 C 45.820312 31.402344 45.847656 31.753906 45.847656 31.96875 C 45.847656 34.636719 44.890625 36.570312 42.96875 37.804688 C 42.046875 38.375 40.851562 38.558594 39.375 38.675781 C 36.453125 38.925781 34.671875 38.160156 34.03125 36.539062 C 33.777344 35.902344 33.652344 35.164062 33.652344 34.324219 C 33.652344 32.933594 34.070312 31.90625 34.90625 31.234375 C 35.046875 31.136719 35.285156 30.980469 35.621094 30.777344 C 36.929688 29.890625 37.902344 28.84375 38.542969 27.644531 C 38.738281 27.277344 38.902344 26.929688 39.042969 26.59375 C 40.691406 22.882812 42.011719 18.875 43.007812 14.960938 C 43.730469 12.125 44.09375 10.113281 44.09375 8.902344 C 44.09375 7.855469 43.769531 6.667969 43.132812 5.296875 C 42.71875 4.425781 42.511719 3.699219 42.511719 3.136719 C 42.511719 1.960938 43.960938 1.109375 46.851562 0.652344 C 47.742188 0.511719 48.648438 0.445312 49.570312 0.4375 C 52.492188 0.421875 54.664062 0.917969 56.082031 1.839844 C 56.609375 2.1875 56.929688 2.574219 57.039062 3.007812 C 57.066406 3.15625 57.074219 3.367188 57.085938 3.628906 C 57.183594 8.457031 57.460938 13.523438 59.132812 18.234375 Z M 47.644531 17.710938 C 47.667969 18.71875 48.105469 19.246094 48.726562 19.117188 C 49.527344 18.949219 49.996094 18.128906 49.980469 16.863281 C 49.953125 14.039062 49.511719 12.476562 48.9375 12.496094 C 48.480469 12.515625 48.058594 13.476562 47.804688 15.238281 C 47.695312 16.023438 47.613281 16.867188 47.644531 17.703125 Z M 53.03125 2.097656 C 52.40625 2.132812 52.039062 2.390625 52.027344 2.785156 C 52.015625 3.179688 52.347656 3.480469 52.988281 3.632812 C 53.183594 3.691406 53.371094 3.714844 53.53125 3.703125 C 54.128906 3.660156 54.476562 3.402344 54.488281 3.019531 C 54.503906 2.605469 54.167969 2.296875 53.53125 2.132812 C 53.363281 2.105469 53.191406 2.089844 53.03125 2.097656 Z M 89.402344 3.652344 C 89.402344 4.957031 88.96875 6.015625 88.105469 6.828125 C 87.605469 7.265625 87.054688 7.511719 86.480469 7.539062 C 86.316406 7.546875 86.132812 7.523438 85.9375 7.492188 C 85.4375 7.382812 84.910156 6.984375 84.347656 6.25 C 83.738281 5.441406 83.164062 4.949219 82.636719 4.792969 C 82.328125 4.71875 82.011719 4.691406 81.675781 4.71875 C 80.34375 4.828125 79.230469 5.71875 78.335938 7.496094 C 77.625 8.90625 77.25 10.425781 77.25 11.984375 C 77.25 14.507812 78.113281 15.949219 79.84375 16.210938 C 80.398438 16.304688 81.007812 16.265625 81.675781 16.109375 C 82.652344 15.886719 83.671875 15.144531 84.726562 13.964844 C 85.730469 12.84375 86.386719 12.335938 86.6875 12.140625 C 87.300781 11.765625 87.925781 11.570312 88.566406 11.554688 C 89.988281 11.515625 91.019531 12.167969 91.65625 13.515625 C 91.988281 14.21875 92.160156 14.988281 92.160156 15.8125 C 92.160156 19.523438 90.179688 21.925781 86.230469 23.199219 C 84.949219 23.617188 83.363281 24.25 81.632812 24.828125 C 77.730469 26.132812 72.191406 27.078125 69.144531 23.496094 C 67.78125 21.867188 67.097656 19.589844 67.097656 16.777344 C 67.097656 12.886719 68.277344 9.074219 70.5625 5.828125 C 72.964844 2.425781 75.96875 0.65625 79.585938 0.15625 C 80.28125 0.0507812 80.996094 0 81.71875 0 C 82.105469 0 83.316406 0.113281 85.351562 0.304688 C 85.9375 0.355469 86.421875 0.386719 86.8125 0.386719 C 86.980469 0.386719 87.160156 0.40625 87.355469 0.441406 C 88.359375 0.664062 88.996094 1.398438 89.277344 2.691406 C 89.363281 3.007812 89.40625 3.332031 89.40625 3.652344 Z M 84.804688 1.207031 C 84.367188 1.226562 84.105469 1.367188 84.09375 1.566406 C 84.078125 1.816406 84.402344 2.046875 85.011719 2.1875 C 85.265625 2.257812 85.503906 2.292969 85.722656 2.289062 C 86.15625 2.277344 86.421875 2.144531 86.4375 1.949219 C 86.453125 1.703125 86.128906 1.472656 85.519531 1.308594 C 85.265625 1.234375 85.023438 1.199219 84.804688 1.207031 Z M 105.8125 6.5 C 105.828125 7.1875 106.089844 7.582031 106.527344 7.621094 C 107.070312 7.667969 108.070312 7.085938 109.488281 5.878906 C 109.546875 5.820312 109.585938 5.785156 109.613281 5.761719 C 110.203125 5.261719 110.828125 4.488281 111.496094 3.417969 C 111.828125 2.894531 112.1875 2.492188 112.578125 2.210938 C 114.386719 0.988281 116.96875 0.308594 120.261719 0.347656 C 122.421875 0.371094 123.574219 0.757812 123.5625 1.363281 C 123.554688 1.707031 123.238281 2.140625 122.683594 2.574219 C 122.324219 2.871094 121.015625 3.550781 118.757812 4.488281 C 117.308594 5.136719 116.128906 5.683594 115.210938 6.152344 C 113.34375 7.148438 112.386719 7.898438 112.371094 8.4375 C 112.367188 8.664062 112.71875 8.964844 113.414062 9.34375 C 114.808594 10.121094 115.628906 10.628906 115.878906 10.800781 C 117.519531 11.855469 119.210938 13.953125 120.9375 17.382812 C 121.132812 17.8125 121.378906 18.316406 121.648438 18.878906 C 122.042969 19.707031 122.8125 20.644531 123.902344 21.726562 C 124.878906 22.695312 125.480469 23.558594 125.738281 24.167969 C 125.976562 24.734375 126.117188 25.355469 126.117188 26 C 126.117188 28.152344 124.78125 28.707031 122.105469 27.941406 C 121.277344 27.707031 120.253906 27.347656 119.054688 26.902344 C 115.464844 25.578125 113.195312 24.609375 112.25 23.488281 C 111.777344 22.894531 111.539062 22.222656 111.539062 21.460938 C 111.539062 17.925781 111.0625 15.203125 110.121094 13.316406 C 109.589844 12.257812 108.9375 11.683594 108.195312 11.601562 C 107.402344 11.515625 106.761719 11.859375 106.320312 12.601562 C 106.09375 12.972656 105.980469 13.398438 105.984375 13.832031 C 105.984375 14.46875 106.066406 15.058594 106.234375 15.59375 C 106.535156 16.535156 106.957031 17.683594 107.445312 19.035156 C 107.953125 20.429688 108.195312 21.390625 108.195312 21.863281 C 108.195312 23.21875 106.320312 23.550781 102.5625 23.335938 C 102.28125 23.3125 101.988281 23.289062 101.683594 23.269531 C 96.65625 22.914062 94.097656 22.039062 94.082031 20.027344 C 94.078125 19.234375 94.554688 18.203125 95.460938 17.007812 C 96.296875 15.90625 96.824219 15.019531 97.050781 14.355469 C 97.691406 12.464844 98.011719 10.660156 98.011719 8.933594 C 98.011719 7.699219 97.8125 6.503906 97.421875 5.355469 C 97.253906 4.875 96.742188 4.125 95.878906 3.125 C 95.429688 2.578125 95.210938 2.164062 95.210938 1.886719 C 95.210938 1.179688 96.40625 0.703125 98.804688 0.449219 C 99.75 0.339844 100.722656 0.285156 101.726562 0.289062 C 104.621094 0.292969 106.613281 0.613281 107.699219 1.273438 C 108.03125 1.515625 108.226562 1.777344 108.238281 2.023438 C 108.257812 2.304688 107.855469 2.921875 107.113281 3.8125 C 106.246094 4.847656 105.800781 5.761719 105.820312 6.503906 Z M 25.21875 66.179688 C 25.28125 70.515625 25.371094 75.121094 26.566406 79.40625 C 26.84375 80.441406 27.644531 81.960938 28.972656 83.871094 C 30.097656 85.488281 30.796875 87.015625 30.671875 88.035156 C 30.164062 92.101562 23.890625 92.519531 19.996094 91.746094 C 15.820312 90.90625 9.554688 87.847656 9.324219 83.3125 C 9.261719 82.097656 9.972656 80.753906 11.261719 79.417969 C 12.429688 78.199219 13.171875 77.070312 13.488281 76.105469 C 14.113281 74.117188 14.425781 70.921875 14.425781 66.804688 C 14.425781 63.570312 14.152344 60.523438 13.605469 57.683594 C 13.296875 56.335938 12.71875 55.457031 11.90625 55.085938 C 10.542969 54.464844 8.679688 54.929688 6.453125 55.980469 C 6.414062 55.996094 6.375 56.011719 6.335938 56.027344 C 5.320312 56.746094 4.414062 56.867188 3.636719 56.464844 C 3.34375 56.324219 3.066406 56.148438 2.816406 55.945312 C 1.253906 54.703125 0.335938 52.675781 0.0625 50.109375 C 0.0234375 49.699219 0 49.308594 0 48.933594 C 0 46.269531 0.820312 44.617188 2.464844 43.566406 C 3.519531 42.949219 4.578125 42.859375 5.632812 43.394531 C 14.988281 47.808594 23.394531 49.539062 33.839844 49.375 C 35.285156 49.296875 36.636719 50.429688 37.886719 52.683594 C 38.980469 54.660156 39.527344 56.714844 39.527344 58.929688 C 39.527344 61.640625 38.84375 63.394531 37.476562 64.214844 C 37.203125 64.351562 36.929688 64.4375 36.65625 64.480469 C 35.5625 64.667969 34.503906 64.136719 33.488281 62.859375 C 33.371094 62.707031 33.253906 62.546875 33.136719 62.390625 C 32.199219 61.214844 31.046875 60.203125 29.679688 59.320312 C 28.820312 58.773438 28.09375 58.476562 27.511719 58.457031 C 25.988281 58.707031 25.148438 61.359375 25.222656 66.183594 Z M 32.195312 50.882812 C 31.546875 50.925781 31.15625 51.230469 31.140625 51.695312 C 31.121094 52.28125 31.570312 52.804688 32.429688 53.152344 C 32.78125 53.308594 33.125 53.386719 33.429688 53.359375 C 34.074219 53.292969 34.464844 52.96875 34.480469 52.507812 C 34.503906 51.929688 34.054688 51.445312 33.195312 51.09375 C 32.84375 50.941406 32.5 50.855469 32.195312 50.878906 Z M 79.105469 59.160156 C 79.382812 60.339844 80.203125 61.804688 81.574219 63.628906 C 82.738281 65.1875 83.390625 66.777344 83.328125 68.152344 C 83.109375 73.265625 77.09375 76.402344 72.597656 78.386719 C 68.261719 80.304688 65.421875 80.589844 64.09375 79.160156 C 63.703125 78.746094 63.511719 78.203125 63.511719 77.53125 C 63.511719 76.96875 63.875 75.730469 64.5625 73.804688 C 65.394531 71.496094 65.9375 69.082031 66.265625 66.675781 C 66.453125 65.300781 66.5625 64.207031 66.5625 63.421875 C 66.5625 61.125 65.621094 60.253906 63.746094 60.769531 C 63.15625 60.957031 62.511719 61.234375 61.808594 61.597656 C 59.109375 62.984375 57.566406 64.707031 57.175781 66.789062 C 57.09375 67.292969 57.054688 67.796875 57.058594 68.304688 C 57.058594 69.199219 57.179688 70.1875 57.351562 71.226562 C 57.699219 73.316406 58.390625 75.382812 59.523438 77.304688 C 59.914062 78 60.105469 78.628906 60.105469 79.183594 C 60.105469 80.992188 58.914062 82.929688 56.53125 84.90625 C 55.042969 86.117188 53.289062 87.160156 51.257812 88.007812 C 51.160156 88.046875 51.117188 88.066406 51.023438 88.109375 C 47.390625 89.292969 40.863281 91.585938 40.289062 86.792969 C 40.152344 85.644531 40.933594 83.703125 42.226562 81.277344 C 43.433594 79.011719 44.203125 77.054688 44.511719 75.71875 C 45.253906 72.410156 45.628906 68.65625 45.628906 64.417969 C 45.628906 62.003906 45.4375 59.808594 44.980469 57.925781 C 44.765625 57.027344 44.023438 55.730469 42.8125 53.976562 C 42.1875 53.007812 41.875 52.078125 41.875 51.453125 C 41.875 49.875 43.613281 48.382812 47.09375 46.53125 C 48.34375 45.871094 49.65625 45.269531 51.027344 44.738281 C 55.210938 43.097656 58.027344 42.53125 59.46875 43.167969 C 59.902344 43.441406 60.15625 43.8125 60.171875 44.238281 C 60.199219 44.789062 59.636719 46.21875 58.589844 48.472656 C 57.371094 51.101562 56.769531 53.179688 56.769531 54.636719 C 56.769531 56.949219 58.097656 57.609375 60.757812 56.578125 C 61.109375 56.441406 61.460938 56.285156 61.8125 56.105469 C 64.941406 54.191406 66.746094 51.953125 66.855469 49.71875 C 66.921875 48.339844 66.152344 46.765625 64.742188 45.144531 C 63.882812 44.125 63.453125 43.320312 63.453125 42.753906 C 63.453125 41.328125 65.195312 39.566406 68.671875 37.566406 C 69.921875 36.851562 71.230469 36.210938 72.605469 35.640625 C 76.746094 33.925781 79.5625 33.441406 81.046875 34.015625 C 81.515625 34.214844 81.789062 34.550781 81.8125 34.960938 C 81.835938 35.480469 81.296875 36.699219 80.289062 38.597656 C 79.425781 40.21875 78.875 41.574219 78.648438 42.589844 C 78.328125 44.027344 78.179688 45.925781 78.179688 48.277344 C 78.179688 52.804688 78.492188 56.449219 79.117188 59.15625 Z M 54.769531 45.246094 C 53.921875 45.625 53.4375 46.132812 53.421875 46.644531 C 53.402344 47.144531 53.867188 47.347656 54.769531 47.195312 C 55.042969 47.160156 55.304688 47.089844 55.535156 46.984375 C 56.386719 46.59375 56.863281 46.082031 56.886719 45.574219 C 56.902344 45.085938 56.433594 44.890625 55.535156 45.039062 C 55.261719 45.078125 55 45.144531 54.769531 45.246094 Z M 76.351562 35.898438 C 75.464844 36.277344 74.964844 36.753906 74.945312 37.210938 C 74.929688 37.65625 75.398438 37.816406 76.296875 37.65625 C 76.570312 37.613281 76.832031 37.542969 77.0625 37.449219 C 77.949219 37.0625 78.449219 36.597656 78.46875 36.148438 C 78.484375 35.714844 78.015625 35.542969 77.117188 35.699219 C 76.84375 35.738281 76.585938 35.800781 76.351562 35.902344 Z M 90.367188 54.722656 C 91.265625 50.875 91.71875 47.410156 91.71875 43.890625 C 91.71875 41.933594 91.511719 40.277344 91.132812 38.902344 C 90.894531 38.042969 90.171875 36.835938 88.960938 35.328125 C 88.335938 34.523438 88.019531 33.890625 88.027344 33.433594 C 88.042969 31.789062 91.132812 30.335938 97.230469 30.28125 C 104.1875 30.28125 111.320312 31.355469 117.699219 34.136719 C 119.144531 34.738281 120.507812 36.347656 121.746094 39.042969 C 122.804688 41.355469 123.332031 43.546875 123.332031 45.421875 C 123.332031 47.855469 122.628906 48.746094 121.21875 48.21875 C 120.972656 48.128906 120.734375 48.015625 120.515625 47.878906 C 119.460938 47.222656 118.40625 46.0625 117.347656 44.4375 C 116.097656 42.515625 115.140625 41.308594 114.472656 40.695312 C 113.148438 39.429688 111.542969 38.527344 109.667969 38.054688 C 107.203125 37.4375 105.230469 37.925781 103.746094 39.304688 C 103.003906 39.992188 102.628906 40.710938 102.628906 41.417969 C 102.628906 42.417969 103.316406 43.035156 104.679688 43.363281 C 104.914062 43.425781 105.152344 43.472656 105.386719 43.503906 C 106.28125 43.632812 107.398438 43.417969 108.726562 42.921875 C 109.429688 42.667969 109.960938 42.601562 110.3125 42.703125 C 111.285156 42.976562 111.988281 43.96875 112.421875 45.660156 C 112.578125 46.339844 112.65625 47.023438 112.65625 47.714844 C 112.65625 49.753906 112.152344 50.929688 111.136719 51.296875 C 110.863281 51.371094 110.585938 51.371094 110.3125 51.289062 C 109.960938 51.183594 109.277344 50.621094 108.261719 49.757812 C 107.238281 48.894531 106.238281 48.40625 105.390625 48.300781 C 103.886719 48.109375 103.0625 48.660156 103.042969 49.707031 C 103.019531 50.882812 103.726562 52.511719 105.09375 54.242188 C 106.03125 55.292969 106.90625 55.953125 107.675781 56.132812 C 109.984375 56.675781 112.132812 56.238281 113.894531 54.855469 C 114.089844 54.730469 114.34375 54.507812 114.65625 54.191406 C 115.945312 53.203125 117.039062 53.203125 117.941406 53.449219 C 118.332031 53.574219 118.746094 53.765625 119.171875 54.035156 C 122.1875 55.917969 123.902344 59.015625 124.335938 62.859375 C 124.410156 63.46875 124.453125 64.070312 124.453125 64.65625 C 124.453125 68.175781 123.496094 70.742188 121.578125 72.84375 C 119.84375 74.746094 117.941406 75.402344 115.953125 74.628906 C 109.453125 72.421875 103.78125 71.453125 96.890625 71.320312 C 93.394531 71.621094 86.167969 71.671875 86.15625 66.695312 C 86.15625 65.171875 86.796875 63.066406 88.09375 60.433594 C 89.289062 58.003906 90.070312 56.089844 90.378906 54.714844 Z M 116.054688 34.550781 C 115.445312 34.335938 115.074219 34.441406 115.054688 34.765625 C 115.03125 35.195312 115.488281 35.738281 116.34375 36.382812 C 116.695312 36.660156 117.03125 36.875 117.34375 37 C 117.945312 37.25 118.320312 37.179688 118.34375 36.851562 C 118.367188 36.410156 117.910156 35.796875 117.054688 35.148438 C 116.703125 34.875 116.363281 34.664062 116.054688 34.550781 Z M 35.960938 117.441406 C 36.191406 118.222656 36.878906 119.3125 38.019531 120.679688 C 38.996094 121.84375 39.503906 122.835938 39.488281 123.617188 C 39.460938 125.710938 36.421875 126.773438 30.527344 126.789062 C 26.90625 126.796875 24.53125 126.1875 23.421875 124.925781 C 23.097656 124.558594 22.929688 124.167969 22.929688 123.753906 C 22.929688 123.414062 23.238281 122.765625 23.8125 121.824219 C 24.503906 120.691406 24.960938 119.402344 25.230469 118.035156 C 25.386719 117.253906 25.472656 116.609375 25.472656 116.117188 C 25.472656 114.6875 24.6875 113.78125 23.121094 113.367188 C 22.632812 113.253906 22.09375 113.171875 21.503906 113.117188 C 19.253906 112.902344 17.960938 113.335938 17.632812 114.535156 C 17.570312 114.820312 17.53125 115.136719 17.53125 115.484375 C 17.53125 116.074219 17.632812 116.769531 17.777344 117.53125 C 18.0625 119.035156 18.640625 120.675781 19.589844 122.292969 C 19.914062 122.875 20.082031 123.335938 20.082031 123.683594 C 20.082031 124.832031 19.082031 125.667969 17.09375 126.25 C 15.847656 126.601562 14.378906 126.789062 12.683594 126.789062 L 12.488281 126.789062 C 6.542969 126.761719 3.535156 125.328125 3.523438 122.523438 C 3.519531 121.417969 4.0625 120.035156 5.144531 118.535156 C 6.148438 117.136719 6.789062 116.039062 7.050781 115.167969 C 7.671875 113.003906 7.984375 110.460938 7.984375 107.441406 C 7.984375 105.726562 7.820312 104.066406 7.445312 102.5 C 7.261719 101.738281 6.644531 100.421875 5.632812 98.453125 C 5.105469 97.386719 4.847656 96.617188 4.847656 96.179688 C 4.847656 95.070312 6.300781 95.113281 9.207031 95.914062 C 10.253906 96.199219 11.347656 96.539062 12.492188 96.921875 C 15.984375 98.09375 18.335938 98.960938 19.546875 100.027344 C 19.90625 100.402344 20.121094 100.75 20.136719 101.050781 C 20.15625 101.414062 19.6875 102.136719 18.8125 103.144531 C 17.796875 104.320312 17.296875 105.40625 17.296875 106.371094 C 17.296875 107.894531 18.40625 108.957031 20.628906 109.433594 C 20.921875 109.496094 21.21875 109.539062 21.507812 109.574219 C 24.121094 109.648438 25.628906 108.804688 25.722656 107.433594 C 25.78125 106.542969 25.132812 105.214844 23.960938 103.570312 C 23.238281 102.542969 22.882812 101.828125 22.882812 101.449219 C 22.882812 100.492188 24.335938 100.0625 27.246094 99.863281 C 28.289062 99.792969 29.382812 99.761719 30.527344 99.769531 C 33.992188 99.78125 36.34375 99.996094 37.585938 100.753906 C 37.972656 101.007812 38.203125 101.320312 38.222656 101.640625 C 38.238281 102.039062 37.789062 102.867188 36.945312 104.007812 C 36.226562 104.984375 35.761719 105.800781 35.578125 106.449219 C 35.304688 107.375 35.183594 108.648438 35.183594 110.226562 C 35.183594 113.265625 35.445312 115.636719 35.96875 117.433594 Z M 15.628906 99.207031 C 14.925781 99.035156 14.519531 99.136719 14.5 99.457031 C 14.484375 99.78125 14.875 100.15625 15.628906 100.5 C 15.859375 100.609375 16.070312 100.691406 16.269531 100.734375 C 16.96875 100.886719 17.378906 100.761719 17.394531 100.445312 C 17.414062 100.125 17.019531 99.789062 16.269531 99.445312 C 16.035156 99.339844 15.824219 99.257812 15.628906 99.210938 Z M 33.65625 101.019531 C 32.921875 101.058594 32.5 101.269531 32.480469 101.585938 C 32.464844 101.902344 32.855469 102.15625 33.609375 102.285156 C 33.839844 102.332031 34.054688 102.355469 34.246094 102.34375 C 34.984375 102.304688 35.40625 102.074219 35.421875 101.75 C 35.441406 101.433594 35.046875 101.195312 34.296875 101.070312 C 34.066406 101.027344 33.851562 101.007812 33.65625 101.015625 Z M 45.757812 105.136719 C 45.558594 104.480469 44.957031 103.617188 43.945312 102.558594 C 43.421875 101.996094 43.160156 101.523438 43.160156 101.148438 C 43.160156 100.050781 44.613281 98.871094 47.519531 97.4375 C 48.566406 96.933594 49.675781 96.460938 50.851562 96.023438 C 54.316406 94.738281 56.652344 94.304688 57.859375 94.878906 C 58.285156 95.074219 58.496094 95.382812 58.496094 95.804688 C 58.496094 96.222656 58.089844 97.214844 57.277344 98.714844 C 56.527344 100.078125 56.050781 101.171875 55.855469 102.015625 C 55.570312 103.242188 55.414062 104.789062 55.414062 106.648438 C 55.414062 109.566406 55.753906 112.425781 56.441406 115.34375 C 56.507812 115.5625 57.0625 116.421875 58.105469 118.007812 C 59.277344 119.777344 59.886719 121.359375 59.871094 122.554688 C 59.835938 125.328125 56.804688 126.789062 50.953125 126.789062 C 45.097656 126.789062 42.054688 125.730469 42.035156 123.636719 C 42.027344 122.664062 42.835938 121.171875 44.4375 118.792969 C 45.054688 117.828125 45.414062 117.167969 45.511719 116.859375 C 46.066406 114.710938 46.34375 112.371094 46.34375 109.890625 C 46.34375 108.003906 46.140625 106.398438 45.757812 105.140625 Z M 53.941406 96.378906 C 53.230469 96.664062 52.832031 97.03125 52.8125 97.402344 C 52.800781 97.761719 53.1875 97.910156 53.941406 97.8125 C 54.171875 97.785156 54.390625 97.742188 54.578125 97.664062 C 55.257812 97.402344 55.644531 97.03125 55.65625 96.652344 C 55.671875 96.257812 55.277344 96.089844 54.527344 96.199219 C 54.332031 96.246094 54.132812 96.304688 53.9375 96.378906 Z M 65.746094 112.816406 C 66.5 109.726562 66.878906 106.460938 66.878906 103.136719 C 66.878906 101.296875 66.703125 99.730469 66.386719 98.46875 C 66.1875 97.671875 65.585938 96.628906 64.574219 95.398438 C 64.046875 94.738281 63.789062 94.199219 63.789062 93.765625 C 63.789062 92.480469 65.238281 91.023438 68.148438 89.363281 C 69.195312 88.78125 70.304688 88.253906 71.480469 87.789062 C 74.90625 86.425781 77.261719 86.128906 78.535156 86.859375 C 78.925781 87.171875 79.15625 87.582031 79.171875 88.046875 C 79.191406 88.515625 78.761719 89.636719 77.949219 91.335938 C 77.199219 92.90625 76.699219 94.21875 76.480469 95.257812 C 76.210938 96.515625 76.089844 98.40625 76.089844 100.9375 C 76.089844 105.648438 76.4375 108.796875 77.164062 110.226562 C 77.820312 111.507812 78.882812 112.117188 80.203125 111.933594 C 82.171875 111.664062 83.921875 110.238281 85.394531 108.199219 C 85.5625 108 85.769531 107.679688 86.03125 107.242188 C 87.109375 105.726562 88.027344 104.800781 88.777344 104.464844 C 89.101562 104.339844 89.445312 104.269531 89.804688 104.261719 C 92.320312 104.191406 93.757812 105.921875 94.117188 109.449219 C 94.179688 110.003906 94.21875 110.578125 94.21875 111.179688 C 94.21875 114.757812 93.421875 118.234375 91.816406 121.5625 C 90.363281 124.574219 88.78125 126.132812 87.113281 126.175781 C 81.804688 126.1875 76.5 126.234375 71.1875 126.269531 C 65.246094 126.277344 62.238281 124.824219 62.222656 121.941406 C 62.222656 120.785156 62.761719 119.246094 63.84375 117.269531 C 64.84375 115.445312 65.492188 113.929688 65.753906 112.820312 Z M 99.503906 109.296875 C 100.257812 105.679688 100.636719 101.898438 100.636719 97.921875 C 100.636719 95.726562 100.460938 93.796875 100.144531 92.152344 C 99.945312 91.121094 99.34375 89.601562 98.328125 87.652344 C 97.804688 86.625 97.546875 85.855469 97.546875 85.332031 C 97.546875 83.792969 98.996094 82.714844 101.90625 82.367188 C 102.953125 82.257812 104.0625 82.269531 105.238281 82.417969 C 108.664062 82.867188 111.019531 84.09375 112.292969 85.664062 C 112.683594 86.238281 112.914062 86.804688 112.929688 87.308594 C 112.949219 87.804688 112.519531 88.710938 111.707031 90.035156 C 110.957031 91.265625 110.457031 92.410156 110.238281 93.40625 C 109.96875 94.617188 109.847656 96.585938 109.847656 99.300781 C 109.847656 104.351562 110.195312 107.828125 110.921875 109.554688 C 111.582031 111.101562 112.636719 111.988281 113.960938 112.164062 C 115.921875 112.421875 117.679688 111.695312 119.152344 110.160156 C 119.320312 110.015625 119.527344 109.769531 119.789062 109.4375 C 120.867188 108.316406 121.78125 107.757812 122.53125 107.683594 C 122.855469 107.667969 123.203125 107.707031 123.5625 107.808594 C 126.078125 108.507812 127.515625 110.429688 127.875 113.316406 C 127.9375 113.773438 127.972656 114.238281 127.972656 114.710938 C 127.972656 117.527344 127.175781 120.058594 125.574219 122.617188 C 124.121094 124.929688 122.539062 126.242188 120.871094 126.261719 C 115.5625 126.226562 110.257812 126.199219 104.945312 126.1875 C 101.027344 126.378906 95.945312 124.824219 95.980469 120.292969 C 95.996094 118.765625 96.515625 116.773438 97.601562 114.445312 C 98.597656 112.304688 99.25 110.59375 99.511719 109.300781 Z M 99.503906 109.296875 "/>
</g>
</svg>
