<svg xmlns="http://www.w3.org/2000/svg" fill="none" viewBox="0 0 295 305"><path fill="#3B4779" d="M67.55 60.71c.45 2.72 1.79 6.55 4.04 11.38 1.92 4.12 2.91 7.58 2.89 10.35-.06 7.41-6.04 11.6-17.61 10.54-7.1-.65-11.77-3.7-13.95-8.3-.64-1.34-.96-2.7-.96-4.08 0-1.15.61-3.23 1.73-6.26 1.36-3.68 2.25-7.92 2.79-12.51.3-2.6.48-4.75.48-6.4 0-4.78-1.54-7.81-4.62-9.1-.96-.34-2.02-.59-3.18-.73-4.43-.56-6.96.93-7.6 4.61-.13.89-.19 1.86-.19 2.92 0 1.81.19 3.95.48 6.32.57 4.71 1.7 9.9 3.56 15.38.64 1.96.96 3.5.96 4.64 0 3.71-1.96 6.09-5.87 6.81-2.44.4-5.33.02-8.66-1.22-.15-.06-.23-.09-.38-.14C9.78 80.45 3.88 73.53 3.85 67.21c-.01-2.49 1.06-5.14 3.18-8.19 1.98-2.84 3.24-5.44 3.75-7.55 1.22-5.26 1.83-11.8 1.83-19.43 0-4.34-.32-8.45-1.06-12.12-.36-1.77-1.57-4.67-3.56-8.44C6.96 9.42 6.45 7.91 6.45 6.9c0-2.56 2.85-4.23 8.57-5.17 2.05-.34 4.2-.51 6.45-.49 6.86.04 11.48 1.33 13.86 3.96.71.95 1.12 1.94 1.15 2.85.04 1.14-.89 3.57-2.6 7.04-2 4.06-2.98 7.5-2.98 10.41 0 4.58 2.18 7.45 6.54 8.52.58.14 1.15.23 1.73.29 5.13-.2 8.09-2.95 8.28-7.55.12-2.99-1.15-7.2-3.46-12.16-1.41-3.09-2.12-5.22-2.12-6.41 0-3.03 2.85-5.07 8.57-6.19 2.05-.4 4.2-.6 6.45-.6 6.8.01 11.42 1.4 13.86 4.17.77.93 1.22 1.96 1.25 3.02.04 1.3-.85 3.81-2.5 7.35-1.42 3.04-2.32 5.64-2.69 7.76-.53 3.01-.77 7.21-.77 12.49 0 10.17.51 18.31 1.54 24.55l-.03-.03ZM27.61 5.14c-1.37 0-2.18.59-2.21 1.53-.03.95.74 1.72 2.21 2.23.45.17.88.27 1.25.28 1.37.01 2.18-.57 2.21-1.54.03-.97-.74-1.75-2.21-2.25-.45-.16-.88-.26-1.25-.26v.01Zm35.42.48c-1.44.03-2.28.68-2.31 1.72-.03 1.05.74 1.87 2.21 2.38.45.17.88.27 1.25.26 1.44-.02 2.28-.67 2.31-1.73.03-1.05-.74-1.88-2.21-2.39-.45-.17-.88-.27-1.25-.26v.02Zm73.24 38.17c1.87 5.5 4.78 9.26 8.76 11.23 2.63 1.28 4.14 2.06 4.52 2.44 1.35 1.22 2.02 3.1 2.02 5.69 0 4.92-2.37 8.84-7.12 11.82-2.18 1.35-5.42 2.87-9.72 4.51-8.21 3.12-13.41 3.57-15.59 1.42-1.09-1.18-1.64-3.04-1.64-5.54 0-.79.02-2.28.1-4.44.11-2.82.19-4.88.19-6.11 0-4.77-1-7.39-2.98-7.85-.77-.17-1.61-.16-2.5.06-4.47 1.13-6.74 6.17-6.74 14.86 0 .52-.03 1.38 0 2.47.03 1.07.1 1.91.1 2.43 0 6.4-2.21 11.05-6.64 14.01-2.12 1.37-4.88 1.81-8.28 2.1-6.74.59-10.84-1.25-12.32-5.14-.58-1.53-.87-3.3-.87-5.32 0-3.34.96-5.81 2.89-7.42.32-.24.87-.61 1.64-1.1 3.02-2.12 5.26-4.64 6.74-7.52.45-.88.83-1.72 1.15-2.52 3.8-8.92 6.84-18.54 9.14-27.94 1.67-6.81 2.5-11.64 2.5-14.55 0-2.51-.74-5.36-2.21-8.66-.96-2.09-1.44-3.84-1.44-5.18 0-2.83 3.34-4.87 10.01-5.97 2.05-.34 4.14-.5 6.26-.52 6.74-.04 11.74 1.15 15.01 3.37 1.22.83 1.96 1.76 2.21 2.81.06.35.08.86.1 1.48.23 11.6.87 23.77 4.72 35.08h-.01Zm-26.47-1.26c.06 2.43 1.07 3.69 2.5 3.38 1.84-.4 2.92-2.37 2.89-5.41-.06-6.79-1.08-10.54-2.41-10.49-1.05.04-2.02 2.36-2.6 6.59-.26 1.88-.44 3.91-.38 5.92v.01Zm12.42-37.49c-1.44.08-2.28.7-2.31 1.65-.03.95.74 1.67 2.21 2.04.45.13.88.19 1.25.16 1.38-.1 2.18-.72 2.21-1.64.03-.99-.74-1.73-2.21-2.13-.38-.06-.78-.1-1.15-.08Zm83.82 3.73c0 3.13-1 5.68-2.98 7.63-1.16 1.05-2.43 1.64-3.75 1.7-.38.02-.8-.03-1.25-.11-1.15-.26-2.37-1.22-3.66-2.98-1.41-1.94-2.73-3.12-3.95-3.5-.71-.18-1.44-.24-2.21-.18-3.08.26-5.64 2.41-7.7 6.67-1.64 3.39-2.5 7.04-2.5 10.78 0 6.06 1.99 9.52 5.97 10.15 1.28.22 2.69.14 4.23-.24 2.25-.54 4.6-2.32 7.03-5.15 2.31-2.7 3.82-3.91 4.52-4.39 1.41-.89 2.85-1.36 4.33-1.4 3.27-.1 5.65 1.47 7.12 4.71.77 1.69 1.16 3.53 1.16 5.51 0 8.92-4.56 14.69-13.67 17.74-2.95 1.01-6.6 2.53-10.59 3.92-8.99 3.13-21.76 5.4-28.78-3.2-3.14-3.91-4.72-9.39-4.72-16.14 0-9.34 2.72-18.5 7.99-26.29 5.53-8.17 12.45-12.42 20.79-13.63 1.61-.25 3.25-.37 4.92-.37.89 0 3.68.27 8.37.73 1.35.13 2.47.2 3.37.2.38 0 .8.04 1.25.13 2.31.53 3.78 2.3 4.43 5.41.19.76.29 1.53.29 2.3h-.01ZM195.45 2.9c-1.01.05-1.61.38-1.64.86-.04.6.71 1.15 2.12 1.5.58.16 1.13.25 1.64.24 1-.03 1.61-.35 1.64-.82.04-.59-.71-1.14-2.12-1.54-.58-.18-1.14-.26-1.64-.24Zm48.42 12.71c.03 1.65.63 2.6 1.64 2.69 1.25.11 3.56-1.28 6.83-4.18.13-.14.22-.23.29-.28 1.35-1.2 2.79-3.06 4.33-5.63.77-1.26 1.6-2.23 2.5-2.9 4.17-2.94 10.12-4.57 17.71-4.48 4.98.06 7.63.99 7.6 2.44-.01.83-.74 1.87-2.02 2.91-.83.72-3.85 2.35-9.05 4.6-3.34 1.56-6.06 2.87-8.18 3.99-4.3 2.4-6.51 4.2-6.54 5.49-.01.55.8 1.27 2.41 2.18 3.21 1.87 5.1 3.09 5.68 3.5 3.78 2.53 7.67 7.57 11.65 15.8.45 1.04 1.02 2.25 1.64 3.6.91 1.99 2.68 4.24 5.2 6.84 2.25 2.32 3.64 4.4 4.23 5.86.55 1.36.87 2.85.87 4.4 0 5.17-3.08 6.5-9.24 4.67-1.92-.57-4.27-1.43-7.03-2.5-8.28-3.18-13.51-5.51-15.69-8.2-1.09-1.42-1.64-3.04-1.64-4.87 0-8.49-1.09-15.03-3.27-19.56-1.22-2.54-2.72-3.92-4.43-4.12-1.83-.21-3.31.62-4.33 2.4a5.86 5.86 0 0 0-.77 2.96c0 1.53.19 2.95.58 4.23.69 2.26 1.66 5.02 2.79 8.27 1.17 3.34 1.73 5.65 1.73 6.79 0 3.25-4.33 4.05-12.99 3.53-.64-.05-1.32-.11-2.02-.16-11.59-.85-17.48-2.95-17.52-7.78-.01-1.91 1.09-4.38 3.18-7.25 1.93-2.65 3.14-4.78 3.66-6.37 1.48-4.55 2.21-8.88 2.21-13.02 0-2.97-.45-5.84-1.35-8.6-.39-1.15-1.57-2.96-3.56-5.36-1.03-1.31-1.54-2.3-1.54-2.97 0-1.7 2.76-2.84 8.28-3.45 2.18-.26 4.43-.4 6.74-.39 6.67.01 11.26.78 13.76 2.37.77.58 1.22 1.21 1.25 1.8.04.68-.89 2.16-2.6 4.3-1.99 2.48-3.02 4.68-2.98 6.46l-.01-.01ZM58.12 158.94c.15 10.41.35 21.47 3.11 31.76.63 2.49 2.48 6.13 5.54 10.72 2.6 3.89 4.21 7.55 3.92 10-1.17 9.77-15.63 10.78-24.6 8.91-9.63-2.01-24.07-9.36-24.6-20.25-.14-2.92 1.5-6.14 4.46-9.35 2.7-2.93 4.41-5.64 5.14-7.95 1.44-4.78 2.16-12.45 2.16-22.34 0-7.77-.63-15.09-1.89-21.91-.72-3.24-2.05-5.35-3.92-6.24-3.14-1.49-7.43-.37-12.57 2.15-.09.04-.18.08-.27.11-2.34 1.73-4.42 2.02-6.22 1.06a9.804 9.804 0 0 1-1.89-1.25c-3.6-2.99-5.72-7.86-6.35-14.02-.09-.98-.14-1.92-.14-2.82 0-6.4 1.89-10.37 5.68-12.89 2.43-1.49 4.87-1.7 7.3-.42 21.56 10.61 40.94 14.76 65.01 14.37 3.33-.19 6.45 2.53 9.33 7.94 2.52 4.75 3.78 9.69 3.78 15.01 0 6.5-1.58 10.72-4.73 12.69-.63.32-1.26.53-1.89.64-2.52.44-4.96-.83-7.3-3.9-.27-.37-.54-.75-.81-1.13-2.16-2.82-4.82-5.25-7.97-7.37-1.98-1.31-3.65-2.02-5-2.07-3.51.6-5.44 6.97-5.27 18.56l-.01-.01ZM74.2 122.2c-1.49.1-2.39.84-2.43 1.95-.05 1.41.99 2.66 2.97 3.5.81.38 1.6.56 2.3.49 1.49-.15 2.39-.93 2.43-2.04.05-1.39-.99-2.55-2.97-3.39-.81-.37-1.6-.57-2.3-.52v.01Zm108.12 19.88c.63 2.83 2.52 6.35 5.68 10.73 2.69 3.74 4.19 7.56 4.05 10.86-.51 12.28-14.38 19.81-24.73 24.58-10 4.61-16.54 5.29-19.6 1.86-.9-.99-1.35-2.3-1.35-3.91 0-1.35.84-4.33 2.43-8.95 1.91-5.55 3.17-11.34 3.92-17.12.43-3.3.68-5.93.68-7.82 0-5.51-2.16-7.61-6.49-6.37-1.35.46-2.84 1.12-4.46 1.99-6.22 3.33-9.78 7.47-10.68 12.47a23.98 23.98 0 0 0-.27 3.64c0 2.15.28 4.52.68 7.01.8 5.03 2.39 9.99 5 14.6.9 1.67 1.35 3.18 1.35 4.51 0 4.35-2.75 9-8.24 13.75-3.43 2.91-7.48 5.41-12.16 7.45-.22.09-.32.14-.54.24-8.37 2.85-23.41 8.35-24.73-3.16-.32-2.76 1.48-7.42 4.46-13.25 2.78-5.44 4.55-10.14 5.27-13.35 1.71-7.94 2.57-16.96 2.57-27.14 0-5.79-.44-11.07-1.49-15.59-.5-2.16-2.21-5.27-5-9.48-1.44-2.33-2.16-4.56-2.16-6.06 0-3.79 4.01-7.38 12.03-11.82 2.88-1.59 5.9-3.03 9.06-4.31 9.64-3.94 16.13-5.3 19.46-3.77.99.66 1.58 1.55 1.62 2.57.06 1.32-1.24 4.76-3.65 10.17-2.81 6.31-4.19 11.3-4.19 14.81 0 5.55 3.06 7.13 9.19 4.66.81-.33 1.62-.71 2.43-1.14 7.21-4.59 11.37-9.97 11.62-15.34.16-3.31-1.62-7.09-4.87-10.98-1.98-2.45-2.97-4.38-2.97-5.74 0-3.43 4.01-7.66 12.03-12.46 2.88-1.72 5.9-3.26 9.06-4.63 9.55-4.12 16.04-5.28 19.46-3.9 1.08.48 1.71 1.28 1.76 2.27.06 1.25-1.19 4.18-3.51 8.73-1.99 3.9-3.26 7.15-3.78 9.59-.74 3.45-1.08 8.01-1.08 13.66 0 10.88.72 19.63 2.16 26.13l-.02.01Zm-56.09-33.42c-1.96.91-3.07 2.13-3.11 3.36-.04 1.2 1.03 1.69 3.11 1.33.63-.09 1.23-.26 1.76-.51 1.96-.94 3.06-2.17 3.11-3.39.04-1.17-1.04-1.64-3.11-1.28-.63.09-1.23.25-1.76.49Zm49.74-22.45c-2.05.91-3.2 2.06-3.24 3.16-.04 1.06 1.04 1.45 3.11 1.06.63-.1 1.23-.27 1.76-.5 2.05-.92 3.2-2.04 3.24-3.12.04-1.04-1.04-1.45-3.11-1.08-.63.1-1.23.25-1.76.49v-.01Zm32.3 45.21c2.07-9.24 3.11-17.56 3.11-26.02 0-4.69-.48-8.67-1.35-11.97-.55-2.07-2.21-4.96-5-8.59-1.44-1.93-2.17-3.45-2.16-4.55.04-3.94 7.16-7.44 21.22-7.57 16.03 0 32.47 2.58 47.17 9.26 3.33 1.45 6.47 5.31 9.33 11.79 2.44 5.55 3.65 10.81 3.65 15.31 0 5.85-1.62 7.99-4.87 6.72a8.243 8.243 0 0 1-1.62-.82c-2.43-1.57-4.86-4.36-7.3-8.26-2.88-4.62-5.09-7.51-6.62-8.99-3.06-3.04-6.76-5.21-11.08-6.34-5.68-1.48-10.23-.31-13.65 3-1.71 1.66-2.57 3.38-2.57 5.08 0 2.4 1.58 3.88 4.73 4.67.54.15 1.08.26 1.62.34 2.07.31 4.64-.21 7.7-1.4 1.62-.61 2.84-.77 3.65-.53 2.25.66 3.87 3.05 4.87 7.11.36 1.63.54 3.27.54 4.93 0 4.9-1.17 7.72-3.51 8.6-.63.18-1.26.18-1.89-.02-.81-.25-2.39-1.6-4.73-3.67-2.36-2.08-4.66-3.25-6.62-3.5-3.47-.46-5.36.86-5.41 3.37-.05 2.83 1.58 6.74 4.73 10.9 2.16 2.52 4.18 4.11 5.95 4.54 5.32 1.3 10.27.25 14.33-3.07.45-.3 1.03-.84 1.76-1.59 2.97-2.38 5.49-2.38 7.57-1.79.9.3 1.85.76 2.84 1.41 6.94 4.52 10.9 11.96 11.89 21.19.18 1.47.27 2.91.27 4.32 0 8.45-2.2 14.62-6.62 19.66-4 4.57-8.38 6.15-12.97 4.29-14.98-5.3-28.05-7.63-43.93-7.95-8.05.72-24.71.85-24.73-11.11 0-3.66 1.47-8.71 4.46-15.04 2.75-5.83 4.55-10.42 5.27-13.73l-.03.02Zm59.2-48.44c-1.4-.52-2.26-.27-2.3.51-.06 1.03.99 2.34 2.97 3.89.81.66 1.58 1.18 2.3 1.48 1.39.6 2.25.43 2.3-.36.06-1.06-.99-2.53-2.97-4.09-.81-.66-1.59-1.16-2.3-1.43ZM82.88 282.04c.53 1.88 2.11 4.5 4.74 7.78 2.25 2.8 3.42 5.18 3.39 7.06-.07 5.02-7.07 7.58-20.66 7.61-8.34.02-13.81-1.44-16.37-4.47-.75-.88-1.13-1.82-1.13-2.81 0-.82.71-2.38 2.03-4.64 1.59-2.72 2.65-5.81 3.27-9.1.36-1.87.56-3.42.56-4.6 0-3.44-1.81-5.61-5.42-6.61-1.13-.27-2.37-.47-3.73-.6-5.19-.52-8.17.53-8.92 3.4-.15.69-.23 1.45-.23 2.28 0 1.42.23 3.09.56 4.92.66 3.61 1.99 7.55 4.18 11.44.75 1.39 1.13 2.5 1.13 3.34 0 2.75-2.3 4.76-6.89 6.16-2.86.84-6.25 1.29-10.16 1.29h-.45c-13.7-.06-20.63-3.51-20.66-10.24-.01-2.66 1.24-5.98 3.73-9.58 2.32-3.36 3.8-5.99 4.4-8.08 1.43-5.2 2.15-11.31 2.15-18.56 0-4.12-.38-8.11-1.24-11.87-.42-1.83-1.85-4.99-4.18-9.72-1.21-2.56-1.81-4.41-1.81-5.46 0-2.66 3.35-2.56 10.05-.64 2.41.69 4.93 1.51 7.57 2.43 8.05 2.81 13.47 4.89 16.26 7.45.83.9 1.32 1.74 1.36 2.46.04.87-1.04 2.61-3.05 5.03-2.34 2.82-3.5 5.43-3.5 7.75 0 3.66 2.56 6.21 7.68 7.35.68.15 1.36.26 2.03.34 6.02.18 9.5-1.85 9.71-5.14.14-2.14-1.36-5.33-4.06-9.28-1.66-2.46-2.48-4.18-2.48-5.09 0-2.3 3.35-3.33 10.05-3.81 2.41-.17 4.93-.24 7.57-.23 7.98.03 13.4.55 16.26 2.37.9.61 1.43 1.36 1.47 2.13.04.95-1 2.94-2.94 5.68-1.66 2.35-2.73 4.31-3.16 5.87-.62 2.22-.9 5.28-.9 9.07 0 7.29.6 12.99 1.81 17.31l-.02.01Zm-46.86-43.79c-1.62-.41-2.56-.17-2.6.6-.04.78.86 1.68 2.6 2.51.53.26 1.02.46 1.47.56 1.62.37 2.56.07 2.6-.69.04-.77-.87-1.58-2.6-2.4-.53-.26-1.02-.46-1.47-.57v-.01Zm41.55 4.36c-1.7.09-2.67.6-2.71 1.36-.04.76.86 1.36 2.6 1.68.53.11 1.02.16 1.47.13 1.7-.09 2.67-.64 2.71-1.42.04-.76-.87-1.33-2.6-1.63-.53-.1-1.02-.15-1.47-.13v.01Zm27.89 9.88c-.46-1.57-1.85-3.65-4.18-6.19-1.21-1.35-1.81-2.48-1.81-3.38 0-2.64 3.35-5.48 10.05-8.92 2.41-1.21 4.97-2.34 7.68-3.39 7.98-3.09 13.36-4.13 16.15-2.75.98.47 1.47 1.21 1.47 2.22 0 1.01-.94 3.39-2.82 6.99-1.72 3.27-2.82 5.9-3.27 7.93-.66 2.94-1.02 6.66-1.02 11.12 0 7.01.79 13.88 2.37 20.89.15.52 1.43 2.58 3.84 6.39 2.7 4.26 4.1 8.05 4.06 10.92-.08 6.66-7.06 10.17-20.55 10.17-13.49 0-20.51-2.54-20.55-7.57-.02-2.33 1.84-5.92 5.53-11.63 1.43-2.31 2.26-3.9 2.48-4.64 1.28-5.16 1.92-10.78 1.92-16.74 0-4.53-.47-8.39-1.35-11.41v-.01Zm18.86-21.03c-1.64.68-2.56 1.57-2.6 2.46-.03.86.86 1.22 2.6.98.53-.06 1.03-.17 1.47-.35 1.56-.63 2.45-1.52 2.48-2.43.04-.95-.87-1.35-2.6-1.09-.45.11-.91.25-1.36.43h.01Zm27.21 39.48c1.73-7.42 2.6-15.27 2.6-23.25 0-4.42-.4-8.18-1.13-11.21-.46-1.91-1.85-4.42-4.18-7.38-1.21-1.58-1.81-2.87-1.81-3.92 0-3.08 3.35-6.58 10.05-10.56 2.41-1.4 4.97-2.67 7.68-3.79 7.9-3.27 13.32-3.98 16.26-2.23.9.75 1.43 1.74 1.47 2.85.04 1.13-.95 3.82-2.82 7.9-1.73 3.77-2.88 6.92-3.39 9.42-.62 3.02-.9 7.56-.9 13.64 0 11.31.8 18.87 2.48 22.31 1.51 3.07 3.96 4.54 7 4.1 4.54-.65 8.58-4.07 11.97-8.97.38-.48.86-1.25 1.47-2.3 2.48-3.64 4.59-5.86 6.32-6.67.75-.3 1.54-.47 2.37-.49 5.8-.17 9.11 3.99 9.94 12.46.15 1.33.23 2.71.23 4.15 0 8.6-1.83 16.95-5.53 24.94-3.35 7.23-7 10.98-10.84 11.08-12.23.03-24.46.14-36.7.23-13.7.02-20.63-3.47-20.66-10.4-.01-2.77 1.23-6.47 3.73-11.22 2.3-4.38 3.8-8.02 4.4-10.68l-.01-.01Zm77.8-8.46c1.73-8.68 2.6-17.77 2.6-27.31 0-5.28-.4-9.91-1.13-13.86-.46-2.48-1.85-6.13-4.18-10.8-1.21-2.47-1.81-4.32-1.81-5.58 0-3.69 3.35-6.29 10.05-7.12 2.41-.26 4.97-.23 7.68.13 7.9 1.07 13.32 4.02 16.26 7.79.9 1.38 1.43 2.74 1.47 3.95.04 1.19-.95 3.36-2.82 6.55-1.73 2.95-2.88 5.7-3.39 8.09-.62 2.91-.9 7.64-.9 14.16 0 12.13.8 20.48 2.48 24.62 1.52 3.72 3.95 5.85 7 6.27 4.52.62 8.58-1.12 11.97-4.81.38-.35.86-.94 1.47-1.74 2.48-2.69 4.59-4.03 6.32-4.21.75-.04 1.54.06 2.37.3 5.8 1.68 9.11 6.3 9.94 13.23.15 1.1.23 2.21.23 3.34 0 6.77-1.84 12.85-5.53 18.99-3.35 5.56-7 8.71-10.84 8.76-12.23-.09-24.46-.15-36.7-.18-9.03.46-20.75-3.27-20.66-14.16.03-3.67 1.23-8.45 3.73-14.04 2.3-5.14 3.8-9.25 4.4-12.36l-.01-.01Z"/></svg>