<?xml version="1.0" encoding="UTF-8"?>
<svg xmlns="http://www.w3.org/2000/svg" xmlns:xlink="http://www.w3.org/1999/xlink" width="16px" height="16px" viewBox="0 0 16 15" version="1.1">
<g id="surface1">
<path style=" stroke:none;fill-rule:nonzero;fill:rgb(23.137255%,27.843137%,47.45098%);fill-opacity:1;" d="M 3.664062 2.984375 C 3.6875 3.121094 3.761719 3.308594 3.882812 3.546875 C 3.988281 3.746094 4.039062 3.917969 4.039062 4.054688 C 4.035156 4.417969 3.710938 4.625 3.085938 4.574219 C 2.699219 4.539062 2.445312 4.390625 2.328125 4.164062 C 2.292969 4.097656 2.277344 4.03125 2.277344 3.964844 C 2.277344 3.90625 2.308594 3.804688 2.371094 3.65625 C 2.441406 3.476562 2.492188 3.265625 2.519531 3.039062 C 2.539062 2.914062 2.546875 2.808594 2.546875 2.726562 C 2.546875 2.492188 2.464844 2.34375 2.296875 2.277344 C 2.246094 2.261719 2.1875 2.25 2.125 2.242188 C 1.882812 2.214844 1.746094 2.289062 1.710938 2.46875 C 1.703125 2.511719 1.703125 2.5625 1.703125 2.613281 C 1.703125 2.703125 1.710938 2.808594 1.726562 2.921875 C 1.757812 3.15625 1.820312 3.410156 1.921875 3.679688 C 1.957031 3.777344 1.972656 3.851562 1.972656 3.910156 C 1.972656 4.089844 1.867188 4.207031 1.65625 4.242188 C 1.523438 4.261719 1.363281 4.246094 1.183594 4.183594 C 1.175781 4.179688 1.171875 4.179688 1.164062 4.175781 C 0.53125 3.957031 0.210938 3.617188 0.207031 3.304688 C 0.207031 3.183594 0.265625 3.050781 0.382812 2.902344 C 0.488281 2.761719 0.558594 2.636719 0.585938 2.53125 C 0.652344 2.273438 0.683594 1.949219 0.683594 1.574219 C 0.683594 1.363281 0.667969 1.160156 0.625 0.980469 C 0.605469 0.894531 0.542969 0.75 0.433594 0.566406 C 0.378906 0.464844 0.351562 0.390625 0.351562 0.339844 C 0.351562 0.214844 0.503906 0.132812 0.816406 0.0859375 C 0.925781 0.0703125 1.042969 0.0585938 1.164062 0.0625 C 1.535156 0.0625 1.785156 0.125 1.917969 0.253906 C 1.953125 0.300781 1.976562 0.351562 1.980469 0.394531 C 1.980469 0.453125 1.929688 0.570312 1.835938 0.742188 C 1.730469 0.941406 1.675781 1.109375 1.675781 1.253906 C 1.675781 1.480469 1.792969 1.621094 2.03125 1.671875 C 2.0625 1.679688 2.09375 1.683594 2.125 1.6875 C 2.402344 1.675781 2.5625 1.542969 2.574219 1.316406 C 2.578125 1.167969 2.511719 0.960938 2.386719 0.71875 C 2.308594 0.566406 2.269531 0.460938 2.269531 0.402344 C 2.269531 0.253906 2.425781 0.152344 2.734375 0.0976562 C 2.847656 0.078125 2.964844 0.0703125 3.085938 0.0703125 C 3.453125 0.0703125 3.703125 0.136719 3.835938 0.273438 C 3.878906 0.320312 3.902344 0.371094 3.90625 0.421875 C 3.90625 0.488281 3.859375 0.609375 3.769531 0.785156 C 3.691406 0.933594 3.644531 1.0625 3.625 1.164062 C 3.59375 1.3125 3.582031 1.519531 3.582031 1.78125 C 3.582031 2.28125 3.609375 2.679688 3.664062 2.988281 Z M 1.496094 0.253906 C 1.421875 0.253906 1.378906 0.28125 1.378906 0.328125 C 1.375 0.375 1.417969 0.414062 1.496094 0.4375 C 1.523438 0.445312 1.546875 0.449219 1.566406 0.453125 C 1.640625 0.453125 1.683594 0.421875 1.683594 0.375 C 1.6875 0.328125 1.644531 0.289062 1.566406 0.265625 C 1.539062 0.257812 1.515625 0.253906 1.496094 0.253906 Z M 3.417969 0.277344 C 3.339844 0.277344 3.296875 0.308594 3.292969 0.359375 C 3.292969 0.414062 3.332031 0.453125 3.414062 0.476562 C 3.4375 0.488281 3.460938 0.492188 3.480469 0.492188 C 3.558594 0.488281 3.605469 0.457031 3.605469 0.40625 C 3.609375 0.355469 3.566406 0.3125 3.484375 0.289062 C 3.460938 0.28125 3.4375 0.273438 3.417969 0.273438 Z M 7.390625 2.152344 C 7.492188 2.425781 7.648438 2.609375 7.867188 2.707031 C 8.007812 2.769531 8.089844 2.808594 8.109375 2.824219 C 8.183594 2.886719 8.21875 2.976562 8.21875 3.105469 C 8.21875 3.347656 8.09375 3.539062 7.835938 3.6875 C 7.714844 3.753906 7.539062 3.828125 7.308594 3.910156 C 6.863281 4.0625 6.578125 4.085938 6.460938 3.980469 C 6.402344 3.921875 6.371094 3.828125 6.371094 3.707031 C 6.371094 3.667969 6.375 3.59375 6.378906 3.488281 C 6.382812 3.347656 6.390625 3.246094 6.390625 3.1875 C 6.390625 2.953125 6.335938 2.824219 6.226562 2.800781 C 6.183594 2.792969 6.140625 2.792969 6.089844 2.804688 C 5.847656 2.859375 5.726562 3.109375 5.726562 3.535156 C 5.726562 3.5625 5.722656 3.601562 5.726562 3.65625 C 5.726562 3.710938 5.730469 3.75 5.730469 3.777344 C 5.730469 4.089844 5.609375 4.320312 5.371094 4.464844 C 5.257812 4.53125 5.105469 4.554688 4.921875 4.566406 C 4.554688 4.597656 4.335938 4.507812 4.253906 4.316406 C 4.222656 4.242188 4.207031 4.152344 4.207031 4.054688 C 4.207031 3.890625 4.257812 3.769531 4.363281 3.6875 C 4.378906 3.675781 4.410156 3.660156 4.453125 3.636719 C 4.617188 3.53125 4.738281 3.40625 4.816406 3.265625 C 4.84375 3.222656 4.863281 3.179688 4.878906 3.140625 C 5.085938 2.703125 5.25 2.230469 5.375 1.765625 C 5.464844 1.433594 5.511719 1.195312 5.511719 1.050781 C 5.511719 0.929688 5.472656 0.789062 5.390625 0.625 C 5.339844 0.523438 5.3125 0.4375 5.3125 0.371094 C 5.3125 0.230469 5.496094 0.132812 5.855469 0.078125 C 5.96875 0.0585938 6.082031 0.0507812 6.195312 0.0507812 C 6.5625 0.0507812 6.832031 0.109375 7.011719 0.21875 C 7.078125 0.257812 7.117188 0.304688 7.128906 0.355469 C 7.132812 0.371094 7.132812 0.398438 7.136719 0.429688 C 7.148438 1 7.183594 1.597656 7.390625 2.152344 Z M 5.957031 2.089844 C 5.957031 2.210938 6.011719 2.273438 6.089844 2.257812 C 6.191406 2.238281 6.25 2.140625 6.246094 1.992188 C 6.246094 1.65625 6.1875 1.472656 6.117188 1.476562 C 6.058594 1.476562 6.007812 1.59375 5.976562 1.800781 C 5.960938 1.890625 5.953125 1.992188 5.957031 2.089844 Z M 6.628906 0.246094 C 6.550781 0.25 6.503906 0.28125 6.503906 0.328125 C 6.5 0.375 6.542969 0.410156 6.625 0.429688 C 6.648438 0.4375 6.671875 0.4375 6.691406 0.4375 C 6.765625 0.433594 6.808594 0.402344 6.8125 0.355469 C 6.8125 0.308594 6.769531 0.269531 6.691406 0.25 C 6.671875 0.25 6.648438 0.246094 6.628906 0.246094 Z M 11.175781 0.429688 C 11.175781 0.585938 11.121094 0.710938 11.011719 0.804688 C 10.949219 0.859375 10.882812 0.886719 10.808594 0.890625 C 10.789062 0.890625 10.765625 0.890625 10.742188 0.886719 C 10.679688 0.871094 10.613281 0.824219 10.542969 0.738281 C 10.46875 0.644531 10.394531 0.585938 10.328125 0.566406 C 10.292969 0.558594 10.25 0.554688 10.210938 0.558594 C 10.042969 0.570312 9.902344 0.675781 9.792969 0.886719 C 9.703125 1.050781 9.65625 1.230469 9.65625 1.414062 C 9.65625 1.714844 9.765625 1.882812 9.980469 1.914062 C 10.050781 1.925781 10.125 1.921875 10.210938 1.902344 C 10.332031 1.875 10.460938 1.789062 10.589844 1.648438 C 10.714844 1.515625 10.796875 1.457031 10.835938 1.433594 C 10.914062 1.390625 10.992188 1.367188 11.070312 1.363281 C 11.25 1.359375 11.378906 1.4375 11.457031 1.597656 C 11.5 1.679688 11.519531 1.769531 11.519531 1.867188 C 11.519531 2.304688 11.273438 2.589844 10.777344 2.738281 C 10.617188 2.789062 10.421875 2.863281 10.203125 2.933594 C 9.714844 3.085938 9.023438 3.199219 8.644531 2.773438 C 8.472656 2.582031 8.386719 2.3125 8.386719 1.980469 C 8.386719 1.523438 8.535156 1.070312 8.820312 0.6875 C 9.121094 0.285156 9.496094 0.078125 9.949219 0.0195312 C 10.035156 0.0078125 10.125 0 10.214844 0 C 10.261719 0 10.414062 0.0117188 10.667969 0.0351562 C 10.742188 0.0429688 10.804688 0.046875 10.851562 0.046875 C 10.871094 0.046875 10.894531 0.046875 10.917969 0.0507812 C 11.046875 0.078125 11.125 0.164062 11.160156 0.316406 C 11.171875 0.355469 11.175781 0.394531 11.175781 0.429688 Z M 10.601562 0.144531 C 10.546875 0.144531 10.511719 0.160156 10.511719 0.183594 C 10.507812 0.214844 10.550781 0.242188 10.625 0.257812 C 10.65625 0.265625 10.6875 0.269531 10.714844 0.269531 C 10.769531 0.269531 10.804688 0.253906 10.804688 0.230469 C 10.808594 0.203125 10.765625 0.175781 10.691406 0.15625 C 10.65625 0.144531 10.628906 0.140625 10.601562 0.144531 Z M 13.226562 0.769531 C 13.226562 0.847656 13.261719 0.894531 13.316406 0.898438 C 13.382812 0.90625 13.507812 0.835938 13.6875 0.695312 C 13.691406 0.6875 13.699219 0.683594 13.703125 0.679688 C 13.773438 0.621094 13.851562 0.53125 13.9375 0.402344 C 13.980469 0.339844 14.023438 0.292969 14.074219 0.261719 C 14.296875 0.117188 14.621094 0.0351562 15.03125 0.0390625 C 15.304688 0.0429688 15.445312 0.0898438 15.445312 0.160156 C 15.445312 0.203125 15.40625 0.253906 15.335938 0.304688 C 15.289062 0.339844 15.125 0.417969 14.84375 0.53125 C 14.664062 0.605469 14.515625 0.671875 14.402344 0.726562 C 14.167969 0.84375 14.046875 0.933594 14.046875 0.996094 C 14.046875 1.023438 14.089844 1.058594 14.175781 1.105469 C 14.351562 1.195312 14.453125 1.253906 14.484375 1.277344 C 14.691406 1.398438 14.902344 1.648438 15.117188 2.054688 C 15.140625 2.105469 15.171875 2.164062 15.207031 2.230469 C 15.253906 2.328125 15.351562 2.4375 15.488281 2.566406 C 15.609375 2.679688 15.683594 2.78125 15.71875 2.855469 C 15.746094 2.921875 15.765625 2.996094 15.765625 3.070312 C 15.765625 3.324219 15.597656 3.390625 15.261719 3.300781 C 15.160156 3.273438 15.03125 3.230469 14.882812 3.175781 C 14.433594 3.019531 14.148438 2.90625 14.03125 2.773438 C 13.972656 2.703125 13.941406 2.625 13.941406 2.535156 C 13.941406 2.117188 13.882812 1.796875 13.765625 1.574219 C 13.699219 1.449219 13.617188 1.378906 13.523438 1.371094 C 13.425781 1.359375 13.34375 1.402344 13.289062 1.488281 C 13.261719 1.53125 13.246094 1.582031 13.25 1.632812 C 13.25 1.710938 13.257812 1.777344 13.28125 1.84375 C 13.316406 1.953125 13.371094 2.089844 13.429688 2.25 C 13.496094 2.414062 13.523438 2.527344 13.523438 2.582031 C 13.523438 2.742188 13.289062 2.78125 12.820312 2.757812 C 12.785156 2.753906 12.75 2.75 12.710938 2.75 C 12.082031 2.707031 11.761719 2.601562 11.761719 2.367188 C 11.761719 2.273438 11.820312 2.148438 11.933594 2.007812 C 12.039062 1.878906 12.101562 1.773438 12.132812 1.695312 C 12.210938 1.472656 12.25 1.257812 12.25 1.054688 C 12.25 0.910156 12.226562 0.769531 12.179688 0.632812 C 12.15625 0.574219 12.09375 0.488281 11.984375 0.367188 C 11.929688 0.304688 11.902344 0.253906 11.902344 0.222656 C 11.902344 0.140625 12.050781 0.0820312 12.351562 0.0546875 C 12.46875 0.0390625 12.589844 0.0351562 12.714844 0.0351562 C 13.078125 0.0351562 13.328125 0.0742188 13.460938 0.148438 C 13.503906 0.179688 13.527344 0.210938 13.53125 0.238281 C 13.53125 0.273438 13.480469 0.34375 13.390625 0.449219 C 13.28125 0.574219 13.226562 0.679688 13.226562 0.769531 Z M 3.152344 7.816406 C 3.160156 8.328125 3.171875 8.871094 3.320312 9.378906 C 3.355469 9.5 3.457031 9.679688 3.621094 9.90625 C 3.761719 10.097656 3.851562 10.277344 3.835938 10.398438 C 3.769531 10.878906 2.984375 10.925781 2.5 10.835938 C 1.976562 10.738281 1.195312 10.375 1.164062 9.839844 C 1.15625 9.695312 1.246094 9.539062 1.40625 9.378906 C 1.554688 9.234375 1.648438 9.101562 1.6875 8.988281 C 1.765625 8.753906 1.804688 8.375 1.804688 7.890625 C 1.804688 7.507812 1.769531 7.148438 1.699219 6.8125 C 1.660156 6.652344 1.589844 6.550781 1.488281 6.507812 C 1.316406 6.433594 1.085938 6.488281 0.804688 6.613281 C 0.800781 6.613281 0.796875 6.617188 0.792969 6.617188 C 0.664062 6.703125 0.550781 6.714844 0.453125 6.667969 C 0.417969 6.652344 0.382812 6.632812 0.351562 6.609375 C 0.15625 6.460938 0.0429688 6.222656 0.0078125 5.917969 C 0.00390625 5.871094 0 5.824219 0 5.78125 C 0 5.464844 0.101562 5.269531 0.308594 5.144531 C 0.441406 5.074219 0.570312 5.0625 0.703125 5.125 C 1.875 5.648438 2.925781 5.851562 4.230469 5.832031 C 4.410156 5.824219 4.578125 5.957031 4.734375 6.222656 C 4.871094 6.457031 4.941406 6.699219 4.941406 6.960938 C 4.941406 7.28125 4.855469 7.488281 4.683594 7.585938 C 4.648438 7.601562 4.617188 7.609375 4.582031 7.617188 C 4.445312 7.636719 4.3125 7.574219 4.1875 7.425781 C 4.171875 7.40625 4.15625 7.386719 4.140625 7.367188 C 4.023438 7.230469 3.878906 7.109375 3.710938 7.007812 C 3.601562 6.941406 3.511719 6.90625 3.4375 6.90625 C 3.25 6.933594 3.144531 7.246094 3.152344 7.816406 Z M 4.023438 6.007812 C 3.945312 6.015625 3.894531 6.050781 3.890625 6.105469 C 3.890625 6.175781 3.945312 6.238281 4.054688 6.277344 C 4.097656 6.296875 4.140625 6.304688 4.179688 6.300781 C 4.257812 6.292969 4.308594 6.257812 4.308594 6.203125 C 4.3125 6.132812 4.257812 6.074219 4.148438 6.035156 C 4.105469 6.015625 4.0625 6.007812 4.023438 6.007812 Z M 9.886719 6.988281 C 9.921875 7.125 10.023438 7.300781 10.195312 7.515625 C 10.34375 7.699219 10.421875 7.886719 10.417969 8.050781 C 10.390625 8.652344 9.636719 9.023438 9.074219 9.257812 C 8.53125 9.484375 8.179688 9.519531 8.011719 9.347656 C 7.964844 9.300781 7.9375 9.238281 7.9375 9.15625 C 7.9375 9.089844 7.984375 8.945312 8.070312 8.71875 C 8.175781 8.445312 8.242188 8.160156 8.28125 7.875 C 8.304688 7.710938 8.320312 7.582031 8.320312 7.492188 C 8.320312 7.21875 8.203125 7.117188 7.96875 7.175781 C 7.894531 7.199219 7.8125 7.234375 7.726562 7.273438 C 7.390625 7.4375 7.195312 7.644531 7.148438 7.886719 C 7.136719 7.949219 7.132812 8.007812 7.132812 8.066406 C 7.132812 8.171875 7.148438 8.289062 7.167969 8.414062 C 7.210938 8.660156 7.296875 8.902344 7.441406 9.128906 C 7.488281 9.210938 7.511719 9.285156 7.511719 9.351562 C 7.511719 9.566406 7.363281 9.792969 7.066406 10.027344 C 6.878906 10.171875 6.660156 10.292969 6.40625 10.394531 C 6.394531 10.398438 6.390625 10.402344 6.378906 10.40625 C 5.921875 10.546875 5.109375 10.816406 5.035156 10.25 C 5.019531 10.117188 5.117188 9.886719 5.277344 9.597656 C 5.429688 9.332031 5.523438 9.101562 5.5625 8.941406 C 5.65625 8.550781 5.703125 8.109375 5.703125 7.609375 C 5.703125 7.324219 5.679688 7.0625 5.621094 6.839844 C 5.59375 6.734375 5.503906 6.582031 5.351562 6.375 C 5.273438 6.261719 5.234375 6.152344 5.234375 6.078125 C 5.234375 5.890625 5.453125 5.714844 5.886719 5.496094 C 6.042969 5.417969 6.207031 5.347656 6.378906 5.285156 C 6.902344 5.089844 7.253906 5.023438 7.433594 5.097656 C 7.488281 5.128906 7.519531 5.175781 7.523438 5.226562 C 7.523438 5.289062 7.453125 5.460938 7.324219 5.726562 C 7.171875 6.035156 7.097656 6.28125 7.097656 6.453125 C 7.097656 6.726562 7.261719 6.804688 7.59375 6.683594 C 7.640625 6.667969 7.683594 6.648438 7.726562 6.625 C 8.117188 6.402344 8.34375 6.136719 8.355469 5.871094 C 8.367188 5.710938 8.269531 5.523438 8.09375 5.332031 C 7.984375 5.210938 7.933594 5.117188 7.933594 5.050781 C 7.933594 4.882812 8.148438 4.671875 8.585938 4.4375 C 8.742188 4.351562 8.902344 4.277344 9.074219 4.210938 C 9.59375 4.007812 9.945312 3.949219 10.132812 4.015625 C 10.1875 4.042969 10.222656 4.082031 10.226562 4.128906 C 10.230469 4.191406 10.160156 4.335938 10.035156 4.558594 C 9.929688 4.75 9.859375 4.910156 9.832031 5.03125 C 9.789062 5.199219 9.773438 5.425781 9.773438 5.703125 C 9.773438 6.238281 9.8125 6.667969 9.890625 6.988281 Z M 6.847656 5.34375 C 6.738281 5.390625 6.679688 5.449219 6.675781 5.507812 C 6.675781 5.566406 6.734375 5.59375 6.847656 5.574219 C 6.878906 5.570312 6.914062 5.5625 6.941406 5.550781 C 7.046875 5.503906 7.109375 5.441406 7.109375 5.382812 C 7.113281 5.324219 7.054688 5.300781 6.941406 5.320312 C 6.90625 5.324219 6.875 5.332031 6.847656 5.34375 Z M 9.542969 4.238281 C 9.433594 4.285156 9.371094 4.339844 9.367188 4.394531 C 9.367188 4.449219 9.425781 4.464844 9.535156 4.449219 C 9.570312 4.441406 9.605469 4.433594 9.632812 4.421875 C 9.742188 4.378906 9.804688 4.324219 9.808594 4.269531 C 9.8125 4.21875 9.75 4.199219 9.640625 4.214844 C 9.605469 4.222656 9.574219 4.230469 9.542969 4.242188 Z M 11.296875 6.464844 C 11.40625 6.007812 11.464844 5.597656 11.464844 5.183594 C 11.464844 4.953125 11.4375 4.757812 11.390625 4.59375 C 11.363281 4.492188 11.273438 4.351562 11.121094 4.171875 C 11.042969 4.078125 11.003906 4.003906 11.003906 3.949219 C 11.003906 3.753906 11.390625 3.582031 12.152344 3.578125 C 13.023438 3.578125 13.914062 3.703125 14.710938 4.03125 C 14.894531 4.101562 15.0625 4.292969 15.21875 4.613281 C 15.351562 4.882812 15.417969 5.144531 15.417969 5.363281 C 15.417969 5.652344 15.328125 5.757812 15.152344 5.695312 C 15.121094 5.683594 15.09375 5.671875 15.0625 5.65625 C 14.933594 5.578125 14.800781 5.441406 14.667969 5.25 C 14.511719 5.019531 14.390625 4.878906 14.308594 4.804688 C 14.144531 4.65625 13.941406 4.550781 13.707031 4.496094 C 13.402344 4.421875 13.152344 4.480469 12.96875 4.640625 C 12.875 4.722656 12.828125 4.808594 12.828125 4.890625 C 12.828125 5.011719 12.914062 5.082031 13.085938 5.121094 C 13.113281 5.128906 13.144531 5.132812 13.171875 5.136719 C 13.285156 5.152344 13.425781 5.128906 13.589844 5.070312 C 13.679688 5.039062 13.746094 5.03125 13.789062 5.042969 C 13.910156 5.074219 14 5.191406 14.054688 5.394531 C 14.074219 5.472656 14.082031 5.554688 14.082031 5.636719 C 14.082031 5.875 14.019531 6.015625 13.890625 6.058594 C 13.859375 6.066406 13.824219 6.066406 13.789062 6.058594 C 13.746094 6.046875 13.660156 5.980469 13.53125 5.878906 C 13.40625 5.773438 13.28125 5.71875 13.171875 5.703125 C 12.984375 5.683594 12.882812 5.746094 12.878906 5.871094 C 12.878906 6.007812 12.964844 6.203125 13.136719 6.40625 C 13.253906 6.53125 13.363281 6.609375 13.460938 6.628906 C 13.75 6.695312 14.015625 6.640625 14.238281 6.480469 C 14.261719 6.464844 14.292969 6.4375 14.332031 6.402344 C 14.492188 6.285156 14.628906 6.285156 14.742188 6.3125 C 14.792969 6.328125 14.84375 6.351562 14.898438 6.382812 C 15.273438 6.605469 15.488281 6.96875 15.542969 7.425781 C 15.550781 7.496094 15.554688 7.566406 15.554688 7.636719 C 15.554688 8.050781 15.4375 8.355469 15.199219 8.605469 C 14.980469 8.828125 14.742188 8.90625 14.492188 8.816406 C 13.679688 8.554688 12.972656 8.4375 12.109375 8.421875 C 11.675781 8.460938 10.769531 8.464844 10.769531 7.878906 C 10.769531 7.699219 10.847656 7.449219 11.011719 7.136719 C 11.160156 6.851562 11.257812 6.625 11.296875 6.460938 Z M 14.507812 4.082031 C 14.429688 4.054688 14.382812 4.066406 14.382812 4.105469 C 14.378906 4.15625 14.4375 4.222656 14.542969 4.296875 C 14.585938 4.328125 14.628906 4.355469 14.667969 4.371094 C 14.742188 4.398438 14.789062 4.390625 14.792969 4.351562 C 14.796875 4.300781 14.738281 4.226562 14.632812 4.152344 C 14.585938 4.117188 14.546875 4.09375 14.507812 4.082031 Z M 4.496094 13.871094 C 4.523438 13.964844 4.609375 14.09375 4.753906 14.253906 C 4.875 14.390625 4.9375 14.507812 4.9375 14.601562 C 4.933594 14.847656 4.550781 14.972656 3.816406 14.976562 C 3.363281 14.976562 3.066406 14.902344 2.925781 14.753906 C 2.886719 14.710938 2.867188 14.664062 2.867188 14.617188 C 2.867188 14.578125 2.90625 14.5 2.976562 14.386719 C 3.0625 14.253906 3.121094 14.101562 3.152344 13.941406 C 3.171875 13.847656 3.183594 13.773438 3.183594 13.714844 C 3.183594 13.546875 3.085938 13.4375 2.890625 13.390625 C 2.828125 13.375 2.761719 13.367188 2.6875 13.359375 C 2.40625 13.335938 2.246094 13.386719 2.203125 13.527344 C 2.195312 13.5625 2.191406 13.597656 2.191406 13.640625 C 2.191406 13.710938 2.203125 13.792969 2.222656 13.882812 C 2.257812 14.058594 2.328125 14.253906 2.449219 14.445312 C 2.488281 14.511719 2.511719 14.566406 2.511719 14.609375 C 2.511719 14.742188 2.386719 14.84375 2.136719 14.910156 C 1.980469 14.953125 1.796875 14.976562 1.585938 14.976562 L 1.5625 14.976562 C 0.816406 14.972656 0.441406 14.800781 0.441406 14.472656 C 0.441406 14.339844 0.507812 14.175781 0.644531 14 C 0.769531 13.835938 0.847656 13.707031 0.882812 13.601562 C 0.957031 13.347656 1 13.046875 1 12.691406 C 1 12.488281 0.976562 12.292969 0.929688 12.105469 C 0.90625 12.015625 0.832031 11.859375 0.703125 11.628906 C 0.636719 11.503906 0.605469 11.410156 0.605469 11.359375 C 0.605469 11.230469 0.789062 11.234375 1.152344 11.328125 C 1.28125 11.363281 1.417969 11.402344 1.5625 11.449219 C 2 11.585938 2.292969 11.6875 2.441406 11.8125 C 2.488281 11.859375 2.515625 11.898438 2.515625 11.933594 C 2.519531 11.976562 2.460938 12.0625 2.351562 12.183594 C 2.226562 12.320312 2.160156 12.449219 2.160156 12.5625 C 2.160156 12.742188 2.300781 12.867188 2.578125 12.925781 C 2.617188 12.933594 2.652344 12.9375 2.6875 12.941406 C 3.015625 12.949219 3.203125 12.851562 3.214844 12.6875 C 3.222656 12.582031 3.140625 12.425781 2.996094 12.234375 C 2.90625 12.113281 2.859375 12.027344 2.859375 11.980469 C 2.859375 11.867188 3.042969 11.820312 3.40625 11.796875 C 3.535156 11.785156 3.671875 11.78125 3.816406 11.785156 C 4.25 11.785156 4.542969 11.808594 4.699219 11.898438 C 4.746094 11.929688 4.777344 11.96875 4.777344 12.003906 C 4.78125 12.050781 4.722656 12.148438 4.617188 12.285156 C 4.527344 12.398438 4.46875 12.496094 4.445312 12.574219 C 4.414062 12.683594 4.398438 12.832031 4.398438 13.019531 C 4.398438 13.378906 4.429688 13.65625 4.496094 13.871094 Z M 1.953125 11.71875 C 1.867188 11.695312 1.816406 11.707031 1.8125 11.746094 C 1.8125 11.785156 1.859375 11.828125 1.953125 11.871094 C 1.984375 11.882812 2.007812 11.894531 2.035156 11.898438 C 2.121094 11.914062 2.171875 11.902344 2.175781 11.863281 C 2.175781 11.824219 2.128906 11.785156 2.035156 11.746094 C 2.003906 11.734375 1.976562 11.722656 1.953125 11.71875 Z M 4.207031 11.929688 C 4.113281 11.9375 4.0625 11.960938 4.058594 12 C 4.058594 12.035156 4.105469 12.066406 4.203125 12.082031 C 4.230469 12.085938 4.257812 12.089844 4.28125 12.085938 C 4.375 12.082031 4.425781 12.054688 4.429688 12.019531 C 4.429688 11.980469 4.378906 11.953125 4.285156 11.9375 C 4.257812 11.933594 4.230469 11.929688 4.207031 11.929688 Z M 5.71875 12.417969 C 5.695312 12.339844 5.621094 12.238281 5.492188 12.113281 C 5.425781 12.046875 5.394531 11.992188 5.394531 11.945312 C 5.394531 11.816406 5.578125 11.675781 5.941406 11.507812 C 6.070312 11.449219 6.210938 11.394531 6.355469 11.339844 C 6.789062 11.191406 7.082031 11.136719 7.234375 11.207031 C 7.285156 11.230469 7.3125 11.265625 7.3125 11.316406 C 7.3125 11.363281 7.261719 11.480469 7.160156 11.660156 C 7.066406 11.820312 7.007812 11.949219 6.980469 12.050781 C 6.945312 12.195312 6.925781 12.375 6.925781 12.597656 C 6.925781 12.941406 6.96875 13.277344 7.054688 13.625 C 7.0625 13.648438 7.132812 13.75 7.261719 13.9375 C 7.410156 14.148438 7.484375 14.332031 7.484375 14.476562 C 7.480469 14.800781 7.101562 14.976562 6.367188 14.976562 C 5.636719 14.976562 5.257812 14.851562 5.253906 14.601562 C 5.253906 14.488281 5.355469 14.3125 5.554688 14.03125 C 5.632812 13.917969 5.675781 13.839844 5.6875 13.800781 C 5.757812 13.546875 5.792969 13.273438 5.792969 12.980469 C 5.792969 12.757812 5.765625 12.566406 5.71875 12.417969 Z M 6.742188 11.382812 C 6.652344 11.417969 6.605469 11.460938 6.601562 11.503906 C 6.601562 11.546875 6.648438 11.5625 6.742188 11.550781 C 6.773438 11.550781 6.796875 11.542969 6.824219 11.535156 C 6.90625 11.503906 6.957031 11.460938 6.957031 11.414062 C 6.960938 11.367188 6.910156 11.347656 6.816406 11.363281 C 6.792969 11.367188 6.765625 11.375 6.742188 11.382812 Z M 8.21875 13.324219 C 8.3125 12.960938 8.359375 12.574219 8.359375 12.179688 C 8.359375 11.964844 8.339844 11.777344 8.296875 11.628906 C 8.273438 11.535156 8.199219 11.414062 8.070312 11.265625 C 8.007812 11.191406 7.972656 11.125 7.972656 11.074219 C 7.972656 10.921875 8.15625 10.75 8.519531 10.554688 C 8.648438 10.484375 8.789062 10.421875 8.933594 10.367188 C 9.363281 10.207031 9.65625 10.171875 9.816406 10.257812 C 9.867188 10.296875 9.894531 10.34375 9.898438 10.398438 C 9.898438 10.453125 9.84375 10.585938 9.742188 10.789062 C 9.648438 10.972656 9.585938 11.128906 9.558594 11.25 C 9.527344 11.398438 9.511719 11.621094 9.511719 11.921875 C 9.511719 12.476562 9.554688 12.851562 9.644531 13.019531 C 9.726562 13.171875 9.859375 13.242188 10.023438 13.21875 C 10.269531 13.1875 10.492188 13.019531 10.675781 12.78125 C 10.695312 12.753906 10.722656 12.71875 10.753906 12.667969 C 10.890625 12.488281 11.003906 12.378906 11.097656 12.339844 C 11.136719 12.324219 11.179688 12.316406 11.226562 12.3125 C 11.539062 12.304688 11.71875 12.511719 11.765625 12.925781 C 11.773438 12.992188 11.777344 13.058594 11.777344 13.132812 C 11.777344 13.554688 11.679688 13.964844 11.476562 14.359375 C 11.296875 14.714844 11.097656 14.898438 10.890625 14.902344 C 10.226562 14.902344 9.5625 14.910156 8.898438 14.914062 C 8.15625 14.914062 7.78125 14.742188 7.777344 14.402344 C 7.777344 14.265625 7.84375 14.085938 7.980469 13.851562 C 8.105469 13.636719 8.1875 13.457031 8.21875 13.324219 Z M 12.4375 12.910156 C 12.53125 12.480469 12.578125 12.035156 12.578125 11.566406 C 12.578125 11.304688 12.558594 11.078125 12.519531 10.882812 C 12.492188 10.761719 12.417969 10.582031 12.292969 10.351562 C 12.226562 10.230469 12.191406 10.140625 12.191406 10.078125 C 12.191406 9.898438 12.375 9.769531 12.738281 9.726562 C 12.867188 9.714844 13.007812 9.71875 13.15625 9.734375 C 13.582031 9.789062 13.878906 9.933594 14.035156 10.117188 C 14.085938 10.1875 14.113281 10.253906 14.117188 10.3125 C 14.117188 10.371094 14.066406 10.476562 13.964844 10.632812 C 13.871094 10.78125 13.808594 10.914062 13.78125 11.03125 C 13.746094 11.175781 13.730469 11.40625 13.730469 11.730469 C 13.730469 12.324219 13.773438 12.734375 13.863281 12.9375 C 13.949219 13.121094 14.078125 13.226562 14.246094 13.246094 C 14.488281 13.277344 14.710938 13.191406 14.894531 13.011719 C 14.914062 12.992188 14.941406 12.964844 14.972656 12.925781 C 15.109375 12.792969 15.222656 12.726562 15.316406 12.71875 C 15.355469 12.714844 15.398438 12.722656 15.445312 12.734375 C 15.761719 12.816406 15.9375 13.042969 15.984375 13.382812 C 15.992188 13.4375 15.996094 13.492188 15.996094 13.546875 C 15.996094 13.882812 15.898438 14.179688 15.695312 14.480469 C 15.515625 14.753906 15.316406 14.910156 15.109375 14.914062 C 14.445312 14.910156 13.78125 14.90625 13.117188 14.902344 C 12.628906 14.925781 11.992188 14.742188 11.996094 14.207031 C 12 14.027344 12.0625 13.792969 12.199219 13.515625 C 12.324219 13.265625 12.40625 13.0625 12.4375 12.910156 Z M 12.4375 12.910156 "/>
</g>
</svg>
