<svg width="165" height="179" viewBox="0 0 165 179" fill="none" xmlns="http://www.w3.org/2000/svg"><g filter="url(#filter0_d_3_8)"><path d="M140.258 106.667L159.675 87.127L130.876 89.65L131.19 74.865L92.3 93.066L115.308 49.875L97.703 52.31L91.662 18.2415L74.72 48.407L58.906 40.299L66.376 88.662L35.668 58.649L31.0866 72.709L4.7345 60.824L16.6133 85.677L4.3127 90.811L40.546 116.665L28.8206 130.587L67.743 132.688C67.743 132.688 69.909 132.395 69.322 135.859C68.735 139.322 61.24 168.675 61.24 168.675L70.745 170.288C70.745 170.288 73.357 140.104 73.943 136.643C74.53 133.18 76.476 134.169 76.476 134.169L113.913 145.029L107.439 128.017L150.175 115.569L140.256 106.661L140.258 106.667Z" fill="#CCC292"/><path d="M140.711 88.601L160.124 69.06L131.325 71.583L131.64 56.799L92.75 74.999L115.758 31.8078L98.152 34.2436L92.111 0.177505L75.169 30.3433L59.356 22.2348L66.825 70.598L36.117 40.585L31.5358 54.645L5.1808 42.76L17.0596 67.612L4.759 72.747L40.992 98.6L29.2669 112.523L68.19 114.624C68.19 114.624 70.352 114.33 69.765 117.794C69.178 121.257 61.683 150.61 61.683 150.61L71.188 152.223C71.188 152.223 73.8 122.039 74.39 118.576C74.977 115.113 76.923 116.102 76.923 116.102L114.36 126.965L107.885 109.952L150.621 97.504L140.706 88.597L140.711 88.601Z" fill="#FFF3B6"/><path d="M64.199 102.226C44.013 98.8 33.4859 107.863 30.3219 111.279L29.275 112.524L68.198 114.625C68.198 114.625 70.36 114.331 69.773 117.795C69.186 121.258 61.691 150.611 61.691 150.611L71.196 152.224C71.196 152.224 73.808 122.039 74.398 118.577C74.985 115.113 76.931 116.103 76.931 116.103L114.368 126.966L107.893 109.953L150.629 97.505L140.714 88.598L160.127 69.057L131.328 71.58L131.643 56.796C121.885 114.273 88.885 106.414 64.202 102.223L64.199 102.226Z" fill="#E6DBA4"/></g><defs><filter id="filter0_d_3_8" x="0.312698" y="0.177505" width="163.814" height="178.11" filterUnits="userSpaceOnUse" color-interpolation-filters="sRGB"><feFlood flood-opacity="0" result="BackgroundImageFix"/><feColorMatrix in="SourceAlpha" type="matrix" values="0 0 0 0 0 0 0 0 0 0 0 0 0 0 0 0 0 0 127 0" result="hardAlpha"/><feOffset dy="4"/><feGaussianBlur stdDeviation="2"/><feComposite in2="hardAlpha" operator="out"/><feColorMatrix type="matrix" values="0 0 0 0 0 0 0 0 0 0 0 0 0 0 0 0 0 0 0.25 0"/><feBlend mode="normal" in2="BackgroundImageFix" result="effect1_dropShadow_3_8"/><feBlend mode="normal" in="SourceGraphic" in2="effect1_dropShadow_3_8" result="shape"/></filter></defs></svg>
