<svg width="1439" height="335" viewBox="0 0 1439 335" fill="none" xmlns="http://www.w3.org/2000/svg">
<path d="M819.5 159.5C767.5 142.5 650.5 83 625.5 69C600.5 55 547.584 33.8071 484 18.5C418.001 2.6116 345.5 -0.49997 316 1.14494C286.5 2.78985 242.5 3.50003 226 4.64501C209.5 5.79 195.5 7.00003 195.5 7.00003C195.5 7.00003 146.5 12 120.5 17.645C94.5 23.29 59.5 36.145 59.5 36.145L0 58.145V335H1439V227.645C1439 227.645 1389 209.645 1343 203.145L1338.44 202.5C1295.17 196.38 1268.53 192.612 1226 191.645C1182 190.645 1109.25 190.645 1109.25 190.645C1109.25 190.645 1037.76 195.128 992.5 189.645C917 180.5 871.5 176.5 819.5 159.5Z" fill="#D06A57"/>
</svg>
