<svg width="626" height="213" viewBox="0 0 626 213" fill="none" xmlns="http://www.w3.org/2000/svg">
<rect x="9" y="9" width="609" height="194" rx="20" fill="#CC0100"/>
<g clip-path="url(#clip0_1_2)">
<path d="M105 138.35C105.226 134.675 105.451 129.2 105.451 124.4V59H115.223V92.975H115.448C118.906 86.975 125.22 83 133.939 83C147.394 83 156.94 94.175 156.79 110.6C156.79 129.95 144.613 139.55 132.511 139.55C124.694 139.55 118.38 136.55 114.396 129.35H114.095L113.494 138.35H105ZM115.223 116.675C115.223 117.875 115.448 119.15 115.674 120.275C117.553 127.1 123.266 131.75 130.482 131.75C140.779 131.75 146.943 123.35 146.943 110.975C146.943 100.1 141.305 90.875 130.782 90.875C124.092 90.875 117.778 95.45 115.749 102.95C115.523 104.075 115.223 105.425 115.223 107V116.675ZM199.259 138.35L198.507 131.525H198.207C195.2 135.8 189.337 139.55 181.595 139.55C170.621 139.55 164.983 131.825 164.983 124.025C164.983 110.975 176.634 103.775 197.605 103.925V102.8C197.605 98.3 196.403 90.275 185.278 90.275C180.242 90.275 174.98 91.85 171.147 94.325L168.892 87.875C173.402 84.95 179.866 83.075 186.706 83.075C203.318 83.075 207.302 94.4 207.302 105.2V125.45C207.302 130.175 207.527 134.75 208.204 138.425L199.259 138.35ZM197.756 110.75C187.007 110.525 174.83 112.4 174.83 122.9C174.83 129.275 179.114 132.275 184.151 132.275C191.216 132.275 195.651 127.775 197.229 123.2C197.53 122.225 197.756 121.1 197.756 120.05V110.75ZM223.237 59H233.084V138.35H223.237V59ZM248.343 128.3C251.274 130.175 256.386 132.2 261.347 132.2C268.487 132.2 271.87 128.6 271.87 124.175C271.87 119.45 269.089 116.9 261.798 114.2C252.026 110.75 247.441 105.35 247.441 98.9C247.441 90.2 254.506 83 266.157 83C271.644 83 276.455 84.575 279.462 86.375L276.981 93.5C274.877 92.15 270.968 90.35 265.857 90.35C260.069 90.35 256.761 93.725 256.761 97.7C256.761 102.2 259.994 104.15 267.059 106.85C276.455 110.45 281.266 115.1 281.266 123.2C281.266 132.725 273.9 139.4 260.971 139.4C255.033 139.4 249.545 137.975 245.712 135.725L248.343 128.3ZM324.036 138.35L323.284 131.525H322.983C319.977 135.8 314.114 139.55 306.371 139.55C295.397 139.55 289.76 131.825 289.76 124.025C289.76 110.975 301.411 103.775 322.382 103.925V102.8C322.382 98.3 321.179 90.275 310.055 90.275C305.018 90.275 299.757 91.85 295.923 94.325L293.668 87.875C298.178 84.95 304.643 83.075 311.483 83.075C328.095 83.075 332.079 94.4 332.079 105.2V125.45C332.079 130.175 332.304 134.75 332.98 138.425L324.036 138.35ZM322.607 110.75C311.859 110.525 299.682 112.4 299.682 122.9C299.682 129.275 303.966 132.275 309.002 132.275C316.068 132.275 320.503 127.775 322.081 123.2C322.382 122.225 322.607 121.1 322.607 120.05V110.75ZM348.014 98.9C348.014 93.275 347.939 88.7 347.563 84.275H356.207L356.658 92.975H357.034C360.04 87.8 365.077 83 374.021 83C381.388 83 387.025 87.5 389.355 93.875H389.581C391.235 90.875 393.415 88.55 395.67 86.825C398.902 84.35 402.51 83 407.696 83C414.837 83 425.511 87.725 425.511 106.475V138.35H415.889V107.75C415.889 97.325 412.056 91.1 404.163 91.1C398.526 91.1 394.166 95.225 392.512 100.025C392.061 101.375 391.761 103.175 391.761 104.975V138.425H382.14V106.025C382.14 97.4 378.306 91.175 370.789 91.175C364.626 91.175 360.116 96.125 358.612 101C358.086 102.425 357.861 104.15 357.861 105.8V138.425H348.014V98.9ZM452.495 69.05C452.571 72.425 450.165 75.05 446.257 75.05C442.799 75.05 440.319 72.35 440.319 69.05C440.319 65.6 442.874 62.9 446.482 62.9C450.09 62.9 452.495 65.6 452.495 69.05ZM441.446 138.35V84.275H451.293V138.35H441.446ZM504.661 130.025H504.436C501.504 135.425 495.491 139.625 486.771 139.625C474.143 139.625 463.77 128.675 463.77 112.25C463.77 92 476.849 83.075 488.275 83.075C496.693 83.075 502.256 87.2 504.962 92.45H505.187L505.488 84.275H514.884C514.658 88.85 514.583 93.575 514.583 99.125V160.475H504.736L504.661 130.025ZM504.661 106.175C504.661 104.825 504.586 103.25 504.21 102.05C502.782 96.05 497.52 90.875 490.079 90.875C479.856 90.875 473.692 99.5 473.692 111.65C473.692 122.375 478.879 131.75 489.703 131.75C496.092 131.75 501.579 127.85 503.834 121.025C504.285 119.675 504.586 117.8 504.586 116.3V106.175H504.661ZM556 95.15C556 102.05 550.513 107.525 543.447 107.525C536.457 107.525 530.819 102.05 530.819 95.15C530.819 88.4 536.457 82.925 543.447 82.925C550.513 82.925 556 88.4 556 95.15ZM533.976 95.15C533.976 100.625 538.035 104.9 543.522 104.9C548.934 104.9 552.843 100.55 552.843 95.225C552.843 89.75 548.859 85.4 543.447 85.4C538.035 85.4 533.976 89.825 533.976 95.15ZM541.493 101.6H538.637V89.375C539.764 89.15 541.343 89 543.372 89C545.702 89 546.755 89.375 547.657 89.9C548.333 90.425 548.859 91.4 548.859 92.6C548.859 93.95 547.807 95 546.303 95.45V95.6C547.506 96.05 548.183 96.95 548.558 98.6C548.934 100.475 549.16 101.225 549.46 101.675H546.379C546.003 101.225 545.777 100.1 545.402 98.675C545.176 97.325 544.424 96.725 542.846 96.725H541.493V101.6ZM541.568 94.625H542.921C544.499 94.625 545.777 94.1 545.777 92.825C545.777 91.7 544.951 90.95 543.147 90.95C542.395 90.95 541.869 91.025 541.568 91.1V94.625Z" fill="white"/>
</g>
<defs>
<clipPath id="clip0_1_2">
<rect width="451" height="102" fill="white" transform="translate(105 59)"/>
</clipPath>
</defs>
</svg>
