<svg xmlns="http://www.w3.org/2000/svg" fill="none" viewBox="0 0 609 194"><path fill="#CC0100" d="M589 0H20C8.954 0 0 8.954 0 20v154c0 11.046 8.954 20 20 20h569c11.046 0 20-8.954 20-20V20c0-11.046-8.954-20-20-20Z"/><path fill="#fff" d="M96 129.35c.226-3.675.451-9.15.451-13.95V50h9.772v33.975h.225c3.458-6 9.772-9.975 18.491-9.975 13.455 0 23.001 11.175 22.851 27.6 0 19.35-12.177 28.95-24.279 28.95-7.817 0-14.131-3-18.115-10.2h-.301l-.601 9H96Zm10.223-21.675c0 1.2.225 2.475.451 3.6 1.879 6.825 7.592 11.475 14.808 11.475 10.297 0 16.461-8.4 16.461-20.775 0-10.875-5.638-20.1-16.161-20.1-6.69 0-13.004 4.575-15.033 12.075-.226 1.125-.526 2.475-.526 4.05v9.675Zm84.036 21.675-.752-6.825h-.3c-3.007 4.275-8.87 8.025-16.612 8.025-10.974 0-16.612-7.725-16.612-15.525 0-13.05 11.651-20.25 32.622-20.1V93.8c0-4.5-1.202-12.525-12.327-12.525-5.036 0-10.298 1.575-14.131 4.05l-2.255-6.45c4.51-2.925 10.974-4.8 17.814-4.8 16.612 0 20.596 11.325 20.596 22.125v20.25c0 4.725.225 9.3.902 12.975l-8.945-.075Zm-1.503-27.6c-10.749-.225-22.926 1.65-22.926 12.15 0 6.375 4.284 9.375 9.321 9.375 7.065 0 11.5-4.5 13.078-9.075.301-.975.527-2.1.527-3.15v-9.3ZM214.237 50h9.847v79.35h-9.847V50Zm25.106 69.3c2.931 1.875 8.043 3.9 13.004 3.9 7.14 0 10.523-3.6 10.523-8.025 0-4.725-2.781-7.275-10.072-9.975-9.772-3.45-14.357-8.85-14.357-15.3 0-8.7 7.065-15.9 18.716-15.9 5.487 0 10.298 1.575 13.305 3.375l-2.481 7.125c-2.104-1.35-6.013-3.15-11.124-3.15-5.788 0-9.096 3.375-9.096 7.35 0 4.5 3.233 6.45 10.298 9.15 9.396 3.6 14.207 8.25 14.207 16.35 0 9.525-7.366 16.2-20.295 16.2-5.938 0-11.426-1.425-15.259-3.675l2.631-7.425Zm75.693 10.05-.752-6.825h-.301c-3.006 4.275-8.869 8.025-16.612 8.025-10.974 0-16.611-7.725-16.611-15.525 0-13.05 11.651-20.25 32.622-20.1V93.8c0-4.5-1.203-12.525-12.327-12.525-5.037 0-10.298 1.575-14.132 4.05l-2.255-6.45c4.51-2.925 10.975-4.8 17.815-4.8 16.612 0 20.596 11.325 20.596 22.125v20.25c0 4.725.225 9.3.901 12.975l-8.944-.075Zm-1.429-27.6c-10.748-.225-22.925 1.65-22.925 12.15 0 6.375 4.284 9.375 9.32 9.375 7.066 0 11.501-4.5 13.079-9.075.301-.975.526-2.1.526-3.15v-9.3Zm25.407-11.85c0-5.625-.075-10.2-.451-14.625h8.644l.451 8.7h.376C351.04 78.8 356.077 74 365.021 74c7.367 0 13.004 4.5 15.334 10.875h.226c1.654-3 3.834-5.325 6.089-7.05C389.902 75.35 393.51 74 398.696 74c7.141 0 17.815 4.725 17.815 23.475v31.875h-9.622v-30.6c0-10.425-3.833-16.65-11.726-16.65-5.637 0-9.997 4.125-11.651 8.925-.451 1.35-.751 3.15-.751 4.95v33.45h-9.621v-32.4c0-8.625-3.834-14.85-11.351-14.85-6.163 0-10.673 4.95-12.177 9.825-.526 1.425-.751 3.15-.751 4.8v32.625h-9.847V89.9Zm104.481-29.85c.076 3.375-2.33 6-6.238 6-3.458 0-5.938-2.7-5.938-6 0-3.45 2.555-6.15 6.163-6.15s6.013 2.7 6.013 6.15Zm-11.049 69.3V75.275h9.847v54.075h-9.847Zm63.215-8.325h-.225c-2.932 5.4-8.945 9.6-17.665 9.6-12.628 0-23.001-10.95-23.001-27.375 0-20.25 13.079-29.175 24.505-29.175 8.418 0 13.981 4.125 16.687 9.375h.225l.301-8.175h9.396c-.226 4.575-.301 9.3-.301 14.85v61.35h-9.847l-.075-30.45Zm0-23.85c0-1.35-.075-2.925-.451-4.125-1.428-6-6.69-11.175-14.131-11.175-10.223 0-16.387 8.625-16.387 20.775 0 10.725 5.187 20.1 16.011 20.1 6.389 0 11.876-3.9 14.131-10.725.451-1.35.752-3.225.752-4.725V97.175h.075ZM547 86.15c0 6.9-5.487 12.375-12.553 12.375-6.99 0-12.628-5.475-12.628-12.375 0-6.75 5.638-12.225 12.628-12.225C541.513 73.925 547 79.4 547 86.15Zm-22.024 0c0 5.475 4.059 9.75 9.546 9.75 5.412 0 9.321-4.35 9.321-9.675 0-5.475-3.984-9.825-9.396-9.825-5.412 0-9.471 4.425-9.471 9.75Zm7.517 6.45h-2.856V80.375c1.127-.225 2.706-.375 4.735-.375 2.33 0 3.383.375 4.285.9.676.525 1.202 1.5 1.202 2.7 0 1.35-1.052 2.4-2.556 2.85v.15c1.203.45 1.88 1.35 2.255 3 .376 1.875.602 2.625.902 3.075h-3.081c-.376-.45-.602-1.575-.977-3-.226-1.35-.978-1.95-2.556-1.95h-1.353V92.6Zm.075-6.975h1.353c1.578 0 2.856-.525 2.856-1.8 0-1.125-.826-1.875-2.63-1.875-.752 0-1.278.075-1.579.15v3.525Z"/></svg>
