<svg xmlns="http://www.w3.org/2000/svg" fill="none" viewBox="0 0 600 136"><path fill="#A60000" d="M0 105.8c.3-4.9.6-12.2.6-18.6V0h13v45.3h.3c4.6-8 13-13.3 24.6-13.3 17.9 0 30.6 14.9 30.4 36.8 0 25.8-16.2 38.6-32.3 38.6-10.4 0-18.8-4-24.1-13.6h-.4l-.8 12H0Zm13.6-28.9c0 1.6.3 3.3.6 4.8C16.7 90.8 24.3 97 33.9 97c13.7 0 21.9-11.2 21.9-27.7 0-14.5-7.5-26.8-21.5-26.8-8.9 0-17.3 6.1-20 16.1-.3 1.5-.7 3.3-.7 5.4v12.9Zm111.8 28.9-1-9.1h-.4c-4 5.7-11.8 10.7-22.1 10.7-14.6 0-22.1-10.3-22.1-20.7 0-17.4 15.5-27 43.4-26.8v-1.5c0-6-1.6-16.7-16.4-16.7-6.7 0-13.7 2.1-18.8 5.4l-3-8.6c6-3.9 14.6-6.4 23.7-6.4 22.1 0 27.4 15.1 27.4 29.5v27c0 6.3.3 12.4 1.2 17.3l-11.9-.1Zm-2-36.8c-14.3-.3-30.5 2.2-30.5 16.2 0 8.5 5.7 12.5 12.4 12.5 9.4 0 15.3-6 17.4-12.1.4-1.3.7-2.8.7-4.2V69Zm33.9-69h13.1v105.8h-13.1V0Zm33.4 92.4c3.9 2.5 10.7 5.2 17.3 5.2 9.5 0 14-4.8 14-10.7 0-6.3-3.7-9.7-13.4-13.3-13-4.6-19.1-11.8-19.1-20.4 0-11.6 9.4-21.2 24.9-21.2 7.3 0 13.7 2.1 17.7 4.5l-3.3 9.5c-2.8-1.8-8-4.2-14.8-4.2-7.7 0-12.1 4.5-12.1 9.8 0 6 4.3 8.6 13.7 12.2 12.5 4.8 18.9 11 18.9 21.8 0 12.7-9.8 21.6-27 21.6-7.9 0-15.2-1.9-20.3-4.9l3.5-9.9Zm100.7 13.4-1-9.1h-.4c-4 5.7-11.8 10.7-22.1 10.7-14.6 0-22.1-10.3-22.1-20.7 0-17.4 15.5-27 43.4-26.8v-1.5c0-6-1.6-16.7-16.4-16.7-6.7 0-13.7 2.1-18.8 5.4l-3-8.6c6-3.9 14.6-6.4 23.7-6.4 22.1 0 27.4 15.1 27.4 29.5v27c0 6.3.3 12.4 1.2 17.3l-11.9-.1ZM289.5 69c-14.3-.3-30.5 2.2-30.5 16.2 0 8.5 5.7 12.5 12.4 12.5 9.4 0 15.3-6 17.4-12.1.4-1.3.7-2.8.7-4.2V69Zm33.8-15.8c0-7.5-.1-13.6-.6-19.5h11.5l.6 11.6h.5c4-6.9 10.7-13.3 22.6-13.3 9.8 0 17.3 6 20.4 14.5h.3c2.2-4 5.1-7.1 8.1-9.4 4.3-3.3 9.1-5.1 16-5.1 9.5 0 23.7 6.3 23.7 31.3v42.5h-12.8V65c0-13.9-5.1-22.2-15.6-22.2-7.5 0-13.3 5.5-15.5 11.9-.6 1.8-1 4.2-1 6.6v44.6h-12.8V62.7c0-11.5-5.1-19.8-15.1-19.8-8.2 0-14.2 6.6-16.2 13.1-.7 1.9-1 4.2-1 6.4v43.5h-13.1V53.2Zm139-39.8c.1 4.5-3.1 8-8.3 8-4.6 0-7.9-3.6-7.9-8 0-4.6 3.4-8.2 8.2-8.2 4.8 0 8 3.6 8 8.2Zm-14.7 92.4V33.7h13.1v72.1h-13.1Zm84.1-11.1h-.3c-3.9 7.2-11.9 12.8-23.5 12.8-16.8 0-30.6-14.6-30.6-36.5 0-27 17.4-38.9 32.6-38.9 11.2 0 18.6 5.5 22.2 12.5h.3l.4-10.9h12.5c-.3 6.1-.4 12.4-.4 19.8v81.8h-13.1l-.1-40.6Zm0-31.8c0-1.8-.1-3.9-.6-5.5-1.9-8-8.9-14.9-18.8-14.9-13.6 0-21.8 11.5-21.8 27.7 0 14.3 6.9 26.8 21.3 26.8 8.5 0 15.8-5.2 18.8-14.3.6-1.8 1-4.3 1-6.3V62.9h.1ZM600 48.2c0 9.2-7.3 16.5-16.7 16.5-9.3 0-16.8-7.3-16.8-16.5 0-9 7.5-16.3 16.8-16.3 9.4 0 16.7 7.3 16.7 16.3Zm-29.3 0c0 7.3 5.4 13 12.7 13 7.2 0 12.4-5.8 12.4-12.9 0-7.3-5.3-13.1-12.5-13.1s-12.6 5.9-12.6 13Zm10 8.6h-3.8V40.5c1.5-.3 3.6-.5 6.3-.5 3.1 0 4.5.5 5.7 1.2.9.7 1.6 2 1.6 3.6 0 1.8-1.4 3.2-3.4 3.8v.2c1.6.6 2.5 1.8 3 4 .5 2.5.8 3.5 1.2 4.1h-4.1c-.5-.6-.8-2.1-1.3-4-.3-1.8-1.3-2.6-3.4-2.6h-1.8v6.5Zm.1-9.3h1.8c2.1 0 3.8-.7 3.8-2.4 0-1.5-1.1-2.5-3.5-2.5-1 0-1.7.1-2.1.2v4.7Z"/></svg>
