<svg version="1.1" id="Layer_1" xmlns="http://www.w3.org/2000/svg" xmlns:xlink="http://www.w3.org/1999/xlink" x="0px" y="0px"
	 width="100%" viewBox="0 0 1160 532" enable-background="new 0 0 1160 532" xml:space="preserve">
<path fill="#000000" opacity="1.000000" stroke="none" 
	d="
M527.831299,262.047241 
	C522.004028,284.695801 509.933594,302.502747 489.894470,314.053619 
	C461.051544,330.679169 431.602966,329.703003 402.049072,315.677094 
	C400.750214,315.060638 399.419342,314.511597 397.445648,313.641052 
	C397.202240,315.669769 397.000244,317.046631 396.881042,318.430634 
	C396.754852,319.895935 396.707489,321.368011 396.605896,323.192810 
	C382.445648,323.192810 368.564362,323.192810 354.063721,323.192810 
	C354.063721,321.134094 354.063721,319.355133 354.063721,317.576172 
	C354.063660,244.278259 354.062378,170.980347 354.065582,97.682426 
	C354.065887,91.021400 354.079285,91.002327 360.603424,90.991722 
	C370.598572,90.975479 380.604767,91.268280 390.584412,90.874931 
	C395.823975,90.668419 397.025574,92.586449 396.968842,97.484077 
	C396.733398,117.804848 396.863342,138.129959 396.884033,158.453445 
	C396.885986,160.374832 397.061676,162.296036 397.194092,164.973495 
	C403.066711,162.674561 408.172791,160.421341 413.442200,158.655548 
	C440.772034,149.497299 467.401550,150.949783 492.120544,166.231628 
	C511.005737,177.906876 522.793213,195.346390 527.845825,217.113907 
	C531.288330,231.944519 531.353394,246.791565 527.831299,262.047241 
M447.848755,286.711914 
	C451.208435,285.791290 454.687714,285.173248 457.908173,283.900391 
	C477.173523,276.286102 488.112396,260.745392 488.139313,240.073257 
	C488.158112,225.629776 482.996857,213.240295 471.817017,203.505905 
	C452.260651,186.478027 418.692963,189.195572 399.488556,204.158630 
	C398.058563,205.272812 396.987610,207.769180 396.970764,209.634033 
	C396.791901,229.450424 396.779510,249.269882 396.987152,269.085724 
	C397.007721,271.048492 398.320496,273.559570 399.852448,274.824127 
	C402.762665,277.226532 406.156952,279.123627 409.542450,280.854523 
	C421.344299,286.888550 433.988403,287.936188 447.848755,286.711914 
z"/>
<path fill="#000000" opacity="1.000000" stroke="none" 
	d="
M691.648438,278.458801 
	C677.201538,243.847244 680.158386,211.399216 703.107422,181.912491 
	C716.195190,165.096298 734.107483,155.732483 755.528381,153.419769 
	C776.341370,151.172714 795.683472,155.994080 813.611633,165.649475 
	C814.394836,164.904068 814.793030,164.710144 814.824524,164.468414 
	C815.939331,155.916809 815.934448,155.914825 824.631104,155.913376 
	C833.958496,155.911819 843.296814,156.181900 852.608826,155.803391 
	C857.499878,155.604568 857.918457,157.908264 857.909119,161.792938 
	C857.819397,198.935669 857.856201,236.078720 857.856689,273.221680 
	C857.856934,288.212128 857.735962,303.204193 857.938416,318.191895 
	C857.991882,322.153564 857.150757,323.768616 852.772217,323.665039 
	C840.488220,323.374481 828.192932,323.563751 815.163330,323.563751 
	C815.163330,319.553406 815.163330,316.037231 815.163330,311.262970 
	C792.635132,325.120056 769.344360,329.401062 744.890137,323.335419 
	C720.201416,317.211548 702.642822,301.814117 691.648438,278.458801 
M724.568787,234.272690 
	C723.206909,254.958679 730.657410,271.555237 749.302979,281.085449 
	C771.169678,292.262024 792.500244,288.540527 812.368591,275.049377 
	C813.903198,274.007294 815.014160,271.226166 815.033813,269.240601 
	C815.228149,249.583511 815.256958,229.922348 815.000977,210.266647 
	C814.972290,208.068176 813.437012,205.186600 811.671936,203.828690 
	C801.033508,195.644287 788.716003,192.309509 775.397034,191.806717 
	C749.282349,190.820908 727.459839,208.576660 724.568787,234.272690 
z"/>
<path fill="#000000" opacity="1.000000" stroke="none" 
	d="
M593.225708,316.768921 
	C580.693359,307.542419 574.462769,295.051575 574.092285,280.245575 
	C573.413208,253.108902 573.625122,225.949875 573.474976,198.800095 
	C573.435608,191.685837 573.451599,191.684143 566.158203,191.670074 
	C561.993469,191.662033 557.828369,191.620789 553.664246,191.669113 
	C550.765686,191.702744 549.395691,190.431335 549.413391,187.463409 
	C549.467957,178.301331 549.464722,169.138550 549.414368,159.976410 
	C549.397888,156.971451 550.818298,155.829697 553.723022,155.900177 
	C557.885193,156.001160 562.051819,155.922058 566.216553,155.915176 
	C573.454590,155.903198 573.468445,155.901688 573.471985,148.882202 
	C573.480652,131.556854 573.606934,114.229851 573.387451,96.907288 
	C573.329468,92.329803 574.734131,90.769386 579.371155,90.898659 
	C589.858154,91.191025 600.363708,91.173798 610.851746,90.900009 
	C615.153564,90.787712 616.646912,91.967560 616.587219,96.471077 
	C616.348938,114.459633 616.636475,132.455276 616.384460,150.443466 
	C616.321472,154.939056 617.742920,156.097610 622.059204,156.004242 
	C634.214539,155.741318 646.380493,156.008835 658.539673,155.856979 
	C661.953491,155.814331 663.351624,156.896576 663.295715,160.403046 
	C663.155029,169.230042 663.134827,178.063080 663.307617,186.888977 
	C663.381409,190.655899 661.851379,191.771606 658.247681,191.727722 
	C645.921936,191.577576 633.591675,191.785660 621.266418,191.616516 
	C617.537781,191.565353 616.395996,192.871765 616.427307,196.541809 
	C616.603394,217.197525 616.446716,237.856567 616.702820,258.510773 
	C616.766357,263.631287 617.615051,268.806427 618.674500,273.836090 
	C620.548767,282.734039 627.064514,288.341370 636.307434,288.748108 
	C643.443359,289.062134 650.634033,288.846313 657.761902,288.332703 
	C661.409363,288.069824 662.956421,288.654755 662.836670,292.645844 
	C662.606812,300.302063 662.622070,307.974365 662.841309,315.631256 
	C662.935242,318.911194 661.643066,320.583374 658.647827,321.370422 
	C641.886597,325.774719 624.969543,328.088837 607.917114,323.510712 
	C602.888306,322.160614 598.285706,319.223053 593.225708,316.768921 
z"/>
<path fill="#000000" opacity="1.000000" stroke="none" 
	d="
M102.928452,231.826385 
	C108.829437,218.018875 123.123917,214.389221 134.020325,223.822311 
	C136.455444,225.930359 138.479172,226.145004 141.182098,225.043991 
	C147.642075,222.412628 154.214813,220.039841 160.562943,217.166977 
	C161.893753,216.564713 163.366333,214.167816 163.221664,212.757080 
	C162.320038,203.965378 164.117447,195.940948 168.501099,188.293121 
	C169.196701,187.079544 168.846710,184.267654 167.875046,183.253326 
	C159.011398,174.000397 149.971603,164.911224 140.773407,155.990570 
	C139.701294,154.950806 137.139511,154.524750 135.638763,154.995377 
	C123.817284,158.702499 112.831276,153.277512 109.487419,141.810913 
	C106.510002,131.600891 113.308304,120.659836 124.517197,118.035980 
	C131.649261,116.366447 137.705002,118.822014 142.508621,124.116707 
	C147.332062,129.433243 149.094788,135.796921 146.586105,142.612808 
	C145.288788,146.137527 145.663284,148.418808 148.302139,151.001755 
	C156.750809,159.271393 165.045670,167.699707 173.316452,176.148468 
	C175.415497,178.292694 177.038406,179.137238 180.123322,177.287277 
	C190.363220,171.146545 201.273651,170.671356 212.206512,175.254288 
	C215.263885,176.535919 216.914139,176.259644 218.853333,173.644836 
	C223.313110,167.631256 227.946167,161.738266 232.706985,155.959518 
	C234.791245,153.429596 235.002518,151.258179 233.586548,148.260635 
	C228.909073,138.358826 233.042633,127.012199 242.686935,122.521240 
	C252.299530,118.045059 263.408569,121.870369 268.042328,131.575027 
	C271.403259,138.613968 270.776306,145.654251 265.889526,151.771866 
	C260.939941,157.968140 254.280396,160.768356 246.399200,158.634903 
	C243.393661,157.821289 241.787933,158.519226 240.072876,160.760635 
	C235.320084,166.972092 230.487549,173.124969 225.568359,179.205399 
	C223.670303,181.551529 223.802536,183.441223 225.573395,185.858383 
	C234.894531,198.581345 235.354095,211.826492 227.865601,225.634430 
	C227.116714,227.015244 227.388885,230.062515 228.427368,231.130981 
	C241.419174,244.497772 254.583145,257.700073 267.905457,270.737640 
	C269.023682,271.831940 271.786621,272.099945 273.470184,271.627747 
	C287.664062,267.646881 300.581207,276.929993 299.834778,290.811890 
	C299.339874,300.015747 290.952393,308.757324 281.662842,308.380035 
	C265.975433,307.742828 258.212463,297.556702 262.695465,282.358551 
	C263.144928,280.834686 262.546753,278.258881 261.448547,277.134857 
	C248.536102,263.918365 235.404984,250.915878 222.415375,237.774078 
	C220.385422,235.720367 218.505341,235.643570 216.234161,237.062469 
	C198.974945,247.845016 178.447632,240.693649 169.205627,227.249908 
	C168.354843,226.012329 165.327713,225.164658 163.827637,225.669769 
	C157.064896,227.947037 150.484467,230.767517 143.846603,233.412949 
	C141.331985,234.415100 140.025955,235.946686 139.986191,239.016281 
	C139.882278,247.036728 135.414337,252.586090 128.337463,255.551376 
	C120.988968,258.630524 113.749252,257.389954 107.949005,251.792175 
	C102.420799,246.456894 100.251076,239.850098 102.928452,231.826385 
M193.373306,181.391495 
	C192.103775,181.794144 190.834824,182.198624 189.564606,182.599167 
	C176.437164,186.738556 168.757156,202.029373 173.160751,215.260208 
	C177.751968,229.054779 193.387589,236.831497 206.561157,231.872620 
	C219.014847,227.184753 226.462982,214.605179 223.846893,202.677872 
	C220.678711,188.233490 209.280838,179.991364 193.373306,181.391495 
M257.929291,147.509018 
	C261.597961,143.484451 262.555054,139.078964 259.480011,134.325562 
	C256.973785,130.451416 253.261581,128.900909 248.743576,129.762299 
	C244.189316,130.630615 241.343735,133.577301 240.420242,138.029465 
	C239.524277,142.348938 241.154755,146.012451 244.787170,148.429947 
	C248.946625,151.198212 253.237946,150.966324 257.929291,147.509018 
M138.103683,133.588943 
	C134.921906,127.038055 129.110596,124.730576 123.478790,127.781883 
	C118.756615,130.340347 116.742943,135.946686 118.699814,141.087173 
	C120.361725,145.452820 126.109123,148.503220 130.497589,147.348785 
	C136.472351,145.777069 139.217606,141.201340 138.103683,133.588943 
M270.934662,285.718506 
	C269.254730,290.236481 270.003510,294.352997 273.552368,297.578735 
	C276.574860,300.326019 280.276611,301.250061 284.207642,299.545959 
	C288.829773,297.542297 291.077423,293.988739 290.739990,288.873230 
	C290.409180,283.858673 287.422180,280.817505 282.943756,279.630280 
	C277.850189,278.279999 273.879852,280.496429 270.934662,285.718506 
M130.557373,241.954773 
	C132.769028,237.410126 131.397797,233.452759 128.062698,230.262375 
	C125.175270,227.500244 121.556313,226.290787 117.561172,228.030075 
	C113.044060,229.996597 110.500488,233.270538 110.714066,238.436020 
	C110.920502,243.428543 113.793915,246.396988 118.128952,247.937347 
	C122.739471,249.575577 126.664490,247.678192 130.557373,241.954773 
z"/>
<path fill="#000000" opacity="1.000000" stroke="none" 
	d="
M646.500793,407.752533 
	C651.855286,407.822144 656.817566,407.763916 661.725891,408.250092 
	C662.923096,408.368683 664.875916,410.256042 664.896851,411.360199 
	C665.057983,419.846741 665.148071,428.360535 664.622192,436.826263 
	C664.173035,444.057190 658.032715,449.622772 650.176697,450.224426 
	C646.592041,450.498962 642.927734,449.673676 639.295410,449.402161 
	C634.898254,449.073486 634.448242,446.776276 636.260864,443.048096 
	C642.580322,442.148438 650.406921,446.682953 656.371887,437.778778 
	C652.552185,438.051605 650.039368,438.495270 647.557922,438.360626 
	C638.784302,437.884552 632.657654,431.972137 632.092773,423.686005 
	C631.547791,415.690643 637.172302,409.316620 646.500793,407.752533 
M656.971985,419.920654 
	C655.756287,415.703156 651.169800,413.726593 646.382019,415.327026 
	C642.714661,416.552887 640.305298,419.056946 640.238770,422.894043 
	C640.171875,426.750336 642.537109,429.285919 646.180481,430.593536 
	C653.054504,433.060638 657.003479,429.493073 656.971985,419.920654 
z"/>
<path fill="#000000" opacity="1.000000" stroke="none" 
	d="
M470.639282,439.381775 
	C469.566681,438.013550 468.283020,436.701874 468.265015,435.372986 
	C468.107178,423.727570 468.236481,412.078583 468.137421,400.431854 
	C468.109283,397.121002 469.205627,395.484833 472.733093,395.541595 
	C476.063080,395.595184 477.094727,397.270142 476.983521,400.279480 
	C476.893127,402.726013 476.965118,405.178497 476.965118,407.795959 
	C481.010284,407.795959 484.453369,407.426331 487.786469,407.874542 
	C494.310394,408.751801 497.340546,411.531891 498.075531,418.091370 
	C498.757690,424.179413 498.701111,430.385284 498.413544,436.513184 
	C498.364227,437.563873 495.544708,439.201813 493.974365,439.237823 
	C492.709900,439.266754 490.405182,437.385681 490.284363,436.179535 
	C489.805450,431.398102 490.105072,426.544891 489.917480,421.726044 
	C489.771301,417.971436 488.024475,415.407013 483.939819,415.068329 
	C479.482056,414.698761 477.091522,416.776947 477.004486,421.262909 
	C476.923828,425.421204 476.682587,429.610016 477.061890,433.734863 
	C477.506409,438.568542 475.462891,440.113617 470.639282,439.381775 
z"/>
<path fill="#000000" opacity="1.000000" stroke="none" 
	d="
M108.727119,410.022583 
	C108.728989,406.194946 108.801033,402.860504 108.711113,399.530396 
	C108.636780,396.777283 109.811600,395.681549 112.584587,395.641327 
	C115.527649,395.598663 116.936829,396.612427 116.796158,399.683197 
	C116.667969,402.481598 116.769012,405.290527 116.769012,408.108948 
	C121.209412,408.108948 125.174339,407.692505 129.018448,408.196838 
	C136.682571,409.202454 141.975784,416.213440 141.650726,424.243866 
	C141.324448,432.304504 135.540085,438.957153 127.881180,439.411255 
	C121.742683,439.775269 115.565384,439.484833 108.727196,439.484833 
	C108.727196,429.406403 108.727196,419.962006 108.727119,410.022583 
M116.726494,427.127197 
	C118.061821,431.414703 121.640938,433.107361 126.911705,431.944092 
	C131.129379,431.013275 134.175613,426.886627 133.669891,422.789062 
	C133.098236,418.157288 128.545593,414.492981 123.737122,414.794373 
	C118.345505,415.132385 116.744019,416.938538 116.713295,422.723175 
	C116.707108,423.888733 116.714149,425.054352 116.726494,427.127197 
z"/>
<path fill="#000000" opacity="1.000000" stroke="none" 
	d="
M939.041565,408.637817 
	C939.666199,418.252563 940.065918,427.668060 939.892212,437.072968 
	C939.877686,437.856873 936.045410,438.885559 933.895569,439.229370 
	C931.564697,439.602112 929.073792,438.980164 926.745361,439.360077 
	C918.454712,440.712769 911.352966,437.166809 908.383911,429.921570 
	C905.396973,422.632660 908.053589,413.818420 914.885498,409.844788 
	C917.210815,408.492310 920.184753,407.713867 922.882629,407.658203 
	C928.136475,407.549774 933.404663,408.136841 939.041565,408.637817 
M915.902039,427.315826 
	C916.288025,427.850128 916.622925,428.431915 917.068115,428.911163 
	C920.266235,432.354065 926.160706,433.362610 929.731384,431.103729 
	C931.848450,429.764435 933.698486,421.546722 931.343018,418.712891 
	C929.540466,416.544281 925.550171,415.119751 922.597473,415.222198 
	C917.617188,415.394989 915.197632,419.252502 915.360107,424.623322 
	C915.379944,425.279175 915.542114,425.930786 915.902039,427.315826 
z"/>
<path fill="#000000" opacity="1.000000" stroke="none" 
	d="
M753.722778,428.931396 
	C753.722839,432.537354 753.722839,435.656097 753.722839,439.245087 
	C746.426575,439.245087 739.649536,439.778687 732.995789,439.101379 
	C725.720825,438.360870 719.979614,429.507019 721.014160,421.956940 
	C722.257690,412.881775 729.113220,407.029755 737.771057,407.577026 
	C741.686768,407.824554 745.618469,408.167023 749.529114,408.040863 
	C752.898682,407.932129 753.874268,409.294006 753.769409,412.454803 
	C753.592773,417.779236 753.722107,423.113831 753.722778,428.931396 
M745.713623,421.787415 
	C744.672302,419.807556 744.124512,417.069183 742.487793,416.004211 
	C738.973694,413.717590 734.685364,414.182098 732.017334,417.283386 
	C730.223389,419.368652 729.062683,422.970703 729.380798,425.687836 
	C729.950073,430.550629 734.488770,432.602112 740.053223,432.122437 
	C746.601135,431.558044 745.760559,426.953278 745.713623,421.787415 
z"/>
<path fill="#000000" opacity="1.000000" stroke="none" 
	d="
M677.694702,450.070709 
	C675.591614,449.452454 672.705444,449.135101 672.363037,448.029755 
	C671.469482,445.145081 673.397217,443.712280 676.438843,443.233887 
	C682.447266,442.288788 683.165222,440.753265 680.997192,435.228973 
	C677.616577,426.614868 674.302368,417.974640 670.962708,409.352661 
	C677.116882,406.909088 678.782471,407.553467 681.044983,413.083313 
	C682.906921,417.634064 684.696533,422.214386 686.518250,426.781586 
	C687.041931,426.868744 687.565674,426.955933 688.089417,427.043091 
	C689.892761,422.626801 691.796936,418.248413 693.475037,413.785034 
	C695.804504,407.589081 696.261292,407.279907 703.714050,408.980377 
	C702.021118,413.463165 700.389465,417.879791 698.686279,422.268646 
	C696.705933,427.371735 694.470520,432.384430 692.693604,437.555878 
	C690.244629,444.683197 685.671326,449.059143 677.694702,450.070709 
z"/>
<path fill="#000000" opacity="1.000000" stroke="none" 
	d="
M504.915985,434.459534 
	C504.916595,426.873444 504.761932,419.718323 505.044037,412.580414 
	C505.103516,411.075043 506.663635,408.446716 507.703339,408.358795 
	C513.431946,407.874573 519.220520,407.813232 524.974915,408.008820 
	C529.870667,408.175201 533.424133,411.066101 534.022949,415.792114 
	C534.915222,422.833313 535.009399,429.994354 535.002502,437.103943 
	C535.001770,437.879578 532.021667,439.375092 530.570679,439.213806 
	C529.241699,439.066010 527.185486,437.219574 527.060242,435.961304 
	C526.601013,431.348785 526.953796,426.662720 526.730469,422.017334 
	C526.531677,417.880768 524.632446,414.920441 520.010742,415.041840 
	C516.105408,415.144409 513.286743,416.547943 513.495667,421.286560 
	C513.693176,425.766541 513.437805,430.264862 513.557678,434.750427 
	C513.635193,437.649170 513.117981,439.499847 509.558746,439.504089 
	C506.183624,439.508118 504.472565,438.447174 504.915985,434.459534 
z"/>
<path fill="#000000" opacity="1.000000" stroke="none" 
	d="
M1033.354614,422.114288 
	C1033.354126,427.903198 1033.354126,433.203552 1033.354126,438.956482 
	C1030.674316,438.956482 1028.326050,438.956482 1025.335327,438.956482 
	C1025.335327,429.450989 1025.273193,420.033752 1025.442383,410.620697 
	C1025.457397,409.783142 1026.950073,408.293396 1027.802979,408.259003 
	C1033.699097,408.021301 1039.634888,407.725739 1045.503784,408.167755 
	C1050.748779,408.562805 1054.066650,412.032135 1054.459229,417.207458 
	C1054.936035,423.492157 1054.808838,429.821411 1054.997681,436.129761 
	C1055.092529,439.293915 1053.095703,439.411957 1050.710938,439.450867 
	C1048.071533,439.493927 1046.680176,438.722961 1046.764526,435.782349 
	C1046.897827,431.133362 1046.878906,426.473053 1046.718628,421.824646 
	C1046.565186,417.369110 1043.953613,414.704346 1039.944336,414.977997 
	C1035.947266,415.250854 1032.685181,416.574860 1033.354614,422.114288 
z"/>
<path fill="#000000" opacity="1.000000" stroke="none" 
	d="
M230.282501,426.968994 
	C230.286514,421.490112 230.130386,416.495544 230.413071,411.525970 
	C230.479736,410.354065 231.974274,408.340393 232.897415,408.290314 
	C238.786026,407.971130 244.714172,407.817596 250.598434,408.152222 
	C255.765289,408.446075 258.863770,411.965271 259.363129,416.815002 
	C260.024567,423.238281 259.998962,429.756744 259.803009,436.220215 
	C259.769714,437.318848 257.543365,438.895874 256.076874,439.276978 
	C253.937744,439.832855 251.708832,439.481964 251.770721,436.195801 
	C251.861450,431.378845 251.874313,426.554199 251.705353,421.740356 
	C251.550446,417.327606 248.870972,414.690582 244.850067,414.979706 
	C240.801849,415.270782 237.954407,416.684723 238.270126,421.713989 
	C238.621857,427.316803 238.350739,432.958771 238.350739,438.994934 
	C235.591858,438.994934 233.241302,438.994934 230.282684,438.994934 
	C230.282684,435.018951 230.282684,431.240692 230.282501,426.968994 
z"/>
<path fill="#000000" opacity="1.000000" stroke="none" 
	d="
M819.507080,420.639954 
	C822.696472,411.645508 828.428711,407.399750 836.613708,407.645905 
	C844.691040,407.888794 850.475220,412.370850 852.676758,420.029144 
	C854.512024,426.413177 852.157593,431.525818 847.489075,435.570404 
	C841.930115,440.386475 835.380554,440.954651 828.837708,438.002289 
	C821.700317,434.781616 818.764221,429.024384 819.507080,420.639954 
M830.015320,417.417999 
	C829.433350,418.216827 828.738403,418.957062 828.288818,419.824524 
	C826.216736,423.822510 827.355408,428.267120 831.020935,430.758789 
	C834.505615,433.127533 840.162659,432.512695 842.944458,429.462799 
	C845.795410,426.337097 845.883057,421.297455 843.143311,418.040222 
	C840.142639,414.472839 835.951172,414.091553 830.015320,417.417999 
z"/>
<path fill="#000000" opacity="1.000000" stroke="none" 
	d="
M278.234253,426.005951 
	C276.490082,426.128784 275.217346,426.250549 273.915100,426.375153 
	C275.137939,432.349609 280.248810,434.014221 286.736176,431.152802 
	C288.218384,430.499023 290.455902,430.396912 291.889252,431.047150 
	C294.461548,432.214111 294.515900,434.111786 292.109161,435.979156 
	C286.587219,440.263733 280.351379,440.841370 274.202179,438.441315 
	C268.413727,436.182068 265.091919,431.491882 264.770477,424.966339 
	C264.439423,418.245483 266.716949,412.979919 272.699585,409.530762 
	C282.745087,403.739258 295.262665,410.875092 295.799469,422.617218 
	C295.931335,425.500549 294.456940,425.999573 292.172363,425.993225 
	C287.683502,425.980743 283.194580,425.999237 278.234253,426.005951 
M279.617432,420.927643 
	C282.247223,420.733368 284.877045,420.539093 287.749817,420.326904 
	C286.569672,415.393372 284.019104,413.882324 280.209351,414.072601 
	C276.477905,414.258942 274.147797,416.019928 273.210693,420.404572 
	C275.281372,420.599640 277.015442,420.762970 279.617432,420.927643 
z"/>
<path fill="#000000" opacity="1.000000" stroke="none" 
	d="
M420.791626,438.964355 
	C408.437317,440.824860 401.120026,436.637512 398.890167,426.777374 
	C396.863831,417.817413 403.177917,409.159668 412.670349,407.882172 
	C421.864044,406.644836 428.941742,412.631042 429.566803,421.872772 
	C429.775574,424.959564 428.858948,426.108551 425.763153,426.033417 
	C419.967560,425.892761 414.166107,425.992950 408.333221,425.992950 
	C408.796539,431.699921 412.987213,433.804962 418.937805,431.767487 
	C420.166870,431.346710 421.323517,429.992554 422.424011,430.089111 
	C424.037170,430.230652 425.944397,430.955322 426.977325,432.104614 
	C427.489502,432.674500 426.719757,435.116943 425.832764,436.047852 
	C424.629303,437.310760 422.757202,437.936584 420.791626,438.964355 
M420.198090,416.136993 
	C416.052704,413.293671 411.672394,413.310547 409.061737,416.343414 
	C408.369385,417.147736 407.648804,418.498199 407.876312,419.347382 
	C408.065887,420.055054 409.596802,420.752960 410.582611,420.830170 
	C413.217560,421.036591 415.880341,420.965149 418.529236,420.895538 
	C421.699524,420.812195 422.237732,419.255188 420.198090,416.136993 
z"/>
<path fill="#000000" opacity="1.000000" stroke="none" 
	d="
M1017.868713,429.881042 
	C1012.149658,441.385315 997.921692,441.588959 991.290100,435.960876 
	C985.950928,431.429565 983.756714,424.606323 986.297241,418.111755 
	C988.982910,411.246063 995.816467,407.266113 1003.335144,407.678864 
	C1015.022156,408.320435 1022.442627,420.260406 1017.868713,429.881042 
M1008.268616,417.195038 
	C1004.356995,414.166168 1000.278320,413.865662 996.435303,417.058441 
	C993.581604,419.429291 991.652954,422.906097 993.805542,426.277191 
	C995.393005,428.763336 998.451843,431.453217 1001.131104,431.778503 
	C1003.827820,432.105896 1007.643921,430.328888 1009.569702,428.204834 
	C1012.380432,425.104645 1011.589111,421.075989 1008.268616,417.195038 
z"/>
<path fill="#000000" opacity="1.000000" stroke="none" 
	d="
M175.335785,439.190247 
	C169.427322,439.392365 163.909729,439.657867 158.406891,439.476166 
	C151.596695,439.251251 147.837463,435.519684 147.382599,428.557159 
	C147.025574,423.092041 147.160568,417.596527 146.953293,412.119171 
	C146.840164,409.129425 148.024780,407.977753 151.066193,408.049652 
	C153.912460,408.116943 155.380981,408.856445 155.242065,412.037354 
	C155.053741,416.350250 155.125137,420.681213 155.253052,424.999451 
	C155.404327,430.106567 157.494858,432.164978 162.150925,432.086060 
	C167.340744,431.998077 168.682404,430.588257 168.711868,425.067474 
	C168.740906,419.624115 168.718201,414.180511 168.718201,408.886841 
	C176.417480,407.268616 176.813477,407.570068 176.821030,414.522705 
	C176.828262,421.171539 176.888657,427.821533 176.772766,434.468353 
	C176.746017,436.002899 176.096252,437.526611 175.335785,439.190247 
z"/>
<path fill="#000000" opacity="1.000000" stroke="none" 
	d="
M543.068359,415.120941 
	C549.161133,405.718384 563.387756,405.769623 569.915344,412.704529 
	C574.872009,417.970520 575.755188,426.090698 571.932190,431.978333 
	C567.774902,438.380798 559.087158,441.350006 551.725037,438.884552 
	C544.593140,436.496185 539.904663,429.722168 540.711243,422.434753 
	C540.975220,420.050507 542.133423,417.765198 543.068359,415.120941 
M548.656860,424.348022 
	C550.225708,431.678528 557.873840,434.767365 563.214539,430.236786 
	C566.391724,427.541595 567.223999,424.045349 565.728638,420.388916 
	C564.144897,416.516602 560.762451,414.423523 556.594971,414.978455 
	C551.887146,415.605347 548.692200,418.243286 548.656860,424.348022 
z"/>
<path fill="#000000" opacity="1.000000" stroke="none" 
	d="
M600.279053,435.726379 
	C592.631897,429.824951 592.913940,417.342834 600.285034,411.491028 
	C607.955139,405.401886 619.749268,406.781006 625.502991,414.649292 
	C629.557739,420.194244 629.250549,428.004456 624.759155,433.564301 
	C620.170166,439.244904 611.064270,441.359802 604.411560,438.223389 
	C603.070496,437.591187 601.852783,436.697174 600.279053,435.726379 
M616.199951,431.069855 
	C620.745239,426.807098 621.630737,422.930176 618.965027,418.964142 
	C616.484436,415.273438 612.207581,413.969299 608.088989,415.647736 
	C603.858215,417.371918 601.936646,421.033264 602.836670,425.655121 
	C603.869202,430.957306 608.317505,432.998138 616.199951,431.069855 
z"/>
<path fill="#000000" opacity="1.000000" stroke="none" 
	d="
M182.943634,418.395660 
	C183.440277,411.550659 185.626846,408.673584 191.691727,408.051483 
	C195.577820,407.652863 199.624435,408.156464 203.502960,408.818634 
	C204.458130,408.981720 205.874329,411.590302 205.566971,412.626099 
	C205.225983,413.775177 203.191254,415.054901 201.827637,415.134064 
	C199.070053,415.294067 196.268646,414.507050 193.483063,414.490509 
	C192.618729,414.485382 191.747147,415.706543 190.878891,416.366302 
	C191.552048,417.201202 192.061630,418.458374 192.928177,418.794037 
	C195.851624,419.926392 198.930328,420.649567 201.896988,421.680786 
	C206.381012,423.239410 208.650314,426.385010 208.079147,431.211884 
	C207.509583,436.025360 204.356033,438.664825 199.892044,439.285889 
	C194.113754,440.089844 188.272430,440.169312 183.022461,436.830841 
	C184.196991,431.063660 184.701843,430.821869 190.138351,432.230408 
	C192.352219,432.803986 194.728424,433.188080 196.976669,433.002625 
	C198.058517,432.913361 199.014847,431.302521 200.028000,430.380676 
	C199.151398,429.514893 198.420380,428.316956 197.366730,427.855072 
	C195.406830,426.996002 193.262817,426.552277 191.188446,425.960175 
	C187.313339,424.854126 184.207260,422.890503 182.943634,418.395660 
z"/>
<path fill="#000000" opacity="1.000000" stroke="none" 
	d="
M772.102783,407.510010 
	C775.162598,407.888275 777.929749,407.906738 780.379639,408.797577 
	C781.496887,409.203888 782.839111,411.581909 782.536621,412.613220 
	C782.197266,413.770142 780.157898,415.049042 778.780151,415.144043 
	C776.355835,415.311218 773.865356,414.342926 771.416382,414.404083 
	C770.210815,414.434174 769.036133,415.702942 767.847473,416.411194 
	C768.836365,417.382843 769.660339,418.760742 770.847961,419.242950 
	C773.447876,420.298584 776.269958,420.790863 778.932739,421.711578 
	C783.209351,423.190308 785.470276,426.212524 785.097717,430.828735 
	C784.707520,435.663544 781.664734,438.534790 777.206726,439.222076 
	C771.287964,440.134552 765.262146,440.274078 759.802551,436.682800 
	C760.316895,431.701385 762.781799,430.614166 767.302307,432.260742 
	C769.412292,433.029358 771.880188,433.136963 774.151001,432.993042 
	C775.132751,432.930847 776.622437,431.570160 776.774963,430.621429 
	C776.901794,429.832703 775.590027,428.391235 774.595703,427.933350 
	C772.651917,427.038239 770.486206,426.623535 768.409973,426.018036 
	C762.655945,424.339996 759.434326,420.815704 759.731506,416.517151 
	C760.047974,411.939484 763.412659,408.847504 769.204468,407.832489 
	C770.023682,407.688934 770.854858,407.613464 772.102783,407.510010 
z"/>
<path fill="#000000" opacity="1.000000" stroke="none" 
	d="
M312.616760,419.678406 
	C315.257507,420.413269 317.519257,420.948700 319.700714,421.713318 
	C323.954010,423.204132 326.253326,426.217896 325.882751,430.797699 
	C325.495697,435.581360 322.464600,438.473114 318.018158,439.212372 
	C312.096191,440.196960 306.110382,440.167084 300.472076,436.698944 
	C301.129150,432.022736 303.315613,430.568604 307.930389,432.210541 
	C310.187439,433.013611 312.814484,433.081238 315.242432,432.939606 
	C316.130127,432.887817 317.323761,431.374634 317.607269,430.320862 
	C317.763885,429.738739 316.476562,428.330475 315.575623,427.985474 
	C313.106781,427.040161 310.470154,426.545013 307.950378,425.718170 
	C303.146545,424.141846 299.934540,420.200684 300.559662,416.312408 
	C301.330353,411.518677 304.218262,408.357208 309.152344,408.057831 
	C313.075378,407.819733 317.089142,408.128937 320.969666,408.763550 
	C322.021790,408.935608 322.736664,411.169556 323.606323,412.457123 
	C322.164948,413.368622 320.623718,415.171082 319.301117,415.022858 
	C315.492065,414.595978 311.739441,413.145447 307.494934,416.740417 
	C309.554504,417.984131 310.877991,418.783386 312.616760,419.678406 
z"/>
<path fill="#000000" opacity="1.000000" stroke="none" 
	d="
M794.229248,431.514343 
	C797.365784,432.127258 800.125305,433.056305 802.889404,433.070190 
	C804.311829,433.077362 805.742432,431.454132 807.169373,430.567596 
	C806.016663,429.595184 805.007690,428.287262 803.681763,427.719177 
	C800.796265,426.482880 797.689209,425.769531 794.783325,424.573639 
	C791.115540,423.064270 788.878113,419.911957 790.110962,416.259277 
	C791.101135,413.325653 793.574768,409.403046 796.086060,408.795349 
	C800.723938,407.673065 805.887268,408.490295 810.792236,408.934937 
	C811.598511,409.008057 813.073120,411.727448 812.707520,412.477051 
	C812.082031,413.759644 810.285217,415.166534 808.910339,415.241699 
	C806.153503,415.392456 803.354614,414.511780 800.561584,414.424133 
	C799.702271,414.397217 798.232239,415.455231 798.088684,416.214417 
	C797.947937,416.958649 798.952576,418.428619 799.779968,418.755005 
	C802.701782,419.907623 805.805603,420.589905 808.761353,421.667480 
	C812.888428,423.172119 815.485840,425.936462 815.169250,430.648651 
	C814.857849,435.284332 811.934265,438.217865 807.828308,439.043884 
	C801.792908,440.258057 795.591125,440.421295 788.723755,435.996613 
	C790.675110,434.267792 792.264587,432.859589 794.229248,431.514343 
z"/>
<path fill="#000000" opacity="1.000000" stroke="none" 
	d="
M330.811646,414.743683 
	C334.438568,407.779388 347.153534,404.778107 352.659149,409.381866 
	C353.398651,410.000183 353.883881,412.157623 353.418243,412.724152 
	C352.458160,413.892395 350.809296,415.077606 349.384674,415.154053 
	C346.788391,415.293335 344.153259,414.460876 341.525299,414.395050 
	C340.618469,414.372345 339.684723,415.425110 338.763306,415.986633 
	C339.426147,416.988739 339.872559,418.514282 340.792480,418.894592 
	C343.533508,420.027832 346.496521,420.608582 349.306427,421.594360 
	C353.666016,423.123871 356.302460,426.013885 355.891144,430.929871 
	C355.534210,435.195648 352.061768,439.049072 347.344330,439.266602 
	C342.784058,439.476868 338.138794,438.860748 333.614929,438.104736 
	C332.529999,437.923401 331.778107,435.749054 330.873047,434.491333 
	C332.527771,433.555725 334.152618,431.919983 335.844177,431.847809 
	C338.412567,431.738251 341.033844,433.113983 343.619781,433.071777 
	C345.058014,433.048340 346.470245,431.429993 347.894226,430.530518 
	C346.713959,429.562408 345.671936,428.266022 344.323181,427.697937 
	C341.889130,426.672791 339.199799,426.261414 336.746307,425.272949 
	C332.232910,423.454651 329.844360,420.213165 330.811646,414.743683 
z"/>
<path fill="#000000" opacity="1.000000" stroke="none" 
	d="
M374.000793,408.832886 
	C378.883179,407.525085 377.458496,403.808441 377.642181,400.887787 
	C377.791138,398.519379 377.530060,396.051208 380.838837,395.685791 
	C384.434601,395.288727 386.697205,396.329102 386.389740,400.513641 
	C386.067200,404.902893 385.937775,409.173401 392.559357,408.287567 
	C393.156250,408.207733 394.741028,410.355621 394.612152,411.297180 
	C394.446442,412.507629 392.915527,414.566437 392.139008,414.493347 
	C386.237732,413.937927 386.112946,417.583832 386.364441,421.736603 
	C386.474731,423.557922 386.498169,425.387634 386.480743,427.212799 
	C386.448547,430.584351 387.971558,432.286407 391.402313,432.878174 
	C392.644073,433.092377 393.606506,434.926056 394.696411,436.020752 
	C393.474701,437.196838 392.387451,439.188782 391.009369,439.415924 
	C382.444672,440.827545 378.134979,437.157440 377.737183,428.458740 
	C377.593170,425.309753 377.868011,422.131989 377.568115,419.004089 
	C377.429108,417.554626 376.725708,415.430786 375.662903,414.936951 
	C372.645630,413.535126 373.193420,411.433685 374.000793,408.832886 
z"/>
<path fill="#000000" opacity="1.000000" stroke="none" 
	d="
M956.671143,439.509155 
	C950.835999,438.324280 949.437561,434.128265 948.978271,429.468323 
	C948.670166,426.341980 949.196533,423.114685 948.717407,420.030731 
	C948.414124,418.077972 946.653320,416.390625 946.089294,414.428101 
	C945.547852,412.544281 945.198853,408.850342 945.636414,408.712280 
	C949.857910,407.379944 948.744141,404.039246 948.795166,401.258087 
	C948.851318,398.202087 948.896118,395.608246 953.102661,395.599213 
	C957.167969,395.590485 957.769348,397.931488 957.537170,401.122803 
	C957.232666,405.306946 957.445251,408.890045 963.326111,408.271057 
	C964.084167,408.191284 965.786194,410.346619 965.759705,411.435089 
	C965.733032,412.529175 964.001770,414.572632 963.174988,414.496124 
	C957.629517,413.983154 957.232910,417.256653 957.526306,421.359528 
	C957.668274,423.343567 957.651062,425.341248 957.649292,427.332703 
	C957.646545,430.443634 959.041870,432.089172 962.189575,432.849731 
	C963.598328,433.190125 965.421936,434.841248 965.708252,436.184937 
	C966.352173,439.207153 963.814941,439.519867 961.549438,439.593536 
	C960.060059,439.641998 958.566833,439.574677 956.671143,439.509155 
z"/>
<path fill="#000000" opacity="1.000000" stroke="none" 
	d="
M884.686279,431.088684 
	C887.131348,433.294739 885.940857,434.647980 884.214722,436.154358 
	C879.777405,440.026733 872.943848,440.870605 867.439148,438.070221 
	C861.170837,434.881348 857.209961,428.488831 857.793152,422.502472 
	C858.416626,416.102661 863.598389,409.820801 869.520813,408.405945 
	C876.082092,406.838501 882.077332,407.281250 886.484253,413.585938 
	C884.591492,416.410553 883.168579,419.257568 878.820740,416.354218 
	C875.002991,413.804871 871.030334,414.874878 868.102295,418.324158 
	C865.280823,421.647736 865.233887,425.408752 867.940125,428.844055 
	C870.836060,432.520081 874.659485,432.442871 878.818604,431.187592 
	C880.569275,430.659241 882.565125,430.943176 884.686279,431.088684 
z"/>
<path fill="#000000" opacity="1.000000" stroke="none" 
	d="
M453.336243,439.458496 
	C445.729309,440.222412 439.823181,438.009460 435.779449,431.784973 
	C431.365601,424.990784 433.248352,415.758789 439.836426,410.967773 
	C446.102966,406.410553 457.775635,405.874420 461.862366,413.769989 
	C460.049927,416.820892 458.284454,418.980347 454.140289,416.284851 
	C450.271301,413.768311 446.345306,414.961182 443.468658,418.405182 
	C440.661652,421.765686 440.759399,425.585999 443.459351,428.932281 
	C446.352966,432.518646 450.260071,432.682220 454.328796,431.073517 
	C455.387085,430.655029 456.576904,429.428986 457.351379,429.677979 
	C458.814941,430.148499 460.444153,431.179504 461.167328,432.453003 
	C461.568268,433.159058 460.601318,435.230957 459.677399,435.973969 
	C457.917511,437.389160 455.746399,438.293030 453.336243,439.458496 
z"/>
<path fill="#000000" opacity="1.000000" stroke="none" 
	d="
M579.633667,418.998871 
	C579.636963,412.176788 579.685913,405.854065 579.622681,399.532440 
	C579.595337,396.795837 580.733276,395.635895 583.513855,395.664001 
	C586.031311,395.689423 587.717834,396.198425 587.708557,399.186096 
	C587.667725,412.311646 587.690918,425.437378 587.690918,438.981201 
	C584.975525,438.981201 582.612122,438.981201 579.633850,438.981201 
	C579.633850,432.385437 579.633850,425.942047 579.633667,418.998871 
z"/>
<path fill="#000000" opacity="1.000000" stroke="none" 
	d="
M971.344238,408.502167 
	C978.692017,407.589020 978.921875,407.774963 978.927063,414.366516 
	C978.932556,421.332611 978.801758,428.301758 978.975891,435.263458 
	C979.060303,438.639313 977.559448,439.540131 974.491089,439.550079 
	C971.409424,439.560028 969.923523,438.630707 969.990479,435.272400 
	C970.145935,427.480133 970.003723,419.682281 970.086060,411.887787 
	C970.097351,410.815979 970.700378,409.750427 971.344238,408.502167 
z"/>
<path fill="#000000" opacity="1.000000" stroke="none" 
	d="
M222.403412,428.920746 
	C222.403091,431.229156 222.260239,433.066315 222.434647,434.872833 
	C222.772766,438.375031 221.234985,439.539246 217.830429,439.515076 
	C214.408997,439.490723 213.662399,437.858673 213.710312,434.857056 
	C213.829376,427.399963 213.829849,419.938202 213.702652,412.481262 
	C213.648254,409.291656 214.882050,408.008820 218.087997,408.018860 
	C221.305161,408.028931 222.522537,409.353516 222.437653,412.524078 
	C222.295715,417.824432 222.402283,423.131470 222.403412,428.920746 
z"/>
<path fill="#000000" opacity="1.000000" stroke="none" 
	d="
M900.254211,437.102051 
	C897.893311,438.316101 895.563354,439.115631 892.285461,440.240448 
	C892.285461,429.497253 892.160706,420.230133 892.466064,410.977234 
	C892.498901,409.982147 894.915955,408.597809 896.431519,408.224762 
	C898.963379,407.601532 900.393311,408.754852 900.344788,411.723907 
	C900.208801,420.043213 900.289856,428.366058 900.254211,437.102051 
z"/>
<path fill="#000000" opacity="1.000000" stroke="none" 
	d="
M978.849609,398.761749 
	C977.515686,400.946411 976.335876,403.194977 974.485229,404.469604 
	C973.911011,404.865021 970.527283,402.854034 970.206909,401.518463 
	C969.813416,399.878113 970.732788,397.124512 972.057495,396.032288 
	C975.056213,393.559906 977.203857,395.668335 978.849609,398.761749 
z"/>
<path fill="#000000" opacity="1.000000" stroke="none" 
	d="
M221.584900,402.655945 
	C219.214203,403.108185 216.509888,404.102417 215.083908,403.160797 
	C213.978333,402.430756 213.777267,398.986908 214.490784,397.309418 
	C214.982498,396.153381 218.107666,395.006073 219.381470,395.521484 
	C222.180405,396.654083 223.661255,399.140045 221.584900,402.655945 
z"/>
<path fill="#000000" opacity="1.000000" stroke="none" 
	d="
M900.083740,402.152069 
	C898.259583,405.013031 895.696899,405.700226 893.768127,403.607635 
	C892.547241,402.283173 892.145874,399.381500 892.676086,397.566772 
	C893.004883,396.441650 895.766235,396.027191 897.435669,395.293762 
	C898.362244,397.468781 899.288757,399.643768 900.083740,402.152069 
z"/>
</svg>