<svg xmlns="http://www.w3.org/2000/svg" xml:space="preserve" id="layer" x="0" y="0" style="enable-background:new 0 0 652 652" version="1.1" viewBox="0 0 652 652"><style>.st0{fill:#fff}</style><path d="M623.6 127.5H409l10.8-28.2-30 7.2-9.8-18.3-18.2 21.4 11.4-53.3-26 15.7-19.6-36.9L308.2 72 282 56.5l11.2 52.9-18.1-21.3-10 18.4-29.9-7.7s7 18.5 10.8 28.6H30.4C13.9 127.4.5 141.1.5 158c0 6.1 1.8 12 5.4 17.4L303 594.8c5.6 8 14.9 12.7 24.8 12.7 9.8 0 18.9-4.6 25-12.7l295.9-420.7c3.1-4.7 4.7-10.2 4.7-16 .1-15.1-11.1-30.6-29.8-30.6" class="st0"/><path d="M623.6 144.6H417l2.2 2.3-42.6 33.7c0 .1 13.6 24 13.6 24l-51.4-8.5v17.5l-22.6-.2v-17.3l-51.3 8.5 13.3-23.5c.1-.2.1-.3.2-.5l-42.6-33.8 2.2-2.3H30.4c-7.7 0-12.7 6.6-12.7 13.5 0 2.5.7 5.2 2.3 7.6l297 419.3c2.6 3.7 6.8 5.4 10.9 5.4s8.2-1.8 11-5.4l295.6-420.4c1.3-1.9 1.8-4.4 1.8-6.6 0-6.2-4.4-13.3-12.7-13.3" style="fill:#ee2524"/><path d="M372.5 175.5c-3.1 1.8-3 5.7-1.3 8.6l6.8 11.8-41.9-6.9c-2.9-.5-3.7.5-3.7 3v15.1l-9.6-.1v-15c.1-2.3-.5-3.4-3.3-3l-42.2 7 6.6-11.8c1.7-2.9 1.7-6.8-1.4-8.7l-37-29.3 7.4-7.7c2.1-1.6 2.6-4.9 1.3-8.1l-8.4-22.1 18.3 4.7c3 1 5.7-1.1 6.9-3.3l5.4-10.1 19.2 22.7c4 4.1 7.2 2.3 6.1-3.9l-10.3-48.7 14.2 8.5c2.7 1.5 6.2 1 7.4-1.6l14.5-27.5L342 76.5c1.3 2.6 4.6 3.4 7.3 1.8l14.3-8.6-10.5 48.7c-1.1 6.2 2.3 7.9 6.3 3.8l19.1-22.4 5.6 10.5c1.3 2.3 4 3.5 7 2.6l18-4.4-8.6 22.3c-1.4 3.3-.6 6.1 1.5 7.7l7.3 7.7-36.8 29.3z" style="fill:#0fa557"/><path d="M623.6 127.4H409l10.8-28.2-30 7.2-9.8-18.3-18.2 21.4 11.4-53.3-26 15.7L327.7 35l-19.5 36.9-26.1-15.6 11.2 52.9-18.1-21.3-10.1 18.7-29.9-7.7s7 18.5 10.8 28.6H30.4C13.9 127.5.5 141.2.5 158.1c0 6.1 1.8 12 5.4 17.4L303 594.8c5.6 8 14.9 12.7 24.8 12.7 9.8 0 18.9-4.6 25-12.7l295.9-420.7c3.1-4.7 4.7-10.2 4.7-16 .1-15.1-11.1-30.6-29.8-30.7M264.2 113c3 1 5.7-1.1 6.9-3.3l5.4-10.1 19.2 22.7c4 4.1 7.2 2.3 6.1-3.9l-10.3-48.7 14.2 8.5c2.7 1.5 6.2 1 7.4-1.6l14.5-27.5 14.5 27.4c1.3 2.6 4.6 3.4 7.3 1.8l14.3-8.6-10.5 48.7c-1.1 6.2 2.3 7.9 6.3 3.8l19.1-22.4 5.6 10.5c1.3 2.3 3.9 3.5 7 2.6l18-4.4-8.6 22.3c-1.4 3.3-.6 6.1 1.5 7.7l7.3 7.7-37.2 29.3c-3.1 1.8-3 5.7-1.3 8.6l6.8 11.8-41.9-6.9c-2.9-.5-3.7.5-3.7 3v15.1l-9.6-.1v-15c.1-2.3-.5-3.4-3.3-3l-42.2 7 6.6-11.8c1.7-2.9 1.7-6.9-1.4-8.7l-37-29.3 7.4-7.7c2.2-1.6 2.6-4.9 1.3-8.1l-8.4-22.1 18.7 4.7zm377.5 56.4L346 589.9c-4.4 5.8-10.9 9-18.1 9s-13.9-3.3-18-9l-297-419.5c-2.5-3.8-3.8-8.1-3.8-12.5 0-12.1 9.6-22.1 21.4-22.1h215.8l-10.5 10.9 42.6 33.8c-.1.1-.1.2-.2.5l-13.3 23.5 51.3-8.5v17.4l22.6.2v-17.5l51.4 8.5s-13.6-23.9-13.6-24l42.6-33.7-10.6-10.9h214.9c13.4 0 21.4 11.2 21.4 22.1.1 4.1-1 8-3.2 11.3" class="st0"/></svg>