<svg xmlns="http://www.w3.org/2000/svg" xml:space="preserve" fill-rule="evenodd" stroke-linejoin="round" stroke-miterlimit="1.414" clip-rule="evenodd" viewBox="0 0 398 152"><g fill="#0273ae"><text x="5.492" y="144.64" font-family="&quot;WorkSans-Regular&quot;,&quot;Work Sans&quot;" font-size="33.545">CARLETON UNIVERSITY</text><path d="M325.016 101.93V17.626h64.217v16.34h-40.874v17.401h37.593v16.356h-37.593v17.851h40.874v16.356h-64.217Zm-77.31 0V17.626h64.234v16.34h-40.874v17.401h37.593v16.356h-37.593v17.851h40.874v16.356h-64.234Zm-77.293 0V17.626h64.219v16.34h-40.867v17.401h37.593v16.356h-37.593v17.851h40.867v16.356h-64.219Zm-35.615-84.304h23.36v84.304h-23.36zm-28.844 43.761c-2.115 5.099-6.417 9.184-10.164 13.639-8.114 8.459-16.686 16.645-26.279 23.175-1.946 1.334-4.551 2.557-6.883 1.496-7.061-3.571-13.011-9.425-19.195-14.765-7.165-6.416-14.353-13.911-19.79-21.759-.804-1.094-1.029-2.445-1.013-3.892.708-2.702 2.621-4.937 4.431-7.205 6.409-7.913 14.273-15.423 22.218-22.291.177-.177.515-.53.804-.723 3.409-2.847 6.803-5.372 10.373-7.865 3.731-2.798 8.411-.466 11.539 2.107 3.281 2.429 6.699 5.179 9.699 7.994l.538.305c8.315 7.446 16.018 15.729 22.355 24.493 1.03 1.529 1.938 3.265 1.367 5.291m12.673-4.808-.305-.048a187.252 187.252 0 0 1-26.826-21.454l-9.264-9.36c-3.747-4.037-7.398-8.492-10.856-12.754l-4.221-5.774c-.515-.305-1.167-.804-1.729-.949-1.239-.53-2.589.097-3.603.853l-7.631 9.617c-12.231 14.652-26.721 28.354-42.53 38.84-1.238.948-3.096 1.881-3.49 3.441-.411 1.384.337 2.541 1.238 3.426 12.657 8.427 24.768 18.431 35.526 29.849 1.915 1.963 3.466 3.876 5.332 5.726 3.152 4.037 6.851 8.121 9.746 12.48.908.916 1.053 2.429 2.485 2.863 1.109.385 2.485.626 3.554 0l1.053-1.014c13.084-17.949 29.689-34.063 48.24-47.09 1.866-1.591 5.412-2.203 5.46-5.162-.128-1.384-.957-2.734-2.179-3.49"/><path d="M79.578 66.068c-10.872 3.281-24.533 3.12-34.818-1.254-1.866-.885-4.222-2.236-4.841-4.327-.466-3.86 3.795-5.998 6.706-7.398 1.705-.724 3.434-1.511 5.324-1.625 1.752 1.255 3.586 2.269 5.403 3.394-3.522.885-7.735 1.673-9.368 5.404.282 2.815 3.603 3.73 5.903 4.422 8.298 2.124 17.281 1.85 25.241-.948 1.512-.853 3.892-1.882 3.683-3.988-.265-2.252-2.927-3.249-4.793-3.957a21.869 21.869 0 0 0-3.281.74c-.57-1.56-1.06-3.136-1.736-4.632 3.522.901 7.036 1.834 10.687 2.444v.082c-.748.064-1.585.32-2.308.61v.112c2.075.998 4.937 2.654 4.969 5.292-.482 3.184-4.085 4.615-6.771 5.629M60.505 86.156c.45-5.806.523-11.131.836-16.887 2.09.192 3.9.112 5.814.048l.136.771.748 16.098c-2.517.356-5.178.147-7.534-.03m2.694-52.334 1.037-3.201h.128c2.123 5.871 4.31 11.741 6.595 17.531l-4.552.096-.113.53.684 15.746v.225c-1.681.289-3.756.209-5.404.065l-.137-.177.748-16.212v-.128c-1.263-.145-2.871 0-4.157-.145l5.171-14.33Zm39.024 22.387c-5.959-8.25-13.204-16.018-21.012-23.03l-.507-.289c-2.83-2.639-6.031-5.227-9.119-7.511-2.942-2.429-7.341-4.616-10.847-1.963-3.353 2.316-6.538 4.696-9.755 7.383-.265.16-.579.498-.747.675-7.471 6.466-14.861 13.51-20.884 20.94-1.704 2.139-3.505 4.229-4.165 6.787-.024 1.35.193 2.621.949 3.65 5.106 7.366 11.869 14.427 18.599 20.457 5.814 5.018 11.411 10.518 18.054 13.88 2.178.997 4.631-.162 6.465-1.416 9.014-6.143 17.071-13.83 24.702-21.776 3.523-4.197 7.559-8.025 9.553-12.833.531-1.898-.321-3.522-1.286-4.954"/></g></svg>
