<svg xmlns="http://www.w3.org/2000/svg" xml:space="preserve" viewBox="0 0 799.5 245"><path d="M228.4 23h140.2v41.9h-94.8v38.5h89.5v42h-89.5v41.9h100v42H228.4z"/><path d="M412 23h140.2v41.9h-94.7v38.5h89.4v42h-89.4v41.9h99.9v42H412z"/><path d="M639.3 187.3h23.6c10.5 0 20.3-1.1 29.3-3.2s16.9-5.7 23.5-10.6c6.6-5 11.8-11.5 15.6-19.5 3.8-8.1 5.7-17.9 5.7-29.6 0-10.1-1.9-18.9-5.7-26.4-3.8-7.5-8.9-13.6-15.3-18.5s-13.9-8.5-22.6-10.9c-8.6-2.4-17.7-3.6-27.2-3.6h-26.8v122.3zM593.9 23H662c16.5 0 32.2 1.8 47.1 5.5 14.9 3.7 27.8 9.7 38.9 17.9 11.1 8.3 19.9 19 26.4 32.2 6.5 13.2 9.8 29.2 9.8 48.1 0 16.7-3.2 31.4-9.5 44.2-6.3 12.7-14.8 23.4-25.5 32.1-10.7 8.6-23 15.2-37 19.7s-28.7 6.7-44 6.7h-74.3V23z"/><path fill="#e04626" d="M69.8 90.5C87.4 63.6 123 54 151.9 69.4l31-9.9-9.6-30.3C124.2 3.1 64 18.7 33.2 63.4l36.6 27.1z"/><path d="M26.7 74c-28.1 52.8-8 118.5 44.8 146.6 46.4 24.7 102.8 12.1 134.8-27.1L169.9 166c-1.4 1.6-2.9 3.2-4.4 4.6-19.1 17.9-48.2 22.7-72.6 9.8-30.6-16.3-42.3-54.4-26-85 .9-1.7 1.9-3.3 2.9-4.9L33.2 63.4"/></svg>