<svg width="512" height="512" fill="none" xmlns="http://www.w3.org/2000/svg"><circle cx="96" cy="385" r="16" stroke="#000" stroke-width="8"/><path d="M108 384h296M108 188l136-56M404 188l-136-56" stroke="#000" stroke-width="20"/><circle cx="416" cy="192" r="16" stroke="#000" stroke-width="8"/><circle cx="96" cy="192" r="16" stroke="#000" stroke-width="8"/><circle cx="256" cy="128" r="16" stroke="#000" stroke-width="8"/><circle cx="416" cy="385" r="16" stroke="#000" stroke-width="8"/><circle cx="128" cy="320" r="16" stroke="#000" stroke-width="8"/><circle cx="128" cy="240" r="16" stroke="#000" stroke-width="8"/><path d="M128 252v56" stroke="#000" stroke-width="20"/><circle cx="192" cy="320" r="16" stroke="#000" stroke-width="8"/><circle cx="192" cy="240" r="16" stroke="#000" stroke-width="8"/><path d="M192 252v56" stroke="#000" stroke-width="20"/><circle cx="256" cy="320" r="16" stroke="#000" stroke-width="8"/><circle cx="256" cy="240" r="16" stroke="#000" stroke-width="8"/><path d="M256 252v56" stroke="#000" stroke-width="20"/><circle cx="320" cy="320" r="16" stroke="#000" stroke-width="8"/><circle cx="320" cy="240" r="16" stroke="#000" stroke-width="8"/><path d="M320 252v56" stroke="#000" stroke-width="20"/><circle cx="384" cy="320" r="16" stroke="#000" stroke-width="8"/><circle cx="384" cy="240" r="16" stroke="#000" stroke-width="8"/><path d="M384 252v56" stroke="#000" stroke-width="20"/></svg>