<svg version="1.1" id="Layer_1" xmlns="http://www.w3.org/2000/svg" x="0" y="0" width="2000" height="2000" style="enable-background:new 0 0 2000 2000" xml:space="preserve"><style>.st37{fill:#00001c}</style><path d="M377.82 1329.71h-15.86l-2.17 5.05h-8.52l17.33-39.48h2.64l17.27 39.48h-8.52l-2.17-5.05zm-7.93-19.62-5.17 13.1h10.34l-5.17-13.1zM396.26 1322.78c2.53 3.47 5.29 5.64 9.52 5.64 3.47 0 5.52-1.64 5.52-4.29 0-2.29-1.23-3.11-4.93-4.82l-4.17-1.88c-5.93-2.64-9.4-5.99-9.4-11.16 0-6.64 5.52-10.99 12.87-10.99 5.93 0 10.4 2.88 12.81 7.34l-5.4 4.17c-2-3-4.46-4.46-7.4-4.46-2.76 0-4.82 1.35-4.82 3.76 0 2.06 1.23 3 4.52 4.46l4.41 1.94c6.52 2.88 9.58 6.11 9.58 11.34 0 7.11-5.82 11.63-13.57 11.63-6.58 0-11.98-3.35-14.98-8.58l5.44-4.1zM428.8 1322.78c2.53 3.47 5.29 5.64 9.52 5.64 3.47 0 5.52-1.64 5.52-4.29 0-2.29-1.23-3.11-4.93-4.82l-4.17-1.88c-5.93-2.64-9.4-5.99-9.4-11.16 0-6.64 5.52-10.99 12.87-10.99 5.93 0 10.4 2.88 12.81 7.34l-5.4 4.17c-2-3-4.46-4.46-7.4-4.46-2.76 0-4.82 1.35-4.82 3.76 0 2.06 1.23 3 4.52 4.46l4.41 1.94c6.52 2.88 9.58 6.11 9.58 11.34 0 7.11-5.82 11.63-13.57 11.63-6.58 0-11.98-3.35-14.98-8.58l5.44-4.1zM477.21 1295.29c11.16-.23 20.85 8.99 20.68 20.09.18 11.1-9.52 20.33-20.68 20.09-11.16.23-20.74-8.99-20.56-20.09-.18-11.11 9.4-20.33 20.56-20.09zm.06 7.34c-7.17 0-12.45 5.29-12.45 12.75s5.29 12.75 12.45 12.75c7.11 0 12.45-5.29 12.45-12.75 0-7.35-5.34-12.75-12.45-12.75zM523.03 1295.29c7.34 0 13.63 3.58 17.1 9.63l-5.99 4.23c-2.76-4.35-6.46-6.52-11.1-6.52-7.23 0-12.51 5.4-12.51 12.81 0 7.4 5.29 12.69 12.51 12.69 4.64 0 8.34-2.17 11.1-6.52l5.99 4.23c-3.35 6.05-9.69 9.63-17.15 9.63-11.34.23-20.86-8.99-20.62-20.09-.19-11.11 9.39-20.33 20.67-20.09zM546.87 1295.99h7.93v38.77h-7.93v-38.77zM586.52 1329.71h-15.86l-2.17 5.05h-8.52l17.33-39.48h2.64l17.27 39.48h-8.52l-2.17-5.05zm-7.93-19.62-5.17 13.1h10.34l-5.17-13.1zM606.85 1303.16h-12.4v-7.17h32.78v7.17h-12.45v31.61h-7.93v-31.61zM632.46 1295.99h7.93v38.77h-7.93v-38.77zM667.58 1295.29c11.16-.23 20.85 8.99 20.68 20.09.18 11.1-9.52 20.33-20.68 20.09-11.16.23-20.74-8.99-20.56-20.09-.17-11.11 9.4-20.33 20.56-20.09zm.06 7.34c-7.17 0-12.45 5.29-12.45 12.75s5.29 12.75 12.45 12.75c7.11 0 12.45-5.29 12.45-12.75.01-7.35-5.34-12.75-12.45-12.75zM727.97 1295.99v39.48h-2.64l-22.44-23.97v23.26h-7.93v-39.48h2.58l22.5 23.85v-23.15h7.93zM753.28 1295.99h12.69c12.28-.12 21.33 7.81 21.15 19.27.18 11.22-8.87 19.68-21.15 19.5h-12.69v-38.77zm12.64 31.61c7.81 0 13.04-4.88 13.04-12.34 0-7.52-5.11-12.1-13.04-12.1h-4.7v24.44h4.7zM793.81 1295.99h26.08v7.17h-18.15v7.87h13.34v6.76h-13.34v9.81h18.86v7.17h-26.79v-38.78zM830.23 1322.78c2.53 3.47 5.29 5.64 9.52 5.64 3.47 0 5.52-1.64 5.52-4.29 0-2.29-1.23-3.11-4.93-4.82l-4.17-1.88c-5.93-2.64-9.4-5.99-9.4-11.16 0-6.64 5.52-10.99 12.87-10.99 5.93 0 10.4 2.88 12.81 7.34l-5.4 4.17c-2-3-4.46-4.46-7.4-4.46-2.76 0-4.82 1.35-4.82 3.76 0 2.06 1.23 3 4.52 4.46l4.41 1.94c6.52 2.88 9.58 6.11 9.58 11.34 0 7.11-5.82 11.63-13.57 11.63-6.58 0-11.98-3.35-14.98-8.58l5.44-4.1zM876.75 1295.99h26.08v7.17h-18.15v7.87h13.34v6.76h-13.34v9.81h18.86v7.17h-26.79v-38.78zm14.05-14.69h9.52v1.41l-8.05 9.52h-5.76l4.29-10.93zM919.17 1303.16h-12.4v-7.17h32.78v7.17H927.1v31.61h-7.93v-31.61zM944.42 1295.99h7.93v23.32c0 5.64 3.52 8.81 8.52 8.81 5.11 0 8.52-3.17 8.52-8.81v-23.32h7.93v22.74c0 10.28-7.05 16.74-16.45 16.74-9.52 0-16.45-6.46-16.45-16.74v-22.74zM985.89 1295.99h12.69c12.28-.12 21.32 7.81 21.15 19.27.18 11.22-8.87 19.68-21.15 19.5h-12.69v-38.77zm12.63 31.61c7.81 0 13.04-4.88 13.04-12.34 0-7.52-5.11-12.1-13.04-12.1h-4.7v24.44h4.7zM1026.42 1295.99h7.93v38.77h-7.93v-38.77zM1066.08 1329.71h-15.86l-2.17 5.05h-8.52l17.33-39.48h2.64l17.27 39.48h-8.52l-2.17-5.05zm-7.94-19.62-5.17 13.1h10.34l-5.17-13.1zM1115.07 1295.99v39.48h-2.64l-22.44-23.97v23.26h-7.93v-39.48h2.58l22.5 23.85v-23.15h7.93zM1132.68 1303.16h-12.4v-7.17h32.78v7.17h-12.45v31.61h-7.93v-31.61zM1161.06 1322.78c2.53 3.47 5.29 5.64 9.52 5.64 3.47 0 5.52-1.64 5.52-4.29 0-2.29-1.23-3.11-4.93-4.82l-4.17-1.88c-5.93-2.64-9.4-5.99-9.4-11.16 0-6.64 5.52-10.99 12.87-10.99 5.93 0 10.4 2.88 12.81 7.34l-5.4 4.17c-2-3-4.46-4.46-7.4-4.46-2.76 0-4.82 1.35-4.82 3.76 0 2.06 1.23 3 4.52 4.46l4.41 1.94c6.52 2.88 9.58 6.11 9.58 11.34 0 7.11-5.82 11.63-13.57 11.63-6.58 0-11.98-3.35-14.98-8.58l5.44-4.1zM1207.58 1295.99h26.08v7.17h-18.15v7.87h13.34v6.76h-13.34v9.81h18.86v7.17h-26.79v-38.78zM1274.25 1295.99v39.48h-2.64l-22.44-23.97v23.26h-7.93v-39.48h2.58l22.5 23.85v-23.15h7.93zM1299.56 1295.99h7.93v38.77h-7.93v-38.77zM1349.38 1295.99v39.48h-2.64l-22.44-23.97v23.26h-7.93v-39.48h2.58l22.5 23.85v-23.15h7.93zM1358.25 1295.99h25.5v7.17h-17.56v9.69h14.39v7.17h-14.39v14.75h-7.93v-38.78zM1407.71 1295.29c11.16-.23 20.86 8.99 20.68 20.09.18 11.1-9.52 20.33-20.68 20.09-11.16.23-20.74-8.99-20.56-20.09-.18-11.11 9.39-20.33 20.56-20.09zm.06 7.34c-7.17 0-12.45 5.29-12.45 12.75s5.29 12.75 12.45 12.75c7.11 0 12.45-5.29 12.45-12.75 0-7.35-5.35-12.75-12.45-12.75zM1458.87 1334.76l-10.05-13.69H1443v13.69h-7.93v-38.77h14.57c8.11 0 13.98 5.05 13.98 12.51 0 4.93-2.58 8.93-6.81 11.04l10.99 15.22h-8.93zm-15.86-20.68h6.64c3.7 0 5.87-2.23 5.87-5.58 0-3.29-2.29-5.52-5.87-5.52h-6.64v11.1zM1510.62 1295.29v39.48h-7.93v-20.68l-9.75 12.22h-2.58l-9.75-12.22v20.68h-7.93v-39.48h2.58l16.39 20.97 16.39-20.97h2.58zM1542.4 1329.71h-15.86l-2.17 5.05h-8.52l17.33-39.48h2.64l17.27 39.48h-8.52l-2.17-5.05zm-7.93-19.62-5.17 13.1h10.34l-5.17-13.1zM1562.72 1303.16h-12.4v-7.17h32.78v7.17h-12.45v31.61h-7.93v-31.61zM1588.33 1295.99h7.93v38.77h-7.93v-38.77zM1662.76 1346.98c-2.06.53-4.35.76-6.93.76-10.52 0-19.68-4.52-25.85-13.28-2.11.65-4.29 1-6.52 1-11.16.23-20.74-8.99-20.56-20.09-.18-11.1 9.4-20.33 20.56-20.09 11.16-.23 20.86 8.99 20.68 20.09 0 6.34-2.88 11.93-7.58 15.63 5.23 6.81 11.63 9.99 20.8 9.99.76 0 2.58-.06 5.4-.23v6.22zm-26.79-31.6c0-7.34-5.35-12.75-12.45-12.75-7.17 0-12.45 5.29-12.45 12.75s5.29 12.75 12.45 12.75c7.11 0 12.45-5.29 12.45-12.75z"/><path d="M1650.48 1295.99h7.93v23.32c0 5.64 3.52 8.81 8.52 8.81 5.11 0 8.52-3.17 8.52-8.81v-23.32h7.93v22.74c0 10.28-7.05 16.74-16.45 16.74-9.52 0-16.45-6.46-16.45-16.74v-22.74zM1691.95 1295.99h26.08v7.17h-18.15v7.87h13.34v6.76h-13.34v9.81h18.86v7.17h-26.79v-38.78z"/><linearGradient id="SVGID_1_" gradientUnits="userSpaceOnUse" x1="274.943" y1="1237.193" x2="1759.415" y2="1237.193"><stop offset="0" style="stop-color:#00fcf1"/><stop offset="1" style="stop-color:#1b36ff"/></linearGradient><path d="M374.13 1214.99c8.12 0 15.06 3.96 18.89 10.65l-6.62 4.67c-3.05-4.8-7.14-7.21-12.27-7.21-7.99 0-13.83 5.97-13.83 14.15s5.84 14.02 13.83 14.02c5.13 0 9.22-2.4 12.27-7.21l6.62 4.67c-3.7 6.69-10.71 10.65-18.96 10.65-12.53.26-23.05-9.93-22.79-22.21-.19-12.25 10.39-22.44 22.86-22.18z" style="fill:url(#SVGID_1_)"/><linearGradient id="SVGID_2_" gradientUnits="userSpaceOnUse" x1="274.943" y1="1237.193" x2="1759.415" y2="1237.193"><stop offset="0" style="stop-color:#00fcf1"/><stop offset="1" style="stop-color:#1b36ff"/></linearGradient><path d="M420.42 1214.99c12.34-.26 23.05 9.93 22.85 22.2.2 12.27-10.52 22.46-22.85 22.21-12.34.26-22.92-9.93-22.72-22.21-.2-12.27 10.39-22.46 22.72-22.2zm.07 8.11c-7.92 0-13.76 5.84-13.76 14.09s5.84 14.09 13.76 14.09c7.86 0 13.76-5.84 13.76-14.09 0-8.11-5.91-14.09-13.76-14.09z" style="fill:url(#SVGID_2_)"/><linearGradient id="SVGID_3_" gradientUnits="userSpaceOnUse" x1="274.943" y1="1236.804" x2="1759.415" y2="1236.804"><stop offset="0" style="stop-color:#00fcf1"/><stop offset="1" style="stop-color:#1b36ff"/></linearGradient><path d="M492.63 1214.99v43.63h-8.77v-22.85l-10.78 13.5h-2.86l-10.78-13.5v22.85h-8.76v-43.63h2.86l18.11 23.18 18.11-23.18h2.87z" style="fill:url(#SVGID_3_)"/><linearGradient id="SVGID_4_" gradientUnits="userSpaceOnUse" x1="274.943" y1="1237.193" x2="1759.415" y2="1237.193"><stop offset="0" style="stop-color:#00fcf1"/><stop offset="1" style="stop-color:#1b36ff"/></linearGradient><path d="M502.5 1215.77h16.1c8.96 0 15.45 5.58 15.45 13.83 0 8.18-6.49 13.89-15.45 13.89h-7.34v15.13h-8.76v-42.85zm16.1 20.06c4.09 0 6.49-2.53 6.49-6.23 0-3.64-2.53-6.1-6.49-6.1h-7.34v12.34h7.34z" style="fill:url(#SVGID_4_)"/><linearGradient id="SVGID_5_" gradientUnits="userSpaceOnUse" x1="274.943" y1="1237.583" x2="1759.415" y2="1237.583"><stop offset="0" style="stop-color:#00fcf1"/><stop offset="1" style="stop-color:#1b36ff"/></linearGradient><path d="M540.68 1215.77h8.76v25.78c0 6.23 3.9 9.74 9.42 9.74 5.65 0 9.41-3.51 9.41-9.74v-25.78h8.76v25.13c0 11.36-7.79 18.5-18.18 18.5-10.52 0-18.18-7.14-18.18-18.5v-25.13z" style="fill:url(#SVGID_5_)"/><linearGradient id="SVGID_6_" gradientUnits="userSpaceOnUse" x1="274.943" y1="1237.193" x2="1759.415" y2="1237.193"><stop offset="0" style="stop-color:#00fcf1"/><stop offset="1" style="stop-color:#1b36ff"/></linearGradient><path d="M596.19 1223.69h-13.7v-7.92h36.23v7.92h-13.76v34.93h-8.76v-34.93z" style="fill:url(#SVGID_6_)"/><linearGradient id="SVGID_7_" gradientUnits="userSpaceOnUse" x1="274.943" y1="1237.193" x2="1759.415" y2="1237.193"><stop offset="0" style="stop-color:#00fcf1"/><stop offset="1" style="stop-color:#1b36ff"/></linearGradient><path d="M624.51 1215.77h28.83v7.92h-20.06v8.7h14.74v7.47h-14.74v10.84h20.84v7.92h-29.61v-42.85z" style="fill:url(#SVGID_7_)"/><linearGradient id="SVGID_8_" gradientUnits="userSpaceOnUse" x1="274.943" y1="1237.193" x2="1759.415" y2="1237.193"><stop offset="0" style="stop-color:#00fcf1"/><stop offset="1" style="stop-color:#1b36ff"/></linearGradient><path d="m688.01 1258.62-11.1-15.13h-6.43v15.13h-8.76v-42.85h16.1c8.96 0 15.45 5.58 15.45 13.83 0 5.45-2.86 9.87-7.53 12.21l12.14 16.82h-9.87zm-17.53-22.86h7.34c4.09 0 6.49-2.47 6.49-6.17 0-3.64-2.53-6.1-6.49-6.1h-7.34v12.27z" style="fill:url(#SVGID_8_)"/><linearGradient id="SVGID_9_" gradientUnits="userSpaceOnUse" x1="274.943" y1="1237.193" x2="1759.415" y2="1237.193"><stop offset="0" style="stop-color:#00fcf1"/><stop offset="1" style="stop-color:#1b36ff"/></linearGradient><path d="M724.5 1245.37c2.79 3.83 5.84 6.23 10.52 6.23 3.83 0 6.1-1.82 6.1-4.74 0-2.53-1.36-3.44-5.45-5.32l-4.61-2.08c-6.56-2.92-10.39-6.62-10.39-12.34 0-7.34 6.1-12.14 14.22-12.14 6.56 0 11.49 3.18 14.15 8.12l-5.97 4.61c-2.21-3.31-4.93-4.93-8.18-4.93-3.05 0-5.32 1.49-5.32 4.16 0 2.27 1.36 3.31 5 4.93l4.87 2.14c7.21 3.18 10.58 6.75 10.58 12.53 0 7.86-6.43 12.86-15 12.86-7.27 0-13.25-3.7-16.56-9.48l6.04-4.55z" style="fill:url(#SVGID_9_)"/><linearGradient id="SVGID_10_" gradientUnits="userSpaceOnUse" x1="274.943" y1="1237.193" x2="1759.415" y2="1237.193"><stop offset="0" style="stop-color:#00fcf1"/><stop offset="1" style="stop-color:#1b36ff"/></linearGradient><path d="M778.13 1214.99c8.12 0 15.06 3.96 18.89 10.65l-6.62 4.67c-3.05-4.8-7.14-7.21-12.27-7.21-7.99 0-13.83 5.97-13.83 14.15s5.84 14.02 13.83 14.02c5.13 0 9.22-2.4 12.27-7.21l6.62 4.67c-3.7 6.69-10.71 10.65-18.96 10.65-12.53.26-23.05-9.93-22.79-22.21-.19-12.25 10.4-22.44 22.86-22.18z" style="fill:url(#SVGID_10_)"/><linearGradient id="SVGID_11_" gradientUnits="userSpaceOnUse" x1="274.943" y1="1237.193" x2="1759.415" y2="1237.193"><stop offset="0" style="stop-color:#00fcf1"/><stop offset="1" style="stop-color:#1b36ff"/></linearGradient><path d="M804.5 1215.77h8.76v42.85h-8.76v-42.85z" style="fill:url(#SVGID_11_)"/><linearGradient id="SVGID_12_" gradientUnits="userSpaceOnUse" x1="274.943" y1="1237.193" x2="1759.415" y2="1237.193"><stop offset="0" style="stop-color:#00fcf1"/><stop offset="1" style="stop-color:#1b36ff"/></linearGradient><path d="M823.07 1215.77h28.83v7.92h-20.06v8.7h14.74v7.47h-14.74v10.84h20.84v7.92h-29.61v-42.85z" style="fill:url(#SVGID_12_)"/><linearGradient id="SVGID_13_" gradientUnits="userSpaceOnUse" x1="274.943" y1="1237.193" x2="1759.415" y2="1237.193"><stop offset="0" style="stop-color:#00fcf1"/><stop offset="1" style="stop-color:#1b36ff"/></linearGradient><path d="M896.76 1215.77v43.63h-2.92l-24.8-26.49v25.71h-8.76v-43.63h2.86l24.87 26.36v-25.58h8.75z" style="fill:url(#SVGID_13_)"/><linearGradient id="SVGID_14_" gradientUnits="userSpaceOnUse" x1="274.943" y1="1237.193" x2="1759.415" y2="1237.193"><stop offset="0" style="stop-color:#00fcf1"/><stop offset="1" style="stop-color:#1b36ff"/></linearGradient><path d="M926.96 1214.99c8.12 0 15.06 3.96 18.89 10.65l-6.62 4.67c-3.05-4.8-7.14-7.21-12.27-7.21-7.99 0-13.83 5.97-13.83 14.15s5.84 14.02 13.83 14.02c5.13 0 9.22-2.4 12.27-7.21l6.62 4.67c-3.7 6.69-10.71 10.65-18.96 10.65-12.53.26-23.05-9.93-22.79-22.21-.19-12.25 10.39-22.44 22.86-22.18z" style="fill:url(#SVGID_14_)"/><linearGradient id="SVGID_15_" gradientUnits="userSpaceOnUse" x1="274.943" y1="1237.193" x2="1759.415" y2="1237.193"><stop offset="0" style="stop-color:#00fcf1"/><stop offset="1" style="stop-color:#1b36ff"/></linearGradient><path d="M953.32 1215.77h28.83v7.92h-20.06v8.7h14.74v7.47h-14.74v10.84h20.84v7.92h-29.61v-42.85z" style="fill:url(#SVGID_15_)"/><linearGradient id="SVGID_16_" gradientUnits="userSpaceOnUse" x1="274.943" y1="1237.193" x2="1759.415" y2="1237.193"><stop offset="0" style="stop-color:#00fcf1"/><stop offset="1" style="stop-color:#1b36ff"/></linearGradient><path d="M1011.76 1245.37c2.79 3.83 5.84 6.23 10.52 6.23 3.83 0 6.1-1.82 6.1-4.74 0-2.53-1.36-3.44-5.45-5.32l-4.61-2.08c-6.56-2.92-10.39-6.62-10.39-12.34 0-7.34 6.1-12.14 14.22-12.14 6.56 0 11.49 3.18 14.15 8.12l-5.97 4.61c-2.21-3.31-4.93-4.93-8.18-4.93-3.05 0-5.32 1.49-5.32 4.16 0 2.27 1.36 3.31 5 4.93l4.87 2.14c7.21 3.18 10.58 6.75 10.58 12.53 0 7.86-6.43 12.86-15 12.86-7.27 0-13.25-3.7-16.56-9.48l6.04-4.55z" style="fill:url(#SVGID_16_)"/><linearGradient id="SVGID_17_" gradientUnits="userSpaceOnUse" x1="274.943" y1="1237.193" x2="1759.415" y2="1237.193"><stop offset="0" style="stop-color:#00fcf1"/><stop offset="1" style="stop-color:#1b36ff"/></linearGradient><path d="M1054.68 1223.69h-13.7v-7.92h36.23v7.92h-13.76v34.93h-8.76v-34.93z" style="fill:url(#SVGID_17_)"/><linearGradient id="SVGID_18_" gradientUnits="userSpaceOnUse" x1="274.943" y1="1237.583" x2="1759.415" y2="1237.583"><stop offset="0" style="stop-color:#00fcf1"/><stop offset="1" style="stop-color:#1b36ff"/></linearGradient><path d="M1082.6 1215.77h8.76v25.78c0 6.23 3.9 9.74 9.42 9.74 5.65 0 9.41-3.51 9.41-9.74v-25.78h8.76v25.13c0 11.36-7.79 18.5-18.18 18.5-10.52 0-18.18-7.14-18.18-18.5v-25.13z" style="fill:url(#SVGID_18_)"/><linearGradient id="SVGID_19_" gradientUnits="userSpaceOnUse" x1="274.943" y1="1237.194" x2="1759.415" y2="1237.194"><stop offset="0" style="stop-color:#00fcf1"/><stop offset="1" style="stop-color:#1b36ff"/></linearGradient><path d="M1128.44 1215.77h14.02c13.57-.13 23.57 8.63 23.37 21.3.19 12.4-9.8 21.75-23.37 21.56h-14.02v-42.86zm13.96 34.93c8.63 0 14.41-5.39 14.41-13.63 0-8.31-5.65-13.37-14.41-13.37h-5.19v27.01h5.19z" style="fill:url(#SVGID_19_)"/><linearGradient id="SVGID_20_" gradientUnits="userSpaceOnUse" x1="274.943" y1="1237.193" x2="1759.415" y2="1237.193"><stop offset="0" style="stop-color:#00fcf1"/><stop offset="1" style="stop-color:#1b36ff"/></linearGradient><path d="M1173.24 1215.77h28.83v7.92h-20.06v8.7h14.74v7.47h-14.74v10.84h20.84v7.92h-29.61v-42.85z" style="fill:url(#SVGID_20_)"/><linearGradient id="SVGID_21_" gradientUnits="userSpaceOnUse" x1="274.943" y1="1237.193" x2="1759.415" y2="1237.193"><stop offset="0" style="stop-color:#00fcf1"/><stop offset="1" style="stop-color:#1b36ff"/></linearGradient><path d="M1246.94 1215.77v43.63h-2.92l-24.8-26.49v25.71h-8.76v-43.63h2.86l24.87 26.36v-25.58h8.75z" style="fill:url(#SVGID_21_)"/><linearGradient id="SVGID_22_" gradientUnits="userSpaceOnUse" x1="274.943" y1="1237.193" x2="1759.415" y2="1237.193"><stop offset="0" style="stop-color:#00fcf1"/><stop offset="1" style="stop-color:#1b36ff"/></linearGradient><path d="M1266.42 1223.69h-13.7v-7.92h36.23v7.92h-13.76v34.93h-8.76v-34.93z" style="fill:url(#SVGID_22_)"/><linearGradient id="SVGID_23_" gradientUnits="userSpaceOnUse" x1="274.943" y1="1236.804" x2="1759.415" y2="1236.804"><stop offset="0" style="stop-color:#00fcf1"/><stop offset="1" style="stop-color:#1b36ff"/></linearGradient><path d="M1331.68 1253.04h-17.53l-2.4 5.58h-9.42l19.15-43.63h2.92l19.09 43.63h-9.41l-2.4-5.58zm-8.77-21.69-5.71 14.48h11.43l-5.72-14.48z" style="fill:url(#SVGID_23_)"/><linearGradient id="SVGID_24_" gradientUnits="userSpaceOnUse" x1="274.943" y1="1237.193" x2="1759.415" y2="1237.193"><stop offset="0" style="stop-color:#00fcf1"/><stop offset="1" style="stop-color:#1b36ff"/></linearGradient><path d="M1352.07 1245.37c2.79 3.83 5.84 6.23 10.52 6.23 3.83 0 6.1-1.82 6.1-4.74 0-2.53-1.36-3.44-5.45-5.32l-4.61-2.08c-6.56-2.92-10.39-6.62-10.39-12.34 0-7.34 6.1-12.14 14.22-12.14 6.56 0 11.49 3.18 14.15 8.12l-5.97 4.61c-2.21-3.31-4.93-4.93-8.18-4.93-3.05 0-5.32 1.49-5.32 4.16 0 2.27 1.36 3.31 5 4.93l4.87 2.14c7.21 3.18 10.58 6.75 10.58 12.53 0 7.86-6.43 12.86-15 12.86-7.27 0-13.25-3.7-16.56-9.48l6.04-4.55z" style="fill:url(#SVGID_24_)"/><linearGradient id="SVGID_25_" gradientUnits="userSpaceOnUse" x1="274.943" y1="1237.193" x2="1759.415" y2="1237.193"><stop offset="0" style="stop-color:#00fcf1"/><stop offset="1" style="stop-color:#1b36ff"/></linearGradient><path d="M1388.04 1245.37c2.79 3.83 5.84 6.23 10.52 6.23 3.83 0 6.1-1.82 6.1-4.74 0-2.53-1.36-3.44-5.45-5.32l-4.61-2.08c-6.56-2.92-10.39-6.62-10.39-12.34 0-7.34 6.1-12.14 14.22-12.14 6.56 0 11.49 3.18 14.15 8.12l-5.97 4.61c-2.21-3.31-4.93-4.93-8.18-4.93-3.05 0-5.32 1.49-5.32 4.16 0 2.27 1.36 3.31 5 4.93l4.87 2.14c7.21 3.18 10.58 6.75 10.58 12.53 0 7.86-6.43 12.86-15 12.86-7.27 0-13.25-3.7-16.56-9.48l6.04-4.55z" style="fill:url(#SVGID_25_)"/><linearGradient id="SVGID_26_" gradientUnits="userSpaceOnUse" x1="274.943" y1="1237.193" x2="1759.415" y2="1237.193"><stop offset="0" style="stop-color:#00fcf1"/><stop offset="1" style="stop-color:#1b36ff"/></linearGradient><path d="M1441.54 1214.99c12.34-.26 23.05 9.93 22.85 22.2.2 12.27-10.52 22.46-22.85 22.21-12.34.26-22.92-9.93-22.72-22.21-.19-12.27 10.39-22.46 22.72-22.2zm.07 8.11c-7.92 0-13.76 5.84-13.76 14.09s5.84 14.09 13.76 14.09c7.86 0 13.76-5.84 13.76-14.09 0-8.11-5.91-14.09-13.76-14.09z" style="fill:url(#SVGID_26_)"/><linearGradient id="SVGID_27_" gradientUnits="userSpaceOnUse" x1="274.943" y1="1237.193" x2="1759.415" y2="1237.193"><stop offset="0" style="stop-color:#00fcf1"/><stop offset="1" style="stop-color:#1b36ff"/></linearGradient><path d="M1492.19 1214.99c8.12 0 15.06 3.96 18.89 10.65l-6.62 4.67c-3.05-4.8-7.14-7.21-12.27-7.21-7.99 0-13.83 5.97-13.83 14.15s5.84 14.02 13.83 14.02c5.13 0 9.22-2.4 12.27-7.21l6.62 4.67c-3.7 6.69-10.71 10.65-18.96 10.65-12.53.26-23.05-9.93-22.79-22.21-.19-12.25 10.39-22.44 22.86-22.18z" style="fill:url(#SVGID_27_)"/><linearGradient id="SVGID_28_" gradientUnits="userSpaceOnUse" x1="274.943" y1="1237.193" x2="1759.415" y2="1237.193"><stop offset="0" style="stop-color:#00fcf1"/><stop offset="1" style="stop-color:#1b36ff"/></linearGradient><path d="M1518.55 1215.77h8.76v42.85h-8.76v-42.85z" style="fill:url(#SVGID_28_)"/><linearGradient id="SVGID_29_" gradientUnits="userSpaceOnUse" x1="274.943" y1="1236.804" x2="1759.415" y2="1236.804"><stop offset="0" style="stop-color:#00fcf1"/><stop offset="1" style="stop-color:#1b36ff"/></linearGradient><path d="M1562.38 1253.04h-17.53l-2.4 5.58h-9.42l19.15-43.63h2.92l19.09 43.63h-9.41l-2.4-5.58zm-8.76-21.69-5.71 14.48h11.43l-5.72-14.48z" style="fill:url(#SVGID_29_)"/><linearGradient id="SVGID_30_" gradientUnits="userSpaceOnUse" x1="274.943" y1="1237.193" x2="1759.415" y2="1237.193"><stop offset="0" style="stop-color:#00fcf1"/><stop offset="1" style="stop-color:#1b36ff"/></linearGradient><path d="M1584.85 1223.69h-13.7v-7.92h36.23v7.92h-13.76v34.93h-8.76v-34.93z" style="fill:url(#SVGID_30_)"/><linearGradient id="SVGID_31_" gradientUnits="userSpaceOnUse" x1="274.943" y1="1237.193" x2="1759.415" y2="1237.193"><stop offset="0" style="stop-color:#00fcf1"/><stop offset="1" style="stop-color:#1b36ff"/></linearGradient><path d="M1613.16 1215.77h8.76v42.85h-8.76v-42.85z" style="fill:url(#SVGID_31_)"/><linearGradient id="SVGID_32_" gradientUnits="userSpaceOnUse" x1="274.943" y1="1237.193" x2="1759.415" y2="1237.193"><stop offset="0" style="stop-color:#00fcf1"/><stop offset="1" style="stop-color:#1b36ff"/></linearGradient><path d="M1651.99 1214.99c12.34-.26 23.05 9.93 22.85 22.2.2 12.27-10.52 22.46-22.85 22.21-12.34.26-22.92-9.93-22.72-22.21-.2-12.27 10.38-22.46 22.72-22.2zm.06 8.11c-7.92 0-13.76 5.84-13.76 14.09s5.84 14.09 13.76 14.09c7.86 0 13.76-5.84 13.76-14.09.01-8.11-5.9-14.09-13.76-14.09z" style="fill:url(#SVGID_32_)"/><linearGradient id="SVGID_33_" gradientUnits="userSpaceOnUse" x1="274.943" y1="1237.193" x2="1759.415" y2="1237.193"><stop offset="0" style="stop-color:#00fcf1"/><stop offset="1" style="stop-color:#1b36ff"/></linearGradient><path d="M1718.74 1215.77v43.63h-2.92l-24.8-26.49v25.71h-8.76v-43.63h2.86l24.87 26.36v-25.58h8.75z" style="fill:url(#SVGID_33_)"/><linearGradient id="SVGID_34_" gradientUnits="userSpaceOnUse" x1="650.704" y1="500.852" x2="1127.451" y2="1358.754"><stop offset="0" style="stop-color:#1b36ff"/><stop offset="1" style="stop-color:#00fcf1"/></linearGradient><path style="fill:url(#SVGID_34_)" d="M900.22 1141.75h196.55v-30.1H900.22"/><linearGradient id="SVGID_35_" gradientUnits="userSpaceOnUse" x1="787.111" y1="472.991" x2="1245.829" y2="1298.45"><stop offset="0" style="stop-color:#1b36ff"/><stop offset="1" style="stop-color:#00fcf1"/></linearGradient><path d="M1343.23 837.27c-9.26 0-17.98-1.84-25.94-5.16-11.92-4.97-22.09-13.31-29.23-23.74-7.14-10.44-11.26-22.86-11.27-36.39v-6.03c0-13.04-2.69-25.56-7.56-36.9-7.3-17.02-19.44-31.41-34.68-41.57-15.24-10.17-33.69-16.1-53.37-16.1H818.82c-13.11 0-25.71 2.63-37.14 7.4a95.633 95.633 0 0 0-42.07 34.18 93.493 93.493 0 0 0-16.41 52.99v6.03c0 9.03-1.84 17.54-5.18 25.32-5 11.66-13.41 21.68-24.03 28.76-10.63 7.07-23.35 11.2-37.23 11.2v37.62c14.28 0 27.98-2.86 40.43-8.06 18.67-7.79 34.54-20.78 45.78-37.2a101.73 101.73 0 0 0 17.85-57.65v-6.03c0-7.88 1.61-15.29 4.51-22.08 4.36-10.17 11.7-18.92 20.97-25.09 9.28-6.17 20.38-9.77 32.51-9.78h362.37c8.09 0 15.71 1.61 22.65 4.5 10.41 4.34 19.29 11.62 25.51 20.72 6.23 9.11 9.82 19.92 9.83 31.73v6.03c0 14.19 2.93 27.81 8.22 40.15 7.94 18.52 21.15 34.18 37.74 45.24 16.58 11.06 36.66 17.53 58.1 17.52v-37.61z" style="fill:url(#SVGID_35_)"/><linearGradient id="SVGID_36_" gradientUnits="userSpaceOnUse" x1="927.225" y1="451.613" x2="1345.307" y2="1203.949"><stop offset="0" style="stop-color:#1b36ff"/><stop offset="1" style="stop-color:#00fcf1"/></linearGradient><path d="M1052.95 1040.79h128.24c13.11 0 25.71-2.63 37.14-7.4a95.633 95.633 0 0 0 42.07-34.18 93.493 93.493 0 0 0 16.41-52.99v-6.03c0-9.03 1.84-17.54 5.18-25.32 5-11.66 13.41-21.68 24.03-28.76 10.63-7.07 23.35-11.2 37.23-11.2v-37.62c-14.28 0-27.98 2.86-40.43 8.06-18.67 7.79-34.54 20.78-45.78 37.2a101.73 101.73 0 0 0-17.85 57.65v6.03c0 7.88-1.61 15.29-4.51 22.08-4.36 10.17-11.7 18.92-20.97 25.09-9.28 6.17-20.38 9.77-32.51 9.78h-128.24v37.61h-.01z" style="fill:url(#SVGID_36_)"/><linearGradient id="SVGID_37_" gradientUnits="userSpaceOnUse" x1="621.408" y1="549.658" x2="1079.481" y2="1373.957"><stop offset="0" style="stop-color:#1b36ff"/><stop offset="1" style="stop-color:#00fcf1"/></linearGradient><path d="M656.77 874.9c9.26 0 17.99 1.84 25.94 5.16 11.92 4.97 22.09 13.31 29.23 23.73 7.13 10.44 11.26 22.86 11.27 36.39v6.02c0 13.04 2.69 25.56 7.56 36.91 7.3 17.02 19.44 31.41 34.69 41.58 15.24 10.17 33.69 16.11 53.38 16.1H981.2v85.9h37.62v-123.53H818.83c-8.09 0-15.71-1.61-22.65-4.5-10.41-4.34-19.29-11.62-25.52-20.72-6.23-9.11-9.82-19.93-9.83-31.73v-6.02c0-14.19-2.93-27.81-8.22-40.15-7.94-18.52-21.15-34.18-37.74-45.24-16.58-11.06-36.66-17.52-58.1-17.52v37.62z" style="fill:url(#SVGID_37_)"/><path class="st37" d="M822.57 832.35c8.28 0 14.88 3.68 19.62 10.95l.87 1.34 10.68-7.77-.72-1.17c-6.31-10.15-17.73-16.22-30.53-16.22h-.58c-9.85 0-19.52 4.05-26.54 11.12-6.84 6.89-10.5 15.84-10.3 25.13-.2 9.35 3.46 18.3 10.3 25.19 7.01 7.06 16.68 11.12 26.54 11.12h.56c12.93 0 24.36-6.07 30.56-16.23l.71-1.16-10.68-7.77-.87 1.34c-4.74 7.26-11.34 10.95-19.62 10.95-13.17 0-23.1-10.06-23.1-23.4.01-13.36 9.94-23.42 23.1-23.42zM892.9 850.52l-7.6-3.44-.98-.49c-6.1-3.04-7.4-3.82-7.71-7.77 0-4.92 4.56-6.67 8.83-6.67 5.23 0 9.77 2.59 13.12 7.5l.9 1.32 9.98-7.58-.66-1.13c-4.69-8-13.41-12.78-23.33-12.78-13.12 0-23.02 8.49-23.02 19.75 0 10.95 8.5 16.26 16.8 20.02l7.55 3.47c7.36 3.37 9.15 5.08 9.15 8.75 0 4.79-4.03 7.89-10.28 7.89-6.66 0-11.79-3.1-16.64-10.06l-.9-1.29-10.07 7.55.66 1.14c5.66 9.75 15.52 15.34 27.06 15.34 14.35 0 24.36-8.62 24.36-20.97-.01-9.08-4.99-15.02-17.22-20.55zM950.18 850.52l-7.6-3.44-.98-.49c-6.1-3.04-7.4-3.82-7.71-7.77 0-4.92 4.56-6.67 8.83-6.67 5.23 0 9.77 2.59 13.12 7.5l.9 1.32 9.98-7.58-.66-1.13c-4.69-8-13.41-12.78-23.33-12.78-13.12 0-23.02 8.49-23.02 19.75 0 10.95 8.5 16.26 16.8 20.02l7.55 3.47c7.36 3.37 9.15 5.08 9.15 8.75 0 4.79-4.03 7.89-10.28 7.89-6.66 0-11.79-3.1-16.64-10.06l-.9-1.29-10.07 7.55.66 1.14c5.66 9.75 15.52 15.34 27.06 15.34 14.35 0 24.36-8.62 24.36-20.97 0-9.08-4.99-15.02-17.22-20.55zM1002.22 819.48l-31.4 71.43h14.99l4.86-11.22h28.72l4.86 11.22h15.09l-31.4-71.43h-5.72zm-6.38 47.94 9.22-22.38 9.14 22.38h-18.36zM1038.72 851h28.46v12.06h-28.46zM1097.97 819.48l-31.4 71.43h14.99l4.86-11.22h28.71l4.86 11.22h15.09l-31.4-71.43h-5.71zm-6.38 47.94 9.22-22.38 9.14 22.38h-18.36zM1156.1 859.9h25.54v-12.37h-25.54v-14.26h33.91V820.6h-47.9v70.3h49.15v-12.67h-35.16zM1200.95 820.6h13.98v70.3h-13.98z"/></svg>