<svg width="2521" height="598" viewBox="0 0 2521 598" fill="none" xmlns="http://www.w3.org/2000/svg">
<path d="M598 299C598 464.133 464.133 598 299 598C133.867 598 0 464.133 0 299C0 133.867 133.867 0 299 0C464.133 0 598 133.867 598 299Z" fill="white"/>
<path d="M598 299C598 464.133 464.133 598 299 598C133.867 598 0 464.133 0 299C0 133.867 133.867 0 299 0C464.133 0 598 133.867 598 299Z" fill="white"/>
<path d="M598 299C598 464.133 464.133 598 299 598C133.867 598 0 464.133 0 299C0 133.867 133.867 0 299 0C464.133 0 598 133.867 598 299Z" fill="black"/>
<path d="M212.405 120.405C169.487 110.056 104.769 87.9424 251.753 173.874C266.187 182.312 268.3 194.694 263.815 198.317C254.98 205.457 243.625 204.064 233.067 194.545C222.277 184.816 212.488 180.647 205.575 182.836C197.394 185.427 171.138 212.108 169.516 219.477C167.741 227.539 172.188 236.881 182.419 246.588C189.745 253.539 191.936 263.31 188.297 272.778C185.92 278.958 174.293 283.581 161.133 283.581C150.813 283.581 147.846 284.658 141.961 290.529C135.341 297.137 135 298.482 135 318.047C135 337.612 135.341 338.957 141.961 345.565C147.846 351.436 150.813 352.513 161.133 352.513C174.293 352.513 185.92 357.136 188.297 363.316C191.936 372.784 189.745 382.555 182.419 389.506C172.257 399.149 167.632 408.75 169.487 416.354C171.557 424.832 198.53 451.799 206.739 453.598C214.446 455.288 220.967 452.265 233.246 441.307C244.515 431.25 256.183 430.461 264.901 439.165C269.836 444.088 270.748 447.268 270.748 459.55C270.748 472.467 271.532 474.886 277.709 481.052C284.356 487.686 285.626 488 305.759 488C320.83 488 328.329 486.964 332.047 484.366C338.032 480.18 342.161 467.444 342.18 453.113C342.192 445.224 343.485 442.17 348.47 438.257C358.57 430.328 369.177 431.763 381.023 442.662C399.104 459.296 407.959 457.884 429.75 434.889C446.523 417.188 438.907 405.893 423.548 389.506C411.076 376.197 414.634 389.918 426.337 360.599C431.505 347.652 417.067 338.484 403.706 334.279C392.203 330.658 380.864 330.868 375.019 334.279C372.28 335.877 375.019 333.649 370.016 347.646C362.271 363.445 350.885 374.752 333.118 382.869C315.481 390.93 288.726 389.793 272.491 380.297C232.815 357.091 222.92 306.077 251.753 273.384C269.305 253.482 282.353 247.834 308.853 248.661C322.278 249.082 329.572 250.665 338.217 255.031C351.086 261.533 363.384 271.684 370.016 283.581C372.15 287.666 372.926 287.494 375.949 297.136C377.307 298.267 379.05 298.845 381.023 299.07C386.348 299.678 393.343 299.652 398.925 299.07C413.422 297.559 425.451 290.251 423.548 270.857C419.891 233.576 425.751 234.272 436.219 233.071C441.908 226.911 441 228.297 459.169 210.156C464.14 199.113 465.863 178.648 454.388 167.19C444.825 157.642 429.75 154.778 423.548 154.778C412.313 154.778 398.925 158.843 380.947 193.565C369.173 204.323 358.515 205.726 348.47 197.837C343.197 193.698 342.195 191.027 342.195 181.122C342.195 167.11 337.308 154.222 330.644 150.661C328.001 149.249 325.109 145.06 308.853 141.41C287.588 136.636 241.144 127.335 212.405 120.405Z" fill="#F1F1F1"/>
<path d="M436.219 233.071C443.478 238.582 459.169 261.715 459.169 261.715C459.169 261.715 462.994 252.167 459.169 233.071C455.344 213.975 459.169 210.156 459.169 210.156C441 228.297 441.908 226.911 436.219 233.071Z" fill="#F1F1F1"/>
<path d="M750.2 451C730.467 451 712.733 446.2 697 436.6C681.267 427 668.867 413.933 659.8 397.4C650.733 380.867 646.2 362.2 646.2 341.4C646.2 320.6 650.733 301.933 659.8 285.4C668.867 268.867 681.267 255.8 697 246.2C712.733 236.6 730.467 231.8 750.2 231.8C769.133 231.8 786.333 235.4 801.8 242.6C817.267 249.8 829.267 259.8 837.8 272.6L810.6 305.4C806.6 299.8 801.533 294.733 795.4 290.2C789.267 285.667 782.733 282.067 775.8 279.4C768.867 276.733 761.933 275.4 755 275.4C743.267 275.4 732.733 278.333 723.4 284.2C714.333 289.8 707.133 297.667 701.8 307.8C696.467 317.667 693.8 328.867 693.8 341.4C693.8 353.933 696.467 365.133 701.8 375C707.4 384.867 714.867 392.733 724.2 398.6C733.533 404.467 743.933 407.4 755.4 407.4C762.333 407.4 769 406.333 775.4 404.2C782.067 401.8 788.333 398.467 794.2 394.2C800.067 389.933 805.533 384.6 810.6 378.2L837.8 411.4C828.733 423.133 816.2 432.733 800.2 440.2C784.467 447.4 767.8 451 750.2 451ZM920.625 451C905.425 451 892.225 447.667 881.025 441C869.825 434.067 861.292 424.333 855.425 411.8C849.558 399 846.625 383.8 846.625 366.2V236.2H895.825V355.8C895.825 367 897.558 376.6 901.025 384.6C904.492 392.333 909.558 398.333 916.225 402.6C922.892 406.867 930.892 409 940.225 409C947.158 409 953.425 407.933 959.025 405.8C964.892 403.4 969.958 400.2 974.225 396.2C978.492 391.933 981.825 387 984.225 381.4C986.625 375.533 987.825 369.267 987.825 362.6V236.2H1037.03V447H989.025L988.225 403L997.025 398.2C993.825 408.333 988.358 417.4 980.625 425.4C973.158 433.133 964.225 439.4 953.825 444.2C943.425 448.733 932.358 451 920.625 451ZM1255.09 447V167H1307.09V447H1255.09ZM1075.49 447V167H1127.49V447H1075.49ZM1097.09 331.8V283H1280.29V331.8H1097.09ZM1425.32 451C1407.99 451 1392.26 446.2 1378.12 436.6C1363.99 427 1352.66 413.933 1344.12 397.4C1335.59 380.867 1331.32 362.067 1331.32 341C1331.32 319.933 1335.59 301.133 1344.12 284.6C1352.66 268.067 1364.26 255.133 1378.92 245.8C1393.59 236.467 1410.12 231.8 1428.52 231.8C1439.19 231.8 1448.92 233.4 1457.72 236.6C1466.52 239.533 1474.26 243.8 1480.92 249.4C1487.59 255 1493.06 261.4 1497.32 268.6C1501.86 275.8 1504.92 283.533 1506.52 291.8L1495.72 289V236.2H1545.32V447H1495.32V396.6L1506.92 394.6C1505.06 401.8 1501.59 408.867 1496.52 415.8C1491.72 422.467 1485.59 428.467 1478.12 433.8C1470.92 438.867 1462.79 443 1453.72 446.2C1444.92 449.4 1435.46 451 1425.32 451ZM1438.92 407.4C1450.39 407.4 1460.52 404.6 1469.32 399C1478.12 393.4 1484.92 385.667 1489.72 375.8C1494.79 365.667 1497.32 354.067 1497.32 341C1497.32 328.2 1494.79 316.867 1489.72 307C1484.92 297.133 1478.12 289.4 1469.32 283.8C1460.52 278.2 1450.39 275.4 1438.92 275.4C1427.46 275.4 1417.32 278.2 1408.52 283.8C1399.99 289.4 1393.32 297.133 1388.52 307C1383.72 316.867 1381.32 328.2 1381.32 341C1381.32 354.067 1383.72 365.667 1388.52 375.8C1393.32 385.667 1399.99 393.4 1408.52 399C1417.32 404.6 1427.46 407.4 1438.92 407.4ZM1664.76 451C1645.03 451 1627.3 446.2 1611.56 436.6C1595.83 427 1583.43 413.933 1574.36 397.4C1565.3 380.867 1560.76 362.2 1560.76 341.4C1560.76 320.6 1565.3 301.933 1574.36 285.4C1583.43 268.867 1595.83 255.8 1611.56 246.2C1627.3 236.6 1645.03 231.8 1664.76 231.8C1683.7 231.8 1700.9 235.4 1716.36 242.6C1731.83 249.8 1743.83 259.8 1752.36 272.6L1725.16 305.4C1721.16 299.8 1716.1 294.733 1709.96 290.2C1703.83 285.667 1697.3 282.067 1690.36 279.4C1683.43 276.733 1676.5 275.4 1669.56 275.4C1657.83 275.4 1647.3 278.333 1637.96 284.2C1628.9 289.8 1621.7 297.667 1616.36 307.8C1611.03 317.667 1608.36 328.867 1608.36 341.4C1608.36 353.933 1611.03 365.133 1616.36 375C1621.96 384.867 1629.43 392.733 1638.76 398.6C1648.1 404.467 1658.5 407.4 1669.96 407.4C1676.9 407.4 1683.56 406.333 1689.96 404.2C1696.63 401.8 1702.9 398.467 1708.76 394.2C1714.63 389.933 1720.1 384.6 1725.16 378.2L1752.36 411.4C1743.3 423.133 1730.76 432.733 1714.76 440.2C1699.03 447.4 1682.36 451 1664.76 451ZM1807.99 382.6L1798.39 336.6L1898.39 236.2H1963.99L1807.99 382.6ZM1761.99 447V151H1811.19V447H1761.99ZM1904.39 447L1826.79 353L1861.59 323.4L1965.19 447H1904.39ZM1975.13 447V236.2H2024.33V447H1975.13ZM1999.13 191.4C1989.27 191.4 1981.53 189 1975.93 184.2C1970.6 179.133 1967.93 172.067 1967.93 163C1967.93 154.467 1970.73 147.533 1976.33 142.2C1981.93 136.867 1989.53 134.2 1999.13 134.2C2009.27 134.2 2017 136.733 2022.33 141.8C2027.93 146.6 2030.73 153.667 2030.73 163C2030.73 171.267 2027.93 178.067 2022.33 183.4C2016.73 188.733 2009 191.4 1999.13 191.4ZM2058.72 447V236.2H2106.72L2107.52 279.4L2098.32 284.2C2100.99 274.6 2106.19 265.933 2113.92 258.2C2121.66 250.2 2130.86 243.8 2141.52 239C2152.19 234.2 2163.12 231.8 2174.32 231.8C2190.32 231.8 2203.66 235 2214.32 241.4C2225.26 247.8 2233.39 257.4 2238.72 270.2C2244.32 283 2247.12 299 2247.12 318.2V447H2197.92V321.8C2197.92 311.133 2196.46 302.333 2193.52 295.4C2190.59 288.2 2186.06 283 2179.92 279.8C2173.79 276.333 2166.32 274.733 2157.52 275C2150.32 275 2143.66 276.2 2137.52 278.6C2131.66 280.733 2126.46 283.933 2121.92 288.2C2117.66 292.2 2114.19 296.867 2111.52 302.2C2109.12 307.533 2107.92 313.4 2107.92 319.8V447H2083.52C2078.72 447 2074.19 447 2069.92 447C2065.92 447 2062.19 447 2058.72 447ZM2369.27 539C2353.54 539 2337.81 536.6 2322.07 531.8C2306.61 527 2294.07 520.733 2284.47 513L2302.07 476.6C2307.67 480.6 2313.94 484.067 2320.87 487C2327.81 489.933 2335.14 492.2 2342.87 493.8C2350.87 495.4 2358.74 496.2 2366.47 496.2C2380.61 496.2 2392.34 493.933 2401.67 489.4C2411.27 485.133 2418.47 478.467 2423.27 469.4C2428.07 460.6 2430.47 449.533 2430.47 436.2V397.4L2437.67 400.2C2436.07 408.467 2431.67 416.333 2424.47 423.8C2417.27 431.267 2408.21 437.4 2397.27 442.2C2386.34 446.733 2375.14 449 2363.67 449C2343.67 449 2325.94 444.333 2310.47 435C2295.27 425.667 2283.14 413 2274.07 397C2265.27 380.733 2260.87 362.067 2260.87 341C2260.87 319.933 2265.27 301.267 2274.07 285C2282.87 268.467 2294.87 255.533 2310.07 246.2C2325.54 236.6 2342.87 231.8 2362.07 231.8C2370.07 231.8 2377.81 232.733 2385.27 234.6C2392.74 236.467 2399.54 239.133 2405.67 242.6C2412.07 246.067 2417.81 249.933 2422.87 254.2C2427.94 258.467 2432.07 263 2435.27 267.8C2438.47 272.6 2440.47 277.267 2441.27 281.8L2430.87 285L2431.67 236.2H2480.07V432.6C2480.07 449.667 2477.54 464.733 2472.47 477.8C2467.41 490.867 2460.07 501.933 2450.47 511C2440.87 520.333 2429.27 527.267 2415.67 531.8C2402.07 536.6 2386.61 539 2369.27 539ZM2371.27 407C2383.27 407 2393.81 404.2 2402.87 398.6C2412.21 393 2419.41 385.267 2424.47 375.4C2429.54 365.533 2432.07 354.2 2432.07 341.4C2432.07 328.333 2429.41 316.867 2424.07 307C2419.01 296.867 2411.94 289 2402.87 283.4C2393.81 277.8 2383.27 275 2371.27 275C2359.27 275 2348.74 277.933 2339.67 283.8C2330.61 289.4 2323.41 297.267 2318.07 307.4C2313.01 317.267 2310.47 328.6 2310.47 341.4C2310.47 353.933 2313.01 365.267 2318.07 375.4C2323.41 385.267 2330.61 393 2339.67 398.6C2348.74 404.2 2359.27 407 2371.27 407Z" fill="black"/>
</svg>
