<svg
   width="452mm"
   height="175mm"
   viewBox="0 0 452 175"
   version="1.1"
   id="svg5"
   sodipodi:docname="EEF.svg"
   inkscape:version="1.3 (0e150ed6c4, 2023-07-21)"
   xml:space="preserve"
   xmlns:inkscape="http://www.inkscape.org/namespaces/inkscape"
   xmlns:sodipodi="http://sodipodi.sourceforge.net/DTD/sodipodi-0.dtd"
   xmlns="http://www.w3.org/2000/svg"
   xmlns:svg="http://www.w3.org/2000/svg"><sodipodi:namedview
     id="namedview7"
     pagecolor="#ffffff"
     bordercolor="#eeeeee"
     borderopacity="1"
     inkscape:showpageshadow="0"
     inkscape:pageopacity="0"
     inkscape:pagecheckerboard="0"
     inkscape:deskcolor="#505050"
     inkscape:document-units="mm"
     showgrid="false"
     inkscape:zoom="0.59714111"
     inkscape:cx="625.48029"
     inkscape:cy="570.21697"
     inkscape:window-width="1920"
     inkscape:window-height="991"
     inkscape:window-x="-9"
     inkscape:window-y="-9"
     inkscape:window-maximized="1"
     inkscape:current-layer="layer1"
     showguides="true"
     inkscape:lockguides="false" /><defs
     id="defs2" /><g
     inkscape:label="Layer 1"
     inkscape:groupmode="layer"
     id="layer1"
     transform="matrix(1.1902988,0,0,1.0813254,-2.3605494,-9.9345704)"><path
       id="rect3122"
       style="fill:#df4526;fill-opacity:1;stroke-width:0.22535;stroke-linecap:round;stroke-linejoin:round;paint-order:fill markers stroke;stop-color:#000000"
       d="M 44.808939,18.640988 117.06651,70.490415 75.348562,160.29625 3.0910077,108.44684 Z" /><path
       id="rect3124"
       style="fill:#df4526;fill-opacity:1;stroke:#ffffff;stroke-width:14.3097;stroke-linecap:square;paint-order:fill markers stroke;stop-color:#000000"
       d="M 30.009533,52.096839 H 90.147999 V 126.84031 H 30.009528 Z" /><text
       xml:space="preserve"
       style="font-style:normal;font-variant:normal;font-weight:bold;font-stretch:normal;font-size:73.9451px;line-height:1.25;font-family:'Helvetica Now Text';-inkscape-font-specification:'Helvetica Now Text, Bold';font-variant-ligatures:normal;font-variant-caps:normal;font-variant-numeric:normal;font-variant-east-asian:normal;letter-spacing:3.76234px;stroke-width:1.84862"
       x="147.27101"
       y="106.65192"
       id="text3199"
       transform="scale(0.89699366,1.1148351)"><tspan
         sodipodi:role="line"
         id="tspan3197"
         style="font-style:normal;font-variant:normal;font-weight:bold;font-stretch:normal;font-size:73.9451px;font-family:'Helvetica Now Text';-inkscape-font-specification:'Helvetica Now Text, Bold';font-variant-ligatures:normal;font-variant-caps:normal;font-variant-numeric:normal;font-variant-east-asian:normal;stroke-width:1.84862"
         x="147.27101"
         y="106.65192">EEF</tspan></text><text
       xml:space="preserve"
       style="font-style:normal;font-variant:normal;font-weight:normal;font-stretch:normal;font-size:15.0493px;line-height:1.25;font-family:'Helvetica Now Text';-inkscape-font-specification:'Helvetica Now Text, Normal';font-variant-ligatures:normal;font-variant-caps:normal;font-variant-numeric:normal;font-variant-east-asian:normal;letter-spacing:-0.761073px;stroke-width:0.46436"
       x="333.22641"
       y="66.603264"
       id="text3253"
       transform="scale(0.89699366,1.1148351)"><tspan
         sodipodi:role="line"
         id="tspan3251"
         style="font-style:normal;font-variant:normal;font-weight:normal;font-stretch:normal;font-size:15.0493px;font-family:'Helvetica Now Text';-inkscape-font-specification:'Helvetica Now Text, Normal';font-variant-ligatures:normal;font-variant-caps:normal;font-variant-numeric:normal;font-variant-east-asian:normal;stroke-width:0.46436"
         x="333.22641"
         y="66.603264">Engineering</tspan><tspan
         sodipodi:role="line"
         style="font-style:normal;font-variant:normal;font-weight:normal;font-stretch:normal;font-size:15.0493px;font-family:'Helvetica Now Text';-inkscape-font-specification:'Helvetica Now Text, Normal';font-variant-ligatures:normal;font-variant-caps:normal;font-variant-numeric:normal;font-variant-east-asian:normal;stroke-width:0.46436"
         x="333.22641"
         y="85.414886"
         id="tspan4624">Endowement</tspan><tspan
         sodipodi:role="line"
         style="font-style:normal;font-variant:normal;font-weight:normal;font-stretch:normal;font-size:15.0493px;font-family:'Helvetica Now Text';-inkscape-font-specification:'Helvetica Now Text, Normal';font-variant-ligatures:normal;font-variant-caps:normal;font-variant-numeric:normal;font-variant-east-asian:normal;stroke-width:0.46436"
         x="333.22641"
         y="104.22652"
         id="tspan4626">Fund</tspan></text><path
       style="fill:none;stroke:#000000;stroke-width:1.25411px;stroke-linecap:butt;stroke-linejoin:miter;stroke-opacity:1"
       d="M 280.19948,60.204534 V 118.89928"
       id="path4691"
       sodipodi:nodetypes="cc" /><path
       id="path4877"
       style="fill:#ffffff;fill-opacity:1;stroke-width:0.143722"
       d="m 59.912088,70.005212 c -0.700641,-0.0015 -1.374325,0.06351 -1.901023,0.202577 -1.794658,0.474475 -3.44199,1.730422 -4.453088,3.394778 l -0.535824,0.882134 h -1.669579 -1.669588 l 0.03319,1.00149 0.03318,1.0015 -1.635452,0.04438 -1.635453,0.04436 V 92.64782 c 0,8.83919 0.03827,16.11954 0.0857,16.17827 0.04943,0.0614 6.167677,0.10635 13.600866,0.10635 H 73.679913 V 92.749769 76.566886 H 72.068442 70.457039 V 75.525567 74.483979 H 68.792158 67.127006 L 66.659319,73.692004 C 65.817351,72.26642 64.621767,71.20886 63.086259,70.53131 62.32269,70.194388 61.079912,70.007005 59.91213,70.004468 Z m 0.171429,1.780715 c 0.164482,0.002 0.331628,0.0094 0.500122,0.02271 2.375102,0.185802 4.137188,1.417202 5.262192,3.677546 l 0.378831,0.761142 h 1.336735 1.336704 l 0.03826,1.081454 0.03827,1.081464 1.643629,0.04497 1.643675,0.04435 V 92.755026 107.01043 H 60.079085 47.896469 V 92.754861 78.499397 l 1.643647,-0.04435 1.643695,-0.04497 0.03825,-1.081466 0.03827,-1.081463 h 1.329406 1.329453 l 0.45449,-0.850608 c 1.284752,-2.404972 3.242714,-3.640049 5.71007,-3.6108 z m -0.02539,8.559866 -3.534417,1.569099 c -6.34805,2.818236 -7.142884,3.17941 -7.241527,3.291889 -0.05494,0.06077 -0.0047,0.449628 0.108808,0.863344 0.21708,0.791686 0.327006,0.860779 0.914919,0.576686 0.199462,-0.0963 1.146121,-0.520919 2.103361,-0.9433 0.957232,-0.422381 3.062832,-1.357488 4.679293,-2.078089 l 2.938963,-1.310221 0.670793,0.268406 c 0.368627,0.147631 2.120974,0.918393 3.893604,1.713035 4.888965,2.191635 5.658488,2.525622 5.820945,2.525622 0.184152,0 0.59962,-1.457463 0.463824,-1.626571 -0.05483,-0.06693 -0.996948,-0.517079 -2.095506,-0.999642 -1.098519,-0.482625 -2.751628,-1.214046 -3.673356,-1.625442 -0.921779,-0.411376 -2.434968,-1.080213 -3.362692,-1.486352 z m -9.840532,7.117301 v 0.471208 c 0,0.259146 0.0577,0.51595 0.12857,0.570382 0.07088,0.05462 0.129099,0.245553 0.129099,0.424867 0,0.187259 0.106117,0.360495 0.248933,0.407001 0.136891,0.04455 0.272059,0.163853 0.301151,0.265367 0.02763,0.10143 0.01111,2.095275 -0.04395,4.430557 -0.05497,2.335304 -0.102296,4.475463 -0.107699,4.756045 -0.01111,0.433736 -0.06318,0.517776 -0.364924,0.560773 -0.309952,0.04127 -0.3594,0.128329 -0.395163,0.668696 -0.0224,0.33947 -0.01111,0.71854 0.02763,0.84203 0.0594,0.18972 1.578524,0.21853 9.967405,0.18377 l 9.898224,-0.0413 v -0.80119 c 0,-0.747236 -0.02119,-0.804338 -0.341415,-0.850167 l -0.341409,-0.04743 -0.07481,-2.434518 c -0.03825,-1.338968 -0.09916,-3.538817 -0.127912,-4.888626 l -0.05486,-2.45425 0.307823,-0.145373 c 0.180331,-0.08521 0.308252,-0.27592 0.308252,-0.460572 0,-0.173091 0.05783,-0.359489 0.128326,-0.413921 0.07101,-0.05462 0.128327,-0.311238 0.128327,-0.570382 v -0.471209 h -9.862124 z m 7.38678,0.974367 c 0.09399,-9.25e-4 0.217664,0.0061 0.380949,0.01848 0.594646,0.04209 0.681895,0.09322 0.718885,0.417392 0.02116,0.210647 0.173085,0.431025 0.346936,0.513157 l 0.304434,0.143935 -0.06045,2.931701 c -0.03405,1.612485 -0.09351,3.815085 -0.133992,4.894621 l -0.07354,1.962899 H 58.01586 56.94396 L 56.87295,98.157938 C 56.83468,97.519305 56.7738,95.31652 56.7399,93.263585 l -0.06168,-3.732462 0.315049,-0.149068 c 0.221497,-0.104722 0.315056,-0.2713 0.315056,-0.56182 0,-0.298055 0.01694,-0.38031 0.29633,-0.383102 z m -4.100765,0.0021 c 0.09287,-0.002 0.21379,0.0041 0.373178,0.01643 0.57677,0.04168 0.664757,0.09383 0.701573,0.416715 0.0224,0.216908 0.17425,0.431723 0.362164,0.520549 0.176059,0.08315 0.289561,0.212494 0.252117,0.28715 -0.03825,0.07494 -0.07143,1.859312 -0.0769,3.96588 -0.0044,2.106568 -0.0438,4.244673 -0.08583,4.751362 l -0.07653,0.92135 H 53.87658 c -1.01317,0 -1.080057,-0.02094 -1.135449,-0.36068 -0.03319,-0.198142 -0.09343,-2.403451 -0.135817,-4.90043 -0.07638,-4.507516 -0.0753,-4.540512 0.19178,-4.627346 0.168115,-0.05462 0.297318,-0.26284 0.344007,-0.55488 0.05492,-0.338729 0.08242,-0.431415 0.361615,-0.437165 z m 8.250613,0 c 0.09268,-0.002 0.214327,0.0041 0.373299,0.01643 0.571693,0.04168 0.665101,0.09568 0.700813,0.407886 0.02539,0.222 0.158987,0.396858 0.347368,0.455665 l 0.306122,0.09548 -0.06214,3.950582 c -0.03405,2.172766 -0.09351,4.401032 -0.13179,4.951825 l -0.06977,1.001531 h -1.07173 -1.071945 l -0.07481,-2.603791 c -0.210024,-7.287889 -0.210871,-7.199782 0.06548,-7.289716 0.151797,-0.04907 0.283159,-0.269843 0.328232,-0.549767 0.05481,-0.338731 0.08203,-0.431416 0.360974,-0.437123 z m 4.8141,0.0019 c 0.258514,0.01032 0.320575,0.09527 0.402637,0.365033 0.06723,0.219681 0.246199,0.481885 0.397536,0.582435 0.273386,0.181716 0.274257,0.208798 0.177771,3.975386 -0.05481,2.085849 -0.101674,4.261243 -0.107584,4.834048 l -0.01298,1.041344 -1.109185,0.04743 -1.109232,0.04743 -0.08286,-0.990873 c -0.0438,-0.545065 -0.08328,-2.774215 -0.08328,-4.954126 0,-3.770283 0.01298,-3.967418 0.246594,-4.043739 0.13655,-0.04455 0.266142,-0.250253 0.289974,-0.459422 0.03826,-0.32947 0.123696,-0.385402 0.656077,-0.427864 0.137813,-0.01232 0.245756,-0.01643 0.332063,-0.01437 z m -6.480902,13.762389 c -6.297318,0 -10.657735,0.0614 -10.700992,0.14661 -0.03827,0.0805 -0.01656,0.34014 0.05827,0.57716 0.09065,0.29575 0.194577,0.40022 0.333589,0.33402 0.111011,-0.0546 4.867507,-0.0963 10.569525,-0.0963 h 10.367273 v -0.48088 -0.48088 z m -11.287871,1.76264 v 0.48084 0.48088 h 11.280211 11.280503 v -0.48088 -0.48084 H 60.079762 Z" /></g></svg>
