<svg version="1.1" id="Layer_1" xmlns="http://www.w3.org/2000/svg" x="0" y="0" viewBox="0 0 500 500" style="enable-background:new 0 0 500 500" xml:space="preserve"><style>.st0{fill:#6dbe45}.st1{font-family:&apos;Helvetica-Bold&apos;}</style><text transform="matrix(1.05 0 0 1 90.757 368.074)" class="st0 st1" style="font-size:21px">Engineering Endowment Fund</text><path class="st0" d="M64.77 231.65h87.75v28.79H64.77zM64.77 167.12h94.93v29.37H64.77z"/><path class="st0" d="M38.12 332.88h34.05v-29.79h-.19v-42.65h.19v-28.79h-.19v-35.2h.19v-29.33H38.12z"/><path class="st0" d="M58.58 303.09h105.18v29.79H58.58zM220.76 167.12h92.56v29.37h-92.56zM222.3 231.65h83.8v28.79h-83.8zM220.76 303.09h96.59v29.79h-96.59z"/><path class="st0" d="M191.75 167.12h30.56v165.76h-30.56zM344.38 167.35h32.28v165.53h-32.28z"/><path class="st0" d="M371.89 234.57h79.62v28.79h-79.62zM373.66 167.35h88.22v29.14h-88.22z"/><text transform="matrix(1.05 0 0 1 41.697 146)" class="st0 st1" style="font-size:20px">University of Ottawa / Université d’Ottawa</text></svg>