<svg xmlns="http://www.w3.org/2000/svg" fill="none" viewBox="0 0 635 96"><path fill="#C11F25" d="M577.796 3.604h-.254v3.954h.254V3.604Z"/><path fill="#C11F25" d="M585.957 54.268h-16.576v40.036h16.576V54.268Z"/><path fill="#C11F25" d="M585.957 36.227h-16.576V52.29h16.576V36.227Z"/><path fill="#84010B" d="M566.32 52.29h22.696l-1.274 1.978h-20.147l-1.275-1.977Z"/><path fill="#C11F25" d="M568.744 38.698a.376.376 0 0 0 .382-.37.376.376 0 0 0-.382-.372.377.377 0 0 0-.383.371c0 .205.171.37.383.37Z"/><path fill="#C11F25" d="M586.594 38.698a.376.376 0 0 0 .382-.37.376.376 0 0 0-.382-.372.376.376 0 0 0-.382.371c0 .205.171.37.382.37Z"/><path fill="#84010B" d="m577.669 7.558 8.282 28.73h-16.564l8.282-28.73Z"/><path fill="#84010B" d="M578.56 6.57h-1.785v3.954h1.785V6.57Z"/><path fill="#F6BFBF" d="M587.741 42.405h-2.295v9.886h2.295v-9.886Z"/><path fill="#F6BFBF" d="M569.891 42.405h-2.295v9.886h2.295v-9.886Z"/><path fill="#EEE4D4" d="M572.951 64.648c.281 0 .51-1.881.51-4.202 0-2.32-.229-4.201-.51-4.201-.282 0-.511 1.88-.511 4.201 0 2.32.229 4.202.511 4.202Z"/><path fill="#EEE4D4" d="M576.011 64.648c.281 0 .51-1.881.51-4.202 0-2.32-.229-4.201-.51-4.201s-.51 1.88-.51 4.201c0 2.32.229 4.202.51 4.202Z"/><path fill="#EEE4D4" d="M582.131 64.648c.281 0 .51-1.881.51-4.202 0-2.32-.229-4.201-.51-4.201s-.51 1.88-.51 4.201c0 2.32.229 4.202.51 4.202Z"/><path fill="#EEE4D4" d="M579.072 64.648c.281 0 .51-1.881.51-4.202 0-2.32-.229-4.201-.51-4.201-.282 0-.51 1.88-.51 4.201 0 2.32.228 4.202.51 4.202Z"/><path fill="#C11F25" d="M582.897.391h-5.355v3.213h5.355V.391Z"/><path fill="#84010B" d="m568.744 37.956-1.216 4.634h2.43l-1.214-4.634Z"/><path fill="#84010B" d="m586.594 37.956-1.214 4.634h2.429l-1.215-4.634Z"/><path fill="#F6BFBF" d="M577.796 51.055c3.802 0 6.886-2.988 6.886-6.673s-3.084-6.673-6.886-6.673-6.886 2.988-6.886 6.673 3.084 6.673 6.886 6.673Z"/><path fill="#EEE4D4" d="M577.796 50.066c3.24 0 5.866-2.545 5.866-5.684 0-3.14-2.626-5.684-5.866-5.684-3.239 0-5.865 2.545-5.865 5.684 0 3.14 2.626 5.684 5.865 5.684Z"/><path fill="#C11F25" d="M577.668 45.123a.628.628 0 0 0 .638-.617.628.628 0 0 0-.638-.618.628.628 0 0 0-.638.618c0 .34.286.617.638.617Z"/><path fill="#84010B" d="M57.986 94.304V50.73c0-12.272-9.045-19.66-22.095-19.66-8.527 0-16.28 4.133-18.735 9.642V10.158H.36v84.146h16.797V58.993c0-8.264 4.652-15.026 13.05-15.026 7.624 0 10.854 2.88 10.854 12.146v38.191h16.926Zm45.86-23.415c-.13 7.262-6.59 13.398-15.247 13.398-5.297 0-8.14-2.254-8.14-6.887 0-5.26 3.101-7.889 12.662-9.642 6.202-1.127 9.174-2.003 10.854-3.631l-.129 6.762Zm16.926 23.415V55.362c0-15.527-6.977-24.292-27.134-24.292-20.415 0-27.65 8.89-27.909 21.662h15.635c.775-5.51 3.876-9.14 11.499-9.14 6.59 0 10.724 2.378 10.724 6.385 0 4.258-2.326 5.886-10.724 7.013-16.926 2.253-29.2 4.257-29.2 22.038 0 10.017 6.718 16.904 21.19 16.904 8.527 0 15.246-2.88 19.251-7.137.129 1.878.517 4.007 1.034 5.51h15.634Zm47.72-22.288c-.646 6.636-5.814 10.267-12.404 10.267-6.589 0-12.404-6.51-12.404-19.91 0-13.397 5.815-17.78 12.921-17.78 6.331 0 11.112 3.757 12.016 10.143h16.926c-1.033-14.526-12.274-23.666-28.813-23.666-17.83 0-29.718 9.641-29.718 31.68 0 22.038 11.888 33.182 29.201 33.182 15.376 0 27.392-9.642 29.201-23.916h-16.926Zm79.779 22.288-20.802-38.942 21.319-22.665h-20.544l-20.932 23.416V10.158h-16.926v84.146h16.926V74.77l8.14-8.139 13.955 27.673h18.864Zm71.788-24.542c0 7.638-3.101 12.02-9.82 12.02-6.848 0-9.69-4.507-9.69-12.27V44.216h35.144v-11.52h-35.144V16.043H284.01V71.14c0 13.273 7.365 24.793 25.971 24.793 17.96 0 25.712-11.645 25.712-24.668v-17.53h-15.634v16.028Zm80.125 24.542V50.73c0-12.272-9.045-19.66-22.094-19.66-8.528 0-16.281 4.133-18.736 9.642V10.158h-16.797v84.146h16.797V58.993c0-8.264 4.652-15.026 13.05-15.026 7.624 0 10.854 2.88 10.854 12.146v38.191h16.926Zm23.248-36.814c.646-8.514 6.202-13.523 12.921-13.523 6.589 0 12.791 4.383 13.05 13.523h-25.971Zm43.284 10.268c0-24.417-10.336-36.688-29.846-36.688-19.511 0-30.752 12.27-30.752 31.304 0 22.289 10.595 33.558 31.785 33.558 13.567 0 24.033-7.137 27.909-19.784h-17.314c-1.163 4.257-5.943 6.887-11.37 6.887-8.269 0-13.696-6.01-14.213-15.277h43.801Z"/><path fill="#84010B" d="M561.315 94.304V50.73c0-12.272-9.044-19.66-22.094-19.66-8.528 0-16.281 4.133-18.736 9.642V10.158h-16.797v84.146h16.797V58.993c0-8.264 4.652-15.026 13.05-15.026 7.624 0 10.854 2.88 10.854 12.146v38.191h16.926Z"/><path fill="#84010B" d="M610.703 94.304V10.158h-16.797v84.146h16.797Zm23.848 0V10.158h-16.797v84.146h16.797Z"/></svg>
