<svg width="44" height="70" viewBox="0 0 120 80" fill="none" xmlns="http://www.w3.org/2000/svg">
<g filter="url(#filter0_f_343_91)">
<path d="M57.8357 75V47.3877C57.8357 39.6165 52.4963 34.9043 44.7662 34.9043C39.7456 34.9043 35.1235 37.5498 33.689 41.022V21.6768H23.7275V75H33.689V52.596C33.689 47.3877 36.4783 43.0888 41.4192 43.0888C45.9616 43.0888 47.8742 44.9075 47.8742 50.7772V75H57.8357Z" fill="#7500FF" stroke="#7500FF"/>
<path d="M87.0828 75V21.6768H77.1213V75H87.0828ZM101.188 75V21.6768H91.2268V75H101.188Z" fill="#7500FF" stroke="#7500FF"/>
<path d="M91.9646 74.72V70.4343C91.4692 72.7018 90.9607 73.6708 89.3293 74.72H91.9646Z" fill="#7500FF" stroke="#7500FF"/>
<path d="M100.31 74.72V70.4343C100.805 72.7018 101.313 73.6708 102.945 74.72H100.31Z" fill="#7500FF" stroke="#7500FF"/>
<path d="M91.9646 21.94V26.2257C91.4692 23.9583 90.9607 22.9892 89.3293 21.94H91.9646Z" fill="#7500FF" stroke="#7500FF"/>
<path d="M100.31 21.94V26.2257C100.805 23.9583 101.313 22.9892 102.945 21.94H100.31Z" fill="#7500FF" stroke="#7500FF"/>
<path d="M20.6196 62.7642H12.5707C10.2597 62.7642 8.90491 64.6656 8.90491 67.4765C8.90491 69.2952 9.70183 70.9487 10.6581 71.4447H5V74.9996H20.6196V71.4447H14.0849C12.5707 71.4447 11.2957 70.4526 11.2957 68.6339C11.2957 66.9804 11.8535 66.3191 13.527 66.3191H20.6196V62.7642ZM16.3163 52.9263C17.671 52.9263 18.7867 54.3317 18.7867 56.1505C18.7867 57.3079 18.3883 57.8866 17.5116 57.8866C16.5553 57.8866 16.0772 57.2252 15.7584 55.1584C15.5193 53.8357 15.36 53.1743 15.1209 52.8436L16.3163 52.9263ZM20.6196 49.3714H13.3677C10.4987 49.3714 8.82522 50.8595 8.82522 55.1584C8.82522 59.54 10.4987 61.0281 12.8895 61.1108V57.8039C11.8535 57.6386 11.216 56.9772 11.216 55.3238C11.216 53.9183 11.6941 53.0089 12.4114 53.0089C13.2083 53.0089 13.527 53.505 13.6864 55.3238C14.0849 58.9613 14.4833 61.5241 17.7507 61.5241C19.5836 61.5241 20.8587 60.1187 20.8587 56.9772C20.8587 55.1584 20.3009 53.753 19.5039 52.8436C19.8227 52.8436 20.2212 52.7609 20.5399 52.5956V49.3714H20.6196ZM16.4756 39.2028C17.671 39.3681 18.3883 40.4429 18.3883 41.8483C18.3883 43.2537 17.1929 44.4938 14.7224 44.4938C12.252 44.4938 11.3754 43.2537 11.3754 41.6829C11.3754 40.3602 12.0926 39.2855 13.288 39.1201V35.4826C10.5784 35.7306 8.90491 38.1281 8.90491 41.6003C8.90491 45.4032 10.6581 47.966 14.8021 47.966C18.9461 47.966 20.9384 45.4032 20.9384 41.7656C20.9384 38.4588 19.1852 35.8959 16.4756 35.5652V39.2028ZM20.6196 22.1725L13.3677 26.6367L9.22368 22.0898V26.4714L13.6067 30.9356H5V34.4905H20.6196V30.853H16.9538L15.4397 29.1169L20.6196 26.1407V22.1725Z" fill="#7500FF" stroke="#7500FF"/>
<path d="M43.6846 26.8749C43.6846 27.5362 43.4456 27.9496 42.808 27.9496C42.2502 27.9496 41.9314 27.5362 41.9314 26.8749V24.6427H44.9597V23.6507H41.9314V22.2453H40.5767V27.0402C40.5767 28.1976 41.2142 29.1897 42.808 29.1897C44.4019 29.1897 45.0394 28.1976 45.0394 27.0402V25.5521H43.6846V26.8749ZM50.6975 28.9417V25.1388C50.6975 24.064 49.9006 23.4027 48.7849 23.4027C48.0677 23.4027 47.3505 23.7334 47.1114 24.2294V21.6666H45.6769V28.9417H47.1114V25.8828C47.1114 25.1388 47.5099 24.5601 48.2271 24.5601C48.8646 24.5601 49.1834 24.8081 49.1834 25.6348V28.9417H50.6975ZM52.7695 25.8001C52.8492 25.0561 53.3274 24.6427 53.8852 24.6427C54.4431 24.6427 55.0009 25.0561 55.0009 25.8001H52.7695ZM56.5151 26.6269C56.5151 24.4774 55.6384 23.4853 53.8852 23.4853C52.132 23.4853 51.1757 24.5601 51.1757 26.2135C51.1757 28.1149 52.132 29.107 53.9649 29.107C55.1603 29.107 56.0369 28.5283 56.4354 27.3709H54.9212C54.8415 27.7016 54.3634 27.9496 53.9649 27.9496C53.2477 27.9496 52.7695 27.4536 52.6898 26.6269H56.5151Z" fill="#7500FF" stroke="#7500FF"/>
<path d="M77.91 74.72V70.4343C77.4145 72.7018 76.906 73.6708 75.2747 74.72H77.91Z" fill="#7500FF" stroke="#7500FF"/>
<path d="M86.2548 74.72V70.4343C86.7503 72.7018 87.2588 73.6708 88.8901 74.72H86.2548Z" fill="#7500FF" stroke="#7500FF"/>
<path d="M77.91 21.94V26.2257C77.4145 23.9583 76.906 22.9892 75.2747 21.94H77.91Z" fill="#7500FF" stroke="#7500FF"/>
<path d="M86.2548 21.94V26.2257C86.7503 23.9583 87.2588 22.9892 88.8901 21.94H86.2548Z" fill="#7500FF" stroke="#7500FF"/>
<g filter="url(#filter1_f_343_91)">
<g filter="url(#filter2_f_343_91)">
<path fill-rule="evenodd" clip-rule="evenodd" d="M72.5392 74.8336H62.2625L62.2625 48.0738V47.9L61.1768 47.9001L60.3413 46.5841H61.1835L61.0936 40.0919L61.7281 37.4266C61.6393 37.3713 61.5949 37.2607 61.5949 37.1967C61.5949 37.0213 61.6784 36.9335 61.8455 36.9335C62.0126 36.9335 62.0962 37.0213 62.0962 37.1967C62.0962 37.3232 62.0528 37.4041 61.966 37.4394L62.2626 38.6851L62.2625 35.7929L66.8812 18.4218H66.8577V15.7899H67.2816V12.619L67.4438 5H77.0315V12.8571H67.4438L67.4426 15.7899H67.9438V18.4218H67.924L72.5392 35.793V38.6925L72.8405 37.4271C72.751 37.3721 72.7063 37.2609 72.7063 37.1968C72.7063 37.0213 72.7898 36.9336 72.9569 36.9336C73.124 36.9336 73.2076 37.0213 73.2076 37.1968C73.2076 37.3228 73.1645 37.4035 73.0783 37.439L73.71 40.0919L73.6264 46.5837L73.6751 46.5841H74.4613L73.7093 47.9001L72.5392 47.9V48.0417V74.8336ZM67.4438 45.7068C69.7832 45.7068 71.7049 43.6889 71.7049 41.2324C71.7049 38.776 69.7832 36.7581 67.4438 36.7581C65.1044 36.7581 63.1828 38.776 63.1828 41.2324C63.1828 43.7767 65.1044 45.7068 67.4438 45.7068ZM64.435 54.9185C64.6021 54.9185 64.7692 53.6902 64.7692 52.1111C64.7692 50.5319 64.6021 49.3037 64.435 49.3037C64.2679 49.3037 64.1008 50.5319 64.1008 52.1111C64.1008 53.6902 64.2679 54.9185 64.435 54.9185ZM66.6913 52.1111C66.6913 53.6902 66.5242 54.9185 66.3571 54.9185C66.19 54.9185 66.0229 53.6902 66.0229 52.1111C66.0229 50.5319 66.19 49.3037 66.3571 49.3037C66.5242 49.3037 66.6913 50.5319 66.6913 52.1111ZM70.1166 54.9185C70.2837 54.9185 70.4508 53.6902 70.4508 52.1111C70.4508 50.5319 70.2837 49.3037 70.1166 49.3037C69.9495 49.3037 69.7824 50.5319 69.7824 52.1111C69.7824 53.6902 69.9495 54.9185 70.1166 54.9185ZM68.6134 52.1111C68.6134 53.6902 68.4463 54.9185 68.2792 54.9185C68.1121 54.9185 67.945 53.6902 67.945 52.1111C67.945 50.5319 68.1121 49.3037 68.2792 49.3037C68.4463 49.3037 68.6134 50.5319 68.6134 52.1111Z" fill="#7500FF"/>
<path d="M67.2816 15.7899H66.8577V18.4218H66.8812L62.2625 35.7929L62.2626 38.6851L61.966 37.4394C62.0528 37.4041 62.0962 37.3232 62.0962 37.1967C62.0962 37.0213 62.0126 36.9335 61.8455 36.9335C61.6784 36.9335 61.5949 37.0213 61.5949 37.1967C61.5949 37.2607 61.6393 37.3713 61.7281 37.4266L61.0936 40.0919L61.1835 46.5841H60.3413L61.1768 47.9001L62.2625 47.9V48.0738L62.2625 74.8336H72.5392V48.0417V47.9L73.7093 47.9001L74.4613 46.5841H73.6751L73.6264 46.5837L73.71 40.0919L73.0783 37.439C73.1645 37.4035 73.2076 37.3228 73.2076 37.1968C73.2076 37.0213 73.124 36.9336 72.9569 36.9336C72.7898 36.9336 72.7063 37.0213 72.7063 37.1968C72.7063 37.2609 72.751 37.3721 72.8405 37.4271L72.5392 38.6925V35.793L67.924 18.4218H67.9438V15.7899H67.4426M67.2816 15.7899V12.619L67.4438 5H77.0315V12.8571H67.4438L67.4426 15.7899M67.2816 15.7899L67.2815 15.7971M67.4426 15.7899V15.7942M71.7049 41.2324C71.7049 43.6889 69.7832 45.7068 67.4438 45.7068C65.1044 45.7068 63.1828 43.7767 63.1828 41.2324C63.1828 38.776 65.1044 36.7581 67.4438 36.7581C69.7832 36.7581 71.7049 38.776 71.7049 41.2324ZM64.7692 52.1111C64.7692 53.6902 64.6021 54.9185 64.435 54.9185C64.2679 54.9185 64.1008 53.6902 64.1008 52.1111C64.1008 50.5319 64.2679 49.3037 64.435 49.3037C64.6021 49.3037 64.7692 50.5319 64.7692 52.1111ZM66.3571 54.9185C66.5242 54.9185 66.6913 53.6902 66.6913 52.1111C66.6913 50.5319 66.5242 49.3037 66.3571 49.3037C66.19 49.3037 66.0229 50.5319 66.0229 52.1111C66.0229 53.6902 66.19 54.9185 66.3571 54.9185ZM70.4508 52.1111C70.4508 53.6902 70.2837 54.9185 70.1166 54.9185C69.9495 54.9185 69.7824 53.6902 69.7824 52.1111C69.7824 50.5319 69.9495 49.3037 70.1166 49.3037C70.2837 49.3037 70.4508 50.5319 70.4508 52.1111ZM68.2792 54.9185C68.4463 54.9185 68.6134 53.6902 68.6134 52.1111C68.6134 50.5319 68.4463 49.3037 68.2792 49.3037C68.1121 49.3037 67.945 50.5319 67.945 52.1111C67.945 53.6902 68.1121 54.9185 68.2792 54.9185Z" stroke="#7500FF"/>
</g>
</g>
<path d="M106.019 74.72V70.4343C105.524 72.7018 105.015 73.6708 103.384 74.72H106.019Z" fill="#7500FF" stroke="#7500FF"/>
<path d="M114.365 74.72V70.4343C114.86 72.7018 115.369 73.6708 117 74.72H114.365Z" fill="#7500FF" stroke="#7500FF"/>
<path d="M106.019 21.94V26.2257C105.524 23.9583 105.015 22.9892 103.384 21.94H106.019Z" fill="#7500FF" stroke="#7500FF"/>
<path d="M114.365 21.94V26.2257C114.86 23.9583 115.369 22.9892 117 21.94H114.365Z" fill="#7500FF" stroke="#7500FF"/>
<path d="M115.103 74.9897V21.6666H105.141V74.9897H115.103Z" fill="#7500FF" stroke="#7500FF"/>
<path d="M72.3688 35.9875L72.3375 46.6993L62.0983 46.6641L62.1296 35.9522L72.3688 35.9875ZM67.2861 37.5383C65.2885 37.5317 63.6191 39.2679 63.6128 41.3577C63.6067 43.4478 65.266 45.1952 67.2637 45.2024C69.2616 45.2092 70.9319 43.4731 70.938 41.383C70.944 39.293 69.2839 37.5452 67.2861 37.5383Z" fill="#7500FF"/>
<path d="M67.191 41.892C67.4406 41.8929 67.6076 41.7193 67.6084 41.458C67.6091 41.1967 67.4432 41.0219 67.1935 41.0211C66.9438 41.0202 66.8598 41.2812 66.8593 41.4554C66.8588 41.6296 67.0245 41.8915 67.191 41.892Z" fill="#7500FF"/>
<path d="M67.1929 41.4561L65.524 42.6697Z" fill="#7500FF"/>
<path d="M67.1929 41.4561L65.524 42.6697" stroke="#7500FF"/>
<path d="M67.1924 41.459L69.185 43.2949Z" fill="#7500FF"/>
<path d="M67.1924 41.459L69.185 43.2949" stroke="#7500FF"/>
<path d="M73.5243 9.54579C73.6741 9.50988 73.7572 9.25432 73.7101 8.97498C73.6629 8.69564 73.5032 8.4983 73.3535 8.53422C73.2037 8.57013 73.1205 8.82569 73.1677 9.10503C73.2149 9.38437 73.3745 9.5817 73.5243 9.54579Z" fill="#7500FF"/>
<path d="M71.5847 9.12956C71.6247 8.84892 71.5351 8.59595 71.3845 8.56455C71.234 8.53315 71.0795 8.73521 71.0395 9.01586C70.9995 9.29651 71.0891 9.54947 71.2397 9.58087C71.3902 9.61227 71.5447 9.41021 71.5847 9.12956Z" fill="#7500FF"/>
<path fill-rule="evenodd" clip-rule="evenodd" d="M71.8077 9.81366C72.0199 9.69294 72.2438 9.65042 72.3882 9.64825L72.3929 9.64818L72.3975 9.64869C72.938 9.70755 73.2591 10.0189 73.4065 10.362C73.4794 10.5314 73.5093 10.7078 73.5017 10.8619C73.4943 11.0126 73.4493 11.1581 73.3562 11.2417C73.2383 11.3475 73.0531 11.4223 72.8813 11.4738C72.7061 11.5264 72.5304 11.5587 72.4211 11.5725L72.417 11.573L72.4128 11.5731C72.2083 11.5762 71.8799 11.5189 71.6258 11.3602C71.4982 11.2805 71.3814 11.1702 71.3128 11.0194C71.2425 10.8646 71.2289 10.6799 71.2899 10.4701C71.3859 10.1397 71.5946 9.93491 71.8077 9.81366ZM71.8855 10.0096C71.701 10.1146 71.5359 10.2825 71.4606 10.542C71.4144 10.7009 71.4283 10.8211 71.4715 10.9161C71.5165 11.0151 71.5993 11.0995 71.7089 11.168C71.9277 11.3046 72.2217 11.3583 72.4059 11.3564C72.5084 11.3432 72.6733 11.3126 72.837 11.2635C73.0064 11.2127 73.1607 11.146 73.2476 11.068C73.2825 11.0367 73.3156 10.9639 73.3213 10.8484C73.3269 10.7362 73.305 10.5984 73.246 10.4609C73.13 10.1911 72.8682 9.91918 72.3864 9.86512C72.2637 9.86781 72.0687 9.9054 71.8855 10.0096Z" fill="#7500FF"/>
<path fill-rule="evenodd" clip-rule="evenodd" d="M71.6995 10.4269L70.7074 10.0623L70.7598 9.85398L71.7519 10.2186L71.6995 10.4269Z" fill="#7500FF"/>
<path fill-rule="evenodd" clip-rule="evenodd" d="M71.5862 10.6878L70.5509 10.6181L70.5602 10.4006L71.5955 10.4704L71.5862 10.6878Z" fill="#7500FF"/>
<path fill-rule="evenodd" clip-rule="evenodd" d="M71.6267 10.9875L70.5956 11.1181L70.5758 10.9017L71.6069 10.7711L71.6267 10.9875Z" fill="#7500FF"/>
<path fill-rule="evenodd" clip-rule="evenodd" d="M73.022 10.4405L74.0305 10.1559L73.9888 9.94376L72.9803 10.2284L73.022 10.4405Z" fill="#7500FF"/>
<path fill-rule="evenodd" clip-rule="evenodd" d="M73.1064 10.7212L74.1396 10.6204L74.1247 10.4034L73.0915 10.5041L73.1064 10.7212Z" fill="#7500FF"/>
<path fill-rule="evenodd" clip-rule="evenodd" d="M73.0483 11.0792L74.0824 11.1788L74.0967 10.9619L73.0627 10.8623L73.0483 11.0792Z" fill="#7500FF"/>
<path d="M72.0017 10.118C72.063 9.9772 72.2596 9.96718 72.3488 9.9627C72.4331 9.9585 72.6436 9.94768 72.7253 10.0942C72.783 10.1979 72.7427 10.3198 72.7321 10.3515C72.6851 10.4937 72.5501 10.6186 72.3839 10.6207C72.1833 10.6233 72.0715 10.4458 72.0553 10.4194C72.0344 10.385 71.9477 10.2421 72.0017 10.1182L72.0017 10.118Z" fill="#7500FF"/>
<path d="M71.4425 8.84277C71.4433 8.90292 71.4035 8.95229 71.3536 8.95304C71.3037 8.95378 71.2627 8.90563 71.2619 8.84548C71.2611 8.78533 71.3009 8.73597 71.3508 8.73522C71.4007 8.73447 71.4418 8.78262 71.4425 8.84277Z" fill="#7500FF"/>
<path d="M73.4504 8.81234C73.4511 8.87249 73.4113 8.92186 73.3614 8.92261C73.3115 8.92336 73.2705 8.87521 73.2697 8.81506C73.2689 8.75491 73.3088 8.70554 73.3586 8.70479C73.4085 8.70404 73.4496 8.75219 73.4504 8.81234Z" fill="#7500FF"/>
<path fill-rule="evenodd" clip-rule="evenodd" d="M69.7284 7.55824C69.6073 7.7405 69.5048 7.91935 69.4212 8.08439C69.2818 8.00019 69.221 7.75144 69.2106 7.69345C69.1979 7.62305 69.255 7.481 69.3241 7.36702C69.3933 7.25303 69.4521 7.25214 69.5582 7.26467C69.6431 7.27469 69.7058 7.45541 69.7266 7.54452C69.7272 7.54895 69.7278 7.55353 69.7284 7.55824ZM74.9168 7.5065C75.0444 7.70211 75.1525 7.89475 75.24 8.07149C75.3663 7.97531 75.417 7.74097 75.4256 7.68485C75.4365 7.61409 75.3759 7.47382 75.3038 7.36195C75.2318 7.25008 75.1729 7.25096 75.0672 7.26667C74.9951 7.27738 74.9423 7.41156 74.9168 7.5065Z" fill="#7500FF"/>
<path fill-rule="evenodd" clip-rule="evenodd" d="M72.2292 6.01699C73.0092 5.93953 73.6743 6.32386 74.1919 6.84307C74.71 7.36282 75.0751 8.01287 75.2517 8.45038L75.2697 8.49494L75.3108 8.49797C75.4759 8.51015 75.9182 8.77808 76.0527 9.89599L76.0555 9.91939L76.068 9.93767C76.0964 9.97899 76.1559 10.1408 76.0349 10.3604L76.0172 10.3926L76.026 10.4297C76.0385 10.4827 76.0378 10.5984 75.9541 10.662L75.9187 10.689L75.9218 10.7393C75.9234 10.7662 75.9194 10.8133 75.901 10.8565C75.8838 10.8969 75.8544 10.934 75.801 10.9508L75.7698 10.9607L75.7558 10.9956C75.7409 11.0327 75.6602 11.1481 75.4793 11.1508L75.4643 11.151L75.4506 11.1587C75.3787 11.1988 75.2639 11.2423 75.1557 11.2439C75.048 11.2455 74.9628 11.2069 74.9174 11.1058L74.9088 11.0867L74.8936 11.0749C74.8709 11.0573 74.8327 11.0186 74.8005 10.9648C74.7685 10.9114 74.7455 10.8483 74.7446 10.7802L74.7441 10.7417L74.7195 10.7169C74.6958 10.6929 74.6586 10.6445 74.6308 10.5829C74.603 10.5215 74.5877 10.4543 74.5971 10.3885L74.6028 10.3491L74.5808 10.3188C74.5426 10.2661 74.4919 10.1708 74.4679 10.0629C74.4443 9.95658 74.4477 9.84546 74.5061 9.74626L74.5276 9.70967L74.5143 9.66772C74.5003 9.62364 74.4842 9.54818 74.4831 9.47159C74.4819 9.39346 74.4963 9.32966 74.5284 9.29003L74.5518 9.26123L74.5477 9.22129C74.5441 9.18543 74.5443 9.1242 74.5571 9.065C74.5701 9.00535 74.5931 8.95932 74.6273 8.93466L74.6576 8.91284L74.6609 8.87064C74.6636 8.83742 74.6741 8.78293 74.6959 8.73489C74.7176 8.68696 74.7457 8.65539 74.7805 8.64519L74.8677 8.61967L74.8259 8.52424C74.5929 7.99234 74.1265 7.28299 73.4802 6.88475C72.8288 6.4833 71.9998 6.40189 71.0598 7.12121L71.0584 7.12224L71.0571 7.12334C70.8295 7.31563 70.3127 7.87639 70.0512 8.59934L70.0279 8.66373L70.0766 8.70299C70.0952 8.71804 70.1237 8.74902 70.1429 8.78793C70.1616 8.82572 70.1685 8.86386 70.1584 8.90227L70.1433 8.95928L70.1833 8.99528C70.219 9.02748 70.2732 9.09436 70.3108 9.18402C70.3478 9.27233 70.3673 9.37896 70.3415 9.49644L70.3383 9.51094L70.3395 9.52588C70.3508 9.66898 70.3542 9.894 70.3279 10.1009C70.3147 10.2043 70.2946 10.2998 70.266 10.3773C70.2372 10.4554 70.2024 10.5081 70.1634 10.5362L70.1323 10.5586L70.1297 10.6022C70.1269 10.6482 70.115 10.7184 70.09 10.7758C70.065 10.8335 70.0346 10.8627 69.9983 10.8662L69.9228 10.8734L69.9346 10.9632C69.9374 10.9839 69.9363 11.0172 69.9259 11.0443C69.9174 11.0667 69.9021 11.0876 69.8658 11.0949L69.8167 11.1047L69.8082 11.1636C69.8039 11.194 69.7588 11.3171 69.5644 11.3103L69.5471 11.3097L69.5316 11.3188C69.4352 11.3751 69.2937 11.421 69.1759 11.3918C69.1191 11.3777 69.0691 11.3466 69.03 11.2915C68.9905 11.2358 68.9575 11.1491 68.945 11.0146L68.9417 10.9787L68.9177 10.9567C68.8967 10.9374 68.8673 10.9006 68.8505 10.8581C68.8346 10.8178 68.832 10.7798 68.8499 10.7418L68.8731 10.6924L68.8436 10.6479C68.8149 10.6046 68.7751 10.5238 68.7542 10.4297C68.7335 10.3363 68.7331 10.2374 68.7726 10.1481L68.7909 10.1068L68.7712 10.0662C68.7578 10.0385 68.7419 9.98884 68.7406 9.93723C68.7393 9.88833 68.7508 9.84209 68.7869 9.80496L68.8203 9.77058L68.809 9.7194C68.8029 9.69179 68.7988 9.64583 68.8065 9.60401C68.8138 9.56462 68.8295 9.53595 68.8594 9.52043L68.9182 9.48997L68.8982 9.41686C68.8908 9.39009 68.8851 9.34445 68.8922 9.30166C68.8987 9.26215 68.9151 9.22828 68.952 9.20715L68.9974 9.18116L68.9914 9.12117C68.9883 9.09051 68.9914 9.03678 69.0122 8.98662C69.0318 8.93955 69.0676 8.8933 69.1362 8.87052L69.1808 8.85572L69.187 8.80072C69.1913 8.76229 69.2049 8.70381 69.2295 8.65724C69.2536 8.61144 69.2814 8.58874 69.3148 8.58823L69.3593 8.58757L69.3777 8.53903C69.5238 8.15388 69.8435 7.56069 70.3248 7.04485C70.8056 6.52959 71.4442 6.09494 72.2292 6.01699Z" fill="#7500FF"/>
<path fill-rule="evenodd" clip-rule="evenodd" d="M74.6425 10.974C74.6554 11.0068 74.6706 11.0367 74.6866 11.0632C74.7239 11.1257 74.7676 11.174 74.8026 11.2043C74.8126 11.2243 74.8235 11.2426 74.8352 11.2592C74.5122 11.681 73.7282 12.2229 72.3799 12.1825C71.0826 12.1437 70.3625 11.5591 70.0622 11.0904C70.0694 11.0654 70.0735 11.0403 70.0754 11.0166C70.1425 10.985 70.1871 10.9183 70.2149 10.8543C70.2266 10.8272 70.2362 10.7989 70.2439 10.7709C70.4165 11.1155 71.0287 11.7806 72.3866 11.8213C73.7365 11.8618 74.4242 11.2892 74.6425 10.974Z" fill="#7500FF"/>
</g>
<path d="M57.8357 75V47.3877C57.8357 39.6165 52.4963 34.9043 44.7662 34.9043C39.7456 34.9043 35.1235 37.5498 33.689 41.022V21.6768H23.7275V75H33.689V52.596C33.689 47.3877 36.4783 43.0888 41.4192 43.0888C45.9616 43.0888 47.8742 44.9075 47.8742 50.7772V75H57.8357Z" fill="white" fill-opacity="0.99" stroke="white" stroke-opacity="0.99"/>
<path d="M87.0828 75V21.6768H77.1213V75H87.0828ZM101.188 75V21.6768H91.2268V75H101.188Z" fill="white" fill-opacity="0.99" stroke="white" stroke-opacity="0.99"/>
<path d="M91.9646 73.8333V69.5476C91.4692 71.815 90.9607 72.7841 89.3293 73.8333H91.9646Z" fill="white" fill-opacity="0.99" stroke="white" stroke-opacity="0.99"/>
<path d="M100.31 73.8333V69.5476C100.805 71.815 101.313 72.7841 102.945 73.8333H100.31Z" fill="white" fill-opacity="0.99" stroke="white" stroke-opacity="0.99"/>
<path d="M92.294 22.8266V27.1123C91.7985 24.8449 91.29 23.8758 89.6587 22.8266H92.294Z" fill="white" fill-opacity="0.99" stroke="white" stroke-opacity="0.99"/>
<path d="M100.09 22.8266V27.1123C100.586 24.8449 101.094 23.8758 102.725 22.8266H100.09Z" fill="white" fill-opacity="0.99" stroke="white" stroke-opacity="0.99"/>
<path d="M20.6196 62.7642H12.5707C10.2597 62.7642 8.90491 64.6656 8.90491 67.4765C8.90491 69.2952 9.70183 70.9487 10.6581 71.4447H5V74.9996H20.6196V71.4447H14.0849C12.5707 71.4447 11.2957 70.4526 11.2957 68.6339C11.2957 66.9804 11.8535 66.3191 13.527 66.3191H20.6196V62.7642ZM16.3163 52.9263C17.671 52.9263 18.7867 54.3317 18.7867 56.1505C18.7867 57.3079 18.3883 57.8866 17.5116 57.8866C16.5553 57.8866 16.0772 57.2252 15.7584 55.1584C15.5193 53.8357 15.36 53.1743 15.1209 52.8436L16.3163 52.9263ZM20.6196 49.3714H13.3677C10.4987 49.3714 8.82522 50.8595 8.82522 55.1584C8.82522 59.54 10.4987 61.0281 12.8895 61.1108V57.8039C11.8535 57.6386 11.216 56.9772 11.216 55.3238C11.216 53.9183 11.6941 53.0089 12.4114 53.0089C13.2083 53.0089 13.527 53.505 13.6864 55.3238C14.0849 58.9613 14.4833 61.5241 17.7507 61.5241C19.5836 61.5241 20.8587 60.1187 20.8587 56.9772C20.8587 55.1584 20.3009 53.753 19.5039 52.8436C19.8227 52.8436 20.2212 52.7609 20.5399 52.5956V49.3714H20.6196ZM16.4756 39.2028C17.671 39.3681 18.3883 40.4429 18.3883 41.8483C18.3883 43.2537 17.1929 44.4938 14.7224 44.4938C12.252 44.4938 11.3754 43.2537 11.3754 41.6829C11.3754 40.3602 12.0926 39.2855 13.288 39.1201V35.4826C10.5784 35.7306 8.90491 38.1281 8.90491 41.6003C8.90491 45.4032 10.6581 47.966 14.8021 47.966C18.9461 47.966 20.9384 45.4032 20.9384 41.7656C20.9384 38.4588 19.1852 35.8959 16.4756 35.5652V39.2028ZM20.6196 22.1725L13.3677 26.6367L9.22368 22.0898V26.4714L13.6067 30.9356H5V34.4905H20.6196V30.853H16.9538L15.4397 29.1169L20.6196 26.1407V22.1725Z" fill="white" fill-opacity="0.99" stroke="white" stroke-opacity="0.99"/>
<path d="M43.6846 26.8749C43.6846 27.5362 43.4456 27.9496 42.808 27.9496C42.2502 27.9496 41.9314 27.5362 41.9314 26.8749V24.6427H44.9597V23.6507H41.9314V22.2453H40.5767V27.0402C40.5767 28.1976 41.2142 29.1897 42.808 29.1897C44.4019 29.1897 45.0394 28.1976 45.0394 27.0402V25.5521H43.6846V26.8749ZM50.6975 28.9417V25.1388C50.6975 24.064 49.9006 23.4027 48.7849 23.4027C48.0677 23.4027 47.3505 23.7334 47.1114 24.2294V21.6666H45.6769V28.9417H47.1114V25.8828C47.1114 25.1388 47.5099 24.5601 48.2271 24.5601C48.8646 24.5601 49.1834 24.8081 49.1834 25.6348V28.9417H50.6975ZM52.7695 25.8001C52.8492 25.0561 53.3274 24.6427 53.8852 24.6427C54.4431 24.6427 55.0009 25.0561 55.0009 25.8001H52.7695ZM56.5151 26.6269C56.5151 24.4774 55.6384 23.4853 53.8852 23.4853C52.132 23.4853 51.1757 24.5601 51.1757 26.2135C51.1757 28.1149 52.132 29.107 53.9649 29.107C55.1603 29.107 56.0369 28.5283 56.4354 27.3709H54.9212C54.8415 27.7016 54.3634 27.9496 53.9649 27.9496C53.2477 27.9496 52.7695 27.4536 52.6898 26.6269H56.5151Z" fill="white" fill-opacity="0.99" stroke="white" stroke-opacity="0.99"/>
<path d="M77.91 73.8333V69.5476C77.4145 71.815 76.906 72.7841 75.2747 73.8333H77.91Z" fill="white" fill-opacity="0.99" stroke="white" stroke-opacity="0.99"/>
<path d="M86.2548 73.8333V69.5476C86.7503 71.815 87.2588 72.7841 88.8901 73.8333H86.2548Z" fill="white" fill-opacity="0.99" stroke="white" stroke-opacity="0.99"/>
<path d="M78.2173 22.8266V27.1123C77.7219 24.8449 77.2134 23.8758 75.582 22.8266H78.2173Z" fill="white" fill-opacity="0.99" stroke="white" stroke-opacity="0.99"/>
<path d="M85.9035 22.8266V27.1123C86.399 24.8449 86.9075 23.8758 88.5388 22.8266H85.9035Z" fill="white" fill-opacity="0.99" stroke="white" stroke-opacity="0.99"/>
<path fill-rule="evenodd" clip-rule="evenodd" d="M72.5392 74.8336H62.2625L62.2625 48.0738V47.9L61.1768 47.9001L60.3413 46.5841H61.1835L61.0936 40.0919L61.7281 37.4266C61.6393 37.3713 61.5949 37.2607 61.5949 37.1967C61.5949 37.0213 61.6784 36.9335 61.8455 36.9335C62.0126 36.9335 62.0962 37.0213 62.0962 37.1967C62.0962 37.3232 62.0528 37.4041 61.966 37.4394L62.2626 38.6851L62.2625 35.7929L66.8812 18.4218H66.8577V15.7899H67.2816V12.619L67.4438 5H77.0315V12.8571H67.4438L67.4426 15.7899H67.9438V18.4218H67.924L72.5392 35.793V38.6925L72.8405 37.4271C72.751 37.3721 72.7063 37.2609 72.7063 37.1968C72.7063 37.0213 72.7898 36.9336 72.9569 36.9336C73.124 36.9336 73.2076 37.0213 73.2076 37.1968C73.2076 37.3228 73.1645 37.4035 73.0783 37.439L73.71 40.0919L73.6264 46.5837L73.6751 46.5841H74.4613L73.7093 47.9001L72.5392 47.9V48.0417V74.8336ZM67.4438 45.7068C69.7832 45.7068 71.7049 43.6889 71.7049 41.2324C71.7049 38.776 69.7832 36.7581 67.4438 36.7581C65.1044 36.7581 63.1828 38.776 63.1828 41.2324C63.1828 43.7767 65.1044 45.7068 67.4438 45.7068ZM64.435 54.9185C64.6021 54.9185 64.7692 53.6902 64.7692 52.1111C64.7692 50.5319 64.6021 49.3037 64.435 49.3037C64.2679 49.3037 64.1008 50.5319 64.1008 52.1111C64.1008 53.6902 64.2679 54.9185 64.435 54.9185ZM66.6913 52.1111C66.6913 53.6902 66.5242 54.9185 66.3571 54.9185C66.19 54.9185 66.0229 53.6902 66.0229 52.1111C66.0229 50.5319 66.19 49.3037 66.3571 49.3037C66.5242 49.3037 66.6913 50.5319 66.6913 52.1111ZM70.1166 54.9185C70.2837 54.9185 70.4508 53.6902 70.4508 52.1111C70.4508 50.5319 70.2837 49.3037 70.1166 49.3037C69.9495 49.3037 69.7824 50.5319 69.7824 52.1111C69.7824 53.6902 69.9495 54.9185 70.1166 54.9185ZM68.6134 52.1111C68.6134 53.6902 68.4463 54.9185 68.2792 54.9185C68.1121 54.9185 67.945 53.6902 67.945 52.1111C67.945 50.5319 68.1121 49.3037 68.2792 49.3037C68.4463 49.3037 68.6134 50.5319 68.6134 52.1111Z" fill="white" fill-opacity="0.99"/>
<path d="M106.02 73.8333V69.5476C105.524 71.815 105.016 72.7841 103.385 73.8333H106.02Z" fill="white" fill-opacity="0.99" stroke="white" stroke-opacity="0.99"/>
<path d="M114.035 73.8333V69.5476C114.531 71.815 115.039 72.7841 116.671 73.8333H114.035Z" fill="white" fill-opacity="0.99" stroke="white" stroke-opacity="0.99"/>
<path d="M106.239 22.8266V27.1123C105.744 24.8449 105.235 23.8758 103.604 22.8266H106.239Z" fill="white" fill-opacity="0.99" stroke="white" stroke-opacity="0.99"/>
<path d="M114.035 22.8266V27.1123C114.531 24.8449 115.039 23.8758 116.671 22.8266H114.035Z" fill="white" fill-opacity="0.99" stroke="white" stroke-opacity="0.99"/>
<path d="M115.103 74.9897V21.6666H105.141V74.9897H115.103Z" fill="white" fill-opacity="0.99" stroke="white" stroke-opacity="0.99"/>
<path d="M72.3688 35.9875L72.3375 46.6993L62.0983 46.6641L62.1296 35.9522L72.3688 35.9875ZM67.2861 37.5383C65.2885 37.5317 63.6191 39.2679 63.6128 41.3577C63.6067 43.4478 65.266 45.1952 67.2637 45.2024C69.2616 45.2092 70.9319 43.4731 70.938 41.383C70.944 39.293 69.2839 37.5452 67.2861 37.5383Z" fill="white" fill-opacity="0.99"/>
<path d="M67.191 41.892C67.4406 41.8929 67.6076 41.7193 67.6084 41.458C67.6091 41.1967 67.4432 41.0219 67.1935 41.0211C66.9438 41.0202 66.8598 41.2812 66.8593 41.4554C66.8588 41.6296 67.0245 41.8915 67.191 41.892Z" fill="white" fill-opacity="0.99"/>
<path d="M67.1929 41.4561L65.524 42.6697Z" fill="white" fill-opacity="0.99"/>
<path d="M67.1929 41.4561L65.524 42.6697" stroke="white" stroke-opacity="0.99" stroke-width="0.757998"/>
<path d="M67.1924 41.459L69.185 43.2949Z" fill="white" fill-opacity="0.99"/>
<path d="M67.1924 41.459L69.185 43.2949" stroke="white" stroke-opacity="0.99" stroke-width="0.757998"/>
<path d="M73.5243 9.54579C73.6741 9.50988 73.7572 9.25432 73.7101 8.97498C73.6629 8.69564 73.5032 8.4983 73.3535 8.53422C73.2037 8.57013 73.1205 8.82569 73.1677 9.10503C73.2149 9.38437 73.3745 9.5817 73.5243 9.54579Z" fill="#7500FF"/>
<path d="M71.5847 9.12956C71.6247 8.84892 71.5351 8.59595 71.3845 8.56455C71.234 8.53315 71.0795 8.73521 71.0395 9.01586C70.9995 9.29651 71.0891 9.54947 71.2397 9.58087C71.3902 9.61227 71.5447 9.41021 71.5847 9.12956Z" fill="#7500FF"/>
<path fill-rule="evenodd" clip-rule="evenodd" d="M71.8077 9.81366C72.0199 9.69294 72.2438 9.65042 72.3882 9.64825L72.3929 9.64818L72.3975 9.64869C72.938 9.70755 73.2591 10.0189 73.4065 10.362C73.4794 10.5314 73.5093 10.7078 73.5017 10.8619C73.4943 11.0126 73.4493 11.1581 73.3562 11.2417C73.2383 11.3475 73.0531 11.4223 72.8813 11.4738C72.7061 11.5264 72.5304 11.5587 72.4211 11.5725L72.417 11.573L72.4128 11.5731C72.2083 11.5762 71.8799 11.5189 71.6258 11.3602C71.4982 11.2805 71.3814 11.1702 71.3128 11.0194C71.2425 10.8646 71.2289 10.6799 71.2899 10.4701C71.3859 10.1397 71.5946 9.93491 71.8077 9.81366ZM71.8855 10.0096C71.701 10.1146 71.5359 10.2825 71.4606 10.542C71.4144 10.7009 71.4283 10.8211 71.4715 10.9161C71.5165 11.0151 71.5993 11.0995 71.7089 11.168C71.9277 11.3046 72.2217 11.3583 72.4059 11.3564C72.5084 11.3432 72.6733 11.3126 72.837 11.2635C73.0064 11.2127 73.1607 11.146 73.2476 11.068C73.2825 11.0367 73.3156 10.9639 73.3213 10.8484C73.3269 10.7362 73.305 10.5984 73.246 10.4609C73.13 10.1911 72.8682 9.91918 72.3864 9.86512C72.2637 9.86781 72.0687 9.9054 71.8855 10.0096Z" fill="#7500FF"/>
<path fill-rule="evenodd" clip-rule="evenodd" d="M71.6995 10.4269L70.7074 10.0623L70.7598 9.85398L71.7519 10.2186L71.6995 10.4269Z" fill="#7500FF"/>
<path fill-rule="evenodd" clip-rule="evenodd" d="M71.5862 10.6878L70.5509 10.6181L70.5602 10.4006L71.5955 10.4704L71.5862 10.6878Z" fill="#7500FF"/>
<path fill-rule="evenodd" clip-rule="evenodd" d="M71.6267 10.9875L70.5956 11.1181L70.5758 10.9017L71.6069 10.7711L71.6267 10.9875Z" fill="#7500FF"/>
<path fill-rule="evenodd" clip-rule="evenodd" d="M73.022 10.4405L74.0305 10.1559L73.9888 9.94376L72.9803 10.2284L73.022 10.4405Z" fill="#7500FF"/>
<path fill-rule="evenodd" clip-rule="evenodd" d="M73.1064 10.7212L74.1396 10.6204L74.1247 10.4034L73.0915 10.5041L73.1064 10.7212Z" fill="#7500FF"/>
<path fill-rule="evenodd" clip-rule="evenodd" d="M73.0483 11.0792L74.0824 11.1788L74.0967 10.9619L73.0627 10.8623L73.0483 11.0792Z" fill="#7500FF"/>
<path d="M72.0017 10.118C72.063 9.9772 72.2596 9.96718 72.3488 9.9627C72.4331 9.9585 72.6436 9.94768 72.7253 10.0942C72.783 10.1979 72.7427 10.3198 72.7321 10.3515C72.6851 10.4937 72.5501 10.6186 72.3839 10.6207C72.1833 10.6233 72.0715 10.4458 72.0553 10.4194C72.0344 10.385 71.9477 10.2421 72.0017 10.1182L72.0017 10.118Z" fill="#7500FF"/>
<path d="M71.4425 8.84277C71.4433 8.90292 71.4035 8.95229 71.3536 8.95304C71.3037 8.95378 71.2627 8.90563 71.2619 8.84548C71.2611 8.78533 71.3009 8.73597 71.3508 8.73522C71.4007 8.73447 71.4418 8.78262 71.4425 8.84277Z" fill="#7500FF"/>
<path d="M73.4504 8.81234C73.4511 8.87249 73.4113 8.92186 73.3614 8.92261C73.3115 8.92336 73.2705 8.87521 73.2697 8.81506C73.2689 8.75491 73.3088 8.70554 73.3586 8.70479C73.4085 8.70404 73.4496 8.75219 73.4504 8.81234Z" fill="#7500FF"/>
<path fill-rule="evenodd" clip-rule="evenodd" d="M69.7284 7.55824C69.6073 7.7405 69.5048 7.91935 69.4212 8.08439C69.2818 8.00019 69.221 7.75144 69.2106 7.69345C69.1979 7.62305 69.255 7.481 69.3241 7.36702C69.3933 7.25303 69.4521 7.25214 69.5582 7.26467C69.6431 7.27469 69.7058 7.45541 69.7266 7.54452C69.7272 7.54895 69.7278 7.55353 69.7284 7.55824ZM74.9168 7.5065C75.0444 7.70211 75.1525 7.89475 75.24 8.07149C75.3663 7.97531 75.417 7.74097 75.4256 7.68485C75.4365 7.61409 75.3759 7.47382 75.3038 7.36195C75.2318 7.25008 75.1729 7.25096 75.0672 7.26667C74.9951 7.27738 74.9423 7.41156 74.9168 7.5065Z" fill="#7500FF"/>
<path fill-rule="evenodd" clip-rule="evenodd" d="M72.2292 6.01699C73.0092 5.93953 73.6743 6.32386 74.1919 6.84307C74.71 7.36282 75.0751 8.01287 75.2517 8.45038L75.2697 8.49494L75.3108 8.49797C75.4759 8.51015 75.9182 8.77808 76.0527 9.89599L76.0555 9.91939L76.068 9.93767C76.0964 9.97899 76.1559 10.1408 76.0349 10.3604L76.0172 10.3926L76.026 10.4297C76.0385 10.4827 76.0378 10.5984 75.9541 10.662L75.9187 10.689L75.9218 10.7393C75.9234 10.7662 75.9194 10.8133 75.901 10.8565C75.8838 10.8969 75.8544 10.934 75.801 10.9508L75.7698 10.9607L75.7558 10.9956C75.7409 11.0327 75.6602 11.1481 75.4793 11.1508L75.4643 11.151L75.4506 11.1587C75.3787 11.1988 75.2639 11.2423 75.1557 11.2439C75.048 11.2455 74.9628 11.2069 74.9174 11.1058L74.9088 11.0867L74.8936 11.0749C74.8709 11.0573 74.8327 11.0186 74.8005 10.9648C74.7685 10.9114 74.7455 10.8483 74.7446 10.7802L74.7441 10.7417L74.7195 10.7169C74.6958 10.6929 74.6586 10.6445 74.6308 10.5829C74.603 10.5215 74.5877 10.4543 74.5971 10.3885L74.6028 10.3491L74.5808 10.3188C74.5426 10.2661 74.4919 10.1708 74.4679 10.0629C74.4443 9.95658 74.4477 9.84546 74.5061 9.74626L74.5276 9.70967L74.5143 9.66772C74.5003 9.62364 74.4842 9.54818 74.4831 9.47159C74.4819 9.39346 74.4963 9.32966 74.5284 9.29003L74.5518 9.26123L74.5477 9.22129C74.5441 9.18543 74.5443 9.1242 74.5571 9.065C74.5701 9.00535 74.5931 8.95932 74.6273 8.93466L74.6576 8.91284L74.6609 8.87064C74.6636 8.83742 74.6741 8.78293 74.6959 8.73489C74.7176 8.68696 74.7457 8.65539 74.7805 8.64519L74.8677 8.61967L74.8259 8.52424C74.5929 7.99234 74.1265 7.28299 73.4802 6.88475C72.8288 6.4833 71.9998 6.40189 71.0598 7.12121L71.0584 7.12224L71.0571 7.12334C70.8295 7.31563 70.3127 7.87639 70.0512 8.59934L70.0279 8.66373L70.0766 8.70299C70.0952 8.71804 70.1237 8.74902 70.1429 8.78793C70.1616 8.82572 70.1685 8.86386 70.1584 8.90227L70.1433 8.95928L70.1833 8.99528C70.219 9.02748 70.2732 9.09436 70.3108 9.18402C70.3478 9.27233 70.3673 9.37896 70.3415 9.49644L70.3383 9.51094L70.3395 9.52588C70.3508 9.66898 70.3542 9.894 70.3279 10.1009C70.3147 10.2043 70.2946 10.2998 70.266 10.3773C70.2372 10.4554 70.2024 10.5081 70.1634 10.5362L70.1323 10.5586L70.1297 10.6022C70.1269 10.6482 70.115 10.7184 70.09 10.7758C70.065 10.8335 70.0346 10.8627 69.9983 10.8662L69.9228 10.8734L69.9346 10.9632C69.9374 10.9839 69.9363 11.0172 69.9259 11.0443C69.9174 11.0667 69.9021 11.0876 69.8658 11.0949L69.8167 11.1047L69.8082 11.1636C69.8039 11.194 69.7588 11.3171 69.5644 11.3103L69.5471 11.3097L69.5316 11.3188C69.4352 11.3751 69.2937 11.421 69.1759 11.3918C69.1191 11.3777 69.0691 11.3466 69.03 11.2915C68.9905 11.2358 68.9575 11.1491 68.945 11.0146L68.9417 10.9787L68.9177 10.9567C68.8967 10.9374 68.8673 10.9006 68.8505 10.8581C68.8346 10.8178 68.832 10.7798 68.8499 10.7418L68.8731 10.6924L68.8436 10.6479C68.8149 10.6046 68.7751 10.5238 68.7542 10.4297C68.7335 10.3363 68.7331 10.2374 68.7726 10.1481L68.7909 10.1068L68.7712 10.0662C68.7578 10.0385 68.7419 9.98884 68.7406 9.93723C68.7393 9.88833 68.7508 9.84209 68.7869 9.80496L68.8203 9.77058L68.809 9.7194C68.8029 9.69179 68.7988 9.64583 68.8065 9.60401C68.8138 9.56462 68.8295 9.53595 68.8594 9.52043L68.9182 9.48997L68.8982 9.41686C68.8908 9.39009 68.8851 9.34445 68.8922 9.30166C68.8987 9.26215 68.9151 9.22828 68.952 9.20715L68.9974 9.18116L68.9914 9.12117C68.9883 9.09051 68.9914 9.03678 69.0122 8.98662C69.0318 8.93955 69.0676 8.8933 69.1362 8.87052L69.1808 8.85572L69.187 8.80072C69.1913 8.76229 69.2049 8.70381 69.2295 8.65724C69.2536 8.61144 69.2814 8.58874 69.3148 8.58823L69.3593 8.58757L69.3777 8.53903C69.5238 8.15388 69.8435 7.56069 70.3248 7.04485C70.8056 6.52959 71.4442 6.09494 72.2292 6.01699Z" fill="#7500FF"/>
<path fill-rule="evenodd" clip-rule="evenodd" d="M74.6425 10.974C74.6554 11.0068 74.6706 11.0367 74.6866 11.0632C74.7239 11.1257 74.7676 11.174 74.8026 11.2043C74.8126 11.2243 74.8235 11.2426 74.8352 11.2592C74.5122 11.681 73.7282 12.2229 72.3799 12.1825C71.0826 12.1437 70.3625 11.5591 70.0622 11.0904C70.0694 11.0654 70.0735 11.0403 70.0754 11.0166C70.1425 10.985 70.1871 10.9183 70.2149 10.8543C70.2266 10.8272 70.2362 10.7989 70.2439 10.7709C70.4165 11.1155 71.0287 11.7806 72.3866 11.8213C73.7365 11.8618 74.4242 11.2892 74.6425 10.974Z" fill="#7500FF"/>
<defs>
<filter id="filter0_f_343_91" x="0.5" y="0.5" width="122.202" height="79" filterUnits="userSpaceOnUse" color-interpolation-filters="sRGB">
<feFlood flood-opacity="0" result="BackgroundImageFix"/>
<feBlend mode="normal" in="SourceGraphic" in2="BackgroundImageFix" result="shape"/>
<feGaussianBlur stdDeviation="2" result="effect1_foregroundBlur_343_91"/>
</filter>
<filter id="filter1_f_343_91" x="55.4316" y="0.5" width="26.0999" height="78.8336" filterUnits="userSpaceOnUse" color-interpolation-filters="sRGB">
<feFlood flood-opacity="0" result="BackgroundImageFix"/>
<feBlend mode="normal" in="SourceGraphic" in2="BackgroundImageFix" result="shape"/>
<feGaussianBlur stdDeviation="2" result="effect1_foregroundBlur_343_91"/>
</filter>
<filter id="filter2_f_343_91" x="55.4316" y="0.5" width="26.0999" height="78.8336" filterUnits="userSpaceOnUse" color-interpolation-filters="sRGB">
<feFlood flood-opacity="0" result="BackgroundImageFix"/>
<feBlend mode="normal" in="SourceGraphic" in2="BackgroundImageFix" result="shape"/>
<feGaussianBlur stdDeviation="2" result="effect1_foregroundBlur_343_91"/>
</filter>
</defs>
</svg>
