<svg width="471" height="80" fill="none" xmlns="http://www.w3.org/2000/svg"><g clip-path="url(#a)"><path d="M429.03 6.463h-.189v3.032h.189V6.463ZM435.094 45.305h-12.316V76h12.316V45.305ZM435.094 31.474h-12.316v12.315h12.316V31.474Z" fill="#5C71AD"/><path d="M420.504 43.79h16.863l-.947 1.515h-14.969l-.947-1.516Z" fill="#3B4779"/><path d="M422.304 33.368a.284.284 0 1 0 0-.568.284.284 0 0 0 0 .568ZM435.567 33.368a.284.284 0 1 0 0-.568.284.284 0 0 0 0 .568Z" fill="#5C71AD"/><path d="m428.936 9.495 6.153 22.026h-12.307l6.154-22.026Z" fill="#3B4779"/><path d="M429.598 8.737h-1.326v3.031h1.326V8.737Z" fill="#3B4779"/><path d="M436.419 36.21h-1.705v7.58h1.705v-7.58ZM423.156 36.21h-1.705v7.58h1.705v-7.58Z" fill="#BFCFF6"/><path d="M425.43 53.263c.209 0 .379-1.442.379-3.22 0-1.78-.17-3.222-.379-3.222s-.379 1.442-.379 3.221c0 1.779.17 3.221.379 3.221ZM427.704 53.263c.209 0 .379-1.442.379-3.22 0-1.78-.17-3.222-.379-3.222s-.379 1.442-.379 3.221c0 1.779.17 3.221.379 3.221ZM432.251 53.263c.209 0 .379-1.442.379-3.22 0-1.78-.17-3.222-.379-3.222s-.379 1.442-.379 3.221c0 1.779.17 3.221.379 3.221ZM429.978 53.263c.209 0 .379-1.442.379-3.22 0-1.78-.17-3.222-.379-3.222s-.379 1.442-.379 3.221c0 1.779.17 3.221.379 3.221Z" fill="#fff"/><path d="M432.82 4h-3.979v2.463h3.979V4Z" fill="#5C71AD"/><path d="m422.304 32.8-.903 3.553h1.805l-.902-3.553ZM435.567 32.8l-.902 3.553h1.805l-.903-3.553Z" fill="#3B4779"/><path d="M429.03 42.842a5.116 5.116 0 1 0 0-10.232 5.116 5.116 0 0 0 0 10.232Z" fill="#BFCFF6"/><path d="M429.03 42.084a4.358 4.358 0 1 0 0-8.716 4.358 4.358 0 0 0 0 8.716Z" fill="#fff"/><path d="M428.935 38.295a.474.474 0 1 0 0-.948.474.474 0 0 0 0 .948Z" fill="#5C71AD"/><path d="m428.936 37.821-1.99 1.421M428.936 37.821l2.436 2.128" stroke="#5C71AD"/><path d="M42.816 76V42.592c0-9.408-6.72-15.072-16.416-15.072-6.336 0-12.096 3.168-13.92 7.392V11.488H0V76h12.48V48.928c0-6.336 3.456-11.52 9.696-11.52 5.664 0 8.064 2.208 8.064 9.312V76h12.576Zm34.073-17.952c-.096 5.568-4.896 10.272-11.328 10.272-3.936 0-6.048-1.728-6.048-5.28 0-4.032 2.304-6.048 9.408-7.392 4.608-.864 6.816-1.536 8.064-2.784l-.096 5.184ZM89.465 76V46.144c0-11.904-5.184-18.624-20.16-18.624-15.168 0-20.544 6.816-20.736 16.608h11.616c.576-4.224 2.88-7.008 8.544-7.008 4.896 0 7.968 1.824 7.968 4.896 0 3.264-1.728 4.512-7.968 5.376-12.576 1.728-21.696 3.264-21.696 16.896 0 7.68 4.992 12.96 15.744 12.96 6.336 0 11.328-2.208 14.304-5.472.096 1.44.384 3.072.768 4.224h11.616Zm35.456-17.088c-.48 5.088-4.32 7.872-9.216 7.872-4.896 0-9.216-4.992-9.216-15.264 0-10.272 4.32-13.632 9.6-13.632 4.704 0 8.256 2.88 8.928 7.776h12.576c-.768-11.136-9.12-18.144-21.408-18.144-13.248 0-22.08 7.392-22.08 24.288s8.832 25.44 21.696 25.44c11.424 0 20.352-7.392 21.696-18.336h-12.576ZM184.196 76 168.74 46.144l15.84-17.376h-15.264L153.764 46.72V11.488h-12.576V76h12.576V61.024l6.048-6.24L170.18 76h14.016Zm53.338-18.816c0 5.856-2.304 9.216-7.296 9.216-5.088 0-7.2-3.456-7.2-9.408V37.6h26.112v-8.832h-26.112V16H210.75v42.24c0 10.176 5.472 19.008 19.296 19.008 13.344 0 19.104-8.928 19.104-18.912v-13.44h-11.616v12.288ZM297.066 76V42.592c0-9.408-6.72-15.072-16.416-15.072-6.336 0-12.096 3.168-13.92 7.392V11.488h-12.48V76h12.48V48.928c0-6.336 3.456-11.52 9.696-11.52 5.664 0 8.064 2.208 8.064 9.312V76h12.576Zm17.273-28.224c.48-6.528 4.608-10.368 9.6-10.368 4.896 0 9.504 3.36 9.696 10.368h-19.296Zm32.16 7.872c0-18.72-7.68-28.128-22.176-28.128-14.496 0-22.848 9.408-22.848 24 0 17.088 7.872 25.728 23.616 25.728 10.08 0 17.856-5.472 20.736-15.168h-12.864c-.864 3.264-4.416 5.28-8.448 5.28-6.144 0-10.176-4.608-10.56-11.712h32.544Z" fill="#5C71AD"/><path d="M416.785 76V42.592c0-9.408-6.72-15.072-16.416-15.072-6.336 0-12.096 3.168-13.92 7.392V11.488h-12.48V76h12.48V48.928c0-6.336 3.456-11.52 9.696-11.52 5.664 0 8.064 2.208 8.064 9.312V76h12.576ZM453.48 76V11.488H441V76h12.48Zm17.719 0V11.488h-12.48V76h12.48Z" fill="#3B4779"/></g><defs><clipPath id="a"><path fill="#fff" d="M0 0h471v80H0z"/></clipPath></defs></svg>