<svg xmlns="http://www.w3.org/2000/svg" xmlns:xlink="http://www.w3.org/1999/xlink" fill="none" viewBox="0 0 422 79">
  <defs>
    <path id="c" d="M42 66h-9V45l-1-5-5-2c-2 0-4 1-5 3l-2 6v19h-9V19h9v17l4-3c2-2 4-2 6-2 4 0 7 1 9 3s3 5 3 8v24Zm25-13v-3l-6 2c-3 0-4 1-5 2-1 0-2 1-2 3 0 3 2 4 5 4l5-2 3-6Zm9 13h-8l-1-3c-2 3-6 4-10 4s-7 0-9-2-3-4-3-7l1-5 2-3 3-2 5-2h5l4-2 2-2c0-2-1-2-2-3l-4-1c-4 0-6 2-6 5h-9c0-8 5-12 15-12 6 0 9 1 12 3 2 3 3 6 3 11v21Zm26-12h9c-1 4-2 7-5 10-3 2-7 3-11 3-5 0-9-1-11-4-3-4-5-8-5-14s2-11 5-14c2-3 6-4 11-4s8 1 11 4c3 2 5 5 5 9h-9l-2-4-5-1c-4 0-7 3-7 10l2 8c2 2 3 3 5 3l5-2 2-4Zm43 12h-10l-8-15-4 4v11h-9V19h9v26l11-13h11l-11 13 11 21Zm41-13v-9h8v10c0 3-1 7-4 9-2 3-5 4-10 4s-8-1-10-4c-3-2-4-6-4-10V23h9v9h19v6h-19v15c0 4 2 6 5 6 4 0 6-2 6-6Zm43 13h-9V45c0-3-1-4-2-5l-4-2c-2 0-4 1-5 3-2 1-2 3-2 6v19h-9V19h9v17l4-3c1-2 4-2 6-2 3 0 6 1 8 3 3 2 4 5 4 8v24Zm12-20h14c0-3 0-5-2-6l-5-2-4 2-3 6Zm24 6h-24l2 6 6 2 4-1 2-3h9c-1 4-3 7-5 8-3 2-6 3-10 3-11 0-17-6-17-18 0-6 1-10 4-13s7-5 13-5c10 0 16 7 16 21Zm120 14h-9V19h9v47Zm13 0h-10V19h10v47Zm13 0h-9V19h9v47Z"/>
    <path id="d" stroke="#7500FF" stroke-width="8" d="M42 66h-9V45l-1-5-5-2c-2 0-4 1-5 3l-2 6v19h-9V19h9v17l4-3c2-2 4-2 6-2 4 0 7 1 9 3s3 5 3 8v24Zm25-13v-3l-6 2c-3 0-4 1-5 2-1 0-2 1-2 3 0 3 2 4 5 4l5-2 3-6Zm9 13h-8l-1-3c-2 3-6 4-10 4s-7 0-9-2-3-4-3-7l1-5 2-3 3-2 5-2h5l4-2 2-2c0-2-1-2-2-3l-4-1c-4 0-6 2-6 5h-9c0-8 5-12 15-12 6 0 9 1 12 3 2 3 3 6 3 11v21Zm26-12h9c-1 4-2 7-5 10-3 2-7 3-11 3-5 0-9-1-11-4-3-4-5-8-5-14s2-11 5-14c2-3 6-4 11-4s8 1 11 4c3 2 5 5 5 9h-9l-2-4-5-1c-4 0-7 3-7 10l2 8c2 2 3 3 5 3l5-2 2-4Zm43 12h-10l-8-15-4 4v11h-9V19h9v26l11-13h11l-11 13 11 21Zm41-13v-9h8v10c0 3-1 7-4 9-2 3-5 4-10 4s-8-1-10-4c-3-2-4-6-4-10V23h9v9h19v6h-19v15c0 4 2 6 5 6 4 0 6-2 6-6Zm43 13h-9V45c0-3-1-4-2-5l-4-2c-2 0-4 1-5 3-2 1-2 3-2 6v19h-9V19h9v17l4-3c1-2 4-2 6-2 3 0 6 1 8 3 3 2 4 5 4 8v24Zm12-20h14c0-3 0-5-2-6l-5-2-4 2-3 6Zm24 6h-24l2 6 6 2 4-1 2-3h9c-1 4-3 7-5 8-3 2-6 3-10 3-11 0-17-6-17-18 0-6 1-10 4-13s7-5 13-5c10 0 16 7 16 21Zm120 14h-9V19h9v47Zm13 0h-10V19h10v47Zm13 0h-9V19h9v47Z" mask="url(#a)"/>
  </defs>
  <g filter="url(#b)">
    <mask id="a" width="408" height="57" x="7" y="15" fill="#000" maskUnits="userSpaceOnUse">
      <path fill="#fff" d="M7 15h408v57H7z"/>
      <use xlink:href="#c"/>
    </mask>
    <path fill="#7500FF" d="M42 66h-9V45l-1-5-5-2c-2 0-4 1-5 3l-2 6v19h-9V19h9v17l4-3c2-2 4-2 6-2 4 0 7 1 9 3s3 5 3 8v24Zm25-13v-3l-6 2c-3 0-4 1-5 2-1 0-2 1-2 3 0 3 2 4 5 4l5-2 3-6Zm9 13h-8l-1-3c-2 3-6 4-10 4s-7 0-9-2-3-4-3-7l1-5 2-3 3-2 5-2h5l4-2 2-2c0-2-1-2-2-3l-4-1c-4 0-6 2-6 5h-9c0-8 5-12 15-12 6 0 9 1 12 3 2 3 3 6 3 11v21Zm26-12h9c-1 4-2 7-5 10-3 2-7 3-11 3-5 0-9-1-11-4-3-4-5-8-5-14s2-11 5-14c2-3 6-4 11-4s8 1 11 4c3 2 5 5 5 9h-9l-2-4-5-1c-4 0-7 3-7 10l2 8c2 2 3 3 5 3l5-2 2-4Zm43 12h-10l-8-15-4 4v11h-9V19h9v26l11-13h11l-11 13 11 21Zm41-13v-9h8v10c0 3-1 7-4 9-2 3-5 4-10 4s-8-1-10-4c-3-2-4-6-4-10V23h9v9h19v6h-19v15c0 4 2 6 5 6 4 0 6-2 6-6Zm43 13h-9V45c0-3-1-4-2-5l-4-2c-2 0-4 1-5 3-2 1-2 3-2 6v19h-9V19h9v17l4-3c1-2 4-2 6-2 3 0 6 1 8 3 3 2 4 5 4 8v24Zm12-20h14c0-3 0-5-2-6l-5-2-4 2-3 6Zm24 6h-24l2 6 6 2 4-1 2-3h9c-1 4-3 7-5 8-3 2-6 3-10 3-11 0-17-6-17-18 0-6 1-10 4-13s7-5 13-5c10 0 16 7 16 21Zm120 14h-9V19h9v47Zm13 0h-10V19h10v47Zm13 0h-9V19h9v47Z"/>
    <use xlink:href="#d" stroke-width="8" mask="url(#a)"/>
    <path fill="#7500FF" stroke="#7500FF" stroke-width="3" d="M327 15v6h-4v-6h4Z"/>
    <path fill="#7500FF" stroke="#7500FF" stroke-width="3" d="M329 14v4h-6v-4h6Z"/>
    <path fill="#7500FF" stroke="#7500FF" stroke-width="3" d="m326 19 5 16v2h-12v-2l5-16 1-6 1 6Z"/>
    <path fill="#7500FF" stroke="#7500FF" stroke-width="3" d="M327 17v5h-4v-5h4Z"/>
    <mask id="e" width="18.1" height="32.1" x="316" y="40" fill="#000" maskUnits="userSpaceOnUse">
      <path fill="#fff" d="M316 40h18v32h-18z"/>
      <path d="M329 45v22h-9l1-22h8Zm-2 1v5l1-2-1-3Zm-1 0-1 3 1 2v-5Zm-2 0v5-5Zm-2 0v5l1-2-1-3Z"/>
    </mask>
    <path fill="#7500FF" d="M329 45v22h-9l1-22h8Zm-2 1v5l1-2-1-3Zm-1 0-1 3 1 2v-5Zm-2 0v5-5Zm-2 0v5l1-2-1-3Z"/>
    <path fill="#7500FF" d="M329 45h4v-4h-4v4Zm0 22v4h4v-4h-4Zm-9 0h-4v4h4v-4Zm1-22v-4h-4v4h4Zm6 1v-4 4Zm0 3h-4 4Zm0 2v4-4Zm1-2h4-4Zm-2-3v-4 4Zm-1 3h-4 4Zm1 2v4-4Zm0-2h4-4Zm-2-3v-4 4Zm0 3h-4 4Zm0 2v4-4Zm0-2h4-4Zm-2-3v-4 4Zm0 3h-4 4Zm0 2v4-4Zm1-2h4-4Zm6-4h-4v22h8V45h-4Zm0 22v-4h-8l-1 4v4h9v-4Zm-9 0h4l1-22h-8l-1 22h4Zm1-22v4h8v-8h-8v4Zm6 1v-4a4 4 0 0 0-3 2l-1 1v4h8v-2 1l-1 1-3 1v-4Zm0 3h-4a17 17 0 0 0 0 3l1 1 1 1 2 1v-8a4 4 0 0 1 4 2v1-1h-4Zm0 2v4a4 4 0 0 0 4-2v-2l1-2h-8v1-1l1-1 2-1v4Zm1-2h4a18 18 0 0 0-1-4v-1l-1-1-3-1v8a4 4 0 0 1-3-2v-1 2h4Zm-2-3v-4a4 4 0 0 0-4 2v2l-1 3h8l1-2-1 1a4 4 0 0 1-3 2v-4Zm-1 3h-4a17 17 0 0 0 1 3v1a4 4 0 0 0 4 2v-8a4 4 0 0 1 3 2v1h1l-1-1h-4Zm1 2v4a4 4 0 0 0 3-2l1-1v-3h-8v1-1l1-1 3-1v4Zm0-2h4a18 18 0 0 0 0-4l-1-1a4 4 0 0 0-3-2v8a4 4 0 0 1-4-2v-1 2h4Zm-2-3v-4a4 4 0 0 0-3 2l-1 1v4h8v-2 1h-1v1l-3 1v-4Zm0 3h-4a17 17 0 0 0 0 3l1 1v1l3 1v-8a4 4 0 0 1 3 2l1 1v-1h-4Zm0 2v4a4 4 0 0 0 4-2v-4h-8v1l1-1 1-1 2-1v4Zm0-2h4a17 17 0 0 0 0-4v-1l-1-1-3-1v8a4 4 0 0 1-3-2h-1v-1 2h4Zm-2-3v-4a4 4 0 0 0-3 2l-1 1v4h8v-2 1l-1 1-3 1v-4Zm0 3h-4a17 17 0 0 0 0 3l1 1 1 1 2 1v-8a4 4 0 0 1 4 2v1-1h-4Zm0 2v4a4 4 0 0 0 4-2v-1l1-1v-2h-8v1-1l1-1 2-1v4Zm1-2h4a18 18 0 0 0-1-4v-1l-1-1-3-1v8a4 4 0 0 1-3-2v-1 2h4Z" mask="url(#e)"/>
    <mask id="f" fill="#fff">
      <path d="M329 35v9h-8v-9h8Zm-4 1c-2 0-3 2-3 4 0 1 1 3 3 3s3-2 3-3c0-2-1-4-3-4Z"/>
    </mask>
    <path fill="#7500FF" d="M329 35v9h-8v-9h8Zm-4 1c-2 0-3 2-3 4 0 1 1 3 3 3s3-2 3-3c0-2-1-4-3-4Z"/>
    <path fill="#7500FF" d="M329 35h2v-1h-2v1Zm0 9v1h2v-1h-2Zm-8 0h-2v1h2v-1Zm0-9v-1h-2v1h2Zm4 1v-1 1Zm-3 4h-1 1Zm3 3v1-1Zm3-3h2-2Zm1-5h-1v9h3v-9h-2Zm0 9v-1h-8v2h8v-1Zm-8 0h1v-9h-3v9h2Zm0-9v1h8v-2h-8v1Zm4 1v-1c-2 0-4 2-4 5h2l2-2v-2Zm-3 4h-1c0 2 2 4 4 4v-3l-2-1h-1Zm3 3v1c3 0 5-2 5-4h-3l-2 1v2Zm3-3h2c0-3-2-5-5-5v3l2 2h1Z" mask="url(#f)"/>
    <path fill="#7500FF" stroke="#7500FF" stroke-width="1.4" d="M325 40v-1 1Z"/>
    <path fill="#7500FF" stroke="#7500FF" stroke-width="2.5" d="M332 37v8h-4v-8h4Zm-10 0v8h-4v-8h4Z"/>
    <path fill="#7500FF" stroke="#7500FF" stroke-width="2.5" d="m321 36 1 2v2h-4v-2l1-2h2Zm10 0 1 2v2h-4v-2l1-2h2Zm2 7-1 2v1h-13l-1-1-1-2h16Z"/>
    <path fill="#7500FF" stroke="#7500FF" stroke-width="2.5" d="M320 36Zm0 0v-1m0 1v-1m0 0-1 1v1h2a1 1 0 0 0 0-1l-1-1Zm2 1-1 1-1 1-1-1a1 1 0 0 1 0-2h2l1 1Zm8 0Zm0 0v-1m0 1v-1m0 0-1 1v1h2a1 1 0 0 0 0-1l-1-1Zm1 1v1l-1 1-1-1a1 1 0 0 1 0-2h2v1Z"/>
    <path fill="#7500FF" stroke="#7500FF" stroke-width="4" d="M296 17v14l8-2c4 0 8 1 10 3 3 3 4 6 4 10v28l-13-1V45l-1-4-3-1-3 2-2 5v22h-13V17h13Zm62 0v53l-26-1V17h26Z"/>
  </g>
  <mask id="g" width="402" height="50" x="10" y="18" fill="#000" maskUnits="userSpaceOnUse">
    <path fill="#fff" d="M10 18h402v50H10z"/>
    <use xlink:href="#c"/>
  </mask>
  <path fill="#fff" d="M42 66h-9V45l-1-5-5-2c-2 0-4 1-5 3l-2 6v19h-9V19h9v17l4-3c2-2 4-2 6-2 4 0 7 1 9 3s3 5 3 8v24Zm25-13v-3l-6 2c-3 0-4 1-5 2-1 0-2 1-2 3 0 3 2 4 5 4l5-2 3-6Zm9 13h-8l-1-3c-2 3-6 4-10 4s-7 0-9-2-3-4-3-7l1-5 2-3 3-2 5-2h5l4-2 2-2c0-2-1-2-2-3l-4-1c-4 0-6 2-6 5h-9c0-8 5-12 15-12 6 0 9 1 12 3 2 3 3 6 3 11v21Zm26-12h9c-1 4-2 7-5 10-3 2-7 3-11 3-5 0-9-1-11-4-3-4-5-8-5-14s2-11 5-14c2-3 6-4 11-4s8 1 11 4c3 2 5 5 5 9h-9l-2-4-5-1c-4 0-7 3-7 10l2 8c2 2 3 3 5 3l5-2 2-4Zm43 12h-10l-8-15-4 4v11h-9V19h9v26l11-13h11l-11 13 11 21Zm41-13v-9h8v10c0 3-1 7-4 9-2 3-5 4-10 4s-8-1-10-4c-3-2-4-6-4-10V23h9v9h19v6h-19v15c0 4 2 6 5 6 4 0 6-2 6-6Zm43 13h-9V45c0-3-1-4-2-5l-4-2c-2 0-4 1-5 3-2 1-2 3-2 6v19h-9V19h9v17l4-3c1-2 4-2 6-2 3 0 6 1 8 3 3 2 4 5 4 8v24Zm12-20h14c0-3 0-5-2-6l-5-2-4 2-3 6Zm24 6h-24l2 6 6 2 4-1 2-3h9c-1 4-3 7-5 8-3 2-6 3-10 3-11 0-17-6-17-18 0-6 1-10 4-13s7-5 13-5c10 0 16 7 16 21Zm120 14h-9V19h9v47Zm13 0h-10V19h10v47Zm13 0h-9V19h9v47Z"/>
  <use xlink:href="#d" mask="url(#g)"/>
  <mask id="h" fill="#fff">
    <path d="M325 15v2-2Z"/>
  </mask>
  <path fill="#fff" d="M325 15v2-2Z"/>
  <path fill="#7500FF" d="M325 15h1v-1h-1v1Zm0 0v-1h-1v1h1Zm0 2h-1v1h1v-1Zm0 0v1h1v-1h-1Zm0-2v-1 1Zm0 0h-1v2h1v-2Zm0 2v1-1Zm0 0h1v-2h-1v2Z" mask="url(#h)"/>
  <path fill="#fff" stroke="#7500FF" stroke-width=".5" d="M328 13v2h-3v-2h3Zm1 21h-8l4-16 4 16Zm-4-17v2-2Z"/>
  <mask id="i" fill="#fff">
    <path d="M329 44v23h-9l1-23h8Zm-2 1v5l1-2-1-3Zm-1 0-1 3 1 2v-5Zm-2 0v5-5Zm-2 0v5l1-2-1-3Z"/>
  </mask>
  <path fill="#fff" d="M329 44v23h-9l1-23h8Zm-2 1v5l1-2-1-3Zm-1 0-1 3 1 2v-5Zm-2 0v5-5Zm-2 0v5l1-2-1-3Z"/>
  <path fill="#7500FF" d="M329 44h1-1Zm0 23v1h1v-1h-1Zm-9 0v1-1Zm1-23h-1 1Zm6 1Zm0 3h-1 1Zm0 2v1-1Zm1-2Zm-2-3Zm-1 3Zm1 2v1-1Zm0-2h1-1Zm-2-3Zm0 3h-1 1Zm0 2v1-1Zm0-2h1-1Zm-2-3Zm0 3Zm0 2v1-1Zm1-2Zm6-4v23h1V44h-1Zm0 23h-9v1h9v-1Zm-9 0h1V44h-1v23Zm1-23v1h8v-1h-8Zm6 1v1l-1 2h2a14 14 0 0 1 0-2h-1v-1Zm0 3h-1a15 15 0 0 0 1 2v1-1h1v-2h-1Zm0 2v1h1v-3h-1a14 14 0 0 1 0 2Zm1-2a15 15 0 0 0 0-3h-1v3h1Zm-2-3h-1v3h1a14 14 0 0 1 0-2v-1Zm-1 3a15 15 0 0 0 0 2v1h1v-3h-1Zm1 2v1-1h1v-2h-2a14 14 0 0 1 0 2h1Zm0-2h1a15 15 0 0 0-1-3v1h-1v2h1Zm-2-3h-1v3h1a14 14 0 0 1 1-2h-1v-1Zm0 3h-1a15 15 0 0 0 0 2h1v1-1h1l-1-1v-1Zm0 2v1h1v-3h-1a14 14 0 0 1 0 2Zm0-2h1a15 15 0 0 0 0-3h-1v3Zm-2-3v3h1a14 14 0 0 1 0-2h-1v-1Zm0 3a15 15 0 0 0 0 2v1-1h1v-2h-1Zm0 2v1h1v-3h-1a14 14 0 0 1 0 2Zm1-2a15 15 0 0 0 0-3h-1v3h1Z" mask="url(#i)"/>
  <mask id="j" fill="#fff">
    <path d="M329 34v9h-8v-9h8Zm-4 1c-2 0-3 2-3 3 0 2 1 4 3 4s3-2 3-4c0-1-1-3-3-3Z"/>
  </mask>
  <path fill="#fff" d="M329 34v9h-8v-9h8Zm-4 1c-2 0-3 2-3 3 0 2 1 4 3 4s3-2 3-4c0-1-1-3-3-3Z"/>
  <path fill="#7500FF" d="M329 34h1v-1h-1v1Zm0 9h1-1Zm-8 0h-1 1Zm0-9v-1h-1v1h1Zm4 1Zm-3 3Zm3 4Zm3-4h1-1Zm1-4v9h1v-9h-1Zm0 9h-8 8Zm-8 0v-9h-1v9h1Zm0-9h8v-1h-8v1Zm4 1c-2 0-3 1-3 3 0-1 2-3 3-2v-1Zm-3 3c0 2 1 4 3 4v-1c-1 0-3-1-3-3Zm3 4c2 0 4-2 4-4h-1c0 2-1 3-3 3v1Zm3-4h1c0-2-2-3-4-3v1c2 0 3 1 3 2Z" mask="url(#j)"/>
  <path fill="#fff" stroke="#7500FF" stroke-width=".3" d="M325 38v1-1Zm5 0v5h-1v-5h1Zm-9 0v5h-1v-5h1Zm0-1h-1v-1l1 1Zm9 0h-1l1-1v1Zm1 6-1 1h-10l-1-1h12Zm-11-8Zm10 0Z"/>
  <path fill="#fff" stroke="#7500FF" stroke-width=".5" d="M294 19v17l1 1c1-4 5-6 9-6s7 1 9 3 3 5 3 8v25h-9V45l-1-5-5-2c-2 0-4 1-5 3l-2 6v20h-9l1-48h8Zm62 0v48h-9V19h9Zm-13 0v48h-8V19h8Z"/>
  <defs>
    <filter id="b" width="421.7" height="77.6" x="0" y="1" color-interpolation-filters="sRGB" filterUnits="userSpaceOnUse">
      <feFlood flood-opacity="0" result="BackgroundImageFix"/>
      <feBlend in="SourceGraphic" in2="BackgroundImageFix" result="shape"/>
      <feGaussianBlur result="effect1_foregroundBlur_454_530" stdDeviation="3.5"/>
    </filter>
  </defs>
</svg>
