<svg width="123" height="80" viewBox="0 0 123 80" fill="none" xmlns="http://www.w3.org/2000/svg">
<g filter="url(#filter0_f_481_2835)">
<path d="M57.8357 75V47.3877C57.8357 39.6165 52.4963 34.9043 44.7662 34.9043C39.7456 34.9043 35.1235 37.5498 33.689 41.022V21.6768H23.7275V75H33.689V52.596C33.689 47.3877 36.4783 43.0888 41.4192 43.0888C45.9616 43.0888 47.8742 44.9075 47.8742 50.7772V75H57.8357Z" fill="#7500FF" stroke="#7500FF"/>
<path d="M87.0826 75V21.6768H77.1211V75H87.0826ZM101.188 75V21.6768H91.2266V75H101.188Z" fill="#7500FF" stroke="#7500FF"/>
<path d="M91.9644 74.72V70.4343C91.4689 72.7018 90.9604 73.6708 89.3291 74.72H91.9644Z" fill="#7500FF" stroke="#7500FF"/>
<path d="M100.31 74.72V70.4343C100.805 72.7018 101.314 73.6708 102.945 74.72H100.31Z" fill="#7500FF" stroke="#7500FF"/>
<path d="M91.9644 21.94V26.2257C91.4689 23.9583 90.9604 22.9892 89.3291 21.94H91.9644Z" fill="#7500FF" stroke="#7500FF"/>
<path d="M100.31 21.94V26.2257C100.805 23.9583 101.314 22.9892 102.945 21.94H100.31Z" fill="#7500FF" stroke="#7500FF"/>
<path d="M20.6196 62.7642H12.5707C10.2597 62.7642 8.90491 64.6656 8.90491 67.4765C8.90491 69.2952 9.70183 70.9487 10.6581 71.4447H5V74.9996H20.6196V71.4447H14.0849C12.5707 71.4447 11.2957 70.4526 11.2957 68.6339C11.2957 66.9804 11.8535 66.319 13.527 66.319H20.6196V62.7642ZM16.3163 52.9263C17.671 52.9263 18.7867 54.3317 18.7867 56.1505C18.7867 57.3079 18.3883 57.8866 17.5116 57.8866C16.5553 57.8866 16.0772 57.2252 15.7584 55.1584C15.5193 53.8356 15.36 53.1743 15.1209 52.8436L16.3163 52.9263ZM20.6196 49.3714H13.3677C10.4987 49.3714 8.82522 50.8595 8.82522 55.1584C8.82522 59.54 10.4987 61.0281 12.8895 61.1107V57.8039C11.8535 57.6385 11.216 56.9772 11.216 55.3237C11.216 53.9183 11.6941 53.0089 12.4114 53.0089C13.2083 53.0089 13.527 53.505 13.6864 55.3237C14.0849 58.9613 14.4833 61.5241 17.7507 61.5241C19.5836 61.5241 20.8587 60.1187 20.8587 56.9772C20.8587 55.1584 20.3009 53.753 19.5039 52.8436C19.8227 52.8436 20.2212 52.7609 20.5399 52.5956V49.3714H20.6196ZM16.4756 39.2028C17.671 39.3681 18.3883 40.4429 18.3883 41.8483C18.3883 43.2537 17.1929 44.4938 14.7224 44.4938C12.252 44.4938 11.3754 43.2537 11.3754 41.6829C11.3754 40.3602 12.0926 39.2855 13.288 39.1201V35.4826C10.5784 35.7306 8.90491 38.128 8.90491 41.6003C8.90491 45.4031 10.6581 47.966 14.8021 47.966C18.9461 47.966 20.9384 45.4031 20.9384 41.7656C20.9384 38.4587 19.1852 35.8959 16.4756 35.5652V39.2028ZM20.6196 22.1724L13.3677 26.6367L9.22368 22.0898V26.4714L13.6067 30.9356H5V34.4905H20.6196V30.853H16.9538L15.4397 29.1168L20.6196 26.1407V22.1724Z" fill="#7500FF" stroke="#7500FF"/>
<path d="M43.6842 26.8749C43.6842 27.5363 43.4451 27.9496 42.8075 27.9496C42.2497 27.9496 41.9309 27.5363 41.9309 26.8749V24.6428H44.9592V23.6507H41.9309V22.2453H40.5762V27.0402C40.5762 28.1976 41.2137 29.1897 42.8075 29.1897C44.4014 29.1897 45.0389 28.1976 45.0389 27.0402V25.5521H43.6842V26.8749ZM50.6971 28.9417V25.1388C50.6971 24.0641 49.9001 23.4027 48.7844 23.4027C48.0672 23.4027 47.35 23.7334 47.1109 24.2294V21.6666H45.6765V28.9417H47.1109V25.8828C47.1109 25.1388 47.5094 24.5601 48.2266 24.5601C48.8641 24.5601 49.1829 24.8081 49.1829 25.6348V28.9417H50.6971ZM52.769 25.8002C52.8487 25.0561 53.3269 24.6428 53.8847 24.6428C54.4426 24.6428 55.0004 25.0561 55.0004 25.8002H52.769ZM56.5146 26.6269C56.5146 24.4774 55.638 23.4854 53.8847 23.4854C52.1315 23.4854 51.1752 24.5601 51.1752 26.2135C51.1752 28.115 52.1315 29.107 53.9644 29.107C55.1598 29.107 56.0364 28.5283 56.4349 27.3709H54.9207C54.841 27.7016 54.3629 27.9496 53.9644 27.9496C53.2472 27.9496 52.769 27.4536 52.6894 26.6269H56.5146Z" fill="#7500FF" stroke="#7500FF"/>
<path d="M77.9097 74.72V70.4343C77.4142 72.7018 76.9058 73.6708 75.2744 74.72H77.9097Z" fill="#7500FF" stroke="#7500FF"/>
<path d="M86.2553 74.72V70.4343C86.7508 72.7018 87.2593 73.6708 88.8906 74.72H86.2553Z" fill="#7500FF" stroke="#7500FF"/>
<path d="M77.9097 21.94V26.2257C77.4142 23.9583 76.9058 22.9892 75.2744 21.94H77.9097Z" fill="#7500FF" stroke="#7500FF"/>
<path d="M86.2553 21.94V26.2257C86.7508 23.9583 87.2593 22.9892 88.8906 21.94H86.2553Z" fill="#7500FF" stroke="#7500FF"/>
<g filter="url(#filter1_f_481_2835)">
<g filter="url(#filter2_f_481_2835)">
<path fill-rule="evenodd" clip-rule="evenodd" d="M72.5397 74.8336H62.263L62.263 48.0738V47.9L61.1773 47.9001L60.3418 46.5841H61.184L61.0941 40.0919L61.7286 37.4266C61.6398 37.3713 61.5954 37.2607 61.5954 37.1967C61.5954 37.0213 61.6789 36.9335 61.846 36.9335C62.0131 36.9335 62.0967 37.0213 62.0967 37.1967C62.0967 37.3232 62.0533 37.4041 61.9665 37.4394L62.263 38.6851L62.263 35.7929L66.8817 18.4218H66.8582V15.7899H67.282V12.619L67.4443 5H77.032V12.8571H67.4443L67.4431 15.7899H67.9443V18.4218H67.9245L72.5397 35.793V38.6925L72.841 37.4271C72.7515 37.3721 72.7068 37.2609 72.7068 37.1968C72.7068 37.0213 72.7903 36.9336 72.9574 36.9336C73.1245 36.9336 73.2081 37.0213 73.2081 37.1968C73.2081 37.3228 73.165 37.4035 73.0788 37.439L73.7104 40.0919L73.6269 46.5837L73.6756 46.5841H74.4618L73.7098 47.9001L72.5397 47.9V48.0417V74.8336ZM67.4443 45.7068C69.7837 45.7068 71.7054 43.6889 71.7054 41.2324C71.7054 38.776 69.7837 36.7581 67.4443 36.7581C65.1049 36.7581 63.1832 38.776 63.1832 41.2324C63.1832 43.7767 65.1049 45.7068 67.4443 45.7068ZM64.4354 54.9185C64.6025 54.9185 64.7696 53.6902 64.7696 52.1111C64.7696 50.5319 64.6025 49.3037 64.4354 49.3037C64.2683 49.3037 64.1012 50.5319 64.1012 52.1111C64.1012 53.6902 64.2683 54.9185 64.4354 54.9185ZM66.6918 52.1111C66.6918 53.6902 66.5247 54.9185 66.3576 54.9185C66.1905 54.9185 66.0234 53.6902 66.0234 52.1111C66.0234 50.5319 66.1905 49.3037 66.3576 49.3037C66.5247 49.3037 66.6918 50.5319 66.6918 52.1111ZM70.1171 54.9185C70.2842 54.9185 70.4513 53.6902 70.4513 52.1111C70.4513 50.5319 70.2842 49.3037 70.1171 49.3037C69.95 49.3037 69.7829 50.5319 69.7829 52.1111C69.7829 53.6902 69.95 54.9185 70.1171 54.9185ZM68.6139 52.1111C68.6139 53.6902 68.4468 54.9185 68.2797 54.9185C68.1126 54.9185 67.9455 53.6902 67.9455 52.1111C67.9455 50.5319 68.1126 49.3037 68.2797 49.3037C68.4468 49.3037 68.6139 50.5319 68.6139 52.1111Z" fill="#7500FF"/>
<path d="M67.282 15.7899H66.8582V18.4218H66.8817L62.263 35.7929L62.263 38.6851L61.9665 37.4394C62.0533 37.4041 62.0967 37.3232 62.0967 37.1967C62.0967 37.0213 62.0131 36.9335 61.846 36.9335C61.6789 36.9335 61.5954 37.0213 61.5954 37.1967C61.5954 37.2607 61.6398 37.3713 61.7286 37.4266L61.0941 40.0919L61.184 46.5841H60.3418L61.1773 47.9001L62.263 47.9V48.0738L62.263 74.8336H72.5397V48.0417V47.9L73.7098 47.9001L74.4618 46.5841H73.6756L73.6269 46.5837L73.7104 40.0919L73.0788 37.439C73.165 37.4035 73.2081 37.3228 73.2081 37.1968C73.2081 37.0213 73.1245 36.9336 72.9574 36.9336C72.7903 36.9336 72.7068 37.0213 72.7068 37.1968C72.7068 37.2609 72.7515 37.3721 72.841 37.4271L72.5397 38.6925V35.793L67.9245 18.4218H67.9443V15.7899H67.4431M67.282 15.7899V12.619L67.4443 5H77.032V12.8571H67.4443L67.4431 15.7899M67.282 15.7899L67.282 15.7971M67.4431 15.7899V15.7942M71.7054 41.2324C71.7054 43.6889 69.7837 45.7068 67.4443 45.7068C65.1049 45.7068 63.1832 43.7767 63.1832 41.2324C63.1832 38.776 65.1049 36.7581 67.4443 36.7581C69.7837 36.7581 71.7054 38.776 71.7054 41.2324ZM64.7696 52.1111C64.7696 53.6902 64.6025 54.9185 64.4354 54.9185C64.2683 54.9185 64.1012 53.6902 64.1012 52.1111C64.1012 50.5319 64.2683 49.3037 64.4354 49.3037C64.6025 49.3037 64.7696 50.5319 64.7696 52.1111ZM66.3576 54.9185C66.5247 54.9185 66.6918 53.6902 66.6918 52.1111C66.6918 50.5319 66.5247 49.3037 66.3576 49.3037C66.1905 49.3037 66.0234 50.5319 66.0234 52.1111C66.0234 53.6902 66.1905 54.9185 66.3576 54.9185ZM70.4513 52.1111C70.4513 53.6902 70.2842 54.9185 70.1171 54.9185C69.95 54.9185 69.7829 53.6902 69.7829 52.1111C69.7829 50.5319 69.95 49.3037 70.1171 49.3037C70.2842 49.3037 70.4513 50.5319 70.4513 52.1111ZM68.2797 54.9185C68.4468 54.9185 68.6139 53.6902 68.6139 52.1111C68.6139 50.5319 68.4468 49.3037 68.2797 49.3037C68.1126 49.3037 67.9455 50.5319 67.9455 52.1111C67.9455 53.6902 68.1126 54.9185 68.2797 54.9185Z" stroke="#7500FF"/>
</g>
</g>
<path d="M106.019 74.72V70.4343C105.524 72.7018 105.015 73.6708 103.384 74.72H106.019Z" fill="#7500FF" stroke="#7500FF"/>
<path d="M114.365 74.72V70.4343C114.86 72.7018 115.369 73.6708 117 74.72H114.365Z" fill="#7500FF" stroke="#7500FF"/>
<path d="M106.019 21.94V26.2257C105.524 23.9583 105.015 22.9892 103.384 21.94H106.019Z" fill="#7500FF" stroke="#7500FF"/>
<path d="M114.365 21.94V26.2257C114.86 23.9583 115.369 22.9892 117 21.94H114.365Z" fill="#7500FF" stroke="#7500FF"/>
<path d="M115.103 74.9897V21.6666H105.142V74.9897H115.103Z" fill="#7500FF" stroke="#7500FF"/>
<path d="M72.3691 35.9875L72.3377 46.6993L62.0985 46.6641L62.1299 35.9522L72.3691 35.9875ZM67.2864 37.5383C65.2888 37.5317 63.6193 39.2679 63.6131 41.3577C63.607 43.4478 65.2663 45.1952 67.2639 45.2024C69.2618 45.2092 70.9321 43.4731 70.9382 41.383C70.9442 39.293 69.2842 37.5452 67.2864 37.5383Z" fill="#7500FF"/>
<path d="M67.1917 41.892C67.4414 41.8929 67.6084 41.7193 67.6091 41.458C67.6099 41.1967 67.4439 41.0219 67.1942 41.0211C66.9446 41.0202 66.8606 41.2812 66.8601 41.4554C66.8595 41.6296 67.0252 41.8915 67.1917 41.892Z" fill="#7500FF"/>
<path d="M67.1926 41.4561L65.5238 42.6697L67.1926 41.4561Z" fill="#7500FF"/>
<path d="M67.1926 41.4561L65.5238 42.6697" stroke="#7500FF"/>
<path d="M67.1924 41.459L69.185 43.2949L67.1924 41.459Z" fill="#7500FF"/>
<path d="M67.1924 41.459L69.185 43.2949" stroke="#7500FF"/>
<path d="M73.524 9.54581C73.6738 9.5099 73.757 9.25434 73.7098 8.975C73.6627 8.69566 73.503 8.49833 73.3532 8.53424C73.2034 8.57015 73.1203 8.82571 73.1674 9.10505C73.2146 9.38439 73.3743 9.58172 73.524 9.54581Z" fill="#7500FF"/>
<path d="M71.5845 9.12958C71.6245 8.84893 71.5349 8.59597 71.3843 8.56457C71.2337 8.53317 71.0792 8.73522 71.0392 9.01587C70.9992 9.29652 71.0889 9.54949 71.2394 9.58089C71.39 9.61229 71.5445 9.41023 71.5845 9.12958Z" fill="#7500FF"/>
<path fill-rule="evenodd" clip-rule="evenodd" d="M71.8075 9.81368C72.0197 9.69296 72.2435 9.65043 72.3879 9.64827L72.3926 9.6482L72.3973 9.6487C72.9377 9.70756 73.2588 10.0189 73.4063 10.362C73.4791 10.5314 73.5091 10.7079 73.5015 10.8619C73.4941 11.0126 73.4491 11.1581 73.3559 11.2417C73.238 11.3475 73.0529 11.4223 72.8811 11.4739C72.7058 11.5264 72.5302 11.5587 72.4209 11.5725L72.4167 11.573L72.4125 11.5731C72.2081 11.5762 71.8797 11.5189 71.6256 11.3602C71.4979 11.2805 71.3811 11.1702 71.3126 11.0195C71.2422 10.8646 71.2287 10.6799 71.2896 10.4701C71.3856 10.1397 71.5944 9.93492 71.8075 9.81368ZM71.8853 10.0096C71.7008 10.1146 71.5357 10.2825 71.4603 10.542C71.4142 10.7009 71.4281 10.8212 71.4712 10.9161C71.5162 11.0151 71.599 11.0995 71.7087 11.168C71.9275 11.3047 72.2215 11.3583 72.4056 11.3564C72.5081 11.3432 72.6731 11.3126 72.8368 11.2635C73.0061 11.2127 73.1605 11.146 73.2474 11.068C73.2822 11.0367 73.3154 10.9639 73.3211 10.8484C73.3266 10.7362 73.3048 10.5984 73.2457 10.4609C73.1297 10.1912 72.868 9.91919 72.3861 9.86514C72.2635 9.86782 72.0685 9.90542 71.8853 10.0096Z" fill="#7500FF"/>
<path fill-rule="evenodd" clip-rule="evenodd" d="M71.6992 10.4269L70.7072 10.0623L70.7596 9.85398L71.7516 10.2186L71.6992 10.4269Z" fill="#7500FF"/>
<path fill-rule="evenodd" clip-rule="evenodd" d="M71.586 10.6878L70.5506 10.6181L70.5599 10.4007L71.5953 10.4704L71.586 10.6878Z" fill="#7500FF"/>
<path fill-rule="evenodd" clip-rule="evenodd" d="M71.626 10.9876L70.5949 11.1182L70.575 10.9017L71.6062 10.7711L71.626 10.9876Z" fill="#7500FF"/>
<path fill-rule="evenodd" clip-rule="evenodd" d="M73.0215 10.4405L74.0301 10.1559L73.9884 9.94376L72.9798 10.2284L73.0215 10.4405Z" fill="#7500FF"/>
<path fill-rule="evenodd" clip-rule="evenodd" d="M73.1061 10.7212L74.1393 10.6204L74.1244 10.4034L73.0913 10.5041L73.1061 10.7212Z" fill="#7500FF"/>
<path fill-rule="evenodd" clip-rule="evenodd" d="M73.0481 11.0793L74.0822 11.1789L74.0965 10.9619L73.0624 10.8623L73.0481 11.0793Z" fill="#7500FF"/>
<path d="M72.001 10.118C72.0623 9.97721 72.2589 9.9672 72.3481 9.96272C72.4324 9.95851 72.6429 9.9477 72.7245 10.0942C72.7823 10.1979 72.742 10.3198 72.7314 10.3515C72.6843 10.4937 72.5494 10.6186 72.3831 10.6207C72.1826 10.6233 72.0707 10.4458 72.0545 10.4194C72.0337 10.385 71.947 10.2421 72.001 10.1182L72.001 10.118Z" fill="#7500FF"/>
<path d="M71.4418 8.84278C71.4426 8.90293 71.4028 8.95229 71.3529 8.95304C71.303 8.95379 71.2619 8.90564 71.2612 8.84549C71.2604 8.78534 71.3002 8.73597 71.3501 8.73522C71.4 8.73447 71.441 8.78263 71.4418 8.84278Z" fill="#7500FF"/>
<path d="M73.4496 8.81235C73.4504 8.8725 73.4106 8.92187 73.3607 8.92262C73.3108 8.92337 73.2697 8.87521 73.269 8.81506C73.2682 8.75491 73.308 8.70555 73.3579 8.7048C73.4078 8.70405 73.4489 8.7522 73.4496 8.81235Z" fill="#7500FF"/>
<path fill-rule="evenodd" clip-rule="evenodd" d="M69.7279 7.55828C69.6068 7.74053 69.5043 7.91938 69.4208 8.08442C69.2813 8.00023 69.2206 7.75147 69.2101 7.69349C69.1975 7.62308 69.2545 7.48104 69.3236 7.36705C69.3928 7.25306 69.4516 7.25217 69.5577 7.2647C69.6426 7.27472 69.7053 7.45544 69.7261 7.54455C69.7267 7.54898 69.7273 7.55356 69.7279 7.55828ZM74.9163 7.50653C75.0439 7.70214 75.152 7.89478 75.2395 8.07152C75.3658 7.97534 75.4165 7.741 75.4251 7.68488C75.436 7.61412 75.3754 7.47385 75.3033 7.36198C75.2313 7.25011 75.1724 7.25099 75.0667 7.2667C74.9946 7.27741 74.9418 7.41159 74.9163 7.50653Z" fill="#7500FF"/>
<path fill-rule="evenodd" clip-rule="evenodd" d="M72.2287 6.017C73.0087 5.93954 73.6738 6.32387 74.1914 6.84308C74.7095 7.36284 75.0746 8.01289 75.2512 8.4504L75.2692 8.49495L75.3103 8.49799C75.4754 8.51017 75.9177 8.77809 76.0522 9.896L76.055 9.91941L76.0675 9.93768C76.0959 9.979 76.1554 10.1408 76.0345 10.3604L76.0167 10.3926L76.0255 10.4298C76.038 10.4827 76.0373 10.5984 75.9536 10.662L75.9182 10.689L75.9213 10.7393C75.9229 10.7662 75.9189 10.8134 75.9005 10.8565C75.8833 10.8969 75.8539 10.934 75.8006 10.9508L75.7693 10.9607L75.7553 10.9956C75.7404 11.0327 75.6597 11.1481 75.4789 11.1508L75.4638 11.151L75.4501 11.1587C75.3782 11.1988 75.2634 11.2423 75.1552 11.2439C75.0475 11.2455 74.9623 11.2069 74.9169 11.1058L74.9083 11.0867L74.8931 11.0749C74.8704 11.0573 74.8323 11.0186 74.8 10.9649C74.768 10.9114 74.745 10.8483 74.7441 10.7803L74.7436 10.7418L74.719 10.7169C74.6954 10.693 74.6581 10.6445 74.6303 10.5829C74.6025 10.5215 74.5872 10.4543 74.5967 10.3886L74.6023 10.3491L74.5803 10.3188C74.5421 10.2661 74.4914 10.1709 74.4674 10.0629C74.4438 9.95659 74.4473 9.84547 74.5056 9.74627L74.5271 9.70968L74.5138 9.66774C74.4998 9.62365 74.4837 9.54819 74.4826 9.4716C74.4814 9.39348 74.4958 9.32968 74.5279 9.29004L74.5513 9.26125L74.5473 9.2213C74.5436 9.18544 74.5438 9.12422 74.5566 9.06501C74.5696 9.00536 74.5926 8.95934 74.6268 8.93468L74.6571 8.91285L74.6604 8.87065C74.6631 8.83743 74.6736 8.78295 74.6954 8.7349C74.7171 8.68697 74.7452 8.65541 74.78 8.64521L74.8672 8.61969L74.8254 8.52425C74.5924 7.99235 74.126 7.28301 73.4798 6.88476C72.8283 6.48331 71.9993 6.40191 71.0593 7.12122L71.0579 7.12225L71.0566 7.12336C70.829 7.31564 70.3122 7.87641 70.0507 8.59935L70.0274 8.66374L70.0761 8.70301C70.0947 8.71805 70.1232 8.74903 70.1424 8.78795C70.1611 8.82574 70.168 8.86387 70.1579 8.90228L70.1428 8.9593L70.1828 8.9953C70.2185 9.0275 70.2727 9.09437 70.3103 9.18404C70.3473 9.27234 70.3668 9.37898 70.341 9.49646L70.3378 9.51095L70.339 9.52589C70.3503 9.66899 70.3537 9.89401 70.3274 10.1009C70.3143 10.2043 70.2941 10.2999 70.2655 10.3773C70.2367 10.4554 70.2019 10.5081 70.1629 10.5362L70.1318 10.5587L70.1292 10.6022C70.1264 10.6482 70.1145 10.7184 70.0895 10.7759C70.0645 10.8335 70.0342 10.8628 69.9978 10.8662L69.9223 10.8734L69.9342 10.9632C69.9369 10.9839 69.9358 11.0172 69.9254 11.0443C69.9169 11.0667 69.9016 11.0876 69.8653 11.0949L69.8162 11.1047L69.8078 11.1636C69.8034 11.194 69.7583 11.3171 69.5639 11.3103L69.5466 11.3097L69.5311 11.3188C69.4347 11.3751 69.2932 11.421 69.1754 11.3918C69.1186 11.3777 69.0686 11.3466 69.0295 11.2915C68.99 11.2358 68.957 11.1491 68.9445 11.0146L68.9412 10.9787L68.9172 10.9567C68.8962 10.9374 68.8668 10.9007 68.85 10.8581C68.8341 10.8179 68.8316 10.7798 68.8494 10.7418L68.8726 10.6924L68.8431 10.6479C68.8144 10.6046 68.7746 10.5238 68.7537 10.4298C68.733 10.3363 68.7326 10.2374 68.7721 10.1481L68.7904 10.1068L68.7707 10.0662C68.7573 10.0385 68.7414 9.98885 68.7401 9.93725C68.7389 9.88835 68.7503 9.84211 68.7864 9.80498L68.8199 9.77059L68.8085 9.71942C68.8024 9.6918 68.7984 9.64585 68.8061 9.60402C68.8133 9.56463 68.829 9.53596 68.859 9.52045L68.9177 9.48999L68.8977 9.41688C68.8903 9.3901 68.8846 9.34447 68.8917 9.30168C68.8982 9.26216 68.9146 9.22829 68.9515 9.20717L68.9969 9.18117L68.9909 9.12119C68.9878 9.09052 68.9909 9.0368 69.0117 8.98664C69.0313 8.93956 69.0671 8.89331 69.1357 8.87053L69.1803 8.85573L69.1865 8.80073C69.1908 8.7623 69.2044 8.70382 69.229 8.65725C69.2532 8.61145 69.2809 8.58875 69.3143 8.58825L69.3588 8.58758L69.3772 8.53904C69.5233 8.15389 69.843 7.5607 70.3243 7.04487C70.8051 6.52961 71.4437 6.09496 72.2287 6.017Z" fill="#7500FF"/>
<path fill-rule="evenodd" clip-rule="evenodd" d="M74.642 10.974C74.6549 11.0068 74.6701 11.0367 74.6861 11.0633C74.7235 11.1257 74.7672 11.174 74.8021 11.2044C74.8121 11.2244 74.8231 11.2426 74.8348 11.2592C74.5117 11.681 73.7277 12.2229 72.3794 12.1826C71.0821 12.1437 70.362 11.5591 70.0617 11.0904C70.0689 11.0654 70.073 11.0403 70.0749 11.0167C70.142 10.985 70.1866 10.9183 70.2144 10.8543C70.2261 10.8272 70.2357 10.7989 70.2434 10.7709C70.416 11.1155 71.0282 11.7807 72.3861 11.8213C73.7361 11.8618 74.4238 11.2892 74.642 10.974Z" fill="#7500FF"/>
</g>
<path d="M57.8357 75V47.3877C57.8357 39.6165 52.4963 34.9043 44.7662 34.9043C39.7456 34.9043 35.1235 37.5498 33.689 41.022V21.6768H23.7275V75H33.689V52.596C33.689 47.3877 36.4783 43.0888 41.4192 43.0888C45.9616 43.0888 47.8742 44.9075 47.8742 50.7772V75H57.8357Z" fill="white" fill-opacity="0.99" stroke="white" stroke-opacity="0.99"/>
<path d="M87.0826 75V21.6768H77.1211V75H87.0826ZM101.188 75V21.6768H91.2266V75H101.188Z" fill="white" fill-opacity="0.99" stroke="white" stroke-opacity="0.99"/>
<path d="M91.9644 73.8333V69.5476C91.4689 71.815 90.9604 72.7841 89.3291 73.8333H91.9644Z" fill="white" fill-opacity="0.99" stroke="white" stroke-opacity="0.99"/>
<path d="M100.31 73.8333V69.5476C100.805 71.815 101.314 72.7841 102.945 73.8333H100.31Z" fill="white" fill-opacity="0.99" stroke="white" stroke-opacity="0.99"/>
<path d="M92.2935 22.8266V27.1123C91.798 24.8449 91.2896 23.8758 89.6582 22.8266H92.2935Z" fill="white" fill-opacity="0.99" stroke="white" stroke-opacity="0.99"/>
<path d="M100.09 22.8266V27.1123C100.586 24.8449 101.094 23.8758 102.726 22.8266H100.09Z" fill="white" fill-opacity="0.99" stroke="white" stroke-opacity="0.99"/>
<path d="M20.6196 62.7642H12.5707C10.2597 62.7642 8.90491 64.6656 8.90491 67.4765C8.90491 69.2952 9.70183 70.9487 10.6581 71.4447H5V74.9996H20.6196V71.4447H14.0849C12.5707 71.4447 11.2957 70.4526 11.2957 68.6339C11.2957 66.9804 11.8535 66.319 13.527 66.319H20.6196V62.7642ZM16.3163 52.9263C17.671 52.9263 18.7867 54.3317 18.7867 56.1505C18.7867 57.3079 18.3883 57.8866 17.5116 57.8866C16.5553 57.8866 16.0772 57.2252 15.7584 55.1584C15.5193 53.8356 15.36 53.1743 15.1209 52.8436L16.3163 52.9263ZM20.6196 49.3714H13.3677C10.4987 49.3714 8.82522 50.8595 8.82522 55.1584C8.82522 59.54 10.4987 61.0281 12.8895 61.1107V57.8039C11.8535 57.6385 11.216 56.9772 11.216 55.3237C11.216 53.9183 11.6941 53.0089 12.4114 53.0089C13.2083 53.0089 13.527 53.505 13.6864 55.3237C14.0849 58.9613 14.4833 61.5241 17.7507 61.5241C19.5836 61.5241 20.8587 60.1187 20.8587 56.9772C20.8587 55.1584 20.3009 53.753 19.5039 52.8436C19.8227 52.8436 20.2212 52.7609 20.5399 52.5956V49.3714H20.6196ZM16.4756 39.2028C17.671 39.3681 18.3883 40.4429 18.3883 41.8483C18.3883 43.2537 17.1929 44.4938 14.7224 44.4938C12.252 44.4938 11.3754 43.2537 11.3754 41.6829C11.3754 40.3602 12.0926 39.2855 13.288 39.1201V35.4826C10.5784 35.7306 8.90491 38.128 8.90491 41.6003C8.90491 45.4031 10.6581 47.966 14.8021 47.966C18.9461 47.966 20.9384 45.4031 20.9384 41.7656C20.9384 38.4587 19.1852 35.8959 16.4756 35.5652V39.2028ZM20.6196 22.1724L13.3677 26.6367L9.22368 22.0898V26.4714L13.6067 30.9356H5V34.4905H20.6196V30.853H16.9538L15.4397 29.1168L20.6196 26.1407V22.1724Z" fill="white" fill-opacity="0.99" stroke="white" stroke-opacity="0.99"/>
<path d="M43.6842 26.8749C43.6842 27.5363 43.4451 27.9496 42.8075 27.9496C42.2497 27.9496 41.9309 27.5363 41.9309 26.8749V24.6428H44.9592V23.6507H41.9309V22.2453H40.5762V27.0402C40.5762 28.1976 41.2137 29.1897 42.8075 29.1897C44.4014 29.1897 45.0389 28.1976 45.0389 27.0402V25.5521H43.6842V26.8749ZM50.6971 28.9417V25.1388C50.6971 24.0641 49.9001 23.4027 48.7844 23.4027C48.0672 23.4027 47.35 23.7334 47.1109 24.2294V21.6666H45.6765V28.9417H47.1109V25.8828C47.1109 25.1388 47.5094 24.5601 48.2266 24.5601C48.8641 24.5601 49.1829 24.8081 49.1829 25.6348V28.9417H50.6971ZM52.769 25.8002C52.8487 25.0561 53.3269 24.6428 53.8847 24.6428C54.4426 24.6428 55.0004 25.0561 55.0004 25.8002H52.769ZM56.5146 26.6269C56.5146 24.4774 55.638 23.4854 53.8847 23.4854C52.1315 23.4854 51.1752 24.5601 51.1752 26.2135C51.1752 28.115 52.1315 29.107 53.9644 29.107C55.1598 29.107 56.0364 28.5283 56.4349 27.3709H54.9207C54.841 27.7016 54.3629 27.9496 53.9644 27.9496C53.2472 27.9496 52.769 27.4536 52.6894 26.6269H56.5146Z" fill="white" fill-opacity="0.99" stroke="white" stroke-opacity="0.99"/>
<path d="M77.9097 73.8333V69.5476C77.4142 71.815 76.9058 72.7841 75.2744 73.8333H77.9097Z" fill="white" fill-opacity="0.99" stroke="white" stroke-opacity="0.99"/>
<path d="M86.2553 73.8333V69.5476C86.7508 71.815 87.2593 72.7841 88.8906 73.8333H86.2553Z" fill="white" fill-opacity="0.99" stroke="white" stroke-opacity="0.99"/>
<path d="M78.2173 22.8266V27.1123C77.7219 24.8449 77.2134 23.8758 75.582 22.8266H78.2173Z" fill="white" fill-opacity="0.99" stroke="white" stroke-opacity="0.99"/>
<path d="M85.9038 22.8266V27.1123C86.3992 24.8449 86.9077 23.8758 88.5391 22.8266H85.9038Z" fill="white" fill-opacity="0.99" stroke="white" stroke-opacity="0.99"/>
<path fill-rule="evenodd" clip-rule="evenodd" d="M72.5397 74.8336H62.263L62.263 48.0738V47.9L61.1773 47.9001L60.3418 46.5841H61.184L61.0941 40.0919L61.7286 37.4266C61.6398 37.3713 61.5954 37.2607 61.5954 37.1967C61.5954 37.0213 61.6789 36.9335 61.846 36.9335C62.0131 36.9335 62.0967 37.0213 62.0967 37.1967C62.0967 37.3232 62.0533 37.4041 61.9665 37.4394L62.263 38.6851L62.263 35.7929L66.8817 18.4218H66.8582V15.7899H67.282V12.619L67.4443 5H77.032V12.8571H67.4443L67.4431 15.7899H67.9443V18.4218H67.9245L72.5397 35.793V38.6925L72.841 37.4271C72.7515 37.3721 72.7068 37.2609 72.7068 37.1968C72.7068 37.0213 72.7903 36.9336 72.9574 36.9336C73.1245 36.9336 73.2081 37.0213 73.2081 37.1968C73.2081 37.3228 73.165 37.4035 73.0788 37.439L73.7104 40.0919L73.6269 46.5837L73.6756 46.5841H74.4618L73.7098 47.9001L72.5397 47.9V48.0417V74.8336ZM67.4443 45.7068C69.7837 45.7068 71.7054 43.6889 71.7054 41.2324C71.7054 38.776 69.7837 36.7581 67.4443 36.7581C65.1049 36.7581 63.1832 38.776 63.1832 41.2324C63.1832 43.7767 65.1049 45.7068 67.4443 45.7068ZM64.4354 54.9185C64.6025 54.9185 64.7696 53.6902 64.7696 52.1111C64.7696 50.5319 64.6025 49.3037 64.4354 49.3037C64.2683 49.3037 64.1012 50.5319 64.1012 52.1111C64.1012 53.6902 64.2683 54.9185 64.4354 54.9185ZM66.6918 52.1111C66.6918 53.6902 66.5247 54.9185 66.3576 54.9185C66.1905 54.9185 66.0234 53.6902 66.0234 52.1111C66.0234 50.5319 66.1905 49.3037 66.3576 49.3037C66.5247 49.3037 66.6918 50.5319 66.6918 52.1111ZM70.1171 54.9185C70.2842 54.9185 70.4513 53.6902 70.4513 52.1111C70.4513 50.5319 70.2842 49.3037 70.1171 49.3037C69.95 49.3037 69.7829 50.5319 69.7829 52.1111C69.7829 53.6902 69.95 54.9185 70.1171 54.9185ZM68.6139 52.1111C68.6139 53.6902 68.4468 54.9185 68.2797 54.9185C68.1126 54.9185 67.9455 53.6902 67.9455 52.1111C67.9455 50.5319 68.1126 49.3037 68.2797 49.3037C68.4468 49.3037 68.6139 50.5319 68.6139 52.1111Z" fill="white" fill-opacity="0.99"/>
<path d="M106.02 73.8333V69.5476C105.525 71.815 105.016 72.7841 103.385 73.8333H106.02Z" fill="white" fill-opacity="0.99" stroke="white" stroke-opacity="0.99"/>
<path d="M114.036 73.8333V69.5476C114.531 71.815 115.04 72.7841 116.671 73.8333H114.036Z" fill="white" fill-opacity="0.99" stroke="white" stroke-opacity="0.99"/>
<path d="M106.239 22.8266V27.1123C105.743 24.8449 105.235 23.8758 103.604 22.8266H106.239Z" fill="white" fill-opacity="0.99" stroke="white" stroke-opacity="0.99"/>
<path d="M114.036 22.8266V27.1123C114.531 24.8449 115.04 23.8758 116.671 22.8266H114.036Z" fill="white" fill-opacity="0.99" stroke="white" stroke-opacity="0.99"/>
<path d="M115.103 74.9897V21.6666H105.142V74.9897H115.103Z" fill="white" fill-opacity="0.99" stroke="white" stroke-opacity="0.99"/>
<path d="M72.3691 35.9875L72.3377 46.6993L62.0985 46.6641L62.1299 35.9522L72.3691 35.9875ZM67.2864 37.5383C65.2888 37.5317 63.6193 39.2679 63.6131 41.3577C63.607 43.4478 65.2663 45.1952 67.2639 45.2024C69.2618 45.2092 70.9321 43.4731 70.9382 41.383C70.9442 39.293 69.2842 37.5452 67.2864 37.5383Z" fill="white" fill-opacity="0.99"/>
<path d="M67.1917 41.892C67.4414 41.8929 67.6084 41.7193 67.6091 41.458C67.6099 41.1967 67.4439 41.0219 67.1942 41.0211C66.9446 41.0202 66.8606 41.2812 66.8601 41.4554C66.8595 41.6296 67.0252 41.8915 67.1917 41.892Z" fill="white" fill-opacity="0.99"/>
<path d="M67.1926 41.4561L65.5238 42.6697L67.1926 41.4561Z" fill="white" fill-opacity="0.99"/>
<path d="M67.1926 41.4561L65.5238 42.6697" stroke="white" stroke-opacity="0.99" stroke-width="0.757998"/>
<path d="M67.1924 41.459L69.185 43.2949L67.1924 41.459Z" fill="white" fill-opacity="0.99"/>
<path d="M67.1924 41.459L69.185 43.2949" stroke="white" stroke-opacity="0.99" stroke-width="0.757998"/>
<path d="M73.524 9.54581C73.6738 9.5099 73.757 9.25434 73.7098 8.975C73.6627 8.69566 73.503 8.49833 73.3532 8.53424C73.2034 8.57015 73.1203 8.82571 73.1674 9.10505C73.2146 9.38439 73.3743 9.58172 73.524 9.54581Z" fill="#7500FF"/>
<path d="M71.5845 9.12958C71.6245 8.84893 71.5349 8.59597 71.3843 8.56457C71.2337 8.53317 71.0792 8.73522 71.0392 9.01587C70.9992 9.29652 71.0889 9.54949 71.2394 9.58089C71.39 9.61229 71.5445 9.41023 71.5845 9.12958Z" fill="#7500FF"/>
<path fill-rule="evenodd" clip-rule="evenodd" d="M71.8075 9.81368C72.0197 9.69296 72.2435 9.65043 72.3879 9.64827L72.3926 9.6482L72.3973 9.6487C72.9377 9.70756 73.2588 10.0189 73.4063 10.362C73.4791 10.5314 73.5091 10.7079 73.5015 10.8619C73.4941 11.0126 73.4491 11.1581 73.3559 11.2417C73.238 11.3475 73.0529 11.4223 72.8811 11.4739C72.7058 11.5264 72.5302 11.5587 72.4209 11.5725L72.4167 11.573L72.4125 11.5731C72.2081 11.5762 71.8797 11.5189 71.6256 11.3602C71.4979 11.2805 71.3811 11.1702 71.3126 11.0195C71.2422 10.8646 71.2287 10.6799 71.2896 10.4701C71.3856 10.1397 71.5944 9.93492 71.8075 9.81368ZM71.8853 10.0096C71.7008 10.1146 71.5357 10.2825 71.4603 10.542C71.4142 10.7009 71.4281 10.8212 71.4712 10.9161C71.5162 11.0151 71.599 11.0995 71.7087 11.168C71.9275 11.3047 72.2215 11.3583 72.4056 11.3564C72.5081 11.3432 72.6731 11.3126 72.8368 11.2635C73.0061 11.2127 73.1605 11.146 73.2474 11.068C73.2822 11.0367 73.3154 10.9639 73.3211 10.8484C73.3266 10.7362 73.3048 10.5984 73.2457 10.4609C73.1297 10.1912 72.868 9.91919 72.3861 9.86514C72.2635 9.86782 72.0685 9.90542 71.8853 10.0096Z" fill="#7500FF"/>
<path fill-rule="evenodd" clip-rule="evenodd" d="M71.6992 10.4269L70.7072 10.0623L70.7596 9.85398L71.7516 10.2186L71.6992 10.4269Z" fill="#7500FF"/>
<path fill-rule="evenodd" clip-rule="evenodd" d="M71.586 10.6878L70.5506 10.6181L70.5599 10.4007L71.5953 10.4704L71.586 10.6878Z" fill="#7500FF"/>
<path fill-rule="evenodd" clip-rule="evenodd" d="M71.626 10.9876L70.5949 11.1182L70.575 10.9017L71.6062 10.7711L71.626 10.9876Z" fill="#7500FF"/>
<path fill-rule="evenodd" clip-rule="evenodd" d="M73.0215 10.4405L74.0301 10.1559L73.9884 9.94376L72.9798 10.2284L73.0215 10.4405Z" fill="#7500FF"/>
<path fill-rule="evenodd" clip-rule="evenodd" d="M73.1061 10.7212L74.1393 10.6204L74.1244 10.4034L73.0913 10.5041L73.1061 10.7212Z" fill="#7500FF"/>
<path fill-rule="evenodd" clip-rule="evenodd" d="M73.0481 11.0793L74.0822 11.1789L74.0965 10.9619L73.0624 10.8623L73.0481 11.0793Z" fill="#7500FF"/>
<path d="M72.001 10.118C72.0623 9.97721 72.2589 9.9672 72.3481 9.96272C72.4324 9.95851 72.6429 9.9477 72.7245 10.0942C72.7823 10.1979 72.742 10.3198 72.7314 10.3515C72.6843 10.4937 72.5494 10.6186 72.3831 10.6207C72.1826 10.6233 72.0707 10.4458 72.0545 10.4194C72.0337 10.385 71.947 10.2421 72.001 10.1182L72.001 10.118Z" fill="#7500FF"/>
<path d="M71.4418 8.84278C71.4426 8.90293 71.4028 8.95229 71.3529 8.95304C71.303 8.95379 71.2619 8.90564 71.2612 8.84549C71.2604 8.78534 71.3002 8.73597 71.3501 8.73522C71.4 8.73447 71.441 8.78263 71.4418 8.84278Z" fill="#7500FF"/>
<path d="M73.4496 8.81235C73.4504 8.8725 73.4106 8.92187 73.3607 8.92262C73.3108 8.92337 73.2697 8.87521 73.269 8.81506C73.2682 8.75491 73.308 8.70555 73.3579 8.7048C73.4078 8.70405 73.4489 8.7522 73.4496 8.81235Z" fill="#7500FF"/>
<path fill-rule="evenodd" clip-rule="evenodd" d="M69.7279 7.55828C69.6068 7.74053 69.5043 7.91938 69.4208 8.08442C69.2813 8.00023 69.2206 7.75147 69.2101 7.69349C69.1975 7.62308 69.2545 7.48104 69.3236 7.36705C69.3928 7.25306 69.4516 7.25217 69.5577 7.2647C69.6426 7.27472 69.7053 7.45544 69.7261 7.54455C69.7267 7.54898 69.7273 7.55356 69.7279 7.55828ZM74.9163 7.50653C75.0439 7.70214 75.152 7.89478 75.2395 8.07152C75.3658 7.97534 75.4165 7.741 75.4251 7.68488C75.436 7.61412 75.3754 7.47385 75.3033 7.36198C75.2313 7.25011 75.1724 7.25099 75.0667 7.2667C74.9946 7.27741 74.9418 7.41159 74.9163 7.50653Z" fill="#7500FF"/>
<path fill-rule="evenodd" clip-rule="evenodd" d="M72.2287 6.017C73.0087 5.93954 73.6738 6.32387 74.1914 6.84308C74.7095 7.36284 75.0746 8.01289 75.2512 8.4504L75.2692 8.49495L75.3103 8.49799C75.4754 8.51017 75.9177 8.77809 76.0522 9.896L76.055 9.91941L76.0675 9.93768C76.0959 9.979 76.1554 10.1408 76.0345 10.3604L76.0167 10.3926L76.0255 10.4298C76.038 10.4827 76.0373 10.5984 75.9536 10.662L75.9182 10.689L75.9213 10.7393C75.9229 10.7662 75.9189 10.8134 75.9005 10.8565C75.8833 10.8969 75.8539 10.934 75.8006 10.9508L75.7693 10.9607L75.7553 10.9956C75.7404 11.0327 75.6597 11.1481 75.4789 11.1508L75.4638 11.151L75.4501 11.1587C75.3782 11.1988 75.2634 11.2423 75.1552 11.2439C75.0475 11.2455 74.9623 11.2069 74.9169 11.1058L74.9083 11.0867L74.8931 11.0749C74.8704 11.0573 74.8323 11.0186 74.8 10.9649C74.768 10.9114 74.745 10.8483 74.7441 10.7803L74.7436 10.7418L74.719 10.7169C74.6954 10.693 74.6581 10.6445 74.6303 10.5829C74.6025 10.5215 74.5872 10.4543 74.5967 10.3886L74.6023 10.3491L74.5803 10.3188C74.5421 10.2661 74.4914 10.1709 74.4674 10.0629C74.4438 9.95659 74.4473 9.84547 74.5056 9.74627L74.5271 9.70968L74.5138 9.66774C74.4998 9.62365 74.4837 9.54819 74.4826 9.4716C74.4814 9.39348 74.4958 9.32968 74.5279 9.29004L74.5513 9.26125L74.5473 9.2213C74.5436 9.18544 74.5438 9.12422 74.5566 9.06501C74.5696 9.00536 74.5926 8.95934 74.6268 8.93468L74.6571 8.91285L74.6604 8.87065C74.6631 8.83743 74.6736 8.78295 74.6954 8.7349C74.7171 8.68697 74.7452 8.65541 74.78 8.64521L74.8672 8.61969L74.8254 8.52425C74.5924 7.99235 74.126 7.28301 73.4798 6.88476C72.8283 6.48331 71.9993 6.40191 71.0593 7.12122L71.0579 7.12225L71.0566 7.12336C70.829 7.31564 70.3122 7.87641 70.0507 8.59935L70.0274 8.66374L70.0761 8.70301C70.0947 8.71805 70.1232 8.74903 70.1424 8.78795C70.1611 8.82574 70.168 8.86387 70.1579 8.90228L70.1428 8.9593L70.1828 8.9953C70.2185 9.0275 70.2727 9.09437 70.3103 9.18404C70.3473 9.27234 70.3668 9.37898 70.341 9.49646L70.3378 9.51095L70.339 9.52589C70.3503 9.66899 70.3537 9.89401 70.3274 10.1009C70.3143 10.2043 70.2941 10.2999 70.2655 10.3773C70.2367 10.4554 70.2019 10.5081 70.1629 10.5362L70.1318 10.5587L70.1292 10.6022C70.1264 10.6482 70.1145 10.7184 70.0895 10.7759C70.0645 10.8335 70.0342 10.8628 69.9978 10.8662L69.9223 10.8734L69.9342 10.9632C69.9369 10.9839 69.9358 11.0172 69.9254 11.0443C69.9169 11.0667 69.9016 11.0876 69.8653 11.0949L69.8162 11.1047L69.8078 11.1636C69.8034 11.194 69.7583 11.3171 69.5639 11.3103L69.5466 11.3097L69.5311 11.3188C69.4347 11.3751 69.2932 11.421 69.1754 11.3918C69.1186 11.3777 69.0686 11.3466 69.0295 11.2915C68.99 11.2358 68.957 11.1491 68.9445 11.0146L68.9412 10.9787L68.9172 10.9567C68.8962 10.9374 68.8668 10.9007 68.85 10.8581C68.8341 10.8179 68.8316 10.7798 68.8494 10.7418L68.8726 10.6924L68.8431 10.6479C68.8144 10.6046 68.7746 10.5238 68.7537 10.4298C68.733 10.3363 68.7326 10.2374 68.7721 10.1481L68.7904 10.1068L68.7707 10.0662C68.7573 10.0385 68.7414 9.98885 68.7401 9.93725C68.7389 9.88835 68.7503 9.84211 68.7864 9.80498L68.8199 9.77059L68.8085 9.71942C68.8024 9.6918 68.7984 9.64585 68.8061 9.60402C68.8133 9.56463 68.829 9.53596 68.859 9.52045L68.9177 9.48999L68.8977 9.41688C68.8903 9.3901 68.8846 9.34447 68.8917 9.30168C68.8982 9.26216 68.9146 9.22829 68.9515 9.20717L68.9969 9.18117L68.9909 9.12119C68.9878 9.09052 68.9909 9.0368 69.0117 8.98664C69.0313 8.93956 69.0671 8.89331 69.1357 8.87053L69.1803 8.85573L69.1865 8.80073C69.1908 8.7623 69.2044 8.70382 69.229 8.65725C69.2532 8.61145 69.2809 8.58875 69.3143 8.58825L69.3588 8.58758L69.3772 8.53904C69.5233 8.15389 69.843 7.5607 70.3243 7.04487C70.8051 6.52961 71.4437 6.09496 72.2287 6.017Z" fill="#7500FF"/>
<path fill-rule="evenodd" clip-rule="evenodd" d="M74.642 10.974C74.6549 11.0068 74.6701 11.0367 74.6861 11.0633C74.7235 11.1257 74.7672 11.174 74.8021 11.2044C74.8121 11.2244 74.8231 11.2426 74.8348 11.2592C74.5117 11.681 73.7277 12.2229 72.3794 12.1826C71.0821 12.1437 70.362 11.5591 70.0617 11.0904C70.0689 11.0654 70.073 11.0403 70.0749 11.0167C70.142 10.985 70.1866 10.9183 70.2144 10.8543C70.2261 10.8272 70.2357 10.7989 70.2434 10.7709C70.416 11.1155 71.0282 11.7807 72.3861 11.8213C73.7361 11.8618 74.4238 11.2892 74.642 10.974Z" fill="#7500FF"/>
<defs>
<filter id="filter0_f_481_2835" x="0.5" y="0.5" width="122.202" height="79" filterUnits="userSpaceOnUse" color-interpolation-filters="sRGB">
<feFlood flood-opacity="0" result="BackgroundImageFix"/>
<feBlend mode="normal" in="SourceGraphic" in2="BackgroundImageFix" result="shape"/>
<feGaussianBlur stdDeviation="2" result="effect1_foregroundBlur_481_2835"/>
</filter>
<filter id="filter1_f_481_2835" x="55.4316" y="0.5" width="26.1006" height="78.8336" filterUnits="userSpaceOnUse" color-interpolation-filters="sRGB">
<feFlood flood-opacity="0" result="BackgroundImageFix"/>
<feBlend mode="normal" in="SourceGraphic" in2="BackgroundImageFix" result="shape"/>
<feGaussianBlur stdDeviation="2" result="effect1_foregroundBlur_481_2835"/>
</filter>
<filter id="filter2_f_481_2835" x="55.4316" y="0.5" width="26.1006" height="78.8336" filterUnits="userSpaceOnUse" color-interpolation-filters="sRGB">
<feFlood flood-opacity="0" result="BackgroundImageFix"/>
<feBlend mode="normal" in="SourceGraphic" in2="BackgroundImageFix" result="shape"/>
<feGaussianBlur stdDeviation="2" result="effect1_foregroundBlur_481_2835"/>
</filter>
</defs>
</svg>
