
<svg width="336" height="68" viewBox="0 0 336 68" fill="none" xmlns="http://www.w3.org/2000/svg">
<g filter="url(#filter0_f_219_3308)">
<mask id="path-1-outside-1_219_3308" maskUnits="userSpaceOnUse" x="7" y="14.8842" width="322" height="46" fill="black">
<rect fill="white" x="7" y="14.8842" width="322" height="46"/>
<path d="M35.3498 55.8673H28.1977V39.0818C28.1977 37.1006 27.8337 35.7247 27.1058 34.9542C26.4142 34.1471 25.2495 33.7435 23.6117 33.7435C21.901 33.7435 20.5543 34.3672 19.5716 35.6147C18.5888 36.8621 18.0975 38.4398 18.0975 40.3476V55.8673H11V18.8842H18.0975V32.3126C18.607 31.1018 19.608 30.0929 21.1002 29.2857C22.5925 28.4785 24.2304 28.075 26.0139 28.075C28.8165 28.075 31.0731 28.8454 32.7838 30.3864C34.4944 31.9274 35.3498 34.037 35.3498 36.7153V55.8673Z"/>
<path d="M54.7274 45.5759L54.782 42.604C54.1997 43.191 52.671 43.723 50.196 44.2C48.1941 44.5669 46.7928 45.0806 45.9921 45.741C45.2278 46.3647 44.8456 47.2636 44.8456 48.4377C44.8456 50.4556 45.9921 51.4645 48.2851 51.4645C50.105 51.4645 51.6155 50.8959 52.8166 49.7585C54.0541 48.5844 54.691 47.1902 54.7274 45.5759ZM61.8795 55.8673H55.2734C55.055 55.1702 54.9094 54.363 54.8366 53.4458C52.944 55.5371 50.2324 56.5827 46.7018 56.5827C43.7537 56.5827 41.5152 55.9223 39.9866 54.6015C38.4943 53.244 37.7481 51.4279 37.7481 49.1531C37.7481 47.6488 37.9665 46.3464 38.4033 45.2457C38.84 44.145 39.3496 43.2828 39.932 42.659C40.5507 42.0353 41.4789 41.5033 42.7164 41.0631C43.9539 40.6228 45.0458 40.3109 45.9921 40.1275C46.9384 39.944 48.3033 39.7239 50.0868 39.4671C51.8339 39.2102 53.0168 38.88 53.6355 38.4764C54.2907 38.0362 54.6182 37.3391 54.6182 36.3851C54.6182 35.5046 54.1997 34.8258 53.3625 34.3489C52.5618 33.8352 51.4699 33.5784 50.0868 33.5784C47.2114 33.5784 45.5917 34.9176 45.2278 37.5959H38.6217C38.7309 31.2486 42.6618 28.075 50.4144 28.075C54.5272 28.075 57.4572 28.9738 59.2043 30.7716C60.9878 32.5327 61.8795 35.1927 61.8795 38.7516V55.8673Z"/>
<path d="M82.0433 46.0712H89.1953C88.8313 49.1898 87.5028 51.7214 85.2098 53.6659C82.9168 55.6105 80.1324 56.5827 76.8567 56.5827C73.0713 56.5827 70.0686 55.3353 67.8483 52.8404C65.6281 50.3455 64.518 46.7316 64.518 41.9986C64.518 37.3024 65.6281 33.8169 67.8483 31.5421C70.0686 29.2307 73.1441 28.075 77.075 28.075C80.5692 28.075 83.4081 29.0105 85.592 30.8817C87.8122 32.7529 89.0315 35.2844 89.2499 38.4764H82.0979C81.9159 37.0822 81.3517 35.9999 80.4054 35.2294C79.4955 34.4222 78.3671 34.0187 77.0204 34.0187C73.3807 34.0187 71.5609 36.6236 71.5609 41.8335C71.5609 44.6219 72.0522 46.7866 73.035 48.3276C74.0541 49.8319 75.3098 50.584 76.8021 50.584C78.2215 50.584 79.4045 50.1988 80.3508 49.4283C81.3335 48.6211 81.8977 47.5021 82.0433 46.0712Z"/>
<path d="M115.753 55.8673H107.782L101.886 43.7047L98.4463 47.2819V55.8673H91.2943V18.8842H98.4463V39.0818L107.291 28.7904H115.972L106.963 38.7516L115.753 55.8673Z"/>
<path d="M147.722 45.0805V38.0361H154.328V45.741C154.328 48.8229 153.4 51.4095 151.544 53.5008C149.724 55.5554 147.031 56.5827 143.464 56.5827C139.751 56.5827 136.985 55.5554 135.165 53.5008C133.382 51.4462 132.49 48.8412 132.49 45.6859V21.4708H139.478V28.7904H154.328V33.8535H139.478V44.9705C139.478 48.5661 140.843 50.3638 143.573 50.3638C146.339 50.3638 147.722 48.6027 147.722 45.0805Z"/>
<path d="M181.578 55.8673H174.426V39.0818C174.426 37.1006 174.062 35.7247 173.334 34.9542C172.643 34.1471 171.478 33.7435 169.84 33.7435C168.13 33.7435 166.783 34.3672 165.8 35.6146C164.817 36.8621 164.326 38.4397 164.326 40.3476V55.8673H157.229V18.8842H164.326V32.3126C164.836 31.1018 165.837 30.0929 167.329 29.2857C168.821 28.4785 170.459 28.0749 172.242 28.0749C175.045 28.0749 177.302 28.8454 179.012 30.3864C180.723 31.9273 181.578 34.037 181.578 36.7153V55.8673Z"/>
<path d="M191.402 39.6872H202.376C202.339 37.7793 201.775 36.3117 200.683 35.2844C199.628 34.2571 198.354 33.7435 196.861 33.7435C195.405 33.7435 194.168 34.2755 193.149 35.3395C192.13 36.4035 191.547 37.8527 191.402 39.6872ZM209.691 44.2H191.183C191.293 46.2546 191.875 47.8873 192.93 49.0981C194.022 50.3088 195.442 50.9142 197.189 50.9142C198.354 50.9142 199.373 50.639 200.246 50.0887C201.156 49.5383 201.739 48.8045 201.993 47.8873H209.309C208.508 50.639 207.053 52.7854 204.942 54.3263C202.867 55.8306 200.392 56.5827 197.517 56.5827C188.563 56.5827 184.086 51.6663 184.086 41.8335C184.086 37.6142 185.232 34.2755 187.525 31.8173C189.818 29.3224 193.003 28.0749 197.08 28.0749C205.488 28.0749 209.691 33.45 209.691 44.2Z"/>
<path d="M303.695 55.8673H296.597V18.8842H303.695V55.8673Z"/>
<path d="M313.771 55.8673H306.674V18.8842H313.771V55.8673Z"/>
<path d="M324.106 55.8673H317.009V18.8842H324.106V55.8673Z"/>
</mask>
<path d="M35.3498 55.8673H28.1977V39.0818C28.1977 37.1006 27.8337 35.7247 27.1058 34.9542C26.4142 34.1471 25.2495 33.7435 23.6117 33.7435C21.901 33.7435 20.5543 34.3672 19.5716 35.6147C18.5888 36.8621 18.0975 38.4398 18.0975 40.3476V55.8673H11V18.8842H18.0975V32.3126C18.607 31.1018 19.608 30.0929 21.1002 29.2857C22.5925 28.4785 24.2304 28.075 26.0139 28.075C28.8165 28.075 31.0731 28.8454 32.7838 30.3864C34.4944 31.9274 35.3498 34.037 35.3498 36.7153V55.8673Z" fill="#7500FF"/>
<path d="M54.7274 45.5759L54.782 42.604C54.1997 43.191 52.671 43.723 50.196 44.2C48.1941 44.5669 46.7928 45.0806 45.9921 45.741C45.2278 46.3647 44.8456 47.2636 44.8456 48.4377C44.8456 50.4556 45.9921 51.4645 48.2851 51.4645C50.105 51.4645 51.6155 50.8959 52.8166 49.7585C54.0541 48.5844 54.691 47.1902 54.7274 45.5759ZM61.8795 55.8673H55.2734C55.055 55.1702 54.9094 54.363 54.8366 53.4458C52.944 55.5371 50.2324 56.5827 46.7018 56.5827C43.7537 56.5827 41.5152 55.9223 39.9866 54.6015C38.4943 53.244 37.7481 51.4279 37.7481 49.1531C37.7481 47.6488 37.9665 46.3464 38.4033 45.2457C38.84 44.145 39.3496 43.2828 39.932 42.659C40.5507 42.0353 41.4789 41.5033 42.7164 41.0631C43.9539 40.6228 45.0458 40.3109 45.9921 40.1275C46.9384 39.944 48.3033 39.7239 50.0868 39.4671C51.8339 39.2102 53.0168 38.88 53.6355 38.4764C54.2907 38.0362 54.6182 37.3391 54.6182 36.3851C54.6182 35.5046 54.1997 34.8258 53.3625 34.3489C52.5618 33.8352 51.4699 33.5784 50.0868 33.5784C47.2114 33.5784 45.5917 34.9176 45.2278 37.5959H38.6217C38.7309 31.2486 42.6618 28.075 50.4144 28.075C54.5272 28.075 57.4572 28.9738 59.2043 30.7716C60.9878 32.5327 61.8795 35.1927 61.8795 38.7516V55.8673Z" fill="#7500FF"/>
<path d="M82.0433 46.0712H89.1953C88.8313 49.1898 87.5028 51.7214 85.2098 53.6659C82.9168 55.6105 80.1324 56.5827 76.8567 56.5827C73.0713 56.5827 70.0686 55.3353 67.8483 52.8404C65.6281 50.3455 64.518 46.7316 64.518 41.9986C64.518 37.3024 65.6281 33.8169 67.8483 31.5421C70.0686 29.2307 73.1441 28.075 77.075 28.075C80.5692 28.075 83.4081 29.0105 85.592 30.8817C87.8122 32.7529 89.0315 35.2844 89.2499 38.4764H82.0979C81.9159 37.0822 81.3517 35.9999 80.4054 35.2294C79.4955 34.4222 78.3671 34.0187 77.0204 34.0187C73.3807 34.0187 71.5609 36.6236 71.5609 41.8335C71.5609 44.6219 72.0522 46.7866 73.035 48.3276C74.0541 49.8319 75.3098 50.584 76.8021 50.584C78.2215 50.584 79.4045 50.1988 80.3508 49.4283C81.3335 48.6211 81.8977 47.5021 82.0433 46.0712Z" fill="#7500FF"/>
<path d="M115.753 55.8673H107.782L101.886 43.7047L98.4463 47.2819V55.8673H91.2943V18.8842H98.4463V39.0818L107.291 28.7904H115.972L106.963 38.7516L115.753 55.8673Z" fill="#7500FF"/>
<path d="M147.722 45.0805V38.0361H154.328V45.741C154.328 48.8229 153.4 51.4095 151.544 53.5008C149.724 55.5554 147.031 56.5827 143.464 56.5827C139.751 56.5827 136.985 55.5554 135.165 53.5008C133.382 51.4462 132.49 48.8412 132.49 45.6859V21.4708H139.478V28.7904H154.328V33.8535H139.478V44.9705C139.478 48.5661 140.843 50.3638 143.573 50.3638C146.339 50.3638 147.722 48.6027 147.722 45.0805Z" fill="#7500FF"/>
<path d="M181.578 55.8673H174.426V39.0818C174.426 37.1006 174.062 35.7247 173.334 34.9542C172.643 34.1471 171.478 33.7435 169.84 33.7435C168.13 33.7435 166.783 34.3672 165.8 35.6146C164.817 36.8621 164.326 38.4397 164.326 40.3476V55.8673H157.229V18.8842H164.326V32.3126C164.836 31.1018 165.837 30.0929 167.329 29.2857C168.821 28.4785 170.459 28.0749 172.242 28.0749C175.045 28.0749 177.302 28.8454 179.012 30.3864C180.723 31.9273 181.578 34.037 181.578 36.7153V55.8673Z" fill="#7500FF"/>
<path d="M191.402 39.6872H202.376C202.339 37.7793 201.775 36.3117 200.683 35.2844C199.628 34.2571 198.354 33.7435 196.861 33.7435C195.405 33.7435 194.168 34.2755 193.149 35.3395C192.13 36.4035 191.547 37.8527 191.402 39.6872ZM209.691 44.2H191.183C191.293 46.2546 191.875 47.8873 192.93 49.0981C194.022 50.3088 195.442 50.9142 197.189 50.9142C198.354 50.9142 199.373 50.639 200.246 50.0887C201.156 49.5383 201.739 48.8045 201.993 47.8873H209.309C208.508 50.639 207.053 52.7854 204.942 54.3263C202.867 55.8306 200.392 56.5827 197.517 56.5827C188.563 56.5827 184.086 51.6663 184.086 41.8335C184.086 37.6142 185.232 34.2755 187.525 31.8173C189.818 29.3224 193.003 28.0749 197.08 28.0749C205.488 28.0749 209.691 33.45 209.691 44.2Z" fill="#7500FF"/>
<path d="M303.695 55.8673H296.597V18.8842H303.695V55.8673Z" fill="#7500FF"/>
<path d="M313.771 55.8673H306.674V18.8842H313.771V55.8673Z" fill="#7500FF"/>
<path d="M324.106 55.8673H317.009V18.8842H324.106V55.8673Z" fill="#7500FF"/>
<path d="M35.3498 55.8673H28.1977V39.0818C28.1977 37.1006 27.8337 35.7247 27.1058 34.9542C26.4142 34.1471 25.2495 33.7435 23.6117 33.7435C21.901 33.7435 20.5543 34.3672 19.5716 35.6147C18.5888 36.8621 18.0975 38.4398 18.0975 40.3476V55.8673H11V18.8842H18.0975V32.3126C18.607 31.1018 19.608 30.0929 21.1002 29.2857C22.5925 28.4785 24.2304 28.075 26.0139 28.075C28.8165 28.075 31.0731 28.8454 32.7838 30.3864C34.4944 31.9274 35.3498 34.037 35.3498 36.7153V55.8673Z" stroke="#7500FF" stroke-width="8" mask="url(#path-1-outside-1_219_3308)"/>
<path d="M54.7274 45.5759L54.782 42.604C54.1997 43.191 52.671 43.723 50.196 44.2C48.1941 44.5669 46.7928 45.0806 45.9921 45.741C45.2278 46.3647 44.8456 47.2636 44.8456 48.4377C44.8456 50.4556 45.9921 51.4645 48.2851 51.4645C50.105 51.4645 51.6155 50.8959 52.8166 49.7585C54.0541 48.5844 54.691 47.1902 54.7274 45.5759ZM61.8795 55.8673H55.2734C55.055 55.1702 54.9094 54.363 54.8366 53.4458C52.944 55.5371 50.2324 56.5827 46.7018 56.5827C43.7537 56.5827 41.5152 55.9223 39.9866 54.6015C38.4943 53.244 37.7481 51.4279 37.7481 49.1531C37.7481 47.6488 37.9665 46.3464 38.4033 45.2457C38.84 44.145 39.3496 43.2828 39.932 42.659C40.5507 42.0353 41.4789 41.5033 42.7164 41.0631C43.9539 40.6228 45.0458 40.3109 45.9921 40.1275C46.9384 39.944 48.3033 39.7239 50.0868 39.4671C51.8339 39.2102 53.0168 38.88 53.6355 38.4764C54.2907 38.0362 54.6182 37.3391 54.6182 36.3851C54.6182 35.5046 54.1997 34.8258 53.3625 34.3489C52.5618 33.8352 51.4699 33.5784 50.0868 33.5784C47.2114 33.5784 45.5917 34.9176 45.2278 37.5959H38.6217C38.7309 31.2486 42.6618 28.075 50.4144 28.075C54.5272 28.075 57.4572 28.9738 59.2043 30.7716C60.9878 32.5327 61.8795 35.1927 61.8795 38.7516V55.8673Z" stroke="#7500FF" stroke-width="8" mask="url(#path-1-outside-1_219_3308)"/>
<path d="M82.0433 46.0712H89.1953C88.8313 49.1898 87.5028 51.7214 85.2098 53.6659C82.9168 55.6105 80.1324 56.5827 76.8567 56.5827C73.0713 56.5827 70.0686 55.3353 67.8483 52.8404C65.6281 50.3455 64.518 46.7316 64.518 41.9986C64.518 37.3024 65.6281 33.8169 67.8483 31.5421C70.0686 29.2307 73.1441 28.075 77.075 28.075C80.5692 28.075 83.4081 29.0105 85.592 30.8817C87.8122 32.7529 89.0315 35.2844 89.2499 38.4764H82.0979C81.9159 37.0822 81.3517 35.9999 80.4054 35.2294C79.4955 34.4222 78.3671 34.0187 77.0204 34.0187C73.3807 34.0187 71.5609 36.6236 71.5609 41.8335C71.5609 44.6219 72.0522 46.7866 73.035 48.3276C74.0541 49.8319 75.3098 50.584 76.8021 50.584C78.2215 50.584 79.4045 50.1988 80.3508 49.4283C81.3335 48.6211 81.8977 47.5021 82.0433 46.0712Z" stroke="#7500FF" stroke-width="8" mask="url(#path-1-outside-1_219_3308)"/>
<path d="M115.753 55.8673H107.782L101.886 43.7047L98.4463 47.2819V55.8673H91.2943V18.8842H98.4463V39.0818L107.291 28.7904H115.972L106.963 38.7516L115.753 55.8673Z" stroke="#7500FF" stroke-width="8" mask="url(#path-1-outside-1_219_3308)"/>
<path d="M147.722 45.0805V38.0361H154.328V45.741C154.328 48.8229 153.4 51.4095 151.544 53.5008C149.724 55.5554 147.031 56.5827 143.464 56.5827C139.751 56.5827 136.985 55.5554 135.165 53.5008C133.382 51.4462 132.49 48.8412 132.49 45.6859V21.4708H139.478V28.7904H154.328V33.8535H139.478V44.9705C139.478 48.5661 140.843 50.3638 143.573 50.3638C146.339 50.3638 147.722 48.6027 147.722 45.0805Z" stroke="#7500FF" stroke-width="8" mask="url(#path-1-outside-1_219_3308)"/>
<path d="M181.578 55.8673H174.426V39.0818C174.426 37.1006 174.062 35.7247 173.334 34.9542C172.643 34.1471 171.478 33.7435 169.84 33.7435C168.13 33.7435 166.783 34.3672 165.8 35.6146C164.817 36.8621 164.326 38.4397 164.326 40.3476V55.8673H157.229V18.8842H164.326V32.3126C164.836 31.1018 165.837 30.0929 167.329 29.2857C168.821 28.4785 170.459 28.0749 172.242 28.0749C175.045 28.0749 177.302 28.8454 179.012 30.3864C180.723 31.9273 181.578 34.037 181.578 36.7153V55.8673Z" stroke="#7500FF" stroke-width="8" mask="url(#path-1-outside-1_219_3308)"/>
<path d="M191.402 39.6872H202.376C202.339 37.7793 201.775 36.3117 200.683 35.2844C199.628 34.2571 198.354 33.7435 196.861 33.7435C195.405 33.7435 194.168 34.2755 193.149 35.3395C192.13 36.4035 191.547 37.8527 191.402 39.6872ZM209.691 44.2H191.183C191.293 46.2546 191.875 47.8873 192.93 49.0981C194.022 50.3088 195.442 50.9142 197.189 50.9142C198.354 50.9142 199.373 50.639 200.246 50.0887C201.156 49.5383 201.739 48.8045 201.993 47.8873H209.309C208.508 50.639 207.053 52.7854 204.942 54.3263C202.867 55.8306 200.392 56.5827 197.517 56.5827C188.563 56.5827 184.086 51.6663 184.086 41.8335C184.086 37.6142 185.232 34.2755 187.525 31.8173C189.818 29.3224 193.003 28.0749 197.08 28.0749C205.488 28.0749 209.691 33.45 209.691 44.2Z" stroke="#7500FF" stroke-width="8" mask="url(#path-1-outside-1_219_3308)"/>
<path d="M303.695 55.8673H296.597V18.8842H303.695V55.8673Z" stroke="#7500FF" stroke-width="8" mask="url(#path-1-outside-1_219_3308)"/>
<path d="M313.771 55.8673H306.674V18.8842H313.771V55.8673Z" stroke="#7500FF" stroke-width="8" mask="url(#path-1-outside-1_219_3308)"/>
<path d="M324.106 55.8673H317.009V18.8842H324.106V55.8673Z" stroke="#7500FF" stroke-width="8" mask="url(#path-1-outside-1_219_3308)"/>
<path d="M258.549 15.5505L258.538 20.2585L255.424 20.2444L255.434 15.5364L258.549 15.5505Z" fill="#7500FF" stroke="#7500FF" stroke-width="3"/>
<path d="M260.705 14.1372L260.695 18.5581L255.429 18.5339L255.439 14.113L260.705 14.1372Z" fill="#7500FF" stroke="#7500FF" stroke-width="3"/>
<path d="M258.424 18.3562L261.912 30.8878L262.443 32.7965L251.519 32.7467L252.048 30.8487L255.534 18.3489L256.979 13.166L258.424 18.3562Z" fill="#7500FF" stroke="#7500FF" stroke-width="3"/>
<path d="M258.884 16.8052L258.875 21.5122L255.137 21.4949L255.147 16.7879L258.884 16.8052Z" fill="#7500FF" stroke="#7500FF" stroke-width="3"/>
<mask id="path-6-outside-2_219_3308" maskUnits="userSpaceOnUse" x="248.399" y="34.1009" width="16.0684" height="27.0618" fill="black">
<rect fill="white" x="248.399" y="34.1009" width="16.0684" height="27.0618"/>
<path d="M260.433 39.153L260.394 56.6217L253.416 56.5899L253.454 39.1202L260.433 39.153ZM258.785 40.0549C258.672 40.0552 258.557 40.8505 258.555 41.8733C258.553 42.8964 258.665 43.693 258.778 43.6935C258.891 43.6926 259.006 42.8974 259.008 41.8751C259.01 40.8518 258.898 40.0554 258.785 40.0549ZM257.541 40.0491C257.428 40.0492 257.313 40.8446 257.311 41.8675C257.308 42.8907 257.42 43.6872 257.534 43.6878C257.647 43.6866 257.762 42.8916 257.764 41.8693C257.766 40.846 257.654 40.0496 257.541 40.0491ZM256.239 40.0431C256.126 40.0446 256.012 40.8395 256.01 41.8615C256.008 42.8848 256.119 43.6812 256.232 43.6817C256.345 43.682 256.46 42.8865 256.462 41.8633C256.464 40.84 256.352 40.0436 256.239 40.0431ZM254.938 40.0371C254.825 40.037 254.71 40.8325 254.708 41.8555C254.706 42.8788 254.818 43.6752 254.931 43.6757C255.044 43.6744 255.159 42.8794 255.161 41.8573C255.163 40.834 255.052 40.0376 254.938 40.0371Z"/>
</mask>
<path d="M260.433 39.153L260.394 56.6217L253.416 56.5899L253.454 39.1202L260.433 39.153ZM258.785 40.0549C258.672 40.0552 258.557 40.8505 258.555 41.8733C258.553 42.8964 258.665 43.693 258.778 43.6935C258.891 43.6926 259.006 42.8974 259.008 41.8751C259.01 40.8518 258.898 40.0554 258.785 40.0549ZM257.541 40.0491C257.428 40.0492 257.313 40.8446 257.311 41.8675C257.308 42.8907 257.42 43.6872 257.534 43.6878C257.647 43.6866 257.762 42.8916 257.764 41.8693C257.766 40.846 257.654 40.0496 257.541 40.0491ZM256.239 40.0431C256.126 40.0446 256.012 40.8395 256.01 41.8615C256.008 42.8848 256.119 43.6812 256.232 43.6817C256.345 43.682 256.46 42.8865 256.462 41.8633C256.464 40.84 256.352 40.0436 256.239 40.0431ZM254.938 40.0371C254.825 40.037 254.71 40.8325 254.708 41.8555C254.706 42.8788 254.818 43.6752 254.931 43.6757C255.044 43.6744 255.159 42.8794 255.161 41.8573C255.163 40.834 255.052 40.0376 254.938 40.0371Z" fill="#7500FF"/>
<path d="M260.433 39.153L264.433 39.1671L264.442 35.1719L260.446 35.1531L260.433 39.153ZM260.394 56.6217L260.381 60.6217L264.385 60.64L264.394 56.6359L260.394 56.6217ZM253.416 56.5899L249.416 56.5758L249.407 60.5716L253.403 60.5899L253.416 56.5899ZM253.454 39.1202L253.468 35.1202L249.463 35.1014L249.454 39.1061L253.454 39.1202ZM258.785 40.0549L258.798 36.0549L258.783 36.0548L258.768 36.0549L258.785 40.0549ZM258.555 41.8733L254.555 41.8595L254.555 41.8596L258.555 41.8733ZM258.778 43.6935L258.765 47.6935L258.791 47.6936L258.816 47.6934L258.778 43.6935ZM259.008 41.8751L263.008 41.889L263.008 41.8889L259.008 41.8751ZM257.541 40.0491L257.554 36.0491L257.542 36.0491L257.53 36.0491L257.541 40.0491ZM257.311 41.8675L253.311 41.8537L253.311 41.8538L257.311 41.8675ZM257.534 43.6878L257.521 47.6877L257.55 47.6879L257.579 47.6876L257.534 43.6878ZM257.764 41.8693L261.764 41.8832L261.764 41.8832L257.764 41.8693ZM256.239 40.0431L256.252 36.0431L256.215 36.0429L256.179 36.0434L256.239 40.0431ZM256.01 41.8615L252.01 41.8477L252.01 41.8477L256.01 41.8615ZM256.232 43.6817L256.219 47.6817L256.228 47.6817L256.232 43.6817ZM256.462 41.8633L260.462 41.8771L260.462 41.8771L256.462 41.8633ZM254.938 40.0371L254.951 36.0371L254.943 36.0371L254.935 36.0371L254.938 40.0371ZM254.708 41.8555L250.708 41.8417L250.708 41.8417L254.708 41.8555ZM254.931 43.6757L254.918 47.6757L254.951 47.6759L254.984 47.6755L254.931 43.6757ZM255.161 41.8573L259.161 41.8711L259.161 41.8711L255.161 41.8573ZM260.433 39.153L256.433 39.1389L256.394 56.6076L260.394 56.6217L264.394 56.6359L264.433 39.1671L260.433 39.153ZM260.394 56.6217L260.407 52.6218L253.429 52.5899L253.416 56.5899L253.403 60.5899L260.381 60.6217L260.394 56.6217ZM253.416 56.5899L257.416 56.604L257.454 39.1343L253.454 39.1202L249.454 39.1061L249.416 56.5758L253.416 56.5899ZM253.454 39.1202L253.441 43.1202L260.419 43.153L260.433 39.153L260.446 35.1531L253.468 35.1202L253.454 39.1202ZM258.785 40.0549L258.768 36.0549C257.518 36.0586 256.624 36.6236 256.147 37.0355C255.687 37.4323 255.421 37.8436 255.293 38.0614C255.035 38.5002 254.912 38.8978 254.865 39.0593C254.752 39.4415 254.695 39.8089 254.663 40.0519C254.592 40.5888 254.556 41.2209 254.555 41.8595L258.555 41.8733L262.555 41.8872C262.556 41.503 262.578 41.226 262.594 41.1095C262.605 41.0258 262.598 41.1303 262.538 41.3313C262.517 41.4022 262.422 41.7296 262.192 42.1209C262.078 42.3149 261.826 42.7081 261.381 43.0928C260.918 43.4925 260.038 44.0512 258.802 44.0549L258.785 40.0549ZM258.555 41.8733L254.555 41.8596C254.553 42.4988 254.587 43.1317 254.655 43.6695C254.687 43.9128 254.742 44.281 254.854 44.6644C254.901 44.8262 255.023 45.2258 255.28 45.6675C255.408 45.8867 255.674 46.3015 256.135 46.7021C256.615 47.1188 257.512 47.6878 258.765 47.6935L258.778 43.6935L258.791 39.6936C260.03 39.6992 260.912 40.2619 261.378 40.6664C261.825 41.0548 262.077 41.4514 262.191 41.6468C262.421 42.0408 262.515 42.3701 262.536 42.4412C262.594 42.6431 262.601 42.7481 262.591 42.6644C262.576 42.548 262.554 42.271 262.555 41.8871L258.555 41.8733ZM258.778 43.6935L258.816 47.6934C260.064 47.683 260.952 47.1156 261.424 46.7056C261.88 46.3097 262.144 45.9002 262.272 45.6831C262.528 45.2456 262.651 44.8495 262.698 44.6879C262.811 44.3062 262.868 43.9393 262.9 43.6962C262.971 43.1594 263.007 42.5275 263.008 41.889L259.008 41.8751L255.008 41.8612C255.007 42.245 254.984 42.5218 254.969 42.6384C254.958 42.7221 254.965 42.618 255.024 42.4176C255.045 42.3467 255.14 42.0208 255.368 41.6311C255.482 41.4377 255.732 41.0464 256.174 40.6628C256.632 40.265 257.506 39.7039 258.739 39.6937L258.778 43.6935ZM259.008 41.8751L263.008 41.8889C263.009 41.2496 262.976 40.6167 262.907 40.0788C262.876 39.8354 262.82 39.4672 262.709 39.0837C262.662 38.9218 262.54 38.5221 262.282 38.0804C262.154 37.8611 261.888 37.4464 261.427 37.0458C260.947 36.6291 260.051 36.0606 258.798 36.0549L258.785 40.0549L258.772 44.0548C257.534 44.0492 256.651 43.487 256.185 43.0825C255.738 42.6942 255.486 42.2975 255.372 42.1021C255.142 41.708 255.048 41.3787 255.027 41.3075C254.968 41.1054 254.961 41.0003 254.972 41.084C254.987 41.2003 255.009 41.4772 255.008 41.8612L259.008 41.8751ZM257.541 40.0491L257.53 36.0491C256.279 36.0507 255.384 36.615 254.905 37.0275C254.445 37.4245 254.178 37.8365 254.05 38.0545C253.792 38.4937 253.668 38.8917 253.621 39.0532C253.508 39.4355 253.451 39.803 253.419 40.046C253.348 40.583 253.312 41.2151 253.311 41.8537L257.311 41.8675L261.311 41.8814C261.311 41.4971 261.334 41.2201 261.35 41.1035C261.361 41.0198 261.354 41.1245 261.294 41.3257C261.273 41.3966 261.178 41.7244 260.947 42.1161C260.833 42.3104 260.58 42.7042 260.134 43.0891C259.67 43.4895 258.788 44.0475 257.551 44.0491L257.541 40.0491ZM257.311 41.8675L253.311 41.8538C253.309 42.493 253.342 43.1259 253.411 43.6637C253.442 43.907 253.498 44.2753 253.61 44.6587C253.657 44.8205 253.779 45.2202 254.036 45.6618C254.164 45.881 254.43 46.2958 254.891 46.6964C255.371 47.1132 256.268 47.682 257.521 47.6877L257.534 43.6878L257.546 39.6878C258.785 39.6934 259.668 40.256 260.134 40.6605C260.581 41.0489 260.833 41.4455 260.947 41.6409C261.176 42.0349 261.271 42.3642 261.292 42.4353C261.35 42.6373 261.357 42.7423 261.346 42.6586C261.332 42.5422 261.31 42.2653 261.311 41.8813L257.311 41.8675ZM257.534 43.6878L257.579 47.6876C258.825 47.6751 259.712 47.1071 260.182 46.6977C260.637 46.3021 260.901 45.8932 261.028 45.6763C261.284 45.2392 261.406 44.8435 261.454 44.6819C261.566 44.3003 261.624 43.9335 261.656 43.6904C261.727 43.1536 261.762 42.5217 261.764 41.8832L257.764 41.8693L253.764 41.8554C253.763 42.2392 253.74 42.5159 253.725 42.6325C253.714 42.7161 253.721 42.6121 253.78 42.4119C253.801 42.341 253.896 42.0155 254.124 41.6262C254.237 41.433 254.486 41.0424 254.927 40.659C255.384 40.2619 256.256 39.7002 257.488 39.6879L257.534 43.6878ZM257.764 41.8693L261.764 41.8832C261.765 41.2438 261.732 40.6109 261.663 40.073C261.632 39.8297 261.576 39.4614 261.465 39.0779C261.418 38.916 261.296 38.5163 261.038 38.0746C260.91 37.8554 260.644 37.4406 260.183 37.04C259.703 36.6233 258.806 36.0548 257.554 36.0491L257.541 40.0491L257.528 44.0491C256.289 44.0434 255.407 43.4812 254.941 43.0767C254.494 42.6884 254.242 42.2918 254.128 42.0963C253.898 41.7023 253.804 41.3729 253.783 41.3017C253.724 41.0997 253.717 40.9945 253.728 41.0782C253.743 41.1945 253.765 41.4714 253.764 41.8554L257.764 41.8693ZM256.239 40.0431L256.179 36.0434C254.934 36.0605 254.051 36.6304 253.583 37.0394C253.131 37.435 252.868 37.8432 252.742 38.06C252.487 38.4966 252.365 38.8917 252.318 39.0532C252.206 39.4344 252.149 39.8008 252.117 40.0435C252.047 40.5796 252.011 41.2105 252.01 41.8477L256.01 41.8615L260.01 41.8754C260.011 41.4906 260.033 41.2131 260.049 41.0957C260.06 41.0118 260.053 41.1153 259.994 41.3151C259.973 41.3858 259.879 41.7106 259.652 42.0995C259.54 42.2924 259.291 42.6824 258.853 43.0657C258.399 43.4624 257.53 44.0258 256.299 44.0427L256.239 40.0431ZM256.01 41.8615L252.01 41.8477C252.009 42.4857 252.041 43.1177 252.11 43.6548C252.141 43.8977 252.196 44.2658 252.307 44.6492C252.354 44.8109 252.476 45.2109 252.733 45.6531C252.86 45.8725 253.127 46.288 253.588 46.6892C254.068 47.1069 254.966 47.676 256.219 47.6817L256.232 43.6817L256.245 39.6818C257.484 39.6874 258.367 40.2502 258.833 40.6557C259.281 41.0447 259.533 41.442 259.647 41.6376C259.876 42.0321 259.97 42.3618 259.991 42.4328C260.05 42.6347 260.056 42.7396 260.046 42.6555C260.031 42.5384 260.009 42.2606 260.01 41.8753L256.01 41.8615ZM256.232 43.6817L256.228 47.6817C257.481 47.6847 258.38 47.1221 258.862 46.7083C259.325 46.3106 259.593 45.8973 259.721 45.6789C259.981 45.2388 260.104 44.8398 260.152 44.6783C260.265 44.2957 260.322 43.9279 260.354 43.685C260.425 43.148 260.461 42.5158 260.462 41.8771L256.462 41.8633L252.462 41.8494C252.461 42.234 252.438 42.5111 252.423 42.6276C252.412 42.7114 252.419 42.6065 252.479 42.4049C252.5 42.3339 252.595 42.0051 252.827 41.6124C252.941 41.4177 253.195 41.0225 253.644 40.6369C254.112 40.2353 254.997 39.6788 256.236 39.6817L256.232 43.6817ZM256.462 41.8633L260.462 41.8771C260.463 41.2378 260.43 40.6049 260.361 40.067C260.33 39.8237 260.274 39.4554 260.163 39.072C260.116 38.9101 259.994 38.5104 259.736 38.0687C259.609 37.8495 259.342 37.4347 258.881 37.0341C258.402 36.6174 257.505 36.0488 256.252 36.0431L256.239 40.0431L256.226 44.043C254.988 44.0374 254.105 43.4751 253.639 43.0706C253.192 42.6822 252.94 42.2856 252.826 42.0902C252.596 41.6961 252.502 41.3668 252.481 41.2956C252.422 41.0936 252.415 40.9885 252.426 41.0722C252.441 41.1885 252.463 41.4655 252.462 41.8495L256.462 41.8633ZM254.938 40.0371L254.935 36.0371C253.683 36.0364 252.785 36.6002 252.305 37.0133C251.844 37.4107 251.576 37.8233 251.448 38.0415C251.189 38.481 251.066 38.8794 251.018 39.0409C250.906 39.4233 250.848 39.7909 250.816 40.0339C250.745 40.5708 250.71 41.203 250.708 41.8417L254.708 41.8555L258.708 41.8694C258.709 41.485 258.732 41.2079 258.747 41.0914C258.758 41.0076 258.751 41.1124 258.692 41.3137C258.671 41.3846 258.575 41.7129 258.344 42.105C258.23 42.2994 257.977 42.6939 257.529 43.0792C257.063 43.4802 256.18 44.0377 254.942 44.0371L254.938 40.0371ZM254.708 41.8555L250.708 41.8417C250.707 42.481 250.74 43.1139 250.809 43.6518C250.84 43.8951 250.896 44.2633 251.007 44.6467C251.054 44.8086 251.176 45.2081 251.434 45.6498C251.561 45.869 251.828 46.2837 252.289 46.6843C252.768 47.101 253.665 47.67 254.918 47.6757L254.931 43.6757L254.944 39.6758C256.183 39.6814 257.066 40.2441 257.531 40.6486C257.978 41.037 258.23 41.4336 258.344 41.6289C258.574 42.0229 258.668 42.3522 258.689 42.4233C258.748 42.6252 258.755 42.7303 258.744 42.6465C258.729 42.5302 258.707 42.2533 258.708 41.8693L254.708 41.8555ZM254.931 43.6757L254.984 47.6755C256.229 47.6608 257.113 47.0924 257.582 46.6836C258.036 46.2883 258.299 45.8801 258.426 45.6632C258.682 45.2266 258.804 44.8312 258.852 44.6696C258.964 44.2881 259.021 43.9214 259.053 43.6782C259.124 43.1414 259.16 42.5096 259.161 41.8711L255.161 41.8573L251.161 41.8434C251.16 42.2271 251.138 42.5038 251.122 42.6204C251.111 42.7039 251.118 42.6001 251.177 42.4C251.198 42.329 251.293 42.004 251.521 41.615C251.634 41.4221 251.883 41.032 252.322 40.649C252.777 40.2526 253.648 39.6905 254.878 39.676L254.931 43.6757ZM255.161 41.8573L259.161 41.8711C259.163 41.2319 259.13 40.599 259.061 40.0611C259.03 39.8178 258.974 39.4495 258.862 39.0659C258.815 38.904 258.693 38.5043 258.436 38.0625C258.308 37.8432 258.041 37.4284 257.58 37.0278C257.1 36.6111 256.204 36.0428 254.951 36.0371L254.938 40.0371L254.926 44.037C253.687 44.0314 252.805 43.4694 252.339 43.0649C251.892 42.6765 251.639 42.2799 251.525 42.0844C251.296 41.6903 251.201 41.3609 251.18 41.2897C251.122 41.0876 251.115 40.9824 251.125 41.0662C251.14 41.1825 251.162 41.4594 251.161 41.8435L255.161 41.8573Z" fill="#7500FF" mask="url(#path-6-outside-2_219_3308)"/>
<mask id="path-8-inside-3_219_3308" fill="white">
<path d="M260.456 31.2963L260.44 38.2904L253.472 38.2576L253.486 31.2635L260.456 31.2963ZM256.997 32.3034C255.638 32.2974 254.502 33.4292 254.499 34.7938C254.496 36.1584 255.627 37.301 256.987 37.3073C258.347 37.3135 259.482 36.1807 259.485 34.816C259.488 33.4515 258.357 32.3096 256.997 32.3034Z"/>
</mask>
<path d="M260.456 31.2963L260.44 38.2904L253.472 38.2576L253.486 31.2635L260.456 31.2963ZM256.997 32.3034C255.638 32.2974 254.502 33.4292 254.499 34.7938C254.496 36.1584 255.627 37.301 256.987 37.3073C258.347 37.3135 259.482 36.1807 259.485 34.816C259.488 33.4515 258.357 32.3096 256.997 32.3034Z" fill="#7500FF"/>
<path d="M260.456 31.2963L261.806 31.3011L261.809 29.9527L260.461 29.9463L260.456 31.2963ZM260.44 38.2904L260.436 39.6404L261.787 39.6468L261.79 38.2953L260.44 38.2904ZM253.472 38.2576L252.122 38.2529L252.119 39.6012L253.467 39.6076L253.472 38.2576ZM253.486 31.2635L253.491 29.9135L252.139 29.9071L252.136 31.2588L253.486 31.2635ZM256.997 32.3034L257.002 30.9534L257.002 30.9534L256.997 32.3034ZM254.499 34.7938L253.149 34.7891L253.149 34.7891L254.499 34.7938ZM256.987 37.3073L256.982 38.6573L256.982 38.6573L256.987 37.3073ZM259.485 34.816L260.835 34.8207L260.835 34.8205L259.485 34.816ZM260.456 31.2963L259.106 31.2914L259.09 38.2856L260.44 38.2904L261.79 38.2953L261.806 31.3011L260.456 31.2963ZM260.44 38.2904L260.445 36.9404L253.476 36.9076L253.472 38.2576L253.467 39.6076L260.436 39.6404L260.44 38.2904ZM253.472 38.2576L254.822 38.2622L254.836 31.2681L253.486 31.2635L252.136 31.2588L252.122 38.2529L253.472 38.2576ZM253.486 31.2635L253.482 32.6134L260.451 32.6463L260.456 31.2963L260.461 29.9463L253.491 29.9135L253.486 31.2635ZM256.997 32.3034L257.002 30.9534C254.892 30.944 253.153 32.6825 253.149 34.7891L254.499 34.7938L255.849 34.7985C255.85 34.1758 256.384 33.6507 256.993 33.6534L256.997 32.3034ZM254.499 34.7938L253.149 34.7891C253.144 36.8942 254.873 38.6476 256.982 38.6573L256.987 37.3073L256.991 35.9573C256.381 35.9545 255.848 35.4227 255.849 34.7985L254.499 34.7938ZM256.987 37.3073L256.982 38.6573C259.093 38.6669 260.831 36.9266 260.835 34.8207L259.485 34.816L258.135 34.8113C258.134 35.4348 257.6 35.9601 256.991 35.9573L256.987 37.3073ZM259.485 34.816L260.835 34.8205C260.839 32.7154 259.111 30.963 257.002 30.9534L256.997 32.3034L256.993 33.6534C257.604 33.6562 258.136 34.1876 258.135 34.8115L259.485 34.816Z" fill="#7500FF" mask="url(#path-8-inside-3_219_3308)"/>
<path d="M256.935 35.146C257.105 35.1467 257.219 35.0337 257.219 34.8631C257.219 34.6925 257.106 34.5784 256.936 34.5776M256.935 35.146L256.936 34.5776M256.935 35.146C256.822 35.1453 256.709 34.9744 256.709 34.8607C256.709 34.747 256.766 34.5769 256.936 34.5776M256.935 35.146L256.936 34.5776" fill="#7500FF" stroke="#7500FF" stroke-width="1.35"/>
<path d="M256.936 34.8632L255.802 35.6538L256.936 34.8632Z" fill="#7500FF"/>
<path d="M256.936 34.8632L255.802 35.6538" stroke="#7500FF" stroke-width="1.35"/>
<path d="M256.935 34.8633L258.292 36.0635L256.935 34.8633Z" fill="#7500FF"/>
<path d="M256.935 34.8633L258.292 36.0635" stroke="#7500FF" stroke-width="1.35"/>
<path d="M262.437 32.723L262.422 39.5482L258.957 39.5325L258.971 32.7073L262.437 32.723Z" fill="#7500FF" stroke="#7500FF" stroke-width="2.5"/>
<path d="M254.964 32.6984L254.949 39.5236L251.484 39.5079L251.498 32.6827L254.964 32.6984Z" fill="#7500FF" stroke="#7500FF" stroke-width="2.5"/>
<path d="M254.421 31.7076L254.927 33.7578L255.31 35.3123L251.09 35.2931L251.48 33.7421L251.996 31.6966L254.421 31.7076Z" fill="#7500FF" stroke="#7500FF" stroke-width="2.5"/>
<path d="M261.951 31.7333L262.456 33.7835L262.839 35.338L258.62 35.3188L259.01 33.7678L259.525 31.7223L261.951 31.7333Z" fill="#7500FF" stroke="#7500FF" stroke-width="2.5"/>
<path d="M263.956 37.0635L262.806 38.9549L262.295 39.7954L261.929 40.3973L252.065 40.3532L251.694 39.7988L251.13 38.9535L249.826 37.0004L263.956 37.0635Z" fill="#7500FF" stroke="#7500FF" stroke-width="2.5"/>
<path d="M253.208 32.0033C253.321 32.0039 253.378 32.0613 253.377 32.175L253.366 32.2492C253.345 32.3131 253.292 32.3445 253.207 32.3442C253.122 32.3437 253.069 32.2802 253.048 32.2243L253.037 32.1735C253.038 32.0598 253.094 32.0029 253.208 32.0033ZM253.208 32.0033L253.21 31.0942M253.208 32.0033L253.21 31.0942M253.21 31.0942C253.073 31.0936 252.74 31.1278 252.451 31.4159C252.163 31.7034 252.128 32.0346 252.127 32.1693L252.137 32.3032C252.16 32.4667 252.233 32.7071 252.448 32.9247C252.736 33.2155 253.068 33.2527 253.205 33.2533C253.342 33.254 253.674 33.2199 253.964 32.9316C254.18 32.7159 254.254 32.4762 254.277 32.3129L254.287 32.1791L254.281 32.0561C254.269 31.941 254.242 31.8489 254.218 31.7853C254.183 31.6913 254.13 31.596 254.058 31.5052C253.928 31.3407 253.69 31.1507 253.358 31.1046L253.21 31.0942ZM254.627 32.1807C254.627 32.4292 254.563 32.8446 254.218 33.1886C253.872 33.5335 253.455 33.5953 253.204 33.5942C252.681 33.5917 252.307 33.3144 252.101 33.055C251.948 32.8624 251.823 32.5999 251.794 32.2987L251.787 32.1678L251.791 32.0672C251.808 31.8164 251.895 31.4601 252.197 31.1589C252.543 30.8141 252.96 30.7522 253.21 30.7533C253.461 30.7545 253.878 30.8203 254.222 31.1681C254.566 31.5153 254.628 31.9322 254.627 32.1807Z" fill="#7500FF" stroke="#7500FF" stroke-width="2.5"/>
<path d="M260.736 32.0281C260.85 32.0286 260.906 32.0861 260.906 32.1998L260.895 32.274C260.874 32.3378 260.821 32.3693 260.736 32.3689C260.651 32.3685 260.598 32.305 260.577 32.249L260.566 32.1982C260.566 32.0845 260.623 32.0276 260.736 32.0281ZM260.736 32.0281L260.738 31.1189M260.736 32.0281L260.738 31.1189M260.738 31.1189C260.601 31.1183 260.269 31.1525 259.98 31.4406C259.691 31.7281 259.656 32.0592 259.656 32.194L259.665 32.3278C259.688 32.4913 259.761 32.7318 259.976 32.9494C260.264 33.2403 260.596 33.2774 260.734 33.2781C260.871 33.2787 261.203 33.2447 261.492 32.9564C261.708 32.7408 261.782 32.5011 261.806 32.3378L261.816 32.204L261.809 32.0809C261.797 31.9658 261.771 31.8738 261.747 31.8101C261.711 31.7162 261.659 31.6209 261.587 31.5301C261.457 31.3655 261.219 31.1755 260.887 31.1294L260.738 31.1189ZM262.156 32.2056C262.155 32.4541 262.092 32.8695 261.746 33.2135C261.4 33.5583 260.983 33.6201 260.733 33.6189C260.21 33.6165 259.835 33.3391 259.63 33.0796C259.477 32.887 259.351 32.6245 259.323 32.3233L259.316 32.1924L259.319 32.0918C259.336 31.841 259.423 31.4847 259.725 31.1836C260.071 30.8388 260.489 30.777 260.739 30.7781C260.989 30.7793 261.406 30.8451 261.751 31.193C262.095 31.5403 262.156 31.9571 262.156 32.2056Z" fill="#7500FF" stroke="#7500FF" stroke-width="2.5"/>
<path d="M234.989 16.5004L234.955 27.4779C236.697 26.5113 238.774 25.978 240.829 25.9848C243.982 25.9953 246.824 26.978 248.893 28.9365C250.976 30.9091 252.091 33.7001 252.081 36.955L252.015 58.7127L240.938 58.6758L240.997 39.3438C241.003 37.3527 240.659 36.6112 240.417 36.3321C240.246 36.1352 239.833 35.838 238.421 35.8333C237.323 35.8297 236.528 36.2784 235.951 37.036C235.335 37.8452 234.92 39.0905 234.916 40.6243L234.861 58.6555L223.785 58.6186L223.913 16.4635L234.989 16.5004Z" fill="#7500FF" stroke="#7500FF" stroke-width="4"/>
<path d="M283.447 16.5518L283.32 58.7069L262.223 58.6366L262.351 16.4815L283.447 16.5518Z" fill="#7500FF" stroke="#7500FF" stroke-width="4"/>
</g>
<mask id="path-24-outside-4_219_3308" maskUnits="userSpaceOnUse" x="10" y="17.8842" width="315" height="40" fill="black">
<rect fill="white" x="10" y="17.8842" width="315" height="40"/>
<path d="M35.3497 55.8673H28.1977V39.0818C28.1977 37.1006 27.8337 35.7247 27.1058 34.9542C26.4142 34.1471 25.2495 33.7435 23.6116 33.7435C21.901 33.7435 20.5543 34.3672 19.5715 35.6146C18.5888 36.8621 18.0975 38.4397 18.0975 40.3476V55.8673H11V18.8842H18.0975V32.3126C18.607 31.1018 19.6079 30.0929 21.1002 29.2857C22.5925 28.4785 24.2304 28.075 26.0139 28.075C28.8164 28.075 31.0731 28.8454 32.7837 30.3864C34.4944 31.9274 35.3497 34.037 35.3497 36.7153V55.8673Z"/>
<path d="M54.7274 45.5759L54.782 42.604C54.1997 43.191 52.671 43.723 50.196 44.2C48.1941 44.5669 46.7928 45.0806 45.9921 45.741C45.2277 46.3647 44.8456 47.2636 44.8456 48.4377C44.8456 50.4556 45.9921 51.4645 48.2851 51.4645C50.105 51.4645 51.6155 50.8958 52.8166 49.7585C54.0541 48.5844 54.691 47.1902 54.7274 45.5759ZM61.8795 55.8673H55.2734C55.055 55.1702 54.9094 54.363 54.8366 53.4458C52.944 55.5371 50.2324 56.5827 46.7018 56.5827C43.7537 56.5827 41.5152 55.9223 39.9865 54.6015C38.4943 53.244 37.7481 51.4278 37.7481 49.1531C37.7481 47.6488 37.9665 46.3463 38.4033 45.2457C38.84 44.145 39.3496 43.2828 39.9319 42.659C40.5507 42.0353 41.4788 41.5033 42.7163 41.063C43.9538 40.6228 45.0458 40.3109 45.9921 40.1275C46.9384 39.944 48.3033 39.7239 50.0868 39.4671C51.8338 39.2102 53.0167 38.88 53.6355 38.4764C54.2906 38.0362 54.6182 37.3391 54.6182 36.3851C54.6182 35.5046 54.1997 34.8258 53.3625 34.3489C52.5618 33.8352 51.4699 33.5784 50.0868 33.5784C47.2114 33.5784 45.5917 34.9175 45.2277 37.5959H38.6216C38.7308 31.2486 42.6617 28.075 50.4143 28.075C54.5272 28.075 57.4572 28.9738 59.2043 30.7716C60.9877 32.5327 61.8795 35.1927 61.8795 38.7516V55.8673Z"/>
<path d="M82.0432 46.0712H89.1953C88.8313 49.1898 87.5028 51.7214 85.2098 53.6659C82.9168 55.6105 80.1324 56.5827 76.8566 56.5827C73.0713 56.5827 70.0686 55.3353 67.8483 52.8404C65.6281 50.3455 64.518 46.7316 64.518 41.9986C64.518 37.3024 65.6281 33.8169 67.8483 31.5421C70.0686 29.2307 73.1441 28.075 77.075 28.075C80.5692 28.075 83.4081 29.0105 85.592 30.8817C87.8122 32.7529 89.0315 35.2844 89.2499 38.4764H82.0978C81.9159 37.0822 81.3517 35.9999 80.4054 35.2294C79.4954 34.4222 78.3671 34.0187 77.0204 34.0187C73.3807 34.0187 71.5608 36.6236 71.5608 41.8335C71.5608 44.6219 72.0522 46.7866 73.0349 48.3276C74.0541 49.8319 75.3098 50.584 76.802 50.584C78.2215 50.584 79.4044 50.1987 80.3508 49.4283C81.3335 48.6211 81.8976 47.5021 82.0432 46.0712Z"/>
<path d="M115.753 55.8673H107.782L101.886 43.7047L98.4463 47.2819V55.8673H91.2943V18.8842H98.4463V39.0818L107.291 28.7904H115.972L106.963 38.7516L115.753 55.8673Z"/>
<path d="M147.722 45.0805V38.0361H154.328V45.741C154.328 48.8229 153.4 51.4095 151.544 53.5008C149.724 55.5554 147.031 56.5827 143.464 56.5827C139.751 56.5827 136.985 55.5554 135.165 53.5008C133.382 51.4462 132.49 48.8412 132.49 45.6859V21.4708H139.478V28.7904H154.328V33.8535H139.478V44.9705C139.478 48.566 140.843 50.3638 143.573 50.3638C146.339 50.3638 147.722 48.6027 147.722 45.0805Z"/>
<path d="M181.578 55.8673H174.426V39.0818C174.426 37.1006 174.062 35.7247 173.334 34.9542C172.643 34.1471 171.478 33.7435 169.84 33.7435C168.13 33.7435 166.783 34.3672 165.8 35.6146C164.817 36.8621 164.326 38.4397 164.326 40.3476V55.8673H157.229V18.8842H164.326V32.3126C164.836 31.1018 165.837 30.0929 167.329 29.2857C168.821 28.4785 170.459 28.0749 172.242 28.0749C175.045 28.0749 177.302 28.8454 179.012 30.3864C180.723 31.9273 181.578 34.037 181.578 36.7153V55.8673Z"/>
<path d="M191.402 39.6872H202.376C202.339 37.7793 201.775 36.3117 200.683 35.2844C199.628 34.2571 198.354 33.7435 196.861 33.7435C195.405 33.7435 194.168 34.2755 193.149 35.3395C192.13 36.4035 191.547 37.8527 191.402 39.6872ZM209.691 44.2H191.183C191.293 46.2546 191.875 47.8873 192.93 49.098C194.022 50.3088 195.442 50.9142 197.189 50.9142C198.354 50.9142 199.373 50.639 200.246 50.0887C201.156 49.5383 201.739 48.8045 201.993 47.8873H209.309C208.508 50.639 207.053 52.7853 204.942 54.3263C202.867 55.8306 200.392 56.5827 197.517 56.5827C188.563 56.5827 184.086 51.6663 184.086 41.8335C184.086 37.6142 185.232 34.2755 187.525 31.8173C189.818 29.3224 193.003 28.0749 197.08 28.0749C205.487 28.0749 209.691 33.45 209.691 44.2Z"/>
<path d="M303.695 55.8673H296.597V18.8842H303.695V55.8673Z"/>
<path d="M313.771 55.8673H306.674V18.8842H313.771V55.8673Z"/>
<path d="M324.106 55.8673H317.009V18.8842H324.106V55.8673Z"/>
</mask>
<path d="M35.3497 55.8673H28.1977V39.0818C28.1977 37.1006 27.8337 35.7247 27.1058 34.9542C26.4142 34.1471 25.2495 33.7435 23.6116 33.7435C21.901 33.7435 20.5543 34.3672 19.5715 35.6146C18.5888 36.8621 18.0975 38.4397 18.0975 40.3476V55.8673H11V18.8842H18.0975V32.3126C18.607 31.1018 19.6079 30.0929 21.1002 29.2857C22.5925 28.4785 24.2304 28.075 26.0139 28.075C28.8164 28.075 31.0731 28.8454 32.7837 30.3864C34.4944 31.9274 35.3497 34.037 35.3497 36.7153V55.8673Z" fill="white" fill-opacity="0.98"/>
<path d="M54.7274 45.5759L54.782 42.604C54.1997 43.191 52.671 43.723 50.196 44.2C48.1941 44.5669 46.7928 45.0806 45.9921 45.741C45.2277 46.3647 44.8456 47.2636 44.8456 48.4377C44.8456 50.4556 45.9921 51.4645 48.2851 51.4645C50.105 51.4645 51.6155 50.8958 52.8166 49.7585C54.0541 48.5844 54.691 47.1902 54.7274 45.5759ZM61.8795 55.8673H55.2734C55.055 55.1702 54.9094 54.363 54.8366 53.4458C52.944 55.5371 50.2324 56.5827 46.7018 56.5827C43.7537 56.5827 41.5152 55.9223 39.9865 54.6015C38.4943 53.244 37.7481 51.4278 37.7481 49.1531C37.7481 47.6488 37.9665 46.3463 38.4033 45.2457C38.84 44.145 39.3496 43.2828 39.9319 42.659C40.5507 42.0353 41.4788 41.5033 42.7163 41.063C43.9538 40.6228 45.0458 40.3109 45.9921 40.1275C46.9384 39.944 48.3033 39.7239 50.0868 39.4671C51.8338 39.2102 53.0167 38.88 53.6355 38.4764C54.2906 38.0362 54.6182 37.3391 54.6182 36.3851C54.6182 35.5046 54.1997 34.8258 53.3625 34.3489C52.5618 33.8352 51.4699 33.5784 50.0868 33.5784C47.2114 33.5784 45.5917 34.9175 45.2277 37.5959H38.6216C38.7308 31.2486 42.6617 28.075 50.4143 28.075C54.5272 28.075 57.4572 28.9738 59.2043 30.7716C60.9877 32.5327 61.8795 35.1927 61.8795 38.7516V55.8673Z" fill="white" fill-opacity="0.98"/>
<path d="M82.0432 46.0712H89.1953C88.8313 49.1898 87.5028 51.7214 85.2098 53.6659C82.9168 55.6105 80.1324 56.5827 76.8566 56.5827C73.0713 56.5827 70.0686 55.3353 67.8483 52.8404C65.6281 50.3455 64.518 46.7316 64.518 41.9986C64.518 37.3024 65.6281 33.8169 67.8483 31.5421C70.0686 29.2307 73.1441 28.075 77.075 28.075C80.5692 28.075 83.4081 29.0105 85.592 30.8817C87.8122 32.7529 89.0315 35.2844 89.2499 38.4764H82.0978C81.9159 37.0822 81.3517 35.9999 80.4054 35.2294C79.4954 34.4222 78.3671 34.0187 77.0204 34.0187C73.3807 34.0187 71.5608 36.6236 71.5608 41.8335C71.5608 44.6219 72.0522 46.7866 73.0349 48.3276C74.0541 49.8319 75.3098 50.584 76.802 50.584C78.2215 50.584 79.4044 50.1987 80.3508 49.4283C81.3335 48.6211 81.8976 47.5021 82.0432 46.0712Z" fill="white" fill-opacity="0.98"/>
<path d="M115.753 55.8673H107.782L101.886 43.7047L98.4463 47.2819V55.8673H91.2943V18.8842H98.4463V39.0818L107.291 28.7904H115.972L106.963 38.7516L115.753 55.8673Z" fill="white" fill-opacity="0.98"/>
<path d="M147.722 45.0805V38.0361H154.328V45.741C154.328 48.8229 153.4 51.4095 151.544 53.5008C149.724 55.5554 147.031 56.5827 143.464 56.5827C139.751 56.5827 136.985 55.5554 135.165 53.5008C133.382 51.4462 132.49 48.8412 132.49 45.6859V21.4708H139.478V28.7904H154.328V33.8535H139.478V44.9705C139.478 48.566 140.843 50.3638 143.573 50.3638C146.339 50.3638 147.722 48.6027 147.722 45.0805Z" fill="white" fill-opacity="0.98"/>
<path d="M181.578 55.8673H174.426V39.0818C174.426 37.1006 174.062 35.7247 173.334 34.9542C172.643 34.1471 171.478 33.7435 169.84 33.7435C168.13 33.7435 166.783 34.3672 165.8 35.6146C164.817 36.8621 164.326 38.4397 164.326 40.3476V55.8673H157.229V18.8842H164.326V32.3126C164.836 31.1018 165.837 30.0929 167.329 29.2857C168.821 28.4785 170.459 28.0749 172.242 28.0749C175.045 28.0749 177.302 28.8454 179.012 30.3864C180.723 31.9273 181.578 34.037 181.578 36.7153V55.8673Z" fill="white" fill-opacity="0.98"/>
<path d="M191.402 39.6872H202.376C202.339 37.7793 201.775 36.3117 200.683 35.2844C199.628 34.2571 198.354 33.7435 196.861 33.7435C195.405 33.7435 194.168 34.2755 193.149 35.3395C192.13 36.4035 191.547 37.8527 191.402 39.6872ZM209.691 44.2H191.183C191.293 46.2546 191.875 47.8873 192.93 49.098C194.022 50.3088 195.442 50.9142 197.189 50.9142C198.354 50.9142 199.373 50.639 200.246 50.0887C201.156 49.5383 201.739 48.8045 201.993 47.8873H209.309C208.508 50.639 207.053 52.7853 204.942 54.3263C202.867 55.8306 200.392 56.5827 197.517 56.5827C188.563 56.5827 184.086 51.6663 184.086 41.8335C184.086 37.6142 185.232 34.2755 187.525 31.8173C189.818 29.3224 193.003 28.0749 197.08 28.0749C205.487 28.0749 209.691 33.45 209.691 44.2Z" fill="white" fill-opacity="0.98"/>
<path d="M303.695 55.8673H296.597V18.8842H303.695V55.8673Z" fill="white" fill-opacity="0.98"/>
<path d="M313.771 55.8673H306.674V18.8842H313.771V55.8673Z" fill="white" fill-opacity="0.98"/>
<path d="M324.106 55.8673H317.009V18.8842H324.106V55.8673Z" fill="white" fill-opacity="0.98"/>
<path d="M35.3497 55.8673H28.1977V39.0818C28.1977 37.1006 27.8337 35.7247 27.1058 34.9542C26.4142 34.1471 25.2495 33.7435 23.6116 33.7435C21.901 33.7435 20.5543 34.3672 19.5715 35.6146C18.5888 36.8621 18.0975 38.4397 18.0975 40.3476V55.8673H11V18.8842H18.0975V32.3126C18.607 31.1018 19.6079 30.0929 21.1002 29.2857C22.5925 28.4785 24.2304 28.075 26.0139 28.075C28.8164 28.075 31.0731 28.8454 32.7837 30.3864C34.4944 31.9274 35.3497 34.037 35.3497 36.7153V55.8673Z" stroke="#7500FF" mask="url(#path-24-outside-4_219_3308)"/>
<path d="M54.7274 45.5759L54.782 42.604C54.1997 43.191 52.671 43.723 50.196 44.2C48.1941 44.5669 46.7928 45.0806 45.9921 45.741C45.2277 46.3647 44.8456 47.2636 44.8456 48.4377C44.8456 50.4556 45.9921 51.4645 48.2851 51.4645C50.105 51.4645 51.6155 50.8958 52.8166 49.7585C54.0541 48.5844 54.691 47.1902 54.7274 45.5759ZM61.8795 55.8673H55.2734C55.055 55.1702 54.9094 54.363 54.8366 53.4458C52.944 55.5371 50.2324 56.5827 46.7018 56.5827C43.7537 56.5827 41.5152 55.9223 39.9865 54.6015C38.4943 53.244 37.7481 51.4278 37.7481 49.1531C37.7481 47.6488 37.9665 46.3463 38.4033 45.2457C38.84 44.145 39.3496 43.2828 39.9319 42.659C40.5507 42.0353 41.4788 41.5033 42.7163 41.063C43.9538 40.6228 45.0458 40.3109 45.9921 40.1275C46.9384 39.944 48.3033 39.7239 50.0868 39.4671C51.8338 39.2102 53.0167 38.88 53.6355 38.4764C54.2906 38.0362 54.6182 37.3391 54.6182 36.3851C54.6182 35.5046 54.1997 34.8258 53.3625 34.3489C52.5618 33.8352 51.4699 33.5784 50.0868 33.5784C47.2114 33.5784 45.5917 34.9175 45.2277 37.5959H38.6216C38.7308 31.2486 42.6617 28.075 50.4143 28.075C54.5272 28.075 57.4572 28.9738 59.2043 30.7716C60.9877 32.5327 61.8795 35.1927 61.8795 38.7516V55.8673Z" stroke="#7500FF" mask="url(#path-24-outside-4_219_3308)"/>
<path d="M82.0432 46.0712H89.1953C88.8313 49.1898 87.5028 51.7214 85.2098 53.6659C82.9168 55.6105 80.1324 56.5827 76.8566 56.5827C73.0713 56.5827 70.0686 55.3353 67.8483 52.8404C65.6281 50.3455 64.518 46.7316 64.518 41.9986C64.518 37.3024 65.6281 33.8169 67.8483 31.5421C70.0686 29.2307 73.1441 28.075 77.075 28.075C80.5692 28.075 83.4081 29.0105 85.592 30.8817C87.8122 32.7529 89.0315 35.2844 89.2499 38.4764H82.0978C81.9159 37.0822 81.3517 35.9999 80.4054 35.2294C79.4954 34.4222 78.3671 34.0187 77.0204 34.0187C73.3807 34.0187 71.5608 36.6236 71.5608 41.8335C71.5608 44.6219 72.0522 46.7866 73.0349 48.3276C74.0541 49.8319 75.3098 50.584 76.802 50.584C78.2215 50.584 79.4044 50.1987 80.3508 49.4283C81.3335 48.6211 81.8976 47.5021 82.0432 46.0712Z" stroke="#7500FF" mask="url(#path-24-outside-4_219_3308)"/>
<path d="M115.753 55.8673H107.782L101.886 43.7047L98.4463 47.2819V55.8673H91.2943V18.8842H98.4463V39.0818L107.291 28.7904H115.972L106.963 38.7516L115.753 55.8673Z" stroke="#7500FF" mask="url(#path-24-outside-4_219_3308)"/>
<path d="M147.722 45.0805V38.0361H154.328V45.741C154.328 48.8229 153.4 51.4095 151.544 53.5008C149.724 55.5554 147.031 56.5827 143.464 56.5827C139.751 56.5827 136.985 55.5554 135.165 53.5008C133.382 51.4462 132.49 48.8412 132.49 45.6859V21.4708H139.478V28.7904H154.328V33.8535H139.478V44.9705C139.478 48.566 140.843 50.3638 143.573 50.3638C146.339 50.3638 147.722 48.6027 147.722 45.0805Z" stroke="#7500FF" mask="url(#path-24-outside-4_219_3308)"/>
<path d="M181.578 55.8673H174.426V39.0818C174.426 37.1006 174.062 35.7247 173.334 34.9542C172.643 34.1471 171.478 33.7435 169.84 33.7435C168.13 33.7435 166.783 34.3672 165.8 35.6146C164.817 36.8621 164.326 38.4397 164.326 40.3476V55.8673H157.229V18.8842H164.326V32.3126C164.836 31.1018 165.837 30.0929 167.329 29.2857C168.821 28.4785 170.459 28.0749 172.242 28.0749C175.045 28.0749 177.302 28.8454 179.012 30.3864C180.723 31.9273 181.578 34.037 181.578 36.7153V55.8673Z" stroke="#7500FF" mask="url(#path-24-outside-4_219_3308)"/>
<path d="M191.402 39.6872H202.376C202.339 37.7793 201.775 36.3117 200.683 35.2844C199.628 34.2571 198.354 33.7435 196.861 33.7435C195.405 33.7435 194.168 34.2755 193.149 35.3395C192.13 36.4035 191.547 37.8527 191.402 39.6872ZM209.691 44.2H191.183C191.293 46.2546 191.875 47.8873 192.93 49.098C194.022 50.3088 195.442 50.9142 197.189 50.9142C198.354 50.9142 199.373 50.639 200.246 50.0887C201.156 49.5383 201.739 48.8045 201.993 47.8873H209.309C208.508 50.639 207.053 52.7853 204.942 54.3263C202.867 55.8306 200.392 56.5827 197.517 56.5827C188.563 56.5827 184.086 51.6663 184.086 41.8335C184.086 37.6142 185.232 34.2755 187.525 31.8173C189.818 29.3224 193.003 28.0749 197.08 28.0749C205.487 28.0749 209.691 33.45 209.691 44.2Z" stroke="#7500FF" mask="url(#path-24-outside-4_219_3308)"/>
<path d="M303.695 55.8673H296.597V18.8842H303.695V55.8673Z" stroke="#7500FF" mask="url(#path-24-outside-4_219_3308)"/>
<path d="M313.771 55.8673H306.674V18.8842H313.771V55.8673Z" stroke="#7500FF" mask="url(#path-24-outside-4_219_3308)"/>
<path d="M324.106 55.8673H317.009V18.8842H324.106V55.8673Z" stroke="#7500FF" mask="url(#path-24-outside-4_219_3308)"/>
<mask id="path-25-inside-5_219_3308" fill="white">
<path d="M257.05 15.4973L256.936 15.4968L256.932 17.2714L257.046 17.2719L257.05 15.4973Z"/>
</mask>
<path d="M257.05 15.4973L256.936 15.4968L256.932 17.2714L257.046 17.2719L257.05 15.4973Z" fill="white" fill-opacity="0.98"/>
<path d="M257.05 15.4973L257.55 15.4996L257.551 14.9996L257.051 14.9973L257.05 15.4973ZM256.936 15.4968L256.937 14.9968L256.437 14.9945L256.436 15.4945L256.936 15.4968ZM256.932 17.2714L256.432 17.2691L256.431 17.7691L256.931 17.7714L256.932 17.2714ZM257.046 17.2719L257.045 17.7719L257.545 17.7742L257.546 17.2742L257.046 17.2719ZM257.05 15.4973L257.051 14.9973L256.937 14.9968L256.936 15.4968L256.935 15.9968L257.049 15.9973L257.05 15.4973ZM256.936 15.4968L256.436 15.4945L256.432 17.2691L256.932 17.2714L257.432 17.2737L257.436 15.499L256.936 15.4968ZM256.932 17.2714L256.931 17.7714L257.045 17.7719L257.046 17.2719L257.047 16.7719L256.933 16.7714L256.932 17.2714ZM257.046 17.2719L257.546 17.2742L257.55 15.4996L257.05 15.4973L256.55 15.495L256.546 17.2697L257.046 17.2719Z" fill="#7500FF" mask="url(#path-25-inside-5_219_3308)"/>
<path d="M258.956 14.2771L258.954 15.2536L257.188 15.2455L257.19 14.2689L258.956 14.2771Z" fill="white" fill-opacity="0.98" stroke="#7500FF" stroke-width="0.5"/>
<path d="M260.144 30.0449L253.822 30.0157L256.982 18.2392L260.144 30.0449Z" fill="white" fill-opacity="0.98" stroke="#7500FF" stroke-width="0.5"/>
<path d="M257.135 17.0497L257.133 18.3231L256.895 18.322L256.898 17.0486L257.135 17.0497Z" fill="white" fill-opacity="0.98" stroke="#7500FF" stroke-width="0.5"/>
<path d="M260.435 38.4701L260.394 56.6214L253.416 56.5894L253.456 38.4371L260.435 38.4701ZM258.787 39.407C258.674 39.4087 258.559 40.2349 258.556 41.2968C258.554 42.3601 258.666 43.1878 258.779 43.1883C258.892 43.1886 259.007 42.3617 259.01 41.2985C259.012 40.2354 258.9 39.4076 258.787 39.407ZM257.543 39.4022C257.43 39.4038 257.315 40.229 257.312 41.291C257.31 42.3543 257.422 43.1819 257.535 43.1825C257.648 43.1826 257.763 42.3558 257.765 41.2927C257.768 40.2296 257.656 39.4027 257.543 39.4022ZM256.242 39.3962C256.129 39.3956 256.014 40.2217 256.012 41.2849C256.009 42.3475 256.12 43.1748 256.233 43.1764C256.346 43.1769 256.461 42.35 256.464 41.2867C256.466 40.2244 256.355 39.398 256.242 39.3962ZM254.94 39.3901C254.827 39.3914 254.712 40.2168 254.71 41.2789C254.707 42.3422 254.819 43.1699 254.932 43.1704C255.046 43.1703 255.161 42.3436 255.163 41.2806C255.165 40.2175 255.053 39.3906 254.94 39.3901Z" fill="white" fill-opacity="0.98"/>
<mask id="path-31-inside-6_219_3308" fill="white">
<path d="M260.459 30.3063L260.442 37.5738L253.474 37.5408L253.489 30.2733L260.459 30.3063ZM257 31.3534C255.64 31.3472 254.505 32.5234 254.501 33.9413C254.498 35.3593 255.629 36.5462 256.989 36.5526C258.349 36.5588 259.484 35.3826 259.488 33.9646C259.491 32.5466 258.36 31.3596 257 31.3534Z"/>
</mask>
<path d="M260.459 30.3063L260.442 37.5738L253.474 37.5408L253.489 30.2733L260.459 30.3063ZM257 31.3534C255.64 31.3472 254.505 32.5234 254.501 33.9413C254.498 35.3593 255.629 36.5462 256.989 36.5526C258.349 36.5588 259.484 35.3826 259.488 33.9646C259.491 32.5466 258.36 31.3596 257 31.3534Z" fill="white" fill-opacity="0.98"/>
<path d="M260.459 30.3063L260.809 30.3075L260.81 29.9579L260.46 29.9563L260.459 30.3063ZM260.442 37.5738L260.441 37.9238L260.791 37.9255L260.792 37.5751L260.442 37.5738ZM253.474 37.5408L253.124 37.5396L253.123 37.8892L253.472 37.8908L253.474 37.5408ZM253.489 30.2733L253.49 29.9233L253.14 29.9216L253.139 30.272L253.489 30.2733ZM257 31.3534L257.001 31.0034L257.001 31.0034L257 31.3534ZM254.501 33.9413L254.151 33.94L254.151 33.9401L254.501 33.9413ZM256.989 36.5526L256.988 36.9026L256.988 36.9026L256.989 36.5526ZM259.488 33.9646L259.838 33.9659L259.838 33.9659L259.488 33.9646ZM260.459 30.3063L260.109 30.305L260.092 37.5726L260.442 37.5738L260.792 37.5751L260.809 30.3075L260.459 30.3063ZM260.442 37.5738L260.443 37.2238L253.475 37.1908L253.474 37.5408L253.472 37.8908L260.441 37.9238L260.442 37.5738ZM253.474 37.5408L253.824 37.5421L253.839 30.2745L253.489 30.2733L253.139 30.272L253.124 37.5396L253.474 37.5408ZM253.489 30.2733L253.488 30.6233L260.458 30.6563L260.459 30.3063L260.46 29.9563L253.49 29.9233L253.489 30.2733ZM257 31.3534L257.001 31.0034C255.434 30.9963 254.155 32.3427 254.151 33.94L254.501 33.9413L254.851 33.9426C254.854 32.7042 255.846 31.6982 256.999 31.7034L257 31.3534ZM254.501 33.9413L254.151 33.9401C254.148 35.5373 255.421 36.8952 256.988 36.9026L256.989 36.5526L256.99 36.2026C255.837 36.1972 254.849 35.1813 254.851 33.9425L254.501 33.9413ZM256.989 36.5526L256.988 36.9026C258.555 36.9097 259.834 35.5633 259.838 33.9659L259.488 33.9646L259.138 33.9634C259.135 35.2018 258.143 36.2079 256.99 36.2026L256.989 36.5526ZM259.488 33.9646L259.838 33.9659C259.841 32.3687 258.568 31.0105 257.001 31.0034L257 31.3534L256.999 31.7034C258.152 31.7086 259.14 32.7246 259.138 33.9634L259.488 33.9646Z" fill="#7500FF" mask="url(#path-31-inside-6_219_3308)"/>
<path d="M256.938 33.8913C256.981 33.8915 257.004 33.9056 257.017 33.919C257.031 33.9332 257.047 33.9619 257.046 34.0129C257.046 34.0637 257.03 34.0916 257.017 34.1055C257.005 34.1175 256.985 34.1274 256.951 34.1297C256.944 34.1241 256.934 34.1158 256.924 34.1022C256.912 34.0851 256.902 34.065 256.895 34.0464C256.888 34.0278 256.886 34.016 256.886 34.0122C256.886 33.9759 256.896 33.9349 256.911 33.9097C256.917 33.8992 256.923 33.8954 256.925 33.8942C256.925 33.8939 256.928 33.8913 256.938 33.8913Z" fill="white" fill-opacity="0.98" stroke="#7500FF" stroke-width="0.35"/>
<path d="M256.939 34.0133L255.804 34.8349L256.939 34.0133Z" fill="white" fill-opacity="0.98"/>
<path d="M256.939 34.0133L255.804 34.8349" stroke="#7500FF" stroke-width="0.35"/>
<path d="M256.938 34.0134L258.295 35.2603L256.938 34.0134Z" fill="white" fill-opacity="0.98"/>
<path d="M256.938 34.0134L258.295 35.2603" stroke="#7500FF" stroke-width="0.35"/>
<path d="M261.012 33.2559L261.003 37.4004L260.387 37.3976L260.396 33.2531L261.012 33.2559Z" fill="white" fill-opacity="0.98" stroke="#7500FF" stroke-width="0.35"/>
<path d="M253.539 33.2313L253.53 37.3758L252.914 37.373L252.923 33.2285L253.539 33.2313Z" fill="white" fill-opacity="0.98" stroke="#7500FF" stroke-width="0.35"/>
<path d="M253.495 32.997L252.917 32.9944L253.208 31.7936L253.495 32.997Z" fill="white" fill-opacity="0.98" stroke="#7500FF" stroke-width="0.35"/>
<path d="M261.024 33.0228L260.447 33.0201L260.737 31.8193L261.024 33.0228Z" fill="white" fill-opacity="0.98" stroke="#7500FF" stroke-width="0.35"/>
<path d="M261.435 37.761L261.128 38.286L252.831 38.2485L252.492 37.7206L261.435 37.761Z" fill="white" fill-opacity="0.98" stroke="#7500FF" stroke-width="0.35"/>
<mask id="path-43-inside-7_219_3308" fill="white">
<path d="M253.21 31.3966C253.324 31.3972 253.38 31.3383 253.381 31.2202C253.381 31.102 253.324 31.0426 253.211 31.0421C253.098 31.0416 253.041 31.1004 253.041 31.2186C253.04 31.2777 253.097 31.3961 253.21 31.3966Z"/>
</mask>
<path d="M253.21 31.3966C253.324 31.3972 253.38 31.3383 253.381 31.2202C253.381 31.102 253.324 31.0426 253.211 31.0421C253.098 31.0416 253.041 31.1004 253.041 31.2186C253.04 31.2777 253.097 31.3961 253.21 31.3966Z" fill="white" fill-opacity="0.98"/>
<path d="M253.21 31.3966L253.209 31.7466C253.324 31.7472 253.473 31.7173 253.59 31.5963C253.704 31.4781 253.73 31.3312 253.731 31.2218L253.381 31.2202L253.031 31.2185C253.031 31.2273 253.028 31.1689 253.086 31.1095C253.146 31.0474 253.21 31.0466 253.211 31.0466L253.21 31.3966ZM253.381 31.2202L253.731 31.2218C253.731 31.1123 253.705 30.9652 253.592 30.8459C253.475 30.7239 253.326 30.6926 253.212 30.6921L253.211 31.0421L253.21 31.3921C253.209 31.3921 253.145 31.3908 253.085 31.3281C253.028 31.2682 253.031 31.2098 253.031 31.2185L253.381 31.2202ZM253.211 31.0421L253.212 30.6921C253.097 30.6916 252.948 30.7215 252.831 30.8424C252.717 30.9606 252.691 31.1075 252.691 31.217L253.041 31.2186L253.391 31.2202C253.391 31.2115 253.393 31.2699 253.335 31.3293C253.276 31.3914 253.211 31.3921 253.21 31.3921L253.211 31.0421ZM253.041 31.2186L252.691 31.217C252.69 31.3345 252.737 31.4523 252.805 31.5414C252.88 31.6406 253.017 31.7458 253.209 31.7466L253.21 31.3966L253.211 31.0466C253.291 31.047 253.342 31.0927 253.361 31.1178C253.37 31.1298 253.376 31.1414 253.38 31.1527C253.383 31.1616 253.391 31.1844 253.391 31.2202L253.041 31.2186Z" fill="#7500FF" mask="url(#path-43-inside-7_219_3308)"/>
<mask id="path-45-inside-8_219_3308" fill="white">
<path d="M260.739 31.4214C260.852 31.422 260.909 31.3631 260.909 31.245C260.909 31.1268 260.853 31.0674 260.74 31.0669C260.626 31.0664 260.569 31.1252 260.569 31.2434C260.569 31.3025 260.625 31.4209 260.739 31.4214Z"/>
</mask>
<path d="M260.739 31.4214C260.852 31.422 260.909 31.3631 260.909 31.245C260.909 31.1268 260.853 31.0674 260.74 31.0669C260.626 31.0664 260.569 31.1252 260.569 31.2434C260.569 31.3025 260.625 31.4209 260.739 31.4214Z" fill="white" fill-opacity="0.98"/>
<path d="M260.739 31.4214L260.738 31.7714C260.852 31.772 261.002 31.7421 261.118 31.6212C261.233 31.503 261.259 31.3561 261.259 31.2466L260.909 31.245L260.559 31.2433C260.559 31.252 260.557 31.1936 260.614 31.1343C260.674 31.0722 260.738 31.0714 260.74 31.0714L260.739 31.4214ZM260.909 31.245L261.259 31.2466C261.259 31.1371 261.234 30.99 261.12 30.8707C261.004 30.7487 260.855 30.7174 260.74 30.7169L260.74 31.0669L260.739 31.4169C260.738 31.4169 260.674 31.4155 260.614 31.3529C260.557 31.293 260.559 31.2346 260.559 31.2433L260.909 31.245ZM260.74 31.0669L260.74 30.7169C260.626 30.7164 260.477 30.7463 260.36 30.8672C260.246 30.9854 260.219 31.1323 260.219 31.2417L260.569 31.2434L260.919 31.245C260.919 31.2363 260.921 31.2947 260.864 31.3541C260.804 31.4162 260.74 31.4169 260.739 31.4169L260.74 31.0669ZM260.569 31.2434L260.219 31.2417C260.219 31.3593 260.265 31.4771 260.333 31.5661C260.409 31.6653 260.545 31.7705 260.738 31.7714L260.739 31.4214L260.74 31.0714C260.819 31.0718 260.87 31.1175 260.89 31.1426C260.899 31.1546 260.905 31.1662 260.909 31.1775C260.912 31.1864 260.919 31.2092 260.919 31.245L260.569 31.2434Z" fill="#7500FF" mask="url(#path-45-inside-8_219_3308)"/>
<path d="M259 34L257 34L258 35" stroke="#FCFAFF" stroke-width="0.3" stroke-linecap="round" stroke-linejoin="round"/>
<path d="M232.732 18.7429L232.69 32.3356L233.172 32.4319C234.148 30.0719 237.324 28.2232 240.822 28.2348C243.517 28.2438 245.77 29.0784 247.345 30.57C248.919 32.0598 249.839 34.2265 249.831 36.9475L249.772 56.4552L243.195 56.4333L243.246 39.3513C243.253 37.2378 242.918 35.7819 242.116 34.8573C241.304 33.9224 240.067 33.5887 238.428 33.5833C236.591 33.5773 235.144 34.3817 234.161 35.6726C233.183 36.9571 232.671 38.7125 232.665 40.6168L232.618 56.398L226.042 56.3761L226.155 18.721L232.732 18.7429Z" fill="white" fill-opacity="0.98" stroke="#7500FF" stroke-width="0.5"/>
<path d="M281.191 18.7943L281.077 56.4494L274.5 56.4275L274.614 18.7724L281.191 18.7943ZM271.17 18.7609L271.056 56.416L264.48 56.3941L264.594 18.739L271.17 18.7609Z" fill="white" fill-opacity="0.98" stroke="#7500FF" stroke-width="0.5"/>
<defs>
<filter id="filter0_f_219_3308" x="0" y="0.576843" width="335.106" height="67.1427" filterUnits="userSpaceOnUse" color-interpolation-filters="sRGB">
<feFlood flood-opacity="0" result="BackgroundImageFix"/>
<feBlend mode="normal" in="SourceGraphic" in2="BackgroundImageFix" result="shape"/>
<feGaussianBlur stdDeviation="3.5" result="effect1_foregroundBlur_219_3308"/>
</filter>
</defs>
</svg>
