<svg width="114" height="70" viewBox="0 0 114 70" fill="none" xmlns="http://www.w3.org/2000/svg">
  <path d="M70.958 4.5484H70.792V7.02935H70.958V4.5484Z" fill="#C11F25"/>
  <path d="M76.0206 36.6354H65.8125V62.0238H76.0206V36.6354Z" fill="#C11F25"/>
  <path d="M76.0206 25.223H65.8125V35.3949H76.0206V25.223Z" fill="#C11F25"/>
  <path d="M63.9043 35.3949H77.93L77.1831 36.6354H64.7342L63.9043 35.3949Z" fill="#84010B"/>
  <path d="M65.3984 26.7943C65.5644 26.7943 65.6474 26.7116 65.6474 26.5462C65.6474 26.3808 65.5644 26.2981 65.3984 26.2981C65.2324 26.2981 65.1494 26.3808 65.1494 26.5462C65.1494 26.6289 65.2324 26.7943 65.3984 26.7943Z" fill="#C11F25"/>
  <path d="M76.4355 26.7943C76.6015 26.7943 76.6845 26.7116 76.6845 26.5462C76.6845 26.3808 76.6015 26.2981 76.4355 26.2981C76.2695 26.2981 76.1865 26.3808 76.1865 26.5462C76.1865 26.6289 76.2695 26.7943 76.4355 26.7943Z" fill="#C11F25"/>
  <path d="M70.875 7.02936L76.0206 25.223H65.8125L70.875 7.02936Z" fill="#84010B"/>
  <path d="M71.4559 6.36778H70.377V8.84874H71.4559V6.36778Z" fill="#84010B"/>
  <path d="M77.1003 29.1099H75.6895V35.3949H77.1003V29.1099Z" fill="#F6BFBF"/>
  <path d="M66.1452 29.1099H64.7344V35.3949H66.1452V29.1099Z" fill="#F6BFBF"/>
  <path d="M67.9706 43.2513C68.1366 43.2513 68.3026 42.0935 68.3026 40.6049C68.3026 39.1163 68.1366 37.9586 67.9706 37.9586C67.8047 37.9586 67.6387 39.1163 67.6387 40.6049C67.6387 42.0935 67.8047 43.2513 67.9706 43.2513Z" fill="#EEE4D4"/>
  <path d="M69.8798 43.2513C70.0458 43.2513 70.2118 42.0935 70.2118 40.6049C70.2118 39.1163 70.0458 37.9586 69.8798 37.9586C69.7138 37.9586 69.5479 39.1163 69.5479 40.6049C69.5479 42.0935 69.7138 43.2513 69.8798 43.2513Z" fill="#EEE4D4"/>
  <path d="M73.6142 43.2513C73.7802 43.2513 73.9462 42.0935 73.9462 40.6049C73.9462 39.1163 73.7802 37.9586 73.6142 37.9586C73.4482 37.9586 73.2822 39.1163 73.2822 40.6049C73.2822 42.0935 73.4482 43.2513 73.6142 43.2513Z" fill="#EEE4D4"/>
  <path d="M71.789 43.2513C71.955 43.2513 72.121 42.0935 72.121 40.6049C72.121 39.1163 71.955 37.9586 71.789 37.9586C71.623 37.9586 71.457 39.1163 71.457 40.6049C71.457 42.0935 71.623 43.2513 71.789 43.2513Z" fill="#EEE4D4"/>
  <path d="M74.1117 2.48096H70.792V4.54842H74.1117V2.48096Z" fill="#C11F25"/>
  <path d="M65.3983 26.2981L64.6514 29.2753H66.1452L65.3983 26.2981Z" fill="#84010B"/>
  <path d="M76.4364 26.2981L75.6895 29.2753H77.1833L76.4364 26.2981Z" fill="#84010B"/>
  <path d="M70.9592 34.5679C73.283 34.5679 75.1918 32.6659 75.1918 30.3503C75.1918 28.0348 73.283 26.1327 70.9592 26.1327C68.6354 26.1327 66.7266 28.0348 66.7266 30.3503C66.7266 32.7486 68.6354 34.5679 70.9592 34.5679Z" fill="#F6BFBF"/>
  <path d="M70.9583 33.9891C72.9501 33.9891 74.61 32.3351 74.61 30.3503C74.61 28.3656 72.9501 26.7116 70.9583 26.7116C68.9665 26.7116 67.3066 28.3656 67.3066 30.3503C67.3066 32.3351 68.9665 33.9891 70.9583 33.9891Z" fill="#EEE4D4"/>
  <path d="M70.8759 30.8465C71.1249 30.8465 71.2909 30.6811 71.2909 30.433C71.2909 30.1849 71.1249 30.0195 70.8759 30.0195C70.6269 30.0195 70.5439 30.2676 70.5439 30.433C70.5439 30.5984 70.7099 30.8465 70.8759 30.8465Z" fill="#C11F25"/>
  <path d="M70.8757 30.433L69.2158 31.5908" stroke="#C11F25" stroke-width="0.757998"/>
  <path d="M70.876 30.433L72.8678 32.1697" stroke="#C11F25" stroke-width="0.757998"/>
  <path d="M60.8343 62.0238V34.4025C60.8343 26.6289 55.2738 21.9151 47.2235 21.9151C41.995 21.9151 37.1814 24.5614 35.6875 28.0348V8.68333H25.3135V62.0238H35.6875V39.6126C35.6875 34.4025 38.5923 30.1022 43.7378 30.1022C48.4684 30.1022 50.4602 31.9216 50.4602 37.7932V62.0238H60.8343Z" fill="#84010B"/>
  <path d="M91.292 62.0238V8.68333H80.918V62.0238H91.292ZM105.982 62.0238V8.68333H95.6076V62.0238H105.982Z" fill="#84010B"/>
  <path d="M22.0761 49.7845H13.6939C11.2871 49.7845 9.8762 51.6865 9.8762 54.4983C9.8762 56.3176 10.7061 57.9716 11.702 58.4678H5.80957V62.0238H22.0761V58.4678H15.2707C13.6939 58.4678 12.366 57.4754 12.366 55.6561C12.366 54.0021 12.9469 53.3405 14.6898 53.3405H22.0761V49.7845ZM17.5945 39.9433C19.0054 39.9433 20.1673 41.3492 20.1673 43.1686C20.1673 44.3264 19.7523 44.9053 18.8394 44.9053C17.8435 44.9053 17.3455 44.2437 17.0136 42.1762C16.7646 40.853 16.5986 40.1914 16.3496 39.8607L17.5945 39.9433ZM22.0761 36.3873H14.5238C11.5361 36.3873 9.79321 37.8759 9.79321 42.1762C9.79321 46.5592 11.5361 48.0478 14.0258 48.1305V44.8226C12.9469 44.6572 12.283 43.9956 12.283 42.3416C12.283 40.9357 12.7809 40.026 13.5279 40.026C14.3578 40.026 14.6898 40.5222 14.8558 42.3416C15.2707 45.9803 15.6857 48.544 19.0884 48.544C20.9972 48.544 22.3251 47.1381 22.3251 43.9956C22.3251 42.1762 21.7441 40.7703 20.9142 39.8607C21.2462 39.8607 21.6611 39.778 21.9931 39.6126V36.3873H22.0761ZM17.7605 26.2154C19.0054 26.3808 19.7523 27.4559 19.7523 28.8618C19.7523 30.2676 18.5074 31.5081 15.9347 31.5081C13.3619 31.5081 12.449 30.2676 12.449 28.6964C12.449 27.3732 13.1959 26.2981 14.4408 26.1327V22.494C11.619 22.7421 9.8762 25.1403 9.8762 28.6137C9.8762 32.4178 11.702 34.9814 16.0176 34.9814C20.3333 34.9814 22.4081 32.4178 22.4081 28.7791C22.4081 25.4711 20.5822 22.9075 17.7605 22.5767V26.2154ZM22.0761 9.17953L14.5238 13.6452L10.2082 9.09683V13.4798L14.7728 17.9456H5.80957V21.5016H22.0761V17.8629H18.2584L16.6816 16.1262L22.0761 13.1491V9.17953Z" fill="#C11F25"/>
  <path d="M42.2435 14.3068C42.2435 14.9684 41.9946 15.3819 41.3306 15.3819C40.7497 15.3819 40.4177 14.9684 40.4177 14.3068V12.074H43.5714V11.0816H40.4177V9.67572H39.0068V14.4722C39.0068 15.63 39.6708 16.6224 41.3306 16.6224C42.9905 16.6224 43.6544 15.63 43.6544 14.4722V12.9837H42.2435V14.3068ZM49.5469 16.3743V12.5702C49.5469 11.4951 48.717 10.8335 47.5551 10.8335C46.8081 10.8335 46.0612 11.1643 45.8122 11.6605V9.09683H44.3184V16.3743H45.8122V13.3145C45.8122 12.5702 46.2272 11.9913 46.9741 11.9913C47.6381 11.9913 47.97 12.2394 47.97 13.0664V16.3743H49.5469ZM51.7047 13.2318C51.7877 12.4875 52.2856 12.074 52.8666 12.074C53.4475 12.074 54.0285 12.4875 54.0285 13.2318H51.7047ZM55.6053 14.0587C55.6053 11.9086 54.6924 10.9162 52.8666 10.9162C51.0407 10.9162 50.0448 11.9913 50.0448 13.6452C50.0448 15.5473 51.0407 16.5397 52.9496 16.5397C54.1945 16.5397 55.1074 15.9608 55.5223 14.803H53.9455C53.8625 15.1338 53.3645 15.3819 52.9496 15.3819C52.2026 15.3819 51.7047 14.8857 51.6217 14.0587H55.6053Z" fill="#C11F25"/>
</svg>
