<svg width="137" height="84" fill="none" xmlns="http://www.w3.org/2000/svg"><path d="M85.5 5.5h-.2v3h.2v-3ZM91.6 44.3H79.3V75h12.3V44.3ZM91.6 30.5H79.3v12.3h12.3V30.5Z" fill="#5C71AD"/><path d="M77 42.8h16.9l-.9 1.5H78l-1-1.5Z" fill="#3B4779"/><path d="M78.8 32.4c.2 0 .3-.1.3-.3 0-.2-.1-.3-.3-.3-.2 0-.3.1-.3.3 0 .1.1.3.3.3ZM92.1 32.4c.2 0 .3-.1.3-.3 0-.2-.1-.3-.3-.3-.2 0-.3.1-.3.3 0 .1.1.3.3.3Z" fill="#5C71AD"/><path d="m85.4 8.5 6.2 22H79.3l6.1-22Z" fill="#3B4779"/><path d="M86.1 7.7h-1.3v3h1.3v-3Z" fill="#3B4779"/><path d="M92.9 35.2h-1.7v7.6h1.7v-7.6ZM79.7 35.2H78v7.6h1.7v-7.6Z" fill="#BFCFF6"/><path d="M81.9 52.3c.2 0 .4-1.4.4-3.2 0-1.8-.2-3.2-.4-3.2s-.4 1.4-.4 3.2c0 1.8.2 3.2.4 3.2ZM84.2 52.3c.2 0 .4-1.4.4-3.2 0-1.8-.2-3.2-.4-3.2s-.4 1.4-.4 3.2c0 1.8.2 3.2.4 3.2ZM88.7 52.3c.2 0 .4-1.4.4-3.2 0-1.8-.2-3.2-.4-3.2s-.4 1.4-.4 3.2c0 1.8.2 3.2.4 3.2ZM86.5 52.3c.2 0 .4-1.4.4-3.2 0-1.8-.2-3.2-.4-3.2s-.4 1.4-.4 3.2c0 1.8.2 3.2.4 3.2Z" fill="#fff"/><path d="M89.3 3h-4v2.5h4V3Z" fill="#5C71AD"/><path d="m78.8 31.8-.9 3.6h1.8l-.9-3.6ZM92.1 31.8l-.9 3.6H93l-.9-3.6Z" fill="#3B4779"/><path d="M85.5 41.8c2.8 0 5.1-2.3 5.1-5.1s-2.3-5.1-5.1-5.1-5.1 2.3-5.1 5.1c0 2.9 2.3 5.1 5.1 5.1Z" fill="#BFCFF6"/><path d="M85.5 41.1c2.4 0 4.4-2 4.4-4.4 0-2.4-2-4.4-4.4-4.4-2.4 0-4.4 2-4.4 4.4 0 2.4 2 4.4 4.4 4.4Z" fill="#fff"/><path d="M85.4 37.3c.3 0 .5-.2.5-.5s-.2-.5-.5-.5-.4.3-.4.5.2.5.4.5Z" fill="#5C71AD"/><path d="m85.4 36.8-2 1.4M85.4 36.8l2.4 2.1" stroke="#5C71AD"/><path d="M73.3 75V41.6c0-9.4-6.7-15.1-16.4-15.1-6.3 0-12.1 3.2-13.9 7.4V10.5H30.5V75H43V47.9c0-6.3 3.5-11.5 9.7-11.5 5.7 0 8.1 2.2 8.1 9.3V75h12.5ZM110 75V10.5H97.5V75H110Zm17.7 0V10.5h-12.5V75h12.5Z" fill="#3B4779"/><path d="M26.6 60.2H16.5c-2.9 0-4.6 2.3-4.6 5.7 0 2.2 1 4.2 2.2 4.8H7V75h19.6v-4.3h-8.2c-1.9 0-3.5-1.2-3.5-3.4 0-2 .7-2.8 2.8-2.8h8.9v-4.3Zm-5.4-11.9c1.7 0 3.1 1.7 3.1 3.9 0 1.4-.5 2.1-1.6 2.1-1.2 0-1.8-.8-2.2-3.3-.3-1.6-.5-2.4-.8-2.8l1.5.1Zm5.4-4.3h-9.1c-3.6 0-5.7 1.8-5.7 7 0 5.3 2.1 7.1 5.1 7.2v-4c-1.3-.2-2.1-1-2.1-3 0-1.7.6-2.8 1.5-2.8 1 0 1.4.6 1.6 2.8.5 4.4 1 7.5 5.1 7.5 2.3 0 3.9-1.7 3.9-5.5 0-2.2-.7-3.9-1.7-5 .4 0 .9-.1 1.3-.3V44h.1Zm-5.2-12.3c1.5.2 2.4 1.5 2.4 3.2 0 1.7-1.5 3.2-4.6 3.2-3.1 0-4.2-1.5-4.2-3.4 0-1.6.9-2.9 2.4-3.1v-4.4c-3.4.3-5.5 3.2-5.5 7.4 0 4.6 2.2 7.7 7.4 7.7s7.7-3.1 7.7-7.5c0-4-2.2-7.1-5.6-7.5v4.4Zm5.2-20.6-9.1 5.4-5.2-5.5v5.3l5.5 5.4H7V26h19.6v-4.4H22l-1.9-2.1 6.5-3.6v-4.8ZM50.9 17.3c0 .8-.3 1.3-1.1 1.3-.7 0-1.1-.5-1.1-1.3v-2.7h3.8v-1.2h-3.8v-1.7H47v5.8c0 1.4.8 2.6 2.8 2.6 2 0 2.8-1.2 2.8-2.6v-1.8h-1.7v1.6Zm8.8 2.5v-4.6c0-1.3-1-2.1-2.4-2.1-.9 0-1.8.4-2.1 1V11h-1.8v8.8h1.8v-3.7c0-.9.5-1.6 1.4-1.6.8 0 1.2.3 1.2 1.3v4h1.9Zm2.6-3.8c.1-.9.7-1.4 1.4-1.4s1.4.5 1.4 1.4h-2.8Zm4.7 1c0-2.6-1.1-3.8-3.3-3.8-2.2 0-3.4 1.3-3.4 3.3 0 2.3 1.2 3.5 3.5 3.5 1.5 0 2.6-.7 3.1-2.1H65c-.1.4-.7.7-1.2.7-.9 0-1.5-.6-1.6-1.6H67Z" fill="#5C71AD"/></svg>