<svg xmlns="http://www.w3.org/2000/svg" viewBox="0 0 600 258.89"><defs><style>.cls-1{fill:#0d70a3}.cls-2{fill:#0d71a3}</style></defs><g id="Layer_2" data-name="Layer 2"><g id="Layer_1-2" data-name="Layer 1"><path class="cls-1" d="M237.36 258.29a82.36 82.36 0 0 1-.49-10.2c-3.87 6.73-10.31 10.69-17.65 10.69-6.34 0-11.21-3.06-13.19-8.31-1-2.68-1.39-6.74-1.39-15.35v-16.34c0-5.14-.4-7.23-1.49-8.12-.59-.59-1.49-.79-3.37-.89H198v-2.18l15.38-1c-.49 9.21-.6 11.59-.6 18.43v8.61c0 10 .2 12.67 1.39 16.13 1.19 3.66 4 5.56 8 5.56 5.45 0 10.31-3.58 12.89-9.62 1.48-3.37 1.78-5.54 1.78-11.68v-15.24c0-5.24-.3-7.13-1.48-8-.6-.59-1.59-.89-3.38-1h-1.79v-2.18l15.38-1c-.3 7.43-.5 14-.5 18.43v18.7c0 9.91.89 11.69 6.05 11.69h.7v2.18ZM276.84 195.7c6-7.42 14.57-11.28 25.29-11.28s19.23 3.76 25.28 11.28c5.46 6.94 8.23 15.56 8.23 26s-2.77 19.11-8.23 25.84c-6.14 7.62-14.46 11.39-25.28 11.39s-19.45-4-25.29-11.39c-5.46-6.93-8.24-15.55-8.24-25.84s2.68-18.96 8.24-26Zm7.16 49.72c4 7 10.21 10.79 18.15 10.79s14.18-3.76 18.15-10.79c3.56-6.44 5.34-14.17 5.34-23.76s-1.78-17.33-5.34-23.77c-4-7.13-10.22-10.79-18.15-10.79S288 190.86 284 197.89c-3.57 6.54-5.36 14.35-5.36 23.77s1.77 17.12 5.36 23.76ZM358.15 243.54c0 5.84.3 8.42 1.29 9.8s2.58 2.08 4.86 2.08a11.62 11.62 0 0 0 6.25-1.78l.9 2.57a21.08 21.08 0 0 1-10 2.47c-4.86 0-8.53-1.67-10.22-4.84-1.09-2-1.38-4.16-1.38-11.5v-32.07h-6.25V208c5.85-.5 8.82-4.36 10.31-13.67l4.56-1.28c-.2 4.25-.3 8-.3 14.55h11.91v2.68h-11.93ZM390.86 243.54c0 5.84.29 8.42 1.28 9.8s2.58 2.08 4.86 2.08a11.65 11.65 0 0 0 6.25-1.78l.89 2.57a21 21 0 0 1-10 2.47c-4.86 0-8.53-1.67-10.22-4.84-1.09-2-1.39-4.16-1.39-11.5v-32.07h-6.25V208c5.85-.5 8.83-4.36 10.32-13.67l4.56-1.28c-.19 4.25-.29 8-.29 14.55h11.89v2.68h-11.9ZM457.1 257.4a83.28 83.28 0 0 1-10.22 1c-3 0-3.77-1.59-4.16-8.23a25.15 25.15 0 0 1-4.86 4.27 19.67 19.67 0 0 1-12.86 4.24c-4.37 0-7.64-1-10.12-3.06a14.22 14.22 0 0 1-4.37-10.5c0-7.82 5-12.87 14.59-15.05a109.2 109.2 0 0 1 17.65-2.38v-6.23c0-4.56-.39-6.94-1.39-9-1.28-2.57-4.06-3.85-8.13-3.85-6.55 0-9.92 3-10.31 9.11-.1 2.06-.3 2.77-1.09 3.36a6.5 6.5 0 0 1-3.48.79c-3.37 0-4.85-.89-4.85-3 0-3.56 2.57-7.13 6.73-9.5 3.78-2.09 8.63-3.16 14.48-3.16 6.36 0 10.91 1.48 13.29 4.34 2 2.48 2.88 5.75 2.88 11.19 0 .3 0 .3-.2 10l-.09 9.4-.11 4.55c0 4.16.5 7.72 1.1 8.53s1.78 1.09 5.55 1.09ZM442.72 230c-8.83.79-12.7 1.59-16.66 3.57-4.36 2.08-6.65 6-6.65 11.29 0 6.23 3.38 10.5 8.34 10.5a15.21 15.21 0 0 0 12.68-7.24c1.59-2.76 2.29-6.93 2.29-13.47ZM481.89 258h-5.15l-12.3-41.1c-1.69-5.64-2.87-6.83-7.74-7.13v-2.18h22v2.18c-4.76.19-6.64 1.2-6.64 3.67a19.32 19.32 0 0 0 .88 4.35l8.93 31.1 13.09-40h4.07l12.6 40 8.63-29.13a20.22 20.22 0 0 0 1.19-5.73 3.68 3.68 0 0 0-2.78-3.57 16 16 0 0 0-4.46-.69v-2.18h19.44v2.18c-5.47.3-7.35 2.19-9.72 9.81l-12 38.42h-5.06l-12.37-38ZM580.87 257.4a83.33 83.33 0 0 1-10.21 1c-3 0-3.78-1.59-4.17-8.23a25.45 25.45 0 0 1-4.86 4.27 19.68 19.68 0 0 1-12.9 4.24c-4.36 0-7.63-1-10.11-3.06a14.22 14.22 0 0 1-4.36-10.5c0-7.82 5-12.87 14.58-15.05a109.2 109.2 0 0 1 17.65-2.38v-6.23c0-4.56-.41-6.94-1.39-9-1.29-2.57-4.07-3.85-8.14-3.85-6.54 0-9.91 3-10.3 9.11-.1 2.06-.31 2.77-1.09 3.36a6.49 6.49 0 0 1-3.47.79c-3.38 0-4.87-.89-4.87-3 0-3.56 2.58-7.13 6.75-9.5 3.76-2.09 8.62-3.16 14.47-3.16 6.35 0 10.92 1.48 13.29 4.34 2 2.48 2.89 5.75 2.89 11.19 0 .3 0 .3-.21 10l-.1 9.4-.1 4.55c0 4.16.49 7.72 1.09 8.53s1.8 1.09 5.56 1.09ZM566.49 230c-8.82.79-12.7 1.59-16.66 3.57-4.37 2.08-6.65 6-6.65 11.29 0 6.23 3.38 10.5 8.33 10.5a15.24 15.24 0 0 0 12.7-7.24c1.58-2.76 2.28-6.93 2.28-13.47Z"/><path id="path13255" class="cls-2" d="M200 24h36.72v132.79H200Z"/><path id="path13257" class="cls-2" d="M256 156.79V24h101v25.7h-64.32v27.42h59.12v25.75h-59.12V131H357v25.77Z"/><path id="path13259" class="cls-2" d="M377.52 156.79V24h100.94v25.7h-64.22v27.42h59.08v25.75h-59.08V131h64.22v25.77Z"/><path id="path13261" class="cls-2" d="M499 156.79V24h101v25.7h-64.23v27.42h59.09v25.75h-59.09V131H600v25.77Z"/><path id="path13263" class="cls-2" d="M82.48 24.67c5.87-4.56 13.25-.77 18.17 3.43a172 172 0 0 1 15.26 13l.87.49A254.18 254.18 0 0 1 152 81.45c1.61 2.49 3 5.29 2.13 8.59-3.32 8.32-10.08 14.95-16 22.2C125.34 126 111.85 139.32 96.74 150c-3 2.16-7.17 4.15-10.83 2.44-11.11-5.82-20.48-15.35-30.22-24-11.27-10.55-22.6-22.72-31.15-35.44A10.39 10.39 0 0 1 23 86.62c1.1-4.4 4.1-8 7-11.73C40 62 52.38 49.8 64.89 38.65a9.38 9.38 0 0 1 1.28-1.19c5.36-4.65 10.69-8.75 16.31-12.79m17.19-13.39L93 1.87A13.6 13.6 0 0 0 90.31.31c-2-.85-4.08.18-5.67 1.39l-12 15.64C53.37 41.2 30.56 63.48 5.68 80.56c-2 1.54-4.89 3-5.5 5.58-.65 2.26.54 4.16 2 5.56a326.47 326.47 0 0 1 55.92 48.6c3 3.17 5.46 6.3 8.4 9.27 5 6.61 10.79 13.25 15.34 20.34 1.43 1.5 1.68 3.94 3.92 4.67 1.74.61 3.9 1 5.57 0l1.67-1.66a332 332 0 0 1 76-76.6c2.93-2.62 8.51-3.59 8.59-8.44a7.66 7.66 0 0 0-3.43-5.66l-.47-.08a294.38 294.38 0 0 1-42.24-34.91L116.78 32c-5.92-6.55-11.64-13.81-17.11-20.72m-15 17c6-4.07 11.37 1.62 16 4.89 18 14.45 34.9 31 47.8 49.68 1.63 2.4 2.36 6.14.91 8.87-3.36 5.59-7.87 10.68-12.15 15.87v.26c-10.68 11.37-21.94 23-34.13 32.67-5.95 3.61-11.41 11.48-19.1 6.61a275.88 275.88 0 0 1-48.25-45.57c-2.41-3.74-6.15-6.8-7.82-11-2.33-5.73 2.81-9.85 5.74-14.17C48.12 58.56 66 41.12 84.64 28.26M88.42 40l-1.62 5.2-8.14 23.34c2 .2 4.56 0 6.56.2v.19L84 95.33l.21.28a34.24 34.24 0 0 0 8.52-.08v-.42l-1.04-25.58.16-.87 7.15-.12c-3.58-9.45-7-19-10.38-28.56ZM60.7 76.55c-4.56 2.29-11.29 5.75-10.54 12 1 3.41 4.68 5.63 7.61 7 16.23 7.19 37.72 7.45 54.82 2.12 4.23-1.64 9.9-4 10.67-9.17 0-4.28-4.56-7-7.82-8.6v-.2a14.26 14.26 0 0 1 3.61-1v-.1c-5.73-1-11.26-2.52-16.81-4 1.06 2.45 1.83 5 2.72 7.54a31.57 31.57 0 0 1 5.19-1.14c2.93 1.14 7.12 2.77 7.53 6.43.33 3.42-3.43 5.09-5.79 6.47a67.15 67.15 0 0 1-39.75 1.55c-3.62-1.15-8.83-2.6-9.28-7.21 2.57-6.06 9.2-7.32 14.75-8.79-2.85-1.83-5.75-3.47-8.51-5.51-3 .18-5.71 1.47-8.4 2.65m23.17 26.32c-.48 9.37-.6 18-1.29 27.45a52.57 52.57 0 0 0 11.84.08l-1.18-26.2L93 103a65.66 65.66 0 0 1-9.17-.09"/><path id="path13265" class="cls-2" d="M118.53 158.28a6 6 0 1 0 6 5.94 5.75 5.75 0 0 0-6-5.94m0 10.52a4.57 4.57 0 1 1 4.25-4.57 4.28 4.28 0 0 1-4.25 4.57m2.65-5.84c0-1.46-1-1.93-2.63-1.93h-2.38v6.39h1.37v-2.68h.65l1.47 2.68h1.63l-1.66-2.8a1.49 1.49 0 0 0 1.55-1.66m-2.43.69h-1.21v-1.55h1c.52 0 1.22.05 1.22.71s-.35.84-1 .84"/></g></g></svg>