<svg xmlns="http://www.w3.org/2000/svg" data-name="Layer 2" viewBox="0 0 281.32 142.62"><defs><linearGradient id="a" x1="0" x2="281.32" y1="71.31" y2="71.31" gradientUnits="userSpaceOnUse"><stop offset="0" stop-color="#0F71A3"/><stop offset="1" stop-color="#38B6FF"/></linearGradient></defs><path fill="url(#a)" d="m0 0 18.56 18.56v71.49L0 108.79V0Zm52.05 18.74h53.44V1.04H34.87l17.18 17.7Zm-17.18 43.9h70.62V45.98H34.87v16.66Zm-2.26 46.15h73.92V89.88H52.05l-19.43 18.91Zm106.92-90.05h53.44V1.04h-70.62l17.18 17.7Zm-17.18 43.9h70.62V45.98h-70.62v16.66Zm-2.26 46.15H194V89.88h-54.48l-19.43 18.91Zm106.75-90.05h53.44V1.04h-70.62l17.18 17.7Zm-17.18 43.9h70.62V45.98h-70.62v16.66Zm-2.26 46.15h73.91V89.88h-54.48l-19.43 18.91ZM68.78 141.76l3.26-3.29v-12.54l-3.26-3.26v19.08Zm18.5-19.08-3.26 3.29v12.54l3.26 3.26v-19.08Zm-1.99 19.94-2.51-2.49H73.2l-2.49 2.49h14.58Zm107.67-20.27-3.2 3.23v12.32l3.2 3.2v-18.74Zm-18.17 18.74 3.2-3.23v-12.32l-3.2-3.2v18.74Zm15.92 1.22-2.47-2.44h-9.41l-2.44 2.44h14.32Zm-5.4-4.24v-8.38h-2.87v8.38h2.87Zm-13.45-14.71-3.21 3.24v12.38l3.21 3.21v-18.83Zm-18.26 18.83 3.21-3.24v-12.38l-3.21-3.21v18.83Zm1.96-20.06 2.48 2.46h9.46l2.46-2.46h-14.39Zm2.79 12.09h8.75v-2.88h-8.75v2.88Zm-51.62 8.29-2.51-2.49h-9.58l-2.49 2.49h14.58Zm-16.51-.63 3.26-3.26v-12.54l-3.26-3.29v19.08Zm18.5-19.08-3.26 3.26v12.54l3.26 3.29v-19.08Zm-16.57-.86 2.49 2.49h9.58l2.51-2.49H92.15Zm29.83 20.57v-15.98h-3.09v15.98h3.09Zm-10.68-20.57 3.12 2.73h12l3.15-2.73h-18.26Zm21.26 0 3.13 2.65h12.07l3.16-2.65h-18.37Zm10.74 20.57v-16.12h-3.11v16.12h3.11Zm71.2-19.09-3.21 3.24v12.38l3.21 3.21v-18.83Zm-18.26 18.83 3.21-3.24v-12.38l-3.21-3.21v18.83Zm1.96-20.06 2.48 2.46h9.46l2.46-2.46h-14.39Zm2.79 12.09h8.75v-2.88h-8.75v2.88Z" data-name="Layer 1"/></svg>
