<svg xmlns="http://www.w3.org/2000/svg" fill="none" viewBox="0 0 453 154"><path fill="#2E3632" d="M173.21 32.03c.1 0 .19.04.28.12l.72.79c-.56.65-1.23 1.15-2.03 1.51-.8.36-1.75.54-2.87.54-.98 0-1.87-.17-2.67-.51-.8-.34-1.48-.81-2.04-1.42-.56-.61-1-1.34-1.31-2.2a8.26 8.26 0 0 1-.47-2.82c0-1.02.17-1.97.5-2.82.33-.86.8-1.59 1.4-2.2a6.32 6.32 0 0 1 2.16-1.43c.84-.34 1.77-.51 2.78-.51 1.01 0 1.86.16 2.59.47.73.31 1.37.73 1.93 1.26l-.6.84c-.04.06-.1.12-.15.16a.48.48 0 0 1-.51-.03c-.09-.06-.2-.13-.33-.22s-.28-.18-.45-.29c-.17-.1-.37-.2-.61-.29-.23-.09-.51-.16-.82-.22a5.7 5.7 0 0 0-1.07-.09c-.73 0-1.4.13-2 .38-.6.25-1.13.61-1.56 1.07-.44.46-.78 1.03-1.02 1.69-.24.67-.37 1.41-.37 2.23 0 .82.12 1.61.37 2.27.24.67.58 1.23 1 1.69.42.46.92.81 1.5 1.05s1.2.36 1.86.36c.41 0 .77-.02 1.09-.07.32-.05.62-.12.9-.22s.53-.23.77-.38.48-.34.72-.56c.11-.09.21-.14.31-.14v-.01Z"/><path fill="#2E3632" d="M180.18 25.07c.58 0 1.11.1 1.6.29.49.19.91.47 1.26.84.35.36.63.81.83 1.35.2.54.3 1.14.3 1.83 0 .27-.03.44-.09.53-.06.09-.17.13-.32.13h-6.4c.01.61.1 1.14.25 1.59.15.45.36.83.63 1.13.27.3.58.53.95.67.37.15.78.22 1.23.22.42 0 .79-.05 1.1-.15.31-.1.57-.2.79-.32.22-.11.41-.22.56-.32.15-.1.28-.15.38-.15.14 0 .25.05.32.16l.48.62c-.21.25-.46.47-.75.66-.29.19-.6.34-.94.46a6.29 6.29 0 0 1-2.08.36c-.67 0-1.28-.11-1.84-.34a4.03 4.03 0 0 1-1.45-.99c-.41-.43-.73-.97-.95-1.61-.22-.64-.34-1.37-.34-2.2 0-.67.1-1.3.31-1.88.21-.58.5-1.09.89-1.51.39-.43.86-.76 1.42-1.01.56-.24 1.18-.37 1.88-.37l-.02.01Zm.04 1.24c-.82 0-1.46.24-1.93.71s-.76 1.13-.87 1.96h5.23c0-.39-.05-.75-.16-1.08-.11-.33-.27-.61-.48-.85-.21-.24-.46-.42-.76-.55-.3-.13-.64-.2-1.03-.2v.01Z"/><path fill="#2E3632" d="M186.32 34.84v-9.62h1.01c.24 0 .39.12.46.35l.13 1.05c.42-.46.89-.84 1.4-1.12.52-.29 1.11-.43 1.79-.43.53 0 .99.09 1.39.26.4.17.74.42 1.01.74s.47.71.61 1.15c.14.45.21.95.21 1.49v6.13h-1.69v-6.13c0-.73-.17-1.29-.5-1.7-.33-.41-.84-.6-1.52-.6-.5 0-.97.12-1.4.36-.43.24-.83.57-1.2.98v7.09h-1.7Z"/><path fill="#2E3632" d="M199.8 35c-.76 0-1.34-.21-1.75-.64-.41-.42-.61-1.04-.61-1.83v-5.89h-1.16c-.1 0-.19-.03-.26-.09s-.1-.15-.1-.28v-.67l1.58-.2.39-2.97c.01-.1.05-.17.12-.23a.4.4 0 0 1 .27-.09h.85v3.32h2.75v1.23h-2.75v5.78c0 .41.1.71.29.9.19.19.45.29.76.29.18 0 .33-.02.46-.07.209-.076.404-.184.58-.32.07-.05.12-.07.18-.07.09 0 .17.05.24.16l.49.81c-.29.27-.64.49-1.05.64-.41.16-.84.23-1.27.23l-.01-.01Z"/><path fill="#2E3632" d="M203.97 34.84v-9.62h.97c.18 0 .31.03.38.1s.12.19.14.36l.11 1.5c.33-.67.74-1.2 1.22-1.57.48-.38 1.05-.57 1.71-.57.27 0 .51.03.72.09.21.06.41.14.6.25l-.22 1.26c-.04.16-.14.24-.29.24-.09 0-.23-.03-.41-.09-.18-.06-.44-.09-.77-.09-.59 0-1.08.17-1.48.51-.4.34-.73.84-.99 1.49v6.13h-1.69v.01Z"/><path fill="#2E3632" d="M215.44 25.07c.58 0 1.11.1 1.6.29.49.19.91.47 1.26.84.35.36.63.81.83 1.35.2.54.3 1.14.3 1.83 0 .27-.03.44-.09.53-.06.09-.17.13-.32.13h-6.4c.01.61.1 1.14.25 1.59.15.45.36.83.63 1.13.27.3.58.53.95.67.37.15.78.22 1.23.22.42 0 .79-.05 1.1-.15.31-.1.57-.2.79-.32.22-.11.41-.22.56-.32.15-.1.28-.15.38-.15.14 0 .25.05.32.16l.48.62c-.21.25-.46.47-.75.66-.29.19-.6.34-.94.46a6.29 6.29 0 0 1-2.08.36c-.67 0-1.28-.11-1.84-.34a4.03 4.03 0 0 1-1.45-.99c-.41-.43-.73-.97-.95-1.61-.22-.64-.34-1.37-.34-2.2 0-.67.1-1.3.31-1.88.21-.58.5-1.09.89-1.51.39-.43.86-.76 1.42-1.01.56-.24 1.18-.37 1.88-.37l-.02.01Zm.04 1.24c-.82 0-1.46.24-1.93.71s-.76 1.13-.87 1.96h5.23c0-.39-.05-.75-.16-1.08-.11-.33-.27-.61-.48-.85-.21-.24-.46-.42-.76-.55-.3-.13-.64-.2-1.03-.2v.01Z"/><path fill="#2E3632" d="M225.63 34.84v-8.18l-1.06-.12a.837.837 0 0 1-.33-.15c-.09-.07-.13-.16-.13-.29v-.69h1.52v-.93c0-.55.08-1.04.23-1.47.16-.43.38-.79.67-1.08.29-.29.64-.52 1.04-.67.4-.15.86-.23 1.37-.23.43 0 .83.06 1.2.19l-.04.85c0 .13-.06.2-.16.23s-.24.04-.43.04h-.29c-.29 0-.56.04-.79.11-.24.08-.44.2-.61.37-.17.17-.3.4-.39.67-.09.27-.14.62-.14 1.04v.88h2.78v1.23h-2.73v8.21h-1.7l-.01-.01Z"/><path fill="#2E3632" d="M235.55 25.07c.7 0 1.34.12 1.9.35.56.23 1.05.57 1.44 1 .4.43.7.95.91 1.56.21.61.32 1.29.32 2.05 0 .76-.11 1.44-.32 2.05a4.457 4.457 0 0 1-.91 1.56c-.4.43-.88.76-1.44.99-.56.23-1.2.35-1.9.35s-1.34-.12-1.9-.35c-.57-.23-1.05-.56-1.45-.99-.4-.43-.71-.95-.92-1.56-.22-.61-.32-1.29-.32-2.05 0-.76.11-1.44.32-2.05.22-.61.52-1.13.92-1.56.4-.43.88-.76 1.45-1 .57-.23 1.2-.35 1.9-.35Zm0 8.59c.95 0 1.66-.32 2.13-.96.47-.64.7-1.52.7-2.66 0-1.14-.23-2.04-.7-2.68-.47-.64-1.18-.96-2.13-.96-.48 0-.9.08-1.25.25-.35.16-.65.4-.89.71-.24.31-.41.69-.53 1.15-.12.45-.18.96-.18 1.53 0 .57.06 1.08.18 1.53.12.45.29.83.53 1.13.24.31.53.54.89.71.35.17.77.25 1.25.25Z"/><path fill="#2E3632" d="M242.22 34.84v-9.62h.97c.18 0 .31.03.38.1s.12.19.14.36l.11 1.5c.33-.67.74-1.2 1.22-1.57.48-.38 1.05-.57 1.71-.57.27 0 .51.03.72.09.21.06.41.14.6.25l-.22 1.26c-.04.16-.14.24-.29.24-.09 0-.23-.03-.41-.09-.18-.06-.44-.09-.77-.09-.59 0-1.08.17-1.48.51-.4.34-.73.84-.99 1.49v6.13h-1.69v.01Z"/><path fill="#2E3632" d="M262.2 21.23v1.5h-6.54v4.52h5.29v1.44h-5.29v4.65h6.54v1.5h-8.39V21.23h8.39Z"/><path fill="#2E3632" d="M264.58 34.84v-9.62h1.01c.24 0 .39.12.46.35l.13 1.05c.42-.46.89-.84 1.4-1.12.52-.29 1.11-.43 1.79-.43.53 0 .99.09 1.39.26.4.17.74.42 1.01.74s.47.71.61 1.15c.14.45.21.95.21 1.49v6.13h-1.69v-6.13c0-.73-.17-1.29-.5-1.7-.33-.4-.84-.6-1.52-.6-.5 0-.97.12-1.4.36-.43.24-.83.57-1.2.98v7.09h-1.7Z"/><path fill="#2E3632" d="M273.63 25.22h1.39c.13 0 .24.03.33.1.09.07.15.15.19.25l2.44 6.19c.09.23.16.46.21.68.05.23.1.45.14.67.05-.22.1-.45.16-.67.06-.23.13-.46.22-.68l2.47-6.19c.04-.1.1-.18.19-.25.08-.07.19-.1.32-.1h1.32l-3.92 9.62h-1.53l-3.92-9.62h-.01Z"/><path fill="#2E3632" d="M286.83 22.2c0 .17-.03.32-.1.46s-.16.27-.27.38a1.227 1.227 0 0 1-.85.36c-.17 0-.32-.03-.46-.1-.14-.06-.27-.15-.38-.26a1.224 1.224 0 0 1-.36-.84c0-.16.03-.32.1-.47.122-.291.351-.524.64-.65.14-.06.3-.09.46-.09.16 0 .32.03.47.09.15.06.27.15.38.26.11.11.2.24.27.39.07.15.1.31.1.47Zm-.38 3.02v9.62h-1.69v-9.62h1.69Z"/><path fill="#2E3632" d="M289.43 34.84v-9.62h.97c.18 0 .31.03.38.1s.12.19.14.36l.11 1.5c.33-.67.74-1.2 1.22-1.57.48-.38 1.05-.57 1.71-.57.27 0 .51.03.72.09.22.06.42.14.6.25l-.22 1.26c-.04.16-.14.24-.29.24-.09 0-.23-.03-.41-.09-.18-.06-.44-.09-.77-.09-.59 0-1.08.17-1.48.51-.4.34-.73.84-.99 1.49v6.13h-1.69v.01Z"/><path fill="#2E3632" d="M300.99 25.07c.7 0 1.34.12 1.9.35.57.23 1.05.57 1.44 1 .39.43.7.95.91 1.56.21.61.32 1.29.32 2.05 0 .76-.11 1.44-.32 2.05a4.46 4.46 0 0 1-.91 1.56c-.39.43-.88.76-1.44.99-.57.23-1.2.35-1.9.35s-1.34-.12-1.9-.35c-.57-.23-1.05-.56-1.45-.99-.4-.43-.71-.95-.92-1.56-.21-.61-.32-1.29-.32-2.05 0-.76.11-1.44.32-2.05.22-.61.52-1.13.92-1.56.4-.43.88-.76 1.45-1 .57-.23 1.2-.35 1.9-.35Zm0 8.59c.95 0 1.66-.32 2.13-.96.47-.64.7-1.52.7-2.66 0-1.14-.23-2.04-.7-2.68-.47-.64-1.18-.96-2.13-.96-.48 0-.9.08-1.25.25-.35.16-.65.4-.89.71-.24.31-.41.69-.53 1.15-.12.45-.18.96-.18 1.53 0 .57.06 1.08.18 1.53.12.45.29.83.53 1.13.24.31.53.54.89.71.35.17.77.25 1.25.25Z"/><path fill="#2E3632" d="M307.66 34.84v-9.62h1.01c.24 0 .39.12.46.35l.13 1.05c.42-.46.89-.84 1.4-1.12.52-.29 1.11-.43 1.79-.43.53 0 .99.09 1.39.26.4.17.74.42 1.01.74s.47.71.61 1.15c.14.45.21.95.21 1.49v6.13h-1.69v-6.13c0-.73-.17-1.29-.5-1.7-.33-.4-.84-.6-1.52-.6-.5 0-.97.12-1.4.36-.43.24-.83.57-1.2.98v7.09h-1.7Z"/><path fill="#2E3632" d="M318.22 34.84v-9.62h1.01c.24 0 .39.12.46.35l.12.99c.35-.44.75-.79 1.19-1.07.44-.28.95-.42 1.53-.42.65 0 1.18.18 1.58.54.4.36.69.85.87 1.46.13-.35.31-.65.53-.9.22-.25.46-.46.74-.63.27-.16.56-.29.87-.36.31-.08.62-.11.94-.11.51 0 .96.08 1.35.24.39.16.73.4 1.01.71.28.31.49.69.63 1.14.14.45.22.97.22 1.55v6.13h-1.69v-6.13c0-.75-.16-1.33-.49-1.71-.33-.39-.81-.58-1.43-.58-.28 0-.54.05-.79.15-.25.1-.47.24-.66.43-.19.19-.34.43-.45.72-.11.29-.17.62-.17 1v6.13h-1.69v-6.13c0-.77-.16-1.35-.46-1.73-.31-.38-.76-.57-1.36-.57-.42 0-.81.11-1.16.34-.36.22-.69.53-.98.92v7.17h-1.69l-.03-.01Z"/><path fill="#2E3632" d="M337.63 25.07c.58 0 1.11.1 1.6.29.49.19.91.47 1.26.84s.63.81.83 1.35c.2.54.3 1.14.3 1.83 0 .27-.03.44-.09.53-.06.09-.17.13-.32.13h-6.4c.01.61.09 1.14.25 1.59.15.45.36.83.63 1.13.27.3.58.53.95.67.37.15.78.22 1.23.22.42 0 .79-.05 1.1-.15.31-.1.57-.2.79-.32.22-.11.41-.22.56-.32.15-.1.28-.15.38-.15.14 0 .25.05.32.16l.47.62c-.21.25-.46.47-.75.66-.29.19-.6.34-.94.46a6.29 6.29 0 0 1-2.08.36c-.67 0-1.28-.11-1.84-.34a4.03 4.03 0 0 1-1.45-.99c-.41-.43-.73-.97-.95-1.61-.23-.64-.34-1.37-.34-2.2 0-.67.1-1.3.31-1.88.21-.58.5-1.09.89-1.51.39-.43.86-.76 1.42-1.01.56-.24 1.18-.37 1.88-.37l-.01.01Zm.04 1.24c-.82 0-1.46.24-1.93.71s-.76 1.13-.87 1.96h5.23c0-.39-.05-.75-.16-1.08-.11-.33-.27-.61-.48-.85-.21-.24-.46-.42-.76-.55-.3-.13-.64-.2-1.03-.2v.01Z"/><path fill="#2E3632" d="M343.77 34.84v-9.62h1.01c.24 0 .39.12.46.35l.13 1.05c.42-.46.88-.84 1.4-1.12.52-.29 1.11-.43 1.79-.43.53 0 .99.09 1.39.26.4.17.74.42 1.01.74s.47.71.61 1.15c.14.45.21.95.21 1.49v6.13h-1.69v-6.13c0-.73-.17-1.29-.5-1.7-.33-.4-.84-.6-1.52-.6-.5 0-.97.12-1.4.36-.43.24-.83.57-1.2.98v7.09h-1.7Z"/><path fill="#2E3632" d="M357.25 35c-.76 0-1.34-.21-1.75-.64-.41-.42-.61-1.04-.61-1.83v-5.89h-1.16c-.1 0-.19-.03-.26-.09s-.1-.15-.1-.28v-.67l1.58-.2.39-2.97c.01-.1.05-.17.12-.23a.4.4 0 0 1 .27-.09h.86v3.32h2.75v1.23h-2.75v5.78c0 .41.1.71.29.9.19.19.45.29.76.29.18 0 .33-.02.46-.07.209-.076.404-.184.58-.32.07-.05.12-.07.18-.07.09 0 .17.05.24.16l.49.81c-.29.27-.64.49-1.05.64-.41.15-.84.23-1.27.23l-.02-.01Z"/><path fill="#2E3632" d="M368.49 34.84h-.75c-.17 0-.3-.03-.4-.08-.1-.05-.17-.16-.2-.32l-.19-.89c-.25.23-.5.43-.74.61s-.49.33-.76.46c-.27.12-.55.22-.85.28-.3.06-.63.1-1 .1s-.72-.05-1.05-.16c-.33-.11-.61-.26-.85-.47-.24-.21-.43-.47-.57-.8-.14-.32-.21-.7-.21-1.14 0-.38.1-.75.31-1.1.21-.35.55-.67 1.01-.94.46-.27 1.08-.5 1.83-.67.75-.17 1.68-.26 2.76-.26v-.75c0-.75-.16-1.32-.48-1.71-.32-.39-.79-.58-1.42-.58-.41 0-.76.05-1.04.16-.28.1-.53.22-.73.35-.21.13-.38.25-.53.35-.15.1-.3.16-.44.16a.53.53 0 0 1-.3-.09.6.6 0 0 1-.2-.22l-.3-.54c.53-.51 1.11-.9 1.72-1.15.61-.25 1.29-.38 2.04-.38.54 0 1.02.09 1.43.27.42.18.77.42 1.05.74.29.32.5.7.65 1.15.15.45.22.94.22 1.48v6.16l-.01-.02Zm-4.39-1.04c.3 0 .57-.03.82-.09s.48-.15.7-.26c.22-.11.43-.25.63-.4.2-.15.39-.34.58-.54v-1.99c-.78 0-1.44.05-1.99.15-.55.1-.99.23-1.33.39-.34.16-.59.35-.75.56-.16.22-.23.46-.23.73 0 .27.04.47.12.66.08.18.19.34.33.45.14.12.3.2.49.26.19.05.4.08.62.08h.01Z"/><path fill="#2E3632" d="M372.94 20.85v13.99h-1.69V20.85h1.69Z"/><path fill="#2E3632" d="M381.7 33.3h5.89v1.55h-7.73V21.24h1.84V33.3Z"/><path fill="#2E3632" d="M396.42 34.84h-.75c-.16 0-.3-.03-.4-.08-.1-.05-.17-.16-.2-.32l-.19-.89c-.25.23-.5.43-.74.61s-.49.33-.76.46c-.27.12-.55.22-.85.28-.3.06-.63.1-1 .1s-.72-.05-1.05-.16c-.33-.11-.61-.26-.85-.47-.24-.21-.43-.47-.57-.8-.14-.32-.21-.7-.21-1.14 0-.38.1-.75.31-1.1.21-.35.55-.67 1.01-.94.46-.27 1.08-.5 1.83-.67.75-.17 1.67-.26 2.76-.26v-.75c0-.75-.16-1.32-.48-1.71-.32-.39-.79-.58-1.42-.58-.41 0-.76.05-1.04.16-.28.1-.53.22-.73.35-.21.13-.38.25-.53.35-.15.1-.3.16-.44.16a.53.53 0 0 1-.3-.09.695.695 0 0 1-.2-.22l-.3-.54c.53-.51 1.1-.9 1.72-1.15.61-.25 1.3-.38 2.04-.38.54 0 1.02.09 1.43.27.42.18.77.42 1.05.74.29.32.5.7.65 1.15.15.45.22.94.22 1.48v6.16l-.01-.02Zm-4.39-1.04c.3 0 .57-.03.82-.09s.48-.15.7-.26c.22-.11.43-.25.63-.4.2-.16.39-.34.58-.54v-1.99c-.78 0-1.44.05-1.99.15-.54.1-.99.23-1.33.39-.34.16-.59.35-.75.56-.16.22-.23.46-.23.73 0 .27.04.47.12.66.08.18.19.34.33.45.14.12.3.2.49.26.19.05.4.08.62.08h.01Z"/><path fill="#2E3632" d="M397.58 25.22h1.33c.14 0 .25.03.34.1.09.07.15.15.18.25l1.84 6.19c.05.23.1.45.14.66.04.21.08.43.11.64.05-.22.11-.43.17-.64.06-.21.13-.43.2-.66l2.03-6.23c.03-.1.09-.17.17-.24.08-.06.18-.09.3-.09h.73a.46.46 0 0 1 .48.33l1.99 6.23c.07.22.13.44.19.66.05.22.11.43.16.64.03-.21.07-.43.12-.66.05-.23.1-.44.16-.64l1.88-6.19c.03-.1.09-.18.18-.25s.19-.1.31-.1h1.27l-3.12 9.62h-1.34c-.16 0-.28-.11-.34-.32l-2.13-6.53c-.05-.15-.09-.29-.12-.44-.03-.15-.06-.3-.1-.44-.03.15-.06.29-.09.45-.03.15-.07.3-.12.45l-2.16 6.52c-.07.22-.2.32-.39.32h-1.27l-3.12-9.62.02-.01Z"/><path fill="#2E3632" d="M170.42 57.64h-.75c-.17 0-.3-.03-.4-.08-.1-.05-.17-.16-.2-.32l-.19-.89c-.25.23-.5.43-.74.61s-.49.33-.76.46c-.27.12-.55.22-.85.28-.3.06-.64.1-1 .1s-.72-.05-1.05-.16c-.33-.11-.61-.26-.85-.47-.24-.21-.43-.47-.57-.8-.14-.32-.21-.7-.21-1.14 0-.38.1-.75.31-1.1.21-.35.55-.67 1.01-.94.46-.27 1.08-.5 1.83-.67.75-.17 1.68-.26 2.76-.26v-.75c0-.75-.16-1.32-.48-1.71-.32-.39-.79-.58-1.42-.58-.41 0-.76.05-1.04.16s-.53.22-.73.35c-.21.13-.38.25-.53.35-.15.1-.3.16-.44.16a.53.53 0 0 1-.3-.09.6.6 0 0 1-.2-.22l-.3-.54c.53-.51 1.11-.9 1.72-1.15.61-.25 1.29-.38 2.04-.38.54 0 1.02.09 1.43.27.42.18.77.42 1.05.74.29.32.5.7.65 1.15.15.45.22.94.22 1.48v6.16l-.01-.02Zm-4.39-1.04c.3 0 .57-.03.82-.09s.48-.15.7-.26c.22-.11.43-.25.63-.4.2-.16.39-.34.58-.54v-1.99c-.78 0-1.44.05-1.99.15-.54.1-.99.23-1.33.39-.34.16-.59.35-.75.56-.16.22-.23.46-.23.73 0 .27.04.47.12.66.08.18.19.34.33.45.14.12.3.2.49.26.19.05.4.08.62.08h.01Z"/><path fill="#2E3632" d="M172.98 57.64v-9.62h1.01c.24 0 .39.12.46.35l.13 1.05c.42-.46.89-.84 1.4-1.12.52-.29 1.11-.43 1.79-.43.53 0 .99.09 1.39.26.4.17.74.42 1.01.74s.47.71.61 1.15c.14.45.21.95.21 1.49v6.13h-1.69v-6.13c0-.73-.17-1.29-.5-1.7-.33-.41-.84-.6-1.52-.6-.5 0-.97.12-1.4.36-.43.24-.83.57-1.2.98v7.09h-1.7Z"/><path fill="#2E3632" d="M190.32 57.64c-.24 0-.39-.12-.46-.35l-.15-1.17c-.41.5-.88.9-1.41 1.2-.53.3-1.14.45-1.82.45-.55 0-1.05-.11-1.5-.32-.45-.21-.83-.52-1.15-.94-.32-.41-.56-.92-.73-1.54-.17-.62-.26-1.32-.26-2.12 0-.71.09-1.37.29-1.98.19-.61.46-1.14.82-1.59.36-.45.79-.8 1.31-1.06.51-.26 1.1-.38 1.75-.38.59 0 1.09.1 1.51.3.42.2.79.48 1.12.84v-5.34h1.69v13.99h-1.01v.01Zm-3.28-1.24c.55 0 1.03-.13 1.45-.38.42-.25.8-.61 1.15-1.07v-4.66c-.31-.42-.65-.71-1.02-.88a2.912 2.912 0 0 0-1.23-.25c-.9 0-1.59.32-2.07.96-.48.64-.72 1.55-.72 2.74 0 .63.05 1.16.16 1.61.11.45.27.81.48 1.1.21.29.47.5.77.63.3.13.65.2 1.04.2h-.01Z"/><path fill="#2E3632" d="M204.17 56.3c.37 0 .7-.02 1.01-.05.31-.03.6-.09.87-.16s.53-.15.77-.25.48-.21.72-.34v-3h-2.11c-.12 0-.22-.03-.29-.1a.36.36 0 0 1-.11-.26V51.1h4.18v5.23c-.34.25-.7.46-1.07.65-.37.19-.77.34-1.19.46-.42.12-.87.22-1.35.28-.48.06-1 .09-1.57.09-.99 0-1.89-.17-2.72-.51-.83-.34-1.53-.81-2.13-1.42-.6-.61-1.06-1.34-1.39-2.2-.33-.86-.5-1.8-.5-2.82 0-1.02.16-1.99.49-2.84.33-.85.79-1.59 1.4-2.2.61-.61 1.34-1.08 2.19-1.42.86-.34 1.82-.5 2.88-.5.54 0 1.04.04 1.5.12.46.08.89.19 1.29.34.4.15.76.33 1.1.54.34.21.65.45.94.72l-.52.84c-.11.17-.25.26-.42.26-.1 0-.21-.04-.33-.1-.16-.09-.34-.2-.53-.32s-.44-.25-.72-.37c-.28-.12-.61-.22-1-.3-.38-.08-.84-.12-1.36-.12-.77 0-1.46.13-2.08.38-.62.25-1.15.61-1.59 1.07-.44.46-.77 1.03-1.01 1.69-.23.66-.35 1.4-.35 2.23 0 .83.12 1.63.37 2.3.24.67.59 1.25 1.03 1.71.44.46.97.83 1.58 1.07.61.24 1.28.37 2.01.37l.01-.03Z"/><path fill="#2E3632" d="M213.66 43.65v13.99h-1.69V43.65h1.69Z"/><path fill="#2E3632" d="M220.54 47.87c.7 0 1.34.12 1.9.35.56.23 1.05.57 1.44 1 .4.43.7.95.91 1.56.21.61.32 1.29.32 2.05 0 .76-.11 1.44-.32 2.05a4.457 4.457 0 0 1-.91 1.56c-.4.43-.88.76-1.44.99-.56.23-1.2.35-1.9.35s-1.34-.12-1.9-.35c-.57-.23-1.05-.56-1.45-.99-.4-.43-.71-.95-.92-1.56-.22-.61-.32-1.29-.32-2.05 0-.76.11-1.44.32-2.05.22-.61.52-1.13.92-1.56.4-.43.88-.76 1.45-1 .57-.23 1.2-.35 1.9-.35Zm0 8.59c.95 0 1.66-.32 2.13-.96.47-.64.7-1.52.7-2.66 0-1.14-.23-2.04-.7-2.68-.47-.64-1.18-.96-2.13-.96-.48 0-.9.08-1.25.25-.35.16-.65.4-.89.71-.24.31-.41.69-.53 1.15-.12.45-.18.96-.18 1.53 0 .57.06 1.08.18 1.53.12.45.29.83.53 1.13.24.31.53.54.89.71.35.17.77.25 1.25.25Z"/><path fill="#2E3632" d="M227.27 57.64V43.65h1.7v5.76c.4-.46.86-.83 1.37-1.12.52-.28 1.11-.42 1.77-.42.56 0 1.06.1 1.51.31.45.21.83.52 1.15.94.32.42.56.93.73 1.54.17.61.26 1.32.26 2.11 0 .71-.1 1.37-.29 1.98-.19.61-.46 1.14-.82 1.59-.36.45-.79.8-1.31 1.05-.52.26-1.1.38-1.74.38-.64 0-1.15-.12-1.58-.36-.43-.24-.81-.58-1.14-1.01l-.09.87c-.05.24-.2.36-.44.36h-1.09l.01.01Zm4.29-8.43c-.55 0-1.03.13-1.45.38-.41.25-.8.61-1.14 1.07v4.65c.3.42.64.71 1.01.88.37.17.78.26 1.24.26.9 0 1.59-.32 2.07-.96.48-.64.72-1.55.72-2.74 0-.63-.06-1.17-.17-1.62-.11-.45-.27-.82-.48-1.11-.21-.29-.47-.5-.77-.63-.3-.13-.65-.2-1.04-.2l.01.02Z"/><path fill="#2E3632" d="M244.9 57.64h-.75c-.17 0-.3-.03-.4-.08-.1-.05-.17-.16-.2-.32l-.19-.89c-.25.23-.5.43-.74.61s-.49.33-.76.46c-.27.12-.55.22-.85.28-.3.06-.64.1-1 .1s-.72-.05-1.05-.16c-.33-.11-.61-.26-.85-.47-.24-.21-.43-.47-.57-.8-.14-.32-.21-.7-.21-1.14 0-.38.1-.75.31-1.1.21-.35.55-.67 1.01-.94.46-.27 1.08-.5 1.83-.67.75-.17 1.68-.26 2.76-.26v-.75c0-.75-.16-1.32-.48-1.71-.32-.39-.79-.58-1.42-.58-.41 0-.76.05-1.04.16s-.53.22-.73.35c-.21.13-.38.25-.53.35-.15.1-.3.16-.44.16a.53.53 0 0 1-.3-.09.6.6 0 0 1-.2-.22l-.3-.54c.53-.51 1.11-.9 1.72-1.15.61-.25 1.29-.38 2.04-.38.54 0 1.02.09 1.43.27.42.18.77.42 1.05.74.29.32.5.7.65 1.15.15.45.22.94.22 1.48v6.16l-.01-.02Zm-4.39-1.04c.3 0 .57-.03.82-.09s.48-.15.7-.26c.22-.11.43-.25.63-.4.2-.16.39-.34.58-.54v-1.99c-.78 0-1.44.05-1.99.15-.54.1-.99.23-1.33.39-.34.16-.59.35-.75.56-.16.22-.23.46-.23.73 0 .27.04.47.12.66.08.18.19.34.33.45.14.12.3.2.49.26.19.05.4.08.62.08h.01Z"/><path fill="#2E3632" d="M249.34 43.65v13.99h-1.69V43.65h1.69Z"/><path fill="#2E3632" d="M263.23 46.16c-.06.09-.12.17-.18.21a.39.39 0 0 1-.25.07c-.11 0-.23-.05-.38-.16-.14-.11-.32-.23-.54-.36-.22-.13-.48-.25-.79-.36-.31-.11-.68-.16-1.12-.16-.41 0-.78.06-1.09.17-.32.11-.58.26-.79.45-.21.19-.37.41-.48.67-.11.26-.16.53-.16.83 0 .38.09.69.28.95.19.25.43.46.74.64s.66.33 1.04.46c.39.13.79.26 1.2.4.41.14.81.3 1.2.47.39.17.74.39 1.04.66.31.27.55.59.74.98.19.39.28.86.28 1.42 0 .6-.1 1.15-.3 1.68-.2.52-.5.98-.89 1.36-.39.39-.87.69-1.43.91-.56.22-1.21.33-1.93.33-.88 0-1.68-.16-2.41-.48a5.717 5.717 0 0 1-1.86-1.3l.53-.87c.05-.07.11-.13.19-.18.07-.05.15-.07.24-.07.13 0 .29.07.46.21.17.14.38.3.64.47.26.17.57.33.93.47.36.14.81.21 1.33.21.44 0 .83-.06 1.17-.18.34-.12.63-.29.87-.51.24-.22.42-.48.55-.78.13-.3.19-.64.19-1.02 0-.41-.09-.75-.28-1.01-.19-.26-.43-.48-.74-.66-.3-.18-.65-.33-1.04-.45s-.79-.25-1.2-.38c-.41-.13-.81-.28-1.2-.45-.39-.17-.74-.39-1.04-.67-.3-.27-.55-.61-.74-1.02-.19-.41-.28-.91-.28-1.52 0-.48.09-.95.28-1.4.19-.45.46-.85.81-1.2.35-.35.79-.63 1.32-.84.53-.21 1.12-.31 1.8-.31.76 0 1.45.12 2.08.36.63.24 1.17.59 1.64 1.04l-.45.87.02.05Z"/><path fill="#2E3632" d="M267.53 48.02v6.14c0 .73.17 1.29.5 1.69.33.4.84.6 1.52.6.49 0 .96-.12 1.4-.35.44-.23.84-.56 1.21-.98v-7.1h1.69v9.62h-1.01c-.24 0-.39-.12-.46-.35l-.13-1.04c-.42.46-.89.83-1.41 1.12-.52.28-1.11.42-1.79.42-.53 0-.99-.09-1.39-.26-.4-.17-.74-.42-1.01-.74s-.48-.7-.61-1.15c-.14-.45-.2-.95-.2-1.49v-6.14h1.69v.01Z"/><path fill="#2E3632" d="M282.14 49.61c-.08.14-.19.21-.35.21a.649.649 0 0 1-.32-.1c-.12-.07-.27-.15-.44-.23-.17-.09-.38-.17-.62-.24a3.1 3.1 0 0 0-.86-.11c-.29 0-.54.04-.77.11-.23.07-.42.17-.58.3-.16.13-.29.27-.37.44-.08.17-.13.35-.13.55 0 .25.07.45.21.62.14.17.33.31.57.43.24.12.5.23.8.32.3.09.6.19.92.29.32.1.62.22.92.35.3.13.56.29.8.48.23.19.42.42.56.7.14.28.21.61.21.99 0 .44-.08.85-.24 1.23-.16.38-.39.7-.7.98-.31.28-.69.49-1.14.65-.45.16-.97.24-1.56.24-.67 0-1.28-.11-1.82-.33a4.77 4.77 0 0 1-1.39-.84l.4-.65a.555.555 0 0 1 .18-.19.55.55 0 0 1 .28-.07c.12 0 .23.04.36.13.13.09.28.19.46.29.18.11.4.21.66.29.26.09.58.13.96.13.33 0 .62-.04.86-.13.25-.08.45-.2.62-.35.16-.15.29-.31.37-.5.08-.19.12-.39.12-.61 0-.27-.07-.49-.21-.66-.14-.17-.33-.32-.57-.45-.23-.12-.5-.23-.8-.32-.3-.09-.61-.19-.92-.29-.31-.1-.62-.22-.92-.35-.3-.13-.57-.29-.8-.49-.23-.2-.42-.44-.57-.73-.15-.29-.21-.64-.21-1.05 0-.37.08-.72.23-1.06.15-.34.37-.64.66-.89.29-.26.65-.46 1.07-.61.42-.15.91-.23 1.45-.23.63 0 1.2.1 1.71.3.5.2.94.47 1.31.82l-.38.62-.02.01Z"/><path fill="#2E3632" d="M287.79 57.8c-.76 0-1.34-.21-1.75-.64-.41-.42-.61-1.04-.61-1.83v-5.89h-1.16c-.1 0-.19-.03-.26-.09s-.1-.15-.1-.28v-.67l1.58-.2.39-2.97c.01-.1.05-.17.12-.23a.4.4 0 0 1 .27-.09h.86v3.32h2.75v1.23h-2.75v5.78c0 .41.1.71.29.9.19.19.45.29.76.29.18 0 .33-.02.46-.07.209-.076.404-.184.58-.32.07-.05.12-.07.18-.07.09 0 .17.05.24.16l.49.81c-.29.27-.64.49-1.05.64-.41.15-.84.23-1.27.23l-.02-.01Z"/><path fill="#2E3632" d="M299.03 57.64h-.75c-.17 0-.3-.03-.4-.08-.1-.05-.17-.16-.2-.32l-.19-.89c-.25.23-.5.43-.74.61s-.49.33-.76.46c-.27.12-.55.22-.85.28-.3.06-.63.1-1 .1s-.72-.05-1.05-.16c-.33-.11-.61-.26-.85-.47-.24-.21-.43-.47-.57-.8-.14-.32-.21-.7-.21-1.14 0-.38.1-.75.31-1.1.21-.35.55-.67 1.01-.94.46-.27 1.08-.5 1.83-.67.75-.17 1.68-.26 2.76-.26v-.75c0-.75-.16-1.32-.48-1.71-.32-.39-.79-.58-1.42-.58-.41 0-.76.05-1.04.16-.28.1-.53.22-.73.35-.21.13-.38.25-.53.35-.15.1-.3.16-.44.16a.53.53 0 0 1-.3-.09.6.6 0 0 1-.2-.22l-.3-.54c.53-.51 1.11-.9 1.72-1.15.61-.25 1.29-.38 2.04-.38.54 0 1.02.09 1.43.27.42.18.77.42 1.05.74.29.32.5.7.65 1.15.15.45.22.94.22 1.48v6.16l-.01-.02Zm-4.39-1.04c.3 0 .57-.03.82-.09s.48-.15.7-.26c.22-.11.43-.25.63-.4.2-.15.39-.34.58-.54v-1.99c-.78 0-1.44.05-1.99.15-.55.1-.99.23-1.33.39-.34.16-.59.35-.75.56-.16.22-.23.46-.23.73 0 .27.04.47.12.66.08.18.19.34.33.45.14.12.3.2.49.26.19.05.4.08.62.08h.01Z"/><path fill="#2E3632" d="M303.85 45c0 .17-.03.32-.1.46s-.16.27-.27.38a1.227 1.227 0 0 1-.85.36c-.17 0-.32-.03-.46-.1-.14-.06-.27-.15-.38-.26a1.224 1.224 0 0 1-.36-.84c0-.16.03-.32.1-.47.122-.291.351-.524.64-.65.14-.06.3-.09.46-.09.16 0 .32.03.47.09.15.06.27.15.38.26.11.11.2.24.27.39.07.15.1.31.1.47Zm-.38 3.02v9.62h-1.69v-9.62h1.69Z"/><path fill="#2E3632" d="M306.46 57.64v-9.62h1.01c.24 0 .39.12.46.35l.13 1.05c.42-.46.88-.84 1.4-1.12.52-.29 1.11-.43 1.79-.43.53 0 .99.09 1.39.26.4.17.74.42 1.01.74s.47.71.61 1.15c.14.45.21.95.21 1.49v6.13h-1.69v-6.13c0-.73-.17-1.29-.5-1.7-.33-.4-.84-.6-1.52-.6-.5 0-.97.12-1.4.36-.43.24-.83.57-1.2.98v7.09h-1.7Z"/><path fill="#2E3632" d="M324.09 57.64h-.75c-.17 0-.3-.03-.4-.08-.1-.05-.17-.16-.2-.32l-.19-.89c-.25.23-.5.43-.74.61s-.49.33-.76.46c-.27.12-.55.22-.85.28-.3.06-.63.1-1 .1s-.72-.05-1.05-.16c-.33-.11-.61-.26-.85-.47-.24-.21-.43-.47-.57-.8-.14-.32-.21-.7-.21-1.14 0-.38.1-.75.31-1.1.21-.35.55-.67 1.01-.94.46-.27 1.08-.5 1.83-.67.75-.17 1.68-.26 2.76-.26v-.75c0-.75-.16-1.32-.48-1.71-.32-.39-.79-.58-1.42-.58-.41 0-.76.05-1.04.16-.28.1-.53.22-.73.35-.21.13-.38.25-.53.35-.15.1-.3.16-.44.16a.53.53 0 0 1-.3-.09.6.6 0 0 1-.2-.22l-.3-.54c.53-.51 1.11-.9 1.72-1.15.61-.25 1.29-.38 2.04-.38.54 0 1.02.09 1.43.27.42.18.77.42 1.05.74.29.32.5.7.65 1.15.15.45.22.94.22 1.48v6.16l-.01-.02Zm-4.39-1.04c.3 0 .57-.03.82-.09s.48-.15.7-.26c.22-.11.43-.25.63-.4.2-.15.39-.34.58-.54v-1.99c-.78 0-1.44.05-1.99.15-.55.1-.99.23-1.33.39-.34.16-.59.35-.75.56-.16.22-.23.46-.23.73 0 .27.04.47.12.66.08.18.19.34.33.45.14.12.3.2.49.26.19.05.4.08.62.08h.01Z"/><path fill="#2E3632" d="M326.71 57.64V43.65h1.7v5.76c.4-.46.86-.83 1.37-1.12.52-.28 1.11-.42 1.77-.42.56 0 1.06.1 1.51.31.45.21.83.52 1.15.94.32.42.56.93.73 1.54.17.61.26 1.32.26 2.11 0 .71-.09 1.37-.29 1.98-.19.61-.46 1.14-.82 1.59-.36.45-.79.8-1.31 1.05-.52.26-1.1.38-1.74.38-.64 0-1.15-.12-1.58-.36-.43-.24-.81-.58-1.14-1.01l-.08.87c-.05.24-.2.36-.44.36h-1.09v.01Zm4.29-8.43c-.55 0-1.03.13-1.45.38-.42.25-.8.61-1.14 1.07v4.65c.3.42.64.71 1.01.88.37.17.78.26 1.24.26.9 0 1.59-.32 2.07-.96.48-.64.72-1.55.72-2.74 0-.63-.06-1.17-.17-1.62-.11-.45-.27-.82-.48-1.11-.21-.29-.47-.5-.77-.63-.3-.13-.65-.2-1.04-.2l.01.02Z"/><path fill="#2E3632" d="M339.53 45c0 .17-.03.32-.1.46s-.16.27-.27.38a1.225 1.225 0 0 1-.84.36c-.16 0-.32-.03-.46-.1-.14-.06-.27-.15-.38-.26-.11-.11-.2-.24-.26-.38s-.09-.3-.09-.46c0-.16.03-.32.09-.47.122-.291.351-.524.64-.65.14-.06.3-.09.46-.09.16 0 .32.03.46.09s.27.15.38.26c.11.11.2.24.27.39.07.15.1.31.1.47Zm-.38 3.02v9.62h-1.69v-9.62h1.69Z"/><path fill="#2E3632" d="M344.02 43.65v13.99h-1.69V43.65h1.69Z"/><path fill="#2E3632" d="M349.26 45c0 .17-.03.32-.1.46s-.16.27-.27.38a1.225 1.225 0 0 1-.84.36c-.16 0-.32-.03-.46-.1-.14-.06-.27-.15-.38-.26-.11-.11-.2-.24-.26-.38s-.09-.3-.09-.46c0-.16.03-.32.09-.47.122-.291.351-.524.64-.65.14-.06.3-.09.46-.09.16 0 .32.03.46.09s.27.15.38.26c.11.11.2.24.27.39.07.15.1.31.1.47Zm-.38 3.02v9.62h-1.69v-9.62h1.69Z"/><path fill="#2E3632" d="M354.78 57.8c-.76 0-1.34-.21-1.75-.64-.41-.42-.61-1.04-.61-1.83v-5.89h-1.16c-.1 0-.19-.03-.26-.09s-.1-.15-.1-.28v-.67l1.58-.2.39-2.97c.01-.1.05-.17.12-.23a.4.4 0 0 1 .27-.09h.86v3.32h2.75v1.23h-2.75v5.78c0 .41.1.71.29.9.19.19.45.29.76.29.18 0 .33-.02.46-.07.209-.076.404-.184.58-.32.07-.05.12-.07.18-.07.09 0 .17.05.24.16l.49.81c-.29.27-.64.49-1.05.64-.41.15-.84.23-1.27.23l-.02-.01Z"/><path fill="#2E3632" d="M361.77 60.49c-.06.13-.13.23-.21.3-.08.08-.22.11-.39.11h-1.25l1.76-3.82-3.97-9.06h1.46c.15 0 .26.04.34.11.08.07.14.15.18.24l2.57 6.06c.06.14.11.28.15.42.04.14.08.28.11.43.04-.15.09-.29.13-.43.04-.14.1-.28.15-.43l2.5-6.05c.04-.1.1-.18.2-.25s.19-.1.3-.1h1.35l-5.37 12.46-.01.01Z"/><path fill="#2E3632" d="M173.21 106.34c.1 0 .19.04.28.12l.72.79c-.56.65-1.23 1.15-2.03 1.51-.8.36-1.75.54-2.87.54-.98 0-1.87-.17-2.67-.51-.8-.34-1.48-.81-2.04-1.42-.56-.61-1-1.34-1.31-2.2a8.26 8.26 0 0 1-.47-2.82c0-1.02.17-1.97.5-2.82.33-.86.8-1.59 1.4-2.2a6.32 6.32 0 0 1 2.16-1.43c.84-.34 1.77-.51 2.78-.51 1.01 0 1.86.16 2.59.47.73.31 1.37.73 1.93 1.26l-.6.84c-.04.06-.1.12-.15.16a.48.48 0 0 1-.51-.03c-.09-.06-.2-.13-.33-.22s-.28-.18-.45-.29c-.17-.1-.37-.2-.61-.29-.23-.09-.51-.16-.82-.22a5.7 5.7 0 0 0-1.07-.09c-.73 0-1.4.13-2 .38-.6.25-1.13.61-1.56 1.07-.44.46-.78 1.03-1.02 1.69-.24.67-.37 1.41-.37 2.23 0 .82.12 1.61.37 2.27.24.67.58 1.23 1 1.69.42.46.92.81 1.5 1.05s1.2.36 1.86.36c.41 0 .77-.02 1.09-.07.32-.05.62-.12.9-.22s.53-.23.77-.38.48-.34.72-.56c.11-.09.21-.14.31-.14v-.01Z"/><path fill="#2E3632" d="M180.18 99.38c.58 0 1.11.1 1.6.29.49.19.91.47 1.26.84.35.36.63.81.83 1.35.2.54.3 1.14.3 1.83 0 .27-.03.44-.09.53-.06.09-.17.13-.32.13h-6.4c.01.61.1 1.14.25 1.59.15.45.36.83.63 1.13.27.3.58.53.95.67.37.15.78.22 1.23.22.42 0 .79-.05 1.1-.15.31-.1.57-.2.79-.32.22-.11.41-.22.56-.32.15-.1.28-.15.38-.15.14 0 .25.05.32.16l.48.62c-.21.25-.46.47-.75.66-.29.19-.6.34-.94.46a6.297 6.297 0 0 1-2.08.36c-.67 0-1.28-.11-1.84-.34a4.03 4.03 0 0 1-1.45-.99c-.41-.43-.73-.97-.95-1.61-.22-.64-.34-1.37-.34-2.2 0-.67.1-1.3.31-1.88.21-.58.5-1.09.89-1.51.39-.43.86-.76 1.42-1.01.56-.24 1.18-.37 1.88-.37l-.02.01Zm.04 1.24c-.82 0-1.46.24-1.93.71s-.76 1.13-.87 1.96h5.23c0-.39-.05-.75-.16-1.08-.11-.33-.27-.61-.48-.85-.21-.24-.46-.42-.76-.55-.3-.13-.64-.2-1.03-.2v.01Z"/><path fill="#2E3632" d="M186.32 109.15v-9.62h1.01c.24 0 .39.12.46.35l.13 1.05c.42-.46.89-.84 1.4-1.12.52-.29 1.11-.43 1.79-.43.53 0 .99.09 1.39.26.4.17.74.42 1.01.74s.47.71.61 1.15c.14.45.21.95.21 1.49v6.13h-1.69v-6.13c0-.73-.17-1.29-.5-1.7-.33-.41-.84-.6-1.52-.6-.5 0-.97.12-1.4.36-.43.24-.83.57-1.2.98v7.09h-1.7Z"/><path fill="#2E3632" d="M199.8 109.3c-.76 0-1.34-.21-1.75-.64-.41-.42-.61-1.04-.61-1.83v-5.89h-1.16c-.1 0-.19-.03-.26-.09s-.1-.15-.1-.28v-.67l1.58-.2.39-2.97c.01-.1.05-.17.12-.23a.4.4 0 0 1 .27-.09h.85v3.32h2.75v1.23h-2.75v5.78c0 .41.1.71.29.9.19.19.45.29.76.29.18 0 .33-.02.46-.07.209-.076.404-.184.58-.32.07-.05.12-.07.18-.07.09 0 .17.05.24.16l.49.81c-.29.27-.64.49-1.05.64-.41.16-.84.23-1.27.23l-.01-.01Z"/><path fill="#2E3632" d="M203.97 109.15v-9.62h.97c.18 0 .31.03.38.1s.12.19.14.36l.11 1.5c.33-.67.74-1.2 1.22-1.57.48-.38 1.05-.57 1.71-.57.27 0 .51.03.72.09.21.06.41.14.6.25l-.22 1.26c-.04.16-.14.24-.29.24-.09 0-.23-.03-.41-.09-.18-.06-.44-.09-.77-.09-.59 0-1.08.17-1.48.51-.4.34-.73.84-.99 1.49v6.13h-1.69v.01Z"/><path fill="#2E3632" d="M215.44 99.38c.58 0 1.11.1 1.6.29.49.19.91.47 1.26.84.35.36.63.81.83 1.35.2.54.3 1.14.3 1.83 0 .27-.03.44-.09.53-.06.09-.17.13-.32.13h-6.4c.01.61.1 1.14.25 1.59.15.45.36.83.63 1.13.27.3.58.53.95.67.37.15.78.22 1.23.22.42 0 .79-.05 1.1-.15.31-.1.57-.2.79-.32.22-.11.41-.22.56-.32.15-.1.28-.15.38-.15.14 0 .25.05.32.16l.48.62c-.21.25-.46.47-.75.66-.29.19-.6.34-.94.46a6.297 6.297 0 0 1-2.08.36c-.67 0-1.28-.11-1.84-.34a4.03 4.03 0 0 1-1.45-.99c-.41-.43-.73-.97-.95-1.61-.22-.64-.34-1.37-.34-2.2 0-.67.1-1.3.31-1.88.21-.58.5-1.09.89-1.51.39-.43.86-.76 1.42-1.01.56-.24 1.18-.37 1.88-.37l-.02.01Zm.04 1.24c-.82 0-1.46.24-1.93.71s-.76 1.13-.87 1.96h5.23c0-.39-.05-.75-.16-1.08-.11-.33-.27-.61-.48-.85-.21-.24-.46-.42-.76-.55-.3-.13-.64-.2-1.03-.2v.01Z"/><path fill="#2E3632" d="M232.03 109.15c-.24 0-.39-.12-.46-.35l-.15-1.17c-.41.5-.88.9-1.41 1.2-.53.3-1.14.45-1.82.45-.55 0-1.05-.11-1.5-.32-.45-.21-.83-.52-1.15-.94-.32-.41-.56-.92-.73-1.54-.17-.62-.26-1.32-.26-2.12 0-.71.09-1.37.29-1.98.19-.61.46-1.14.82-1.59.36-.45.79-.8 1.31-1.06.51-.26 1.1-.38 1.75-.38.59 0 1.09.1 1.51.3.42.2.79.48 1.12.84v-5.34h1.69v13.99h-1.01v.01Zm-3.28-1.24c.55 0 1.03-.13 1.45-.38.42-.25.8-.61 1.15-1.07v-4.66c-.31-.42-.65-.71-1.02-.88a2.91 2.91 0 0 0-1.23-.25c-.9 0-1.59.32-2.07.96-.48.64-.72 1.55-.72 2.74 0 .63.05 1.16.16 1.61.11.45.27.81.48 1.1.21.29.47.5.77.63.3.13.65.2 1.04.2h-.01Z"/><path fill="#2E3632" d="M237.34 99.53v6.14c0 .73.17 1.29.5 1.69.34.4.84.6 1.52.6.49 0 .96-.12 1.4-.35.44-.23.84-.56 1.21-.98v-7.1h1.69v9.62h-1.01c-.24 0-.39-.12-.46-.35l-.13-1.04c-.42.46-.89.83-1.41 1.12-.52.28-1.11.42-1.79.42-.53 0-.99-.09-1.39-.26-.4-.17-.74-.42-1.01-.74s-.48-.7-.61-1.15c-.14-.45-.2-.95-.2-1.49v-6.14h1.69v.01Z"/><path fill="#2E3632" d="M256.88 109.15c-.24 0-.39-.12-.46-.35l-.15-1.17c-.41.5-.88.9-1.41 1.2-.53.3-1.14.45-1.82.45-.55 0-1.05-.11-1.5-.32-.45-.21-.83-.52-1.15-.94-.32-.41-.56-.92-.73-1.54-.17-.62-.26-1.32-.26-2.12 0-.71.09-1.37.29-1.98.19-.61.46-1.14.82-1.59.36-.45.79-.8 1.31-1.06.51-.26 1.1-.38 1.75-.38.59 0 1.09.1 1.51.3.42.2.79.48 1.12.84v-5.34h1.69v13.99h-1.01v.01Zm-3.28-1.24c.55 0 1.03-.13 1.45-.38.42-.25.8-.61 1.15-1.07v-4.66c-.31-.42-.65-.71-1.02-.88a2.91 2.91 0 0 0-1.23-.25c-.9 0-1.59.32-2.07.96-.48.64-.72 1.55-.72 2.74 0 .63.05 1.16.16 1.61.11.45.27.81.48 1.1.21.29.47.5.77.63.3.13.65.2 1.04.2h-.01Z"/><path fill="#2E3632" d="M260.72 109.15v-9.62h.97c.18 0 .31.03.38.1s.12.19.14.36l.11 1.5c.33-.67.74-1.2 1.22-1.57.48-.38 1.05-.57 1.71-.57.27 0 .51.03.72.09.22.06.42.14.6.25l-.22 1.26c-.04.16-.14.24-.29.24-.09 0-.23-.03-.41-.09-.18-.06-.44-.09-.77-.09-.59 0-1.08.17-1.48.51-.4.34-.73.84-.99 1.49v6.13h-1.69v.01Z"/><path fill="#2E3632" d="M272.28 99.38c.7 0 1.34.12 1.9.35.57.23 1.05.57 1.44 1 .39.43.7.95.91 1.56.21.61.32 1.29.32 2.05 0 .76-.11 1.44-.32 2.05a4.46 4.46 0 0 1-.91 1.56c-.39.43-.88.76-1.44.99-.57.23-1.2.35-1.9.35s-1.34-.12-1.9-.35c-.57-.23-1.05-.56-1.45-.99-.4-.43-.71-.95-.92-1.56-.21-.61-.32-1.29-.32-2.05 0-.76.11-1.44.32-2.05.22-.61.52-1.13.92-1.56.4-.43.88-.76 1.45-1 .57-.23 1.2-.35 1.9-.35Zm0 8.59c.95 0 1.66-.32 2.13-.96.47-.64.7-1.52.7-2.66 0-1.14-.23-2.04-.7-2.68-.47-.64-1.18-.96-2.13-.96-.48 0-.9.08-1.25.25-.35.16-.65.4-.89.71-.24.31-.41.69-.53 1.15-.12.45-.18.96-.18 1.53 0 .57.06 1.08.18 1.53.12.45.29.83.53 1.13.24.31.53.54.89.71.35.17.77.25 1.25.25Z"/><path fill="#2E3632" d="M281.21 96.51c0 .17-.03.32-.1.46s-.16.27-.27.38a1.227 1.227 0 0 1-.85.36c-.17 0-.32-.03-.46-.1-.14-.06-.27-.15-.38-.26a1.224 1.224 0 0 1-.36-.84c0-.16.03-.32.1-.47.122-.291.351-.524.64-.65.14-.06.3-.09.46-.09.16 0 .32.03.47.09.15.06.27.15.38.26.11.11.2.24.27.39.07.15.1.31.1.47Zm-.38 3.02v9.62h-1.69v-9.62h1.69Z"/><path fill="#2E3632" d="M286.73 109.3c-.76 0-1.34-.21-1.75-.64-.41-.42-.61-1.04-.61-1.83v-5.89h-1.16c-.1 0-.19-.03-.26-.09s-.1-.15-.1-.28v-.67l1.58-.2.39-2.97c.01-.1.05-.17.12-.23a.4.4 0 0 1 .27-.09h.85v3.32h2.75v1.23h-2.75v5.78c0 .41.1.71.29.9.19.19.45.29.76.29.18 0 .33-.02.46-.07.209-.076.404-.184.58-.32.07-.05.12-.07.18-.07.09 0 .17.05.24.16l.49.81c-.29.27-.64.49-1.05.64-.41.16-.84.23-1.27.23l-.01-.01Z"/><path fill="#2E3632" d="M301.34 109.15c-.24 0-.39-.12-.46-.35l-.15-1.17c-.41.5-.88.9-1.41 1.2-.53.3-1.13.45-1.82.45-.55 0-1.05-.11-1.5-.32-.45-.21-.83-.52-1.15-.94-.32-.41-.56-.92-.73-1.54-.17-.62-.26-1.32-.26-2.12 0-.71.09-1.37.29-1.98.19-.61.46-1.14.82-1.59.36-.45.79-.8 1.31-1.06.51-.26 1.09-.38 1.75-.38.59 0 1.09.1 1.51.3.42.2.79.48 1.12.84v-5.34h1.69v13.99h-1.01v.01Zm-3.28-1.24c.55 0 1.03-.13 1.45-.38.42-.25.8-.61 1.14-1.07v-4.66c-.31-.42-.65-.71-1.02-.88a2.91 2.91 0 0 0-1.23-.25c-.9 0-1.59.32-2.07.96-.48.64-.72 1.55-.72 2.74 0 .63.05 1.16.16 1.61.11.45.27.81.47 1.1.2.29.47.5.77.63.3.13.65.2 1.04.2h.01Z"/><path fill="#2E3632" d="M308.99 99.38c.58 0 1.11.1 1.6.29.49.19.91.47 1.26.84s.63.81.83 1.35c.2.54.3 1.14.3 1.83 0 .27-.03.44-.09.53-.06.09-.17.13-.32.13h-6.4c.01.61.09 1.14.25 1.59.15.45.36.83.63 1.13.27.3.58.53.95.67.37.15.78.22 1.23.22.42 0 .79-.05 1.1-.15.31-.1.57-.2.79-.32.22-.11.41-.22.56-.32.15-.1.28-.15.38-.15.14 0 .25.05.32.16l.47.62c-.21.25-.46.47-.75.66-.29.19-.6.34-.94.46a6.297 6.297 0 0 1-2.08.36c-.67 0-1.28-.11-1.84-.34a4.03 4.03 0 0 1-1.45-.99c-.41-.43-.73-.97-.95-1.61-.23-.64-.34-1.37-.34-2.2 0-.67.1-1.3.31-1.88.21-.58.5-1.09.89-1.51.39-.43.86-.76 1.42-1.01.56-.24 1.18-.37 1.88-.37l-.01.01Zm.04 1.24c-.82 0-1.46.24-1.93.71s-.76 1.13-.87 1.96h5.23c0-.39-.05-.75-.16-1.08-.11-.33-.27-.61-.48-.85-.21-.24-.46-.42-.76-.55-.3-.13-.64-.2-1.03-.2v.01Z"/><path fill="#2E3632" d="M320.69 95.16v13.99H319V95.16h1.69Z"/><path fill="#2E3632" d="M325.2 95.54v2.75l-.15 1.47c-.02.2-.07.36-.16.47-.09.11-.23.17-.43.17-.16 0-.29-.06-.38-.17a.963.963 0 0 1-.19-.47l-.15-1.47v-2.75h1.47-.01Z"/><path fill="#2E3632" d="M330.98 99.38c.58 0 1.11.1 1.6.29.49.19.91.47 1.26.84s.63.81.83 1.35c.2.54.3 1.14.3 1.83 0 .27-.03.44-.09.53-.06.09-.17.13-.32.13h-6.4c.01.61.09 1.14.25 1.59.15.45.36.83.63 1.13.27.3.58.53.95.67.37.15.78.22 1.23.22.42 0 .79-.05 1.1-.15.31-.1.57-.2.79-.32.22-.11.41-.22.56-.32.15-.1.28-.15.38-.15.14 0 .25.05.32.16l.47.62c-.21.25-.46.47-.75.66-.29.19-.6.34-.94.46a6.297 6.297 0 0 1-2.08.36c-.67 0-1.28-.11-1.84-.34a4.03 4.03 0 0 1-1.45-.99c-.41-.43-.73-.97-.95-1.61-.23-.64-.34-1.37-.34-2.2 0-.67.1-1.3.31-1.88.21-.58.5-1.09.89-1.51.39-.43.86-.76 1.42-1.01.56-.24 1.18-.37 1.88-.37l-.01.01Zm.04 1.24c-.82 0-1.46.24-1.93.71s-.76 1.13-.87 1.96h5.23c0-.39-.05-.75-.16-1.08-.11-.33-.27-.61-.48-.85-.21-.24-.46-.42-.76-.55-.3-.13-.64-.2-1.03-.2v.01Z"/><path fill="#2E3632" d="M337.12 109.15v-9.62h1.01c.24 0 .39.12.46.35l.13 1.05c.42-.46.88-.84 1.4-1.12.52-.29 1.11-.43 1.79-.43.53 0 .99.09 1.39.26.4.17.74.42 1.01.74s.47.71.61 1.15c.14.45.21.95.21 1.49v6.13h-1.69v-6.13c0-.73-.17-1.29-.5-1.7-.33-.4-.84-.6-1.52-.6-.5 0-.97.12-1.4.36-.43.24-.83.57-1.2.98v7.09h-1.7Z"/><path fill="#2E3632" d="M346.17 99.53h1.39c.13 0 .24.03.33.1.09.07.15.15.19.25l2.44 6.19c.09.23.16.46.21.68.05.23.1.45.14.67.05-.22.1-.45.16-.67.06-.23.13-.46.22-.68l2.47-6.19c.04-.1.1-.18.18-.25.09-.07.19-.1.32-.1h1.32l-3.92 9.62h-1.53l-3.92-9.62Z"/><path fill="#2E3632" d="M359.37 96.51c0 .17-.03.32-.1.46s-.16.27-.27.38a1.225 1.225 0 0 1-.84.36c-.16 0-.32-.03-.46-.1-.14-.06-.27-.15-.38-.26-.11-.11-.2-.24-.26-.38s-.09-.3-.09-.46c0-.16.03-.32.09-.47.122-.291.351-.524.64-.65.14-.06.3-.09.46-.09.16 0 .32.03.46.09s.27.15.38.26c.11.11.2.24.27.39.07.15.1.31.1.47Zm-.38 3.02v9.62h-1.69v-9.62h1.69Z"/><path fill="#2E3632" d="M361.97 109.15v-9.62h.97c.18 0 .31.03.38.1s.12.19.14.36l.11 1.5c.33-.67.74-1.2 1.22-1.57a2.73 2.73 0 0 1 1.71-.57c.27 0 .51.03.72.09.21.06.41.14.6.25l-.22 1.26c-.04.16-.14.24-.29.24-.09 0-.22-.03-.41-.09-.18-.06-.44-.09-.77-.09-.59 0-1.08.17-1.48.51-.4.34-.73.84-.99 1.49v6.13h-1.69v.01Z"/><path fill="#2E3632" d="M373.53 99.38c.7 0 1.34.12 1.9.35.57.23 1.05.57 1.44 1 .39.43.7.95.91 1.56.21.61.32 1.29.32 2.05 0 .76-.11 1.44-.32 2.05a4.449 4.449 0 0 1-.91 1.56c-.4.43-.88.76-1.44.99-.57.23-1.2.35-1.9.35s-1.34-.12-1.91-.35c-.57-.23-1.05-.56-1.45-.99-.4-.43-.71-.95-.92-1.56-.22-.61-.32-1.29-.32-2.05 0-.76.11-1.44.32-2.05.21-.61.52-1.13.92-1.56.4-.43.88-.76 1.45-1s1.2-.35 1.91-.35Zm0 8.59c.95 0 1.66-.32 2.13-.96.47-.64.7-1.52.7-2.66 0-1.14-.24-2.04-.7-2.68-.47-.64-1.18-.96-2.13-.96-.48 0-.9.08-1.25.25-.35.16-.65.4-.89.71-.24.31-.42.69-.53 1.15-.12.45-.18.96-.18 1.53 0 .57.06 1.08.18 1.53.12.45.29.83.53 1.13.24.31.53.54.89.71.36.17.77.25 1.25.25Z"/><path fill="#2E3632" d="M380.19 109.15v-9.62h1.01c.24 0 .39.12.46.35l.13 1.05c.42-.46.88-.84 1.4-1.12.52-.29 1.11-.43 1.79-.43.53 0 .99.09 1.39.26.4.17.74.42 1.01.74s.47.71.61 1.15c.14.45.21.95.21 1.49v6.13h-1.69v-6.13c0-.73-.17-1.29-.5-1.7-.33-.4-.84-.6-1.53-.6-.5 0-.97.12-1.4.36-.43.24-.83.57-1.2.98v7.09h-1.69Z"/><path fill="#2E3632" d="M390.76 109.15v-9.62h1.01c.24 0 .39.12.46.35l.13 1.05c.42-.46.88-.84 1.4-1.12.52-.29 1.11-.43 1.79-.43.53 0 .99.09 1.39.26.4.17.74.42 1.01.74s.47.71.61 1.15c.14.45.21.95.21 1.49v6.13h-1.69v-6.13c0-.73-.17-1.29-.5-1.7-.33-.4-.84-.6-1.53-.6-.5 0-.97.12-1.4.36-.43.24-.83.57-1.2.98v7.09h-1.69Z"/><path fill="#2E3632" d="M405.13 99.38c.58 0 1.11.1 1.6.29.49.19.91.47 1.26.84s.63.81.83 1.35c.2.54.3 1.14.3 1.83 0 .27-.03.44-.09.53-.06.09-.16.13-.32.13h-6.4c.01.61.09 1.14.25 1.59.15.45.36.83.63 1.13.27.3.58.53.95.67.37.15.78.22 1.23.22.42 0 .79-.05 1.1-.15.31-.1.57-.2.79-.32.22-.11.41-.22.56-.32.15-.1.28-.15.38-.15.14 0 .25.05.32.16l.48.62c-.21.25-.46.47-.75.66-.29.19-.6.34-.94.46a6.297 6.297 0 0 1-2.08.36c-.66 0-1.28-.11-1.84-.34a4.03 4.03 0 0 1-1.45-.99c-.41-.43-.73-.97-.96-1.61-.23-.64-.34-1.37-.34-2.2 0-.67.1-1.3.31-1.88.21-.58.5-1.09.89-1.51.39-.43.86-.76 1.42-1.01.56-.24 1.18-.37 1.88-.37l-.01.01Zm.04 1.24c-.82 0-1.46.24-1.93.71s-.76 1.13-.87 1.96h5.23c0-.39-.05-.75-.16-1.08-.11-.33-.27-.61-.47-.85-.2-.24-.46-.42-.76-.55-.3-.13-.64-.2-1.03-.2l-.01.01Z"/><path fill="#2E3632" d="M411.28 109.15v-9.62h1.01c.24 0 .39.12.46.35l.12.99c.35-.44.75-.79 1.19-1.07.44-.28.95-.42 1.53-.42.65 0 1.18.18 1.58.54.4.36.69.85.87 1.46.13-.35.31-.65.53-.9.22-.25.46-.46.74-.63.27-.16.56-.29.87-.36.31-.08.62-.11.94-.11.51 0 .96.08 1.35.24.39.16.73.4 1.01.71.28.31.49.69.63 1.14.14.45.22.97.22 1.55v6.13h-1.69v-6.13c0-.75-.16-1.33-.49-1.71-.33-.39-.81-.58-1.43-.58-.28 0-.54.05-.79.15-.25.1-.47.24-.66.43-.19.19-.34.43-.45.72-.11.29-.17.62-.17 1v6.13h-1.69v-6.13c0-.77-.16-1.35-.46-1.73-.31-.38-.76-.57-1.36-.57-.42 0-.81.11-1.16.34-.36.22-.69.53-.98.92v7.17h-1.69l-.03-.01Z"/><path fill="#2E3632" d="M430.69 99.38c.58 0 1.11.1 1.6.29.49.19.91.47 1.26.84s.63.81.83 1.35c.2.54.3 1.14.3 1.83 0 .27-.03.44-.09.53-.06.09-.16.13-.32.13h-6.4c.01.61.09 1.14.25 1.59.15.45.36.83.63 1.13.27.3.58.53.95.67.37.15.78.22 1.23.22.42 0 .79-.05 1.1-.15.31-.1.57-.2.79-.32.22-.11.41-.22.56-.32.15-.1.28-.15.38-.15.14 0 .25.05.32.16l.48.62c-.21.25-.46.47-.75.66-.29.19-.6.34-.94.46a6.297 6.297 0 0 1-2.08.36c-.66 0-1.28-.11-1.84-.34a4.03 4.03 0 0 1-1.45-.99c-.41-.43-.73-.97-.96-1.61-.23-.64-.34-1.37-.34-2.2 0-.67.1-1.3.31-1.88.21-.58.5-1.09.89-1.51.39-.43.86-.76 1.42-1.01.56-.24 1.18-.37 1.88-.37l-.01.01Zm.04 1.24c-.82 0-1.46.24-1.93.71s-.76 1.13-.87 1.96h5.23c0-.39-.05-.75-.16-1.08-.11-.33-.27-.61-.47-.85-.2-.24-.46-.42-.76-.55-.3-.13-.64-.2-1.03-.2l-.01.01Z"/><path fill="#2E3632" d="M436.83 109.15v-9.62h1.01c.24 0 .39.12.46.35l.13 1.05c.42-.46.88-.84 1.4-1.12.52-.29 1.11-.43 1.79-.43.53 0 .99.09 1.39.26.4.17.74.42 1.01.74s.47.71.61 1.15c.14.45.21.95.21 1.49v6.13h-1.69v-6.13c0-.73-.17-1.29-.5-1.7-.33-.4-.84-.6-1.53-.6-.5 0-.97.12-1.4.36-.43.24-.83.57-1.2.98v7.09h-1.69Z"/><path fill="#2E3632" d="M450.32 109.3c-.76 0-1.34-.21-1.75-.64-.41-.42-.61-1.04-.61-1.83v-5.89h-1.16c-.1 0-.19-.03-.26-.09s-.1-.15-.1-.28v-.67l1.58-.2.39-2.97c.01-.1.05-.17.12-.23a.4.4 0 0 1 .27-.09h.85v3.32h2.75v1.23h-2.75v5.78c0 .41.1.71.29.9.19.19.45.29.76.29.18 0 .33-.02.46-.07.209-.076.404-.184.58-.32.07-.05.12-.07.18-.07.09 0 .17.05.24.16l.49.81c-.29.27-.64.49-1.05.64-.41.16-.84.23-1.27.23l-.01-.01Z"/><path fill="#2E3632" d="M167.16 122.18c.58 0 1.11.1 1.6.29.49.19.91.47 1.26.84.35.36.63.81.83 1.35.2.54.3 1.14.3 1.83 0 .27-.03.44-.09.53-.06.09-.17.13-.32.13h-6.4c.01.61.1 1.14.25 1.59.15.45.36.83.63 1.13.27.3.58.53.95.67.37.15.78.22 1.23.22.42 0 .79-.05 1.1-.15.31-.1.57-.2.79-.32.22-.11.41-.22.56-.32.15-.1.28-.15.38-.15.14 0 .25.05.32.16l.48.62c-.21.25-.46.47-.75.66-.29.19-.6.34-.94.46a6.297 6.297 0 0 1-2.08.36c-.67 0-1.28-.11-1.84-.34a4.03 4.03 0 0 1-1.45-.99c-.41-.43-.73-.97-.95-1.61-.22-.64-.34-1.37-.34-2.2 0-.67.1-1.3.31-1.88.21-.58.5-1.09.89-1.51.39-.43.86-.76 1.42-1.01.56-.24 1.18-.37 1.88-.37l-.02.01Zm.04 1.24c-.82 0-1.46.24-1.93.71s-.76 1.13-.87 1.96h5.23c0-.39-.05-.75-.16-1.08-.11-.33-.27-.61-.48-.85-.21-.24-.46-.42-.76-.55-.3-.13-.64-.2-1.03-.2v.01Z"/><path fill="#2E3632" d="M176.22 132.1c-.76 0-1.34-.21-1.75-.64-.41-.42-.61-1.04-.61-1.83v-5.89h-1.16c-.1 0-.19-.03-.26-.09s-.1-.15-.1-.28v-.67l1.58-.2.39-2.97c.01-.1.05-.17.12-.23a.401.401 0 0 1 .27-.09h.85v3.32h2.75v1.23h-2.75v5.78c0 .41.1.71.29.9.19.19.45.29.76.29.18 0 .33-.02.46-.07.209-.076.404-.184.58-.32.07-.05.12-.07.18-.07.09 0 .17.05.24.16l.49.81c-.29.27-.64.49-1.05.64-.41.16-.84.23-1.27.23l-.01-.01Z"/><path fill="#2E3632" d="M190.83 131.95c-.24 0-.39-.12-.46-.35l-.15-1.17c-.41.5-.88.9-1.41 1.2-.53.3-1.14.45-1.82.45-.55 0-1.05-.11-1.5-.32-.45-.21-.83-.52-1.15-.94-.32-.41-.56-.92-.73-1.54-.17-.62-.26-1.32-.26-2.12 0-.71.09-1.37.29-1.98.19-.61.46-1.14.82-1.59.36-.45.79-.8 1.31-1.06.51-.26 1.1-.38 1.75-.38.59 0 1.09.1 1.51.3.42.2.79.48 1.12.84v-5.34h1.69v13.99h-1.01v.01Zm-3.28-1.24c.55 0 1.03-.13 1.45-.38.42-.25.8-.61 1.15-1.07v-4.66c-.31-.42-.65-.71-1.02-.88a2.91 2.91 0 0 0-1.23-.25c-.9 0-1.59.32-2.07.96-.48.64-.72 1.55-.72 2.74 0 .63.05 1.16.16 1.61.11.45.27.81.48 1.1.21.29.47.5.77.63.3.13.65.2 1.04.2h-.01Z"/><path fill="#2E3632" d="M198.49 122.18c.58 0 1.11.1 1.6.29.49.19.91.47 1.26.84.35.36.63.81.83 1.35.2.54.3 1.14.3 1.83 0 .27-.03.44-.09.53-.06.09-.17.13-.32.13h-6.4c.01.61.1 1.14.25 1.59.15.45.36.83.63 1.13.27.3.58.53.95.67.37.15.78.22 1.23.22.42 0 .79-.05 1.1-.15.31-.1.57-.2.79-.32.22-.11.41-.22.56-.32.15-.1.28-.15.38-.15.14 0 .25.05.32.16l.48.62c-.21.25-.46.47-.75.66-.29.19-.6.34-.94.46a6.297 6.297 0 0 1-2.08.36c-.67 0-1.28-.11-1.84-.34a4.03 4.03 0 0 1-1.45-.99c-.41-.43-.73-.97-.95-1.61-.22-.64-.34-1.37-.34-2.2 0-.67.1-1.3.31-1.88.21-.58.5-1.09.89-1.51.39-.43.86-.76 1.42-1.01.56-.24 1.18-.37 1.88-.37l-.02.01Zm.04 1.24c-.82 0-1.46.24-1.93.71s-.76 1.13-.87 1.96h5.23c0-.39-.05-.75-.16-1.08-.11-.33-.27-.61-.48-.85-.21-.24-.46-.42-.76-.55-.3-.13-.64-.2-1.03-.2v.01Z"/><path fill="#2E3632" d="M210.18 117.96v13.99h-1.69v-13.99h1.69Z"/><path fill="#2E3632" d="M220.24 131.95h-.75c-.17 0-.3-.03-.4-.08-.1-.05-.17-.16-.2-.32l-.19-.89c-.25.23-.5.43-.74.61s-.49.33-.76.46c-.27.12-.55.22-.85.28-.3.06-.64.1-1 .1s-.72-.05-1.05-.16c-.33-.11-.61-.26-.85-.47-.24-.21-.43-.47-.57-.8-.14-.32-.21-.7-.21-1.14 0-.38.1-.75.31-1.1.21-.35.55-.67 1.01-.94.46-.27 1.08-.5 1.83-.67.75-.17 1.68-.26 2.76-.26v-.75c0-.75-.16-1.32-.48-1.71-.32-.39-.79-.58-1.42-.58-.41 0-.76.05-1.04.16s-.53.22-.73.35c-.21.13-.38.25-.53.35-.15.1-.3.16-.44.16a.526.526 0 0 1-.3-.09.596.596 0 0 1-.2-.22l-.3-.54c.53-.51 1.11-.9 1.72-1.15.61-.25 1.29-.38 2.04-.38.54 0 1.02.09 1.43.27.42.18.77.42 1.05.74.29.32.5.7.65 1.15.15.45.22.94.22 1.48v6.16l-.01-.02Zm-4.39-1.04c.3 0 .57-.03.82-.09s.48-.15.7-.26c.22-.11.43-.25.63-.4.2-.16.39-.34.58-.54v-1.99c-.78 0-1.44.05-1.99.15-.54.1-.99.23-1.33.39-.34.16-.59.35-.75.56-.16.22-.23.46-.23.73 0 .27.04.47.12.66.08.18.19.34.33.45.14.12.3.2.49.26.19.05.4.08.62.08h.01Z"/><path fill="#2E3632" d="M233.24 131.95c-.24 0-.39-.12-.46-.35l-.15-1.17c-.41.5-.88.9-1.41 1.2-.53.3-1.14.45-1.82.45-.55 0-1.05-.11-1.5-.32-.45-.21-.83-.52-1.15-.94-.32-.41-.56-.92-.73-1.54-.17-.62-.26-1.32-.26-2.12 0-.71.09-1.37.29-1.98.19-.61.46-1.14.82-1.59.36-.45.79-.8 1.31-1.06.51-.26 1.1-.38 1.75-.38.59 0 1.09.1 1.51.3.42.2.79.48 1.12.84v-5.34h1.69v13.99h-1.01v.01Zm-3.28-1.24c.55 0 1.03-.13 1.45-.38.42-.25.8-.61 1.15-1.07v-4.66c-.31-.42-.65-.71-1.02-.88a2.91 2.91 0 0 0-1.23-.25c-.9 0-1.59.32-2.07.96-.48.64-.72 1.55-.72 2.74 0 .63.05 1.16.16 1.61.11.45.27.81.48 1.1.21.29.47.5.77.63.3.13.65.2 1.04.2h-.01Z"/><path fill="#2E3632" d="M238.55 122.33v6.14c0 .73.17 1.29.5 1.69.34.4.84.6 1.52.6.49 0 .96-.12 1.4-.35.44-.23.84-.56 1.21-.98v-7.1h1.69v9.62h-1.01c-.24 0-.39-.12-.46-.35l-.13-1.04c-.42.46-.89.83-1.41 1.12-.52.28-1.11.42-1.79.42-.53 0-.99-.09-1.39-.26-.4-.17-.74-.42-1.01-.74s-.48-.7-.61-1.15c-.14-.45-.2-.95-.2-1.49v-6.14h1.69v.01Z"/><path fill="#2E3632" d="M247.65 131.95v-9.62h.97c.18 0 .31.03.38.1s.12.19.14.36l.11 1.5c.33-.67.74-1.2 1.22-1.57a2.73 2.73 0 0 1 1.71-.57c.27 0 .51.03.72.09.21.06.41.14.6.25l-.22 1.26c-.04.16-.14.24-.29.24-.09 0-.22-.03-.41-.09-.18-.06-.44-.09-.77-.09-.59 0-1.08.17-1.48.51-.4.34-.73.84-.99 1.49v6.13h-1.69v.01Z"/><path fill="#2E3632" d="M262.02 131.95h-.75c-.17 0-.3-.03-.4-.08-.1-.05-.17-.16-.2-.32l-.19-.89c-.25.23-.5.43-.74.61s-.49.33-.76.46c-.27.12-.55.22-.85.28-.3.06-.64.1-1 .1s-.72-.05-1.05-.16c-.33-.11-.61-.26-.85-.47-.24-.21-.43-.47-.58-.8-.14-.32-.21-.7-.21-1.14 0-.38.1-.75.31-1.1.21-.35.55-.67 1.01-.94.47-.27 1.08-.5 1.83-.67.75-.17 1.67-.26 2.76-.26v-.75c0-.75-.16-1.32-.48-1.71-.32-.39-.79-.58-1.42-.58-.41 0-.76.05-1.04.16-.28.1-.53.22-.73.35-.2.13-.38.25-.53.35-.15.1-.3.16-.44.16a.526.526 0 0 1-.3-.09.69.69 0 0 1-.2-.22l-.3-.54c.53-.51 1.11-.9 1.72-1.15.61-.25 1.29-.38 2.04-.38.54 0 1.02.09 1.43.27.42.18.77.42 1.05.74.29.32.5.7.65 1.15.15.45.22.94.22 1.48v6.16-.02Zm-4.39-1.04c.3 0 .57-.03.82-.09s.48-.15.7-.26c.22-.11.43-.25.63-.4.2-.16.39-.34.58-.54v-1.99c-.78 0-1.44.05-1.99.15-.54.1-.99.23-1.33.39-.34.16-.59.35-.75.56-.16.21-.23.46-.23.73 0 .27.04.47.12.66.08.18.19.34.33.45.14.12.3.2.49.26.19.05.4.08.62.08h.01Z"/><path fill="#2E3632" d="M264.64 131.95v-13.99h1.7v5.76c.4-.46.86-.83 1.37-1.12.52-.28 1.11-.42 1.77-.42.56 0 1.06.1 1.51.31.45.21.83.52 1.15.94.32.42.56.93.73 1.54.17.61.26 1.32.26 2.11 0 .71-.1 1.37-.29 1.98-.19.61-.46 1.14-.82 1.59-.36.45-.79.8-1.31 1.05-.52.26-1.1.38-1.74.38-.64 0-1.15-.12-1.58-.36a3.608 3.608 0 0 1-1.13-1.01l-.09.87c-.05.24-.2.36-.44.36h-1.09v.01Zm4.29-8.43c-.55 0-1.03.13-1.45.38-.41.25-.8.61-1.14 1.07v4.65c.3.42.64.71 1.01.88.37.17.78.26 1.24.26.9 0 1.59-.32 2.07-.96.48-.64.72-1.55.72-2.74 0-.63-.06-1.17-.17-1.62-.11-.45-.27-.82-.48-1.11-.21-.29-.46-.5-.77-.63-.3-.13-.65-.2-1.04-.2l.01.02Z"/><path fill="#2E3632" d="M277.46 119.31c0 .17-.03.32-.1.46s-.16.27-.27.38a1.23 1.23 0 0 1-.85.36c-.17 0-.32-.03-.46-.1-.14-.06-.27-.15-.38-.26a1.223 1.223 0 0 1-.36-.84c0-.16.03-.32.1-.47.122-.291.351-.524.64-.65.14-.06.3-.09.46-.09.16 0 .32.03.47.09.15.06.27.15.38.26.11.11.2.24.27.39.07.15.1.31.1.47Zm-.38 3.02v9.62h-1.69v-9.62h1.69Z"/><path fill="#2E3632" d="M281.95 117.96v13.99h-1.69v-13.99h1.69Z"/><path fill="#2E3632" d="M287.19 119.31c0 .17-.03.32-.1.46s-.16.27-.27.38a1.23 1.23 0 0 1-.85.36c-.17 0-.32-.03-.46-.1-.14-.06-.27-.15-.38-.26a1.223 1.223 0 0 1-.36-.84c0-.16.03-.32.1-.47.122-.291.351-.524.64-.65.14-.06.3-.09.46-.09.16 0 .32.03.47.09.15.06.27.15.38.26.11.11.2.24.27.39.07.15.1.31.1.47Zm-.38 3.02v9.62h-1.69v-9.62h1.69Z"/><path fill="#2E3632" d="M292.71 132.1c-.76 0-1.34-.21-1.75-.64-.41-.42-.61-1.04-.61-1.83v-5.89h-1.16c-.1 0-.19-.03-.26-.09s-.1-.15-.1-.28v-.67l1.58-.2.39-2.97c.01-.1.05-.17.12-.23a.401.401 0 0 1 .27-.09h.85v3.32h2.75v1.23h-2.75v5.78c0 .41.1.71.29.9.19.19.45.29.76.29.18 0 .33-.02.46-.07.209-.076.404-.184.58-.32.07-.05.12-.07.18-.07.09 0 .17.05.24.16l.49.81c-.29.27-.64.49-1.05.64-.41.16-.84.23-1.27.23l-.01-.01Z"/><path fill="#2E3632" d="M300.69 122.18c.58 0 1.11.1 1.6.29.49.19.91.47 1.26.84.35.36.63.81.83 1.35.2.54.3 1.14.3 1.83 0 .27-.03.44-.08.53-.06.09-.17.13-.32.13h-6.4c.01.61.1 1.14.25 1.59.15.45.36.83.63 1.13.27.3.58.53.95.67.37.15.78.22 1.24.22.42 0 .79-.05 1.1-.15.31-.1.57-.2.79-.32.22-.11.41-.22.56-.32.15-.1.28-.15.38-.15.14 0 .25.05.32.16l.48.62c-.21.25-.46.47-.75.66-.29.19-.6.34-.94.46-.335.12-.679.211-1.03.27-.36.06-.71.09-1.05.09-.67 0-1.28-.11-1.84-.34a4.03 4.03 0 0 1-1.45-.99 4.6 4.6 0 0 1-.96-1.61c-.23-.64-.34-1.37-.34-2.2 0-.67.1-1.3.31-1.88.21-.58.5-1.09.89-1.51.39-.43.86-.76 1.42-1.01.56-.24 1.18-.37 1.88-.37l-.03.01Zm.04 1.24c-.82 0-1.46.24-1.93.71s-.76 1.13-.87 1.96h5.23c0-.39-.05-.75-.16-1.08-.11-.33-.27-.61-.47-.85-.2-.24-.46-.42-.76-.55-.3-.13-.64-.2-1.03-.2l-.01.01Zm2.75-5.23-2.21 2.45c-.09.09-.18.16-.26.2-.08.04-.19.06-.33.06h-1.01l1.41-2.3c.09-.15.19-.25.29-.32.1-.07.26-.1.46-.1h1.65v.01Z"/><path fill="#2E3632" d="M310.5 131.95v-9.62h1.01c.24 0 .39.12.46.35l.12.99c.35-.44.75-.79 1.19-1.07.44-.28.95-.42 1.54-.42.65 0 1.18.18 1.58.54.4.36.69.85.87 1.46.13-.35.31-.65.53-.9.22-.25.46-.46.74-.63.27-.16.56-.29.87-.36.31-.08.62-.11.94-.11.51 0 .96.08 1.35.24.4.16.73.4 1.01.71.28.31.49.69.63 1.14.14.45.22.97.22 1.55v6.13h-1.69v-6.13c0-.75-.17-1.33-.49-1.71-.33-.39-.81-.58-1.43-.58-.28 0-.54.05-.79.15-.25.1-.47.24-.66.43-.19.19-.34.43-.45.72-.11.29-.17.62-.17 1v6.13h-1.69v-6.13c0-.77-.16-1.35-.47-1.73-.31-.38-.76-.57-1.36-.57-.42 0-.81.11-1.16.34-.36.22-.69.53-.98.92v7.17h-1.69l-.03-.01Z"/><path fill="#2E3632" d="M330 122.18c.7 0 1.34.12 1.9.35.57.23 1.05.57 1.44 1 .39.43.7.95.91 1.56.21.61.32 1.29.32 2.05 0 .76-.11 1.44-.32 2.05a4.46 4.46 0 0 1-.91 1.56c-.39.43-.88.76-1.44.99-.57.23-1.2.35-1.9.35s-1.34-.12-1.9-.35c-.57-.23-1.05-.56-1.45-.99-.4-.43-.71-.95-.92-1.56-.21-.61-.32-1.29-.32-2.05 0-.76.11-1.44.32-2.05.22-.61.52-1.13.92-1.56.4-.43.88-.76 1.45-1 .57-.23 1.2-.35 1.9-.35Zm0 8.59c.95 0 1.66-.32 2.13-.96.47-.64.7-1.52.7-2.66 0-1.14-.23-2.04-.7-2.68-.47-.64-1.18-.96-2.13-.96-.48 0-.9.08-1.25.25-.35.16-.65.4-.89.71-.24.31-.41.69-.53 1.15-.12.45-.18.96-.18 1.53 0 .57.06 1.08.18 1.53.12.45.29.83.53 1.13.24.31.53.54.89.71.35.17.77.25 1.25.25Z"/><path fill="#2E3632" d="M336.66 131.95v-9.62h1.01c.24 0 .39.12.46.35l.13 1.05c.42-.46.89-.84 1.4-1.12.52-.29 1.11-.43 1.79-.43.53 0 .99.09 1.39.26.4.17.74.42 1.01.74s.47.71.61 1.15c.14.45.21.95.21 1.49v6.13h-1.69v-6.13c0-.73-.17-1.29-.5-1.7-.33-.4-.84-.6-1.52-.6-.5 0-.97.12-1.4.36-.43.24-.83.57-1.2.98v7.09h-1.7Z"/><path fill="#2E3632" d="M354 131.95c-.24 0-.39-.12-.46-.35l-.15-1.17c-.41.5-.88.9-1.41 1.2-.53.3-1.13.45-1.82.45-.55 0-1.05-.11-1.5-.32-.45-.21-.83-.52-1.15-.94-.32-.41-.56-.92-.73-1.54-.17-.62-.26-1.32-.26-2.12 0-.71.09-1.37.29-1.98.19-.61.46-1.14.82-1.59.36-.45.79-.8 1.31-1.06.51-.26 1.09-.38 1.75-.38.59 0 1.09.1 1.51.3.42.2.79.48 1.12.84v-5.34h1.69v13.99H354v.01Zm-3.28-1.24c.55 0 1.03-.13 1.45-.38.42-.25.8-.61 1.14-1.07v-4.66c-.31-.42-.65-.71-1.02-.88a2.91 2.91 0 0 0-1.23-.25c-.9 0-1.59.32-2.07.96-.48.64-.72 1.55-.72 2.74 0 .63.05 1.16.16 1.61.11.45.27.81.47 1.1.2.29.47.5.77.63.3.13.65.2 1.04.2h.01Z"/><path fill="#2E3632" d="M360.11 119.31c0 .17-.03.32-.1.46s-.16.27-.27.38a1.23 1.23 0 0 1-.85.36c-.17 0-.32-.03-.46-.1-.14-.06-.27-.15-.38-.26a1.223 1.223 0 0 1-.36-.84c0-.16.03-.32.1-.47.122-.291.351-.524.64-.65.14-.06.3-.09.46-.09.16 0 .32.03.47.09.15.06.27.15.38.26.11.11.2.24.27.39.07.15.1.31.1.47Zm-.38 3.02v9.62h-1.69v-9.62h1.69Z"/><path fill="#2E3632" d="M369.78 131.95h-.75c-.17 0-.3-.03-.4-.08-.1-.05-.17-.16-.2-.32l-.19-.89c-.25.23-.5.43-.74.61s-.49.33-.76.46c-.27.12-.55.22-.85.28-.3.06-.64.1-1 .1s-.72-.05-1.05-.16c-.33-.11-.61-.26-.85-.47-.24-.21-.43-.47-.58-.8-.14-.32-.21-.7-.21-1.14 0-.38.1-.75.31-1.1.21-.35.55-.67 1.01-.94.47-.27 1.08-.5 1.83-.67.75-.17 1.67-.26 2.76-.26v-.75c0-.75-.16-1.32-.48-1.71-.32-.39-.79-.58-1.42-.58-.41 0-.76.05-1.04.16-.28.1-.53.22-.73.35-.2.13-.38.25-.53.35-.15.1-.3.16-.44.16a.526.526 0 0 1-.3-.09.69.69 0 0 1-.2-.22l-.3-.54c.53-.51 1.11-.9 1.72-1.15.61-.25 1.29-.38 2.04-.38.54 0 1.02.09 1.43.27.42.18.77.42 1.05.74.29.32.5.7.65 1.15.15.45.22.94.22 1.48v6.16-.02Zm-4.39-1.04c.3 0 .57-.03.82-.09s.48-.15.7-.26c.22-.11.43-.25.63-.4.2-.16.39-.34.58-.54v-1.99c-.78 0-1.44.05-1.99.15-.54.1-.99.23-1.33.39-.34.16-.59.35-.75.56-.16.21-.23.46-.23.73 0 .27.04.47.12.66.08.18.19.34.33.45.14.12.3.2.49.26.19.05.4.08.62.08h.01Z"/><path fill="#2E3632" d="M374.23 117.96v13.99h-1.69v-13.99h1.69Z"/><path fill="#2E3632" d="M381.02 122.18c.58 0 1.11.1 1.6.29.49.19.91.47 1.26.84.35.36.63.81.83 1.35.2.54.3 1.14.3 1.83 0 .27-.03.44-.09.53-.06.09-.16.13-.32.13h-6.4c.01.61.1 1.14.25 1.59.15.45.36.83.63 1.13.27.3.58.53.95.67.37.15.78.22 1.23.22.43 0 .79-.05 1.1-.15.31-.1.57-.2.79-.32.22-.11.41-.22.56-.32.15-.1.28-.15.38-.15.14 0 .25.05.32.16l.48.62c-.21.25-.46.47-.75.66-.29.19-.6.34-.94.46a6.297 6.297 0 0 1-2.08.36c-.66 0-1.28-.11-1.84-.34a4.03 4.03 0 0 1-1.45-.99 4.6 4.6 0 0 1-.96-1.61c-.23-.64-.34-1.37-.34-2.2 0-.67.1-1.3.31-1.88.21-.58.5-1.09.89-1.51.39-.43.86-.76 1.42-1.01.56-.24 1.18-.37 1.88-.37l-.01.01Zm.04 1.24c-.82 0-1.46.24-1.93.71s-.76 1.13-.88 1.96h5.23c0-.39-.05-.75-.16-1.08-.11-.33-.27-.61-.47-.85-.2-.24-.46-.42-.77-.55-.31-.13-.64-.2-1.03-.2l.01.01Z"/><path fill="#2C413D" d="M87.32 140.68c-.08.5-.26 1.16-.68 2.03-.99 2.06-4.4.8-4.82 2.06-.21.64-.27 1.12-.27 1.44 6.27.46 12.36 1.32 20.14 3 3.41-1.18 6.72-2.59 9.89-4.22-6.65-1.28-14.86-2.78-24.27-4.31h.01Z"/><path fill="#52A366" d="M76.77 41.83c-19.17 0-34.72 15.54-34.72 34.72s15.54 34.72 34.72 34.72 34.72-15.54 34.72-34.72-15.54-34.72-34.72-34.72Zm22.76 55.03H54.36v-1.39h45.17v1.39ZM59.29 73.91h-.12v-.61h6.82v.61h-6.71.01Zm5.83 1.78v14.84h-5.07V75.69h5.07Zm-5.85 16.62h37.87v1.39H56.73v-1.39h2.54Zm13.66-16.62h.12v14.84h-6.42V75.69h.12c.41 0 .75-.4.75-.89v-1.5h4.67v1.5c0 .49.34.89.76.89Zm.87-1.78h-.12v-.61h6.82v.61h-6.7Zm5.83 1.78v14.84h-5.07V75.69h5.07Zm7.81 0h.12v14.84h-6.42V75.69h.12c.41 0 .76-.4.76-.89v-1.5h4.67v1.5c0 .49.34.89.76.89h-.01Zm.87-1.78h-.12v-.61h6.82v.61h-6.7Zm5.83 1.78v14.84h-5.07V75.69h5.07Zm1.65-4.17H54.81v-4.56h44.26v4.56h-3.28Zm4.06-6.34H53.68l23.26-12.54 23.26 12.54h-.35Z"/><path fill="#165A60" d="M109.94 120.25c1.95.1 3.99.24 6.16.41 6.63.52 14.86.37 23.39-.13 1.21-1.75 2.36-3.54 3.43-5.39l-18.93-10.93a54.798 54.798 0 0 1-14.04 16.04h-.01Z"/><path fill="#254D4C" d="M76.76 131.53c-7.97 0-15.54-1.71-22.37-4.79-11.55 1.58-22.2 3.4-32.14 3.74.7.72 1.41 1.42 2.14 2.11 5.19 1 11.73 1.85 19.99 2.34 32.88 1.95 41.82 1.23 62.06 5.44-.04-.44-.15-1.02-.41-1.73-.66-1.84-6.04 0-7.61-3-1.57-3-1.09-4.45-1.09-4.45s-.12-.97.18-.48.3.68.85 1.06c.54.39 1.33 1.94 4.65 1.74 2.92-.17 3.55 1.49 3.95 2.24.36-.75.95-2.41 3.62-2.24 3.04.19 3.76-1.35 4.26-1.74.5-.39.5-.58.77-1.06.28-.48.17.48.17.48s.44 1.45-1 4.45-6.36 1.16-6.97 3c-.28.83-.37 1.47-.39 1.94.42.09.84.18 1.27.27 2.37.52 5 .98 7.79 1.39 7.02-4.29 13.3-9.69 18.58-15.95-6.52-.49-17.55-1.19-31.79-1.65-7.85 4.39-16.9 6.89-26.53 6.89h.02Z"/><path fill="#2E3532" d="M49.5 148.38c8.46 3.24 17.65 5.01 27.25 5.01 4.99 0 9.87-.49 14.6-1.4-4.37-.73-9.1-1.48-14.14-2.22-9.76-1.43-19-1.56-27.72-1.39h.01Z"/><path fill="#2C413D" d="M80.6 144.77c-.46-1.26-4.17 0-5.25-2.06s-.75-3.05-.75-3.05-.08-.66.13-.33c.21.33.21.46.58.73.38.27.92 1.33 3.21 1.19 2.01-.12 2.45 1.02 2.73 1.54.25-.51.65-1.65 2.5-1.54 1.41.09 2.1-.36 2.5-.75-1.01-.16-2.02-.33-3.06-.49-20.17-3.19-38.16-1.88-53.78-3.1 4.16 3.3 8.68 6.17 13.49 8.56 17.92.31 28.25.03 38.01.69 0-.32-.07-.79-.29-1.39h-.02Z"/><path fill="#1982C4" d="M22.6 67.36c.17.17.33.33.5.49.8-4.68 2.19-9.15 4.11-13.34-.41-.33-.91-.73-1.41-1.14.06.42.18 1.39-.03 1.91 0 0-1.18-.58-2.09-1.45-.29.73-.69 1.4-1.04 1.63-.22.14-.42.1-.57-.2-.28-.55-.7-1.28-1.12-1.95.12 2.06.44 11.35.14 12.6.56.52 1.08 1.02 1.53 1.45h-.02Z"/><path fill="#165A60" d="M36.8 125.49c-4.69-4.66-9.59-10.16-17.51-18.55-.17.3-.33.61-.5.92-2.16 4.24-3.85 6.56-6.59 9.93 1.69 2.68 3.55 5.25 5.55 7.69 5.03.42 11.29.51 19.04.01h.01Z"/><path fill="#007AAB" d="M130.73 37.56c.8.53 1.72.9 2.39 1.68.51.59.65 1.3.56 2.01.14-.17.28-.33.43-.49.86-1.12 1.65-2.3 2.29-3.51.93-1.76 1.09-3.87 1.32-5.87-3.77-.63-6.43 2.66-7 6.18h.01Z"/><path fill="#007AAB" d="M134.74 43.92c-.62-.23-1.24-.47-1.83-.72.41.36.7.79.91 1.25l.92-.53Z"/><path fill="#006577" d="M23.66 108.84c4.29 4.8 8.98 9.72 14.47 14.32.83.7 1.65 1.38 2.46 2.05.91-.08 1.84-.16 2.79-.25 2.2-.21 4.3-.42 6.31-.62a54.73 54.73 0 0 1-21.39-22.39c-1.22 1.86-2.7 3.97-4.64 6.89Z"/><path fill="#007AAB" d="M6.49 79.85c-1.06.26-4.04.5-4.61-4.71 0 0 5.3-.05 5.09 3.83.64-1.28 2.3-3.1 6.19-.89 0 0-2.81 4.67-5.75 2.61C6.26 91.82 10 102.1 11.4 105.47l.27-.39c1.76-2.69 3.38-5.21 4.87-7.57-2.06-3.84-1.71-7.04-1.55-7.96-.52.13-2.25.37-2.58-2.41 0 0 3.04-.02 2.76 2.13h.03c.23-.65 1.17-2.53 4.16-.93 0 0-1.92 3.01-3.87 1.47-.4 2.8.69 5.42 1.53 6.94 2.44-3.85 4.5-7.2 6.15-9.92-.57-3.17-.88-6.42-.88-9.75 0-2.47.18-4.9.5-7.29a70.977 70.977 0 0 0-3.86-3.73C9.02 57.24 6.95 54.18 6.6 53.75a16.333 16.333 0 0 1-1.66-2.52 76.086 76.086 0 0 0-4.5 25.85c0 11.91 2.74 23.17 7.61 33.21.73-1 1.46-2.02 2.18-3.07C4.95 93.37 6.26 81.63 6.5 79.86l-.01-.01Zm1.29-4.61s.29-4.4 6.23-2.3c0 0-2.53 5.12-6.23 2.3Zm.45-4.85s.52-4.38 6.34-1.98c0 0-2.8 4.99-6.34 1.98Zm7.33 16.15s-2.86.82-2.91-3.06c0 0 3.84.3 2.91 3.06Zm-1.63-6.34s3.47.93 2.06 3.3c0 0-2.79.27-2.06-3.3Zm1.97 6.43s.18-2.67 4.01-1.39c0 0-1.63 3.1-4.01 1.39Zm.29-2.94s.34-2.66 4.09-1.2c0 0-1.81 3.02-4.09 1.2Zm4.82-4.34s-1.57 3.13-3.99 1.46c0 0 .14-2.67 3.99-1.46Zm-4.3 1.29s-2.38.22-1.85-3.57c0 0 2.99 1.07 1.85 3.57ZM15.7 63.23s-2.44 5.16-6.19 2.4c0 0 .21-4.41 6.19-2.4Zm-9.54-3.76s4.64 1.77 2.87 5.89c0 0-3.69.36-2.87-5.89Zm-1.44 5.16s5.37 1.53 3.19 5.45c0 0-4.33.45-3.19-5.45Zm2.53 10.46s-4.44 1.36-4.52-5.05c0 0 5.96.5 4.52 5.05Z"/><path fill="#007AAB" d="M133.51 42.01c-.12.36-.3.71-.51 1.04.84.12 1.7.27 2.57.4l7.43-4.29c-.44-.77-.89-1.52-1.36-2.27-2.76.65-5.19 2.26-7.31 4.19-.27.32-.54.63-.82.93Z"/><path fill="#1982C4" d="M135.93 39.02c1.58-1.28 3.38-2.19 5.41-2.6-.99-1.57-2.04-3.1-3.14-4.59-.16 1.91-.3 3.91-1.24 5.55-.32.55-.67 1.1-1.04 1.64h.01Z"/><path fill="#007AAB" d="M126.76 39.12h-.16c-.46-.18-.91-.34-1.37-.45.66.61 1.04 1.28 1.48 2.36.56 1.36 1.73 3.52 3.54 3.15.94-.2 1.61-.8 2.09-1.59.85-1.42.71-2.48-.55-3.51-.76-.62-1.74-.9-2.39-1.62-.56-.62-.75-1.43-.82-2.25-.1.25-.18.5-.24.77-.09.57-.15 1.13-.16 1.3-.03.28-.26.39-.47.35-.13.04-.28.03-.39-.08-.08-.09-.16-.17-.25-.26 0 .49.02.98.03 1.46 0 .18-.15.36-.34.39v-.02Z"/><path fill="#007AAB" d="M132.74 43.43c-.1.13-.21.27-.32.38-1.15 1.2-2.92 1.57-4.26.59-1.23 1.21-2.05 2.92-2.29 4.65l7.46-4.31c-.09-.45-.27-.89-.58-1.32l-.01.01Z"/><path fill="#007AAB" d="M120.58 44.75c.41.55.8 1.11 1.19 1.67 1.6-1.37 3.76-2.42 5.78-2.58-.59-.65-1.06-1.43-1.43-2.24-.89.15-1.78.26-2.65.53-1.53.48-2.38 1.39-2.9 2.62h.01Z"/><path fill="#1982C4" d="M119.16 13.62c-1.61.6-3.52 1.42-5.78 2.56-12.18 6.16-34.52.45-39.61-.54-10.13-1.97-16.96-.77-19.32.42 5.24-3.22 13.9-3.83 22.53-3.11 3.37.28 23.23 4.7 31.7 1.71 3.26-1.15 5.87-2 8.05-2.61C105.11 4.89 91.42.75 76.76.75c-17.51 0-33.64 5.91-46.52 15.84.27.1.52.18.79.28 6.05 2.26 29.42-.2 32.8-.5 6.73-.59 12.71 1.18 18.62 2.59 8.37 1.99 10.95 1.15 10.29 1.53-1.25-.34-8.96.93-11.5.51-5.72-.94-11.2-1.68-18.22-.23-4.59.94-24.38 3.7-37.14-.56A76.387 76.387 0 0 0 5.62 49.47c1 1.94 2.79 4.51 5.79 7.64 1.89 1.71 4.07 3.66 6.09 5.5.05-2.97.66-9.37.66-9.37-.13.19-.26.39-.38.58-.45.68-.83 1.29-.91 1.44-.16.31-.39.33-.63.17-.31-.21-.65-.73-.92-1.33-.99.74-2.1 1.22-2.1 1.22-.32-.67 0-2.11 0-2.11-1.25 1-2.62 2.05-2.62 2.05-.83 1.78 1.75-5.92 3.29-7.91 1.55-1.99-1.06-1.02-2.76 0-1.69 1.02 4.12-6.52 5.72-7.26-1.04.47-4.87 2.22-4.87 2.22s2.1-4.38 3.8-7c-.96.53-1.89.96-1.89.96s3.36-5.67 5.37-6.57c.07-.07.14-.09.23-.08.09-.02.17.01.24.09 1.96.94 5.2 6.56 5.2 6.56s-.91-.43-1.84-.96c1.65 2.62 3.69 7 3.69 7s-3.72-1.74-4.73-2.22c1.55.74 7.21 8.28 5.56 7.26-1.65-1.02-4.19-1.98-2.68 0 .85 1.12 2.02 4.08 2.73 6.11 1.26-2.61 2.73-5.1 4.37-7.45-.07-1.36.35-5.65.35-5.65-.08.13-.16.26-.24.38-.28.45-.51.86-.56.96-.1.21-.24.22-.39.11-.19-.14-.4-.49-.57-.89-.61.49-1.31.81-1.31.81-.2-.44 0-1.41 0-1.41-.77.67-1.63 1.37-1.63 1.37-.52 1.19 1.09-3.95 2.05-5.27.96-1.32-.66-.68-1.71 0-1.05.68 2.56-4.35 3.55-4.84-.65.32-3.03 1.48-3.03 1.48s1.31-2.92 2.36-4.66c-.59.35-1.17.64-1.17.64s2.09-3.78 3.34-4.38c.04-.05.09-.06.14-.05.06-.01.11 0 .15.06 1.22.63 3.23 4.37 3.23 4.37s-.56-.28-1.14-.64c1.03 1.75 2.3 4.66 2.3 4.66s-2.32-1.16-2.94-1.48c.96.5 4.48 5.52 3.46 4.84-1.03-.68-2.6-1.32-1.67 0 .36.5.8 1.56 1.19 2.61 9.89-10.13 23.69-16.42 38.96-16.42 17.4 0 32.89 8.17 42.86 20.88.58-.8 1.38-1.46 2.25-1.82 1.28-.54 2.66-.54 4.02-.62-.49-1.26-1.06-1.86-2.21-2.57a.37.37 0 0 1-.17-.26c-.06-.19.01-.41.26-.45h.14c.8-.12 1.58-.04 2.31.27-.07-.62-.08-1.24.08-1.85 0-.03.03-.05.04-.08 0-.02.01-.03.03-.05.08-.11.22-.17.36-.15.02 0 .04.01.06.02.03 0 .06 0 .08.02.2.11.4.24.59.38.03-.31.05-.62.12-.85.02-.08.07-.15.1-.23.14-.57.36-1.08.73-1.35.09-.13.23-.17.35-.16.06-.01.12-.03.19-.03.21 0 .39.19.39.39-.01 1-.02 2.24.75 2.98.18.17.37.32.58.46.37-3.61 2.96-7.19 6.71-6.81a76.61 76.61 0 0 0-18.21-17.08v-.03Zm-23.83-.97s-.77.07-1.75.48c-1.28.54-2.94 1.27-4.1-.75 0 0 .56.15 1.6-.22.95-.34 2.29-1.3 4.25.48v.01Zm-6.84-3.87c.67-.75 1.39-2.24 3.96-1.6 0 0-.64.43-1.31 1.26-.87 1.08-1.98 2.52-3.96 1.29 0 0 .56-.13 1.3-.95h.01Zm-3.7-2.37c.37-.94.54-2.58 3.17-2.87 0 0-.46.63-.79 1.63-.44 1.31-.99 3.05-3.27 2.58 0 0 .48-.31.89-1.34Zm-4.48-1.44c.07-1.01-.29-2.62 2.13-3.71 0 0-.24.74-.25 1.8-.01 1.38 0 3.2-2.31 3.46 0 0 .36-.45.43-1.55Zm8.63 8.32c.97.69 1.09.45-6.9-1.16-1.1-.22-4.59-.62-7.32-.86-1.44-.13-4.06.03-4.85.35 0 0 9.62-8.15 19.08 1.68l-.01-.01ZM76.11 1.01s.09.77.53 1.74c.57 1.26 1.34 2.91-.65 4.11 0 0 .14-.56-.26-1.59-.36-.94-1.36-2.26.38-4.26Zm-7 2.53s.5.59 1.39 1.17c1.17.75 2.71 1.7 1.71 3.8 0 0-.19-.54-1.09-1.19-.82-.59-2.37-1.15-2.01-3.77v-.01Zm-3.07 4.68c1.35.33 3.12.73 2.85 3.04 0 0-.35-.45-1.41-.78-.96-.29-2.62-.32-3.13-2.91 0 0 .66.4 1.69.65Zm60.72 27.11c-.16-.4-.43-.76-.7-1.1-.33-.42-.69-.82-1.04-1.22-.67-.77-1.41-1.52-1.95-2.39-.04-.06-.05-.12-.07-.18h-.04c-.44-.06-.78-.39-1.15-.6-.39-.22-.8-.39-1.24-.49-1.79-.41-3.15.82-4.12 2.15-.78 1.06-1.47 2.12-2.45 2.97-.06.07-.13.13-.2.19-.17.13-.33.27-.49.41-.06.05-.13-.03-.09-.09.09-.11.18-.21.27-.32-1.29-2.88.13-5.89 1.5-8.47-1.93-2.4-3.11-5.59-3.37-8.64-.03-.37.49-.55.73-.3 2.01 2.12 3.81 4.41 5.66 6.66a.402.402 0 0 1 .21-.13c.09-.02.17-.03.26-.04a8.357 8.357 0 0 1 3.96-5.14c.34-.19.56-.04.5.32-.27 1.46-.57 3.47-.46 4.95 0 .13-.14.18-.3.16.64.22 1.26.54 1.73 1.01.53.54.97 1.26 1.09 2.02.12.78-.12 1.64-.49 2.33-.13.24-.29.47-.49.65l.01.01c.51.9 1.13 1.73 1.69 2.59.51.78 1.09 1.67 1.26 2.6.02.13-.15.17-.19.05l-.03.04Z"/><path fill="#1982C4" d="M122.01 23.98a.27.27 0 0 1-.14-.2c-.14-1.22 0-2.75.19-3.97-1.42.97-2.6 2.36-3.37 3.9a6.934 6.934 0 0 1 3.31.28l.01-.01Z"/><path fill="#007AAB" d="M125.21 49.43c.03-2.12 1.02-3.91 2.83-5.11-.05-.04-.11-.07-.17-.12-.1-.09-.18-.2-.27-.29-1.81.43-4.07 1.72-5.36 3.22.64.97 1.25 1.96 1.82 2.97l1.14-.66.01-.01Z"/><path fill="#1982C4" d="M115.69 26.57c-1.33 2.41-2.56 5.06-2 7.87.05-.05.07-.08.11-.17 0 .02 0-.01.02-.04 0-.03.02-.06.03-.09l.06-.25c.22-.94.49-1.87.81-2.78.14-.4.78-.21.63.17-.26.67-.54 1.32-.8 1.98l-.21.51c.6-.96 1.02-2.07 1.62-3.02.78-1.23 1.86-2.23 3.35-2.45.85-.12 1.7.04 2.48.38.23.1.46.22.67.34.17.1.35.27.53.34.17.07.22.03.38-.1.52-.42.77-1.2.77-1.85 0-.7-.44-1.37-.93-1.84-.54-.52-1.38-.78-2.1-.95-.84-.19-1.7-.19-2.54-.02.43.51.85 1.03 1.29 1.53.11.12-.06.3-.18.18-2.49-2.36-4.7-4.97-7.03-7.48.21 1.06.53 2.1.93 3.1.55 1.39 1.29 2.75 2.26 3.89.23.27.09.6-.14.74l-.01.01Z"/><path fill="#1982C4" d="M35.82 40.75c-.18.49-.43.94-.65 1.08-.14.09-.26.07-.36-.13-.217-.442-.45-.876-.7-1.3.03.59.07 1.64.1 2.7.59-.73 1.19-1.45 1.81-2.15-.07-.06-.14-.13-.21-.2h.01Z"/><path fill="#007091" d="M19.18 103.85s.02-.05.03-.08c.03.03.06.07.08.11 1.1 1.26 2.22 2.54 3.37 3.84 1.67-2.2 3.39-4.59 4.78-7.51a54.253 54.253 0 0 1-3.7-10.62c-.57.88-1.09 1.74-1.57 2.55-4.69 7.99-8 12.44-13.51 19.42.91 1.79 1.89 3.53 2.93 5.24.51-.73 1.01-1.48 1.49-2.27 2.69-4.43 4.74-8.14 6.08-10.67l.02-.01Z"/><path fill="#2E3632" d="M442.48 77.9H161.96v-1.8h280.52v1.8Z"/></svg>
