<svg xmlns="http://www.w3.org/2000/svg" version="1.0" viewBox="155.96 643.33 1188.99 220.74"><path d="M190.21 860.39V649.761h-34.253v210.63ZM203.8 790.18c0 43.597 31.425 73.609 74.738 73.609 43.316 0 74.742-30.012 74.742-73.61 0-43.597-31.426-73.605-74.742-73.605-43.313 0-74.738 30.008-74.738 73.605Zm34.539 0c0-25.477 16.418-42.747 40.199-42.747s40.203 17.27 40.203 42.746c0 25.48-16.422 42.75-40.203 42.75-23.781 0-40.2-17.27-40.2-42.75ZM400.84 860.39v-75.304c0-22.649 13.023-37.371 34.254-37.371 17.836 0 29.441 11.324 29.441 34.824v77.851h34.54v-86.062c0-36.238-18.118-58.035-53.223-58.035-18.969 0-35.953 8.207-44.73 22.363l-2.833-18.117h-31.988V860.39ZM581.176 864.07c36.52 0 62-18.402 67.945-48.977H617.13c-3.965 13.305-16.422 20.668-35.386 20.668-22.934 0-35.957-12.457-38.504-37.085l105.316-.286v-10.472c0-43.598-26.613-71.625-68.512-71.625-41.05 0-69.644 30.289-69.644 74.172 0 43.312 29.16 73.605 70.777 73.605Zm-.851-119.469c20.668 0 33.972 12.739 33.972 31.992H544.09c3.395-20.949 15.852-31.992 36.235-31.992Zm0 0"/><path d="M799.608 859.628h-67.14v-4.75c9.07-.844 14.925-2.953 17.562-6.328 2.644-3.383 3.968-10.457 3.968-21.219v-62.703c0-22.383-7.918-33.578-23.75-33.578-6.125 0-11.882 1.531-17.265 4.594-5.387 3.062-11.352 8.183-17.89 15.36v76.327c0 10.98 1.265 18.055 3.796 21.219 2.539 3.168 8.453 5.277 17.734 6.328v4.75h-68.406v-4.75c9.082-1.27 14.734-3.379 16.953-6.328 2.219-2.957 3.328-10.031 3.328-21.219V678.16c0-6.75-1.007-11.125-3.015-13.125-2.012-2.007-6.39-3.015-13.14-3.015-1.688 0-2.954.105-3.798.312v-5.062l8.547-2.532c14.352-4.007 26.492-7.812 36.422-11.406l1.578.953v96.266c7.383-9.5 14.664-16.305 21.844-20.422 7.187-4.113 15.422-6.172 24.703-6.172 25.969 0 38.953 16.781 38.953 50.344v63.031c0 10.98 1.004 17.899 3.016 20.75 2.008 2.844 7.343 5.11 16 6.797ZM930.705 846.956c-5.493 6.125-10.293 10.297-14.407 12.516-4.117 2.219-8.812 3.328-14.093 3.328-6.543 0-11.344-1.742-14.407-5.219-3.062-3.488-5.015-9.457-5.859-17.906-18.156 15.418-33.57 23.125-46.234 23.125-9.711 0-17.68-3.168-23.907-9.5-6.23-6.332-9.343-14.46-9.343-24.39 0-11.395 3.8-20.579 11.406-27.548 6.75-5.914 13.555-10.613 20.422-14.093 6.863-3.489 22.644-10.192 47.343-20.11v-19.328c0-17.52-8.023-26.281-24.062-26.281-6.336 0-11.719 1.531-16.156 4.594-4.438 3.062-6.657 6.703-6.657 10.922 0 2.324.317 4.859.954 7.609.425 2.95.64 4.637.64 5.062 0 3.594-1.43 6.711-4.281 9.344-2.856 2.637-6.184 3.953-9.984 3.953-3.793 0-7.012-1.367-9.657-4.109-2.636-2.75-3.953-5.914-3.953-9.5 0-8.656 4.328-16.57 12.985-23.75 9.5-7.813 22.906-11.719 40.218-11.719 19.633 0 32.832 6.121 39.594 18.36 4.008 6.554 6.016 17.324 6.016 32.312v61.75c0 6.969.68 11.774 2.047 14.406 1.375 2.637 3.859 3.953 7.453 3.953 4.425 0 9.066-2.003 13.922-6.015Zm-49.079-26.281v-45.922c-19 6.969-32.304 13.73-39.906 20.281-7.594 6.543-11.39 14.453-11.39 23.735v1.265c0 6.762 1.945 12.516 5.843 17.266 3.907 4.75 8.602 7.125 14.094 7.125 7.395 0 15.102-2.32 23.125-6.969 3.375-2.101 5.586-4.21 6.64-6.328 1.063-2.113 1.594-5.598 1.594-10.453ZM1069.426 721.862c-4.855.43-8.34 1.965-10.453 4.61-2.117 2.637-5.496 9.336-10.14 20.094L1008.3 848.222c-4.219 10.562-7.172 15.844-8.86 15.844-1.906 0-3.808-2.746-5.702-8.235-.211-.426-.633-1.484-1.266-3.172-.637-1.687-1.059-2.847-1.266-3.484l-38.015-90.89c-7.387-16.47-12.559-26.598-15.516-30.391-2.95-3.801-7.383-5.813-13.297-6.032v-4.75h62.078v4.75c-5.492.43-9.293 1.278-11.406 2.547-2.117 1.262-3.172 3.371-3.172 6.328 0 3.375.953 7.282 2.86 11.72l32.296 81.062 31.36-82.016c1.258-3.164 1.89-6.332 1.89-9.5 0-5.914-4.96-9.297-14.875-10.14v-4.75h44.016ZM1198.007 809.91c-13.73 35.261-36.11 52.89-67.14 52.89-18.157 0-32.57-6.383-43.235-19.156-10.656-12.782-15.984-30.04-15.984-51.782 0-23.019 6.117-41.757 18.36-56.218 12.25-14.457 28.19-21.688 47.827-21.688 16.883 0 30.395 6.016 40.532 18.047 6.968 8.867 11.507 22.168 13.625 39.906h-97.547c.633 17.95 3.8 32.516 9.5 43.703 9.082 16.887 22.383 25.329 39.906 25.329 10.133 0 18.945-2.532 26.438-7.594 7.5-5.07 15.046-13.625 22.64-25.656Zm-38.328-48.141c-2.105-13.719-5.375-23.219-9.812-28.5-4.438-5.282-11.512-7.922-21.22-7.922-19 0-30.187 12.14-33.562 36.422Zm0 0"/><path d="M1344.947 859.628h-65.875v-4.75c8.02-.633 13.348-2.742 15.985-6.328 2.644-3.594 3.969-10.352 3.969-20.281V762.08c0-20.476-7.704-30.719-23.11-30.719-5.281 0-10.14 1.22-14.578 3.657-4.43 2.43-10.445 7.23-18.047 14.406v88.984c0 5.7 1.473 9.711 4.422 12.032 2.957 2.324 8.453 3.804 16.484 4.437v4.75h-67.14v-4.75c8.02-.633 13.297-2.484 15.828-5.547 2.531-3.062 3.797-9.129 3.797-18.203v-78.547c0-7.812-.844-13.14-2.531-15.984-1.688-2.852-4.747-4.281-9.172-4.281-4.024 0-6.875.421-8.563 1.265v-5.375c15.625-4.644 30.192-9.394 43.703-14.25l2.22.625v25.016c10.769-10.125 19.269-16.926 25.5-20.406 6.226-3.489 13.034-5.235 20.42-5.235 11.614 0 20.743 4.172 27.392 12.516 6.656 8.336 9.984 19.996 9.984 34.984v72.516c0 7.812 1.266 13.043 3.797 15.687 2.531 2.637 7.703 4.375 15.515 5.22Zm0 0"/></svg>