<svg xmlns="http://www.w3.org/2000/svg" id="Layer_2" data-name="Layer 2" viewBox="0 0 459.99 103.23"><defs><style>.cls-1{fill:#000}</style></defs><g id="Layer_1-2" data-name="Layer 1"><path d="M16.81 77.05c.61.09 1.02-.15 1.44-.29 5.76-1.96 11.66-3.37 17.59-4.65 1.25-.27 2.33-.55 3.87-.94 5.74-1.3 10.79.12 12.03 5.59.73 3.22-.93 4.51-3.29 5.35-3.67 1.29-7.47 2.12-11.27 2.92-6.25 1.31-12.32 3.22-18.3 5.44-2.75 1.02-5.47 2.16-8.41 2.59-2.02.3-3.92-.04-5.7-.95C1.75 90.57.22 88 0 84.67c-.1-1.69.62-5.62 3.86-12.31C10.7 59.52 28.03 9.67 29.2 6.61c.31-.81.62-1.62.99-2.4.86-1.84 2.73-2.75 4.9-2.41 1.79.28 3.21 1.78 3.56 3.63.46 2.49-.04 4.87-.68 7.24-1.35 4.99-3.01 9.88-4.58 14.79-.79 2.48-1.65 4.93-2.43 7.41-1.33 4.28-2.68 8.56-3.96 12.86-1.45 4.88-2.94 9.74-4.68 14.52-1.3 3.58-2.7 7.11-4.06 10.66-.51 1.32-1.14 2.62-1.44 4.12ZM92.69 11.89c1.62 1.41 2.18 3.36 1.71 5.95-.25 1.35-.52 2.72-.78 4.04-.3 1.54-.62 3.12-.9 4.69-.88 4.97-1.59 9.42-2.16 13.62-.3 2.22-.62 4.48-.93 6.66-.39 2.76-.79 5.62-1.17 8.43-.6 4.47-1.19 8.16-1.87 11.63-1.09 5.54-2.8 12.74-6.44 19.42-1.55 2.85-3.09 4.92-4.84 6.52-1.91 1.75-4.58 3.83-8.27 4.29-.39.05-.78.07-1.17.07-1.56 0-3.09-.4-4.58-1.18-2.02-1.07-3.64-2.77-4.94-5.18-1.74-3.23-2.45-6.68-2.88-9.32-.37-2.29-.79-5.56-.69-8.21-.02-6.38.79-12.43 2.57-19.03 1.39-5.16 3.19-10.28 5.35-15.21 2.08-4.75 4.55-9.46 7.34-13.98 2.42-3.92 5-7.6 7.67-10.94 1.96-2.45 4.05-4.7 6.2-6.67 1.1-1.01 2.35-1.99 4.02-2.32 1.6-.32 3.14 0 4.35.92 1.19.9 1.91 2.28 2.04 3.88.03.34.03.7.02 1.08-.02.37.09.63.35.85Zm-10.78 9.38a99.484 99.484 0 0 0-4.02 5.77c-3.5 5.37-6.58 11.35-9.16 17.78a94.188 94.188 0 0 0-4.67 15.39c-.5 2.34-1.02 5.13-1.11 8v.26c-.09 2.83-.18 5.76.15 8.61.33 2.83.8 5.1 1.49 7.12.25.74.58 1.4.97 1.98.13.19.22.29.26.34.06-.03.17-.09.35-.22 1.16-.82 2.14-1.95 3-3.44 1.28-2.21 2.34-4.66 3.24-7.49 1.4-4.39 2.48-9.21 3.39-15.18.5-3.26.95-6.58 1.39-9.79.36-2.66.74-5.41 1.14-8.11.92-6.24 2.06-13.57 3.56-21.01ZM102.66 66.05c-.44 2.48-.9 4.96-1.33 7.45-.84 4.86-1.67 9.73-2.52 14.59-.14.82-.26 1.65-.59 2.41-.48 1.13-1.27 1.94-2.51 2.24-2.12.52-4.25-1.06-4.37-3.24-.08-1.55.14-3.09.3-4.62.29-2.88.7-5.75 1.04-8.63.54-4.56 1.22-9.11 2.04-13.63.97-5.38 2.07-10.73 3.46-16.02.78-2.95 1.63-5.88 2.6-8.78.34-1.01.82-1.96 1.67-2.65 2.5-2.02 6.09-1.09 7.32 1.89.54 1.31.67 2.7.8 4.09.24 2.55.49 5.09.64 7.65.16 2.67.48 5.32.75 7.98.2 1.95.44 3.89.83 5.81.03.17 0 .38.28.52.45-1.52.89-3.03 1.35-4.53 1.21-3.93 2.52-7.82 3.91-11.69 1.14-3.19 2.35-6.37 3.5-9.56 1.37-3.8 2.94-7.51 4.53-11.21 1.85-4.29 3.74-8.57 5.89-12.72.68-1.31 1.43-2.57 2.32-3.74 2.13-2.8 5.55-3.29 8.4-1.25 1.41 1.01 2.62 3.98 2.02 5.55-.25.67-.45 1.36-.78 1.99-2.71 5.18-4.9 10.6-7.23 15.96-3.06 7.06-5.69 14.28-8.3 21.52-2.49 6.88-4.63 13.87-6.44 20.96-1.04 4.09-1.79 8.25-2.62 12.39-.35 1.72-.95 3.29-2.18 4.64-2.3 2.53-6.73 2.36-8.95-.81-1.02-1.45-1.49-3.13-1.95-4.8-1.5-5.46-2.47-11.03-3.22-16.64-.14-1.04-.31-2.08-.47-3.12h-.2Z" class="cls-1"/><path d="M198.41 64.19c.03 2.46-1.73 4.89-3.98 5.69-1.18.42-2.41.49-3.62.64-8.04 1.03-16.01 2.39-23.83 4.52-5.48 1.49-3.15 1.02-8.62 2.52-2.14.59-4.3 1.14-6.44 1.71-2.76.74-5.51 1.51-8.28 2.23-2.69.7-5.38 1.42-8.15 1.67-2.9.26-5.83-1.28-6.54-4.48-.63-2.84.98-5.73 3.85-6.66 5.62-1.82 11.25-3.64 16.97-5.17 6.75-1.81 4.07-1.32 10.82-3.11 6.52-1.73 13.34-3.2 21.41-4.44 2.92-.32 5.82-.75 8.73-1.09 2.02-.24 3.9.23 5.48 1.51 1.43 1.15 2.09 2.75 2.22 4.44Zm-59.38-14.68c-2.27-.04-3.85-1.43-4.6-3.65-.55-1.65.64-4.43 2.09-5.29 3.22-1.89 18.54-8.01 26.6-11.33 2.71-1.11 5.38-2.32 8.1-3.41 1.57-.63 3.16-1.22 4.83-1.54 1.98-.38 4.08.71 4.9 2.53.85 1.89.3 4.02-1.4 5.31-.96.73-1.98 1.33-3.22 1.47-1.12.13-2.12.69-3.13 1.15-4.46 2.06-9.01 3.89-13.54 5.79-.3.12-.59.27-.89.41.09.1.14.2.18.2 3.18-.1 6.34.27 9.52.29 3.09.01 6.17.27 9.25.42 1.93.09 8.52.48 9.85.77 2.13.48 3.34 1.93 3.43 3.98.1 2.19-.9 3.73-3 4.43-1.65.56-3.39.72-5.09 1.02-3.05.53-23.38 5.63-31.9 9.35-1 .39-2.02.74-3.08.93-3.01.54-5.54-1.4-5-4.92.23-1.54 1.29-2.46 2.72-2.93 1.81-.6 3.56-1.33 5.32-2.04 2.75-1.12 5.55-2.12 8.38-3.04.58-.19 1.16-.37 1.64-.82-1.27.15-2.55.06-3.79.24-1.47.22-2.96.26-4.43.36-4.57.33-9.15.39-13.72.3Z" class="cls-1"/><path d="M218.84 47.48c-.35-.03-.47.19-.61.36-1.84 2.29-3.66 4.59-5.5 6.88-.94 1.17-1.91 2.33-2.87 3.48-.59.71-.97 1.48-1.17 2.4-.91 4.31-1.86 8.62-3.33 12.79-.39 1.1-.85 2.17-1.34 3.23-1.06 2.29-7.61 3.11-7.59-1.15.36-1.27 2.32-7.41 2.59-8.16.37-1.02.55-1.98.17-3.07-.33-.94-.21-1.96.25-2.86.47-.9.97-1.8 1.56-2.62.45-.63.75-1.29.93-2.03 1.73-7.07 3.54-14.11 5.56-21.1 1.54-5.32 3.25-10.59 5.52-15.66.6-1.34 1.23-2.67 1.87-3.99.16-.34.36-.67.6-.95.93-1.09 2.26-1.34 3.45-.68 1.2.67 1.85 2.1 1.43 3.36-.64 1.93-1.33 3.85-2.06 5.75-1.11 2.89-1.99 5.85-2.83 8.83-.8 2.83-1.48 5.69-2.21 8.54-.06.25-.2.5-.04.77.3.14.39-.12.52-.28 3.73-3.73 7.36-7.27 14.96-15.85.4-.24.7-.55.94-.95.73-1.19 1.46-2.38 2.22-3.55 2.17-3.31 4.41-6.57 7.22-9.39 1.3-1.3 2.95-1.39 4.41-.33 1.08.78 1.58 2.38 1.1 3.64-.17.45-.4.9-.68 1.3-2.51 3.5-4.62 7.24-6.7 11-1.94 3.5-3.39 7.23-5.07 10.85-2.36 5.1-3.26 10.57-4.3 16-.82 4.25-1.5 8.53-2.17 12.81-.76 4.84-1.46 9.68-2.15 14.53-.47 3.32-.9 6.64-1.3 9.97-.22 1.83-.4 3.67-.51 5.51-.17 2.85-2.23 5.36-5.03 6.15-3.21.91-6.26-.87-7.44-2.76-1.23-1.96-1.47-4.01-.79-6.17.53-1.66.83-3.37 1.18-5.06 1.56-7.53 3.25-15.03 4.94-22.53 1.35-5.96 2.66-11.92 4.15-17.84.09-.35.29-.7.13-1.15Z" class="cls-1"/><path d="M265.04 5.23c.21.09.41.19.62.26 2.63.94 4.06 3.43 3.29 6.35-.8 3.07-1.37 6.19-1.79 9.32-.36 2.68-.55 5.39-.8 8.08-.54 5.87-.41 11.74-.39 17.62 0 1.91.25 3.83.37 5.74.03.53.03 1.05.06 1.58.02.38.02.76.1 1.12.15.66.38.77.94.41 2.04-1.29 4.09-2.56 6.08-3.93 3.58-2.45 7.17-4.87 10.88-7.12 1.23-.75 2.49-1.36 4.03-1.23 2.33.2 4.29 2.16 4.46 4.51.11 1.53-.44 2.81-1.33 3.97-2.17 2.82-3.88 5.92-5.52 9.07-.43.82-.59 1.64-.46 2.6.39 2.76-.59 4.31-2.91 5.55-1.98 1.06-4.56.72-6.21-.87-1.03-.99-1.56-2.29-1.67-3.74-.03-.34 0-.68-.02-1.02-.06-.68-.27-.8-.87-.46-1.14.66-2.27 1.35-3.4 2.03-.52.31-1.03.63-1.54.94-.95.58-.95.59-.74 1.72.3 1.59.58 3.19.91 4.78.53 2.58 1.08 5.16 1.72 7.72.18.72.5 1.29 1.1 1.77 1.13.9 1.81 2.13 2.07 3.54.58 3.07 1.13 6.15 1.6 9.24.21 1.38.1 2.77-.44 4.11-1.03 2.56-3.47 4.15-6.23 4.3-3.36.18-5.96-2.27-6.98-4.65-1.08-2.5-1.81-5.11-2.37-7.77-1.16-5.57-2.33-11.14-3.19-16.77-.16-1.03-.33-1.12-1.36-.8-2.36.73-4.74 1.24-7.23.89-.68-.09-.83.36-.95.87-.57 2.42-1.18 4.83-1.69 7.27-1.12 5.35-2.17 10.71-3.26 16.07-.2.96-.45 1.91-.86 2.81-.68 1.49-2.02 2.29-3.55 2.02-1.64-.29-2.48-1.13-2.9-2.77-.06-.25-.07-.53-.04-.78.67-4.47 1.16-8.96 1.85-13.43.72-4.69 1.58-9.36 2.56-14.01.18-.86.03-1.4-.76-1.87-1.75-1.05-3.33-2.37-4.76-3.8-2.22-2.23-4.05-4.76-5.09-7.79-.25-.71-.4-1.45-.49-2.2-.19-1.61.34-2.91 1.69-3.81 1.05-.7 2.83-.51 4.02.48 1.24 1.03 2.19 2.31 2.45 3.95.1.63.33 1.16.74 1.62 1.05 1.19 2.22 2.25 3.53 3.16.76.53.88.49 1.1-.45.68-2.78 1.46-5.54 2.25-8.29 1.3-4.57 2.83-9.06 4.41-13.54 2.55-7.25 5.65-14.3 8.14-21.58.62-1.82 1.09-3.69 1.5-5.56.3-1.37.76-2.69 1.31-3.96.58-1.33 1.54-2.31 2.92-2.84l1.05-.42h2.04Zm-11.12 46.2c-.45.22-.46.68-.58 1.05-.78 2.36-1.55 4.73-2.29 7.1-.5 1.62-.98 3.25-1.42 4.88-.21.79 0 .96.79.8 1.08-.21 2.09-.65 3.08-1.11 1.37-.64 1.5-.87 1.32-2.35-.38-3.14-.6-6.29-.65-9.45 0-.32.1-.68-.25-.92ZM305.31 66.01c1.06-5.17 2.3-10.3 3.6-15.42 1.25-4.89 2.68-9.74 4.15-14.57 1.58-5.2 3.31-10.34 5.04-15.48.96-2.86 2.1-5.66 3.87-8.14.82-1.14 1.81-2.13 2.9-3 1.55-1.23 4.18-1.14 5.72.06 1.81 1.41 2.45 3.61 1.57 5.65-.49 1.14-1.13 2.22-1.6 3.37-.6 1.46-1.14 2.95-1.65 4.45-2.09 6.22-4.21 12.42-6.09 18.71-1.68 5.63-3.25 11.3-4.59 17.03-1.37 5.83-2.75 11.67-4.2 17.48-.88 3.55-1.88 7.07-3.2 10.48-.75 1.93-1.59 3.79-3.15 5.29-1.69 1.62-5.21 1.66-6.83-.01-.78-.8-1.39-1.66-1.74-2.74-.56-1.74-.79-3.53-.94-5.33-.19-2.29-.42-4.57-.65-6.85-.25-2.47-.48-4.94-.74-7.41-.23-2.1-.49-4.19-.74-6.28-.28-2.32-.56-4.63-.83-6.95-.37-3.14-.73-6.28-1.08-9.42-.27-2.43-.5-4.87-.74-7.3-.21-2.1-.43-4.19-.62-6.29-.12-1.27-.19-2.55-.29-3.83-.12-1.57-.26-3.15-.39-4.72-.01-.15-.04-.3-.05-.45-.25-4.48-.29-8.96-.23-13.44.02-1.49.86-2.58 2.2-2.93 1.34-.36 2.65.13 3.42 1.36.83 1.32 1.36 2.77 1.58 4.32.09.63.12 1.3-.2 1.89-.6 1.1-.48 2.26-.38 3.43.19 2.06.4 4.12.6 6.18.25 2.47.48 4.94.76 7.41.33 2.88.68 5.76 1.05 8.63.48 3.77.97 7.54 1.49 11.31.62 4.44 1.27 8.87 1.92 13.31.09.63.21 1.25.32 1.88.08.01.17.03.25.04.26-.53.36-1.12.48-1.7ZM388.11 64.19c.03 2.46-1.73 4.89-3.98 5.69-1.18.42-2.41.49-3.62.64-8.04 1.03-16.01 2.39-23.83 4.52-5.48 1.49-3.15 1.02-8.62 2.52-2.14.59-4.3 1.14-6.44 1.71-2.76.74-5.51 1.51-8.28 2.23-2.69.7-5.38 1.42-8.15 1.67-2.9.26-5.83-1.28-6.54-4.48-.63-2.84.98-5.73 3.85-6.66 5.62-1.82 11.25-3.64 16.97-5.17 6.75-1.81 4.07-1.32 10.82-3.11 6.52-1.73 13.34-3.2 21.41-4.44 2.92-.32 5.82-.75 8.73-1.09 2.02-.24 3.9.23 5.48 1.51 1.43 1.15 2.09 2.75 2.22 4.44Zm-59.38-14.68c-2.27-.04-3.85-1.43-4.6-3.65-.55-1.65.64-4.43 2.09-5.29 3.22-1.89 18.54-8.01 26.6-11.33 2.71-1.11 5.38-2.32 8.1-3.41 1.57-.63 3.16-1.22 4.83-1.54 1.98-.38 4.08.71 4.9 2.53.85 1.89.3 4.02-1.4 5.31-.96.73-1.98 1.33-3.22 1.47-1.12.13-2.12.69-3.13 1.15-4.46 2.06-9.01 3.89-13.54 5.79-.3.12-.59.27-.89.41.09.1.14.2.18.2 3.18-.1 6.34.27 9.52.29 3.09.01 6.17.27 9.25.42 1.93.09 8.52.48 9.85.77 2.13.48 3.34 1.93 3.43 3.98.1 2.19-.9 3.73-3 4.43-1.65.56-3.39.72-5.09 1.02-3.05.53-23.38 5.63-31.9 9.35-1 .39-2.02.74-3.08.93-3.01.54-5.54-1.4-5-4.92.23-1.54 1.29-2.46 2.72-2.93 1.81-.6 3.56-1.33 5.32-2.04 2.75-1.12 5.55-2.12 8.38-3.04.58-.19 1.16-.37 1.64-.82-1.27.15-2.55.06-3.79.24-1.47.22-2.96.26-4.43.36-4.57.33-9.15.39-13.72.3Z" class="cls-1"/><path d="M395.68 66.05c-.44 2.48-.9 4.96-1.33 7.45-.84 4.86-1.67 9.73-2.52 14.59-.14.82-.26 1.65-.59 2.41-.48 1.13-1.27 1.94-2.51 2.24-2.12.52-4.25-1.06-4.37-3.24-.08-1.55.14-3.09.3-4.62.29-2.88.7-5.75 1.04-8.63.54-4.56 1.22-9.11 2.04-13.63.97-5.38 2.07-10.73 3.46-16.02.78-2.95 1.63-5.88 2.6-8.78.34-1.01.82-1.96 1.67-2.65 2.5-2.02 6.09-1.09 7.32 1.89.54 1.31.67 2.7.8 4.09.24 2.55.49 5.09.64 7.65.16 2.67.48 5.32.75 7.98.2 1.95.44 3.89.83 5.81.03.17 0 .38.28.52.45-1.52.89-3.03 1.35-4.53 1.21-3.93 2.52-7.82 3.91-11.69 1.14-3.19 2.35-6.37 3.5-9.56 1.37-3.8 2.94-7.51 4.53-11.21 1.85-4.29 3.74-8.57 5.89-12.72.68-1.31 1.43-2.57 2.32-3.74 2.13-2.8 5.55-3.29 8.4-1.25 1.41 1.01 2.62 3.98 2.02 5.55-.25.67-.45 1.36-.78 1.99-2.71 5.18-4.9 10.6-7.23 15.96-3.06 7.06-5.69 14.28-8.3 21.52-2.49 6.88-4.63 13.87-6.44 20.96-1.04 4.09-1.79 8.25-2.62 12.39-.35 1.72-.95 3.29-2.18 4.64-2.3 2.53-6.73 2.36-8.95-.81-1.02-1.45-1.49-3.13-1.95-4.8-1.5-5.46-2.47-11.03-3.22-16.64-.14-1.04-.31-2.08-.47-3.12h-.2ZM455.23 83.2c.63.76 1.32 1.46 1.93 2.24 1.93 2.44 1.04 5.4-1.25 6.87-1.8 1.15-3.67 1.27-5.81-.51-.59-.49-1.05-1.09-1.48-1.73-.52-.78-1.07-1.55-1.64-2.29-.33-.44-.63-.41-.96.06-.21.29-.38.61-.57.91-1.15 1.9-3.83 3.01-6.25 1.8-1.77-.89-2.75-2.39-2.69-4.35 0-1.2.33-2.22.86-3.17.5-.9 1.05-1.77 1.59-2.65.33-.54.36-.68-.02-1.06-1.47-1.44-2.83-3-4.44-4.29-.49-.39-.96-.82-1.36-1.29-1.68-2.01-.62-5.16 1.94-5.76.94-.22 1.86-.17 2.75.27 1.05.52 2.01 1.17 2.95 1.86 1.37 1.02 2.73 2.03 4 3.16.53.47.75.46 1.27-.01.97-.86 1.93-1.74 2.89-2.61.77-.7 1.61-1.29 2.63-1.56 1.64-.44 3.1.04 4.13 1.28 1.07 1.29 1.56 2.88.36 4.73-.7 1.08-1.63 2.01-2.46 3.01-.32.38-.67.73-.95 1.13-.38.52-.37.74.08 1.17.9.88 1.71 1.83 2.52 2.79Zm4.46-79.23c-.42.92-.87 1.82-1.26 2.76-1.23 2.94-2.3 5.93-3.22 8.99-.61 2.05-1.15 4.11-1.61 6.2-.5 2.27-.87 4.56-1.25 6.85-.32 1.88-.53 3.78-.7 5.68-.18 2.01-.41 4.02-.61 6.03-.03.3-.04.6-.04.9 0 .79-.04 1.57-.16 2.35-.09.62-.06 1.27-.07 1.91-.01.79-.02 1.57-.15 2.35-.09.51-.06 1.04-.06 1.57v3.15c0 .5.1.95.4 1.37.83 1.15 1.09 2.44.82 3.84-.17.85-.06 1.72-.1 2.58-.06 1.42-.44 2.72-1.24 3.91-.35.51-.76.92-1.28 1.24-2.2 1.37-4.48 1.12-6.35-.45-1.07-.9-1.59-2.17-1.68-3.57-.06-.93-.09-1.87.11-2.8.03-.15.05-.3.06-.44.09-1.31.16-2.61.27-3.92.11-1.3.25-2.6.38-3.91.1-1.08.19-2.16.29-3.24.08-.82.15-1.64.25-2.46.34-2.67.7-5.34 1.03-8.01.46-3.76 1.13-7.48 1.88-11.18 1.02-5.05 2.45-9.96 4.44-14.71.78-1.87 1.59-3.72 2.46-5.54.48-1.01 1.09-1.96 1.66-2.93.63-1.1 1.48-1.97 2.68-2.45h1.12c.23.12.47.24.7.36 1.43.76 1.91 2.14 1.25 3.61Z" class="cls-1"/></g></svg>