<svg xmlns="http://www.w3.org/2000/svg" xml:space="preserve" style="fill-rule:evenodd;clip-rule:evenodd;stroke-linejoin:round;stroke-miterlimit:2" viewBox="0 0 607 147"><path d="M-10.02-41.655h673.069v207.817H-10.02z" style="fill:none" transform="matrix(.90064 0 0 .70588 9.025 29.404)"/><path d="M117.383 20.086V31.59c-.293 4.559-6.996 4.559-7.289 0V20.086h-6.34v12.75c0 4.306 4.465 7.797 9.961 7.797s9.961-3.491 9.961-7.797v-12.75h-6.293ZM138 6.412v33.48h6.375V6.412H138Zm-10.824 33.48h6.375V6.412h-6.375v33.48ZM95.953 22.477a8.483 8.483 0 0 0 2.813-6.21 8.343 8.343 0 0 0-2.302-5.739c-1.5-1.672-4.214-2.61-7.852-2.61H77.707v31.974h14.086c5.391-.083 9.75-4.161 9.75-9.157-.008-3.636-1.289-6.235-5.59-8.258Zm-5.341 11.845h-6.1V13.431h4.25a3.556 3.556 0 0 1 3.389 3.586 3.382 3.382 0 0 1-3.389 3.382H86.55v5.746h4.062c5.473 0 5.473 8.204 0 8.204v-.027ZM21.487 17.384a9.512 9.512 0 0 0-2.855-6.707 9.52 9.52 0 0 0-6.761-2.726H.203v31.941h6.784V13.431H10.5a4.262 4.262 0 0 1 4.41 4.188 4.369 4.369 0 0 1-4.5 4.174H8.835v7.645l6.75 10.454h7.95l-9.375-13.34a9.472 9.472 0 0 0 7.327-9.168Zm11.865 1.875c-5.787.156-10.395 4.89-10.395 10.675 0 5.79 4.608 10.523 10.395 10.681 4.448 0 7.914-2.013 9.707-5.16l-5.184-2.396a4.349 4.349 0 0 1-3.997 2.422 4.162 4.162 0 0 1-4.343-4.004v-.219h14.054c.043-.426.062-.85.058-1.281.099-6.93-4.467-10.718-10.295-10.718Zm-3.84 8.363a3.9 3.9 0 1 1 7.793 0h-7.793ZM69 39.892V6.412h-6.383v15.846a9.102 9.102 0 0 0-6.414-2.691c-5.25 0-9.539 4.673-9.539 10.433 0 5.758 4.276 10.477 9.539 10.477a9.074 9.074 0 0 0 6.444-2.766v2.25L69 39.892ZM58.012 35c-2.578 0-4.68-2.293-4.68-5.121 0-2.827 2.102-5.152 4.68-5.152 2.582 0 4.687 2.297 4.687 5.129 0 2.836-2.097 5.144-4.687 5.144Z" style="fill:#ee2a53;fill-rule:nonzero" transform="matrix(4.16666 0 0 4.16667 3.09 -22.718)"/></svg>