<svg width="3584" height="1197" viewBox="0 0 3584 1197" fill="none" xmlns="http://www.w3.org/2000/svg">
<path d="M3431.5 25.9966C3423.14 33.7607 3417.17 43.3165 3412.39 54.0669C3407.61 64.8172 3405.23 76.1647 3405.23 88.7068C3405.23 101.249 3407.61 113.194 3412.39 123.944C3417.17 134.694 3423.74 144.25 3431.5 152.014C3439.87 159.778 3448.82 166.348 3460.17 170.529C3470.92 175.306 3482.27 177.098 3494.81 177.098C3507.35 177.098 3518.1 174.709 3529.45 170.529C3540.2 165.751 3549.76 159.778 3557.52 152.014C3565.29 144.25 3571.86 134.694 3576.63 123.944C3581.41 113.194 3583.8 101.249 3583.8 88.7068C3583.8 76.1647 3581.41 64.8172 3576.63 54.0669C3571.86 43.3165 3565.29 33.7607 3557.52 25.9966C3549.16 18.2325 3540.2 11.6629 3529.45 7.48227C3518.7 2.70435 3507.35 0.912598 3494.81 0.912598C3482.27 0.912598 3470.92 3.30159 3460.17 7.48227C3449.42 11.6629 3439.87 18.2325 3431.5 25.9966ZM3442.25 143.056C3435.68 135.889 3430.31 128.125 3426.73 119.166C3423.14 110.207 3420.75 100.054 3420.75 89.304C3420.75 78.5537 3422.55 68.9978 3426.73 60.0392C3430.31 51.0807 3435.68 42.7193 3442.25 36.1497C3448.82 29.58 3456.59 24.2049 3465.55 20.0242C3474.51 15.8436 3484.06 14.0518 3494.81 14.0518C3505.56 14.0518 3514.52 15.8436 3523.48 20.0242C3532.44 24.2049 3540.2 28.9828 3546.17 36.1497C3552.74 42.7193 3558.12 50.4834 3561.7 60.0392C3565.29 69.5951 3567.67 79.151 3567.67 89.304C3567.67 100.054 3565.88 110.207 3561.7 119.166C3558.12 128.125 3552.74 136.486 3546.17 143.056C3539.6 149.625 3531.84 155 3523.48 159.181C3514.52 163.362 3505.56 165.153 3494.81 165.153C3484.66 165.153 3474.51 163.362 3465.55 159.181C3456.59 155 3448.82 150.222 3442.25 143.056Z" fill="#ED3529"/>
<path d="M3527.66 44.5111C3521.69 39.1359 3512.73 37.3442 3500.19 37.3442H3460.17V140.667H3476.3V95.8736H3493.62L3521.69 140.069H3539.01L3509.74 94.6792C3517.51 94.0819 3524.08 91.0957 3528.85 86.915C3534.23 82.1371 3536.62 75.5675 3536.62 66.6089C3536.62 57.0531 3533.03 49.289 3527.66 44.5111ZM3503.17 82.7344C3500.19 82.7344 3496.6 82.7344 3493.02 82.7344H3476.3V49.8862H3497.8C3500.78 49.8862 3503.17 49.8862 3506.16 50.4835C3509.15 51.0807 3511.53 51.6779 3513.33 52.8724C3515.72 54.0669 3517.51 55.8586 3518.7 57.6503C3519.9 59.4421 3520.49 62.4282 3520.49 66.0116C3520.49 70.1923 3519.9 73.1786 3518.1 75.5675C3516.91 77.9565 3514.52 79.7482 3512.13 80.9426C3509.15 81.5399 3506.76 82.1371 3503.17 82.7344ZM278.081 847.798L524.144 110.805H901.002C970.879 110.805 1022.24 116.777 1055.09 128.722C1087.94 140.667 1110.63 163.362 1121.98 195.613C1133.93 228.461 1131.54 267.879 1116.01 315.06C1102.27 355.673 1081.97 390.91 1054.49 420.772C1027.02 450.634 995.365 474.523 958.934 493.038C935.642 504.983 906.377 514.538 869.945 522.302C893.835 531.261 910.558 540.817 920.113 549.775C940.419 567.693 954.753 604.124 959.531 634.583L997.754 847.798H741.539L696.149 622.639C690.176 593.374 683.009 574.262 674.051 565.901C661.509 554.553 644.786 548.581 624.48 548.581H604.174L504.435 847.798H278.081ZM651.953 409.424H747.511C790.513 409.424 826.347 402.257 855.014 376.576C868.751 364.034 878.307 349.7 883.682 333.575C891.446 309.685 890.251 291.768 879.501 278.629C868.751 265.49 842.472 259.517 801.263 259.517H702.121C701.524 259.517 651.953 409.424 651.953 409.424ZM1147.06 480.496C1185.88 364.034 1248 273.851 1333.4 208.752C1418.81 144.25 1519.14 111.402 1633.22 111.402C1747.29 111.402 1830.31 143.056 1872.71 206.96C1915.11 270.865 1916.91 359.853 1878.68 474.523C1851.21 558.137 1814.18 626.222 1769.39 679.376C1724 732.531 1670.25 774.337 1607.54 803.602C1544.83 832.867 1474.95 847.798 1396.71 847.798C1318.47 847.798 1255.76 834.659 1212.16 809.575C1168.56 783.893 1139.9 743.878 1126.16 687.738C1112.42 632.194 1118.99 562.915 1146.47 479.899L1147.06 480.496ZM1364.46 481.093C1340.57 552.762 1336.39 604.721 1352.51 636.375C1368.64 667.432 1399.1 683.557 1444.49 683.557C1489.88 683.557 1532.28 668.029 1568.72 637.57C1604.55 607.11 1635.61 551.567 1661.88 471.537C1683.98 404.646 1686.97 355.673 1670.25 324.616C1653.52 293.56 1622.47 278.032 1577.08 278.032C1531.69 278.032 1492.87 294.157 1455.84 325.213C1418.81 356.27 1388.35 408.827 1364.46 481.093ZM1913.92 598.152L2126.54 585.013C2119.37 619.055 2119.97 644.736 2127.73 662.654C2140.87 691.321 2168.34 705.655 2209.55 705.655C2240.61 705.655 2266.89 698.488 2288.99 683.557C2310.49 669.223 2324.82 651.903 2331.39 632.195C2337.36 614.277 2334.97 597.555 2323.63 582.624C2312.28 568.29 2280.03 554.553 2225.68 541.414C2137.29 519.914 2078.16 491.246 2049.49 455.412C2020.23 419.577 2014.85 373.59 2033.37 318.644C2045.31 282.212 2068.01 247.572 2099.66 215.321C2131.31 183.071 2171.93 157.389 2220.3 138.875C2268.68 120.36 2329.6 111.402 2403.66 111.402C2493.84 111.402 2557.15 128.125 2593.58 162.167C2629.41 196.21 2640.16 249.364 2624.04 322.825L2413.81 334.769C2419.18 303.116 2415 279.823 2402.46 264.892C2389.92 250.559 2367.82 243.392 2337.36 243.392C2311.68 243.392 2290.78 248.767 2274.65 259.517C2257.93 270.267 2247.18 283.407 2241.8 298.935C2238.22 310.283 2240.01 320.436 2247.78 329.394C2254.94 338.95 2276.44 347.311 2312.28 355.673C2400.67 376.576 2462.19 396.882 2496.82 418.383C2531.46 439.286 2552.37 466.162 2560.73 497.218C2569.09 528.275 2566.7 563.512 2553.56 602.333C2538.03 647.723 2511.76 689.529 2474.13 728.35C2435.91 766.573 2391.11 795.838 2339.75 815.547C2287.79 835.256 2228.07 844.812 2159.38 844.812C2038.74 844.812 1963.49 821.519 1933.03 774.935C1902.57 729.545 1896 670.418 1913.92 598.152ZM2622.84 598.152L2835.46 585.013C2828.29 619.055 2828.89 644.736 2836.65 662.654C2849.79 691.321 2877.27 705.655 2918.48 705.655C2949.53 705.655 2976.41 698.488 2997.91 683.557C3019.41 668.626 3033.74 651.903 3040.31 632.195C3046.29 614.277 3043.9 597.555 3032.55 582.624C3021.2 568.29 2988.95 554.553 2934.6 541.414C2846.21 519.914 2787.08 491.246 2758.42 455.412C2729.15 419.577 2723.78 373.59 2742.29 318.644C2754.24 282.212 2776.93 247.572 2808.58 215.321C2840.24 183.071 2880.85 157.389 2929.23 138.875C2977.6 120.36 3038.52 111.402 3112.58 111.402C3202.76 111.402 3266.07 128.125 3302.5 162.167C3338.34 196.21 3349.09 249.364 3332.96 322.825L3122.73 334.769C3128.11 303.116 3123.93 279.823 3111.38 264.892C3098.84 250.559 3076.74 243.392 3046.29 243.392C3020.6 243.392 2999.7 248.767 2983.57 259.517C2966.85 270.267 2956.1 283.407 2950.73 298.935C2947.14 310.283 2948.94 320.436 2956.7 329.394C2963.87 338.95 2985.37 347.311 3021.2 355.673C3109.59 376.576 3171.11 396.882 3205.75 418.383C3240.39 439.286 3261.29 466.162 3269.65 497.218C3278.01 528.275 3275.63 563.512 3262.49 602.333C3246.96 647.723 3220.68 689.529 3183.05 728.35C3144.83 766.573 3100.04 795.838 3048.67 815.547C2996.71 835.256 2936.99 844.812 2868.31 844.812C2747.67 844.812 2672.41 821.519 2641.95 774.935C2611.49 729.545 2604.93 670.418 2622.84 598.152ZM5.74007 1104.61C0.962152 1101.62 -3.21852 1090.28 5.74007 1084.3C8.12902 1082.51 11.1152 1080.72 16.4904 1077.73C35.602 1066.98 83.3812 1046.68 265.539 1028.16C503.838 1004.27 2557.15 988.746 3016.42 1002.48C3144.83 1006.07 3220.08 1007.86 3265.47 1009.05C3313.25 1010.25 3327.58 1010.25 3334.75 1012.04C3341.92 1013.23 3344.31 1024.58 3330.57 1027.57C3328.78 1028.16 3326.99 1028.16 3325.2 1028.16C3304.89 1029.36 2546.4 1055.64 1775.36 1081.32C1695.93 1084.3 1615.3 1086.69 1536.46 1089.08C1083.16 1103.42 648.967 1117.15 393.946 1142.24C257.775 1155.38 190.884 1175.68 164.606 1194.2C164.606 1194.2 158.633 1198.38 152.661 1194.79C145.494 1190.61 7.53178 1107 5.74007 1104.61Z" fill="#ED3529"/>
</svg>
