<svg version="1.0" xmlns="http://www.w3.org/2000/svg" width="266.667" height="266.667" viewBox="0 0 200 200"><path d="M11.7 83.2c-.4 1.2 1.5 8.5 6.9 26.6l2.5 8.2 17.7-.2 17.7-.3v-35l-22.1-.3c-17.2-.2-22.3 0-22.7 1zm16.5 8.9c1.7 1.7 4.2 3.5 5.5 4 3 1.1 2.9 2.7-.1 3.8-1.3.5-3.7 2.7-5.5 4.7-2.3 2.8-3.4 3.5-4.2 2.7-1.3-1.3-.4-3.3 1.5-3.3.7 0 2.5-1.3 4.1-3 2.5-2.6 2.6-3.1 1.4-4.6-.8-.9-2.9-2.3-4.6-3.1-3.2-1.3-4-2.3-2.6-3.6 1-1.1 1.2-.9 4.5 2.4zm10.3 13.3c8.2-.8 10.6-.7 11.7.4.7.7 1 1.2.7 1.3-5.7.6-18.9.2-18.9-.7 0-1.8 1.2-2.4 2.9-1.6.9.5 2.5.7 3.6.6zM70.1 83.7c-4.3 2.1-6.5 7-5.1 10.9 1.4 3.7 3.5 5.1 10 7 9.9 2.9 12.7 6.4 7.8 9.8-3.7 2.6-8.6 2-11.8-1.4-5-5.3-9.4-2.9-5.4 2.9 3.3 4.7 12.2 6.5 18.8 3.7 4.2-1.7 6.6-5.1 6.6-9.1 0-4.3-3.4-7.2-10.9-9.5-7.1-2.1-9.1-3.5-9.1-6.1 0-5.4 7.6-6.6 12-1.9 3.4 3.7 7 4 7 .7-.1-6.9-11.7-11-19.9-7zM103.4 83.9c-1.7 1-4.2 3.4-5.5 5.3-2 2.8-2.4 4.5-2.4 11 0 8.3 1.2 11 6.9 15.2 4.2 3.1 14.3 2.9 18.8-.4 4.1-3 8.4-3.1 12.5-.1 8.5 6.3 23.3 1.9 23.3-6.9 0-4.5-2.9-7-11.5-9.8-7-2.4-8-3-8.3-5.2-.4-3.9 1.2-5.5 5.9-5.5 3.3 0 4.6.6 6.3 2.8 2.5 3.2 6.6 3.7 6.6.8 0-3.1-3.9-7-8.1-8.1-9.5-2.6-19.6 3.9-17.4 11.2 1.3 4 3.6 5.7 10.6 7.8 6.5 2 9.9 4 9.9 6.1 0 .5-.9 1.8-2 2.9-2.9 2.9-7.8 2.5-14.5-1.1-6.5-3.5-9.6-3.4-14.7.2-1.6 1.2-4.9 2.4-7.2 2.6-3.4.4-4.7.1-6.9-1.8-2.7-2.3-5.1-8.2-3.9-9.3.3-.3 5.4-.6 11.4-.6H124v-4c0-5.8-3.4-11.8-7.5-13.6-4.7-1.9-9.4-1.8-13.1.5zm10.5 4.1c2.4 1.2 4.8 6.9 3.4 7.8-.6.4-4.3.6-8.2.4-8-.4-8.6-1.2-4.5-6.1 2.7-3.2 5.9-3.9 9.3-2.1zM170 82.8c-4.4 1.9-8.8 7.1-7.3 8.6 1.4 1.4 4.7.5 6.9-1.9 4.7-5.1 12.4-2.4 12.4 4.3V97h-5.4c-10.2 0-15.6 3.7-15.6 10.6 0 6 3.1 9.4 9 10.1 3.7.4 5.2 0 8.3-2.1 4.6-3.1 4.7-3.1 4.7-.6 0 1.6.7 2 3 2h3v-12.5c0-14.8-1.1-18.4-6.3-20.8-3.5-1.7-9.9-2.1-12.7-.9zm12 22.1c0 4.1-2.1 6.3-7.4 7.7-5.7 1.4-10-5.2-5.8-8.8 2.4-2.1 4-2.6 9-2.7l4.2-.1v3.9z"/></svg>