<svg width="245" height="49" viewBox="0 0 245 49" fill="none" xmlns="http://www.w3.org/2000/svg">
    <path d="M109.155 7.90789C110.023 9.5171 109.008 11.4009 107.254 11.918V11.918C105.604 12.4045 103.881 11.4928 102.9 10.0801C102.807 9.94567 102.71 9.81177 102.61 9.67839C101.877 8.65327 100.874 7.80904 99.6006 7.14573C98.3274 6.48241 96.6972 6.15075 94.7101 6.15075C91.9899 6.15075 89.7231 6.80402 87.9097 8.11055C86.1155 9.39698 85.2184 11.0352 85.2184 13.0251C85.2184 14.794 85.8358 16.191 87.0705 17.2161C88.3051 18.2412 90.2343 19.0955 92.8581 19.7789L99.4559 21.4673C103.43 22.4724 106.391 24.01 108.34 26.0804C110.288 28.1307 111.263 30.7739 111.263 34.01C111.263 36.6633 110.53 39.0352 109.063 41.1256C107.616 43.2161 105.591 44.8643 102.986 46.0704C100.382 47.2764 97.3531 47.8794 93.8998 47.8794C89.3662 47.8794 85.6139 46.8543 82.6429 44.804C80.5059 43.3293 78.9328 41.3657 77.9237 38.9134C77.233 37.2349 78.3733 35.4614 80.1297 35.0039V35.0039C81.9747 34.5233 83.7812 35.7035 84.7759 37.3299C85.3673 38.2967 86.1032 39.0996 86.9836 39.7387C88.7199 40.9849 90.9867 41.608 93.7841 41.608C96.9673 41.608 99.4945 40.9045 101.366 39.4975C103.256 38.0704 104.202 36.3618 104.202 34.3719C104.202 32.7638 103.662 31.4171 102.581 30.3317C101.501 29.2261 99.8418 28.402 97.6039 27.8593L90.1958 26.0503C86.1251 25.0452 83.1349 23.4874 81.225 21.3769C79.3343 19.2462 78.389 16.5829 78.389 13.3869C78.389 10.7739 79.0932 8.46231 80.5015 6.45226C81.9291 4.44221 83.868 2.86432 86.3181 1.71859C88.7874 0.572863 91.5848 0 94.7101 0C99.1087 0 102.562 1.00502 105.07 3.01507C106.759 4.35863 108.121 5.98957 109.155 7.90789Z" fill="black"/>
    <path d="M224.628 48C221.811 48 219.255 47.4472 216.959 46.3417C214.663 45.2161 212.84 43.598 211.49 41.4874C210.139 39.3568 209.464 36.7839 209.464 33.7688C209.464 31.1156 209.966 28.9648 210.969 27.3166C211.972 25.6482 213.313 24.3417 214.991 23.397C216.67 22.4523 218.522 21.7487 220.547 21.2864C222.592 20.804 224.647 20.4221 226.711 20.1407C229.412 19.7789 231.602 19.5075 233.28 19.3266C234.978 19.1256 236.212 18.794 236.984 18.3317C237.775 17.8693 238.171 17.0653 238.171 15.9196V15.6784C238.171 12.7035 237.389 10.392 235.827 8.74372C234.283 7.09548 231.939 6.27136 228.795 6.27136C225.534 6.27136 222.978 7.01507 221.126 8.50251C220.314 9.1549 219.607 9.82663 219.006 10.5177C217.793 11.9138 215.869 12.7639 214.135 12.1188V12.1188C212.278 11.4275 211.324 9.30215 212.4 7.6378C213.26 6.30944 214.249 5.19064 215.367 4.28141C217.316 2.69347 219.438 1.58794 221.734 0.964823C224.049 0.321608 226.325 0 228.563 0C229.991 0 231.631 0.180903 233.483 0.54271C235.354 0.884419 237.158 1.59799 238.894 2.68341C240.65 3.76884 242.106 5.40704 243.264 7.59799C244.421 9.78894 245 12.7236 245 16.402V43.4999C245 45.3858 243.471 46.9146 241.585 46.9146H241.306C239.575 46.9146 238.171 45.5107 238.171 43.7789V40.8549C238.171 40.738 238.076 40.6432 237.959 40.6432V40.6432C237.876 40.6432 237.802 40.6913 237.766 40.7657C237.297 41.7355 236.545 42.77 235.508 43.8693C234.428 45.0151 232.991 45.9899 231.197 46.794C229.402 47.598 227.213 48 224.628 48ZM225.669 41.608C228.37 41.608 230.647 41.0553 232.499 39.9497C234.37 38.8442 235.778 37.4171 236.724 35.6683C237.688 33.9196 238.171 32.0804 238.171 30.1508V25.8184C238.171 25.0956 236.952 24.4214 236.261 24.6332V24.6332C235.296 24.9146 234.177 25.1658 232.904 25.3869C231.65 25.5879 230.425 25.7688 229.229 25.9296C228.052 26.0704 227.097 26.191 226.364 26.2915C224.589 26.5327 222.93 26.9246 221.387 27.4673C219.862 27.9899 218.628 28.7839 217.682 29.8492C216.756 30.8945 216.293 32.3216 216.293 34.1307C216.293 36.603 217.171 38.4724 218.927 39.7387C220.702 40.9849 222.949 41.608 225.669 41.608Z" fill="black"/>
    <path fill-rule="evenodd" clip-rule="evenodd" d="M140.179 47.8794C135.896 47.8794 132.202 46.8945 129.096 44.9246C126.009 42.9347 123.626 40.1608 121.948 36.603C120.289 33.0251 119.459 28.8643 119.459 24.1206C119.459 19.3769 120.289 15.196 121.948 11.5779C123.626 7.9397 125.961 5.10553 128.951 3.07537C131.961 1.02512 135.472 0 139.485 0C141.8 0 144.086 0.402009 146.343 1.20603C148.6 2.01005 150.655 3.31658 152.507 5.12563C154.359 6.91457 155.835 9.28643 156.934 12.2412C158.034 15.196 158.584 18.8342 158.584 23.1558V23.1558C158.584 24.821 157.234 26.1709 155.569 26.1709H126.304C126.402 29.252 126.976 31.8952 128.025 34.1005C129.202 36.5126 130.832 38.3518 132.916 39.6181C134.999 40.8643 137.42 41.4874 140.179 41.4874C141.973 41.4874 143.594 41.2261 145.041 40.7035C146.327 40.2272 147.458 39.5497 148.433 38.671C148.705 38.4259 148.987 38.1938 149.291 37.9903C152.062 36.1358 155.901 33 163 33C172.006 33 175.271 38.4925 176.988 39.7387C178.725 40.9849 180.991 41.608 183.789 41.608C186.972 41.608 189.499 40.9045 191.371 39.4975C193.261 38.0704 194.206 36.3618 194.206 34.3719C194.206 32.7638 193.666 31.4171 192.586 30.3317C191.506 29.2261 189.846 28.402 187.609 27.8593L180.2 26.0503C176.13 25.0452 173.14 23.4874 171.23 21.3769C169.339 19.2462 168.394 16.5829 168.394 13.3869C168.394 10.7739 169.098 8.46231 170.506 6.45226C171.934 4.44221 173.873 2.86432 176.323 1.71859C178.792 0.572863 181.589 0 184.715 0C189.113 0 192.567 1.00502 195.075 3.01507C196.764 4.35863 198.126 5.98957 199.16 7.90789C200.027 9.5171 199.012 11.4009 197.259 11.918V11.918C195.609 12.4045 193.886 11.4928 192.905 10.0801C192.811 9.94567 192.715 9.81177 192.615 9.67839C191.882 8.65327 190.879 7.80904 189.605 7.14573C188.332 6.48241 186.702 6.15075 184.715 6.15075C181.995 6.15075 179.728 6.80402 177.914 8.11055C176.12 9.39698 175.223 11.0352 175.223 13.0251C175.223 14.794 175.84 16.191 177.075 17.2161C178.31 18.2412 180.239 19.0955 182.863 19.7789L189.461 21.4673C193.435 22.4724 196.396 24.01 198.345 26.0804C200.293 28.1307 201.267 30.7739 201.267 34.01C201.267 36.6633 200.534 39.0352 199.068 41.1256C197.621 43.2161 195.595 44.8643 192.991 46.0704C190.387 47.2764 187.358 47.8794 183.904 47.8794C179.371 47.8794 175.619 46.8543 172.648 44.804C170 42.9769 167.5 39 163.5 39C159 39 157.5 40 154.388 42.3317C152.469 43.769 150.722 45.4472 148.311 46.4322C145.899 47.397 143.189 47.8794 140.179 47.8794ZM150.134 13.0251C150.456 13.6834 150.726 14.3706 150.945 15.0869C151.751 17.7279 149.4 20.0201 146.639 20.0201H126.321C126.451 17.8719 126.971 15.8417 127.88 13.9296C128.941 11.6985 130.456 9.88945 132.424 8.50251C134.411 7.09547 136.764 6.39196 139.485 6.39196C141.954 6.39196 144.095 6.98492 145.909 8.17085C147.742 9.35678 149.15 10.9749 150.134 13.0251Z" fill="black"/>
    <path fill-rule="evenodd" clip-rule="evenodd" d="M64 46V3C64 1.34315 62.6569 0 61 0H3.9772C1.98406 0 0.545069 1.90771 1.09263 3.82416L13.3783 46.8242C13.7463 48.1121 14.9235 49 16.2629 49H61C62.6569 49 64 47.6569 64 46ZM35.7522 34.5C35.0383 34.5 34.4085 34.9253 33.846 35.365C33.337 35.7629 32.6962 36 32 36C30.3432 36 29 34.6569 29 33C29 31.3431 30.3432 30 32 30C32.6962 30 33.337 30.2371 33.846 30.635C34.4085 31.0747 35.0383 31.5 35.7522 31.5H48.2478C48.9617 31.5 49.5915 31.0747 50.154 30.635C50.6631 30.2371 51.3038 30 52 30C53.6569 30 55 31.3431 55 33C55 34.6569 53.6569 36 52 36C51.3038 36 50.6631 35.7629 50.154 35.365C49.5915 34.9253 48.9617 34.5 48.2478 34.5H35.7522ZM23.3631 12.6038C23.111 12.3996 23 12.0744 23 11.75C23 10.0931 21.6569 8.75 20 8.75C18.3432 8.75 17 10.0931 17 11.75C17 13.4069 18.3432 14.75 20 14.75C20.6488 14.75 21.333 14.8202 21.8372 15.2284L28.4432 20.5779C28.857 20.913 29 21.4675 29 22C29 22.4248 28.884 22.8593 28.5708 23.1463L21.6283 29.5079C21.1973 29.9029 20.5846 30 20 30C18.3432 30 17 31.3431 17 33C17 34.6569 18.3432 36 20 36C21.6569 36 23 34.6569 23 33C23 32.6123 23.111 32.2184 23.3968 31.9565L30.4769 25.4687C30.8809 25.0985 31.4521 25 32 25C33.6569 25 35 23.6569 35 22C35 20.3431 33.6569 19 32 19C31.5855 19 31.1615 18.9188 30.8394 18.658L23.3631 12.6038Z" fill="black"/>
</svg>
