<svg width="2000" height="1800" viewBox="0 0 2000 1800" fill="black" xmlns="http://www.w3.org/2000/svg">
    <path d="M496.966 414C490.124 414 483.857 414 478.997 414C473.474 414 469 418.477 469 424V441.859C469 447.382 473.474 451.859 478.997 451.859C483.857 451.859 490.124 451.859 496.966 451.859H608.829C615.67 451.859 621.938 451.859 626.798 451.859C632.321 451.859 636.795 447.382 636.795 441.859V424C636.795 418.477 632.321 414 626.798 414C621.938 414 615.67 414 608.829 414H496.966Z" />
    <path d="M496.966 1164.14C490.124 1164.14 483.857 1164.14 478.997 1164.14C473.474 1164.14 469 1168.62 469 1174.14V1192C469 1197.52 473.474 1202 478.997 1202C483.857 1202 490.124 1202 496.966 1202H608.829C615.67 1202 621.938 1202 626.798 1202C632.321 1202 636.795 1197.52 636.795 1192V1174.14C636.795 1168.62 632.321 1164.14 626.798 1164.14C621.938 1164.14 615.67 1164.14 608.829 1164.14H496.966Z" />
    <path d="M516.438 432.447C506.409 432.447 498.279 441.784 498.279 453.301V1162.3C498.279 1173.82 506.409 1183.15 516.438 1183.15H589.075C599.103 1183.15 607.235 1173.82 607.235 1162.3V453.301C607.235 441.784 599.103 432.447 589.075 432.447H516.438Z" />
    <path d="M720.692 414C713.851 414 707.583 414 702.723 414C697.2 414 692.726 418.477 692.726 424V441.859C692.726 447.382 697.2 451.859 702.723 451.859C707.583 451.859 713.851 451.859 720.692 451.859H832.555C839.396 451.859 845.664 451.859 850.524 451.859C856.047 451.859 860.521 447.382 860.521 441.859V424C860.521 418.477 856.047 414 850.524 414C845.664 414 839.396 414 832.555 414H720.692Z" />
    <path d="M720.692 1164.14C713.851 1164.14 707.583 1164.14 702.723 1164.14C697.2 1164.14 692.726 1168.62 692.726 1174.14V1192C692.726 1197.52 697.2 1202 702.723 1202C707.583 1202 713.851 1202 720.692 1202H832.555C839.396 1202 845.664 1202 850.524 1202C856.047 1202 860.521 1197.52 860.521 1192V1174.14C860.521 1168.62 856.047 1164.14 850.524 1164.14C845.664 1164.14 839.396 1164.14 832.555 1164.14H720.692Z" />
    <path d="M740.164 432.447C730.135 432.447 722.005 441.784 722.005 453.301V1162.3C722.005 1173.82 730.135 1183.15 740.164 1183.15H812.802C822.83 1183.15 830.961 1173.82 830.961 1162.3V453.301C830.961 441.784 822.83 432.447 812.802 432.447H740.164Z" />
    <path d="M944.418 414C937.577 414 931.309 414 926.449 414C920.926 414 916.452 418.477 916.452 424V441.859C916.452 447.382 920.926 451.859 926.449 451.859C931.309 451.859 937.577 451.859 944.418 451.859H1056.28C1063.12 451.859 1069.39 451.859 1074.25 451.859C1079.77 451.859 1084.25 447.382 1084.25 441.859V424C1084.25 418.477 1079.77 414 1074.25 414C1069.39 414 1063.12 414 1056.28 414H944.418Z" />
    <path d="M944.418 1164.14C937.577 1164.14 931.309 1164.14 926.449 1164.14C920.926 1164.14 916.452 1168.62 916.452 1174.14V1192C916.452 1197.52 920.926 1202 926.449 1202C931.309 1202 937.577 1202 944.418 1202H1056.28C1063.12 1202 1069.39 1202 1074.25 1202C1079.77 1202 1084.25 1197.52 1084.25 1192V1174.14C1084.25 1168.62 1079.77 1164.14 1074.25 1164.14C1069.39 1164.14 1063.12 1164.14 1056.28 1164.14H944.418Z" />
    <path d="M963.89 432.447C953.861 432.447 945.731 441.784 945.731 453.301V1162.3C945.731 1173.82 953.861 1183.15 963.89 1183.15H1036.53C1046.56 1183.15 1054.69 1173.82 1054.69 1162.3V453.301C1054.69 441.784 1046.56 432.447 1036.53 432.447H963.89Z" />
    <path d="M1168.14 414C1161.3 414 1155.04 414 1150.18 414C1144.65 414 1140.18 418.477 1140.18 424V441.859C1140.18 447.382 1144.65 451.859 1150.18 451.859C1155.04 451.859 1161.3 451.859 1168.14 451.859H1280.01C1286.85 451.859 1293.12 451.859 1297.98 451.859C1303.5 451.859 1307.97 447.382 1307.97 441.859V424C1307.97 418.477 1303.5 414 1297.98 414C1293.12 414 1286.85 414 1280.01 414H1168.14Z" />
    <path d="M1168.14 1164.14C1161.3 1164.14 1155.04 1164.14 1150.18 1164.14C1144.65 1164.14 1140.18 1168.62 1140.18 1174.14V1192C1140.18 1197.52 1144.65 1202 1150.18 1202C1155.04 1202 1161.3 1202 1168.14 1202H1280.01C1286.85 1202 1293.12 1202 1297.98 1202C1303.5 1202 1307.97 1197.52 1307.97 1192V1174.14C1307.97 1168.62 1303.5 1164.14 1297.98 1164.14C1293.12 1164.14 1286.85 1164.14 1280.01 1164.14H1168.14Z" />
    <path d="M1187.62 432.447C1177.59 432.447 1169.46 441.784 1169.46 453.301V1162.3C1169.46 1173.82 1177.59 1183.15 1187.62 1183.15H1260.25C1270.28 1183.15 1278.41 1173.82 1278.41 1162.3V453.301C1278.41 441.784 1270.28 432.447 1260.25 432.447H1187.62Z" />
    <path d="M1391.87 414C1385.03 414 1378.76 414 1373.9 414C1368.38 414 1363.9 418.477 1363.9 424V441.859C1363.9 447.382 1368.38 451.859 1373.9 451.859C1378.76 451.859 1385.03 451.859 1391.87 451.859H1503.73C1510.57 451.859 1516.84 451.859 1521.7 451.859C1527.23 451.859 1531.7 447.382 1531.7 441.859V424C1531.7 418.477 1527.23 414 1521.7 414C1516.84 414 1510.57 414 1503.73 414H1391.87Z" />
    <path d="M1391.87 1164.14C1385.03 1164.14 1378.76 1164.14 1373.9 1164.14C1368.38 1164.14 1363.9 1168.62 1363.9 1174.14V1192C1363.9 1197.52 1368.38 1202 1373.9 1202C1378.76 1202 1385.03 1202 1391.87 1202H1503.73C1510.57 1202 1516.84 1202 1521.7 1202C1527.23 1202 1531.7 1197.52 1531.7 1192V1174.14C1531.7 1168.62 1527.23 1164.14 1521.7 1164.14C1516.84 1164.14 1510.57 1164.14 1503.73 1164.14H1391.87Z" />
    <path d="M1411.34 432.447C1401.31 432.447 1393.18 441.784 1393.18 453.301V1162.3C1393.18 1173.82 1401.31 1183.15 1411.34 1183.15H1483.98C1494.01 1183.15 1502.14 1173.82 1502.14 1162.3V453.301C1502.14 441.784 1494.01 432.447 1483.98 432.447H1411.34Z" />
    <path fill-rule="evenodd" clip-rule="evenodd" d="M984.271 2.65998C994.457 -0.887473 1005.54 -0.887473 1015.73 2.65998L1776.58 267.561C1777.28 267.79 1777.98 268.033 1778.67 268.29L1968.1 334.243C1992.92 342.885 2006 369.909 1997.31 394.599C1988.63 419.293 1961.46 432.303 1936.64 423.661L1809.51 379.4V994.749C1809.51 1122.12 1756.11 1236.25 1680.59 1333.9C1605.15 1431.46 1505.72 1515.17 1408.26 1583.04C1310.55 1651.07 1213.15 1704.33 1140.34 1740.55C1103.88 1758.68 1073.44 1772.61 1052.02 1782.05C1046.46 1784.5 1041.51 1786.64 1037.21 1788.48C1033.23 1790.19 1029.81 1791.63 1026.99 1792.81C1024.07 1794.03 1021.8 1794.96 1020.24 1795.6L1018.42 1796.34L1017.92 1796.54L1017.76 1796.6C1017.75 1796.61 1017.69 1796.63 1000 1752.65C982.315 1796.63 982.3 1796.63 982.283 1796.62L982.085 1796.54L981.582 1796.34L979.763 1795.6C978.196 1794.96 975.926 1794.03 973.005 1792.81C968.335 1790.85 963.676 1788.87 959.026 1786.87C955.672 1785.42 951.983 1783.81 947.981 1782.05C926.561 1772.61 896.119 1758.68 859.659 1740.55C786.853 1704.33 689.454 1651.07 591.744 1583.04C494.28 1515.17 394.85 1431.46 319.408 1333.9C243.894 1236.25 190.486 1122.12 190.486 994.749V379.4L63.36 423.661C38.54 432.303 11.373 419.293 2.68599 394.599C-6.00101 369.909 7.07799 342.885 31.901 334.243L221.326 268.29C221.721 268.142 222.116 268.001 222.515 267.865L223.419 267.561L984.271 2.65998ZM1714.28 994.75V346.245L1000 97.557L285.723 346.245V994.749C285.723 1094.75 327.552 1189.05 394.893 1276.13C462.307 1363.31 553.35 1440.66 646.361 1505.42C739.124 1570.02 832.199 1620.97 902.249 1655.81C937.216 1673.2 966.297 1686.51 986.543 1695.43C991.598 1697.65 996.1 1699.6 1000 1701.28C1003.9 1699.6 1008.4 1697.65 1013.46 1695.43C1033.7 1686.51 1062.78 1673.2 1097.75 1655.81C1167.8 1620.97 1260.88 1570.02 1353.64 1505.42C1446.65 1440.66 1537.69 1363.31 1605.11 1276.13C1672.45 1189.05 1714.28 1094.75 1714.28 994.75Z" />
    <path d="M1000 1752.65L982.283 1796.62C993.635 1801.14 1006.41 1801.12 1017.76 1796.6L1000 1752.65Z" />
</svg>
