<svg xmlns="http://www.w3.org/2000/svg" viewBox="0 0 400 266.667"><path fill="#312d2d" d="M16.736 32.995c-.19.077-.543.373-.782.658l-.436.518-.013 12.915c-.011 11.065.022 12.983.233 13.39.612 1.184 2.184 1.405 3.223.454l.622-.571.045-11.681.045-11.68h31.789l31.788.001 1.5-.508c6.133-2.075 13.357-2.117 20.417-.117l1.916.543 7.525.045 7.525.045.984-1.045c.541-.575 1.423-1.514 1.959-2.087l.975-1.042-54.484.011c-29.966.006-54.64.074-54.831.151m143.416.144c.574 1.073 3.71 1.136 9.598.193 1.1-.176 2.262-.348 2.583-.383.321-.034-2.325-.074-5.881-.089-6.219-.026-6.458-.015-6.3.279m16.398-.123c1.714.404 3.426 1.606 4.464 3.136l.569.839 99.372.005 99.372.004.045 11.68.045 11.679.622.571c1.039.951 2.611.73 3.223-.454.211-.407.244-2.326.233-13.404l-.013-12.93-.562-.613-.561-.612-103.721-.025c-61.409-.015-103.463.035-103.088.124M55.083 55.74c-3.326.866-8.182 2.951-8.62 3.701-.922 1.578-1.365 5.746-.88 8.282.138.718.25 1.328.25 1.354 0 .043-1.899 1.155-3.5 2.049-5.928 3.314-5.663 2.904-5.786 8.911-.057 2.798-.145 4.165-.274 4.26-.104.076-1.24.614-2.523 1.195-3.977 1.798-4.291 2.323-5.261 8.785a612.08 612.08 0 0 1-.679 4.39c-.495 3.1-.581 5.044-.246 5.523.434.619.359.744-1.566 2.612l-1.835 1.781.002 1.678c.003 3.187 1.199 9.494 2.359 12.44.279.71 6.804 4.449 9.566 5.482.749.281.987.473 1.348 1.088.377.643.662.86 2.042 1.554a76.666 76.666 0 0 1 2.603 1.374c3.017 1.71 10.51 5.188 11.382 5.284l.909.1.655 1.75c.36.963.854 2.3 1.098 2.971.71 1.957 1.754 2.557 3.877 2.23.845-.13.998-.098 2.056.424 1.172.579 3.927 1.786 6.44 2.823 1.771.731 2.108 1.006 6.5 5.304 4.937 4.832 6.844 6.477 8.208 7.08l.734.325.237 3.63c.439 6.713.259 11.259-.531 13.413-.47 1.28-2.591 2.511-3.508 2.036-.584-.301-1.484-.208-1.813.189-.113.136-1.415 1.197-2.892 2.357-10.074 7.909-9.638 7.286-7.41 10.591l.981 1.455-.495.878c-3.104 5.508-5.039 13.877-3.936 17.022l.285.811-1.793 3.106c-3.015 5.224-4.734 8.312-4.734 8.505 0 .335-.256.192-.99-.556-2.003-2.042-3.862-.482-5.512 4.627l-.36 1.113H19.667v-20.376l-2.042.12c-1.123.067-2.059.137-2.079.156-.22.207-.027 22.82.198 23.255.552 1.066-.426 1.011 17.936 1.011h16.697l-.103.625a75.376 75.376 0 0 0-.284 2.042c-.279 2.183-.232 2.088-1.365 2.768-.573.344-2.472 1.582-4.219 2.751-4.914 3.287-5.381 3.927-3.684 5.053 1.969 1.307 3.25 1.446 13.04 1.414 4.118-.014 8.208-.01 9.088.008 1.639.033 2.15-.142 2.15-.738 0-1.139 4.02-7.005 5.202-7.592a100.28 100.28 0 0 0 2.631-1.443c1.146-.645 3.704-2.008 5.685-3.03l3.602-1.858h41.197l.489.709c3.855 5.583 12.873 7.545 23.166 5.041l1.834-.446.53.39c.292.214.668.652.836.973.456.873 3.356 3.966 5.229 5.579l1.651 1.421 4.516-.001c2.483-.001 5.715-.072 7.182-.158 1.467-.085 4.188-.207 6.047-.271l3.38-.116.35-.492c1.174-1.648.97-1.902-5.194-6.457l-4.75-3.511-.448-1.205c-.246-.663-.452-1.262-.458-1.331-.006-.068 48.443-.125 107.665-.125 95.919 0 107.728-.027 108.163-.252 1.138-.589 1.063.408 1.025-13.639l-.03-11.475-.554-.554c-1.025-1.026-2.532-.873-3.277.333-.327.53-.336.807-.336 10.982v10.439h-106.5c-58.575 0-106.496-.057-106.491-.125.005-.069 1.112-.964 2.459-1.99 10.524-8.011 17.904-16.413 22.719-25.862a144.29 144.29 0 0 1 1.901-3.607c1.115-2.002 2.294-5.171 3.169-8.517.061-.236 4.733-.346 24.577-.584 8.387-.1 15.297-.231 15.354-.29.058-.06.94-1.706 1.962-3.659l1.856-3.551-.234-17.5c-.129-9.625-.261-17.525-.294-17.556-.034-.03-6.23-.111-13.769-.178l-13.709-.122v16.017l.875.094c.482.052 2.038.226 3.459.387l2.583.293-.062 2.333c-.106 4.018-.278 7.229-.393 7.344-.116.116-3.305-.057-9.985-.542l-3.941-.285-.1-4.175c-.093-3.92-.459-32.832-.5-39.592l-.019-3.083 3.75-.194c8.398-.435 10.578-.534 10.628-.483.06.059.678 4.458 1.114 7.927.156 1.237.351 2.418.434 2.625l.15.375h18.987l.091-.709c.05-.389.206-2.621.347-4.958.141-2.338.402-6.612.581-9.5.178-2.888.361-5.888.407-6.667l.082-1.416-2.757-2.25a303.88 303.88 0 0 0-3.156-2.553c-.396-.299-14.324-.21-24.373.156l-2.715.099-.937 1.274c-4.924 6.699-12.592 11.187-22.07 12.918l-2.063.377v8.156c0 4.486.057 17.643.126 29.239l.125 21.084-.853.5c-6.419 3.759-3.082 9.879 4.149 7.61l1.046-.328.774.525c1.316.894 1.325 1.334.108 4.927-3.428 10.123-11.355 20.1-23.036 28.994-1.416 1.078-1.632 1.188-2.333 1.188h-.773l-.983-1.875c-2.376-4.528-7.193-12.31-10.747-17.364a265.174 265.174 0 0 1-2.229-3.196c-.089-.145.136-.283.759-.464 3.791-1.102 12.084-8.837 12.881-12.014.105-.42.163-.448.717-.35 3.137.555 4.127.317 4.571-1.095.861-2.739.724-2.572 3.6-4.395 4.664-2.958 5.022-3.501 4.699-7.142-.107-1.203-.266-3.875-.354-5.938-.088-2.062-.27-4.425-.404-5.25-.27-1.651-.128-1.452-2.43-3.416-.483-.411-1.52-1.536-2.306-2.5-2.7-3.311-3.104-3.72-4.383-4.444a432.807 432.807 0 0 1-2.557-1.462c-1.859-1.073-4.301-1.848-5.084-1.613-.529.158-6.725 3.624-8.75 4.894-1.339.84-2.099 1.479-2.259 1.899-.144.38-.209.392-2.031.392-3.497 0-3.871.663-3.214 5.7.135 1.036.284 2.483.331 3.216.059.911.18 1.455.38 1.716.264.345 3.66 1.987 6.258 3.026.934.374.956.396.704.739-.953 1.296-1.069 1.786-.732 3.099.195.759-4.696 1.261-6.687.686-1.077-.31-4.326-3.423-6.974-6.682-3.679-4.529-7.805-8.607-9.695-9.585-.241-.124-2.247-.795-4.459-1.49-9.207-2.893-13.985-5.048-18.58-8.379l-.792-.574v-2.883l.408.601c3.566 5.248 22.295 7.987 41.445 6.062 9.907-.996 12.322-2.54 15.487-9.896.28-.652.448-.858.645-.79.146.05.94.327 1.765.616 8.254 2.886 16.12-3.369 16.156-12.849.024-6.23-3.199-10.573-7.63-10.282-1.279.084-1.305.079-1.199-.274.06-.198.19-.923.29-1.61.1-.688.27-1.363.378-1.5.502-.64 2.989-6.839 3.659-9.119.318-1.081.732-2.452.921-3.048 2.469-7.776-1.046-19.846-8.42-28.917-3.664-4.506-3.529-4.365-5.964-6.192-7.378-5.532-14.686-8.798-21.941-9.806-5.991-.832-6.597-.837-11.233-.081-8.494 1.385-15.711 3.842-20.6 7.012-.779.506-2.011 1.285-2.737 1.731-4.006 2.464-9.262 7.826-10.935 11.155-.272.541-.495.909-.495.816 0-.265-1.59-2.297-2.806-3.587-1.984-2.103-10.52-8.604-12.876-9.806-1.073-.547-2.49-.33-4.438.68-.518.269-.952.471-.964.45l-.495-.872C69.21 64.856 60.73 56.189 58.94 55.509c-.737-.28-2.238-.19-3.857.231m184.288 13.077c-5.328 1.985-5.802 13.481-.655 15.908 4.582 2.16 8.46-1.086 8.733-7.308.276-6.28-3.504-10.303-8.078-8.6m-22.704 5.999c0 5.6.022 6.055.349 7.125 1.284 4.198 7.421 4.574 9.299.57l.435-.928.047-6.375.048-6.375h-2.326l-.051 6.042c-.063 7.455-.309 8.196-2.718 8.196-2.39 0-2.653-.798-2.721-8.279l-.055-5.959h-2.307v5.983m38.5-3.066v2.917h1.988l.048-1.792.047-1.792 1.21-.049 1.211-.049-.044 5.883-.044 5.882-1.291.049-1.292.048V85h7.667v-2.153l-1.292-.048-1.292-.049V71.083h2.334l.047 1.792.047 1.792h2.156v-5.834h-11.5v2.917m19.333 0v2.917h2.333V71h2.334v11.833H276.5V85h7.667v-2.153l-1.292-.048-1.292-.049V71.083l1.125-.049 1.125-.049v3.682h2.334v-5.834H274.5v2.917m23.948-2.798c-.067.11-1.478 4.599-2.609 8.298-.168.55-.763 2.462-1.322 4.25-.559 1.787-1.016 3.306-1.017 3.375 0 .226 2.505.145 2.569-.083.033-.115.28-.959.55-1.875l.491-1.667 2.768-.046 2.768-.045.599 1.92.6 1.921h1.244c1.397 0 1.37.038.931-1.297-.544-1.654-1.014-3.155-2.52-8.036-.806-2.613-1.617-5.2-1.804-5.75l-.338-1-1.415-.048c-.779-.027-1.451.011-1.495.083m14.633.756c.061.482.253 1.775.425 2.875.173 1.1.47 3.013.661 4.25.19 1.238.488 3.15.662 4.25.174 1.1.367 2.432.429 2.959l.114.958h1.311c1.227 0 1.315-.024 1.382-.375.107-.558.707-3.513 1.033-5.086.366-1.772.365-1.774 1.156 2.097l.67 3.281 1.288.048c.708.027 1.288-.002 1.288-.064 0-.063.148-1.022.329-2.132.181-1.111.486-3.032.677-4.269.191-1.238.454-2.888.583-3.667.129-.779.346-2.204.482-3.166.137-.963.299-1.997.361-2.299l.113-.549-1.314.049-1.313.049-.125 1c-.069.55-.27 2.012-.448 3.25-.177 1.237-.452 3.168-.61 4.291-.309 2.195-.466 2.501-.641 1.25-.094-.675-.616-3.609-.861-4.84-.072-.362-.141-.38-1.274-.334l-1.197.049-.215 1.167c-.776 4.222-1.219 5.79-1.211 4.292.001-.252-.147-1.509-.329-2.792l-.669-4.703c-.186-1.304-.338-2.447-.338-2.542 0-.103-.507-.172-1.266-.172h-1.265l.112.875m24.252-.166c-.099.389-.324 1.12-.5 1.625-.176.504-.777 2.416-1.337 4.25-1.611 5.277-2.502 8.116-2.758 8.795-.131.345-.238.664-.238.708 0 .044.588.08 1.307.08h1.307l.204-.708c.112-.39.363-1.252.558-1.917l.354-1.208h5.551l.455 1.541c.733 2.483.564 2.292 2.022 2.292 1.237 0 1.262-.008 1.142-.375-.119-.364-1.305-4.152-3.17-10.125a914.776 914.776 0 0 1-1.33-4.292l-.42-1.375h-2.967l-.18.709m-94.416 1.61c2.784 1.548 2.83 9.633.065 11.463-2.002 1.325-4.377.011-5.075-2.808-1.412-5.712 1.44-10.641 5.01-8.655m57.559 2.608c.278.978.7 2.408 1.36 4.602.073.246.09.489.038.542-.144.144-4.041.116-4.04-.029 0-.069.266-.988.59-2.042l1.018-3.32c.48-1.57.521-1.56 1.034.247m39.334.867c.4 1.351.831 2.788.958 3.194.385 1.225.454 1.179-1.768 1.179-1.202 0-2-.066-2-.164 0-.16.381-1.498 1.271-4.461.241-.802.475-1.627.52-1.833.147-.679.284-.399 1.019 2.085m-216.143 2.632c2.352.943 4.379 2.939 5.984 5.894 1.376 2.534 1.315 2.48 4.893 4.242 4.828 2.378 6.786 3.108 12.304 4.588l1.932.518.901-.317a24.756 24.756 0 0 0 1.827-.747c4.659-2.168 9.455-.44 11.671 4.207 4.309 9.037 1.41 36.846-4.442 42.613-2.646 2.607-5.735 3.078-8.954 1.368-1.868-.993-3.024-2.646-5.288-7.555-1.236-2.684-2.506-5.032-3.238-5.993-.319-.417-.79-.665-2.287-1.204a725.95 725.95 0 0 1-5.553-2.045c-2.017-.751-5.58-1.925-7.917-2.607a388.108 388.108 0 0 1-5.814-1.738l-1.563-.496-1.328.442c-.73.243-2.332.959-3.561 1.59l-4.504 2.313c-6.42 3.297-11.845 2.406-14.307-2.351l-.485-.935.279-1.268c.318-1.448.239-1.823-.537-2.551l-.51-.477.24-1.583c.522-3.448 1.779-6.913 4.383-12.084 4.675-9.283 10.818-17.775 15.174-20.978.266-.195.963-.719 1.55-1.164 2.764-2.098 6.43-2.772 9.15-1.682m-8.599 16.978c-4.874 2.122-4.725 15.481.194 17.36 1.123.429 3.058.037 2.202-.446-.852-.481-2.457-3.135-2.882-4.767-1.258-4.83 2.8-5.965 5.937-1.66l.467.64.112-.445c.186-.744-.046-4.766-.338-5.836-1.048-3.839-3.401-5.843-5.692-4.846m35.749 11.579c-2.302.737-5.074 3.427-6.586 6.392-.463.909-.457.912.769.434 1.958-.763 4.402-.455 5.123.646 1.241 1.893-1.939 5.543-5.563 6.387-1.359.316-1.333.283-.725.911 3.022 3.117 10.003-2.522 11.425-9.229.89-4.199-1.055-6.625-4.443-5.541m101.791 3.219c-.052 1.127-.174 16.148-.272 33.382-.097 17.233-.225 34.896-.283 39.25l-.106 7.916 2.151-.039c1.184-.022 7.215-.155 13.402-.295l18.417-.417c3.941-.089 8.904-.211 11.028-.271l3.862-.109 4.01-4.717 4.01-4.717.169-5.718c.093-3.144.244-7.929.335-10.633.091-2.705.242-7.729.337-11.167.094-3.437.242-8.275.329-10.75.087-2.475.247-7.819.355-11.876l.197-7.377-3.894-5.158-3.894-5.157-.839-.089c-1.191-.126-11.35-.977-15.005-1.258a710.292 710.292 0 0 1-5.084-.416c-4.583-.394-8.692-.735-12.018-.996-1.686-.132-4.453-.357-6.148-.499l-6.084-.509c-1.65-.137-3.423-.29-3.941-.339l-.941-.089-.093 2.048m70.731-.922c-.295.625-.988 2.15-1.54 3.387l-1.002 2.25.226 36.082.227 36.082 3.5 1.864 3.5 1.865 23.167-.166c12.741-.091 23.214-.217 23.272-.28.138-.148 1.135-2.032 2.629-4.968l1.198-2.354-.172-5.563c-.329-10.634-.341-10.807-.742-10.894-.194-.042-2.114-.19-4.269-.329-3.447-.223-6.793-.456-12.78-.89l-1.696-.123-.172 1.003c-.094.553-.326 2.017-.516 3.254-.189 1.238-.515 3.3-.723 4.584l-.378 2.333-1.326-.054a157.58 157.58 0 0 1-4.325-.292c-1.65-.131-4.125-.323-5.5-.426-1.375-.103-2.52-.204-2.545-.224-.05-.042-.278-11.112-.542-26.254-.098-5.638-.246-13.512-.33-17.5-.083-3.987-.098-7.299-.034-7.361.106-.101 7.172.177 12.357.487l2.073.124.285 1.917c.157 1.054.451 3.004.654 4.333.202 1.329.456 3.054.563 3.833l.195 1.417 9.787.043 9.787.043.002-.71c.002-.39.114-2.359.25-4.376.3-4.456.888-13.412 1.022-15.583l.097-1.584-2.477-2.181a1356.9 1356.9 0 0 0-3.081-2.707l-.603-.525-17.564-.243c-9.659-.134-20.797-.29-24.75-.348l-7.187-.103-.537 1.137m-41.673 21.131c4.333 1.235 7.916 2.282 7.961 2.328.046.045-.038 6.029-.187 13.297-.149 7.268-.32 15.817-.38 18.998l-.11 5.783-.85.179c-.467.099-2.688.588-4.933 1.087-6.222 1.384-8.58 1.894-8.606 1.863-.013-.016-.107-5.167-.211-11.446-.271-16.556-.497-28.526-.595-31.625-.048-1.489-.06-2.708-.027-2.708.032 0 3.605 1.01 7.938 2.244m-169.956 37.65c1.343 1.245 1.446 3.65.208 4.888-1.28 1.28-2.918-.18-2.918-2.601 0-2.214 1.46-3.446 2.71-2.287m5.623 1.531c.688.135 1.67.326 2.182.424l.933.177.109 3.862c.06 2.124.109 4.679.109 5.678l.001 1.815-1.125-.104c-.619-.057-1.783-.154-2.587-.215-1.779-.136-1.577.631-1.69-6.432l-.09-5.62.454.085c.25.046 1.017.195 1.704.33M79.164 188.84c-2.081 4.728-5.737 11.119-6.046 10.568-.587-1.05.619-6.853 1.594-7.666.296-.247 1.538-1.384 2.76-2.527 1.222-1.142 2.256-2.043 2.298-2.001.041.042-.231.774-.606 1.626m-8.826 11.295c.002.247.181.968.398 1.604l.393 1.155-1.748 2.595c-1.673 2.484-1.743 2.562-1.639 1.844.47-3.252 2.577-9.096 2.596-7.198m42.853 16.56c.75.709 3.529 2.512 5.6 3.633l1.683.911.097 1.589c.082 1.368.57 4.936.872 6.38l.096.459h-15.186c-8.353 0-15.186-.058-15.186-.13 0-.071 1.368-.874 3.041-1.784 4.647-2.529 5.97-3.311 9.042-5.34 1.558-1.029 3.524-2.258 4.368-2.732.844-.473 2.306-1.451 3.25-2.174.943-.722 1.726-1.319 1.739-1.326.014-.008.276.224.584.514m15.529 8.702c2.615 1.442 6.78 3.987 6.78 4.143 0 .07-1.72.127-3.821.127h-3.822l-.359-.959c-.334-.89-.998-3.654-.998-4.155 0-.35.181-.281 2.22.844m13.537 8.614c.41.663-6.042.736-8.09.091-.691-.217-.406-.237 3.615-.252 2.929-.011 4.401.042 4.475.161"/><path fill="#b7271b" d="M144.083 20.673c-4.589.722-17.1 10.022-21.785 16.194-.21.276-.76.963-1.223 1.526a89.43 89.43 0 0 0-1.629 2.058c-1.032 1.355-.901 1.326-2.445.549-1.249-.627-7.2-3.167-7.423-3.167-.054 0-.488-.178-.963-.397-2.682-1.231-10.199-2.604-14.25-2.602-5.341.003-12.132 1.972-15.779 4.575-6.005 4.285-8.393 14.364-6.147 25.941l.44 2.268.992-.309c1.862-.58 2.254-.462 5.147 1.537 4.401 3.041 8.932 6.614 10.509 8.285 1.216 1.29 2.806 3.322 2.806 3.587 0 .093.223-.275.495-.816 1.673-3.329 6.929-8.691 10.935-11.155.726-.446 1.958-1.225 2.737-1.731 4.889-3.17 12.106-5.627 20.6-7.012 4.636-.756 5.242-.751 11.233.081 7.255 1.008 14.563 4.274 21.941 9.806 2.435 1.827 2.3 1.686 5.964 6.192 7.374 9.071 10.889 21.141 8.42 28.917-.189.596-.603 1.967-.921 3.048-.67 2.28-3.157 8.479-3.659 9.119-.108.137-.278.812-.378 1.5-.1.687-.227 1.401-.283 1.585-.097.32-.029.336 1.449.334 1.782-.003 2.898.4 4.091 1.478.788.712.794.713 4.72.348 13.072-1.214 22.281-5.709 28.204-13.766 7.661-10.421 4.064-21.154-9.881-29.482-3.79-2.263-11.454-5.786-15.208-6.989-.344-.111-.625-.229-.625-.263s.146-.834.324-1.779c.432-2.287.843-5.271 1.419-10.3.579-5.052.508-12.845-.146-16.112-1.852-9.241-5.426-12.027-13.446-10.481-2.263.437-6.335.804-7.963.719-1.829-.095-1.798-.072-3.804-2.9-1.09-1.537-3.03-4.262-4.563-6.41-2.658-3.722-5.153-4.724-9.905-3.976m-23.916 56.118c-.413.022-1.18.126-1.705.23l-.955.19.504.636c.816 1.03 2.266 3.706 3.606 6.653 2.021 4.445 3.628 7.164 4.431 7.501 7.687 3.222 11.421 4.665 16.44 6.354l5.904 1.986 1.262-.424c1.31-.44 2.956-1.23 6.513-3.125 2.32-1.236 3.924-1.886 5.384-2.181l.978-.198-.689-.865c-2.431-3.053-6.515-3.888-10.332-2.111-.509.236-1.331.573-1.827.747l-.901.317-1.932-.518c-5.518-1.48-7.476-2.21-12.304-4.588-3.578-1.762-3.517-1.708-4.893-4.242-2.42-4.456-5.579-6.575-9.484-6.362m-22.876 25.334c-2.418 4.992-3.379 7.725-3.881 11.042l-.24 1.583.51.477c.775.726.855 1.104.54 2.539-.636 2.892 2.575 5.948 6.893 6.56 1.387.196 1.367.221.739-.877-1.351-2.36-2.651-7.637-3.042-12.341-.112-1.341-.144-4.083-.085-7.066.054-2.682.075-4.875.048-4.875-.027 0-.694 1.331-1.482 2.958m144.481 10.825c-.058.058-.105.563-.105 1.122 0 .559-.147 3.265-.326 6.014-.179 2.748-.442 6.947-.585 9.331-.144 2.383-.302 4.652-.352 5.041l-.091.709h-15.146l.01.375c.006.206.14 1.2.297 2.208l.286 1.833 9.529.043 9.529.043.085-.543c.046-.298.202-2.493.345-4.876.229-3.798.735-11.992 1.004-16.279l.091-1.446-1.63-1.332a303.56 303.56 0 0 1-2.233-1.839c-.332-.28-.65-.462-.708-.404m137.668 2.015c-.059.707-.257 3.61-.44 6.452-.184 2.841-.445 6.816-.581 8.833-.136 2.017-.248 3.985-.25 4.375l-.002.708h-7.845c-7.39 0-7.84.017-7.765.292.044.16.213 1.173.376 2.25l.295 1.958h19.402l.106-1.875c.118-2.082.635-9.944 1.017-15.458.371-5.357.518-4.674-1.364-6.333a563.643 563.643 0 0 0-2.224-1.952l-.618-.534-.107 1.284m-71.084 3.624 2.193 2.922-.197 7.369a1845.93 1845.93 0 0 1-.355 11.87c-.087 2.475-.235 7.313-.329 10.75-.095 3.438-.246 8.462-.337 11.167a3178.65 3178.65 0 0 0-.335 10.633l-.169 5.718-4.01 4.717-4.01 4.717-3.862.109c-2.124.06-7.124.182-11.112.272-12.103.273-29.081.695-29.108.723-.084.091-.123 4.435-.04 4.517.055.056 4.218-.011 9.25-.149 5.031-.139 13.086-.329 17.898-.424 4.813-.095 11.15-.246 14.084-.335 2.933-.089 5.795-.162 6.359-.163l1.026-.002 2.313-2.708c1.271-1.49 3.082-3.62 4.023-4.734l1.711-2.026.078-2.558c.044-1.406.229-7.545.412-13.641.183-6.096.48-15.846.66-21.666.18-5.821.376-12.616.436-15.101l.109-4.517-3.803-5.066c-4.152-5.531-3.96-5.31-4.618-5.314-.435-.002-.344.152 1.733 2.92m-144.348 1.286c-1.661 3.044-4.992 8.158-6.909 10.608-2.359 3.014-6.382 6.776-8.146 7.617-.879.419-.608.824 1.14 1.702 7.393 3.71 12.482-3.384 14.473-20.177.119-.996.124-.999-.558.25m178.441 3.232c-.072.072-.088 1.596-.036 3.387.115 3.954.362 17.134.584 31.089.09 5.684.21 11.771.268 13.527l.104 3.193 1.94.111c1.068.061 2.054.142 2.191.18.22.061.237-.61.138-5.637-.061-3.139-.196-10.582-.301-16.54a4857.43 4857.43 0 0 0-.341-17.747c-.084-3.802-.099-6.963-.033-7.025.066-.061 2.431.002 5.254.141 2.824.139 5.165.221 5.204.182.038-.038-.065-1.003-.229-2.144l-.298-2.074-1.655-.108a375.4 375.4 0 0 0-6.239-.296c-2.521-.102-4.997-.228-5.502-.278-.505-.05-.978-.033-1.049.039m-124.282 1.157c-.229.026-3.192.177-6.584.334-3.391.158-6.223.336-6.293.396-.07.061-.051 5.018.043 11.016.093 5.999.24 16.484.326 23.301.086 6.816.179 12.415.207 12.44.028.026 1.019.103 2.203.17l2.153.122-.112-11.813c-.062-6.497-.189-16.042-.283-21.211-.094-5.169-.134-9.434-.089-9.479.045-.045 2.414-.214 5.265-.376 2.85-.162 5.21-.322 5.244-.356.034-.034-.081-1.073-.256-2.31a621.66 621.66 0 0 1-.322-2.29c-.003-.047-.883-.015-1.502.056m55.588 5.444c.098 3.099.324 15.069.595 31.625.104 6.279.199 11.43.212 11.446.033.04 4.311-.927 4.354-.984.083-.11-.487-32.501-.663-37.661-.093-2.721-.091-2.724.935-2.391.401.131 2.791.815 5.312 1.519 2.521.705 4.715 1.349 4.875 1.432.268.139.292.018.292-1.51 0-1.438-.04-1.673-.292-1.749-.947-.282-15.596-4.435-15.646-4.435-.033 0-.022 1.219.026 2.708M102.333 148.53v1.442l.792.574c4.595 3.331 9.373 5.486 18.58 8.379 2.212.695 4.218 1.366 4.459 1.49 1.89.978 6.016 5.056 9.695 9.585 1.489 1.832 2.777 3.195 5.145 5.441 1.334 1.267 1.907 1.45 4.579 1.465 2.734.015 2.758 0 1.951-1.195-.357-.529-1.308-2.049-2.113-3.378-.806-1.329-1.68-2.663-1.943-2.964-.263-.301-.478-.654-.478-.785s-.716-1.506-1.592-3.056l-1.591-2.818.44-1.73c.422-1.657 1.238-6.063 1.241-6.703.002-.261-.09-.291-.623-.205-3.067.499-13.297.37-19.354-.243-10.53-1.066-16.703-3.084-18.78-6.139l-.408-.601v1.441M241 154.25c.001 1.833.079 8.707.175 15.275l.173 11.941-1.861 3.559c-1.024 1.957-1.908 3.607-1.966 3.667-.057.059-6.967.19-15.354.29-19.843.238-24.516.348-24.578.584-.059.219-1.078 3.721-1.207 4.148-.083.273.018.29 1.222.21.722-.048 7.913-.164 15.979-.257a8919.59 8919.59 0 0 0 21.538-.271l6.87-.102.398-.689c.219-.378 1.087-2.017 1.93-3.642l1.533-2.953-.176-11.88c-.096-6.534-.176-14.407-.176-17.496v-5.616l-2.25-.051-2.251-.05.001 3.333m-167.75-1.724c-2.068 2.778-6.104 5.722-16 11.672C36.954 176.4 26.519 184.429 19.171 193.5c-4.132 5.1-7.506 11.554-8.321 15.916l-.146.782.44-.097c1.643-.364 10.138-1.032 15.106-1.188 7.753-.245 21.312.81 34.583 2.689 1.605.227 3.092.457 3.305.51.38.095.386.079.255-.716-.629-3.805 1.251-11.269 4.118-16.357l.495-.878-.981-1.455c-2.228-3.305-2.664-2.682 7.41-10.591 1.477-1.16 2.779-2.221 2.892-2.357.329-.397 1.229-.49 1.813-.189.917.475 3.038-.756 3.508-2.036.79-2.154.97-6.7.531-13.413l-.237-3.63-.734-.325c-1.271-.562-3.365-2.328-7.041-5.938l-2.417-2.373-.5.672m144.583 12.124c0 2.271-.105 2.116 1.519 2.218l.768.049.103-1.913c.119-2.219.186-2.1-1.265-2.249l-1.125-.115v2.01m-107.941 2.094c-1.714 1.201-.799 5.585 1.166 5.589.488.001 1.392-1.028 1.608-1.831.627-2.329-1.227-4.841-2.774-3.758m268.275 3.756c.001.412.08 3.14.175 6.062l.174 5.312-1.198 2.355c-1.494 2.936-2.491 4.82-2.629 4.968-.058.063-10.531.188-23.272.278l-23.167.164-1.208-.631-1.209-.631v2.09l3.499 1.858 3.5 1.858 23.205-.184c12.763-.102 23.214-.2 23.225-.217.011-.018.858-1.659 1.881-3.646l1.861-3.615-.164-6.135c-.242-9.074-.324-10.383-.653-10.4l-2.145-.125-1.876-.111.001.75M77.472 189.215c-1.222 1.143-2.464 2.28-2.76 2.527-.777.648-1.422 2.954-1.642 5.87-.184 2.435-.009 2.438 1.494.029 1.836-2.945 5.45-10.183 5.206-10.427-.042-.042-1.076.859-2.298 2.001m111.195.004c0 .671.75 1.448 1.397 1.448.418 0 .045-1.19-.519-1.655-.808-.666-.878-.649-.878.207m-29.963 5.239c-3.12 3.306-6.531 5.81-8.821 6.476-.623.181-.848.319-.759.464.069.113 1.072 1.552 2.229 3.196 2.325 3.307 6.668 10.114 8.63 13.528.697 1.213 1.344 2.206 1.438 2.208 1.084.021 6.413-4.489 8.021-6.786l.61-.873-.508-1.965c-1.266-4.892-4.688-11.757-8.266-16.581-1.147-1.547-.751-1.598-2.574.333m-89.367 7.001c-.714 2.002-1.401 4.535-1.595 5.874-.104.718-.034.64 1.639-1.844l1.748-2.595-.393-1.155c-.217-.636-.396-1.357-.398-1.604-.01-.976-.335-.545-1.001 1.324m41.746 15.9c-.825.642-2.061 1.499-2.746 1.904-.686.405-1.196.737-1.134.737.192 0 4.356.629 8.797 1.328 5.026.791 4.5.757 4.499.297 0-.304-.321-.548-1.696-1.292-2.078-1.123-4.859-2.925-5.612-3.638-.308-.29-.57-.523-.584-.516-.013.007-.699.538-1.524 1.18"/><path fill="#d3d3d3" d="M135.302 20.496c-4.202.532-10.507 4.528-17.001 10.776l-1.449 1.394-49.885.042-49.884.043 54.5.035 54.5.035 1.25-1.183c4.735-4.482 8.591-7.408 12.382-9.396 1.774-.93 1.791-.978.527-1.506-.771-.322-3.313-.446-4.94-.24m9.406-.048c.161.042.423.042.584 0 .16-.042.029-.076-.292-.076s-.452.034-.292.076m7.625 2.135c.498.504.943.917.989.917.046 0-.324-.413-.822-.917-.498-.504-.943-.916-.989-.916-.045 0 .324.412.822.916m2.834 3.584c.195.275.393.5.439.5.046 0-.077-.225-.273-.5-.195-.275-.393-.5-.439-.5-.046 0 .077.225.273.5m4.641 6.541c.069.069 50.297.107 111.617.084l111.492-.042-111.617-.083c-61.389-.046-111.56-.027-111.492.041M19.745 48.5c0 6.279.021 8.848.047 5.708.025-3.139.025-8.277 0-11.416-.026-3.14-.047-.571-.047 5.708m52.116-10.752c-6.121 2.933-9.151 8.204-9.749 16.955l-.195 2.856 2.5 2.521c3.568 3.598 6.4 6.993 6.797 8.149.037.108 1.271-.388 1.571-.632.019-.015-.077-.51-.215-1.098-1.504-6.449-1.411-13.51.244-18.607 1.677-5.161 3.815-7.783 8.152-9.996l1.43-.729h-9.322l-1.213.581m40.123.044-.567.625 2.166.933a90.17 90.17 0 0 1 3.394 1.541c1.54.765 1.477.774 2.273-.338a41.308 41.308 0 0 1 1.713-2.159l1.047-1.227h-9.459l-.567.625M380.245 48.5c0 6.279.021 8.848.047 5.708.025-3.139.025-8.277 0-11.416-.026-3.14-.047-.571-.047 5.708m-195.862-1c0 .504.032.71.07.458.038-.252.038-.664 0-.916s-.07-.046-.07.458m.002 7.417c.001.55.032.755.069.455.037-.3.036-.75-.002-1s-.068-.005-.067.545m-126.591.368c.207.039.507.038.666-.004.16-.042-.01-.074-.377-.072-.366.002-.497.036-.289.076m-12.84.535c-.896.257-1.909.586-2.25.732-.341.146-1.729.727-3.084 1.291-2.755 1.147-2.736 1.128-3.298 3.158-.677 2.443-.735 4.299-.231 7.431l.11.683-1.392.8c-8.538 4.908-7.761 3.889-7.928 10.397l-.101 3.895-2.232 1.063c-1.228.585-2.286 1.063-2.352 1.063-.868 0-1.93 1.601-2.511 3.783-.309 1.163-.612 2.974-1.859 11.134-.248 1.626-.196 2.401.205 3.051l.365.59-1.769 1.68c-2.1 1.994-2.127 2.041-2.126 3.71.002 2.958 1.773 11.609 2.624 12.813.353.501 6.845 4.066 9.296 5.105.803.34 1.1.577 1.48 1.178.343.543.711.863 1.318 1.146a73.03 73.03 0 0 1 2.691 1.394c4.283 2.316 10.881 5.427 11.844 5.584 1.162.189 1.018.043 1.585 1.614 1.989 5.515 2.222 5.763 5.129 5.472.967-.098 1.218-.065 1.708.222.316.185 1.624.783 2.907 1.33 6.075 2.59 5.504 2.265 7.707 4.38l1.396 1.341-.412.54C61.529 155.343 57.49 158.313 48 164c-20.899 12.524-31.414 20.679-39.001 30.25-3.49 4.402-7.2 11.698-7.774 15.287l-.108.675.566-.114c1.429-.286 8.906-.858 9.023-.69.067.096.123-.002.125-.219.005-.821 1.415-4.597 2.572-6.889 6.378-12.638 17.956-22.696 44.264-38.456 8.63-5.171 11.817-7.437 14.559-10.354l1.476-1.571-1.6-1.539c-1.889-1.817-1.765-1.747-7.255-4.073a54.688 54.688 0 0 1-2.683-1.225c-1.045-.526-1.187-.555-2.347-.468-1.434.106-2.439-.117-2.941-.654-.319-.341-2.256-5.079-2.402-5.875-.048-.261-.251-.358-.961-.46-2.092-.302-15.428-7.164-16.16-8.316-.328-.516-.651-.792-1.116-.954-2.073-.725-9.163-4.629-9.673-5.326-.539-.737-2.1-7.494-2.389-10.338-.397-3.918-.409-3.882 1.936-6.116l1.758-1.675-.351-.575c-.452-.742-.443-1.294.075-4.742.234-1.558.569-3.824.744-5.036.575-3.982 1.423-6.813 2.27-7.576.17-.153 1.51-.835 2.976-1.516l2.667-1.236.104-3.818c.111-4.077.299-5.46.833-6.14.316-.4 2.903-1.994 6.771-4.169.94-.528 1.709-1.032 1.709-1.12 0-.088-.124-.955-.276-1.927-.307-1.975-.173-3.773.463-6.212.46-1.765.63-1.937 2.821-2.863a900.11 900.11 0 0 0 2.301-.976c.392-.169.392-.17-.25-.681-1.47-1.172-2.958-1.299-5.772-.493M61 56.917c.311.32.603.583.649.583.046 0-.171-.263-.482-.583-.311-.321-.603-.584-.649-.584-.046 0 .171.263.482.584m123.214.5c.002.458.034.626.072.372a2.933 2.933 0 0 0-.002-.833c-.04-.205-.071.002-.07.461m-.172 2c.002.366.036.497.076.289a1.83 1.83 0 0 0-.003-.666c-.042-.16-.075.01-.073.377m56.833 9.036c.252.038.665.038.917 0s.046-.07-.459-.07c-.504 0-.71.032-.458.07M227 74.217l.083 5.533.044-5.406c.024-2.973-.013-5.463-.083-5.533-.07-.071-.09 2.362-.044 5.406m27.902-2.467c0 1.65.025 2.302.056 1.45.03-.853.03-2.203-.001-3-.03-.798-.055-.1-.055 1.55m31.302-.049-.037 2.95-1.125.059-1.125.058 1.13.033c1.392.04 1.306.263 1.245-3.224l-.051-2.827-.037 2.951m-41.371-2.149c0 .029.244.273.542.542l.542.489-.49-.541c-.456-.505-.594-.619-.594-.49m12.955 1.568c.296.037.821.038 1.167.002.345-.036.103-.067-.538-.067-.642-.001-.925.028-.629.065m5.331-.001 1.037.063.055 1.701.056 1.7-.009-1.75-.008-1.75-1.083-.014-1.084-.014 1.036.064m13.786.101c-.046.121-.06.965-.03 1.875l.055 1.655.035-1.784.035-1.783 1.042-.06 1.041-.059-1.047-.032c-.737-.023-1.071.033-1.131.188m4.801 5.655.04 5.875.046-5.784.046-5.784 1.039-.059 1.04-.059-1.125-.032-1.125-.032.039 5.875m-26.081-2.088c.298.037.785.037 1.083 0 .298-.037.054-.067-.541-.067-.596 0-.84.03-.542.067m9.333 0c.298.037.786.037 1.084 0 .298-.037.054-.067-.542-.067-.596 0-.84.03-.542.067m10.167 0c.298.037.785.037 1.083 0 .298-.037.054-.067-.541-.067-.596 0-.84.03-.542.067m-37.395 2.046c0 1.054.027 1.486.06.959s.033-1.39 0-1.917c-.033-.527-.06-.096-.06.958m9.818-.75c.001.459.033.626.072.373a2.968 2.968 0 0 0-.003-.833c-.039-.205-.071.002-.069.46m-2.656.834c0 .825.028 1.183.063.796a10.87 10.87 0 0 0 .001-1.5c-.034-.438-.063-.121-.064.704m-52.892-1c.229.131.492.238.583.238.092 0-.02-.107-.25-.238-.229-.131-.491-.239-.583-.239-.092 0 .021.108.25.239m1.167.494c0 .046.375.273.833.506.458.232.833.384.833.339 0-.046-.375-.274-.833-.506-.458-.232-.833-.385-.833-.339m54.381 1.339c.001.458.033.626.072.373a2.975 2.975 0 0 0-.003-.834c-.039-.205-.071.003-.069.461m74.121 1.042c-.001.206.073.375.164.375.209 0 .209-.177 0-.5-.13-.202-.162-.179-.164.125m-208.586 1.312c-.299.255-.361.357-.153.253.306-.152.879-.7.715-.684-.034.003-.287.197-.562.431m6.334.396c.142.275.296.5.342.5.045 0-.033-.225-.176-.5-.142-.275-.296-.5-.342-.5-.045 0 .033.225.176.5m-9.086 2.125-1.914 1.958 1.958-1.914c1.819-1.777 2.034-2.002 1.914-2.002-.024 0-.906.881-1.958 1.958m146.573 1.208.013 1.25h7.833l.011-1.166.011-1.167-.06 1.125-.06 1.125h-7.637l-.062-1.208-.062-1.209.013 1.25m-35.527-.88c.254.038.629.037.834-.002.205-.04-.003-.071-.461-.07-.458.001-.626.034-.373.072m19.498 0c.252.038.665.038.917 0s.046-.07-.459-.07c-.504 0-.71.032-.458.07M276.405 84l.012 1.083 4 .005 4 .005-3.951-.05-3.951-.049-.061-1.039-.06-1.038.011 1.083m-39.155-.167c.358.367.688.667.734.667.046 0-.209-.3-.567-.667-.358-.366-.689-.666-.735-.666-.045 0 .21.3.568.666m-32.917-.454c0 .025.582.607 1.292 1.292l1.292 1.246-1.246-1.292c-1.157-1.2-1.338-1.368-1.338-1.246m40.907.496-.49.542.542-.49c.505-.456.618-.594.489-.594-.029 0-.272.244-.541.542m89.927.943c0 .152-.372.192-1.417.153-.78-.03-1.417.002-1.417.071.001.198 2.8.148 2.924-.053.06-.098.065-.223.01-.278-.055-.055-.1-.007-.1.107m10.333.009c0 .088-.619.185-1.375.216l-1.375.056 1.458.034c1.201.028 1.459-.011 1.459-.216 0-.138-.038-.25-.084-.25-.046 0-.083.072-.083.16M316.667 85l-1.417.105 1.458.031c.882.018 1.459-.035 1.459-.136 0-.092-.019-.153-.042-.136-.023.017-.679.078-1.458.136m-22.62.123c.438.034 1.113.034 1.5-.001s.028-.063-.797-.063c-.825.001-1.141.029-.703.064m10.333 0c.438.034 1.113.034 1.5-.001s.028-.063-.797-.063c-.825.001-1.141.029-.703.064m17.167 0c.438.034 1.113.034 1.5-.001s.028-.063-.797-.063c-.825.001-1.141.029-.703.064m-197.098 5.39c.166.282.408.601.538.708.13.108.026-.123-.231-.513-.539-.818-.752-.953-.307-.195m-10.543 4.362-.489.542.541-.49c.298-.269.542-.513.542-.542 0-.128-.138-.015-.594.49m-.863 1c-.236.298-.568.958-.482.958.04 0 .228-.262.417-.583.344-.583.376-.768.065-.375m44.624.208c-.229.131-.342.239-.25.239.091 0 .354-.108.583-.239.229-.131.342-.238.25-.238-.092 0-.354.107-.583.238m-58.628 3.084c0 .32.034.452.076.291.042-.16.042-.423 0-.583-.042-.16-.076-.029-.076.292m-.15 2.833c0 .688.03.969.066.625.036-.344.036-.906 0-1.25s-.066-.062-.066.625m22.316-.667c0 .321.035.452.077.292.041-.16.041-.423 0-.583-.042-.161-.077-.029-.077.291m-4.997.782c.161.042.423.042.584 0 .16-.042.029-.076-.292-.076s-.452.034-.292.076m3.292 1.635c.311.321.603.583.649.583.046 0-.171-.262-.482-.583-.311-.321-.603-.583-.649-.583-.046 0 .171.262.482.583m45.372-.083c0 .32.034.452.076.291.042-.16.042-.423 0-.583-.042-.16-.076-.029-.076.292m-43.663.75c.002.366.036.497.076.289a1.83 1.83 0 0 0-.004-.666c-.042-.16-.074.01-.072.377m43.839 1c.001.458.033.626.072.372a2.968 2.968 0 0 0-.003-.833c-.039-.205-.071.002-.069.461m-13.09.034c.207.04.544.04.75 0 .207-.04.038-.072-.375-.072-.412 0-.581.032-.375.072m1.625.243c.184.101.562.38.841.62.283.243.23.159-.119-.189-.344-.344-.722-.623-.84-.62-.118.003-.065.088.118.189m80.042 1.095c.39.035 1.027.035 1.417 0 .389-.035.07-.064-.709-.064-.779 0-1.098.029-.708.064m-10.333.168a40.67 40.67 0 0 0 2.75 0c.756-.031.137-.056-1.375-.056-1.513 0-2.132.025-1.375.056m101.666 0c.665.032 1.752.032 2.417 0 .665-.032.121-.057-1.208-.057-1.33 0-1.873.025-1.209.057m-109.91.166c.53.034 1.355.033 1.833 0 .478-.034.044-.061-.964-.061-1.009.001-1.4.028-.869.061m121.327.001c.71.031 1.873.031 2.583 0 .711-.031.129-.057-1.291-.057-1.421 0-2.002.026-1.292.057m12 .166c.527.033 1.39.033 1.917 0 .527-.033.095-.06-.959-.06s-1.485.027-.958.06m-201.47.918c-.803.843-1.748 1.972-1.22 1.459.593-.578 2.193-2.334 2.126-2.334-.04 0-.448.394-.906.875m213.629-.751c.615.032 1.665.032 2.334 0 .668-.031.165-.058-1.118-.058-1.283 0-1.83.026-1.216.058m-100.074.161c.208.04.508.038.667-.003.159-.042-.01-.075-.377-.073-.367.002-.497.036-.29.076m112.54.004c.229.042.529.163.667.269.217.167.22.154.021-.099-.126-.161-.425-.282-.667-.269l-.438.022.417.077m-104.542.662c.207.04.544.04.75 0 .207-.039.038-.072-.375-.072-.412 0-.581.033-.375.072M155.553 109.5c0 .596.031.84.068.542a5.307 5.307 0 0 0 0-1.084c-.037-.298-.068-.054-.068.542m121.072-.549c.206.04.544.04.75 0 .206-.04.037-.072-.375-.072-.413 0-.581.032-.375.072m-177.742 1.216c0 .504.032.71.07.458.038-.252.038-.665 0-.917s-.07-.046-.07.459m17.409-.417c.19.275.612.756.937 1.068.325.313.545.643.489.734-.06.096-.018.114.099.041.139-.085-.071-.419-.67-1.067-1.209-1.308-1.245-1.34-.855-.776m168.502-.132c.207.04.507.038.666-.003.16-.042-.01-.075-.377-.073-.366.002-.497.036-.289.076m7.998.666c.206.04.543.04.75 0 .206-.039.037-.072-.375-.072-.413 0-.582.033-.375.072m-127.735 1.799c.001.734.03 1.013.065.621a8.344 8.344 0 0 0-.001-1.333c-.036-.342-.064-.021-.064.712m135.903-1.132c.208.04.508.039.667-.003.159-.042-.01-.074-.377-.073-.367.002-.497.036-.29.076m-201.918 1.466c.002.366.036.497.076.289a1.83 1.83 0 0 0-.003-.666c-.042-.16-.075.01-.073.377m16.916-.466c.207.04.544.04.75 0 .207-.04.038-.072-.375-.072-.412 0-.581.032-.375.072m263.063.632c.241.275.478.613.528.75.079.216.093.214.105-.01.007-.143-.231-.481-.529-.75l-.542-.49.438.5m-228.809 1.75c0 .413.033.582.072.375.04-.206.04-.543 0-.75-.039-.206-.072-.037-.072.375m14.669.75c.001.459.034.626.072.373a3.008 3.008 0 0 0-.002-.833c-.04-.205-.071.002-.07.46m141.869.54c.275.04.612.16.75.267.218.168.22.155.021-.098-.141-.18-.428-.282-.75-.267l-.521.025.5.073m-54.344 5.044c0 2.521.024 3.552.052 2.291.028-1.26.028-3.323 0-4.583-.028-1.26-.052-.229-.052 2.292m-6.023-3.5c0 .504.032.71.07.458.038-.252.038-.665 0-.917s-.07-.046-.07.459m-97.643.041-.49.542.542-.49c.298-.269.541-.512.541-.541 0-.129-.137-.016-.593.489m-1.99 1.38c-.367.226-.601.411-.52.411.171.001 1.27-.659 1.27-.763 0-.105-.033-.09-.75.352m4.492.287-.659.708.709-.658c.658-.613.785-.758.658-.758-.027 0-.345.318-.708.708m169.497 4.042c0 2.383.024 3.335.052 2.115.029-1.22.029-3.17 0-4.334-.028-1.163-.052-.165-.052 2.219m-74.53-3c.002.366.036.497.076.289a1.83 1.83 0 0 0-.004-.666c-.042-.16-.074.01-.072.377m-102.968-.069c-.062.1-.024.268.083.375.149.148.171.127.09-.085-.077-.202.001-.298.282-.352.373-.071.374-.075.022-.097-.201-.012-.415.059-.477.159m-31.783.83c-.343.181-.625.367-.625.413 0 .045.3-.071.667-.258.367-.187.667-.376.667-.42 0-.109-.002-.108-.709.265m32.195.049c.222.274.847.687.847.56 0-.032-.244-.236-.542-.454-.335-.246-.451-.286-.305-.106m-33.861.868c-.623.338-.585.479.041.155.275-.142.5-.294.5-.338 0-.107-.018-.101-.541.183m73.498.526c.157.111.217 1.778.253 6.971l.046 6.825-.003-6.903c-.002-5.993-.036-6.912-.253-6.971-.183-.05-.194-.029-.043.078m-2.582.327c.161.042.423.042.584 0 .16-.042.029-.076-.292-.076s-.452.034-.292.076m-1.833.167c.16.042.423.042.583 0 .161-.042.029-.076-.291-.076-.321 0-.452.034-.292.076m-2.248.17c.207.039.507.038.667-.004.159-.042-.011-.074-.377-.072-.367.002-.497.036-.29.076m207.087 1.298c.002.459.034.626.072.373a2.933 2.933 0 0 0-.002-.833c-.04-.205-.071.002-.07.46m-281.231.133c.078.078.395.116.704.084.549-.057.546-.06-.141-.141-.387-.046-.64-.02-.563.057m281.056 2.451c0 .32.034.452.076.291.042-.16.042-.423 0-.583-.042-.16-.076-.029-.076.292m-137.825 1.25c.002.458.034.626.072.372a2.933 2.933 0 0 0-.002-.833c-.04-.205-.071.002-.07.461m102.241-.13c.295.037.82.037 1.166.001s.104-.066-.538-.067c-.641 0-.924.029-.628.066m4.753.161c.161.042.423.042.584 0 .16-.042.029-.076-.292-.076s-.452.034-.292.076m3.419.17c.207.04.507.038.667-.003.159-.042-.011-.075-.377-.073-.367.002-.497.036-.29.076m-41.066 1.799c0 .916.028 1.27.062.786a13.62 13.62 0 0 0-.001-1.667c-.034-.432-.062-.036-.061.881m-96.6-.796c.3.037.75.036 1-.002.251-.038.006-.068-.544-.067-.55.001-.755.032-.456.069m128.606 2.962c.001 1.467.026 2.045.057 1.284.031-.761.031-1.961 0-2.667-.031-.706-.057-.083-.057 1.383m-203.555-2.333c0 .092.107.354.238.583.131.23.238.342.238.25 0-.091-.107-.354-.238-.583-.131-.229-.238-.342-.238-.25m102.027.917c0 .32.034.452.076.291.042-.16.042-.423 0-.583-.042-.16-.076-.029-.076.292m-90.048 1.458-.574.625.625-.574c.581-.535.701-.676.574-.676-.028 0-.309.281-.625.625M278.401 135c0 1.512.025 2.131.056 1.375.031-.756.031-1.994 0-2.75s-.056-.138-.056 1.375m-133.234-1.606c0 .181.828 1.773.922 1.773.046 0-.115-.394-.356-.875-.465-.926-.566-1.086-.566-.898m237.881.856c.001.458.033.626.072.373a2.975 2.975 0 0 0-.003-.834c-.039-.205-.071.003-.069.461m-229.89.375-.575.625.625-.574c.582-.535.702-.676.575-.676-.028 0-.309.281-.625.625m161.73.958c.001.642.031.884.067.538a6.297 6.297 0 0 0-.001-1.166c-.037-.296-.067-.013-.066.628m44.744-.126c.576.033 1.476.032 2-.001.523-.033.051-.059-1.049-.059-1.1 0-1.528.027-.951.06m-208.559.918-.49.542.542-.49c.298-.269.542-.513.542-.542 0-.128-.138-.015-.594.49m231.799.458c0 .321.034.452.076.292.042-.16.042-.423 0-.583-.042-.161-.076-.03-.076.291m-130.629 6.834c0 3.896.022 5.489.048 3.541.027-1.948.027-5.135 0-7.083-.026-1.948-.048-.354-.048 3.542m-42.347-4.75c0 1.008.028 1.399.061.869.033-.531.033-1.356-.001-1.834s-.061-.044-.06.965m35.154-.25c0 .504.031.71.069.458a3.608 3.608 0 0 0 0-.917c-.038-.252-.069-.046-.069.459m-19.494.666.027.417 9.667.002 9.667.002-9.614-.045-9.614-.045-.08-.374c-.07-.327-.077-.321-.053.043m89.158 1.25c.002.459.034.626.072.373a2.933 2.933 0 0 0-.002-.833c-.04-.205-.071.002-.07.46m-140.304.459-.827.875.875-.827c.482-.455.875-.849.875-.875 0-.125-.154.014-.923.827m114.983.791c0 .871.029 1.227.063.792.034-.435.034-1.148 0-1.583-.034-.436-.063-.08-.063.791m57.831.75c0 .734.03 1.013.065.621a8.344 8.344 0 0 0-.001-1.333c-.036-.342-.065-.021-.064.712m-175.891.584c-.321.175-.523.322-.45.326.177.009 1.117-.48 1.117-.581 0-.109-.01-.105-.667.255m149.577 7.083c0 4.125.022 5.789.048 3.697a347.22 347.22 0 0 0 0-7.5c-.026-2.033-.048-.322-.048 3.803m-161.373-6c-.293.596-.499 1.083-.455 1.083.043 0 .234-.305.424-.679.239-.468.538-.76.962-.939.546-.231.578-.275.282-.392-.59-.235-.67-.174-1.213.927m119.021 1.25c0 .779.029 1.098.064.708a9.561 9.561 0 0 0 0-1.416c-.035-.39-.064-.071-.064.708m-114.35-1.052c.161.042.423.042.584 0 .16-.042.029-.076-.292-.076s-.452.034-.292.076m2.667 0c.16.042.423.042.583 0 .161-.042.029-.076-.291-.076-.321 0-.452.034-.292.076m147.673 1.135c.001.459.033.626.072.373a2.968 2.968 0 0 0-.003-.833c-.039-.205-.071.002-.069.46m-101.381 8.584c0 4.491.056 8.166.125 8.166.068 0 .105-3.636.08-8.079l-.045-8.08 3.295-.049 3.295-.049-3.375-.038-3.375-.038v8.167m23.291-7.876c.848.03 2.236.03 3.084 0 .848-.03.154-.055-1.542-.055s-2.39.025-1.542.055m-52.718 6.376c0 2.612.023 3.681.051 2.375.028-1.307.028-3.444 0-4.75-.028-1.307-.051-.238-.051 2.375m26.322-2.417c.001 1.008.028 1.399.061.869a16.72 16.72 0 0 0 0-1.833c-.034-.478-.061-.044-.061.964m79.162-.167c0 .734.03 1.013.065.621a8.344 8.344 0 0 0-.001-1.333c-.036-.342-.065-.021-.064.712m-133.724.334c-.405.412-.699.75-.653.75.046 0 .415-.338.82-.75.405-.413.698-.75.652-.75-.045 0-.414.337-.819.75m191.89.5c.001.733.03 1.012.066.62a8.34 8.34 0 0 0-.002-1.333c-.035-.341-.064-.021-.064.713m-32.996 1c.001.916.029 1.27.062.786.034-.485.034-1.235 0-1.667-.035-.432-.062-.036-.062.881m-163.144.827c-1.342.444-2.235.607-4.583.833-3.509.339-3.75.371-3 .402.57.023.553.04-.728.772-.721.412-1.363.749-1.428.749-.064 0-.202.638-.307 1.417-.104.78-.429 2.392-.723 3.584l-.534 2.166.467.875c2.507 4.699 2.61 4.769 2.161 1.485-.805-5.89-.382-6.694 3.527-6.694 1.384 0 1.553-.033 1.646-.326.191-.601 2.591-2.188 6.818-4.508 1.166-.64 1.85-1.148.817-.607-.413.216-.527.196-1.395-.245-.52-.264-.974-.474-1.009-.467-.034.007-.812.261-1.729.564m94.318 2.589c0 1.513.025 2.132.056 1.375a40.67 40.67 0 0 0 0-2.75c-.031-.756-.056-.137-.056 1.375m33.156-1.416c0 .733.03 1.012.065.62s.035-.992-.001-1.333c-.036-.341-.065-.021-.064.713m10.338 4c.001 1.008.028 1.399.061.869.034-.531.033-1.356 0-1.834-.034-.478-.061-.044-.061.965m25.159-.334c.001.642.031.884.067.538a6.211 6.211 0 0 0-.001-1.166c-.037-.296-.066-.013-.066.628m33.342 1.75c0 1.054.027 1.486.06.959s.033-1.39 0-1.917c-.033-.527-.06-.096-.06.958m-137.33 2.25c.001 1.375.026 1.916.058 1.201a33.06 33.06 0 0 0-.001-2.5c-.031-.66-.057-.076-.057 1.299m-37.65-.916c.637.641 1.196 1.166 1.241 1.166.046 0-.437-.525-1.074-1.166-.637-.642-1.195-1.167-1.241-1.167-.046 0 .438.525 1.074 1.167m106.313 1.666c0 1.054.027 1.486.06.959.034-.527.034-1.39 0-1.917-.033-.527-.06-.096-.06.958m35.154.334c0 .504.031.71.069.458a3.608 3.608 0 0 0 0-.917c-.038-.252-.069-.046-.069.459m-99.508-.219c.16.042.423.042.583 0 .16-.042.029-.076-.292-.076s-.452.034-.291.076m74.359 4.219c0 1.512.025 2.131.056 1.375a40.67 40.67 0 0 0 0-2.75c-.031-.757-.056-.138-.056 1.375m73.391-2.383c.206.04.543.04.75 0 .206-.039.037-.072-.375-.072-.413 0-.582.033-.375.072m2.416.164c.161.042.423.042.584 0 .16-.042.029-.076-.292-.076s-.452.034-.292.076m7.003.505c.253.038.628.037.833-.002.205-.04-.002-.071-.461-.07-.458.001-.626.034-.372.072M245.739 169.5c0 2.246.023 3.165.052 2.042a95.868 95.868 0 0 0 0-4.084c-.029-1.123-.052-.204-.052 2.042m-69.867-3.333c0 .32.034.452.076.291.042-.16.042-.423 0-.583-.042-.16-.076-.029-.076.292m76.2 3.5c0 2.245.024 3.164.053 2.041.028-1.123.028-2.96 0-4.083-.029-1.123-.053-.204-.053 2.042m125.973-3.167c0 .412.033.581.073.375a2.418 2.418 0 0 0 0-.75c-.04-.206-.073-.038-.073.375m-30.311 2.25c0 1.467.026 2.044.057 1.284.031-.761.031-1.961-.001-2.667-.031-.706-.056-.084-.056 1.383m-33.851-1.083c0 .504.032.71.07.458.038-.252.038-.665 0-.917s-.07-.046-.07.459m-137.833.5c0 .504.031.71.069.458a3.608 3.608 0 0 0 0-.917c-.038-.252-.069-.046-.069.459m103.007 2.25c.001.733.03 1.012.065.62s.035-.992-.001-1.333c-.036-.341-.064-.021-.064.713m42.017 4c0 2.658.023 3.722.051 2.364.028-1.357.028-3.532 0-4.833-.029-1.301-.052-.19-.051 2.469m-176.596-3.792c1.058 1.785 3.544 5.743 3.775 6.01.146.169 1.272-.497 1.192-.706-.413-1.076-.224-1.982.603-2.887.411-.449.499-.368-1.121-1.034a85.86 85.86 0 0 1-3.064-1.359c-.959-.449-1.768-.816-1.799-.816-.03 0 .156.357.414.792m237.72-.689a.613.613 0 0 1 .366.366c.06.204.074.19.05-.05a.41.41 0 0 0-.366-.366c-.24-.024-.254-.01-.05.05m-162.323.647c.002.367.036.497.076.29.04-.207.039-.507-.003-.667-.042-.159-.074.011-.073.377m-35.971 3.667c0 1.925.024 2.69.054 1.699.029-.99.029-2.565 0-3.5-.03-.934-.054-.124-.054 1.801m26.471-2.833c.002.366.036.497.076.289.04-.207.039-.507-.003-.666-.042-.16-.074.01-.073.377m-34.157 1.166c.001.55.032.755.069.456.038-.3.037-.75-.001-1-.038-.251-.069-.006-.068.544m37.324-.297c.252.038.664.038.916 0s.046-.069-.458-.069-.71.031-.458.069m2.666.162c.161.042.423.042.584 0 .16-.042.029-.076-.292-.076s-.452.034-.292.076m97.52 1.469c0 .916.028 1.27.062.786a13.62 13.62 0 0 0-.001-1.667c-.034-.432-.062-.036-.061.881m68.986.666c.002.459.034.626.072.373a2.933 2.933 0 0 0-.002-.833c-.04-.205-.071.002-.07.46m-206.335.584c0 .412.032.581.072.375.04-.207.04-.544 0-.75-.04-.207-.072-.038-.072.375m175.998-.214c.254.038.629.037.834-.002.205-.04-.003-.071-.461-.07-.458.001-.626.034-.373.072m-175.825 2.964c.001.55.032.755.069.455.037-.3.036-.75-.002-1s-.068-.005-.067.545m206.335 1.416c0 .596.03.84.067.542a5.297 5.297 0 0 0 0-1.083c-.037-.298-.067-.055-.067.541m-69.332.25c0 .642.031.884.067.538a6.208 6.208 0 0 0-.002-1.166c-.037-.296-.066-.013-.065.628m-134.222-.637c-1.973.199-2.958.578-3.917 1.507-.516.5-1.827 1.483-2.915 2.186-2.13 1.377-2.69 1.755-2.399 1.621.131-.06.164.249.113 1.036-.204 3.141 2.703 4.509 7.164 3.371l1.443-.368.55.34c.303.187.724.525.937.752l.387.412-.367 1.464c-.859 3.43-2.651 7.608-4.758 11.09-1.931 3.194-5.595 8.084-5.91 7.889-.207-.128-.216-.188.179 1.237l.34 1.227-.91 1.187c-1.705 2.224-4.223 4.435-6.793 5.961l-1.106.658.886 1.603.886 1.604.749-.009c.632-.007.914-.134 1.803-.812 2.042-1.557 5.117-4.066 5.239-4.274.068-.116-.058-.061-.279.122-.221.183.272-.381 1.097-1.255 4.755-5.042 8.849-10.815 11.577-16.328a173.26 173.26 0 0 1 1.818-3.535c.994-1.874 2.37-5.638 2.851-7.799.112-.504.272-1.048.355-1.208.186-.362.244-.366-1.309.076-7.259 2.066-10.311-3.898-4.002-7.819 1.021-.635 1.34-1.407.666-1.617-1.007-.314-2.993-.459-4.375-.319m203.727 5.721c0 .87.028 1.227.063.791.034-.435.034-1.148 0-1.583-.035-.435-.063-.079-.063.792m-137.168.083c0 .825.028 1.184.063.797a10.87 10.87 0 0 0 .001-1.5c-.034-.438-.063-.122-.064.703m-76.827.172c-.152.232-.247.452-.209.489.037.037.193-.153.348-.422.344-.599.242-.649-.139-.067m82.816 3.995c.001.458.034.626.072.372a3.008 3.008 0 0 0-.002-.833c-.04-.205-.071.002-.07.461m73.808.531c-.012.568.034 1.067.103 1.11.068.042.103-.272.076-.699-.083-1.322-.155-1.488-.179-.411m-160.981-.5c.161.042.423.042.584 0 .16-.042.029-.076-.292-.076s-.452.034-.292.076m90.919.67c.207.04.507.038.667-.003.159-.042-.011-.075-.377-.073-.367.002-.497.036-.29.076m-94.96 2.631c-.215.229-.359.444-.32.478.038.034.244-.153.457-.416.478-.588.393-.626-.137-.062m144.041.866c.161.042.423.042.584 0 .16-.042.029-.076-.292-.076s-.452.034-.292.076m-6.916.172c.298.037.785.037 1.083 0 .298-.037.054-.067-.542-.067-.596 0-.839.03-.541.067m-57.834.168c.39.035 1.027.035 1.417 0 .39-.035.071-.063-.708-.063-.78 0-1.098.028-.709.063m51.334-.001c.298.037.785.037 1.083 0 .298-.037.054-.067-.542-.067-.596 0-.839.03-.541.067m-62.667.17a31.42 31.42 0 0 0 2.417 0c.664-.032.12-.058-1.209-.058-1.329 0-1.873.026-1.208.058m55.922-.001c.438.034 1.113.034 1.5-.001s.028-.063-.797-.063c-.825.001-1.141.029-.703.064m-69.172.168c.985.03 2.598.03 3.583 0 .986-.029.179-.054-1.791-.054-1.971 0-2.777.025-1.792.054m61.417-.001c.573.033 1.51.033 2.083 0 .573-.032.104-.059-1.042-.059-1.145 0-1.614.027-1.041.059m-74.5.166c.481.034 1.268.034 1.75 0 .481-.033.087-.061-.875-.061-.963 0-1.357.028-.875.061m66.833-.002c.298.037.785.037 1.083 0 .298-.037.054-.067-.541-.067-.596 0-.84.03-.542.067m108.088.002a10.87 10.87 0 0 0 1.5-.001c.387-.035.029-.063-.796-.063-.825.001-1.142.03-.704.064m-114.588.165c.298.037.785.037 1.083 0 .298-.037.054-.068-.541-.068-.596 0-.84.031-.542.068m91.907.003c.981.03 2.631.03 3.667.001 1.036-.03.234-.054-1.782-.054-2.017 0-2.865.024-1.885.053m-97.74.16c.206.04.543.04.75 0 .206-.039.037-.072-.375-.072-.413 0-.582.033-.375.072m77.174.007c.761.031 1.961.031 2.667-.001.706-.031.084-.056-1.383-.056s-2.044.026-1.284.057M192.86 201.09c-.279.613-.226.744.076.187.141-.26.226-.504.187-.542-.038-.039-.156.122-.263.355m187.385 18.077c0 5.729.021 8.073.047 5.208.025-2.865.025-7.552 0-10.417-.026-2.864-.047-.52-.047 5.209M26.583 209.164c6.843.274 21.562 1.807 27.379 2.852 1.801.323 1.978-.201-2.62 7.734-.85 1.467-1.804 3.18-2.12 3.807l-.575 1.14-.889-.841c-1.368-1.294-2.108-1.272-3.253.099-.777.929-2.505 4.658-2.505 5.404 0 .078 2.122.141 4.716.141h4.715l.29-.958c.522-1.73 1.894-4.286 2.699-5.027 1.055-.973 1.6-.943 2.799.153l.913.834.351-.594c.193-.326.35-.621.35-.655 0-.033.684-1.247 1.519-2.698 5.143-8.932 4.862-8.241 3.446-8.444-14.801-2.121-23.924-2.937-33.798-3.022-5.294-.046-6.031-.03-3.417.075m-6.041.118c.16.041.423.041.583 0 .16-.042.029-.077-.292-.077s-.452.035-.291.077m-.797 10.135c0 5.591.021 7.855.047 5.029.025-2.825.025-7.4 0-10.166-.026-2.767-.047-.455-.047 5.137m-7.037-9.469c.161.042.423.042.584 0 .16-.042.029-.076-.292-.076s-.452.034-.292.076m165.032 2.094-.49.541.542-.489c.505-.456.618-.594.489-.594-.029 0-.272.244-.541.542m-4.5 4.5-.49.541.542-.489c.505-.456.618-.594.489-.594-.029 0-.272.244-.541.542m8.504.5-.827.875.875-.827c.481-.455.875-.849.875-.875 0-.125-.155.014-.923.827m-9.92.75-.574.625.625-.575c.582-.534.702-.675.574-.675-.027 0-.309.281-.625.625m6.504 2.666-.911.959.958-.911c.527-.501.958-.933.958-.959 0-.123-.159.021-1.005.911m-72.078.06c-.729.454-1.489 1.043-.995.769.095-.052 1.332.087 2.75.308 1.418.222 2.661.404 2.762.404.115.001.224.675.293 1.816.107 1.753.633 5.157.853 5.512.068.11 1.255.173 3.247.173h3.141l-.3-.792c-.399-1.055-1.094-4.171-.959-4.305.093-.094 2.396 1.07 3.416 1.727.362.233.371.225.282-.236-.05-.263-.144-1.227-.208-2.144l-.115-1.667-2.417-.357c-3.329-.492-10.177-1.562-10.583-1.653-.192-.043-.689.146-1.167.445m69.908 1.94-.575.625.625-.574c.344-.316.625-.597.625-.625 0-.127-.141-.007-.675.574m-1.252 1.084-.489.541.541-.489c.505-.456.619-.594.49-.594-.029 0-.273.244-.542.542m-48.326 1.166c.048.207.202.9.342 1.542s.416 1.635.614 2.208l.359 1.042h3.752c2.064 0 3.682-.063 3.595-.139-.458-.403-8.418-5.028-8.653-5.028-.052 0-.056.169-.009.375m44.92 1.648-.75.679.706-.53c.614-.46 1.008-.849.846-.833-.029.002-.39.31-.802.684m-76.208.822c-.344.181-.625.367-.625.413 0 .045.3-.071.666-.258.367-.187.667-.376.667-.42 0-.109-.001-.108-.708.265m-66.449 6.78 11.927.044-.209 1.207c-.114.664-.258 1.7-.32 2.301l-.111 1.093-.822.462c-1.859 1.045-7.417 4.867-8.248 5.672-1.249 1.209-1.209 1.557.286 2.522 1.644 1.06 2.767 1.202 10.321 1.304 3.729.05 5.174.031 3.909-.053-3.678-.244-6.254-1.496-5.829-2.834.245-.772 2.966-2.792 8.336-6.188l1.5-.949.28-1.895c.153-1.041.284-2.1.291-2.352l.013-.459-16.625.041c-14.884.036-15.376.045-4.699.084m69.018 0 15.945.044.585.797c2.849 3.881 7.845 5.893 14.526 5.85 2.348-.014 5.927-.231 4.833-.292-3.316-.185-8.04-2.888-9.939-5.688l-.561-.827-20.667.036c-20.096.036-20.226.038-4.722.08m36.237.037c1.172.474 6.376.625 7.874.228.994-.263-.34-.384-4.139-.377-2.389.005-3.939.067-3.735.149m87.541-.037c29.638.024 78.088.024 107.666 0 29.578-.023 5.328-.042-53.888-.042-59.217 0-83.417.019-53.778.042m-73.231 5.377c-1.354.513-6.172 1.307-8.237 1.359l-1.088.027.834.098c.807.095.883.153 2.429 1.848a55.906 55.906 0 0 0 3.298 3.275l1.704 1.525 2.263.121c1.245.067 3.376.055 4.735-.025l2.471-.146-.867-.722c-1.932-1.61-5.288-5.105-5.811-6.052-.583-1.056-1.188-1.513-1.731-1.308m-11.866 1.451c.252.038.664.038.916 0s.046-.069-.458-.069-.71.031-.458.069m42.503 4.381c0 .412.033.581.073.375a2.418 2.418 0 0 0 0-.75c-.04-.207-.073-.038-.073.375m-.212.948c0 .093-.184.368-.408.611-.225.242-.343.441-.262.441.208 0 .895-.998.772-1.121-.056-.056-.102-.025-.102.069m-6.208 1.175c.573.033 1.51.033 2.083 0 .573-.032.105-.059-1.041-.059s-1.615.027-1.042.059m-3.75.158c.16.042.423.042.583 0 .161-.042.029-.076-.291-.076-.321 0-.452.034-.292.076m-11.581.17c.207.04.507.038.666-.003.16-.042-.01-.075-.377-.073-.366.002-.497.036-.289.076m8.331.003c.298.037.785.037 1.083 0 .298-.037.054-.068-.541-.068-.596 0-.84.031-.542.068m-105.167 1.003a40.67 40.67 0 0 0 2.75 0c.757-.031.138-.056-1.375-.056-1.512 0-2.131.025-1.375.056m-6.25.166c.527.033 1.39.033 1.917 0 .527-.033.096-.06-.958-.06-1.055 0-1.486.027-.959.06"/><path fill="#c19d58" d="M146.292 20.456c.481.034 1.268.034 1.75 0 .481-.033.087-.061-.875-.061-.963 0-1.357.028-.875.061m-2.25.159c.16.042.423.042.583 0 .16-.042.029-.076-.292-.076s-.452.034-.291.076m8.791 2.635c.311.321.603.583.649.583.046 0-.171-.262-.482-.583-.311-.321-.603-.583-.649-.583-.046 0 .171.262.482.583m2.667 3.583c.196.275.394.5.439.5.046 0-.077-.225-.272-.5-.196-.275-.394-.5-.44-.5-.046 0 .077.225.273.5m.833 1.167c.196.275.394.5.44.5.046 0-.077-.225-.273-.5s-.394-.5-.439-.5c-.046 0 .077.225.272.5m-25.675.625-.575.625.625-.574c.582-.535.702-.676.575-.676-.028 0-.309.281-.625.625m-1.416 1.25-.659.708.709-.658c.658-.613.785-.758.658-.758-.027 0-.345.318-.708.708m29.091.875c.284.412.554.75.6.75.046 0-.149-.338-.433-.75-.284-.413-.554-.75-.599-.75-.046 0 .149.337.432.75m-31.591 1.458-.659.709.709-.659c.658-.613.785-.758.658-.758-.027 0-.345.319-.708.708M15.412 48.25c0 6.325.021 8.888.046 5.696.026-3.192.026-8.367 0-11.5-.025-3.133-.046-.521-.046 5.804m369.167 0c0 6.325.021 8.888.046 5.696.025-3.192.025-8.367 0-11.5-.025-3.133-.046-.521-.046 5.804M19.694 37.082c.109.11 62.834.113 62.943.003.047-.047-14.115-.085-31.47-.085-17.356 0-31.519.037-31.473.082m88.341.009c.111.111 13.829.1 13.941-.011.044-.044-3.095-.08-6.976-.08s-7.015.041-6.965.091m73.638.117c.003.115.121.396.261.625.234.382.22.214-.035-.416-.09-.222 11.035-.255 99.208-.292l99.31-.042-99.375-.041c-79.414-.034-99.374 0-99.369.166m.761 1.849c.148.437.3.765.335.729.087-.087-.275-1.16-.46-1.363-.08-.088-.024.197.125.634M76.745 40.875l-.995 1.042 1.042-.995c.967-.924 1.118-1.089.994-1.089-.025 0-.494.469-1.041 1.042m42.565-.417c-.479.579-.683.875-.6.875.046 0 .284-.262.529-.583.454-.595.509-.82.071-.292m64.908 6.292c.001.55.032.755.069.455a4.392 4.392 0 0 0-.001-1c-.038-.25-.069-.005-.068.545m.184 4.417c0 1.604.025 2.26.055 1.458.031-.802.031-2.115 0-2.917-.03-.802-.055-.145-.055 1.459m-112.69 1.666c0 .413.033.582.072.375.04-.206.04-.543 0-.75-.039-.206-.072-.037-.072.375m-.143 4.334c0 1.695.025 2.389.055 1.541.03-.848.03-2.235 0-3.083-.03-.848-.055-.154-.055 1.542m112.649-1.417c.001.55.032.755.069.455a4.392 4.392 0 0 0-.001-1c-.038-.25-.069-.005-.068.545M61.667 57.552c0 .029.243.273.541.542l.542.489-.49-.541c-.456-.505-.593-.619-.593-.49m122.378.615c0 .412.033.581.073.375a2.418 2.418 0 0 0 0-.75c-.04-.207-.073-.038-.073.375m-137.391.82c-.268.268-.484.587-.481.709.004.121.118.016.254-.234s.451-.566.701-.702c.251-.136.356-.25.234-.253-.121-.004-.44.212-.708.48m17.513.93c.775.779 1.446 1.416 1.492 1.416.046 0-.551-.637-1.326-1.416-.775-.78-1.446-1.417-1.492-1.417-.046 0 .551.637 1.326 1.417m7.538 1.416c0 .321.035.452.077.292.041-.16.041-.423 0-.583-.042-.161-.077-.03-.077.291m112 .334c0 .32.035.452.077.291.041-.16.041-.423 0-.583-.042-.16-.077-.029-.077.292m-166.497-.052c.161.042.423.042.584 0 .16-.042.029-.076-.292-.076s-.452.034-.292.076m365 0c.161.042.423.042.584 0 .16-.042.029-.076-.292-.076s-.452.034-.292.076M66.826 62.708c.409.436.765.792.792.792.125 0-.007-.15-.743-.84l-.792-.743.743.791m116.716.375c.002.367.036.497.076.29.04-.207.038-.507-.003-.667-.042-.159-.075.011-.073.377m-.17 1.417c0 .321.034.452.076.292a1.37 1.37 0 0 0 0-.584c-.042-.16-.076-.029-.076.292m-138.152.667c0 .595.03.839.067.541a5.297 5.297 0 0 0 0-1.083c-.037-.298-.067-.054-.067.542m171.359 3.702c-.046.119-.063 2.729-.037 5.799l.046 5.582.039-5.708.04-5.709h2.329l.047 5.459.047 5.458-.003-5.5-.004-5.5-1.21-.049c-.877-.036-1.234.011-1.294.168m7.833 0c-.046.119-.062 2.766-.037 5.882l.046 5.666.04-5.792.039-5.792h2.329l.047 5.875.047 5.875-.003-5.916-.003-5.917-1.211-.049c-.877-.036-1.234.011-1.294.168m30.626 2.839.037 3.042.05-2.956.049-2.956 5.788-.046 5.788-.046-5.875-.04-5.875-.039.038 3.041m22.337-2.917c1.627.028 4.29.028 5.917 0 1.627-.027.295-.049-2.959-.049s-4.585.022-2.958.049m21.067.001c-.042.068.621.125 1.475.125.853 0 1.516-.057 1.474-.125-.043-.069-.706-.125-1.474-.125-.769 0-1.432.056-1.475.125m14.502-.014a.457.457 0 0 0-.108.291c.001.113.05.106.13-.019.074-.117.645-.225 1.372-.259l1.245-.058-1.264-.033c-.695-.018-1.313.017-1.375.078m10.498.014c-.043.068.347.103.865.078 1.628-.082 1.824-.152.495-.178-.706-.014-1.317.031-1.36.1m14.766-.003c.436.035 1.148.035 1.584 0 .435-.034.079-.062-.792-.062s-1.227.028-.792.062m-78.669 7.996-.039 5.868-1.292.056-1.291.057 1.297.034c1.616.042 1.466.695 1.411-6.134l-.046-5.749-.04 5.868m4.793-3.902.083 1.867.049-1.736c.026-.954-.011-1.794-.083-1.867-.072-.072-.094.709-.049 1.736M279 76.826v5.827l-1.292.056-1.291.057 1.375.034 1.375.033v-5.916c0-3.255-.038-5.917-.084-5.917-.046 0-.083 2.622-.083 5.826m-21.771-3.909c0 1.008.028 1.399.061.869.033-.531.033-1.356-.001-1.834-.033-.478-.06-.044-.06.965m4.851 4 .003 5.833 1.25.011 1.25.01-1.206-.059-1.206-.059-.047-5.785-.047-5.785.003 5.834m19.5 0 .003 5.833 1.285.049 1.284.048.061 1.077.062 1.077-.013-1.125-.012-1.126-1.29-.049-1.289-.048-.047-5.785-.047-5.785.003 5.834M39.292 72.762c-.623.338-.585.479.041.155.275-.143.5-.294.5-.338 0-.107-.018-.101-.541.183m-1.417.894c-.371.269-.728.574-.792.678-.091.146 1.214-.77 1.57-1.102.258-.242-.217.017-.778.424m280.405-.205c-.046.073.446.107 1.092.076.843-.04 1.218.007 1.33.167.125.178.143.172.089-.027-.074-.273-2.354-.469-2.511-.216m-83.225 3.466c0 .641.031.883.067.538a6.219 6.219 0 0 0-.002-1.167c-.037-.296-.066-.013-.065.629M36.539 76.5c0 .321.034.452.076.292a1.37 1.37 0 0 0 0-.584c-.042-.16-.076-.029-.076.292m201.011.333c0 .504.031.711.069.459a3.608 3.608 0 0 0 0-.917c-.038-.252-.069-.046-.069.458m-119.14 1.792c.257.39.499.708.538.708.12 0-.518-1.014-.768-1.221-.13-.107-.026.123.23.513m-82.039 2.492c-.033 2.689-.071 3.052-.329 3.203-.161.093-.207.172-.104.175.494.013.569-.483.52-3.433l-.05-2.979-.037 3.034m261.465-2.409c-.003.307 3.869.467 4.055.167.043-.069-.789-.102-1.848-.073-1.455.04-1.961-.001-2.066-.166-.104-.165-.139-.147-.141.072m18.997.375c0 .23.065.417.144.417.079 0 .108-.187.064-.417-.044-.229-.109-.416-.144-.416-.035 0-.064.187-.064.416m21.125-.126c.573.032 1.511.032 2.084 0 .573-.033.104-.059-1.042-.059-1.146 0-1.615.026-1.042.059m-217.675 2.958c.152.319.306.551.342.515.077-.076-.429-1.097-.543-1.097-.042 0 .048.262.201.582M204.5 83.75c.311.321.603.583.649.583.046 0-.171-.262-.482-.583-.311-.321-.603-.583-.649-.583-.046 0 .171.262.482.583m13.167-.198c0 .029.243.273.541.542l.542.489-.49-.541c-.456-.505-.593-.619-.593-.49M34.333 85.083c-.229.131-.341.239-.25.239.092 0 .355-.108.584-.239.229-.131.341-.238.25-.238-.092 0-.354.107-.584.238M206 85.219c0 .029.244.272.542.541l.541.49-.489-.542c-.456-.505-.594-.618-.594-.489m-83.988.364c0 .092.107.355.238.584.131.229.238.341.238.25 0-.092-.107-.354-.238-.584-.131-.229-.238-.341-.238-.25m-91.309 1.375c-.399.39-.405.409-.044.128.711-.554.745-.586.627-.586-.063 0-.325.206-.583.458m92.88 1.875c.143.275.296.5.342.5.046 0-.033-.225-.175-.5s-.296-.5-.342-.5c-.046 0 .033.225.175.5m-7.541 5.115c.16.042.423.042.583 0 .16-.042.029-.076-.292-.076-.32 0-.452.034-.291.076m2.125.604c0 .029.243.273.541.542l.542.489-.49-.541c-.456-.505-.593-.619-.593-.49m43.708.063c.16.042.423.042.583 0 .161-.042.029-.076-.291-.076-.321 0-.452.034-.292.076m-6.083 2.314c-.623.338-.585.478.041.154.275-.142.5-.294.5-.337 0-.108-.018-.101-.541.183m56.098.988c.001.733.03 1.012.066.62a8.34 8.34 0 0 0-.002-1.333c-.035-.341-.064-.021-.064.713m-113.005 2c.001.55.032.755.069.455.037-.3.036-.75-.002-1s-.068-.005-.067.545m52.448-.667c-.229.131-.341.238-.25.238.092 0 .355-.107.584-.238.229-.131.341-.238.25-.238-.092 0-.354.107-.584.238m-39.961 2.583c0 .321.034.452.076.292.042-.16.042-.423 0-.583-.042-.161-.076-.029-.076.291m9.848 1c0 .596.03.84.067.542a5.297 5.297 0 0 0 0-1.083c-.037-.298-.067-.055-.067.541m-94.002.084c.001.55.032.755.069.455.038-.3.037-.75-.001-1s-.069-.005-.068.545m71.521 3.25c0 2.245.023 3.164.052 2.041a95.82 95.82 0 0 0 0-4.083c-.029-1.123-.052-.204-.052 2.042M111.372 104c0 .321.034.452.076.292a1.37 1.37 0 0 0 0-.584c-.042-.16-.076-.029-.076.292m53.861 4.583c.001 1.375.026 1.916.058 1.201a33.06 33.06 0 0 0-.001-2.5c-.031-.66-.057-.076-.057 1.299m-139.988-1.208-.995 1.042 1.042-.995c.967-.924 1.118-1.089.994-1.089-.025 0-.494.469-1.041 1.042m202.797-.419c.435.034 1.148.034 1.583 0 .435-.034.079-.063-.792-.063-.87 0-1.227.029-.791.063m-9.584.167c.482.034 1.269.034 1.75 0 .482-.034.088-.061-.875-.061-.962 0-1.356.027-.875.061m34.095.877c0 .596.031.84.068.542a5.307 5.307 0 0 0 0-1.084c-.037-.298-.068-.054-.068.542m78.747-.876c.76.031 1.96.031 2.666 0s.084-.057-1.383-.057c-1.466.001-2.044.026-1.283.057m-121.512.163c.296.037.821.037 1.167.001.345-.036.103-.066-.538-.067-.642 0-.925.029-.629.066m135.343.003c.484.034 1.234.033 1.666-.001.433-.034.036-.062-.88-.061-.917 0-1.271.028-.786.062m11.827.166c.482.034 1.269.034 1.75 0 .482-.033.088-.061-.875-.061-.962 0-1.356.028-.875.061m12.243.167c.615.032 1.665.033 2.333.001.669-.032.166-.058-1.117-.058-1.284-.001-1.831.025-1.216.057m-222.628 1.085-.49.542.542-.49c.298-.269.542-.512.542-.541 0-.129-.138-.016-.594.489M24.059 110.25c0 .825.028 1.184.063.797a10.87 10.87 0 0 0 .001-1.5c-.035-.438-.063-.122-.064.703m74.822 1.5c.001.458.034.626.072.373a3.015 3.015 0 0 0-.002-.834c-.04-.205-.071.003-.07.461m48.161.536c.252.038.664.038.916 0s.046-.069-.458-.069-.71.031-.458.069M24.205 113c0 .321.035.452.077.292a1.402 1.402 0 0 0 0-.584c-.042-.16-.077-.029-.077.292m140.834.833c0 .321.034.452.076.292.042-.16.042-.423 0-.583-.042-.161-.076-.029-.076.291m155.695 2.334c0 1.42.025 2.002.057 1.291.031-.71.031-1.873 0-2.583-.032-.71-.057-.129-.057 1.292m-74.517 2.333c0 .504.031.71.069.458.038-.252.038-.664 0-.916s-.069-.046-.069.458m-95.14.375-.827.875.875-.827c.813-.769.951-.923.827-.923-.026 0-.42.394-.875.875m94.962 2.625c0 .321.034.452.076.292a1.37 1.37 0 0 0 0-.584c-.042-.16-.076-.029-.076.292m-144.872.562c0 .18.662 1.438.756 1.438.046 0-.077-.319-.273-.708-.387-.766-.483-.912-.483-.73m282.542.688c.002.367.036.497.076.29a1.834 1.834 0 0 0-.004-.667c-.042-.159-.074.01-.072.377m-205.834-.135c.16.042.423.042.583 0 .161-.042.029-.076-.291-.076-.321 0-.452.034-.292.076m-2.208.198c0 .08.131.249.291.375.261.205.269.2.075-.049-.184-.235-.172-.29.083-.356.237-.061.221-.082-.074-.097-.207-.011-.375.046-.375.127M245.872 124c0 .321.034.452.076.292a1.37 1.37 0 0 0 0-.584c-.042-.16-.076-.029-.076.292m137.678 1.333c0 .504.031.711.069.459a3.608 3.608 0 0 0 0-.917c-.038-.252-.069-.046-.069.458m-131.143 4.417c0 2.567.023 3.593.051 2.282.028-1.312.028-3.412 0-4.667s-.051-.182-.051 2.385m-222.074-4.342c0 .046.225.2.5.342.275.142.5.221.5.175 0-.046-.225-.199-.5-.342-.275-.142-.5-.221-.5-.175m215.379 1.092c0 .412.033.581.072.375.04-.206.04-.544 0-.75-.039-.206-.072-.038-.072.375m69.344.667c0 .687.029.968.065.625a7.247 7.247 0 0 0 0-1.25c-.036-.344-.065-.063-.065.625m-283.223-.918c0 .112 2.354 1.286 2.428 1.212.033-.033-.499-.337-1.184-.676-.684-.339-1.244-.58-1.244-.536m315.071 1.474c-.047.123-.06.817-.028 1.542l.057 1.318.033-1.447c.034-1.441.036-1.447.492-1.517l.459-.069-.464-.025c-.255-.014-.502.075-.549.198m3.224.064c.3.038.75.037 1-.001s.005-.069-.545-.068c-.55.001-.755.032-.455.069m3.664.164c.206.04.543.04.75 0 .206-.04.037-.072-.375-.072-.413 0-.582.032-.375.072m3.406.152a.61.61 0 0 1 .366.366c.06.204.074.19.05-.05a.408.408 0 0 0-.366-.366c-.24-.025-.254-.011-.05.05m-111.646 1.147c.001.55.032.755.069.455a4.447 4.447 0 0 0-.002-1c-.038-.25-.068-.005-.067.545m-87.719.083c-.195.275-.318.5-.272.5.045 0 .243-.225.439-.5s.319-.5.273-.5c-.046 0-.244.225-.44.5m58.875-.214c.252.039.665.039.917 0 .252-.038.046-.069-.458-.069-.505 0-.711.031-.459.069m-2.914.166c.207.039.507.038.666-.004.16-.042-.01-.074-.377-.072-.366.002-.497.036-.289.076m-35.402 1.465c0 .825.028 1.184.063.797a10.87 10.87 0 0 0 .001-1.5c-.034-.438-.063-.122-.064.703m32.402-1.299c.207.04.507.039.666-.003.16-.042-.01-.074-.377-.073-.366.002-.497.036-.289.076m-1.061 2.382c0 1.329.026 1.873.057 1.209.032-.665.032-1.752 0-2.417-.031-.665-.057-.121-.057 1.208m105.163.834c0 1.054.027 1.485.06.958.034-.527.034-1.39 0-1.917-.033-.527-.06-.096-.06.959M40.5 131.408c0 .046.225.2.5.342.275.142.5.221.5.175 0-.046-.225-.199-.5-.342-.275-.142-.5-.221-.5-.175m237.734.323c-.048.127-.059.558-.024.958l.065.728.029-.861c.017-.509.115-.896.238-.946.163-.065.162-.087-.006-.097-.117-.007-.253.091-.302.218m-123.322 1.144-1.162 1.208 1.208-1.162c1.123-1.079 1.285-1.254 1.163-1.254-.026 0-.57.543-1.209 1.208m90.46-.542c0 .321.034.452.076.292.042-.16.042-.423 0-.583-.042-.161-.076-.03-.076.291m137.67.584c.002.366.036.497.076.289a1.83 1.83 0 0 0-.003-.666c-.042-.16-.075.01-.073.377M45 133.833c.504.267.992.485 1.083.485.092 0-.246-.218-.75-.485-.504-.266-.991-.484-1.083-.484-.092 0 .246.218.75.484m275.906 4.917c-.001 2.292.023 3.252.052 2.135.029-1.118.029-2.993 0-4.167s-.052-.26-.052 2.032m26.159-1.917c0 1.238.027 1.744.059 1.125a26.38 26.38 0 0 0 0-2.25c-.032-.618-.059-.112-.059 1.125m35.818-1.333c0 .504.032.71.07.458.038-.252.038-.664 0-.916s-.07-.046-.07.458m-93.325.667c0 .779.029 1.098.064.708a9.575 9.575 0 0 0 0-1.417c-.035-.389-.064-.071-.064.709m-138.318.208-.49.542.542-.49c.298-.269.541-.513.541-.542 0-.128-.137-.015-.593.49m93.802.875c.002.367.036.497.076.29.04-.208.038-.508-.003-.667-.042-.159-.075.01-.073.377m-191.875.316c0 .036.293.094.652.128.359.034.617.005.574-.066-.079-.128-1.226-.186-1.226-.062m225.232 2.267c0 1.238.026 1.744.058 1.125a26.38 26.38 0 0 0 0-2.25c-.032-.618-.058-.112-.058 1.125m36.319-.916c.001.55.032.755.069.455.038-.3.037-.75-.001-1s-.069-.005-.068.545m-130.977 4.166c-.001 2.75.022 3.899.05 2.552.028-1.346.028-3.596 0-5-.028-1.403-.05-.302-.05 2.448M54.762 139c.062.229.181.529.266.667.107.173.121.123.043-.167a3.06 3.06 0 0 0-.266-.667c-.107-.173-.12-.123-.043.167m313.292.958c2.733.026 7.158.026 9.833 0s.438-.047-4.97-.047c-5.409 0-7.597.022-4.863.047m-158.156 2.792c0 1.192.027 1.657.059 1.035.032-.623.032-1.598 0-2.167-.033-.569-.059-.06-.059 1.132m104.654 1.167c.001.55.032.755.069.455.037-.3.036-.75-.002-1s-.068-.005-.067.545m-25.164.5c.001.641.031.883.067.538a6.308 6.308 0 0 0-.001-1.167c-.037-.296-.067-.013-.066.629m57.84 1c0 .916.028 1.27.062.786a13.62 13.62 0 0 0-.001-1.667c-.034-.432-.062-.036-.061.881m-181.853-.964c.252.038.665.038.917 0s.045-.07-.459-.07-.71.032-.458.07m63.583 1.838c1.123.029 2.961.029 4.084 0 1.123-.029.204-.052-2.042-.052s-3.165.023-2.042.052m11.936 1.626c.001.916.029 1.27.062.786.034-.485.034-1.235 0-1.667-.035-.432-.062-.036-.062.881m37.666.416c0 .871.028 1.227.063.792.034-.435.034-1.148 0-1.583-.035-.436-.063-.08-.063.791m35.83.75c.001.734.03 1.013.066.621a8.34 8.34 0 0 0-.002-1.333c-.035-.342-.064-.021-.064.712M72.75 151c.451.458.858.833.904.833.046 0-.286-.375-.737-.833-.452-.458-.859-.833-.904-.833-.046 0 .286.375.737.833m179.489 3.583c0 2.2.023 3.077.052 1.949.029-1.128.029-2.928 0-4s-.053-.149-.052 2.051m-10.031-3.626a26.38 26.38 0 0 0 2.25 0c.619-.032.113-.058-1.125-.058-1.237 0-1.743.026-1.125.058m47.013 1.46c.001.641.031.883.067.538a6.222 6.222 0 0 0-.001-1.167c-.037-.296-.066-.013-.066.629m-79.156 1.666c0 1.192.027 1.658.059 1.035.032-.622.032-1.597-.001-2.167-.032-.569-.059-.059-.058 1.132m137.329-.333c.001.917.029 1.27.062.786.034-.484.034-1.234 0-1.667-.035-.432-.062-.036-.062.881m-275.815.458-1.329 1.375 1.375-1.329c1.277-1.235 1.451-1.421 1.329-1.421-.025 0-.643.619-1.375 1.375m242.65.542c0 1.008.028 1.399.061.869.033-.531.033-1.356-.001-1.833-.033-.478-.06-.044-.06.964m-165.187-1.468c.16.041.423.041.583 0 .16-.042.029-.077-.292-.077s-.452.035-.291.077m-4.667.5c.16.041.423.041.583 0 .161-.042.029-.077-.291-.077-.321 0-.452.035-.292.077m134.353 2.968c0 .917.028 1.27.062.786s.033-1.234-.001-1.667c-.034-.432-.062-.036-.061.881m-130.325.512-.653.595.708-.54c.648-.493.805-.65.653-.65-.03 0-.349.268-.708.595m-.736.877c0 .133-.538.205-1.709.229l-1.708.035 1.652.055c1.527.051 2.188-.09 1.879-.4-.063-.062-.114-.026-.114.081m97.906 4.361c0 2.521.023 3.552.052 2.292.028-1.261.028-3.323 0-4.584-.029-1.26-.052-.229-.052 2.292m43.489-1.167c0 .963.027 1.357.061.875.034-.481.034-1.268 0-1.75-.034-.481-.061-.087-.061.875m-116.736-.791c.409.435.765.791.792.791.125 0-.007-.149-.743-.84l-.792-.743.743.792m141.726.375c.001.55.032.755.069.455.037-.3.036-.75-.002-1s-.068-.005-.067.545m-171.834.166c.001.55.032.755.069.456.038-.3.037-.75-.001-1-.038-.251-.069-.006-.068.544m178.856 3.834c0 2.658.023 3.722.051 2.364.028-1.357.028-3.532 0-4.833-.029-1.301-.052-.19-.051 2.469m26.495-.75c0 1.695.025 2.389.055 1.541.03-.848.03-2.235 0-3.083-.03-.848-.055-.154-.055 1.542m-173.236-1.948c0 .029.244.272.542.541l.542.49-.49-.542c-.456-.505-.594-.618-.594-.489m-31.961 1.114c0 .321.034.452.076.292.042-.16.042-.423 0-.583-.042-.161-.076-.03-.076.291m-2.122.167c.142.275.296.5.342.5.046 0-.033-.225-.175-.5-.143-.275-.296-.5-.342-.5-.046 0 .033.225.175.5m69.995 4.486c.004 3.473.042 4.08.255 4.138.182.049.194.028.045-.078-.151-.106-.219-1.214-.255-4.137l-.049-3.992.004 4.069m68.658-.819c0 1.695.024 2.389.055 1.541.03-.848.03-2.235 0-3.083-.031-.848-.055-.154-.055 1.542m-95.001.75c0 1.65.025 2.302.056 1.45.03-.853.03-2.203-.001-3-.03-.798-.055-.1-.055 1.55m129.983-2c.001.55.032.755.069.455.037-.3.036-.75-.002-1s-.068-.005-.067.545m59.323-.802c.161.042.423.042.584 0 .16-.042.029-.076-.292-.076s-.452.034-.292.076m-197.336 2.052c0 .32.034.452.076.291.042-.16.042-.423 0-.583-.042-.16-.076-.029-.076.292m-33.019.218c-.013.19-.097.258-.228.184-.165-.094-.166-.072-.003.104.256.275.434.121.329-.285-.075-.291-.08-.291-.098-.003m235.192.448c0 .413.033.582.073.375a2.418 2.418 0 0 0 0-.75c-.04-.206-.073-.037-.073.375M220.039 168c0 .321.034.452.076.292a1.37 1.37 0 0 0 0-.584c-.042-.16-.076-.029-.076.292m-104.76 5.381c.051 2.953.144 5.631.206 5.952l.112.584 1.91.191c1.05.105 2.191.199 2.535.208l.625.017-.001-1.791c0-.986-.049-3.53-.109-5.654l-.109-3.862-.933-.177a596.96 596.96 0 0 1-2.182-.424 274.99 274.99 0 0 0-1.698-.329l-.449-.084.093 5.369m60.782-2.798c0 .917.028 1.271.062.786.034-.484.033-1.234-.001-1.666-.034-.433-.062-.036-.061.88m202.65-.797c.253.039.628.038.833-.002.205-.04-.002-.071-.461-.07-.458.002-.626.034-.372.072m-64.987 1.297c0 .734.03 1.013.065.621a8.344 8.344 0 0 0-.001-1.333c-.036-.342-.065-.021-.064.712m-168.057-.5c.229.131.491.239.583.239.092 0-.021-.108-.25-.239s-.492-.238-.583-.238c-.092 0 .021.107.25.238m236.885.834c.001.55.032.755.069.455.037-.3.036-.75-.002-1s-.068-.005-.067.545m-162.68.25c0 .32.034.452.076.291.042-.16.042-.423 0-.583-.042-.16-.076-.029-.076.292m127.856 1.25c0 .916.028 1.27.062.786a13.62 13.62 0 0 0-.001-1.667c-.034-.432-.062-.036-.061.881m-132.52-.469c.161.042.423.042.584 0 .16-.042.029-.076-.292-.076s-.452.034-.292.076m-38.996 1.719c0 .412.033.581.072.375.04-.207.04-.544 0-.75-.039-.207-.072-.038-.072.375m69.524 2.5c0 1.787.025 2.518.055 1.625.03-.894.03-2.357 0-3.25-.03-.894-.055-.163-.055 1.625m6.333-.167c0 1.604.025 2.26.055 1.458.031-.802.031-2.114 0-2.916-.03-.802-.055-.146-.055 1.458m61.493.25c.001 1.008.028 1.399.061.869a16.72 16.72 0 0 0 0-1.833c-.034-.478-.061-.044-.061.964m69.155-.583c0 .504.031.71.069.458.038-.252.038-.665 0-.917s-.069-.046-.069.459m-207.207 4.049c-.7.821-.706.836-.111.284.527-.489 1.067-1.186.899-1.159-.027.004-.381.398-.788.875m207.386 1.867c0 1.009.028 1.4.061.869.033-.53.033-1.355-.001-1.833s-.061-.044-.06.964m-69.515.667c.001.458.034.626.072.373a3.015 3.015 0 0 0-.002-.834c-.04-.205-.071.003-.07.461m-132.746.208c-.294.342-.514.709-.426.709.034 0 .228-.225.431-.5.402-.544.398-.679-.005-.209m-154.974 3.5-.911.959.958-.911c.527-.501.959-.933.959-.959 0-.123-.16.021-1.006.911m154.506 1.094c0 .029.243.273.541.542l.542.489-.49-.541c-.456-.505-.593-.619-.593-.49m8.375 1.365c.002.366.036.497.076.289a1.83 1.83 0 0 0-.003-.666c-.042-.16-.075.01-.073.377m-166.131.791-.994 1.042 1.041-.995c.573-.547 1.042-1.016 1.042-1.041 0-.124-.164.027-1.089.994m143.466-.755c.254.038.629.037.834-.002.205-.04-.003-.071-.461-.07-.458.001-.626.034-.373.072m17.748.168c.298.037.785.037 1.083 0 .298-.037.054-.068-.541-.068-.596 0-.84.031-.542.068m69.588.502a10.87 10.87 0 0 0 1.5-.001c.387-.035.029-.063-.796-.063-.825.001-1.142.029-.704.064m3.351 1.794c0 1.1.027 1.528.06.951.032-.576.032-1.476-.001-2-.033-.523-.06-.051-.059 1.049m45.394 1.706c.482.034 1.269.034 1.75 0 .482-.034.088-.061-.875-.061-.962 0-1.356.027-.875.061m-6.416.165c.343.036.906.036 1.25 0 .343-.036.062-.065-.625-.065-.688 0-.969.029-.625.065m-59.327.169c.623.032 1.598.032 2.167 0 .569-.033.06-.059-1.132-.059s-1.657.027-1.035.059m52.748-.001a8.34 8.34 0 0 0 1.333-.002c.341-.035.021-.064-.713-.064-.733.001-1.012.03-.62.066m-67.578.169c1.174.028 3.049.028 4.166-.001 1.118-.028.157-.052-2.134-.052-2.292 0-3.206.024-2.032.053m58.907-.001c.664.031 1.752.031 2.416 0 .665-.032.121-.058-1.208-.058s-1.873.026-1.208.058m-70.917.167c.802.03 2.115.03 2.917 0 .802-.031.146-.056-1.459-.056-1.604 0-2.26.025-1.458.056m63.839-.001c.531.033 1.356.033 1.834-.001.478-.033.044-.06-.965-.06-1.008 0-1.399.028-.869.061m-74.832.167c.622.032 1.597.032 2.167 0 .569-.033.059-.059-1.132-.059-1.192 0-1.658.027-1.035.059m68.414-.001a8.34 8.34 0 0 0 1.333-.002c.342-.035.021-.064-.712-.064-.734.001-1.013.03-.621.066m103.089.002c1.266.028 3.291.028 4.5 0 1.209-.029.173-.052-2.302-.052s-3.464.024-2.198.052m-109.589.164c.392.035.992.035 1.333-.001.342-.036.021-.064-.712-.064-.734.001-1.013.03-.621.065m85.922.003c1.266.028 3.291.028 4.5-.001 1.209-.028.174-.051-2.301-.051s-3.465.023-2.199.052m-332.769 7.96c-.152.32-.243.582-.201.582.114 0 .62-1.021.544-1.097-.036-.036-.19.196-.343.515m178.911-.161c-.279.613-.226.743.076.186.141-.26.226-.504.187-.542-.038-.038-.156.122-.263.356m-164.735 7.033c.756.031 1.994.031 2.75 0s.137-.056-1.375-.056-2.131.025-1.375.056m-5.414.163c.253.038.628.037.833-.003.205-.039-.002-.071-.461-.069-.458.001-.626.033-.372.072m12.085.002c.392.035.992.035 1.333-.001.342-.036.021-.064-.712-.064-.734.001-1.013.03-.621.065m3.579.16c.16.041.423.041.583 0 .161-.042.029-.077-.291-.077-.321 0-.452.035-.292.077m346.704 10.968c0 6.142.021 8.63.046 5.53.025-3.101.025-8.126 0-11.167-.026-3.041-.046-.505-.046 5.637M40.042 209.448c.16.042.423.042.583 0 .16-.042.029-.076-.292-.076s-.452.034-.291.076m2.083.17c.206.039.544.039.75 0 .206-.04.038-.073-.375-.073s-.581.033-.375.073m-28.417.164c.161.041.423.041.584 0 .16-.042.029-.077-.292-.077s-.452.035-.292.077m1.704 10.718c0 6.004.021 8.46.046 5.458a763.85 763.85 0 0 0 0-10.916c-.025-3.002-.046-.546-.046 5.458m28.713-10.716c.206.04.544.04.75 0 .206-.039.038-.072-.375-.072s-.581.033-.375.072m2.083.164c.161.042.423.042.584 0 .16-.042.029-.076-.292-.076s-.452.034-.292.076m4.667.5c.16.042.423.042.583 0 .161-.042.029-.076-.291-.076-.321 0-.452.034-.292.076m124.706 3.927-2.164 2.208 2.208-2.164c2.051-2.01 2.284-2.252 2.164-2.252-.024 0-1.018.993-2.208 2.208m-7.59.917-.574.625.625-.575c.581-.534.701-.675.574-.675-.028 0-.309.281-.625.625m14.415.916-.489.542.541-.49c.505-.456.619-.593.49-.593-.029 0-.273.243-.542.541m-10.248 1.417-.575.625.625-.574c.344-.316.625-.598.625-.625 0-.128-.141-.008-.675.574m5.166 3.667-.574.625.625-.575c.344-.316.625-.597.625-.625 0-.127-.141-.007-.676.575m-56.772 2.291c.001.55.032.755.069.456.037-.3.036-.75-.002-1-.038-.251-.068-.006-.067.544m-63.226.292c.751.8 1.007.952 1.007.597 0-.107-.051-.143-.115-.079-.063.063-.456-.206-.875-.598l-.76-.712.743.792m106.216-.093c.16.041.423.041.583 0 .16-.042.029-.077-.292-.077s-.452.035-.291.077m-72.375 5.76c0 .068 6.843.107 15.208.085 8.365-.021 12.771-.059 9.792-.083-14.181-.114-25-.116-25-.002m40.416-.042-3.833.093 3.875.037c2.497.024 3.875-.023 3.875-.13 0-.092-.019-.15-.042-.13-.023.021-1.766.079-3.875.13m35.75.042c0 .068 47.944.106 106.542.083 58.598-.022 89.179-.06 67.958-.083-103.85-.113-174.5-.113-174.5 0m-139.804.083c4.37.025 11.57.025 16 0s.854-.045-7.946-.045c-8.8 0-12.424.02-8.054.045m108.346 4.823c.16.042.423.042.583 0 .161-.042.029-.076-.291-.076-.321 0-.452.034-.292.076m4.585.003c.208.04.508.039.667-.003.159-.042-.01-.074-.377-.073-.367.002-.497.036-.29.076m-2.418.164c.16.042.423.042.583 0 .16-.042.029-.076-.292-.076s-.452.034-.291.076m-12.375 2.135c.311.321.603.583.648.583.046 0-.171-.262-.482-.583-.311-.321-.603-.583-.648-.583-.046 0 .171.262.482.583m-75.962 1.083c0 .321.035.452.077.292.041-.16.041-.423 0-.583-.042-.161-.077-.03-.077.291m91.337 2.782c.16.042.423.042.583 0 .16-.042.029-.076-.292-.076s-.452.034-.291.076m-2.917.169c.206.04.544.04.75 0 .206-.039.037-.072-.375-.072-.413 0-.581.033-.375.072m14.125 2.383c.358.366.688.666.734.666.046 0-.209-.3-.567-.666-.358-.367-.689-.667-.735-.667-.045 0 .21.3.568.667m2.417 2.416c.311.321.603.584.648.584.046 0-.171-.263-.482-.584-.311-.321-.603-.583-.648-.583-.046 0 .171.262.482.583m.833.636c0 .029.244.272.542.541l.541.49-.489-.542c-.456-.505-.594-.618-.594-.489m-115.167.665c0 .107 1.249.949 1.408.949.076 0-.115-.172-.426-.382-.807-.545-.982-.647-.982-.567m135.048.239a16.72 16.72 0 0 0 1.833 0c.478-.034.044-.061-.964-.061-1.008.001-1.399.028-.869.061m-4.756.161c.206.04.544.04.75 0 .206-.039.037-.072-.375-.072-.413 0-.581.033-.375.072m-3.081.169c.253.038.628.037.833-.002.205-.04-.002-.071-.46-.07-.459.001-.626.034-.373.072m-7.743.171c.944.03 2.444.03 3.333 0 .889-.03.116-.054-1.717-.054-1.834 0-2.561.025-1.616.054m-115.174.827c.207.04.507.039.667-.003.159-.042-.011-.074-.377-.073-.367.002-.497.036-.29.076m16.915-.003c.16.042.423.042.583 0 .16-.042.029-.076-.292-.076s-.452.034-.291.076m-12.417.176c.94.03 2.477.03 3.417 0 .939-.029.17-.054-1.709-.054s-2.648.025-1.708.054m7.922-.001c.438.034 1.113.034 1.5-.001s.028-.063-.797-.063c-.825.001-1.141.029-.703.064"/></svg>