<svg xmlns="http://www.w3.org/2000/svg" xmlns:xlink="http://www.w3.org/1999/xlink" version="1.1" id="layer" x="0px" y="0px" style="enable-background:new -153 -46 652 652;" xml:space="preserve" viewBox="-130.38 198.35 599.98 156.05">
<style type="text/css">
	.st0{fill:#2B2F32;}
</style>
<path class="st0" d="M442.7,238.7c-1.2,7.1,2.3,13.6,7.5,16.3c-3.7,19.7-18.5,51.1-26.8,51.1c-8.3,0-1.9-29.2,7.2-63.8  c1.9-7.4-17.6-5.8-21.5,0.8c-6.6,35.2-21.2,62.2-30.2,62.2c-3.6,0-4.1-4.4-4.1-8.3c0-15.7,8.5-47,9.6-53.6c1.1-6.5-7.9-5.1-13.8-2.2  c-1.8,1-15.6,7.9-22.3,11c-4.1-15.1-21-13.1-24.4-1.7c-2.5,8.2,3.7,13.5,9.9,14.7c-0.3,18.3-11.1,41.5-23.4,41.5  c-15.4,0-8.3-49.2,11.6-61.3c-1.1-6.3-9.4-7.2-17.1-3.8c-14.8,6.3-23.9,30.1-22.6,49.8c-5.8,9-11.5,14.6-15.1,14.6  c-1.7,0-3.6-1.6-3.6-5.8c0-11.6,5.8-43.7,9.1-65.2c2.2-15.4-0.5-34.1-21.5-34.1c-14.7,0-22.8,14-28.8,35.8h-8.9  c-3.8,0-6.1,9.9-1.9,10.2c1.3,0.1,4.5,0.1,8.3,0.1c-1.1,4.8-2.1,10-3.1,15.3c-0.5,2.7-1,5.6-1.5,8.5c-7.5,15.7-25,37.2-40.6,37.2  c-7.2,0-9.8-8.8-9.3-19.6c42.4,1.9,55.5-51.4,17.6-51.1c-22.6,0.1-36.5,24-38.2,46c-6.8,11.2-18,25-28.4,25c-22,0-7.2-60.2,7.7-60.2  c6.3,0,5,10.2,1.1,17.1c1.4,8.8,15.4,9.6,18.7-5.2c2.5-11.3-4.4-22.3-19-22.3c-24.2,0-39.5,27-39.6,50.2  c-4.7,10.1-10.7,15.6-15.1,15.6c-3.6,0-4.1-4.1,0.3-28.3c1.1-6.1,2.2-12.9,3.3-20.1c1.6-10.3-2.7-16.4-11.6-16.5c0,0-1,0-1.4,0  c-6.2,0.3-14.5,3-23.3,9.1c-5.3-12.4-20.3-9.9-23.5,1c-2.5,8.6,3.7,14.1,9.9,15.2c-0.4,18.8-11.1,42.8-23.4,42.8  c-15.4,0-8.3-50.9,11.6-63.3c-1.1-6.6-9.4-7.4-17.1-4.1c-26.7,11.3-34.9,80.9,2.5,80.9c29.7,0,41.2-42.1,41.8-60.7  c4.8-3.6,10.1-6.4,13.1-6.5h0.1c1.4,0,1.9,0.6,1.6,2.2c-1.7,12.7-6,34.1-6,45.7c0,11.8,3.3,19.3,13.5,19.3c9.6,0,19-8.5,25.4-19.2  c3.4,11.1,11.6,19.2,25.7,19.2c14,0,25.1-11.2,32.8-22.1c2.7,12.6,10.6,22.1,24.7,22.1c19.6,0,33.9-15.6,42.2-30.2  c-0.5,3.8-1,7.8-1.5,11.8c-2.8,22.3-4.9,31.4-8.5,39.4c-1.5,3.3-3.1,6.5-4.9,9.6c-1.4,2.5,0.3,3.6,2.5,3.6c4.9,0,12.9-3,17.9-11.3  c4.7-7.7,9.4-15.4,14.3-59.7c1.1-9.5,2.6-23.2,4.7-36.3h5.5c5,0,9.6-9.4,3.8-9.9c-1-0.1-3.8-0.2-7.5-0.2  c3.1-15.6,7.4-28.1,13.3-28.1c5.5,0,6.6,8.5,4.1,22.3c-4.1,21.5-8,48.4-9.6,63.8c-1.9,18.2,4.1,25.3,14.3,25.3  c8,0,16.9-7.3,23.7-16.8c3.5,9.8,10.7,16.8,22.8,16.8c27.2,0,39.2-34.4,41.4-53.9c4-1.3,7.8-2.9,11.6-4.7  c-2.6,13.6-4.6,28.5-4.6,37.2c0,12.7,6.3,21.2,16,21.2c14.2,0,23.9-13.4,29.8-24.5c0,14.6,5.6,24.8,18.9,24.8  c28.9,0,49.2-58.6,49.2-77.3C469.6,222.2,445.2,223,442.7,238.7z M183.5,247.5c11.6,0,3,29.9-17.2,31.8  C168.9,263.7,176.1,247.5,183.5,247.5L183.5,247.5z M67.5,228.8c16.2,0,19.8-28.1,2.8-28.1C54.3,200.7,51,228.8,67.5,228.8z   M-56.9,202.7c5.2,3,12.9,13.8,9.9,36.9c-5,36.9-24.8,67.1-31.4,67.1c-3.8,0-3.6-5.8,1.4-27.2c6.6-28.1,15.7-67.9-20.1-67.9  c-38,0-42.6,40.7-18.2,45.7c-3.6-19,7.7-36.9,18.4-36.9c11.6,0,6.6,22.3,1.9,46.2c-5.5,27.8-11.8,59.4,10.2,59.4  c30.5,0,53.4-56.4,57.5-86.4C-21.9,201.6-45.1,191.4-56.9,202.7z"/>
</svg>