<svg xmlns="http://www.w3.org/2000/svg" xml:space="preserve" viewBox="-130.38 198.35 599.98 156.05"><path fill="#2b2f32" d="M442.7 238.7c-1.2 7.1 2.3 13.6 7.5 16.3-3.7 19.7-18.5 51.1-26.8 51.1s-1.9-29.2 7.2-63.8c1.9-7.4-17.6-5.8-21.5.8-6.6 35.2-21.2 62.2-30.2 62.2-3.6 0-4.1-4.4-4.1-8.3 0-15.7 8.5-47 9.6-53.6 1.1-6.5-7.9-5.1-13.8-2.2-1.8 1-15.6 7.9-22.3 11-4.1-15.1-21-13.1-24.4-1.7-2.5 8.2 3.7 13.5 9.9 14.7-.3 18.3-11.1 41.5-23.4 41.5-15.4 0-8.3-49.2 11.6-61.3-1.1-6.3-9.4-7.2-17.1-3.8-14.8 6.3-23.9 30.1-22.6 49.8-5.8 9-11.5 14.6-15.1 14.6-1.7 0-3.6-1.6-3.6-5.8 0-11.6 5.8-43.7 9.1-65.2 2.2-15.4-.5-34.1-21.5-34.1-14.7 0-22.8 14-28.8 35.8h-8.9c-3.8 0-6.1 9.9-1.9 10.2 1.3.1 4.5.1 8.3.1-1.1 4.8-2.1 10-3.1 15.3-.5 2.7-1 5.6-1.5 8.5-7.5 15.7-25 37.2-40.6 37.2-7.2 0-9.8-8.8-9.3-19.6 42.4 1.9 55.5-51.4 17.6-51.1-22.6.1-36.5 24-38.2 46-6.8 11.2-18 25-28.4 25-22 0-7.2-60.2 7.7-60.2 6.3 0 5 10.2 1.1 17.1 1.4 8.8 15.4 9.6 18.7-5.2 2.5-11.3-4.4-22.3-19-22.3-24.2 0-39.5 27-39.6 50.2-4.7 10.1-10.7 15.6-15.1 15.6-3.6 0-4.1-4.1.3-28.3 1.1-6.1 2.2-12.9 3.3-20.1 1.6-10.3-2.7-16.4-11.6-16.5h-1.4c-6.2.3-14.5 3-23.3 9.1-5.3-12.4-20.3-9.9-23.5 1-2.5 8.6 3.7 14.1 9.9 15.2-.4 18.8-11.1 42.8-23.4 42.8-15.4 0-8.3-50.9 11.6-63.3-1.1-6.6-9.4-7.4-17.1-4.1-26.7 11.3-34.9 80.9 2.5 80.9 29.7 0 41.2-42.1 41.8-60.7 4.8-3.6 10.1-6.4 13.1-6.5h.1c1.4 0 1.9.6 1.6 2.2-1.7 12.7-6 34.1-6 45.7 0 11.8 3.3 19.3 13.5 19.3 9.6 0 19-8.5 25.4-19.2 3.4 11.1 11.6 19.2 25.7 19.2 14 0 25.1-11.2 32.8-22.1 2.7 12.6 10.6 22.1 24.7 22.1 19.6 0 33.9-15.6 42.2-30.2-.5 3.8-1 7.8-1.5 11.8-2.8 22.3-4.9 31.4-8.5 39.4-1.5 3.3-3.1 6.5-4.9 9.6-1.4 2.5.3 3.6 2.5 3.6 4.9 0 12.9-3 17.9-11.3 4.7-7.7 9.4-15.4 14.3-59.7 1.1-9.5 2.6-23.2 4.7-36.3h5.5c5 0 9.6-9.4 3.8-9.9-1-.1-3.8-.2-7.5-.2 3.1-15.6 7.4-28.1 13.3-28.1 5.5 0 6.6 8.5 4.1 22.3-4.1 21.5-8 48.4-9.6 63.8-1.9 18.2 4.1 25.3 14.3 25.3 8 0 16.9-7.3 23.7-16.8 3.5 9.8 10.7 16.8 22.8 16.8 27.2 0 39.2-34.4 41.4-53.9 4-1.3 7.8-2.9 11.6-4.7-2.6 13.6-4.6 28.5-4.6 37.2 0 12.7 6.3 21.2 16 21.2 14.2 0 23.9-13.4 29.8-24.5 0 14.6 5.6 24.8 18.9 24.8 28.9 0 49.2-58.6 49.2-77.3 0-20.9-24.4-20.1-26.9-4.4zm-259.2 8.8c11.6 0 3 29.9-17.2 31.8 2.6-15.6 9.8-31.8 17.2-31.8zm-116-18.7c16.2 0 19.8-28.1 2.8-28.1-16 0-19.3 28.1-2.8 28.1zm-124.4-26.1c5.2 3 12.9 13.8 9.9 36.9-5 36.9-24.8 67.1-31.4 67.1-3.8 0-3.6-5.8 1.4-27.2 6.6-28.1 15.7-67.9-20.1-67.9-38 0-42.6 40.7-18.2 45.7-3.6-19 7.7-36.9 18.4-36.9 11.6 0 6.6 22.3 1.9 46.2-5.5 27.8-11.8 59.4 10.2 59.4 30.5 0 53.4-56.4 57.5-86.4 5.4-38-17.8-48.2-29.6-36.9z"/></svg>
