<?xml version="1.0" encoding="utf-8"?>
<svg version="1.1" id="Layer_1" xmlns="http://www.w3.org/2000/svg" xmlns:xlink="http://www.w3.org/1999/xlink" x="0px" y="0px"
	 viewBox="0 0 203.9 157.9" style="enable-background:new 0 0 203.9 157.9;" xml:space="preserve">
<g>
	<path d="M157,114.4v29.6c0,7.5,0,8,5.4,8.6v2.3h-17.9v-2.4c5.4-0.6,5.4-1.2,5.4-8.6v-17.1c-0.2-4.2,0.8-3.8-4.5-2.2"/>
	<path d="M174.5,133c0,7.8,2.3,19.4,12.3,19.4c5.4,0,10-3,13.1-7.3l1.4,1.3c-3.4,5.5-9,9.4-15.5,9.4c-11.2,0-19.4-9.1-19.4-20.1
		c0-10.2,7.1-20.8,18.3-20.8c10,0,16.9,8.6,16.9,18H174.5z M193.5,130c0.5-5.5-1.9-12.3-8.9-12.3c-6.8,0-9.6,6.9-9.8,12.3H193.5z"/>
	<g>
		<path d="M57.9,76.7c-9.5,7.5-16.6,19-17.7,28c-0.9,7.5,1.5,13.7,9.5,14.1c8.4,0.4,17.2-6.8,23.4-13.5c4.9-5.3,9.3-13.2,9.7-17.9
			c0.2-2.2,0-4-1.1-5.7c-0.4-0.9-0.9-1.1-0.7-1.5c0.2-0.4,1.1,0,1.8,0.7c0.7,0.7,2.9,3.3,2.4,8.4c-0.2,6-4.2,13-9.1,18.5
			c-5.7,6.2-17,13.7-26.9,13c-9.9-0.7-14.8-7.1-13.7-16.6c1.1-8.8,8.6-20.3,20.3-29.1c10.6-7.9,23.8-13.5,35.3-13.5
			c12.6,0,26.7,4.9,24.5,23.2c-1.3,13.5-25,43.1-39.5,57.6v0.2c7.1-4.9,14.3-10.4,25.2-18.3c9.3-6.6,20.3-14.8,27.4-20.3
			c2.7-7.5,5.7-15.5,9.7-21.9c5.3-8.4,11-12.6,15.7-12.6c4,0,6.8,3.5,5.1,8.8c-2.9,9.1-14.1,16.8-20.1,22.5
			c-3.3,13.7-7.5,32.2-14.6,41.7v0.2c7.5-7.3,26.5-23.2,39.7-35.1c21.2-19.2,28.9-33.6,30.2-41.3c0.4-3.1,0.2-6-1.3-7.5
			c-1.5-1.3-3.1-0.9-2.9-1.5c0.2-0.4,1.5-0.7,2.2-0.7c6.4,0,9.5,5.1,9.1,10.8c-1.1,9.1-10.6,23-35.1,43.1
			c-17.4,14.3-34.7,28.7-49,42.4c-1.3,1.3-3.5,3.3-6.2,3.3c-2.2,0-2.2-2-0.9-3.8c7.5-10.2,12.1-32,17.2-44.6v-0.2
			c-4.2,3.5-17.7,13.7-28.5,21.6c-9.3,6.6-28.9,21-37.1,26.3c-1.3,0.9-3.1,2.2-4.6,2.2c-2.7,0-3.3-1.8-1.3-4.2
			c8.4-8.8,18.3-19.9,28-33.6c9.7-13.7,18.3-28.5,20.1-39.7C106,69,99.8,63.7,90.8,63.7C79.7,63.7,67.1,69.6,57.9,76.7z M156.6,78.7
			c1.5-4.2,0-6.8-2.9-6.8c-3.3,0-6.6,4.9-7.9,7.9c-2.4,5.1-4.6,12.4-6,17.2C144,93,153.7,86,156.6,78.7z"/>
	</g>
	<path d="M156.6,109.1c0,2.2-1.8,4-4,4c-2.2,0-4-1.8-4-4c0-2.2,1.8-4,4-4C154.8,105.1,156.6,106.9,156.6,109.1z"/>
	<g>
		<path d="M1,134.8c0.4,2.1,0.6,2.3,1.1,2.4c0.5,0.1,1.5,0.1,4.6-0.2l5.3-0.4c1.6-0.1,2.9-0.3,3.8-0.4c0.7-0.1,0.7-0.3,0.8-0.7
			c0-0.2,0.1-1,0.1-1.3c0-0.2,0.1-0.3,0.1-0.3c0.2,0,0.7,0.1,0.8,0.1c0.1,1.9,0.1,2.9,0.2,3.8c0.1,1.1,0.2,2.3,0.3,2.3
			c0,0.1-0.1,0.3-0.2,0.3c-0.3,0.1-0.5,0.2-0.7,0.1c-0.2-1.7-0.4-2.2-1.1-2.3c-0.4,0-1.4,0-4.3,0.2l-6.3,0.5
			c-3.5,0.3-3.7,0.3-3.8,1.1c0,0.3,0,0.6,0,1.3c0,0.1-0.1,0.1-0.1,0.2c-0.1,0-0.2,0-0.4-0.1c-0.2-0.1-0.2-0.1-0.3-0.2
			c0-0.2-0.1-0.3-0.1-0.6c0-0.3-0.1-1.1-0.1-2.3c-0.1-1.2-0.3-2.9-0.3-3.1c0-0.3,0-0.3,0.1-0.4L1,134.8z"/>
		<path d="M8.2,126.3c0-1.1,0-1.9,0-2.5c-0.1-1.4-0.2-1.6-1.7-1.9c-0.1-0.1-0.1-0.7-0.1-0.8c0.8,0.1,2,0.2,2.8,0.2
			c0.9,0,1.6-0.1,2.4-0.1c0.1,0.2,0.1,0.4,0.1,0.6c0,0.1-0.1,0.2-0.2,0.2c-0.3,0.1-0.7,0.2-1,0.3c-0.7,0.1-1,0.4-1.1,1.4
			c-0.1,0.5-0.1,1.3-0.1,2.5c0,1.2,0,1.4,0,1.6c0,0.1,0,0.2,0.2,0.2c0.2,0.1,1.1,0.2,3.3,0.3c1.9,0,2.6,0,3.1-0.2
			c0.5-0.3,0.7-1.2,0.7-3.1c0-2.8-0.2-4.2-3-4.9c0-0.1,0-0.3,0-0.6c0.1-0.1,0.1-0.1,0.2-0.1c1.2,0.1,2.9,0.5,3.7,0.8
			c0.2,0.1,0.2,0.2,0.2,0.3c0,0.2,0,0.3,0,1.1c0,0.7-0.1,2.4-0.1,4.4c0,1.9,0,3.8,0.1,5.7c0,0-0.6,0.1-0.8,0c-0.1,0-0.1-0.1-0.1-0.1
			c-0.2-1.1-0.4-1.2-0.8-1.2c-0.4-0.1-2.1-0.2-4.8-0.2l-4.6-0.1c-3.5-0.1-4.7,0.1-4.9,0.1c-0.2,0-0.3,0.1-0.3,0.3
			c-0.1,0.2-0.2,0.7-0.4,1.3c0,0,0,0-0.1,0l-0.6-0.1c-0.1,0-0.1,0-0.1-0.1l0-0.8c0-0.7,0.1-1.7,0.1-3.1l0-2.3c0-1.5-0.1-3.2-0.1-4.4
			c0-0.3,0.1-0.5,0.1-0.6c0.2-0.2,0.2-0.2,0.6-0.1c1.2,0.2,2.7,0.3,3.4,0.3c0,0.6-0.1,0.7-0.3,0.7c-1.9,0.3-2.9,0.5-2.9,2.3l0,1.7
			c0,1.4,0,2.2,0.1,2.5c0.1,0.3,0.4,0.4,1,0.4c1.9,0,3.7,0,5.6,0c0.2,0,0.4-0.1,0.4-0.3L8.2,126.3z"/>
		<path d="M9.2,111.2c0.1-1.1,0.2-1.9,0.2-2.5c0.1-1.4,0-1.6-1.5-2.1c-0.1-0.1,0-0.7,0-0.8c0.8,0.1,1.9,0.4,2.8,0.5
			c0.9,0.1,1.6,0.1,2.4,0.1c0,0.2,0,0.4,0,0.6c0,0.1-0.1,0.2-0.2,0.2c-0.3,0.1-0.7,0.1-1.1,0.2c-0.7,0.1-1,0.3-1.2,1.2
			c-0.1,0.5-0.2,1.3-0.4,2.5c-0.2,1.2-0.2,1.4-0.2,1.6c0,0.1,0,0.2,0.1,0.3c0.1,0.1,1,0.4,3.2,0.6c1.9,0.2,2.6,0.3,3.1,0.2
			c0.5-0.3,0.8-1.1,1-3c0.4-2.8,0.2-4.2-2.4-5.3c0-0.1,0-0.3,0.1-0.6c0.1-0.1,0.1-0.1,0.2,0c1.2,0.2,2.8,0.8,3.6,1.2
			c0.1,0.1,0.2,0.2,0.2,0.3c0,0.2,0,0.3-0.2,1.1c-0.1,0.7-0.4,2.4-0.6,4.3c-0.2,1.9-0.4,3.8-0.6,5.7c0,0-0.6,0-0.8-0.1
			c-0.1,0-0.1-0.1-0.1-0.1c-0.1-1.1-0.2-1.2-0.6-1.3c-0.4-0.1-2.1-0.4-4.7-0.8L7,114.8c-3.5-0.5-4.7-0.5-4.8-0.5
			c-0.2,0-0.3,0-0.4,0.3c-0.1,0.2-0.3,0.7-0.5,1.2c0,0,0,0-0.1,0l-0.6-0.1c-0.1,0-0.1,0-0.1-0.1l0.1-0.8c0.1-0.7,0.3-1.6,0.5-3.1
			l0.3-2.3c0.2-1.5,0.3-3.2,0.4-4.4c0-0.3,0.1-0.4,0.2-0.6c0.2-0.2,0.2-0.2,0.6,0c1.1,0.3,2.7,0.6,3.3,0.6c-0.1,0.6-0.2,0.7-0.3,0.7
			c-1.9,0.1-2.9,0.1-3.1,2l-0.2,1.6c-0.2,1.4-0.2,2.2-0.2,2.5c0.1,0.3,0.3,0.4,0.9,0.5c1.8,0.2,3.7,0.5,5.5,0.7
			c0.2,0,0.4-0.1,0.5-0.3L9.2,111.2z"/>
		<path d="M11.9,96.3c0.3-1,0.4-1.8,0.5-2.4c0.2-1.4,0.2-1.6-1.3-2.2c-0.1-0.1,0-0.7,0.1-0.8c0.7,0.2,1.9,0.7,2.7,0.9
			c0.9,0.2,1.6,0.3,2.4,0.4c0,0.2,0,0.4-0.1,0.6c0,0.1-0.1,0.1-0.2,0.2c-0.3,0-0.7,0-1.1,0c-0.7,0-1,0.2-1.3,1.1
			c-0.2,0.5-0.4,1.3-0.7,2.5c-0.3,1.2-0.3,1.4-0.3,1.5c0,0.1,0,0.2,0.1,0.3c0.1,0.1,1,0.5,3.1,1c1.9,0.5,2.6,0.6,3,0.5
			c0.6-0.2,0.9-1,1.4-2.9c0.7-2.7,0.7-4.1-1.8-5.5c0-0.1,0.1-0.3,0.2-0.6c0.1-0.1,0.1-0.1,0.2,0c1.2,0.3,2.7,1.1,3.4,1.6
			c0.1,0.2,0.2,0.2,0.1,0.4c0,0.2-0.1,0.3-0.3,1.1c-0.2,0.7-0.6,2.3-1.1,4.2c-0.5,1.9-0.8,3.7-1.2,5.6c0,0-0.6-0.1-0.8-0.1
			c-0.1,0-0.1-0.1-0.1-0.1c0.1-1.1-0.1-1.3-0.5-1.4c-0.4-0.1-2-0.7-4.6-1.3l-4.4-1.1c-3.4-0.9-4.6-1-4.7-1c-0.2,0-0.3,0-0.4,0.2
			C4,99.1,3.9,99.5,3.6,100c0,0,0,0-0.1,0l-0.6-0.2c-0.1,0-0.1,0-0.1-0.1L3,98.8c0.2-0.7,0.5-1.6,0.8-3l0.6-2.3
			c0.4-1.4,0.6-3.2,0.9-4.3c0.1-0.3,0.2-0.4,0.3-0.5c0.2-0.2,0.2-0.2,0.6,0c1.1,0.5,2.6,0.9,3.2,1c-0.2,0.6-0.3,0.7-0.4,0.7
			c-1.9-0.1-2.9-0.2-3.4,1.6l-0.4,1.6c-0.3,1.4-0.5,2.2-0.5,2.4c0,0.3,0.3,0.4,0.9,0.6c1.8,0.4,3.6,0.9,5.4,1.3
			c0.2,0.1,0.4,0,0.5-0.2L11.9,96.3z"/>
		<path d="M23.6,78.7c-2.2-0.2-5.9-0.7-11.5-1.2c-1.8-0.2-2-0.2-2.6,0.9c-0.1,0.1-0.1,0.1-0.2,0.1c0,0-0.3-0.3-0.3-0.4
			c-0.1-0.1-0.1-0.2,0-0.4c0.2-0.4,0.7-1.3,0.9-1.8c0.4-0.8,0.7-1.5,1.1-2.3c0.1-0.1,0.4,0,0.7,0.1c0.1,0,0.2,0.1,0.1,0.2
			c-0.3,0.9-0.4,1.2-0.1,1.4c0.2,0.1,0.6,0.1,1,0.2c4.1,0.5,9.7,1.1,11.9,1.2c0.1,0,0.3-0.1,0.2-0.2c-1.2-1.4-4.9-5.2-6.4-6.6
			c-0.2-0.2-0.4-0.2-0.6-0.3c-1.4-0.2-2.4-0.3-3-0.4c-0.6-0.1-0.8,0-1.3,1c0,0.1-0.1,0.1-0.2,0.1c-0.5-0.3-0.6-0.5-0.5-0.7
			c0.3-0.5,0.7-1.3,1.1-2c0.5-1.1,0.8-1.7,0.9-2.1c0.1-0.1,0.8,0.1,0.8,0.2c-0.4,1.2-0.4,1.4,0.3,1.5c2.9,0.5,9,1.2,12.5,1.5
			c0.1,0,0.1-0.1,0-0.2c-1.7-1.7-7.2-7.5-9-8.9c-0.4-0.3-0.7-0.2-0.8,0.1c-0.2,0.3-0.4,0.7-0.6,1c0,0-0.1,0-0.2,0
			c-0.4-0.3-0.6-0.4-0.5-0.6c0.1-0.2,0.8-1.5,1.1-2c0.3-0.7,0.6-1.4,0.7-1.6c0.1-0.3,0.2-0.3,0.4-0.3l0.6,0.2c0,0,0.1,0.1,0.1,0.1
			c-0.6,1.1-0.4,1.2,1.6,3.5c1.2,1.3,5.2,5.4,8.2,8.6c0.3,0.4,1.1,1.3,1.7,2c0.1,0.1,0.2,0.3,0.1,0.5c-0.1,0.3-0.3,0.3-0.7,0.2
			c-0.5-0.1-1.2-0.2-2.5-0.4c-1.5-0.2-5.4-0.8-8.6-1.1c1.7,1.8,3.5,3.8,5.9,6.3c0.6,0.6,1.4,1.5,2.1,2.2c0.1,0.1,0.1,0.2,0.1,0.2
			c0,0.1,0,0.3-0.1,0.5c-0.1,0.1-0.2,0.2-0.4,0.1C27,79.1,25.8,78.9,23.6,78.7z"/>
		<path d="M27.8,56.2c0.9-1.4,3.9-2.8,6.9-0.8c2.3,1.5,2.6,3.5,2.6,3.9c0,1.3-0.2,2.5-0.8,3.3c-0.5,0.7-2,2-3.6,2
			c-1.3,0-2.6-0.5-3.4-1c-0.9-0.6-1.8-1.6-2.1-2.5c-0.3-0.8-0.4-1.4-0.4-2.2C27.1,58,27.4,56.8,27.8,56.2L27.8,56.2z M28.1,57.6
			c-0.2,0.3-0.3,0.9-0.2,1.4c0.2,0.9,1,1.8,2.4,2.7c1.4,0.9,2.7,1,3.6,0.9c1.3-0.1,1.9-0.7,2.3-1.2c0.2-0.3,0.4-0.8,0.2-1.2
			c-0.2-0.7-0.7-1.7-2-2.6c-1.4-0.9-3-1.5-4.4-1.2C29.4,56.5,28.5,57,28.1,57.6L28.1,57.6z"/>
		<path d="M46.9,48.8c-1.6,1.9-2.3,2.7-2.8,3.5c0,0.1,0,0.1-0.1,0c0,0-0.3-0.2-0.4-0.3c0,0-0.1-0.1-0.1-0.2c0.4-0.9,0.4-1,0.1-1.3
			c-0.5-0.5-1.5-1.5-3.5-3.3c-0.8-0.7-1.2-0.9-1.6-1c-0.5,0-1.1,0.2-1.6,0.8c-0.4,0.4-0.6,1.2-0.7,2.3c0,0.2,0,0.4,0.2,0.6
			c0.4,0.3,1.5,1.4,2.5,2.2c2.2,1.9,2.3,2,3.1,1.3c0.1-0.1,0.2-0.1,0.2,0c0.1,0.1,0.4,0.5,0.4,0.5c-0.1,0.2-1,1.2-1.3,1.6
			c-0.3,0.4-1,1.3-1.2,1.6c-0.1,0-0.4-0.2-0.6-0.5c0.1-0.2,0.2-0.6,0.2-0.7c0.1-0.2,0-0.3-0.2-0.5c-0.2-0.2-0.8-0.8-2.4-2.2
			c-1.5-1.3-1.9-1.6-2.2-1.8c-0.4-0.2-0.4-0.2-0.8,0.1c-0.3,0.2-0.4,0.2-0.5,0.2c-0.1,0-0.4-0.2-0.4-0.2c0.1-1.6,0.1-2.5,0.2-2.9
			c0-0.2,0.1-0.3,0.2-0.4c0.1-0.1,0.2-0.1,0.3,0l1.5,1.3c0.1-0.7,0.2-2.2,0.4-3.1c0.1-0.3,0.2-0.6,0.4-0.8c0.9-1,1.9-1,3.2-0.8
			c0.2-1.5,0.3-2.2,0.5-2.8c0.1-0.4,0.3-0.9,0.7-1.3c0.3-0.3,0.9-0.7,1.5-0.7c0.6,0,1.3,0,3.1,1.5c1,0.9,2,1.7,2.8,2.4
			c0.8,0.7,1,0.9,1.2,0.9c0.3,0.1,0.6-0.1,1.4-0.8c0-0.1,0.1-0.1,0.2,0c0.1,0.1,0.4,0.5,0.4,0.6l-1.1,1.2c-0.6,0.7-1,1.3-1.4,1.8
			c0,0.1-0.1,0.1-0.2,0.1c-0.1,0-0.3-0.2-0.4-0.3c0,0-0.1-0.1-0.1-0.1c0.1-0.3,0.1-0.6-0.1-0.9c-0.7-0.8-2.1-2.1-2.6-2.5
			c-1.7-1.5-2.4-1.8-3-1.8c-0.6-0.1-1,0.1-1.6,0.7c-0.4,0.5-0.7,1.3-0.8,2.1c0,0.2,0,0.3,0.2,0.5c1.1,1,3.8,3.3,4.6,3.9
			c0.3,0.2,0.4,0.2,1.3-0.6c0-0.1,0.1,0,0.2,0L46.9,48.8z"/>
		<path d="M48.8,32.3c0.6-0.5,1.5-0.7,2.1-0.6c0.6,0.1,1.2,0.3,1.9,0.7c0.1-0.2,0.4-0.6,0.5-0.5c0.1,0,0.1,0.1,0.2,0.1
			c0.1,0.2,0.3,0.7,0.2,0.9c-0.9,1.4-2.8,3.9-3.4,4.9c-0.1,0.1,0,0.2,0.2,0.5c1.8,1.9,3.5,1.9,4.6,0.9c0.8-0.7,1.2-1.7,1.3-2.9
			c0-0.2,0.2-0.3,0.3-0.3c0.4,0.5,0.5,0.7,0.5,0.9c-0.1,1.4-0.6,2.5-1.1,3.3c-0.2,0.3-0.4,0.5-0.6,0.7c-1.3,1.1-2.8,1-3.3,0.9
			c-0.6-0.1-1.9-0.5-3-1.8c-1.5-1.8-1.8-3.9-1.5-5.5C47.9,33.6,48.3,32.8,48.8,32.3L48.8,32.3z M51.6,33.9c-0.5-0.6-2-0.9-2.7-0.2
			c-0.1,0.1-0.2,0.3-0.3,0.6c-0.2,0.9,0.4,2.1,1.2,2.9c0.6-1,1.3-1.9,1.9-2.8C51.8,34.2,51.8,34.1,51.6,33.9L51.6,33.9z"/>
		<path d="M59.2,36.5c0.4-0.7,0.6-1,0.2-1.6c-0.4-0.7-1.2-2-2-3.1c-0.6-0.8-1.2-1.6-1.5-2c-0.2-0.2-0.3-0.2-1.4,0.1
			c-0.2-0.1-0.2,0-0.3-0.4c0-0.1,0-0.1,0.1-0.3c0.5-1,1-2.2,1.1-2.3c0-0.1,0.1-0.2,0.2-0.2c0.1-0.1,0.2-0.1,0.3,0
			c0.3,0.4,0.6,0.8,0.8,1.1c0.1,0.1,0.2,0.2,0.2,0.1c0.5-1.1,0.7-1.6,1-2.2c0.2-0.4,0.5-0.8,0.9-1.1c0.6-0.4,1.1-0.5,1.7-0.5
			c0.8,0.1,1.6,0.7,2.4,1.5c0.4,0.4,0.7,0.9,1.4,1.9c1.1,1.6,1.8,2.5,2.1,3c0.1,0.2,0.2,0.2,0.2,0.2c0.2-0.1,0.7-0.6,1-0.8
			c0.1,0,0.2,0,0.3,0.1c0.1,0.1,0.2,0.5,0.3,0.6c0,0.1,0,0.2-0.1,0.2c-1.8,1.2-2.3,1.7-3,2.2c-0.1,0.1-0.2,0.2-0.3,0.1L64.4,33
			c0.4-0.6,0.5-0.9,0.2-1.6c-0.4-0.7-0.9-1.5-2-3.1c-0.8-1.2-1.3-1.8-2.1-2c-0.6-0.1-1.1,0-1.7,0.4c-0.5,0.3-1,1.2-1.2,1.7
			c-0.1,0.3,0,0.4,0.1,0.7c0.5,0.8,2.7,3.9,3.5,5.1c0.2,0.3,0.3,0.3,1.4-0.2c0.1-0.1,0.2,0,0.2,0.1l0.2,0.6l-1.7,1.2
			c-0.8,0.5-1.3,1.1-1.7,1.4c0,0-0.1,0-0.1-0.1L59.2,36.5z"/>
		<path d="M69.2,11.6c0.6-0.3,1.2,0.1,1.5,0.6c0.4,0.8,0.1,1.5-0.4,1.8c-0.5,0.3-1.2,0-1.5-0.6C68.4,12.6,68.7,11.9,69.2,11.6
			L69.2,11.6z M71.6,19.5c-0.1-0.1-0.2-0.1-1.3,0.2c-0.1,0-0.1,0-0.1-0.2c-0.1-0.5-0.1-0.6,0-0.6c0.7-0.7,1.3-1.5,2-2.3
			c0,0,0.1-0.1,0.1-0.1c0,0,0.1,0,0.1,0.2c0.7,1.7,2.3,5.1,2.9,6.3c0.6,1.2,0.8,1.6,1,1.9c0.2,0.3,0.3,0.4,0.5,0.3
			c0.6-0.4,0.8-0.5,0.9-0.5c0.1,0,0.3,0,0.3,0.1l0.2,0.6c0.1,0.2,0,0.2-0.1,0.2c-0.6,0.3-1.2,0.6-1.9,0.9c-0.9,0.5-1.7,1-1.8,1.1
			c-0.1,0.1-0.2,0.1-0.2,0c-0.1-0.1-0.2-0.4-0.3-0.5c0-0.1,0-0.1,0-0.2c0.7-0.5,0.9-0.6,0.7-1.4c-0.1-0.4-0.8-2.1-1.6-3.6L71.6,19.5
			z"/>
		<path d="M79.5,24.3c0.6-0.5,0.8-0.8,0.6-1.5c-0.2-0.8-0.7-2.3-1.2-3.5c-0.4-1-0.8-1.8-1-2.3c-0.1-0.2-0.2-0.3-1.4-0.2
			c-0.1-0.1-0.2,0-0.2-0.5c0-0.1,0-0.1,0.1-0.3c0.8-0.9,1.5-1.9,1.6-2c0-0.1,0.1-0.1,0.2-0.2c0.1,0,0.3,0,0.3,0.1
			c0.2,0.4,0.4,0.9,0.5,1.3c0,0.1,0.1,0.2,0.2,0.2c0.7-1,1.1-1.3,1.5-1.9c0.3-0.3,0.7-0.7,1.1-0.8c0.6-0.2,1.2-0.2,1.7,0
			c0.8,0.3,1.4,1,1.9,2.1c0.2,0.5,0.5,1.1,0.9,2.2c0.7,1.8,1.1,2.9,1.3,3.4c0.1,0.2,0.1,0.2,0.2,0.2c0.2-0.1,0.8-0.4,1.1-0.6
			c0.1,0,0.1,0.1,0.2,0.2c0.1,0.1,0.1,0.5,0.1,0.6c0,0.1,0,0.2-0.1,0.2c-2,0.8-2.6,1.1-3.5,1.5c-0.1,0.1-0.2,0.1-0.3,0l-0.3-0.5
			c0.6-0.5,0.7-0.8,0.5-1.5c-0.2-0.8-0.5-1.7-1.2-3.5c-0.5-1.4-0.8-2-1.6-2.5c-0.5-0.3-1.1-0.3-1.7,0c-0.5,0.2-1.3,0.9-1.6,1.4
			c-0.1,0.3-0.1,0.4,0,0.7c0.3,0.9,1.7,4.4,2.2,5.8c0.1,0.3,0.2,0.4,1.4,0.1c0.1,0,0.2,0,0.2,0.1l0.1,0.6L81.8,24
			c-0.9,0.3-1.6,0.7-2,0.9c0,0-0.1,0-0.1-0.1L79.5,24.3z"/>
		<path d="M100.3,9c1.1-0.2,1.9-0.4,2.4-0.5c1.4-0.4,1.5-0.5,1.5-2.1c0.1-0.1,0.6-0.2,0.7-0.2c0.1,0.8,0.2,2,0.3,2.8
			c0.2,0.9,0.4,1.6,0.6,2.3c-0.2,0.1-0.4,0.1-0.5,0.2c-0.1,0-0.2,0-0.2-0.1c-0.1-0.3-0.3-0.7-0.5-1c-0.3-0.7-0.6-0.9-1.6-0.8
			c-0.5,0-1.3,0.2-2.5,0.4c-1.2,0.2-1.4,0.3-1.5,0.3c-0.1,0-0.2,0.1-0.2,0.2c0,0.2,0,1.1,0.4,3.2c0.3,1.9,0.5,2.6,0.8,3
			c0.4,0.4,1.3,0.4,3.2,0.1c2.8-0.5,4-1,4.3-3.9c0.1,0,0.3-0.1,0.6-0.1c0.1,0,0.1,0.1,0.1,0.2c0.2,1.2,0.1,2.9-0.1,3.8
			c-0.1,0.2-0.2,0.2-0.3,0.3c-0.2,0-0.3,0.1-1.1,0.2c-0.7,0.1-2.4,0.4-4.3,0.7c-1.9,0.3-3.7,0.8-5.6,1.2c-0.1,0-0.2-0.6-0.2-0.8
			c0-0.1,0.1-0.1,0.1-0.1c1-0.4,1.1-0.6,1.1-1c0-0.4-0.2-2.1-0.7-4.7L96.2,8c-0.6-3.5-1-4.6-1-4.7C95.1,3.1,95.1,3,94.8,3
			c-0.3-0.1-0.7-0.1-1.3-0.1c0,0,0,0,0-0.1l-0.1-0.6c0-0.1,0-0.1,0.1-0.2l0.8-0.1C95,1.7,96,1.6,97.4,1.4L99.7,1
			c1.4-0.3,3.1-0.7,4.3-0.9c0.3-0.1,0.5,0,0.6,0c0.2,0.1,0.2,0.1,0.2,0.6c0,1.2,0.3,2.7,0.4,3.4c-0.6,0.1-0.7,0-0.8-0.1
			c-0.7-1.8-1-2.7-2.8-2.4L100,1.8c-1.4,0.3-2.2,0.4-2.4,0.6c-0.3,0.2-0.3,0.4-0.2,1c0.3,1.8,0.7,3.6,1,5.5c0,0.2,0.2,0.4,0.4,0.4
			L100.3,9z"/>
		<path d="M110.4,16.1c0.7-0.3,1-0.5,1.1-1.2c0.1-0.8,0.1-2.4,0-3.7c0-1-0.1-2-0.2-2.5c0-0.3-0.1-0.4-1.2-0.6
			C110,8,109.9,8.1,110,7.7c0-0.1,0.1-0.1,0.2-0.2c1-0.6,2-1.3,2.2-1.4c0.1-0.1,0.2-0.1,0.3-0.1c0.1,0,0.2,0.1,0.2,0.2
			c0,0.4,0.1,1,0.1,1.4c0,0.1,0,0.2,0.1,0.2c1-0.7,1.4-0.9,2.1-1.3c0.4-0.2,0.9-0.4,1.3-0.4c0.7,0,1.2,0.1,1.7,0.5
			c0.6,0.5,1,1.4,1.2,2.6c0.1,0.6,0.1,1.2,0.1,2.3c0.1,1.9,0.2,3.1,0.2,3.7c0,0.2,0,0.3,0.1,0.3c0.2,0,0.9-0.1,1.3-0.2
			c0.1,0,0.1,0.1,0.1,0.3c0,0.2-0.1,0.5-0.1,0.6c0,0.1-0.1,0.1-0.2,0.1c-2.1,0.1-2.8,0.2-3.8,0.3c-0.1,0-0.3,0-0.3-0.1l-0.1-0.5
			c0.7-0.3,0.9-0.5,1-1.3c0.1-0.8,0.1-1.8,0-3.7c-0.1-1.5-0.1-2.2-0.7-2.8c-0.4-0.4-0.9-0.6-1.6-0.6c-0.6,0-1.5,0.4-2,0.8
			c-0.2,0.2-0.2,0.4-0.2,0.6c0,0.9,0.1,4.7,0.2,6.1c0,0.3,0.1,0.4,1.3,0.6c0.1,0,0.2,0.1,0.2,0.2l-0.1,0.6l-2,0.1
			c-1,0-1.7,0.2-2.2,0.2c0,0-0.1,0-0.1-0.2L110.4,16.1z"/>
		<path d="M127.9,5.9c0.6,0,1.3,0.4,1.8,0.7c0.2,0.1,0.4,0.1,0.4,0.1c0.4,0,1.8-0.2,2.3-0.1c0.2,0,0.4,0.3,0.5,0.4
			c0,0.1,0,0.7,0,0.8c0,0.2-0.1,0.3-0.4,0.3c-0.3,0-1,0-2-0.1c0.3,0.7,0.5,1.6,0.5,2.3c-0.1,1.8-1.5,3.4-3.4,4.1
			c-0.9,0.3-1.5,0.6-2,0.9c-0.2,0.1-0.2,0.2-0.2,0.3c0,0.5,0.5,0.8,1.2,0.8c0.3,0,1.8,0.1,2,0.1c1,0.1,1.9,0.3,2.7,1
			c0.3,0.3,0.6,1,0.5,1.9c-0.1,0.8-0.3,1.3-1,2.1c-1.4,1.5-2.5,1.9-3.1,2.1c-0.6,0.2-1.7,0.3-2.4,0.2c-2.6-0.2-3.5-1.6-3.5-2.7
			c0.1-0.9,0.5-1.6,1.1-2c0.6-0.4,1.1-0.8,1.9-1.2c-1-0.6-1.5-1-1.5-1.8c0-0.2,0-0.3,0.2-0.5c0.3-0.2,1.4-0.8,2.4-1.2
			c-0.7-0.3-1.3-0.6-1.9-1.2c-0.6-0.7-0.9-1.8-0.8-2.9c0.1-1.6,1-2.7,2.1-3.5C125.9,6.3,126.8,5.8,127.9,5.9L127.9,5.9z M126.2,22.5
			c1.4,0.1,2.4-0.2,3.1-0.8c0.5-0.4,0.9-0.9,1-1.6c0-0.4,0-0.8-0.4-1.2c-0.5-0.5-1.2-0.7-2-0.7c-0.8-0.1-1.8,0-2.5,0.1
			c-0.2,0-0.5,0.2-1,0.6c-0.7,0.5-1,1.2-1,1.6C123.3,20.9,123.7,22.3,126.2,22.5L126.2,22.5z M129.2,11.1c0.1-0.8,0-2-0.4-2.7
			c-0.3-0.6-1-1.4-2-1.5c-0.4,0-0.8,0.1-1.3,0.5c-0.5,0.3-0.7,1.1-0.8,1.8c-0.1,1,0.2,2.4,0.9,3.1c0.7,0.8,1.3,1,1.7,1.1
			C128.1,13.5,129,12.9,129.2,11.1L129.2,11.1z"/>
		<path d="M135.5,9.2c0-0.1-0.1-0.2-1.2-0.6c-0.1,0-0.1-0.1,0-0.2c0.2-0.4,0.3-0.5,0.4-0.5c1-0.2,1.9-0.5,3-0.7c0.1,0,0.1,0,0.1,0
			c0,0,0,0.1,0,0.2c-0.4,1.8-1.1,5.4-1.3,6.8c-0.2,1.3-0.3,1.8-0.3,2.1c0,0.4,0,0.5,0.3,0.5c0.7,0.1,0.9,0.1,1,0.1
			c0.1,0,0.2,0.2,0.2,0.3l-0.2,0.7c0,0.2-0.1,0.1-0.2,0.1c-0.7-0.1-1.3-0.3-2.1-0.4c-1-0.2-2-0.2-2.1-0.2c-0.1,0-0.2-0.1-0.2-0.2
			c0-0.2,0-0.5,0-0.6c0-0.1,0.1-0.1,0.1-0.1c0.9,0,1.1,0,1.3-0.7c0.1-0.4,0.6-2.2,0.8-3.9L135.5,9.2z M138.2,1.4
			c0.6,0.1,0.9,0.7,0.8,1.4c-0.1,0.9-0.8,1.3-1.4,1.2c-0.6-0.1-1-0.7-0.9-1.4C136.9,1.7,137.7,1.3,138.2,1.4L138.2,1.4z"/>
		<path d="M139.1,17.6c0.8-0.1,1.1-0.2,1.4-0.9c0.3-0.7,0.7-2.2,1.1-3.5c0.3-1,0.4-1.9,0.5-2.4c0.1-0.3,0-0.4-1-0.9
			c-0.1-0.2-0.1-0.1,0.1-0.5c0-0.1,0.1-0.1,0.3-0.1c1.1-0.3,2.3-0.6,2.5-0.7c0.1,0,0.2,0,0.3,0c0.1,0,0.2,0.1,0.2,0.2
			c-0.1,0.4-0.2,0.9-0.3,1.4c0,0.1,0,0.2,0.1,0.3c1.2-0.4,1.6-0.5,2.3-0.6c0.4-0.1,1-0.1,1.4,0c0.7,0.2,1.1,0.5,1.4,1
			c0.5,0.7,0.6,1.7,0.4,2.8c-0.1,0.6-0.2,1.2-0.5,2.3c-0.5,1.9-0.7,3-0.9,3.6c-0.1,0.2,0,0.3,0,0.3c0.2,0.1,0.9,0.1,1.3,0.2
			c0.1,0,0.1,0.1,0.1,0.3c0,0.2-0.2,0.5-0.2,0.6c-0.1,0.1-0.1,0.1-0.2,0.1c-2.1-0.5-2.8-0.6-3.7-0.8c-0.1,0-0.3-0.1-0.3-0.2l0-0.5
			c0.7-0.1,1-0.2,1.3-0.9c0.3-0.7,0.6-1.7,1-3.5c0.4-1.4,0.5-2.1,0.1-2.9c-0.3-0.5-0.7-0.9-1.4-1c-0.6-0.1-1.5,0-2.1,0.2
			c-0.3,0.1-0.3,0.3-0.4,0.6c-0.3,0.9-1.2,4.6-1.6,5.9c-0.1,0.3-0.1,0.4,1.1,0.9c0.1,0.1,0.1,0.1,0.1,0.2l-0.3,0.5l-2-0.5
			c-0.9-0.2-1.7-0.3-2.2-0.4c0,0-0.1-0.1,0-0.2L139.1,17.6z"/>
		<path d="M158.7,13.1c0.7,0.3,1.3,1,1.5,1.6c0.2,0.6,0.3,1.2,0.3,2c0.2,0,0.7,0.1,0.7,0.2c0,0.1,0,0.1,0,0.2
			c-0.2,0.2-0.5,0.6-0.7,0.6c-1.7-0.2-4.8-0.6-5.9-0.7c-0.1,0-0.2,0.1-0.3,0.4c-0.8,2.5,0,3.9,1.5,4.5c1,0.4,2.1,0.2,3.1-0.2
			c0.2-0.1,0.4,0,0.4,0.1c-0.2,0.6-0.4,0.7-0.5,0.8c-1.3,0.5-2.5,0.6-3.4,0.6c-0.3,0-0.6-0.1-0.9-0.2c-1.6-0.6-2.2-2-2.3-2.4
			c-0.2-0.6-0.5-1.9,0.1-3.5c0.8-2.2,2.6-3.4,4.1-3.9C157.1,12.9,158.1,12.8,158.7,13.1L158.7,13.1z M158.7,16.2
			c0.3-0.7-0.2-2.2-1.1-2.5c-0.1,0-0.4-0.1-0.7,0c-0.8,0.3-1.7,1.4-2,2.4c1.1,0.1,2.3,0.3,3.4,0.4C158.5,16.6,158.6,16.5,158.7,16.2
			L158.7,16.2z"/>
		<path d="M168.4,17.2c0.7,0.3,1.2,1.1,1.4,1.7c0.2,0.6,0.2,1.2,0.1,2c0.2,0,0.7,0.1,0.7,0.2c0,0.1,0,0.2-0.1,0.2
			c-0.2,0.2-0.5,0.5-0.7,0.5c-1.7-0.3-4.7-1-5.8-1.2c-0.1,0-0.2,0.1-0.4,0.4c-1.1,2.4-0.4,3.9,1.1,4.6c1,0.5,2.1,0.4,3.1,0.1
			c0.2,0,0.4,0.1,0.4,0.1c-0.3,0.6-0.4,0.7-0.6,0.8c-1.3,0.4-2.6,0.4-3.4,0.3c-0.3,0-0.6-0.1-0.9-0.3c-1.5-0.7-2-2.2-2.1-2.6
			c-0.2-0.6-0.3-1.9,0.5-3.5c1-2.1,2.9-3.2,4.5-3.5C166.9,16.9,167.8,16.9,168.4,17.2L168.4,17.2z M168.1,20.4
			c0.3-0.7,0-2.2-0.9-2.6c-0.1-0.1-0.4-0.1-0.7,0c-0.9,0.2-1.8,1.2-2.2,2.2c1.1,0.2,2.2,0.5,3.3,0.7C167.9,20.7,168,20.7,168.1,20.4
			L168.1,20.4z"/>
		<path d="M169.1,28.5c0.6,0.1,0.7,0.1,0.9-0.2c0.2-0.3,0.6-0.9,1.7-2.9l1.2-2.1c0.3-0.5,0.4-0.7-0.3-1.4c-0.1-0.2-0.1-0.5,0.1-0.6
			c1.1-0.1,2.3-0.1,3.2-0.2c0.1,0,0.3,0,0.3,0.1c0.1,0,0.1,0.3-0.1,0.5c-0.4,0.6-0.7,1.1-1.1,1.8c0.5,0,2.5-0.4,2.9-0.4
			c0.3-0.1,0.6-0.1,0.8,0c0.5,0.3,0.8,1.2,0.5,1.7c-0.2,0.4-1.1,0.7-1.4,0.8c-0.2,0-0.3,0.1-0.5,0c-0.1-0.1-0.2-0.2-0.2-0.3
			c0-0.3-0.2-0.8-0.5-1c-0.5-0.3-1.3-0.2-1.8,0c-0.2,0.1-0.4,0.3-1.1,1.4l-1.7,2.9c-0.3,0.6-0.5,0.9-0.5,1c0,0.2,0,0.3,0.3,0.4
			l1.1,0.6c0.1,0.1,0.1,0.2,0,0.3l-0.5,0.6c-0.9-0.5-1.8-1.1-2.7-1.6c-0.5-0.3-1.1-0.6-1.2-0.7c-0.1,0-0.1-0.1,0.1-0.2L169.1,28.5z"
			/>
		<path d="M181.3,27c0.1-0.1,0-0.3-0.8-1.1c-0.1-0.1-0.1-0.1,0.1-0.2c0.4-0.3,0.5-0.3,0.6-0.3c1,0.2,1.9,0.4,3,0.6
			c0.1,0,0.1,0,0.1,0c0,0,0,0.1-0.1,0.2c-1.1,1.4-3.3,4.5-4,5.6c-0.8,1.1-1,1.5-1.2,1.8c-0.2,0.3-0.2,0.5,0,0.6
			c0.6,0.4,0.8,0.5,0.9,0.5c0.1,0,0.1,0.3,0,0.3l-0.4,0.5c-0.1,0.1-0.1,0.1-0.2,0c-0.6-0.4-1.1-0.8-1.7-1.2c-0.9-0.6-1.8-1-1.8-1
			c-0.1-0.1-0.1-0.1-0.1-0.2c0.1-0.2,0.2-0.4,0.3-0.5c0.1-0.1,0.1-0.1,0.2,0c0.8,0.4,1,0.4,1.5-0.1c0.3-0.3,1.4-1.8,2.3-3.2
			L181.3,27z M187,21c0.5,0.3,0.5,1.1,0.2,1.6c-0.5,0.7-1.3,0.9-1.8,0.5c-0.5-0.3-0.6-1-0.2-1.6C185.7,20.7,186.5,20.7,187,21
			L187,21z"/>
		<path d="M181,36.2c0.8,0.2,1.1,0.3,1.6-0.2c0.6-0.5,1.6-1.7,2.4-2.8c0.6-0.8,1.2-1.6,1.5-2c0.2-0.2,0.2-0.3-0.5-1.3
			c0-0.2-0.1-0.2,0.3-0.4c0-0.1,0.1-0.1,0.3,0c1.2,0.2,2.4,0.4,2.5,0.4c0.1,0,0.2,0,0.3,0.1c0.1,0.1,0.1,0.2,0.1,0.3
			c-0.3,0.4-0.6,0.8-0.8,1.1c-0.1,0.1-0.1,0.2-0.1,0.3c1.2,0.1,1.7,0.2,2.4,0.4c0.4,0.1,0.9,0.3,1.3,0.5c0.5,0.4,0.8,0.9,0.9,1.5
			c0.2,0.8-0.2,1.8-0.8,2.7c-0.3,0.5-0.7,1-1.4,1.9c-1.2,1.5-1.9,2.4-2.3,2.9c-0.1,0.2-0.1,0.2-0.1,0.3c0.2,0.1,0.8,0.5,1.1,0.7
			c0.1,0,0,0.2-0.1,0.3c-0.1,0.1-0.4,0.4-0.5,0.4c-0.1,0.1-0.2,0-0.2,0c-1.7-1.3-2.3-1.7-3-2.3c-0.1-0.1-0.2-0.2-0.2-0.3l0.2-0.5
			c0.7,0.2,1,0.2,1.6-0.3c0.6-0.5,1.2-1.3,2.4-2.8c0.9-1.1,1.3-1.7,1.3-2.6c0-0.6-0.3-1.1-0.8-1.5c-0.5-0.4-1.4-0.6-2-0.7
			c-0.3,0-0.4,0.1-0.6,0.3c-0.6,0.7-3,3.7-3.9,4.8c-0.2,0.3-0.2,0.3,0.6,1.3c0.1,0.1,0.1,0.2,0,0.2l-0.5,0.4l-1.6-1.3
			c-0.8-0.6-1.4-1-1.8-1.3c0,0,0-0.1,0-0.2L181,36.2z"/>
		<path d="M200.8,39.6c0.4,0.4,0.8,1.2,0.9,1.6c0,0.2,0.2,0.3,0.2,0.4c0.3,0.3,1.5,1,1.9,1.4c0.1,0.1,0.2,0.5,0.1,0.6
			c0,0.1-0.4,0.6-0.5,0.7c-0.1,0.1-0.3,0.1-0.5,0c-0.2-0.2-0.7-0.7-1.5-1.4c-0.2,0.7-0.6,1.6-1.1,2.1c-1.3,1.3-3.3,1.7-5.2,1
			c-0.9-0.3-1.5-0.5-2.1-0.6c-0.2,0-0.3,0-0.4,0.1c-0.3,0.3-0.1,0.9,0.4,1.4c0.2,0.2,1.3,1.2,1.5,1.4c0.7,0.7,1.3,1.4,1.4,2.5
			c0.1,0.5-0.2,1.2-0.8,1.8c-0.6,0.6-1.1,0.8-2.1,1c-2,0.3-3.1-0.1-3.8-0.3c-0.5-0.2-1.5-0.9-2-1.3c-1.9-1.8-1.7-3.5-0.9-4.3
			c0.6-0.6,1.4-1,2.1-0.9c0.8,0.1,1.4,0.1,2.3,0.3c-0.4-1.1-0.6-1.7,0-2.3c0.2-0.2,0.2-0.2,0.5-0.3c0.3,0,1.5,0.3,2.6,0.6
			c-0.4-0.7-0.6-1.3-0.6-2.1c0-0.9,0.5-2,1.2-2.7c1.1-1.1,2.5-1.5,3.9-1.4C199,38.6,200,38.9,200.8,39.6L200.8,39.6z M188.9,51.3
			c1,1,2,1.4,2.9,1.4c0.7,0,1.3-0.1,1.7-0.6c0.3-0.3,0.5-0.6,0.4-1.2c-0.1-0.7-0.5-1.3-1.1-1.9c-0.6-0.6-1.4-1.2-1.9-1.5
			c-0.2-0.1-0.5-0.2-1.1-0.2c-0.9,0-1.5,0.3-1.8,0.6C187.7,48.2,187.1,49.6,188.9,51.3L188.9,51.3z M198.5,44.4
			c0.6-0.6,1.2-1.5,1.4-2.3c0.2-0.7,0.1-1.7-0.6-2.4c-0.3-0.3-0.7-0.4-1.3-0.4c-0.6,0-1.2,0.4-1.8,0.9c-0.7,0.7-1.3,2-1.3,2.9
			c0,1.1,0.3,1.6,0.6,1.9C196.2,45.6,197.2,45.7,198.5,44.4L198.5,44.4z"/>
	</g>
</g>
</svg>
