<svg xmlns="http://www.w3.org/2000/svg" version="1.1" xmlns:xlink="http://www.w3.org/1999/xlink" xmlns:svgjs="http://svgjs.dev/svgjs" viewBox="0 0 800 800"><defs><linearGradient x1="50%" y1="0%" x2="50%" y2="100%" id="ffflurry-grad" gradientTransform="rotate(270)"><stop stop-color="hsv(0, 0%, 0%)" stop-opacity="1" offset="0%"></stop><stop stop-color="hsl(1.4, 100%, 67%)" stop-opacity="1" offset="45%"></stop><stop stop-color="hsl(0, 52%, 78%)" stop-opacity="1" offset="100%"></stop></linearGradient></defs><rect width="100%" height="100%" fill="hsv(0, 0%, 0%)"></rect><g fill="url(#ffflurry-grad)"><rect width="30" height="3" x="13" y="519.5" rx="1.5" transform="rotate(45, 28, 521)" opacity="0.27"></rect><rect width="618" height="3" x="239" y="211.5" rx="1.5" transform="rotate(45, 548, 213)" opacity="0.76"></rect><rect width="201" height="3" x="611.5" y="596.5" rx="1.5" transform="rotate(45, 712, 598)" opacity="0.46"></rect><rect width="425" height="3" x="-177.5" y="268.5" rx="1.5" transform="rotate(45, 35, 270)" opacity="0.74"></rect><rect width="207" height="3" x="10.5" y="308.5" rx="1.5" transform="rotate(45, 114, 310)" opacity="0.35"></rect><rect width="368" height="3" x="-160" y="656.5" rx="1.5" transform="rotate(45, 24, 658)" opacity="0.61"></rect><rect width="376" height="3" x="64" y="548.5" rx="1.5" transform="rotate(45, 252, 550)" opacity="0.80"></rect><rect width="510" height="3" x="-54" y="98.5" rx="1.5" transform="rotate(45, 201, 100)" opacity="0.55"></rect><rect width="467" height="3" x="402.5" y="668.5" rx="1.5" transform="rotate(45, 636, 670)" opacity="0.57"></rect><rect width="96" height="3" x="621" y="496.5" rx="1.5" transform="rotate(45, 669, 498)" opacity="0.71"></rect><rect width="61" height="3" x="735.5" y="275.5" rx="1.5" transform="rotate(45, 766, 277)" opacity="0.83"></rect><rect width="407" height="3" x="562.5" y="547.5" rx="1.5" transform="rotate(45, 766, 549)" opacity="0.96"></rect><rect width="472" height="3" x="149" y="475.5" rx="1.5" transform="rotate(45, 385, 477)" opacity="0.91"></rect><rect width="153" height="3" x="309.5" y="745.5" rx="1.5" transform="rotate(45, 386, 747)" opacity="0.85"></rect><rect width="389" height="3" x="142.5" y="594.5" rx="1.5" transform="rotate(45, 337, 596)" opacity="0.58"></rect><rect width="521" height="3" x="431.5" y="323.5" rx="1.5" transform="rotate(45, 692, 325)" opacity="0.37"></rect><rect width="474" height="3" x="267" y="105.5" rx="1.5" transform="rotate(45, 504, 107)" opacity="0.22"></rect><rect width="72" height="3" x="550" y="301.5" rx="1.5" transform="rotate(45, 586, 303)" opacity="0.71"></rect><rect width="524" height="3" x="13" y="134.5" rx="1.5" transform="rotate(45, 275, 136)" opacity="0.70"></rect><rect width="333" height="3" x="598.5" y="52.5" rx="1.5" transform="rotate(45, 765, 54)" opacity="0.12"></rect><rect width="67" height="3" x="737.5" y="170.5" rx="1.5" transform="rotate(45, 771, 172)" opacity="0.13"></rect><rect width="118" height="3" x="590" y="167.5" rx="1.5" transform="rotate(45, 649, 169)" opacity="0.72"></rect><rect width="57" height="3" x="502.5" y="624.5" rx="1.5" transform="rotate(45, 531, 626)" opacity="0.98"></rect><rect width="258" height="3" x="585" y="129.5" rx="1.5" transform="rotate(45, 714, 131)" opacity="0.91"></rect><rect width="294" height="3" x="319" y="293.5" rx="1.5" transform="rotate(45, 466, 295)" opacity="0.20"></rect><rect width="207" height="3" x="546.5" y="232.5" rx="1.5" transform="rotate(45, 650, 234)" opacity="0.47"></rect><rect width="51" height="3" x="607.5" y="588.5" rx="1.5" transform="rotate(45, 633, 590)" opacity="0.23"></rect><rect width="41" height="3" x="576.5" y="124.5" rx="1.5" transform="rotate(45, 597, 126)" opacity="0.68"></rect><rect width="518" height="3" x="-111" y="724.5" rx="1.5" transform="rotate(45, 148, 726)" opacity="0.12"></rect><rect width="183" height="3" x="396.5" y="373.5" rx="1.5" transform="rotate(45, 488, 375)" opacity="0.97"></rect><rect width="544" height="3" x="156" y="636.5" rx="1.5" transform="rotate(45, 428, 638)" opacity="0.82"></rect><rect width="751" height="3" x="-227.5" y="510.5" rx="1.5" transform="rotate(45, 148, 512)" opacity="0.20"></rect><rect width="388" height="3" x="-38" y="383.5" rx="1.5" transform="rotate(45, 156, 385)" opacity="0.12"></rect><rect width="435" height="3" x="211.5" y="239.5" rx="1.5" transform="rotate(45, 429, 241)" opacity="0.31"></rect><rect width="103" height="3" x="-18.5" y="126.5" rx="1.5" transform="rotate(45, 33, 128)" opacity="0.70"></rect><rect width="322" height="3" x="390" y="431.5" rx="1.5" transform="rotate(45, 551, 433)" opacity="0.98"></rect><rect width="287" height="3" x="212.5" y="242.5" rx="1.5" transform="rotate(45, 356, 244)" opacity="0.21"></rect><rect width="36" height="3" x="483" y="30.5" rx="1.5" transform="rotate(45, 501, 32)" opacity="0.12"></rect><rect width="252" height="3" x="637" y="661.5" rx="1.5" transform="rotate(45, 763, 663)" opacity="0.86"></rect><rect width="115" height="3" x="121.5" y="631.5" rx="1.5" transform="rotate(45, 179, 633)" opacity="0.80"></rect><rect width="366" height="3" x="-147" y="573.5" rx="1.5" transform="rotate(45, 36, 575)" opacity="0.21"></rect><rect width="286" height="3" x="78" y="766.5" rx="1.5" transform="rotate(45, 221, 768)" opacity="0.71"></rect><rect width="596" height="3" x="234" y="727.5" rx="1.5" transform="rotate(45, 532, 729)" opacity="0.51"></rect><rect width="199" height="3" x="624.5" y="720.5" rx="1.5" transform="rotate(45, 724, 722)" opacity="0.32"></rect><rect width="431" height="3" x="45.5" y="685.5" rx="1.5" transform="rotate(45, 261, 687)" opacity="0.47"></rect><rect width="130" height="3" x="69" y="238.5" rx="1.5" transform="rotate(45, 134, 240)" opacity="0.33"></rect><rect width="163" height="3" x="492.5" y="46.5" rx="1.5" transform="rotate(45, 574, 48)" opacity="0.61"></rect><rect width="441" height="3" x="196.5" y="48.5" rx="1.5" transform="rotate(45, 417, 50)" opacity="0.15"></rect><rect width="71" height="3" x="737.5" y="451.5" rx="1.5" transform="rotate(45, 773, 453)" opacity="0.22"></rect><rect width="503" height="3" x="-190.5" y="470.5" rx="1.5" transform="rotate(45, 61, 472)" opacity="0.71"></rect><rect width="405" height="3" x="434.5" y="395.5" rx="1.5" transform="rotate(45, 637, 397)" opacity="0.18"></rect><rect width="207" height="3" x="642.5" y="219.5" rx="1.5" transform="rotate(45, 746, 221)" opacity="0.99"></rect><rect width="352" height="3" x="518" y="56.5" rx="1.5" transform="rotate(45, 694, 58)" opacity="0.94"></rect><rect width="533" height="3" x="-158.5" y="39.5" rx="1.5" transform="rotate(45, 108, 41)" opacity="0.18"></rect><rect width="285" height="3" x="487.5" y="756.5" rx="1.5" transform="rotate(45, 630, 758)" opacity="0.92"></rect><rect width="295" height="3" x="555.5" y="246.5" rx="1.5" transform="rotate(45, 703, 248)" opacity="0.74"></rect><rect width="294" height="3" x="572" y="421.5" rx="1.5" transform="rotate(45, 719, 423)" opacity="0.31"></rect><rect width="606" height="3" x="-194" y="163.5" rx="1.5" transform="rotate(45, 109, 165)" opacity="0.73"></rect><rect width="196" height="3" x="227" y="726.5" rx="1.5" transform="rotate(45, 325, 728)" opacity="0.18"></rect><rect width="770" height="3" x="-132" y="438.5" rx="1.5" transform="rotate(45, 253, 440)" opacity="0.88"></rect><rect width="178" height="3" x="-14" y="683.5" rx="1.5" transform="rotate(45, 75, 685)" opacity="0.74"></rect><rect width="672" height="3" x="-75" y="318.5" rx="1.5" transform="rotate(45, 261, 320)" opacity="0.61"></rect><rect width="144" height="3" x="696" y="348.5" rx="1.5" transform="rotate(45, 768, 350)" opacity="0.69"></rect><rect width="577" height="3" x="-60.5" y="229.5" rx="1.5" transform="rotate(45, 228, 231)" opacity="0.88"></rect><rect width="290" height="3" x="-98" y="386.5" rx="1.5" transform="rotate(45, 47, 388)" opacity="0.56"></rect><rect width="129" height="3" x="578.5" y="33.5" rx="1.5" transform="rotate(45, 643, 35)" opacity="0.76"></rect><rect width="497" height="3" x="212.5" y="759.5" rx="1.5" transform="rotate(45, 461, 761)" opacity="0.33"></rect><rect width="33" height="3" x="47.5" y="777.5" rx="1.5" transform="rotate(45, 64, 779)" opacity="0.91"></rect><rect width="494" height="3" x="75" y="54.5" rx="1.5" transform="rotate(45, 322, 56)" opacity="0.79"></rect><rect width="163" height="3" x="375.5" y="162.5" rx="1.5" transform="rotate(45, 457, 164)" opacity="0.72"></rect><rect width="58" height="3" x="20" y="734.5" rx="1.5" transform="rotate(45, 49, 736)" opacity="0.57"></rect><rect width="110" height="3" x="427" y="521.5" rx="1.5" transform="rotate(45, 482, 523)" opacity="0.15"></rect><rect width="573" height="3" x="76.5" y="358.5" rx="1.5" transform="rotate(45, 363, 360)" opacity="0.72"></rect><rect width="534" height="3" x="-175" y="603.5" rx="1.5" transform="rotate(45, 92, 605)" opacity="0.65"></rect><rect width="60" height="3" x="722" y="771.5" rx="1.5" transform="rotate(45, 752, 773)" opacity="0.84"></rect><rect width="621" height="3" x="268.5" y="527.5" rx="1.5" transform="rotate(45, 579, 529)" opacity="0.14"></rect><rect width="234" height="3" x="233" y="168.5" rx="1.5" transform="rotate(45, 350, 170)" opacity="0.98"></rect></g></svg>