<svg xmlns="http://www.w3.org/2000/svg" version="1.1" xmlns:xlink="http://www.w3.org/1999/xlink" xmlns:svgjs="http://svgjs.dev/svgjs" viewBox="0 0 800 800" opacity="1"><defs><linearGradient x1="50%" y1="0%" x2="50%" y2="100%" id="ggglitch-grad"><stop stop-color="hsla(0, 100%, 50%, 1.00)" stop-opacity="1" offset="45%"></stop><stop stop-color="hsla(0, 100%, 22%, 1.00)" stop-opacity="1" offset="100%"></stop></linearGradient><clipPath id="SvgjsClipPath2274"><rect width="133.33333333333334" height="800" x="0" y="0"></rect><rect width="133.33333333333334" height="800" x="266.6666666666667" y="0"></rect><rect width="133.33333333333334" height="800" x="533.3333333333334" y="0"></rect><rect width="133.33333333333334" height="800" x="800" y="0"></rect><rect width="133.33333333333334" height="800" x="1066.6666666666667" y="0"></rect><rect width="133.33333333333334" height="800" x="1333.3333333333335" y="0"></rect><rect width="133.33333333333334" height="800" x="1600" y="0"></rect></clipPath><clipPath id="SvgjsClipPath2275"><rect width="133.33333333333334" height="800" x="133.33333333333334" y="0"></rect><rect width="133.33333333333334" height="800" x="400" y="0"></rect><rect width="133.33333333333334" height="800" x="666.6666666666666" y="0"></rect><rect width="133.33333333333334" height="800" x="933.3333333333334" y="0"></rect><rect width="133.33333333333334" height="800" x="1200.0000000000002" y="0"></rect><rect width="133.33333333333334" height="800" x="1466.6666666666667" y="0"></rect></clipPath></defs><g stroke-width="37" stroke="url(#ggglitch-grad)" fill="none"><circle r="373" cx="400" cy="400" fill="none" opacity="0.43" clip-path="url(&quot;#SvgjsClipPath2274&quot;)"></circle><circle r="248" cx="400" cy="400" fill="none" opacity="0.43" clip-path="url(&quot;#SvgjsClipPath2274&quot;)"></circle><circle r="123" cx="400" cy="400" fill="none" opacity="0.43" clip-path="url(&quot;#SvgjsClipPath2274&quot;)"></circle><circle r="381.5" cx="400" cy="400" fill="none" clip-path="url(&quot;#SvgjsClipPath2275&quot;)"></circle><circle r="256.5" cx="400" cy="400" fill="none" clip-path="url(&quot;#SvgjsClipPath2275&quot;)"></circle><circle r="131.5" cx="400" cy="400" fill="none" clip-path="url(&quot;#SvgjsClipPath2275&quot;)"></circle></g></svg>