<svg xmlns="http://www.w3.org/2000/svg" version="1.1" xmlns:xlink="http://www.w3.org/1999/xlink" xmlns:svgjs="http://svgjs.dev/svgjs" viewBox="0 0 800 400"><path d="M46.63677215576172,46.63677215576172C164.87294896443683,47.08520253499349,753.6622041066488,43.796712239583336,756.0538330078125,49.327354431152344C758.4454619089762,54.85799662272135,58.295963287353516,74.43945948282878,60.98654556274414,79.82062530517578C63.677127838134766,85.20179112752278,775.1868629455566,77.1300443013509,772.1973266601562,81.61434936523438C769.2077903747559,86.09865442911784,45.14200973510742,103.2884890238444,43.0493278503418,106.72645568847656C40.95664596557617,110.16442235310872,759.1928049723307,97.15993754069011,759.6412353515625,102.24214935302734C760.0896657307943,107.32436116536458,45.73991012573242,133.1838518778483,45.73991012573242,137.2197265625C45.73991012573242,141.2556012471517,754.1105925242106,123.91629028320312,759.6412353515625,126.4573974609375C765.1718781789144,128.99850463867188,82.81016031901042,149.32735697428384,78.92376708984375,152.46636962890625C75.03737386067708,155.60538228352866,742.0029958089193,140.50821431477866,736.3228759765625,145.29147338867188C730.6427561442057,150.0747324625651,45.440958658854164,176.08370971679688,44.843048095703125,181.16592407226562C44.245137532552086,186.24813842773438,708.5201644897461,172.944699605306,732.7354125976562,175.78475952148438C756.9506607055664,178.62481943766275,185.65023295084634,194.469362894694,190.13453674316406,198.20628356933594C194.61884053548178,201.94320424397787,721.5246454874674,195.06727091471353,759.6412353515625,198.20628356933594C797.7578252156576,201.34529622395834,417.78772989908856,213.9013468424479,418.8340759277344,217.0403594970703C419.8804219563802,220.17937215169272,758.2959899902344,214.20029958089194,765.9193115234375,217.0403594970703C773.5426330566406,219.8804194132487,471.15099080403644,231.53961181640625,464.5740051269531,234.08071899414062C457.9970194498698,236.621826171875,720.328847249349,228.40060424804688,726.4573974609375,232.28700256347656C732.585947672526,236.17340087890625,499.70105997721356,253.6621882120768,501.3453063964844,257.39910888671875C502.9895528157552,261.13602956136066,697.1599477132162,255.1569569905599,736.3228759765625,254.70852661132812" fill="none" stroke-width="32" stroke="url(&quot;#SvgjsLinearGradient1006&quot;)" stroke-linecap="round"></path><defs><linearGradient id="SvgjsLinearGradient1006" gradientTransform="rotate(0, 0.5, 0.5)"><stop stop-color="hsl(0, 100%, 50%)" offset="0"></stop><stop stop-color="hsl(0, 93%, 10%)" offset="1"></stop></linearGradient></defs></svg>