<svg xmlns="http://www.w3.org/2000/svg" version="1.1" xmlns:xlink="http://www.w3.org/1999/xlink" xmlns:svgjs="http://svgjs.dev/svgjs" viewBox="0 0 800 800"><defs><linearGradient x1="50%" y1="0%" x2="50%" y2="100%" id="nnneon-grad"><stop stop-color="hsl(0, 100%, 54%)" stop-opacity="1" offset="0%"></stop><stop stop-color="hsl(0, 100%, 28%)" stop-opacity="1" offset="100%"></stop></linearGradient><filter id="nnneon-filter" x="-100%" y="-100%" width="400%" height="400%" filterUnits="objectBoundingBox" primitiveUnits="userSpaceOnUse" color-interpolation-filters="sRGB">
	<feGaussianBlur stdDeviation="17 8" x="0%" y="0%" width="100%" height="100%" in="SourceGraphic" edgeMode="none" result="blur"></feGaussianBlur></filter><filter id="nnneon-filter2" x="-100%" y="-100%" width="400%" height="400%" filterUnits="objectBoundingBox" primitiveUnits="userSpaceOnUse" color-interpolation-filters="sRGB">
	<feGaussianBlur stdDeviation="10 17" x="0%" y="0%" width="100%" height="100%" in="SourceGraphic" edgeMode="none" result="blur"></feGaussianBlur></filter></defs><g stroke-width="31.5" stroke="url(#nnneon-grad)" fill="none"><path d="M376.71360212972604 64.14683468410738C391.12324401612887 55.82892246396656 408.8768170190274 55.82892246396656 423.2864589054302 64.14916332694617L679.2136214592807 211.90853737638446C693.6232633456837 220.2264495965253 702.5000498471329 235.6024782610241 702.5000498471329 252.2406313441445V547.7593794430211C702.5000498471329 564.3975325261416 693.6232633456837 579.7735611906404 679.2136214592807 588.0938020536199L423.2864589054302 735.8531761030583C408.8768170190274 744.171088323199 391.12324401612887 744.171088323199 376.71360212972604 735.8508474602195L120.78643957587548 588.0914734107812C106.3767976894726 579.7735611906404 97.50001118802334 564.3975325261416 97.50001118802334 547.7593794430211V252.2406313441445C97.50001118802334 235.6024782610241 106.3767976894726 220.2264495965253 120.78643957587548 211.90620873354572L376.71360212972604 64.14683468410738Z " filter="url(#nnneon-filter)"></path><path d="M388.71360212972604 64.14683468410738C403.12324401612887 55.82892246396656 420.8768170190274 55.82892246396656 435.2864589054302 64.14916332694617L691.2136214592807 211.90853737638446C705.6232633456837 220.2264495965253 714.5000498471329 235.6024782610241 714.5000498471329 252.2406313441445V547.7593794430211C714.5000498471329 564.3975325261416 705.6232633456837 579.7735611906404 691.2136214592807 588.0938020536199L435.2864589054302 735.8531761030583C420.8768170190274 744.171088323199 403.12324401612887 744.171088323199 388.71360212972604 735.8508474602195L132.78643957587548 588.0914734107812C118.3767976894726 579.7735611906404 109.50001118802334 564.3975325261416 109.50001118802334 547.7593794430211V252.2406313441445C109.50001118802334 235.6024782610241 118.3767976894726 220.2264495965253 132.78643957587548 211.90620873354572L388.71360212972604 64.14683468410738Z " filter="url(#nnneon-filter2)" opacity="0.25"></path><path d="M364.71360212972604 64.14683468410738C379.12324401612887 55.82892246396656 396.8768170190274 55.82892246396656 411.2864589054302 64.14916332694617L667.2136214592807 211.90853737638446C681.6232633456837 220.2264495965253 690.5000498471329 235.6024782610241 690.5000498471329 252.2406313441445V547.7593794430211C690.5000498471329 564.3975325261416 681.6232633456837 579.7735611906404 667.2136214592807 588.0938020536199L411.2864589054302 735.8531761030583C396.8768170190274 744.171088323199 379.12324401612887 744.171088323199 364.71360212972604 735.8508474602195L108.78643957587548 588.0914734107812C94.3767976894726 579.7735611906404 85.50001118802334 564.3975325261416 85.50001118802334 547.7593794430211V252.2406313441445C85.50001118802334 235.6024782610241 94.3767976894726 220.2264495965253 108.78643957587548 211.90620873354572L364.71360212972604 64.14683468410738Z " filter="url(#nnneon-filter2)" opacity="0.25"></path><path d="M376.71360212972604 64.14683468410738C391.12324401612887 55.82892246396656 408.8768170190274 55.82892246396656 423.2864589054302 64.14916332694617L679.2136214592807 211.90853737638446C693.6232633456837 220.2264495965253 702.5000498471329 235.6024782610241 702.5000498471329 252.2406313441445V547.7593794430211C702.5000498471329 564.3975325261416 693.6232633456837 579.7735611906404 679.2136214592807 588.0938020536199L423.2864589054302 735.8531761030583C408.8768170190274 744.171088323199 391.12324401612887 744.171088323199 376.71360212972604 735.8508474602195L120.78643957587548 588.0914734107812C106.3767976894726 579.7735611906404 97.50001118802334 564.3975325261416 97.50001118802334 547.7593794430211V252.2406313441445C97.50001118802334 235.6024782610241 106.3767976894726 220.2264495965253 120.78643957587548 211.90620873354572L376.71360212972604 64.14683468410738Z "></path></g></svg>