<svg xmlns="http://www.w3.org/2000/svg" version="1.1" xmlns:xlink="http://www.w3.org/1999/xlink" xmlns:svgjs="http://svgjs.dev/svgjs" viewBox="0 0 1422 800"><defs><linearGradient x1="50%" y1="0%" x2="50%" y2="100%" id="oooscillate-grad"><stop stop-color="hsl(0, 100%, 50%)" stop-opacity="1" offset="0%"></stop><stop stop-color="hsl(0, 0%, 100%)" stop-opacity="1" offset="100%"></stop></linearGradient></defs><g stroke-width="3.5" stroke="url(#oooscillate-grad)" fill="none" stroke-linecap="round"><path d="M 0 713 Q 355.5 170 711 400 Q 1066.5 630 1422 713" opacity="1.00"></path><path d="M 0 690 Q 355.5 170 711 400 Q 1066.5 630 1422 690" opacity="0.97"></path><path d="M 0 667 Q 355.5 170 711 400 Q 1066.5 630 1422 667" opacity="0.94"></path><path d="M 0 644 Q 355.5 170 711 400 Q 1066.5 630 1422 644" opacity="0.91"></path><path d="M 0 621 Q 355.5 170 711 400 Q 1066.5 630 1422 621" opacity="0.87"></path><path d="M 0 598 Q 355.5 170 711 400 Q 1066.5 630 1422 598" opacity="0.84"></path><path d="M 0 575 Q 355.5 170 711 400 Q 1066.5 630 1422 575" opacity="0.81"></path><path d="M 0 552 Q 355.5 170 711 400 Q 1066.5 630 1422 552" opacity="0.78"></path><path d="M 0 529 Q 355.5 170 711 400 Q 1066.5 630 1422 529" opacity="0.75"></path><path d="M 0 506 Q 355.5 170 711 400 Q 1066.5 630 1422 506" opacity="0.72"></path><path d="M 0 483 Q 355.5 170 711 400 Q 1066.5 630 1422 483" opacity="0.68"></path><path d="M 0 460 Q 355.5 170 711 400 Q 1066.5 630 1422 460" opacity="0.65"></path><path d="M 0 437 Q 355.5 170 711 400 Q 1066.5 630 1422 437" opacity="0.62"></path><path d="M 0 414 Q 355.5 170 711 400 Q 1066.5 630 1422 414" opacity="0.59"></path><path d="M 0 391 Q 355.5 170 711 400 Q 1066.5 630 1422 391" opacity="0.56"></path><path d="M 0 368 Q 355.5 170 711 400 Q 1066.5 630 1422 368" opacity="0.53"></path><path d="M 0 345 Q 355.5 170 711 400 Q 1066.5 630 1422 345" opacity="0.49"></path><path d="M 0 322 Q 355.5 170 711 400 Q 1066.5 630 1422 322" opacity="0.46"></path><path d="M 0 299 Q 355.5 170 711 400 Q 1066.5 630 1422 299" opacity="0.43"></path><path d="M 0 276 Q 355.5 170 711 400 Q 1066.5 630 1422 276" opacity="0.40"></path><path d="M 0 253 Q 355.5 170 711 400 Q 1066.5 630 1422 253" opacity="0.37"></path><path d="M 0 230 Q 355.5 170 711 400 Q 1066.5 630 1422 230" opacity="0.34"></path><path d="M 0 207 Q 355.5 170 711 400 Q 1066.5 630 1422 207" opacity="0.30"></path><path d="M 0 184 Q 355.5 170 711 400 Q 1066.5 630 1422 184" opacity="0.27"></path><path d="M 0 161 Q 355.5 170 711 400 Q 1066.5 630 1422 161" opacity="0.24"></path><path d="M 0 138 Q 355.5 170 711 400 Q 1066.5 630 1422 138" opacity="0.21"></path><path d="M 0 115 Q 355.5 170 711 400 Q 1066.5 630 1422 115" opacity="0.18"></path><path d="M 0 92 Q 355.5 170 711 400 Q 1066.5 630 1422 92" opacity="0.15"></path><path d="M 0 69 Q 355.5 170 711 400 Q 1066.5 630 1422 69" opacity="0.11"></path><path d="M 0 46 Q 355.5 170 711 400 Q 1066.5 630 1422 46" opacity="0.08"></path></g></svg>