<svg xmlns="http://www.w3.org/2000/svg" version="1.1" xmlns:xlink="http://www.w3.org/1999/xlink" xmlns:svgjs="http://svgjs.dev/svgjs" viewBox="0 0 800 800"><g transform="matrix(1,0,0,1,0,0)"><path d="M675.6861677160726 564.0920955663572C680.8307671333669 561.1223946745383 687.1692328666331 561.1223946745383 692.3138322839274 564.0929269495856L783.6861746172029 616.84668694079C788.8307740344972 619.8163878326088 792.0000069011303 625.3060112896861 792.0000069011303 631.2462444565523V736.7537644389611C792.0000069011303 742.6939976058272 788.8307740344972 748.1836210629045 783.6861746172029 751.1541533379518L692.3138322839274 803.9079133291561C687.1692328666331 806.877614220975 680.8307671333669 806.877614220975 675.6861677160726 803.9070819459278L584.3138253827971 751.1533219547234C579.1692259655028 748.1836210629045 575.9999930988697 742.6939976058272 575.9999930988697 736.7537644389611V631.2462444565523C575.9999930988697 625.3060112896861 579.1692259655028 619.8163878326088 584.3138253827971 616.8458555575617L675.6861677160726 564.0920955663572Z " stroke-width="3.5" stroke="#ff0000" fill="none" opacity="0.02" transform="rotate(88, 400, 400)"></path><path d="M662.6301178995204 549.0634153246572C667.8656572055042 546.0412197201041 674.3161665249646 546.0412197201041 679.5517058309483 549.0642614040537L772.5392158317313 602.7505373546986C777.7747551377151 605.7727329592517 781.0000097974453 611.3593952148126 781.0000097974453 617.4046325033153V724.7771844046051C781.0000097974453 730.8224216931077 777.7747551377151 736.4090839486687 772.5392158317313 739.4321256326183L679.5517058309483 793.1184015832632C674.3161665249646 796.1405971878162 667.8656572055042 796.1405971878162 662.6301178995204 793.1175555038667L569.6426078987374 739.4312795532217C564.4070685927537 736.4090839486687 561.1818139330235 730.8224216931077 561.1818139330235 724.7771844046051V617.4046325033153C561.1818139330235 611.3593952148126 564.4070685927537 605.7727329592517 569.6426078987374 602.749691275302L662.6301178995204 549.0634153246572Z " stroke-width="3.5" stroke="#fe1a1a" fill="none" opacity="0.06454545454545454" transform="rotate(87.31818181818181, 400, 400)"></path><path d="M649.574052824179 534.0347274535625C654.9005320188523 530.9600371362752 661.4630849245068 530.9600371362752 666.7895641191802 534.0355882291271L761.3922417874705 588.6543801392125C766.7187209821439 591.7290704564998 769.9999974349711 597.4127715105444 769.9999974349711 603.5630129206836V712.8005967408544C769.9999974349711 718.9508381509936 766.7187209821439 724.6345392050382 761.3922417874705 727.7100902978901L666.7895641191802 782.3288822079755C661.4630849245068 785.4035725252627 654.9005320188523 785.4035725252627 649.574052824179 782.3280214324108L554.9713751558887 727.7092295223254C549.6448959612153 724.6345392050382 546.3636195083882 718.9508381509936 546.3636195083882 712.8005967408544V603.5630129206836C546.3636195083882 597.4127715105444 549.6448959612153 591.7290704564998 554.9713751558887 588.6535193636478L649.574052824179 534.0347274535625Z " stroke-width="3.5" stroke="#fd2424" fill="none" opacity="0.1090909090909091" transform="rotate(86.63636363636364, 400, 400)"></path><path d="M636.5180030076269 519.0060624706514C641.9354220909897 515.87887744063 648.6100185828384 515.87887744063 654.0274376662012 519.0069379423844L750.2452830019989 574.5582458119102C755.6627020853618 577.6854308419316 759.0000003312862 583.46617069446 759.0000003312862 589.7214162262356V700.8240319652874C759.0000003312862 707.0792774970631 755.6627020853618 712.8600173495914 750.2452830019989 715.9880778513457L654.0274376662012 771.5393857208717C648.6100185828384 774.666570750893 641.9354220909897 774.666570750893 636.5180030076269 771.5385102491387L540.3001576718291 715.9872023796129C534.8827385884663 712.8600173495914 531.545440342542 707.0792774970631 531.545440342542 700.8240319652874V589.7214162262356C531.545440342542 583.46617069446 534.8827385884663 577.6854308419316 540.3001576718291 574.5573703401774L636.5180030076269 519.0060624706514Z " stroke-width="3.5" stroke="#fb2c2c" fill="none" opacity="0.15363636363636363" transform="rotate(85.95454545454545, 400, 400)"></path><path d="M623.4619531910747 503.97738985834593C628.9703121631271 500.79771011559035 635.7569522411698 500.79771011559035 641.2653112132223 503.97828002624703L739.0983242165273 560.4621038552134C744.6066831885798 563.6417835979689 748.0000032276012 569.519562248981 748.0000032276012 575.8798119023932V688.8474595603259C748.0000032276012 695.2077092137381 744.6066831885798 701.0854878647501 739.0983242165273 704.2660577754068L641.2653112132223 760.7498816043732C635.7569522411698 763.9295613471287 628.9703121631271 763.9295613471287 623.4619531910747 760.748991436472L525.6289401877696 704.2651676075056C520.120581215717 701.0854878647501 516.7272611766957 695.2077092137381 516.7272611766957 688.8474595603259V575.8798119023932C516.7272611766957 569.519562248981 520.120581215717 563.6417835979689 525.6289401877696 560.4612136873122L623.4619531910747 503.97738985834593Z " stroke-width="3.5" stroke="#fa3333" fill="none" opacity="0.19818181818181818" transform="rotate(85.27272727272727, 400, 400)"></path><path d="M610.4059033745225 488.9487325048294C616.0052022352645 485.7165580493397 622.9038858995012 485.7165580493397 628.5031847602432 488.9496373688987L727.9513654310557 546.3659771573056C733.5506642917977 549.5981516127953 737.0000061239161 555.572969062291 737.0000061239161 562.0382228373398V676.8709024141534C737.0000061239161 683.3361561892023 733.5506642917977 689.3109736386979 727.9513654310557 692.5440529582569L628.5031847602432 749.9603927466637C622.9038858995012 753.1925672021534 616.0052022352645 753.1925672021534 610.4059033745225 749.9594878825944L510.95772270371 692.5431480941876C505.35842384296797 689.3109736386979 501.9090820108496 683.3361561892023 501.9090820108496 676.8709024141534V562.0382228373398C501.9090820108496 555.572969062291 505.35842384296797 549.5981516127953 510.95772270371 546.3650722932364L610.4059033745225 488.9487325048294Z " stroke-width="3.5" stroke="#f93939" fill="none" opacity="0.24272727272727274" transform="rotate(84.5909090909091, 400, 400)"></path><path d="M597.3498535579702 473.92004463373473C603.0400923074017 470.63537546551083 610.0508195578326 470.63537546551083 615.7410583072641 473.9209641939722L716.804406645584 532.2698199418196C722.4946453950156 535.5544891100434 726.000009020231 541.6263453580228 726.000009020231 548.1966032547082V664.8943147504027C726.000009020231 671.4645726470881 722.4946453950156 677.5364288950674 716.804406645584 680.8220176235287L615.7410583072641 739.170873371376C610.0508195578326 742.4555425396 603.0400923074017 742.4555425396 597.3498535579702 739.1699538111386L496.2865052196503 680.8210980632913C490.5962664702187 677.5364288950674 487.0909028450033 671.4645726470881 487.0909028450033 664.8943147504027V548.1966032547082C487.0909028450033 541.6263453580228 490.5962664702187 535.5544891100434 496.2865052196503 532.2689003815821L597.3498535579702 473.92004463373473Z " stroke-width="3.5" stroke="#f73f3f" fill="none" opacity="0.2872727272727273" transform="rotate(83.9090909090909, 400, 400)"></path><path d="M584.293788482629 458.8913415038511C590.07496712075 455.554177622893 597.197737957375 455.554177622893 602.978916595496 458.8922757602568L705.6574326013233 518.1736474675446C711.4386112394444 521.5108113485026 714.9999966577569 527.6797063949657 714.9999966577569 534.3549684132875V652.9177118278631C714.9999966577569 659.5929738461849 711.4386112394444 665.761868892648 705.6574326013233 669.0999670300116L602.978916595496 728.3813387372994C597.197737957375 731.7185026182575 590.07496712075 731.7185026182575 584.293788482629 728.3804044808938L481.61527247680164 669.099032773606C475.83409383868053 665.761868892648 472.2727084203681 659.5929738461849 472.2727084203681 652.9177118278631V534.3549684132875C472.2727084203681 527.6797063949657 475.83409383868053 521.5108113485026 481.61527247680164 518.1727132111389L584.293788482629 458.8913415038511Z " stroke-width="3.5" stroke="#f64444" fill="none" opacity="0.33181818181818185" transform="rotate(83.22727272727273, 400, 400)"></path><path d="M571.2377386660768 443.86268415033464C577.1098571928874 440.47302555664237 584.3446716157064 440.47302555664237 590.2167901425171 443.86363310290847L694.5104738158518 504.07752076963675C700.3825923426624 507.467179363329 703.9999995540719 513.7331132082758 703.9999995540719 520.5133793482341V640.9411546816907C703.9999995540719 647.721420821649 700.3825923426624 653.9873546665957 694.5104738158518 657.3779622128618L590.2167901425171 717.5918498795901C584.3446716157064 720.9815084732822 577.1098571928874 720.9815084732822 571.2377386660768 717.5909009270163L466.94405499274205 657.377013260288C461.0719364659314 653.9873546665957 457.4545292545219 647.721420821649 457.4545292545219 640.9411546816907V520.5133793482341C457.4545292545219 513.7331132082758 461.0719364659314 507.467179363329 466.94405499274205 504.0765718170629L571.2377386660768 443.86268415033464Z " stroke-width="3.5" stroke="#f54848" fill="none" opacity="0.3763636363636364" transform="rotate(82.54545454545455, 400, 400)"></path><path d="M558.1816888495246 428.83401153802913C564.1447472650248 425.39185823160267 571.4916052740379 425.39185823160267 577.454663689538 428.8349751867711L683.3635150303801 489.98137881293985C689.3265734458804 493.4235321193663 693.0000024503869 499.78650476279677 693.0000024503869 506.6717750243916V628.9645822767291C693.0000024503869 635.849852538324 689.3265734458804 642.2128251817544 683.3635150303801 645.6559421369228L577.454663689538 706.8023457630916C571.4916052740379 710.2444990695179 564.1447472650248 710.2444990695179 558.1816888495246 706.8013821143496L452.27283750868247 645.6549784881809C446.30977909318227 642.2128251817544 442.6363500886757 635.849852538324 442.6363500886757 628.9645822767291V506.6717750243916C442.6363500886757 499.78650476279677 446.30977909318227 493.4235321193663 452.27283750868247 489.9804151641979L558.1816888495246 428.83401153802913Z " stroke-width="3.5" stroke="#f44d4d" fill="none" opacity="0.42090909090909095" transform="rotate(81.86363636363636, 400, 400)"></path><path d="M545.1256390329722 413.80535418451257C551.1796373371619 410.310706165352 558.6385389323692 410.310706165352 564.6925372365589 413.8063325294227L672.2165562449085 475.88525211503196C678.2705545490982 479.37990013419255 682.0000053467018 485.8399115761067 682.0000053467018 492.8301859593381V616.9880251305565C682.0000053467018 623.978299513788 678.2705545490982 630.438310955702 672.2165562449085 633.9339373197728L564.6925372365589 696.0128569053821C558.6385389323692 699.5075049245426 551.1796373371619 699.5075049245426 545.1256390329722 696.0118785604719L437.6016200246228 633.9329589748627C431.547621720433 630.438310955702 427.81817092282944 623.978299513788 427.81817092282944 616.9880251305565V492.8301859593381C427.81817092282944 485.8399115761067 431.547621720433 479.37990013419255 437.6016200246228 475.8842737701218L545.1256390329722 413.80535418451257Z " stroke-width="3.5" stroke="#f25151" fill="none" opacity="0.4654545454545455" transform="rotate(81.18181818181819, 400, 400)"></path><path d="M532.0695892164201 398.7766510546289C538.2145274092993 395.22950832273415 545.7854725907007 395.22950832273415 551.9304107835799 398.7776440957073L661.0695974594369 461.789079640757C667.214535652316 465.3362223726517 671.0000082430167 471.8932726130496 671.0000082430167 478.9885511179175V605.0114222080169C671.0000082430167 612.1067007128848 667.214535652316 618.6637509532827 661.0695974594369 622.2118867262558L551.9304107835799 685.2233222713055C545.7854725907007 688.7704650032002 538.2145274092993 688.7704650032002 532.0695892164201 685.2223292302272L422.9304025405632 622.2108936851774C416.7854643476839 618.6637509532827 412.99999175698326 612.1067007128848 412.99999175698326 605.0114222080169V478.9885511179175C412.99999175698326 471.8932726130496 416.7854643476839 465.3362223726517 422.9304025405632 461.78808659967865L532.0695892164201 398.7766510546289Z " stroke-width="3.5" stroke="#f15555" fill="none" opacity="0.51" transform="rotate(80.5, 400, 400)"></path><path d="M519.0135393998678 383.74796318353435C525.2494174814367 380.1483257389054 532.9324062490322 380.1483257389054 539.168284330601 383.74897092078083L649.9226386739653 447.69292242527104C656.1585167555339 451.2925598699 660.0000111393318 457.9466489087815 660.0000111393318 465.14693153528594V593.0348345442663C660.0000111393318 600.2351171707708 656.1585167555339 606.8892062096522 649.9226386739653 610.4898513915277L539.168284330601 674.4338028960179C532.9324062490322 678.0334403406468 525.2494174814367 678.0334403406468 519.0135393998678 674.4327951587715L408.2591850565036 610.4888436542813C402.02330697493477 606.8892062096522 398.18181259113703 600.2351171707708 398.18181259113703 593.0348345442663V465.14693153528594C398.18181259113703 457.9466489087815 402.02330697493477 451.2925598699 408.2591850565036 447.69191468802455L519.0135393998678 383.74796318353435Z " stroke-width="3.5" stroke="#f05959" fill="none" opacity="0.5545454545454546" transform="rotate(79.81818181818181, 400, 400)"></path><path d="M505.9574895833157 368.71930583001784C512.2843075535741 365.06717367265475 520.0793399073636 365.06717367265475 526.4061578776219 368.7203282634326L638.7756798884936 433.59679572736326C645.102497858752 437.24892788472636 649.0000140356467 444.0000557220916 649.0000140356467 451.3053424702325V581.0582773980939C649.0000140356467 588.3635641462348 645.102497858752 595.1146919836001 638.7756798884936 598.7678465743778L526.4061578776219 663.6443140383085C520.0793399073636 667.2964461956717 512.2843075535741 667.2964461956717 505.9574895833157 663.6432916048939L393.58796757244403 598.7668241409631C387.26114960218564 595.1146919836001 383.36363342529086 588.3635641462348 383.36363342529086 581.0582773980939V451.3053424702325C383.36363342529086 444.0000557220916 387.26114960218564 437.24892788472636 393.58796757244403 433.5957732939486L505.9574895833157 368.71930583001784Z " stroke-width="3.5" stroke="#ee5c5c" fill="none" opacity="0.5990909090909091" transform="rotate(79.13636363636364, 400, 400)"></path><path d="M492.90143976676336 353.6906332177122C499.31919762571124 349.98600634761493 507.2262735656949 349.98600634761493 513.6440314246428 353.69167034729514L627.6287211030219 419.5006537706663C634.0464789619698 423.20528064076353 638.0000169319617 430.0534472766125 638.0000169319617 437.4637381463899V569.0817049931322C638.0000169319617 576.4919958629098 634.0464789619698 583.3401624987587 627.6287211030219 587.0458264984388L513.6440314246428 652.8548099218099C507.2262735656949 656.5594367919072 499.31919762571124 656.5594367919072 492.90143976676336 652.8537727922271L378.9167500883843 587.0447893688558C372.4989922294364 583.3401624987587 368.54545425944457 576.4919958629098 368.54545425944457 569.0817049931322V437.4637381463899C368.54545425944457 430.0534472766125 372.4989922294364 423.20528064076353 378.9167500883843 419.49961664108343L492.90143976676336 353.6906332177122Z " stroke-width="3.5" stroke="#ed6060" fill="none" opacity="0.6436363636363637" transform="rotate(78.45454545454545, 400, 400)"></path><path d="M479.8453594326331 338.6619453466176C486.3540571802705 334.9048237637862 494.37317670644825 334.9048237637862 500.88187445408573 338.6629971723687L616.4817317999722 405.40449655518034C622.9904295476096 409.1616181380118 626.9999893106984 416.1068235723444 626.9999893106984 423.62211856375836V557.1051173293816C626.9999893106984 564.6204123207956 622.9904295476096 571.5656177551282 616.4817317999722 575.3237911637108L500.88187445408573 642.0652905465223C494.37317670644825 645.8224121293539 486.3540571802705 645.8224121293539 479.8453594326331 642.0642387207714L364.24550208674657 575.3227393379597C357.73680433910914 571.5656177551282 353.72724457602027 564.6204123207956 353.72724457602027 557.1051173293816V423.62211856375836C353.72724457602027 416.1068235723444 357.73680433910914 409.1616181380118 364.24550208674657 405.4034447294293L479.8453594326331 338.6619453466176Z " stroke-width="3.5" stroke="#ec6363" fill="none" opacity="0.6881818181818182" transform="rotate(77.77272727272728, 400, 400)"></path><path d="M466.7893096160809 323.63328799310113C473.3889472524079 319.8236716975356 481.5201103647797 319.8236716975356 488.1197480011067 323.6343545150204L605.3347730145006 391.30836985727257C611.9344106508275 395.11798615283817 615.9999922070135 402.1602303856545 615.9999922070135 409.78052949870494V545.1285601832092C615.9999922070135 552.7488592962598 611.9344106508275 559.791103529076 605.3347730145006 563.6017863465609L488.1197480011067 631.2758016888131C481.5201103647797 635.0854179843786 473.3889472524079 635.0854179843786 466.7893096160809 631.2747351668938L349.574284602687 563.6007198246416C342.97464696636 559.791103529076 338.9090654101741 552.7488592962598 338.9090654101741 545.1285601832092V409.78052949870494C338.9090654101741 402.1602303856545 342.97464696636 395.11798615283817 349.574284602687 391.3073033353533L466.7893096160809 323.63328799310113Z " stroke-width="3.5" stroke="#ea6666" fill="none" opacity="0.7327272727272728" transform="rotate(77.0909090909091, 400, 400)"></path><path d="M453.73325979952864 308.6046153807956C460.4238373245451 304.7425043724958 468.66704402311115 304.7425043724958 475.3576215481276 308.605696598883L594.1878142290288 377.2122279005756C600.8783917540454 381.0743389088754 604.9999951033283 388.2136219401754 604.9999951033283 395.9389251748624V533.1519877782476C604.9999951033283 540.8772910129346 600.8783917540454 548.0165740442346 594.1878142290288 551.8797662706218L475.3576215481276 620.4862975723145C468.66704402311115 624.3484085806142 460.4238373245451 624.3484085806142 453.73325979952864 620.4852163542271L334.90306711862735 551.8786850525344C328.2124895936108 548.0165740442346 324.09088624432786 540.8772910129346 324.09088624432786 533.1519877782476V395.9389251748624C324.09088624432786 388.2136219401754 328.2124895936108 381.0743389088754 334.90306711862735 377.2111466824882L453.73325979952864 308.6046153807956Z " stroke-width="3.5" stroke="#e96969" fill="none" opacity="0.7772727272727273" transform="rotate(76.4090909090909, 400, 400)"></path><path d="M440.67720998297636 293.57592750970093C447.45872739668243 289.661321788667 455.81397768144257 289.661321788667 462.59549509514864 293.5770234239566L583.0408554435572 363.11607068508965C589.8223728572633 367.03067640612363 593.9999979996434 374.2669982359073 593.9999979996434 382.09730559223084V521.175400114497C593.9999979996434 529.0057074708207 589.8223728572633 536.2420293006043 583.0408554435572 540.1577309358938L462.59549509514864 609.6967781970269C455.81397768144257 613.6113839180608 447.45872739668243 613.6113839180608 440.67720998297636 609.6956822827714L320.2318496345677 540.1566350216383C313.45033222086164 536.2420293006043 309.27270707848163 529.0057074708207 309.27270707848163 521.175400114497V382.09730559223084C309.27270707848163 374.2669982359073 313.45033222086164 367.03067640612363 320.2318496345677 363.11497477083407L440.67720998297636 293.57592750970093Z " stroke-width="3.5" stroke="#e86d6d" fill="none" opacity="0.8218181818181819" transform="rotate(75.72727272727273, 400, 400)"></path><path d="M427.6211601664242 278.5472548973954C434.4936174688198 274.5801544636273 442.960911339774 274.5801544636273 449.8333686421696 278.5483655078192L571.8938966580856 349.0199287283928C578.7663539604813 352.9870291621609 583.0000008959584 360.3203897904283 583.0000008959584 368.25570126838835V509.1988277095355C583.0000008959584 517.1341391874955 578.7663539604813 524.467499815763 571.8938966580856 528.4357108599548L449.8333686421696 598.9072740805284C442.960911339774 602.8743745142965 434.4936174688198 602.8743745142965 427.6211601664242 598.9061634701047L305.5606321505081 528.4346002495311C298.6881748481125 524.467499815763 294.45452791263546 517.1341391874955 294.45452791263546 509.1988277095355V368.25570126838835C294.45452791263546 360.3203897904283 298.6881748481125 352.9870291621609 305.5606321505081 349.01881811796903L427.6211601664242 278.5472548973954Z " stroke-width="3.5" stroke="#e67070" fill="none" opacity="0.8663636363636364" transform="rotate(75.04545454545455, 400, 400)"></path><path d="M414.565110349872 263.5185975438789C421.52850754095715 259.49900239737656 430.10784499810535 259.49900239737656 437.0712421891905 263.5197228504709L560.7469378726139 334.9238020304849C567.7103350636992 338.9433971769872 572.0000037922732 346.3737966037383 572.0000037922732 354.4141122033349V497.222270563363C572.0000037922732 505.2625861629596 567.7103350636992 512.6929855897106 560.7469378726139 516.7137060428049L437.0712421891905 588.1177852228191C430.10784499810535 592.1373803693211 421.52850754095715 592.1373803693211 414.565110349872 588.116659916227L290.8894146664485 516.7125807362129C283.9260174753633 512.6929855897106 279.6363487467892 505.2625861629596 279.6363487467892 497.222270563363V354.4141122033349C279.6363487467892 346.3737966037383 283.9260174753633 338.9433971769872 290.8894146664485 334.922676723893L414.565110349872 263.5185975438789Z " stroke-width="3.5" stroke="#e57272" fill="none" opacity="0.910909090909091" transform="rotate(74.36363636363636, 400, 400)"></path><path d="M401.50906053331977 248.48994019036246C408.5633976130945 244.41785033112598 417.2547786564368 244.41785033112598 424.30911573621154 248.49108019312257L549.5999790871424 320.82767533257714C556.6543161669172 324.89976519181363 561.0000066885882 332.42720341704836 561.0000066885882 340.57252313828144V485.24571341719053C561.0000066885882 493.39103313842367 556.6543161669172 500.9184713636584 549.5999790871424 504.99170122565505L424.30911573621154 577.3282963651095C417.2547786564368 581.400386224346 408.5633976130945 581.400386224346 401.50906053331977 577.3271563623493L276.2181971823889 504.9905612228949C269.1638601026142 500.9184713636584 264.81816958094305 493.39103313842367 264.81816958094305 485.24571341719053V340.57252313828144C264.81816958094305 332.42720341704836 269.1638601026142 324.89976519181363 276.2181971823889 320.826535329817L401.50906053331977 248.48994019036246Z " stroke-width="3.5" stroke="#e37575" fill="none" opacity="0.9554545454545456" transform="rotate(73.68181818181819, 400, 400)"></path><path d="M388.4530107167675 233.46125231926777C395.59828768523175 229.33666774729716 404.40171231476825 229.33666774729716 411.5469892832325 233.46240701819613L538.4530203016707 306.7315181170911C545.5982972701349 310.8561026890618 550.0000095849032 318.48057971278024 550.0000095849032 326.7309035556499V473.2691257534399C550.0000095849032 481.5194495963096 545.5982972701349 489.14392662002797 538.4530203016707 493.26966589092694L411.5469892832325 566.538776989822C404.40171231476825 570.6633615617925 395.59828768523175 570.6633615617925 388.4530107167675 566.5376222908938L261.54697969832927 493.26851119199864C254.401702729865 489.14392662002797 249.99999041509682 481.5194495963096 249.99999041509682 473.2691257534399V326.7309035556499C249.99999041509682 318.48057971278024 254.401702729865 310.8561026890618 261.54697969832927 306.7303634181629L388.4530107167675 233.46125231926777Z " stroke-width="3.5" stroke="#e27878" fill="none" opacity="1" transform="rotate(73, 400, 400)"></path></g></svg>