<svg xmlns="http://www.w3.org/2000/svg" version="1.1" xmlns:xlink="http://www.w3.org/1999/xlink" xmlns:svgjs="http://svgjs.dev/svgjs" viewBox="0 0 600 600"><path d="M547.0587768554688,248.253662109375C578.1698888142904,259.4954884847005,387.84312693277997,473.6131235758464,328.23529052734375,463.1556091308594C268.62745412190753,452.6980946858724,220.5228703816732,196.75040181477866,189.41175842285156,185.50857543945312C158.30064646402994,174.2667490641276,81.96078236897787,385.24713643391925,141.56861877441406,395.70465087890625C201.17645517985025,406.16216532389325,515.9476648966471,237.01183573404947,547.0587768554688,248.253662109375C578.1698888142904,259.4954884847005,387.84312693277997,473.6131235758464,328.23529052734375,463.1556091308594" fill="#b80000"></path><path d="M463.9215065591477 241.97917161735018C495.03261851796935 253.22099799267568 304.7058566364589 467.33863308382155 245.0980202310227 456.88111863883455C185.49018382558648 446.42360419384755 137.38560008535214 190.47591132275383 106.27448812653051 179.2340849474283C75.16337616770889 167.99225857210277 -1.1764879273431745 378.9726459418944 58.431348478093014 389.4301603868814C118.0391848835292 399.8876748318684 432.81039460032605 230.73734524202465 463.9215065591477 241.97917161735018C495.03261851796935 253.22099799267568 304.7058566364589 467.33863308382155 245.0980202310227 456.88111863883455 " fill-opacity="0.38" fill="#b80000" opacity="1" stroke-opacity="1" stroke-width="0" stroke="hsl(340, 45%, 30%)" transform="matrix(1,0,0,1,75,75)"></path></svg>