<svg xmlns="http://www.w3.org/2000/svg" version="1.1" xmlns:xlink="http://www.w3.org/1999/xlink" xmlns:svgjs="http://svgjs.dev/svgjs" viewBox="0 0 2400 800" opacity="1"><defs><linearGradient x1="50%" y1="0%" x2="50%" y2="100%" id="sssurf-grad"><stop stop-color="#ce0000ff" stop-opacity="1" offset="0%"></stop><stop stop-color="#161b22ff" stop-opacity="1" offset="100%"></stop></linearGradient></defs><g fill="url(#sssurf-grad)" transform="matrix(1,0,0,1,2.0377197265625,254.31921195983887)"><path d="M-10,10C117.08333333333334,11.25,347.9166666666667,26.625,600,16C852.0833333333333,5.375,950,-52.875,1200,-41C1450,-29.125,1550,75.5,1800,73C2050,70.5,2222.9166666666665,-121.125,2400,-53C2577.0833333333335,15.125,3254.1666666666665,201.45833333333331,2650,400C2045.8333333333335,598.5416666666667,156.25,795.8333333333334,-500,900" transform="matrix(1,0,0,1,0,37)" opacity="0.05"></path><path d="M-10,10C117.08333333333334,11.25,347.9166666666667,26.625,600,16C852.0833333333333,5.375,950,-52.875,1200,-41C1450,-29.125,1550,75.5,1800,73C2050,70.5,2222.9166666666665,-121.125,2400,-53C2577.0833333333335,15.125,3254.1666666666665,201.45833333333331,2650,400C2045.8333333333335,598.5416666666667,156.25,795.8333333333334,-500,900" transform="matrix(1,0,0,1,0,74)" opacity="0.24"></path><path d="M-10,10C117.08333333333334,11.25,347.9166666666667,26.625,600,16C852.0833333333333,5.375,950,-52.875,1200,-41C1450,-29.125,1550,75.5,1800,73C2050,70.5,2222.9166666666665,-121.125,2400,-53C2577.0833333333335,15.125,3254.1666666666665,201.45833333333331,2650,400C2045.8333333333335,598.5416666666667,156.25,795.8333333333334,-500,900" transform="matrix(1,0,0,1,0,111)" opacity="0.43"></path><path d="M-10,10C117.08333333333334,11.25,347.9166666666667,26.625,600,16C852.0833333333333,5.375,950,-52.875,1200,-41C1450,-29.125,1550,75.5,1800,73C2050,70.5,2222.9166666666665,-121.125,2400,-53C2577.0833333333335,15.125,3254.1666666666665,201.45833333333331,2650,400C2045.8333333333335,598.5416666666667,156.25,795.8333333333334,-500,900" transform="matrix(1,0,0,1,0,148)" opacity="0.62"></path><path d="M-10,10C117.08333333333334,11.25,347.9166666666667,26.625,600,16C852.0833333333333,5.375,950,-52.875,1200,-41C1450,-29.125,1550,75.5,1800,73C2050,70.5,2222.9166666666665,-121.125,2400,-53C2577.0833333333335,15.125,3254.1666666666665,201.45833333333331,2650,400C2045.8333333333335,598.5416666666667,156.25,795.8333333333334,-500,900" transform="matrix(1,0,0,1,0,185)" opacity="0.81"></path><path d="M-10,10C117.08333333333334,11.25,347.9166666666667,26.625,600,16C852.0833333333333,5.375,950,-52.875,1200,-41C1450,-29.125,1550,75.5,1800,73C2050,70.5,2222.9166666666665,-121.125,2400,-53C2577.0833333333335,15.125,3254.1666666666665,201.45833333333331,2650,400C2045.8333333333335,598.5416666666667,156.25,795.8333333333334,-500,900" transform="matrix(1,0,0,1,0,222)" opacity="1.00"></path></g></svg>