<svg xmlns="http://www.w3.org/2000/svg" version="1.1" xmlns:xlink="http://www.w3.org/1999/xlink" xmlns:svgjs="http://svgjs.dev/svgjs" viewBox="0 0 800 800"><defs><filter id="uuunion-blur" x="-100%" y="-100%" width="400%" height="400%" color-interpolation-filters="sRGB">
        <feGaussianBlur in="SourceGraphic" stdDeviation="0 0" result="blur"></feGaussianBlur>
        <feDropShadow stdDeviation="24.615384615384617" in="blur" dx="20" dy="20" flood-color="#000000" flood-opacity="0.36" x="0%" y="0%" width="100%" height="100%"></feDropShadow>
      </filter><filter id="uuunion-blur2" x="-100%" y="-100%" width="400%" height="400%" color-interpolation-filters="sRGB">
        <feGaussianBlur in="SourceGraphic" stdDeviation="0 0" result="blur"></feGaussianBlur>
        <feDropShadow stdDeviation="24.615384615384617" in="blur" dx="-20" dy="-20" flood-color="#000000" flood-opacity="0.36" x="0%" y="0%" width="100%" height="100%"></feDropShadow>
      </filter><linearGradient gradientTransform="rotate(0, 0.5, 0.5)" x1="50%" y1="0%" x2="50%" y2="100%" id="uuunion-grad"><stop stop-color="#f00000" offset="10%"></stop><stop stop-color="#000000" offset="90%"></stop></linearGradient><linearGradient gradientTransform="rotate(0, 0.5, 0.5)" x1="50%" y1="0%" x2="50%" y2="100%" id="uuunion-grad2"><stop stop-color="#f00000" offset="25%"></stop><stop stop-color="#000000" offset="100%"></stop></linearGradient><linearGradient gradientTransform="rotate(333, 0.5, 0.5)" x1="50%" y1="0%" x2="50%" y2="100%" id="uuunion-grad3"><stop stop-color="#f00000" offset="0%"></stop><stop stop-color="#000000" offset="75%"></stop></linearGradient></defs><path d="M-79.04 -79.73Q-64.33 -77.38 -49.62 -75.25 -34.91 -73.51 -20.2 -72.3 -5.5 -71.73 9.2 -71.85 23.91 -72.64 38.62 -74.03 53.33 -75.92 68.04 -78.15 82.74 -80.52 97.45 -82.86 112.16 -84.96 126.87 -86.64 141.58 -87.78 156.28 -88.28 170.99 -88.09 185.7 -87.23 200.41 -85.77 215.12 -83.84 229.83 -81.59 244.53 -79.21 259.24 -76.89 273.95 -74.83 288.66 -73.19 303.37 -72.12 318.08 -71.7 332.78 -71.96 347.49 -72.89 362.2 -74.41 376.91 -76.38 391.62 -78.66 406.32 -81.04 421.03 -83.34 435.74 -85.37 450.45 -86.94 465.16 -87.95 479.87 -88.29 494.57 -87.96 509.28 -86.96 523.99 -85.39 538.7 -83.37 553.41 -81.07 568.12 -78.69 582.82 -76.41 597.53 -74.43 612.24 -72.91 626.95 -71.97 641.66 -71.7 656.36 -72.11 671.07 -73.18 685.78 -74.8 700.49 -76.86 715.2 -79.18 729.91 -81.56 744.61 -83.81 759.32 -85.75 774.03 -87.22 788.74 -88.08 803.45 -88.28 818.16 -87.79 832.86 -86.66 847.57 -84.98 862.28 -82.89 853.48 -68 850.4 -53.11 853.7 -38.22 862.68 -23.33 875.39 -8.44 889.1 6.44 900.84 21.33 908.08 36.22 909.27 51.11 904.14 65.99 893.8 80.88 880.49 95.77 867.06 110.66 856.43 125.55 850.88 140.44 851.61 155.33 858.47 170.22 869.97 185.11 883.63 200 896.51 214.88 905.82 229.77 909.57 244.66 906.93 259.55 898.49 274.44 886.05 289.33 872.31 304.22 860.22 319.11 852.4 334 850.54 348.89 855.03 363.77 864.9 378.66 878.03 393.55 891.59 408.44 902.64 423.33 908.81 438.22 908.76 453.11 902.51 468 891.4 482.89 877.83 497.78 864.72 512.66 854.92 527.55 850.52 542.44 852.48 557.33 860.38 572.22 872.51 587.11 886.25 602 898.65 616.89 907.02 631.78 909.56 646.67 905.72 661.55 896.34 676.44 883.43 691.33 869.77 706.22 858.33 721.11 851.55 736 850.92 750.89 856.55 765.78 867.25 780.67 880.69 795.56 893.98 810.44 904.26 825.33 909.3 840.22 908.02 855.11 900.69 870 885.35 862.76 870.01 856.94 854.67 853.03 839.33 851.35 823.99 852.03 808.65 855.03 793.31 860.08 777.97 866.79 762.62 874.58 747.28 882.82 731.94 890.83 716.6 897.94 701.26 903.57 685.92 907.25 670.58 908.68 655.24 907.74 639.9 904.51 624.56 899.25 609.22 892.39 593.87 884.52 578.53 876.27 563.19 868.33 547.85 861.35 532.51 855.91 517.17 852.47 501.83 851.3 486.49 852.49 471.15 855.97 455.81 861.42 440.47 868.42 425.13 876.37 409.78 884.61 394.44 892.48 379.1 899.32 363.76 904.56 348.42 907.76 333.08 908.68 317.74 907.22 302.4 903.52 287.06 897.87 271.72 890.74 256.38 882.73 241.03 874.49 225.69 866.7 210.35 860.01 195.01 854.98 179.67 852.01 164.33 851.35 148.99 853.07 133.65 857 118.31 862.84 102.97 870.09 87.63 878.16 72.29 886.39 56.94 894.08 41.6 900.61 26.26 905.44 10.92 908.17 -4.41 908.56 -19.75 906.6 -35.09 902.44 -50.43 896.42 -65.77 889.04 -81.11 880.92 -81.51 865.91 -81.58 850.9 -81.31 835.89 -80.75 820.88 -80.03 805.87 -79.31 790.86 -78.73 775.85 -78.42 760.84 -78.46 745.83 -78.82 730.82 -79.44 715.81 -80.18 700.8 -80.88 685.79 -81.39 670.78 -81.59 655.77 -81.46 640.76 -81 625.75 -80.33 610.74 -79.59 595.73 -78.93 580.72 -78.51 565.71 -78.4 550.7 -78.64 535.69 -79.17 520.68 -79.88 505.67 -80.61 490.65 -81.21 475.64 -81.55 460.63 -81.55 445.62 -81.22 430.61 -80.62 415.6 -79.89 400.59 -79.18 385.58 -78.65 370.57 -78.4 355.56 -78.5 340.55 -78.93 325.54 -79.58 310.53 -80.32 295.52 -80.99 280.51 -81.45 265.5 -81.59 250.49 -81.39 235.48 -80.89 220.47 -80.19 205.46 -79.45 190.45 -78.83 175.44 -78.46 160.43 -78.42 145.42 -78.72 130.41 -79.3 115.4 -80.02 100.39 -80.74 85.38 -81.3 70.37 -81.58 55.36 -81.51 40.35 -81.12 25.34 -80.49 10.33 -79.75 -4.68 -79.06 -19.69 -78.57 -34.7 -78.4 -49.71 -78.56 -64.72 -79.04 -79.73" fill="url(#uuunion-grad)"></path><path d="M-79.04 -79.73Q-78.56 -64.72 -78.4 -49.71 -78.57 -34.7 -79.06 -19.69 -79.75 -4.68 -80.49 10.33 -81.12 25.34 -81.51 40.35 -81.58 55.36 -81.3 70.37 -80.74 85.38 -80.02 100.39 -79.3 115.4 -78.72 130.41 -78.42 145.42 -78.46 160.43 -78.83 175.44 -79.45 190.45 -80.19 205.46 -80.89 220.47 -81.39 235.48 -81.59 250.49 -81.45 265.5 -80.99 280.51 -80.32 295.52 -79.58 310.53 -78.93 325.54 -78.5 340.55 -78.4 355.56 -78.65 370.57 -79.18 385.58 -79.89 400.59 -69.91 404.12 -59.93 407.49 -49.95 410.58 -39.98 413.29 -30 415.5 -20.02 417.14 -1.31 418.4 1.91 418.48 14.07 411.41 26.1 403.34 38.01 394.4 49.85 384.74 61.66 374.59 73.49 364.15 85.4 353.69 97.44 343.43 109.64 333.61 122.06 324.42 134.73 316.02 147.65 308.52 160.84 301.97 174.3 296.39 187.98 291.71 201.86 287.83 215.88 284.6 229.99 281.85 244.1 279.36 258.13 276.92 272.02 274.3 285.68 271.31 299.03 267.76 312.02 263.51 324.59 258.45 336.71 252.54 348.36 245.77 359.55 238.18 370.31 229.86 380.68 220.95 390.72 211.61 400.52 202.02 410.19 192.37 419.82 182.87 429.55 173.69 439.48 165 449.74 156.92 460.43 149.55 471.65 142.93 483.47 137.08 495.96 131.96 509.13 127.48 523 123.54 537.53 119.99 552.68 116.66 568.35 113.4 584.45 110.02 600.83 106.36 617.36 102.28 633.88 97.67 650.21 92.45 666.21 86.57 681.72 80.02 696.6 72.84 710.72 65.09 724 56.87 736.38 48.31 747.82 39.55 758.34 30.73 767.99 22 776.85 13.51 785.03 5.36 792.69 -2.31 800 -9.48 785.95 -26.62 776.01 -43.77 773.06 -60.92 777.97 -78.07 789.3 -95.21 803.75 -112.36 813.61 -137.63 794.75 -144.38 779.38 -142.65 764.02 -140.7 748.66 -138.7 733.29 -136.8 717.93 -135.16 702.57 -133.92 687.2 -133.17 671.84 -132.98 656.48 -133.36 641.11 -134.28 625.75 -135.67 610.39 -137.42 595.02 -139.37 579.66 -141.37 564.3 -143.26 548.93 -144.89 533.57 -146.11 518.2 -146.84 502.84 -147.01 487.48 -146.6 472.11 -145.66 456.75 -144.25 441.39 -142.5 426.02 -140.54 410.66 -138.54 395.3 -136.65 379.93 -135.04 364.57 -133.84 349.21 -133.13 333.84 -132.99 318.48 -133.42 303.12 -134.38 287.75 -135.8 272.39 -137.57 257.03 -139.53 241.66 -141.53 226.3 -143.41 210.94 -145.01 195.57 -146.19 180.21 -146.88 164.85 -147 149.48 -146.54 134.12 -145.56 118.76 -144.12 103.39 -142.34 88.03 -140.38 72.67 -138.38 57.3 -136.51 41.94 -134.93 26.58 -133.76 11.21 -133.1 -4.14 -133 -19.5 -133.48 -34.87 -134.48 -50.23 -135.94 -65.59 -137.72 -80.96 -139.7 -96.32 -141.69 -111.68 -143.55 -127.05 -145.12 -136.47 -132.96 -117.81 -114.81 -107.9 -106.25 -98.12 -97.53 -88.49 -88.68 -79.04 -79.73" fill="url(#uuunion-grad2)" filter="url(#uuunion-blur)"></path><path d="M798.2 382.45Q808.18 381.65 818.16 381.53 828.14 382.09 838.12 383.3 848.1 385.14 858.07 387.52 868.05 390.36 878.03 393.55 891.59 408.44 902.64 423.33 908.81 438.22 908.76 453.11 902.51 468 891.4 482.89 877.83 497.78 864.72 512.66 854.92 527.55 850.52 542.44 852.48 557.33 860.38 572.22 872.51 587.11 886.25 602 898.65 616.89 907.02 631.78 909.56 646.67 905.72 661.55 896.34 676.44 883.43 691.33 869.77 706.22 858.33 721.11 851.55 736 850.92 750.89 856.55 765.78 867.25 780.67 880.69 795.56 893.98 810.44 904.26 825.33 909.3 840.22 908.02 855.11 900.69 870 886.61 863.31 872.54 857.78 858.46 853.8 844.38 851.64 830.3 851.46 816.22 853.27 802.14 856.94 788.06 862.21 773.99 868.73 759.91 876.03 745.83 883.6 731.75 890.93 717.67 897.49 703.59 902.83 689.52 906.58 675.44 908.48 661.36 908.4 647.28 906.34 633.2 902.44 619.12 896.97 605.04 890.33 590.97 882.96 576.89 875.39 562.81 868.14 548.73 861.71 534.65 856.56 520.57 853.04 506.5 851.4 492.42 851.75 478.34 854.07 464.26 858.2 450.18 863.84 436.1 870.61 422.03 878.03 407.95 885.59 393.87 892.76 379.79 899.04 365.71 904 351.63 907.28 337.55 908.66 323.48 908.04 309.4 905.47 295.32 901.13 281.24 895.31 267.16 888.43 253.08 880.95 239.01 873.42 224.93 866.34 210.85 860.21 196.77 855.46 182.69 852.42 168.61 851.3 154.53 852.18 140.46 855 126.38 859.56 112.3 865.54 98.22 872.53 84.14 880.04 70.06 887.55 55.99 894.53 41.91 900.5 27.83 905.04 6.8 903.16 -0.04 888.26 -0.04 878.05 -0.13 867.84 -0.3 857.63 -0.54 847.41 -0.72 832.1 -0.13 827 12.04 819.84 24.09 811.2 36.03 801.22 47.92 790.14 59.78 778.24 71.68 765.85 83.66 753.33 95.78 741.05 108.07 729.33 120.59 718.5 133.35 708.8 146.37 700.42 159.65 693.48 173.18 687.98 186.93 683.88 200.86 681.04 214.92 679.25 229.03 678.24 243.13 677.71 257.13 677.31 270.96 676.72 284.54 675.61 297.8 673.69 310.68 670.73 323.14 666.54 335.15 661.03 346.7 654.16 357.79 645.98 368.47 636.63 378.78 626.28 388.79 615.2 398.6 603.66 408.31 591.97 418.02 580.44 427.86 569.38 437.94 559.06 448.39 549.7 459.29 541.46 470.74 534.45 482.82 528.7 495.56 524.16 508.99 520.72 523.1 518.21 537.86 516.39 553.2 515.02 569.03 513.79 585.24 512.43 601.69 510.65 618.24 508.2 634.72 504.88 650.96 500.53 666.82 495.04 682.15 488.4 696.8 480.64 710.67 471.87 723.68 462.23 735.78 451.94 746.95 441.23 757.21 430.37 766.63 419.63 775.3 409.25 783.34 399.48 794.56 386.47 798.2 382.45" fill="url(#uuunion-grad3)" filter="url(#uuunion-blur2)"></path></svg>