<svg xmlns="http://www.w3.org/2000/svg" version="1.1" xmlns:xlink="http://www.w3.org/1999/xlink" xmlns:svgjs="http://svgjs.dev/svgjs" viewBox="0 0 800 800"><defs><linearGradient x1="50%" y1="0%" x2="50%" y2="100%" id="wwwhirl-grad"><stop stop-color="#b80000ff" stop-opacity="1" offset="45%"></stop><stop stop-color="#b80000ff" stop-opacity="1" offset="100%"></stop></linearGradient></defs><g stroke-width="2" stroke="url(#wwwhirl-grad)" fill="none" stroke-linecap="round"><path d="M-1810.0002459526054 493.85330912984784C-1694.896074895063 448.53104177594065 -1487.7085669914868 228.39431462839087 -1257.5002248764022 276.3064258310929C-1027.2918827613175 324.21853703379486 -935.2085459152839 726.4212867516121 -705.0002038001992 723.8314429028175C-474.7918616851143 721.2415990540228 -382.7085248390806 271.64470690326243 -152.50018272399598 263.8751753568783C77.70815939108888 256.10564381049414 169.79149623712328 694.3072230265578 399.99983835220746 686.5376914801737C630.2081804672921 678.7681599337897 722.2915173133256 242.12048702700278 952.4998594284102 226.58142393423458C1182.7082015434949 211.04236084146638 1274.7915383895288 650.7978463668069 1504.9998805046134 611.9501886348863C1735.2082226196985 573.1025309029658 1827.291559465732 9.034540635479587 2057.4999015808166 40.11266682101602C2287.7082436959017 71.19079300655244 2494.895751599478 610.9142510953684 2609.99992265702 761.1251943254612 " transform="rotate(0, 400, 400)"></path><path d="M-1754.7502464795105 491.5070147393092C-1642.5236796984068 447.31780406924963 -1440.51585949242 232.6844951003886 -1216.0627259302123 279.39880352302305C-991.6095923680049 326.1131119456575 -901.8283389431219 718.2607929205293 -677.3752053809144 715.7356951679545C-452.9220718187066 713.2105974153798 -363.140818393824 274.85362756838833 -138.68768483161625 267.27833431066387C85.76544873059129 259.7030410529394 175.5467021554748 686.9495807886013 399.99983571768234 679.3742875308769C624.4529692798897 671.7989942731524 714.2342227047725 246.06751318903525 938.6873562669798 230.91692667358623C1163.1404898291876 215.76634015813724 1252.92174325407 644.5279385453441 1477.3748768162782 606.6514722567216C1701.8280103784855 568.7750059680991 1791.6092638033683 18.808715457300124 2016.062397365576 49.10988848819814C2240.515530927784 79.41106151909615 2442.523351133771 605.6414331556917 2554.7499179148745 752.0971028050321 " transform="rotate(0, 400, 400)"></path><path d="M-1699.5002470064155 489.1606287960362C-1590.1512845017503 446.1044748098243 -1393.323151993353 236.974584019652 -1174.6252269840224 282.4910896622189C-955.9273019746921 328.00759530478587 -868.4481319709602 710.1002075367123 -649.7502069616298 707.6398558803573C-431.05228195229915 705.1795042240024 -343.5731119485672 278.06245668078 -124.87518693923653 270.6814017117151C93.82273807009415 263.30034674265016 181.30190807382633 679.5918469979107 399.9998330831568 672.2107920288458C618.6977580924868 664.8297370597809 706.176928096219 250.01444779833335 924.8748531055489 235.25233786020354C1143.5727781148798 220.49022792207373 1231.051948118612 638.2579391711472 1449.7498731279425 601.3526643258227C1668.4477981372734 564.4473894804983 1755.926968141005 28.582798726386272 1974.6248931503355 58.10701860264588C2193.3228181596664 87.63123847890549 2390.150950668064 600.3685236632808 2499.499913172729 743.0689197318688 " transform="rotate(0, 400, 400)"></path><path d="M-1644.250125463008 486.8143038879194C-1537.7787672347815 444.89120658555515 -1346.1303224239737 241.26473397407162 -1133.18760596752 285.58343683657097C-920.244889511067 329.90213969907035 -835.0678029284858 701.9396831880514 -622.1250864720323 699.5440776279163C-409.18237001557895 697.1484720677812 -324.0052834329979 281.2713468283278 -111.06256697654453 274.0845301479225C101.88014947990905 266.8977134675172 187.05723606249057 672.2341742423761 399.99995251894416 665.0473575619709C612.9426689753973 657.8605408815655 698.1197555579779 253.96144344278767 911.062472014431 239.58781008197707C1124.0051884708846 225.21417672116647 1209.1822750534657 631.9880008321064 1422.1249915099197 596.0539174300799C1635.0677079663728 560.1198340280534 1720.244794548954 38.35694303062867 1933.187511005407 67.10420975224987C2146.130227461861 95.85147647387107 2337.778672272669 595.0956752060259 2444.250030500896 734.0407976938617 " transform="rotate(0, 400, 400)"></path><path d="M-1589.0001183605186 484.4679789798025C-1485.4063644087305 443.67793836128607 -1298.937607295512 245.55488392849125 -1091.7500993919357 288.67578401092305C-884.5625914883597 331.7966840933549 -801.6875883269294 693.7791588393904 -594.5000804233532 691.4482993754751C-387.31257251977695 689.11743991156 -304.43756935834654 284.48023697587564 -97.25006145477005 277.4876585841299C109.93744644880644 270.4950801923842 192.81244961023663 664.8765014868416 399.99995751381266 657.883923095096C607.1874654173889 650.8913447033502 690.0624685788193 257.90843908724196 897.2499764823956 243.9232823037506C1104.4374843859719 229.9381255202592 1187.3124875474018 625.7180624930656 1394.4999954509785 590.7551705343371C1601.6875033545543 555.7922785756086 1684.5625065159852 48.13108733487108 1891.7500144195615 76.10140090185388C2098.9375223231377 104.07171446883666 2285.4062794363563 589.8228267487711 2389.0000333881444 725.0126756558545 " transform="rotate(0, 400, 400)"></path><path d="M-1533.7501188874237 482.12171510684203C-1433.0339692120742 442.4647311721732 -1251.7448997964452 249.8450949180671 -1050.312600445746 291.7681922204314C-848.8803010950469 333.6912895227956 -768.3073813547675 685.6186955258859 -566.8750820040684 683.3525821581904C-365.442782653369 681.086468790495 -284.8698629130897 287.6891881585797 -83.43756356239055 280.8908480554936C117.99473578830884 274.0925079524075 198.5676555285886 657.5188897664633 399.99995487928754 650.7205496633771C601.4322542299865 643.9222095602911 682.0051739702662 261.8554957668525 883.4374733209647 248.25881556068038C1084.8697726716641 234.6621353545082 1165.4426924119434 619.4481851891811 1366.8749917626428 585.4564846737507C1568.3072911133422 551.4647841583201 1648.8802108536215 57.90529267426973 1850.3125102043205 85.09865308661412C2051.7448095550203 112.29201349895848 2233.0338789706493 584.5500393266725 2333.7500286459986 715.9846146530036 " transform="rotate(0, 400, 400)"></path><path d="M-1478.5001194143288 479.77535968114705C-1380.661574015418 441.2514324303259 -1204.552192297378 254.1352143549086 -1008.8751014995562 294.86050887720535C-813.1980107017342 335.58580339950197 -734.9271743826055 677.4581406596468 -539.2500835847836 675.2567733881712C-343.5729927869613 673.0554061166957 -265.3021564678329 290.89804778854943 -69.62506567001083 284.29394597412295C126.05202512781125 277.68984415969646 204.32286144694012 650.1611864933506 399.99995224476197 643.5570846789241C595.677043042584 636.9529828644976 673.9478793617122 265.8024608937287 869.6249701595343 252.59425726487578C1065.3020609573564 239.3860536360228 1143.572897276485 613.1782163325622 1339.249988074307 580.1577072604298C1534.9270788721292 547.1371981882972 1613.1979151912578 67.67940646093402 1808.8750059890804 94.09581371863999C2004.5520967869024 120.51222097634594 2180.6614785049424 579.2771603518395 2278.5000239038527 706.9564620974184 " transform="rotate(0, 400, 400)"></path><path d="M-1423.250119941234 477.4290042554521C-1328.2891788187615 440.03813368847864 -1157.359484798311 258.42533379175006 -967.4376025533663 297.95282553397925C-777.5157203084215 337.48031727620844 -701.5469674104437 669.2975857934077 -511.62508516549883 667.160964618152C-321.70320292055385 665.0243434428965 -245.73445002257608 294.1069074185191 -55.8125677776311 287.6970438927523C134.10931446731388 281.28718036698535 210.07806736529187 642.8034832202378 399.9999496102366 636.393619694471C589.9218318551816 629.9837561687041 665.8905847531591 269.7494260206049 855.8124669981039 256.9296989690712C1045.7343492430487 244.1099719175374 1121.7031021410266 606.9082474759432 1311.6249843859719 574.8589298471088C1501.5468666309166 542.8096122182744 1577.5156195288946 77.4535202475983 1767.4375017738394 103.09297435066586C1957.359384018784 128.7324284537334 2128.289078039235 574.0042813770067 2223.2500191617073 697.9283095418331 " transform="rotate(0, 400, 400)"></path><path d="M-1367.9999983978264 475.08258779460095C-1275.9166615517927 438.82477391147523 -1110.1666552289316 262.7153921934354 -925.999981536864 301.045081155597C-741.8333078447962 339.3747701177586 -668.1666383679693 661.1369698920124 -483.99996467590154 659.0650948129767C-299.83329098383365 656.993219733941 -226.16662150700677 297.3157060133326 -41.99994781493888 291.1000807762253C142.166725877129 284.884455539118 215.83339535395635 635.4457189119689 400.00006904602355 629.2300936748617C584.1667427380912 623.0144684377544 657.8334122149181 273.696330112325 842.000085906986 261.26507963811036C1026.1667595990539 248.83382916389579 1099.8334290758808 600.6382175841682 1284.0001027679486 569.5600913986318C1468.1667764600165 538.4819652130952 1541.8334459368434 87.22757299910633 1726.0001196289118 112.09007394753547C1910.1667933209787 136.9525748959646 2075.9167996438405 568.7313413670175 2168.000136489874 688.9000959510917 " transform="rotate(0, 400, 400)"></path><path d="M-1312.7499989247317 472.7363544392186C-1223.5442663551362 437.61159723994047 -1062.973947729865 267.0056337005894 -884.5624825906741 304.1375198826834C-706.1510174514835 341.2694060647775 -634.7864313958074 652.976537096086 -456.37496625661686 650.96940811327C-277.9635011174262 648.9622791304541 -206.59891506174995 300.5246877136148 -28.187449922559153 294.5033007651671C150.22401521663141 288.48191381671944 221.58860127230787 628.0881377091688 400.00006641149844 622.0667507607211C578.411531550689 616.0453638122734 649.776117606365 277.6434173095136 828.1875827455556 265.60064341261824C1006.5990478847461 253.55786951572287 1077.9636339404224 594.3683707978618 1256.375099079613 564.2614360556233C1434.786564218804 534.1545013133849 1506.1511502744797 97.0018088560831 1684.5626154136708 121.08735664987384C1862.9740805528613 145.17290444366458 2023.544399178133 563.458584462497 2112.750131747728 679.8720654658189 " transform="rotate(0, 400, 400)"></path><path d="M-1257.4999994516368 470.38996849594554C-1171.17187115848 436.3982679805151 -1015.7812402307978 271.29572261985277 -843.1249836444842 307.2298060218792C-670.4687270581709 343.16388942390574 -601.4062244236455 644.8159517122688 -428.74996783733206 642.8735688256727C-256.09371125101825 640.9311859390767 -187.03120861649313 303.7335168260064 -14.37495203017943 297.9063681662183C158.28130455613405 292.0792195064302 227.34380719065962 620.730403918478 400.0000637769731 614.9032552586899C572.6563203632863 609.0761065989018 641.7188229978115 281.5903519188117 814.3750795841252 269.9360545992355C987.0313361704384 258.28175727965936 1056.0938388049635 588.0983714236647 1228.7500953912777 558.9626281247243C1401.406351977591 529.826884825784 1470.468854612116 106.77589212516926 1643.1251111984302 130.08448676432158C1815.7813677847435 153.3930814034739 1971.171998712426 558.185674970086 2057.5001270055827 670.8438823926555 " transform="rotate(0, 400, 400)"></path><path d="M-1202.2499999785418 468.04370462298493C-1118.7994759618236 435.1850607914022 -968.5885327317309 275.5859336094286 -801.6874846982944 310.32221423138753C-634.7864366648581 345.0584948533465 -568.0260174514837 636.6554883987641 -401.12496941804727 634.7778516083879C-234.22392138461055 632.9002148180118 -167.4635021712363 306.9424680087105 -0.5624541377999321 301.309557637582C166.33859389563668 295.67664726645353 233.09901310901137 613.3727921980997 400.0000611424475 607.7398818269712C566.9011091758839 602.1069714558428 633.6615283892584 285.53740859842225 800.5625764226943 274.2715878561653C967.4636244561311 263.00576711390835 1034.2240436695051 581.8284941197802 1201.125091702942 553.6639422641377C1368.0261397363784 525.4993904084954 1434.7865589497528 116.55009746456791 1601.6876069831892 139.08173894908182C1768.5886550166256 161.61338043359575 1918.7995982467191 552.9128875479873 2002.2501222634369 661.8158213898046 " transform="rotate(0, 400, 400)"></path><path d="M-1147.000000505447 465.6973186797118C-1066.4270807651671 433.97173153197684 -921.3958252326639 279.876022528692 -760.2499857521045 313.41450037058337C-599.1041462715453 346.95297821247476 -534.6458104793218 628.4949030149469 -373.4999709987626 626.6820123207906C-212.3541315182032 624.8691216266343 -147.8957957259795 310.15129712110206 13.250043754579792 304.7126250386332C174.3958832351393 299.2739529561643 238.85421902736311 606.0150584074088 400.0000585079224 600.5763863249399C561.1458979884812 595.137714242471 625.604233780705 289.4843432077203 786.7500732612639 278.6069990427826C947.8959127418234 267.72965487784484 1012.3542485340467 575.5584947455832 1173.5000880146067 548.3651343332388C1334.6459274951658 521.1717739208943 1399.1042632873891 126.32418073365407 1560.2501027679486 148.07886906352957C1721.3959422485082 169.83355739340507 1866.4271977810117 547.6399780555763 1947.000117521291 652.7876383166412 " transform="rotate(0, 400, 400)"></path><path d="M-1091.750001032352 463.3509479952279C-1014.0546855685109 432.7584175313405 -874.203117733597 284.1661267067444 -718.8124868059148 316.50680176856827C-563.4218558782326 348.8474768303921 -501.2656035071599 620.3343328899189 -345.8749725794778 618.5861882919824C-190.4843416517955 616.838043694046 -128.3280892807229 313.36014149228265 27.062541646959517 308.11570769847344C182.4531725746417 302.8712739046641 244.60942494571464 598.6573398755071 400.00005587339683 593.4129060816979C555.3906868010788 588.1684722878886 617.5469391721515 293.4312930758075 772.9375700998335 282.9424254881889C928.3282010275157 272.4535579005704 990.4844533985884 569.2885106301751 1145.8750843262706 543.0663416611288C1301.2657152539532 516.8441726920825 1363.421967625026 136.09827926152929 1518.812598552708 157.07601443676637C1674.2032294803903 178.05374961200346 1814.0547973153048 542.3670838219543 1891.7501127791452 643.7594705022668 " transform="rotate(0, 400, 400)"></path><path d="M-1036.500001559257 461.00463834590016C-961.6822903718545 431.54516456586043 -827.01041023453 288.45629191995306 -677.3749878597249 319.5991642017094C-527.7395654849199 350.7420364834657 -467.885396534998 612.1738238000469 -318.249974160193 610.4904252983304C-168.6145517853879 608.8070267966139 -108.76038283546598 316.5690468986196 40.87503953933924 311.51885139346996C190.51046191414434 306.46865588832026 250.36463086406638 591.2996823787616 400.00005323887126 586.249486873612C549.6354756136761 581.1992913684624 609.4896445635982 297.3783039790509 759.1250669384033 287.27791296875154C908.7604893132082 277.1775219584522 968.61465826313 563.0185875499235 1118.2500806379353 537.7676100241752C1267.8855030127402 512.5166324984268 1327.7396719626622 145.87243882456076 1477.3750943374675 166.07322084515943C1627.0105167122724 186.27400286575812 1761.6823968495974 537.0942506234885 1836.5001080369998 634.7313637230488 " transform="rotate(0, 400, 400)"></path><path d="M-981.2500020861621 458.65825240262706C-909.3098951751981 430.33183530643504 -779.8177027354631 292.74638083921644 -635.9374889135352 322.6914503409052C-492.05727509160715 352.636519842594 -434.5051895628361 604.0132384162298 -290.6249757409082 602.3945860107331C-146.7447619189802 600.7759336052364 -89.19267639020916 319.77787601101113 54.68753743171874 314.9219187945211C198.56775125364697 310.0659615780311 256.11983678241813 583.9419485880708 400.00005060434614 579.0859913715808C543.8802644262739 574.2300341550906 601.4323499550449 301.3252385883489 745.3125637769724 291.6133241553688C889.1927775989006 281.9014097223886 946.7448631276718 556.7485881757264 1090.6250769495996 532.468802093276C1234.5052907715276 508.18901601082575 1292.0573763002985 155.64652209364692 1435.9375901222265 175.0703509596072C1579.817803944155 194.49417982556744 1709.3099963838904 531.8213411310775 1781.250103294854 625.7031806498853 " transform="rotate(0, 400, 400)"></path><path d="M-926.0000026130672 456.31198852966656C-856.9374999785417 429.1186281173222 -732.624995236396 297.0365918287923 -594.4999899673453 325.7838585504136C-456.3749846982944 354.5311252720347 -401.1249825906742 595.8527751027252 -262.9999773216234 594.2988687934483C-124.8749720525725 592.7449624841715 -69.62496994495234 322.98682719371527 68.50003532409846 318.3251082658848C206.6250405931496 313.66338933805434 261.8750427007699 576.5843368676925 400.00004796982057 571.922617939862C538.1250532388713 567.2608990120316 593.3750553464915 305.2722952679595 731.5000606155422 295.9488574122986C869.6250658845929 286.62541955663767 924.8750679922134 550.4787108718419 1063.0000732612643 527.1701162326897C1201.125078530315 503.8615215935373 1256.3750806379353 165.42072743304556 1394.500085906986 184.0676031443674C1532.6250911760371 202.7144788556893 1656.937595918183 526.548553708979 1726.000098552708 616.6751196470345 " transform="rotate(0, 400, 400)"></path><path d="M-870.7500031399723 453.9655720688154C-804.5651047818853 427.9052683403187 -685.432287737329 301.3266502304776 -553.0624910211554 328.87611417203124C-420.6926943049817 356.4255781135849 -367.74477561851245 587.6921592013298 -235.37497890233863 586.2029989882728C-103.00518218616492 584.7138387752159 -50.05726349969552 326.19562578852873 82.31253321647819 321.72814514935783C214.682329932652 317.260664510187 267.63024861912163 569.2265725594236 400.0000453352952 564.7590919202528C532.3698420514688 560.2916112810819 585.3177607379382 309.21919935967946 717.6875574541118 300.2842380813377C850.0573541702854 291.349276802996 903.0052728567548 544.2086809800668 1035.3750695729289 521.8712777842125C1167.7448662891024 499.5338745883581 1220.6927849755716 175.1947801845536 1353.0625816917454 193.06470274123706C1485.4323784079193 210.9346252979205 1604.565195452476 521.2756136989897 1670.7500938105627 607.646906056293 " transform="rotate(0, 400, 400)"></path><path d="M-815.5000036668773 451.6193234546439C-752.1927095852291 426.6920764099949 -638.2395802382621 305.6168764788425 -511.6249920749656 331.96853764032863C-385.0104039116691 358.32019880181474 -334.36456864635045 579.5317111466143 -207.74998048305395 578.1072970297772C-81.13539231975722 576.6828829129402 -30.489557054438706 329.4045922300219 96.12503110885791 325.1313498795106C222.7396192721544 320.85810752899937 273.3854545374734 561.8689760978343 400.0000427007699 557.5957337473232C526.6146308640662 553.3224913968119 577.2604661293847 313.1662712980791 703.8750542926814 304.6197865970566C830.4896424559779 296.0733018960341 881.1354777212964 537.9388189349713 1007.7500658845929 516.572607182415C1134.3646540478896 495.20639542985873 1185.0104893132084 184.96900078274132 1311.6250774765049 202.06197018478633C1438.2396656398014 219.15493958683138 1552.1927949867686 516.0028415356802 1615.5000890684169 598.6188603122312 " transform="rotate(0, 400, 400)"></path><path d="M-760.2499965643879 449.27302906410523C-699.8203067591782 425.4788387033039 -591.0468651098006 309.90705695084023 -470.1874854993812 335.0609153322588C-349.3281058889618 360.21477371367735 -300.98435404479415 571.3712173155315 -180.12497443437462 570.0115492949142C-59.2655948239551 568.651881274297 -10.921842979787357 332.61351289514784 109.93753663063217 328.5345088332962C230.7969162410518 324.4555047714445 279.14066808521966 554.5113338598779 400.00004769563884 550.4323297980263C520.8594273060583 546.3533257361746 569.2031791502259 317.11329746011154 690.0625587606453 308.9552893364082C810.9219383710647 300.7972812127049 859.2656902152326 531.6689111135087 980.125069825652 511.27389080425036C1100.9844494360716 490.8788704949921 1149.3282012802392 194.74317560456183 1270.1875808906589 211.05919185196848C1391.0469605010785 227.3752080993751 1499.8204021504562 510.73002359600355 1560.2500919556655 589.5907687918022 " transform="rotate(0, 400, 400)"></path><path d="M-704.9999970912929 446.9266583796212C-647.4479115625218 424.26552470266756 -543.8541576107336 314.19716112889273 -428.7499865531914 338.1532167302437C-313.645815495649 362.1092723315947 -267.60414707263226 563.2106471905033 -152.49997601508983 561.9157252661059C-37.3958049575474 560.6208033417087 8.64586346546946 335.8223572663285 123.75003452301178 331.93759149313644C238.8542055805542 328.05282571994434 284.8958740035714 547.1536153279762 400.0000450611135 543.2688495547841C515.1042161186558 539.3840837815922 561.1458845416726 321.06024732819867 676.2500555992149 313.2907157818146C791.3542266567572 305.52118423543044 837.3958950797742 525.3989269981007 952.5000661373165 505.97509813214043C1067.604237194859 486.55126926618016 1113.6459056178758 204.51727413243705 1228.750076675418 220.05633722520528C1343.8542477329606 235.59540031797349 1447.4480016847488 505.45712936238147 1505.0000872135197 580.5626009774278 " transform="rotate(0, 400, 400)"></path><path d="M-649.749997618198 444.5803487302935C-595.0755163658654 423.05227173718754 -496.66145011166674 318.48732634210137 -387.3124876070015 341.24557916338483C-277.9635251023363 364.0038319846683 -234.22394010047032 555.0501381006316 -124.87497759580515 553.8199622724541C-15.526015091139811 552.5897864442766 28.213569910726164 339.0312626726654 137.5625324153915 335.34073518813295C246.91149492005684 331.6502077036005 290.6510799219229 539.7959578312307 400.00004242658815 536.1054303466983C509.34900493125315 532.4149028621658 553.0885899331192 325.00725823144205 662.4375524377842 317.62620326237715C771.7865149424497 310.24514829331224 815.5260999443158 519.129003917849 924.875062448981 500.67636649518676C1034.2240249536464 482.2237290725245 1077.9636099555123 214.29143369546853 1187.3125724601775 229.05354363359834C1296.661534964843 243.81565357172815 1395.0756012190418 500.1842961639158 1449.7500824713743 571.5344941982098 " transform="rotate(0, 400, 400)"></path><path d="M-594.4999981451031 442.2339627870204C-542.703121169209 421.8389424777622 -449.4687426125998 322.77741526136475 -345.87498866081165 344.33786530258067C-242.28123470902358 365.8983153437966 -200.84373312830843 546.8895527168144 -97.24997917652036 545.7241229848566C6.343774775267775 544.5586932528992 47.78127635598298 342.24009178505696 151.37503030777123 338.7438025891841C254.96878425955947 335.24751339331124 296.40628584027456 532.4382240405399 400.0000397920626 528.9419348446671C503.5937937438507 525.4456456487942 545.0312953245659 328.9541928407401 648.625049276354 321.96161444899445C752.2188032281422 314.96903605724873 793.6563048088572 512.859004543652 897.2500587606455 495.3775585642877C1000.8438127124334 477.89611258492346 1042.2813142931489 224.0655169645547 1145.875068244937 238.05067374804608C1249.4688221967251 252.03583053153747 1342.7032007533344 494.9113866715047 1394.5000777292285 562.5063111250464 " transform="rotate(0, 400, 400)"></path><path d="M-539.2499986720081 439.88769891405985C-490.33072597255267 420.62573528864925 -402.27603511353277 327.06762625094063 -304.43748971462185 347.430273512089C-206.59894431571087 367.7929207732373 -167.4635261561465 538.7290894033097 -69.62498075723556 537.6284057675718C28.21356464167559 536.5277221318343 67.3489828012398 345.44904296776105 165.18752820015084 342.1469920605478C263.0260735990619 338.84494115333456 302.1614917586263 525.0806123201617 400.00003715753724 521.7785614129484C497.8385825564483 518.4765105057352 536.9740007160124 332.9012495203507 634.8125461149234 326.2971477059242C732.6510915138344 319.6930458914977 771.7865096733988 506.58912723976744 869.6250550723098 490.0788727037012C967.4636004712208 473.56861816763495 1006.5990186307852 233.83972230395335 1104.4375640296964 247.04792593280632C1202.2761094286075 260.2561295616593 1290.3308002876274 489.63859924940607 1339.2500729870826 553.4782501221955 " transform="rotate(0, 400, 400)"></path><path d="M-483.99999919891326 437.5413129707868C-437.95833077589634 419.4124060292239 -355.0833276144658 331.357715170204 -262.999990768432 350.52255965128484C-170.9166539223981 369.6874041323656 -134.08331918398466 530.5685040194926 -41.99998233795077 529.5325664799747C50.083354508083175 528.4966289404568 86.91668924649662 348.65787208015263 179.00002609253056 345.55005946159895C271.0833629385645 342.4422468430453 307.9166976769782 517.7228785294708 400.0000345230118 514.6150659109171C492.0833713690456 511.50725329236354 528.916706107459 336.8481841296488 621.000042953493 330.6325588925415C713.0833797995269 324.4169336554342 749.9167145379404 500.3191278655704 842.0000513839743 484.78006477280223C934.0833882300083 469.24100168003395 970.9167229684217 243.61380557303949 1063.0000598144559 256.0450560472541C1155.0833966604894 268.47630652146864 1237.9583998219202 484.3656897569951 1284.000068244937 544.4500670490322 " transform="rotate(0, 400, 400)"></path><path d="M-428.7499997258183 435.19498806267006C-385.58593557923996 418.19913780495483 -307.8906201153989 335.64786512462365 -221.56249182224212 353.61490682563687C-135.23436352908544 371.58194852665014 -100.70311221182277 522.4079796708317 -14.374983918666032 521.4367882275336C71.95314437449088 520.4655967842357 106.48439569175343 351.86676222770046 192.81252398491029 348.9531878978064C279.140652278067 346.0396135679124 313.6719035953298 510.3652057739363 400.00003188848655 507.4516314440422C486.32816018164317 504.53805711414816 520.8594114989057 340.7951797741031 607.1875397920626 334.968031114315C693.5156680852192 329.14088245452695 728.0469194024818 494.04918952652963 814.3750476956388 479.48131787705944C900.7031759887955 464.91344622758925 935.234427306058 253.3879498772819 1021.5625555992151 265.04224719685806C1107.8906838923717 276.6965445164342 1185.585999356213 479.09284129974026 1228.7500635027914 535.421945011025 " transform="rotate(0, 400, 400)"></path><path d="M-373.50000025272345 432.8486707839477C-333.2135403825836 416.9858772100802 -260.69791261633196 339.93802270843776 -180.12499287605226 356.7072616293835C-99.55207313577267 373.4765005503292 -67.32290523966088 514.2474629515652 13.250014500618704 513.3410176044871C93.82293424089835 512.434572257409 126.05210213701025 355.0756600046428 206.6250218772899 352.3563239634084C287.19794161756965 349.63698792217394 319.42710951368156 503.0075406477962 400.0000292539612 500.28820460656175C480.5729489942406 497.5688685653273 512.8021168903525 344.7421830479519 593.3750366306319 339.3035109654831C673.9479563709117 333.8648388830142 706.1771242670234 487.7792588168834 786.7500440073034 474.1825786107112C867.3229637475829 460.58589840453897 899.5521316436946 263.16210181091884 980.1250513839743 274.03944597585655C1060.697971124254 284.9167901407943 1133.2135988905059 473.82000047187995 1173.5000587606455 526.3938306024124 " transform="rotate(0, 400, 400)"></path><path d="M-318.2500007796285 430.50230009946375C-280.84114518592725 415.7725632094439 -213.505205117265 344.2281268864902 -138.68749392986246 359.7995630273684C-63.86978274245996 375.3709991682465 -33.942698267499 506.0868928265371 40.8750129199035 505.24519357567885C115.69272410730605 504.4034943248206 145.61980858226707 358.2845043758235 220.43751976966962 355.75940662324865C295.2552309570722 353.2343088706738 325.1823154320332 495.6498221158945 400.00002661943563 493.1247243633197C474.81773780683807 490.59962661074485 504.7448222817991 348.6891329160391 579.5625334692016 343.6389374108894C654.3802446566042 338.58874190573977 684.307329131565 481.5092747014754 759.1250403189676 468.88378593860125C833.9427515063701 456.2582971757271 863.8698359813311 272.93620033879404 938.6875471687338 283.0365913490934C1013.5052583561362 293.13698235939273 1080.8411984247987 468.5471062382579 1118.2500540185 517.3656627880381 " transform="rotate(0, 400, 400)"></path><path d="M-263.0000013065336 428.155990450136C-228.46874998927086 414.55931024396386 -166.31249761819802 348.5182920996989 -97.24999498367262 362.8919254605095C-28.187492349147192 377.2655588213201 -0.5624912953371108 497.92638373666534 68.50001133918829 497.14943058202687C137.56251397371375 496.3724774273885 165.1875150275239 361.49340978216037 234.25001766204923 359.16255031824517C303.3125202965748 356.8316908543299 330.93752135038494 488.292164619149 400.0000239849103 485.96130515523373C469.06252661943563 483.6304456913185 496.68752767324577 352.6361438192825 565.7500303077711 347.97442489145203C634.8125329422965 343.31270596362157 662.4375339961067 475.2393516212237 731.5000366306322 463.5850543016476C800.5625392651575 451.9307569820714 828.1875403189676 282.71035990182554 897.250042953493 292.03379775748647C966.3125455880186 301.3572356131474 1028.4687979590915 463.2742730397922 1063.000049276354 508.33755600882 " transform="rotate(0, 400, 400)"></path><path d="M-207.75000183343866 425.80965028323016C-176.09635479261453 413.34602676090566 -119.11979011913107 352.80842679532947 -55.81249603748279 365.9842573760725C7.494798044165464 379.1600879568156 32.817715676824776 489.76584412921534 96.12500975847303 489.0536370707968C159.4323038401214 488.3414300123783 184.75522147278065 364.70228467091914 248.06251555442896 362.5656634956635C311.3698096360772 360.4290423204079 336.6927272687367 480.93447660482536 400.00002135038494 478.7978554295698C463.3073154320331 476.66123425431414 488.63023306469233 356.58312420494775 551.9375271463407 352.30988185443647C615.244821227989 348.03663950392524 640.5677388606482 468.96939802339386 703.8750329422965 458.2862921471157C767.1823270239447 447.60318627083757 792.5052446566042 292.48448894727886 855.8125387382524 301.03097364830137C919.1198328199007 309.5774583493239 976.0963974933843 458.0014093237483 1007.7500445342084 499.3094187120238 " transform="rotate(0, 400, 400)"></path><path d="M-152.50000236034373 423.46334063390236C-123.72395959595815 412.1327737954256 -71.92708262006411 357.09859200853816 -14.374997091292954 369.07661980921364C43.17708843747823 381.0546476098891 66.1979226489866 481.60533503934346 123.75000817775782 480.95787407714477C181.30209370652904 480.31041311494613 204.32292791803746 367.91119007725604 261.8750134468086 365.96880719066C319.42709897557984 364.026424304064 342.44793318708844 473.5768191080799 400.0000187158595 471.63443622148384C457.55210424463064 469.6920533348879 480.572938456139 360.53013510819113 538.1250239849102 356.6453693349991C595.6771095136813 352.76060356180705 618.6979437251898 462.69947494314215 676.250029253961 452.987560510162C733.8021147827322 443.2756460771819 756.8229489942406 302.2586485103103 814.3750345230119 310.02818005669445C871.927120051783 317.79771160307854 923.7239970276771 452.72857612528253 952.5000397920626 490.2813119328057 " transform="rotate(0, 400, 400)"></path><path d="M-97.25000288724881 421.11698520820744C-71.3515643993018 410.91947505357837 -24.734375120997157 361.38871144537967 27.062501854896908 372.1689364659876C78.85937883079094 382.9491614865956 99.57812962114849 473.44478017310445 151.37500659704256 472.8620653071256C203.17188357293662 472.27935044114685 223.89063436329423 371.12004970722575 275.68751133918835 369.3719051092893C327.48438831508247 367.6237605113529 348.20313910543996 466.2191158349672 400.000016081334 464.4709712370308C451.7968930572281 462.72282663909436 472.5156438475857 364.4771002350673 524.3125208234798 360.98081103919446C576.1093977993738 357.48452184332166 596.8281485897313 456.42950608652325 648.6250255656255 447.6887830968411C700.4219025415194 438.948060107159 721.1406533318772 312.0327622969746 772.9375303077712 319.0253406887203C824.7344072836653 326.017919080466 871.3515965619699 447.4556971504496 897.250035049917 481.25315937722047 " transform="rotate(0, 400, 400)"></path><path d="M-42.000003414153895 418.77066030009064C-18.979169202645437 409.7062068293092 22.458332378069827 365.67886139979925 68.50000080108674 375.2612836403397C114.54166922410369 384.84370588088007 132.95833659331038 465.28425582444356 179.00000501632735 464.7662870546846C225.04167343934432 464.2483182849257 243.45834080855104 374.3289398547736 289.500009231568 372.77503354549674C335.541677654585 371.22112723621996 353.9583450237918 458.86144307943266 400.0000134468087 457.3075367701558C446.04168186982554 455.75363046087904 464.45834923903226 368.42409587952164 510.50001766204923 365.316283260968C556.5416860850662 362.2084706424144 574.9583534542729 450.15956774748247 621.0000218772899 442.3900362010984C667.0416903003069 434.62050465471424 685.4583576695136 321.806906601217 731.5000260925307 328.0225318383243C777.5416945155474 334.23815707543156 818.9791960962629 442.18284869319484 842.0000303077712 472.2250373392134 " transform="rotate(0, 400, 400)"></path><path d="M13.250003688335553 416.4243315772766C33.393233623405465 408.4929347903428 69.65104750653128 369.9690075395216 109.93750737667114 378.3536269999945C150.22396724681093 386.73824646046734 166.33855119486682 457.12372766108535 206.62501106500662 456.6705049875463C246.91147093514644 456.2172823140072 263.0260548832024 377.53782618762415 303.3125147533422 376.1781581670069C343.5989746234821 374.8184901463897 359.71355857153804 451.50376650920083 400.00001844167787 450.1440984885836C440.2864783118175 448.7844304679664 456.40106225987347 372.3710877092787 496.68752213001324 369.65175166804426C536.9739820001531 366.9324156268098 553.088565948209 443.8896255937444 593.375025818349 437.0912854906583C633.6614856884887 430.2929453875722 649.7760696365445 331.5810470907621 690.0625295066844 337.019719173231C730.3489893768243 342.4583912556999 766.6068032599502 436.9099964212427 786.75003319502 463.19691148650895 " transform="rotate(0, 400, 400)"></path><path d="M68.50000316143047 414.0780028544625C85.76562882006183 407.27966275137646 116.84375500559827 374.259153679244 151.37500632286094 381.44597035964927C185.90625764012367 388.6327870400546 199.7187581670287 448.9631994977272 234.2500094842914 448.57472292040796C268.78126080155414 448.1862463430888 282.5937613284592 380.7467125204747 317.1250126457219 379.5812827885171C351.65626396298467 378.4158530565595 365.46876448988974 444.146089938969 400.0000158071524 442.9806602070114C434.5312671244151 441.8152304750538 448.34376765132015 376.31807953903575 482.8750189685828 373.98722007512055C517.4062702858455 371.6563606112053 531.2187708127506 437.6196834400064 565.7500221300133 431.7925347802183C600.281273447276 425.96538612043025 614.0937739741811 341.3551875803073 648.6250252914438 346.01690650813777C683.1562766087065 350.67862543596823 714.234402794243 431.63714414929063 731.5000284528743 454.16878563380453 " transform="rotate(0, 400, 400)"></path><path d="M123.7500026345254 411.73166268755665C138.1380240167182 406.06637926831826 164.03646250466522 378.54928837487455 192.8125052690508 384.5383022752123C221.58854803343638 390.52731617555 233.09896513919057 440.8026598902772 261.87500790357615 440.47892940917785C290.6510506679618 440.15519892807856 302.161467773716 383.9555874092335 330.9375105381016 382.98439596593545C359.7135533024872 382.01320452263747 371.2239704082415 436.7884019246454 400.000013172627 435.8172104813474C428.7760559370126 434.8460190380494 440.2864730427668 380.265059924701 469.06251580715235 378.322677038105C497.83855857153793 376.38029415150896 509.3489756772922 431.34972984217654 538.1250184416778 426.49377262568646C566.9010612060633 421.6378154091964 578.4114783118175 351.1293166257606 607.1875210762032 355.01408239895267C635.9635638405888 358.89884817214477 661.8620023285358 426.36428043324673 676.2500237107286 445.1406483370083 " transform="rotate(0, 400, 400)"></path><path d="M178.99998684883127 409.3853225206508C190.51040395458548 404.8530957852601 211.22915474494312 382.8394230705051 234.24998895645157 387.6306341907753C257.27082316796003 392.4218453110455 266.4791568525634 432.64212028282725 289.4999910640719 432.3831358979478C312.52082527558036 432.12415151306834 321.7291589601837 387.16446229799226 344.7499931716922 386.38750914335384C367.7708273832007 385.6105559887154 376.9791610678041 429.4307139103218 399.99999527931254 428.6537607556834C423.020829490821 427.87680760104496 432.22916317542433 384.2120403103663 455.2499973869328 382.6581340010895C478.2708315984413 381.10422769181264 487.47916528304467 425.0797762443467 510.49999949455315 421.19501047115466C533.5208337060617 417.3102446979626 542.729167390665 360.90344567121394 565.7500016021736 364.0112582897676C588.770835813682 367.11907090832125 609.4895866040397 421.0914167172029 621.0000037097939 436.11251104021215 " transform="rotate(0, 400, 400)"></path><path d="M234.25000158071524 407.038997612534C242.8828144100309 403.63982756099097 258.42187750279913 387.12957302492475 275.68750316143047 390.7229813651274C292.9531288200618 394.31638970533004 299.85937908351434 424.4815959341663 317.12500474214573 424.28735764550675C334.39063040077707 424.0931193568471 341.2968806642296 390.3733524455401 358.56250632286094 389.7906375795613C375.82813198149233 389.2079227135825 382.73438224494487 422.07304115478723 400.0000079035762 421.49032628880843C417.26563356220754 420.90761142282963 424.1718838256601 388.15903595482064 441.4375094842914 386.99360622286304C458.70313514292275 385.8281764909054 465.6093854063753 418.8098379053059 482.8750110650067 415.89626357541187C500.140636723638 412.98268924551786 507.04688698709055 370.6775899754564 524.3125126457219 373.0084494393716C541.5781383043533 375.33930890328685 557.1172013971216 415.81856825994805 565.7500142264371 427.084389002205 " transform="rotate(0, 400, 400)"></path><path d="M289.50000105381014 404.69266507502266C295.2552096066873 402.4265517073273 305.6145850018661 391.4197153499498 317.12500210762033 393.8153209100849C328.6354192133746 396.21092647022004 333.2395860556762 416.3210639561109 344.75000316143047 416.19157176367116C356.2604202671847 416.06207957123144 360.86458710948637 393.5822349636934 372.37500421524066 393.19375838637416C383.88542132099485 392.805281809055 388.4895881632966 414.7153607698582 400.0000052690508 414.32688419253896C411.510422374805 413.9384076152198 416.1145892171067 392.1060239698804 427.62500632286094 391.329070815242C439.1354234286152 390.5521176606036 443.7395902709169 412.5398919368706 455.2500073766711 410.5975090502746C466.7604244824254 408.6551261636786 471.36459132472703 380.45172665030424 482.87500843048133 382.0056329595811C494.3854255362355 383.5595392688579 504.7448009314144 410.5457121732987 510.50000948429147 418.0562593348033 " transform="rotate(0, 400, 400)"></path><path d="M344.75000052690507 402.34633444485996C347.6276048033436 401.2132777610123 352.80729250093304 395.70985958232353 358.56250105381014 396.9076623623911C364.3177096066873 398.1054651424586 366.6197930278381 408.16053388540405 372.3750015807152 408.0957877891842C378.13021013359236 408.0310416929643 380.4322935547432 396.79111938919533 386.18750210762033 396.5968811005357C391.9427106604974 396.40264281187615 394.2447940816483 407.35768229227773 400.0000026345254 407.1634440036181C405.7552111874025 406.9692057149585 408.0572946085533 396.05301389228885 413.81250316143047 395.6645373149696C419.5677117143076 395.2760607376504 421.86979513545845 406.26994787578394 427.62500368833554 405.2987564324859C433.3802122412127 404.3275649891879 435.6822956623635 390.2258652325008 441.43750421524066 391.0028183871392C447.19271276811776 391.77977154177756 452.3724004657072 405.272857993998 455.25000474214573 409.0281315747503 " transform="rotate(0, 400, 400)"></path></g></svg>