<svg xmlns="http://www.w3.org/2000/svg" version="1.1" xmlns:xlink="http://www.w3.org/1999/xlink" xmlns:svgjs="http://svgjs.dev/svgjs" viewBox="0 0 800 800" opacity="1"><defs><linearGradient x1="50%" y1="0%" x2="50%" y2="100%" id="wwwhirl-grad"><stop stop-color="hsla(0, 92%, 42%, 1.00)" stop-opacity="1" offset="45%"></stop><stop stop-color="hsla(0, 89%, 27%, 1.00)" stop-opacity="1" offset="100%"></stop></linearGradient></defs><g stroke-width="2" stroke="url(#wwwhirl-grad)" fill="none" stroke-linecap="round"><path d="M-474.9999361832937 466.92635648872516C-402.08327044381036 433.1112527520397 -329.166604704327 334.856045668086 -183.33327322536041 331.6659415419836C-37.4999417463938 328.4758374158812 -37.49994174639369 468.2023981391661 108.33338973257287 454.16593998431557C254.16672121153942 440.129481829465 254.16672121153942 257.65552581640804 400.0000526905061 275.52010892258147C545.833384169473 293.38469202875484 545.833384169473 520.5201058072454 691.6667156484393 525.6242724090092C837.5000471274059 530.728439010773 837.5000471274061 304.8690668827235 983.3333786063729 295.93677532963676C1129.1667100853392 287.00448377655005 1202.0833758248225 441.405523479906 1275.0000415643058 489.89510619666237 " transform="rotate(0, 400, 400)"></path><path d="M-412.49993638197583 462.1459438705293C-344.79160390959845 430.74620468646435 -277.0832714372211 339.50922667993586 -141.66660649246637 336.5469871342694C-6.2499415477116145 333.58474758860285 -6.249941547711501 463.330839688796 129.16672339704314 450.2969856878633C264.5833883417978 437.2631316869307 264.5833883417978 267.8230296748063 400.00005328655254 284.4115711305388C535.4167182313074 301.00011258627126 535.4167182313074 511.9115682377267 670.8333831760622 516.6511515107932C806.2500481208167 521.3907347838596 806.2500481208169 311.6641749506707 941.6667130655717 303.36990422280445C1077.0833780103262 295.07563349493824 1144.7917104827036 438.4480275051973 1212.500042955081 483.47406859932823 " transform="rotate(0, 400, 400)"></path><path d="M-349.99993658065796 457.36547021717735C-287.4999373753866 428.38109558573274 -224.99993817011512 344.1623466566295 -99.99993975957233 341.4279716913989C25.000058650970516 338.69359672616827 25.00005865097063 458.45922020326964 150.00005706151342 446.42797035625483C275.00005547205615 434.39672050924014 275.00005547205615 277.9904724980484 400.000053882599 293.3029723033399C525.0000522931418 308.6154721086314 525.0000522931418 503.3029696330518 650.0000507036848 507.67796957742087C775.0000491142275 512.0529695217898 775.0000491142275 318.45922198346165 900.0000475247705 310.8029720808159C1025.0000459353132 303.14672217817014 1087.5000451405845 435.4904704953324 1150.000044345856 477.05296996683785 " transform="rotate(0, 400, 400)"></path><path d="M-287.49993677934015 452.5850194520089C-230.20827084117468 426.0160093731847 -172.91660490300916 348.8154895215067 -58.333273026678285 346.308979136712C56.250058849652646 343.8024687519173 56.25005884965276 453.5876236059268 170.8333907259837 442.55897791282996C285.4167226023145 431.5303322197331 285.4167226023145 288.1579382094741 400.00005447864544 302.1943963643246C514.5833863549764 316.2308545191751 514.5833863549764 494.6943939165605 629.1667182313072 498.7048105322321C743.7500501076381 502.71522714790365 743.7500501076383 325.2542919044362 858.3333819839693 318.2360628270109C972.9167138603002 311.2178337495857 1030.2083797984653 432.532936373651 1087.500045736631 470.63189422253106 " transform="rotate(0, 400, 400)"></path><path d="M-224.99993697802228 447.8045686868405C-172.91660430696277 423.65092316063664 -120.83327163590323 353.46863238638394 -16.666606293784184 351.18998658202514C87.50005904833483 348.9113407776663 87.50005904833489 448.71602700858404 191.66672439045396 438.6899854694051C295.83338973257287 428.66394393022614 295.83338973257287 298.3254039208997 400.0000550746919 311.0858204253093C504.1667204168109 323.8462369297189 504.1667204168109 486.08581820006924 608.3333857589299 489.73165148704345C712.5000511010489 493.3774847740176 712.5000511010489 332.04936182541076 816.6667164431681 325.66915357320596C920.833381785287 319.28894532100117 972.9167144563464 429.57540225196965 1025.0000471274059 464.21081847822427 " transform="rotate(0, 400, 400)"></path><path d="M-162.4999371767044 443.02408740409396C-115.62493777275085 421.2858064305105 -68.7499383687973 358.12174473368304 25.000060439109802 356.0709635097601C118.75005924701696 354.0201822858371 118.75005924701702 443.84439989366314 212.50005805492407 434.8209625084021C306.2500568628311 425.797525123141 306.2500568628311 308.49283911474726 400.00005567073833 319.9772139687159C493.75005447864555 331.46158882268446 493.75005447864555 477.4772119659998 587.5000532865525 480.75846192427656C681.2500520944596 484.0397118825533 681.2500520944599 338.84440122880716 775.0000509023669 333.10221380182287C868.750049710274 327.3600263748385 915.6250491142275 426.6178376127102 962.5000485181811 457.78971221633935 " transform="rotate(0, 400, 400)"></path><path d="M-99.99996789296469 438.24365571241185C-58.333301756117095 418.9207392914488 -16.66663561926947 362.77490667204665 66.66669665442578 360.9519900285595C150.00002892812097 359.12907338507245 150.00002892812103 438.9728223698067 233.33336120181622 430.95198913846355C316.66669347551147 422.93115590712034 316.66669347551147 318.6603238996592 400.00002574920654 328.8686571031869C483.33335802290185 339.07699030671455 483.33335802290185 468.86865532299487 566.666690296597 471.7853219525742C650.0000225702922 474.7019885821535 650.0000225702925 345.63949022326807 733.3333548439876 340.53532362150423C816.6666871176826 335.4311570197404 858.3333532545303 423.6603225645152 900.0000193913779 451.36865554551883 " transform="rotate(0, 400, 400)"></path><path d="M-37.49999860922496 433.46318968845435C-1.0416657394833067 416.55563782011166 35.41666713025836 367.4280342781348 108.33333286974164 365.8329822150836C181.24999860922497 364.2379301520324 181.24999860922503 434.10121051367486 254.1666643487083 427.0829814362496C327.0833300881916 420.0647523588243 327.0833300881916 328.8277743522958 399.99999582767487 337.76006590538253C472.91666156715837 346.69235745846925 472.91666156715837 460.2600643477145 545.8333273066415 462.8121476485964C618.7499930461248 465.36423094947827 618.7499930461249 352.43454488545353 691.6666587856083 347.9683991089102C764.5833245250915 343.5022533323668 801.0416573948331 420.70277318404476 837.4999902645748 444.947564542423 " transform="rotate(0, 400, 400)"></path><path d="M25.00000119209288 428.6827389232859C56.25000079472858 414.19055160756363 87.50000039736432 372.08117714301204 149.9999996026357 370.7139896603967C212.4999988079071 369.3468021777814 212.49999880790722 429.2296139163321 274.9999980131786 423.2139889928247C337.49999721844995 417.19836406931734 337.49999721844995 338.99524006372144 399.99999642372137 346.6514899663672C462.4999956289928 354.30773986901295 462.4999956289928 451.6514886312232 524.9999948342643 453.8389886034077C587.4999940395356 456.02648857559217 587.4999940395356 359.2296148064281 649.9999932448071 355.4014898551052C712.4999924500785 351.57336490378236 743.7499920527141 417.74523906236345 774.9999916553498 438.5264887981162 " transform="rotate(0, 400, 400)"></path><path d="M87.50000099341074 423.90228434342026C113.54166732894049 411.82546158031835 139.58333366447027 376.734316193192 191.66666633552978 375.59499329101254C243.7499990065893 374.45567038883314 243.7499990065893 424.358013504292 295.83333167764886 419.34499273470254C347.9166643487083 414.3319719651131 347.9166643487083 349.16270196044985 399.9999970197678 355.54291021265465C452.0833296908273 361.92311846485944 452.0833296908273 443.04290910003465 504.1666623618869 444.8658257435217C556.2499950329463 446.6887423870088 556.2499950329463 366.0246809127054 608.3333277040059 362.83457678660295C660.4166603750654 359.6444726605006 686.4583267105951 414.7877011259848 712.4999930461248 432.10540923911213 " transform="rotate(0, 400, 400)"></path><path d="M150.00000079472858 419.12182213416C170.8333338631524 409.46036392367847 191.6666669315762 381.38744761397743 233.33333306842383 380.47598929223386C274.9999992052714 379.56453097049035 274.9999992052715 419.4864054628574 316.666665342119 415.4759888471859C358.33333147896667 411.4655722315143 358.33333147896667 359.33015622778373 399.9999976158142 364.43432282954757C441.66666375266186 369.5384894313114 441.66666375266186 434.43432193945154 483.33332988950946 435.89265525424116C524.999996026357 437.35098856903085 524.9999960263572 372.8197393895881 566.6666621632048 370.2676560887062C608.3333283000522 367.71557278782427 629.1666613684761 411.83015556021167 649.9999944368999 425.68432205071355 " transform="rotate(0, 400, 400)"></path><path d="M212.50000059604645 414.3413675542943C228.1250003973643 407.0952738964332 243.75000019868216 386.0405866641574 274.99999980131787 385.3569929228497C306.24999940395355 384.6733991815421 306.2499994039536 414.6148050508174 337.4999990065893 411.60699258906374C368.749998609225 408.59918012731004 368.749998609225 369.4976181245121 399.99999821186066 373.32574307583496C431.2499978144964 377.15386802715784 431.2499978144964 425.82574240826295 462.49999741713214 426.9194923943552C493.7499970197678 428.0132423804474 493.7499970197678 379.6148054958654 524.9999966224036 377.70074302020396C556.2499962250392 375.78668054454255 571.874996026357 408.8726176238331 587.4999958276749 419.26324249170943 " transform="rotate(0, 400, 400)"></path><path d="M275.00000039736426 409.56091106708004C285.4166669315762 404.73018196183926 295.8333334657881 390.6937238069887 316.6666665342119 390.23799464611693C337.49999960263574 389.78226548524515 337.49999960263574 409.7432027314287 358.3333326710595 407.7379944235929C379.16666573948334 405.73278611575716 379.16666573948334 379.66507811389187 399.9999988079071 382.2171614147738C420.83333187633093 384.7692447156557 420.83333187633093 417.21716096972574 441.66666494475476 417.9463276271206C462.4999980131785 418.6754942845154 462.4999980131786 386.40986969479405 483.3333310816024 385.1338280443531C504.1666641500261 383.85778639391214 514.583330684238 405.91507778010583 524.99999721845 412.84216102535675 " transform="rotate(0, 400, 400)"></path><path d="M337.5000040133794 404.78045553354C342.70833728048535 402.3650909809196 347.9166705475913 395.34686190349436 358.3333370818032 395.11899732305847C368.7500036160151 394.8911327426226 368.75000361601514 404.87160136571435 379.166670150227 403.86899721179645C389.5833366844389 402.86639305787855 389.5833366844389 389.8325390569459 400.0000032186508 391.10858070738686C410.41666975286273 392.3846223578278 410.41666975286273 408.6085804848629 420.83333628707464 408.9731638135603C431.25000282128656 409.33774714225774 431.25000282128656 393.20493484739706 441.66666935549847 392.56691402217655C452.0833358897103 391.9288931969561 457.2916691568163 402.95753889005294 462.50000242392224 406.4210805126784 " transform="rotate(0, 400, 400)"></path></g></svg>