<svg width="95" height="47" viewBox="0 0 95 47" fill="none" xmlns="http://www.w3.org/2000/svg"><path d="M85.6019 44.229C85.1852 44.3676 84.8148 44.5985 84.3981 44.6909C81.8981 45.3836 79.3055 45.6607 76.7129 45.984C75.1852 46.1687 73.6574 46.3535 72.1296 46.5844C71.8056 46.6306 71.5278 46.8615 71.25 47C71.2037 47 71.1574 46.9537 71.1111 46.9075C70.6482 46.8614 70.1851 46.7691 69.7221 46.7229C69.5833 46.6306 69.4444 46.5843 69.3055 46.4919C68.4722 46.6305 67.6389 46.8615 66.7593 46.8615C62.4537 46.9076 58.1018 46.7691 53.8426 46.1225C49.6759 45.476 45.5555 44.4138 41.6666 42.7051C37.5 40.9039 33.75 38.41 30.5092 35.2234C29.2592 33.9765 28.1481 32.6372 27.0833 31.2518C26.25 30.1434 25.4167 29.035 24.8149 27.7881C23.5649 25.2942 22.3148 22.8003 21.2963 20.2141C20.463 18.0435 19.9538 15.7344 19.3519 13.4715C19.3056 13.2406 19.3519 12.9636 19.3519 12.6865C19.3519 11.8552 19.213 11.0238 19.2593 10.1926C19.2593 9.3151 19.2593 8.29905 19.6297 7.56013C20.2779 6.35939 19.4445 6.31317 18.7501 6.08226C18.7038 6.08226 18.6574 6.03613 18.5648 5.98994C18.426 5.98994 18.3334 5.98999 18.1945 6.03617C18.0556 6.03617 17.963 6.03617 17.8241 6.03617C17.5926 6.03617 17.3148 6.03613 17.0833 5.98994C16.9907 5.98994 16.9445 5.94381 16.8519 5.89763C15.8334 5.75908 14.8149 5.66664 13.7963 5.52809C12.0371 5.34336 10.2316 5.15865 8.47229 4.97392C8.47229 4.97392 8.42591 4.97392 8.37961 4.97392C6.52776 5.48193 4.58336 5.06626 2.7778 5.66663C2.36114 5.80518 1.89819 5.98989 1.34263 6.2208L0 0.95607C1.62037 1.18698 3.28702 1.37164 4.90739 1.60255C6.20369 1.78728 7.50001 1.9259 8.8426 2.11063C9.81482 2.24918 10.926 2.11066 11.7593 2.57248C12.4537 2.94194 12.8705 2.61857 13.426 2.61857C13.4723 2.61857 13.5648 2.66484 13.6111 2.71103C14.0278 2.80339 14.4445 2.89565 14.8149 3.0342C15 3.0342 15.1852 3.0342 15.3704 3.0342C17.5 3.86548 19.7686 3.95792 21.9445 4.5583C22.4538 4.69684 22.9166 4.88151 23.4259 5.06624C23.5185 5.06624 23.5649 5.06628 23.6575 5.11246C24.7223 5.43574 25.7871 5.71289 26.8519 6.03617C26.8982 6.03617 26.9445 6.0823 26.9908 6.12848C26.9908 6.12848 26.9908 6.03613 26.9908 5.98994C26.8056 5.80521 26.6204 5.57428 26.4353 5.38955C26.2964 5.29718 26.1574 5.20483 26.0648 5.11246C25.7407 4.88155 25.4167 4.65067 25.0926 4.41975C24.9537 4.32739 24.8148 4.23504 24.7222 4.14267C24.3981 3.91176 24.1204 3.68078 23.6575 3.35751C25.2315 2.43386 26.5742 1.27928 28.4723 1.46401C28.4723 1.41783 28.5186 1.37175 28.5648 1.27938C29.1667 0.448096 30.0926 0.494217 30.9722 0.494217C31.1111 0.494217 31.2501 0.494217 31.3427 0.494217C31.9908 0.355669 32.5927 0.171001 33.2408 0.124819C35.1853 -0.0599111 37.1296 -0.0599167 39.0741 0.263361C41.7129 0.725185 44.213 1.60265 46.6204 2.71103C51.9907 5.20488 56.5277 8.8532 60.4629 13.1482C63.611 16.5657 66.4815 20.3065 69.2593 24.0473C72.5 28.4346 75.8333 32.7296 80.1388 36.1471C83.3795 38.6871 86.8982 40.7192 90.9723 41.5043C92.0834 41.7352 93.2871 41.7351 94.4445 41.8737C94.6297 41.8737 94.8148 42.0122 95 42.2893L86.4352 44.5061C86.4352 44.5061 86.0185 44.3675 85.8333 44.3213L85.6019 44.229ZM27.9166 6.40557C27.9166 6.40557 27.963 6.40557 28.0093 6.40557C28.0093 6.40557 27.9629 6.40552 27.9166 6.35934C27.9166 6.35934 27.8704 6.35934 27.8241 6.35934C27.8241 6.35934 27.8703 6.35934 27.9166 6.35934V6.40557Z" fill="#FFF3B6"/></svg>
