<svg width="272" height="540" viewBox="0 0 272 540" fill="none" xmlns="http://www.w3.org/2000/svg">
<path d="M142.389 537.833C141.675 537.963 141.034 538.207 140.323 538.281C136.048 538.893 131.642 539.002 127.233 539.165C124.635 539.255 122.037 539.345 119.436 539.489C118.885 539.516 118.401 539.768 117.922 539.909C117.844 539.906 117.768 539.846 117.692 539.787C116.911 539.693 116.133 539.543 115.352 539.448C115.122 539.326 114.89 539.259 114.66 539.137C113.241 539.231 111.816 539.435 110.327 539.36C103.034 539.046 95.6743 538.508 88.5019 537.373C81.4862 536.245 74.5739 534.625 68.0926 532.255C61.1465 529.75 54.9477 526.454 49.6529 522.377C47.6117 520.782 45.8113 519.09 44.092 517.347C42.7479 515.953 41.4038 514.56 40.46 513.022C38.494 509.94 36.5279 506.859 34.9594 503.688C33.6794 501.027 32.9565 498.23 32.074 495.48C32.0095 495.2 32.1046 494.874 32.1213 494.543C32.1714 493.552 31.9862 492.549 32.1148 491.561C32.1677 490.515 32.2291 489.303 32.9007 488.453C34.0705 487.077 32.6624 486.95 31.5005 486.616C31.4221 486.612 31.3464 486.553 31.1925 486.49C30.9573 486.478 30.8006 486.47 30.5627 486.513C30.3275 486.501 30.1706 486.493 29.9355 486.481C29.5436 486.462 29.0732 486.438 28.6841 486.363C28.5273 486.355 28.4518 486.296 28.2978 486.233C26.5817 485.98 24.8628 485.783 23.1466 485.531C20.1791 485.16 17.1333 484.785 14.1658 484.414C14.1658 484.414 14.0873 484.41 14.0089 484.406C10.8428 484.853 7.57577 484.191 4.48254 484.753C3.76872 484.882 2.97375 485.063 2.0192 485.291L0.0634397 478.897C2.793 479.311 5.60372 479.674 8.33328 480.088C10.5169 480.419 12.7034 480.696 14.9654 481.031C16.6032 481.279 18.4928 481.209 19.8759 481.831C21.0294 482.331 21.7545 481.981 22.6951 482.029C22.7735 482.033 22.9273 482.096 23.0029 482.155C23.7028 482.301 24.4028 482.447 25.0215 482.644C25.3351 482.659 25.6486 482.675 25.9621 482.691C29.5177 483.865 33.3531 484.169 37.001 485.072C37.8549 485.28 38.6274 485.54 39.4785 485.804C39.6353 485.812 39.7138 485.816 39.8678 485.879C41.6512 486.356 43.4373 486.778 45.2207 487.254C45.2991 487.258 45.3747 487.317 45.4503 487.376C45.4503 487.376 45.4559 487.266 45.4586 487.211C45.1562 486.975 44.8567 486.684 44.5543 486.447C44.3247 486.325 44.095 486.203 43.9437 486.085C43.409 485.782 42.8743 485.479 42.3395 485.176C42.1099 485.054 41.8802 484.932 41.729 484.814C41.1942 484.511 40.738 484.211 39.9736 483.786C42.6944 482.819 45.0373 481.557 48.24 481.94C48.2427 481.885 48.3238 481.834 48.4078 481.728C49.4769 480.788 51.0417 480.922 52.5311 480.998C52.7662 481.009 53.0015 481.021 53.1583 481.029C54.264 480.92 55.2942 480.751 56.3944 480.751C59.6977 480.697 62.9897 480.864 66.2624 481.416C70.7025 482.193 74.8825 483.453 78.8917 484.981C87.834 488.415 95.2956 493.154 101.699 498.614C106.823 502.959 111.458 507.666 115.936 512.365C121.158 517.875 126.542 523.283 133.626 527.727C138.96 531.034 144.795 533.758 151.646 535.044C153.513 535.414 155.551 535.517 157.502 535.781C157.816 535.797 158.121 535.978 158.418 536.325L143.783 538.235C143.783 538.235 143.086 538.034 142.775 537.963L142.389 537.833ZM47.0011 487.786C47.0011 487.786 47.0797 487.79 47.1581 487.794C47.1581 487.794 47.0795 487.79 47.0039 487.731C47.0039 487.731 46.9256 487.727 46.8472 487.723C46.8472 487.723 46.9255 487.727 47.0039 487.731L47.0011 487.786Z" fill="#DD484D"/>
<path d="M161.62 227.795L158 222C158 222 158.557 222 158.65 222.13C159.485 222.716 160.227 223.367 161.155 223.888C164.311 225.842 168.208 226.949 172.199 227.6C177.582 228.511 183.058 228.511 188.626 228.381C193.359 228.251 198.093 228.251 202.733 228.511C208.58 228.837 214.333 229.749 219.716 231.702C222.129 232.548 224.357 233.59 226.399 234.892C227.883 235.869 229.09 236.911 230.111 238.083C230.482 238.474 230.668 238.929 231.039 239.32C231.039 239.385 231.224 239.45 231.317 239.515C231.874 240.036 232.431 240.492 232.153 241.208C232.153 241.208 232.153 241.274 232.153 241.339C233.545 242.315 233.452 243.618 233.637 244.92C233.08 244.79 232.71 244.725 232.338 244.659C232.153 244.659 232.059 244.594 231.874 244.529C231.503 244.464 231.131 244.399 230.76 244.269C230.575 244.269 230.482 244.204 230.296 244.138C230.018 244.138 229.74 244.138 229.461 244.138C229.461 244.138 229.461 244.138 229.368 244.138C229.368 244.138 229.461 244.138 229.554 244.138C230.482 244.594 231.317 245.05 232.245 245.506C232.245 245.506 232.338 245.506 232.431 245.571C232.895 245.766 233.359 245.962 233.73 246.157C235.493 247.134 237.071 248.371 239.02 249.217C239.113 249.348 239.206 249.413 239.299 249.543C239.67 249.738 239.948 249.934 240.32 250.064C240.32 250.064 240.413 250.064 240.505 250.064C240.877 250.389 240.877 250.78 241.619 250.975C242.454 251.236 243.104 251.887 243.753 252.408C244.681 253.059 245.61 253.71 246.63 254.426C247.837 255.273 249.044 256.119 250.25 256.901L245.238 258.463C245.052 258.073 244.96 257.747 244.774 257.422C244.124 256.119 242.547 255.208 241.804 253.971C240.505 253.059 239.299 252.148 237.999 251.236C237.257 250.715 236.515 250.194 235.772 249.673C235.772 249.673 235.679 249.673 235.586 249.608C235.401 249.478 235.215 249.348 235.03 249.217C235.03 249.152 234.844 249.087 234.751 249.022C234.751 248.957 234.658 248.892 234.566 248.762C234.566 248.762 234.473 248.762 234.38 248.762C233.73 248.501 233.173 248.045 232.616 248.892C232.245 249.413 231.41 249.803 230.76 250.259C230.111 250.65 229.368 250.975 228.719 251.301C228.533 251.431 228.347 251.561 228.069 251.627C225.842 252.278 223.707 252.994 221.48 253.515C218.788 254.101 216.004 254.492 213.312 254.882C211.92 255.078 210.529 255.143 209.137 255.143C207.373 255.143 205.61 255.143 203.847 254.947C199.299 254.491 194.937 253.515 190.946 251.952C187.141 250.52 183.708 248.696 180.645 246.613C177.489 244.464 174.613 242.12 172.014 239.646C171.457 239.19 171.179 238.604 170.714 238.018C170.529 238.018 170.436 237.953 170.251 237.888C169.879 237.627 169.6 237.432 169.229 237.171C169.229 237.171 169.137 237.171 169.044 237.171C169.044 236.911 169.044 236.716 168.765 236.52C168.023 235.544 167.188 234.632 166.352 233.655C164.96 232.093 163.568 230.465 162.547 228.772C162.362 228.511 162.269 228.186 162.176 227.86C161.991 227.795 161.805 227.665 161.62 227.6V227.795ZM228.347 243.943C228.347 243.943 228.348 243.943 228.255 243.943C228.255 243.943 228.254 243.943 228.347 243.943Z" fill="#C12127"/>
<path d="M250.828 110.622C249.892 110.607 249.02 110.754 248.102 110.67C242.539 110.371 236.937 109.403 231.317 108.503C228.008 107.964 224.698 107.425 221.371 106.955C220.667 106.851 219.991 107.048 219.35 107.107C219.251 107.082 219.171 106.988 219.09 106.895C218.125 106.579 217.178 106.194 216.213 105.878C215.954 105.666 215.676 105.523 215.417 105.311C213.597 105.073 211.743 104.974 209.878 104.505C200.729 102.277 191.552 99.749 182.762 96.5114C174.168 93.3231 165.828 89.5387 158.223 84.9119C150.063 79.9989 143.047 74.2731 137.371 67.7842C135.188 65.2547 133.335 62.6615 131.598 60.0238C130.247 57.9236 128.896 55.8234 128.088 53.6396C126.374 49.2474 124.66 44.8551 123.471 40.4483C122.519 36.7613 122.307 33.0403 121.881 29.3387C121.869 28.9691 122.072 28.5799 122.176 28.166C122.488 26.9241 122.506 25.6081 122.916 24.391C123.246 23.0802 123.628 21.5624 124.691 20.656C126.516 19.208 124.766 18.6945 123.38 17.9791C123.282 17.9544 123.201 17.8608 123.022 17.7424C122.728 17.6683 122.532 17.6191 122.22 17.614C121.925 17.5399 121.729 17.4905 121.434 17.4164C120.943 17.2929 120.354 17.1447 119.88 16.9522C119.684 16.9028 119.603 16.8093 119.424 16.6909C117.316 15.9407 115.191 15.2593 113.083 14.5091C109.421 13.2948 105.661 12.0559 102 10.8416C102 10.8416 101.901 10.8168 101.803 10.7921C97.6849 10.5633 93.7174 8.90529 89.6626 8.83915C88.7269 8.82388 87.6757 8.85289 86.4107 8.90153L85.5412 0.32058C88.8909 1.52979 92.3562 2.69458 95.7059 3.90378C98.3857 4.87115 101.083 5.76965 103.861 6.7617C105.871 7.48723 108.279 7.87294 109.873 9.00732C111.207 9.92964 112.212 9.66883 113.391 9.96515C113.489 9.98984 113.667 10.1083 113.748 10.202C114.597 10.5622 115.446 10.9223 116.18 11.3268C116.573 11.4256 116.965 11.5243 117.358 11.6231C121.562 14.0008 126.339 15.3489 130.728 17.4063C131.756 17.8849 132.668 18.4077 133.679 18.9553C133.875 19.0046 133.973 19.0294 134.152 19.1478C136.289 20.1987 138.443 21.1807 140.58 22.2315C140.678 22.2562 140.759 22.3498 140.84 22.4435C140.84 22.4435 140.875 22.3055 140.892 22.2366C140.569 21.8618 140.263 21.4181 139.939 21.0433C139.68 20.8313 139.42 20.6192 139.258 20.4318C138.657 19.914 138.057 19.3963 137.456 18.8785C137.197 18.6664 136.936 18.4543 136.775 18.267C136.174 17.7492 135.672 17.256 134.812 16.5261C138.497 15.9859 141.778 14.9772 145.734 16.2656C145.752 16.1966 145.867 16.1524 146 16.0391C147.589 15.1183 149.535 15.681 151.401 16.1502C151.695 16.2243 151.99 16.2984 152.186 16.3478C153.613 16.4865 154.959 16.5317 156.351 16.8084C160.544 17.5695 164.667 18.6065 168.67 20.1266C174.093 22.224 179.065 24.8682 183.754 27.808C194.207 34.3979 202.458 42.2679 209.19 50.783C214.583 57.5674 219.265 64.6868 223.751 71.7566C228.976 80.0392 234.431 88.2331 242.278 95.6349C248.197 101.158 254.896 106.07 263.241 109.416C265.511 110.354 268.064 110.996 270.466 111.82C270.859 111.919 271.2 112.224 271.488 112.737L252.491 111.48C252.491 111.48 251.66 111.051 251.284 110.883L250.828 110.622ZM142.699 23.3513C142.699 23.3513 142.798 23.376 142.896 23.4007C142.896 23.4007 142.798 23.3759 142.717 23.2822C142.717 23.2822 142.619 23.2575 142.521 23.2328C142.521 23.2328 142.619 23.2575 142.717 23.2822L142.699 23.3513Z" fill="#DD484D"/>
</svg>
