<svg width="49" height="30" viewBox="0 0 49 30" fill="none" xmlns="http://www.w3.org/2000/svg">
<path d="M46.6377 5.24861C46.566 5.481 46.5301 5.71339 46.4403 5.92789C45.9199 7.23281 45.2021 8.44837 44.4843 9.64603C44.0536 10.3611 43.6408 11.0939 43.246 11.809C43.1563 11.952 43.1563 12.1486 43.1204 12.3274C43.0845 12.3274 43.0666 12.3452 43.0307 12.3631C42.8513 12.5419 42.6718 12.7206 42.4923 12.8993C42.4206 12.9351 42.3308 12.9708 42.259 13.0066C42.0437 13.4177 41.8642 13.8468 41.5951 14.2222C40.2133 16.0991 38.7417 17.9045 37.0728 19.5133C35.4398 21.1042 33.6452 22.4985 31.6533 23.6247C29.5178 24.8223 27.2566 25.6267 24.834 25.9842C23.9008 26.1272 22.9497 26.1451 22.0165 26.163C21.2808 26.163 20.5271 26.163 19.8092 26.02C18.3377 25.7518 16.8841 25.4659 15.4485 25.0547C14.2462 24.6972 13.1156 24.1609 11.9491 23.6962C11.8235 23.6426 11.7158 23.5353 11.6082 23.4638C11.2493 23.2135 10.8545 22.9633 10.5135 22.6773C10.1546 22.3734 9.70594 22.0874 9.52648 21.6762C9.22141 21.0148 8.93427 21.3545 8.59331 21.569C8.55742 21.569 8.53947 21.6048 8.50357 21.6048C8.46768 21.6584 8.44973 21.7299 8.41384 21.7835C8.36001 21.8371 8.32414 21.8908 8.2703 21.9265C8.18057 22.0338 8.09083 22.1231 8.0011 22.2304C7.96521 22.2482 7.92933 22.2661 7.89343 22.3019C7.51658 22.6952 7.12178 23.0884 6.74492 23.4817C6.08094 24.1788 5.41696 24.8759 4.75297 25.5731C4.75297 25.5731 4.71708 25.591 4.71708 25.6089C4.34022 26.5563 3.51473 27.2534 3.17376 28.2187C3.08403 28.4511 3.03022 28.7013 2.94049 29.0052C2.06116 28.6298 1.19977 28.2723 0.266602 27.879C0.894694 27.2534 1.50483 26.6099 2.13292 25.9842C2.63539 25.4837 3.11993 24.9653 3.6224 24.4648C3.99925 24.0894 4.30434 23.5711 4.75297 23.3744C5.14777 23.2136 5.12983 22.9096 5.30928 22.6773C5.34517 22.6773 5.38106 22.6415 5.41695 22.6415C5.5964 22.4985 5.77587 22.3555 5.93738 22.2125C5.99122 22.1232 6.04505 22.0516 6.09889 21.9622C7.15767 21.3366 7.92933 20.3892 8.88044 19.6385C9.09579 19.4597 9.32906 19.3346 9.56235 19.1737C9.59824 19.1558 9.63414 19.12 9.65209 19.1022C10.1187 18.7446 10.6032 18.3872 11.0698 18.0297C11.1057 18.0297 11.1236 18.0118 11.1595 17.9939C11.1416 17.9939 11.1236 17.9581 11.1057 17.9581C10.9621 17.9581 10.8186 17.976 10.675 17.9939C10.6032 18.0296 10.5135 18.0475 10.4417 18.0833C10.2443 18.1548 10.0469 18.2084 9.84949 18.2799C9.75976 18.3156 9.68798 18.3335 9.59825 18.3692C9.40085 18.4229 9.20347 18.4944 8.91634 18.5838C9.02401 17.6006 8.97016 16.6532 9.68798 15.9025C9.68798 15.8667 9.65209 15.8309 9.65209 15.8131C9.49058 15.2768 9.81359 14.9014 10.1007 14.526C10.1546 14.4724 10.1905 14.4188 10.2443 14.383C10.3879 14.0792 10.5314 13.7395 10.7109 13.4535C11.2672 12.5597 11.8953 11.7374 12.6669 11.0045C13.7078 10.0214 14.9101 9.25276 16.1663 8.57349C18.9658 7.07195 21.9986 6.33903 25.1211 6.03514C27.5976 5.78488 30.1099 5.78489 32.6223 5.82064C35.5474 5.87427 38.4546 5.82064 41.3079 5.08774C43.4434 4.5336 45.4533 3.67558 47.1223 2.19191C47.5889 1.78077 47.9837 1.28024 48.4144 0.833354C48.4861 0.761852 48.5759 0.726122 48.7553 0.743998L46.9069 5.14136C46.8172 5.21287 46.7275 5.26652 46.6377 5.33802V5.24861ZM11.7876 17.6721C11.7876 17.6721 11.8235 17.6543 11.8414 17.6364C11.8235 17.6364 11.8055 17.6364 11.7876 17.6364C11.7876 17.6364 11.7696 17.6543 11.7517 17.6721C11.7517 17.6721 11.7697 17.6721 11.7876 17.6542V17.6721Z" fill="#841618"/>
</svg>
