<svg width="21" height="10" viewBox="0 0 21 10" fill="none" xmlns="http://www.w3.org/2000/svg">
<path d="M19.3732 2.4868C19.3732 2.4868 19.3014 2.66553 19.2655 2.73703C18.9964 3.23754 18.6554 3.68443 18.3324 4.13132C18.135 4.39945 17.9376 4.66761 17.7402 4.93574C17.7043 4.98937 17.6863 5.06084 17.6684 5.13234C17.6684 5.13234 17.6504 5.13234 17.6325 5.13234C17.5607 5.20385 17.471 5.2575 17.3992 5.329C17.3633 5.329 17.3274 5.34686 17.3095 5.36473C17.2018 5.52561 17.1121 5.68649 17.0044 5.81162C16.3763 6.49089 15.7123 7.1523 14.9766 7.72432C14.2587 8.27846 13.4871 8.7611 12.6436 9.11861C11.7464 9.51187 10.8132 9.72635 9.84414 9.7621C9.46728 9.7621 9.09043 9.7621 8.71357 9.70848C8.42645 9.67273 8.12138 9.63698 7.83425 9.5476C7.25999 9.36885 6.68573 9.20795 6.14737 8.97557C5.68079 8.77894 5.2501 8.52871 4.81941 8.27846C4.76557 8.26058 4.72968 8.20696 4.69379 8.17121C4.55022 8.04608 4.40666 7.9388 4.29899 7.81367C4.17337 7.67067 4.01185 7.54554 3.94007 7.36679C3.85034 7.08078 3.72473 7.20593 3.58116 7.27743C3.58116 7.27743 3.56321 7.27743 3.54526 7.27743C3.54526 7.2953 3.50938 7.3132 3.50938 7.34895C3.49143 7.34895 3.47349 7.3847 3.45554 7.40257C3.41965 7.43832 3.38376 7.47407 3.32993 7.50982C3.32993 7.50982 3.29403 7.50978 3.29403 7.52766C3.13252 7.67066 2.95307 7.8137 2.79156 7.95671C2.50443 8.20697 2.19936 8.45719 1.91223 8.70745C1.71483 9.06496 1.37386 9.31523 1.19441 9.67274C1.15852 9.76212 1.12263 9.85152 1.06879 9.97665L0.0458984 9.40462C0.315081 9.17224 0.602207 8.95773 0.871389 8.72534C1.08674 8.54659 1.30209 8.36785 1.53538 8.1891C1.69689 8.0461 1.84045 7.86734 2.03785 7.79584C2.19936 7.74221 2.2173 7.63493 2.28908 7.54555H2.32498C2.39677 7.49192 2.46854 7.4562 2.55827 7.40257C2.57622 7.36682 2.61211 7.34891 2.63005 7.31316C3.07869 7.11653 3.41965 6.75905 3.8324 6.50879C3.92213 6.45517 4.02981 6.40155 4.11953 6.34792C4.11953 6.34792 4.15542 6.3479 4.15542 6.33003C4.35282 6.2049 4.56816 6.07975 4.76556 5.9725C4.76556 5.9725 4.78351 5.9725 4.80146 5.9725C4.80146 5.9725 4.80145 5.97253 4.78351 5.95466C4.72967 5.95466 4.67584 5.95466 4.60405 5.95466C4.56816 5.95466 4.53228 5.95462 4.49639 5.9725C4.40666 5.9725 4.33488 6.00824 4.24515 6.02612C4.20926 6.02612 4.17336 6.02614 4.13747 6.04401C4.06569 6.04401 3.97597 6.07976 3.85035 6.09764C3.94008 5.72225 3.95801 5.32901 4.26309 5.06088V5.02509C4.2272 4.81059 4.37077 4.66759 4.49639 4.52458C4.51433 4.52458 4.53228 4.48883 4.56817 4.47096C4.63995 4.34583 4.71173 4.22073 4.78351 4.11348C5.03474 3.77384 5.32187 3.48784 5.66283 3.2197C6.12942 2.88007 6.63189 2.6119 7.15231 2.39739C8.33671 1.91475 9.57495 1.75386 10.8132 1.77173C11.8181 1.77173 12.8052 1.879 13.7922 2.00412C14.9586 2.14713 16.1071 2.25441 17.2736 2.09354C18.135 1.96841 18.9784 1.71815 19.7142 1.19976C19.9116 1.05675 20.091 0.877964 20.2884 0.717084C20.3243 0.699208 20.3602 0.68137 20.432 0.699245L19.5168 2.36166C19.5168 2.36166 19.445 2.39742 19.3911 2.43317L19.3732 2.4868ZM4.99886 5.91887C4.99886 5.91887 4.99886 5.91887 5.01681 5.91887C5.01681 5.91887 5.0168 5.91887 4.99886 5.91887Z" fill="#841618"/>
</svg>
