<svg width="288" height="290" viewBox="0 0 288 290" fill="none" xmlns="http://www.w3.org/2000/svg">
<g filter="url(#filter0_d_337_1235)">
<path d="M205.258 166.667L224.675 147.127L195.876 149.65L196.19 134.865L157.3 153.066L180.308 109.875L162.703 112.31L156.662 78.2415L139.72 108.407L123.906 100.299L131.376 148.662L100.668 118.649L96.0866 132.709L69.7345 120.824L81.6133 145.677L69.3127 150.811L105.546 176.665L93.8206 190.587L132.743 192.688C132.743 192.688 134.909 192.395 134.322 195.859C133.735 199.322 126.24 228.675 126.24 228.675L135.745 230.288C135.745 230.288 138.357 200.104 138.943 196.643C139.53 193.18 141.476 194.169 141.476 194.169L178.913 205.029L172.439 188.017L215.175 175.569L205.256 166.661L205.258 166.667Z" fill="#CCC292"/>
<path d="M205.711 148.601L225.124 129.06L196.325 131.583L196.64 116.799L157.75 134.999L180.758 91.8078L163.152 94.2436L157.111 60.1775L140.169 90.3433L124.356 82.2348L131.825 130.598L101.117 100.585L96.5358 114.645L70.1808 102.76L82.0596 127.612L69.759 132.747L105.992 158.6L94.2669 172.523L133.19 174.624C133.19 174.624 135.352 174.33 134.765 177.794C134.178 181.257 126.683 210.61 126.683 210.61L136.188 212.223C136.188 212.223 138.8 182.039 139.39 178.576C139.977 175.113 141.923 176.102 141.923 176.102L179.36 186.965L172.885 169.952L215.621 157.504L205.706 148.597L205.711 148.601Z" fill="#FFF3B6"/>
<path d="M129.199 162.226C109.013 158.8 98.4859 167.863 95.3219 171.279L94.275 172.524L133.198 174.625C133.198 174.625 135.36 174.331 134.773 177.795C134.186 181.258 126.691 210.611 126.691 210.611L136.196 212.224C136.196 212.224 138.808 182.039 139.398 178.577C139.985 175.113 141.931 176.103 141.931 176.103L179.368 186.966L172.893 169.953L215.629 157.505L205.714 148.598L225.127 129.057L196.328 131.58L196.643 116.796C186.885 174.273 153.885 166.414 129.202 162.223L129.199 162.226Z" fill="#E6DBA4"/>
</g>
<defs>
<filter id="filter0_d_337_1235" x="65.3125" y="60.1775" width="163.814" height="178.11" filterUnits="userSpaceOnUse" color-interpolation-filters="sRGB">
<feFlood flood-opacity="0" result="BackgroundImageFix"/>
<feColorMatrix in="SourceAlpha" type="matrix" values="0 0 0 0 0 0 0 0 0 0 0 0 0 0 0 0 0 0 127 0" result="hardAlpha"/>
<feOffset dy="4"/>
<feGaussianBlur stdDeviation="2"/>
<feComposite in2="hardAlpha" operator="out"/>
<feColorMatrix type="matrix" values="0 0 0 0 0 0 0 0 0 0 0 0 0 0 0 0 0 0 0.25 0"/>
<feBlend mode="normal" in2="BackgroundImageFix" result="effect1_dropShadow_337_1235"/>
<feBlend mode="normal" in="SourceGraphic" in2="effect1_dropShadow_337_1235" result="shape"/>
</filter>
</defs>
</svg>
