<svg width="209" height="214" viewBox="0 0 209 214" fill="none" xmlns="http://www.w3.org/2000/svg">
<g filter="url(#filter0_d_337_1231)">
<path d="M168.393 95.4158L175.438 68.7852L151.758 85.3694L144.639 72.4087L120.059 107.615L118.389 58.7071L104.36 69.6192L82.0946 43.1349L82.5051 77.7304L64.7559 78.6149L95.4064 116.764L53.806 106.126L56.8682 120.593L28.1042 123.476L50.818 139.06L42.7327 149.657L87.0383 153.93L83.845 171.85L118.604 154.208C118.604 154.208 120.333 152.872 121.556 156.165C122.779 159.457 130.965 188.625 130.965 188.625L140.003 185.269C140.003 185.269 127.172 157.823 125.95 154.533C124.727 151.24 126.907 151.124 126.907 151.124L164.759 141.811L150.645 130.315L181.432 98.1664L168.388 95.4113L168.393 95.4158Z" fill="#CCC292"/>
<path d="M159.753 79.5432L166.795 52.9135L143.116 69.4977L135.996 56.537L111.416 91.7438L109.746 42.8354L95.7175 53.7476L73.4528 27.2659L73.8633 61.8614L56.1142 62.746L86.7646 100.895L45.1643 90.2568L48.2264 104.724L19.4597 107.608L42.1735 123.192L34.0882 133.789L78.3937 138.062L75.2005 155.982L109.959 138.34C109.959 138.34 111.685 137.005 112.909 140.298C114.132 143.59 122.317 172.758 122.317 172.758L131.355 169.403C131.355 169.403 118.525 141.956 117.305 138.663C116.081 135.37 118.262 135.254 118.262 135.254L156.114 125.943L142 114.447L172.787 82.2985L159.746 79.5424L159.753 79.5432Z" fill="#FFF3B6"/>
<path d="M100.304 129.598C81.1099 136.724 76.5241 149.837 75.4921 154.377L75.2079 155.979L109.966 138.337C109.966 138.337 111.693 137.002 112.916 140.294C114.139 143.587 122.325 172.755 122.325 172.755L131.363 169.399C131.363 169.399 118.533 141.953 117.312 138.659C116.089 135.366 118.269 135.25 118.269 135.25L156.121 125.94L142.008 114.444L172.795 82.2951L159.754 79.539L166.796 52.9094L143.116 69.4936L135.997 56.5329C156.285 111.189 123.777 120.883 100.306 129.594L100.304 129.598Z" fill="#E6DBA4"/>
</g>
<defs>
<filter id="filter0_d_337_1231" x="15.46" y="27.2659" width="169.972" height="169.36" filterUnits="userSpaceOnUse" color-interpolation-filters="sRGB">
<feFlood flood-opacity="0" result="BackgroundImageFix"/>
<feColorMatrix in="SourceAlpha" type="matrix" values="0 0 0 0 0 0 0 0 0 0 0 0 0 0 0 0 0 0 127 0" result="hardAlpha"/>
<feOffset dy="4"/>
<feGaussianBlur stdDeviation="2"/>
<feComposite in2="hardAlpha" operator="out"/>
<feColorMatrix type="matrix" values="0 0 0 0 0 0 0 0 0 0 0 0 0 0 0 0 0 0 0.25 0"/>
<feBlend mode="normal" in2="BackgroundImageFix" result="effect1_dropShadow_337_1231"/>
<feBlend mode="normal" in="SourceGraphic" in2="effect1_dropShadow_337_1231" result="shape"/>
</filter>
</defs>
</svg>
