<svg width="171" height="170" viewBox="0 0 171 170" fill="none" xmlns="http://www.w3.org/2000/svg"><g filter="url(#filter0_d_3_3)"><path d="M153.393 68.4158L160.438 41.7852L136.758 58.3694L129.639 45.4087L105.059 80.615L103.389 31.7071L89.36 42.6192L67.0946 16.1349L67.5051 50.7304L49.7559 51.6149L80.4064 89.764L38.806 79.126L41.8682 93.593L13.1042 96.476L35.818 112.06L27.7327 122.657L72.0383 126.93L68.845 144.85L103.604 127.208C103.604 127.208 105.333 125.872 106.556 129.165C107.779 132.457 115.965 161.625 115.965 161.625L125.003 158.269C125.003 158.269 112.172 130.823 110.95 127.533C109.727 124.24 111.907 124.124 111.907 124.124L149.759 114.811L135.645 103.315L166.432 71.1664L153.388 68.4113L153.393 68.4158Z" fill="#CCC292"/><path d="M144.753 52.5432L151.795 25.9135L128.116 42.4977L120.996 29.537L96.416 64.7438L94.746 15.8354L80.7175 26.7476L58.4528 0.2659L58.8633 34.8614L41.1142 35.746L71.7646 73.895L30.1643 63.2568L33.2264 77.724L4.4597 80.608L27.1735 96.192L19.0882 106.789L63.3937 111.062L60.2005 128.982L94.959 111.34C94.959 111.34 96.685 110.005 97.909 113.298C99.132 116.59 107.317 145.758 107.317 145.758L116.355 142.403C116.355 142.403 103.525 114.956 102.305 111.663C101.081 108.37 103.262 108.254 103.262 108.254L141.114 98.943L127 87.447L157.787 55.2985L144.746 52.5424L144.753 52.5432Z" fill="#FFF3B6"/><path d="M85.304 102.598C66.1099 109.724 61.5241 122.837 60.4921 127.377L60.2079 128.979L94.966 111.337C94.966 111.337 96.693 110.002 97.916 113.294C99.139 116.587 107.325 145.755 107.325 145.755L116.363 142.399C116.363 142.399 103.533 114.953 102.312 111.659C101.089 108.366 103.269 108.25 103.269 108.25L141.121 98.94L127.008 87.444L157.795 55.2951L144.754 52.539L151.796 25.9094L128.116 42.4936L120.997 29.5329C141.285 84.189 108.777 93.883 85.306 102.594L85.304 102.598Z" fill="#E6DBA4"/></g><defs><filter id="filter0_d_3_3" x="0.459702" y="0.2659" width="169.972" height="169.359" filterUnits="userSpaceOnUse" color-interpolation-filters="sRGB"><feFlood flood-opacity="0" result="BackgroundImageFix"/><feColorMatrix in="SourceAlpha" type="matrix" values="0 0 0 0 0 0 0 0 0 0 0 0 0 0 0 0 0 0 127 0" result="hardAlpha"/><feOffset dy="4"/><feGaussianBlur stdDeviation="2"/><feComposite in2="hardAlpha" operator="out"/><feColorMatrix type="matrix" values="0 0 0 0 0 0 0 0 0 0 0 0 0 0 0 0 0 0 0.25 0"/><feBlend mode="normal" in2="BackgroundImageFix" result="effect1_dropShadow_3_3"/><feBlend mode="normal" in="SourceGraphic" in2="effect1_dropShadow_3_3" result="shape"/></filter></defs></svg>
