<svg width="146" height="239" viewBox="0 0 146 239" fill="none" xmlns="http://www.w3.org/2000/svg">
<path d="M103.455 63.8714C108.799 57.1946 111.996 48.7126 111.996 39.4808C111.996 17.959 94.6179 0.512146 73.1804 0.512146C51.7428 0.512146 34.3643 17.959 34.3643 39.4808C34.3643 49.4798 38.1154 58.5992 44.2821 65.4981C19.4884 78.8497 0.357422 106.476 0.357422 134.221C0.357422 169.813 32.7909 199.64 68.0502 202.202L71.1701 147.109L43.3008 99.6677L71.5291 136.134L75.4052 38.015L77.8817 111.841L101.875 85.4745L79.5327 123.728L82.7203 201.532C116.107 195.779 145.985 161.698 145.985 127.75C145.985 101.342 127.804 75.6251 103.455 63.8714Z" fill="#F6BF6F"/>
<path d="M84.2344 238.489L66.2351 234.253L71.1701 147.109L43.3008 99.6677L71.5291 136.134L75.4052 38.015L77.8817 111.841L101.875 85.4745L79.5327 123.728L84.2344 238.489Z" fill="#640718"/>
</svg>
