<svg xmlns="http://www.w3.org/2000/svg" fill="none" viewBox="0 0 299 302">
  <g filter="url(#a)">
    <path fill="#7500FF" d="m225 259 1 1 3-3h-4v2Zm-5 4 1 1-1-1Zm-11 8v2l1-1-1-1Zm-119 0-1 1 1 1v-2Zm-11-8-1 1 1-1Zm-6-4v-2h-3l2 3 1-1Zm176-29 1 1 2-3h-3v2Zm-9 13v1h1v-1h-1Zm-181 0h-2l1 1h1v-1Zm-9-13v-2h-3l2 3 1-1Zm211-28 2 1 1-2h-3v1Zm-4 13v1h1v-1h-1Zm-215 0h-1v1h1v-1Zm-5-13v-1h-2l1 2 1-1Zm230-26h2v-2h-2v2Zm-2 12v2h1l1-1-2-1Zm-231 0-2 1 1 1h1v-2Zm-2-12v-2h-2v2h2Zm236-25h1v-1h-1v1Zm0 9h2-2Zm0 4v1h2v-1h-2Zm-237 0h-2v1h2v-1Zm0-4h-2 2Zm0-9v-1h-1v1h1Zm234-20h2l-1-1h-1v1Zm2 13v2h2v-2h-2Zm-235 0h-2v2h2v-2Zm2-13v-1h-2v1h2ZM149 31v-1 1Zm115 95v1h2l-1-2-1 1Zm-229 0-1-1-1 2h2v-1Zm190 133-1-2-5 5 1 1 1 1 5-4-1-1Zm-5 4-1-1-11 8 1 1 1 1 11-8-1-1Zm-11 8v-1H90v3h119v-2Zm-119 0 1-1-11-8-1 1-1 1 11 8 1-1Zm-11-8 1-1-6-5-1 2-1 1 6 4 1-1Zm-6-4v1h152v-3H73v2Zm176-29-1-1-9 13 1 1h1l9-12-1-1Zm-9 13v-2H59v3h181v-1Zm-181 0 1-1-9-13-1 1-1 1 8 12h2Zm-9-13v1h199v-3H50v2Zm211-28h-1l-5 12 2 1h1l5-12-2-1Zm-4 13v-2H42v3h215v-1Zm-215 0 2-1-5-12h-2l-1 1 5 12h1Zm-5-13v2h224v-3H37v1Zm230-26h-1l-2 12h1l2 1 2-13h-2Zm-2 12v-1H34v3h231v-2Zm-231 0h1l-2-12h-3l2 13 2-1Zm-2-12v1h235v-3H32v2Zm236-25h-2l1 9h3l-1-9h-1Zm0 9h-1v4h3v-4h-2Zm0 4v-2H31v3h237v-1Zm-237 0h1v-4h-3v4h2Zm0-4h1l1-9h-3l-1 9h2Zm0-9v2h237v-3H31v1Zm234-20-1 1 2 12h3l-2-13h-2Zm2 13v-1H32v3h235v-2Zm-235 0h1l2-12-1-1h-2l-2 13h2Zm2-13v2h231v-3H34v1ZM149 31v2c54 0 100 39 113 93h2l1-1c-14-55-60-95-116-95v1Zm115 95v-2H35v3h229v-1Zm-229 0h2c13-54 59-93 112-93v-3C94 30 48 70 34 125l1 1Z"/>
  </g>
  <path fill="url(#b)" d="M225 259a121 121 0 0 1-16 12H90a118 118 0 0 1-17-12h152Zm24-29-9 13H59l-9-13h199Zm12-28-4 13H42l-5-13h224Zm6-26-2 12H34l-2-12h235Zm1-25a142 142 0 0 1 0 13H31a142 142 0 0 1 0-13h237Zm-3-20 2 13H32l2-13h231ZM149 31c55 0 101 40 115 95H35c14-55 60-95 114-95Z"/>
  <defs>
    <linearGradient id="b" x1="149.5" x2="149.5" y1="9.1" y2="271.1" gradientUnits="userSpaceOnUse">
      <stop offset=".2" stop-color="#482C69"/>
      <stop offset=".5" stop-color="#6B0BDB"/>
    </linearGradient>
    <filter id="a" width="298.3" height="301" x="0" y="1" color-interpolation-filters="sRGB" filterUnits="userSpaceOnUse">
      <feFlood flood-opacity="0" result="BackgroundImageFix"/>
      <feBlend in="SourceGraphic" in2="BackgroundImageFix" result="shape"/>
      <feTurbulence baseFrequency="2 2" numOctaves="3" seed="9846" type="fractalNoise"/>
      <feDisplacementMap width="100%" height="100%" in="shape" result="displacedImage" scale="58" xChannelSelector="R" yChannelSelector="G"/>
      <feMerge result="effect1_texture_455_256">
        <feMergeNode in="displacedImage"/>
      </feMerge>
    </filter>
  </defs>
</svg>
