<svg width="132" height="122" viewBox="0 0 132 122" fill="none" xmlns="http://www.w3.org/2000/svg">
<path d="M120.341 34.7432L119.214 10.8876L104.001 30.7546L94.7487 21.884L83.6443 57.3891L69.5257 17.369L60.7963 30.0384L35.5279 13.917L44.8813 42.4268L30.4696 47.7694L65.6954 71.3643L28.605 73.3688L34.9013 84.5399L11.9219 94.3975L34.7194 101.388L30.8107 112.252L68.4746 104.278L70.5111 119.931L94.5895 96.3108C94.5895 96.3108 95.6684 94.7568 97.533 97.1637C99.4001 99.5705 113.754 121.568 113.754 121.568L120.335 116.446C120.335 116.446 102.601 97.0776 100.734 94.6708C98.867 92.264 100.636 91.6034 100.636 91.6034L129.436 74.0698L114.8 68.2261L131.821 33.6398L120.346 34.7483L120.341 34.7432Z" fill="#CCC292"/>
<path d="M109.079 23.8556L107.952 0L92.7393 19.867L83.4869 10.9965L72.3826 46.5015L58.264 6.48146L49.5346 19.1508L24.2661 3.02941L33.6196 31.5392L19.2079 36.8818L54.4336 60.4768L17.3433 62.4812L23.6395 73.6523L0.660156 83.5099L23.4576 90.5L19.549 101.367L57.2129 93.3928L59.2468 109.043L83.3253 85.4232C83.3253 85.4232 84.4041 83.8693 86.2687 86.2761C88.1359 88.6829 102.489 110.681 102.489 110.681L109.071 105.558C109.071 105.558 91.3371 86.19 89.4699 83.7832C87.6028 81.3764 89.3739 80.7158 89.3739 80.7158L118.172 63.1822L103.533 57.3385L120.555 22.7522L109.076 23.8607L109.079 23.8556Z" fill="#FFF3B6"/>
<path d="M73.0793 80.7007C59.0996 91.5807 58.7358 103.617 59.0642 107.641L59.2462 109.038L83.3246 85.4181C83.3246 85.4181 84.4034 83.8642 86.2681 86.271C88.1352 88.6778 102.489 110.676 102.489 110.676L109.071 105.553C109.071 105.553 91.3364 86.185 89.4693 83.7782C87.6021 81.3713 89.3732 80.7108 89.3732 80.7108L118.171 63.1772L103.532 57.3335L120.554 22.7471L109.076 23.8556L107.949 0L92.7362 19.867L83.4838 10.9965C114.462 50.933 90.1691 67.3961 73.0742 80.7007H73.0793Z" fill="#E6DBA4"/>
</svg>
