<svg width="103" height="105" viewBox="0 0 103 105" fill="none" xmlns="http://www.w3.org/2000/svg">
<path d="M90.4935 49.8126L96.0135 35.3093L81.7972 43.1903L78.5888 35.5013L62.76 53.7645L64.7396 26.2542L56.2513 31.5322L45.3873 15.3618L43.5576 34.7727L33.5864 34.2087L48.4427 57.4173L25.8323 48.9711L26.6828 57.2624L10.4382 57.1599L22.2015 67.2496L17.0526 72.7071L41.5547 77.7478L38.7045 87.5994L59.1751 79.7896C59.1751 79.7896 60.2196 79.143 60.7061 81.0635C61.1932 82.9816 64.0315 99.8152 64.0315 99.8152L69.2807 98.4742C69.2807 98.4742 63.7468 82.3275 63.2597 80.4094C62.7726 78.4914 63.9983 78.5575 63.9983 78.5575L85.7011 75.5993L78.4989 68.3123L97.6128 52.1361L90.491 49.8121L90.4935 49.8126Z" fill="#CCC292"/>
<path d="M86.6125 40.3997L92.1325 25.8964L77.9168 33.7749L74.7084 26.0859L58.8796 44.3491L60.8587 16.8412L52.3728 22.1198L41.5093 5.94698L39.6791 25.3603L29.7085 24.7939L44.5642 48.0049L21.9539 39.5588L22.8043 47.85L6.55968 47.7476L18.323 57.8372L13.1747 63.2922L37.6767 68.333L34.8266 78.1846L55.2978 70.3723C55.2978 70.3723 56.3417 69.7282 56.8288 71.6462C57.3159 73.5643 60.1536 90.4004 60.1536 90.4004L65.4028 89.0594C65.4028 89.0594 59.8689 72.9126 59.3818 70.9946C58.8947 69.0765 60.1209 69.1402 60.1209 69.1402L81.8237 66.182L74.6215 58.895L93.7359 42.7164L86.6136 40.3948L86.6125 40.3997Z" fill="#FFF3B6"/>
<path d="M50.4185 64.9013C39.2692 67.7479 35.9289 74.822 35.0791 77.3052L34.8234 78.1868L55.2945 70.3745C55.2945 70.3745 56.3385 69.7303 56.8256 71.6484C57.3126 73.5664 60.1504 90.4026 60.1504 90.4026L65.3996 89.0616C65.3996 89.0616 59.8656 72.9148 59.3785 70.9968C58.8915 69.0787 60.1177 69.1424 60.1177 69.1424L81.8205 66.1842L74.6183 58.8972L93.7327 42.7185L86.6104 40.397L92.1304 25.8936L77.9147 33.7722L74.7063 26.0831C82.7914 57.9247 64.0506 61.4158 50.4172 64.8958L50.4185 64.9013Z" fill="#E6DBA4"/>
</svg>
