<svg width="614" height="432" viewBox="0 0 614 432" fill="none" xmlns="http://www.w3.org/2000/svg">
<g clip-path="url(#clip0_390_2)">
<path d="M167.047 350.5L461.994 344L501.28 382L320.564 400L152.541 374.5L167.047 350.5Z" fill="#141414"/>
<path d="M34.5668 199.333C55.186 148.105 93.3594 104.368 118.094 81.629C133.14 67.8013 199.971 6.36648 309.24 5.21269C420.202 4.04115 490.933 65.9553 513.16 88.179C535.665 110.669 583.612 150.182 598.873 197.327C650.528 356.87 386.229 354.154 356.286 356.497C332.667 358.343 310.783 358.29 310.783 358.29C310.783 358.29 287.934 357.775 266.544 357.083C249.782 356.533 -29.6057 358.787 34.5668 199.333Z" fill="#B0794E"/>
<path d="M102.98 332.793C246.278 341.428 363.153 341.428 536.939 322C514.581 366.612 270.669 402.589 102.98 332.793Z" fill="#A86E41"/>
<path d="M130.242 504.414L501.884 504.414C501.884 476.611 537.415 342.903 519.476 351.414C505.125 358.223 462.413 367.631 406.914 376.643C346.679 386.423 328.574 385.081 307.69 385.654C197.372 377.644 149.302 366.62 130.242 358.279C97.728 344.051 132.485 483.387 130.242 504.414Z" fill="#141414"/>
<path d="M75.0771 136.236C50.728 133.662 33.1307 120.314 32.3162 105.563C31.3945 88.611 52.7857 73.0083 64.703 74.8898C82.6005 77.7122 81.7002 120.26 81.5502 125.426" fill="#362118"/>
<path d="M539.459 136.236C563.808 133.662 581.405 120.314 582.22 105.563C583.141 88.611 561.75 73.0083 549.833 74.8898C531.935 77.7122 532.836 120.26 532.986 125.426" fill="#362118"/>
<path d="M226.364 185.564C230.577 166.888 224.739 150.317 213.323 148.552C201.908 146.786 189.238 160.495 185.025 179.171C180.812 197.847 186.651 214.417 198.066 216.183C209.482 217.948 222.151 204.24 226.364 185.564Z" fill="#1F1514"/>
<path d="M417.682 216.142C429.098 214.377 434.937 197.805 430.725 179.129C426.513 160.453 413.844 146.745 402.429 148.511C391.013 150.277 385.174 166.848 389.386 185.524C393.598 204.2 406.267 217.908 417.682 216.142Z" fill="#1F1514"/>
<path d="M404.937 334.184C388.39 358.521 341.643 360.615 318.087 361.254C295.796 361.84 245.942 361.343 224.787 335.782C209.804 317.694 214.241 300.547 217.07 295.062C229.845 270.478 265.768 249.07 309.664 248.999C362.605 248.893 391.669 279.903 395.849 284.518C401.293 290.518 419.512 312.777 404.958 334.202L404.937 334.184Z" fill="#6B594D"/>
<path d="M400.933 331.806C384.386 356.142 337.639 358.236 314.084 358.875C291.792 359.461 241.938 358.964 220.783 333.403C205.801 315.315 210.237 298.168 213.067 292.683C225.841 268.099 261.764 246.691 305.66 246.62C358.601 246.514 387.665 277.524 391.845 282.139C397.289 288.139 415.508 310.398 400.954 331.823L400.933 331.806Z" fill="#746155"/>
<path d="M272.803 280.086C278.912 270.749 297.902 270.288 306.54 270.075C314.684 269.88 335.046 269.365 342.763 279.216C348.207 286.192 344.177 294.287 343.106 296.381C338.39 305.825 325.187 314.008 309.112 313.99C289.714 313.972 279.126 302.008 277.604 300.233C275.632 297.908 267.423 288.305 272.803 280.086Z" fill="#1F1514"/>
<path d="M244.617 318.865C247.662 318.865 247.662 314.942 244.617 314.942C241.573 314.942 241.573 318.865 244.617 318.865Z" fill="#1F1514"/>
<path d="M253.105 338.905C256.149 338.905 256.149 334.982 253.105 334.982C250.061 334.982 250.061 338.905 253.105 338.905Z" fill="#1F1514"/>
<path d="M371.719 315.848C374.764 315.848 374.764 311.925 371.719 311.925C368.675 311.925 368.654 315.848 371.719 315.848Z" fill="#1F1514"/>
<path d="M364.453 339.918C367.497 339.918 367.497 335.995 364.453 335.995C361.409 335.995 361.409 339.918 364.453 339.918Z" fill="#1F1514"/>
<path d="M387.451 332.889C390.496 332.889 390.496 328.966 387.451 328.966C384.407 328.966 384.386 332.889 387.451 332.889Z" fill="#1F1514"/>
<path d="M226.463 325.877C229.507 325.877 229.507 321.954 226.463 321.954C223.419 321.954 223.419 325.877 226.463 325.877Z" fill="#1F1514"/>
<path d="M383.55 291.103C392.059 283.577 470.892 240.905 506.322 251.005" stroke="#1F1514" stroke-miterlimit="10"/>
<path d="M395.21 297.813C405.862 292.31 524.476 259.187 556.348 276.423" stroke="#1F1514" stroke-miterlimit="10"/>
<path d="M395.531 303.511C406.291 299.606 544.581 280.844 573.795 292.523" stroke="#1F1514" stroke-miterlimit="10"/>
<path d="M238.98 285.051C230.471 277.524 151.638 234.852 116.208 244.952" stroke="#1F1514" stroke-miterlimit="10"/>
<path d="M232.357 291.352C221.854 285.832 104.976 252.319 73.7261 269.43" stroke="#1F1514" stroke-miterlimit="10"/>
<path d="M232.357 299.357C220.912 295.292 73.7264 276.122 42.5189 288.583" stroke="#1F1514" stroke-miterlimit="10"/>
<path d="M215.939 174.02C220.828 174.02 224.792 172.002 224.792 169.512C224.792 167.022 220.828 165.003 215.939 165.003C211.05 165.003 207.086 167.022 207.086 169.512C207.086 172.002 211.05 174.02 215.939 174.02Z" fill="white"/>
<path d="M414.886 174.34C419.776 174.34 423.739 172.321 423.739 169.831C423.739 167.341 419.776 165.322 414.886 165.322C409.997 165.322 406.034 167.341 406.034 169.831C406.034 172.321 409.997 174.34 414.886 174.34Z" fill="white"/>
<path d="M326.93 282.26C330.446 282.26 333.297 281.306 333.297 280.13C333.297 278.954 330.446 278 326.93 278C323.414 278 320.564 278.954 320.564 280.13C320.564 281.306 323.414 282.26 326.93 282.26Z" fill="white"/>
<g filter="url(#filter0_d_390_2)">
<path d="M545.712 113C519.248 83.8541 477.117 65 429.661 65H197.572C150.116 65 107.985 83.8541 81.5212 113H48.5842V257H81.5212C107.985 286.146 150.116 305 197.572 305H255.594L314.972 266.869L371.639 305H429.661C477.118 305 519.248 286.146 545.712 257H576.615V113H545.712Z" fill="black"/>
<path d="M490.636 123.99C470.468 101.79 438.358 87.4297 402.19 87.4297H225.306C189.138 87.4297 157.029 101.79 136.86 123.99H106.878V233.673H136.86C157.029 255.873 189.138 270.233 225.306 270.233H269.527L314.972 241.075L357.969 270.233H402.19C438.359 270.233 470.468 255.873 490.636 233.673H514.189V123.99H490.636Z" fill="#1B1B1B"/>
<path d="M255.39 184.44C255.39 210.355 229.701 232.589 196.352 232.589C163.003 232.589 137.313 210.355 137.313 184.44C137.313 158.524 163.003 136.29 196.352 136.29C229.701 136.29 255.39 158.524 255.39 184.44Z" fill="url(#paint0_linear_390_2)" stroke="#212121" stroke-width="8"/>
<path d="M485.853 184.44C485.853 210.355 460.164 232.589 426.814 232.589C393.465 232.589 367.776 210.355 367.776 184.44C367.776 158.524 393.465 136.29 426.814 136.29C460.164 136.29 485.853 158.524 485.853 184.44Z" fill="url(#paint1_linear_390_2)" stroke="#212121" stroke-width="8"/>
</g>
<g filter="url(#filter1_d_390_2)">
<path d="M130.783 465L130.783 504C130.783 504 28.546 497 28.546 356.25C28.5461 299.651 36.4964 179.999 36.4964 179.999C62.2611 133.25 93.4422 252.255 107.706 301.179L130.783 465Z" fill="#A86E41"/>
</g>
<g filter="url(#filter2_d_390_2)">
<path d="M502.675 454.142L502.675 503.5C502.675 503.5 613.094 503.501 604.912 345.392C601.986 288.845 596.962 169.142 596.962 169.142C571.197 122.392 540.016 241.397 525.752 290.321L502.675 454.142Z" fill="#A86E41"/>
</g>
<path d="M432.599 548L446.28 398L389.452 400L321.048 401L234.754 400L177.926 398L210.549 541L432.599 548Z" fill="#1C1C1C"/>
</g>
<defs>
<filter id="filter0_d_390_2" x="44.5842" y="65" width="536.031" height="254" filterUnits="userSpaceOnUse" color-interpolation-filters="sRGB">
<feFlood flood-opacity="0" result="BackgroundImageFix"/>
<feColorMatrix in="SourceAlpha" type="matrix" values="0 0 0 0 0 0 0 0 0 0 0 0 0 0 0 0 0 0 127 0" result="hardAlpha"/>
<feOffset dy="10"/>
<feGaussianBlur stdDeviation="2"/>
<feComposite in2="hardAlpha" operator="out"/>
<feColorMatrix type="matrix" values="0 0 0 0 0 0 0 0 0 0 0 0 0 0 0 0 0 0 0.25 0"/>
<feBlend mode="normal" in2="BackgroundImageFix" result="effect1_dropShadow_390_2"/>
<feBlend mode="normal" in="SourceGraphic" in2="effect1_dropShadow_390_2" result="shape"/>
</filter>
<filter id="filter1_d_390_2" x="28.546" y="165.323" width="121.237" height="342.677" filterUnits="userSpaceOnUse" color-interpolation-filters="sRGB">
<feFlood flood-opacity="0" result="BackgroundImageFix"/>
<feColorMatrix in="SourceAlpha" type="matrix" values="0 0 0 0 0 0 0 0 0 0 0 0 0 0 0 0 0 0 127 0" result="hardAlpha"/>
<feOffset dx="15"/>
<feGaussianBlur stdDeviation="2"/>
<feComposite in2="hardAlpha" operator="out"/>
<feColorMatrix type="matrix" values="0 0 0 0 0 0 0 0 0 0 0 0 0 0 0 0 0 0 0.25 0"/>
<feBlend mode="normal" in2="BackgroundImageFix" result="effect1_dropShadow_390_2"/>
<feBlend mode="normal" in="SourceGraphic" in2="effect1_dropShadow_390_2" result="shape"/>
</filter>
<filter id="filter2_d_390_2" x="483.675" y="154.466" width="121.67" height="353.034" filterUnits="userSpaceOnUse" color-interpolation-filters="sRGB">
<feFlood flood-opacity="0" result="BackgroundImageFix"/>
<feColorMatrix in="SourceAlpha" type="matrix" values="0 0 0 0 0 0 0 0 0 0 0 0 0 0 0 0 0 0 127 0" result="hardAlpha"/>
<feOffset dx="-15"/>
<feGaussianBlur stdDeviation="2"/>
<feComposite in2="hardAlpha" operator="out"/>
<feColorMatrix type="matrix" values="0 0 0 0 0 0 0 0 0 0 0 0 0 0 0 0 0 0 0.25 0"/>
<feBlend mode="normal" in2="BackgroundImageFix" result="effect1_dropShadow_390_2"/>
<feBlend mode="normal" in="SourceGraphic" in2="effect1_dropShadow_390_2" result="shape"/>
</filter>
<linearGradient id="paint0_linear_390_2" x1="196.352" y1="132.29" x2="196.352" y2="236.589" gradientUnits="userSpaceOnUse">
<stop stop-color="#4B0000"/>
<stop offset="1" stop-color="#8B0000"/>
</linearGradient>
<linearGradient id="paint1_linear_390_2" x1="426.814" y1="132.29" x2="426.814" y2="236.589" gradientUnits="userSpaceOnUse">
<stop stop-color="#4B0000"/>
<stop offset="1" stop-color="#8B0000"/>
</linearGradient>
<clipPath id="clip0_390_2">
<rect width="614" height="432" fill="white"/>
</clipPath>
</defs>
</svg>
