<svg width="262" height="145" viewBox="0 0 262 145" fill="none" xmlns="http://www.w3.org/2000/svg">
<path d="M252.695 72.65C252.452 73.0155 252.302 73.4255 252.03 73.7546C250.486 75.8388 248.612 77.6523 246.767 79.5021C245.677 80.5877 244.586 81.6732 243.523 82.7952C243.296 83.031 243.219 83.3839 243.086 83.664C243.049 83.6925 242.984 83.6845 242.919 83.6766C242.526 83.925 242.104 84.1371 241.711 84.3856C241.544 84.3982 241.406 84.4472 241.24 84.4598C240.668 85.0817 240.154 85.7764 239.46 86.3176C236.094 89.0029 232.578 91.571 228.823 93.6817C225.14 95.7354 221.238 97.433 217.121 98.4784C212.728 99.6219 208.238 99.9628 203.722 99.4444C201.97 99.2304 200.27 98.8582 198.578 98.4211C197.239 98.0599 195.9 97.6988 194.659 97.0861C192.139 95.889 189.619 94.692 187.225 93.2798C185.233 92.0813 183.411 90.5741 181.544 89.1604C181.366 89.0068 181.232 88.76 181.061 88.5415C180.55 87.8862 179.929 87.3163 179.454 86.6325C178.914 85.9407 178.289 85.1397 178.126 84.3293C177.899 82.9839 177.213 83.4602 176.524 83.7054C176.487 83.7338 176.422 83.726 176.321 83.7465C176.211 83.832 176.138 83.8889 176.057 84.0108C175.948 84.0962 175.875 84.1533 175.765 84.2387C175.583 84.3811 175.364 84.552 175.153 84.658C175.08 84.715 175.015 84.707 174.914 84.7276C174.025 85.245 173.166 85.7987 172.277 86.3161C170.777 87.2528 169.24 88.218 167.739 89.1547C167.739 89.1547 167.703 89.1832 167.666 89.2117C166.519 90.7515 164.73 91.62 163.676 93.2042C163.433 93.5697 163.182 94.0002 162.886 94.524L158.588 91.1995C160.008 90.3847 161.435 89.5049 162.855 88.6901C163.99 88.0382 165.098 87.3499 166.27 86.6696C167.121 86.1807 167.912 85.3879 168.853 85.2393C169.628 85.1033 169.758 84.592 170.195 84.2502C170.232 84.2217 170.333 84.2013 170.398 84.2092C170.784 84.0257 171.169 83.8421 171.546 83.7234C171.692 83.6095 171.838 83.4956 171.984 83.3816C174.174 82.7268 176.02 81.404 178.104 80.5386C178.591 80.3346 179.07 80.1954 179.585 80.0277C179.658 79.9707 179.694 79.9422 179.796 79.9217C180.834 79.5214 181.844 79.0848 182.882 78.6846C182.919 78.6561 182.984 78.664 183.049 78.6719C183.049 78.6719 182.992 78.5991 182.963 78.5627C182.704 78.531 182.416 78.4629 182.156 78.4312C181.99 78.4438 181.823 78.4565 181.694 78.4406C181.296 78.458 180.899 78.4753 180.501 78.4926C180.335 78.5053 180.168 78.518 180.039 78.5021C179.641 78.5194 179.28 78.5082 178.716 78.5382C179.389 76.8416 179.737 75.1054 181.347 74.0832C181.319 74.0468 181.327 73.982 181.306 73.8807C181.269 72.8551 182.028 72.3219 182.721 71.7807C182.831 71.6952 182.94 71.6097 183.013 71.5528C183.439 71.0448 183.8 70.5289 184.282 70.0938C185.702 68.7519 187.234 67.5557 188.966 66.6143C191.331 65.3549 193.841 64.5085 196.421 63.9013C202.189 62.5633 208.011 62.6483 213.755 63.6132C218.34 64.3706 222.904 65.5538 227.395 66.7939C232.649 68.2589 237.919 69.5942 243.416 69.6395C247.534 69.6482 251.558 69.0854 255.253 67.1979C256.271 66.6964 257.22 65.9558 258.217 65.353C258.363 65.239 258.595 65.2343 258.911 65.3388L253.523 72.3557C253.523 72.3557 253.109 72.5028 252.935 72.5804L252.695 72.65ZM183.949 78.3208C183.949 78.3208 183.986 78.2922 184.022 78.2638C184.022 78.2638 183.986 78.2923 183.921 78.2843C183.921 78.2843 183.884 78.3128 183.848 78.3413C183.848 78.3413 183.884 78.3128 183.921 78.2843L183.949 78.3208Z" fill="#FFF3B6"/>
<path d="M165.602 44.229C165.185 44.3676 164.815 44.5985 164.398 44.6909C161.898 45.3836 159.306 45.6607 156.713 45.984C155.185 46.1687 153.657 46.3535 152.13 46.5844C151.806 46.6306 151.528 46.8615 151.25 47C151.204 47 151.157 46.9537 151.111 46.9075C150.648 46.8614 150.185 46.7691 149.722 46.7229C149.583 46.6306 149.444 46.5843 149.305 46.4919C148.472 46.6305 147.639 46.8615 146.759 46.8615C142.454 46.9076 138.102 46.7691 133.843 46.1225C129.676 45.476 125.556 44.4138 121.667 42.7051C117.5 40.9039 113.75 38.41 110.509 35.2234C109.259 33.9765 108.148 32.6372 107.083 31.2518C106.25 30.1434 105.417 29.035 104.815 27.7881C103.565 25.2942 102.315 22.8003 101.296 20.2141C100.463 18.0435 99.9538 15.7344 99.3519 13.4715C99.3056 13.2406 99.3519 12.9636 99.3519 12.6865C99.3519 11.8552 99.213 11.0238 99.2593 10.1926C99.2593 9.3151 99.2593 8.29905 99.6297 7.56013C100.278 6.35939 99.4445 6.31317 98.7501 6.08226C98.7038 6.08226 98.6574 6.03613 98.5648 5.98994C98.426 5.98994 98.3334 5.98999 98.1945 6.03617C98.0556 6.03617 97.963 6.03617 97.8241 6.03617C97.5926 6.03617 97.3148 6.03613 97.0833 5.98994C96.9907 5.98994 96.9445 5.94381 96.8519 5.89763C95.8334 5.75908 94.8149 5.66664 93.7963 5.52809C92.0371 5.34336 90.2316 5.15865 88.4723 4.97392C88.4723 4.97392 88.4259 4.97392 88.3796 4.97392C86.5278 5.48193 84.5834 5.06626 82.7778 5.66663C82.3611 5.80518 81.8982 5.98989 81.3426 6.2208L80 0.95607C81.6204 1.18698 83.287 1.37164 84.9074 1.60255C86.2037 1.78728 87.5 1.9259 88.8426 2.11063C89.8148 2.24918 90.926 2.11066 91.7593 2.57248C92.4537 2.94194 92.8705 2.61857 93.426 2.61857C93.4723 2.61857 93.5648 2.66484 93.6111 2.71103C94.0278 2.80339 94.4445 2.89565 94.8149 3.0342C95 3.0342 95.1852 3.0342 95.3704 3.0342C97.5 3.86548 99.7686 3.95792 101.945 4.5583C102.454 4.69684 102.917 4.88151 103.426 5.06624C103.518 5.06624 103.565 5.06628 103.657 5.11246C104.722 5.43574 105.787 5.71289 106.852 6.03617C106.898 6.03617 106.944 6.0823 106.991 6.12848C106.991 6.12848 106.991 6.03613 106.991 5.98994C106.806 5.80521 106.62 5.57428 106.435 5.38955C106.296 5.29718 106.157 5.20483 106.065 5.11246C105.741 4.88155 105.417 4.65067 105.093 4.41976C104.954 4.32739 104.815 4.23504 104.722 4.14267C104.398 3.91176 104.12 3.68078 103.657 3.35751C105.232 2.43386 106.574 1.27928 108.472 1.46401C108.472 1.41783 108.519 1.37175 108.565 1.27938C109.167 0.448096 110.093 0.494217 110.972 0.494217C111.111 0.494217 111.25 0.494217 111.343 0.494217C111.991 0.355669 112.593 0.171001 113.241 0.124819C115.185 -0.0599111 117.13 -0.0599167 119.074 0.263361C121.713 0.725185 124.213 1.60265 126.62 2.71103C131.991 5.20488 136.528 8.8532 140.463 13.1482C143.611 16.5657 146.482 20.3065 149.259 24.0473C152.5 28.4346 155.833 32.7296 160.139 36.1471C163.38 38.6871 166.898 40.7192 170.972 41.5043C172.083 41.7352 173.287 41.7351 174.444 41.8737C174.63 41.8737 174.815 42.0122 175 42.2893L166.435 44.5061C166.435 44.5061 166.018 44.3675 165.833 44.3213L165.602 44.229ZM107.917 6.40557C107.917 6.40557 107.963 6.40557 108.009 6.40557C108.009 6.40557 107.963 6.40552 107.917 6.35934C107.917 6.35934 107.87 6.35934 107.824 6.35934C107.824 6.35934 107.87 6.35934 107.917 6.35934V6.40557Z" fill="#FFF3B6"/>
<path d="M85.0542 72.8781C84.9313 73.2996 84.9107 73.7357 84.7497 74.1309C83.8982 76.5814 82.6521 78.8718 81.444 81.1883C80.7274 82.5502 80.0108 83.912 79.3321 85.3001C79.1858 85.593 79.2179 85.9528 79.1739 86.26C79.1476 86.2981 79.0832 86.3099 79.0189 86.3217C78.7177 86.6763 78.3785 87.0048 78.0773 87.3594C77.9223 87.4211 77.8053 87.5091 77.6504 87.5708C77.2905 88.3351 77.0068 89.1519 76.5067 89.8756C74.0967 93.4438 71.5085 96.945 68.5549 100.081C65.6541 103.141 62.4376 105.927 58.8209 108.155C54.9702 110.558 50.7865 112.225 46.3225 113.08C44.586 113.399 42.8526 113.552 41.1075 113.64C39.7219 113.695 38.3363 113.75 36.9683 113.537C34.2061 113.147 31.4438 112.757 28.7371 112.125C26.4777 111.576 24.2887 110.682 22.0849 109.891C21.8686 109.798 21.6671 109.602 21.4391 109.445C20.7553 108.972 19.9924 108.614 19.3348 108.103C18.613 107.604 17.7772 107.026 17.3799 106.301C16.7606 105.086 16.2488 105.745 15.664 106.185C15.6377 106.223 15.5734 106.235 15.4827 106.285C15.4038 106.399 15.3512 106.475 15.3102 106.616C15.2313 106.73 15.1786 106.806 15.0996 106.92C14.968 107.111 14.81 107.339 14.6404 107.503C14.5878 107.58 14.5235 107.591 14.4329 107.641C13.7398 108.4 13.0847 109.186 12.3916 109.945C11.2394 111.287 10.0609 112.667 8.90874 114.01C8.90874 114.01 8.88237 114.048 8.85605 114.086C8.22108 115.898 6.77363 117.261 6.24096 119.088C6.11804 119.51 6.00677 119.995 5.88087 120.584L0.786506 118.695C1.89773 117.493 2.99723 116.227 4.10846 115.025C4.99744 114.064 5.84851 113.077 6.76381 112.077C7.43055 111.356 7.94834 110.363 8.80205 109.94C9.50081 109.579 9.47173 109.052 9.7876 108.595C9.81392 108.557 9.90457 108.507 9.96888 108.496C10.2818 108.205 10.5946 107.915 10.9191 107.689C11.0244 107.537 11.1297 107.384 11.235 107.232C13.1297 105.953 14.4955 104.139 16.2265 102.69C16.6301 102.35 17.0451 102.075 17.4866 101.761C17.5393 101.684 17.5657 101.646 17.6563 101.596C18.5277 100.904 19.3611 100.186 20.2324 99.4937C20.2588 99.4556 20.323 99.4437 20.3873 99.4319C20.3873 99.4319 20.3114 99.3794 20.2734 99.3531C20.0161 99.4005 19.7209 99.4215 19.4636 99.4688C19.3087 99.5305 19.1537 99.5923 19.025 99.616C18.6508 99.7513 18.2767 99.8866 17.9024 100.022C17.7475 100.084 17.5925 100.145 17.4639 100.169C17.0897 100.304 16.7418 100.402 16.2126 100.599C16.3477 98.7786 16.1613 97.0176 17.3925 95.5611C17.3545 95.5349 17.3428 95.4706 17.2932 95.38C16.9515 94.4123 17.5159 93.6769 18.016 92.9532C18.095 92.839 18.174 92.7247 18.2266 92.6485C18.4811 92.0365 18.6714 91.4364 19.0019 90.8769C19.9555 89.1723 21.061 87.5728 22.4324 86.157C24.3127 84.2487 26.4559 82.691 28.7365 81.3407C33.8414 78.3407 39.4222 76.6827 45.1928 75.8873C49.7941 75.2406 54.5035 75.0061 59.1602 74.8478C64.6119 74.6763 70.0402 74.3761 75.2996 72.7772C79.2317 71.5554 82.9039 69.8162 85.8661 66.911C86.6877 66.1282 87.3721 65.138 88.1441 64.2646C88.2494 64.1123 88.4686 64.0387 88.8019 64.0439L85.7559 72.3501C85.7559 72.3501 85.405 72.6141 85.2617 72.7402L85.0542 72.8781ZM21.1417 98.8278C21.1417 98.8278 21.168 98.7897 21.1944 98.7516C21.1944 98.7516 21.168 98.7897 21.1036 98.8015C21.1036 98.8015 21.0773 98.8396 21.051 98.8777C21.051 98.8777 21.0773 98.8396 21.1036 98.8015L21.1417 98.8278Z" fill="#FFF3B6"/>
</svg>
