<!-- Generator: Adobe Illustrator 26.4.0, SVG Export Plug-In . SVG Version: 6.00 Build 0)  -->
<svg width="1920" height="1590" id="Layer_1" xmlns="http://www.w3.org/2000/svg" viewBox="0 -10 1920 840.24" style="enable-background:new 0 0 1920 841.3;" xml:space="preserve">
<style type="text/css">
	.st0{opacity:0.14;fill:#DD484D;enable-background:new    ;}
	.st1{opacity:0.25;fill:#EA885E;enable-background:new    ;}
	.st2{fill:#F6BF6F;}
	.st3{fill:#F8CC8D;}
	.st4{fill:#EA885E;}
	.st5{fill:#D06A57;}
	.st6{fill:#640718;}
	.st7{fill:#DD484D;}
	.st8{fill:#C12127;}
	.st9{fill:#841618;}
	.st10{fill:none;stroke:#640718;stroke-miterlimit:10;}
	.st11{fill:#84010B;}
	.st12{fill:#C11F25;}
	.st13{fill:#E08F92;}
	.st14{fill:#EEE4D4;}
	.st15{fill:#FAD9D9;}
	.st16{fill:#9A191E;}
	.st17{fill:#C7353B;}
	.st18{fill:#C11F25;stroke:#84010B;}
	.st19{fill:none;stroke:#C11F25;}
	.st20{fill:#931E22;}
	.st21{fill:#E9AEB1;}
	.st22{fill:#E08F92;stroke:#84010B;}
	.st23{fill:#84010B;stroke:#9A191E;stroke-width:4;}
</style>
<g>
	<path class="st0" d="M739.8,361.9c34-107.7,142.5-178.1,257.7-153.5c106.1,22.7,176.6,108.4,176.3,209.4L903.3,513L739.8,361.9
		L739.8,361.9z"/>
	<path class="st1" d="M768.5,369.9L938.1,499l197.3-65.7v-16.1c0.1-82.7-58-152.9-145.4-171.6C895.1,225.4,796.4,281.7,768.5,369.9z
		"/>
	<path class="st2" d="M807.7,389.9c21.6-68.5,97.6-112.4,170.5-96.8c67.2,14.4,111.8,68.8,111.6,133l-151.7,44.4L807.7,389.9
		L807.7,389.9z"/>
	<path class="st3" d="M852.9,409.2c15.9-52.2,66.4-81.7,115.7-71.2c45.4,9.7,74.7,50.1,73.4,98.8l-105,39.5L852.9,409.2L852.9,409.2
		z"/>
	<path class="st3" d="M1466,360.5c-46.7,34-60.7,76.7-60.7,76.7v167.3H1920V315.9h-296C1597.3,315.9,1512.7,326.5,1466,360.5z"/>
	<path class="st4" d="M487.3,275.9C299.1,229.5,0,210.5,0,210.5v300h977.3v-53.3C977.3,457.2,684.3,324.4,487.3,275.9z"/>
	<path class="st2" d="M1245.3,410.5c-218.7-3.3-372,98.7-372,98.7v190h1046v-104c-142-69.3-326.7-122-326.7-122s-55.3-17.2-146-35.3
		C1391.9,426.9,1327.7,411.8,1245.3,410.5z"/>
	<path class="st5" d="M1092.7,607.2c-69.3-22.7-225.3-102-258.7-120.7c-33.3-18.7-103.9-46.9-188.7-67.3
		c-88-21.2-184.7-25.3-224-23.1c-39.3,2.2-98,3.1-120,4.7c-22,1.5-40.7,3.1-40.7,3.1s-65.3,6.7-100,14.2s-81.3,24.7-81.3,24.7
		L0,472.1v369.1h1918.7V698.1c0,0-66.7-24-128-32.7l-6.1-0.9c-57.7-8.2-93.2-13.2-149.9-14.5c-58.7-1.3-155.7-1.3-155.7-1.3
		s-95.3,6-155.7-1.3C1222.7,635.2,1162,629.9,1092.7,607.2z"/>
	<path class="st6" d="M1845.6,363.9l1.9-38.1l-11.8-18.9l11.8,14.1v-39.1l2.3,28.9l9.9-9.9l-8.4,13.7l1.2,47.7L1845.6,363.9z"/>
	<path class="st7" d="M1771.9,472.5c6.5-8.1,10.4-18.5,10.4-29.8c0-26.2-21.2-47.5-47.3-47.5c-26.1,0-47.3,21.3-47.3,47.5
		c0,12.2,4.6,23.3,12.1,31.8c-30.2,16.3-53.6,50-53.6,83.8c0,42.1,37.2,77.6,78.7,82.5l5.5-70.2l-34.8-57.1l34.8,37.1l6.4-99.7
		l4.3,61.5l28.3-29.6l-26.2,47.4l7.3,109.4c39.1-8.9,73.2-49.1,73.2-89.2l0,0C1823.8,518.2,1801.7,486.8,1771.9,472.5z"/>
	<path class="st6" d="M1718.8,719.5l11.7-148.9l-34.8-57.1l34.8,37.1l6.4-99.7l4.3,61.5l28.3-29.6l-26.2,47.4l12.6,188.5
		L1718.8,719.5z"/>
	<path class="st4" d="M1717.5,244.2c0,0-10-1.8-19.7,20.1c0,0-10.5,23.4-5.1,39.4c0,0,6.5,14.3,21.1,15.6c0,0,15.9,1,23.6-9.3
		c0,0,9.3-11.4,4-29.2C1741.4,280.8,1732.5,244.1,1717.5,244.2z"/>
	<path class="st6" d="M1712.8,335l1.8-38l-7.2-15.2l8.4,8.7v-26.2l2.7,15.9l6.3-7.5l-5.7,12.6l1.5,49.6H1712.8z"/>
	<path class="st8" d="M1584.5,467.7c0,0-31.4,0.7-38.2-27.6c0,0-2.3-32.3,10.4-71.6c0,0,16.5-77.5,29-85.1c0,0,14.3,2.4,29.8,91
		c0,0,13.4,46.3,7.4,68.4C1622.9,442.9,1617.3,466.1,1584.5,467.7L1584.5,467.7z"/>
	<path class="st6" d="M1577.3,503.7l4.8-79.7l-16.4-26.5l16.4,14.7l3.2-85.6l3.1,64.3l15-15.3l-14.4,26.5l5.7,105.9L1577.3,503.7z"
		/>
	<path class="st4" d="M1356,361.3c0,0-31.2-5.6-60.9,62.3c0,0-32.5,72.3-15.9,122c0,0,20.1,44.1,65.5,48.3c0,0,49.3,3.1,73-28.9
		c0,0,28.9-35.3,12.5-90.3C1430.1,474.7,1402.5,360.8,1356,361.3L1356,361.3z"/>
	<path class="st6" d="M1341.3,650.8l7.1-133l-25.7-46.4l25.7,30.2l4.8-81l3.2,49.9l21-24l-19.4,38.5l10.1,165.8H1341.3z"/>
	<path class="st2" d="M1271,385.4c0,0-21.3,0.5-25.9-19.1c0,0-1.6-22.4,7.1-49.5c0,0,11.2-53.6,19.7-58.8c0,0,9.7,1.6,20.2,62.9
		c0,0,9.1,32,5,47.3C1297.1,368.3,1293.3,384.3,1271,385.4z"/>
	<path class="st6" d="M1264.8,412.5l2.8-56.5l-13-19.6l14.2,12.6l1.4-59l2.8,43.7l10.2-10.6l-9.8,18.1l3.6,71.4H1264.8z"/>
	<path class="st9" d="M1105.6,399c0,0-17.3-3-33.9,33.4c0,0-18.1,38.8-8.9,65.5c0,0,11.2,23.7,36.4,26c0,0,27.4,1.7,40.6-15.5
		c0,0,16.1-18.9,6.9-48.5C1146.9,459.9,1131.5,398.7,1105.6,399L1105.6,399z"/>
	<path class="st6" d="M1099.7,546.2l3-62.1l-12.7-28.7l13,16.1l2.7-41.1l1.6,24.6l10.7-11l-10.1,19l4.1,87.7L1099.7,546.2z"/>
	<path class="st2" d="M756.6,407.7c7.1-8.9,11.4-20.2,11.4-32.5c0-28.7-23.2-52-51.8-52c-28.6,0-51.8,23.3-51.8,52
		c0,13.3,5,25.5,13.2,34.7c-33.1,17.8-58.6,54.6-58.6,91.6c0,47.5,43.2,87.2,90.3,90.6l4.2-73.5l-37.2-63.3L714,504l5.2-130.8
		l3.3,98.4l32-35.2l-29.8,51l4.2,103.7c44.5-7.7,84.4-53.1,84.4-98.4C813.3,457.7,789.1,423.4,756.6,407.7z"/>
	<path class="st6" d="M731,640.5l-24-5.6l6.6-116.2l-37.2-63.3L714,504l5.2-130.8l3.3,98.4l32-35.2l-29.8,51L731,640.5z"/>
	<path class="st7" d="M660.4,255.7c0,0-10.1-1.8-19.8,19.6c0,0-10.6,22.7-5.2,38.3c0,0,6.5,13.9,21.3,15.2c0,0,16,1,23.8-9.1
		c0,0,9.4-11.1,4-28.4C684.5,291.3,675.5,255.5,660.4,255.7L660.4,255.7z"/>
	<path class="st6" d="M657,341.8l1.7-36.3l-7.4-16.8l7.6,9.4l1.6-24.1l0.9,14.4l6.3-6.4l-5.9,11.1l2.4,51.3L657,341.8z"/>
	<path class="st9" d="M491.1,88.6c0,0-36-6.2-70.3,69.4c0,0-37.6,80.6-18.4,135.9c0,0,23.2,49.2,75.6,53.9c0,0,56.9,3.5,84.2-32.2
		c0,0,33.4-39.3,14.4-100.7C576.6,215,544.9,88.1,491.1,88.6L491.1,88.6z"/>
	<path class="st6" d="M474.6,400.2l9.6-139.8l-30-52.1l30,35.6l5.6-92.6l3.4,57.1l24-27l-22.8,44.5l9.6,174.4H474.6z"/>
	<path class="st6" d="M329.7,268.3l4.7-61.6l-14.7-27.2l14.7,19.9l2-51.6l2.4,35.9l11.7-11.9l-11.1,19.6l4.7,76.9H329.7z"/>
	<path class="st4" d="M285.2,208.6c0,0-18.5,0.5-22.5-16.7c0,0-1.3-19.5,6.1-43.3c0,0,9.7-46.8,17.1-51.4c0,0,8.4,1.4,17.5,55
		c0,0,7.9,28,4.4,41.4C307.8,193.6,304.5,207.6,285.2,208.6L285.2,208.6z"/>
	<path class="st6" d="M279.2,241.1l4-57.8l-12.6-21.6l12.6,14.7l2.4-53.7l1.4,38.9l10.1-11.2l-9.6,18.4l4,72.2H279.2z"/>
	<path class="st8" d="M153.2,493.9c0,0-82.7,2-100.4-73.8c0,0-6-86.5,27.4-191.6c0,0,43.5-207.2,76.3-227.5c0,0,37.5,6.3,78.3,243.5
		c0,0,35.1,123.7,19.4,182.9C254.3,427.3,239.5,489.6,153.2,493.9z"/>
	<path class="st6" d="M179.1,546.4H142l9-169.6L97,296.2l54.5,51.1l9.6-234l6,174.4l41.9-40.4l-39.6,69.3L179.1,546.4z"/>
	<path class="st4" d="M1856.9,365.9c0,0,0.1-0.1,0.1-0.1c0.3-0.2,0.7-0.3,1-0.5c0.2-0.1,0.4-0.2,0.6-0.3c0,0,0.1-0.1,0.1-0.1
		c0,0,0,0,0,0c0.1,0,0.1,0,0.2,0c0,0,0.1,0,0.1,0c0.1,0,0.2-0.1,0.3-0.2c0.6-0.2,1.1-0.4,1.7-0.5c0.6-0.1,1.2-0.1,1.8,0
		c0.6,0.1,1.2,0.2,1.8,0.5c0.2,0.1,0.4,0.2,0.6,0.4c0.2,0.1,0.3,0.2,0.5,0.4c0.3,0.3,0.5,0.5,0.8,0.9c0.2,0.3,0.4,0.5,0.6,0.8
		c0,0,0,0.1,0,0.1c0.1,0.1,0.1,0.2,0.1,0.3c0,0.1,0.1,0.2,0.1,0.4c0,0.2,0.1,0.2,0.2,0.2c0,0,0,0,0,0c0,0,0,0,0,0c0,0,0,0,0.1,0
		c0,0,0.1,0,0.1,0c0,0,0,0,0,0c0.1,0,0.3,0,0.4-0.1c0.2,0,0.5-0.1,0.7-0.1c0.2-0.1,0.5-0.2,0.7-0.3c0,0,0.1-0.1,0.2-0.1l0.4,0.6
		c-0.2,0-0.5,0.1-0.7,0.1c-0.2,0-0.4,0.1-0.5,0.1c-0.1,0-0.3,0.1-0.4,0.1c-0.1,0-0.1,0-0.2,0.1c0,0,0,0,0,0c-0.1,0-0.1,0-0.2,0
		c0,0-0.1,0-0.1,0c-0.3,0-0.6,0-0.9,0.1c-0.1,0-0.1,0-0.2,0c0,0,0,0,0,0c-0.1,0-0.3,0-0.5,0c0,0,0,0,0,0c0,0,0.1,0,0.1,0
		c0,0,0.1,0,0.1,0c0.1,0,0.1,0,0.1,0c0,0,0.1,0,0.1,0c0,0,0.1,0,0.2,0c-0.2,0.2-0.3,0.4-0.6,0.5c0,0,0,0,0,0
		c-0.1,0.1-0.2,0.2-0.3,0.2c0,0,0,0-0.1,0c-0.1,0-0.1,0.1-0.2,0.1c-0.2,0.1-0.5,0.2-0.8,0.2c-0.4,0-0.7,0-1.1,0
		c-0.8-0.1-1.6-0.4-2.3-0.8c-0.6-0.3-1.1-0.7-1.6-1.1c-0.6-0.5-1.3-0.9-2-1.1c-0.5-0.2-1.1-0.3-1.7-0.3c-0.2,0-0.3,0.1-0.5,0.1
		c0,0-0.1,0-0.1,0L1856.9,365.9C1856.9,365.9,1856.9,365.9,1856.9,365.9L1856.9,365.9z"/>
	<path class="st4" d="M1830.7,352.2c0,0,0.1-0.1,0.1-0.1c0.2-0.2,0.5-0.3,0.8-0.4c0.2-0.1,0.3-0.1,0.5-0.2c0,0,0.1,0,0.1-0.1
		c0,0,0.1,0,0.1,0c0,0,0,0,0.1,0c0.1,0,0.2-0.1,0.3-0.1c0.5-0.1,0.9-0.3,1.4-0.4c0.5-0.1,0.9-0.1,1.4,0c0.5,0,1,0.2,1.4,0.4
		c0.2,0.1,0.3,0.2,0.5,0.3c0.1,0.1,0.2,0.2,0.4,0.3c0.2,0.2,0.4,0.5,0.6,0.7c0.2,0.2,0.3,0.4,0.4,0.6c0,0,0,0,0,0.1
		c0,0.1,0.1,0.2,0.1,0.3c0,0.1,0.1,0.2,0,0.3c0,0.1,0.1,0.1,0.1,0.1c0,0,0,0,0.1,0c0,0,0,0,0,0c0,0,0.1,0,0.1,0c0,0,0,0,0,0
		c0.1,0,0.2,0,0.3-0.1c0.2,0,0.4-0.1,0.6-0.1c0.2-0.1,0.4-0.1,0.6-0.3c0,0,0.1-0.1,0.1-0.1l0.3,0.5c-0.2,0-0.4,0.1-0.5,0.1
		c-0.1,0-0.3,0-0.4,0.1c-0.1,0-0.2,0.1-0.3,0c-0.1,0-0.1,0-0.2,0c0,0-0.1,0-0.1,0h-0.1c-0.3,0-0.5,0-0.7,0.1c0,0-0.1,0-0.2,0
		c0,0,0,0,0,0c-0.1,0-0.2,0-0.4,0c0,0,0.1,0,0.1,0c0,0,0,0,0,0c0.1,0,0.1,0,0.1,0c0,0,0,0,0.1,0c0,0,0.1,0,0.1,0
		c-0.1,0.1-0.2,0.3-0.5,0.4c0,0.1-0.1,0.1-0.2,0.2c0,0,0,0,0,0c-0.1,0-0.1,0.1-0.2,0.1c-0.2,0.1-0.4,0.1-0.6,0.2c-0.3,0-0.6,0-0.9,0
		c-0.6-0.1-1.2-0.3-1.8-0.6c-0.5-0.3-0.9-0.5-1.3-0.9c-0.5-0.4-1-0.7-1.5-0.9c-0.4-0.2-0.9-0.3-1.3-0.2c-0.1,0-0.3,0-0.4,0.1
		c0,0,0,0-0.1,0L1830.7,352.2C1830.6,352.1,1830.7,352.1,1830.7,352.2L1830.7,352.2z"/>
	<path class="st4" d="M1824.4,361.3c0,0-0.1,0.2-0.1,0.2c-0.2,0.5-0.5,0.9-0.7,1.4c-0.2,0.3-0.3,0.5-0.5,0.8c0,0,0,0.1-0.1,0.2
		c0,0,0,0,0,0c-0.1,0.1-0.1,0.1-0.2,0.2c0,0,0,0-0.1,0c-0.1,0.1-0.1,0.3-0.3,0.5c-0.5,0.7-1.1,1.4-1.7,2c-0.6,0.6-1.3,1.1-2,1.5
		c-0.8,0.4-1.7,0.7-2.5,0.8c-0.3,0-0.7,0-1.1,0c-0.3,0-0.5,0-0.8-0.1c-0.5-0.1-1.1-0.2-1.6-0.4c-0.5-0.1-0.9-0.3-1.3-0.5
		c0,0-0.1-0.1-0.1-0.1c-0.1-0.1-0.3-0.2-0.4-0.3c-0.1-0.1-0.3-0.2-0.4-0.4c-0.1-0.3-0.2-0.1-0.3,0c0,0,0,0,0,0c0,0,0,0,0,0.1
		c0,0,0,0-0.1,0c0,0-0.1,0.1-0.1,0.1c0,0,0,0,0,0c-0.1,0.1-0.3,0.3-0.4,0.4c-0.2,0.3-0.5,0.5-0.7,0.8c-0.1,0.4-0.5,0.6-0.6,1
		c0,0.1-0.1,0.2-0.1,0.3l-1-0.4c0.2-0.2,0.5-0.5,0.7-0.7c0.2-0.2,0.4-0.4,0.6-0.5c0.1-0.1,0.3-0.3,0.4-0.4c0.1-0.1,0.1-0.2,0.2-0.3
		c0,0,0,0,0.1,0c0.1,0,0.1-0.1,0.2-0.1c0,0,0.1-0.1,0.1-0.1c0.4-0.2,0.7-0.6,1.1-0.9c0.1-0.1,0.2-0.1,0.3-0.2c0,0,0,0,0.1,0
		c0.2-0.1,0.4-0.3,0.5-0.4c0,0,0,0,0,0c0,0-0.1,0-0.2,0c0,0-0.1,0-0.1,0c-0.1,0-0.1,0-0.2,0.1c0,0-0.1,0-0.1,0c-0.1,0-0.1,0-0.3,0.1
		c0.1-0.4,0-0.7,0.3-1c0,0,0,0,0,0c-0.1-0.2,0.1-0.3,0.2-0.5l0.1,0c0-0.1,0.1-0.2,0.2-0.3c0.2-0.3,0.5-0.6,0.7-0.9
		c0.4-0.4,0.8-0.6,1.3-0.9c1.1-0.5,2.2-0.8,3.3-0.9c0.9-0.1,1.9-0.1,2.8,0c1.1,0,2.2,0,3.2-0.2c0.8-0.2,1.6-0.5,2.2-1
		c0.2-0.1,0.3-0.3,0.5-0.5c0,0,0.1,0,0.1,0l-0.7,1.6c0,0-0.1,0-0.1,0.1L1824.4,361.3z"/>
	<path class="st8" d="M1596.6,537.4l-0.9-2.1c0,0,0.1,0,0.2,0c0.2,0.2,0.4,0.5,0.7,0.6c0.8,0.7,1.8,1.1,2.8,1.4
		c1.4,0.3,2.8,0.3,4.2,0.3c1.2,0,2.4,0,3.6,0c1.5,0.1,3,0.5,4.4,1.2c0.6,0.3,1.2,0.7,1.7,1.2c0.4,0.4,0.7,0.7,1,1.2
		c0.1,0.1,0.1,0.3,0.2,0.5c0,0,0.1,0,0.1,0.1c0.1,0.2,0.3,0.4,0.2,0.6c0,0,0,0,0,0c0.3,0.4,0.3,0.8,0.4,1.3c-0.1,0-0.2-0.1-0.3-0.1
		c0,0-0.1,0-0.1,0c-0.1,0-0.2,0-0.3-0.1c-0.1,0-0.1,0-0.1,0c-0.1,0-0.1,0-0.2,0c0,0,0,0,0,0c0,0,0,0,0,0c0.2,0.2,0.5,0.3,0.7,0.5
		c0,0,0,0,0.1,0c0.1,0.1,0.2,0.1,0.3,0.2c0.5,0.4,0.9,0.8,1.4,1.1c0,0,0.1,0.1,0.1,0.1c0.1,0.1,0.2,0.1,0.3,0.2c0,0,0,0,0.1,0
		c0.1,0.1,0.1,0.3,0.3,0.3c0.2,0.1,0.4,0.3,0.5,0.5c0.2,0.2,0.5,0.5,0.7,0.7c0.3,0.3,0.6,0.6,0.9,0.9l-1.3,0.6
		c-0.1-0.1-0.1-0.3-0.1-0.4c-0.2-0.5-0.6-0.8-0.8-1.3c-0.3-0.3-0.6-0.7-1-1c-0.2-0.2-0.4-0.4-0.6-0.6c0,0,0,0,0,0
		c-0.1,0-0.1-0.1-0.1-0.1c0,0,0,0-0.1-0.1c0,0,0,0-0.1-0.1c0,0,0,0,0,0c-0.2-0.1-0.3-0.3-0.5,0c-0.1,0.2-0.3,0.3-0.5,0.5
		c-0.2,0.1-0.4,0.3-0.5,0.4c0,0-0.1,0.1-0.2,0.1c-0.6,0.2-1.1,0.5-1.7,0.7c-0.7,0.2-1.4,0.4-2.1,0.5c-0.4,0.1-0.7,0.1-1.1,0.1
		c-0.5,0-0.9,0-1.4-0.1c-1.2-0.2-2.3-0.5-3.3-1.1c-1-0.5-1.9-1.2-2.7-2c-0.8-0.8-1.6-1.6-2.2-2.6c-0.1-0.2-0.2-0.4-0.3-0.6
		c-0.1,0-0.1,0-0.1,0c-0.1-0.1-0.2-0.2-0.3-0.3c0,0,0,0-0.1,0c0-0.1,0-0.2-0.1-0.2c-0.2-0.4-0.4-0.7-0.6-1c-0.4-0.6-0.7-1.2-1-1.8
		c-0.1-0.1-0.1-0.2-0.1-0.3C1596.7,537.4,1596.7,537.3,1596.6,537.4L1596.6,537.4z M1613.8,543.3
		C1613.8,543.3,1613.8,543.3,1613.8,543.3C1613.8,543.3,1613.8,543.3,1613.8,543.3z"/>
	<path class="st8" d="M1558.2,497c0,0-0.1,0.2-0.1,0.3c-0.3,0.6-0.6,1.2-1,1.8c-0.2,0.3-0.4,0.7-0.6,1c0,0.1,0,0.2-0.1,0.2
		c0,0,0,0-0.1,0c-0.1,0.1-0.2,0.2-0.3,0.3c-0.1,0-0.1,0-0.1,0c-0.1,0.2-0.2,0.4-0.3,0.6c-0.7,0.9-1.4,1.8-2.2,2.6
		c-0.8,0.8-1.7,1.4-2.7,2c-1,0.6-2.1,1-3.3,1.1c-0.5,0.1-0.9,0.1-1.4,0.1c-0.4,0-0.7,0-1.1-0.1c-0.7-0.1-1.4-0.3-2.1-0.5
		c-0.6-0.2-1.1-0.5-1.7-0.7c-0.1,0-0.1-0.1-0.2-0.1c-0.2-0.1-0.4-0.2-0.5-0.4c-0.2-0.1-0.4-0.3-0.5-0.5c-0.1-0.3-0.3-0.2-0.5,0
		c0,0,0,0-0.1,0c0,0,0,0-0.1,0.1c0,0,0,0-0.1,0.1c-0.1,0-0.1,0.1-0.1,0.1c0,0,0,0,0,0c-0.2,0.2-0.4,0.4-0.6,0.6
		c-0.3,0.3-0.7,0.7-1,1c-0.2,0.5-0.6,0.8-0.8,1.3c-0.1,0.1-0.1,0.2-0.1,0.4l-1.3-0.6c0.3-0.3,0.6-0.6,0.9-0.9
		c0.2-0.2,0.5-0.5,0.7-0.7c0.2-0.2,0.3-0.4,0.6-0.5c0.2-0.1,0.2-0.2,0.3-0.3c0,0,0,0,0.1,0c0.1-0.1,0.2-0.1,0.3-0.2
		c0,0,0-0.1,0.1-0.1c0.5-0.3,0.9-0.8,1.4-1.1c0.1-0.1,0.2-0.1,0.3-0.2c0,0,0,0,0.1,0c0.2-0.2,0.5-0.3,0.7-0.5c0,0,0,0,0.1,0
		c0,0,0,0,0,0c-0.1,0-0.1,0-0.2,0c-0.1,0-0.1,0-0.1,0c-0.1,0-0.2,0-0.3,0.1c0,0-0.1,0-0.1,0c-0.1,0-0.2,0-0.3,0.1
		c0.1-0.5,0.1-0.9,0.4-1.3c0,0,0,0,0,0c-0.1-0.3,0.1-0.4,0.2-0.6c0,0,0,0,0.1-0.1c0.1-0.1,0.1-0.3,0.2-0.5c0.3-0.4,0.6-0.8,1-1.2
		c0.5-0.5,1.1-0.8,1.7-1.2c1.4-0.7,2.9-1,4.4-1.2c1.2-0.1,2.4-0.1,3.6,0c1.4,0,2.9,0,4.2-0.3c1-0.3,2-0.7,2.9-1.4
		c0.2-0.2,0.4-0.4,0.6-0.6c0,0,0.1,0,0.2,0l-0.9,2.1C1558.3,497,1558.2,497,1558.2,497L1558.2,497z M1541.1,502.8
		C1541.1,502.8,1541.1,502.8,1541.1,502.8C1541.2,502.8,1541.2,502.8,1541.1,502.8z"/>
	<path class="st2" d="M758,602.3c0.1,0,0.3,0,0.4,0c0.8,0,1.6,0.1,2.4,0.2c0.5,0.1,0.9,0.1,1.4,0.2c0.1,0,0.2,0,0.3,0c0,0,0,0,0,0
		c0.1,0,0.3,0.1,0.4,0.2c0,0,0.1,0.1,0.1,0.1c0.3,0,0.5,0,0.8,0.1c1.3,0.3,2.5,0.7,3.7,1.2c1.2,0.5,2.3,1.1,3.3,1.9
		c1.1,0.9,2,1.9,2.7,3.1c0.3,0.5,0.5,1,0.7,1.4c0.2,0.4,0.3,0.8,0.4,1.2c0.2,0.8,0.4,1.6,0.5,2.5c0.1,0.7,0,1.4,0.1,2.1
		c0,0.1,0,0.1,0,0.2c0,0.2-0.1,0.5-0.2,0.7c-0.1,0.3-0.1,0.5-0.3,0.7c-0.3,0.3,0,0.4,0.1,0.5c0,0,0,0,0,0c0,0,0.1,0,0.1,0
		c0,0,0.1,0,0.1,0c0.1,0,0.1,0,0.2,0.1c0,0,0,0,0,0c0.3,0.1,0.6,0.2,0.9,0.3c0.5,0.2,1,0.4,1.5,0.6c0,0,0,0,0,0
		c0.6,0,1.1,0.3,1.7,0.2c0.1,0,0.3,0,0.5,0v1.6c-0.5-0.2-0.9-0.4-1.4-0.6c-0.4-0.1-0.7-0.3-1.1-0.5c-0.3-0.1-0.6-0.2-0.8-0.4
		c-0.2-0.2-0.3-0.1-0.5-0.1c0,0,0,0,0,0c-0.1-0.1-0.2-0.1-0.3-0.2c0,0-0.1,0-0.2,0c-0.6-0.4-1.2-0.6-1.8-1c-0.1-0.1-0.3-0.2-0.4-0.3
		c0,0,0,0,0,0c-0.3-0.2-0.6-0.3-0.9-0.5c0,0,0,0,0,0c0,0,0,0,0,0c0,0.1,0.1,0.1,0.1,0.2c0,0,0.1,0.1,0.1,0.1
		c0.1,0.1,0.1,0.2,0.2,0.3c0,0,0.1,0.1,0.1,0.1c0.1,0.1,0.1,0.2,0.3,0.3c-0.5,0.2-1,0.4-1.6,0.2c0,0,0,0,0,0c-0.2,0.2-0.5,0.1-0.8,0
		c0,0-0.1,0-0.1,0c-0.2,0-0.4,0-0.6,0c-0.6-0.1-1.1-0.2-1.7-0.5c-0.7-0.3-1.4-0.8-2-1.3c-1.4-1.1-2.4-2.6-3.3-4.1
		c-0.7-1.2-1.2-2.6-1.7-3.9c-0.6-1.5-1.3-3.1-2.3-4.4c-0.8-1-1.6-1.9-2.8-2.4c-0.3-0.1-0.7-0.2-1-0.4c0,0-0.1-0.1-0.1-0.2h2.7
		C757.9,602.2,758,602.3,758,602.3L758,602.3z M772.1,617.8C772.1,617.8,772.1,617.8,772.1,617.8
		C772.1,617.8,772.1,617.8,772.1,617.8C772.1,617.8,772.1,617.8,772.1,617.8L772.1,617.8z"/>
	<path class="st2" d="M669.3,667.1c-0.2,0.1-0.4,0.2-0.6,0.2c-1.3,0.4-2.6,0.5-4,0.7c-0.8,0.1-1.6,0.2-2.4,0.3
		c-0.2,0-0.3,0.1-0.5,0.2c0,0,0,0-0.1,0c-0.2,0-0.5-0.1-0.7-0.1c-0.1,0-0.1-0.1-0.2-0.1c-0.4,0.1-0.9,0.2-1.3,0.2
		c-2.2,0-4.5,0-6.7-0.4c-2.2-0.3-4.3-0.9-6.3-1.8c-2.2-0.9-4.1-2.2-5.8-3.9c-0.6-0.6-1.2-1.3-1.8-2c-0.4-0.6-0.9-1.1-1.2-1.8
		c-0.6-1.3-1.3-2.6-1.8-3.9c-0.4-1.1-0.7-2.3-1-3.5c0-0.1,0-0.3,0-0.4c0-0.4-0.1-0.9,0-1.3c0-0.5,0-1,0.2-1.4
		c0.3-0.6-0.1-0.6-0.5-0.8c0,0,0,0-0.1,0c-0.1,0-0.1,0-0.2,0c-0.1,0-0.1,0-0.2,0c-0.1,0-0.3,0-0.4,0c0,0-0.1,0-0.1,0
		c-0.5-0.1-1.1-0.1-1.6-0.2c-0.9-0.1-1.8-0.2-2.8-0.3c0,0,0,0,0,0c-1,0.3-2,0-2.9,0.4c-0.2,0.1-0.5,0.2-0.7,0.3l-0.7-2.7
		c0.8,0.1,1.7,0.2,2.5,0.3c0.7,0.1,1.3,0.2,2,0.3c0.5,0.1,1.1,0,1.5,0.2c0.4,0.2,0.6,0,0.9,0c0,0,0.1,0,0.1,0c0.2,0,0.4,0.1,0.6,0.2
		c0.1,0,0.2,0,0.3,0c1.1,0.4,2.3,0.5,3.4,0.8c0.3,0.1,0.5,0.2,0.8,0.3c0,0,0.1,0,0.1,0c0.6,0.2,1.1,0.3,1.7,0.5c0,0,0,0,0.1,0
		c0,0,0,0,0-0.1c-0.1-0.1-0.2-0.2-0.3-0.3c-0.1,0-0.1-0.1-0.2-0.1c-0.2-0.1-0.3-0.2-0.5-0.4c-0.1,0-0.1-0.1-0.2-0.1
		c-0.2-0.1-0.3-0.2-0.6-0.4c0.8-0.5,1.5-1.1,2.5-1c0,0,0,0,0-0.1c0.3-0.4,0.8-0.4,1.2-0.4c0.1,0,0.1,0,0.2,0c0.3-0.1,0.6-0.2,1-0.2
		c1-0.1,2-0.1,3,0.1c1.4,0.2,2.7,0.7,3.9,1.3c2.8,1.3,5.1,3.2,7.2,5.4c1.6,1.8,3.1,3.7,4.5,5.6c1.7,2.3,3.4,4.5,5.6,6.2
		c1.7,1.3,3.5,2.4,5.6,2.8c0.6,0.1,1.2,0.1,1.8,0.2c0.1,0,0.2,0.1,0.3,0.2l-4.4,1.1c0,0-0.2-0.1-0.3-0.1L669.3,667.1z M639.5,647.6
		C639.5,647.6,639.5,647.6,639.5,647.6C639.6,647.6,639.5,647.6,639.5,647.6C639.5,647.6,639.5,647.6,639.5,647.6
		C639.5,647.6,639.5,647.6,639.5,647.6L639.5,647.6z"/>
	<path class="st9" d="M559.5,421.5c-0.1,0.3-0.1,0.6-0.3,0.9c-0.7,1.7-1.7,3.4-2.6,5c-0.6,1-1.1,1.9-1.7,2.9
		c-0.1,0.2-0.1,0.5-0.2,0.7c0,0-0.1,0-0.1,0c-0.2,0.2-0.5,0.5-0.7,0.7c-0.1,0-0.2,0.1-0.3,0.1c-0.3,0.5-0.5,1.1-0.9,1.6
		c-1.8,2.5-3.8,4.9-6,7.1c-2.2,2.1-4.6,4-7.2,5.5c-2.8,1.6-5.9,2.7-9.1,3.1c-1.2,0.2-2.5,0.2-3.8,0.2c-1,0-2,0-2.9-0.2
		c-2-0.4-3.9-0.7-5.8-1.3c-1.6-0.5-3.1-1.2-4.7-1.8c-0.2-0.1-0.3-0.2-0.5-0.3c-0.5-0.3-1-0.7-1.5-1c-0.5-0.4-1.1-0.8-1.3-1.3
		c-0.4-0.9-0.8-0.4-1.2-0.1c0,0-0.1,0-0.1,0c0,0.1-0.1,0.2-0.1,0.2c-0.1,0.1-0.1,0.1-0.2,0.2c-0.1,0.1-0.2,0.3-0.4,0.4
		c0,0-0.1,0-0.1,0.1c-0.5,0.5-1,1-1.5,1.6c-0.9,0.9-1.8,1.9-2.7,2.8c0,0,0,0,0,0c-0.5,1.3-1.6,2.2-2.1,3.5c-0.1,0.3-0.2,0.6-0.3,1
		c-1.2-0.5-2.3-1-3.6-1.5c0.8-0.8,1.7-1.7,2.5-2.5c0.7-0.7,1.3-1.4,2-2c0.5-0.5,0.9-1.2,1.5-1.5c0.5-0.2,0.5-0.6,0.7-0.9
		c0,0,0.1,0,0.1,0c0.2-0.2,0.5-0.4,0.7-0.6c0.1-0.1,0.1-0.2,0.2-0.3c1.4-0.8,2.4-2.1,3.7-3.1c0.3-0.2,0.6-0.4,0.9-0.6
		c0,0,0.1-0.1,0.1-0.1c0.6-0.5,1.3-1,1.9-1.4c0,0,0.1,0,0.1,0c0,0,0,0-0.1,0c-0.2,0-0.4,0-0.6,0c-0.1,0-0.2,0.1-0.3,0.1
		c-0.3,0.1-0.5,0.2-0.8,0.3c-0.1,0-0.2,0.1-0.3,0.1c-0.3,0.1-0.5,0.2-0.9,0.3c0.1-1.3,0.1-2.6,1-3.6c0,0,0-0.1,0-0.1
		c-0.2-0.7,0.2-1.2,0.6-1.7c0.1-0.1,0.1-0.1,0.2-0.2c0.2-0.4,0.4-0.9,0.6-1.2c0.7-1.2,1.6-2.3,2.6-3.3c1.4-1.3,3-2.3,4.7-3.2
		c3.7-2,7.8-3,11.9-3.4c3.3-0.3,6.7-0.3,10-0.3c3.9,0.1,7.8,0,11.6-1c2.8-0.7,5.5-1.9,7.8-3.9c0.6-0.5,1.1-1.2,1.7-1.8
		c0.1-0.1,0.2-0.1,0.5-0.1l-2.5,5.9c-0.1,0.1-0.2,0.2-0.4,0.3V421.5z M513.1,438.1C513.1,438.1,513.1,438.1,513.1,438.1
		C513.1,438,513.1,438,513.1,438.1C513.1,438,513,438.1,513.1,438.1C513,438.1,513,438.1,513.1,438.1L513.1,438.1z"/>
	<path class="st7" d="M373.2,342.2c-0.2,0.1-0.4,0.2-0.6,0.2c-1.2,0.3-2.4,0.5-3.6,0.6c-0.7,0.1-1.4,0.2-2.2,0.3
		c-0.1,0-0.3,0.1-0.4,0.2c0,0,0,0-0.1,0c-0.2,0-0.4-0.1-0.6-0.1c-0.1,0-0.1-0.1-0.2-0.1c-0.4,0.1-0.8,0.2-1.2,0.2
		c-2,0-4.1,0-6.1-0.3c-2-0.3-3.9-0.8-5.7-1.6c-2-0.9-3.7-2-5.3-3.5c-0.6-0.6-1.1-1.2-1.6-1.9c-0.4-0.5-0.8-1-1.1-1.6
		c-0.6-1.2-1.2-2.3-1.7-3.6c-0.4-1-0.6-2.1-0.9-3.2c0-0.1,0-0.2,0-0.4c0-0.4-0.1-0.8,0-1.2c0-0.4,0-0.9,0.2-1.2
		c0.3-0.6-0.1-0.6-0.4-0.7c0,0,0,0-0.1,0c0,0-0.1,0-0.2,0c0,0-0.1,0-0.2,0c-0.1,0-0.2,0-0.4,0c0,0-0.1,0-0.1,0c-0.5,0-1-0.1-1.4-0.2
		c-0.8-0.1-1.7-0.2-2.5-0.3c0,0,0,0,0,0c-0.9,0.2-1.8,0-2.6,0.3c-0.2,0.1-0.4,0.1-0.7,0.2l-0.6-2.5c0.8,0.1,1.5,0.2,2.3,0.3
		c0.6,0.1,1.2,0.2,1.8,0.2c0.5,0,1,0,1.4,0.2c0.3,0.2,0.5,0,0.8,0c0,0,0,0,0.1,0c0.2,0,0.4,0.1,0.6,0.1c0.1,0,0.2,0,0.3,0
		c1,0.4,2.1,0.5,3.1,0.7c0.2,0.1,0.5,0.1,0.7,0.2c0,0,0.1,0,0.1,0c0.5,0.1,1,0.3,1.5,0.4c0,0,0,0,0.1,0c0,0,0,0,0-0.1
		c-0.1-0.1-0.2-0.2-0.3-0.3c-0.1,0-0.1-0.1-0.2-0.1c-0.1-0.1-0.3-0.2-0.5-0.3c-0.1,0-0.1-0.1-0.2-0.1c-0.1-0.1-0.3-0.2-0.5-0.4
		c0.7-0.4,1.4-1,2.3-0.9c0,0,0,0,0-0.1c0.3-0.4,0.7-0.4,1.1-0.4c0.1,0,0.1,0,0.2,0c0.3,0,0.6-0.1,0.9-0.2c0.9-0.1,1.8-0.1,2.7,0.1
		c1.2,0.2,2.4,0.6,3.5,1.1c2.5,1.2,4.6,2.9,6.5,4.9c1.5,1.6,2.8,3.4,4.1,5.1c1.5,2.1,3.1,4.1,5.1,5.7c1.5,1.2,3.2,2.1,5.1,2.5
		c0.5,0.1,1.1,0.1,1.6,0.2c0.1,0,0.2,0.1,0.3,0.2l-4,1C373.4,342.3,373.2,342.3,373.2,342.2L373.2,342.2z M346.1,324.5
		C346.1,324.5,346.1,324.5,346.1,324.5C346.1,324.5,346.1,324.5,346.1,324.5C346.1,324.4,346,324.4,346.1,324.5
		C346,324.4,346,324.4,346.1,324.5L346.1,324.5z"/>
	<path class="st7" d="M363,256.6c0,0-0.1,0-0.2,0.1c-0.4,0.1-0.8,0.2-1.3,0.2c-0.3,0-0.5,0.1-0.8,0.1c0,0-0.1,0-0.1,0.1c0,0,0,0,0,0
		c-0.1,0-0.1,0-0.2,0c0,0,0,0-0.1,0c-0.1,0-0.3,0.1-0.4,0.1c-0.7,0-1.4,0-2.1-0.1c-0.7-0.1-1.4-0.3-2-0.6c-0.7-0.3-1.3-0.7-1.8-1.2
		c-0.2-0.2-0.4-0.4-0.6-0.7c-0.1-0.2-0.3-0.4-0.4-0.6c-0.2-0.4-0.4-0.8-0.6-1.2c-0.1-0.4-0.2-0.7-0.3-1.1c0,0,0-0.1,0-0.1
		c0-0.1,0-0.3,0-0.4c0-0.1,0-0.3,0-0.4c0.1-0.2,0-0.2-0.1-0.2c0,0,0,0,0,0h0c0,0,0,0-0.1,0c0,0-0.1,0-0.1,0c0,0,0,0,0,0
		c-0.2,0-0.3,0-0.5,0c-0.3,0-0.6-0.1-0.9-0.1c-0.3,0.1-0.6,0-0.9,0.1c-0.1,0-0.1,0-0.2,0.1l-0.2-0.9c0.3,0,0.5,0.1,0.8,0.1
		c0.2,0,0.4,0,0.6,0.1c0.2,0,0.3,0,0.5,0.1c0.1,0.1,0.2,0,0.3,0c0,0,0,0,0,0c0.1,0,0.1,0,0.2,0c0,0,0.1,0,0.1,0
		c0.4,0.1,0.7,0.2,1.1,0.2c0.1,0,0.2,0,0.2,0.1c0,0,0,0,0,0c0.2,0,0.4,0.1,0.5,0.1c0,0,0,0,0,0c0,0,0-0.1-0.1-0.1c0,0,0,0-0.1,0
		c0,0-0.1-0.1-0.2-0.1c0,0,0,0-0.1,0c0,0-0.1-0.1-0.2-0.1c0.3-0.1,0.5-0.3,0.8-0.3c0,0,0,0,0,0c0.1-0.1,0.3-0.1,0.4-0.1
		c0,0,0,0,0.1,0c0.1,0,0.2,0,0.3-0.1c0.3,0,0.6,0,1,0c0.4,0.1,0.8,0.2,1.2,0.4c0.9,0.4,1.6,1,2.3,1.7c0.5,0.6,1,1.2,1.4,1.8
		c0.5,0.7,1.1,1.4,1.8,2c0.5,0.4,1.1,0.8,1.8,0.9c0.2,0,0.4,0,0.6,0.1c0,0,0,0,0.1,0.1L363,256.6C363.1,256.6,363,256.6,363,256.6
		L363,256.6z"/>
	<path class="st9" d="M313.8,267.2c0,0-0.1,0.2-0.1,0.3c-0.4,0.7-0.8,1.3-1.2,1.9c-0.3,0.4-0.5,0.7-0.8,1.1c0,0.1-0.1,0.2-0.1,0.3
		c0,0,0,0,0,0c-0.1,0.1-0.2,0.2-0.3,0.3c0,0-0.1,0-0.1,0c-0.1,0.2-0.3,0.4-0.4,0.6c-0.8,0.9-1.7,1.8-2.7,2.5c-1,0.7-2,1.4-3.1,1.9
		c-1.2,0.5-2.4,0.8-3.7,0.9c-0.5,0-1,0-1.5-0.1c-0.4,0-0.8-0.1-1.2-0.2c-0.8-0.2-1.5-0.5-2.2-0.8c-0.6-0.3-1.2-0.6-1.8-0.9
		c-0.1,0-0.1-0.1-0.2-0.1c-0.2-0.2-0.4-0.3-0.5-0.5c-0.2-0.2-0.4-0.4-0.5-0.6c-0.1-0.4-0.3-0.2-0.5-0.1c0,0,0,0,0,0c0,0,0,0,0,0.1
		c0,0,0,0-0.1,0.1c0,0-0.1,0.1-0.2,0.1c0,0,0,0,0,0c-0.2,0.2-0.5,0.4-0.7,0.6c-0.4,0.3-0.8,0.7-1.2,1c-0.3,0.5-0.7,0.8-1,1.3
		c0,0.1-0.1,0.2-0.2,0.4l-1.4-0.8c0.4-0.3,0.7-0.6,1.1-0.9c0.3-0.2,0.6-0.5,0.9-0.7c0.2-0.2,0.4-0.4,0.7-0.5
		c0.2-0.1,0.2-0.2,0.3-0.3h0c0.1-0.1,0.2-0.1,0.3-0.2c0,0,0.1-0.1,0.1-0.1c0.6-0.3,1.1-0.7,1.6-1.1c0.1-0.1,0.3-0.1,0.4-0.2
		c0,0,0,0,0,0c0.3-0.2,0.6-0.3,0.8-0.5c0,0,0,0,0,0c0,0,0,0,0,0c-0.1,0-0.1,0-0.2,0c0,0-0.1,0-0.1,0c-0.1,0-0.2,0-0.3,0.1
		c0,0-0.1,0-0.1,0c-0.1,0-0.2,0-0.4,0.1c0.1-0.5,0.1-1,0.6-1.4v0c0-0.3,0.1-0.5,0.3-0.7c0,0,0,0,0.1-0.1c0.1-0.2,0.2-0.3,0.3-0.5
		c0.3-0.5,0.7-0.8,1.2-1.2c0.6-0.5,1.3-0.8,2-1.1c1.6-0.6,3.2-0.9,4.9-0.8c1.3,0,2.7,0.1,4,0.3c1.6,0.2,3.1,0.3,4.6,0.1
		c1.1-0.2,2.3-0.5,3.3-1.2c0.3-0.2,0.5-0.4,0.8-0.6c0,0,0.1,0,0.2,0L314,267C314,267,313.9,267.1,313.8,267.2L313.8,267.2z
		 M294.7,271.8C294.7,271.8,294.7,271.8,294.7,271.8C294.7,271.8,294.7,271.8,294.7,271.8z"/>
	<path class="st6" d="M1209,221.4c0,0,16.9-9.8,18.9,8.1h2.9c0,0,5.9-9.8,11.5-6.9c0,0,7.9,3,8.7,6.9c0,0-2.2-16.4-18.9-6.6
		C1232.1,222.9,1216.4,208.2,1209,221.4z"/>
	<path class="st10" d="M1093.3,143.5c0,0,17.6-11.1,21.4,10.8c0,0,12.2-11.1,19.4,6"/>
	<path class="st6" d="M755.6,164.7c0,0-3.4-12.7,18-17.9c0,0,7.5-1.2,15.9,4.2c0,0,7.2-12.3,15.6-14.1c0,0,4-1.5,14.1,0
		c0,0,6.3,1.3,8.7,9.4c0,0-14.8-8.6-26.2-3.1c0,0-2.7,0.5-7.4,19.7c0,0-16.9-12.6-19-12.4C775.3,150.5,767.3,149.2,755.6,164.7
		L755.6,164.7z"/>
	<path class="st10" d="M655.9,195.5c0,0,11.7-10.3,12.3,3.3c0,0,3.8-10.4,12.3,0.7"/>
	<path class="st11" d="M1265.4,695.7h-2.4v9.9h2.4V695.7z"/>
	<path class="st11" d="M1264.3,691.2l-1.3,4.6h2.5L1264.3,691.2z"/>
	<path class="st12" d="M1264.2,692c0.2,0,0.4-0.2,0.4-0.4c0-0.2-0.2-0.4-0.4-0.4c-0.2,0-0.4,0.2-0.4,0.4
		C1263.9,691.8,1264,692,1264.2,692z"/>
	<path class="st11" d="M1290.1,635.5h-1.8v7.5h1.8V635.5z"/>
	<path class="st11" d="M1289.2,632.2l-1,3.5h1.9L1289.2,632.2z"/>
	<path class="st12" d="M1289.2,632.7c0.2,0,0.3-0.1,0.3-0.3c0-0.2-0.1-0.3-0.3-0.3c-0.2,0-0.3,0.1-0.3,0.3
		C1288.9,632.6,1289,632.7,1289.2,632.7z"/>
	<path class="st11" d="M1339.3,635.5h-1.8v7.5h1.8V635.5z"/>
	<path class="st11" d="M1338.4,632.2l-0.9,3.5h1.9L1338.4,632.2z"/>
	<path class="st12" d="M1338.4,632.7c0.2,0,0.3-0.1,0.3-0.3c0-0.2-0.1-0.3-0.3-0.3c-0.2,0-0.3,0.1-0.3,0.3
		C1338.1,632.6,1338.2,632.7,1338.4,632.7z"/>
	<path class="st11" d="M1360.1,695.6h-2.4v9.9h2.4V695.6z"/>
	<path class="st11" d="M1358.9,691.2l-1.3,4.6h2.5L1358.9,691.2z"/>
	<path class="st12" d="M1358.9,691.9c0.2,0,0.4-0.2,0.4-0.4s-0.2-0.4-0.4-0.4c-0.2,0-0.4,0.2-0.4,0.4S1358.7,691.9,1358.9,691.9z"/>
	<path class="st13" d="M1288.8,666.4h49.3l10.7,40.1h-70.7L1288.8,666.4z"/>
	<path class="st13" d="M1314.6,580.2h-1.1v17h1.1V580.2z"/>
	<rect x="1212.5" y="806.8" class="st13" width="199.5" height="33"/>
	<rect x="1241.5" y="745.5" class="st13" width="140.1" height="40.1"/>
	<path class="st11" d="M1262.7,705.3h97.7l21.2,40.1h-140.1L1262.7,705.3z"/>
	<path class="st11" d="M1242.7,785.6h139.1l30.2,21.2h-199.5L1242.7,785.6z"/>
	<rect x="1287" y="642.8" class="st11" width="53" height="23.6"/>
	<path class="st11" d="M1314.1,590.9l19.1,54H1295L1314.1,590.9z"/>
	<path class="st14" d="M1268,778.5c7.2,0,6.3,1,6.3-6.9c0-7.9-2.8-14.3-6.3-14.3s-6.3,6.4-6.3,14.3
		C1261.8,779.1,1260.8,778.5,1268,778.5z"/>
	<path class="st14" d="M1312.2,778.5c7.2,0,6.3,1,6.3-6.9c0-7.9-2.8-14.3-6.3-14.3s-6.3,6.4-6.3,14.3
		C1306,779.5,1305,778.5,1312.2,778.5z"/>
	<path class="st14" d="M1355.1,778.5c7.2,0,6.3,1,6.3-6.9c0-7.9-2.8-14.3-6.3-14.3c-3.5,0-6.3,6.4-6.3,14.3
		C1348.9,779.5,1347.9,778.5,1355.1,778.5z"/>
	<path class="st11" d="M1214.9,797.1h-2.4v9.8h2.4V797.1z"/>
	<path class="st11" d="M1213.8,792.7l-1.3,4.6h2.5L1213.8,792.7z"/>
	<path class="st12" d="M1213.7,793.4c0.2,0,0.4-0.2,0.4-0.4c0-0.2-0.2-0.4-0.4-0.4s-0.4,0.2-0.4,0.4
		C1213.3,793.2,1213.5,793.4,1213.7,793.4z"/>
	<path class="st11" d="M1411.9,797.1h-2.4v9.8h2.4V797.1z"/>
	<path class="st11" d="M1410.7,792.7l-1.3,4.6h2.5L1410.7,792.7z"/>
	<path class="st12" d="M1410.7,793.4c0.2,0,0.4-0.2,0.4-0.4c0-0.2-0.2-0.4-0.4-0.4c-0.2,0-0.4,0.2-0.4,0.4
		C1410.3,793.2,1410.5,793.4,1410.7,793.4z"/>
	<path class="st14" d="M1236.8,834.4c6.7,0,5.8,0.9,5.8-6.6c0-7.6-2.6-13.7-5.9-13.7c-3.2,0-5.8,6.1-5.8,13.7
		C1231,835.3,1230.1,834.4,1236.8,834.4z"/>
	<path class="st14" d="M1350,834.1c7.7,0,6.7,0.9,6.6-6.6c0-7.6-3-13.7-6.7-13.7c-3.7,0-6.7,6.1-6.6,13.7
		C1343.3,835.1,1342.3,834.2,1350,834.1z"/>
	<path class="st14" d="M1387.7,834.1c6.7,0,5.8,0.9,5.8-6.6c0-7.6-2.6-13.7-5.9-13.7c-3.2,0-5.8,6.1-5.8,13.7
		C1381.9,835,1381,834.1,1387.7,834.1z"/>
	<path class="st14" d="M1312.3,834.2c6.7,0,5.8,0.9,5.8-6.6c0-7.6-2.6-13.7-5.9-13.7c-3.2,0-5.8,6.1-5.8,13.7
		C1306.4,835.2,1305.5,834.2,1312.3,834.2z"/>
	<path class="st14" d="M1274.6,834.3c7.7,0,6.7,0.9,6.6-6.6c0-7.6-3-13.7-6.7-13.7c-3.7,0-6.6,6.1-6.6,13.7
		S1266.9,834.3,1274.6,834.3z"/>
	<rect x="50.1" y="684.8" class="st13" width="161.6" height="34.3"/>
	<rect x="50.1" y="684.8" class="st13" width="161.6" height="34.3"/>
	<path class="st13" d="M76.5,597.1h110l25.1,53.4H50.1L76.5,597.1z"/>
	<rect x="50.1" y="650.5" class="st13" width="161.6" height="34.3"/>
	<rect x="90.8" y="566.6" class="st13" width="80.1" height="30.5"/>
	<path class="st13" d="M117.3,513.2h27.8l25.8,53.4H90.8L117.3,513.2z"/>
	<rect x="154.6" y="712.8" class="st12" width="32.6" height="127.1"/>
	<rect x="74.5" y="712.8" class="st12" width="32.6" height="127.1"/>
	<rect x="71.8" y="716.6" class="st15" width="38" height="5.1"/>
	<rect x="9.3" y="716.6" class="st15" width="38" height="5.1"/>
	<rect x="151.9" y="716.6" class="st15" width="38" height="5.1"/>
	<rect x="214.3" y="716.6" class="st15" width="38" height="5.1"/>
	<path class="st12" d="M130.8,684.8l26.5,32.4h-52.9L130.8,684.8z"/>
	<path class="st12" d="M91.5,597.1l26.5,53.4H65L91.5,597.1z"/>
	<path class="st11" d="M130.8,650.5l-26.5-53.4h52.9L130.8,650.5z"/>
	<path class="st12" d="M170.2,597.1l26.5,53.4h-52.9L170.2,597.1z"/>
	<path class="st12" d="M130.8,513.2l26.5,53.4h-52.9L130.8,513.2z"/>
	<path class="st12" d="M211,684.8l26.5,32.4h-52.9L211,684.8z"/>
	<path class="st12" d="M50.7,684.8l26.5,32.4H24.3L50.7,684.8z"/>
	<path class="st11" d="M90.8,712.8l-25.9-27.6h51.7L90.8,712.8z"/>
	<path class="st11" d="M170.9,712.8L145,685.1h51.7L170.9,712.8z"/>
	<rect x="104.4" y="712.8" class="st13" width="52.9" height="127.1"/>
	<rect x="184.5" y="712.8" class="st13" width="52.9" height="127.1"/>
	<rect x="24.3" y="712.8" class="st13" width="52.9" height="127.1"/>
	<rect x="71.8" y="712.8" class="st13" width="5.4" height="127.1"/>
	<rect x="88.1" y="712.8" class="st13" width="5.4" height="127.1"/>
	<rect x="168.2" y="712.8" class="st13" width="5.4" height="127.1"/>
	<rect x="104.4" y="712.8" class="st13" width="5.4" height="127.1"/>
	<rect x="9.3" y="712.8" class="st13" width="5.4" height="127.1"/>
	<rect x="18.8" y="712.8" class="st13" width="5.4" height="127.1"/>
	<path class="st13" d="M237.4,712.8h5.4v127.1h-5.4V712.8z"/>
	<rect x="246.9" y="712.8" class="st13" width="5.4" height="127.1"/>
	<rect x="184.5" y="712.8" class="st13" width="5.4" height="127.1"/>
	<rect x="151.9" y="712.8" class="st13" width="5.4" height="127.1"/>
	<rect x="24.3" y="728" class="st12" width="47.5" height="1.3"/>
	<rect x="50.1" y="660.6" class="st12" width="161.6" height="1.3"/>
	<rect x="90.8" y="576.8" class="st12" width="80.1" height="1.3"/>
	<rect x="90.8" y="593.3" class="st12" width="80.1" height="1.3"/>
	<rect x="50.1" y="678.4" class="st12" width="161.6" height="1.3"/>
	<rect x="31.1" y="712.8" class="st12" width="1.4" height="127.1"/>
	<rect x="63.6" y="712.8" class="st12" width="1.4" height="127.1"/>
	<rect x="47.4" y="712.8" class="st12" width="1.4" height="127.1"/>
	<rect x="65" y="650.5" class="st12" width="1.4" height="34.3"/>
	<rect x="97.6" y="650.5" class="st12" width="1.4" height="34.3"/>
	<rect x="81.3" y="650.5" class="st12" width="1.4" height="34.3"/>
	<rect x="105.7" y="566.6" class="st12" width="1.4" height="30.5"/>
	<rect x="138.3" y="566.6" class="st12" width="1.4" height="30.5"/>
	<rect x="154.6" y="566.6" class="st12" width="1.4" height="30.5"/>
	<rect x="122" y="566.6" class="st12" width="1.4" height="30.5"/>
	<rect x="113.9" y="650.5" class="st12" width="1.4" height="34.3"/>
	<rect x="146.5" y="650.5" class="st12" width="1.4" height="34.3"/>
	<rect x="130.2" y="650.5" class="st12" width="1.4" height="34.3"/>
	<rect x="162.7" y="650.5" class="st12" width="1.4" height="34.3"/>
	<rect x="195.3" y="650.5" class="st12" width="1.4" height="34.3"/>
	<rect x="179" y="650.5" class="st12" width="1.4" height="34.3"/>
	<rect x="196.7" y="712.8" class="st12" width="1.4" height="127.1"/>
	<rect x="229.3" y="712.8" class="st12" width="1.4" height="127.1"/>
	<rect x="213" y="712.8" class="st12" width="1.4" height="127.1"/>
	<rect x="122" y="712.8" class="st12" width="1.4" height="127.1"/>
	<rect x="138.3" y="712.8" class="st12" width="1.4" height="127.1"/>
	<rect x="24.3" y="811.9" class="st12" width="47.5" height="1.3"/>
	<rect x="24.3" y="783.9" class="st12" width="47.5" height="1.3"/>
	<rect x="24.3" y="756" class="st12" width="47.5" height="1.3"/>
	<rect x="109.8" y="728" class="st12" width="42.1" height="1.3"/>
	<rect x="109.8" y="811.9" class="st12" width="42.1" height="1.3"/>
	<rect x="109.8" y="783.9" class="st12" width="42.1" height="1.3"/>
	<rect x="109.8" y="756" class="st12" width="42.1" height="1.3"/>
	<rect x="189.9" y="728" class="st12" width="47.5" height="1.3"/>
	<rect x="189.9" y="811.9" class="st12" width="47.5" height="1.3"/>
	<rect x="189.9" y="783.9" class="st12" width="47.5" height="1.3"/>
	<rect x="189.9" y="756" class="st12" width="47.5" height="1.3"/>
	<path class="st16" d="M252.2,714.6h336.6v28.9H252.2V714.6z"/>
	<path class="st12" d="M264.3,734h318.6v104.5H264.3V734z"/>
	<rect x="308.5" y="819.8" class="st12" width="231.1" height="20"/>
	<rect x="308.5" y="831" class="st12" width="231.1" height="3.7"/>
	<rect x="308.5" y="833.5" class="st12" width="231.1" height="3.7"/>
	<rect x="308.5" y="836.5" class="st11" width="234.1" height="3.4"/>
	<rect x="340.7" y="819.5" class="st11" width="171.8" height="3.4"/>
	<path class="st13" d="M540,745.7h105.2v94.2H540V745.7z"/>
	<path class="st13" d="M204,745.7h105.2v94.2H204V745.7z"/>
	<path class="st11" d="M361.9,678h125.3l67.5,57.1H294.4L361.9,678z"/>
	<path class="st16" d="M302.5,739h250.2v9.3H302.5V739z"/>
	<path class="st16" d="M341.7,763.6h170.8v-4.2H341.7V763.6z"/>
	<path class="st16" d="M309,831h230.6l-27.1-8.9H341.7L309,831z"/>
	<path class="st11" d="M592.4,699l52.8,46.7H539.6L592.4,699z"/>
	<rect x="420.1" y="759.1" class="st13" width="14.1" height="33.4"/>
	<rect x="367.8" y="759.1" class="st13" width="14.1" height="33.4"/>
	<rect x="446.2" y="759.1" class="st13" width="14.1" height="33.4"/>
	<rect x="498.4" y="759.1" class="st13" width="14.1" height="33.4"/>
	<rect x="341.7" y="759.1" class="st13" width="14.1" height="33.4"/>
	<rect x="472.3" y="759.1" class="st13" width="14.1" height="33.4"/>
	<rect x="393.9" y="759.1" class="st13" width="14.1" height="33.4"/>
	<rect x="420.1" y="801.3" class="st13" width="14.1" height="16.3"/>
	<rect x="367.8" y="801.3" class="st13" width="14.1" height="16.3"/>
	<rect x="446.2" y="801.3" class="st13" width="14.1" height="16.3"/>
	<rect x="498.4" y="801.3" class="st13" width="14.1" height="16.3"/>
	<rect x="341.7" y="801.3" class="st13" width="14.1" height="16.3"/>
	<rect x="472.3" y="801.3" class="st13" width="14.1" height="16.3"/>
	<rect x="393.9" y="801.3" class="st13" width="14.1" height="16.3"/>
	<rect x="245.2" y="761.3" class="st12" width="21.1" height="78.6"/>
	<rect x="250.2" y="765" class="st14" width="11.1" height="19.3"/>
	<rect x="250.2" y="789.4" class="st14" width="11.1" height="19.3"/>
	<rect x="581.9" y="761.3" class="st12" width="21.1" height="78.6"/>
	<rect x="586.9" y="831" class="st11" width="5" height="3.7"/>
	<rect x="592.9" y="831" class="st11" width="5" height="3.7"/>
	<rect x="586.9" y="765" class="st14" width="11.1" height="19.3"/>
	<rect x="586.9" y="789.4" class="st14" width="11.1" height="19.3"/>
	<rect x="538.6" y="745.7" class="st12" width="106.5" height="3"/>
	<path class="st11" d="M256.8,699.2l52.8,46.6H204L256.8,699.2z"/>
	<path class="st12" d="M332.6,824.6h187.6l10.4,3.4H319.9L332.6,824.6z"/>
	<rect x="204" y="745.7" class="st12" width="106.5" height="3"/>
	<rect x="282.4" y="736.1" class="st11" width="281.4" height="3"/>
	<path class="st11" d="M257.7,693.6h-2.4v7.7h2.4V693.6z"/>
	<path class="st11" d="M256.5,690.1l-1.3,3.6h2.5L256.5,690.1z"/>
	<path class="st12" d="M256.5,690.7c0.2,0,0.4-0.1,0.4-0.3c0-0.2-0.2-0.3-0.4-0.3s-0.4,0.1-0.4,0.3
		C256.1,690.6,256.3,690.7,256.5,690.7z"/>
	<path class="st11" d="M593.4,693.6H591v7.7h2.4V693.6z"/>
	<path class="st11" d="M592.2,690.1l-1.3,3.6h2.5L592.2,690.1z"/>
	<path class="st12" d="M592.2,690.7c0.2,0,0.4-0.1,0.4-0.3c0-0.2-0.2-0.3-0.4-0.3c-0.2,0-0.4,0.1-0.4,0.3
		C591.8,690.6,591.9,690.7,592.2,690.7z"/>
	<path class="st11" d="M363.2,671.3h-2.4v7.7h2.4V671.3z"/>
	<path class="st11" d="M362,667.9l-1.3,3.6h2.5L362,667.9z"/>
	<path class="st12" d="M362,668.4c0.2,0,0.4-0.1,0.4-0.3c0-0.2-0.2-0.3-0.4-0.3c-0.2,0-0.4,0.1-0.4,0.3
		C361.6,668.3,361.8,668.4,362,668.4z"/>
	<path class="st11" d="M486.8,671.3h-2.4v7.7h2.4V671.3z"/>
	<path class="st11" d="M485.6,667.9l-1.3,3.6h2.5L485.6,667.9z"/>
	<path class="st12" d="M485.6,668.4c0.2,0,0.4-0.1,0.4-0.3c0-0.2-0.2-0.3-0.4-0.3c-0.2,0-0.4,0.1-0.4,0.3
		C485.2,668.3,485.4,668.4,485.6,668.4z"/>
	<rect x="370.8" y="803.4" class="st14" width="3" height="6.8"/>
	<rect x="375.8" y="803.4" class="st14" width="3" height="6.8"/>
	<rect x="396.9" y="803.4" class="st14" width="3" height="6.8"/>
	<rect x="402" y="803.4" class="st14" width="3" height="6.8"/>
	<rect x="423.1" y="803.4" class="st14" width="3" height="6.8"/>
	<rect x="428.1" y="803.4" class="st14" width="3" height="6.8"/>
	<rect x="449.2" y="803.4" class="st14" width="3" height="6.8"/>
	<rect x="454.2" y="803.4" class="st14" width="3" height="6.8"/>
	<rect x="475.3" y="803.4" class="st14" width="3" height="6.8"/>
	<rect x="480.4" y="803.4" class="st14" width="3" height="6.8"/>
	<rect x="501.5" y="803.4" class="st14" width="3" height="6.8"/>
	<rect x="506.5" y="803.4" class="st14" width="3" height="6.8"/>
	<ellipse class="st12" cx="255.8" cy="759.4" rx="2.5" ry="3.4"/>
	<ellipse class="st12" cx="255.8" cy="759.4" rx="2.5" ry="3.4"/>
	<ellipse class="st12" cx="592.4" cy="759.4" rx="2.5" ry="3.4"/>
	<rect x="344.7" y="803.4" class="st14" width="3" height="6.8"/>
	<rect x="349.7" y="803.4" class="st14" width="3" height="6.8"/>
	<ellipse class="st15" cx="298" cy="810.6" rx="2.5" ry="7.2"/>
	<rect x="289.4" y="817" class="st11" width="17.1" height="22"/>
	<ellipse class="st15" cx="551.2" cy="811.5" rx="2.5" ry="7.2"/>
	<rect x="542.7" y="817.8" class="st11" width="17.1" height="22"/>
	<rect x="250.2" y="831.4" class="st11" width="5" height="4.2"/>
	<rect x="256.3" y="831.4" class="st11" width="5" height="4.2"/>
	<rect x="309.3" y="830.5" class="st11" width="5.3" height="9.3"/>
	<rect x="534.7" y="830.5" class="st11" width="5.3" height="9.3"/>
	<rect x="622.9" y="758.9" class="st17" width="629.6" height="81"/>
	<rect x="622.9" y="759" class="st11" width="629.6" height="22"/>
	<rect x="622.9" y="752.6" class="st12" width="60.3" height="87.2"/>
	<path class="st11" d="M638.6,717.3h29l15.6,35.3h-60.3L638.6,717.3z"/>
	<rect x="1053.9" y="752.6" class="st12" width="60.3" height="87.2"/>
	<path class="st11" d="M1069.5,717.3h29l15.6,35.3h-60.3L1069.5,717.3z"/>
	<rect x="761.4" y="752.6" class="st12" width="60.3" height="87.2"/>
	<path class="st11" d="M777,717.3h29l15.6,35.3h-60.3L777,717.3z"/>
	<rect x="1192.3" y="752.6" class="st12" width="60.3" height="87.2"/>
	<path class="st11" d="M1207.9,717.3h29l15.6,35.3h-60.3L1207.9,717.3z"/>
	<path class="st12" d="M938.6,380.4h-1.2v17h1.2V380.4z"/>
	<path class="st12" d="M976,597.3h-73.8v242.5H976V597.3z"/>
	<path class="st18" d="M901,589.4v-67.8h74v67.8H901z"/>
	<path class="st11" d="M886.4,590h103.1l-5.8,8.5h-91.5L886.4,590z"/>
	<path class="st12" d="M897.4,531.5c1,0,1.7-0.7,1.7-1.6c0-0.9-0.8-1.6-1.7-1.6c-1,0-1.7,0.7-1.7,1.6
		C895.7,530.8,896.5,531.5,897.4,531.5z"/>
	<path class="st12" d="M978.5,531.5c1,0,1.7-0.7,1.7-1.6c0-0.9-0.8-1.6-1.7-1.6c-1,0-1.7,0.7-1.7,1.6
		C976.8,530.8,977.6,531.5,978.5,531.5z"/>
	<path class="st11" d="M938,397.4l37.6,123.7h-75.3L938,397.4z"/>
	<path class="st11" d="M942,393.1h-8.1v17h8.1V393.1z"/>
	<path class="st12" d="M983.8,547.5h-10.4V590h10.4V547.5z"/>
	<path class="st12" d="M902.6,547.5h-10.4V590h10.4V547.5z"/>
	<path class="st14" d="M916.5,643.2c1.3,0,2.3-8.1,2.3-18.1c0-10-1-18.1-2.3-18.1c-1.3,0-2.3,8.1-2.3,18.1
		C914.2,635.1,915.3,643.2,916.5,643.2z"/>
	<path class="st14" d="M930.4,643.2c1.3,0,2.3-8.1,2.3-18.1c0-10-1-18.1-2.3-18.1c-1.3,0-2.3,8.1-2.3,18.1
		C928.1,635.1,929.2,643.2,930.4,643.2z"/>
	<path class="st14" d="M958.3,643.2c1.3,0,2.3-8.1,2.3-18.1c0-10-1-18.1-2.3-18.1c-1.3,0-2.3,8.1-2.3,18.1
		C955.9,635.1,957,643.2,958.3,643.2z"/>
	<path class="st14" d="M944.4,643.2c1.3,0,2.3-8.1,2.3-18.1c0-10-1-18.1-2.3-18.1c-1.3,0-2.3,8.1-2.3,18.1
		C942,635.1,943.1,643.2,944.4,643.2z"/>
	<path class="st12" d="M961.7,366.5h-24.3v13.8h24.3V366.5z"/>
	<path class="st11" d="M897.4,528.3l-5.5,20h11L897.4,528.3z"/>
	<path class="st11" d="M978.5,528.3l-5.5,20h11L978.5,528.3z"/>
	<path class="st13" d="M938.6,584.7c17.3,0,31.3-12.9,31.3-28.7c0-15.9-14-28.7-31.3-28.7c-17.3,0-31.3,12.9-31.3,28.7
		C907.3,571.8,921.3,584.7,938.6,584.7z"/>
	<path class="st14" d="M938.6,580.4c14.7,0,26.7-11,26.7-24.5s-11.9-24.5-26.7-24.5c-14.7,0-26.7,11-26.7,24.5
		S923.8,580.4,938.6,580.4z"/>
	<path class="st12" d="M938,559.2c1.6,0,2.9-1.2,2.9-2.7c0-1.5-1.3-2.7-2.9-2.7c-1.6,0-2.9,1.2-2.9,2.7
		C935.1,558,936.4,559.2,938,559.2z"/>
	<path class="st19" d="M938,556.5l-12.2,8"/>
	<path class="st19" d="M938,556.5l14.9,12"/>
	<path class="st13" d="M954.9,839.8v-29.6c0-7.6-17.1-17-17.1-17s-17.1,9.4-17.1,17v29.6H954.9z"/>
	<path class="st11" d="M641.3,707.2h-2.5v10.3h2.5V707.2z"/>
	<path class="st11" d="M640.1,702.6l-1.3,4.8h2.6L640.1,702.6z"/>
	<path class="st12" d="M640.1,703.4c0.2,0,0.4-0.2,0.4-0.4c0-0.2-0.2-0.4-0.4-0.4c-0.2,0-0.4,0.2-0.4,0.4
		C639.6,703.2,639.8,703.4,640.1,703.4z"/>
	<path class="st11" d="M667.7,707.3h-2.5v10.3h2.5V707.3z"/>
	<path class="st11" d="M666.4,702.7l-1.3,4.8h2.6L666.4,702.7z"/>
	<path class="st12" d="M666.4,703.4c0.2,0,0.4-0.2,0.4-0.4c0-0.2-0.2-0.4-0.4-0.4c-0.2,0-0.4,0.2-0.4,0.4
		C666,703.3,666.2,703.4,666.4,703.4z"/>
	<path class="st11" d="M1073.4,707.3h-2.5v10.3h2.5V707.3z"/>
	<path class="st11" d="M1072.1,702.7l-1.3,4.8h2.6L1072.1,702.7z"/>
	<path class="st12" d="M1072.1,703.4c0.2,0,0.4-0.2,0.4-0.4c0-0.2-0.2-0.4-0.4-0.4c-0.2,0-0.4,0.2-0.4,0.4
		C1071.7,703.3,1071.9,703.4,1072.1,703.4z"/>
	<path class="st11" d="M1097.1,707.3h-2.5v10.3h2.5V707.3z"/>
	<path class="st11" d="M1095.8,702.7l-1.3,4.8h2.6L1095.8,702.7z"/>
	<path class="st12" d="M1095.8,703.4c0.2,0,0.4-0.2,0.4-0.4c0-0.2-0.2-0.4-0.4-0.4c-0.2,0-0.4,0.2-0.4,0.4
		C1095.4,703.3,1095.6,703.4,1095.8,703.4z"/>
	<path class="st11" d="M1210.4,707.3h-2.5v10.3h2.5V707.3z"/>
	<path class="st11" d="M1209.1,702.7l-1.3,4.8h2.6L1209.1,702.7z"/>
	<path class="st12" d="M1209.1,703.4c0.2,0,0.4-0.2,0.4-0.4c0-0.2-0.2-0.4-0.4-0.4c-0.2,0-0.4,0.2-0.4,0.4
		C1208.7,703.3,1208.9,703.4,1209.1,703.4z"/>
	<path class="st11" d="M1236.7,707.3h-2.5v10.3h2.5V707.3z"/>
	<path class="st11" d="M1235.5,702.7l-1.3,4.8h2.6L1235.5,702.7z"/>
	<path class="st12" d="M1235.5,703.4c0.2,0,0.4-0.2,0.4-0.4c0-0.2-0.2-0.4-0.4-0.4s-0.4,0.2-0.4,0.4
		C1235.1,703.3,1235.2,703.4,1235.5,703.4z"/>
	<path class="st11" d="M780.9,707.3h-2.5v10.3h2.5V707.3z"/>
	<path class="st11" d="M779.7,702.7l-1.3,4.8h2.6L779.7,702.7z"/>
	<path class="st12" d="M779.7,703.4c0.2,0,0.4-0.2,0.4-0.4c0-0.2-0.2-0.4-0.4-0.4c-0.2,0-0.4,0.2-0.4,0.4
		C779.3,703.3,779.5,703.4,779.7,703.4z"/>
	<path class="st11" d="M804.7,707.2h-2.5v10.3h2.5V707.2z"/>
	<path class="st11" d="M803.4,702.6l-1.3,4.8h2.6L803.4,702.6z"/>
	<path class="st12" d="M803.4,703.4c0.2,0,0.4-0.2,0.4-0.4c0-0.2-0.2-0.4-0.4-0.4c-0.2,0-0.4,0.2-0.4,0.4
		C803,703.2,803.2,703.4,803.4,703.4z"/>
	<path class="st13" d="M658.8,781.9c1.2,0,2.1-3.5,2.1-7.8c0-4.3-0.9-7.8-2.1-7.8c-1.2,0-2.1,3.5-2.1,7.8
		C656.7,778.4,657.6,781.9,658.8,781.9z"/>
	<path class="st13" d="M650.9,781.9c1.2,0,2.1-3.5,2.1-7.8c0-4.3-0.9-7.8-2.1-7.8c-1.2,0-2.1,3.5-2.1,7.8
		C648.8,778.4,649.7,781.9,650.9,781.9z"/>
	<path class="st13" d="M643.5,781.9c1.2,0,2.1-3.5,2.1-7.8c0-4.3-0.9-7.8-2.1-7.8c-1.2,0-2.1,3.5-2.1,7.8
		C641.4,778.4,642.3,781.9,643.5,781.9z"/>
	<path class="st13" d="M798.4,781.9c1.2,0,2.1-3.5,2.1-7.8c0-4.3-0.9-7.8-2.1-7.8s-2.1,3.5-2.1,7.8
		C796.3,778.4,797.3,781.9,798.4,781.9z"/>
	<path class="st13" d="M790.5,781.9c1.2,0,2.1-3.5,2.1-7.8c0-4.3-0.9-7.8-2.1-7.8s-2.1,3.5-2.1,7.8
		C788.4,778.4,789.4,781.9,790.5,781.9z"/>
	<path class="st13" d="M783.1,781.9c1.2,0,2.1-3.5,2.1-7.8c0-4.3-0.9-7.8-2.1-7.8c-1.2,0-2.1,3.5-2.1,7.8
		C781,778.4,782,781.9,783.1,781.9z"/>
	<path class="st13" d="M1090.8,781.9c1.2,0,2.1-3.5,2.1-7.8c0-4.3-0.9-7.8-2.1-7.8c-1.2,0-2.1,3.5-2.1,7.8
		C1088.7,778.4,1089.7,781.9,1090.8,781.9z"/>
	<path class="st13" d="M1082.9,781.9c1.2,0,2.1-3.5,2.1-7.8c0-4.3-0.9-7.8-2.1-7.8c-1.2,0-2.1,3.5-2.1,7.8
		C1080.9,778.4,1081.8,781.9,1082.9,781.9z"/>
	<path class="st13" d="M1075.5,781.9c1.2,0,2.1-3.5,2.1-7.8c0-4.3-0.9-7.8-2.1-7.8c-1.2,0-2.1,3.5-2.1,7.8
		C1073.4,778.4,1074.4,781.9,1075.5,781.9z"/>
	<path class="st13" d="M1230.5,781.9c1.2,0,2.1-3.5,2.1-7.8c0-4.3-0.9-7.8-2.1-7.8s-2.1,3.5-2.1,7.8
		C1228.4,778.4,1229.3,781.9,1230.5,781.9z"/>
	<path class="st13" d="M1222.6,781.9c1.2,0,2.1-3.5,2.1-7.8c0-4.3-0.9-7.8-2.1-7.8c-1.2,0-2.1,3.5-2.1,7.8
		C1220.5,778.4,1221.4,781.9,1222.6,781.9z"/>
	<path class="st13" d="M1215.2,781.9c1.2,0,2.1-3.5,2.1-7.8c0-4.3-0.9-7.8-2.1-7.8c-1.2,0-2.1,3.5-2.1,7.8
		C1213.1,778.4,1214,781.9,1215.2,781.9z"/>
	<path class="st14" d="M948.9,839.8V820c0-5.1-11.2-11.4-11.2-11.4s-11.2,6.3-11.2,11.4v19.8H948.9z"/>
	<path class="st14" d="M643.1,825.6c-5,0-4.4,0.7-4.3-4.9c0-5.6,2-10.2,4.4-10.2c2.4,0,4.3,4.6,4.3,10.2
		C647.5,826.3,648.2,825.6,643.1,825.6z"/>
	<rect x="638.8" y="821.4" class="st14" width="8.8" height="4.4"/>
	<path class="st14" d="M659,825.6c-5,0-4.4,0.7-4.3-4.9c0-5.6,2-10.2,4.4-10.2c2.4,0,4.3,4.6,4.3,10.2
		C663.3,826.3,664,825.6,659,825.6z"/>
	<rect x="654.6" y="821.4" class="st14" width="8.8" height="4.4"/>
	<path class="st14" d="M643.1,825.6c-5,0-4.4,0.7-4.3-4.9c0-5.6,2-10.2,4.4-10.2c2.4,0,4.3,4.6,4.3,10.2
		C647.5,826.3,648.2,825.6,643.1,825.6z"/>
	<rect x="638.8" y="821.4" class="st14" width="8.8" height="4.4"/>
	<path class="st14" d="M659,825.6c-5,0-4.4,0.7-4.3-4.9c0-5.6,2-10.2,4.4-10.2c2.4,0,4.3,4.6,4.3,10.2
		C663.3,826.3,664,825.6,659,825.6z"/>
	<rect x="654.6" y="821.4" class="st14" width="8.8" height="4.4"/>
	<path class="st14" d="M782.8,825.6c-5,0-4.4,0.7-4.3-4.9c0-5.6,2-10.2,4.4-10.2c2.4,0,4.3,4.6,4.3,10.2
		C787.1,826.3,787.8,825.6,782.8,825.6z"/>
	<rect x="778.4" y="821.4" class="st14" width="8.8" height="4.4"/>
	<path class="st14" d="M798.6,825.6c-5,0-4.4,0.7-4.3-4.9c0-5.6,2-10.2,4.4-10.2c2.4,0,4.3,4.6,4.3,10.2
		C802.9,826.3,803.6,825.6,798.6,825.6z"/>
	<rect x="794.2" y="821.4" class="st14" width="8.8" height="4.4"/>
	<path class="st14" d="M1075.2,825.6c-5,0-4.4,0.7-4.3-4.9c0-5.6,2-10.2,4.4-10.2c2.4,0,4.3,4.6,4.3,10.2
		C1079.6,826.3,1080.2,825.6,1075.2,825.6z"/>
	<rect x="1070.8" y="821.4" class="st14" width="8.8" height="4.4"/>
	<path class="st14" d="M1091,825.6c-5,0-4.4,0.7-4.3-4.9c0-5.6,2-10.2,4.4-10.2c2.4,0,4.3,4.6,4.3,10.2
		C1095.4,826.3,1096,825.6,1091,825.6z"/>
	<rect x="1086.6" y="821.4" class="st14" width="8.8" height="4.4"/>
	<path class="st14" d="M1214.8,825.6c-5,0-4.4,0.7-4.3-4.9c0-5.6,2-10.2,4.4-10.2c2.4,0,4.3,4.6,4.3,10.2
		C1219.2,826.3,1219.9,825.6,1214.8,825.6z"/>
	<rect x="1210.5" y="821.4" class="st14" width="8.8" height="4.4"/>
	<path class="st14" d="M1230.6,825.6c-5,0-4.4,0.7-4.3-4.9c0-5.6,2-10.2,4.4-10.2c2.4,0,4.3,4.6,4.3,10.2S1235.7,825.6,1230.6,825.6
		z"/>
	<rect x="1226.3" y="821.4" class="st14" width="8.8" height="4.4"/>
	<path class="st14" d="M697.8,823.4c-4.3,0-3.7,0.6-3.7-4.2c0-4.8,1.7-8.7,3.8-8.7c2.1,0,3.7,3.9,3.7,8.7
		C701.6,824,702.1,823.4,697.8,823.4z"/>
	<rect x="694.1" y="819.9" class="st14" width="7.5" height="3.8"/>
	<path class="st14" d="M711.4,823.4c-4.3,0-3.7,0.6-3.7-4.2c0-4.8,1.7-8.7,3.8-8.7c2.1,0,3.7,3.9,3.7,8.7
		C715.1,824,715.7,823.4,711.4,823.4z"/>
	<rect x="707.6" y="819.9" class="st14" width="7.5" height="3.8"/>
	<path class="st14" d="M729.4,823.4c-4.3,0-3.7,0.6-3.7-4.2c0-4.8,1.7-8.7,3.8-8.7c2.1,0,3.7,3.9,3.7,8.7
		C733.2,824,733.7,823.4,729.4,823.4z"/>
	<rect x="725.7" y="819.9" class="st14" width="7.5" height="3.8"/>
	<path class="st14" d="M743,823.4c-4.3,0-3.7,0.6-3.7-4.2c0-4.8,1.7-8.7,3.8-8.7c2.1,0,3.7,3.9,3.7,8.7
		C746.7,824,747.3,823.4,743,823.4z"/>
	<rect x="739.2" y="819.9" class="st14" width="7.5" height="3.8"/>
	<path class="st14" d="M840.1,823.4c-4.3,0-3.7,0.6-3.7-4.2c0-4.8,1.7-8.7,3.8-8.7c2.1,0,3.7,3.9,3.7,8.7
		C843.8,824,844.4,823.4,840.1,823.4z"/>
	<rect x="836.3" y="819.9" class="st14" width="7.5" height="3.8"/>
	<path class="st14" d="M853.6,823.4c-4.3,0-3.7,0.6-3.7-4.2c0-4.8,1.7-8.7,3.8-8.7s3.7,3.9,3.7,8.7
		C857.4,824,857.9,823.4,853.6,823.4z"/>
	<rect x="849.9" y="819.9" class="st14" width="7.5" height="3.8"/>
	<path class="st14" d="M871.7,823.4c-4.3,0-3.7,0.6-3.7-4.2c0-4.8,1.7-8.7,3.8-8.7c2.1,0,3.7,3.9,3.7,8.7
		C875.4,824,876,823.4,871.7,823.4z"/>
	<rect x="868" y="819.9" class="st14" width="7.5" height="3.8"/>
	<path class="st14" d="M885.2,823.4c-4.3,0-3.7,0.6-3.7-4.2c0-4.8,1.7-8.7,3.8-8.7c2.1,0,3.7,3.9,3.7,8.7
		C889,824,889.6,823.4,885.2,823.4z"/>
	<rect x="881.5" y="819.9" class="st14" width="7.5" height="3.8"/>
	<path class="st14" d="M992.9,823.4c-4.3,0-3.7,0.6-3.7-4.2c0-4.8,1.7-8.7,3.8-8.7c2.1,0,3.7,3.9,3.7,8.7
		C996.6,824,997.2,823.4,992.9,823.4z"/>
	<rect x="989.2" y="819.9" class="st14" width="7.5" height="3.8"/>
	<path class="st14" d="M1006.4,823.4c-4.3,0-3.7,0.6-3.7-4.2c0-4.8,1.7-8.7,3.8-8.7c2.1,0,3.7,3.9,3.7,8.7
		C1010.2,824,1010.7,823.4,1006.4,823.4z"/>
	<rect x="1002.7" y="819.9" class="st14" width="7.5" height="3.8"/>
	<path class="st14" d="M1024.5,823.4c-4.3,0-3.7,0.6-3.7-4.2c0-4.8,1.7-8.7,3.8-8.7c2.1,0,3.7,3.9,3.7,8.7
		C1028.3,824,1028.8,823.4,1024.5,823.4z"/>
	<rect x="1020.8" y="819.9" class="st14" width="7.5" height="3.8"/>
	<path class="st14" d="M1038.1,823.4c-4.3,0-3.7,0.6-3.7-4.2c0-4.8,1.7-8.7,3.8-8.7c2.1,0,3.7,3.9,3.7,8.7
		C1041.8,824,1042.4,823.4,1038.1,823.4z"/>
	<rect x="1034.3" y="819.9" class="st14" width="7.5" height="3.8"/>
	<path class="st14" d="M1132.5,823.4c-4.3,0-3.7,0.6-3.7-4.2c0-4.8,1.7-8.7,3.8-8.7c2.1,0,3.7,3.9,3.7,8.7
		C1136.3,824,1136.8,823.4,1132.5,823.4z"/>
	<rect x="1128.8" y="819.9" class="st14" width="7.5" height="3.8"/>
	<path class="st14" d="M1146.1,823.4c-4.3,0-3.7,0.6-3.7-4.2c0-4.8,1.7-8.7,3.8-8.7c2.1,0,3.7,3.9,3.7,8.7
		C1149.8,824,1150.4,823.4,1146.1,823.4z"/>
	<rect x="1142.3" y="819.9" class="st14" width="7.5" height="3.8"/>
	<path class="st14" d="M1164.1,823.4c-4.3,0-3.7,0.6-3.7-4.2c0-4.8,1.7-8.7,3.8-8.7c2.1,0,3.7,3.9,3.7,8.7
		C1167.9,824,1168.4,823.4,1164.1,823.4z"/>
	<rect x="1160.4" y="819.9" class="st14" width="7.5" height="3.8"/>
	<path class="st14" d="M1177.7,823.4c-4.3,0-3.7,0.6-3.7-4.2c0-4.8,1.7-8.7,3.8-8.7c2.1,0,3.7,3.9,3.7,8.7
		C1181.4,824,1182,823.4,1177.7,823.4z"/>
	<rect x="1173.9" y="819.9" class="st14" width="7.5" height="3.8"/>
	<path class="st16" d="M927.4,745.1c7.7-0.1,6.7,3.9,6.7-28.3c0-32.2-3-58.3-6.7-58.2c-3.7,0-6.7,26.1-6.7,58.3
		C920.7,749.2,919.7,745.2,927.4,745.1z"/>
	<rect x="920.6" y="721.6" class="st16" width="13.5" height="25.2"/>
	<path class="st16" d="M951.2,745.1c7.7-0.1,6.7,3.9,6.7-28.3c0-32.2-3-58.3-6.7-58.2c-3.7,0-6.7,26.1-6.7,58.3
		C944.5,749.2,943.4,745.2,951.2,745.1z"/>
	<rect x="944.4" y="721.6" class="st16" width="13.5" height="25.2"/>
	<rect x="622.9" y="751.6" class="st16" width="7.9" height="88.2"/>
	<rect x="675.6" y="751.6" class="st16" width="7.9" height="88.2"/>
	<rect x="759.9" y="751.6" class="st16" width="7.9" height="88.2"/>
	<rect x="815.3" y="751.6" class="st16" width="7.9" height="88.2"/>
	<rect x="1107.7" y="751.6" class="st16" width="7.9" height="88.2"/>
	<rect x="1192" y="751.6" class="st16" width="7.9" height="88.2"/>
	<rect x="1244.7" y="751.6" class="st16" width="7.9" height="88.2"/>
	<rect x="1052.4" y="751.6" class="st16" width="7.9" height="88.2"/>
	<path class="st11" d="M1879.7,680.2l25.8,31.7h-51.5L1879.7,680.2z"/>
	<rect x="1628" y="684.7" class="st11" width="138.2" height="24.7"/>
	<rect x="1731.8" y="709.4" class="st12" width="132.4" height="131.3"/>
	<rect x="1812.8" y="670.5" class="st16" width="55.5" height="170.2"/>
	<rect x="1858.4" y="727.4" class="st13" width="4.9" height="8.4"/>
	<rect x="1858.4" y="747.1" class="st13" width="4.9" height="8.4"/>
	<rect x="1858.4" y="766.3" class="st13" width="4.9" height="8.4"/>
	<rect x="1858.4" y="786" class="st13" width="4.9" height="8.4"/>
	<path class="st13" d="M1834.9,709.1c-9.5,0-8.2,0.8-8.2-6c0-6.9,3.7-12.4,8.2-12.4c4.5,0,8.2,5.6,8.1,12.5
		C1843.1,709.9,1844.4,709.1,1834.9,709.1z"/>
	<rect x="1826.7" y="704" class="st13" width="16.5" height="5.4"/>
	<rect x="1824.4" y="689.3" class="st11" width="20.1" height="1.7"/>
	<rect x="1868.3" y="709.4" class="st20" width="37.6" height="131.3"/>
	<rect x="1868.3" y="708.2" class="st11" width="40.3" height="10.9"/>
	<path class="st11" d="M1880.7,677.2h-1.7v5.6h1.7V677.2z"/>
	<path class="st11" d="M1879.9,674.7l-0.9,2.6h1.8L1879.9,674.7z"/>
	<path class="st12" d="M1879.9,675.1c0.2,0,0.3-0.1,0.3-0.2c0-0.1-0.1-0.2-0.3-0.2c-0.1,0-0.3,0.1-0.3,0.2
		C1879.6,675,1879.7,675.1,1879.9,675.1z"/>
	<rect x="1900.9" y="706.9" class="st11" width="7.6" height="13.8"/>
	<rect x="1872.7" y="735.8" class="st11" width="14.8" height="2.5"/>
	<rect x="1872.7" y="755.4" class="st11" width="14.8" height="2.5"/>
	<rect x="1872.7" y="774.7" class="st11" width="14.8" height="2.5"/>
	<rect x="1872.7" y="794.3" class="st11" width="14.8" height="2.5"/>
	<rect x="1874.1" y="727.4" class="st14" width="4.9" height="8.4"/>
	<rect x="1881.2" y="727.4" class="st14" width="4.9" height="8.4"/>
	<rect x="1874.1" y="747.1" class="st14" width="4.9" height="8.4"/>
	<rect x="1881.2" y="747.1" class="st14" width="4.9" height="8.4"/>
	<rect x="1874.1" y="766.3" class="st14" width="4.9" height="8.4"/>
	<rect x="1881.2" y="766.3" class="st14" width="4.9" height="8.4"/>
	<rect x="1874.1" y="786" class="st14" width="4.9" height="8.4"/>
	<rect x="1881.2" y="786" class="st14" width="4.9" height="8.4"/>
	<rect x="1894.7" y="727.4" class="st13" width="4.9" height="8.4"/>
	<rect x="1894.7" y="747.1" class="st13" width="4.9" height="8.4"/>
	<rect x="1894.7" y="766.3" class="st13" width="4.9" height="8.4"/>
	<rect x="1894.7" y="786" class="st13" width="4.9" height="8.4"/>
	<rect x="1807.9" y="720.3" class="st20" width="46.1" height="120.5"/>
	<rect x="1812.8" y="709.4" class="st11" width="46.1" height="10.9"/>
	<rect x="1603" y="709.4" class="st16" width="174" height="131.3"/>
	<rect x="1577" y="709.4" class="st12" width="67.6" height="131.3"/>
	<rect x="1662.9" y="731.2" class="st14" width="7.6" height="15.5"/>
	<rect x="1662.9" y="777.6" class="st14" width="7.6" height="15.5"/>
	<rect x="1662.9" y="754.6" class="st14" width="7.6" height="15.5"/>
	<rect x="1720.2" y="731.2" class="st14" width="7.6" height="15.5"/>
	<rect x="1720.2" y="777.6" class="st14" width="7.6" height="15.5"/>
	<rect x="1720.2" y="754.6" class="st14" width="7.6" height="15.5"/>
	<rect x="1691.5" y="731.2" class="st14" width="7.6" height="15.5"/>
	<rect x="1691.5" y="777.6" class="st14" width="7.6" height="15.5"/>
	<rect x="1691.5" y="754.6" class="st14" width="7.6" height="15.5"/>
	<rect x="1605.2" y="709.4" class="st20" width="12.1" height="97.5"/>
	<rect x="1617.3" y="709.4" class="st21" width="5.4" height="97.5"/>
	<rect x="1599.8" y="709.4" class="st21" width="5.4" height="97.5"/>
	<rect x="1607.4" y="731.2" class="st14" width="7.6" height="15.5"/>
	<rect x="1607.4" y="777.6" class="st14" width="7.6" height="15.5"/>
	<rect x="1607.4" y="754.6" class="st14" width="7.6" height="15.5"/>
	<rect x="1586" y="731.2" class="st13" width="7.6" height="15.5"/>
	<rect x="1586" y="777.6" class="st13" width="7.6" height="15.5"/>
	<rect x="1586" y="754.6" class="st13" width="7.6" height="15.5"/>
	<rect x="1628.9" y="731.2" class="st13" width="7.6" height="15.5"/>
	<rect x="1628.9" y="777.6" class="st13" width="7.6" height="15.5"/>
	<rect x="1628.9" y="754.6" class="st13" width="7.6" height="15.5"/>
	<path class="st16" d="M1666.7,689.3l9.9,26.3h-19.8L1666.7,689.3z"/>
	<path class="st16" d="M1695.8,689.3l9.9,26.3h-19.8L1695.8,689.3z"/>
	<path class="st16" d="M1724,689.3l9.9,26.3h-19.8L1724,689.3z"/>
	<rect x="1605.2" y="709.4" class="st11" width="2.2" height="97.5"/>
	<rect x="1615.1" y="709.4" class="st11" width="2.2" height="97.5"/>
	<rect x="1745.2" y="709.4" class="st12" width="67.6" height="131.3"/>
	<rect x="1773.4" y="709.4" class="st20" width="12.1" height="97.5"/>
	<rect x="1785.5" y="709.4" class="st21" width="5.4" height="97.5"/>
	<rect x="1768" y="709.4" class="st21" width="5.4" height="97.5"/>
	<rect x="1775.7" y="731.2" class="st14" width="7.6" height="15.5"/>
	<rect x="1775.7" y="777.6" class="st14" width="7.6" height="15.5"/>
	<rect x="1775.7" y="754.6" class="st14" width="7.6" height="15.5"/>
	<rect x="1773.4" y="709.4" class="st11" width="2.2" height="97.5"/>
	<rect x="1783.3" y="709.4" class="st11" width="2.2" height="97.5"/>
	<rect x="1745.2" y="806.9" class="st20" width="1.8" height="33.9"/>
	<path class="st20" d="M1611,641.3l25.6,56.1h-51.1L1611,641.3z"/>
	<path class="st12" d="M1611.2,656.7l9.9,26.3h-19.8L1611.2,656.7z"/>
	<path class="st11" d="M1601.6,677h-1.7v6.1h1.7V677z"/>
	<path class="st11" d="M1600.7,674.3l-0.9,2.8h1.8L1600.7,674.3z"/>
	<path class="st12" d="M1600.7,674.7c0.1,0,0.3-0.1,0.3-0.2s-0.1-0.2-0.3-0.2c-0.2,0-0.3,0.1-0.3,0.2S1600.6,674.7,1600.7,674.7z"/>
	<path class="st11" d="M1623,677h-1.7v6.1h1.7V677z"/>
	<path class="st11" d="M1622.2,674.3l-0.9,2.8h1.8L1622.2,674.3z"/>
	<path class="st12" d="M1622.2,674.7c0.2,0,0.3-0.1,0.3-0.2s-0.1-0.2-0.3-0.2c-0.2,0-0.3,0.1-0.3,0.2S1622,674.7,1622.2,674.7z"/>
	<path class="st11" d="M1611.9,652.8h-1.7v6.1h1.7V652.8z"/>
	<path class="st11" d="M1611,650l-0.9,2.8h1.8L1611,650z"/>
	<path class="st12" d="M1611,650.5c0.2,0,0.3-0.1,0.3-0.2c0-0.1-0.1-0.2-0.3-0.2c-0.2,0-0.3,0.1-0.3,0.2
		C1610.7,650.4,1610.9,650.5,1611,650.5z"/>
	<rect x="1599.4" y="683.1" class="st12" width="23.7" height="21.7"/>
	<rect x="1605.2" y="691" class="st14" width="4.9" height="8.4"/>
	<rect x="1612.4" y="691" class="st14" width="4.9" height="8.4"/>
	<rect x="1573.4" y="704.8" class="st11" width="71.1" height="4.6"/>
	<rect x="1573.4" y="691.9" class="st11" width="13.4" height="2.5"/>
	<rect x="1631.2" y="691.9" class="st11" width="13.4" height="2.5"/>
	<rect x="1656.7" y="706.9" class="st11" width="5.4" height="2.5"/>
	<rect x="1649" y="804.4" class="st20" width="5.4" height="2.5"/>
	<rect x="1678.1" y="804.4" class="st20" width="5.4" height="2.5"/>
	<rect x="1707.2" y="804.4" class="st20" width="5.4" height="2.5"/>
	<rect x="1735.4" y="804.4" class="st20" width="5.4" height="2.5"/>
	<rect x="1671.4" y="706.9" class="st11" width="5.4" height="2.5"/>
	<rect x="1685.7" y="706.9" class="st11" width="5.4" height="2.5"/>
	<rect x="1700.5" y="706.9" class="st11" width="5.4" height="2.5"/>
	<rect x="1713.5" y="706.9" class="st11" width="5.4" height="2.5"/>
	<rect x="1728.2" y="706.9" class="st11" width="5.4" height="2.5"/>
	<rect x="1599.4" y="683.1" class="st11" width="23.7" height="2.5"/>
	<rect x="1743.9" y="691.9" class="st20" width="70.2" height="17.6"/>
	<path class="st20" d="M1779.2,641.2l25.6,56.2h-51.1L1779.2,641.2z"/>
	<path class="st12" d="M1779.5,656.7l9.9,26.3h-19.8L1779.5,656.7z"/>
	<path class="st11" d="M1769.8,677h-1.7v6.1h1.7V677z"/>
	<path class="st11" d="M1768.9,674.3l-0.9,2.8h1.8L1768.9,674.3z"/>
	<path class="st12" d="M1768.9,674.7c0.1,0,0.3-0.1,0.3-0.2s-0.1-0.2-0.3-0.2c-0.2,0-0.3,0.1-0.3,0.2S1768.8,674.7,1768.9,674.7z"/>
	<path class="st11" d="M1791.3,677h-1.7v6.1h1.7V677z"/>
	<path class="st11" d="M1790.4,674.3l-0.9,2.8h1.8L1790.4,674.3z"/>
	<path class="st12" d="M1790.4,674.7c0.2,0,0.3-0.1,0.3-0.2s-0.1-0.2-0.3-0.2c-0.1,0-0.3,0.1-0.3,0.2S1790.3,674.7,1790.4,674.7z"/>
	<path class="st11" d="M1780.1,652.8h-1.7v6.1h1.7V652.8z"/>
	<path class="st11" d="M1779.2,650l-0.9,2.8h1.8L1779.2,650z"/>
	<path class="st12" d="M1779.2,650.5c0.2,0,0.3-0.1,0.3-0.2c0-0.1-0.1-0.2-0.3-0.2c-0.2,0-0.3,0.1-0.3,0.2
		C1779,650.4,1779.1,650.5,1779.2,650.5z"/>
	<path class="st11" d="M1780.1,637.7h-1.7v6.1h1.7V637.7z"/>
	<path class="st11" d="M1779.2,635l-0.9,2.8h1.8L1779.2,635z"/>
	<path class="st12" d="M1779.2,635.4c0.2,0,0.3-0.1,0.3-0.2c0-0.1-0.1-0.2-0.3-0.2c-0.2,0-0.3,0.1-0.3,0.2
		C1779,635.3,1779.1,635.4,1779.2,635.4z"/>
	<rect x="1767.6" y="683.1" class="st12" width="23.7" height="21.7"/>
	<rect x="1773.4" y="691" class="st14" width="4.9" height="8.4"/>
	<rect x="1780.6" y="691" class="st14" width="4.9" height="8.4"/>
	<rect x="1743.9" y="691.9" class="st11" width="14.8" height="2.5"/>
	<rect x="1799.4" y="691.9" class="st11" width="14.8" height="2.5"/>
	<rect x="1767.6" y="683.1" class="st11" width="23.7" height="2.5"/>
	<rect x="1644.6" y="806.9" class="st11" width="100.7" height="33.9"/>
	<path class="st13" d="M1695.3,840.9c-12.5,0-10.9,1-10.8-7c0-8,4.9-14.4,10.9-14.4c6,0,10.8,6.5,10.8,14.5
		C1706.1,841.9,1707.8,840.9,1695.3,840.9z"/>
	<rect x="1684.4" y="834.5" class="st13" width="21.9" height="6.2"/>
	<path class="st13" d="M1723.9,840.9c-12.5,0-10.9,1-10.8-7c0-8,4.9-14.4,10.9-14.4c6,0,10.8,6.5,10.8,14.5
		C1734.8,841.9,1736.5,840.9,1723.9,840.9z"/>
	<rect x="1713" y="834.5" class="st13" width="21.9" height="6.2"/>
	<path class="st13" d="M1666.7,840.9c-12.5,0-10.9,1-10.8-7c0-8,4.9-14.4,10.9-14.4c6,0,10.8,6.5,10.8,14.5
		C1677.5,841.9,1679.2,840.9,1666.7,840.9z"/>
	<rect x="1655.8" y="834.5" class="st13" width="21.9" height="6.2"/>
	<path class="st22" d="M1600.6,833.9c0,1,0,1.8-0.1,2.5v0.1c0,0.7,0,1.3,0,1.8c0,1,0.2,1.3,0.5,1.5c0.2,0.1,0.5,0.2,0.9,0.3
		c0.5,0.1,1.1,0.1,1.9,0.1c0.9,0,1.9,0,3.2,0c1.1,0,2.3,0,3.7,0c1.4,0,2.7,0,3.7,0c1.3,0,2.4,0,3.2,0c0.8,0,1.4-0.1,1.9-0.1
		c0.5-0.1,0.7-0.2,0.9-0.3c0.3-0.2,0.5-0.5,0.5-1.5c0-0.5,0-1.1,0-1.8v-0.1c0-0.7,0-1.5,0-2.5c0-4,0-8.7-1.3-12.4
		c-0.7-1.8-1.6-3.4-3-4.5c-1.4-1.1-3.3-1.8-5.9-1.8c-2.6,0-4.5,0.7-5.9,1.7c-1.4,1.1-2.3,2.6-3,4.4c-1.3,3.6-1.3,8.2-1.3,12.2
		C1600.6,833.7,1600.6,833.8,1600.6,833.9z"/>
	<rect x="1600.5" y="838.5" class="st22" width="20.6" height="1.6"/>
	<rect x="1675.9" y="814.8" class="st20" width="10.3" height="25.9"/>
	<rect x="1646.8" y="814.8" class="st20" width="10.3" height="25.9"/>
	<rect x="1732.7" y="814.8" class="st20" width="10.3" height="25.9"/>
	<rect x="1704.5" y="814.8" class="st20" width="10.3" height="25.9"/>
	<rect x="1646.4" y="813.1" class="st20" width="11.2" height="2.9"/>
	<rect x="1675.5" y="813.1" class="st20" width="11.2" height="2.9"/>
	<rect x="1704.1" y="813.1" class="st20" width="11.2" height="2.9"/>
	<rect x="1732.3" y="813.1" class="st20" width="11.2" height="2.9"/>
	<rect x="1641.9" y="806.9" class="st20" width="106" height="6.3"/>
	<rect x="1641.9" y="806.9" class="st16" width="106" height="1.3"/>
	<rect x="1642.8" y="808.1" class="st20" width="1.8" height="32.6"/>
	<rect x="1753.7" y="730.8" class="st13" width="7.6" height="15.5"/>
	<rect x="1753.7" y="777.2" class="st13" width="7.6" height="15.5"/>
	<rect x="1753.7" y="754.2" class="st13" width="7.6" height="15.5"/>
	<rect x="1796.7" y="730.8" class="st13" width="7.6" height="15.5"/>
	<rect x="1852.6" y="708.2" class="st11" width="7.6" height="13.8"/>
	<rect x="1796.7" y="777.2" class="st13" width="7.6" height="15.5"/>
	<rect x="1796.7" y="754.2" class="st13" width="7.6" height="15.5"/>
	<rect x="1666" y="688.9" class="st16" width="1.3" height="2.5"/>
	<rect x="1695.1" y="688.9" class="st16" width="1.3" height="2.5"/>
	<rect x="1723.3" y="688.9" class="st16" width="1.3" height="2.5"/>
	<rect x="1654.4" y="720.3" class="st11" width="2.2" height="2.5"/>
	<rect x="1661.1" y="720.3" class="st11" width="1.8" height="2.5"/>
	<rect x="1648.1" y="720.3" class="st11" width="1.8" height="2.5"/>
	<rect x="1667.4" y="720.3" class="st11" width="2.2" height="2.5"/>
	<rect x="1693.3" y="720.3" class="st11" width="2.2" height="2.5"/>
	<rect x="1706.3" y="720.3" class="st11" width="2.2" height="2.5"/>
	<rect x="1700" y="720.3" class="st11" width="1.8" height="2.5"/>
	<rect x="1713" y="720.3" class="st11" width="1.8" height="2.5"/>
	<rect x="1726" y="720.3" class="st11" width="1.8" height="2.5"/>
	<rect x="1719.3" y="720.3" class="st11" width="2.2" height="2.5"/>
	<rect x="1739" y="720.3" class="st11" width="1.8" height="2.5"/>
	<rect x="1732.3" y="720.3" class="st11" width="2.2" height="2.5"/>
	<rect x="1687.1" y="720.3" class="st11" width="1.8" height="2.5"/>
	<rect x="1680.3" y="720.3" class="st11" width="2.2" height="2.5"/>
	<rect x="1674.1" y="720.3" class="st11" width="1.8" height="2.5"/>
	<rect x="1644.6" y="716.1" class="st11" width="100.7" height="4.2"/>
	<rect x="1750.8" y="710.3" class="st11" width="1.6" height="2.5"/>
	<rect x="1755.4" y="710.3" class="st11" width="1.2" height="2.5"/>
	<rect x="1746.4" y="710.3" class="st11" width="1.2" height="2.5"/>
	<rect x="1759.8" y="710.3" class="st11" width="1.6" height="2.5"/>
	<rect x="1777.9" y="710.3" class="st11" width="1.6" height="2.5"/>
	<rect x="1787" y="710.3" class="st11" width="1.6" height="2.5"/>
	<rect x="1782.6" y="710.3" class="st11" width="1.2" height="2.5"/>
	<rect x="1791.7" y="710.3" class="st11" width="1.2" height="2.5"/>
	<rect x="1800.7" y="710.3" class="st11" width="1.2" height="2.5"/>
	<rect x="1796" y="710.3" class="st11" width="1.6" height="2.5"/>
	<rect x="1809.8" y="710.3" class="st11" width="1.2" height="2.5"/>
	<rect x="1805.1" y="710.3" class="st11" width="1.6" height="2.5"/>
	<rect x="1773.5" y="710.3" class="st11" width="1.2" height="2.5"/>
	<rect x="1768.9" y="710.3" class="st11" width="1.6" height="2.5"/>
	<rect x="1764.5" y="710.3" class="st11" width="1.2" height="2.5"/>
	<rect x="1743.9" y="706.1" class="st11" width="70.2" height="4.2"/>
	<rect x="1811" y="666.2" class="st20" width="59.5" height="11.6"/>
	<path class="st20" d="M1840.9,632.9l21.7,37h-43.3L1840.9,632.9z"/>
	<path class="st12" d="M1841.1,643.1l8.4,17.4h-16.7L1841.1,643.1z"/>
	<path class="st11" d="M1832.9,656.5h-1.4v4h1.4V656.5z"/>
	<path class="st11" d="M1832.2,654.7l-0.8,1.9h1.5L1832.2,654.7z"/>
	<path class="st12" d="M1832.2,655c0.1,0,0.2-0.1,0.2-0.2c0-0.1-0.1-0.1-0.2-0.1s-0.2,0.1-0.2,0.1C1832,654.9,1832.1,655,1832.2,655
		z"/>
	<path class="st11" d="M1851.1,656.5h-1.4v4h1.4V656.5z"/>
	<path class="st11" d="M1850.4,654.7l-0.8,1.9h1.5L1850.4,654.7z"/>
	<path class="st12" d="M1850.4,655c0.1,0,0.2-0.1,0.2-0.1c0-0.1-0.1-0.1-0.2-0.1c-0.1,0-0.2,0.1-0.2,0.1
		C1850.2,654.9,1850.3,655,1850.4,655z"/>
	<path class="st11" d="M1841.7,640.5h-1.4v4h1.4V640.5z"/>
	<path class="st11" d="M1840.9,638.7l-0.8,1.9h1.5L1840.9,638.7z"/>
	<path class="st12" d="M1840.9,639c0.1,0,0.2-0.1,0.2-0.1c0-0.1-0.1-0.1-0.2-0.1c-0.1,0-0.2,0.1-0.2,0.1
		C1840.7,638.9,1840.8,639,1840.9,639z"/>
	<path class="st11" d="M1841.5,630.5h-1.4v4h1.4V630.5z"/>
	<path class="st11" d="M1840.8,628.7l-0.8,1.9h1.5L1840.8,628.7z"/>
	<path class="st12" d="M1840.8,629c0.1,0,0.2-0.1,0.2-0.2c0-0.1-0.1-0.1-0.2-0.1s-0.2,0.1-0.2,0.1
		C1840.6,628.9,1840.7,629,1840.8,629z"/>
	<rect x="1831.1" y="660.5" class="st12" width="20.1" height="14.3"/>
	<rect x="1811" y="666.2" class="st11" width="12.5" height="1.7"/>
	<rect x="1858" y="666.2" class="st11" width="12.5" height="1.7"/>
	<rect x="1838.3" y="663.8" class="st14" width="4.9" height="8.4"/>
	<rect x="1831.1" y="659.7" class="st11" width="20.1" height="1.7"/>
	<rect x="1817.9" y="681.8" class="st11" width="1.6" height="2.5"/>
	<rect x="1822.5" y="681.8" class="st11" width="1.2" height="2.5"/>
	<rect x="1813.5" y="681.8" class="st11" width="1.2" height="2.5"/>
	<rect x="1826.9" y="681.8" class="st11" width="1.6" height="2.5"/>
	<rect x="1845" y="681.8" class="st11" width="1.6" height="2.5"/>
	<rect x="1854.1" y="681.8" class="st11" width="1.6" height="2.5"/>
	<rect x="1849.7" y="681.8" class="st11" width="1.2" height="2.5"/>
	<rect x="1858.8" y="681.8" class="st11" width="1.2" height="2.5"/>
	<rect x="1867.8" y="681.8" class="st11" width="1.2" height="2.5"/>
	<rect x="1863.1" y="681.8" class="st11" width="1.6" height="2.5"/>
	<rect x="1840.7" y="681.8" class="st11" width="1.2" height="2.5"/>
	<rect x="1836" y="681.8" class="st11" width="1.6" height="2.5"/>
	<rect x="1831.6" y="681.8" class="st11" width="1.2" height="2.5"/>
	<rect x="1811" y="677.6" class="st11" width="59.5" height="4.2"/>
	<rect x="1875.1" y="721.6" class="st11" width="1.6" height="2.5"/>
	<rect x="1879.8" y="721.6" class="st11" width="1.2" height="2.5"/>
	<rect x="1870.8" y="721.6" class="st11" width="1.2" height="2.5"/>
	<rect x="1884.2" y="721.6" class="st11" width="1.6" height="2.5"/>
	<rect x="1902.3" y="721.6" class="st11" width="1.6" height="2.5"/>
	<rect x="1907" y="721.6" class="st11" width="1.2" height="2.5"/>
	<rect x="1897.9" y="721.6" class="st11" width="1.2" height="2.5"/>
	<rect x="1893.2" y="721.6" class="st11" width="1.6" height="2.5"/>
	<rect x="1888.9" y="721.6" class="st11" width="1.2" height="2.5"/>
	<rect x="1868.3" y="717.4" class="st11" width="40.3" height="4.2"/>
	<rect x="1601.2" y="822.4" class="st11" width="19.2" height="0.8"/>
	<rect x="1610.1" y="814.8" class="st11" width="1.3" height="25.9"/>
	<rect x="1602.5" y="818.6" class="st11" width="16.6" height="0.4"/>
	<path class="st22" d="M1769.3,833.7c0,1,0,1.8-0.1,2.5v0.1c0,0.7,0,1.3,0,1.8c0,1,0.2,1.3,0.5,1.5c0.2,0.1,0.5,0.2,0.9,0.3
		c0.5,0.1,1.1,0.1,1.9,0.1c0.9,0,1.9,0,3.3,0c1.1,0,2.3,0,3.7,0c1.4,0,2.7,0,3.7,0c1.3,0,2.4,0,3.2,0c0.8,0,1.4-0.1,1.9-0.1
		c0.5-0.1,0.7-0.2,0.9-0.3c0.3-0.2,0.5-0.5,0.5-1.5c0-0.5,0-1.1,0-1.8v-0.1c0-0.7,0-1.5,0-2.5c0-4,0-8.7-1.3-12.4
		c-0.7-1.8-1.6-3.4-3-4.5c-1.4-1.1-3.3-1.8-5.9-1.8c-2.6,0-4.5,0.7-5.9,1.7c-1.4,1.1-2.3,2.6-3,4.4c-1.3,3.6-1.3,8.2-1.3,12.2
		C1769.3,833.5,1769.3,833.6,1769.3,833.7z"/>
	<rect x="1769.2" y="838.3" class="st22" width="20.6" height="1.6"/>
	<rect x="1769.8" y="822.2" class="st11" width="19.2" height="0.8"/>
	<rect x="1778.8" y="814.8" class="st11" width="1.3" height="25.5"/>
	<rect x="1771.2" y="818.4" class="st11" width="16.6" height="0.4"/>
	<rect x="1664.7" y="705.2" class="st14" width="4" height="7.1"/>
	<path class="st11" d="M1574.8,663.3l-0.9,2.6h1.8L1574.8,663.3z"/>
	<path class="st12" d="M1574.8,663.7c0.2,0,0.3-0.1,0.3-0.2c0-0.1-0.1-0.2-0.3-0.2c-0.1,0-0.3,0.1-0.3,0.2
		C1574.5,663.6,1574.6,663.7,1574.8,663.7z"/>
	<rect x="1577" y="680" class="st16" width="30.4" height="32.3"/>
	<path class="st16" d="M1592,632.1l15.7,48.2h-31.4L1592,632.1z"/>
	<rect x="1573.9" y="671.5" class="st16" width="36.2" height="12.5"/>
	<path class="st11" d="M1592.6,630.4h-1.7v5.6h1.7V630.4z"/>
	<path class="st11" d="M1591.8,627.9l-0.9,2.6h1.8L1591.8,627.9z"/>
	<path class="st12" d="M1591.8,628.3c0.2,0,0.3-0.1,0.3-0.2c0-0.1-0.1-0.2-0.3-0.2c-0.2,0-0.3,0.1-0.3,0.2
		C1591.5,628.2,1591.6,628.3,1591.8,628.3z"/>
	<path class="st11" d="M1575.6,665.8h-1.7v5.6h1.7V665.8z"/>
	<rect x="1573.9" y="684.7" class="st11" width="1.6" height="2.3"/>
	<rect x="1583.4" y="684.7" class="st11" width="1.6" height="2.3"/>
	<rect x="1578.8" y="684.7" class="st11" width="1.3" height="2.3"/>
	<rect x="1588.4" y="684.7" class="st11" width="1.3" height="2.3"/>
	<rect x="1597.9" y="684.7" class="st11" width="1.3" height="2.3"/>
	<rect x="1593" y="684.7" class="st11" width="1.6" height="2.3"/>
	<rect x="1607.5" y="684.7" class="st11" width="1.3" height="2.3"/>
	<rect x="1602.5" y="684.7" class="st11" width="1.6" height="2.3"/>
	<rect x="1573.9" y="680.8" class="st11" width="30.3" height="3.9"/>
	<path class="st12" d="M1591.8,652.8l7.8,19.3H1584L1591.8,652.8z"/>
	<rect x="1574.3" y="671.5" class="st11" width="12.1" height="1.9"/>
	<rect x="1596.7" y="671.5" class="st11" width="15.2" height="1.9"/>
	<rect x="1591.3" y="652.4" class="st11" width="0.9" height="1.9"/>
	<rect x="1693.8" y="705.2" class="st14" width="4" height="7.1"/>
	<rect x="1722" y="705.7" class="st14" width="4" height="7.1"/>
	<rect x="1827.6" y="735.8" class="st11" width="14.8" height="2.5"/>
	<rect x="1827.6" y="755.4" class="st11" width="14.8" height="2.5"/>
	<rect x="1827.6" y="774.7" class="st11" width="14.8" height="2.5"/>
	<rect x="1827.6" y="794.3" class="st11" width="14.8" height="2.5"/>
	<rect x="1828.9" y="727.4" class="st14" width="4.9" height="8.4"/>
	<rect x="1836.1" y="727.4" class="st14" width="4.9" height="8.4"/>
	<rect x="1828.9" y="747.1" class="st14" width="4.9" height="8.4"/>
	<rect x="1836.1" y="747.1" class="st14" width="4.9" height="8.4"/>
	<rect x="1828.9" y="766.3" class="st14" width="4.9" height="8.4"/>
	<rect x="1836.1" y="766.3" class="st14" width="4.9" height="8.4"/>
	<rect x="1828.9" y="786" class="st14" width="4.9" height="8.4"/>
	<rect x="1836.1" y="786" class="st14" width="4.9" height="8.4"/>
	<path class="st11" d="M1816.3,804.4h90.4c2,0,3.6,1.6,3.6,3.6l0,0c0,2-1.6,3.6-3.6,3.6h-90.4c-2,0-3.6-1.6-3.6-3.6l0,0
		C1812.8,806,1814.4,804.4,1816.3,804.4z"/>
	<rect x="1812.8" y="808.5" class="st13" width="97.5" height="32.2"/>
	<rect x="1857.1" y="801.9" class="st11" width="5.4" height="2.5"/>
	<rect x="1845.4" y="801.9" class="st11" width="5.4" height="2.5"/>
	<rect x="1869.2" y="801.9" class="st11" width="5.4" height="2.5"/>
	<rect x="1828" y="808.5" class="st11" width="0.9" height="32.2"/>
	<rect x="1826.2" y="808.5" class="st11" width="0.9" height="32.2"/>
	<rect x="1850.8" y="808.5" class="st11" width="0.9" height="32.2"/>
	<rect x="1815" y="808.6" class="st11" width="0.4" height="5"/>
	<rect x="1817.7" y="808.6" class="st11" width="0.4" height="5"/>
	<rect x="1820.4" y="808.6" class="st11" width="0.4" height="5"/>
	<rect x="1823.1" y="808.6" class="st11" width="0.4" height="5"/>
	<rect x="1831.6" y="808.6" class="st11" width="0.4" height="5"/>
	<rect x="1834.3" y="808.6" class="st11" width="0.4" height="5"/>
	<rect x="1836.9" y="808.6" class="st11" width="0.4" height="5"/>
	<rect x="1839.6" y="808.6" class="st11" width="0.4" height="5"/>
	<rect x="1842.3" y="808.6" class="st11" width="0.4" height="5"/>
	<rect x="1845" y="808.6" class="st11" width="0.4" height="5"/>
	<rect x="1847.7" y="808.6" class="st11" width="0.4" height="5"/>
	<rect x="1854.4" y="808.6" class="st11" width="0.4" height="5"/>
	<rect x="1857.1" y="808.6" class="st11" width="0.4" height="5"/>
	<rect x="1859.8" y="808.6" class="st11" width="0.4" height="5"/>
	<rect x="1862.5" y="808.6" class="st11" width="0.4" height="5"/>
	<rect x="1865.1" y="808.6" class="st11" width="0.4" height="5"/>
	<rect x="1867.8" y="808.6" class="st11" width="0.4" height="5"/>
	<rect x="1870.5" y="808.6" class="st11" width="0.4" height="5"/>
	<rect x="1873.2" y="808.6" class="st11" width="0.4" height="5"/>
	<rect x="1875.9" y="808.6" class="st11" width="0.4" height="5"/>
	<rect x="1882.1" y="808.6" class="st11" width="0.4" height="5"/>
	<rect x="1884.8" y="808.6" class="st11" width="0.4" height="5"/>
	<rect x="1887.5" y="808.6" class="st11" width="0.4" height="5"/>
	<rect x="1890.2" y="808.6" class="st11" width="0.4" height="5"/>
	<rect x="1892.9" y="808.6" class="st11" width="0.4" height="5"/>
	<rect x="1895.5" y="808.6" class="st11" width="0.4" height="5"/>
	<rect x="1898.2" y="808.6" class="st11" width="0.4" height="5"/>
	<rect x="1905.8" y="808.6" class="st11" width="0.4" height="5"/>
	<rect x="1908.1" y="808.6" class="st11" width="0.4" height="5"/>
	<rect x="1878.6" y="808.5" class="st11" width="0.9" height="32.2"/>
	<rect x="1902.7" y="808.1" class="st11" width="0.9" height="32.2"/>
	<rect x="1900.9" y="808.5" class="st11" width="0.9" height="32.2"/>
	<rect x="1812.8" y="819.4" class="st12" width="97.5" height="0.8"/>
	<rect x="1812.8" y="813.6" class="st11" width="97.5" height="0.4"/>
	<rect x="1812.8" y="827.4" class="st12" width="97.5" height="0.8"/>
	<rect x="1812.8" y="835.3" class="st12" width="97.5" height="0.8"/>
	<rect x="1573.4" y="691.9" class="st20" width="71.1" height="17.6"/>
	<path class="st20" d="M1611,641.3l25.6,56.2h-51.1L1611,641.3z"/>
	<path class="st11" d="M1611.9,636.9h-1.7v6.1h1.7V636.9z"/>
	<path class="st11" d="M1611,634.1l-0.9,2.8h1.8L1611,634.1z"/>
	<path class="st12" d="M1611,634.6c0.2,0,0.3-0.1,0.3-0.2s-0.1-0.2-0.3-0.2c-0.2,0-0.3,0.1-0.3,0.2S1610.9,634.6,1611,634.6z"/>
	<path class="st12" d="M1611.2,656.7l9.9,26.4h-19.8L1611.2,656.7z"/>
	<path class="st11" d="M1601.6,677h-1.7v6.1h1.7V677z"/>
	<path class="st11" d="M1600.7,674.3l-0.9,2.8h1.8L1600.7,674.3z"/>
	<path class="st12" d="M1600.7,674.8c0.1,0,0.3-0.1,0.3-0.2c0-0.1-0.1-0.2-0.3-0.2c-0.2,0-0.3,0.1-0.3,0.2
		C1600.5,674.6,1600.6,674.8,1600.7,674.8z"/>
	<path class="st11" d="M1623,677h-1.7v6.1h1.7V677z"/>
	<path class="st11" d="M1622.2,674.3l-0.9,2.8h1.8L1622.2,674.3z"/>
	<path class="st12" d="M1622.2,674.8c0.2,0,0.3-0.1,0.3-0.2c0-0.1-0.1-0.2-0.3-0.2c-0.2,0-0.3,0.1-0.3,0.2
		C1621.9,674.6,1622,674.8,1622.2,674.8z"/>
	<path class="st11" d="M1611.9,652.8h-1.7v6.1h1.7V652.8z"/>
	<path class="st11" d="M1611,650l-0.9,2.8h1.8L1611,650z"/>
	<path class="st12" d="M1611,650.5c0.2,0,0.3-0.1,0.3-0.2c0-0.1-0.1-0.2-0.3-0.2c-0.2,0-0.3,0.1-0.3,0.2
		C1610.7,650.4,1610.9,650.5,1611,650.5z"/>
	<rect x="1599.4" y="683.1" class="st12" width="23.7" height="21.7"/>
	<rect x="1605.2" y="691" class="st14" width="4.9" height="8.4"/>
	<rect x="1612.4" y="691" class="st14" width="4.9" height="8.4"/>
	<rect x="1573.4" y="691.9" class="st11" width="17" height="2.5"/>
	<rect x="1631.2" y="691.9" class="st11" width="13.4" height="2.5"/>
	<rect x="1580.4" y="709.4" class="st11" width="1.6" height="2.5"/>
	<rect x="1585.1" y="709.4" class="st11" width="1.3" height="2.5"/>
	<rect x="1576" y="709.4" class="st11" width="1.3" height="2.5"/>
	<rect x="1589.6" y="709.4" class="st11" width="1.6" height="2.5"/>
	<rect x="1607.9" y="709.4" class="st11" width="1.6" height="2.5"/>
	<rect x="1617.1" y="709.4" class="st11" width="1.6" height="2.5"/>
	<rect x="1612.6" y="709.4" class="st11" width="1.3" height="2.5"/>
	<rect x="1621.8" y="709.4" class="st11" width="1.3" height="2.5"/>
	<rect x="1631" y="709.4" class="st11" width="1.3" height="2.5"/>
	<rect x="1626.2" y="709.4" class="st11" width="1.6" height="2.5"/>
	<rect x="1640.1" y="709.4" class="st11" width="1.3" height="2.5"/>
	<rect x="1635.4" y="709.4" class="st11" width="1.6" height="2.5"/>
	<rect x="1603.5" y="709.4" class="st11" width="1.3" height="2.5"/>
	<rect x="1598.7" y="709.4" class="st11" width="1.6" height="2.5"/>
	<rect x="1594.3" y="709.4" class="st11" width="1.3" height="2.5"/>
	<rect x="1573.4" y="705.2" class="st11" width="71.1" height="4.2"/>
	<path class="st23" d="M1429.6,710l42.5-36.5l42.5,36.5H1429.6z"/>
	<rect x="1423.2" y="712.4" class="st11" width="97.8" height="127.4"/>
	<rect x="1364.9" y="669.9" class="st16" width="58.3" height="169.9"/>
	<rect x="1373.4" y="632.5" class="st13" width="41.4" height="37.4"/>
	<rect x="1379" y="598.6" class="st13" width="31" height="37.4"/>
	<rect x="1384.6" y="568.8" class="st13" width="19.8" height="37.4"/>
	<rect x="1388.4" y="547.6" class="st13" width="12.2" height="37.4"/>
	<rect x="1521" y="669.9" class="st16" width="58.3" height="169.9"/>
	<ellipse class="st15" cx="1472.1" cy="658" rx="2.8" ry="12.7"/>
	<path class="st13" d="M1394.5,512.8l5.3,35.7h-10.6L1394.5,512.8z"/>
	<rect x="1529.5" y="632.5" class="st13" width="41.4" height="37.4"/>
	<rect x="1535.1" y="598.6" class="st13" width="31" height="37.4"/>
	<rect x="1540.8" y="568.8" class="st13" width="19.8" height="37.4"/>
	<rect x="1544.5" y="547.6" class="st13" width="12.2" height="37.4"/>
	<path class="st13" d="M1550.6,512.8l5.3,35.7h-10.6L1550.6,512.8z"/>
	<path class="st13" d="M1556.8,791.4v-25.9c0-6.6-7.1-14.9-7.1-14.9s-7.1,8.2-7.1,14.9v25.9H1556.8z"/>
	<path class="st13" d="M1400.6,791.4v-25.9c0-6.6-7.1-14.9-7.1-14.9s-7.1,8.2-7.1,14.9v25.9H1400.6z"/>
	<path class="st16" d="M1490,778.3v-25.7c0-6.6-17.9-14.7-17.9-14.7s-17.9,8.2-17.9,14.7v25.7H1490z"/>
	<path class="st13" d="M1398.7,715.8v-15.7c0-4-4.7-9-4.7-9s-4.7,5-4.7,9v15.7H1398.7z"/>
	<path class="st13" d="M1554.9,715.9v-15.7c0-4-4.7-9-4.7-9s-4.7,5-4.7,9v15.7H1554.9z"/>
	<path class="st14" d="M1472.1,839.5c-12.9,0-11.2,1.4-11.1-9.9c0-11.3,5.1-20.4,11.2-20.4c6.2,0,11.1,9.1,11.1,20.4
		C1483.2,841,1484.9,839.6,1472.1,839.5z"/>
	<rect x="1460.9" y="831.3" class="st14" width="22.5" height="8.8"/>
	<path class="st14" d="M1393.1,839.6c-10.7,0-9.3,1.2-9.3-8.2c0-9.4,4.2-17,9.4-17c5.1,0,9.3,7.6,9.3,17
		C1402.4,840.8,1403.8,839.6,1393.1,839.6z"/>
	<rect x="1383.7" y="832.7" class="st14" width="18.8" height="7.3"/>
	<path class="st14" d="M1550.1,839.6c-10.8,0-9.3,1.2-9.3-8.2c0-9.4,4.2-17,9.4-17c5.1,0,9.3,7.6,9.3,17
		C1559.5,840.8,1560.9,839.6,1550.1,839.6z"/>
	<rect x="1540.8" y="832.7" class="st14" width="18.8" height="7.3"/>
	<rect x="1543.6" y="715.9" class="st11" width="13.2" height="2.6"/>
	<path class="st13" d="M1472,790.9c-20.4,0-17.7,2.2-17.6-15.6c0.1-17.8,8-32.3,17.8-32.2c9.8,0,17.6,14.5,17.6,32.3
		C1489.7,793.1,1492.4,790.9,1472,790.9z"/>
	<rect x="1454.3" y="777.9" class="st13" width="35.7" height="13.9"/>
	<path class="st14" d="M1464.6,791.5v-25.1c0-6.4-4.2-14.4-4.2-14.4s-4.2,8-4.2,14.4v25.1H1464.6z"/>
	<path class="st14" d="M1475.9,791.5v-30.2c0-7.7-4.2-17.3-4.2-17.3s-4.2,9.6-4.2,17.3v30.2H1475.9z"/>
	<path class="st14" d="M1487.1,791.5v-25.1c0-6.4-4.2-14.4-4.2-14.4s-4.2,8-4.2,14.4v25.1H1487.1z"/>
	<ellipse class="st21" cx="1394.5" cy="653.5" rx="13.6" ry="12.3"/>
	<ellipse class="st21" cx="1550.6" cy="653.4" rx="13.6" ry="12.3"/>
	<path class="st13" d="M1531.8,625h-2.2v7.7h2.2V625z"/>
	<path class="st13" d="M1530.7,621.5l-1.2,3.6h2.4L1530.7,621.5z"/>
	<path class="st13" d="M1530.7,622.1c0.2,0,0.4-0.1,0.4-0.3c0-0.2-0.2-0.3-0.4-0.3c-0.2,0-0.4,0.1-0.4,0.3
		C1530.3,622,1530.5,622.1,1530.7,622.1z"/>
	<path class="st13" d="M1414.2,625h-2.2v7.7h2.2V625z"/>
	<path class="st13" d="M1413.1,621.5l-1.2,3.6h2.4L1413.1,621.5z"/>
	<path class="st13" d="M1413.1,622.1c0.2,0,0.4-0.1,0.4-0.3c0-0.2-0.2-0.3-0.4-0.3c-0.2,0-0.4,0.1-0.4,0.3
		C1412.7,622,1412.9,622.1,1413.1,622.1z"/>
	<path class="st13" d="M1375.7,625h-2.2v7.7h2.2V625z"/>
	<path class="st13" d="M1374.5,621.5l-1.2,3.6h2.4L1374.5,621.5z"/>
	<path class="st13" d="M1374.5,622.1c0.2,0,0.4-0.1,0.4-0.3c0-0.2-0.2-0.3-0.4-0.3c-0.2,0-0.4,0.1-0.4,0.3
		C1374.2,622,1374.3,622.1,1374.5,622.1z"/>
	<path class="st13" d="M1570.3,625h-2.2v7.7h2.2V625z"/>
	<path class="st13" d="M1569.2,621.5l-1.2,3.6h2.4L1569.2,621.5z"/>
	<path class="st13" d="M1569.2,622.1c0.2,0,0.4-0.1,0.4-0.3c0-0.2-0.2-0.3-0.4-0.3c-0.2,0-0.4,0.1-0.4,0.3
		C1568.9,622,1569,622.1,1569.2,622.1z"/>
	<path class="st14" d="M1402.4,622.1c1.1,0,2-3.2,2-7.2c0-4-0.9-7.2-2-7.2c-1.1,0-2,3.2-2,7.2
		C1400.4,618.9,1401.3,622.1,1402.4,622.1z"/>
	<path class="st14" d="M1394.7,622.1c1.1,0,2-3.2,2-7.2c0-4-0.9-7.2-2-7.2c-1.1,0-2,3.2-2,7.2
		C1392.7,618.9,1393.6,622.1,1394.7,622.1z"/>
	<path class="st14" d="M1387.6,622.1c1.1,0,2-3.2,2-7.2c0-4-0.9-7.2-2-7.2c-1.1,0-2,3.2-2,7.2
		C1385.6,618.9,1386.5,622.1,1387.6,622.1z"/>
	<path class="st14" d="M1398.5,592.2c1.1,0,2-3.2,2-7.2c0-4-0.9-7.2-2-7.2c-1.1,0-2,3.2-2,7.2C1396.5,589,1397.4,592.2,1398.5,592.2
		z"/>
	<path class="st14" d="M1391.4,592.2c1.1,0,2-3.2,2-7.2c0-4-0.9-7.2-2-7.2c-1.1,0-2,3.2-2,7.2C1389.3,589,1390.2,592.2,1391.4,592.2
		z"/>
	<path class="st14" d="M1558.5,622.1c1.1,0,2-3.2,2-7.2c0-4-0.9-7.2-2-7.2c-1.1,0-2,3.2-2,7.2
		C1556.5,618.9,1557.4,622.1,1558.5,622.1z"/>
	<path class="st14" d="M1550.9,622.1c1.1,0,2-3.2,2-7.2c0-4-0.9-7.2-2-7.2c-1.1,0-2,3.2-2,7.2
		C1548.9,618.9,1549.8,622.1,1550.9,622.1z"/>
	<path class="st14" d="M1543.7,622.1c1.1,0,2-3.2,2-7.2c0-4-0.9-7.2-2-7.2c-1.1,0-2,3.2-2,7.2
		C1541.7,618.9,1542.6,622.1,1543.7,622.1z"/>
	<rect x="1529.5" y="632.3" class="st21" width="41.4" height="3.5"/>
	<path class="st16" d="M1535.1,598h31v3.5h-31V598z"/>
	<path class="st21" d="M1535.1,598h31v3.5h-31V598z"/>
	<rect x="1540.8" y="569" class="st21" width="19.8" height="3.5"/>
	<rect x="1544.5" y="547.9" class="st21" width="12.2" height="3.5"/>
	<rect x="1549.2" y="749.3" class="st16" width="0.9" height="42.2"/>
	<rect x="1527.6" y="767.7" class="st16" width="45.1" height="0.9"/>
	<rect x="1526.7" y="780.9" class="st16" width="45.1" height="0.9"/>
	<rect x="1449.5" y="786.2" class="st11" width="45.1" height="0.9"/>
	<rect x="1449.5" y="779.2" class="st11" width="45.1" height="0.9"/>
	<rect x="1423.2" y="712.4" class="st11" width="97.8" height="127.4"/>
	<rect x="1364.9" y="669.9" class="st16" width="58.3" height="169.9"/>
	<rect x="1373.4" y="632.5" class="st13" width="41.4" height="37.4"/>
	<rect x="1379" y="598.6" class="st13" width="31" height="37.4"/>
	<rect x="1384.6" y="568.8" class="st13" width="19.8" height="37.4"/>
	<rect x="1388.4" y="547.6" class="st13" width="12.2" height="37.4"/>
	<rect x="1521" y="669.9" class="st16" width="58.3" height="169.9"/>
	<ellipse class="st15" cx="1472.1" cy="658" rx="2.8" ry="12.7"/>
	<path class="st13" d="M1394.5,512.8l5.3,35.7h-10.6L1394.5,512.8z"/>
	<rect x="1529.5" y="632.5" class="st13" width="41.4" height="37.4"/>
	<rect x="1535.1" y="598.6" class="st13" width="31" height="37.4"/>
	<rect x="1540.8" y="568.8" class="st13" width="19.8" height="37.4"/>
	<rect x="1544.5" y="547.6" class="st13" width="12.2" height="37.4"/>
	<path class="st13" d="M1550.6,512.8l5.3,35.7h-10.6L1550.6,512.8z"/>
	<path class="st13" d="M1556.8,791.4v-25.9c0-6.6-7.1-14.9-7.1-14.9s-7.1,8.2-7.1,14.9v25.9H1556.8z"/>
	<path class="st13" d="M1400.6,791.4v-25.9c0-6.6-7.1-14.9-7.1-14.9s-7.1,8.2-7.1,14.9v25.9H1400.6z"/>
	<path class="st16" d="M1490,778.3v-25.7c0-6.6-17.9-14.7-17.9-14.7s-17.9,8.2-17.9,14.7v25.7H1490z"/>
	<path class="st13" d="M1398.7,715.8v-15.7c0-4-4.7-9-4.7-9s-4.7,5-4.7,9v15.7H1398.7z"/>
	<path class="st13" d="M1554.9,715.9v-15.7c0-4-4.7-9-4.7-9s-4.7,5-4.7,9v15.7H1554.9z"/>
	<path class="st14" d="M1472.1,839.5c-12.9,0-11.2,1.4-11.1-9.9c0-11.3,5.1-20.4,11.2-20.4c6.2,0,11.1,9.1,11.1,20.4
		C1483.2,841,1484.9,839.6,1472.1,839.5z"/>
	<rect x="1460.9" y="831.3" class="st14" width="22.5" height="8.8"/>
	<path class="st14" d="M1393.1,839.6c-10.7,0-9.3,1.2-9.3-8.2c0-9.4,4.2-17,9.4-17c5.1,0,9.3,7.6,9.3,17
		C1402.4,840.8,1403.8,839.6,1393.1,839.6z"/>
	<rect x="1383.7" y="832.7" class="st14" width="18.8" height="7.3"/>
	<path class="st14" d="M1550.1,839.6c-10.8,0-9.3,1.2-9.3-8.2c0-9.4,4.2-17,9.4-17c5.1,0,9.3,7.6,9.3,17
		C1559.5,840.8,1560.9,839.6,1550.1,839.6z"/>
	<rect x="1540.8" y="832.7" class="st14" width="18.8" height="7.3"/>
	<rect x="1543.6" y="715.9" class="st11" width="13.2" height="2.6"/>
	<path class="st13" d="M1472,790.9c-20.4,0-17.7,2.2-17.6-15.6c0.1-17.8,8-32.3,17.8-32.2c9.8,0,17.6,14.5,17.6,32.3
		C1489.7,793.1,1492.4,790.9,1472,790.9z"/>
	<rect x="1454.3" y="777.9" class="st13" width="35.7" height="13.9"/>
	<path class="st14" d="M1464.6,791.5v-25.1c0-6.4-4.2-14.4-4.2-14.4s-4.2,8-4.2,14.4v25.1H1464.6z"/>
	<path class="st14" d="M1475.9,791.5v-30.2c0-7.7-4.2-17.3-4.2-17.3s-4.2,9.6-4.2,17.3v30.2H1475.9z"/>
	<path class="st14" d="M1487.1,791.5v-25.1c0-6.4-4.2-14.4-4.2-14.4s-4.2,8-4.2,14.4v25.1H1487.1z"/>
	<ellipse class="st21" cx="1394.5" cy="653.5" rx="13.6" ry="12.3"/>
	<ellipse class="st21" cx="1550.6" cy="653.4" rx="13.6" ry="12.3"/>
	<path class="st13" d="M1531.8,625h-2.2v7.7h2.2V625z"/>
	<path class="st13" d="M1530.7,621.5l-1.2,3.6h2.4L1530.7,621.5z"/>
	<path class="st13" d="M1530.7,622.1c0.2,0,0.4-0.1,0.4-0.3c0-0.2-0.2-0.3-0.4-0.3c-0.2,0-0.4,0.1-0.4,0.3
		C1530.3,622,1530.5,622.1,1530.7,622.1z"/>
	<path class="st13" d="M1414.2,625h-2.2v7.7h2.2V625z"/>
	<path class="st13" d="M1413.1,621.5l-1.2,3.6h2.4L1413.1,621.5z"/>
	<path class="st13" d="M1413.1,622.1c0.2,0,0.4-0.1,0.4-0.3c0-0.2-0.2-0.3-0.4-0.3c-0.2,0-0.4,0.1-0.4,0.3
		C1412.7,622,1412.9,622.1,1413.1,622.1z"/>
	<path class="st13" d="M1375.7,625h-2.2v7.7h2.2V625z"/>
	<path class="st13" d="M1374.5,621.5l-1.2,3.6h2.4L1374.5,621.5z"/>
	<path class="st13" d="M1374.5,622.1c0.2,0,0.4-0.1,0.4-0.3c0-0.2-0.2-0.3-0.4-0.3c-0.2,0-0.4,0.1-0.4,0.3
		C1374.2,622,1374.3,622.1,1374.5,622.1z"/>
	<path class="st13" d="M1570.3,625h-2.2v7.7h2.2V625z"/>
	<path class="st13" d="M1569.2,621.5l-1.2,3.6h2.4L1569.2,621.5z"/>
	<path class="st13" d="M1569.2,622.1c0.2,0,0.4-0.1,0.4-0.3c0-0.2-0.2-0.3-0.4-0.3c-0.2,0-0.4,0.1-0.4,0.3
		C1568.9,622,1569,622.1,1569.2,622.1z"/>
	<path class="st14" d="M1402.4,622.1c1.1,0,2-3.2,2-7.2c0-4-0.9-7.2-2-7.2c-1.1,0-2,3.2-2,7.2
		C1400.4,618.9,1401.3,622.1,1402.4,622.1z"/>
	<path class="st14" d="M1394.7,622.1c1.1,0,2-3.2,2-7.2c0-4-0.9-7.2-2-7.2c-1.1,0-2,3.2-2,7.2
		C1392.7,618.9,1393.6,622.1,1394.7,622.1z"/>
	<path class="st14" d="M1387.6,622.1c1.1,0,2-3.2,2-7.2c0-4-0.9-7.2-2-7.2c-1.1,0-2,3.2-2,7.2
		C1385.6,618.9,1386.5,622.1,1387.6,622.1z"/>
	<path class="st14" d="M1398.5,592.2c1.1,0,2-3.2,2-7.2c0-4-0.9-7.2-2-7.2c-1.1,0-2,3.2-2,7.2C1396.5,589,1397.4,592.2,1398.5,592.2
		z"/>
	<path class="st14" d="M1391.4,592.2c1.1,0,2-3.2,2-7.2c0-4-0.9-7.2-2-7.2c-1.1,0-2,3.2-2,7.2C1389.3,589,1390.2,592.2,1391.4,592.2
		z"/>
	<path class="st14" d="M1554.6,592.2c1.1,0,2-3.2,2-7.2c0-4-0.9-7.2-2-7.2c-1.1,0-2,3.2-2,7.2C1552.6,589,1553.5,592.2,1554.6,592.2
		z"/>
	<path class="st14" d="M1547.5,592.2c1.1,0,2-3.2,2-7.2c0-4-0.9-7.2-2-7.2c-1.1,0-2,3.2-2,7.2C1545.5,589,1546.4,592.2,1547.5,592.2
		z"/>
	<path class="st14" d="M1558.5,622.1c1.1,0,2-3.2,2-7.2c0-4-0.9-7.2-2-7.2c-1.1,0-2,3.2-2,7.2
		C1556.5,618.9,1557.4,622.1,1558.5,622.1z"/>
	<path class="st14" d="M1550.9,622.1c1.1,0,2-3.2,2-7.2c0-4-0.9-7.2-2-7.2c-1.1,0-2,3.2-2,7.2
		C1548.9,618.9,1549.8,622.1,1550.9,622.1z"/>
	<path class="st14" d="M1543.7,622.1c1.1,0,2-3.2,2-7.2c0-4-0.9-7.2-2-7.2c-1.1,0-2,3.2-2,7.2
		C1541.7,618.9,1542.6,622.1,1543.7,622.1z"/>
	<rect x="1529.5" y="632.3" class="st21" width="41.4" height="3.5"/>
	<path class="st16" d="M1535.1,598h31v3.5h-31V598z"/>
	<path class="st21" d="M1535.1,598h31v3.5h-31V598z"/>
	<rect x="1540.8" y="569" class="st21" width="19.8" height="3.5"/>
	<rect x="1544.5" y="547.9" class="st21" width="12.2" height="3.5"/>
	<rect x="1549.2" y="749.3" class="st16" width="0.9" height="42.2"/>
	<rect x="1527.6" y="767.7" class="st16" width="45.1" height="0.9"/>
	<rect x="1526.7" y="780.9" class="st16" width="45.1" height="0.9"/>
	<rect x="1449.5" y="786.2" class="st11" width="45.1" height="0.9"/>
	<rect x="1449.5" y="779.2" class="st11" width="45.1" height="0.9"/>
	<rect x="1387.5" y="715.9" class="st11" width="13.2" height="2.6"/>
	<rect x="1384.6" y="791.5" class="st11" width="17.9" height="2.6"/>
	<rect x="1379.9" y="811.7" class="st11" width="26.3" height="2.6"/>
	<rect x="1537" y="811.7" class="st11" width="26.3" height="2.6"/>
	<rect x="1458.9" y="805.5" class="st16" width="26.3" height="3.5"/>
	<rect x="1540.8" y="791.5" class="st11" width="17.9" height="2.6"/>
	<rect x="1373.4" y="632.3" class="st21" width="41.4" height="3.5"/>
	<rect x="1364.9" y="669.3" class="st21" width="58.3" height="3.5"/>
	<rect x="1521" y="669.3" class="st21" width="58.3" height="3.5"/>
	<rect x="1379" y="598.9" class="st21" width="31" height="3.5"/>
	<rect x="1384.6" y="569" class="st21" width="19.8" height="3.5"/>
	<rect x="1388.4" y="547.9" class="st21" width="12.2" height="3.5"/>
	<rect x="1393.1" y="749.3" class="st16" width="0.9" height="42.2"/>
	<rect x="1371.5" y="767.7" class="st16" width="45.1" height="0.9"/>
	<rect x="1370.5" y="780.9" class="st16" width="45.1" height="0.9"/>
	<rect x="1393.1" y="749.3" class="st16" width="0.9" height="42.2"/>
	<rect x="1371.5" y="767.7" class="st16" width="45.1" height="0.9"/>
	<rect x="1370.5" y="780.9" class="st16" width="45.1" height="0.9"/>
	<ellipse class="st14" cx="1472.1" cy="736.1" rx="1.9" ry="1.8"/>
	<rect x="1431.7" y="708" class="st11" width="81.8" height="8.8"/>
</g>
</svg>
