<svg version="1.1" id="Layer_1" xmlns="http://www.w3.org/2000/svg" xmlns:xlink="http://www.w3.org/1999/xlink" x="0px" y="0px" viewBox="0 0 1920 1168" style="enable-background:new 0 0 1920 1168;" xml:space="preserve">
  <style type="text/css">
    .st0{opacity:0.14;fill:#DD484D;enable-background:new    ;}
	.st1{opacity:0.25;fill:#EA885E;enable-background:new    ;}
	.st2{fill:#F6BF6F;}
	.st3{fill:#F8CC8D;}
	.st4{fill:#EA885E;}
	.st5{fill:#D06A57;}
	.st6{fill:#640718;}
	.st7{fill:#DD484D;}
	.st8{fill:#C12127;}
	.st9{fill:#841618;}
	.st10{fill:none;stroke:#640718;stroke-miterlimit:10;}
	.st11{fill:#84010B;}
	.st12{fill:#C11F25;}
	.st13{fill:#E08F92;}
	.st14{fill:#EEE4D4;}
	.st15{fill:#FAD9D9;}
	.st16{fill:#9A191E;}
	.st17{fill:#C7353B;}
	.st18{fill:#C11F25;stroke:#84010B;}
	.st19{fill:none;stroke:#C11F25;}
	.st20{fill:#931E22;}
	.st21{fill:#E9AEB1;}
	.st22{fill:#E08F92;stroke:#84010B;}
	.st23{fill:#84010B;stroke:#9A191E;stroke-width:4;}
	.st24{fill:#FFFFFF;}
  </style>
  <g class="frame">
    <g class="sun">
      <path class="st0" d="M739.8,688.7c34-107.7,142.5-178.1,257.7-153.5c106.1,22.7,176.6,108.4,176.3,209.4l-270.5,95.1L739.8,688.7
		L739.8,688.7z"/>
      <path class="st1" d="M768.5,696.7l169.6,129.2l197.3-65.7v-16.1c0.1-82.7-58-152.9-145.4-171.6
		C895.1,552.2,796.4,608.5,768.5,696.7z"/>
      <path class="st2" d="M807.7,716.7c21.6-68.5,97.6-112.4,170.5-96.8c67.2,14.4,111.8,68.8,111.6,133l-151.7,44.4L807.7,716.7
		L807.7,716.7z"/>
      <path class="st3" d="M852.9,736c15.9-52.2,66.4-81.7,115.7-71.2c45.4,9.7,74.7,50.1,73.4,98.8l-105,39.5L852.9,736L852.9,736z"/>
    </g>
    <g class="container">
    <g class="group">
      <path class="st3" d="M1466,687.3c-46.7,34-60.7,76.7-60.7,76.7v167.3H1920V642.7h-296C1597.3,642.7,1512.7,653.3,1466,687.3z"/>
      <path class="test" fill="#EA885E" d="M487.3,602.7C299.1,556.3,0,537.3,0,537.3v300h977.3V784C977.3,784,684.3,651.2,487.3,602.7z"/>
      <path class="st2" d="M1245.3,737.3c-218.7-3.3-372,98.7-372,98.7v190h1046V922c-142-69.3-326.7-122-326.7-122s-55.3-17.2-146-35.3
		C1391.9,753.7,1327.7,738.6,1245.3,737.3z"/>
      <path class="st5" d="M1092.7,934c-69.3-22.7-225.3-102-258.7-120.7c-33.3-18.7-103.9-46.9-188.7-67.3c-88-21.2-184.7-25.3-224-23.1
		c-39.3,2.2-98,3.1-120,4.7c-22,1.5-40.7,3.1-40.7,3.1s-65.3,6.7-100,14.2c-34.7,7.5-81.3,24.7-81.3,24.7L0,798.9V1168h1918.7
		v-143.1c0,0-66.7-24-128-32.7l-6.1-0.9c-57.7-8.2-93.2-13.2-149.9-14.5c-58.7-1.3-155.7-1.3-155.7-1.3s-95.3,6-155.7-1.3
		C1222.7,962,1162,956.7,1092.7,934z"/>
      <path class="st6" d="M1845.6,690.7l1.9-38.1l-11.8-18.9l11.8,14.1v-39.1l2.3,28.9l9.9-9.9l-8.4,13.7l1.2,47.7L1845.6,690.7z"/>
      <path class="st7" d="M1771.9,799.3c6.5-8.1,10.4-18.5,10.4-29.8c0-26.2-21.2-47.5-47.3-47.5c-26.1,0-47.3,21.3-47.3,47.5
		c0,12.2,4.6,23.3,12.1,31.8c-30.2,16.3-53.6,50-53.6,83.8c0,42.1,37.2,77.6,78.7,82.5l5.5-70.2l-34.8-57.1l34.8,37.1l6.4-99.7
		l4.3,61.5l28.3-29.6l-26.2,47.4l7.3,109.4c39.1-8.9,73.2-49.1,73.2-89.2l0,0C1823.8,845,1801.7,813.6,1771.9,799.3z"/>
      <path class="st6" d="M1718.8,1046.3l11.7-148.9l-34.8-57.1l34.8,37.1l6.4-99.7l4.3,61.5l28.3-29.6l-26.2,47.4l12.6,188.5
		L1718.8,1046.3z"/>
      <path class="st4" d="M1717.5,571c0,0-10-1.8-19.7,20.1c0,0-10.5,23.4-5.1,39.4c0,0,6.5,14.3,21.1,15.6c0,0,15.9,1,23.6-9.3
		c0,0,9.3-11.4,4-29.2C1741.4,607.6,1732.5,570.9,1717.5,571z"/>
      <path class="st6" d="M1712.8,661.8l1.8-38l-7.2-15.2l8.4,8.7v-26.2l2.7,15.9l6.3-7.5l-5.7,12.6l1.5,49.6H1712.8z"/>
      <path class="st8" d="M1584.5,794.5c0,0-31.4,0.7-38.2-27.6c0,0-2.3-32.3,10.4-71.6c0,0,16.5-77.5,29-85.1c0,0,14.3,2.4,29.8,91
		c0,0,13.4,46.3,7.4,68.4C1622.9,769.7,1617.3,792.9,1584.5,794.5L1584.5,794.5z"/>
      <path class="st6" d="M1577.3,830.5l4.8-79.7l-16.4-26.5l16.4,14.7l3.2-85.6l3.1,64.3l15-15.3l-14.4,26.5l5.7,105.9L1577.3,830.5z"/>
      <path class="st4" d="M1356,688.1c0,0-31.2-5.6-60.9,62.3c0,0-32.5,72.3-15.9,122c0,0,20.1,44.1,65.5,48.3c0,0,49.3,3.1,73-28.9
		c0,0,28.9-35.3,12.5-90.3C1430.1,801.5,1402.5,687.6,1356,688.1L1356,688.1z"/>
      <path class="st6" d="M1341.3,977.6l7.1-133l-25.7-46.4l25.7,30.2l4.8-81l3.2,49.9l21-24l-19.4,38.5l10.1,165.8H1341.3z"/>
      <path class="st2" d="M1271,712.2c0,0-21.3,0.5-25.9-19.1c0,0-1.6-22.4,7.1-49.5c0,0,11.2-53.6,19.7-58.8c0,0,9.7,1.6,20.2,62.9
		c0,0,9.1,32,5,47.3C1297.1,695.1,1293.3,711.1,1271,712.2z"/>
      <path class="st6" d="M1264.8,739.3l2.8-56.5l-13-19.6l14.2,12.6l1.4-59l2.8,43.7l10.2-10.6l-9.8,18.1l3.6,71.4H1264.8z"/>
      <path class="st9" d="M1105.6,725.8c0,0-17.3-3-33.9,33.4c0,0-18.1,38.8-8.9,65.5c0,0,11.2,23.7,36.4,26c0,0,27.4,1.7,40.6-15.5
		c0,0,16.1-18.9,6.9-48.5C1146.9,786.7,1131.5,725.5,1105.6,725.8L1105.6,725.8z"/>
      <path class="st6" d="M1099.7,873l3-62.1l-12.7-28.7l13,16.1l2.7-41.1l1.6,24.6l10.7-11l-10.1,19l4.1,87.7L1099.7,873z"/>
      <path class="st2" d="M756.6,734.5c7.1-8.9,11.4-20.2,11.4-32.5c0-28.7-23.2-52-51.8-52c-28.6,0-51.8,23.3-51.8,52
		c0,13.3,5,25.5,13.2,34.7c-33.1,17.8-58.6,54.6-58.6,91.6c0,47.5,43.2,87.2,90.3,90.6l4.2-73.5l-37.2-63.3l37.6,48.6l5.2-130.8
		l3.3,98.4l32-35.2l-29.8,51L729,918c44.5-7.7,84.4-53.1,84.4-98.4C813.3,784.5,789.1,750.2,756.6,734.5z"/>
      <path class="st6" d="M731,967.3l-24-5.6l6.6-116.2l-37.2-63.3l37.6,48.6l5.2-130.8l3.3,98.4l32-35.2l-29.8,51L731,967.3z"/>
      <path class="st7" d="M660.4,582.5c0,0-10.1-1.8-19.8,19.6c0,0-10.6,22.7-5.2,38.3c0,0,6.5,13.9,21.3,15.2c0,0,16,1,23.8-9.1
		c0,0,9.4-11.1,4-28.4C684.5,618.1,675.5,582.3,660.4,582.5L660.4,582.5z"/>
      <path class="st6" d="M657,668.6l1.7-36.3l-7.4-16.8l7.6,9.4l1.6-24.1l0.9,14.4l6.3-6.4l-5.9,11.1l2.4,51.3L657,668.6z"/>
      <path class="st9" d="M491.1,415.4c0,0-36-6.2-70.3,69.4c0,0-37.6,80.6-18.4,135.9c0,0,23.2,49.2,75.6,53.9c0,0,56.9,3.5,84.2-32.2
		c0,0,33.4-39.3,14.4-100.7C576.6,541.8,544.9,414.9,491.1,415.4L491.1,415.4z"/>
      <path class="st6" d="M474.6,727l9.6-139.8l-30-52.1l30,35.6l5.6-92.6l3.4,57.1l24-27l-22.8,44.5l9.6,174.4H474.6z"/>
      <path class="st6" d="M329.7,595.1l4.7-61.6l-14.7-27.2l14.7,19.9l2-51.6l2.4,35.9l11.7-11.9l-11.1,19.6l4.7,76.9H329.7z"/>
      <path class="st4" d="M285.2,535.4c0,0-18.5,0.5-22.5-16.7c0,0-1.3-19.5,6.1-43.3c0,0,9.7-46.8,17.1-51.4c0,0,8.4,1.4,17.5,55
		c0,0,7.9,28,4.4,41.4C307.8,520.4,304.5,534.4,285.2,535.4L285.2,535.4z"/>
      <path class="st6" d="M279.2,567.9l4-57.8l-12.6-21.6l12.6,14.7l2.4-53.7l1.4,38.9l10.1-11.2l-9.6,18.4l4,72.2H279.2z"/>
      <path class="st8" d="M153.2,820.7c0,0-82.7,2-100.4-73.8c0,0-6-86.5,27.4-191.6c0,0,43.5-207.2,76.3-227.5c0,0,37.5,6.3,78.3,243.5
		c0,0,35.1,123.7,19.4,182.9C254.3,754.1,239.5,816.4,153.2,820.7z"/>
      <path class="st6" d="M179.1,873.2H142l9-169.6L97,623l54.5,51.1l9.6-234l6,174.4l41.9-40.4l-39.6,69.3L179.1,873.2z"/>
      
       </g>
   
   <path class="leaf-drop-slower-right" d="M1856.9,692.8c0,0,0.1-0.1,0.1-0.1c0.3-0.2,0.7-0.3,1-0.5c0.2-0.1,0.4-0.2,0.6-0.3c0,0,0.1-0.1,0.1-0.1
		c0,0,0,0,0,0c0.1,0,0.1,0,0.2,0c0,0,0.1,0,0.1,0c0.1,0,0.2-0.1,0.3-0.2c0.6-0.2,1.1-0.4,1.7-0.5c0.6-0.1,1.2-0.1,1.8,0
		c0.6,0.1,1.2,0.2,1.8,0.5c0.2,0.1,0.4,0.2,0.6,0.4c0.2,0.1,0.3,0.2,0.5,0.4c0.3,0.3,0.5,0.5,0.8,0.9c0.2,0.3,0.4,0.5,0.6,0.8
		c0,0,0,0.1,0,0.1c0.1,0.1,0.1,0.2,0.1,0.3c0,0.1,0.1,0.2,0.1,0.4c0,0.2,0.1,0.2,0.2,0.2c0,0,0,0,0,0c0,0,0,0,0,0c0,0,0,0,0.1,0
		c0,0,0.1,0,0.1,0c0,0,0,0,0,0c0.1,0,0.3,0,0.4-0.1c0.2,0,0.5-0.1,0.7-0.1c0.2-0.1,0.5-0.2,0.7-0.3c0,0,0.1-0.1,0.2-0.1l0.4,0.6
		c-0.2,0-0.5,0.1-0.7,0.1c-0.2,0-0.4,0.1-0.5,0.1c-0.1,0-0.3,0.1-0.4,0.1c-0.1,0-0.1,0-0.2,0.1c0,0,0,0,0,0c-0.1,0-0.1,0-0.2,0
		c0,0-0.1,0-0.1,0c-0.3,0-0.6,0-0.9,0.1c-0.1,0-0.1,0-0.2,0c0,0,0,0,0,0c-0.1,0-0.3,0-0.5,0c0,0,0,0,0,0c0,0,0.1,0,0.1,0
		c0,0,0.1,0,0.1,0c0.1,0,0.1,0,0.1,0c0,0,0.1,0,0.1,0c0,0,0.1,0,0.2,0c-0.2,0.2-0.3,0.4-0.6,0.5c0,0,0,0,0,0
		c-0.1,0.1-0.2,0.2-0.3,0.2c0,0,0,0-0.1,0c-0.1,0-0.1,0.1-0.2,0.1c-0.2,0.1-0.5,0.2-0.8,0.2c-0.4,0-0.7,0-1.1,0
		c-0.8-0.1-1.6-0.4-2.3-0.8c-0.6-0.3-1.1-0.7-1.6-1.1c-0.6-0.5-1.3-0.9-2-1.1c-0.5-0.2-1.1-0.3-1.7-0.3c-0.2,0-0.3,0.1-0.5,0.1
		c0,0-0.1,0-0.1,0L1856.9,692.8C1856.9,692.7,1856.9,692.7,1856.9,692.8L1856.9,692.8z" fill="#EA885E"/>
      <path class="leaf-drop-slower-right" d="M1830.7,679c0,0,0.1-0.1,0.1-0.1c0.2-0.2,0.5-0.3,0.8-0.4c0.2-0.1,0.3-0.1,0.5-0.2c0,0,0.1,0,0.1-0.1
		c0,0,0.1,0,0.1,0c0,0,0,0,0.1,0c0.1,0,0.2-0.1,0.3-0.1c0.5-0.1,0.9-0.3,1.4-0.4c0.5-0.1,0.9-0.1,1.4,0c0.5,0,1,0.2,1.4,0.4
		c0.2,0.1,0.3,0.2,0.5,0.3c0.1,0.1,0.2,0.2,0.4,0.3c0.2,0.2,0.4,0.5,0.6,0.7c0.2,0.2,0.3,0.4,0.4,0.6c0,0,0,0,0,0.1
		c0,0.1,0.1,0.2,0.1,0.3c0,0.1,0.1,0.2,0,0.3c0,0.1,0.1,0.1,0.1,0.1c0,0,0,0,0.1,0c0,0,0,0,0,0c0,0,0.1,0,0.1,0c0,0,0,0,0,0
		c0.1,0,0.2,0,0.3-0.1c0.2,0,0.4-0.1,0.6-0.1c0.2-0.1,0.4-0.1,0.6-0.3c0,0,0.1-0.1,0.1-0.1l0.3,0.5c-0.2,0-0.4,0.1-0.5,0.1
		c-0.1,0-0.3,0-0.4,0.1c-0.1,0-0.2,0.1-0.3,0c-0.1,0-0.1,0-0.2,0c0,0-0.1,0-0.1,0h-0.1c-0.3,0-0.5,0-0.7,0.1c0,0-0.1,0-0.2,0
		c0,0,0,0,0,0c-0.1,0-0.2,0-0.4,0c0,0,0.1,0,0.1,0c0,0,0,0,0,0c0.1,0,0.1,0,0.1,0c0,0,0,0,0.1,0c0,0,0.1,0,0.1,0
		c-0.1,0.1-0.2,0.3-0.5,0.4c0,0.1-0.1,0.1-0.2,0.2c0,0,0,0,0,0c-0.1,0-0.1,0.1-0.2,0.1c-0.2,0.1-0.4,0.1-0.6,0.2c-0.3,0-0.6,0-0.9,0
		c-0.6-0.1-1.2-0.3-1.8-0.6c-0.5-0.3-0.9-0.5-1.3-0.9c-0.5-0.4-1-0.7-1.5-0.9c-0.4-0.2-0.9-0.3-1.3-0.2c-0.1,0-0.3,0-0.4,0.1
		c0,0,0,0-0.1,0L1830.7,679C1830.6,678.9,1830.7,678.9,1830.7,679L1830.7,679z" fill="#EA885E"/>
      <path class="leaf-drop-slower-right" d="M1824.4,688.1c0,0-0.1,0.2-0.1,0.2c-0.2,0.5-0.5,0.9-0.7,1.4c-0.2,0.3-0.3,0.5-0.5,0.8c0,0,0,0.1-0.1,0.2
		c0,0,0,0,0,0c-0.1,0.1-0.1,0.1-0.2,0.2c0,0,0,0-0.1,0c-0.1,0.1-0.1,0.3-0.3,0.5c-0.5,0.7-1.1,1.4-1.7,2c-0.6,0.6-1.3,1.1-2,1.5
		c-0.8,0.4-1.7,0.7-2.5,0.8c-0.3,0-0.7,0-1.1,0c-0.3,0-0.5,0-0.8-0.1c-0.5-0.1-1.1-0.2-1.6-0.4c-0.5-0.1-0.9-0.3-1.3-0.5
		c0,0-0.1-0.1-0.1-0.1c-0.1-0.1-0.3-0.2-0.4-0.3c-0.1-0.1-0.3-0.2-0.4-0.4c-0.1-0.3-0.2-0.1-0.3,0c0,0,0,0,0,0c0,0,0,0,0,0.1
		c0,0,0,0-0.1,0c0,0-0.1,0.1-0.1,0.1c0,0,0,0,0,0c-0.1,0.1-0.3,0.3-0.4,0.4c-0.2,0.3-0.5,0.5-0.7,0.8c-0.1,0.4-0.5,0.6-0.6,1
		c0,0.1-0.1,0.2-0.1,0.3l-1-0.4c0.2-0.2,0.5-0.5,0.7-0.7c0.2-0.2,0.4-0.4,0.6-0.5c0.1-0.1,0.3-0.3,0.4-0.4c0.1-0.1,0.1-0.2,0.2-0.3
		c0,0,0,0,0.1,0c0.1,0,0.1-0.1,0.2-0.1c0,0,0.1-0.1,0.1-0.1c0.4-0.2,0.7-0.6,1.1-0.9c0.1-0.1,0.2-0.1,0.3-0.2c0,0,0,0,0.1,0
		c0.2-0.1,0.4-0.3,0.5-0.4c0,0,0,0,0,0c0,0-0.1,0-0.2,0c0,0-0.1,0-0.1,0c-0.1,0-0.1,0-0.2,0.1c0,0-0.1,0-0.1,0c-0.1,0-0.1,0-0.3,0.1
		c0.1-0.4,0-0.7,0.3-1c0,0,0,0,0,0c-0.1-0.2,0.1-0.3,0.2-0.5l0.1,0c0-0.1,0.1-0.2,0.2-0.3c0.2-0.3,0.5-0.6,0.7-0.9
		c0.4-0.4,0.8-0.6,1.3-0.9c1.1-0.5,2.2-0.8,3.3-0.9c0.9-0.1,1.9-0.1,2.8,0c1.1,0,2.2,0,3.2-0.2c0.8-0.2,1.6-0.5,2.2-1
		c0.2-0.1,0.3-0.3,0.5-0.5c0,0,0.1,0,0.1,0l-0.7,1.6c0,0-0.1,0-0.1,0.1L1824.4,688.1z" fill="#EA885E"/>
      <path class="leaf-drop-faster" d="M363,583.4c0,0-0.1,0-0.2,0.1c-0.4,0.1-0.8,0.2-1.3,0.2c-0.3,0-0.5,0.1-0.8,0.1c0,0-0.1,0-0.1,0.1c0,0,0,0,0,0
		c-0.1,0-0.1,0-0.2,0c0,0,0,0-0.1,0c-0.1,0-0.3,0.1-0.4,0.1c-0.7,0-1.4,0-2.1-0.1c-0.7-0.1-1.4-0.3-2-0.6c-0.7-0.3-1.3-0.7-1.8-1.2
		c-0.2-0.2-0.4-0.4-0.6-0.7c-0.1-0.2-0.3-0.4-0.4-0.6c-0.2-0.4-0.4-0.8-0.6-1.2c-0.1-0.4-0.2-0.7-0.3-1.1c0,0,0-0.1,0-0.1
		c0-0.1,0-0.3,0-0.4c0-0.1,0-0.3,0-0.4c0.1-0.2,0-0.2-0.1-0.2c0,0,0,0,0,0h0c0,0,0,0-0.1,0c0,0-0.1,0-0.1,0c0,0,0,0,0,0
		c-0.2,0-0.3,0-0.5,0c-0.3,0-0.6-0.1-0.9-0.1c-0.3,0.1-0.6,0-0.9,0.1c-0.1,0-0.1,0-0.2,0.1l-0.2-0.9c0.3,0,0.5,0.1,0.8,0.1
		c0.2,0,0.4,0,0.6,0.1c0.2,0,0.3,0,0.5,0.1c0.1,0.1,0.2,0,0.3,0c0,0,0,0,0,0c0.1,0,0.1,0,0.2,0c0,0,0.1,0,0.1,0
		c0.4,0.1,0.7,0.2,1.1,0.2c0.1,0,0.2,0,0.2,0.1c0,0,0,0,0,0c0.2,0,0.4,0.1,0.5,0.1c0,0,0,0,0,0c0,0,0-0.1-0.1-0.1c0,0,0,0-0.1,0
		c0,0-0.1-0.1-0.2-0.1c0,0,0,0-0.1,0c0,0-0.1-0.1-0.2-0.1c0.3-0.1,0.5-0.3,0.8-0.3c0,0,0,0,0,0c0.1-0.1,0.3-0.1,0.4-0.1
		c0,0,0,0,0.1,0c0.1,0,0.2,0,0.3-0.1c0.3,0,0.6,0,1,0c0.4,0.1,0.8,0.2,1.2,0.4c0.9,0.4,1.6,1,2.3,1.7c0.5,0.6,1,1.2,1.4,1.8
		c0.5,0.7,1.1,1.4,1.8,2c0.5,0.4,1.1,0.8,1.8,0.9c0.2,0,0.4,0,0.6,0.1c0,0,0,0,0.1,0.1L363,583.4C363.1,583.4,363,583.4,363,583.4
		L363,583.4z" fill="#841618"/>
    <path class="leaf-drop-slower" d="M313.8,594c0,0-0.1,0.2-0.1,0.3c-0.4,0.7-0.8,1.3-1.2,1.9c-0.3,0.4-0.5,0.7-0.8,1.1c0,0.1-0.1,0.2-0.1,0.3
		c0,0,0,0,0,0c-0.1,0.1-0.2,0.2-0.3,0.3c0,0-0.1,0-0.1,0c-0.1,0.2-0.3,0.4-0.4,0.6c-0.8,0.9-1.7,1.8-2.7,2.5c-1,0.7-2,1.4-3.1,1.9
		c-1.2,0.5-2.4,0.8-3.7,0.9c-0.5,0-1,0-1.5-0.1c-0.4,0-0.8-0.1-1.2-0.2c-0.8-0.2-1.5-0.5-2.2-0.8c-0.6-0.3-1.2-0.6-1.8-0.9
		c-0.1,0-0.1-0.1-0.2-0.1c-0.2-0.2-0.4-0.3-0.5-0.5c-0.2-0.2-0.4-0.4-0.5-0.6c-0.1-0.4-0.3-0.2-0.5-0.1c0,0,0,0,0,0c0,0,0,0,0,0.1
		c0,0,0,0-0.1,0.1c0,0-0.1,0.1-0.2,0.1c0,0,0,0,0,0c-0.2,0.2-0.5,0.4-0.7,0.6c-0.4,0.3-0.8,0.7-1.2,1c-0.3,0.5-0.7,0.8-1,1.3
		c0,0.1-0.1,0.2-0.2,0.4l-1.4-0.8c0.4-0.3,0.7-0.6,1.1-0.9c0.3-0.2,0.6-0.5,0.9-0.7c0.2-0.2,0.4-0.4,0.7-0.5
		c0.2-0.1,0.2-0.2,0.3-0.3h0c0.1-0.1,0.2-0.1,0.3-0.2c0,0,0.1-0.1,0.1-0.1c0.6-0.3,1.1-0.7,1.6-1.1c0.1-0.1,0.3-0.1,0.4-0.2
		c0,0,0,0,0,0c0.3-0.2,0.6-0.3,0.8-0.5c0,0,0,0,0,0c0,0,0,0,0,0c-0.1,0-0.1,0-0.2,0c0,0-0.1,0-0.1,0c-0.1,0-0.2,0-0.3,0.1
		c0,0-0.1,0-0.1,0c-0.1,0-0.2,0-0.4,0.1c0.1-0.5,0.1-1,0.6-1.4v0c0-0.3,0.1-0.5,0.3-0.7c0,0,0,0,0.1-0.1c0.1-0.2,0.2-0.3,0.3-0.5
		c0.3-0.5,0.7-0.8,1.2-1.2c0.6-0.5,1.3-0.8,2-1.1c1.6-0.6,3.2-0.9,4.9-0.8c1.3,0,2.7,0.1,4,0.3c1.6,0.2,3.1,0.3,4.6,0.1
		c1.1-0.2,2.3-0.5,3.3-1.2c0.3-0.2,0.5-0.4,0.8-0.6c0,0,0.1,0,0.2,0l-1.2,2.2C314,593.8,313.9,593.9,313.8,594L313.8,594z
		 M294.7,598.6C294.7,598.6,294.7,598.6,294.7,598.6C294.7,598.6,294.7,598.6,294.7,598.6z" fill="#841618"/>
    <path class="leaf" d="M758,929.1c0.1,0,0.3,0,0.4,0c0.8,0,1.6,0.1,2.4,0.2c0.5,0.1,0.9,0.1,1.4,0.2c0.1,0,0.2,0,0.3,0c0,0,0,0,0,0
		c0.1,0,0.3,0.1,0.4,0.2c0,0,0.1,0.1,0.1,0.1c0.3,0,0.5,0,0.8,0.1c1.3,0.3,2.5,0.7,3.7,1.2c1.2,0.5,2.3,1.1,3.3,1.9
		c1.1,0.9,2,1.9,2.7,3.1c0.3,0.5,0.5,1,0.7,1.4c0.2,0.4,0.3,0.8,0.4,1.2c0.2,0.8,0.4,1.6,0.5,2.5c0.1,0.7,0,1.4,0.1,2.1
		c0,0.1,0,0.1,0,0.2c0,0.2-0.1,0.5-0.2,0.7c-0.1,0.3-0.1,0.5-0.3,0.7c-0.3,0.3,0,0.4,0.1,0.5c0,0,0,0,0,0c0,0,0.1,0,0.1,0
		c0,0,0.1,0,0.1,0c0.1,0,0.1,0,0.2,0.1c0,0,0,0,0,0c0.3,0.1,0.6,0.2,0.9,0.3c0.5,0.2,1,0.4,1.5,0.6c0,0,0,0,0,0
		c0.6,0,1.1,0.3,1.7,0.2c0.1,0,0.3,0,0.5,0v1.6c-0.5-0.2-0.9-0.4-1.4-0.6c-0.4-0.1-0.7-0.3-1.1-0.5c-0.3-0.1-0.6-0.2-0.8-0.4
		c-0.2-0.2-0.3-0.1-0.5-0.1c0,0,0,0,0,0c-0.1-0.1-0.2-0.1-0.3-0.2c0,0-0.1,0-0.2,0c-0.6-0.4-1.2-0.6-1.8-1c-0.1-0.1-0.3-0.2-0.4-0.3
		c0,0,0,0,0,0c-0.3-0.2-0.6-0.3-0.9-0.5c0,0,0,0,0,0c0,0,0,0,0,0c0,0.1,0.1,0.1,0.1,0.2c0,0,0.1,0.1,0.1,0.1
		c0.1,0.1,0.1,0.2,0.2,0.3c0,0,0.1,0.1,0.1,0.1c0.1,0.1,0.1,0.2,0.3,0.3c-0.5,0.2-1,0.4-1.6,0.2c0,0,0,0,0,0c-0.2,0.2-0.5,0.1-0.8,0
		c0,0-0.1,0-0.1,0c-0.2,0-0.4,0-0.6,0c-0.6-0.1-1.1-0.2-1.7-0.5c-0.7-0.3-1.4-0.8-2-1.3c-1.4-1.1-2.4-2.6-3.3-4.1
		c-0.7-1.2-1.2-2.6-1.7-3.9c-0.6-1.5-1.3-3.1-2.3-4.4c-0.8-1-1.6-1.9-2.8-2.4c-0.3-0.1-0.7-0.2-1-0.4c0,0-0.1-0.1-0.1-0.2h2.7
		C757.9,929,758,929.1,758,929.1L758,929.1z M772.1,944.6C772.1,944.6,772.1,944.6,772.1,944.6C772.1,944.6,772.1,944.6,772.1,944.6
		C772.1,944.7,772.1,944.7,772.1,944.6L772.1,944.6z" fill="#F6BF6F"/>
    <path class="disappearleaf" d="M669.3,993.9c-0.2,0.1-0.4,0.2-0.6,0.2c-1.3,0.4-2.6,0.5-4,0.7c-0.8,0.1-1.6,0.2-2.4,0.3
		c-0.2,0-0.3,0.1-0.5,0.2c0,0,0,0-0.1,0c-0.2,0-0.5-0.1-0.7-0.1c-0.1,0-0.1-0.1-0.2-0.1c-0.4,0.1-0.9,0.2-1.3,0.2
		c-2.2,0-4.5,0-6.7-0.4c-2.2-0.3-4.3-0.9-6.3-1.8c-2.2-0.9-4.1-2.2-5.8-3.9c-0.6-0.6-1.2-1.3-1.8-2c-0.4-0.6-0.9-1.1-1.2-1.8
		c-0.6-1.3-1.3-2.6-1.8-3.9c-0.4-1.1-0.7-2.3-1-3.5c0-0.1,0-0.3,0-0.4c0-0.4-0.1-0.9,0-1.3c0-0.5,0-1,0.2-1.4
		c0.3-0.6-0.1-0.6-0.5-0.8c0,0,0,0-0.1,0c-0.1,0-0.1,0-0.2,0c-0.1,0-0.1,0-0.2,0c-0.1,0-0.3,0-0.4,0c0,0-0.1,0-0.1,0
		c-0.5-0.1-1.1-0.1-1.6-0.2c-0.9-0.1-1.8-0.2-2.8-0.3c0,0,0,0,0,0c-1,0.3-2,0-2.9,0.4c-0.2,0.1-0.5,0.2-0.7,0.3l-0.7-2.7
		c0.8,0.1,1.7,0.2,2.5,0.3c0.7,0.1,1.3,0.2,2,0.3c0.5,0.1,1.1,0,1.5,0.2c0.4,0.2,0.6,0,0.9,0c0,0,0.1,0,0.1,0c0.2,0,0.4,0.1,0.6,0.2
		c0.1,0,0.2,0,0.3,0c1.1,0.4,2.3,0.5,3.4,0.8c0.3,0.1,0.5,0.2,0.8,0.3c0,0,0.1,0,0.1,0c0.6,0.2,1.1,0.3,1.7,0.5c0,0,0,0,0.1,0
		c0,0,0,0,0-0.1c-0.1-0.1-0.2-0.2-0.3-0.3c-0.1,0-0.1-0.1-0.2-0.1c-0.2-0.1-0.3-0.2-0.5-0.4c-0.1,0-0.1-0.1-0.2-0.1
		c-0.2-0.1-0.3-0.2-0.6-0.4c0.8-0.5,1.5-1.1,2.5-1c0,0,0,0,0-0.1c0.3-0.4,0.8-0.4,1.2-0.4c0.1,0,0.1,0,0.2,0c0.3-0.1,0.6-0.2,1-0.2
		c1-0.1,2-0.1,3,0.1c1.4,0.2,2.7,0.7,3.9,1.3c2.8,1.3,5.1,3.2,7.2,5.4c1.6,1.8,3.1,3.7,4.5,5.6c1.7,2.3,3.4,4.5,5.6,6.2
		c1.7,1.3,3.5,2.4,5.6,2.8c0.6,0.1,1.2,0.1,1.8,0.2c0.1,0,0.2,0.1,0.3,0.2l-4.4,1.1c0,0-0.2-0.1-0.3-0.1L669.3,993.9z M639.5,974.4
		C639.5,974.4,639.5,974.4,639.5,974.4C639.6,974.4,639.5,974.4,639.5,974.4C639.5,974.4,639.5,974.4,639.5,974.4
		C639.5,974.4,639.5,974.4,639.5,974.4L639.5,974.4z" fill="#F6BF6F"/>
    <path class="disappearleaf" d="M1558.2,823.8c0,0-0.1,0.2-0.1,0.3c-0.3,0.6-0.6,1.2-1,1.8c-0.2,0.3-0.4,0.7-0.6,1c0,0.1,0,0.2-0.1,0.2
		c0,0,0,0-0.1,0c-0.1,0.1-0.2,0.2-0.3,0.3c-0.1,0-0.1,0-0.1,0c-0.1,0.2-0.2,0.4-0.3,0.6c-0.7,0.9-1.4,1.8-2.2,2.6
		c-0.8,0.8-1.7,1.4-2.7,2c-1,0.6-2.1,1-3.3,1.1c-0.5,0.1-0.9,0.1-1.4,0.1c-0.4,0-0.7,0-1.1-0.1c-0.7-0.1-1.4-0.3-2.1-0.5
		c-0.6-0.2-1.1-0.5-1.7-0.7c-0.1,0-0.1-0.1-0.2-0.1c-0.2-0.1-0.4-0.2-0.5-0.4c-0.2-0.1-0.4-0.3-0.5-0.5c-0.1-0.3-0.3-0.2-0.5,0
		c0,0,0,0-0.1,0c0,0,0,0-0.1,0.1c0,0,0,0-0.1,0.1c-0.1,0-0.1,0.1-0.1,0.1c0,0,0,0,0,0c-0.2,0.2-0.4,0.4-0.6,0.6
		c-0.3,0.3-0.7,0.7-1,1c-0.2,0.5-0.6,0.8-0.8,1.3c-0.1,0.1-0.1,0.2-0.1,0.4l-1.3-0.6c0.3-0.3,0.6-0.6,0.9-0.9
		c0.2-0.2,0.5-0.5,0.7-0.7c0.2-0.2,0.3-0.4,0.6-0.5c0.2-0.1,0.2-0.2,0.3-0.3c0,0,0,0,0.1,0c0.1-0.1,0.2-0.1,0.3-0.2
		c0,0,0-0.1,0.1-0.1c0.5-0.3,0.9-0.8,1.4-1.1c0.1-0.1,0.2-0.1,0.3-0.2c0,0,0,0,0.1,0c0.2-0.2,0.5-0.3,0.7-0.5c0,0,0,0,0.1,0
		c0,0,0,0,0,0c-0.1,0-0.1,0-0.2,0c-0.1,0-0.1,0-0.1,0c-0.1,0-0.2,0-0.3,0.1c0,0-0.1,0-0.1,0c-0.1,0-0.2,0-0.3,0.1
		c0.1-0.5,0.1-0.9,0.4-1.3c0,0,0,0,0,0c-0.1-0.3,0.1-0.4,0.2-0.6c0,0,0,0,0.1-0.1c0.1-0.1,0.1-0.3,0.2-0.5c0.3-0.4,0.6-0.8,1-1.2
		c0.5-0.5,1.1-0.8,1.7-1.2c1.4-0.7,2.9-1,4.4-1.2c1.2-0.1,2.4-0.1,3.6,0c1.4,0,2.9,0,4.2-0.3c1-0.3,2-0.7,2.9-1.4
		c0.2-0.2,0.4-0.4,0.6-0.6c0,0,0.1,0,0.2,0l-0.9,2.1C1558.3,823.8,1558.2,823.8,1558.2,823.8L1558.2,823.8z M1541.1,829.6
		C1541.1,829.6,1541.1,829.6,1541.1,829.6C1541.2,829.6,1541.2,829.6,1541.1,829.6z" fill="#C12127"/>
    <path class="leaf" d="M1596.6,864.2l-0.9-2.1c0,0,0.1,0,0.2,0c0.2,0.2,0.4,0.5,0.7,0.6c0.8,0.7,1.8,1.1,2.8,1.4
		c1.4,0.3,2.8,0.3,4.2,0.3c1.2,0,2.4,0,3.6,0c1.5,0.1,3,0.5,4.4,1.2c0.6,0.3,1.2,0.7,1.7,1.2c0.4,0.4,0.7,0.7,1,1.2
		c0.1,0.1,0.1,0.3,0.2,0.5c0,0,0.1,0,0.1,0.1c0.1,0.2,0.3,0.4,0.2,0.6c0,0,0,0,0,0c0.3,0.4,0.3,0.8,0.4,1.3c-0.1,0-0.2-0.1-0.3-0.1
		c0,0-0.1,0-0.1,0c-0.1,0-0.2,0-0.3-0.1c-0.1,0-0.1,0-0.1,0c-0.1,0-0.1,0-0.2,0c0,0,0,0,0,0c0,0,0,0,0,0c0.2,0.2,0.5,0.3,0.7,0.5
		c0,0,0,0,0.1,0c0.1,0.1,0.2,0.1,0.3,0.2c0.5,0.4,0.9,0.8,1.4,1.1c0,0,0.1,0.1,0.1,0.1c0.1,0.1,0.2,0.1,0.3,0.2c0,0,0,0,0.1,0
		c0.1,0.1,0.1,0.3,0.3,0.3c0.2,0.1,0.4,0.3,0.5,0.5c0.2,0.2,0.5,0.5,0.7,0.7c0.3,0.3,0.6,0.6,0.9,0.9l-1.3,0.6
		c-0.1-0.1-0.1-0.3-0.1-0.4c-0.2-0.5-0.6-0.8-0.8-1.3c-0.3-0.3-0.6-0.7-1-1c-0.2-0.2-0.4-0.4-0.6-0.6c0,0,0,0,0,0
		c-0.1,0-0.1-0.1-0.1-0.1c0,0,0,0-0.1-0.1c0,0,0,0-0.1-0.1c0,0,0,0,0,0c-0.2-0.1-0.3-0.3-0.5,0c-0.1,0.2-0.3,0.3-0.5,0.5
		c-0.2,0.1-0.4,0.3-0.5,0.4c0,0-0.1,0.1-0.2,0.1c-0.6,0.2-1.1,0.5-1.7,0.7c-0.7,0.2-1.4,0.4-2.1,0.5c-0.4,0.1-0.7,0.1-1.1,0.1
		c-0.5,0-0.9,0-1.4-0.1c-1.2-0.2-2.3-0.5-3.3-1.1c-1-0.5-1.9-1.2-2.7-2c-0.8-0.8-1.6-1.6-2.2-2.6c-0.1-0.2-0.2-0.4-0.3-0.6
		c-0.1,0-0.1,0-0.1,0c-0.1-0.1-0.2-0.2-0.3-0.3c0,0,0,0-0.1,0c0-0.1,0-0.2-0.1-0.2c-0.2-0.4-0.4-0.7-0.6-1c-0.4-0.6-0.7-1.2-1-1.8
		c-0.1-0.1-0.1-0.2-0.1-0.3C1596.7,864.2,1596.7,864.1,1596.6,864.2L1596.6,864.2z M1613.8,870.1
		C1613.8,870.1,1613.8,870.1,1613.8,870.1C1613.8,870.1,1613.8,870.1,1613.8,870.1z" fill="#C12127"/>
    <path class="leaf" d="M559.5,748.3c-0.1,0.3-0.1,0.6-0.3,0.9c-0.7,1.7-1.7,3.4-2.6,5c-0.6,1-1.1,1.9-1.7,2.9
		c-0.1,0.2-0.1,0.5-0.2,0.7c0,0-0.1,0-0.1,0c-0.2,0.2-0.5,0.5-0.7,0.7c-0.1,0-0.2,0.1-0.3,0.1c-0.3,0.5-0.5,1.1-0.9,1.6
		c-1.8,2.5-3.8,4.9-6,7.1c-2.2,2.1-4.6,4-7.2,5.5c-2.8,1.6-5.9,2.7-9.1,3.1c-1.2,0.2-2.5,0.2-3.8,0.2c-1,0-2,0-2.9-0.2
		c-2-0.4-3.9-0.7-5.8-1.3c-1.6-0.5-3.1-1.2-4.7-1.8c-0.2-0.1-0.3-0.2-0.5-0.3c-0.5-0.3-1-0.7-1.5-1c-0.5-0.4-1.1-0.8-1.3-1.3
		c-0.4-0.9-0.8-0.4-1.2-0.1c0,0-0.1,0-0.1,0c0,0.1-0.1,0.2-0.1,0.2c-0.1,0.1-0.1,0.1-0.2,0.2c-0.1,0.1-0.2,0.3-0.4,0.4
		c0,0-0.1,0-0.1,0.1c-0.5,0.5-1,1-1.5,1.6c-0.9,0.9-1.8,1.9-2.7,2.8c0,0,0,0,0,0c-0.5,1.3-1.6,2.2-2.1,3.5c-0.1,0.3-0.2,0.6-0.3,1
		c-1.2-0.5-2.3-1-3.6-1.5c0.8-0.8,1.7-1.7,2.5-2.5c0.7-0.7,1.3-1.4,2-2c0.5-0.5,0.9-1.2,1.5-1.5c0.5-0.2,0.5-0.6,0.7-0.9
		c0,0,0.1,0,0.1,0c0.2-0.2,0.5-0.4,0.7-0.6c0.1-0.1,0.1-0.2,0.2-0.3c1.4-0.8,2.4-2.1,3.7-3.1c0.3-0.2,0.6-0.4,0.9-0.6
		c0,0,0.1-0.1,0.1-0.1c0.6-0.5,1.3-1,1.9-1.4c0,0,0.1,0,0.1,0c0,0,0,0-0.1,0c-0.2,0-0.4,0-0.6,0c-0.1,0-0.2,0.1-0.3,0.1
		c-0.3,0.1-0.5,0.2-0.8,0.3c-0.1,0-0.2,0.1-0.3,0.1c-0.3,0.1-0.5,0.2-0.9,0.3c0.1-1.3,0.1-2.6,1-3.6c0,0,0-0.1,0-0.1
		c-0.2-0.7,0.2-1.2,0.6-1.7c0.1-0.1,0.1-0.1,0.2-0.2c0.2-0.4,0.4-0.9,0.6-1.2c0.7-1.2,1.6-2.3,2.6-3.3c1.4-1.3,3-2.3,4.7-3.2
		c3.7-2,7.8-3,11.9-3.4c3.3-0.3,6.7-0.3,10-0.3c3.9,0.1,7.8,0,11.6-1c2.8-0.7,5.5-1.9,7.8-3.9c0.6-0.5,1.1-1.2,1.7-1.8
		c0.1-0.1,0.2-0.1,0.5-0.1l-2.5,5.9c-0.1,0.1-0.2,0.2-0.4,0.3V748.3z M513.1,764.9C513.1,764.9,513.1,764.9,513.1,764.9
		C513.1,764.8,513.1,764.8,513.1,764.9C513.1,764.8,513,764.9,513.1,764.9C513,764.9,513,764.9,513.1,764.9L513.1,764.9z" fill="#841618"/>
    <path class="clud" d="M1820.4,202.2c-0.5-5.2-4.9-9.2-9.8-10.9c-4.9-1.6-10.2-1.3-15.4-1c9.5-15.2,6-37.3-7.9-48.8
		c-13.8-11.5-36.1-10.8-49.2,1.5c-5.2-10.1-11-20.7-21-26c-4.8-2.5-10.3-3.6-15.8-4.1c-29.6-2.8-60.3,10-79,33.2
		c-3.6,4.5-7.6,9.7-13.3,10.1c-2.9,0.2-5.7-1-8.5-1.6c-6.9-1.5-14.1,0-20.8,2.2c-20.4,6.9-38.5,20.4-50.9,38.1
		c-10.6-9.4-25.8-12.8-39.8-10.9s-27.2,8.5-38.5,17c-13.5,10.1-25.4,23.9-28.5,40.6c-3,16.7,5.4,36.1,21.5,41.1l351.7,4.5
		c35.5-0.5,41.6,0.3,60.1-8.7c2.2-1.1,4.5-2.3,6.1-4.2c1.8-2.1,2.6-4.9,3.4-7.5c2-6.7,3.9-13.6,2.9-20.5c-1.4-9-7.9-16.6-16-20.7
		c-8.1-4.1-17.5-4.8-26.4-3.8c-0.9,0.1-1.8,0.2-2.5-0.3c-0.9-0.6-1-1.8-1.1-2.8l-1.3-16.5" fill="#FFFFFF"/>
    <path class="cloud" d="M1587.7,56.6c2.8,0.6,5.8-0.9,7.5-3.2c1.7-2.3,2.3-5.3,2.2-8.2c-0.1-6.5-3.3-12.8-8.4-16.7
		c-5.1-3.9-12.1-5.3-18.3-3.7c-0.7,0.2-1.3,0.4-2,0.2c-1.4-0.3-2-1.8-2.6-3.1c-2.1-4.7-6.4-8.3-11.4-9.6c-5-1.3-10.5-0.2-14.6,2.9
		c-0.8,0.6-1.9,1.3-2.7,0.8c-0.4-0.2-0.6-0.6-0.9-0.9c-3.7-5.6-10.5-8.5-17.1-9.4c-4.7-0.7-9.8-0.4-13.8,2.1
		c-5.3,3.2-7.9,9.5-11.7,14.4c-0.3,0.4-0.7,0.8-1.1,1.1c-0.7,0.3-1.5,0.2-2.2,0.1c-10.1-1.1-20.3,6.3-22.4,16.3
		c-2.9-1-5.9-1.7-8.9-1.5c-3,0.2-6.1,1.7-7.7,4.3c-1.9,3.1-1.3,7.5,1.1,10.3c2.4,2.8,6.2,4.1,9.9,4.1L1587.7,56.6L1587.7,56.6z" fill="#FFFFFF"/>
    <path class="cloud" d="M1189.2,153.9c6.6,0.9,12.7-5.7,12.4-12.4c-0.3-6.7-6-12.3-12.4-14c1.9-5-1.5-10.8-6.1-13.4
		c-4.7-2.6-10.3-2.7-15.6-2.4c-1.7-5.5-6.9-9.4-12.5-10.5c-5.6-1.1-11.5,0.3-16.7,2.7c-4-5.8-11.6-8.5-18.5-7.1
		c-6.8,1.4-12.7,6.5-15.6,12.8c-0.4,0.9-0.9,2-1.9,2.3c-0.8,0.3-1.6-0.1-2.4-0.3c-4-1.2-8.5-0.1-12,2.2c-3.5,2.4-6,5.9-7.8,9.7
		c-0.4,0.8-0.7,1.6-1.5,2c-0.8,0.5-1.8,0.2-2.8,0.1c-6.7-1-13.9,2.7-17,8.7c-3.1,6.1-1.9,14.1,2.9,18.9L1189.2,153.9L1189.2,153.9z" fill="#FFFFFF"/>
    <path class="cloud-up" d="M852.1,145.3c3.4,0.7,7,1.1,10.5,1.3c3.3,0.1,6.9-0.2,9.2-2.5c2.9-3,2.4-8.1,0-11.5c-2.4-3.4-6.3-5.4-10-7.2
		c-0.4-6-4.4-11.5-9.8-13.9c-5.5-2.3-12.2-1.3-16.7,2.5c-3-5.4-7.8-9.9-13.6-11.8c-5.8-1.9-12.7-0.8-17.2,3.5
		c-6-5.6-14.2-9.1-22.3-8.2c-8.1,0.9-15.8,6.5-18.1,14.4c-3.9-2.6-9.4-2.5-13.6-0.3c-4.2,2.2-7.4,6.1-9.5,10.3
		c-0.3,0.6-0.6,1.2-1.2,1.5c-0.8,0.4-1.7,0-2.5-0.3c-6-2.4-13.3-2.8-18.8,0.6c-5.6,3.4-8.4,11.3-5.1,16.9c1.9,3.1,5.4,5.1,9,5.9
		c3.6,0.8,7.3,0.6,11,0.5L852.1,145.3L852.1,145.3z" fill="#FFFFFF"/>
    <path class="clud-2" d="M530.3,104.8c8.5-0.5,15.3-8.7,15.8-17.3c0.5-8.5-4.3-16.8-11-22.1c-6.7-5.3-15-8-23.4-9.7
		c-7.3-1.5-15.2-2.1-21.7,1.6c-1.4-4.3,1.5-8.7,1.6-13.2c0.1-4.9-3.2-9.4-7.4-11.9c-4.2-2.5-9.2-3.3-14-3.7
		c-8.9-0.8-17.9-0.4-26.7,1.2c4-7.9-2.2-17.2-9.4-22.3c-7.7-5.4-17.3-8.4-26.6-7.3c-9.3,1.1-18.2,6.8-22.2,15.3
		c-9.7-5.5-22.3-5.4-31.9,0.2c-2.3,1.4-4.8,3.1-7.5,2.6c-1.3-0.2-2.4-0.9-3.6-1.5c-16.8-8.8-40-1.7-49,15c-1.8,3.4-3.4,7.4-6.8,9.2
		c-2.2,1.1-4.7,1.1-7.2,1.4c-12.8,1.4-24.2,11.4-27.4,23.9c-11.7,0-23.7,1-33.9,6.8c-10.2,5.7-18,17-16.5,28.6L530.3,104.8
		L530.3,104.8z" fill="#FFFFFF"/>
    <path class="cloud" d="M347,272.1c8.9,2.2,18.6-3.4,22.9-11.5c4.4-8.1,4.3-18.1,1.9-27c-4-15-14.3-28.3-27.9-35.9
		c-13.5-7.6-30.2-9.4-45.1-4.9c-1.5,0.5-3.2,0.9-4.4,0.1c-0.7-0.5-1.1-1.3-1.6-2c-12.2-22.2-41-33.5-64.9-25.7
		c-1.5,0.5-3.1,1-4.6,0.6c-1.2-0.3-2.2-1.2-3.1-2c-14.2-12.5-33.4-19.2-52.3-18.2c-18.9,1-37.2,9.8-50,23.8
		c-1.9,2.1-3.8,4.3-6.5,5.1c-2.6,0.7-5.2-0.1-7.8-0.8c-17.3-4.1-36.6,4-46.4,18.8c-9.9,14.8-10.2,35.3-1.3,50.7
		c8.9,15.4,26.2,25.4,44,25.9L347,272.1z" fill="#FFFFFF"/>
  </g>
        <path class="left-bird" d="M1209,548.2c0,0,16.9-9.8,18.9,8.1h2.9c0,0,5.9-9.8,11.5-6.9c0,0,7.9,3,8.7,6.9c0,0-2.2-16.4-18.9-6.6
		C1232.1,549.7,1216.4,535,1209,548.2z" fill="#640718"/>
      <path class="right-bird" d="M1093.3,470.3c0,0,17.6-11.1,21.4,10.8c0,0,12.2-11.1,19.4,6" fill="none" stroke="#640718" stroke-miterlimit="10"/>
      <path class="comingBird" d="M755.6,491.5c0,0-3.4-12.7,18-17.9c0,0,7.5-1.2,15.9,4.2c0,0,7.2-12.3,15.6-14.1c0,0,4-1.5,14.1,0
		c0,0,6.3,1.3,8.7,9.4c0,0-14.8-8.6-26.2-3.1c0,0-2.7,0.5-7.4,19.7c0,0-16.9-12.6-19-12.4C775.3,477.3,767.3,476,755.6,491.5
		L755.6,491.5z" fill="#640718"/>
      <path class="awayBird" d="M755.6,491.5c0,0-3.4-12.7,18-17.9c0,0,7.5-1.2,15.9,4.2c0,0,7.2-12.3,15.6-14.1c0,0,4-1.5,14.1,0
		c0,0,6.3,1.3,8.7,9.4c0,0-14.8-8.6-26.2-3.1c0,0-2.7,0.5-7.4,19.7c0,0-16.9-12.6-19-12.4C775.3,477.3,767.3,476,755.6,491.5
		L755.6,491.5z" fill="#640718"/>
      <path class="right-bird" d="M655.9,522.3c0,0,11.7-10.3,12.3,3.3c0,0,3.8-10.4,12.3,0.7" fill="none" stroke="#640718" stroke-miterlimit="10"/>
   
  <g class="buildings">
      
      <path class="st11" d="M1265.4,1022.5h-2.4v9.9h2.4V1022.5z"/>
      <path class="st11" d="M1264.3,1018l-1.3,4.6h2.5L1264.3,1018z"/>
      <path class="st12" d="M1264.2,1018.8c0.2,0,0.4-0.2,0.4-0.4c0-0.2-0.2-0.4-0.4-0.4c-0.2,0-0.4,0.2-0.4,0.4
		C1263.9,1018.6,1264,1018.8,1264.2,1018.8z"/>
      <path class="st11" d="M1290.1,962.3h-1.8v7.5h1.8V962.3z"/>
      <path class="st11" d="M1289.2,959l-1,3.5h1.9L1289.2,959z"/>
      <path class="st12" d="M1289.2,959.5c0.2,0,0.3-0.1,0.3-0.3c0-0.2-0.1-0.3-0.3-0.3c-0.2,0-0.3,0.1-0.3,0.3
		C1288.9,959.4,1289,959.5,1289.2,959.5z"/>
      <path class="st11" d="M1339.3,962.3h-1.8v7.5h1.8V962.3z"/>
      <path class="st11" d="M1338.4,959l-0.9,3.5h1.9L1338.4,959z"/>
      <path class="st12" d="M1338.4,959.5c0.2,0,0.3-0.1,0.3-0.3c0-0.2-0.1-0.3-0.3-0.3c-0.2,0-0.3,0.1-0.3,0.3
		C1338.1,959.4,1338.2,959.5,1338.4,959.5z"/>
      <path class="st11" d="M1360.1,1022.4h-2.4v9.9h2.4V1022.4z"/>
      <path class="st11" d="M1358.9,1018l-1.3,4.6h2.5L1358.9,1018z"/>
      <path class="st12" d="M1358.9,1018.7c0.2,0,0.4-0.2,0.4-0.4s-0.2-0.4-0.4-0.4c-0.2,0-0.4,0.2-0.4,0.4S1358.7,1018.7,1358.9,1018.7z
		"/>
      <path class="st13" d="M1288.8,993.2h49.3l10.7,40.1h-70.7L1288.8,993.2z"/>
      <path class="st13" d="M1314.6,907h-1.1v17h1.1V907z"/>
      <rect x="1212.5" y="1133.6" class="st13" width="199.5" height="33"/>
      <rect x="1241.5" y="1072.3" class="st13" width="140.1" height="40.1"/>
      <path class="st11" d="M1262.7,1032.1h97.7l21.2,40.1h-140.1L1262.7,1032.1z"/>
      <path class="st11" d="M1242.7,1112.4h139.1l30.2,21.2h-199.5L1242.7,1112.4z"/>
      <rect x="1287" y="969.6" class="st11" width="53" height="23.6"/>
      <path class="st11" d="M1314.1,917.7l19.1,54H1295L1314.1,917.7z"/>
      <path class="st14" d="M1268,1105.3c7.2,0,6.3,1,6.3-6.9c0-7.9-2.8-14.3-6.3-14.3s-6.3,6.4-6.3,14.3
		C1261.8,1105.9,1260.8,1105.3,1268,1105.3z"/>
      <path class="st14" d="M1312.2,1105.3c7.2,0,6.3,1,6.3-6.9c0-7.9-2.8-14.3-6.3-14.3s-6.3,6.4-6.3,14.3
		C1306,1106.3,1305,1105.3,1312.2,1105.3z"/>
      <path class="st14" d="M1355.1,1105.3c7.2,0,6.3,1,6.3-6.9c0-7.9-2.8-14.3-6.3-14.3c-3.5,0-6.3,6.4-6.3,14.3
		C1348.9,1106.3,1347.9,1105.3,1355.1,1105.3z"/>
      <path class="st11" d="M1214.9,1123.9h-2.4v9.8h2.4V1123.9z"/>
      <path class="st11" d="M1213.8,1119.5l-1.3,4.6h2.5L1213.8,1119.5z"/>
      <path class="st12" d="M1213.7,1120.2c0.2,0,0.4-0.2,0.4-0.4c0-0.2-0.2-0.4-0.4-0.4s-0.4,0.2-0.4,0.4
		C1213.3,1120,1213.5,1120.2,1213.7,1120.2z"/>
      <path class="st11" d="M1411.9,1123.9h-2.4v9.8h2.4V1123.9z"/>
      <path class="st11" d="M1410.7,1119.5l-1.3,4.6h2.5L1410.7,1119.5z"/>
      <path class="st12" d="M1410.7,1120.2c0.2,0,0.4-0.2,0.4-0.4c0-0.2-0.2-0.4-0.4-0.4c-0.2,0-0.4,0.2-0.4,0.4
		C1410.3,1120,1410.5,1120.2,1410.7,1120.2z"/>
      <path class="st14" d="M1236.8,1161.2c6.7,0,5.8,0.9,5.8-6.6c0-7.6-2.6-13.7-5.9-13.7c-3.2,0-5.8,6.1-5.8,13.7
		C1231,1162.1,1230.1,1161.2,1236.8,1161.2z"/>
      <path class="st14" d="M1350,1160.9c7.7,0,6.7,0.9,6.6-6.6c0-7.6-3-13.7-6.7-13.7c-3.7,0-6.7,6.1-6.6,13.7
		C1343.3,1161.9,1342.3,1161,1350,1160.9z"/>
      <path class="st14" d="M1387.7,1160.9c6.7,0,5.8,0.9,5.8-6.6c0-7.6-2.6-13.7-5.9-13.7c-3.2,0-5.8,6.1-5.8,13.7
		C1381.9,1161.8,1381,1160.9,1387.7,1160.9z"/>
      <path class="st14" d="M1312.3,1161c6.7,0,5.8,0.9,5.8-6.6c0-7.6-2.6-13.7-5.9-13.7c-3.2,0-5.8,6.1-5.8,13.7
		C1306.4,1162,1305.5,1161,1312.3,1161z"/>
      <path class="st14" d="M1274.6,1161.1c7.7,0,6.7,0.9,6.6-6.6c0-7.6-3-13.7-6.7-13.7c-3.7,0-6.6,6.1-6.6,13.7
		S1266.9,1161.1,1274.6,1161.1z"/>
      <rect x="50.1" y="1011.6" class="st13" width="161.6" height="34.3"/>
      <rect x="50.1" y="1011.6" class="st13" width="161.6" height="34.3"/>
      <path class="st13" d="M76.5,923.9h110l25.1,53.4H50.1L76.5,923.9z"/>
      <rect x="50.1" y="977.3" class="st13" width="161.6" height="34.3"/>
      <rect x="90.8" y="893.4" class="st13" width="80.1" height="30.5"/>
      <path class="st13" d="M117.3,840h27.8l25.8,53.4H90.8L117.3,840z"/>
      <rect x="154.6" y="1039.6" class="st12" width="32.6" height="127.1"/>
      <rect x="74.5" y="1039.6" class="st12" width="32.6" height="127.1"/>
      <rect x="71.8" y="1043.4" class="st15" width="38" height="5.1"/>
      <rect x="9.3" y="1043.4" class="st15" width="38" height="5.1"/>
      <rect x="151.9" y="1043.4" class="st15" width="38" height="5.1"/>
      <rect x="214.3" y="1043.4" class="st15" width="38" height="5.1"/>
      <path class="st12" d="M130.8,1011.6l26.5,32.4h-52.9L130.8,1011.6z"/>
      <path class="st12" d="M91.5,923.9l26.5,53.4H65L91.5,923.9z"/>
      <path class="st11" d="M130.8,977.3l-26.5-53.4h52.9L130.8,977.3z"/>
      <path class="st12" d="M170.2,923.9l26.5,53.4h-52.9L170.2,923.9z"/>
      <path class="st12" d="M130.8,840l26.5,53.4h-52.9L130.8,840z"/>
      <path class="st12" d="M211,1011.6l26.5,32.4h-52.9L211,1011.6z"/>
      <path class="st12" d="M50.7,1011.6l26.5,32.4H24.3L50.7,1011.6z"/>
      <path class="st11" d="M90.8,1039.6l-25.9-27.6h51.7L90.8,1039.6z"/>
      <path class="st11" d="M170.9,1039.6l-25.9-27.6h51.7L170.9,1039.6z"/>
      <rect x="104.4" y="1039.6" class="st13" width="52.9" height="127.1"/>
      <rect x="184.5" y="1039.6" class="st13" width="52.9" height="127.1"/>
      <rect x="24.3" y="1039.6" class="st13" width="52.9" height="127.1"/>
      <rect x="71.8" y="1039.6" class="st13" width="5.4" height="127.1"/>
      <rect x="88.1" y="1039.6" class="st13" width="5.4" height="127.1"/>
      <rect x="168.2" y="1039.6" class="st13" width="5.4" height="127.1"/>
      <rect x="104.4" y="1039.6" class="st13" width="5.4" height="127.1"/>
      <rect x="9.3" y="1039.6" class="st13" width="5.4" height="127.1"/>
      <rect x="18.8" y="1039.6" class="st13" width="5.4" height="127.1"/>
      <path class="st13" d="M237.4,1039.6h5.4v127.1h-5.4V1039.6z"/>
      <rect x="246.9" y="1039.6" class="st13" width="5.4" height="127.1"/>
      <rect x="184.5" y="1039.6" class="st13" width="5.4" height="127.1"/>
      <rect x="151.9" y="1039.6" class="st13" width="5.4" height="127.1"/>
      <rect x="24.3" y="1054.8" class="st12" width="47.5" height="1.3"/>
      <rect x="50.1" y="987.4" class="st12" width="161.6" height="1.3"/>
      <rect x="90.8" y="903.6" class="st12" width="80.1" height="1.3"/>
      <rect x="90.8" y="920.1" class="st12" width="80.1" height="1.3"/>
      <rect x="50.1" y="1005.2" class="st12" width="161.6" height="1.3"/>
      <rect x="31.1" y="1039.6" class="st12" width="1.4" height="127.1"/>
      <rect x="63.6" y="1039.6" class="st12" width="1.4" height="127.1"/>
      <rect x="47.4" y="1039.6" class="st12" width="1.4" height="127.1"/>
      <rect x="65" y="977.3" class="st12" width="1.4" height="34.3"/>
      <rect x="97.6" y="977.3" class="st12" width="1.4" height="34.3"/>
      <rect x="81.3" y="977.3" class="st12" width="1.4" height="34.3"/>
      <rect x="105.7" y="893.4" class="st12" width="1.4" height="30.5"/>
      <rect x="138.3" y="893.4" class="st12" width="1.4" height="30.5"/>
      <rect x="154.6" y="893.4" class="st12" width="1.4" height="30.5"/>
      <rect x="122" y="893.4" class="st12" width="1.4" height="30.5"/>
      <rect x="113.9" y="977.3" class="st12" width="1.4" height="34.3"/>
      <rect x="146.5" y="977.3" class="st12" width="1.4" height="34.3"/>
      <rect x="130.2" y="977.3" class="st12" width="1.4" height="34.3"/>
      <rect x="162.7" y="977.3" class="st12" width="1.4" height="34.3"/>
      <rect x="195.3" y="977.3" class="st12" width="1.4" height="34.3"/>
      <rect x="179" y="977.3" class="st12" width="1.4" height="34.3"/>
      <rect x="196.7" y="1039.6" class="st12" width="1.4" height="127.1"/>
      <rect x="229.3" y="1039.6" class="st12" width="1.4" height="127.1"/>
      <rect x="213" y="1039.6" class="st12" width="1.4" height="127.1"/>
      <rect x="122" y="1039.6" class="st12" width="1.4" height="127.1"/>
      <rect x="138.3" y="1039.6" class="st12" width="1.4" height="127.1"/>
      <rect x="24.3" y="1138.7" class="st12" width="47.5" height="1.3"/>
      <rect x="24.3" y="1110.7" class="st12" width="47.5" height="1.3"/>
      <rect x="24.3" y="1082.8" class="st12" width="47.5" height="1.3"/>
      <rect x="109.8" y="1054.8" class="st12" width="42.1" height="1.3"/>
      <rect x="109.8" y="1138.7" class="st12" width="42.1" height="1.3"/>
      <rect x="109.8" y="1110.7" class="st12" width="42.1" height="1.3"/>
      <rect x="109.8" y="1082.8" class="st12" width="42.1" height="1.3"/>
      <rect x="189.9" y="1054.8" class="st12" width="47.5" height="1.3"/>
      <rect x="189.9" y="1138.7" class="st12" width="47.5" height="1.3"/>
      <rect x="189.9" y="1110.7" class="st12" width="47.5" height="1.3"/>
      <rect x="189.9" y="1082.8" class="st12" width="47.5" height="1.3"/>
      <path class="st16" d="M252.2,1041.4h336.6v28.9H252.2V1041.4z"/>
      <path class="st12" d="M264.3,1060.8h318.6v104.5H264.3V1060.8z"/>
      <rect x="308.5" y="1146.6" class="st12" width="231.1" height="20"/>
      <rect x="308.5" y="1157.8" class="st12" width="231.1" height="3.7"/>
      <rect x="308.5" y="1160.3" class="st12" width="231.1" height="3.7"/>
      <rect x="308.5" y="1163.3" class="st11" width="234.1" height="3.4"/>
      <rect x="340.7" y="1146.3" class="st11" width="171.8" height="3.4"/>
      <path class="st13" d="M540,1072.5h105.2v94.2H540V1072.5z"/>
      <path class="st13" d="M204,1072.5h105.2v94.2H204V1072.5z"/>
      <path class="st11" d="M361.9,1004.8h125.3l67.5,57.1H294.4L361.9,1004.8z"/>
      <path class="st16" d="M302.5,1065.8h250.2v9.3H302.5V1065.8z"/>
      <path class="st16" d="M341.7,1090.4h170.8v-4.2H341.7V1090.4z"/>
      <path class="st16" d="M309,1157.8h230.6l-27.1-8.9H341.7L309,1157.8z"/>
      <path class="st11" d="M592.4,1025.8l52.8,46.7H539.6L592.4,1025.8z"/>
      <rect x="420.1" y="1085.9" class="st13" width="14.1" height="33.4"/>
      <rect x="367.8" y="1085.9" class="st13" width="14.1" height="33.4"/>
      <rect x="446.2" y="1085.9" class="st13" width="14.1" height="33.4"/>
      <rect x="498.4" y="1085.9" class="st13" width="14.1" height="33.4"/>
      <rect x="341.7" y="1085.9" class="st13" width="14.1" height="33.4"/>
      <rect x="472.3" y="1085.9" class="st13" width="14.1" height="33.4"/>
      <rect x="393.9" y="1085.9" class="st13" width="14.1" height="33.4"/>
      <rect x="420.1" y="1128.1" class="st13" width="14.1" height="16.3"/>
      <rect x="367.8" y="1128.1" class="st13" width="14.1" height="16.3"/>
      <rect x="446.2" y="1128.1" class="st13" width="14.1" height="16.3"/>
      <rect x="498.4" y="1128.1" class="st13" width="14.1" height="16.3"/>
      <rect x="341.7" y="1128.1" class="st13" width="14.1" height="16.3"/>
      <rect x="472.3" y="1128.1" class="st13" width="14.1" height="16.3"/>
      <rect x="393.9" y="1128.1" class="st13" width="14.1" height="16.3"/>
      <rect x="245.2" y="1088.1" class="st12" width="21.1" height="78.6"/>
      <rect x="250.2" y="1091.8" class="st14" width="11.1" height="19.3"/>
      <rect x="250.2" y="1116.3" class="st14" width="11.1" height="19.3"/>
      <rect x="581.9" y="1088.1" class="st12" width="21.1" height="78.6"/>
      <rect x="586.9" y="1157.8" class="st11" width="5" height="3.7"/>
      <rect x="592.9" y="1157.8" class="st11" width="5" height="3.7"/>
      <rect x="586.9" y="1091.8" class="st14" width="11.1" height="19.3"/>
      <rect x="586.9" y="1116.3" class="st14" width="11.1" height="19.3"/>
      <rect x="538.6" y="1072.5" class="st12" width="106.5" height="3"/>
      <path class="st11" d="M256.8,1026l52.8,46.6H204L256.8,1026z"/>
      <path class="st12" d="M332.6,1151.4h187.6l10.4,3.4H319.9L332.6,1151.4z"/>
      <rect x="204" y="1072.5" class="st12" width="106.5" height="3"/>
      <rect x="282.4" y="1062.9" class="st11" width="281.4" height="3"/>
      <path class="st11" d="M257.7,1020.4h-2.4v7.7h2.4V1020.4z"/>
      <path class="st11" d="M256.5,1016.9l-1.3,3.6h2.5L256.5,1016.9z"/>
      <path class="st12" d="M256.5,1017.5c0.2,0,0.4-0.1,0.4-0.3c0-0.2-0.2-0.3-0.4-0.3s-0.4,0.1-0.4,0.3
		C256.1,1017.4,256.3,1017.5,256.5,1017.5z"/>
      <path class="st11" d="M593.4,1020.4H591v7.7h2.4V1020.4z"/>
      <path class="st11" d="M592.2,1016.9l-1.3,3.6h2.5L592.2,1016.9z"/>
      <path class="st12" d="M592.2,1017.5c0.2,0,0.4-0.1,0.4-0.3c0-0.2-0.2-0.3-0.4-0.3c-0.2,0-0.4,0.1-0.4,0.3
		C591.8,1017.4,591.9,1017.5,592.2,1017.5z"/>
      <path class="st11" d="M363.2,998.1h-2.4v7.7h2.4V998.1z"/>
      <path class="st11" d="M362,994.7l-1.3,3.6h2.5L362,994.7z"/>
      <path class="st12" d="M362,995.2c0.2,0,0.4-0.1,0.4-0.3c0-0.2-0.2-0.3-0.4-0.3c-0.2,0-0.4,0.1-0.4,0.3
		C361.6,995.1,361.8,995.2,362,995.2z"/>
      <path class="st11" d="M486.8,998.1h-2.4v7.7h2.4V998.1z"/>
      <path class="st11" d="M485.6,994.7l-1.3,3.6h2.5L485.6,994.7z"/>
      <path class="st12" d="M485.6,995.2c0.2,0,0.4-0.1,0.4-0.3c0-0.2-0.2-0.3-0.4-0.3c-0.2,0-0.4,0.1-0.4,0.3
		C485.2,995.1,485.4,995.2,485.6,995.2z"/>
      <rect x="370.8" y="1130.2" class="st14" width="3" height="6.8"/>
      <rect x="375.8" y="1130.2" class="st14" width="3" height="6.8"/>
      <rect x="396.9" y="1130.2" class="st14" width="3" height="6.8"/>
      <rect x="402" y="1130.2" class="st14" width="3" height="6.8"/>
      <rect x="423.1" y="1130.2" class="st14" width="3" height="6.8"/>
      <rect x="428.1" y="1130.2" class="st14" width="3" height="6.8"/>
      <rect x="449.2" y="1130.2" class="st14" width="3" height="6.8"/>
      <rect x="454.2" y="1130.2" class="st14" width="3" height="6.8"/>
      <rect x="475.3" y="1130.2" class="st14" width="3" height="6.8"/>
      <rect x="480.4" y="1130.2" class="st14" width="3" height="6.8"/>
      <rect x="501.5" y="1130.2" class="st14" width="3" height="6.8"/>
      <rect x="506.5" y="1130.2" class="st14" width="3" height="6.8"/>
      <ellipse class="st12" cx="255.8" cy="1086.2" rx="2.5" ry="3.4"/>
      <ellipse class="st12" cx="255.8" cy="1086.2" rx="2.5" ry="3.4"/>
      <ellipse class="st12" cx="592.4" cy="1086.2" rx="2.5" ry="3.4"/>
      <rect x="344.7" y="1130.2" class="st14" width="3" height="6.8"/>
      <rect x="349.7" y="1130.2" class="st14" width="3" height="6.8"/>
      <ellipse class="st15" cx="298" cy="1137.4" rx="2.5" ry="7.2"/>
      <rect x="289.4" y="1143.8" class="st11" width="17.1" height="22"/>
      <ellipse class="st15" cx="551.2" cy="1138.3" rx="2.5" ry="7.2"/>
      <rect x="542.7" y="1144.6" class="st11" width="17.1" height="22"/>
      <rect x="250.2" y="1158.2" class="st11" width="5" height="4.2"/>
      <rect x="256.3" y="1158.2" class="st11" width="5" height="4.2"/>
      <rect x="309.3" y="1157.3" class="st11" width="5.3" height="9.3"/>
      <rect x="534.7" y="1157.3" class="st11" width="5.3" height="9.3"/>
      <rect x="622.9" y="1085.7" class="st17" width="629.6" height="81"/>
      <rect x="622.9" y="1085.8" class="st11" width="629.6" height="22"/>
      <rect x="622.9" y="1079.4" class="st12" width="60.3" height="87.2"/>
      <path class="st11" d="M638.6,1044.1h29l15.6,35.3h-60.3L638.6,1044.1z"/>
      <rect x="1053.9" y="1079.4" class="st12" width="60.3" height="87.2"/>
      <path class="st11" d="M1069.5,1044.1h29l15.6,35.3h-60.3L1069.5,1044.1z"/>
      <rect x="761.4" y="1079.4" class="st12" width="60.3" height="87.2"/>
      <path class="st11" d="M777,1044.1h29l15.6,35.3h-60.3L777,1044.1z"/>
      <rect x="1192.3" y="1079.4" class="st12" width="60.3" height="87.2"/>
      <path class="st11" d="M1207.9,1044.1h29l15.6,35.3h-60.3L1207.9,1044.1z"/>
      <path class="st12" d="M938.6,707.2h-1.2v17h1.2V707.2z"/>
      <path class="st12" d="M976,924.1h-73.8v242.5H976V924.1z"/>
      <path class="st18" d="M901,916.2v-67.8h74v67.8H901z"/>
      <path class="st11" d="M886.4,916.8h103.1l-5.8,8.5h-91.5L886.4,916.8z"/>
      <path class="st12" d="M897.4,858.3c1,0,1.7-0.7,1.7-1.6s-0.8-1.6-1.7-1.6c-1,0-1.7,0.7-1.7,1.6S896.5,858.3,897.4,858.3z"/>
      <path class="st12" d="M978.5,858.3c1,0,1.7-0.7,1.7-1.6s-0.8-1.6-1.7-1.6c-1,0-1.7,0.7-1.7,1.6S977.6,858.3,978.5,858.3z"/>
      <path class="st11" d="M938,724.2l37.6,123.7h-75.3L938,724.2z"/>
      <path class="st11" d="M942,719.9h-8.1v17h8.1V719.9z"/>
      <path class="st12" d="M983.8,874.3h-10.4v42.6h10.4V874.3z"/>
      <path class="st12" d="M902.6,874.3h-10.4v42.6h10.4V874.3z"/>
      <path class="st14" d="M916.5,970c1.3,0,2.3-8.1,2.3-18.1c0-10-1-18.1-2.3-18.1c-1.3,0-2.3,8.1-2.3,18.1
		C914.2,961.9,915.3,970,916.5,970z"/>
      <path class="st14" d="M930.4,970c1.3,0,2.3-8.1,2.3-18.1c0-10-1-18.1-2.3-18.1c-1.3,0-2.3,8.1-2.3,18.1
		C928.1,961.9,929.2,970,930.4,970z"/>
      <path class="st14" d="M958.3,970c1.3,0,2.3-8.1,2.3-18.1c0-10-1-18.1-2.3-18.1c-1.3,0-2.3,8.1-2.3,18.1
		C955.9,961.9,957,970,958.3,970z"/>
      <path class="st14" d="M944.4,970c1.3,0,2.3-8.1,2.3-18.1c0-10-1-18.1-2.3-18.1c-1.3,0-2.3,8.1-2.3,18.1
		C942,961.9,943.1,970,944.4,970z"/>
      <path class="flag" d="M961.7,693.3h-24.3v13.8h24.3V693.3z" fill="#C11F25"/>
      <path class="st11" d="M897.4,855.1l-5.5,20h11L897.4,855.1z"/>
      <path class="st11" d="M978.5,855.1l-5.5,20h11L978.5,855.1z"/>
      <path class="st13" d="M938.6,911.5c17.3,0,31.3-12.9,31.3-28.7c0-15.9-14-28.7-31.3-28.7c-17.3,0-31.3,12.9-31.3,28.7
		C907.3,898.6,921.3,911.5,938.6,911.5z"/>
      <path class="st14" d="M938.6,907.2c14.7,0,26.7-11,26.7-24.5c0-13.5-11.9-24.5-26.7-24.5c-14.7,0-26.7,11-26.7,24.5
		C911.9,896.3,923.8,907.2,938.6,907.2z"/>
      <path class="st12" d="M938,886c1.6,0,2.9-1.2,2.9-2.7c0-1.5-1.3-2.7-2.9-2.7c-1.6,0-2.9,1.2-2.9,2.7C935.1,884.8,936.4,886,938,886
		z"/>
      <path class="clock-left" d="M938,883.3l-12.2,8" fill="none" stroke="#C11F25"/>
      <path class="clock-right" d="M938,883.3l14.9,12" fill="none" stroke="#C11F25"/>
      <path class="st13" d="M954.9,1166.6v-29.6c0-7.6-17.1-17-17.1-17s-17.1,9.4-17.1,17v29.6H954.9z"/>
      <path class="st11" d="M641.3,1034h-2.5v10.3h2.5V1034z"/>
      <path class="st11" d="M640.1,1029.4l-1.3,4.8h2.6L640.1,1029.4z"/>
      <path class="st12" d="M640.1,1030.2c0.2,0,0.4-0.2,0.4-0.4c0-0.2-0.2-0.4-0.4-0.4c-0.2,0-0.4,0.2-0.4,0.4
		C639.6,1030,639.8,1030.2,640.1,1030.2z"/>
      <path class="st11" d="M667.7,1034.1h-2.5v10.3h2.5V1034.1z"/>
      <path class="st11" d="M666.4,1029.5l-1.3,4.8h2.6L666.4,1029.5z"/>
      <path class="st12" d="M666.4,1030.2c0.2,0,0.4-0.2,0.4-0.4c0-0.2-0.2-0.4-0.4-0.4c-0.2,0-0.4,0.2-0.4,0.4
		C666,1030.1,666.2,1030.2,666.4,1030.2z"/>
      <path class="st11" d="M1073.4,1034.1h-2.5v10.3h2.5V1034.1z"/>
      <path class="st11" d="M1072.1,1029.5l-1.3,4.8h2.6L1072.1,1029.5z"/>
      <path class="st12" d="M1072.1,1030.2c0.2,0,0.4-0.2,0.4-0.4c0-0.2-0.2-0.4-0.4-0.4c-0.2,0-0.4,0.2-0.4,0.4
		C1071.7,1030.1,1071.9,1030.2,1072.1,1030.2z"/>
      <path class="st11" d="M1097.1,1034.1h-2.5v10.3h2.5V1034.1z"/>
      <path class="st11" d="M1095.8,1029.5l-1.3,4.8h2.6L1095.8,1029.5z"/>
      <path class="st12" d="M1095.8,1030.2c0.2,0,0.4-0.2,0.4-0.4c0-0.2-0.2-0.4-0.4-0.4c-0.2,0-0.4,0.2-0.4,0.4
		C1095.4,1030.1,1095.6,1030.2,1095.8,1030.2z"/>
      <path class="st11" d="M1210.4,1034.1h-2.5v10.3h2.5V1034.1z"/>
      <path class="st11" d="M1209.1,1029.5l-1.3,4.8h2.6L1209.1,1029.5z"/>
      <path class="st12" d="M1209.1,1030.2c0.2,0,0.4-0.2,0.4-0.4c0-0.2-0.2-0.4-0.4-0.4c-0.2,0-0.4,0.2-0.4,0.4
		C1208.7,1030.1,1208.9,1030.2,1209.1,1030.2z"/>
      <path class="st11" d="M1236.7,1034.1h-2.5v10.3h2.5V1034.1z"/>
      <path class="st11" d="M1235.5,1029.5l-1.3,4.8h2.6L1235.5,1029.5z"/>
      <path class="st12" d="M1235.5,1030.2c0.2,0,0.4-0.2,0.4-0.4c0-0.2-0.2-0.4-0.4-0.4s-0.4,0.2-0.4,0.4
		C1235.1,1030.1,1235.2,1030.2,1235.5,1030.2z"/>
      <path class="st11" d="M780.9,1034.1h-2.5v10.3h2.5V1034.1z"/>
      <path class="st11" d="M779.7,1029.5l-1.3,4.8h2.6L779.7,1029.5z"/>
      <path class="st12" d="M779.7,1030.2c0.2,0,0.4-0.2,0.4-0.4c0-0.2-0.2-0.4-0.4-0.4c-0.2,0-0.4,0.2-0.4,0.4
		C779.3,1030.1,779.5,1030.2,779.7,1030.2z"/>
      <path class="st11" d="M804.7,1034h-2.5v10.3h2.5V1034z"/>
      <path class="st11" d="M803.4,1029.4l-1.3,4.8h2.6L803.4,1029.4z"/>
      <path class="st12" d="M803.4,1030.2c0.2,0,0.4-0.2,0.4-0.4c0-0.2-0.2-0.4-0.4-0.4c-0.2,0-0.4,0.2-0.4,0.4
		C803,1030,803.2,1030.2,803.4,1030.2z"/>
      <path class="st13" d="M658.8,1108.7c1.2,0,2.1-3.5,2.1-7.8c0-4.3-0.9-7.8-2.1-7.8c-1.2,0-2.1,3.5-2.1,7.8
		C656.7,1105.2,657.6,1108.7,658.8,1108.7z"/>
      <path class="st13" d="M650.9,1108.7c1.2,0,2.1-3.5,2.1-7.8c0-4.3-0.9-7.8-2.1-7.8c-1.2,0-2.1,3.5-2.1,7.8
		C648.8,1105.2,649.7,1108.7,650.9,1108.7z"/>
      <path class="st13" d="M643.5,1108.7c1.2,0,2.1-3.5,2.1-7.8c0-4.3-0.9-7.8-2.1-7.8c-1.2,0-2.1,3.5-2.1,7.8
		C641.4,1105.2,642.3,1108.7,643.5,1108.7z"/>
      <path class="st13" d="M798.4,1108.7c1.2,0,2.1-3.5,2.1-7.8c0-4.3-0.9-7.8-2.1-7.8s-2.1,3.5-2.1,7.8
		C796.3,1105.2,797.3,1108.7,798.4,1108.7z"/>
      <path class="st13" d="M790.5,1108.7c1.2,0,2.1-3.5,2.1-7.8c0-4.3-0.9-7.8-2.1-7.8s-2.1,3.5-2.1,7.8
		C788.4,1105.2,789.4,1108.7,790.5,1108.7z"/>
      <path class="st13" d="M783.1,1108.7c1.2,0,2.1-3.5,2.1-7.8c0-4.3-0.9-7.8-2.1-7.8c-1.2,0-2.1,3.5-2.1,7.8
		C781,1105.2,782,1108.7,783.1,1108.7z"/>
      <path class="st13" d="M1090.8,1108.7c1.2,0,2.1-3.5,2.1-7.8c0-4.3-0.9-7.8-2.1-7.8c-1.2,0-2.1,3.5-2.1,7.8
		C1088.7,1105.2,1089.7,1108.7,1090.8,1108.7z"/>
      <path class="st13" d="M1082.9,1108.7c1.2,0,2.1-3.5,2.1-7.8c0-4.3-0.9-7.8-2.1-7.8c-1.2,0-2.1,3.5-2.1,7.8
		C1080.9,1105.2,1081.8,1108.7,1082.9,1108.7z"/>
      <path class="st13" d="M1075.5,1108.7c1.2,0,2.1-3.5,2.1-7.8c0-4.3-0.9-7.8-2.1-7.8c-1.2,0-2.1,3.5-2.1,7.8
		C1073.4,1105.2,1074.4,1108.7,1075.5,1108.7z"/>
      <path class="st13" d="M1230.5,1108.7c1.2,0,2.1-3.5,2.1-7.8c0-4.3-0.9-7.8-2.1-7.8s-2.1,3.5-2.1,7.8
		C1228.4,1105.2,1229.3,1108.7,1230.5,1108.7z"/>
      <path class="st13" d="M1222.6,1108.7c1.2,0,2.1-3.5,2.1-7.8c0-4.3-0.9-7.8-2.1-7.8c-1.2,0-2.1,3.5-2.1,7.8
		C1220.5,1105.2,1221.4,1108.7,1222.6,1108.7z"/>
      <path class="st13" d="M1215.2,1108.7c1.2,0,2.1-3.5,2.1-7.8c0-4.3-0.9-7.8-2.1-7.8c-1.2,0-2.1,3.5-2.1,7.8
		C1213.1,1105.2,1214,1108.7,1215.2,1108.7z"/>
      <path class="st14" d="M948.9,1166.6v-19.8c0-5.1-11.2-11.4-11.2-11.4s-11.2,6.3-11.2,11.4v19.8H948.9z"/>
      <path class="st14" d="M643.1,1152.4c-5,0-4.4,0.7-4.3-4.9c0-5.6,2-10.2,4.4-10.2c2.4,0,4.3,4.6,4.3,10.2
		C647.5,1153.1,648.2,1152.4,643.1,1152.4z"/>
      <rect x="638.8" y="1148.2" class="st14" width="8.8" height="4.4"/>
      <path class="st14" d="M659,1152.4c-5,0-4.4,0.7-4.3-4.9c0-5.6,2-10.2,4.4-10.2c2.4,0,4.3,4.6,4.3,10.2
		C663.3,1153.1,664,1152.4,659,1152.4z"/>
      <rect x="654.6" y="1148.2" class="st14" width="8.8" height="4.4"/>
      <path class="st14" d="M643.1,1152.4c-5,0-4.4,0.7-4.3-4.9c0-5.6,2-10.2,4.4-10.2c2.4,0,4.3,4.6,4.3,10.2
		C647.5,1153.1,648.2,1152.4,643.1,1152.4z"/>
      <rect x="638.8" y="1148.2" class="st14" width="8.8" height="4.4"/>
      <path class="st14" d="M659,1152.4c-5,0-4.4,0.7-4.3-4.9c0-5.6,2-10.2,4.4-10.2c2.4,0,4.3,4.6,4.3,10.2
		C663.3,1153.1,664,1152.4,659,1152.4z"/>
      <rect x="654.6" y="1148.2" class="st14" width="8.8" height="4.4"/>
      <path class="st14" d="M782.8,1152.4c-5,0-4.4,0.7-4.3-4.9c0-5.6,2-10.2,4.4-10.2c2.4,0,4.3,4.6,4.3,10.2
		C787.1,1153.1,787.8,1152.4,782.8,1152.4z"/>
      <rect x="778.4" y="1148.2" class="st14" width="8.8" height="4.4"/>
      <path class="st14" d="M798.6,1152.4c-5,0-4.4,0.7-4.3-4.9c0-5.6,2-10.2,4.4-10.2c2.4,0,4.3,4.6,4.3,10.2
		C802.9,1153.1,803.6,1152.4,798.6,1152.4z"/>
      <rect x="794.2" y="1148.2" class="st14" width="8.8" height="4.4"/>
      <path class="st14" d="M1075.2,1152.4c-5,0-4.4,0.7-4.3-4.9c0-5.6,2-10.2,4.4-10.2c2.4,0,4.3,4.6,4.3,10.2
		C1079.6,1153.1,1080.2,1152.4,1075.2,1152.4z"/>
      <rect x="1070.8" y="1148.2" class="st14" width="8.8" height="4.4"/>
      <path class="st14" d="M1091,1152.4c-5,0-4.4,0.7-4.3-4.9c0-5.6,2-10.2,4.4-10.2c2.4,0,4.3,4.6,4.3,10.2
		C1095.4,1153.1,1096,1152.4,1091,1152.4z"/>
      <rect x="1086.6" y="1148.2" class="st14" width="8.8" height="4.4"/>
      <path class="st14" d="M1214.8,1152.4c-5,0-4.4,0.7-4.3-4.9c0-5.6,2-10.2,4.4-10.2c2.4,0,4.3,4.6,4.3,10.2
		C1219.2,1153.1,1219.9,1152.4,1214.8,1152.4z"/>
      <rect x="1210.5" y="1148.2" class="st14" width="8.8" height="4.4"/>
      <path class="st14" d="M1230.6,1152.4c-5,0-4.4,0.7-4.3-4.9c0-5.6,2-10.2,4.4-10.2c2.4,0,4.3,4.6,4.3,10.2
		C1235,1153.1,1235.7,1152.4,1230.6,1152.4z"/>
      <rect x="1226.3" y="1148.2" class="st14" width="8.8" height="4.4"/>
      <path class="st14" d="M697.8,1150.2c-4.3,0-3.7,0.6-3.7-4.2c0-4.8,1.7-8.7,3.8-8.7c2.1,0,3.7,3.9,3.7,8.7
		C701.6,1150.8,702.1,1150.2,697.8,1150.2z"/>
      <rect x="694.1" y="1146.7" class="st14" width="7.5" height="3.8"/>
      <path class="st14" d="M711.4,1150.2c-4.3,0-3.7,0.6-3.7-4.2c0-4.8,1.7-8.7,3.8-8.7c2.1,0,3.7,3.9,3.7,8.7
		C715.1,1150.8,715.7,1150.2,711.4,1150.2z"/>
      <rect x="707.6" y="1146.7" class="st14" width="7.5" height="3.8"/>
      <path class="st14" d="M729.4,1150.2c-4.3,0-3.7,0.6-3.7-4.2c0-4.8,1.7-8.7,3.8-8.7c2.1,0,3.7,3.9,3.7,8.7
		C733.2,1150.8,733.7,1150.2,729.4,1150.2z"/>
      <rect x="725.7" y="1146.7" class="st14" width="7.5" height="3.8"/>
      <path class="st14" d="M743,1150.2c-4.3,0-3.7,0.6-3.7-4.2c0-4.8,1.7-8.7,3.8-8.7c2.1,0,3.7,3.9,3.7,8.7
		C746.7,1150.8,747.3,1150.2,743,1150.2z"/>
      <rect x="739.2" y="1146.7" class="st14" width="7.5" height="3.8"/>
      <path class="st14" d="M840.1,1150.2c-4.3,0-3.7,0.6-3.7-4.2c0-4.8,1.7-8.7,3.8-8.7c2.1,0,3.7,3.9,3.7,8.7
		C843.8,1150.8,844.4,1150.2,840.1,1150.2z"/>
      <rect x="836.3" y="1146.7" class="st14" width="7.5" height="3.8"/>
      <path class="st14" d="M853.6,1150.2c-4.3,0-3.7,0.6-3.7-4.2c0-4.8,1.7-8.7,3.8-8.7c2.1,0,3.7,3.9,3.7,8.7
		C857.4,1150.8,857.9,1150.2,853.6,1150.2z"/>
      <rect x="849.9" y="1146.7" class="st14" width="7.5" height="3.8"/>
      <path class="st14" d="M871.7,1150.2c-4.3,0-3.7,0.6-3.7-4.2c0-4.8,1.7-8.7,3.8-8.7c2.1,0,3.7,3.9,3.7,8.7
		C875.4,1150.8,876,1150.2,871.7,1150.2z"/>
      <rect x="868" y="1146.7" class="st14" width="7.5" height="3.8"/>
      <path class="st14" d="M885.2,1150.2c-4.3,0-3.7,0.6-3.7-4.2c0-4.8,1.7-8.7,3.8-8.7c2.1,0,3.7,3.9,3.7,8.7
		C889,1150.8,889.6,1150.2,885.2,1150.2z"/>
      <rect x="881.5" y="1146.7" class="st14" width="7.5" height="3.8"/>
      <path class="st14" d="M992.9,1150.2c-4.3,0-3.7,0.6-3.7-4.2c0-4.8,1.7-8.7,3.8-8.7c2.1,0,3.7,3.9,3.7,8.7
		C996.6,1150.8,997.2,1150.2,992.9,1150.2z"/>
      <rect x="989.2" y="1146.7" class="st14" width="7.5" height="3.8"/>
      <path class="st14" d="M1006.4,1150.2c-4.3,0-3.7,0.6-3.7-4.2c0-4.8,1.7-8.7,3.8-8.7c2.1,0,3.7,3.9,3.7,8.7
		C1010.2,1150.8,1010.7,1150.2,1006.4,1150.2z"/>
      <rect x="1002.7" y="1146.7" class="st14" width="7.5" height="3.8"/>
      <path class="st14" d="M1024.5,1150.2c-4.3,0-3.7,0.6-3.7-4.2c0-4.8,1.7-8.7,3.8-8.7c2.1,0,3.7,3.9,3.7,8.7
		C1028.3,1150.8,1028.8,1150.2,1024.5,1150.2z"/>
      <rect x="1020.8" y="1146.7" class="st14" width="7.5" height="3.8"/>
      <path class="st14" d="M1038.1,1150.2c-4.3,0-3.7,0.6-3.7-4.2c0-4.8,1.7-8.7,3.8-8.7s3.7,3.9,3.7,8.7
		C1041.8,1150.8,1042.4,1150.2,1038.1,1150.2z"/>
      <rect x="1034.3" y="1146.7" class="st14" width="7.5" height="3.8"/>
      <path class="st14" d="M1132.5,1150.2c-4.3,0-3.7,0.6-3.7-4.2c0-4.8,1.7-8.7,3.8-8.7c2.1,0,3.7,3.9,3.7,8.7
		C1136.3,1150.8,1136.8,1150.2,1132.5,1150.2z"/>
      <rect x="1128.8" y="1146.7" class="st14" width="7.5" height="3.8"/>
      <path class="st14" d="M1146.1,1150.2c-4.3,0-3.7,0.6-3.7-4.2c0-4.8,1.7-8.7,3.8-8.7c2.1,0,3.7,3.9,3.7,8.7
		C1149.8,1150.8,1150.4,1150.2,1146.1,1150.2z"/>
      <rect x="1142.3" y="1146.7" class="st14" width="7.5" height="3.8"/>
      <path class="st14" d="M1164.1,1150.2c-4.3,0-3.7,0.6-3.7-4.2c0-4.8,1.7-8.7,3.8-8.7c2.1,0,3.7,3.9,3.7,8.7
		C1167.9,1150.8,1168.4,1150.2,1164.1,1150.2z"/>
      <rect x="1160.4" y="1146.7" class="st14" width="7.5" height="3.8"/>
      <path class="st14" d="M1177.7,1150.2c-4.3,0-3.7,0.6-3.7-4.2c0-4.8,1.7-8.7,3.8-8.7c2.1,0,3.7,3.9,3.7,8.7
		C1181.4,1150.8,1182,1150.2,1177.7,1150.2z"/>
      <rect x="1173.9" y="1146.7" class="st14" width="7.5" height="3.8"/>
      <path class="st16" d="M927.4,1071.9c7.7-0.1,6.7,3.9,6.7-28.3c0-32.2-3-58.3-6.7-58.2c-3.7,0-6.7,26.1-6.7,58.3
		C920.7,1076,919.7,1072,927.4,1071.9z"/>
      <rect x="920.6" y="1048.4" class="st16" width="13.5" height="25.2"/>
      <path class="st16" d="M951.2,1071.9c7.7-0.1,6.7,3.9,6.7-28.3c0-32.2-3-58.3-6.7-58.2c-3.7,0-6.7,26.1-6.7,58.3
		C944.5,1076,943.4,1072,951.2,1071.9z"/>
      <rect x="944.4" y="1048.4" class="st16" width="13.5" height="25.2"/>
      <rect x="622.9" y="1078.4" class="st16" width="7.9" height="88.2"/>
      <rect x="675.6" y="1078.4" class="st16" width="7.9" height="88.2"/>
      <rect x="759.9" y="1078.4" class="st16" width="7.9" height="88.2"/>
      <rect x="815.3" y="1078.4" class="st16" width="7.9" height="88.2"/>
      <rect x="1107.7" y="1078.4" class="st16" width="7.9" height="88.2"/>
      <rect x="1192" y="1078.4" class="st16" width="7.9" height="88.2"/>
      <rect x="1244.7" y="1078.4" class="st16" width="7.9" height="88.2"/>
      <rect x="1052.4" y="1078.4" class="st16" width="7.9" height="88.2"/>
      <path class="st11" d="M1879.7,1007l25.8,31.7h-51.5L1879.7,1007z"/>
      <rect x="1628" y="1011.6" class="st11" width="138.2" height="24.7"/>
      <rect x="1731.8" y="1036.2" class="st12" width="132.4" height="131.3"/>
      <rect x="1812.8" y="997.3" class="st16" width="55.5" height="170.2"/>
      <rect x="1858.4" y="1054.2" class="st13" width="4.9" height="8.4"/>
      <rect x="1858.4" y="1073.9" class="st13" width="4.9" height="8.4"/>
      <rect x="1858.4" y="1093.1" class="st13" width="4.9" height="8.4"/>
      <rect x="1858.4" y="1112.8" class="st13" width="4.9" height="8.4"/>
      <path class="st13" d="M1834.9,1035.9c-9.5,0-8.2,0.8-8.2-6c0-6.9,3.7-12.4,8.2-12.4c4.5,0,8.2,5.6,8.1,12.5
		C1843.1,1036.7,1844.4,1035.9,1834.9,1035.9z"/>
      <rect x="1826.7" y="1030.8" class="st13" width="16.5" height="5.4"/>
      <rect x="1824.4" y="1016.2" class="st11" width="20.1" height="1.7"/>
      <rect x="1868.3" y="1036.2" class="st20" width="37.6" height="131.3"/>
      <rect x="1868.3" y="1035" class="st11" width="40.3" height="10.9"/>
      <path class="st11" d="M1880.7,1004.1h-1.7v5.6h1.7V1004.1z"/>
      <path class="st11" d="M1879.9,1001.5l-0.9,2.6h1.8L1879.9,1001.5z"/>
      <path class="st12" d="M1879.9,1001.9c0.2,0,0.3-0.1,0.3-0.2c0-0.1-0.1-0.2-0.3-0.2c-0.1,0-0.3,0.1-0.3,0.2
		C1879.6,1001.8,1879.7,1001.9,1879.9,1001.9z"/>
      <rect x="1900.9" y="1033.7" class="st11" width="7.6" height="13.8"/>
      <rect x="1872.7" y="1062.6" class="st11" width="14.8" height="2.5"/>
      <rect x="1872.7" y="1082.2" class="st11" width="14.8" height="2.5"/>
      <rect x="1872.7" y="1101.5" class="st11" width="14.8" height="2.5"/>
      <rect x="1872.7" y="1121.1" class="st11" width="14.8" height="2.5"/>
      <rect x="1874.1" y="1054.2" class="st14" width="4.9" height="8.4"/>
      <rect x="1881.2" y="1054.2" class="st14" width="4.9" height="8.4"/>
      <rect x="1874.1" y="1073.9" class="st14" width="4.9" height="8.4"/>
      <rect x="1881.2" y="1073.9" class="st14" width="4.9" height="8.4"/>
      <rect x="1874.1" y="1093.1" class="st14" width="4.9" height="8.4"/>
      <rect x="1881.2" y="1093.1" class="st14" width="4.9" height="8.4"/>
      <rect x="1874.1" y="1112.8" class="st14" width="4.9" height="8.4"/>
      <rect x="1881.2" y="1112.8" class="st14" width="4.9" height="8.4"/>
      <rect x="1894.7" y="1054.2" class="st13" width="4.9" height="8.4"/>
      <rect x="1894.7" y="1073.9" class="st13" width="4.9" height="8.4"/>
      <rect x="1894.7" y="1093.1" class="st13" width="4.9" height="8.4"/>
      <rect x="1894.7" y="1112.8" class="st13" width="4.9" height="8.4"/>
      <rect x="1807.9" y="1047.1" class="st20" width="46.1" height="120.5"/>
      <rect x="1812.8" y="1036.2" class="st11" width="46.1" height="10.9"/>
      <rect x="1603" y="1036.2" class="st16" width="174" height="131.3"/>
      <rect x="1577" y="1036.2" class="st12" width="67.6" height="131.3"/>
      <rect x="1662.9" y="1058" class="st14" width="7.6" height="15.5"/>
      <rect x="1662.9" y="1104.4" class="st14" width="7.6" height="15.5"/>
      <rect x="1662.9" y="1081.4" class="st14" width="7.6" height="15.5"/>
      <rect x="1720.2" y="1058" class="st14" width="7.6" height="15.5"/>
      <rect x="1720.2" y="1104.4" class="st14" width="7.6" height="15.5"/>
      <rect x="1720.2" y="1081.4" class="st14" width="7.6" height="15.5"/>
      <rect x="1691.5" y="1058" class="st14" width="7.6" height="15.5"/>
      <rect x="1691.5" y="1104.4" class="st14" width="7.6" height="15.5"/>
      <rect x="1691.5" y="1081.4" class="st14" width="7.6" height="15.5"/>
      <rect x="1605.2" y="1036.2" class="st20" width="12.1" height="97.5"/>
      <rect x="1617.3" y="1036.2" class="st21" width="5.4" height="97.5"/>
      <rect x="1599.8" y="1036.2" class="st21" width="5.4" height="97.5"/>
      <rect x="1607.4" y="1058" class="st14" width="7.6" height="15.5"/>
      <rect x="1607.4" y="1104.4" class="st14" width="7.6" height="15.5"/>
      <rect x="1607.4" y="1081.4" class="st14" width="7.6" height="15.5"/>
      <rect x="1586" y="1058" class="st13" width="7.6" height="15.5"/>
      <rect x="1586" y="1104.4" class="st13" width="7.6" height="15.5"/>
      <rect x="1586" y="1081.4" class="st13" width="7.6" height="15.5"/>
      <rect x="1628.9" y="1058" class="st13" width="7.6" height="15.5"/>
      <rect x="1628.9" y="1104.4" class="st13" width="7.6" height="15.5"/>
      <rect x="1628.9" y="1081.4" class="st13" width="7.6" height="15.5"/>
      <path class="st16" d="M1666.7,1016.2l9.9,26.3h-19.8L1666.7,1016.2z"/>
      <path class="st16" d="M1695.8,1016.2l9.9,26.3h-19.8L1695.8,1016.2z"/>
      <path class="st16" d="M1724,1016.2l9.9,26.3h-19.8L1724,1016.2z"/>
      <rect x="1605.2" y="1036.2" class="st11" width="2.2" height="97.5"/>
      <rect x="1615.1" y="1036.2" class="st11" width="2.2" height="97.5"/>
      <rect x="1745.2" y="1036.2" class="st12" width="67.6" height="131.3"/>
      <rect x="1773.4" y="1036.2" class="st20" width="12.1" height="97.5"/>
      <rect x="1785.5" y="1036.2" class="st21" width="5.4" height="97.5"/>
      <rect x="1768" y="1036.2" class="st21" width="5.4" height="97.5"/>
      <rect x="1775.7" y="1058" class="st14" width="7.6" height="15.5"/>
      <rect x="1775.7" y="1104.4" class="st14" width="7.6" height="15.5"/>
      <rect x="1775.7" y="1081.4" class="st14" width="7.6" height="15.5"/>
      <rect x="1773.4" y="1036.2" class="st11" width="2.2" height="97.5"/>
      <rect x="1783.3" y="1036.2" class="st11" width="2.2" height="97.5"/>
      <rect x="1745.2" y="1133.7" class="st20" width="1.8" height="33.9"/>
      <path class="st20" d="M1611,968.1l25.6,56.1h-51.1L1611,968.1z"/>
      <path class="st12" d="M1611.2,983.5l9.9,26.3h-19.8L1611.2,983.5z"/>
      <path class="st11" d="M1601.6,1003.8h-1.7v6.1h1.7V1003.8z"/>
      <path class="st11" d="M1600.7,1001.1l-0.9,2.8h1.8L1600.7,1001.1z"/>
      <path class="st12" d="M1600.7,1001.6c0.1,0,0.3-0.1,0.3-0.2c0-0.1-0.1-0.2-0.3-0.2c-0.2,0-0.3,0.1-0.3,0.2
		C1600.5,1001.4,1600.6,1001.6,1600.7,1001.6z"/>
      <path class="st11" d="M1623,1003.8h-1.7v6.1h1.7V1003.8z"/>
      <path class="st11" d="M1622.2,1001.1l-0.9,2.8h1.8L1622.2,1001.1z"/>
      <path class="st12" d="M1622.2,1001.6c0.2,0,0.3-0.1,0.3-0.2c0-0.1-0.1-0.2-0.3-0.2c-0.2,0-0.3,0.1-0.3,0.2
		C1621.9,1001.4,1622,1001.6,1622.2,1001.6z"/>
      <path class="st11" d="M1611.9,979.6h-1.7v6.1h1.7V979.6z"/>
      <path class="st11" d="M1611,976.8l-0.9,2.8h1.8L1611,976.8z"/>
      <path class="st12" d="M1611,977.3c0.2,0,0.3-0.1,0.3-0.2c0-0.1-0.1-0.2-0.3-0.2c-0.2,0-0.3,0.1-0.3,0.2
		C1610.7,977.2,1610.9,977.3,1611,977.3z"/>
      <rect x="1599.4" y="1009.9" class="st12" width="23.7" height="21.7"/>
      <rect x="1605.2" y="1017.8" class="st14" width="4.9" height="8.4"/>
      <rect x="1612.4" y="1017.8" class="st14" width="4.9" height="8.4"/>
      <rect x="1573.4" y="1031.6" class="st11" width="71.1" height="4.6"/>
      <rect x="1573.4" y="1018.7" class="st11" width="13.4" height="2.5"/>
      <rect x="1631.2" y="1018.7" class="st11" width="13.4" height="2.5"/>
      <rect x="1656.7" y="1033.7" class="st11" width="5.4" height="2.5"/>
      <rect x="1649" y="1131.2" class="st20" width="5.4" height="2.5"/>
      <rect x="1678.1" y="1131.2" class="st20" width="5.4" height="2.5"/>
      <rect x="1707.2" y="1131.2" class="st20" width="5.4" height="2.5"/>
      <rect x="1735.4" y="1131.2" class="st20" width="5.4" height="2.5"/>
      <rect x="1671.4" y="1033.7" class="st11" width="5.4" height="2.5"/>
      <rect x="1685.7" y="1033.7" class="st11" width="5.4" height="2.5"/>
      <rect x="1700.5" y="1033.7" class="st11" width="5.4" height="2.5"/>
      <rect x="1713.5" y="1033.7" class="st11" width="5.4" height="2.5"/>
      <rect x="1728.2" y="1033.7" class="st11" width="5.4" height="2.5"/>
      <rect x="1599.4" y="1009.9" class="st11" width="23.7" height="2.5"/>
      <rect x="1743.9" y="1018.7" class="st20" width="70.2" height="17.6"/>
      <path class="st20" d="M1779.2,968.1l25.6,56.2h-51.1L1779.2,968.1z"/>
      <path class="st12" d="M1779.5,983.5l9.9,26.3h-19.8L1779.5,983.5z"/>
      <path class="st11" d="M1769.8,1003.8h-1.7v6.1h1.7V1003.8z"/>
      <path class="st11" d="M1768.9,1001.1l-0.9,2.8h1.8L1768.9,1001.1z"/>
      <path class="st12" d="M1768.9,1001.5c0.1,0,0.3-0.1,0.3-0.2s-0.1-0.2-0.3-0.2c-0.2,0-0.3,0.1-0.3,0.2S1768.8,1001.5,1768.9,1001.5z
		"/>
      <path class="st11" d="M1791.3,1003.8h-1.7v6.1h1.7V1003.8z"/>
      <path class="st11" d="M1790.4,1001.1l-0.9,2.8h1.8L1790.4,1001.1z"/>
      <path class="st12" d="M1790.4,1001.5c0.2,0,0.3-0.1,0.3-0.2s-0.1-0.2-0.3-0.2c-0.1,0-0.3,0.1-0.3,0.2S1790.3,1001.5,1790.4,1001.5z
		"/>
      <path class="st11" d="M1780.1,979.6h-1.7v6.1h1.7V979.6z"/>
      <path class="st11" d="M1779.2,976.8l-0.9,2.8h1.8L1779.2,976.8z"/>
      <path class="st12" d="M1779.2,977.3c0.2,0,0.3-0.1,0.3-0.2c0-0.1-0.1-0.2-0.3-0.2c-0.2,0-0.3,0.1-0.3,0.2
		C1779,977.2,1779.1,977.3,1779.2,977.3z"/>
      <path class="st11" d="M1780.1,964.5h-1.7v6.1h1.7V964.5z"/>
      <path class="st11" d="M1779.2,961.8l-0.9,2.8h1.8L1779.2,961.8z"/>
      <path class="st12" d="M1779.2,962.2c0.2,0,0.3-0.1,0.3-0.2c0-0.1-0.1-0.2-0.3-0.2c-0.2,0-0.3,0.1-0.3,0.2
		C1779,962.1,1779.1,962.2,1779.2,962.2z"/>
      <rect x="1767.6" y="1009.9" class="st12" width="23.7" height="21.7"/>
      <rect x="1773.4" y="1017.8" class="st14" width="4.9" height="8.4"/>
      <rect x="1780.6" y="1017.8" class="st14" width="4.9" height="8.4"/>
      <rect x="1743.9" y="1018.7" class="st11" width="14.8" height="2.5"/>
      <rect x="1799.4" y="1018.7" class="st11" width="14.8" height="2.5"/>
      <rect x="1767.6" y="1009.9" class="st11" width="23.7" height="2.5"/>
      <rect x="1644.6" y="1133.7" class="st11" width="100.7" height="33.9"/>
      <path class="st13" d="M1695.3,1167.7c-12.5,0-10.9,1-10.8-7c0-8,4.9-14.4,10.9-14.4s10.8,6.5,10.8,14.5
		C1706.1,1168.7,1707.8,1167.7,1695.3,1167.7z"/>
      <rect x="1684.4" y="1161.3" class="st13" width="21.9" height="6.2"/>
      <path class="st13" d="M1723.9,1167.7c-12.5,0-10.9,1-10.8-7c0-8,4.9-14.4,10.9-14.4c6,0,10.8,6.5,10.8,14.5
		C1734.8,1168.7,1736.5,1167.7,1723.9,1167.7z"/>
      <rect x="1713" y="1161.3" class="st13" width="21.9" height="6.2"/>
      <path class="st13" d="M1666.7,1167.7c-12.5,0-10.9,1-10.8-7c0-8,4.9-14.4,10.9-14.4c6,0,10.8,6.5,10.8,14.5
		C1677.5,1168.7,1679.2,1167.7,1666.7,1167.7z"/>
      <rect x="1655.8" y="1161.3" class="st13" width="21.9" height="6.2"/>
      <path class="st22" d="M1600.6,1160.7c0,1,0,1.8-0.1,2.5v0.1c0,0.7,0,1.3,0,1.8c0,1,0.2,1.3,0.5,1.5c0.2,0.1,0.5,0.2,0.9,0.3
		c0.5,0.1,1.1,0.1,1.9,0.1c0.9,0,1.9,0,3.2,0c1.1,0,2.3,0,3.7,0c1.4,0,2.7,0,3.7,0c1.3,0,2.4,0,3.2,0c0.8,0,1.4-0.1,1.9-0.1
		c0.5-0.1,0.7-0.2,0.9-0.3c0.3-0.2,0.5-0.5,0.5-1.5c0-0.5,0-1.1,0-1.8v-0.1c0-0.7,0-1.5,0-2.5c0-4,0-8.7-1.3-12.4
		c-0.7-1.8-1.6-3.4-3-4.5c-1.4-1.1-3.3-1.8-5.9-1.8c-2.6,0-4.5,0.7-5.9,1.7c-1.4,1.1-2.3,2.6-3,4.4c-1.3,3.6-1.3,8.2-1.3,12.2
		C1600.6,1160.5,1600.6,1160.6,1600.6,1160.7z"/>
      <rect x="1600.5" y="1165.3" class="st22" width="20.6" height="1.6"/>
      <rect x="1675.9" y="1141.6" class="st20" width="10.3" height="25.9"/>
      <rect x="1646.8" y="1141.6" class="st20" width="10.3" height="25.9"/>
      <rect x="1732.7" y="1141.6" class="st20" width="10.3" height="25.9"/>
      <rect x="1704.5" y="1141.6" class="st20" width="10.3" height="25.9"/>
      <rect x="1646.4" y="1140" class="st20" width="11.2" height="2.9"/>
      <rect x="1675.5" y="1140" class="st20" width="11.2" height="2.9"/>
      <rect x="1704.1" y="1140" class="st20" width="11.2" height="2.9"/>
      <rect x="1732.3" y="1140" class="st20" width="11.2" height="2.9"/>
      <rect x="1641.9" y="1133.7" class="st20" width="106" height="6.3"/>
      <rect x="1641.9" y="1133.7" class="st16" width="106" height="1.3"/>
      <rect x="1642.8" y="1134.9" class="st20" width="1.8" height="32.6"/>
      <rect x="1753.7" y="1057.6" class="st13" width="7.6" height="15.5"/>
      <rect x="1753.7" y="1104" class="st13" width="7.6" height="15.5"/>
      <rect x="1753.7" y="1081" class="st13" width="7.6" height="15.5"/>
      <rect x="1796.7" y="1057.6" class="st13" width="7.6" height="15.5"/>
      <rect x="1852.6" y="1035" class="st11" width="7.6" height="13.8"/>
      <rect x="1796.7" y="1104" class="st13" width="7.6" height="15.5"/>
      <rect x="1796.7" y="1081" class="st13" width="7.6" height="15.5"/>
      <rect x="1666" y="1015.7" class="st16" width="1.3" height="2.5"/>
      <rect x="1695.1" y="1015.7" class="st16" width="1.3" height="2.5"/>
      <rect x="1723.3" y="1015.7" class="st16" width="1.3" height="2.5"/>
      <rect x="1654.4" y="1047.1" class="st11" width="2.2" height="2.5"/>
      <rect x="1661.1" y="1047.1" class="st11" width="1.8" height="2.5"/>
      <rect x="1648.1" y="1047.1" class="st11" width="1.8" height="2.5"/>
      <rect x="1667.4" y="1047.1" class="st11" width="2.2" height="2.5"/>
      <rect x="1693.3" y="1047.1" class="st11" width="2.2" height="2.5"/>
      <rect x="1706.3" y="1047.1" class="st11" width="2.2" height="2.5"/>
      <rect x="1700" y="1047.1" class="st11" width="1.8" height="2.5"/>
      <rect x="1713" y="1047.1" class="st11" width="1.8" height="2.5"/>
      <rect x="1726" y="1047.1" class="st11" width="1.8" height="2.5"/>
      <rect x="1719.3" y="1047.1" class="st11" width="2.2" height="2.5"/>
      <rect x="1739" y="1047.1" class="st11" width="1.8" height="2.5"/>
      <rect x="1732.3" y="1047.1" class="st11" width="2.2" height="2.5"/>
      <rect x="1687.1" y="1047.1" class="st11" width="1.8" height="2.5"/>
      <rect x="1680.3" y="1047.1" class="st11" width="2.2" height="2.5"/>
      <rect x="1674.1" y="1047.1" class="st11" width="1.8" height="2.5"/>
      <rect x="1644.6" y="1042.9" class="st11" width="100.7" height="4.2"/>
      <rect x="1750.8" y="1037.1" class="st11" width="1.6" height="2.5"/>
      <rect x="1755.4" y="1037.1" class="st11" width="1.2" height="2.5"/>
      <rect x="1746.4" y="1037.1" class="st11" width="1.2" height="2.5"/>
      <rect x="1759.8" y="1037.1" class="st11" width="1.6" height="2.5"/>
      <rect x="1777.9" y="1037.1" class="st11" width="1.6" height="2.5"/>
      <rect x="1787" y="1037.1" class="st11" width="1.6" height="2.5"/>
      <rect x="1782.6" y="1037.1" class="st11" width="1.2" height="2.5"/>
      <rect x="1791.7" y="1037.1" class="st11" width="1.2" height="2.5"/>
      <rect x="1800.7" y="1037.1" class="st11" width="1.2" height="2.5"/>
      <rect x="1796" y="1037.1" class="st11" width="1.6" height="2.5"/>
      <rect x="1809.8" y="1037.1" class="st11" width="1.2" height="2.5"/>
      <rect x="1805.1" y="1037.1" class="st11" width="1.6" height="2.5"/>
      <rect x="1773.5" y="1037.1" class="st11" width="1.2" height="2.5"/>
      <rect x="1768.9" y="1037.1" class="st11" width="1.6" height="2.5"/>
      <rect x="1764.5" y="1037.1" class="st11" width="1.2" height="2.5"/>
      <rect x="1743.9" y="1032.9" class="st11" width="70.2" height="4.2"/>
      <rect x="1811" y="993" class="st20" width="59.5" height="11.6"/>
      <path class="st20" d="M1840.9,959.7l21.7,37h-43.3L1840.9,959.7z"/>
      <path class="st12" d="M1841.1,969.9l8.4,17.4h-16.7L1841.1,969.9z"/>
      <path class="st11" d="M1832.9,983.3h-1.4v4h1.4V983.3z"/>
      <path class="st11" d="M1832.2,981.5l-0.8,1.9h1.5L1832.2,981.5z"/>
      <path class="st12" d="M1832.2,981.8c0.1,0,0.2-0.1,0.2-0.2c0-0.1-0.1-0.1-0.2-0.1s-0.2,0.1-0.2,0.1
		C1832,981.7,1832.1,981.8,1832.2,981.8z"/>
      <path class="st11" d="M1851.1,983.3h-1.4v4h1.4V983.3z"/>
      <path class="st11" d="M1850.4,981.5l-0.8,1.9h1.5L1850.4,981.5z"/>
      <path class="st12" d="M1850.4,981.8c0.1,0,0.2-0.1,0.2-0.1s-0.1-0.1-0.2-0.1c-0.1,0-0.2,0.1-0.2,0.1S1850.3,981.8,1850.4,981.8z"/>
      <path class="st11" d="M1841.7,967.3h-1.4v4h1.4V967.3z"/>
      <path class="st11" d="M1840.9,965.5l-0.8,1.9h1.5L1840.9,965.5z"/>
      <path class="st12" d="M1840.9,965.8c0.1,0,0.2-0.1,0.2-0.1s-0.1-0.1-0.2-0.1c-0.1,0-0.2,0.1-0.2,0.1S1840.8,965.8,1840.9,965.8z"/>
      <path class="st11" d="M1841.5,957.3h-1.4v4h1.4V957.3z"/>
      <path class="st11" d="M1840.8,955.5l-0.8,1.9h1.5L1840.8,955.5z"/>
      <path class="st12" d="M1840.8,955.8c0.1,0,0.2-0.1,0.2-0.2s-0.1-0.1-0.2-0.1s-0.2,0.1-0.2,0.1S1840.7,955.8,1840.8,955.8z"/>
      <rect x="1831.1" y="987.3" class="st12" width="20.1" height="14.3"/>
      <rect x="1811" y="993" class="st11" width="12.5" height="1.7"/>
      <rect x="1858" y="993" class="st11" width="12.5" height="1.7"/>
      <rect x="1838.3" y="990.6" class="st14" width="4.9" height="8.4"/>
      <rect x="1831.1" y="986.5" class="st11" width="20.1" height="1.7"/>
      <rect x="1817.9" y="1008.6" class="st11" width="1.6" height="2.5"/>
      <rect x="1822.5" y="1008.6" class="st11" width="1.2" height="2.5"/>
      <rect x="1813.5" y="1008.6" class="st11" width="1.2" height="2.5"/>
      <rect x="1826.9" y="1008.6" class="st11" width="1.6" height="2.5"/>
      <rect x="1845" y="1008.6" class="st11" width="1.6" height="2.5"/>
      <rect x="1854.1" y="1008.6" class="st11" width="1.6" height="2.5"/>
      <rect x="1849.7" y="1008.6" class="st11" width="1.2" height="2.5"/>
      <rect x="1858.8" y="1008.6" class="st11" width="1.2" height="2.5"/>
      <rect x="1867.8" y="1008.6" class="st11" width="1.2" height="2.5"/>
      <rect x="1863.1" y="1008.6" class="st11" width="1.6" height="2.5"/>
      <rect x="1840.7" y="1008.6" class="st11" width="1.2" height="2.5"/>
      <rect x="1836" y="1008.6" class="st11" width="1.6" height="2.5"/>
      <rect x="1831.6" y="1008.6" class="st11" width="1.2" height="2.5"/>
      <rect x="1811" y="1004.4" class="st11" width="59.5" height="4.2"/>
      <rect x="1875.1" y="1048.4" class="st11" width="1.6" height="2.5"/>
      <rect x="1879.8" y="1048.4" class="st11" width="1.2" height="2.5"/>
      <rect x="1870.8" y="1048.4" class="st11" width="1.2" height="2.5"/>
      <rect x="1884.2" y="1048.4" class="st11" width="1.6" height="2.5"/>
      <rect x="1902.3" y="1048.4" class="st11" width="1.6" height="2.5"/>
      <rect x="1907" y="1048.4" class="st11" width="1.2" height="2.5"/>
      <rect x="1897.9" y="1048.4" class="st11" width="1.2" height="2.5"/>
      <rect x="1893.2" y="1048.4" class="st11" width="1.6" height="2.5"/>
      <rect x="1888.9" y="1048.4" class="st11" width="1.2" height="2.5"/>
      <rect x="1868.3" y="1044.2" class="st11" width="40.3" height="4.2"/>
      <rect x="1601.2" y="1149.2" class="st11" width="19.2" height="0.8"/>
      <rect x="1610.1" y="1141.6" class="st11" width="1.3" height="25.9"/>
      <rect x="1602.5" y="1145.4" class="st11" width="16.6" height="0.4"/>
      <path class="st22" d="M1769.3,1160.5c0,1,0,1.8-0.1,2.5v0.1c0,0.7,0,1.3,0,1.8c0,1,0.2,1.3,0.5,1.5c0.2,0.1,0.5,0.2,0.9,0.3
		c0.5,0.1,1.1,0.1,1.9,0.1c0.9,0,1.9,0,3.3,0c1.1,0,2.3,0,3.7,0c1.4,0,2.7,0,3.7,0c1.3,0,2.4,0,3.2,0c0.8,0,1.4-0.1,1.9-0.1
		c0.5-0.1,0.7-0.2,0.9-0.3c0.3-0.2,0.5-0.5,0.5-1.5c0-0.5,0-1.1,0-1.8v-0.1c0-0.7,0-1.5,0-2.5c0-4,0-8.7-1.3-12.4
		c-0.7-1.8-1.6-3.4-3-4.5c-1.4-1.1-3.3-1.8-5.9-1.8c-2.6,0-4.5,0.7-5.9,1.7c-1.4,1.1-2.3,2.6-3,4.4c-1.3,3.6-1.3,8.2-1.3,12.2
		C1769.3,1160.3,1769.3,1160.4,1769.3,1160.5z"/>
      <rect x="1769.2" y="1165.1" class="st22" width="20.6" height="1.6"/>
      <rect x="1769.8" y="1149" class="st11" width="19.2" height="0.8"/>
      <rect x="1778.8" y="1141.6" class="st11" width="1.3" height="25.5"/>
      <rect x="1771.2" y="1145.2" class="st11" width="16.6" height="0.4"/>
      <rect x="1664.7" y="1032" class="st14" width="4" height="7.1"/>
      <path class="st11" d="M1574.8,990.1l-0.9,2.6h1.8L1574.8,990.1z"/>
      <path class="st12" d="M1574.8,990.5c0.2,0,0.3-0.1,0.3-0.2c0-0.1-0.1-0.2-0.3-0.2c-0.1,0-0.3,0.1-0.3,0.2
		C1574.5,990.4,1574.6,990.5,1574.8,990.5z"/>
      <rect x="1577" y="1006.8" class="st16" width="30.4" height="32.3"/>
      <path class="st16" d="M1592,959l15.7,48.2h-31.4L1592,959z"/>
      <rect x="1573.9" y="998.3" class="st16" width="36.2" height="12.5"/>
      <path class="st11" d="M1592.6,957.2h-1.7v5.6h1.7V957.2z"/>
      <path class="st11" d="M1591.8,954.7l-0.9,2.6h1.8L1591.8,954.7z"/>
      <path class="st12" d="M1591.8,955.1c0.2,0,0.3-0.1,0.3-0.2c0-0.1-0.1-0.2-0.3-0.2c-0.2,0-0.3,0.1-0.3,0.2
		C1591.5,955,1591.6,955.1,1591.8,955.1z"/>
      <path class="st11" d="M1575.6,992.6h-1.7v5.6h1.7V992.6z"/>
      <rect x="1573.9" y="1011.5" class="st11" width="1.6" height="2.3"/>
      <rect x="1583.4" y="1011.5" class="st11" width="1.6" height="2.3"/>
      <rect x="1578.8" y="1011.5" class="st11" width="1.3" height="2.3"/>
      <rect x="1588.4" y="1011.5" class="st11" width="1.3" height="2.3"/>
      <rect x="1597.9" y="1011.5" class="st11" width="1.3" height="2.3"/>
      <rect x="1593" y="1011.5" class="st11" width="1.6" height="2.3"/>
      <rect x="1607.5" y="1011.5" class="st11" width="1.3" height="2.3"/>
      <rect x="1602.5" y="1011.5" class="st11" width="1.6" height="2.3"/>
      <rect x="1573.9" y="1007.6" class="st11" width="30.3" height="3.9"/>
      <path class="st12" d="M1591.8,979.6l7.8,19.3H1584L1591.8,979.6z"/>
      <rect x="1574.3" y="998.3" class="st11" width="12.1" height="1.9"/>
      <rect x="1596.7" y="998.3" class="st11" width="15.2" height="1.9"/>
      <rect x="1591.3" y="979.2" class="st11" width="0.9" height="1.9"/>
      <rect x="1693.8" y="1032" class="st14" width="4" height="7.1"/>
      <rect x="1722" y="1032.5" class="st14" width="4" height="7.1"/>
      <rect x="1827.6" y="1062.6" class="st11" width="14.8" height="2.5"/>
      <rect x="1827.6" y="1082.2" class="st11" width="14.8" height="2.5"/>
      <rect x="1827.6" y="1101.5" class="st11" width="14.8" height="2.5"/>
      <rect x="1827.6" y="1121.1" class="st11" width="14.8" height="2.5"/>
      <rect x="1828.9" y="1054.2" class="st14" width="4.9" height="8.4"/>
      <rect x="1836.1" y="1054.2" class="st14" width="4.9" height="8.4"/>
      <rect x="1828.9" y="1073.9" class="st14" width="4.9" height="8.4"/>
      <rect x="1836.1" y="1073.9" class="st14" width="4.9" height="8.4"/>
      <rect x="1828.9" y="1093.1" class="st14" width="4.9" height="8.4"/>
      <rect x="1836.1" y="1093.1" class="st14" width="4.9" height="8.4"/>
      <rect x="1828.9" y="1112.8" class="st14" width="4.9" height="8.4"/>
      <rect x="1836.1" y="1112.8" class="st14" width="4.9" height="8.4"/>
      <path class="st11" d="M1816.3,1131.2h90.4c2,0,3.6,1.6,3.6,3.6l0,0c0,2-1.6,3.6-3.6,3.6h-90.4c-2,0-3.6-1.6-3.6-3.6l0,0
		C1812.8,1132.8,1814.4,1131.2,1816.3,1131.2z"/>
      <rect x="1812.8" y="1135.4" class="st13" width="97.5" height="32.2"/>
      <rect x="1857.1" y="1128.7" class="st11" width="5.4" height="2.5"/>
      <rect x="1845.4" y="1128.7" class="st11" width="5.4" height="2.5"/>
      <rect x="1869.2" y="1128.7" class="st11" width="5.4" height="2.5"/>
      <rect x="1828" y="1135.4" class="st11" width="0.9" height="32.2"/>
      <rect x="1826.2" y="1135.4" class="st11" width="0.9" height="32.2"/>
      <rect x="1850.8" y="1135.4" class="st11" width="0.9" height="32.2"/>
      <rect x="1815" y="1135.4" class="st11" width="0.4" height="5"/>
      <rect x="1817.7" y="1135.4" class="st11" width="0.4" height="5"/>
      <rect x="1820.4" y="1135.4" class="st11" width="0.4" height="5"/>
      <rect x="1823.1" y="1135.4" class="st11" width="0.4" height="5"/>
      <rect x="1831.6" y="1135.4" class="st11" width="0.4" height="5"/>
      <rect x="1834.3" y="1135.4" class="st11" width="0.4" height="5"/>
      <rect x="1836.9" y="1135.4" class="st11" width="0.4" height="5"/>
      <rect x="1839.6" y="1135.4" class="st11" width="0.4" height="5"/>
      <rect x="1842.3" y="1135.4" class="st11" width="0.4" height="5"/>
      <rect x="1845" y="1135.4" class="st11" width="0.4" height="5"/>
      <rect x="1847.7" y="1135.4" class="st11" width="0.4" height="5"/>
      <rect x="1854.4" y="1135.4" class="st11" width="0.4" height="5"/>
      <rect x="1857.1" y="1135.4" class="st11" width="0.4" height="5"/>
      <rect x="1859.8" y="1135.4" class="st11" width="0.4" height="5"/>
      <rect x="1862.5" y="1135.4" class="st11" width="0.4" height="5"/>
      <rect x="1865.1" y="1135.4" class="st11" width="0.4" height="5"/>
      <rect x="1867.8" y="1135.4" class="st11" width="0.4" height="5"/>
      <rect x="1870.5" y="1135.4" class="st11" width="0.4" height="5"/>
      <rect x="1873.2" y="1135.4" class="st11" width="0.4" height="5"/>
      <rect x="1875.9" y="1135.4" class="st11" width="0.4" height="5"/>
      <rect x="1882.1" y="1135.4" class="st11" width="0.4" height="5"/>
      <rect x="1884.8" y="1135.4" class="st11" width="0.4" height="5"/>
      <rect x="1887.5" y="1135.4" class="st11" width="0.4" height="5"/>
      <rect x="1890.2" y="1135.4" class="st11" width="0.4" height="5"/>
      <rect x="1892.9" y="1135.4" class="st11" width="0.4" height="5"/>
      <rect x="1895.5" y="1135.4" class="st11" width="0.4" height="5"/>
      <rect x="1898.2" y="1135.4" class="st11" width="0.4" height="5"/>
      <rect x="1905.8" y="1135.4" class="st11" width="0.4" height="5"/>
      <rect x="1908.1" y="1135.4" class="st11" width="0.4" height="5"/>
      <rect x="1878.6" y="1135.4" class="st11" width="0.9" height="32.2"/>
      <rect x="1902.7" y="1134.9" class="st11" width="0.9" height="32.2"/>
      <rect x="1900.9" y="1135.4" class="st11" width="0.9" height="32.2"/>
      <rect x="1812.8" y="1146.2" class="st12" width="97.5" height="0.8"/>
      <rect x="1812.8" y="1140.4" class="st11" width="97.5" height="0.4"/>
      <rect x="1812.8" y="1154.2" class="st12" width="97.5" height="0.8"/>
      <rect x="1812.8" y="1162.1" class="st12" width="97.5" height="0.8"/>
      <rect x="1573.4" y="1018.7" class="st20" width="71.1" height="17.6"/>
      <path class="st20" d="M1611,968.1l25.6,56.2h-51.1L1611,968.1z"/>
      <path class="st11" d="M1611.9,963.7h-1.7v6.1h1.7V963.7z"/>
      <path class="st11" d="M1611,960.9l-0.9,2.8h1.8L1611,960.9z"/>
      <path class="st12" d="M1611,961.4c0.2,0,0.3-0.1,0.3-0.2s-0.1-0.2-0.3-0.2c-0.2,0-0.3,0.1-0.3,0.2S1610.9,961.4,1611,961.4z"/>
      <path class="st12" d="M1611.2,983.5l9.9,26.4h-19.8L1611.2,983.5z"/>
      <path class="st11" d="M1601.6,1003.8h-1.7v6.1h1.7V1003.8z"/>
      <path class="st11" d="M1600.7,1001.1l-0.9,2.8h1.8L1600.7,1001.1z"/>
      <path class="st12" d="M1600.7,1001.6c0.1,0,0.3-0.1,0.3-0.2s-0.1-0.2-0.3-0.2c-0.2,0-0.3,0.1-0.3,0.2S1600.6,1001.6,1600.7,1001.6z
		"/>
      <path class="st11" d="M1623,1003.8h-1.7v6.1h1.7V1003.8z"/>
      <path class="st11" d="M1622.2,1001.1l-0.9,2.8h1.8L1622.2,1001.1z"/>
      <path class="st12" d="M1622.2,1001.6c0.2,0,0.3-0.1,0.3-0.2s-0.1-0.2-0.3-0.2c-0.2,0-0.3,0.1-0.3,0.2S1622,1001.6,1622.2,1001.6z"/>
      <path class="st11" d="M1611.9,979.6h-1.7v6.1h1.7V979.6z"/>
      <path class="st11" d="M1611,976.8l-0.9,2.8h1.8L1611,976.8z"/>
      <path class="st12" d="M1611,977.3c0.2,0,0.3-0.1,0.3-0.2c0-0.1-0.1-0.2-0.3-0.2c-0.2,0-0.3,0.1-0.3,0.2
		C1610.7,977.2,1610.9,977.3,1611,977.3z"/>
      <rect x="1599.4" y="1009.9" class="st12" width="23.7" height="21.7"/>
      <rect x="1605.2" y="1017.8" class="st14" width="4.9" height="8.4"/>
      <rect x="1612.4" y="1017.8" class="st14" width="4.9" height="8.4"/>
      <rect x="1573.4" y="1018.7" class="st11" width="17" height="2.5"/>
      <rect x="1631.2" y="1018.7" class="st11" width="13.4" height="2.5"/>
      <rect x="1580.4" y="1036.2" class="st11" width="1.6" height="2.5"/>
      <rect x="1585.1" y="1036.2" class="st11" width="1.3" height="2.5"/>
      <rect x="1576" y="1036.2" class="st11" width="1.3" height="2.5"/>
      <rect x="1589.6" y="1036.2" class="st11" width="1.6" height="2.5"/>
      <rect x="1607.9" y="1036.2" class="st11" width="1.6" height="2.5"/>
      <rect x="1617.1" y="1036.2" class="st11" width="1.6" height="2.5"/>
      <rect x="1612.6" y="1036.2" class="st11" width="1.3" height="2.5"/>
      <rect x="1621.8" y="1036.2" class="st11" width="1.3" height="2.5"/>
      <rect x="1631" y="1036.2" class="st11" width="1.3" height="2.5"/>
      <rect x="1626.2" y="1036.2" class="st11" width="1.6" height="2.5"/>
      <rect x="1640.1" y="1036.2" class="st11" width="1.3" height="2.5"/>
      <rect x="1635.4" y="1036.2" class="st11" width="1.6" height="2.5"/>
      <rect x="1603.5" y="1036.2" class="st11" width="1.3" height="2.5"/>
      <rect x="1598.7" y="1036.2" class="st11" width="1.6" height="2.5"/>
      <rect x="1594.3" y="1036.2" class="st11" width="1.3" height="2.5"/>
      <rect x="1573.4" y="1032" class="st11" width="71.1" height="4.2"/>
      <path class="st23" d="M1429.6,1036.8l42.5-36.5l42.5,36.5H1429.6z"/>
      <rect x="1423.2" y="1039.2" class="st11" width="97.8" height="127.4"/>
      <rect x="1364.9" y="996.7" class="st16" width="58.3" height="169.9"/>
      <rect x="1373.4" y="959.3" class="st13" width="41.4" height="37.4"/>
      <rect x="1379" y="925.4" class="st13" width="31" height="37.4"/>
      <rect x="1384.6" y="895.6" class="st13" width="19.8" height="37.4"/>
      <rect x="1388.4" y="874.4" class="st13" width="12.2" height="37.4"/>
      <rect x="1521" y="996.7" class="st16" width="58.3" height="169.9"/>
      <ellipse class="st15" cx="1472.1" cy="984.8" rx="2.8" ry="12.7"/>
      <path class="st13" d="M1394.5,839.6l5.3,35.7h-10.6L1394.5,839.6z"/>
      <rect x="1529.5" y="959.3" class="st13" width="41.4" height="37.4"/>
      <rect x="1535.1" y="925.4" class="st13" width="31" height="37.4"/>
      <rect x="1540.8" y="895.6" class="st13" width="19.8" height="37.4"/>
      <rect x="1544.5" y="874.4" class="st13" width="12.2" height="37.4"/>
      <path class="st13" d="M1550.6,839.6l5.3,35.7h-10.6L1550.6,839.6z"/>
      <path class="st13" d="M1556.8,1118.2v-25.9c0-6.6-7.1-14.9-7.1-14.9s-7.1,8.2-7.1,14.9v25.9H1556.8z"/>
      <path class="st13" d="M1400.6,1118.2v-25.9c0-6.6-7.1-14.9-7.1-14.9s-7.1,8.2-7.1,14.9v25.9H1400.6z"/>
      <path class="st16" d="M1490,1105.1v-25.7c0-6.6-17.9-14.7-17.9-14.7s-17.9,8.2-17.9,14.7v25.7H1490z"/>
      <path class="st13" d="M1398.7,1042.6V1027c0-4-4.7-9-4.7-9s-4.7,5-4.7,9v15.7H1398.7z"/>
      <path class="st13" d="M1554.9,1042.7V1027c0-4-4.7-9-4.7-9s-4.7,5-4.7,9v15.7H1554.9z"/>
      <path class="st14" d="M1472.1,1166.3c-12.9,0-11.2,1.4-11.1-9.9c0-11.3,5.1-20.4,11.2-20.4c6.2,0,11.1,9.1,11.1,20.4
		C1483.2,1167.8,1484.9,1166.4,1472.1,1166.3z"/>
      <rect x="1460.9" y="1158.1" class="st14" width="22.5" height="8.8"/>
      <path class="st14" d="M1393.1,1166.4c-10.7,0-9.3,1.2-9.3-8.2c0-9.4,4.2-17,9.4-17c5.1,0,9.3,7.6,9.3,17
		C1402.4,1167.6,1403.8,1166.4,1393.1,1166.4z"/>
      <rect x="1383.7" y="1159.5" class="st14" width="18.8" height="7.3"/>
      <path class="st14" d="M1550.1,1166.4c-10.8,0-9.3,1.2-9.3-8.2c0-9.4,4.2-17,9.4-17c5.1,0,9.3,7.6,9.3,17
		C1559.5,1167.6,1560.9,1166.4,1550.1,1166.4z"/>
      <rect x="1540.8" y="1159.5" class="st14" width="18.8" height="7.3"/>
      <rect x="1543.6" y="1042.7" class="st11" width="13.2" height="2.6"/>
      <path class="st13" d="M1472,1117.7c-20.4,0-17.7,2.2-17.6-15.6c0.1-17.8,8-32.3,17.8-32.2c9.8,0,17.6,14.5,17.6,32.3
		C1489.7,1119.9,1492.4,1117.7,1472,1117.7z"/>
      <rect x="1454.3" y="1104.7" class="st13" width="35.7" height="13.9"/>
      <path class="st14" d="M1464.6,1118.3v-25.1c0-6.4-4.2-14.4-4.2-14.4s-4.2,8-4.2,14.4v25.1H1464.6z"/>
      <path class="st14" d="M1475.9,1118.3v-30.2c0-7.7-4.2-17.3-4.2-17.3s-4.2,9.6-4.2,17.3v30.2H1475.9z"/>
      <path class="st14" d="M1487.1,1118.3v-25.1c0-6.4-4.2-14.4-4.2-14.4s-4.2,8-4.2,14.4v25.1H1487.1z"/>
      <ellipse class="st21" cx="1394.5" cy="980.3" rx="13.6" ry="12.3"/>
      <ellipse class="st21" cx="1550.6" cy="980.2" rx="13.6" ry="12.3"/>
      <path class="st13" d="M1531.8,951.8h-2.2v7.7h2.2V951.8z"/>
      <path class="st13" d="M1530.7,948.3l-1.2,3.6h2.4L1530.7,948.3z"/>
      <path class="st13" d="M1530.7,948.9c0.2,0,0.4-0.1,0.4-0.3c0-0.2-0.2-0.3-0.4-0.3c-0.2,0-0.4,0.1-0.4,0.3
		C1530.3,948.8,1530.5,948.9,1530.7,948.9z"/>
      <path class="st13" d="M1414.2,951.8h-2.2v7.7h2.2V951.8z"/>
      <path class="st13" d="M1413.1,948.3l-1.2,3.6h2.4L1413.1,948.3z"/>
      <path class="st13" d="M1413.1,948.9c0.2,0,0.4-0.1,0.4-0.3c0-0.2-0.2-0.3-0.4-0.3c-0.2,0-0.4,0.1-0.4,0.3
		C1412.7,948.8,1412.9,948.9,1413.1,948.9z"/>
      <path class="st13" d="M1375.7,951.8h-2.2v7.7h2.2V951.8z"/>
      <path class="st13" d="M1374.5,948.3l-1.2,3.6h2.4L1374.5,948.3z"/>
      <path class="st13" d="M1374.5,948.9c0.2,0,0.4-0.1,0.4-0.3c0-0.2-0.2-0.3-0.4-0.3c-0.2,0-0.4,0.1-0.4,0.3
		C1374.2,948.8,1374.3,948.9,1374.5,948.9z"/>
      <path class="st13" d="M1570.3,951.8h-2.2v7.7h2.2V951.8z"/>
      <path class="st13" d="M1569.2,948.3l-1.2,3.6h2.4L1569.2,948.3z"/>
      <path class="st13" d="M1569.2,948.9c0.2,0,0.4-0.1,0.4-0.3c0-0.2-0.2-0.3-0.4-0.3c-0.2,0-0.4,0.1-0.4,0.3
		C1568.9,948.8,1569,948.9,1569.2,948.9z"/>
      <path class="st14" d="M1402.4,948.9c1.1,0,2-3.2,2-7.2c0-4-0.9-7.2-2-7.2c-1.1,0-2,3.2-2,7.2
		C1400.4,945.7,1401.3,948.9,1402.4,948.9z"/>
      <path class="st14" d="M1394.7,948.9c1.1,0,2-3.2,2-7.2c0-4-0.9-7.2-2-7.2c-1.1,0-2,3.2-2,7.2
		C1392.7,945.7,1393.6,948.9,1394.7,948.9z"/>
      <path class="st14" d="M1387.6,948.9c1.1,0,2-3.2,2-7.2c0-4-0.9-7.2-2-7.2c-1.1,0-2,3.2-2,7.2
		C1385.6,945.7,1386.5,948.9,1387.6,948.9z"/>
      <path class="st14" d="M1398.5,919c1.1,0,2-3.2,2-7.2c0-4-0.9-7.2-2-7.2c-1.1,0-2,3.2-2,7.2C1396.5,915.8,1397.4,919,1398.5,919z"/>
      <path class="st14" d="M1391.4,919c1.1,0,2-3.2,2-7.2c0-4-0.9-7.2-2-7.2c-1.1,0-2,3.2-2,7.2C1389.3,915.8,1390.2,919,1391.4,919z"/>
      <path class="st14" d="M1558.5,948.9c1.1,0,2-3.2,2-7.2c0-4-0.9-7.2-2-7.2c-1.1,0-2,3.2-2,7.2
		C1556.5,945.7,1557.4,948.9,1558.5,948.9z"/>
      <path class="st14" d="M1550.9,948.9c1.1,0,2-3.2,2-7.2c0-4-0.9-7.2-2-7.2c-1.1,0-2,3.2-2,7.2
		C1548.9,945.7,1549.8,948.9,1550.9,948.9z"/>
      <path class="st14" d="M1543.7,948.9c1.1,0,2-3.2,2-7.2c0-4-0.9-7.2-2-7.2c-1.1,0-2,3.2-2,7.2
		C1541.7,945.7,1542.6,948.9,1543.7,948.9z"/>
      <rect x="1529.5" y="959.1" class="st21" width="41.4" height="3.5"/>
      <path class="st16" d="M1535.1,924.8h31v3.5h-31V924.8z"/>
      <path class="st21" d="M1535.1,924.8h31v3.5h-31V924.8z"/>
      <rect x="1540.8" y="895.8" class="st21" width="19.8" height="3.5"/>
      <rect x="1544.5" y="874.7" class="st21" width="12.2" height="3.5"/>
      <rect x="1549.2" y="1076.1" class="st16" width="0.9" height="42.2"/>
      <rect x="1527.6" y="1094.5" class="st16" width="45.1" height="0.9"/>
      <rect x="1526.7" y="1107.7" class="st16" width="45.1" height="0.9"/>
      <rect x="1449.5" y="1113" class="st11" width="45.1" height="0.9"/>
      <rect x="1449.5" y="1106" class="st11" width="45.1" height="0.9"/>
      <rect x="1423.2" y="1039.2" class="st11" width="97.8" height="127.4"/>
      <rect x="1364.9" y="996.7" class="st16" width="58.3" height="169.9"/>
      <rect x="1373.4" y="959.3" class="st13" width="41.4" height="37.4"/>
      <rect x="1379" y="925.4" class="st13" width="31" height="37.4"/>
      <rect x="1384.6" y="895.6" class="st13" width="19.8" height="37.4"/>
      <rect x="1388.4" y="874.4" class="st13" width="12.2" height="37.4"/>
      <rect x="1521" y="996.7" class="st16" width="58.3" height="169.9"/>
      <ellipse class="st15" cx="1472.1" cy="984.8" rx="2.8" ry="12.7"/>
      <path class="st13" d="M1394.5,839.6l5.3,35.7h-10.6L1394.5,839.6z"/>
      <rect x="1529.5" y="959.3" class="st13" width="41.4" height="37.4"/>
      <rect x="1535.1" y="925.4" class="st13" width="31" height="37.4"/>
      <rect x="1540.8" y="895.6" class="st13" width="19.8" height="37.4"/>
      <rect x="1544.5" y="874.4" class="st13" width="12.2" height="37.4"/>
      <path class="st13" d="M1550.6,839.6l5.3,35.7h-10.6L1550.6,839.6z"/>
      <path class="st13" d="M1556.8,1118.2v-25.9c0-6.6-7.1-14.9-7.1-14.9s-7.1,8.2-7.1,14.9v25.9H1556.8z"/>
      <path class="st13" d="M1400.6,1118.2v-25.9c0-6.6-7.1-14.9-7.1-14.9s-7.1,8.2-7.1,14.9v25.9H1400.6z"/>
      <path class="st16" d="M1490,1105.1v-25.7c0-6.6-17.9-14.7-17.9-14.7s-17.9,8.2-17.9,14.7v25.7H1490z"/>
      <path class="st13" d="M1398.7,1042.6V1027c0-4-4.7-9-4.7-9s-4.7,5-4.7,9v15.7H1398.7z"/>
      <path class="st13" d="M1554.9,1042.7V1027c0-4-4.7-9-4.7-9s-4.7,5-4.7,9v15.7H1554.9z"/>
      <path class="st14" d="M1472.1,1166.3c-12.9,0-11.2,1.4-11.1-9.9c0-11.3,5.1-20.4,11.2-20.4c6.2,0,11.1,9.1,11.1,20.4
		C1483.2,1167.8,1484.9,1166.4,1472.1,1166.3z"/>
      <rect x="1460.9" y="1158.1" class="st14" width="22.5" height="8.8"/>
      <path class="st14" d="M1393.1,1166.4c-10.7,0-9.3,1.2-9.3-8.2c0-9.4,4.2-17,9.4-17c5.1,0,9.3,7.6,9.3,17
		C1402.4,1167.6,1403.8,1166.4,1393.1,1166.4z"/>
      <rect x="1383.7" y="1159.5" class="st14" width="18.8" height="7.3"/>
      <path class="st14" d="M1550.1,1166.4c-10.8,0-9.3,1.2-9.3-8.2c0-9.4,4.2-17,9.4-17c5.1,0,9.3,7.6,9.3,17
		C1559.5,1167.6,1560.9,1166.4,1550.1,1166.4z"/>
      <rect x="1540.8" y="1159.5" class="st14" width="18.8" height="7.3"/>
      <rect x="1543.6" y="1042.7" class="st11" width="13.2" height="2.6"/>
      <path class="st13" d="M1472,1117.7c-20.4,0-17.7,2.2-17.6-15.6c0.1-17.8,8-32.3,17.8-32.2c9.8,0,17.6,14.5,17.6,32.3
		C1489.7,1119.9,1492.4,1117.7,1472,1117.7z"/>
      <rect x="1454.3" y="1104.7" class="st13" width="35.7" height="13.9"/>
      <path class="st14" d="M1464.6,1118.3v-25.1c0-6.4-4.2-14.4-4.2-14.4s-4.2,8-4.2,14.4v25.1H1464.6z"/>
      <path class="st14" d="M1475.9,1118.3v-30.2c0-7.7-4.2-17.3-4.2-17.3s-4.2,9.6-4.2,17.3v30.2H1475.9z"/>
      <path class="st14" d="M1487.1,1118.3v-25.1c0-6.4-4.2-14.4-4.2-14.4s-4.2,8-4.2,14.4v25.1H1487.1z"/>
      <ellipse class="st21" cx="1394.5" cy="980.3" rx="13.6" ry="12.3"/>
      <ellipse class="st21" cx="1550.6" cy="980.2" rx="13.6" ry="12.3"/>
      <path class="st13" d="M1531.8,951.8h-2.2v7.7h2.2V951.8z"/>
      <path class="st13" d="M1530.7,948.3l-1.2,3.6h2.4L1530.7,948.3z"/>
      <path class="st13" d="M1530.7,948.9c0.2,0,0.4-0.1,0.4-0.3c0-0.2-0.2-0.3-0.4-0.3c-0.2,0-0.4,0.1-0.4,0.3
		C1530.3,948.8,1530.5,948.9,1530.7,948.9z"/>
      <path class="st13" d="M1414.2,951.8h-2.2v7.7h2.2V951.8z"/>
      <path class="st13" d="M1413.1,948.3l-1.2,3.6h2.4L1413.1,948.3z"/>
      <path class="st13" d="M1413.1,948.9c0.2,0,0.4-0.1,0.4-0.3c0-0.2-0.2-0.3-0.4-0.3c-0.2,0-0.4,0.1-0.4,0.3
		C1412.7,948.8,1412.9,948.9,1413.1,948.9z"/>
      <path class="st13" d="M1375.7,951.8h-2.2v7.7h2.2V951.8z"/>
      <path class="st13" d="M1374.5,948.3l-1.2,3.6h2.4L1374.5,948.3z"/>
      <path class="st13" d="M1374.5,948.9c0.2,0,0.4-0.1,0.4-0.3c0-0.2-0.2-0.3-0.4-0.3c-0.2,0-0.4,0.1-0.4,0.3
		C1374.2,948.8,1374.3,948.9,1374.5,948.9z"/>
      <path class="st13" d="M1570.3,951.8h-2.2v7.7h2.2V951.8z"/>
      <path class="st13" d="M1569.2,948.3l-1.2,3.6h2.4L1569.2,948.3z"/>
      <path class="st13" d="M1569.2,948.9c0.2,0,0.4-0.1,0.4-0.3c0-0.2-0.2-0.3-0.4-0.3c-0.2,0-0.4,0.1-0.4,0.3
		C1568.9,948.8,1569,948.9,1569.2,948.9z"/>
      <path class="st14" d="M1402.4,948.9c1.1,0,2-3.2,2-7.2c0-4-0.9-7.2-2-7.2c-1.1,0-2,3.2-2,7.2
		C1400.4,945.7,1401.3,948.9,1402.4,948.9z"/>
      <path class="st14" d="M1394.7,948.9c1.1,0,2-3.2,2-7.2c0-4-0.9-7.2-2-7.2c-1.1,0-2,3.2-2,7.2
		C1392.7,945.7,1393.6,948.9,1394.7,948.9z"/>
      <path class="st14" d="M1387.6,948.9c1.1,0,2-3.2,2-7.2c0-4-0.9-7.2-2-7.2c-1.1,0-2,3.2-2,7.2
		C1385.6,945.7,1386.5,948.9,1387.6,948.9z"/>
      <path class="st14" d="M1398.5,919c1.1,0,2-3.2,2-7.2c0-4-0.9-7.2-2-7.2c-1.1,0-2,3.2-2,7.2C1396.5,915.8,1397.4,919,1398.5,919z"/>
      <path class="st14" d="M1391.4,919c1.1,0,2-3.2,2-7.2c0-4-0.9-7.2-2-7.2c-1.1,0-2,3.2-2,7.2C1389.3,915.8,1390.2,919,1391.4,919z"/>
      <path class="st14" d="M1554.6,919c1.1,0,2-3.2,2-7.2c0-4-0.9-7.2-2-7.2c-1.1,0-2,3.2-2,7.2C1552.6,915.8,1553.5,919,1554.6,919z"/>
      <path class="st14" d="M1547.5,919c1.1,0,2-3.2,2-7.2c0-4-0.9-7.2-2-7.2c-1.1,0-2,3.2-2,7.2C1545.5,915.8,1546.4,919,1547.5,919z"/>
      <path class="st14" d="M1558.5,948.9c1.1,0,2-3.2,2-7.2c0-4-0.9-7.2-2-7.2c-1.1,0-2,3.2-2,7.2
		C1556.5,945.7,1557.4,948.9,1558.5,948.9z"/>
      <path class="st14" d="M1550.9,948.9c1.1,0,2-3.2,2-7.2c0-4-0.9-7.2-2-7.2c-1.1,0-2,3.2-2,7.2
		C1548.9,945.7,1549.8,948.9,1550.9,948.9z"/>
      <path class="st14" d="M1543.7,948.9c1.1,0,2-3.2,2-7.2c0-4-0.9-7.2-2-7.2c-1.1,0-2,3.2-2,7.2
		C1541.7,945.7,1542.6,948.9,1543.7,948.9z"/>
      <rect x="1529.5" y="959.1" class="st21" width="41.4" height="3.5"/>
      <path class="st16" d="M1535.1,924.8h31v3.5h-31V924.8z"/>
      <path class="st21" d="M1535.1,924.8h31v3.5h-31V924.8z"/>
      <rect x="1540.8" y="895.8" class="st21" width="19.8" height="3.5"/>
      <rect x="1544.5" y="874.7" class="st21" width="12.2" height="3.5"/>
      <rect x="1549.2" y="1076.1" class="st16" width="0.9" height="42.2"/>
      <rect x="1527.6" y="1094.5" class="st16" width="45.1" height="0.9"/>
      <rect x="1526.7" y="1107.7" class="st16" width="45.1" height="0.9"/>
      <rect x="1449.5" y="1113" class="st11" width="45.1" height="0.9"/>
      <rect x="1449.5" y="1106" class="st11" width="45.1" height="0.9"/>
      <rect x="1387.5" y="1042.7" class="st11" width="13.2" height="2.6"/>
      <rect x="1384.6" y="1118.3" class="st11" width="17.9" height="2.6"/>
      <rect x="1379.9" y="1138.5" class="st11" width="26.3" height="2.6"/>
      <rect x="1537" y="1138.5" class="st11" width="26.3" height="2.6"/>
      <rect x="1458.9" y="1132.4" class="st16" width="26.3" height="3.5"/>
      <rect x="1540.8" y="1118.3" class="st11" width="17.9" height="2.6"/>
      <rect x="1373.4" y="959.1" class="st21" width="41.4" height="3.5"/>
      <rect x="1364.9" y="996.1" class="st21" width="58.3" height="3.5"/>
      <rect x="1521" y="996.1" class="st21" width="58.3" height="3.5"/>
      <rect x="1379" y="925.7" class="st21" width="31" height="3.5"/>
      <rect x="1384.6" y="895.8" class="st21" width="19.8" height="3.5"/>
      <rect x="1388.4" y="874.7" class="st21" width="12.2" height="3.5"/>
      <rect x="1393.1" y="1076.1" class="st16" width="0.9" height="42.2"/>
      <rect x="1371.5" y="1094.5" class="st16" width="45.1" height="0.9"/>
      <rect x="1370.5" y="1107.7" class="st16" width="45.1" height="0.9"/>
      <rect x="1393.1" y="1076.1" class="st16" width="0.9" height="42.2"/>
      <rect x="1371.5" y="1094.5" class="st16" width="45.1" height="0.9"/>
      <rect x="1370.5" y="1107.7" class="st16" width="45.1" height="0.9"/>
      <ellipse class="st14" cx="1472.1" cy="1062.9" rx="1.9" ry="1.8"/>
      <rect x="1431.7" y="1034.8" class="st11" width="81.8" height="8.8"/>
   </g>
  </g>
</svg>
