<svg width="1920" height="1590" id="Layer_1" xmlns="http://www.w3.org/2000/svg" viewBox="0 -10 1920 840.24">
  <defs>
    <style>
      .cls-1{fill:#e9aeb1;}.cls-2{stroke:#9a191e;stroke-width:4px;}.cls-2,.cls-3{fill:#84010b;}.cls-4{fill:#640718;}.cls-5,.cls-6{fill:#dd484d;}.cls-7{fill:#c7353b;}.cls-8{fill:none;stroke:#c11f25;}.cls-9,.cls-10{fill:#c11f25;}.cls-9,.cls-11{stroke:#84010b;}.cls-12{fill:#f8cc8d;}.cls-13{fill:#c12127;}.cls-14{fill:#841618;}.cls-15{fill:#fad9d9;}.cls-16{fill:#d06a57;}.cls-17{fill:#f6bf6f;}.cls-18{fill:#eee4d4;}.cls-19,.cls-11{fill:#e08f92;}.cls-20,.cls-21{fill:#ea885e;}.cls-21{opacity:.25;}.cls-21,.cls-6{isolation:isolate;}.cls-6{opacity:.14;}.cls-22{fill:#9a191e;}.cls-23{fill:#931e22;}
    </style>
  </defs>
  <path class="cls-6" d="M739.76,360.99c34.03-107.73,142.54-178.09,257.7-153.47,106.12,22.67,176.56,108.42,176.3,209.43l-270.5,95.07-163.5-151.01v-.02Z"/>
  <path class="cls-21" d="M768.52,368.93l169.6,129.16,197.26-65.66v-16.11c.1-82.68-58-152.94-145.41-171.63-94.87-20.28-193.55,36.09-221.45,124.25Z"/>
  <path class="cls-17" d="M807.74,388.97c21.61-68.45,97.57-112.35,170.53-96.77,67.21,14.37,111.79,68.81,111.6,132.97l-151.72,44.35-130.4-80.58v.02Z"/>
  <path class="cls-12" d="M852.89,408.25c15.86-52.24,66.42-81.7,115.66-71.17,45.37,9.7,74.7,50.15,73.43,98.77l-105.04,39.49-84.06-67.07v-.02Z"/>
  <path class="cls-12" d="M1466,359.58c-46.67,34-60.67,76.67-60.67,76.67v167.33h514.67V314.91h-296c-26.67,0-111.33,10.67-158,44.67Z"/>
  <path class="cls-20" d="M487.33,274.91C299.14,228.54,0,209.58,0,209.58V509.58H977.33v-53.33s-293.06-132.81-490-181.33Z"/>
  <path class="cls-17" d="M1245.33,409.58c-218.67-3.33-372,98.67-372,98.67v190H1919.33v-104c-142-69.33-326.67-122-326.67-122,0,0-55.35-17.16-146-35.33-54.75-10.98-119-26.08-201.33-27.33Z"/>
  <path class="cls-16" d="M1092.67,606.24c-69.33-22.67-225.33-102-258.67-120.67-33.33-18.67-103.89-46.92-188.67-67.33-88-21.18-184.67-25.33-224-23.14-39.33,2.19-98,3.14-120,4.67-22,1.53-40.67,3.14-40.67,3.14,0,0-65.33,6.67-100,14.19-34.67,7.53-81.33,24.67-81.33,24.67L0,471.1v369.14H1918.67v-143.14s-66.67-24-128-32.67l-6.08-.86c-57.69-8.16-93.21-13.18-149.92-14.47-58.67-1.33-155.67-1.33-155.67-1.33,0,0-95.32,5.98-155.67-1.33-100.67-12.19-161.33-17.53-230.67-40.19Z"/>
  <path class="cls-4" d="M1845.56,362.95l1.89-38.09-11.77-18.95,11.77,14.13v-39.09l2.29,28.86,9.91-9.91-8.4,13.68,1.2,47.67-6.89,1.69Z"/>
  <path class="cls-5" d="M1771.95,471.55c6.52-8.15,10.43-18.5,10.43-29.76,0-26.25-21.19-47.53-47.33-47.53s-47.32,21.28-47.32,47.53c0,12.21,4.57,23.34,12.11,31.76-30.24,16.28-53.57,49.97-53.57,83.81,0,42.1,37.2,77.58,78.68,82.52l5.52-70.22-34.8-57.08,34.8,37.13,6.43-99.72,4.29,61.47,28.35-29.55-26.23,47.38,7.33,109.37c39.11-8.91,73.23-49.14,73.23-89.2v.02c-.01-32.22-22.2-63.59-51.91-77.92Z"/>
  <path class="cls-4" d="M1718.77,718.53l11.68-148.87-34.8-57.08,34.8,37.13,6.43-99.72,4.29,61.47,28.35-29.55-26.23,47.38,12.64,188.5-37.16,.74Z"/>
  <path class="cls-20" d="M1717.52,243.27s-10.04-1.81-19.67,20.09c0,0-10.49,23.36-5.13,39.4,0,0,6.48,14.25,21.12,15.61,0,0,15.91,1,23.57-9.32,0,0,9.33-11.39,4.01-29.17,0,0-8.88-36.78-23.91-36.61Z"/>
  <path class="cls-4" d="M1712.81,334.08l1.8-38.04-7.21-15.23,8.4,8.75v-26.17l2.71,15.94,6.29-7.51-5.69,12.63,1.48,49.62h-7.77Z"/>
  <path class="cls-13" d="M1584.47,466.77s-31.44,.74-38.16-27.6c0,0-2.31-32.34,10.43-71.62,0,0,16.53-77.49,29.03-85.06,0,0,14.27,2.36,29.76,91.02,0,0,13.36,46.26,7.37,68.4,0,0-5.6,23.26-38.43,24.88v-.02Z"/>
  <path class="cls-4" d="M1577.29,502.76l4.8-79.7-16.43-26.46,16.43,14.73,3.19-85.64,3.11,64.28,14.99-15.35-14.39,26.48,5.69,105.87-17.39-4.22Z"/>
  <path class="cls-20" d="M1355.99,360.35s-31.16-5.58-60.92,62.25c0,0-32.54,72.34-15.91,122.01,0,0,20.1,44.14,65.46,48.34,0,0,49.27,3.12,72.99-28.91,0,0,28.91-35.27,12.47-90.33,0,0-27.52-113.9-74.05-113.35h-.03Z"/>
  <path class="cls-4" d="M1341.29,649.84l7.12-132.96-25.75-46.4,25.75,30.19,4.76-81.04,3.16,49.94,21-24.02-19.41,38.52,10.11,165.77h-26.73Z"/>
  <path class="cls-17" d="M1271.04,384.49s-21.32,.52-25.89-19.09c0,0-1.56-22.36,7.08-49.5,0,0,11.22-53.55,19.67-58.8,0,0,9.67,1.65,20.19,62.92,0,0,9.07,31.99,5,47.29,0,0-3.81,16.06-26.06,17.18Z"/>
  <path class="cls-4" d="M1264.8,411.54l2.8-56.53-12.99-19.64,14.19,12.63,1.41-58.97,2.78,43.71,10.19-10.63-9.79,18.07,3.59,71.36h-12.18Z"/>
  <path class="cls-14" d="M1105.63,398.05s-17.32-3-33.88,33.44c0,0-18.09,38.83-8.85,65.5,0,0,11.17,23.71,36.42,25.95,0,0,27.4,1.67,40.6-15.52,0,0,16.08-18.92,6.94-48.5,0,0-15.31-61.16-41.2-60.87h-.02Z"/>
  <path class="cls-4" d="M1099.72,545.23l2.99-62.11-12.73-28.72,13.02,16.06,2.7-41.14,1.58,24.6,10.74-11.01-10.07,18.97,4.07,87.73-12.3-4.39Z"/>
  <path class="cls-17" d="M756.61,406.74c7.13-8.9,11.39-20.21,11.39-32.52,0-28.7-23.17-51.96-51.75-51.96s-51.75,23.26-51.75,51.96c0,13.33,5,25.49,13.22,34.69-33.06,17.8-58.57,54.64-58.57,91.63,0,47.46,43.25,87.23,90.26,90.64l4.16-73.46-37.16-63.25,37.64,48.62,5.17-130.83,3.3,98.43,31.99-35.15-29.79,51,4.25,103.74c44.52-7.67,84.35-53.11,84.35-98.38,0-35.21-24.24-69.5-56.71-85.17Z"/>
  <path class="cls-4" d="M730.98,639.56l-24-5.65,6.58-116.19-37.16-63.25,37.64,48.62,5.17-130.83,3.3,98.43,31.99-35.15-29.79,51,6.27,153.01Z"/>
  <path class="cls-5" d="M660.42,254.71s-10.15-1.76-19.84,19.57c0,0-10.6,22.74-5.19,38.33,0,0,6.53,13.87,21.3,15.18,0,0,16.03,.98,23.76-9.08,0,0,9.4-11.08,4.04-28.39,0,0-8.95-35.77-24.09-35.61h.02Z"/>
  <path class="cls-4" d="M656.97,340.83l1.75-36.35-7.44-16.8,7.61,9.39,1.58-24.07,.93,14.4,6.27-6.43-5.89,11.08,2.37,51.34-7.18-2.55Z"/>
  <path class="cls-14" d="M491.13,87.69s-35.96-6.22-70.32,69.38c0,0-37.57,80.61-18.38,135.95,0,0,23.19,49.19,75.56,53.87,0,0,56.87,3.48,84.25-32.2,0,0,33.35-39.3,14.38-100.65,0,0-31.75-126.92-85.49-126.32v-.02Z"/>
  <path class="cls-4" d="M474.57,399.24l9.57-139.81-29.96-52.13,29.96,35.59,5.6-92.64,3.4,57.06,23.97-26.98-22.78,44.5,9.59,174.42h-29.36Z"/>
  <path class="cls-4" d="M329.72,267.37l4.69-61.63-14.67-27.19,14.67,19.9,2.01-51.55,2.37,35.87,11.73-11.89-11.13,19.61,4.69,76.89h-14.36Z"/>
  <path class="cls-20" d="M285.19,207.67s-18.5,.45-22.47-16.68c0,0-1.34-19.54,6.15-43.31,0,0,9.74-46.83,17.09-51.43,0,0,8.4,1.43,17.54,55.03,0,0,7.87,27.98,4.35,41.35,0,0-3.3,14.06-22.61,15.04h-.05Z"/>
  <path class="cls-4" d="M279.21,240.11l4.04-57.85-12.63-21.57,12.63,14.73,2.42-53.67,1.39,38.94,10.12-11.15-9.62,18.4,4.04,72.17h-12.39Z"/>
  <path class="cls-13" d="M153.18,492.91s-82.67,2-100.4-73.84c0,0-6.03-86.47,27.44-191.58,0,0,43.5-207.21,76.3-227.5,0,0,37.49,6.32,78.31,243.47,0,0,35.15,123.72,19.41,182.93,0,0-14.72,62.21-101.07,66.52Z"/>
  <path class="cls-4" d="M179.12,545.47h-37.16l9-169.6-53.93-80.61,54.53,51.12,9.59-233.98,5.98,174.44,41.94-40.4-39.55,69.26,9.6,229.76Z"/>
  <path class="cls-3" d="M1265.45,694.73h-2.39v9.9h2.39v-9.9Z"/>
  <path class="cls-3" d="M1264.25,690.27l-1.26,4.64h2.53l-1.26-4.64Z"/>
  <path class="cls-10" d="M1264.25,691.01c.22,0,.4-.17,.4-.37s-.18-.37-.4-.37-.4,.17-.4,.37,.18,.37,.4,.37Z"/>
  <path class="cls-3" d="M1290.08,634.58h-1.8v7.46h1.8v-7.46Z"/>
  <path class="cls-3" d="M1289.18,631.22l-.95,3.5h1.9l-.95-3.5Z"/>
  <path class="cls-10" d="M1289.18,631.78c.17,0,.3-.13,.3-.28s-.13-.28-.3-.28-.3,.13-.3,.28,.13,.28,.3,.28Z"/>
  <path class="cls-3" d="M1339.32,634.58h-1.8v7.46h1.8v-7.46Z"/>
  <path class="cls-3" d="M1338.41,631.22l-.95,3.5h1.89l-.95-3.5Z"/>
  <path class="cls-10" d="M1338.41,631.78c.16,0,.29-.13,.29-.28s-.13-.28-.29-.28c-.17,0-.31,.13-.31,.28s.13,.28,.31,.28Z"/>
  <path class="cls-3" d="M1360.12,694.68h-2.39v9.9h2.39v-9.9Z"/>
  <path class="cls-3" d="M1358.93,690.23l-1.27,4.64h2.53l-1.27-4.64Z"/>
  <path class="cls-10" d="M1358.92,690.97c.23,0,.4-.17,.4-.37s-.17-.37-.4-.37c-.21,0-.4,.17-.4,.37s.19,.37,.4,.37Z"/>
  <path class="cls-19" d="M1288.84,665.44h49.29l10.71,40.13h-70.7l10.71-40.13Z"/>
  <path class="cls-19" d="M1314.61,579.29h-1.14v17h1.14v-17Z"/>
  <rect class="cls-19" x="1212.49" y="805.89" width="199.46" height="33.05"/>
  <rect class="cls-19" x="1241.52" y="744.52" width="140.13" height="40.13"/>
  <path class="cls-3" d="M1262.74,704.39h97.69l21.23,40.13h-140.13l21.22-40.13Z"/>
  <path class="cls-3" d="M1242.69,784.64h139.05l30.2,21.24h-199.46l30.2-21.24Z"/>
  <rect class="cls-3" x="1286.97" y="641.84" width="53.02" height="23.6"/>
  <path class="cls-3" d="M1314.11,589.91l19.13,53.99h-38.27l19.13-53.99Z"/>
  <path class="cls-18" d="M1268.03,777.52c7.23,0,6.27,.98,6.27-6.91s-2.81-14.29-6.27-14.29-6.27,6.4-6.27,14.29-.96,6.91,6.27,6.91Z"/>
  <path class="cls-18" d="M1312.22,777.52c7.23,0,6.27,.98,6.27-6.91s-2.81-14.29-6.27-14.29-6.27,6.4-6.27,14.29-.97,6.91,6.27,6.91Z"/>
  <path class="cls-18" d="M1355.15,777.52c7.24,0,6.27,.98,6.27-6.91s-2.8-14.29-6.27-14.29-6.27,6.4-6.27,14.29-.96,6.91,6.27,6.91Z"/>
  <path class="cls-3" d="M1214.94,796.12h-2.39v9.77h2.39v-9.77Z"/>
  <path class="cls-3" d="M1213.75,791.72l-1.26,4.58h2.53l-1.26-4.58Z"/>
  <path class="cls-10" d="M1213.74,792.46c.22,0,.4-.16,.4-.37s-.18-.37-.4-.37-.4,.16-.4,.37,.18,.37,.4,.37Z"/>
  <path class="cls-3" d="M1411.88,796.12h-2.39v9.77h2.39v-9.77Z"/>
  <path class="cls-3" d="M1410.69,791.72l-1.27,4.58h2.53l-1.27-4.58Z"/>
  <path class="cls-10" d="M1410.68,792.46c.23,0,.4-.16,.4-.37s-.17-.37-.4-.37c-.21,0-.4,.16-.4,.37s.19,.37,.4,.37Z"/>
  <path class="cls-18" d="M1236.84,833.4c6.72-.01,5.83,.93,5.81-6.64-.02-7.57-2.64-13.7-5.86-13.69-3.22,0-5.81,6.15-5.8,13.71,.02,7.57-.88,6.63,5.84,6.62Z"/>
  <path class="cls-18" d="M1349.97,833.19c7.68-.01,6.67,.93,6.64-6.64-.01-7.57-3-13.7-6.68-13.69s-6.65,6.15-6.63,13.72c.01,7.57-1.01,6.63,6.67,6.62Z"/>
  <path class="cls-18" d="M1387.69,833.11c6.72-.01,5.83,.93,5.81-6.64-.03-7.57-2.64-13.7-5.87-13.69-3.21,0-5.81,6.15-5.79,13.71,.01,7.57-.88,6.63,5.84,6.62Z"/>
  <path class="cls-18" d="M1312.26,833.26c6.72-.01,5.83,.93,5.81-6.64-.02-7.57-2.64-13.7-5.86-13.69-3.22,0-5.81,6.15-5.8,13.71,.02,7.57-.88,6.63,5.84,6.62Z"/>
  <path class="cls-18" d="M1274.55,833.33c7.68-.01,6.66,.93,6.65-6.64-.02-7.57-3.01-13.7-6.69-13.69s-6.65,6.15-6.63,13.72c.02,7.57-1.01,6.63,6.67,6.62Z"/>
  <rect class="cls-19" x="50.07" y="683.84" width="161.56" height="34.32"/>
  <rect class="cls-19" x="50.07" y="683.84" width="161.56" height="34.32"/>
  <path class="cls-19" d="M76.54,596.14h109.97l25.12,53.38H50.07l26.47-53.38Z"/>
  <rect class="cls-19" x="50.07" y="649.52" width="161.56" height="34.32"/>
  <rect class="cls-19" x="90.8" y="565.63" width="80.1" height="30.51"/>
  <path class="cls-19" d="M117.27,512.24h27.83l25.79,53.39H90.8l26.47-53.39Z"/>
  <rect class="cls-10" x="154.61" y="711.8" width="32.58" height="127.11"/>
  <rect class="cls-10" x="74.51" y="711.8" width="32.58" height="127.11"/>
  <rect class="cls-15" x="71.79" y="715.61" width="38.01" height="5.08"/>
  <rect class="cls-15" x="9.33" y="715.61" width="38.01" height="5.08"/>
  <rect class="cls-15" x="151.89" y="715.61" width="38.01" height="5.08"/>
  <rect class="cls-15" x="214.34" y="715.61" width="38.01" height="5.08"/>
  <path class="cls-10" d="M130.84,683.84l26.45,32.41h-52.91l26.45-32.41Z"/>
  <path class="cls-10" d="M91.47,596.14l26.45,53.38h-52.91l26.45-53.38Z"/>
  <path class="cls-3" d="M130.84,649.52l-26.45-53.39h52.91l-26.46,53.39Z"/>
  <path class="cls-10" d="M170.22,596.14l26.45,53.38h-52.91l26.45-53.38Z"/>
  <path class="cls-10" d="M130.84,512.24l26.45,53.39h-52.91l26.45-53.39Z"/>
  <path class="cls-10" d="M210.95,683.84l26.45,32.41h-52.91l26.45-32.41Z"/>
  <path class="cls-10" d="M50.74,683.84l26.45,32.41H24.29l26.45-32.41Z"/>
  <path class="cls-3" d="M90.79,711.8l-25.87-27.65h51.73l-25.87,27.65Z"/>
  <path class="cls-3" d="M170.89,711.8l-25.87-27.65h51.73l-25.87,27.65Z"/>
  <rect class="cls-19" x="104.37" y="711.8" width="52.95" height="127.11"/>
  <rect class="cls-19" x="184.47" y="711.8" width="52.95" height="127.11"/>
  <rect class="cls-19" x="24.28" y="711.8" width="52.95" height="127.11"/>
  <rect class="cls-19" x="71.78" y="711.8" width="5.43" height="127.11"/>
  <rect class="cls-19" x="88.08" y="711.8" width="5.43" height="127.11"/>
  <rect class="cls-19" x="168.18" y="711.8" width="5.43" height="127.11"/>
  <rect class="cls-19" x="104.37" y="711.8" width="5.43" height="127.11"/>
  <rect class="cls-19" x="9.33" y="711.8" width="5.43" height="127.11"/>
  <rect class="cls-19" x="18.84" y="711.8" width="5.43" height="127.11"/>
  <path class="cls-19" d="M237.41,711.8h5.43v127.11h-5.43v-127.11Z"/>
  <rect class="cls-19" x="246.92" y="711.8" width="5.43" height="127.11"/>
  <rect class="cls-19" x="184.47" y="711.8" width="5.43" height="127.11"/>
  <rect class="cls-19" x="151.89" y="711.8" width="5.43" height="127.11"/>
  <rect class="cls-10" x="24.28" y="727.06" width="47.52" height="1.27"/>
  <rect class="cls-10" x="50.07" y="659.69" width="161.56" height="1.27"/>
  <rect class="cls-10" x="90.8" y="575.8" width="80.1" height="1.27"/>
  <rect class="cls-10" x="90.8" y="592.32" width="80.1" height="1.27"/>
  <rect class="cls-10" x="50.07" y="677.48" width="161.56" height="1.27"/>
  <rect class="cls-10" x="31.06" y="711.8" width="1.36" height="127.11"/>
  <rect class="cls-10" x="63.64" y="711.8" width="1.36" height="127.11"/>
  <rect class="cls-10" x="47.35" y="711.8" width="1.36" height="127.11"/>
  <rect class="cls-10" x="65" y="649.52" width="1.36" height="34.32"/>
  <rect class="cls-10" x="97.59" y="649.52" width="1.36" height="34.32"/>
  <rect class="cls-10" x="81.29" y="649.52" width="1.36" height="34.32"/>
  <rect class="cls-10" x="105.73" y="565.63" width="1.36" height="30.51"/>
  <rect class="cls-10" x="138.31" y="565.63" width="1.36" height="30.51"/>
  <rect class="cls-10" x="154.61" y="565.63" width="1.36" height="30.51"/>
  <rect class="cls-10" x="122.02" y="565.63" width="1.36" height="30.51"/>
  <rect class="cls-10" x="113.87" y="649.52" width="1.36" height="34.32"/>
  <rect class="cls-10" x="146.46" y="649.52" width="1.36" height="34.32"/>
  <rect class="cls-10" x="130.17" y="649.52" width="1.36" height="34.32"/>
  <rect class="cls-10" x="162.75" y="649.52" width="1.36" height="34.32"/>
  <rect class="cls-10" x="195.33" y="649.52" width="1.36" height="34.32"/>
  <rect class="cls-10" x="179.03" y="649.52" width="1.36" height="34.32"/>
  <rect class="cls-10" x="196.69" y="711.8" width="1.36" height="127.11"/>
  <rect class="cls-10" x="229.27" y="711.8" width="1.36" height="127.11"/>
  <rect class="cls-10" x="212.98" y="711.8" width="1.36" height="127.11"/>
  <rect class="cls-10" x="122.02" y="711.8" width="1.36" height="127.11"/>
  <rect class="cls-10" x="138.31" y="711.8" width="1.36" height="127.11"/>
  <rect class="cls-10" x="24.28" y="810.94" width="47.52" height="1.27"/>
  <rect class="cls-10" x="24.28" y="782.98" width="47.52" height="1.27"/>
  <rect class="cls-10" x="24.28" y="755.02" width="47.52" height="1.27"/>
  <rect class="cls-10" x="109.8" y="727.06" width="42.09" height="1.27"/>
  <rect class="cls-10" x="109.8" y="810.94" width="42.09" height="1.27"/>
  <rect class="cls-10" x="109.8" y="782.98" width="42.09" height="1.27"/>
  <rect class="cls-10" x="109.8" y="755.02" width="42.09" height="1.27"/>
  <rect class="cls-10" x="189.9" y="727.06" width="47.52" height="1.27"/>
  <rect class="cls-10" x="189.9" y="810.94" width="47.52" height="1.27"/>
  <rect class="cls-10" x="189.9" y="782.98" width="47.52" height="1.27"/>
  <rect class="cls-10" x="189.9" y="755.02" width="47.52" height="1.27"/>
  <path class="cls-22" d="M252.24,713.62h336.65v28.91H252.24v-28.91Z"/>
  <path class="cls-10" d="M264.29,733h318.56v104.53H264.29v-104.53Z"/>
  <rect class="cls-10" x="308.51" y="818.89" width="231.13" height="20.02"/>
  <rect class="cls-10" x="308.51" y="830.01" width="231.13" height="3.71"/>
  <rect class="cls-10" x="308.51" y="832.55" width="231.13" height="3.71"/>
  <rect class="cls-3" x="308.51" y="835.52" width="234.14" height="3.39"/>
  <rect class="cls-3" x="340.67" y="818.57" width="171.84" height="3.39"/>
  <path class="cls-19" d="M539.97,744.76h105.18v94.15h-105.18v-94.15Z"/>
  <path class="cls-19" d="M204,744.76h105.18v94.15h-105.18v-94.15Z"/>
  <path class="cls-3" d="M361.91,677.08h125.32l67.48,57.09H294.43l67.48-57.09Z"/>
  <path class="cls-22" d="M302.48,738.08h250.22v9.32h-250.22v-9.32Z"/>
  <path class="cls-22" d="M341.67,762.65h170.83v-4.24h-170.83v4.24Z"/>
  <path class="cls-22" d="M309.01,830.01h230.63l-27.13-8.9h-170.83l-32.66,8.9Z"/>
  <path class="cls-3" d="M592.39,698.05l52.76,46.71h-105.51l52.76-46.71Z"/>
  <rect class="cls-19" x="420.05" y="758.1" width="14.07" height="33.36"/>
  <rect class="cls-19" x="367.8" y="758.1" width="14.07" height="33.36"/>
  <rect class="cls-19" x="446.18" y="758.1" width="14.07" height="33.36"/>
  <rect class="cls-19" x="498.43" y="758.1" width="14.07" height="33.36"/>
  <rect class="cls-19" x="341.67" y="758.1" width="14.07" height="33.36"/>
  <rect class="cls-19" x="472.31" y="758.1" width="14.07" height="33.36"/>
  <rect class="cls-19" x="393.92" y="758.1" width="14.07" height="33.36"/>
  <rect class="cls-19" x="420.05" y="800.36" width="14.07" height="16.31"/>
  <rect class="cls-19" x="367.8" y="800.36" width="14.07" height="16.31"/>
  <rect class="cls-19" x="446.18" y="800.36" width="14.07" height="16.31"/>
  <rect class="cls-19" x="498.43" y="800.36" width="14.07" height="16.31"/>
  <rect class="cls-19" x="341.67" y="800.36" width="14.07" height="16.31"/>
  <rect class="cls-19" x="472.31" y="800.36" width="14.07" height="16.31"/>
  <rect class="cls-19" x="393.92" y="800.36" width="14.07" height="16.31"/>
  <rect class="cls-10" x="245.19" y="760.32" width="21.1" height="78.58"/>
  <rect class="cls-18" x="250.22" y="764.03" width="11.05" height="19.28"/>
  <rect class="cls-18" x="250.22" y="788.49" width="11.05" height="19.28"/>
  <rect class="cls-10" x="581.85" y="760.32" width="21.1" height="78.58"/>
  <rect class="cls-3" x="586.87" y="830.01" width="5.02" height="3.71"/>
  <rect class="cls-3" x="592.91" y="830.01" width="5.02" height="3.71"/>
  <rect class="cls-18" x="586.87" y="764.03" width="11.05" height="19.28"/>
  <rect class="cls-18" x="586.87" y="788.49" width="11.05" height="19.28"/>
  <rect class="cls-10" x="538.64" y="744.76" width="106.52" height="2.97"/>
  <path class="cls-3" d="M256.76,698.26l52.76,46.6h-105.52l52.76-46.6Z"/>
  <path class="cls-10" d="M332.63,823.66h187.56l10.41,3.39h-210.72l12.75-3.39Z"/>
  <rect class="cls-10" x="204" y="744.75" width="106.52" height="2.97"/>
  <rect class="cls-3" x="282.38" y="735.12" width="281.37" height="2.97"/>
  <path class="cls-3" d="M257.71,692.63h-2.39v7.73h2.39v-7.73Z"/>
  <path class="cls-3" d="M256.52,689.15l-1.27,3.62h2.53l-1.27-3.62Z"/>
  <path class="cls-10" d="M256.52,689.73c.22,0,.4-.13,.4-.29s-.18-.29-.4-.29-.4,.13-.4,.29,.18,.29,.4,.29Z"/>
  <path class="cls-3" d="M593.35,692.63h-2.39v7.73h2.39v-7.73Z"/>
  <path class="cls-3" d="M592.16,689.15l-1.27,3.62h2.53l-1.27-3.62Z"/>
  <path class="cls-10" d="M592.16,689.73c.22,0,.4-.13,.4-.29s-.18-.29-.4-.29-.4,.13-.4,.29,.18,.29,.4,.29Z"/>
  <path class="cls-3" d="M363.22,670.39h-2.39v7.72h2.39v-7.72Z"/>
  <path class="cls-3" d="M362.03,666.91l-1.27,3.62h2.53l-1.27-3.62Z"/>
  <path class="cls-10" d="M362.03,667.49c.22,0,.4-.13,.4-.29s-.18-.29-.4-.29-.4,.13-.4,.29,.18,.29,.4,.29Z"/>
  <path class="cls-3" d="M486.83,670.39h-2.39v7.72h2.39v-7.72Z"/>
  <path class="cls-3" d="M485.63,666.91l-1.27,3.62h2.53l-1.27-3.62Z"/>
  <path class="cls-10" d="M485.63,667.49c.22,0,.4-.13,.4-.29s-.18-.29-.4-.29-.4,.13-.4,.29,.18,.29,.4,.29Z"/>
  <rect class="cls-18" x="370.81" y="802.47" width="3.01" height="6.78"/>
  <rect class="cls-18" x="375.84" y="802.47" width="3.01" height="6.78"/>
  <rect class="cls-18" x="396.94" y="802.47" width="3.01" height="6.78"/>
  <rect class="cls-18" x="401.97" y="802.47" width="3.01" height="6.78"/>
  <rect class="cls-18" x="423.07" y="802.47" width="3.01" height="6.78"/>
  <rect class="cls-18" x="428.1" y="802.47" width="3.01" height="6.78"/>
  <rect class="cls-18" x="449.2" y="802.47" width="3.01" height="6.78"/>
  <rect class="cls-18" x="454.22" y="802.47" width="3.01" height="6.78"/>
  <rect class="cls-18" x="475.33" y="802.47" width="3.01" height="6.78"/>
  <rect class="cls-18" x="480.35" y="802.47" width="3.01" height="6.78"/>
  <rect class="cls-18" x="501.45" y="802.47" width="3.01" height="6.78"/>
  <rect class="cls-18" x="506.47" y="802.47" width="3.01" height="6.78"/>
  <ellipse class="cls-10" cx="255.75" cy="758.42" rx="2.51" ry="3.39"/>
  <ellipse class="cls-10" cx="255.75" cy="758.42" rx="2.51" ry="3.39"/>
  <ellipse class="cls-10" cx="592.4" cy="758.42" rx="2.51" ry="3.39"/>
  <rect class="cls-18" x="344.69" y="802.47" width="3.01" height="6.78"/>
  <rect class="cls-18" x="349.71" y="802.47" width="3.01" height="6.78"/>
  <ellipse class="cls-15" cx="297.96" cy="809.68" rx="2.51" ry="7.2"/>
  <rect class="cls-3" x="289.42" y="816.03" width="17.08" height="22.03"/>
  <ellipse class="cls-15" cx="551.19" cy="810.52" rx="2.51" ry="7.2"/>
  <rect class="cls-3" x="542.65" y="816.88" width="17.08" height="22.03"/>
  <rect class="cls-3" x="250.22" y="830.43" width="5.02" height="4.24"/>
  <rect class="cls-3" x="256.25" y="830.43" width="5.02" height="4.24"/>
  <rect class="cls-3" x="309.33" y="829.58" width="5.33" height="9.33"/>
  <rect class="cls-3" x="534.67" y="829.58" width="5.33" height="9.33"/>
  <rect class="cls-7" x="622.94" y="757.91" width="629.65" height="80.96"/>
  <rect class="cls-3" x="622.94" y="758.04" width="629.65" height="22.04"/>
  <rect class="cls-10" x="622.94" y="751.68" width="60.29" height="87.18"/>
  <path class="cls-3" d="M638.57,716.39h29.03l15.63,35.29h-60.29l15.63-35.29Z"/>
  <rect class="cls-10" x="1053.87" y="751.68" width="60.29" height="87.18"/>
  <path class="cls-3" d="M1069.5,716.39h29.03l15.63,35.29h-60.29l15.63-35.29Z"/>
  <rect class="cls-10" x="761.38" y="751.68" width="60.29" height="87.18"/>
  <path class="cls-3" d="M777.01,716.39h29.03l15.63,35.29h-60.29l15.63-35.29Z"/>
  <rect class="cls-10" x="1192.31" y="751.68" width="60.29" height="87.18"/>
  <path class="cls-3" d="M1207.94,716.39h29.03l15.63,35.29h-60.29l15.63-35.29Z"/>
  <path class="cls-10" d="M938.56,379.41h-1.16v17.03h1.16v-17.03Z"/>
  <path class="cls-10" d="M975.97,596.38h-73.77v242.48h73.77v-242.48Z"/>
  <path class="cls-9" d="M900.98,588.4v-67.84h73.99v67.84h-73.99Z"/>
  <path class="cls-3" d="M886.41,589.07h103.13l-5.79,8.52h-91.54l-5.79-8.52Z"/>
  <path class="cls-10" d="M897.42,530.54c.96,0,1.74-.71,1.74-1.6s-.78-1.6-1.74-1.6-1.74,.72-1.74,1.6,.78,1.6,1.74,1.6Z"/>
  <path class="cls-10" d="M978.54,530.54c.96,0,1.74-.71,1.74-1.6s-.78-1.6-1.74-1.6-1.74,.72-1.74,1.6,.78,1.6,1.74,1.6Z"/>
  <path class="cls-3" d="M937.98,396.44l37.63,123.72h-75.26l37.63-123.72Z"/>
  <path class="cls-3" d="M942.03,392.18h-8.11v17.03h8.11v-17.03Z"/>
  <path class="cls-10" d="M983.75,546.5h-10.43v42.57h10.43v-42.57Z"/>
  <path class="cls-10" d="M902.64,546.5h-10.43v42.57h10.43v-42.57Z"/>
  <path class="cls-18" d="M916.53,642.28c1.28,0,2.32-8.1,2.32-18.09s-1.04-18.09-2.32-18.09-2.32,8.1-2.32,18.09,1.04,18.09,2.32,18.09Z"/>
  <path class="cls-18" d="M930.45,642.28c1.28,0,2.32-8.1,2.32-18.09s-1.04-18.09-2.32-18.09-2.32,8.1-2.32,18.09,1.04,18.09,2.32,18.09Z"/>
  <path class="cls-18" d="M958.25,642.28c1.28,0,2.32-8.1,2.32-18.09s-1.04-18.09-2.32-18.09-2.32,8.1-2.32,18.09,1.04,18.09,2.32,18.09Z"/>
  <path class="cls-18" d="M944.35,642.28c1.28,0,2.32-8.1,2.32-18.09s-1.04-18.09-2.32-18.09-2.32,8.1-2.32,18.09,1.04,18.09,2.32,18.09Z"/>
  <path class="cls-10" d="M961.73,365.58h-24.33v13.84h24.33v-13.84Z"/>
  <path class="cls-3" d="M897.42,527.34l-5.52,19.96h11.04l-5.52-19.96Z"/>
  <path class="cls-3" d="M978.53,527.34l-5.52,19.96h11.04l-5.52-19.96Z"/>
  <path class="cls-19" d="M938.55,583.75c17.28,0,31.29-12.87,31.29-28.73s-14.01-28.74-31.29-28.74-31.29,12.87-31.29,28.74,14.01,28.73,31.29,28.73Z"/>
  <path class="cls-18" d="M938.55,579.49c14.72,0,26.65-10.96,26.65-24.48s-11.93-24.48-26.65-24.48-26.65,10.96-26.65,24.48,11.93,24.48,26.65,24.48Z"/>
  <path class="cls-10" d="M937.98,558.21c1.6,0,2.9-1.19,2.9-2.66s-1.3-2.66-2.9-2.66-2.9,1.19-2.9,2.66,1.3,2.66,2.9,2.66Z"/>
  <path class="cls-8" d="M937.98,555.55l-12.17,7.98"/>
  <path class="cls-8" d="M937.98,555.55l14.9,11.95"/>
  <path class="cls-19" d="M954.89,838.87v-29.57c0-7.56-17.12-16.97-17.12-16.97,0,0-17.13,9.41-17.13,16.97v29.57h34.25Z"/>
  <path class="cls-3" d="M641.31,706.28h-2.49v10.28h2.49v-10.28Z"/>
  <path class="cls-3" d="M640.07,701.66l-1.32,4.82h2.63l-1.32-4.82Z"/>
  <path class="cls-10" d="M640.06,702.43c.23,0,.41-.17,.41-.39s-.19-.39-.41-.39-.42,.17-.42,.39,.19,.39,.42,.39Z"/>
  <path class="cls-3" d="M667.65,706.33h-2.49v10.28h2.49v-10.28Z"/>
  <path class="cls-3" d="M666.41,701.71l-1.32,4.82h2.63l-1.32-4.82Z"/>
  <path class="cls-10" d="M666.41,702.48c.23,0,.41-.17,.41-.39s-.19-.39-.41-.39-.41,.17-.41,.39,.19,.39,.41,.39Z"/>
  <path class="cls-3" d="M1073.37,706.33h-2.49v10.28h2.49v-10.28Z"/>
  <path class="cls-3" d="M1072.13,701.71l-1.32,4.82h2.63l-1.32-4.82Z"/>
  <path class="cls-10" d="M1072.12,702.48c.23,0,.42-.17,.42-.39s-.19-.39-.42-.39-.41,.17-.41,.39,.19,.39,.41,.39Z"/>
  <path class="cls-3" d="M1097.07,706.33h-2.49v10.28h2.49v-10.28Z"/>
  <path class="cls-3" d="M1095.83,701.71l-1.32,4.82h2.63l-1.32-4.82Z"/>
  <path class="cls-10" d="M1095.83,702.48c.23,0,.41-.17,.41-.39s-.19-.39-.41-.39-.42,.17-.42,.39,.19,.39,.42,.39Z"/>
  <path class="cls-3" d="M1210.37,706.33h-2.49v10.28h2.49v-10.28Z"/>
  <path class="cls-3" d="M1209.13,701.71l-1.32,4.82h2.63l-1.32-4.82Z"/>
  <path class="cls-10" d="M1209.12,702.48c.23,0,.42-.17,.42-.39s-.19-.39-.42-.39-.41,.17-.41,.39,.19,.39,.41,.39Z"/>
  <path class="cls-3" d="M1236.71,706.33h-2.49v10.28h2.49v-10.28Z"/>
  <path class="cls-3" d="M1235.47,701.71l-1.32,4.82h2.63l-1.32-4.82Z"/>
  <path class="cls-10" d="M1235.47,702.48c.23,0,.41-.17,.41-.39s-.19-.39-.41-.39-.41,.17-.41,.39,.19,.39,.41,.39Z"/>
  <path class="cls-3" d="M780.94,706.33h-2.49v10.28h2.49v-10.28Z"/>
  <path class="cls-3" d="M779.7,701.71l-1.32,4.82h2.63l-1.32-4.82Z"/>
  <path class="cls-10" d="M779.69,702.48c.23,0,.41-.17,.41-.39s-.19-.39-.41-.39-.41,.17-.41,.39,.19,.39,.41,.39Z"/>
  <path class="cls-3" d="M804.65,706.28h-2.49v10.28h2.49v-10.28Z"/>
  <path class="cls-3" d="M803.41,701.66l-1.32,4.82h2.63l-1.32-4.82Z"/>
  <path class="cls-10" d="M803.41,702.43c.23,0,.41-.17,.41-.39s-.19-.39-.41-.39-.41,.17-.41,.39,.19,.39,.41,.39Z"/>
  <path class="cls-19" d="M658.78,780.93c1.15,0,2.09-3.48,2.09-7.77s-.93-7.77-2.09-7.77-2.09,3.48-2.09,7.77,.93,7.77,2.09,7.77Z"/>
  <path class="cls-19" d="M650.88,780.93c1.15,0,2.09-3.48,2.09-7.77s-.93-7.77-2.09-7.77-2.09,3.48-2.09,7.77,.93,7.77,2.09,7.77Z"/>
  <path class="cls-19" d="M643.47,780.93c1.15,0,2.09-3.48,2.09-7.77s-.94-7.77-2.09-7.77-2.09,3.48-2.09,7.77,.94,7.77,2.09,7.77Z"/>
  <path class="cls-19" d="M798.42,780.93c1.15,0,2.09-3.48,2.09-7.77s-.94-7.77-2.09-7.77-2.09,3.48-2.09,7.77,.94,7.77,2.09,7.77Z"/>
  <path class="cls-19" d="M790.52,780.93c1.15,0,2.09-3.48,2.09-7.77s-.94-7.77-2.09-7.77-2.09,3.48-2.09,7.77,.94,7.77,2.09,7.77Z"/>
  <path class="cls-19" d="M783.11,780.93c1.15,0,2.09-3.48,2.09-7.77s-.93-7.77-2.09-7.77-2.09,3.48-2.09,7.77,.93,7.77,2.09,7.77Z"/>
  <path class="cls-19" d="M1090.84,780.93c1.15,0,2.09-3.48,2.09-7.77s-.93-7.77-2.09-7.77-2.09,3.48-2.09,7.77,.93,7.77,2.09,7.77Z"/>
  <path class="cls-19" d="M1082.94,780.93c1.15,0,2.09-3.48,2.09-7.77s-.93-7.77-2.09-7.77-2.09,3.48-2.09,7.77,.93,7.77,2.09,7.77Z"/>
  <path class="cls-19" d="M1075.53,780.93c1.15,0,2.09-3.48,2.09-7.77s-.94-7.77-2.09-7.77-2.09,3.48-2.09,7.77,.94,7.77,2.09,7.77Z"/>
  <path class="cls-19" d="M1230.48,780.93c1.15,0,2.09-3.48,2.09-7.77s-.94-7.77-2.09-7.77-2.09,3.48-2.09,7.77,.94,7.77,2.09,7.77Z"/>
  <path class="cls-19" d="M1222.57,780.93c1.15,0,2.09-3.48,2.09-7.77s-.94-7.77-2.09-7.77-2.09,3.48-2.09,7.77,.94,7.77,2.09,7.77Z"/>
  <path class="cls-19" d="M1215.16,780.93c1.15,0,2.09-3.48,2.09-7.77s-.93-7.77-2.09-7.77-2.09,3.48-2.09,7.77,.93,7.77,2.09,7.77Z"/>
  <path class="cls-18" d="M948.93,838.87v-19.78c0-5.06-11.16-11.35-11.16-11.35,0,0-11.16,6.29-11.16,11.35v19.78h22.33Z"/>
  <path class="cls-18" d="M643.14,824.61c-5.03,0-4.36,.69-4.35-4.94,.01-5.63,1.97-10.19,4.38-10.19,2.41,0,4.35,4.57,4.34,10.2s.66,4.93-4.37,4.93Z"/>
  <rect class="cls-18" x="638.76" y="820.49" width="8.8" height="4.41"/>
  <path class="cls-18" d="M658.95,824.61c-5.03,0-4.36,.69-4.35-4.94,.01-5.63,1.97-10.19,4.38-10.19,2.41,0,4.35,4.57,4.34,10.2-.01,5.63,.66,4.93-4.37,4.93Z"/>
  <rect class="cls-18" x="654.57" y="820.49" width="8.8" height="4.41"/>
  <path class="cls-18" d="M643.14,824.61c-5.03,0-4.36,.69-4.35-4.94,.01-5.63,1.97-10.19,4.38-10.19,2.41,0,4.35,4.57,4.34,10.2s.66,4.93-4.37,4.93Z"/>
  <rect class="cls-18" x="638.76" y="820.49" width="8.8" height="4.41"/>
  <path class="cls-18" d="M658.95,824.61c-5.03,0-4.36,.69-4.35-4.94,.01-5.63,1.97-10.19,4.38-10.19,2.41,0,4.35,4.57,4.34,10.2-.01,5.63,.66,4.93-4.37,4.93Z"/>
  <rect class="cls-18" x="654.57" y="820.49" width="8.8" height="4.41"/>
  <path class="cls-18" d="M782.76,824.61c-5.03,0-4.36,.69-4.35-4.94,.01-5.63,1.97-10.19,4.38-10.19,2.41,0,4.35,4.57,4.34,10.2-.01,5.63,.66,4.93-4.37,4.93Z"/>
  <rect class="cls-18" x="778.39" y="820.49" width="8.8" height="4.41"/>
  <path class="cls-18" d="M798.57,824.61c-5.03,0-4.36,.69-4.35-4.94,.01-5.63,1.97-10.19,4.38-10.19,2.41,0,4.35,4.57,4.34,10.2-.01,5.63,.66,4.93-4.37,4.93Z"/>
  <rect class="cls-18" x="794.19" y="820.49" width="8.8" height="4.41"/>
  <path class="cls-18" d="M1075.21,824.61c-5.03,0-4.36,.69-4.35-4.94,.01-5.63,1.97-10.19,4.38-10.19,2.41,0,4.35,4.57,4.34,10.2-.01,5.63,.66,4.93-4.37,4.93Z"/>
  <rect class="cls-18" x="1070.83" y="820.49" width="8.8" height="4.41"/>
  <path class="cls-18" d="M1091.02,824.61c-5.03,0-4.36,.69-4.35-4.94,.01-5.63,1.97-10.19,4.38-10.19,2.41,0,4.35,4.57,4.34,10.2-.01,5.63,.66,4.93-4.37,4.93Z"/>
  <rect class="cls-18" x="1086.64" y="820.49" width="8.8" height="4.41"/>
  <path class="cls-18" d="M1214.83,824.61c-5.03,0-4.36,.69-4.35-4.94,.01-5.63,1.97-10.19,4.38-10.19,2.41,0,4.35,4.57,4.34,10.2-.01,5.63,.66,4.93-4.37,4.93Z"/>
  <rect class="cls-18" x="1210.45" y="820.49" width="8.8" height="4.41"/>
  <path class="cls-18" d="M1230.63,824.61c-5.03,0-4.36,.69-4.35-4.94,.01-5.63,1.97-10.19,4.38-10.19,2.41,0,4.35,4.57,4.34,10.2-.01,5.63,.66,4.93-4.37,4.93Z"/>
  <rect class="cls-18" x="1226.26" y="820.49" width="8.8" height="4.41"/>
  <path class="cls-18" d="M697.83,822.43c-4.31,0-3.73,.59-3.72-4.23,.01-4.82,1.69-8.73,3.75-8.72,2.06,0,3.72,3.91,3.71,8.74-.01,4.82,.56,4.22-3.74,4.22Z"/>
  <rect class="cls-18" x="694.08" y="818.91" width="7.53" height="3.77"/>
  <path class="cls-18" d="M711.36,822.43c-4.31,0-3.73,.59-3.72-4.23,0-4.82,1.69-8.73,3.75-8.72,2.06,0,3.72,3.91,3.71,8.74-.01,4.82,.57,4.22-3.74,4.22Z"/>
  <rect class="cls-18" x="707.61" y="818.91" width="7.53" height="3.77"/>
  <path class="cls-18" d="M729.44,822.43c-4.31,0-3.73,.59-3.72-4.23,.01-4.82,1.69-8.73,3.75-8.72s3.72,3.91,3.71,8.74c0,4.82,.57,4.22-3.74,4.22Z"/>
  <rect class="cls-18" x="725.7" y="818.91" width="7.53" height="3.77"/>
  <path class="cls-18" d="M742.98,822.43c-4.31,0-3.73,.59-3.72-4.23,.01-4.82,1.69-8.73,3.75-8.72,2.06,0,3.72,3.91,3.71,8.74-.01,4.82,.56,4.22-3.74,4.22Z"/>
  <rect class="cls-18" x="739.23" y="818.91" width="7.53" height="3.77"/>
  <path class="cls-18" d="M840.09,822.43c-4.31,0-3.73,.59-3.72-4.23,.01-4.82,1.69-8.73,3.75-8.72,2.06,0,3.72,3.91,3.71,8.74-.01,4.82,.56,4.22-3.74,4.22Z"/>
  <rect class="cls-18" x="836.34" y="818.91" width="7.53" height="3.77"/>
  <path class="cls-18" d="M853.63,822.43c-4.31,0-3.73,.59-3.72-4.23,.01-4.82,1.69-8.73,3.75-8.72s3.72,3.91,3.71,8.74c-.01,4.82,.57,4.22-3.74,4.22Z"/>
  <rect class="cls-18" x="849.88" y="818.91" width="7.53" height="3.77"/>
  <path class="cls-18" d="M871.71,822.43c-4.31,0-3.73,.59-3.72-4.23,.01-4.82,1.69-8.73,3.75-8.72,2.06,0,3.72,3.91,3.71,8.74-.01,4.82,.56,4.22-3.74,4.22Z"/>
  <rect class="cls-18" x="867.96" y="818.91" width="7.53" height="3.77"/>
  <path class="cls-18" d="M885.25,822.43c-4.31,0-3.73,.59-3.72-4.23,.01-4.82,1.69-8.73,3.75-8.72,2.06,0,3.72,3.91,3.71,8.74-.01,4.82,.57,4.22-3.74,4.22Z"/>
  <rect class="cls-18" x="881.5" y="818.91" width="7.53" height="3.77"/>
  <path class="cls-18" d="M992.9,822.44c-4.31,0-3.73,.59-3.72-4.23,.01-4.82,1.69-8.73,3.75-8.72,2.06,0,3.72,3.91,3.71,8.74-.01,4.82,.57,4.23-3.74,4.22Z"/>
  <rect class="cls-18" x="989.15" y="818.91" width="7.53" height="3.77"/>
  <path class="cls-18" d="M1006.44,822.44c-4.31,0-3.73,.59-3.72-4.23,.01-4.82,1.69-8.73,3.75-8.72,2.06,0,3.72,3.91,3.71,8.74-.01,4.82,.56,4.23-3.74,4.22Z"/>
  <rect class="cls-18" x="1002.69" y="818.91" width="7.53" height="3.77"/>
  <path class="cls-18" d="M1024.52,822.44c-4.31,0-3.73,.59-3.72-4.23,.01-4.82,1.69-8.73,3.75-8.72,2.06,0,3.72,3.91,3.71,8.74-.01,4.82,.57,4.23-3.74,4.22Z"/>
  <rect class="cls-18" x="1020.77" y="818.91" width="7.53" height="3.77"/>
  <path class="cls-18" d="M1038.05,822.44c-4.31,0-3.73,.59-3.72-4.23,.01-4.82,1.69-8.73,3.75-8.72,2.06,0,3.72,3.91,3.71,8.74,0,4.82,.57,4.23-3.74,4.22Z"/>
  <rect class="cls-18" x="1034.31" y="818.91" width="7.53" height="3.77"/>
  <path class="cls-18" d="M1132.53,822.44c-4.31,0-3.73,.59-3.72-4.23,0-4.82,1.69-8.73,3.75-8.72,2.06,0,3.72,3.91,3.71,8.74-.01,4.82,.57,4.22-3.74,4.22Z"/>
  <rect class="cls-18" x="1128.78" y="818.91" width="7.53" height="3.77"/>
  <path class="cls-18" d="M1146.06,822.44c-4.31,0-3.73,.59-3.72-4.23,.01-4.82,1.69-8.73,3.75-8.72,2.06,0,3.72,3.91,3.71,8.74-.01,4.82,.57,4.22-3.74,4.22Z"/>
  <rect class="cls-18" x="1142.31" y="818.91" width="7.53" height="3.77"/>
  <path class="cls-18" d="M1164.13,822.44c-4.31,0-3.73,.59-3.72-4.23,.01-4.82,1.69-8.73,3.75-8.72,2.06,0,3.72,3.91,3.71,8.74-.01,4.82,.57,4.22-3.74,4.22Z"/>
  <rect class="cls-18" x="1160.38" y="818.91" width="7.53" height="3.77"/>
  <path class="cls-18" d="M1177.67,822.44c-4.31,0-3.73,.59-3.72-4.23,.01-4.82,1.69-8.73,3.75-8.72,2.06,0,3.72,3.91,3.71,8.74,0,4.82,.57,4.22-3.74,4.22Z"/>
  <rect class="cls-18" x="1173.92" y="818.91" width="7.53" height="3.77"/>
  <path class="cls-22" d="M927.44,744.17c7.73-.05,6.71,3.94,6.69-28.25-.02-32.19-3.03-58.27-6.74-58.25-3.7,.03-6.69,26.15-6.67,58.34,.02,32.19-1.01,28.21,6.72,28.16Z"/>
  <rect class="cls-22" x="920.64" y="720.6" width="13.53" height="25.19"/>
  <path class="cls-22" d="M951.16,744.17c7.73-.05,6.71,3.94,6.69-28.25-.02-32.19-3.03-58.27-6.74-58.25-3.7,.03-6.69,26.15-6.67,58.34,.02,32.19-1.01,28.21,6.72,28.16Z"/>
  <rect class="cls-22" x="944.36" y="720.6" width="13.53" height="25.19"/>
  <rect class="cls-22" x="622.94" y="750.69" width="7.9" height="88.18"/>
  <rect class="cls-22" x="675.64" y="750.69" width="7.9" height="88.18"/>
  <rect class="cls-22" x="759.93" y="750.69" width="7.9" height="88.18"/>
  <rect class="cls-22" x="815.26" y="750.69" width="7.9" height="88.18"/>
  <rect class="cls-22" x="1107.7" y="750.69" width="7.9" height="88.18"/>
  <rect class="cls-22" x="1191.99" y="750.69" width="7.9" height="88.18"/>
  <rect class="cls-22" x="1244.69" y="750.69" width="7.9" height="88.18"/>
  <rect class="cls-22" x="1052.37" y="750.69" width="7.9" height="88.18"/>
  <path class="cls-3" d="M1879.67,679.2l25.76,31.68h-51.53l25.77-31.68Z"/>
  <rect class="cls-3" x="1628.01" y="683.79" width="138.24" height="24.68"/>
  <rect class="cls-10" x="1731.81" y="708.47" width="132.43" height="131.33"/>
  <rect class="cls-22" x="1812.79" y="669.57" width="55.48" height="170.23"/>
  <rect class="cls-19" x="1858.43" y="726.46" width="4.92" height="8.36"/>
  <rect class="cls-19" x="1858.43" y="746.11" width="4.92" height="8.36"/>
  <rect class="cls-19" x="1858.43" y="765.36" width="4.92" height="8.36"/>
  <rect class="cls-19" x="1858.43" y="785.01" width="4.92" height="8.36"/>
  <path class="cls-19" d="M1834.91,708.13c-9.45-.01-8.19,.84-8.17-6.03,.03-6.87,3.72-12.44,8.24-12.43,4.52,0,8.17,5.58,8.15,12.45-.03,6.87,1.24,6.02-8.21,6.01Z"/>
  <rect class="cls-19" x="1826.68" y="703.09" width="16.53" height="5.38"/>
  <rect class="cls-3" x="1824.43" y="688.4" width="20.13" height="1.67"/>
  <rect class="cls-23" x="1868.27" y="708.47" width="37.58" height="131.33"/>
  <rect class="cls-3" x="1868.27" y="707.22" width="40.26" height="10.87"/>
  <path class="cls-3" d="M1880.75,676.3h-1.69v5.64h1.69v-5.64Z"/>
  <path class="cls-3" d="M1879.91,673.76l-.89,2.64h1.79l-.89-2.64Z"/>
  <path class="cls-10" d="M1879.89,674.18c.16,0,.29-.09,.29-.21s-.13-.21-.29-.21c-.15,0-.28,.09-.28,.21s.13,.21,.28,.21Z"/>
  <rect class="cls-3" x="1900.93" y="705.96" width="7.61" height="13.8"/>
  <rect class="cls-3" x="1872.73" y="734.82" width="14.76" height="2.51"/>
  <rect class="cls-3" x="1872.73" y="754.48" width="14.76" height="2.51"/>
  <rect class="cls-3" x="1872.73" y="773.72" width="14.76" height="2.51"/>
  <rect class="cls-3" x="1872.73" y="793.38" width="14.76" height="2.51"/>
  <rect class="cls-18" x="1874.08" y="726.46" width="4.92" height="8.36"/>
  <rect class="cls-18" x="1881.23" y="726.46" width="4.92" height="8.36"/>
  <rect class="cls-18" x="1874.08" y="746.11" width="4.92" height="8.36"/>
  <rect class="cls-18" x="1881.23" y="746.11" width="4.92" height="8.36"/>
  <rect class="cls-18" x="1874.08" y="765.35" width="4.92" height="8.36"/>
  <rect class="cls-18" x="1881.23" y="765.35" width="4.92" height="8.36"/>
  <rect class="cls-18" x="1874.08" y="785.01" width="4.92" height="8.36"/>
  <rect class="cls-18" x="1881.23" y="785.01" width="4.92" height="8.36"/>
  <rect class="cls-19" x="1894.65" y="726.46" width="4.92" height="8.36"/>
  <rect class="cls-19" x="1894.65" y="746.11" width="4.92" height="8.36"/>
  <rect class="cls-19" x="1894.65" y="765.36" width="4.92" height="8.36"/>
  <rect class="cls-19" x="1894.65" y="785.01" width="4.92" height="8.36"/>
  <rect class="cls-23" x="1807.87" y="719.35" width="46.08" height="120.46"/>
  <rect class="cls-3" x="1812.79" y="708.47" width="46.08" height="10.87"/>
  <rect class="cls-22" x="1602.96" y="708.47" width="174.03" height="131.33"/>
  <rect class="cls-10" x="1577.01" y="708.47" width="67.56" height="131.33"/>
  <rect class="cls-18" x="1662.91" y="730.22" width="7.61" height="15.48"/>
  <rect class="cls-18" x="1662.91" y="776.65" width="7.61" height="15.48"/>
  <rect class="cls-18" x="1662.91" y="753.64" width="7.61" height="15.48"/>
  <rect class="cls-18" x="1720.17" y="730.22" width="7.61" height="15.48"/>
  <rect class="cls-18" x="1720.17" y="776.64" width="7.61" height="15.48"/>
  <rect class="cls-18" x="1720.17" y="753.64" width="7.61" height="15.48"/>
  <rect class="cls-18" x="1691.53" y="730.22" width="7.61" height="15.48"/>
  <rect class="cls-18" x="1691.53" y="776.65" width="7.61" height="15.48"/>
  <rect class="cls-18" x="1691.53" y="753.64" width="7.61" height="15.48"/>
  <rect class="cls-23" x="1605.2" y="708.47" width="12.08" height="97.45"/>
  <rect class="cls-1" x="1617.28" y="708.47" width="5.37" height="97.45"/>
  <rect class="cls-1" x="1599.84" y="708.47" width="5.37" height="97.45"/>
  <rect class="cls-18" x="1607.44" y="730.22" width="7.61" height="15.48"/>
  <rect class="cls-18" x="1607.44" y="776.64" width="7.61" height="15.48"/>
  <rect class="cls-18" x="1607.44" y="753.64" width="7.61" height="15.48"/>
  <rect class="cls-19" x="1585.96" y="730.22" width="7.61" height="15.48"/>
  <rect class="cls-19" x="1585.96" y="776.64" width="7.61" height="15.48"/>
  <rect class="cls-19" x="1585.96" y="753.64" width="7.61" height="15.48"/>
  <rect class="cls-19" x="1628.92" y="730.22" width="7.61" height="15.48"/>
  <rect class="cls-19" x="1628.92" y="776.65" width="7.61" height="15.48"/>
  <rect class="cls-19" x="1628.92" y="753.64" width="7.61" height="15.48"/>
  <path class="cls-22" d="M1666.72,688.4l9.88,26.35h-19.76l9.88-26.35Z"/>
  <path class="cls-22" d="M1695.8,688.4l9.88,26.35h-19.76l9.88-26.35Z"/>
  <path class="cls-22" d="M1723.99,688.4l9.88,26.35h-19.76l9.88-26.35Z"/>
  <rect class="cls-3" x="1605.2" y="708.47" width="2.24" height="97.45"/>
  <rect class="cls-3" x="1615.05" y="708.47" width="2.24" height="97.45"/>
  <rect class="cls-10" x="1745.23" y="708.47" width="67.56" height="131.33"/>
  <rect class="cls-23" x="1773.41" y="708.47" width="12.08" height="97.45"/>
  <rect class="cls-1" x="1785.49" y="708.47" width="5.37" height="97.45"/>
  <rect class="cls-1" x="1768.04" y="708.47" width="5.37" height="97.45"/>
  <rect class="cls-18" x="1775.65" y="730.22" width="7.61" height="15.48"/>
  <rect class="cls-18" x="1775.65" y="776.64" width="7.61" height="15.48"/>
  <rect class="cls-18" x="1775.65" y="753.64" width="7.61" height="15.48"/>
  <rect class="cls-3" x="1773.41" y="708.47" width="2.24" height="97.45"/>
  <rect class="cls-3" x="1783.25" y="708.47" width="2.24" height="97.45"/>
  <rect class="cls-23" x="1745.23" y="805.92" width="1.79" height="33.88"/>
  <path class="cls-23" d="M1611.01,640.3l25.57,56.15h-51.15l25.57-56.15Z"/>
  <path class="cls-10" d="M1611.24,655.77l9.88,26.35h-19.76l9.88-26.35Z"/>
  <path class="cls-3" d="M1601.57,676.07h-1.68v6.06h1.68v-6.06Z"/>
  <path class="cls-3" d="M1600.73,673.34l-.89,2.84h1.79l-.89-2.84Z"/>
  <path class="cls-10" d="M1600.73,673.79c.15,0,.28-.1,.28-.23s-.13-.23-.28-.23c-.16,0-.28,.1-.28,.23s.12,.23,.28,.23Z"/>
  <path class="cls-3" d="M1623.04,676.07h-1.69v6.06h1.69v-6.06Z"/>
  <path class="cls-3" d="M1622.2,673.34l-.89,2.84h1.79l-.89-2.84Z"/>
  <path class="cls-10" d="M1622.2,673.79c.16,0,.28-.1,.28-.23s-.12-.23-.28-.23-.28,.1-.28,.23,.12,.23,.28,.23Z"/>
  <path class="cls-3" d="M1611.85,651.81h-1.69v6.06h1.69v-6.06Z"/>
  <path class="cls-3" d="M1611.01,649.08l-.89,2.84h1.79l-.89-2.84Z"/>
  <path class="cls-10" d="M1611.01,649.54c.16,0,.28-.1,.28-.23s-.12-.23-.28-.23-.28,.1-.28,.23,.12,.23,.28,.23Z"/>
  <rect class="cls-10" x="1599.4" y="682.13" width="23.71" height="21.75"/>
  <rect class="cls-18" x="1605.2" y="690.07" width="4.92" height="8.36"/>
  <rect class="cls-18" x="1612.36" y="690.07" width="4.92" height="8.36"/>
  <rect class="cls-3" x="1573.44" y="703.87" width="71.13" height="4.6"/>
  <rect class="cls-3" x="1573.44" y="690.91" width="13.42" height="2.51"/>
  <rect class="cls-3" x="1631.16" y="690.91" width="13.42" height="2.51"/>
  <rect class="cls-3" x="1656.65" y="705.96" width="5.37" height="2.51"/>
  <rect class="cls-23" x="1649.04" y="803.41" width="5.37" height="2.51"/>
  <rect class="cls-23" x="1678.12" y="803.41" width="5.37" height="2.51"/>
  <rect class="cls-23" x="1707.21" y="803.41" width="5.37" height="2.51"/>
  <rect class="cls-23" x="1735.39" y="803.41" width="5.37" height="2.51"/>
  <rect class="cls-3" x="1671.41" y="705.96" width="5.37" height="2.51"/>
  <rect class="cls-3" x="1685.72" y="705.96" width="5.37" height="2.51"/>
  <rect class="cls-3" x="1700.49" y="705.96" width="5.37" height="2.51"/>
  <rect class="cls-3" x="1713.47" y="705.96" width="5.37" height="2.51"/>
  <rect class="cls-3" x="1728.24" y="705.96" width="5.37" height="2.51"/>
  <rect class="cls-3" x="1599.39" y="682.12" width="23.71" height="2.51"/>
  <rect class="cls-23" x="1743.89" y="690.91" width="70.24" height="17.57"/>
  <path class="cls-23" d="M1779.24,640.29l25.57,56.15h-51.15l25.57-56.15Z"/>
  <path class="cls-10" d="M1779.45,655.77l9.88,26.35h-19.76l9.88-26.35Z"/>
  <path class="cls-3" d="M1769.79,676.06h-1.69v6.06h1.69v-6.06Z"/>
  <path class="cls-3" d="M1768.95,673.34l-.89,2.84h1.79l-.89-2.84Z"/>
  <path class="cls-10" d="M1768.95,673.79c.15,0,.28-.1,.28-.23s-.13-.23-.28-.23c-.16,0-.28,.1-.28,.23s.12,.23,.28,.23Z"/>
  <path class="cls-3" d="M1791.27,676.06h-1.69v6.06h1.69v-6.06Z"/>
  <path class="cls-3" d="M1790.43,673.34l-.89,2.84h1.79l-.89-2.84Z"/>
  <path class="cls-10" d="M1790.41,673.79c.16,0,.29-.1,.29-.23s-.13-.23-.29-.23c-.15,0-.28,.1-.28,.23s.13,.23,.28,.23Z"/>
  <path class="cls-3" d="M1780.08,651.8h-1.69v6.06h1.69v-6.06Z"/>
  <path class="cls-3" d="M1779.24,649.08l-.89,2.84h1.79l-.89-2.84Z"/>
  <path class="cls-10" d="M1779.24,649.53c.16,0,.28-.1,.28-.23s-.12-.23-.28-.23-.28,.1-.28,.23,.12,.23,.28,.23Z"/>
  <path class="cls-3" d="M1780.08,636.75h-1.69v6.06h1.69v-6.06Z"/>
  <path class="cls-3" d="M1779.24,634.02l-.89,2.84h1.79l-.89-2.84Z"/>
  <path class="cls-10" d="M1779.24,634.48c.16,0,.28-.1,.28-.23s-.12-.23-.28-.23-.28,.1-.28,.23,.12,.23,.28,.23Z"/>
  <rect class="cls-10" x="1767.6" y="682.12" width="23.71" height="21.75"/>
  <rect class="cls-18" x="1773.43" y="690.07" width="4.92" height="8.36"/>
  <rect class="cls-18" x="1780.57" y="690.07" width="4.92" height="8.36"/>
  <rect class="cls-3" x="1743.89" y="690.91" width="14.76" height="2.51"/>
  <rect class="cls-3" x="1799.36" y="690.91" width="14.76" height="2.51"/>
  <rect class="cls-3" x="1767.6" y="682.12" width="23.71" height="2.51"/>
  <rect class="cls-3" x="1644.57" y="805.93" width="100.66" height="33.88"/>
  <path class="cls-19" d="M1695.31,839.92c-12.52-.01-10.85,.98-10.83-7,.04-7.98,4.92-14.44,10.91-14.44s10.81,6.48,10.79,14.46c-.03,7.98,1.64,6.99-10.87,6.98Z"/>
  <rect class="cls-19" x="1684.41" y="833.55" width="21.9" height="6.24"/>
  <path class="cls-19" d="M1723.95,839.92c-12.52-.01-10.85,.98-10.83-7,.04-7.98,4.92-14.44,10.91-14.44,5.99,0,10.81,6.48,10.79,14.46-.03,7.98,1.64,6.99-10.87,6.98Z"/>
  <rect class="cls-19" x="1713.05" y="833.55" width="21.9" height="6.24"/>
  <path class="cls-19" d="M1666.68,839.92c-12.52-.01-10.85,.98-10.83-7,.04-7.98,4.92-14.44,10.91-14.44,5.99,0,10.83,6.48,10.79,14.46-.03,7.98,1.64,6.99-10.87,6.98Z"/>
  <rect class="cls-19" x="1655.78" y="833.55" width="21.9" height="6.24"/>
  <path class="cls-11" d="M1600.6,832.92c0,.96-.03,1.8-.05,2.51v.1c-.03,.74-.04,1.33-.03,1.82,.04,1,.21,1.31,.49,1.5,.17,.11,.45,.22,.92,.3,.47,.08,1.08,.11,1.87,.13,.88,.02,1.95,0,3.24,0,1.07-.01,2.29-.02,3.72-.02,1.43,0,2.65,.02,3.72,.03,1.29,.01,2.36,.03,3.24,0,.8-.01,1.4-.05,1.87-.13,.47-.07,.75-.18,.92-.29,.28-.18,.47-.5,.51-1.5,.01-.49,0-1.08-.01-1.82v-.1c-.01-.71-.04-1.55-.04-2.51,.01-4.02,.01-8.72-1.31-12.41-.65-1.83-1.61-3.37-3.01-4.46-1.4-1.08-3.29-1.75-5.88-1.75s-4.48,.67-5.87,1.75c-1.39,1.08-2.33,2.62-2.99,4.44-1.27,3.62-1.28,8.21-1.31,12.18v.22Z"/>
  <rect class="cls-11" x="1600.5" y="837.54" width="20.59" height="1.59"/>
  <rect class="cls-23" x="1675.89" y="813.87" width="10.29" height="25.93"/>
  <rect class="cls-23" x="1646.81" y="813.87" width="10.29" height="25.93"/>
  <rect class="cls-23" x="1732.71" y="813.87" width="10.29" height="25.93"/>
  <rect class="cls-23" x="1704.52" y="813.87" width="10.29" height="25.93"/>
  <rect class="cls-23" x="1646.36" y="812.2" width="11.18" height="2.93"/>
  <rect class="cls-23" x="1675.45" y="812.2" width="11.18" height="2.93"/>
  <rect class="cls-23" x="1704.08" y="812.2" width="11.18" height="2.93"/>
  <rect class="cls-23" x="1732.27" y="812.2" width="11.18" height="2.93"/>
  <rect class="cls-23" x="1641.89" y="805.92" width="106.03" height="6.27"/>
  <rect class="cls-22" x="1641.89" y="805.92" width="106.03" height="1.25"/>
  <rect class="cls-23" x="1642.79" y="807.18" width="1.79" height="32.62"/>
  <rect class="cls-19" x="1753.75" y="729.8" width="7.61" height="15.48"/>
  <rect class="cls-19" x="1753.75" y="776.23" width="7.61" height="15.48"/>
  <rect class="cls-19" x="1753.75" y="753.22" width="7.61" height="15.48"/>
  <rect class="cls-19" x="1796.69" y="729.8" width="7.61" height="15.48"/>
  <rect class="cls-3" x="1852.6" y="707.22" width="7.61" height="13.8"/>
  <rect class="cls-19" x="1796.69" y="776.23" width="7.61" height="15.48"/>
  <rect class="cls-19" x="1796.69" y="753.23" width="7.61" height="15.48"/>
  <rect class="cls-22" x="1666.04" y="687.98" width="1.34" height="2.51"/>
  <rect class="cls-22" x="1695.12" y="687.98" width="1.34" height="2.51"/>
  <rect class="cls-22" x="1723.31" y="687.98" width="1.34" height="2.51"/>
  <rect class="cls-3" x="1654.41" y="719.34" width="2.24" height="2.51"/>
  <rect class="cls-3" x="1661.11" y="719.34" width="1.79" height="2.51"/>
  <rect class="cls-3" x="1648.15" y="719.34" width="1.79" height="2.51"/>
  <rect class="cls-3" x="1667.39" y="719.34" width="2.24" height="2.51"/>
  <rect class="cls-3" x="1693.33" y="719.34" width="2.24" height="2.51"/>
  <rect class="cls-3" x="1706.31" y="719.34" width="2.24" height="2.51"/>
  <rect class="cls-3" x="1700.04" y="719.34" width="1.79" height="2.51"/>
  <rect class="cls-3" x="1713.01" y="719.34" width="1.79" height="2.51"/>
  <rect class="cls-3" x="1725.99" y="719.34" width="1.79" height="2.51"/>
  <rect class="cls-3" x="1719.27" y="719.34" width="2.24" height="2.51"/>
  <rect class="cls-3" x="1738.96" y="719.34" width="1.79" height="2.51"/>
  <rect class="cls-3" x="1732.25" y="719.34" width="2.24" height="2.51"/>
  <rect class="cls-3" x="1687.05" y="719.34" width="1.79" height="2.51"/>
  <rect class="cls-3" x="1680.35" y="719.34" width="2.24" height="2.51"/>
  <rect class="cls-3" x="1674.09" y="719.34" width="1.79" height="2.51"/>
  <rect class="cls-3" x="1644.56" y="715.16" width="100.66" height="4.18"/>
  <rect class="cls-3" x="1750.76" y="709.31" width="1.56" height="2.51"/>
  <rect class="cls-3" x="1755.44" y="709.31" width="1.25" height="2.51"/>
  <rect class="cls-3" x="1746.39" y="709.31" width="1.25" height="2.51"/>
  <rect class="cls-3" x="1759.81" y="709.31" width="1.56" height="2.51"/>
  <rect class="cls-3" x="1777.92" y="709.31" width="1.56" height="2.51"/>
  <rect class="cls-3" x="1786.97" y="709.31" width="1.56" height="2.51"/>
  <rect class="cls-3" x="1782.6" y="709.31" width="1.25" height="2.51"/>
  <rect class="cls-3" x="1791.65" y="709.31" width="1.25" height="2.51"/>
  <rect class="cls-3" x="1800.69" y="709.31" width="1.25" height="2.51"/>
  <rect class="cls-3" x="1796.03" y="709.31" width="1.56" height="2.51"/>
  <rect class="cls-3" x="1809.76" y="709.31" width="1.25" height="2.51"/>
  <rect class="cls-3" x="1805.07" y="709.31" width="1.56" height="2.51"/>
  <rect class="cls-3" x="1773.55" y="709.31" width="1.25" height="2.51"/>
  <rect class="cls-3" x="1768.85" y="709.31" width="1.56" height="2.51"/>
  <rect class="cls-3" x="1764.49" y="709.31" width="1.25" height="2.51"/>
  <rect class="cls-3" x="1743.89" y="705.13" width="70.24" height="4.18"/>
  <rect class="cls-23" x="1811" y="665.29" width="59.5" height="11.58"/>
  <path class="cls-23" d="M1840.93,631.93l21.67,37.02h-43.33l21.67-37.02Z"/>
  <path class="cls-10" d="M1841.13,642.13l8.36,17.37h-16.73l8.37-17.37Z"/>
  <path class="cls-3" d="M1832.93,655.51h-1.44v3.99h1.44v-3.99Z"/>
  <path class="cls-3" d="M1832.21,653.71l-.76,1.87h1.52l-.76-1.87Z"/>
  <path class="cls-10" d="M1832.21,654.01c.13,0,.24-.07,.24-.15s-.11-.15-.24-.15-.24,.07-.24,.15,.11,.15,.24,.15Z"/>
  <path class="cls-3" d="M1851.12,655.51h-1.43v3.99h1.43v-3.99Z"/>
  <path class="cls-3" d="M1850.41,653.71l-.76,1.87h1.52l-.76-1.87Z"/>
  <path class="cls-10" d="M1850.41,654.01c.13,0,.24-.07,.24-.15s-.11-.15-.24-.15-.24,.07-.24,.15,.11,.15,.24,.15Z"/>
  <path class="cls-3" d="M1841.65,639.52h-1.44v3.99h1.44v-3.99Z"/>
  <path class="cls-3" d="M1840.93,637.72l-.76,1.87h1.52l-.76-1.87Z"/>
  <path class="cls-10" d="M1840.93,638.02c.13,0,.24-.07,.24-.15s-.11-.15-.24-.15-.24,.07-.24,.15,.11,.15,.24,.15Z"/>
  <path class="cls-3" d="M1841.53,629.54h-1.43v3.99h1.43v-3.99Z"/>
  <path class="cls-3" d="M1840.83,627.75l-.76,1.87h1.52l-.76-1.87Z"/>
  <path class="cls-10" d="M1840.83,628.05c.13,0,.24-.07,.24-.15s-.11-.15-.24-.15-.24,.07-.24,.15,.11,.15,.24,.15Z"/>
  <rect class="cls-10" x="1831.08" y="659.5" width="20.09" height="14.34"/>
  <rect class="cls-3" x="1811" y="665.29" width="12.51" height="1.65"/>
  <rect class="cls-3" x="1857.99" y="665.29" width="12.51" height="1.65"/>
  <rect class="cls-18" x="1838.28" y="662.88" width="4.92" height="8.36"/>
  <rect class="cls-3" x="1831.12" y="658.7" width="20.13" height="1.67"/>
  <rect class="cls-3" x="1817.87" y="680.87" width="1.56" height="2.51"/>
  <rect class="cls-3" x="1822.55" y="680.87" width="1.25" height="2.51"/>
  <rect class="cls-3" x="1813.49" y="680.87" width="1.25" height="2.51"/>
  <rect class="cls-3" x="1826.92" y="680.87" width="1.56" height="2.51"/>
  <rect class="cls-3" x="1845.03" y="680.87" width="1.56" height="2.51"/>
  <rect class="cls-3" x="1854.09" y="680.87" width="1.56" height="2.51"/>
  <rect class="cls-3" x="1849.71" y="680.87" width="1.25" height="2.51"/>
  <rect class="cls-3" x="1858.76" y="680.87" width="1.25" height="2.51"/>
  <rect class="cls-3" x="1867.8" y="680.87" width="1.25" height="2.51"/>
  <rect class="cls-3" x="1863.13" y="680.87" width="1.56" height="2.51"/>
  <rect class="cls-3" x="1840.65" y="680.87" width="1.25" height="2.51"/>
  <rect class="cls-3" x="1835.97" y="680.87" width="1.56" height="2.51"/>
  <rect class="cls-3" x="1831.6" y="680.87" width="1.25" height="2.51"/>
  <rect class="cls-3" x="1811" y="676.69" width="59.5" height="4.18"/>
  <rect class="cls-3" x="1875.13" y="720.6" width="1.56" height="2.51"/>
  <rect class="cls-3" x="1879.81" y="720.6" width="1.25" height="2.51"/>
  <rect class="cls-3" x="1870.77" y="720.6" width="1.25" height="2.51"/>
  <rect class="cls-3" x="1884.19" y="720.6" width="1.56" height="2.51"/>
  <rect class="cls-3" x="1902.29" y="720.6" width="1.56" height="2.51"/>
  <rect class="cls-3" x="1906.97" y="720.6" width="1.25" height="2.51"/>
  <rect class="cls-3" x="1897.92" y="720.6" width="1.25" height="2.51"/>
  <rect class="cls-3" x="1893.24" y="720.6" width="1.56" height="2.51"/>
  <rect class="cls-3" x="1888.87" y="720.6" width="1.25" height="2.51"/>
  <rect class="cls-3" x="1868.27" y="716.42" width="40.26" height="4.18"/>
  <rect class="cls-3" x="1601.17" y="821.4" width="19.24" height=".84"/>
  <rect class="cls-3" x="1610.12" y="813.87" width="1.34" height="25.93"/>
  <rect class="cls-3" x="1602.52" y="817.63" width="16.55" height=".42"/>
  <path class="cls-11" d="M1769.25,832.73c0,.96-.03,1.8-.05,2.51v.1c-.03,.74-.04,1.33-.03,1.82,.04,1,.21,1.31,.49,1.5,.17,.11,.45,.22,.92,.3,.47,.08,1.08,.11,1.87,.13,.88,.02,1.95,0,3.25,0,1.05,0,2.28-.02,3.71-.02,1.43,0,2.65,.01,3.72,.03,1.29,.01,2.36,.03,3.24,.01,.8-.01,1.4-.05,1.87-.13,.47-.07,.75-.18,.92-.29,.28-.18,.47-.5,.51-1.5,.01-.49,0-1.08-.01-1.82v-.1c-.01-.71-.04-1.55-.04-2.51,.01-4.02,.01-8.71-1.31-12.41-.65-1.83-1.61-3.37-3.01-4.45-1.4-1.08-3.29-1.75-5.88-1.75s-4.48,.67-5.87,1.75c-1.39,1.08-2.33,2.61-2.99,4.44-1.27,3.62-1.28,8.21-1.29,12.18,0,.07-.01,.15-.01,.22Z"/>
  <rect class="cls-11" x="1769.16" y="837.35" width="20.59" height="1.59"/>
  <rect class="cls-3" x="1769.83" y="821.21" width="19.24" height=".84"/>
  <rect class="cls-3" x="1778.79" y="813.87" width="1.34" height="25.51"/>
  <rect class="cls-3" x="1771.17" y="817.44" width="16.55" height=".42"/>
  <rect class="cls-18" x="1664.71" y="704.29" width="4.03" height="7.11"/>
  <path class="cls-3" d="M1574.79,662.34l-.91,2.64h1.8l-.89-2.64Z"/>
  <path class="cls-10" d="M1574.77,662.77c.16,0,.28-.09,.28-.21s-.12-.21-.28-.21c-.15,0-.28,.09-.28,.21s.13,.21,.28,.21Z"/>
  <rect class="cls-22" x="1577.01" y="679.08" width="30.42" height="32.32"/>
  <path class="cls-22" d="M1592,631.19l15.69,48.18h-31.39l15.69-48.18Z"/>
  <rect class="cls-22" x="1573.88" y="670.52" width="36.24" height="12.46"/>
  <path class="cls-3" d="M1592.61,629.45h-1.68v5.64h1.68v-5.64Z"/>
  <path class="cls-3" d="M1591.77,626.91l-.89,2.64h1.8l-.91-2.64Z"/>
  <path class="cls-10" d="M1591.77,627.33c.16,0,.28-.09,.28-.21s-.12-.21-.28-.21-.28,.09-.28,.21,.12,.21,.28,.21Z"/>
  <path class="cls-3" d="M1575.63,664.88h-1.69v5.64h1.69v-5.64Z"/>
  <rect class="cls-3" x="1573.89" y="683.75" width="1.65" height="2.34"/>
  <rect class="cls-3" x="1583.44" y="683.75" width="1.65" height="2.34"/>
  <rect class="cls-3" x="1578.83" y="683.75" width="1.32" height="2.34"/>
  <rect class="cls-3" x="1588.37" y="683.75" width="1.32" height="2.34"/>
  <rect class="cls-3" x="1597.93" y="683.75" width="1.32" height="2.34"/>
  <rect class="cls-3" x="1592.99" y="683.75" width="1.65" height="2.34"/>
  <rect class="cls-3" x="1607.47" y="683.75" width="1.32" height="2.34"/>
  <rect class="cls-3" x="1602.53" y="683.75" width="1.65" height="2.34"/>
  <rect class="cls-3" x="1573.88" y="679.86" width="30.27" height="3.89"/>
  <path class="cls-10" d="M1591.77,651.83l7.76,19.27h-15.51l7.75-19.27Z"/>
  <rect class="cls-3" x="1574.33" y="670.52" width="12.08" height="1.95"/>
  <rect class="cls-3" x="1596.71" y="670.52" width="15.21" height="1.95"/>
  <rect class="cls-3" x="1591.33" y="651.44" width=".89" height="1.95"/>
  <rect class="cls-18" x="1693.79" y="704.29" width="4.03" height="7.11"/>
  <rect class="cls-18" x="1721.96" y="704.71" width="4.03" height="7.11"/>
  <rect class="cls-3" x="1827.56" y="734.82" width="14.76" height="2.51"/>
  <rect class="cls-3" x="1827.56" y="754.48" width="14.76" height="2.51"/>
  <rect class="cls-3" x="1827.56" y="773.72" width="14.76" height="2.51"/>
  <rect class="cls-3" x="1827.56" y="793.38" width="14.76" height="2.51"/>
  <rect class="cls-18" x="1828.91" y="726.46" width="4.92" height="8.36"/>
  <rect class="cls-18" x="1836.07" y="726.46" width="4.92" height="8.36"/>
  <rect class="cls-18" x="1828.91" y="746.11" width="4.92" height="8.36"/>
  <rect class="cls-18" x="1836.07" y="746.11" width="4.92" height="8.36"/>
  <rect class="cls-18" x="1828.91" y="765.35" width="4.92" height="8.36"/>
  <rect class="cls-18" x="1836.07" y="765.35" width="4.92" height="8.36"/>
  <rect class="cls-18" x="1828.91" y="785.01" width="4.92" height="8.36"/>
  <rect class="cls-18" x="1836.07" y="785.01" width="4.92" height="8.36"/>
  <path class="cls-3" d="M1816.34,803.41h90.42c1.96,0,3.56,1.59,3.56,3.56h0c0,1.96-1.59,3.56-3.56,3.56h-90.42c-1.96,0-3.56-1.59-3.56-3.56h0c0-1.96,1.59-3.56,3.56-3.56Z"/>
  <rect class="cls-19" x="1812.79" y="807.6" width="97.53" height="32.21"/>
  <rect class="cls-3" x="1857.08" y="800.91" width="5.37" height="2.51"/>
  <rect class="cls-3" x="1845.44" y="800.91" width="5.37" height="2.51"/>
  <rect class="cls-3" x="1869.16" y="800.91" width="5.37" height="2.51"/>
  <rect class="cls-3" x="1828" y="807.6" width=".89" height="32.21"/>
  <rect class="cls-3" x="1826.2" y="807.6" width=".89" height="32.21"/>
  <rect class="cls-3" x="1850.83" y="807.6" width=".89" height="32.21"/>
  <rect class="cls-3" x="1815.03" y="807.6" width=".45" height="5.02"/>
  <rect class="cls-3" x="1817.71" y="807.6" width=".45" height="5.02"/>
  <rect class="cls-3" x="1820.4" y="807.6" width=".45" height="5.02"/>
  <rect class="cls-3" x="1823.08" y="807.6" width=".45" height="5.02"/>
  <rect class="cls-3" x="1831.57" y="807.6" width=".45" height="5.02"/>
  <rect class="cls-3" x="1834.27" y="807.6" width=".45" height="5.02"/>
  <rect class="cls-3" x="1836.95" y="807.6" width=".45" height="5.02"/>
  <rect class="cls-3" x="1839.63" y="807.6" width=".45" height="5.02"/>
  <rect class="cls-3" x="1842.32" y="807.6" width=".45" height="5.02"/>
  <rect class="cls-3" x="1845" y="807.6" width=".45" height="5.02"/>
  <rect class="cls-3" x="1847.68" y="807.6" width=".45" height="5.02"/>
  <rect class="cls-3" x="1854.4" y="807.6" width=".45" height="5.02"/>
  <rect class="cls-3" x="1857.08" y="807.6" width=".45" height="5.02"/>
  <rect class="cls-3" x="1859.76" y="807.6" width=".45" height="5.02"/>
  <rect class="cls-3" x="1862.45" y="807.6" width=".45" height="5.02"/>
  <rect class="cls-3" x="1865.13" y="807.6" width=".45" height="5.02"/>
  <rect class="cls-3" x="1867.81" y="807.6" width=".45" height="5.02"/>
  <rect class="cls-3" x="1870.51" y="807.6" width=".45" height="5.02"/>
  <rect class="cls-3" x="1873.17" y="807.6" width=".45" height="5.02"/>
  <rect class="cls-3" x="1875.87" y="807.6" width=".45" height="5.02"/>
  <rect class="cls-3" x="1882.13" y="807.6" width=".45" height="5.02"/>
  <rect class="cls-3" x="1884.81" y="807.6" width=".45" height="5.02"/>
  <rect class="cls-3" x="1887.49" y="807.6" width=".45" height="5.02"/>
  <rect class="cls-3" x="1890.19" y="807.6" width=".45" height="5.02"/>
  <rect class="cls-3" x="1892.87" y="807.6" width=".45" height="5.02"/>
  <rect class="cls-3" x="1895.55" y="807.6" width=".45" height="5.02"/>
  <rect class="cls-3" x="1898.24" y="807.6" width=".45" height="5.02"/>
  <rect class="cls-3" x="1905.84" y="807.6" width=".45" height="5.02"/>
  <rect class="cls-3" x="1908.08" y="807.6" width=".45" height="5.02"/>
  <rect class="cls-3" x="1878.56" y="807.6" width=".89" height="32.21"/>
  <rect class="cls-3" x="1902.72" y="807.18" width=".89" height="32.21"/>
  <rect class="cls-3" x="1900.93" y="807.6" width=".89" height="32.21"/>
  <rect class="cls-10" x="1812.79" y="818.47" width="97.53" height=".84"/>
  <rect class="cls-3" x="1812.79" y="812.62" width="97.53" height=".42"/>
  <rect class="cls-10" x="1812.79" y="826.42" width="97.53" height=".84"/>
  <rect class="cls-10" x="1812.79" y="834.36" width="97.53" height=".84"/>
  <rect class="cls-23" x="1573.44" y="690.91" width="71.13" height="17.57"/>
  <path class="cls-23" d="M1611.01,640.3l25.57,56.15h-51.15l25.57-56.15Z"/>
  <path class="cls-3" d="M1611.85,635.92h-1.69v6.06h1.69v-6.06Z"/>
  <path class="cls-3" d="M1611.01,633.19l-.89,2.84h1.79l-.89-2.84Z"/>
  <path class="cls-10" d="M1611.01,633.65c.16,0,.28-.1,.28-.23s-.12-.23-.28-.23-.28,.1-.28,.23,.12,.23,.28,.23Z"/>
  <path class="cls-10" d="M1611.24,655.78l9.88,26.35h-19.76l9.88-26.35Z"/>
  <path class="cls-3" d="M1601.57,676.07h-1.68v6.06h1.68v-6.06Z"/>
  <path class="cls-3" d="M1600.73,673.34l-.89,2.84h1.79l-.89-2.84Z"/>
  <path class="cls-10" d="M1600.73,673.8c.15,0,.28-.1,.28-.23s-.13-.23-.28-.23c-.16,0-.28,.1-.28,.23s.12,.23,.28,.23Z"/>
  <path class="cls-3" d="M1623.04,676.07h-1.69v6.06h1.69v-6.06Z"/>
  <path class="cls-3" d="M1622.2,673.34l-.89,2.84h1.79l-.89-2.84Z"/>
  <path class="cls-10" d="M1622.2,673.8c.16,0,.28-.1,.28-.23s-.12-.23-.28-.23-.28,.1-.28,.23,.12,.23,.28,.23Z"/>
  <path class="cls-3" d="M1611.85,651.81h-1.69v6.06h1.69v-6.06Z"/>
  <path class="cls-3" d="M1611.01,649.08l-.89,2.84h1.79l-.89-2.84Z"/>
  <path class="cls-10" d="M1611.01,649.54c.16,0,.28-.1,.28-.23s-.12-.23-.28-.23-.28,.1-.28,.23,.12,.23,.28,.23Z"/>
  <rect class="cls-10" x="1599.4" y="682.13" width="23.71" height="21.75"/>
  <rect class="cls-18" x="1605.2" y="690.07" width="4.92" height="8.36"/>
  <rect class="cls-18" x="1612.36" y="690.07" width="4.92" height="8.36"/>
  <rect class="cls-3" x="1573.44" y="690.91" width="17" height="2.51"/>
  <rect class="cls-3" x="1631.16" y="690.91" width="13.42" height="2.51"/>
  <rect class="cls-3" x="1580.4" y="708.47" width="1.58" height="2.51"/>
  <rect class="cls-3" x="1585.13" y="708.47" width="1.26" height="2.51"/>
  <rect class="cls-3" x="1575.97" y="708.47" width="1.26" height="2.51"/>
  <rect class="cls-3" x="1589.56" y="708.47" width="1.58" height="2.51"/>
  <rect class="cls-3" x="1607.89" y="708.47" width="1.58" height="2.51"/>
  <rect class="cls-3" x="1617.07" y="708.47" width="1.58" height="2.51"/>
  <rect class="cls-3" x="1612.64" y="708.47" width="1.26" height="2.51"/>
  <rect class="cls-3" x="1621.81" y="708.47" width="1.26" height="2.51"/>
  <rect class="cls-3" x="1630.99" y="708.47" width="1.26" height="2.51"/>
  <rect class="cls-3" x="1626.23" y="708.47" width="1.58" height="2.51"/>
  <rect class="cls-3" x="1640.15" y="708.47" width="1.26" height="2.51"/>
  <rect class="cls-3" x="1635.4" y="708.47" width="1.58" height="2.51"/>
  <rect class="cls-3" x="1603.47" y="708.47" width="1.26" height="2.51"/>
  <rect class="cls-3" x="1598.73" y="708.47" width="1.58" height="2.51"/>
  <rect class="cls-3" x="1594.31" y="708.47" width="1.26" height="2.51"/>
  <rect class="cls-3" x="1573.44" y="704.29" width="71.13" height="4.18"/>
  <path class="cls-2" d="M1429.63,709l42.48-36.51,42.49,36.51h-84.97Z"/>
  <rect class="cls-3" x="1423.2" y="711.45" width="97.81" height="127.44"/>
  <rect class="cls-22" x="1364.89" y="668.98" width="58.31" height="169.92"/>
  <rect class="cls-19" x="1373.36" y="631.59" width="41.38" height="37.38"/>
  <rect class="cls-19" x="1379" y="597.61" width="31.04" height="37.38"/>
  <rect class="cls-19" x="1384.64" y="567.87" width="19.75" height="37.38"/>
  <rect class="cls-19" x="1388.4" y="546.63" width="12.23" height="37.38"/>
  <rect class="cls-22" x="1521.01" y="668.98" width="58.31" height="169.92"/>
  <ellipse class="cls-15" cx="1472.11" cy="657.08" rx="2.82" ry="12.74"/>
  <path class="cls-19" d="M1394.52,511.8l5.29,35.68h-10.59l5.29-35.68Z"/>
  <rect class="cls-19" x="1529.47" y="631.59" width="41.38" height="37.38"/>
  <rect class="cls-19" x="1535.13" y="597.61" width="31.04" height="37.38"/>
  <rect class="cls-19" x="1540.76" y="567.87" width="19.75" height="37.38"/>
  <rect class="cls-19" x="1544.53" y="546.63" width="12.23" height="37.38"/>
  <path class="cls-19" d="M1550.64,511.8l5.29,35.68h-10.59l5.29-35.68Z"/>
  <path class="cls-19" d="M1556.76,790.47v-25.91c0-6.63-7.05-14.87-7.05-14.87,0,0-7.05,8.24-7.05,14.87v25.91h14.11Z"/>
  <path class="cls-19" d="M1400.63,790.47v-25.91c0-6.63-7.05-14.87-7.05-14.87,0,0-7.05,8.24-7.05,14.87v25.91h14.11Z"/>
  <path class="cls-22" d="M1489.99,777.34v-25.7c0-6.57-17.88-14.75-17.88-14.75,0,0-17.87,8.18-17.87,14.75v25.7h35.75Z"/>
  <path class="cls-19" d="M1398.75,714.85v-15.65c0-4-4.71-8.98-4.71-8.98,0,0-4.69,4.98-4.69,8.98v15.65h9.4Z"/>
  <path class="cls-19" d="M1554.88,714.93v-15.65c0-4-4.71-8.98-4.71-8.98,0,0-4.71,4.98-4.71,8.98v15.65h9.41Z"/>
  <path class="cls-18" d="M1472.07,838.59c-12.88-.02-11.17,1.38-11.15-9.88,.04-11.25,5.07-20.37,11.23-20.36,6.17,0,11.15,9.14,11.12,20.39-.04,11.25,1.68,9.86-11.2,9.84Z"/>
  <rect class="cls-18" x="1460.85" y="830.35" width="22.55" height="8.81"/>
  <path class="cls-18" d="M1393.08,838.65c-10.75-.02-9.32,1.15-9.29-8.24,.03-9.39,4.23-17,9.37-16.99,5.15,0,9.29,7.63,9.27,17.02-.03,9.39,1.41,8.23-9.35,8.21Z"/>
  <rect class="cls-18" x="1383.73" y="831.78" width="18.82" height="7.35"/>
  <path class="cls-18" d="M1550.15,838.65c-10.76-.02-9.33,1.15-9.31-8.24,.03-9.39,4.23-17,9.37-16.99,5.15,0,9.29,7.63,9.27,17.02-.03,9.39,1.41,8.23-9.33,8.21Z"/>
  <rect class="cls-18" x="1540.78" y="831.78" width="18.82" height="7.35"/>
  <rect class="cls-3" x="1543.59" y="714.91" width="13.17" height="2.64"/>
  <path class="cls-19" d="M1472.04,789.94c-20.4-.03-17.69,2.18-17.64-15.64,.05-17.82,8-32.25,17.77-32.24,9.76,.01,17.64,14.47,17.59,32.29-.05,17.82,2.68,15.61-17.72,15.59Z"/>
  <rect class="cls-19" x="1454.27" y="776.9" width="35.7" height="13.94"/>
  <path class="cls-18" d="M1464.57,790.53v-25.14c0-6.43-4.23-14.43-4.23-14.43,0,0-4.23,8-4.23,14.43v25.14h8.45Z"/>
  <path class="cls-18" d="M1475.87,790.53v-30.17c0-7.71-4.23-17.31-4.23-17.31,0,0-4.24,9.6-4.24,17.31v30.17h8.47Z"/>
  <path class="cls-18" d="M1487.15,790.53v-25.14c0-6.43-4.24-14.43-4.24-14.43,0,0-4.23,8-4.23,14.43v25.14h8.47Z"/>
  <ellipse class="cls-1" cx="1394.51" cy="652.5" rx="13.64" ry="12.32"/>
  <ellipse class="cls-1" cx="1550.64" cy="652.49" rx="13.64" ry="12.32"/>
  <path class="cls-19" d="M1531.77,624.03h-2.24v7.75h2.24v-7.75Z"/>
  <path class="cls-19" d="M1530.65,620.55l-1.19,3.63h2.37l-1.19-3.63Z"/>
  <path class="cls-19" d="M1530.65,621.13c.21,0,.37-.13,.37-.29s-.16-.29-.37-.29c-.2,0-.37,.13-.37,.29s.17,.29,.37,.29Z"/>
  <path class="cls-19" d="M1414.21,624.03h-2.24v7.75h2.24v-7.75Z"/>
  <path class="cls-19" d="M1413.09,620.55l-1.17,3.63h2.36l-1.19-3.63Z"/>
  <path class="cls-19" d="M1413.11,621.13c.2,0,.37-.13,.37-.29s-.17-.29-.37-.29c-.21,0-.37,.13-.37,.29s.16,.29,.37,.29Z"/>
  <path class="cls-19" d="M1375.67,624.03h-2.24v7.75h2.24v-7.75Z"/>
  <path class="cls-19" d="M1374.55,620.55l-1.19,3.63h2.37l-1.19-3.63Z"/>
  <path class="cls-19" d="M1374.55,621.13c.21,0,.37-.13,.37-.29s-.16-.29-.37-.29c-.2,0-.37,.13-.37,.29s.17,.29,.37,.29Z"/>
  <path class="cls-19" d="M1570.33,624.03h-2.24v7.75h2.24v-7.75Z"/>
  <path class="cls-19" d="M1569.21,620.55l-1.17,3.63h2.36l-1.19-3.63Z"/>
  <path class="cls-19" d="M1569.23,621.13c.2,0,.37-.13,.37-.29s-.17-.29-.37-.29c-.21,0-.37,.13-.37,.29s.16,.29,.37,.29Z"/>
  <path class="cls-18" d="M1402.39,621.13c1.11,0,2.01-3.22,2.01-7.18s-.91-7.19-2.01-7.19-2.03,3.22-2.03,7.19,.91,7.18,2.03,7.18Z"/>
  <path class="cls-18" d="M1394.75,621.13c1.12,0,2.03-3.22,2.03-7.18s-.91-7.19-2.03-7.19-2.01,3.22-2.01,7.19,.91,7.18,2.01,7.18Z"/>
  <path class="cls-18" d="M1387.6,621.13c1.11,0,2.01-3.22,2.01-7.18s-.91-7.19-2.01-7.19-2.01,3.22-2.01,7.19,.89,7.18,2.01,7.18Z"/>
  <path class="cls-18" d="M1398.51,591.23c1.12,0,2.01-3.22,2.01-7.19s-.89-7.19-2.01-7.19-2.01,3.22-2.01,7.19,.91,7.19,2.01,7.19Z"/>
  <path class="cls-18" d="M1391.36,591.23c1.11,0,2.01-3.22,2.01-7.19s-.91-7.19-2.01-7.19-2.03,3.22-2.03,7.19,.91,7.19,2.03,7.19Z"/>
  <path class="cls-18" d="M1558.51,621.13c1.12,0,2.03-3.22,2.03-7.18s-.91-7.19-2.03-7.19-2.01,3.22-2.01,7.19,.91,7.18,2.01,7.18Z"/>
  <path class="cls-18" d="M1550.88,621.13c1.12,0,2.01-3.22,2.01-7.18s-.89-7.19-2.01-7.19-2.01,3.22-2.01,7.19,.91,7.18,2.01,7.18Z"/>
  <path class="cls-18" d="M1543.73,621.13c1.11,0,2.01-3.22,2.01-7.18s-.91-7.19-2.01-7.19-2.03,3.22-2.03,7.19,.91,7.18,2.03,7.18Z"/>
  <rect class="cls-1" x="1529.48" y="631.38" width="41.38" height="3.52"/>
  <path class="cls-22" d="M1535.12,597.09h31.04v3.52h-31.04v-3.52Z"/>
  <path class="cls-1" d="M1535.12,597.09h31.04v3.52h-31.04v-3.52Z"/>
  <rect class="cls-1" x="1540.76" y="568.07" width="19.75" height="3.52"/>
  <rect class="cls-1" x="1544.53" y="546.97" width="12.23" height="3.52"/>
  <rect class="cls-22" x="1549.24" y="748.32" width=".94" height="42.2"/>
  <rect class="cls-22" x="1527.6" y="766.79" width="45.15" height=".88"/>
  <rect class="cls-22" x="1526.65" y="779.98" width="45.15" height=".88"/>
  <rect class="cls-3" x="1449.53" y="785.25" width="45.15" height=".88"/>
  <rect class="cls-3" x="1449.53" y="778.22" width="45.15" height=".88"/>
  <rect class="cls-3" x="1423.2" y="711.45" width="97.81" height="127.44"/>
  <rect class="cls-22" x="1364.89" y="668.98" width="58.31" height="169.92"/>
  <rect class="cls-19" x="1373.36" y="631.59" width="41.38" height="37.38"/>
  <rect class="cls-19" x="1379" y="597.61" width="31.04" height="37.38"/>
  <rect class="cls-19" x="1384.64" y="567.87" width="19.75" height="37.38"/>
  <rect class="cls-19" x="1388.4" y="546.63" width="12.23" height="37.38"/>
  <rect class="cls-22" x="1521.01" y="668.98" width="58.31" height="169.92"/>
  <ellipse class="cls-15" cx="1472.11" cy="657.08" rx="2.82" ry="12.74"/>
  <path class="cls-19" d="M1394.52,511.8l5.29,35.68h-10.59l5.29-35.68Z"/>
  <rect class="cls-19" x="1529.47" y="631.59" width="41.38" height="37.38"/>
  <rect class="cls-19" x="1535.13" y="597.61" width="31.04" height="37.38"/>
  <rect class="cls-19" x="1540.76" y="567.87" width="19.75" height="37.38"/>
  <rect class="cls-19" x="1544.53" y="546.63" width="12.23" height="37.38"/>
  <path class="cls-19" d="M1550.64,511.8l5.29,35.68h-10.59l5.29-35.68Z"/>
  <path class="cls-19" d="M1556.76,790.47v-25.91c0-6.63-7.05-14.87-7.05-14.87,0,0-7.05,8.24-7.05,14.87v25.91h14.11Z"/>
  <path class="cls-19" d="M1400.63,790.47v-25.91c0-6.63-7.05-14.87-7.05-14.87,0,0-7.05,8.24-7.05,14.87v25.91h14.11Z"/>
  <path class="cls-22" d="M1489.99,777.34v-25.7c0-6.57-17.88-14.75-17.88-14.75,0,0-17.87,8.18-17.87,14.75v25.7h35.75Z"/>
  <path class="cls-19" d="M1398.75,714.85v-15.65c0-4-4.71-8.98-4.71-8.98,0,0-4.69,4.98-4.69,8.98v15.65h9.4Z"/>
  <path class="cls-19" d="M1554.88,714.93v-15.65c0-4-4.71-8.98-4.71-8.98,0,0-4.71,4.98-4.71,8.98v15.65h9.41Z"/>
  <path class="cls-18" d="M1472.07,838.59c-12.88-.02-11.17,1.38-11.15-9.88,.04-11.25,5.07-20.37,11.23-20.36,6.17,0,11.15,9.14,11.12,20.39-.04,11.25,1.68,9.86-11.2,9.84Z"/>
  <rect class="cls-18" x="1460.85" y="830.35" width="22.55" height="8.81"/>
  <path class="cls-18" d="M1393.08,838.65c-10.75-.02-9.32,1.15-9.29-8.24,.03-9.39,4.23-17,9.37-16.99,5.15,0,9.29,7.63,9.27,17.02-.03,9.39,1.41,8.23-9.35,8.21Z"/>
  <rect class="cls-18" x="1383.73" y="831.78" width="18.82" height="7.35"/>
  <path class="cls-18" d="M1550.15,838.65c-10.76-.02-9.33,1.15-9.31-8.24,.03-9.39,4.23-17,9.37-16.99,5.15,0,9.29,7.63,9.27,17.02-.03,9.39,1.41,8.23-9.33,8.21Z"/>
  <rect class="cls-18" x="1540.78" y="831.78" width="18.82" height="7.35"/>
  <rect class="cls-3" x="1543.59" y="714.91" width="13.17" height="2.64"/>
  <path class="cls-19" d="M1472.04,789.94c-20.4-.03-17.69,2.18-17.64-15.64,.05-17.82,8-32.25,17.77-32.24,9.76,.01,17.64,14.47,17.59,32.29-.05,17.82,2.68,15.61-17.72,15.59Z"/>
  <rect class="cls-19" x="1454.27" y="776.9" width="35.7" height="13.94"/>
  <path class="cls-18" d="M1464.57,790.53v-25.14c0-6.43-4.23-14.43-4.23-14.43,0,0-4.23,8-4.23,14.43v25.14h8.45Z"/>
  <path class="cls-18" d="M1475.87,790.53v-30.17c0-7.71-4.23-17.31-4.23-17.31,0,0-4.24,9.6-4.24,17.31v30.17h8.47Z"/>
  <path class="cls-18" d="M1487.15,790.53v-25.14c0-6.43-4.24-14.43-4.24-14.43,0,0-4.23,8-4.23,14.43v25.14h8.47Z"/>
  <ellipse class="cls-1" cx="1394.51" cy="652.5" rx="13.64" ry="12.32"/>
  <ellipse class="cls-1" cx="1550.64" cy="652.49" rx="13.64" ry="12.32"/>
  <path class="cls-19" d="M1531.77,624.03h-2.24v7.75h2.24v-7.75Z"/>
  <path class="cls-19" d="M1530.65,620.55l-1.19,3.63h2.37l-1.19-3.63Z"/>
  <path class="cls-19" d="M1530.65,621.13c.21,0,.37-.13,.37-.29s-.16-.29-.37-.29c-.2,0-.37,.13-.37,.29s.17,.29,.37,.29Z"/>
  <path class="cls-19" d="M1414.21,624.03h-2.24v7.75h2.24v-7.75Z"/>
  <path class="cls-19" d="M1413.09,620.55l-1.17,3.63h2.36l-1.19-3.63Z"/>
  <path class="cls-19" d="M1413.11,621.13c.2,0,.37-.13,.37-.29s-.17-.29-.37-.29c-.21,0-.37,.13-.37,.29s.16,.29,.37,.29Z"/>
  <path class="cls-19" d="M1375.67,624.03h-2.24v7.75h2.24v-7.75Z"/>
  <path class="cls-19" d="M1374.55,620.55l-1.19,3.63h2.37l-1.19-3.63Z"/>
  <path class="cls-19" d="M1374.55,621.13c.21,0,.37-.13,.37-.29s-.16-.29-.37-.29c-.2,0-.37,.13-.37,.29s.17,.29,.37,.29Z"/>
  <path class="cls-19" d="M1570.33,624.03h-2.24v7.75h2.24v-7.75Z"/>
  <path class="cls-19" d="M1569.21,620.55l-1.17,3.63h2.36l-1.19-3.63Z"/>
  <path class="cls-19" d="M1569.23,621.13c.2,0,.37-.13,.37-.29s-.17-.29-.37-.29c-.21,0-.37,.13-.37,.29s.16,.29,.37,.29Z"/>
  <path class="cls-18" d="M1402.39,621.13c1.11,0,2.01-3.22,2.01-7.18s-.91-7.19-2.01-7.19-2.03,3.22-2.03,7.19,.91,7.18,2.03,7.18Z"/>
  <path class="cls-18" d="M1394.75,621.13c1.12,0,2.03-3.22,2.03-7.18s-.91-7.19-2.03-7.19-2.01,3.22-2.01,7.19,.91,7.18,2.01,7.18Z"/>
  <path class="cls-18" d="M1387.6,621.13c1.11,0,2.01-3.22,2.01-7.18s-.91-7.19-2.01-7.19-2.01,3.22-2.01,7.19,.89,7.18,2.01,7.18Z"/>
  <path class="cls-18" d="M1398.51,591.23c1.12,0,2.01-3.22,2.01-7.19s-.89-7.19-2.01-7.19-2.01,3.22-2.01,7.19,.91,7.19,2.01,7.19Z"/>
  <path class="cls-18" d="M1391.36,591.23c1.11,0,2.01-3.22,2.01-7.19s-.91-7.19-2.01-7.19-2.03,3.22-2.03,7.19,.91,7.19,2.03,7.19Z"/>
  <path class="cls-18" d="M1554.64,591.23c1.11,0,2.01-3.22,2.01-7.19s-.91-7.19-2.01-7.19-2.03,3.22-2.03,7.19,.91,7.19,2.03,7.19Z"/>
  <path class="cls-18" d="M1547.48,591.23c1.12,0,2.01-3.22,2.01-7.19s-.89-7.19-2.01-7.19-2.01,3.22-2.01,7.19,.91,7.19,2.01,7.19Z"/>
  <path class="cls-18" d="M1558.51,621.13c1.12,0,2.03-3.22,2.03-7.18s-.91-7.19-2.03-7.19-2.01,3.22-2.01,7.19,.91,7.18,2.01,7.18Z"/>
  <path class="cls-18" d="M1550.88,621.13c1.12,0,2.01-3.22,2.01-7.18s-.89-7.19-2.01-7.19-2.01,3.22-2.01,7.19,.91,7.18,2.01,7.18Z"/>
  <path class="cls-18" d="M1543.73,621.13c1.11,0,2.01-3.22,2.01-7.18s-.91-7.19-2.01-7.19-2.03,3.22-2.03,7.19,.91,7.18,2.03,7.18Z"/>
  <rect class="cls-1" x="1529.48" y="631.38" width="41.38" height="3.52"/>
  <path class="cls-22" d="M1535.12,597.09h31.04v3.52h-31.04v-3.52Z"/>
  <path class="cls-1" d="M1535.12,597.09h31.04v3.52h-31.04v-3.52Z"/>
  <rect class="cls-1" x="1540.76" y="568.07" width="19.75" height="3.52"/>
  <rect class="cls-1" x="1544.53" y="546.97" width="12.23" height="3.52"/>
  <rect class="cls-22" x="1549.24" y="748.32" width=".94" height="42.2"/>
  <rect class="cls-22" x="1527.6" y="766.79" width="45.15" height=".88"/>
  <rect class="cls-22" x="1526.65" y="779.98" width="45.15" height=".88"/>
  <rect class="cls-3" x="1449.53" y="785.25" width="45.15" height=".88"/>
  <rect class="cls-3" x="1449.53" y="778.22" width="45.15" height=".88"/>
  <rect class="cls-3" x="1387.47" y="714.91" width="13.17" height="2.64"/>
  <rect class="cls-3" x="1384.64" y="790.53" width="17.87" height="2.64"/>
  <rect class="cls-3" x="1379.93" y="810.75" width="26.33" height="2.64"/>
  <rect class="cls-3" x="1537" y="810.75" width="26.33" height="2.64"/>
  <rect class="cls-22" x="1458.93" y="804.59" width="26.33" height="3.52"/>
  <rect class="cls-3" x="1540.76" y="790.53" width="17.87" height="2.64"/>
  <rect class="cls-1" x="1373.36" y="631.38" width="41.38" height="3.52"/>
  <rect class="cls-1" x="1364.89" y="668.31" width="58.31" height="3.52"/>
  <rect class="cls-1" x="1521.01" y="668.31" width="58.31" height="3.52"/>
  <rect class="cls-1" x="1379" y="597.97" width="31.04" height="3.52"/>
  <rect class="cls-1" x="1384.64" y="568.07" width="19.75" height="3.52"/>
  <rect class="cls-1" x="1388.4" y="546.97" width="12.23" height="3.52"/>
  <rect class="cls-22" x="1393.09" y="748.32" width=".94" height="42.2"/>
  <rect class="cls-22" x="1371.47" y="766.79" width="45.15" height=".88"/>
  <rect class="cls-22" x="1370.53" y="779.98" width="45.15" height=".88"/>
  <rect class="cls-22" x="1393.09" y="748.32" width=".94" height="42.2"/>
  <rect class="cls-22" x="1371.47" y="766.79" width="45.15" height=".88"/>
  <rect class="cls-22" x="1370.53" y="779.98" width="45.15" height=".88"/>
  <ellipse class="cls-18" cx="1472.09" cy="735.13" rx="1.88" ry="1.76"/>
  <rect class="cls-3" x="1431.65" y="707" width="81.83" height="8.79"/>
</svg>
