<svg width="505" height="363" viewBox="0 0 505 363" fill="none" xmlns="http://www.w3.org/2000/svg">
<path d="M417.064 261.506C417.064 261.306 416.964 261.006 416.964 260.806C416.564 259.006 415.564 257.206 413.964 256.206C412.364 255.206 410.264 254.506 408.364 255.006C403.064 256.506 397.664 257.906 392.364 259.606C391.664 259.706 390.964 260.006 390.364 260.306C399.264 260.806 408.164 261.106 417.064 261.506Z" fill="#AE794E"/>
<path d="M440.864 92.8066C427.864 72.1066 376.464 -0.593383 292.964 4.30662C191.964 10.2066 157.164 122.107 154.964 128.807C148.464 148.107 127.064 184.207 148.864 214.307C157.264 225.907 165.864 238.807 176.864 250.107C215.964 250.707 255.064 253.107 294.164 255.307C336.764 257.807 379.564 260.007 422.264 261.607C446.864 246.907 449.964 231.907 457.364 214.607C478.264 166.007 446.864 102.307 440.864 92.8066Z" fill="#AE794E"/>
<path d="M181.664 250.607C182.864 250.607 184.064 250.607 185.364 250.607C185.364 250.507 185.264 250.307 185.264 250.207C185.264 250.007 185.264 249.807 185.164 249.707C185.164 249.607 185.164 249.507 185.164 249.507C185.164 249.107 185.164 248.807 185.264 248.407C185.264 248.207 185.364 248.007 185.364 247.807V247.707C185.364 247.607 185.364 247.607 185.364 247.607C185.564 246.707 185.264 245.607 184.264 245.207C183.364 244.907 182.164 245.307 181.864 246.307C181.664 247.707 181.564 249.107 181.664 250.607Z" fill="#AE794E"/>
<path d="M178.564 250.507C180.064 250.507 181.564 250.507 183.164 250.507C182.464 249.607 181.864 248.707 181.164 247.807C180.964 247.407 180.364 247.207 179.964 247.207C179.464 247.207 178.964 247.307 178.664 247.607C178.364 247.907 178.064 248.407 178.064 248.807C178.064 249.307 178.264 249.707 178.464 250.107C178.464 250.407 178.464 250.407 178.564 250.507Z" fill="#AE794E"/>
<path d="M159.264 246.306C160.764 247.606 162.664 248.406 164.064 249.806C164.164 249.906 164.264 250.006 164.264 250.106C166.264 250.106 168.264 250.106 170.364 250.106C169.164 248.606 168.064 247.006 167.064 245.406C165.964 243.806 164.964 242.206 163.764 240.606C162.564 239.106 161.064 237.606 161.364 235.506C161.764 233.106 157.964 232.806 157.564 235.206C157.464 235.806 157.464 236.406 157.564 236.906C156.464 234.406 155.564 231.706 154.864 229.006C153.764 225.206 151.864 220.506 152.964 216.506C153.564 214.206 150.064 212.906 149.364 215.206C148.064 219.806 149.664 224.406 150.864 228.906C152.064 233.406 153.364 237.806 155.664 241.706C156.664 243.506 157.864 245.006 159.264 246.306Z" fill="#AE794E"/>
<path d="M142.064 181.407L142.464 201.607C142.564 205.007 142.564 208.307 142.664 211.707C142.764 214.907 142.764 218.107 143.364 221.207C144.464 226.507 147.364 231.107 151.064 234.907C154.764 238.707 159.364 242.807 164.464 244.907C166.664 245.907 167.964 242.307 165.764 241.307C161.064 239.307 156.764 235.407 153.264 231.607C149.764 227.807 147.464 223.607 146.764 218.607C145.964 212.707 146.264 206.507 146.164 200.607L145.764 181.707C145.864 179.207 141.964 178.907 142.064 181.407Z" fill="#AE794E"/>
<path d="M157.664 236.407C154.464 232.207 150.964 228.207 147.064 224.707C146.364 224.007 145.164 223.707 144.364 224.507C143.664 225.207 143.364 226.407 144.164 227.207C146.864 229.907 149.964 232.307 153.364 234.207C154.264 234.707 155.464 234.707 155.964 233.707C156.464 232.907 156.364 231.607 155.464 231.107C153.864 230.207 152.364 229.207 150.864 228.107C149.364 227.007 148.264 226.007 146.964 224.707L144.064 227.207C147.964 230.807 151.464 234.707 154.664 238.907C155.264 239.707 156.664 239.807 157.364 239.107C158.264 238.407 158.364 237.307 157.664 236.407Z" fill="#AE794E"/>
<path d="M144.764 223.207C144.664 224.807 144.864 226.507 145.264 228.007C145.464 229.007 146.464 229.807 147.464 229.507C148.564 229.207 149.064 228.307 148.964 227.307C148.764 224.007 148.364 220.607 147.764 217.307C147.564 216.307 146.564 215.507 145.564 215.807C144.564 216.107 143.864 217.007 144.064 218.007C144.664 221.307 145.064 224.607 145.264 228.007L148.964 227.307C148.764 226.607 148.664 225.907 148.564 225.207C148.564 225.007 148.564 224.907 148.564 224.707C148.464 224.107 148.564 225.107 148.564 224.507C148.564 224.107 148.564 223.807 148.564 223.407C148.564 222.407 147.864 221.407 146.764 221.407C145.764 221.507 144.764 222.207 144.764 223.207Z" fill="#AE794E"/>
<path d="M431.264 255.706C432.464 255.906 433.164 255.006 433.964 254.306C434.564 253.806 435.164 253.406 435.764 253.006C436.964 252.206 438.064 251.406 438.864 250.106C439.064 249.706 439.264 249.206 439.164 248.706C439.064 248.306 438.764 247.806 438.364 247.506C437.564 247.006 436.364 247.106 435.764 248.006C435.564 248.306 435.464 248.506 435.164 248.806L435.464 248.506C434.764 249.306 433.964 249.806 433.164 250.406C432.764 250.706 432.264 251.106 431.864 251.406C431.664 251.606 431.464 251.806 431.264 251.906C431.064 252.006 430.864 252.306 430.664 252.506L431.064 252.306C431.064 252.306 430.964 252.306 430.964 252.406L431.364 252.206H431.264H431.764C431.764 252.206 431.664 252.206 431.564 252.206C431.164 252.106 430.564 252.406 430.264 252.606C429.964 252.806 429.664 253.406 429.664 253.806C429.664 254.206 429.764 254.806 430.064 255.106C430.364 255.406 430.764 255.706 431.264 255.706Z" fill="#AE794E"/>
<path d="M432.164 255.706C432.164 255.606 432.264 255.606 432.264 255.506L431.964 255.806C432.064 255.706 432.164 255.606 432.364 255.506L431.964 255.706C432.364 255.506 432.764 255.306 433.164 255.106C433.664 254.806 434.264 254.506 434.764 254.106C435.564 253.506 436.264 252.906 436.964 252.206C437.364 251.906 437.564 251.406 437.564 251.006C437.564 250.506 437.464 250.006 437.164 249.706C436.864 249.406 436.364 249.106 435.964 249.106C435.564 249.106 434.964 249.206 434.664 249.506C433.764 250.306 432.864 251.206 431.864 251.806L432.264 251.606C431.264 252.306 430.064 252.606 429.264 253.706C428.664 254.506 428.864 255.706 429.764 256.206C430.664 256.706 431.564 256.606 432.164 255.706Z" fill="#AE794E"/>
<path d="M202.464 50.8063C189.564 58.6063 175.564 67.3063 170.564 82.3063C169.764 84.6063 173.364 85.9063 174.164 83.6063C178.864 69.5063 192.164 61.4063 204.164 54.2063C206.264 53.0063 204.664 49.6063 202.464 50.8063Z" fill="#AE794E"/>
<path d="M190.364 51.1067C186.964 59.7067 183.464 68.3067 179.864 76.9067C179.064 78.9067 182.164 80.5067 183.164 78.6067C188.664 67.9067 194.164 57.3067 199.664 46.6067L196.364 44.9067C193.864 53.5067 190.364 61.7067 185.864 69.4067L189.164 71.1067C192.064 63.8067 195.164 56.6067 198.564 49.6067C199.564 47.6067 196.464 46.2067 195.264 47.9067C185.064 61.3067 176.464 75.9067 169.664 91.4067L173.364 92.2067C173.464 85.9067 174.864 79.8067 177.664 74.2067L174.064 72.9067C170.864 81.9067 166.364 90.5067 160.764 98.2067C155.664 105.207 148.664 111.807 148.264 121.007C148.164 122.807 150.664 123.907 151.764 122.207C157.764 112.307 163.064 101.907 167.664 91.3067L163.964 90.5067C162.164 100.507 158.864 110.107 154.164 119.107C153.064 121.207 155.764 123.307 157.264 121.307C165.564 110.407 172.864 98.8067 179.064 86.6067L175.364 85.8067C173.564 96.3067 167.764 105.907 159.264 112.407L162.264 114.507C164.164 105.707 166.064 97.0067 167.964 88.2067C168.364 86.3067 165.764 84.4067 164.664 86.5067C158.564 97.0067 153.664 108.207 150.564 119.907L154.164 121.207C156.464 112.207 160.564 104.007 166.364 96.7067L162.864 95.5067C162.864 101.607 161.264 107.407 157.864 112.507L161.164 114.207C163.064 105.907 166.064 97.9067 170.264 90.5067L166.764 89.3067C165.164 99.6067 161.564 109.607 156.164 118.607L159.464 120.307C162.864 108.307 167.964 96.9067 174.464 86.3067L170.964 85.1067C168.064 99.0067 162.764 112.307 155.364 124.507L158.664 126.207C160.664 120.307 162.664 114.407 164.664 108.507C165.364 106.407 162.664 105.107 161.364 106.807C154.364 115.507 149.064 125.607 145.964 136.407C145.364 138.407 148.164 140.007 149.264 138.107C153.864 130.807 158.464 123.507 163.064 116.207L159.964 114.007C156.264 120.207 152.664 126.407 148.964 132.607L152.364 133.307C151.864 131.807 151.864 130.407 152.664 129.107L149.364 127.407C146.364 135.607 143.264 143.707 140.264 151.807L143.964 152.607C144.064 147.907 144.864 143.407 146.364 139.007L142.664 138.207C141.964 146.207 140.664 154.107 138.764 162.007L142.464 162.807C142.264 157.207 144.064 151.607 147.964 147.507L144.864 145.907C144.564 150.907 143.664 155.707 142.164 160.507L145.864 161.307C148.464 147.307 155.164 134.107 164.964 123.807L161.964 121.707C158.264 130.307 153.364 138.207 147.364 145.307C145.764 147.207 148.964 149.307 150.464 147.507C156.664 140.107 161.764 131.807 165.564 123.007C166.264 121.307 163.864 119.507 162.564 120.907C151.964 132.007 144.864 145.907 142.164 161.007C141.764 163.107 145.264 163.807 145.864 161.807C147.464 156.707 148.364 151.507 148.764 146.207C148.864 144.707 146.764 143.407 145.664 144.607C141.164 149.407 138.564 155.807 138.864 162.507C138.864 163.507 139.364 164.307 140.364 164.507C141.164 164.707 142.364 164.207 142.564 163.307C144.564 155.207 145.964 146.907 146.664 138.507C146.864 136.407 143.664 135.707 142.964 137.707C141.364 142.407 140.464 147.307 140.364 152.307C140.364 154.407 143.264 155.107 144.064 153.107C147.064 144.907 150.164 136.807 153.164 128.707C153.864 126.707 150.864 125.107 149.864 127.007C148.664 129.207 148.164 131.707 148.964 134.107C149.364 135.507 151.464 136.407 152.364 134.807C156.064 128.607 159.664 122.407 163.364 116.207C164.564 114.107 161.564 112.007 160.264 114.007C155.664 121.307 151.064 128.607 146.464 135.907L149.764 137.607C152.764 127.107 157.764 117.407 164.664 108.907L161.364 107.207C159.364 113.107 157.364 119.007 155.364 124.907C154.664 126.907 157.564 128.507 158.664 126.607C166.464 113.907 171.864 100.007 174.964 85.4067C175.364 83.5067 172.464 82.6067 171.464 84.2067C164.764 95.1067 159.464 106.807 155.964 119.107C155.364 121.107 158.164 122.807 159.264 120.807C164.964 111.207 168.764 100.707 170.564 89.7067C170.864 87.9067 168.064 86.8067 167.064 88.5067C162.664 96.2067 159.464 104.507 157.464 113.107C157.064 115.007 159.564 116.807 160.764 114.807C164.464 109.207 166.464 102.607 166.364 95.9067C166.364 94.0067 164.164 93.2067 162.864 94.7067C156.964 102.107 152.564 110.807 150.264 120.007C149.664 122.307 153.264 123.707 153.864 121.307C156.864 109.907 161.564 99.0067 167.464 88.8067L164.164 87.1067C162.264 95.9067 160.364 104.607 158.464 113.407C158.064 115.207 159.864 116.707 161.464 115.507C170.764 108.407 176.864 97.8067 178.864 86.3067C179.064 85.4067 178.164 84.5067 177.364 84.3067C176.364 84.1067 175.664 84.6067 175.164 85.5067C169.064 97.4067 161.864 108.707 153.764 119.307L156.864 121.507C161.964 111.907 165.464 101.707 167.364 91.1067C167.764 88.9067 164.464 88.5067 163.664 90.3067C159.164 100.707 154.064 110.707 148.264 120.407L151.764 121.607C152.064 112.707 159.764 106.107 164.564 99.3067C169.964 91.7067 174.264 83.3067 177.364 74.5067C178.164 72.1067 174.864 71.1067 173.764 73.2067C170.864 79.1067 169.264 85.6067 169.264 92.2067C169.264 94.4067 172.064 95.0067 172.964 93.0067C179.664 77.9067 188.164 63.6067 198.164 50.4067L194.864 48.7067C191.464 55.8067 188.364 62.9067 185.464 70.2067C184.664 72.2067 187.664 73.8067 188.764 71.9067C193.464 63.9067 197.164 55.4067 199.764 46.5067C200.364 44.6067 197.464 42.7067 196.464 44.8067C190.964 55.5067 185.464 66.1067 179.964 76.8067L183.264 78.5067C186.864 70.0067 190.364 61.4067 193.764 52.7067C194.864 50.1067 191.264 48.8067 190.364 51.1067Z" fill="#AE794E"/>
<path d="M145.964 134.407C142.264 137.907 140.664 142.607 139.664 147.507C138.464 153.207 137.564 158.907 136.464 164.607C135.964 167.507 135.164 170.607 135.364 173.607C135.564 176.407 136.464 179.007 137.164 181.607C138.964 187.607 140.764 193.607 142.564 199.507C143.264 201.807 146.964 201.107 146.264 198.807C144.564 193.207 142.864 187.607 141.264 182.007C140.564 179.507 139.664 177.107 139.264 174.507C138.864 171.707 139.564 168.807 140.064 166.107C141.064 160.607 141.964 155.207 143.064 149.707C143.864 145.207 145.064 140.507 148.464 137.207C150.264 135.707 147.764 132.807 145.964 134.407Z" fill="#AE794E"/>
<path d="M148.864 178.606C146.764 176.006 144.464 173.306 143.864 169.906C143.364 167.306 144.064 164.506 146.264 163.006L143.264 160.906C142.364 165.006 140.864 169.007 138.964 172.807L142.664 173.106C142.064 171.406 141.964 169.706 142.364 167.906L138.564 168.106C138.964 171.106 139.364 174.106 139.764 177.106C140.064 179.206 143.464 179.006 143.564 176.906C143.564 175.406 143.564 174.006 143.664 172.506L139.864 172.206C139.964 174.706 140.164 177.207 140.264 179.807L144.064 179.606C143.564 176.906 143.964 174.206 145.064 171.706C145.464 170.706 144.864 169.607 143.864 169.307C142.864 168.907 141.864 169.506 141.464 170.506C140.064 173.606 139.764 177.106 140.364 180.406C140.564 181.306 141.464 182.006 142.364 181.906C143.164 181.806 144.164 181.106 144.164 180.206C144.064 177.706 143.864 175.206 143.764 172.606C143.764 171.606 143.164 170.606 141.964 170.606C140.964 170.506 139.964 171.306 139.964 172.406C139.964 173.906 139.964 175.307 139.864 176.807L143.664 176.606C143.264 173.606 142.864 170.606 142.464 167.606C142.364 166.706 141.364 166.006 140.464 166.106C139.464 166.206 138.864 166.907 138.664 167.807C138.264 169.907 138.464 172.006 139.064 174.006C139.664 175.806 141.864 176.007 142.764 174.307C144.664 170.507 146.064 166.506 147.064 162.406C147.464 160.506 145.664 159.207 144.064 160.307C140.864 162.407 139.764 166.607 140.264 170.307C140.864 174.507 143.664 178.006 146.264 181.206C147.464 183.006 150.364 180.506 148.864 178.606Z" fill="#AE794E"/>
<path d="M149.264 213.406C146.864 216.006 146.964 219.906 148.964 222.706C149.464 223.506 150.764 223.506 151.464 223.006C152.264 222.406 152.464 221.506 152.164 220.606C150.764 216.806 149.364 213.106 147.964 209.306C147.664 208.406 146.464 208.106 145.664 208.306C144.664 208.606 144.364 209.506 144.364 210.506C144.564 213.306 144.964 216.006 145.564 218.706C146.064 221.206 146.664 224.006 147.964 226.206C149.264 228.406 151.264 229.806 153.164 231.406C155.464 233.206 157.764 235.106 160.064 236.906C161.864 238.306 163.764 235.706 162.564 234.106C159.064 229.206 156.164 224.006 153.864 218.406L150.664 220.506C151.964 222.306 152.964 224.406 153.664 226.506C153.964 227.506 155.364 227.806 156.164 227.406C157.164 226.906 157.364 225.806 157.064 224.906C156.264 222.406 155.064 220.206 153.564 218.106C152.264 216.306 149.664 218.306 150.364 220.206C152.764 226.106 155.864 231.606 159.564 236.706L162.064 233.906C160.064 232.306 157.964 230.606 155.964 229.006C154.264 227.606 152.164 226.306 151.064 224.306C149.964 222.306 149.564 219.906 149.064 217.606C148.564 215.006 148.164 212.506 147.964 209.906L144.364 211.106C145.764 214.906 147.164 218.606 148.564 222.406L151.764 220.306C150.764 218.806 151.164 216.806 152.364 215.606C153.064 214.806 152.664 213.506 151.864 213.006C150.964 212.306 149.964 212.706 149.264 213.406Z" fill="#AE794E"/>
<path d="M162.164 230.407C160.664 227.307 158.464 224.707 155.964 222.407C154.764 221.307 152.564 222.807 153.064 224.307C154.164 228.507 155.764 232.607 157.764 236.507L160.064 233.907C158.664 233.307 157.364 232.207 156.564 230.907L153.364 233.007C156.064 235.907 158.564 239.007 160.764 242.207C161.364 243.007 162.764 243.007 163.464 242.407C164.264 241.707 164.264 240.607 163.664 239.707C161.464 236.507 158.964 233.407 156.264 230.507C155.564 229.807 154.564 229.607 153.764 230.207C153.064 230.707 152.564 231.807 153.064 232.607C154.364 234.807 156.264 236.507 158.664 237.507C160.164 238.107 161.764 236.307 160.964 234.907C159.164 231.307 157.664 227.507 156.564 223.607L153.664 225.507C155.764 227.307 157.364 229.607 158.664 232.107C159.864 234.207 163.264 232.607 162.164 230.407Z" fill="#AE794E"/>
<path d="M159.464 235.606C160.264 236.906 161.064 238.206 161.964 239.406C161.264 241.906 161.664 244.706 163.064 246.906C163.964 248.306 165.264 249.406 166.764 250.106C170.264 250.106 173.864 250.206 177.364 250.206C176.464 248.906 175.564 247.506 174.864 246.106C174.864 246.106 174.964 246.106 174.964 246.006C175.764 245.406 175.864 244.106 175.164 243.306C174.064 242.106 172.864 240.906 171.764 239.706C170.564 238.506 168.964 239.206 168.564 240.406C167.964 239.006 167.464 237.506 166.964 236.106C166.764 235.506 165.964 235.106 165.364 235.006C164.764 235.006 164.364 235.206 163.864 235.506C163.464 234.906 163.064 234.306 162.764 233.706C162.264 232.806 161.164 232.406 160.264 232.806C159.464 233.406 158.964 234.706 159.464 235.606Z" fill="#AE794E"/>
<path d="M177.564 246.007L177.664 246.107C177.564 246.107 177.564 246.107 177.564 246.007Z" fill="#AE794E"/>
<path d="M183.364 245.707C183.064 245.507 182.864 245.307 182.564 245.107L182.364 244.907C182.364 244.907 182.664 245.207 182.464 245.007C182.364 244.907 182.264 244.807 182.164 244.707C181.964 244.507 181.764 244.207 181.564 244.007C181.464 243.907 181.364 243.707 181.264 243.607C181.664 244.107 181.264 243.607 181.164 243.507C180.964 243.207 180.864 242.907 180.764 242.707C180.664 242.607 180.664 242.407 180.564 242.307C180.564 242.207 180.564 242.107 180.464 242.107C180.364 241.807 180.564 242.407 180.464 242.207C180.264 241.607 180.164 240.907 180.064 240.307C180.064 239.907 179.664 239.407 179.264 239.107C178.864 238.807 178.264 238.707 177.864 238.807C177.464 238.907 176.964 239.107 176.664 239.607C176.364 240.107 176.364 240.507 176.364 241.007C176.564 244.107 178.464 247.107 181.064 248.807C181.864 249.307 183.064 249.207 183.564 248.307C184.064 247.407 184.164 246.307 183.364 245.707Z" fill="#AE794E"/>
<path d="M153.664 161.007C154.164 174.507 155.464 187.907 157.864 201.207C158.964 207.307 160.264 213.407 161.964 219.307C163.064 223.207 164.364 226.607 166.764 229.807C167.864 231.407 169.264 232.707 170.764 233.907C171.264 234.307 171.864 234.907 172.364 235.207C171.264 234.107 170.964 233.907 171.664 234.707C170.864 233.307 170.564 233.007 170.964 233.907L170.164 231.607C170.264 231.907 170.364 232.207 170.364 232.507L170.164 230.007C170.164 230.307 170.164 230.607 170.064 230.907L170.564 228.407L170.364 228.807L171.464 226.607L172.564 225.507C173.964 224.707 174.364 224.407 173.664 224.707C173.364 224.807 172.964 225.007 172.664 225.107L174.964 224.307C173.764 224.707 172.564 224.907 171.364 225.007L173.864 224.807C172.664 224.807 171.364 224.707 170.164 224.507L172.664 225.007C171.264 224.707 169.964 224.207 168.764 223.607L170.964 224.707C170.264 224.307 169.464 223.907 168.864 223.407C168.564 223.207 168.264 222.907 167.864 222.607C169.964 224.107 169.064 223.807 168.464 223.107C168.164 222.807 167.964 222.507 167.664 222.107C166.664 220.907 168.864 224.207 168.064 222.807C167.664 221.907 167.264 221.107 166.964 220.207L167.764 222.507C166.364 218.007 166.064 213.107 165.564 208.407C165.064 203.407 164.564 198.407 164.364 193.407L164.564 195.907C164.164 188.607 163.964 181.207 164.164 173.907C164.264 168.907 160.764 163.907 155.464 163.707C150.564 163.507 145.364 167.107 145.264 172.407C144.964 188.307 145.864 204.407 148.064 220.107C149.164 227.907 152.264 235.307 159.164 239.607C166.064 243.907 174.764 245.007 182.164 241.407C189.564 237.807 191.164 227.607 185.464 221.607C184.464 220.507 183.164 219.407 181.864 218.507C181.264 218.007 181.164 217.507 182.564 219.207C182.264 218.907 181.964 218.507 181.564 218.207C180.564 217.107 182.064 219.107 182.064 219.107C181.764 218.807 181.564 218.207 181.364 217.907C180.964 217.007 180.564 216.107 180.264 215.207L181.064 217.507C178.364 209.407 176.864 200.807 175.564 192.407C174.264 184.007 173.164 174.807 172.664 165.907L172.864 168.407C172.764 166.407 172.664 164.407 172.564 162.407C172.464 159.807 172.064 157.607 170.264 155.507C168.764 153.707 166.164 152.307 163.764 152.207C161.364 152.107 158.664 152.707 156.864 154.507C155.264 156.107 153.664 158.507 153.664 161.007Z" fill="#AE794E"/>
<path d="M318.964 197.307C320.064 198.507 320.464 200.007 320.964 201.507C321.564 203.307 322.464 204.907 323.564 206.507C325.964 209.807 328.864 212.807 331.564 216.007C332.964 217.607 335.664 215.907 334.764 213.907C332.364 209.007 329.964 204.107 327.564 199.207L324.164 200.907C325.764 203.407 327.864 205.407 329.764 207.607C331.264 209.407 332.864 211.607 332.964 214.107C332.964 215.107 333.664 216.107 334.764 216.107C335.664 216.207 336.864 215.407 336.764 214.307C336.664 211.207 335.364 208.407 333.464 206.007C331.564 203.507 329.264 201.707 327.664 199.307C327.064 198.407 326.164 197.907 325.164 198.407C324.264 198.907 323.864 200.007 324.264 200.907C326.664 205.807 329.064 210.707 331.464 215.607L334.664 213.507C331.964 210.407 329.064 207.407 326.664 204.007C325.664 202.707 325.064 201.207 324.464 199.707C323.864 197.907 323.264 196.207 321.964 194.907C321.264 194.207 320.064 194.007 319.264 194.707C318.464 195.207 318.264 196.507 318.964 197.307Z" fill="#AE794E"/>
<path d="M318.964 197.707C321.364 196.907 323.864 198.707 325.264 200.607C326.964 202.807 328.064 205.707 329.164 208.307C331.864 214.407 334.564 220.407 337.264 226.507C338.264 228.707 341.664 227.107 340.664 224.807C337.564 217.807 334.464 210.707 331.264 203.607C329.964 200.807 328.564 198.007 326.064 196.007C323.664 194.007 320.264 193.207 317.164 194.307C316.164 194.607 315.864 196.007 316.264 196.807C316.964 197.907 318.064 198.107 318.964 197.707Z" fill="#AE794E"/>
<path d="M188.588 52.1108C168.988 53.8108 152.488 45.0108 148.788 32.2108C144.588 17.5108 158.088 0.310814 167.888 0.010814C182.488 -0.489186 190.488 37.0108 191.388 41.5108" fill="#362218"/>
<path d="M255.564 14.6063C255.364 14.7063 255.164 15.0063 254.864 15.1063C256.064 14.6063 255.364 14.8063 255.064 14.9063C254.564 15.2063 254.164 15.4063 253.664 15.7063C252.664 16.2063 251.764 16.6063 250.764 17.0063C249.764 17.4063 250.864 17.0063 251.064 16.9063C250.864 17.0063 250.564 17.1063 250.264 17.1063C249.764 17.2063 249.264 17.4063 248.664 17.5063C247.564 17.8063 246.464 18.0063 245.464 18.2063C240.964 19.1063 236.364 19.4063 231.864 20.1063C227.364 20.8063 222.664 21.7063 218.364 23.7063C213.264 26.0063 209.664 29.8063 206.564 34.4063C205.664 35.7063 204.764 36.9063 203.764 38.2063C204.364 37.6063 203.264 38.9063 203.764 38.2063C203.464 38.5063 203.164 38.8063 202.864 39.1063C202.364 39.6063 201.764 40.1063 201.164 40.6063C200.564 41.1063 199.964 41.5063 199.364 42.0063C199.564 41.9063 200.264 41.5063 199.264 42.0063C198.864 42.2063 198.564 42.4063 198.164 42.6063C196.764 43.4063 195.264 44.0063 193.664 44.6063L200.864 53.0063C201.064 52.7063 201.364 52.4063 201.664 52.2063C201.364 52.5063 201.364 52.5063 201.664 52.2063C202.064 51.7063 202.564 51.2063 202.964 50.7063C203.764 49.9063 204.564 49.1063 205.264 48.3063C206.964 46.6063 208.764 44.9063 210.564 43.2063C214.264 39.9063 218.064 36.8063 222.064 33.8063C224.364 32.1063 224.564 28.6063 223.064 26.4063C221.464 24.0063 218.464 23.2063 215.864 24.4063C207.064 28.3063 200.164 35.0063 193.864 42.2063C187.664 49.4063 180.664 57.5063 175.564 66.0063C173.064 70.1063 171.064 74.7063 167.964 78.5063C167.764 78.7063 166.764 79.9063 167.364 79.2063C166.964 79.6063 166.664 80.0063 166.264 80.4063C165.264 81.5063 164.164 82.7063 163.164 83.8063C161.464 85.8063 160.164 88.2063 159.164 90.6063C157.164 95.3063 155.864 100.406 154.364 105.306C152.664 110.606 151.064 115.806 149.364 121.106C147.664 126.406 145.564 131.406 145.164 136.706C144.764 142.006 146.364 147.606 151.264 150.106C153.864 151.506 157.364 151.506 159.164 148.706C160.664 146.406 160.564 142.206 157.764 140.806C157.464 140.606 157.064 140.406 156.764 140.206C157.564 141.106 155.664 139.606 156.764 140.206C157.164 141.306 155.964 139.306 156.764 140.206C156.264 139.006 156.764 140.306 156.764 140.306C156.764 140.306 156.564 139.306 156.564 139.206C156.464 139.206 156.364 137.906 156.564 139.206C156.364 139.106 156.764 136.706 156.764 136.406C156.764 136.106 156.764 135.506 156.964 135.206C156.364 136.406 156.864 135.706 156.964 135.106C157.164 134.206 157.464 133.306 157.764 132.406C158.564 129.806 159.364 127.206 160.164 124.606C161.764 119.606 163.264 114.706 164.864 109.706C166.264 105.106 167.564 100.406 169.264 95.9063C169.464 95.4063 169.664 94.9063 169.864 94.4063C169.864 94.3063 170.664 92.7063 170.164 93.7063C170.664 92.7063 171.264 91.8063 171.964 91.0063C172.264 90.6063 172.664 90.2063 172.964 89.8063C174.064 88.5063 172.264 90.6063 173.464 89.3063C174.564 88.2063 175.564 87.0063 176.664 85.9063C179.764 82.4063 181.764 78.2063 184.064 74.2063C188.764 66.0063 194.964 58.7063 200.964 51.6063C201.764 50.7063 202.464 49.8063 203.264 48.9063C203.564 48.5063 203.964 48.1063 204.264 47.8063C204.664 47.3063 204.664 47.3063 204.264 47.8063C204.464 47.6063 204.764 47.3063 204.964 47.0063C206.564 45.3063 208.264 43.6063 209.964 42.0063C211.664 40.4063 213.564 39.0063 215.464 37.6063C216.864 36.6063 214.464 38.1063 215.964 37.3063C216.564 37.0063 217.164 36.6063 217.764 36.3063C218.764 35.7063 219.864 35.2063 220.964 34.7063L214.764 25.2063C206.264 31.4063 198.664 38.6063 191.664 46.5063C190.064 48.3063 190.464 51.8063 192.064 53.5063C193.964 55.5063 196.364 55.8063 198.864 54.9063C204.664 52.9063 209.764 49.1063 213.664 44.3063C215.464 42.1063 216.964 39.5063 218.864 37.3063C218.264 38.1063 219.364 36.8063 219.564 36.7063C219.964 36.3063 220.364 36.0063 220.764 35.7063C220.964 35.6063 222.164 34.7063 221.464 35.2063C220.764 35.6063 221.464 35.2063 221.664 35.1063C221.964 34.9063 222.264 34.8063 222.464 34.6063C223.364 34.1063 224.364 33.7063 225.264 33.3063C225.464 33.2063 225.864 33.0063 225.964 33.0063C225.864 33.0063 224.664 33.4063 225.664 33.1063C226.264 32.9063 226.764 32.8063 227.364 32.6063C229.464 32.1063 231.664 31.7063 233.864 31.4063C238.364 30.8063 242.964 30.4063 247.464 29.5063C253.164 28.5063 258.464 26.6063 263.164 23.2063C265.564 21.5063 265.764 17.3063 263.764 15.2063C261.364 12.8063 258.164 12.8063 255.564 14.6063Z" fill="#AE794E"/>
<path d="M177.964 95.6058C178.064 93.1058 178.364 90.7057 178.764 88.2057C178.964 87.0057 178.564 88.8058 178.864 87.5058C178.964 87.0058 179.164 86.4058 179.264 85.9058C179.564 84.8058 179.864 83.7057 180.264 82.7057C180.964 80.4057 181.864 78.2058 182.864 76.0058C183.264 75.0058 183.764 74.0058 184.264 73.0058C184.864 71.8058 183.964 73.5058 184.564 72.4058C184.864 71.9058 185.164 71.3057 185.464 70.7057C187.764 66.6057 190.264 62.7058 193.164 59.0058C194.564 57.2058 195.964 55.4057 197.564 53.7057C198.764 52.4057 196.864 54.5057 198.064 53.2057C198.464 52.8057 198.764 52.4058 199.164 52.0058C200.064 51.1058 200.964 50.2058 201.864 49.4058C204.064 47.3058 204.664 43.7058 202.464 41.4058C200.464 39.3058 196.764 38.6058 194.464 40.8058C187.164 47.8058 180.864 55.9058 175.964 64.8058C171.064 73.7058 167.164 84.2058 166.664 94.9058C166.564 97.9058 168.764 100.906 171.864 101.006C174.964 101.106 177.864 98.8058 177.964 95.6058Z" fill="#AE794E"/>
<path d="M228.264 30.0063C228.564 29.6063 228.764 29.3063 229.064 29.0063C229.764 28.1063 228.464 29.5063 229.264 28.8063C230.064 28.1063 230.764 27.4063 231.564 26.7063C231.864 26.4063 232.264 26.2063 232.564 25.9063C232.964 25.6063 233.664 25.2063 232.764 25.7063C233.664 25.2063 234.564 24.6063 235.464 24.1063C237.264 23.2063 239.064 22.4063 240.964 21.7063C241.364 21.6063 242.264 21.3063 241.364 21.6063C241.864 21.5063 242.264 21.3063 242.764 21.2063C243.864 20.9063 244.864 20.6063 245.964 20.3063C255.264 17.9063 264.964 16.6063 274.364 14.9063C280.464 13.8063 286.564 12.7063 292.664 11.6063C295.564 11.1063 297.864 7.90633 297.164 4.90633C296.464 1.90633 293.664 -0.193672 290.464 0.406328C279.364 2.40633 268.164 4.40633 257.064 6.40633C248.164 8.00633 239.064 9.60632 230.864 13.7063C226.164 16.1063 221.964 19.3063 218.764 23.6063C216.964 26.0063 217.664 29.9063 220.164 31.5063C222.964 33.1063 226.264 32.5063 228.264 30.0063Z" fill="#AE794E"/>
<path d="M283.764 18.1062C284.364 17.7062 284.864 17.3062 285.464 16.9062C285.764 16.7062 286.064 16.5062 286.364 16.3062C285.864 16.6062 285.864 16.6062 286.464 16.2062C287.464 15.5062 288.564 14.9062 289.664 14.3062C290.764 13.7062 291.864 13.2062 292.964 12.7062C293.164 12.6062 295.164 12.0062 294.064 12.3062C294.564 12.2062 295.064 12.0062 295.564 11.9062C297.264 11.5062 297.964 11.5062 299.164 11.5062C300.564 11.5062 301.964 11.7062 303.364 11.9062C304.064 12.0062 304.164 12.0062 303.664 11.9062C304.064 12.0062 304.464 12.1062 304.864 12.2062C305.464 12.3062 306.064 12.5062 306.664 12.7062C308.164 13.1062 309.564 13.6062 311.064 14.1062C322.764 17.8062 334.464 21.6062 346.164 25.3062L350.064 14.6062C336.164 10.6062 322.164 6.70618 308.264 2.70618L307.464 13.7062C309.664 13.2062 311.964 12.8062 314.264 12.7062C313.164 12.8062 314.964 12.7062 315.064 12.7062C315.664 12.7062 316.164 12.7062 316.764 12.7062C317.864 12.7062 319.064 12.8062 320.164 12.9062C321.264 13.0062 322.464 13.2062 323.564 13.4062C322.564 13.2062 324.064 13.5062 324.264 13.6062C324.764 13.7062 325.164 13.8062 325.664 14.0062C327.864 14.6062 330.064 15.5062 332.164 16.4062C340.964 20.2062 349.464 24.8062 358.064 29.1062L357.464 18.6062C357.264 18.7062 356.864 18.9062 356.664 19.0062C356.964 18.8062 357.464 18.8062 356.764 19.0062C356.564 19.0062 355.364 19.2062 356.164 19.1062C356.964 19.0062 355.964 19.1062 355.764 19.1062C355.464 19.1062 355.164 19.0062 354.864 19.0062C354.064 18.9062 355.664 19.3062 354.964 19.0062C354.664 18.9062 354.364 18.8062 354.064 18.7062C353.764 18.6062 352.964 18.0062 353.964 18.7062C353.364 18.3062 352.764 17.9062 352.264 17.5062C351.864 17.2062 351.764 17.1062 352.164 17.5062C351.964 17.3062 351.664 17.0062 351.464 16.8062C350.364 15.7062 349.464 14.5062 348.564 13.3062L346.764 22.1062C347.364 21.8062 347.264 21.7062 346.264 22.0062C345.764 22.2062 345.164 22.2062 344.664 22.0062C343.564 21.7062 344.464 21.9062 344.864 22.2062C345.664 22.8062 344.664 21.9062 345.064 22.3062C345.364 22.6062 345.664 23.0062 345.964 23.3062C347.164 24.6062 348.564 25.8062 349.964 26.9062C352.764 28.9062 355.964 30.4062 359.064 31.8062C360.464 32.4062 361.864 33.1062 363.264 33.7062C363.964 34.0062 364.664 34.4062 365.364 34.7062C365.764 34.9062 364.364 34.1062 365.564 34.8062C365.864 35.0062 366.164 35.1062 366.464 35.3062C367.764 36.0062 368.864 36.9062 370.064 37.8062C371.064 38.5062 369.364 37.0062 370.164 37.8062C370.464 38.1062 370.664 38.3062 370.964 38.6062C371.264 38.9062 371.464 39.2062 371.664 39.5062C372.364 40.4062 371.064 38.5062 371.764 39.6062L381.264 33.4062C375.764 26.0062 367.964 20.5062 359.464 17.3062C356.664 16.2062 353.064 17.8062 352.164 20.7062C351.264 23.6062 352.564 26.9062 355.564 28.0062C356.564 28.4062 357.464 28.8062 358.464 29.2062C358.964 29.4062 359.364 29.6062 359.864 29.9062C359.164 29.5062 359.764 29.9062 360.164 30.1062C361.864 31.1062 363.564 32.1062 365.164 33.3062C365.964 33.8062 366.664 34.4062 367.364 35.0062C367.664 35.3062 368.164 35.8062 367.564 35.2062C367.964 35.6062 368.264 35.9062 368.664 36.2062C370.064 37.6062 371.364 39.1062 372.564 40.8062C374.264 43.1062 377.764 43.3062 379.964 41.8062C382.164 40.3062 383.464 37.0062 381.964 34.6062C377.764 27.4062 370.364 24.4062 363.064 21.1062C362.264 20.7062 361.564 20.4062 360.764 20.0062C360.164 19.7062 359.764 19.6062 360.564 19.9062C360.164 19.7062 359.764 19.4062 359.264 19.2062C358.464 18.8062 357.764 18.3062 357.064 17.8062C356.464 17.4062 355.464 16.9062 355.164 16.3062C355.764 16.8062 355.864 16.9062 355.364 16.5062L355.064 16.2062C354.764 15.8062 354.364 15.5062 354.064 15.1062C353.164 14.1062 352.164 13.1062 351.064 12.4062C348.364 10.6062 344.764 9.80621 341.864 11.6062C338.664 13.7062 337.564 17.2062 340.064 20.4062C342.764 23.9062 345.664 27.1062 349.764 28.9062C353.864 30.7062 358.764 30.8062 362.564 28.6062C364.564 27.4062 365.864 25.6062 365.764 23.1062C365.664 20.7062 364.164 19.1062 362.064 18.1062C357.464 15.8062 352.764 13.5062 348.164 11.2062C343.864 9.10618 339.564 6.8062 335.064 5.0062C325.664 1.1062 315.264 0.00618649 305.264 2.30619C302.864 2.80619 300.764 4.9062 300.664 7.5062C300.564 9.9062 301.964 12.6062 304.464 13.3062C318.364 17.3062 332.364 21.2062 346.264 25.2062C349.164 26.0062 352.564 24.8062 353.564 21.8062C354.464 18.9062 353.164 15.5062 350.164 14.5062C337.664 10.5062 325.264 6.4062 312.764 2.5062C306.364 0.506199 299.464 -0.993813 292.864 0.806186C286.864 2.40619 281.764 5.80619 276.664 9.30619C274.164 11.0062 274.064 15.2062 276.064 17.3062C278.164 19.9062 281.264 19.9062 283.764 18.1062Z" fill="#AE794E"/>
<path d="M349.935 168.519C358.261 166.787 362.395 152.804 359.168 137.286C355.941 121.769 346.575 110.593 338.248 112.325C329.922 114.056 325.788 128.04 329.015 143.557C332.242 159.075 341.608 170.251 349.935 168.519Z" fill="#201614"/>
<path d="M229.204 139.465C231.916 125.307 228.177 112.692 220.854 111.29C213.531 109.888 205.396 120.228 202.685 134.386C199.974 148.544 203.712 161.158 211.035 162.561C218.358 163.963 226.493 153.623 229.204 139.465Z" fill="#201614"/>
<path d="M348.686 130.484C352.275 130.42 355.154 128.667 355.117 126.569C355.08 124.471 352.14 122.821 348.551 122.885C344.962 122.949 342.082 124.702 342.12 126.8C342.157 128.898 345.097 130.548 348.686 130.484Z" fill="white"/>
<path d="M223.93 127.914C227.078 127.866 229.606 126.305 229.578 124.428C229.549 122.55 226.974 121.067 223.827 121.115C220.679 121.162 218.15 122.723 218.179 124.601C218.207 126.478 220.782 127.962 223.93 127.914Z" fill="white"/>
<path d="M412 58.1287C431.7 57.6287 447.1 47.1287 449.3 33.9287C451.9 18.8287 436.5 3.32871 426.8 4.02871C412.2 5.22871 408.4 43.3287 408 47.9287" fill="#362218"/>
<path d="M327.564 234.606C318.264 251.106 293.364 251.706 280.864 251.706C269.064 251.706 242.664 250.406 232.064 232.406C224.564 219.706 227.264 207.906 228.964 204.206C236.264 187.506 255.864 173.406 279.064 174.106C307.164 175.006 321.764 196.906 323.864 200.106C326.664 204.406 335.864 220.106 327.564 234.606Z" fill="#746155"/>
<path d="M320.064 213.006C321.964 213.006 321.964 210.006 320.064 210.006C318.164 210.006 318.164 213.006 320.064 213.006Z" fill="#201614"/>
<path d="M316.064 223.806C317.964 223.806 317.964 220.806 316.064 220.806C314.164 220.806 314.164 223.806 316.064 223.806Z" fill="#201614"/>
<path d="M233.264 207.506C235.164 207.506 235.164 204.506 233.264 204.506C231.364 204.506 231.264 207.506 233.264 207.506Z" fill="#201614"/>
<path d="M235.464 217.606C237.364 217.606 237.364 214.606 235.464 214.606C233.564 214.606 233.564 217.606 235.464 217.606Z" fill="#201614"/>
<path d="M254.164 195.306C257.564 189.606 267.364 189.606 271.864 189.606C276.064 189.606 286.664 189.706 290.464 196.006C293.164 200.506 290.864 205.506 290.264 206.806C287.564 212.606 280.564 217.506 272.264 217.206C262.164 216.806 256.964 209.206 256.164 208.006C255.264 206.506 251.164 200.306 254.164 195.306Z" fill="#201614"/>
<path opacity="0.67" d="M227.264 209.506C220.664 206.706 150.464 194.706 134.664 209.406" stroke="#201614" stroke-miterlimit="10"/>
<path opacity="0.67" d="M228.964 213.306C222.064 211.206 136.364 207.506 119.464 218.206" stroke="#201614" stroke-miterlimit="10"/>
<path opacity="0.67" d="M327.364 210.706C333.664 207.406 386.364 194.206 403.264 207.506" stroke="#201614" stroke-miterlimit="10"/>
<path opacity="0.67" d="M329.064 215.106C335.864 212.706 407.564 205.306 422.864 221.006" stroke="#201614" stroke-miterlimit="10"/>
<path opacity="0.67" d="M228.964 205.606C222.864 201.806 171.464 184.506 153.564 196.406" stroke="#201614" stroke-miterlimit="10"/>
<path d="M287.761 195.036C287.795 194.043 285.81 193.168 283.326 193.082C280.842 192.996 278.801 193.732 278.767 194.726C278.732 195.719 280.718 196.594 283.202 196.68C285.685 196.766 287.727 196.03 287.761 195.036Z" fill="white"/>
<path d="M326.064 219.006C327.964 219.006 327.964 216.006 326.064 216.006C324.164 216.006 324.164 219.006 326.064 219.006Z" fill="#201614"/>
<path d="M229.064 215.006C230.964 215.006 230.964 212.006 229.064 212.006C227.164 212.006 227.164 215.006 229.064 215.006Z" fill="#201614"/>
<path opacity="0.67" d="M329.464 217.206C335.764 216.406 409.964 226.306 422.364 238.206" stroke="#201614" stroke-miterlimit="10"/>
<path d="M130.664 241.506C135.864 244.006 140.864 246.906 145.664 250.106L147.164 244.506C145.064 244.606 143.164 244.006 141.164 243.506C138.864 242.906 136.464 242.506 134.064 242.306C129.464 242.006 124.864 242.506 120.364 243.006C118.764 243.206 117.364 244.206 117.364 246.006C117.364 247.506 118.764 249.206 120.364 249.006C124.864 248.506 129.464 248.006 134.064 248.306C138.664 248.606 142.764 250.606 147.264 250.406C150.364 250.306 151.264 246.506 148.764 244.806C143.964 241.506 138.964 238.606 133.764 236.206C132.264 235.506 130.564 235.806 129.664 237.306C128.864 238.706 129.264 240.806 130.664 241.506Z" fill="#AE794E"/>
<path d="M107.664 239.506C109.264 240.106 110.864 240.706 112.464 241.306L110.664 240.506C116.364 242.906 121.664 246.006 126.664 249.806L125.164 248.606L125.464 248.806C127.164 250.106 128.564 251.006 130.764 251.006C132.564 251.006 134.764 250.206 136.064 248.806C137.364 247.406 138.364 245.506 138.264 243.506C138.164 241.706 137.564 239.406 136.064 238.206C132.364 235.306 128.564 232.706 124.464 230.506C120.364 228.306 116.064 226.406 111.664 224.906C107.964 223.606 103.264 226.406 102.464 230.106C101.464 234.506 103.664 238.206 107.664 239.506Z" fill="#AE794E"/>
<path d="M413.064 256.505C402.464 272.705 409.164 299.005 422.664 313.105C437.964 329.005 468.064 335.305 485.364 314.905C502.664 294.405 495.864 260.305 480.164 247.805C472.164 241.405 462.763 241.405 453.863 241.505C443.663 241.405 422.964 241.505 413.064 256.505Z" fill="#5B362B"/>
<path d="M93.9636 267.206C70.6636 291.406 73.7636 289.906 50.4636 290.706C32.1636 291.306 -4.3364 267.106 4.5636 246.506C16.2636 219.506 49.5636 214.406 49.5636 214.406C77.5636 210.106 120.964 221.506 125.464 238.306C130.564 257.606 101.764 259.106 93.9636 267.206Z" fill="#5B362B"/>
<path d="M471.564 269.105C473.664 268.505 475.864 268.005 478.064 267.705L475.664 268.005C478.664 267.605 481.764 267.405 484.764 267.805L482.363 267.505C483.063 267.605 483.664 267.805 484.264 268.005L482.064 267.105C482.464 267.305 482.764 267.505 483.164 267.705L481.363 266.305C481.863 266.705 482.264 267.105 482.664 267.605L481.264 265.805C481.864 266.705 482.364 267.605 482.764 268.505L481.863 266.305C483.563 270.405 484.764 274.705 485.464 279.205L485.164 276.805C485.664 280.705 485.764 284.605 485.264 288.405L485.564 286.005C485.164 288.905 484.364 291.805 483.264 294.505L484.164 292.305C483.164 294.505 481.964 296.505 480.564 298.405L481.964 296.605C480.564 298.305 479.063 299.905 477.363 301.305L479.164 299.905C477.564 301.105 475.864 302.205 473.964 303.005L476.164 302.105C474.564 302.805 472.864 303.205 471.164 303.505L473.564 303.205C472.064 303.405 470.564 303.405 469.064 303.205L473.564 320.005C485.264 313.405 495.064 302.005 497.764 288.605C499.264 281.505 499.263 273.905 496.863 266.905C494.463 259.905 489.964 253.705 483.564 249.505C477.164 245.305 468.564 243.805 461.164 246.105C456.864 247.505 454.064 251.505 454.764 256.005C455.364 260.205 459.164 264.105 463.564 263.805C466.764 263.605 469.964 263.305 473.164 263.105C476.364 262.905 479.464 262.405 482.564 262.805L480.164 262.505C481.064 262.705 481.963 262.905 482.863 263.305L480.664 262.405C481.564 262.805 482.364 263.305 483.064 263.905L481.264 262.505C482.264 263.305 483.063 264.205 483.863 265.105L482.464 263.305C483.664 264.805 484.563 266.505 485.363 268.205L484.464 266.005C485.664 269.005 486.464 272.105 486.964 275.305L486.664 272.905C487.464 279.305 487.064 285.705 486.264 292.105L486.564 289.705C486.064 293.505 485.264 297.405 483.764 301.005L484.664 298.805C483.864 300.605 482.864 302.405 481.664 304.005L483.064 302.205C481.864 303.805 480.463 305.205 478.863 306.405L480.664 305.005C478.964 306.305 477.064 307.405 475.064 308.205L477.264 307.305C474.364 308.505 471.364 309.305 468.164 309.705L470.564 309.405C466.464 309.905 462.164 309.905 458.064 309.405L460.464 309.705C458.864 309.505 457.363 309.105 455.863 308.505L458.064 309.405C457.164 309.005 456.364 308.605 455.664 308.005L457.464 309.405C456.964 309.005 456.564 308.605 456.164 308.205L457.564 310.005C457.264 309.605 456.964 309.205 456.764 308.705L457.664 310.905C457.464 310.305 457.264 309.705 457.164 309.105C456.864 307.005 454.764 304.705 453.064 303.705C451.164 302.605 448.264 302.105 446.164 302.805C444.064 303.505 441.864 304.805 440.764 306.905L439.863 309.105C439.463 310.705 439.463 312.305 439.863 313.905C440.763 320.205 446.464 324.405 452.064 326.205C456.164 327.605 460.964 327.705 465.264 327.705C469.864 327.605 474.563 327.005 478.863 325.705C483.863 324.205 488.264 321.805 492.264 318.405C501.064 311.005 503.464 299.405 504.464 288.605C505.464 277.805 505.064 266.105 499.464 256.505C497.764 253.605 495.664 251.005 492.964 249.005C489.664 246.405 486.063 245.205 481.863 244.805C478.863 244.505 475.764 245.005 472.764 245.205C469.764 245.405 466.563 245.605 463.363 245.905L465.764 263.605C466.664 263.305 467.564 263.105 468.464 263.005L466.064 263.305C467.664 263.105 469.264 263.105 470.764 263.305L468.363 263.005C469.963 263.205 471.464 263.705 472.964 264.305L470.764 263.405C472.464 264.105 474.064 265.105 475.664 266.205L473.863 264.805C475.363 266.005 476.764 267.405 477.964 268.905L476.564 267.105C477.764 268.705 478.764 270.505 479.564 272.405L478.664 270.205C479.664 272.505 480.264 275.005 480.564 277.505L480.264 275.105C480.664 278.105 480.664 281.005 480.264 284.005L480.564 281.605C480.164 284.705 479.364 287.605 478.164 290.505L479.064 288.305C477.764 291.205 476.164 294.005 474.264 296.505L475.664 294.705C473.464 297.605 470.763 300.105 467.863 302.405L469.664 301.005C467.964 302.305 466.064 303.505 464.164 304.605C460.864 306.505 458.864 311.005 460.064 314.805C460.564 316.305 461.363 317.605 462.363 318.805C464.063 320.605 466.364 321.205 468.764 321.405C475.164 322.205 482.263 319.905 487.363 316.105C490.663 313.605 493.264 311.005 495.764 307.705C497.864 304.905 499.364 301.805 500.664 298.505C503.164 292.005 503.864 284.605 502.964 277.705C502.464 273.905 501.864 270.105 500.764 266.405C499.464 262.205 497.864 257.905 494.964 254.605C491.264 250.405 485.663 249.605 480.363 249.705C475.763 249.805 471.064 250.505 466.564 251.805C462.064 253.105 458.764 258.205 460.264 262.905C461.764 267.605 466.664 270.505 471.564 269.105Z" fill="#5B362B"/>
<path d="M14.4634 270.406C14.4634 285.406 20.9634 302.706 24.2634 302.806C27.2634 303.006 28.0634 289.606 27.1634 279.706C26.1634 268.206 22.1634 253.806 18.9634 253.206C16.1634 252.706 14.4634 262.606 14.4634 270.406Z" fill="#362118"/>
<path d="M0.0635138 262.706C0.863514 274.206 9.26351 285.106 13.0635 284.106C16.4635 283.206 16.6635 272.706 15.0635 265.506C13.2635 257.006 7.86346 247.506 4.26346 248.106C1.16347 248.606 -0.336486 256.706 0.0635138 262.706Z" fill="#362118"/>
<path d="M28.2636 283.506C25.1636 298.806 26.9636 313.006 34.1636 317.106C37.2636 318.906 41.6636 303.906 42.5636 293.706C43.5636 281.906 41.4636 267.006 37.5636 266.206C34.0636 265.606 29.8636 275.606 28.2636 283.506Z" fill="#362118"/>
<path d="M43.4636 286.306C37.9636 298.506 40.6635 313.306 45.2635 313.906C49.3635 314.406 55.3635 303.606 57.7635 295.506C60.5635 286.006 60.2636 273.806 55.9636 272.906C52.4636 272.106 46.3636 279.906 43.4636 286.306Z" fill="#362118"/>
<path d="M67.6635 282.806C66.3635 291.606 75.1635 299.006 78.3635 297.706C80.3635 296.906 79.3635 292.706 82.6635 285.206C84.4635 281.106 87.7635 280.006 88.1635 276.006C88.0635 273.406 85.1635 271.206 82.3635 270.106C77.4635 268.406 68.9635 274.206 67.6635 282.806Z" fill="#362118"/>
<path d="M430.363 261.806C430.463 261.506 430.564 261.106 430.764 260.806L429.964 262.606C430.264 262.006 430.664 261.406 430.964 260.806C430.164 261.806 429.964 262.106 430.464 261.506L430.664 261.206C430.864 260.906 431.163 260.706 431.363 260.406C431.563 260.106 431.864 259.906 432.164 259.706C433.164 258.806 430.764 260.706 431.764 260.006C432.464 259.606 433.064 259.106 433.764 258.706C436.764 257.006 439.964 255.706 443.164 254.306L441.363 255.106C444.863 253.606 448.464 252.206 452.064 250.906C455.664 249.606 459.163 248.206 462.863 247.706L460.863 248.006C462.563 247.806 464.264 247.806 465.964 248.006L463.964 247.706C466.464 248.006 468.864 248.806 471.264 249.706L469.464 248.906C473.664 250.706 477.564 253.306 481.464 255.906C484.664 258.106 489.964 256.606 491.764 253.206C493.764 249.406 492.564 245.306 489.064 242.906C484.564 239.906 480.164 237.106 475.164 235.106C469.664 232.906 463.964 232.306 458.164 233.306C453.064 234.206 448.163 236.406 443.363 238.206C438.263 240.206 433.164 242.206 428.264 244.706C422.664 247.506 418.064 251.706 415.964 257.706C414.764 261.406 417.364 266.106 421.164 266.906C425.264 268.006 429.063 265.806 430.363 261.806Z" fill="#5B362B"/>
<path d="M417.264 280.105C421.964 281.105 424.264 294.105 422.064 304.305C420.864 310.205 417.164 319.905 413.064 319.605C408.464 319.205 403.164 306.205 405.764 295.105C407.564 287.505 413.264 279.205 417.264 280.105Z" fill="#362118"/>
<path d="M436.964 298.106C433.664 295.206 421.063 304.505 413.163 315.005C408.663 321.005 402.063 332.205 404.563 335.205C407.363 338.505 421.564 331.605 429.964 320.005C435.564 312.205 439.764 300.606 436.964 298.106Z" fill="#362118"/>
<path d="M452.564 306.905C450.764 303.405 436.063 313.305 425.163 324.805C418.963 331.405 408.863 343.805 409.863 347.405C411.063 351.405 426.164 344.305 437.964 331.605C445.964 322.905 454.164 309.905 452.564 306.905Z" fill="#362118"/>
<path d="M463.463 315.205C461.063 312.505 446.863 316.805 439.263 329.605C436.863 333.605 436.463 335.305 430.763 344.705C430.763 344.705 428.763 348.005 426.763 353.405C426.363 354.505 425.563 356.905 425.663 359.905C425.763 361.605 425.663 362.705 426.163 362.705C432.263 363.405 438.463 350.005 450.663 338.105C462.263 326.905 466.963 319.005 463.463 315.205Z" fill="#362118"/>
<path d="M483.164 319.705C484.664 314.605 463.064 324.905 452.864 335.805C447.064 342.005 436.664 359.405 441.364 357.605C446.664 355.605 457.064 351.305 467.964 339.205C475.364 331.205 481.364 325.705 483.164 319.705Z" fill="#362118"/>
<path d="M13.4634 241.006C19.2634 239.006 24.6634 235.706 28.9634 231.306C31.9634 228.306 28.2634 226.606 31.5634 223.906C36.4634 219.806 40.5634 216.906 48.5634 214.906C52.5634 213.906 62.7634 211.206 66.8634 210.906C79.3634 209.906 92.3634 214.606 102.563 221.906" fill="#5B362B"/>
<path d="M13.8635 242.406C17.4635 241.206 20.8635 239.506 23.9635 237.406C25.5635 236.306 27.0635 235.106 28.5635 233.806C29.7635 232.706 31.1635 231.506 31.6635 229.806C31.9635 228.606 31.5635 227.506 31.6635 226.406C31.8635 225.106 33.4635 224.206 34.3635 223.506C36.6635 221.606 39.1635 220.006 41.9635 218.706C44.7635 217.406 47.7634 216.606 50.7634 215.906C53.5634 215.206 56.3635 214.506 59.1635 213.906C61.6635 213.306 64.2635 212.706 66.8635 212.406C70.5635 212.106 74.3635 212.306 78.0635 212.906C86.6635 214.406 94.7635 218.106 101.863 223.206C103.463 224.306 104.963 221.706 103.363 220.606C91.5635 212.106 76.4635 207.206 61.8635 210.206C58.8635 210.806 55.7634 211.606 52.7634 212.306C49.8634 213.006 46.9635 213.706 44.1635 214.606C41.1635 215.606 38.2635 217.006 35.6635 218.806C34.3635 219.706 33.1635 220.606 31.9635 221.606C30.7635 222.606 29.3635 223.606 28.8635 225.206C28.4635 226.506 29.0634 227.706 28.7634 228.906C28.5634 229.806 27.7635 230.406 27.1635 230.906C26.3635 231.706 25.4635 232.406 24.6635 233.106C21.1635 235.906 17.2635 238.006 13.0635 239.506C11.2635 240.206 11.9635 243.106 13.8635 242.406Z" fill="#5B362B"/>
<rect x="398" y="122" width="15" height="25" fill="url(#paint0_linear_407_287)"/>
<rect x="156" y="121" width="15" height="25" fill="url(#paint1_linear_407_287)"/>
<path d="M252.254 135.463C252.254 114.22 235.037 96.999 213.798 96.999C192.56 96.999 175.342 114.22 175.342 135.463C175.342 156.706 192.56 173.928 213.798 173.928C235.037 173.928 252.254 156.707 252.254 135.463ZM263.254 135.463C263.254 162.781 241.112 184.928 213.798 184.928C186.484 184.928 164.342 162.781 164.342 135.463C164.342 108.146 186.484 85.999 213.798 85.999C241.112 85.999 263.254 108.146 263.254 135.463ZM389.657 135.463C389.657 114.22 372.439 96.999 351.201 96.999C329.963 96.999 312.745 114.22 312.745 135.463C312.745 156.706 329.963 173.928 351.201 173.928C372.439 173.928 389.657 156.707 389.657 135.463ZM400.657 135.463C400.657 162.781 378.515 184.928 351.201 184.928C323.887 184.928 301.745 162.781 301.745 135.463C301.745 108.146 323.887 85.999 351.201 85.999C378.515 85.999 400.657 108.146 400.657 135.463Z" fill="black"/>
<path d="M265.014 140.006C270.25 137.422 276.021 136.061 282.001 136.061C289.775 136.061 297.196 138.369 303.499 142.626C306.016 144.326 309.435 143.664 311.135 141.147C312.835 138.629 312.173 135.211 309.655 133.511C301.549 128.035 291.987 125.061 282 125.061C274.324 125.061 266.888 126.815 260.146 130.141C257.422 131.485 256.303 134.783 257.647 137.507C258.992 140.231 262.29 141.35 265.014 140.006ZM158.75 156.454C151.156 156.454 145 150.298 145 142.704V125.673C145 118.079 151.156 111.923 158.75 111.923H161.593C169.188 111.923 175.343 118.079 175.343 125.673V142.704C175.343 150.298 169.188 156.454 161.593 156.454H158.75ZM158.75 145.454H161.593C163.113 145.454 164.343 144.223 164.343 142.704V125.673C164.343 124.154 163.113 122.923 161.593 122.923H158.75C158.389 122.923 158.031 122.994 157.698 123.132C157.364 123.27 157.061 123.473 156.805 123.728C156.55 123.984 156.347 124.287 156.209 124.62C156.071 124.954 156 125.312 156 125.673V142.704C156 144.223 157.231 145.454 158.75 145.454ZM403.407 156.454C395.813 156.454 389.657 150.298 389.657 142.704V125.673C389.657 118.079 395.813 111.923 403.407 111.923H406.251C413.845 111.923 420.001 118.079 420.001 125.673V142.704C420.001 150.298 413.845 156.454 406.251 156.454H403.407ZM403.407 145.454H406.251C407.77 145.454 409.001 144.223 409.001 142.704V125.673C409.001 124.154 407.77 122.923 406.251 122.923H403.407C403.046 122.923 402.688 122.994 402.355 123.132C402.021 123.27 401.718 123.473 401.462 123.728C401.207 123.984 401.004 124.287 400.866 124.62C400.728 124.954 400.657 125.312 400.657 125.673V142.704C400.657 144.223 401.888 145.454 403.407 145.454Z" fill="black"/>
<defs>
<linearGradient id="paint0_linear_407_287" x1="405.5" y1="122" x2="405.5" y2="147" gradientUnits="userSpaceOnUse">
<stop stop-color="#480000"/>
<stop offset="1" stop-color="#AE0000"/>
</linearGradient>
<linearGradient id="paint1_linear_407_287" x1="163.5" y1="121" x2="163.5" y2="146" gradientUnits="userSpaceOnUse">
<stop stop-color="#480000"/>
<stop offset="1" stop-color="#AE0000"/>
</linearGradient>
</defs>
</svg>
