<svg width="101" height="38" viewBox="0 0 101 38" fill="none" xmlns="http://www.w3.org/2000/svg">
<path d="M94.6953 10.65C94.452 11.0155 94.3021 11.4255 94.0304 11.7546C92.4857 13.8388 90.6123 15.6523 88.7673 17.5021C87.6765 18.5877 86.5858 19.6732 85.5234 20.7952C85.2964 21.031 85.2194 21.3839 85.0857 21.664C85.0492 21.6925 84.9842 21.6845 84.9193 21.6766C84.5259 21.925 84.1041 22.1372 83.7107 22.3856C83.5444 22.3982 83.4064 22.4472 83.2401 22.4598C82.6684 23.0817 82.1536 23.7764 81.4601 24.3176C78.0942 27.0029 74.5782 29.571 70.8226 31.6817C67.14 33.7354 63.2382 35.433 59.1211 36.4784C54.7282 37.6219 50.2375 37.9628 45.7222 37.4444C43.9697 37.2304 42.2698 36.8582 40.578 36.4211C39.2391 36.0599 37.9003 35.6988 36.6587 35.0861C34.139 33.889 31.6192 32.692 29.2252 31.2798C27.2328 30.0813 25.4108 28.5741 23.5441 27.1604C23.3656 27.0068 23.2316 26.76 23.0612 26.5415C22.5497 25.8862 21.9287 25.3163 21.4538 24.6325C20.914 23.9407 20.2889 23.1397 20.1263 22.3293C19.8986 20.9839 19.2132 21.4602 18.5236 21.7054C18.4871 21.7338 18.4222 21.726 18.3208 21.7465C18.2113 21.832 18.1384 21.8889 18.0573 22.0108C17.9478 22.0962 17.8748 22.1533 17.7653 22.2387C17.5828 22.3811 17.3638 22.552 17.1529 22.658C17.0799 22.715 17.015 22.707 16.9136 22.7276C16.0254 23.245 15.1656 23.7987 14.2774 24.3161C12.7768 25.2528 11.2398 26.218 9.73923 27.1547C9.73923 27.1547 9.70266 27.1832 9.66617 27.2117C8.51879 28.7515 6.73018 29.62 5.67612 31.2042C5.43288 31.5697 5.18154 32.0002 4.88563 32.524L0.588193 29.1995C2.00768 28.3847 3.4352 27.5049 4.85469 26.6901C5.99028 26.0382 7.09753 25.3499 8.26961 24.6696C9.12131 24.1807 9.91205 23.3879 10.8531 23.2393C11.6279 23.1033 11.7575 22.592 12.1955 22.2502C12.232 22.2217 12.3334 22.2013 12.3983 22.2092C12.7836 22.0257 13.1688 21.8421 13.5461 21.7234C13.6921 21.6095 13.838 21.4956 13.984 21.3816C16.1744 20.7268 18.0197 19.404 20.1044 18.5386C20.5911 18.3346 21.0696 18.1954 21.5848 18.0277C21.6578 17.9707 21.6944 17.9422 21.7958 17.9217C22.8341 17.5214 23.8441 17.0848 24.8824 16.6846C24.9189 16.6561 24.9838 16.664 25.0487 16.6719C25.0487 16.6719 24.9919 16.5991 24.9635 16.5627C24.7038 16.531 24.4158 16.4629 24.1561 16.4312C23.9898 16.4438 23.8234 16.4565 23.6936 16.4406C23.2961 16.458 22.8986 16.4753 22.501 16.4926C22.3347 16.5053 22.1683 16.518 22.0385 16.5021C21.641 16.5194 21.28 16.5082 20.7161 16.5382C21.3888 14.8416 21.7369 13.1054 23.347 12.0832C23.3186 12.0468 23.3267 11.982 23.3063 11.8807C23.2694 10.8551 24.0277 10.3219 24.7211 9.78069C24.8306 9.69524 24.9402 9.60974 25.0132 9.55278C25.4389 9.0448 25.7998 8.52893 26.2824 8.09377C27.7016 6.75188 29.2345 5.55567 30.9663 4.61427C33.3308 3.35485 35.8415 2.50854 38.4213 1.90125C44.1893 0.563337 50.0106 0.648261 55.7553 1.61322C60.3396 2.37062 64.904 3.55376 69.3953 4.79388C74.6493 6.25889 79.9194 7.59417 85.4163 7.63951C89.5338 7.6482 93.5579 7.08544 97.2527 5.19792C98.2707 4.69639 99.2196 3.95579 100.217 3.35295C100.363 3.23902 100.595 3.23433 100.911 3.33884L95.5227 10.3557C95.5227 10.3557 95.1089 10.5028 94.9345 10.5804L94.6953 10.65ZM25.9491 16.3208C25.9491 16.3208 25.9856 16.2922 26.0221 16.2638C26.0221 16.2638 25.9855 16.2923 25.9206 16.2843C25.9206 16.2843 25.8842 16.3128 25.8477 16.3413C25.8477 16.3413 25.8841 16.3128 25.9206 16.2843L25.9491 16.3208Z" fill="#FFF3B6"/>
</svg>
