<svg width="89" height="57" viewBox="0 0 89 57" fill="none" xmlns="http://www.w3.org/2000/svg">
<path d="M85.0542 8.8781C84.9313 9.29964 84.9107 9.73566 84.7497 10.1309C83.8982 12.5814 82.6521 14.8717 81.4441 17.1883C80.7274 18.5502 80.0108 19.912 79.3321 21.3001C79.1858 21.593 79.2179 21.9528 79.1739 22.26C79.1476 22.2981 79.0832 22.3099 79.0189 22.3217C78.7177 22.6763 78.3785 23.0048 78.0773 23.3594C77.9223 23.4211 77.8053 23.5091 77.6504 23.5708C77.2905 24.3351 77.0068 25.1519 76.5067 25.8756C74.0967 29.4438 71.5085 32.945 68.5549 36.0813C65.6541 39.1414 62.4376 41.9271 58.8209 44.1547C54.9702 46.5584 50.7865 48.2254 46.3225 49.0796C44.586 49.3989 42.8526 49.5515 41.1075 49.6398C39.7219 49.6951 38.3363 49.7505 36.9683 49.5366C34.2061 49.147 31.4438 48.7574 28.7371 48.1249C26.4777 47.5763 24.2887 46.6824 22.0849 45.8909C21.8686 45.7977 21.6671 45.6021 21.4391 45.4446C20.7553 44.9719 19.9923 44.6136 19.3348 44.1029C18.613 43.604 17.7772 43.0262 17.3799 42.3014C16.7606 41.0856 16.2488 41.7448 15.664 42.1848C15.6377 42.2229 15.5734 42.2348 15.4827 42.2847C15.4038 42.399 15.3512 42.4751 15.3102 42.6156C15.2313 42.7299 15.1786 42.8061 15.0996 42.9204C14.968 43.1108 14.81 43.3393 14.6404 43.5035C14.5878 43.5796 14.5235 43.5915 14.4329 43.6414C13.7398 44.4005 13.0847 45.1858 12.3916 45.9449C11.2394 47.2871 10.0609 48.6674 8.90874 50.0096C8.90874 50.0096 8.88237 50.0478 8.85605 50.0859C8.22108 51.8981 6.77363 53.2613 6.24096 55.088C6.11804 55.5096 6.00677 55.9954 5.88087 56.5837L0.786506 54.6949C1.89773 53.4932 2.99723 52.2272 4.10846 51.0255C4.99744 50.0641 5.84851 49.0765 6.76381 48.0771C7.43055 47.356 7.94834 46.3632 8.80205 45.9403C9.50081 45.579 9.47173 45.0523 9.7876 44.5953C9.81392 44.5572 9.90457 44.5075 9.96888 44.4956C10.2818 44.2054 10.5946 43.915 10.9191 43.6891C11.0244 43.5368 11.1297 43.3844 11.235 43.2321C13.1297 41.9528 14.4955 40.1391 16.2265 38.6905C16.6301 38.3503 17.0451 38.0745 17.4866 37.7606C17.5393 37.6844 17.5657 37.6463 17.6563 37.5964C18.5277 36.9042 19.3611 36.1858 20.2324 35.4937C20.2588 35.4556 20.323 35.4437 20.3873 35.4319C20.3873 35.4319 20.3114 35.3794 20.2734 35.3531C20.0161 35.4005 19.7209 35.4215 19.4636 35.4688C19.3087 35.5305 19.1537 35.5923 19.025 35.616C18.6508 35.7513 18.2767 35.8866 17.9024 36.0219C17.7475 36.0837 17.5925 36.1455 17.4639 36.1691C17.0897 36.3044 16.7418 36.4016 16.2126 36.5986C16.3477 34.7786 16.1613 33.0176 17.3925 31.5611C17.3545 31.5349 17.3428 31.4706 17.2932 31.38C16.9515 30.4123 17.5159 29.6769 18.016 28.9532C18.095 28.839 18.174 28.7247 18.2266 28.6485C18.4811 28.0365 18.6714 27.4364 19.0019 26.8769C19.9555 25.1723 21.061 23.5728 22.4324 22.157C24.3127 20.2487 26.4559 18.691 28.7365 17.3407C33.8414 14.3407 39.4222 12.6827 45.1928 11.8873C49.7941 11.2406 54.5035 11.0061 59.1602 10.8478C64.6119 10.6763 70.0402 10.3761 75.2996 8.77723C79.2317 7.55541 82.9039 5.81615 85.8661 2.91101C86.6877 2.12825 87.3721 1.13799 88.1441 0.264628C88.2494 0.11229 88.4686 0.0387276 88.8019 0.043934L85.7559 8.35013C85.7559 8.35013 85.405 8.61412 85.2617 8.74021L85.0542 8.8781ZM21.1417 34.8278C21.1417 34.8278 21.168 34.7897 21.1944 34.7516C21.1944 34.7516 21.168 34.7897 21.1036 34.8015C21.1036 34.8015 21.0773 34.8396 21.051 34.8777C21.051 34.8777 21.0773 34.8396 21.1036 34.8015L21.1417 34.8278Z" fill="#FFF3B6"/>
</svg>
