<svg width="662" height="520" viewBox="0 0 662 520" fill="none" xmlns="http://www.w3.org/2000/svg">
<path d="M620.341 34.7432L619.214 10.8876L604.001 30.7546L594.749 21.884L583.644 57.3891L569.526 17.369L560.796 30.0384L535.528 13.917L544.881 42.4268L530.47 47.7694L565.695 71.3643L528.605 73.3688L534.901 84.5399L511.922 94.3975L534.719 101.388L530.811 112.252L568.475 104.278L570.511 119.931L594.59 96.3108C594.59 96.3108 595.668 94.7568 597.533 97.1637C599.4 99.5705 613.754 121.568 613.754 121.568L620.335 116.446C620.335 116.446 602.601 97.0776 600.734 94.6708C598.867 92.264 600.636 91.6034 600.636 91.6034L629.436 74.0698L614.8 68.2261L631.821 33.6398L620.346 34.7483L620.341 34.7432Z" fill="#CCC292"/>
<path d="M609.079 23.8556L607.952 0L592.739 19.867L583.487 10.9965L572.383 46.5015L558.264 6.48146L549.535 19.1508L524.266 3.02941L533.62 31.5392L519.208 36.8818L554.434 60.4768L517.343 62.4812L523.64 73.6523L500.66 83.5099L523.458 90.5L519.549 101.367L557.213 93.3928L559.247 109.043L583.325 85.4232C583.325 85.4232 584.404 83.8693 586.269 86.2761C588.136 88.6829 602.489 110.681 602.489 110.681L609.071 105.558C609.071 105.558 591.337 86.19 589.47 83.7832C587.603 81.3764 589.374 80.7158 589.374 80.7158L618.172 63.1822L603.533 57.3385L620.555 22.7522L609.076 23.8607L609.079 23.8556Z" fill="#FFF3B6"/>
<path d="M573.079 80.7007C559.1 91.5807 558.736 103.617 559.064 107.641L559.246 109.038L583.325 85.4181C583.325 85.4181 584.403 83.8642 586.268 86.271C588.135 88.6778 602.489 110.676 602.489 110.676L609.071 105.553C609.071 105.553 591.336 86.185 589.469 83.7782C587.602 81.3713 589.373 80.7108 589.373 80.7108L618.171 63.1772L603.532 57.3335L620.554 22.7471L609.076 23.8556L607.949 0L592.736 19.867L583.484 10.9965C614.462 50.933 590.169 67.3961 573.074 80.7007H573.079Z" fill="#E6DBA4"/>
<path d="M653.591 162.155L652.858 146.654L642.971 159.564L636.961 153.798L629.745 176.869L620.571 150.865L614.899 159.098L598.481 148.623L604.557 167.149L595.191 170.618L618.079 185.948L593.978 187.251L598.069 194.509L583.137 200.915L597.95 205.455L595.411 212.516L619.883 207.336L621.207 217.504L636.852 202.155C636.852 202.155 637.552 201.145 638.765 202.709C639.977 204.273 649.306 218.567 649.306 218.567L653.583 215.239C653.583 215.239 642.059 202.654 640.847 201.09C639.634 199.528 640.783 199.098 640.783 199.098L659.498 187.704L649.985 183.905L661.047 161.431L653.588 162.153L653.591 162.155Z" fill="#CCC292"/>
<path d="M646.274 155.081L645.541 139.58L635.657 152.49L629.646 146.725L622.43 169.796L613.256 143.791L607.584 152.024L591.166 141.549L597.243 160.075L587.877 163.544L610.765 178.876L586.664 180.18L590.754 187.438L575.822 193.844L590.636 198.384L588.096 205.445L612.569 200.264L613.89 210.433L629.535 195.084C629.535 195.084 630.235 194.074 631.448 195.638C632.661 197.199 641.986 211.496 641.986 211.496L646.264 208.168C646.264 208.168 634.74 195.582 633.527 194.018C632.314 192.454 633.464 192.024 633.464 192.024L652.178 180.633L642.668 176.834L653.727 154.36L646.269 155.081H646.274Z" fill="#FFF3B6"/>
<path d="M622.878 192.019C613.795 199.087 613.557 206.91 613.772 209.525L613.891 210.433L629.535 195.084C629.535 195.084 630.235 194.074 631.448 195.638C632.661 197.199 641.986 211.496 641.986 211.496L646.264 208.168C646.264 208.168 634.74 195.582 633.527 194.018C632.315 192.454 633.464 192.024 633.464 192.024L652.179 180.633L642.669 176.834L653.727 154.36L646.271 155.081L645.539 139.58L635.655 152.49L629.644 146.725C649.773 172.673 633.987 183.371 622.88 192.016L622.878 192.019Z" fill="#E6DBA4"/>
<path d="M135.735 485.141L158.799 491.242L144.436 470.735L155.661 464.569L125.17 443.282L167.527 441.835L158.076 429.686L181.013 410.403L151.052 410.758L150.286 395.387L117.247 421.932L126.46 385.904L113.931 388.556L111.434 363.645L97.9376 383.316L88.7601 376.314L85.0596 414.684L69.5401 411.919L84.8185 442.021C84.8185 442.021 85.9759 443.519 83.1242 444.578C80.2725 445.637 55.0117 452.727 55.0117 452.727L57.9181 460.554C57.9181 460.554 81.6877 449.442 84.537 448.384C87.3888 447.325 87.4892 449.213 87.4892 449.213L95.5552 481.994L105.511 469.771L133.353 496.434L135.739 485.137L135.735 485.141Z" fill="#CCC292"/>
<path d="M149.482 477.658L172.544 483.757L158.182 463.25L169.406 457.084L138.915 435.797L181.272 434.35L171.822 422.201L194.756 402.919L164.795 403.274L164.029 387.903L130.99 414.447L140.203 378.419L127.674 381.071L125.176 356.158L111.68 375.829L102.502 368.827L98.8018 407.198L83.2823 404.432L98.5607 434.535C98.5607 434.535 99.7173 436.03 96.8656 437.089C94.0139 438.148 68.753 445.238 68.753 445.238L71.6594 453.065C71.6594 453.065 95.429 441.953 98.2816 440.896C101.133 439.837 101.234 441.725 101.234 441.725L109.297 474.507L119.253 462.284L147.095 488.947L149.482 477.653L149.482 477.658Z" fill="#FFF3B6"/>
<path d="M106.131 426.174C99.96 409.551 88.6041 405.579 84.6718 404.686L83.2848 404.439L98.5632 434.542C98.5632 434.542 99.7198 436.037 96.8681 437.096C94.0164 438.156 68.7556 445.245 68.7556 445.245L71.662 453.072C71.662 453.072 95.4316 441.961 98.2842 440.904C101.136 439.844 101.236 441.732 101.236 441.732L109.3 474.514L119.256 462.291L147.098 488.954L149.485 477.66L172.547 483.759L158.185 463.251L169.409 457.085C122.075 474.656 113.679 446.503 106.135 426.175L106.131 426.174Z" fill="#E6DBA4"/>
<path d="M90.4935 346.813L96.0135 332.309L81.7972 340.19L78.5888 332.501L62.76 350.764L64.7396 323.254L56.2513 328.532L45.3873 312.362L43.5576 331.773L33.5864 331.209L48.4427 354.417L25.8323 345.971L26.6828 354.262L10.4382 354.16L22.2015 364.25L17.0526 369.707L41.5547 374.748L38.7045 384.599L59.1751 376.79C59.1751 376.79 60.2196 376.143 60.7061 378.064C61.1932 379.982 64.0315 396.815 64.0315 396.815L69.2807 395.474C69.2807 395.474 63.7468 379.327 63.2597 377.409C62.7726 375.491 63.9983 375.558 63.9983 375.558L85.7011 372.599L78.4989 365.312L97.6128 349.136L90.491 346.812L90.4935 346.813Z" fill="#CCC292"/>
<path d="M86.6125 337.4L92.1325 322.896L77.9168 330.775L74.7084 323.086L58.8796 341.349L60.8587 313.841L52.3728 319.12L41.5093 302.947L39.6791 322.36L29.7085 321.794L44.5642 345.005L21.9539 336.559L22.8043 344.85L6.55968 344.748L18.323 354.837L13.1747 360.292L37.6767 365.333L34.8266 375.185L55.2978 367.372C55.2978 367.372 56.3417 366.728 56.8288 368.646C57.3159 370.564 60.1536 387.4 60.1536 387.4L65.4028 386.059C65.4028 386.059 59.8689 369.913 59.3818 367.995C58.8947 366.077 60.1209 366.14 60.1209 366.14L81.8237 363.182L74.6215 355.895L93.7359 339.716L86.6136 337.395L86.6125 337.4Z" fill="#FFF3B6"/>
<path d="M50.4185 361.901C39.2692 364.748 35.9289 371.822 35.0791 374.305L34.8234 375.187L55.2945 367.375C55.2945 367.375 56.3385 366.73 56.8256 368.648C57.3126 370.566 60.1504 387.403 60.1504 387.403L65.3996 386.062C65.3996 386.062 59.8656 369.915 59.3785 367.997C58.8915 366.079 60.1177 366.142 60.1177 366.142L81.8205 363.184L74.6183 355.897L93.7327 339.719L86.6104 337.397L92.1304 322.894L77.9147 330.772L74.7063 323.083C82.7914 354.925 64.0506 358.416 50.4172 361.896L50.4185 361.901Z" fill="#E6DBA4"/>
<g filter="url(#filter0_d_688_2)">
<path d="M77.937 78.0262V80.0347H595.518V422.361H80.952V78.0262H77.937H74.918V426.375H601.552V76.0204H74.918V78.0262H77.937Z" fill="#FFF3B6"/>
</g>
<defs>
<filter id="filter0_d_688_2" x="14.918" y="16.0204" width="646.634" height="470.355" filterUnits="userSpaceOnUse" color-interpolation-filters="sRGB">
<feFlood flood-opacity="0" result="BackgroundImageFix"/>
<feColorMatrix in="SourceAlpha" type="matrix" values="0 0 0 0 0 0 0 0 0 0 0 0 0 0 0 0 0 0 127 0" result="hardAlpha"/>
<feOffset/>
<feGaussianBlur stdDeviation="30"/>
<feComposite in2="hardAlpha" operator="out"/>
<feColorMatrix type="matrix" values="0 0 0 0 0.972549 0 0 0 0 0.8 0 0 0 0 0.552941 0 0 0 1 0"/>
<feBlend mode="normal" in2="BackgroundImageFix" result="effect1_dropShadow_688_2"/>
<feBlend mode="normal" in="SourceGraphic" in2="effect1_dropShadow_688_2" result="shape"/>
</filter>
</defs>
</svg>