<svg width="186" height="181" viewBox="0 0 186 181" fill="none" xmlns="http://www.w3.org/2000/svg">
<path d="M102.735 146.141L125.799 152.242L111.436 131.735L122.661 125.569L92.17 104.282L134.527 102.835L125.076 90.686L148.013 71.4029L118.052 71.7584L117.286 56.3868L84.2467 82.9315L93.4602 46.9037L80.9311 49.5557L78.4338 24.6448L64.9376 44.3159L55.7601 37.3137L52.0596 75.6844L36.5401 72.9188L51.8185 103.021C51.8185 103.021 52.9759 104.519 50.1242 105.578C47.2725 106.637 22.0117 113.727 22.0117 113.727L24.9181 121.554C24.9181 121.554 48.6877 110.442 51.537 109.384C54.3888 108.325 54.4892 110.213 54.4892 110.213L62.5552 142.994L72.5112 130.771L100.353 157.434L102.739 146.137L102.735 146.141Z" fill="#CCC292"/>
<path d="M116.482 138.658L139.544 144.757L125.182 124.25L136.406 118.084L105.915 96.7967L148.272 95.3503L138.822 83.2009L161.756 63.9186L131.795 64.2741L131.029 48.9026L97.9898 75.4472L107.203 39.4195L94.6742 42.0714L92.176 17.1581L78.6799 36.8293L69.5022 29.827L65.8018 68.1977L50.2823 65.4321L65.5607 95.5347C65.5607 95.5347 66.7173 97.0297 63.8656 98.089C61.0139 99.1484 35.753 106.238 35.753 106.238L38.6594 114.065C38.6594 114.065 62.429 102.953 65.2816 101.896C68.1333 100.837 68.2338 102.725 68.2338 102.725L76.2974 135.507L86.2534 123.284L114.095 149.947L116.482 138.653L116.482 138.658Z" fill="#FFF3B6"/>
<path d="M73.1314 87.1737C66.96 70.5508 55.6041 66.5793 51.6718 65.6855L50.2848 65.4394L65.5632 95.5419C65.5632 95.5419 66.7198 97.0369 63.8681 98.0963C61.0164 99.1556 35.7556 106.245 35.7556 106.245L38.662 114.072C38.662 114.072 62.4316 102.961 65.2842 101.904C68.1359 100.844 68.2364 102.732 68.2364 102.732L76.3 135.514L86.256 123.291L114.098 149.954L116.485 138.66L139.547 144.759L125.185 124.251L136.409 118.085C89.0747 135.656 80.6795 107.503 73.1347 87.1753L73.1314 87.1737Z" fill="#E6DBA4"/>
</svg>
