<svg width="87" height="80" viewBox="0 0 87 80" fill="none" xmlns="http://www.w3.org/2000/svg">
<path d="M78.5908 23.1551L77.858 7.65381L67.9715 20.5636L61.9607 14.7983L54.7448 37.8694L45.5707 11.8651L39.8985 20.0979L23.4807 9.62279L29.5572 28.1485L20.1911 31.6183L43.0795 46.9475L18.9783 48.2509L23.0689 55.5093L8.13672 61.9149L22.9501 66.4552L20.4109 73.5162L44.8835 68.3356L46.2074 78.5045L61.8521 63.155C61.8521 63.155 62.5519 62.1452 63.7647 63.7092C64.9775 65.2733 74.3057 79.5674 74.3057 79.5674L78.5832 76.2394C78.5832 76.2394 67.0594 63.6536 65.8466 62.0895C64.6338 60.528 65.7834 60.0977 65.7834 60.0977L84.4979 48.7039L74.9853 44.9051L86.0467 22.4313L78.5882 23.1526L78.5908 23.1551Z" fill="#CCC292"/>
<path d="M71.2738 16.0814L70.5411 0.580017L60.6571 13.4898L54.6463 7.72455L47.4304 30.7956L38.2563 4.79133L32.5841 13.0241L16.1663 2.54901L22.2427 21.0747L12.8767 24.5445L35.7651 39.8763L11.6639 41.1796L15.7545 48.4381L0.822266 54.8436L15.6357 59.3839L13.0965 66.4449L37.5691 61.2643L38.8905 71.4332L54.5351 56.0837C54.5351 56.0837 55.235 55.0739 56.4478 56.638C57.6605 58.1995 66.9862 72.4962 66.9862 72.4962L71.2637 69.1681C71.2637 69.1681 59.7399 56.5823 58.5271 55.0182C57.3144 53.4542 58.464 53.0239 58.464 53.0239L77.1785 41.6326L67.6684 37.8339L78.7273 15.3601L71.2688 16.0814H71.2738Z" fill="#FFF3B6"/>
<path d="M47.8777 53.0189C38.7946 60.0875 38.5571 67.9103 38.7719 70.5246L38.8906 71.4332L54.5353 56.0837C54.5353 56.0837 55.2352 55.0739 56.4479 56.638C57.6607 58.1995 66.9864 72.4962 66.9864 72.4962L71.2639 69.1681C71.2639 69.1681 59.7401 56.5823 58.5273 55.0182C57.3146 53.4542 58.4642 53.0239 58.4642 53.0239L77.1786 41.6326L67.6686 37.8339L78.7275 15.3601L71.2715 16.0814L70.5388 0.580017L60.6547 13.4898L54.6439 7.72455C74.7733 33.6732 58.9872 44.371 47.8803 53.0164L47.8777 53.0189Z" fill="#E6DBA4"/>
</svg>
