<svg width="161" height="219" viewBox="0 0 161 219" fill="none" xmlns="http://www.w3.org/2000/svg"><path d="M119.877 34.7432L118.75 10.8876L103.537 30.7546L94.2853 21.884L83.1803 57.3891L69.0623 17.369L60.3323 30.0384L35.0643 13.917L44.4173 42.4268L30.0063 47.7694L65.2313 71.3643L28.1413 73.3688L34.4373 84.5399L11.4583 94.3975L34.2553 101.388L30.3473 112.252L68.0113 104.278L70.0473 119.931L94.1263 96.3108C94.1263 96.3108 95.2043 94.7568 97.0693 97.1637C98.9363 99.5705 113.29 121.568 113.29 121.568L119.871 116.446C119.871 116.446 102.137 97.0776 100.27 94.6708C98.4033 92.264 100.172 91.6034 100.172 91.6034L128.972 74.0698L114.336 68.2261L131.357 33.6398L119.882 34.7483L119.877 34.7432Z" fill="#CCC292"/><path d="M108.615 23.8556L107.488 0L92.2753 19.867L83.0233 10.9965L71.9193 46.5015L57.8003 6.48146L49.0713 19.1508L23.8023 3.02941L33.1563 31.5392L18.7443 36.8818L53.9703 60.4768L16.8793 62.4812L23.1763 73.6523L0.196289 83.5099L22.9943 90.5L19.0853 101.367L56.7493 93.3928L58.7833 109.043L82.8613 85.4232C82.8613 85.4232 83.9403 83.8693 85.8053 86.2761C87.6723 88.6829 102.025 110.681 102.025 110.681L108.607 105.558C108.607 105.558 90.8733 86.19 89.0063 83.7832C87.1393 81.3764 88.9103 80.7158 88.9103 80.7158L117.708 63.1822L103.069 57.3385L120.091 22.7522L108.612 23.8607L108.615 23.8556Z" fill="#FFF3B6"/><path d="M72.6153 80.7007C58.6363 91.5807 58.2723 103.617 58.6003 107.641L58.7823 109.038L82.8613 85.4181C82.8613 85.4181 83.9393 83.8642 85.8043 86.271C87.6713 88.6778 102.025 110.676 102.025 110.676L108.607 105.553C108.607 105.553 90.8723 86.185 89.0053 83.7782C87.1383 81.3713 88.9093 80.7108 88.9093 80.7108L117.707 63.1772L103.068 57.3335L120.09 22.7471L108.612 23.8556L107.485 0L92.2723 19.867L83.0203 10.9965C113.998 50.933 89.7053 67.3961 72.6103 80.7007H72.6153Z" fill="#E6DBA4"/><path d="M153.127 162.155L152.394 146.654L142.507 159.564L136.497 153.798L129.281 176.869L120.107 150.865L114.435 159.098L98.0173 148.623L104.093 167.149L94.7273 170.618L117.615 185.948L93.5143 187.251L97.6053 194.509L82.6733 200.915L97.4863 205.455L94.9473 212.516L119.419 207.336L120.743 217.504L136.388 202.155C136.388 202.155 137.088 201.145 138.301 202.709C139.513 204.273 148.842 218.567 148.842 218.567L153.119 215.239C153.119 215.239 141.595 202.654 140.383 201.09C139.17 199.528 140.319 199.098 140.319 199.098L159.034 187.704L149.521 183.905L160.583 161.431L153.124 162.153L153.127 162.155Z" fill="#CCC292"/><path d="M145.81 155.081L145.077 139.58L135.193 152.49L129.182 146.725L121.966 169.796L112.792 143.791L107.12 152.024L90.7023 141.549L96.7793 160.075L87.4133 163.544L110.301 178.876L86.2003 180.18L90.2903 187.438L75.3583 193.844L90.1723 198.384L87.6323 205.445L112.105 200.264L113.426 210.433L129.071 195.084C129.071 195.084 129.771 194.074 130.984 195.638C132.197 197.199 141.522 211.496 141.522 211.496L145.8 208.168C145.8 208.168 134.276 195.582 133.063 194.018C131.85 192.454 133 192.024 133 192.024L151.714 180.633L142.204 176.834L153.263 154.36L145.805 155.081H145.81Z" fill="#FFF3B6"/><path d="M122.414 192.019C113.331 199.087 113.093 206.91 113.308 209.525L113.427 210.433L129.071 195.084C129.071 195.084 129.771 194.074 130.984 195.638C132.197 197.199 141.522 211.496 141.522 211.496L145.8 208.168C145.8 208.168 134.276 195.582 133.063 194.018C131.851 192.454 133 192.024 133 192.024L151.715 180.633L142.205 176.834L153.263 154.36L145.807 155.081L145.075 139.58L135.191 152.49L129.18 146.725C149.309 172.673 133.523 183.371 122.416 192.016L122.414 192.019Z" fill="#E6DBA4"/></svg>
